<svg xmlns="http://www.w3.org/2000/svg" width="210mm" height="297mm" viewBox="0 0 210 297">
    <g style="display:inline">
        <path d="M93.812 226.787C85.57 212.789 80.994 204.8 80.52 203.59a77 77 0 0 0-1.114-2.717c-.354-.783-.377-1.253-.227-4.78.17-4.005.47-5.623 1.476-7.97.457-1.066 3.184-5.88 7.577-13.38 2.496-4.26 2.752-4.618 3.31-4.618.573 0 .873.48 5.414 8.662 3.074 5.537 4.808 8.883 4.808 9.273 0 .337-.237 1.304-.527 2.15-.75 2.183-.893 4.159-.477 6.564.588 3.395 1.562 5.716 4.36 10.389a180 180 0 0 1 2.291 3.924c.397.717 2.956 5.134 5.687 9.816 2.73 4.681 4.964 8.716 4.964 8.965s-1.677 3.313-3.726 6.808l-5.224 8.908c-1.353 2.308-1.556 2.553-2.114 2.553-.588 0-1.201-.992-13.186-21.35m-19.643-2.716c0-.21.864-3.705 1.919-7.769 1.73-6.671 1.962-7.395 2.383-7.457.256-.038 1.3.248 2.318.635 1.718.652 1.853.748 1.853 1.314 0 .385-1.344 3.016-3.64 7.128-3.39 6.07-3.681 6.519-4.238 6.524-.427.004-.597-.104-.595-.375m60.789-6.149c-2.297-4.112-3.64-6.743-3.64-7.128 0-.566.134-.662 1.852-1.314 1.02-.387 2.062-.673 2.319-.635.42.062.652.786 2.383 7.457 1.054 4.064 1.918 7.56 1.919 7.769 0 .271-.169.378-.596.375-.556-.005-.848-.455-4.237-6.524m-18.552-4.379c-5.922-10.244-5.65-9.451-4.357-12.703 1.362-3.427 1.738-7.016.968-9.254-.26-.755-5.808-10.099-6.565-11.056-.248-.313-5.29-8.89-11.207-19.059l-10.756-18.49-16.57-.009-16.57-.009v-1.157c0-2.547 1.58-9.47 3.305-14.489l.933-2.716 2.608-.147c3.122-.175 37.21.04 37.762.24.217.077 2.798 4.326 5.887 9.693 10.777 18.717 20.214 34.7 21.102 35.74.658.769 9.73 16.534 10.358 17.998 1.006 2.347 1.306 3.965 1.476 7.97.15 3.544.13 3.992-.231 4.78-.219.478-.692 1.651-1.051 2.608-.395 1.051-2.651 5.128-5.712 10.321-4.432 7.52-5.13 8.592-5.625 8.65-.533.062-.87-.46-5.755-8.91zm-85.483 8c0-.345 3.956-5.78 11.923-16.38 6.558-8.725 11.984-15.963 12.06-16.085.075-.122-.678-1.307-1.674-2.634-1.922-2.56-4.562-6.85-5.93-9.637-.456-.926-.938-1.684-1.073-1.684s-3.588.782-7.673 1.738-7.718 1.739-8.074 1.739c-.537 0-.645-.088-.645-.523 0-.46.845-.993 7.116-4.487a3572 3572 0 0 0 7.161-3.994c.024-.016-.25-.955-.608-2.086-1.288-4.068-2.386-9.28-2.712-12.872l-.152-1.68-.676-.008c-.372-.005-8.807-1.259-18.744-2.786-18.956-2.914-19.315-2.99-18.44-3.863.273-.273 4.581-.983 18.432-3.037 9.941-1.474 18.38-2.682 18.752-2.686.675-.006.676-.008.82-1.472.359-3.653 1.479-8.958 2.71-12.837l.642-2.025-.61-.365c-.337-.2-3.698-2.076-7.47-4.168-6.392-3.545-6.858-3.843-6.865-4.4-.007-.48.089-.597.48-.592.27.003 4.17.865 8.667 1.913l8.177 1.906.806-1.64c1.357-2.764 4.003-7.055 5.936-9.627 1.01-1.345 1.88-2.553 1.93-2.685.053-.133-5.142-7.296-11.542-15.918-11.965-16.12-12.507-16.942-11.032-16.725.368.054 6.798 4.625 16.387 11.65l15.782 11.56 2.247-1.69c3.687-2.776 10.169-6.566 11.229-6.566.808 0 .569 1.053-.954 4.189-1.485 3.06-1.522 3.19-1.284 4.624l.146.881-1.811 1.183c-4.58 2.992-9.778 7.745-13.414 12.266-8.529 10.603-13.068 23.316-13.079 36.625-.004 5.786.69 10.727 2.288 16.278 2.111 7.336 6.445 15.463 11.362 21.307 3.445 4.094 8.103 8.315 12.265 11.113 1.539 1.035 1.909 1.388 1.909 1.82 0 .8.77 2.914 2.201 6.05 1.397 3.06 1.56 3.834.807 3.834-1.117 0-7.93-3.974-11.796-6.88l-2.383-1.79-1.096.786c-.604.433-7.916 5.757-16.249 11.832-10.512 7.663-15.32 11.046-15.7 11.046-.433 0-.549-.11-.549-.518m135.924-10.47c-8.247-6.028-15.538-11.345-16.203-11.815l-1.21-.855-2.378 1.787c-3.863 2.903-10.676 6.877-11.792 6.877-.753 0-.59-.774.806-3.833 1.432-3.137 2.202-5.252 2.202-6.05 0-.433.37-.786 1.909-1.82 4.162-2.8 8.82-7.02 12.265-11.114 4.917-5.844 9.25-13.971 11.362-21.307 1.598-5.551 2.292-10.492 2.287-16.278-.01-13.309-4.55-26.022-13.078-36.625-3.637-4.52-8.835-9.274-13.415-12.266l-1.81-1.183.145-.881c.238-1.434.202-1.565-1.284-4.624-1.522-3.136-1.762-4.189-.954-4.189 1.06 0 7.542 3.79 11.23 6.565l2.246 1.691 15.782-11.56c9.59-7.025 16.02-11.596 16.387-11.65 1.476-.217.933.605-11.031 16.724-6.4 8.623-11.595 15.785-11.543 15.918.051.132.92 1.34 1.93 2.685 1.933 2.572 4.58 6.863 5.937 9.626l.806 1.641 8.177-1.906c4.497-1.048 8.397-1.909 8.666-1.912.392-.005.487.112.48.59-.006.558-.473.857-6.865 4.401-3.772 2.092-7.133 3.967-7.469 4.168l-.61.365.642 2.025c1.23 3.879 2.35 9.184 2.71 12.837.137 1.4.17 1.466.711 1.465.312 0 8.635 1.187 18.495 2.64 15.722 2.315 17.98 2.695 18.353 3.082.289.3.341.47.163.53-.144.048-.262.202-.262.341q0 .254-18.2 3.031c-10.009 1.528-18.405 2.775-18.658 2.77-.415-.005-.473.154-.61 1.674-.326 3.592-1.425 8.804-2.713 12.872-.358 1.13-.632 2.07-.608 2.086s3.247 1.814 7.161 3.994c6.271 3.494 7.117 4.027 7.117 4.487 0 .435-.109.523-.646.523-.355 0-3.988-.783-8.073-1.739s-7.539-1.738-7.673-1.738-.618.758-1.073 1.684c-1.369 2.786-4.009 7.076-5.93 9.637-.996 1.327-1.75 2.512-1.674 2.634.075.122 5.502 7.36 12.06 16.085 7.966 10.6 11.922 16.035 11.922 16.38 0 1.293-.824.76-16.189-10.47m-62.692-15.143c0-.27.485-1.247 1.079-2.173.961-1.5 1.152-1.684 1.746-1.684s.784.183 1.746 1.684c.593.926 1.079 1.904 1.079 2.173 0 .482-.04.489-2.825.489s-2.825-.007-2.825-.49m-49.16-27.055c-.625-.71-1.245-2.188-1.908-4.547-.847-3.01-2.38-10.537-2.544-12.482l-.125-1.496H67.15c9.204 0 17.184.062 17.735.137l1.002.138 3.266 5.487c2.411 4.05 3.266 5.671 3.266 6.191 0 .523-.508 1.478-1.963 3.693-1.838 2.797-2.015 2.996-2.77 3.121-.445.074-7.907.135-16.583.136-14.754.002-15.797-.022-16.11-.378m71.07.227c-.47-.073-.952-.655-2.553-3.091-1.463-2.227-1.973-3.185-1.973-3.707 0-.52.855-2.142 3.266-6.192l3.267-5.487 1.001-.138c.551-.075 8.532-.137 17.735-.137h16.734l-.126 1.496c-.296 3.538-2.681 13.794-3.66 15.742-.926 1.84.842 1.672-17.118 1.635-8.796-.018-16.253-.073-16.573-.121m-9.487-23.542c-3.134-5.193-5.252-8.921-5.252-9.245 0-.302 1.409-2.994 3.176-6.07 2.964-5.156 3.223-5.534 3.858-5.63 1.148-.174 34.627-.32 37.405-.163l2.607.148.934 2.716c1.725 5.018 3.304 11.942 3.304 14.489v1.157l-16.57.008-16.57.008-3.259 5.639c-2.928 5.067-3.316 5.64-3.82 5.642-.506.002-1.068-.84-5.813-8.7zm-14.624-16.823-4.427-7.706-3.828-.008-3.828-.008-1.036-1.793a2353 2353 0 0 0-4.834-8.259c-4.283-7.294-4.8-8.529-4.994-11.917-.247-4.319.526-7.08 3.46-12.365 3.53-6.356 8.045-14.223 8.395-14.624.245-.281.586-.373 1.216-.326l.876.064 1.713 2.934c3.238 5.546 7.76 13.8 8.006 14.614.227.748.18.954-.564 2.542-2.377 5.064-1.69 9.236 2.791 16.96 8.275 14.267 8.877 15.39 8.762 16.364-.077.659-.94 2.349-3.098 6.073-2.756 4.758-3.037 5.161-3.587 5.161-.556 0-.896-.522-5.023-7.706M115.56 113.7c-2.389-4.022-4.373-7.488-4.41-7.702-.038-.214.28-1.321.707-2.46s.93-2.985 1.118-4.101c.31-1.827.31-2.22.015-3.935a14.6 14.6 0 0 0-1.12-3.571c-.435-.917-4.158-7.498-8.273-14.625-5.462-9.46-7.482-13.141-7.482-13.636 0-.481 1.433-3.228 4.943-9.472 4.799-8.535 4.963-8.793 5.596-8.79.631.002.883.397 8.04 12.632 4.064 6.946 7.696 13.04 8.072 13.544.683.913 4.97 8.332 8.726 15.095 2.934 5.285 3.707 8.047 3.46 12.365-.193 3.388-.71 4.623-4.994 11.917a2356 2356 0 0 0-4.834 8.26l-1.036 1.792h-4.186zm-10.326-13.928c-.594-.927-1.08-1.905-1.08-2.173 0-.482.041-.49 2.826-.49 2.784 0 2.825.008 2.825.49 0 .268-.486 1.246-1.08 2.173-.96 1.5-1.151 1.684-1.745 1.684s-.785-.184-1.746-1.684m-29.3-22.274c-1.085-4.425-1.77-7.668-1.77-8.366.003-1.04.046-1.14.492-1.134.41.006 1.05.996 4.019 6.22l3.53 6.212-.137 1.479-.138 1.479-1.493.668c-.821.367-1.772.667-2.113.667h-.619zm57.532 6.546-1.437-.656-.137-1.479-.138-1.48 3.53-6.211c2.97-5.224 3.609-6.214 4.02-6.22.445-.007.489.094.49 1.134.002.698-.683 3.94-1.768 8.366l-1.772 7.225-.675-.011c-.372-.007-1.322-.307-2.113-.668" style="fill:#fefefe;stroke-width:.21730416"/>
    </g>
</svg>
