<?xml version="1.0" encoding="UTF-8" standalone="no"?>
<!-- Created with Inkscape (http://www.inkscape.org/) -->

<svg
   xmlns:dc="http://purl.org/dc/elements/1.1/"
   xmlns:cc="http://creativecommons.org/ns#"
   xmlns:rdf="http://www.w3.org/1999/02/22-rdf-syntax-ns#"
   xmlns:svg="http://www.w3.org/2000/svg"
   xmlns="http://www.w3.org/2000/svg"
   xmlns:sodipodi="http://sodipodi.sourceforge.net/DTD/sodipodi-0.dtd"
   xmlns:inkscape="http://www.inkscape.org/namespaces/inkscape"
   width="210mm"
   height="297mm"
   viewBox="0 0 210 297"
   version="1.1"
   id="svg8"
   sodipodi:docname="arbitrations.svg"
   inkscape:version="0.92.4 (5da689c313, 2019-01-14)">
  <defs
     id="defs2" />
  <sodipodi:namedview
     id="base"
     pagecolor="#ffffff"
     bordercolor="#666666"
     borderopacity="1.0"
     inkscape:pageopacity="0"
     inkscape:pageshadow="2"
     inkscape:zoom="0.24748737"
     inkscape:cx="-299.00203"
     inkscape:cy="1293.7768"
     inkscape:document-units="mm"
     inkscape:current-layer="layer1"
     showgrid="false"
     inkscape:window-width="1247"
     inkscape:window-height="1048"
     inkscape:window-x="2553"
     inkscape:window-y="0"
     inkscape:window-maximized="0"
     inkscape:pagecheckerboard="false" />
  <metadata
     id="metadata5">
    <rdf:RDF>
      <cc:Work
         rdf:about="">
        <dc:format>image/svg+xml</dc:format>
        <dc:type
           rdf:resource="http://purl.org/dc/dcmitype/StillImage" />
        <dc:title></dc:title>
      </cc:Work>
    </rdf:RDF>
  </metadata>
  <g
     inkscape:label="Layer 1"
     inkscape:groupmode="layer"
     id="layer1"
     style="display:inline">
    <path
       style="fill:#fefefe;stroke-width:0.21730416"
       d="m 93.811741,226.78687 c -8.241085,-13.9983 -12.817888,-21.98617 -13.291313,-23.19721 -0.397136,-1.0159 -0.898783,-2.23824 -1.114771,-2.71631 -0.35412,-0.78382 -0.376353,-1.25349 -0.226283,-4.78069 0.170364,-4.0042 0.470066,-5.62223 1.476102,-7.96922 0.456946,-1.06602 3.183038,-5.88039 7.5768,-13.38091 2.495371,-4.2598 2.751957,-4.61771 3.310439,-4.61771 0.571804,0 0.872303,0.48083 5.413558,8.66218 3.073387,5.53689 4.808147,8.88271 4.808147,9.27341 0,0.33619 -0.2374,1.30311 -0.52755,2.14871 -0.74924,2.18353 -0.89266,4.15954 -0.47648,6.56486 0.58742,3.39497 1.56136,5.71552 4.36024,10.38892 0.86299,1.44097 1.89381,3.20665 2.29071,3.92376 0.39691,0.7171 2.95573,5.13424 5.68627,9.81588 2.73054,4.68163 4.96463,8.71616 4.96463,8.96559 0,0.24946 -1.67683,3.313 -3.72625,6.80788 -2.04944,3.4949 -4.40007,7.50335 -5.2236,8.90767 -1.35378,2.30852 -1.55651,2.55333 -2.11438,2.55333 -0.58836,0 -1.20102,-0.99197 -13.186269,-21.35014 z m -19.642986,-2.71629 c 0.0011,-0.20916 0.864546,-3.70504 1.918816,-7.76863 1.730836,-6.67135 1.962091,-7.39501 2.382998,-7.45707 0.256378,-0.0379 1.299755,0.24792 2.318616,0.63493 1.718176,0.65266 1.852472,0.7479 1.852472,1.31381 0,0.38494 -1.343478,3.01606 -3.639844,7.12841 -3.389176,6.06937 -3.681,6.51863 -4.237431,6.52355 -0.427001,0.004 -0.597028,-0.10323 -0.595627,-0.375 z m 60.788875,-6.14855 c -2.29637,-4.11235 -3.63985,-6.74347 -3.63985,-7.12841 0,-0.56591 0.1343,-0.66115 1.85248,-1.31381 1.01886,-0.38701 2.06223,-0.67273 2.31861,-0.63493 0.42091,0.062 0.65217,0.78572 2.38299,7.45707 1.05429,4.06359 1.91775,7.55947 1.91882,7.76863 0.001,0.27172 -0.16862,0.37877 -0.59562,0.375 -0.55643,-0.005 -0.84825,-0.45418 -4.23743,-6.52355 z m -18.55158,-4.37897 c -5.92212,-10.24383 -5.65033,-9.45146 -4.35729,-12.7031 1.36259,-3.42658 1.73801,-7.01547 0.96805,-9.25418 -0.25955,-0.75465 -5.80817,-10.09853 -6.5652,-11.05583 -0.24736,-0.31279 -5.29021,-8.88919 -11.206312,-19.05866 l -10.756556,-18.48996 -16.569439,-0.009 -16.569445,-0.009 v -1.15718 c 0,-2.54681 1.578708,-9.47034 3.303731,-14.48872 l 0.933702,-2.71631 2.607648,-0.14678 c 3.121912,-0.17574 37.209308,0.04 37.762453,0.2391 0.216894,0.078 2.797211,4.32661 5.887108,9.69334 10.77649,18.71725 20.21327,34.70018 21.10167,35.73956 0.6579,0.76971 9.73027,16.53464 10.35779,17.99862 1.00604,2.34699 1.30574,3.96502 1.4761,7.96922 0.15084,3.54514 0.12918,3.99289 -0.23133,4.78069 -0.21876,0.47807 -0.69163,1.65152 -1.05082,2.60765 -0.39514,1.05188 -2.65111,5.12836 -5.71227,10.32195 -4.43191,7.51923 -5.12936,8.59171 -5.62495,8.64959 -0.53261,0.0622 -0.86967,-0.45965 -5.75464,-8.90948 z m -85.482781,8.0004 c 0,-0.34549 3.955856,-5.78033 11.922747,-16.38032 6.557511,-8.7248 11.984365,-15.96297 12.059674,-16.08483 0.07531,-0.12184 -0.677756,-1.30716 -1.673476,-2.63403 -1.921736,-2.56084 -4.561826,-6.85083 -5.930911,-9.63736 -0.455092,-0.92625 -0.937732,-1.68411 -1.072539,-1.68411 -0.1348,0 -3.587604,0.7823 -7.672889,1.73843 -4.085281,0.95615 -7.718338,1.73844 -8.073457,1.73844 -0.536969,0 -0.645665,-0.088 -0.645665,-0.52241 0,-0.46034 0.845531,-0.99341 7.11671,-4.4868 3.914191,-2.18042 7.136452,-3.97785 7.16058,-3.99431 0.02415,-0.0165 -0.249306,-0.95545 -0.60764,-2.08664 -1.288427,-4.06737 -2.386622,-9.27932 -2.712149,-12.87167 l -0.15224,-1.68005 -0.676266,-0.008 c -0.371947,-0.005 -8.806503,-1.25859 -18.743454,-2.78605 -18.9562566,-2.91386 -19.31485,-2.98898 -18.4406934,-3.86313 0.2729467,-0.27295 4.5816427,-0.9827 18.4320514,-3.0362 9.941705,-1.47399 18.38013,-2.68271 18.75206,-2.68604 0.674954,-0.006 0.676499,-0.008 0.820337,-1.47286 0.358883,-3.65284 1.478642,-8.95773 2.709525,-12.83644 l 0.642794,-2.02556 -0.61096,-0.36479 c -0.336024,-0.20064 -3.696997,-2.07606 -7.46881,-4.16762 -6.392299,-3.54466 -6.858393,-3.84338 -6.865809,-4.40041 -0.0064,-0.47904 0.08904,-0.59631 0.480982,-0.59121 0.268913,0.003 4.168567,0.86415 8.665894,1.91253 l 8.17696,1.90615 0.806058,-1.6409 c 1.357301,-2.76303 4.003687,-7.05461 5.936196,-9.62655 1.010387,-1.34471 1.879332,-2.55305 1.930988,-2.68521 C 55.241547,104.453 50.04714,97.290101 43.646791,88.667613 31.682113,72.548391 31.139878,71.726347 32.615219,71.942882 c 0.367876,0.05396 6.797644,4.624934 16.387114,11.649653 l 15.781692,11.560799 2.246713,-1.691144 c 3.687324,-2.775514 10.169046,-6.564853 11.229281,-6.564853 0.808265,0 0.56859,1.052316 -0.953967,4.188457 -1.485413,3.059633 -1.521635,3.190107 -1.283801,4.624243 l 0.146119,0.881099 -1.811383,1.183291 c -4.579432,2.991523 -9.777536,7.744643 -13.414104,12.265793 -8.52863,10.6032 -13.068367,23.31584 -13.078882,36.62483 -0.0043,5.78611 0.689738,10.72662 2.287633,16.27813 2.111366,7.33545 6.445262,15.4624 11.36217,21.3064 3.444851,4.09441 8.102974,8.31532 12.265069,11.11391 1.538885,1.03475 1.909052,1.38773 1.909052,1.82043 0,0.79826 0.769354,2.91283 2.201157,6.04987 1.396445,3.05958 1.559134,3.83274 0.806493,3.83274 -1.116343,0 -7.929825,-3.97355 -11.795886,-6.87922 l -2.382279,-1.7905 -1.096845,0.78658 c -0.603267,0.43263 -7.915131,5.75696 -16.248599,11.83186 -10.511524,7.66265 -15.31972,11.04526 -15.700223,11.04526 -0.432751,0 -0.548474,-0.10908 -0.548474,-0.51705 z M 166.84701,211.07249 c -8.24669,-6.02773 -15.53824,-11.3443 -16.20344,-11.81461 l -1.20946,-0.85512 -2.37832,1.78752 c -3.86235,2.90289 -10.67618,6.87625 -11.79192,6.87625 -0.75264,0 -0.58995,-0.77316 0.80649,-3.83274 1.43181,-3.13704 2.20116,-5.25161 2.20116,-6.04987 0,-0.4327 0.37017,-0.78568 1.90905,-1.82043 4.1621,-2.79859 8.82021,-7.0195 12.26507,-11.11391 4.91691,-5.844 9.2508,-13.97095 11.36217,-21.3064 1.59789,-5.55151 2.2922,-10.49202 2.28763,-16.27813 -0.0105,-13.30899 -4.55025,-26.02163 -13.07888,-36.62483 -3.63657,-4.52115 -8.83467,-9.27427 -13.41411,-12.265793 l -1.81138,-1.183291 0.14612,-0.881099 c 0.23783,-1.434136 0.20162,-1.56461 -1.28379,-4.624243 -1.52257,-3.136141 -1.76224,-4.188457 -0.95398,-4.188457 1.06024,0 7.54196,3.789339 11.22928,6.564853 l 2.24672,1.691144 15.78169,-11.560799 c 9.58946,-7.024719 16.01923,-11.595662 16.38712,-11.649653 1.47533,-0.216535 0.9331,0.605509 -11.03158,16.724203 -6.40035,8.622488 -11.59474,15.785375 -11.54307,15.917545 0.0517,0.13216 0.9206,1.34051 1.93098,2.68521 1.93251,2.57193 4.5789,6.86352 5.9362,9.62658 l 0.80605,1.6409 8.17696,-1.90615 c 4.49733,-1.04839 8.39699,-1.90903 8.6659,-1.91253 0.39194,-0.005 0.48735,0.11217 0.48098,0.59121 -0.007,0.55703 -0.4735,0.85575 -6.8658,4.40041 -3.77182,2.09156 -7.1328,3.96698 -7.46881,4.16761 l -0.61097,0.36479 0.64279,2.02555 c 1.23089,3.87873 2.35065,9.18361 2.70952,12.83645 0.13758,1.40017 0.1699,1.46674 0.7117,1.46544 0.31217,-6.2e-4 8.635,1.18695 18.49517,2.63934 15.72197,2.31581 17.97992,2.6951 18.35295,3.08291 0.2886,0.30004 0.341,0.47035 0.16298,0.52969 -0.14431,0.0481 -0.26241,0.20154 -0.26243,0.34097 -3e-5,0.16903 -6.06562,1.17926 -18.19923,3.0311 -10.00954,1.52767 -18.4057,2.77445 -18.65813,2.77063 -0.41524,-0.006 -0.47346,0.15309 -0.6112,1.67311 -0.32554,3.59235 -1.42373,8.8043 -2.71215,12.87167 -0.35833,1.13119 -0.63178,2.07019 -0.60764,2.08664 0.0242,0.0165 3.24639,1.81389 7.16058,3.99431 6.27117,3.49339 7.11671,4.02646 7.11671,4.4868 0,0.43446 -0.1087,0.52241 -0.64567,0.52241 -0.35511,0 -3.98817,-0.78229 -8.07346,-1.73844 -4.08527,-0.95613 -7.53809,-1.73843 -7.67289,-1.73843 -0.1348,0 -0.61745,0.75786 -1.07254,1.68411 -1.36907,2.78653 -4.00916,7.07652 -5.93089,9.63736 -0.99573,1.32687 -1.7488,2.51219 -1.67349,2.63403 0.0753,0.12186 5.50216,7.36003 12.05967,16.08483 7.9669,10.59999 11.92275,16.03483 11.92275,16.38032 0,1.29276 -0.82454,0.75946 -16.18916,-10.47097 z M 104.1548,195.92968 c 1e-5,-0.26891 0.4856,-1.24677 1.07907,-2.17303 0.96126,-1.50031 1.15181,-1.68412 1.74585,-1.68412 0.59404,0 0.78459,0.18381 1.74586,1.68412 0.59346,0.92626 1.07904,1.90412 1.07907,2.17303 3e-5,0.48198 -0.0403,0.48894 -2.82493,0.48894 -2.78472,0 -2.82495,-0.007 -2.82492,-0.48894 z M 54.99438,168.87532 c -0.624278,-0.7101 -1.244453,-2.18817 -1.907815,-4.54693 -0.846763,-3.01085 -2.380493,-10.53749 -2.543518,-12.48205 l -0.125438,-1.49619 h 16.733609 c 9.203483,0 17.184269,0.0617 17.73508,0.13726 l 1.001475,0.13727 3.266286,5.48693 c 2.411359,4.05078 3.266285,5.67146 3.266285,6.19189 0,0.52261 -0.50787,1.47774 -1.963502,3.6927 -1.838317,2.79727 -2.014963,2.99625 -2.770627,3.12119 -0.44392,0.0734 -7.905967,0.13451 -16.582323,0.13582 -14.753518,0.002 -15.796847,-0.0222 -16.109512,-0.37789 z m 71.07101,0.2263 c -0.47097,-0.0722 -0.95224,-0.65474 -2.55332,-3.09103 -1.46336,-2.22668 -1.97297,-3.18423 -1.97297,-3.70709 0,-0.52043 0.85493,-2.14111 3.26628,-6.19189 l 3.26629,-5.48693 1.00147,-0.13727 c 0.55081,-0.0755 8.53161,-0.13726 17.73508,-0.13726 h 16.7336 l -0.12542,1.49619 c -0.29661,3.53794 -2.68171,13.79322 -3.66107,15.74161 -0.92511,1.84048 0.84223,1.67165 -17.11708,1.63509 -8.79588,-0.0179 -16.25367,-0.0726 -16.57286,-0.12142 z m -9.48703,-23.54205 c -3.13413,-5.19238 -5.25256,-8.92096 -5.25256,-9.24483 0,-0.30205 1.4089,-2.99402 3.17668,-6.06963 2.96379,-5.15645 3.22227,-5.53375 3.85715,-5.63004 1.14798,-0.17411 34.62747,-0.3199 37.40487,-0.16289 l 2.60766,0.14742 0.93369,2.71631 c 1.72502,5.01837 3.30373,11.94191 3.30373,14.48872 v 1.15718 l -16.56944,0.008 -16.56944,0.008 -3.25956,5.63919 c -2.92855,5.06652 -3.31647,5.63944 -3.81989,5.64164 -0.50614,0.002 -1.06831,-0.83913 -5.81289,-8.69959 z m -14.62448,-16.82281 -4.426888,-7.70593 -3.827819,-0.008 -3.827822,-0.008 -1.036278,-1.79275 c -0.569955,-0.98602 -2.745071,-4.7026 -4.83359,-8.25909 -4.283285,-7.2939 -4.800805,-8.52877 -4.994408,-11.917403 -0.246707,-4.318154 0.526123,-7.079573 3.460487,-12.364796 3.528958,-6.356165 8.044337,-14.222387 8.394538,-14.624092 0.245141,-0.281195 0.585958,-0.37254 1.216195,-0.325959 l 0.875609,0.06471 1.712961,2.933607 c 3.238198,5.545725 7.760455,13.799824 8.006465,14.61354 0.22633,0.74865 0.18057,0.954795 -0.56424,2.541954 -2.376594,5.064447 -1.69015,9.236019 2.79105,16.961269 8.27514,14.26573 8.87721,15.39006 8.76225,16.36307 -0.0778,0.65866 -0.93989,2.34869 -3.09809,6.07357 -2.75632,4.75718 -3.03695,5.16097 -3.58689,5.16097 -0.5562,0 -0.89665,-0.52225 -5.02353,-7.70593 z m 13.60588,-15.03536 c -2.38844,-4.02198 -4.37316,-7.48804 -4.41048,-7.70238 -0.0373,-0.21432 0.28112,-1.32148 0.70768,-2.46035 0.42655,-1.13888 0.92989,-2.9842 1.11853,-4.100738 0.30872,-1.82727 0.31014,-2.220315 0.0143,-3.934823 -0.20544,-1.190485 -0.62542,-2.529668 -1.11997,-3.571168 -0.43523,-0.916516 -4.15819,-7.497718 -8.2733,-14.624899 -5.461988,-9.459942 -7.481996,-13.141496 -7.481996,-13.636264 0,-0.481259 1.433321,-3.227311 4.943666,-9.471423 4.79848,-8.535386 4.96282,-8.793581 5.59559,-8.790932 0.63151,0.0025 0.88317,0.398047 8.04024,12.632308 4.06359,6.946267 7.69581,13.040985 8.07159,13.543816 0.68291,0.913771 4.97124,8.332107 8.72627,15.095485 2.93438,5.285222 3.7072,8.046641 3.4605,12.364792 -0.1936,3.388626 -0.71112,4.623516 -4.99442,11.917406 -2.08851,3.55649 -4.26363,7.27308 -4.83359,8.25909 l -1.03627,1.79276 h -2.09287 -2.09286 z M 105.23387,99.772612 c -0.59347,-0.92626 -1.07906,-1.904132 -1.07907,-2.173046 -3e-5,-0.481972 0.0402,-0.488934 2.82492,-0.488934 2.78473,0 2.82496,0.007 2.82493,0.488934 -3e-5,0.268914 -0.48561,1.246786 -1.07907,2.173046 -0.96127,1.500288 -1.15182,1.684098 -1.74586,1.684098 -0.59404,0 -0.78459,-0.18381 -1.74585,-1.684098 z M 75.933793,77.498932 c -1.08493,-4.425283 -1.770557,-7.667482 -1.769206,-8.366208 0.002,-1.039713 0.04555,-1.140216 0.491143,-1.133687 0.411145,0.0062 1.050592,0.995542 4.019195,6.219529 l 3.530259,6.212365 -0.137455,1.478968 -0.137458,1.478974 -1.493304,0.667711 c -0.821318,0.367241 -1.771956,0.667711 -2.112533,0.667711 h -0.619225 z m 57.532447,6.546226 -1.43705,-0.656106 -0.13746,-1.479061 -0.13747,-1.47906 3.53026,-6.212365 c 2.96861,-5.223987 3.60805,-6.213505 4.0192,-6.219529 0.44559,-0.0066 0.48912,0.09398 0.49114,1.133687 0.001,0.698726 -0.68428,3.940925 -1.76922,8.366208 l -1.77141,7.225363 -0.67546,-0.01152 c -0.37151,-0.0064 -1.32214,-0.306764 -2.11253,-0.667624 z"
       id="path334"
       inkscape:connector-curvature="0" />
  </g>
</svg>
