<?xml version="1.0" standalone="no"?>
<!DOCTYPE svg PUBLIC "-//W3C//DTD SVG 20010904//EN"
 "http://www.w3.org/TR/2001/REC-SVG-20010904/DTD/svg10.dtd">
<svg version="1.0" xmlns="http://www.w3.org/2000/svg"
 width="512.000000pt" height="512.000000pt" viewBox="0 0 512.000000 512.000000"
 preserveAspectRatio="xMidYMid meet">
<metadata>
Created by potrace 1.16, written by Peter Selinger 2001-2019
</metadata>
<g transform="translate(0.000000,512.000000) scale(0.100000,-0.100000)"
fill="#f2f2f2" stroke="none">
<path d="M2225 4444 c-372 -67 -729 -273 -1155 -665 -107 -99 -417 -415 -652
-664 -124 -132 -199 -271 -233 -436 -15 -72 -21 -319 -8 -319 5 0 151 143 325
317 l318 318 0 -205 0 -205 -320 -320 -320 -320 2 -259 3 -258 835 832 c459
457 862 855 895 883 139 117 323 218 475 258 109 29 283 32 380 6 150 -40 327
-150 432 -268 108 -120 197 -309 213 -449 13 -116 1 -119 156 36 l141 139 -6
61 c-19 190 -103 353 -265 514 -216 215 -525 353 -822 367 -154 7 -259 -7
-396 -52 -267 -89 -481 -241 -815 -578 l-198 -200 0 205 0 204 57 70 c77 95
213 227 314 306 226 176 432 275 689 329 152 32 408 33 568 1 496 -99 905
-390 1116 -792 l54 -104 8 49 c4 27 4 92 0 145 -16 244 -113 449 -300 635
-230 228 -540 372 -905 420 -140 19 -478 18 -586 -1z"/>
<path d="M4090 2860 c-459 -457 -862 -855 -895 -883 -139 -117 -323 -218 -475
-258 -109 -29 -283 -32 -380 -6 -150 40 -327 150 -432 268 -108 120 -197 309
-213 449 -13 116 -1 119 -156 -36 l-141 -139 6 -61 c19 -190 103 -353 265
-514 216 -215 525 -353 822 -367 154 -7 259 7 396 52 267 89 481 241 816 578
l197 200 0 -205 0 -204 -57 -70 c-77 -95 -213 -227 -314 -306 -226 -176 -432
-275 -689 -329 -152 -32 -408 -33 -568 -1 -496 99 -905 390 -1116 792 l-54
104 -8 -49 c-4 -27 -4 -92 0 -145 16 -244 113 -449 300 -635 237 -235 562
-382 944 -425 156 -18 503 -8 613 18 351 83 692 287 1090 655 106 97 417 414
651 662 124 132 199 271 233 436 15 72 21 319 8 319 -5 0 -151 -143 -325 -317
l-318 -318 0 205 0 205 320 320 320 320 -2 259 -3 258 -835 -832z"/>
</g>
</svg>
