<svg xmlns="http://www.w3.org/2000/svg" width="658.712" height="566.511" viewBox="0 0 174.284 149.889">
    <path fill="#7b7b7b" d="M87.452 0c-1.79 0-3.062.088-4.03.327l-.028.005q-.323.075-.615.191l-.023.005-.36.013-.16.197a3 3 0 0 0-.245.178 4.5 4.5 0 0 0-1.152 1.091c-.535.7-1.954 2.26-3.153 3.466-2.18 2.19-2.183 2.19-5.116 2.635-7.533 1.14-14.685 3.51-17.83 5.907-1.267.967-1.81 2.75-1.19 3.908.35.653.114.862-2.701 2.395-6.519 3.548-14.932 9.706-18.827 13.78-3.083 3.224-6.461 7.638-9.58 12.343l-.074.11c-4.23 6.396-7.972 13.32-9.818 18.547-1.234 3.492-2.603 9.929-3.013 14.156-.242 2.507-.51 3.908-.92 4.57-.251.222-.587.38-1.026.517-.519.067-1.598.274-2.717.528-1.376.313-2.438.73-3.214 1.264-.035.024-.074.048-.108.074C.75 86.79.276 87.51.112 88.386c-.297 1.583-.04 2.512 1.215 4.379 1.437 2.14 3.278 3.183 5.625 3.185h.316l.063.001h.033c.41 0 .717.003.957.016l.327.034a1 1 0 0 1 .143.177l-.206 1.375q-.06.398-.078.74c-.044.42-.008.777.143 1.082q.106.261.309.476v.118l.19.056c1.208.958 4.4 1.193 11.892 1.424l8.037.248c.04.078.099.27.165.541v.264c0 .44.096 1.051.214 1.358l.008.03c-.217.251-.667.397-1.458.526a52 52 0 0 1-.755.008c-4.848.01-9.002 1.597-10.189 3.892-1.016 1.965-1.03 3.908-.01 7.973q.06.249.127.502l.022.088c1.45 5.542 1.867 6.93 6.972 7.357 1.897.213 4.443.282 7.966.285h.164l.16.001 1.83.001 1.284.007 3.72.058 1.234.917c.679.504 2.981 2.448 5.115 4.32s5.071 4.204 6.527 5.18a228 228 0 0 1 5.467 3.813c1.553 1.122 4.43 2.798 6.393 3.724 6.09 2.872 15.163 6.348 17.851 6.84a29 29 0 0 0 4.446.485c.155.01.296.018.415.021.184.005.414-.003.671-.017 3.747-.072 7.51-1.036 12.696-3.1 8.128-3.234 12.305-5.188 15-7.02 1.376-.935 4.168-2.829 6.205-4.21s5.388-4.002 7.447-5.825 4.297-3.737 4.973-4.252l1.198-.914 4.139-.023h3.337c8.178 0 10.494-.319 12.09-1.662 1.322-1.111 1.895-2.467 3.023-7.148.405-1.68.617-3.09.63-4.29.027-.357.028-.645-.002-.835a7 7 0 0 0-.049-.268c-.21-1.897-1.066-3.178-2.638-4.133-1.545-.94-5.397-1.772-8.2-1.772h-.466l-.028-.001h-.557c-.645-.073-1.045-.15-1.261-.25v-2.022l.036-.448 8.552-.252c8.075-.237 10.442-.449 11.501-1.153.104-.054.197-.11.268-.169a1 1 0 0 0 .1-.102l.444-.19-.065-.787a5.6 5.6 0 0 0-.06-2.388c-.108-.415.33-.567 2.041-.705 2.55-.207 3.606-.87 5.3-3.327.788-1.144 1.072-1.81 1.142-2.834l.009-.095q.179-1.078-.168-1.944c-.427-1.475-1.673-2.266-4.245-2.849-1.548-.35-2.609-.808-3.302-1.492-.612-.704-.87-1.205-1.045-2.37a9 9 0 0 1-.053-.95c-.007-2.526-1.192-10.641-1.868-12.799-.894-2.854-2.19-4.732-3.434-4.981-.882-.176-1.525-.068-2 .374-.357.232-.58.692-.792 1.514l-.028.097c-.215.821-.554 2.119-.752 2.883-.34 1.307-1.651 2.852-2.66 3.264a2 2 0 0 1-.716.015c-.645-.337-2.228-1.613-3.86-3.132-3.97-3.698-6.047-4.905-8.003-4.369q-.583.135-1.133.48-.146.093-.29.21c-1.065.728-1.682 1.696-1.86 2.943a3.2 3.2 0 0 0-.115.796c0 .11.033.329.088.616.073.824.283 1.74.638 2.76.9 2.58 1.812 9.757 1.454 11.432-.241 1.127-.384 1.244-1.647 1.348q-.285.023-.55.032l-.448-.022c-.35-.018-.635-.021-.887-.028a5.4 5.4 0 0 1-1.881-.605 17 17 0 0 1-1.174-.782c-.16-.126-.32-.257-.487-.402-.937-.815-3.22-2.64-5.075-4.057-4.42-3.378-6.616-5.613-8.93-9.091-2.413-3.626-2.571-4.02-4.72-11.765-2.468-8.9-3.483-11.22-5.858-13.391l-1.903-1.74 2.798.193c2.548.174 2.974.105 4.78-.778a8.6 8.6 0 0 0 2.039-1.368 7 7 0 0 0 1.569-1.977c.389-.689.707-1.463.96-2.337.426-1.462.745-1.952 1.375-2.11 1.3-.327 4.891.472 7.148 1.59a15 15 0 0 0 1.817.744c.358.13.692.237 1.026.308 3.27.86 6.653.627 8.412-.756a2.15 2.15 0 0 0 .76-1.13.7.7 0 0 0 .092-.44 2.4 2.4 0 0 0-.125-1.089c-.293-1.087-1.11-2.279-2.387-3.325-2.282-1.87-9.902-6.913-13.205-8.74l-2.835-1.566.154-1.854c.093-1.125.097-1.598-.211-2.07v-.001l-.003-.002c-.168-.257-.429-.514-.821-.875-2.511-2.313-8.016-4.258-16.03-5.663-4.095-.718-4.638-.902-5.61-1.888a34 34 0 0 0-1.954-1.826c-.483-.403-1.384-1.465-2.001-2.359-.492-.711-.96-1.216-1.56-1.574l-.218-.273-.366-.01C91.109.117 89.718 0 87.452 0m-.727 3.104c3.555-.038 4.516.186 5.388 1.021.533.512 1.24 1.657 1.568 2.546 1.331 3.595 4.695 12.018 5.859 14.668.824 1.878 1.289 2.931 1.44 3.591.006.041.012.083.013.113.009.255.005.46-.018.637q-.011.03-.024.057-.105.143-.239.288c-.156.133-.366.26-.628.42-1.11.677-1.741.712-12.81.7-5.05-.006-8.02-.036-9.848-.124-1.293-.074-2.127-.188-2.657-.367q-.057-.023-.106-.048a2.6 2.6 0 0 1-.443-.298l-.015-.015-.169-.168a1.2 1.2 0 0 1-.162-.238 2.4 2.4 0 0 1-.108-.508c-.037-.313.172-1.115.512-2.058.1-.234.206-.477.333-.747 1.229-2.617 4.558-10.789 5.855-14.373.103-.284.204-.549.305-.805.529-1.197.953-2.034 1.323-2.619.813-1.15 1.713-1.613 2.941-1.643q.93-.022 1.69-.03m.928 4.754a13 13 0 0 0-2.119.144c-1.737.293-1.743.297-2.696 2.582-.525 1.259-1.775 4.621-2.78 7.472-1.951 5.544-1.987 6.428-.27 6.793.431.092 1.102.243 1.49.336.107.025.453.045.921.062.934.12 4.04.107 6.794.01 5.629-.1 6.928-.403 6.922-1.549-.005-.777-3.653-11.325-4.745-13.72-.232-.506-.408-.872-.579-1.145-.169-.332-.304-.548-.389-.6-.1-.062-.302-.109-.563-.144a7 7 0 0 0-.833-.164 9 9 0 0 0-1.153-.077m-12.526.659a.5.5 0 0 1 .16.03c.003.09-.216.697-.54 1.542l-.572 1.426a501 501 0 0 1-3.13 7.531c-1.71 4.017-2.314 5.706-2.133 6.756.03.653.337.987.838 1.339.43.48.84 1.118.959 1.507.409 1.342 1.227 1.998 2.76 2.214 2.293.323 17.465.446 23.58.192 4.687-.195 5.654-.331 6.263-.882.396-.359.72-.96.72-1.338 0-.358.442-1.063.999-1.612.351-.244.609-.481.735-.835.553-.92.166-2.073-1.476-5.93a484 484 0 0 1-3.105-7.53l-1.677-4.174.01-.002 1.281.226c.711.126 1.54.301 1.843.39.933.27 5.882 11.7 7.058 16.3q.224.876.375 1.67c.013.074.03.152.042.226l.014.08c.189 1.167.252 2.202.194 3.12a9.6 9.6 0 0 1-.24 1.676c-.658 2.15-2.418 3.393-5.434 4.05-3.83.835-6.095.829-8.776-.075a19 19 0 0 0-1.286-.455c-5.339-1.836-10.56-1.722-16.617.358-.834.286-1.593.538-2.179.725-.655.103-1.288.163-1.916.182-.527-.087-1.133-.186-2.396-.383-4.391-.683-5.97-1.46-6.908-3.4-.277-.57-.47-1.026-.585-1.491a9 9 0 0 1-.12-1.412c.034-.804.205-1.838.506-3.427.215-1.132.495-2.26.872-3.473q.472-1.462 1.107-3.119c.732-1.861 1.68-3.996 2.927-6.622 1.99-4.19 2.292-4.64 3.262-4.833a51 51 0 0 0 1.978-.442l.323-.081c.067-.008.144-.02.197-.023.026 0 .065-.003.087-.001m12.136.488c.415-.003.827.02 1.137.066 1.377.21 1.836 1.1 4.534 8.8 1.796 5.125 1.86 5.42 1.227 5.758-.648.346-8.53.437-12.22.248-.842-.061-1.5-.14-1.84-.237-.046-.025-.081-.052-.118-.078-.11-.173-.1-.523.073-1.218a30 30 0 0 1 .161-.584c.039-.134.092-.305.135-.45.274-.884.678-2.073 1.263-3.73 2.69-7.618 3.033-8.266 4.496-8.496.32-.05.737-.077 1.152-.08m16.94.619 2.045.476c.702.163 1.389.373 1.89.568q.49.306.935.733c.246.281.501.63.815 1.103a17 17 0 0 1 .788 1.34q.119.215.241.445a56 56 0 0 1 2.318 5.01c.832 2.07 1.57 3.589 1.64 3.376.19-.566-2.219-6.627-3.648-9.185-.562-1.006-.962-1.85-1.01-2.113.158-.002.598.152 1.194.401.717.324 1.68.775 2.728 1.28 2.319 1.119 3.657 1.937 4.157 2.912.067.256.107.554.135.945.01.13.013.244.016.36a7 7 0 0 1-.462 1.502c-.333.677-.811 1.457-1.43 2.386-2.307 3.468-2.558 4.735-1.219 6.18.137.147.24.28.32.421q.064.124.11.25c.139.445.083 1.08-.113 2.466-.289 2.039-.821 3.704-1.67 5.125q-.07.118-.143.235l-.085.128q-.145.22-.3.434l-.044.06q-.138.184-.281.363c-.297.349-.621.698-.985 1.054a14 14 0 0 1-2.069 1.598c-2.392 1.535-4.699 1.5-7.688-.117l-2.173-1.176 3.12-.348q1.332-.15 2.447-.414c1.195-.237 2.16-.596 2.946-1.1q1.25-.712 1.918-1.717c1.04-1.57 1.062-4.218.03-8.195q-.059-.253-.116-.47c-.051-.192-.12-.425-.2-.678-.587-2.022-1.414-4.35-2.492-7.02-1.191-2.954-2.537-6.108-2.99-7.011l-.716-1.427a.4.4 0 0 1-.01-.15v-.005l.005-.008a.1.1 0 0 1 .046-.017m-34.496.002c.316-.003.157.495-.638 2.254-1.135 2.512-2.466 5.863-3.573 8.897-.364.977-.707 1.923-.992 2.757q-.253.745-.472 1.495c-.338 1.066-.592 1.96-.715 2.557-.729 3.537-.707 4.607.13 6.247 1.347 2.64 3.156 3.54 8.222 4.093l2.032.222-2.277 1.209c-3.192 1.694-4.994 1.66-7.588-.144-.962-.669-1.768-1.382-2.443-2.179q-.097-.114-.189-.232l-.078-.1a12 12 0 0 1-.733-1.07l-.018-.032c-.07-.113-.133-.23-.199-.347-.81-1.497-1.325-3.282-1.633-5.53l-.022-.174q-.007-.52-.078-.713c-.027-.366-.019-.638.044-.86q.051-.134.13-.26.108-.143.206-.278l.022-.026q.108-.126.244-.271c.019-.02.033-.039.051-.058l.006-.006c.382-.357.618-.764.71-1.238l.018-.081.008-.058a2.6 2.6 0 0 0-.047-.987l-.011-.048q-.02-.09-.046-.183c-.25-.967-.878-2.152-1.912-3.647-1.486-2.149-1.812-2.89-1.812-4.12 0-.557.04-.937.15-1.242.356-.55 1.48-1.369 2.881-2.163a38 38 0 0 1 3.632-1.656l1.097-.433.63-.22.01.003-1.342 2.5c-1.694 3.159-3.598 7.928-3.457 8.66.058.302.708-.972 1.444-2.831 1.367-3.456 3.266-6.921 4.535-8.279a2.7 2.7 0 0 1 .591-.447c.36-.177.806-.351 1.268-.509.048-.01.097-.024.144-.032.711-.126 1.57-.31 1.906-.41a.6.6 0 0 1 .164-.03m17.388 2.717c-.136 0-.288.075-.45.209-.166.107-.334.283-.506.515q-.438.516-.898 1.465c-.17.352-.34.75-.505 1.162-.568 1.312-1.044 2.76-1.247 3.883q-.097.406-.156.744c-.07.253-.115.446-.115.529a.25.25 0 0 0 .039.114c-.008.212.01.365.067.422.143.143.931.368 1.752.5 1.397.224 3.472.132 4.76-.137.275-.029.495-.06.585-.094a.8.8 0 0 0 .263-.164 1 1 0 0 0 .229-.141c.38-.355.296-.935-.465-3.238-.695-2.102-1.319-3.602-1.909-4.525-.505-.916-.932-1.244-1.444-1.244m.068 1.116c.34.013.65.221.97.69.02.035.042.066.064.104l.001.002c.078.134.157.293.237.467.676 1.561 1.66 4.974 1.69 5.83a.5.5 0 0 1-.216.27c-.895.224-4.618.334-5.338.121-.616-.181-.41-1.11 1.346-6.042.257-.722.571-1.184.903-1.385a1 1 0 0 1 .182-.048l.034-.002q.064-.008.127-.007m-32.274 6.67.42.484.714.972c1.378 1.873 1.443 3.547.204 5.227a8 8 0 0 0-.773 1.288c-.186.316-.3.598-.363.934a6.55 6.55 0 0 0-.229 2.875c.204 1.424 1.352 5.112 1.954 6.273.146.282.107.515-.222.84l-.417.309-.76.561c-.067.044-.124.083-.198.13-5.346 3.42-11.052 8.962-14.201 13.793-4.47 6.856-8.893 19.667-9.53 27.597-.129 1.607-.409 3.031-.622 3.165s-4.654.248-9.869.253c-1.856.002-3.366-.003-4.603-.016l-.192-.002c-3.646-.042-4.76-.164-4.867-.441-.306-.793.265-7.271.96-10.905 1.503-7.847 5.47-16.838 11.25-25.492 8.413-12.596 15.484-19.066 29.039-26.569zm64.865.192c.703.208 3.018 1.482 8.351 4.577.198.115.386.228.577.342a119 119 0 0 1 2.614 1.67c3.33 2.298 5.248 4.417 5.731 6.34.174.694.06.998-.485 1.29q-.282.15-.655.232c-.377.052-.823.082-1.312.094-.872-.026-2.02-.178-3.586-.462a21 21 0 0 1-2.21-.503 12 12 0 0 1-1.629-.678 7 7 0 0 1-1.07-.767c-.915-.794-2.795-1.415-4.285-1.415-.687 0-1.424-.318-1.936-.754a11 11 0 0 1-.654-1.092l-.004-.041c0-.262-.473-1.175-1.052-2.029-.49-.724-.903-1.627-1.021-2.19a3.4 3.4 0 0 1-.01-.48c.146-.706.92-2.2 1.602-3.207.18-.23.348-.438.49-.612.18-.16.343-.278.544-.315m7.52 6.663-.363.417c-.035.014-.072.024-.106.04a1.95 1.95 0 0 0-1.149 1.599c-.085.235-.06.436.07.661.072.232.191.453.368.649 1.227 1.356 4.043.468 4.043-1.275 0-.918-1.177-1.717-2.304-1.797zm-80.683.23c-.294-.007-.607.087-1.072.279-.83.344-1.081.647-1.103 1.353 0 .01-.004.022-.004.032l.002.025-.002.044.005.077q-.013.23.071.456c.115.41.359.767.709 1.012.983.688 2.524.709 3.078.041a1.4 1.4 0 0 0 .222-.382q.084-.165.11-.356.032-.194.01-.4a2.4 2.4 0 0 0-.133-.681 2 2 0 0 0-.195-.419 2 2 0 0 0-.741-.746c-.387-.216-.662-.326-.957-.334m81.62 1.507a1 1 0 0 1 .1.013q.062.049.133.12.104.104.148.179-.022.104-.186.225-.143.02-.385.019c-.59 0-.724-.077-.511-.328.227-.17.49-.241.702-.228m-81.682.027c.222 0 .457.146.571.341a.3.3 0 0 1-.014.114c-.079.052-.257.074-.557.074-.267 0-.437-.017-.528-.058a.5.5 0 0 1-.015-.173.7.7 0 0 1 .543-.298m70.177.385c.032.012.07.07.113.148l.227.525q.052.123.096.273l.027.099q.034.129.064.273l.006.034c.19.991.185 2.47.033 3.786a8 8 0 0 1-.346 1.467c-.324.909-.697 1.575-1.249 2.143-.294.27-.63.538-.98.794-.33.218-.706.432-1.14.65-.873.441-2.143.911-2.822 1.046l-.294.059a40 40 0 0 1-.802.098l.92-.587c2.999-1.916 5.139-5.237 5.723-8.846.085-.396.153-.777.186-1.113l.027-.28c.073-.42.132-.598.21-.569m-59.086.117c.06.126.148.505.25.984.067.416.169.876.299 1.356.903 3.75 2.938 6.724 5.846 8.514.387.239.557.37.484.393q-.325-.069-.639-.148a38 38 0 0 1-1.103-.371c-4.539-1.585-6.557-5.273-5.471-9.996l.039-.165q.134-.277.295-.567m-21.125 6.48c-.43-.012-.739.122-1.133.466-.183.061-.329.13-.404.206a1.4 1.4 0 0 0-.333.547c-.582.697-.488 1.095.303 1.934.143.224.321.429.536.598q.216.17.47.298c.481.311.966.433 1.633.433q.255 0 .498-.034c.583-.05 1.115-.23 1.469-.55.259-.234.434-.442.526-.653l.001-.004.021-.053q.095-.22.097-.459c0-.42-.429-1.001-1.02-1.516-.467-.534-.827-.788-1.37-.893a3.4 3.4 0 0 0-1.294-.32m.69 1.697q.12 0 .243.012.093.012.18.034l.03.006.04.014c.33.11.56.325.561.605l-.002.013c-.006.34-.322.547-.71.598-.314-.004-.695-.134-1.059-.402a5 5 0 0 1-.337-.266l-.04-.078q.035-.132.107-.255c.216-.195.593-.282.986-.281m50.032.043c2.387-.038 4.806.41 7.526 1.363 6.113 2.14 12.3 6.062 13.814 8.754.895 1.593 2.226 5.702 3.952 12.204 2.536 9.555 5.338 13.445 14.982 20.804 3.67 2.8 8.228 7.065 10.178 9.47.363.49.706.98 1.019 1.471.48.813 1.03 1.873 1.44 2.77.361.82.644 1.557.852 2.253.224.93.25 1.92.226 3.888-.025 2.13-.209 3.814-.447 4.1-.222.268-1.155.588-2.073.712-1.186.16-2.342.547-3.436 1.12a8 8 0 0 0-.383.171c-.765.37-1.55.972-2.308 1.734-2.487 2.268-4.34 5.577-4.95 9.257-.424 2.556-.299 3.464.76 5.085l.032.05c.04.062.073.117.117.182l.062.092.005.007.72 1.06.004.007v.01a3.5 3.5 0 0 1-.29.47l-2.168 2.172c-5.307 5.316-12.831 10.661-20.206 14.354-4.249 2.128-7.38 3.275-12.742 4.667-6.086 1.58-6.944 1.595-12.283.205-5.681-1.48-9.873-3.082-15.247-5.828-7.451-3.808-13.414-8.064-18.65-13.31l-2.297-2.303a1.3 1.3 0 0 1-.16-.344l.526-1.06.242-.433c.309-.553.514-.97.643-1.376.621-1.329.587-1.69.23-3.344-.77-3.557-2.915-7.502-5.258-9.672l-.008-.007a12 12 0 0 0-.66-.589c-1.637-1.401-2.79-1.828-6.507-2.655-.089-.02-.163-.043-.239-.065a1.7 1.7 0 0 1-.585-.391c-.299-.433-.448-1.315-.724-3.337q-.009-.074-.016-.149-.045-1.242.145-2.483c.311-1.604 1.015-3.48 2.106-5.604 1.607-3.128 6.328-7.9 12.27-12.406 3.512-2.663 5.81-4.629 7.548-6.555a18 18 0 0 0 .728-.842l.05-.058.053-.069a24.4 24.4 0 0 0 2.288-3.38c1.155-2.033 1.964-3.855 3.026-7.102q.147-.441.278-.874a233 233 0 0 0 1.872-6.285c2.186-7.652 2.936-8.844 7.449-11.847 3.638-2.42 8.218-4.48 12.172-5.475a18.8 18.8 0 0 1 4.322-.589m-28.165 3.276q.113.02.238.064c.091.04.172.07.259.107a10 10 0 0 1 .474.237c.363.192.8.33 1.361.428 1.182.337 2.193.402 3.677.31l1.804-.111.63.002-1.677 1.568c-2.233 2.089-3.366 4.421-4.984 10.266-1.849 6.678-2.848 9.911-4.218 12.52a34 34 0 0 1-1.39 2.286 49 49 0 0 1-2.019 2.689c-1.983 2.492-3.51 3.852-9.5 8.458-3.938 3.028-4.12 3.124-6.21 3.262l-1.587.105c-.364-.104-.57-.318-.71-.685l-.084-.419a14 14 0 0 1-.188-1.275q-.017-.34-.024-.714c-.014-1.678.158-3.96.44-5.949 1.177-6.194 4.343-13.509 8.748-19.741a69 69 0 0 1 3.205-3.983c4.229-4.65 10.175-9.53 11.755-9.425m-28.735 4.46a8 8 0 0 0-.81.021c-1.64.118-2.23.34-3.086 1.159a3.6 3.6 0 0 0-.755 1.018 2.75 2.75 0 0 0-.303 1.253v.008q.002.237.086.495.079.377.317.72c.292.48.75.9 1.356 1.208q.176.097.357.164l.008.002q.354.142.763.232c2.392.528 4.674-.224 5.774-1.903.504-.77.505-.951.012-1.905-.881-1.703-1.937-2.427-3.719-2.472m-.368 1.463c.456-.006.908.088 1.309.291q.152.084.297.18c1.156.79 1.091 1.755-.178 2.412-1.147.593-2.264.654-3.421.187-.99-.4-1.198-.772-.724-1.516.152-.187.333-.39.573-.63q.174-.174.355-.316c.234-.156.478-.295.719-.41a3.3 3.3 0 0 1 1.07-.198m-.353.951c-.708 0-1.065.396-.906.881a.54.54 0 0 0 .08.27.34.34 0 0 0 .146.113c.233.276.536.5.68.5.475 0 1.125-1.017.891-1.396-.125-.202-.526-.368-.891-.368m76.145.706c-.412 0-1.07.438-1.754 1.089-.3.26-.587.569-.856.912-.555.656-1.064 1.395-1.403 2.09-.29.592-.49 1.478-.602 2.425-.22 1.12-.25 2.22-.018 3.138.085.66.233 1.19.454 1.458.487.587.565.442.969-1.797.559-3.103.95-4.086 2.616-6.577 1.558-2.329 1.647-2.738.594-2.738m-37.686.016q-.142.004-.216.076c-.042.042.032.23.183.5.025.064.056.132.101.21.05.125.165.283.325.466.188.28.398.579.643.9 1.367 1.794 2.833 5.468 2.843 7.13.003.416.107 1.137.231 1.602.215.802.251.812.7.197.736-1.005.753-2.928.221-4.928a6 6 0 0 0-.155-.56q-.033-.097-.071-.194c-.413-1.24-1.023-2.471-1.802-3.492-.716-.938-2.347-1.933-3.003-1.907m19.11 3.45a3.3 3.3 0 0 0-.945.141 5 5 0 0 0-.435.085c-.196.05-.5.225-.858.476-1.27.673-2.054 1.398-3.201 2.902-.285.327-.495.61-.58.802-.237.35-.377.594-.323.594.087 0 1.411-.714 2.943-1.587 1.478-.842 3.067-1.53 3.626-1.578.308.03.753.171 1.28.394a17 17 0 0 1 2.115 1.187c.974.639 1.834 1.16 2.256 1.373.341.23.418.236.293-.028-.097-.582-1.839-2.616-2.967-3.399-1.331-.922-2.283-1.354-3.204-1.361m-64.198 7.133c-1.206-.016-2.572.58-3.668 1.43-.702.478-1.189.988-1.489 1.573-.351.542-.561 1.103-.561 1.628 0 1.439.967 2.98 2.274 3.625 2.233 1.102 5.245.41 7.087-1.63l.03-.035c.723-.717 1.192-1.53 1.192-2.227q0-.15-.014-.3c-.002-.506-.148-1.024-.432-1.58-.574-1.124-2.96-2.465-4.419-2.484m55.086.69c-.579 0-3.68 2.486-4.259 3.34l-.278.253.179-.026c.007.173.166.313.362.313.723 0 2.995-1.108 3.776-1.842.934-.876 1.058-2.039.22-2.039m18.136 0c-.146 0-.234.047-.275.13-.258.212-.143.665.22 1.177.103.21.24.407.408.559.075.068.186.15.315.24.462.416 1.04.815 1.68 1.105 1.119.509 1.627.696 1.836.618.15.017.13-.09.13-.282a.2.2 0 0 0-.016-.056 1 1 0 0 0-.08-.133q-.004-.063-.097-.153l-.079-.072c-.842-.978-3.409-3.134-3.845-3.134q-.067 0-.125.007c-.006-.001-.017-.007-.022-.007q-.018.002-.035.006c-.003-.001-.012-.006-.015-.006m-73.044 1.167a3.77 3.77 0 0 1 2.13.573c.779.489 1.128 1.098 1.076 1.725-.124.488-.414.989-.817 1.426a5.5 5.5 0 0 1-1.36.884c-1.268.602-3.319.725-4.346.292a4.5 4.5 0 0 1-.587-.53c-.148-.285-.229-.667-.229-1.127 0-.555.09-.935.353-1.301q.217-.257.478-.51c.116-.102.242-.207.39-.32.93-.71 1.942-1.084 2.912-1.112m64.13.05c-1.016.024-2.093 1.193-4.042 3.527-1.434 1.717-2.238 2.645-3.165 3.348-.379.276-.789.531-1.242.784-.736.39-1.648.78-2.932 1.317-7.497 3.13-10.372 5.172-10.883 7.73l-.008.05c-.075.239-.13.45-.13.566 0 .075.062.207.166.377.203.537.79 1.192 2.141 2.592 2.314 2.397 2.382 2.48 1.774 3.173-.343.347-.828.768-1.347 1.181-1.22.883-2.741 1.654-3.459 1.654q-.94 0-3.547-2.13c-2.902-2.37-3.529-2.474-5.43-.69q-.066.056-.126.11a6 6 0 0 0-.35.359c-1.402 1.432-2.627 3.262-3.528 5.208-.175.332-.334.65-.459.933a8.4 8.4 0 0 0-.471 1.48c-.22.717-.392 1.433-.505 2.135-.645 4.002.824 13.574 2.782 18.143.93 2.168 2.226 4.01 4.818 6.834l.036.038c.149.163.285.315.442.484.11.117.208.215.314.327.43.467.849.9 1.238 1.27 2.227 2.184 4.087 3.44 7.804 5.438 3.3 1.775 4.356 2.436 4.73 4.421.06.458.116 1.034.171 1.63.027.515.043 1.094.056 1.762.046 2.223.262 4.586.482 5.251.095.29.232.579.4.86.322.757.796 1.216 1.524 1.7.456.352.954.634 1.457.81 1.382.482 2.533.501 4.09.069.922-.257 1.478-.72 1.782-1.605.244-.495.302-1.13.302-2.41 0-.156.003-.292.006-.433.062-.729.136-1.302.237-1.77.146-.448.365-.861.7-1.354q.283-.42.502-1.001l.495-.667v-.057l-.004-.376-.002-.312.293-.56-.06-2.079c.185-2.603.164-6.317-.022-11.708-.145-4.184-.252-6.558-.527-8.085l-.038-1.062-.366-.378c-.345-.796-.845-1.285-1.605-1.925-.617-.519-1.86-1.318-2.765-1.776-.648-.33-1.142-.669-1.525-1.082a8 8 0 0 1-.85-1.533c-.17-.55-.284-1.207-.368-2.019a11 11 0 0 1-.046-.641c.005-.195.012-.4.024-.624.025-.502.056-.913.101-1.266a5.8 5.8 0 0 1 .707-1.862 8.6 8.6 0 0 1 1.03-1.289l.096-.096c1.187-1.118 2.942-2.043 5.348-2.87 3.314-1.14 7.172-.697 10.818 1.225l.008.004q.36.19.718.4c1.807 1.058 2.875 2.736 3.116 4.657.017.25.028.508.027.785q0 .565-.045 1.073a8.7 8.7 0 0 1-.84 2.654c-.248.498-.477.882-.741 1.219-.485.524-1.088 1.01-1.837 1.483-.17.1-.346.203-.544.313-3.59 2.009-3.624 2.095-3.959 9.98-.265 6.252-.344 11.142-.247 14.146.01.84.033 1.453.07 1.7.007.047.02.098.028.146l.015.153-.006.875.253.393c.228.618.647 1.349 1.007 1.732.104.11.19.224.27.343.169.327.3.668.404 1.062.092.473.145 1.079.178 1.93.08 2.06.392 3.226 1.2 3.918a1.5 1.5 0 0 0 .58.433c.107.04.237.075.376.105.279.102.587.187.937.256 1.286.254 1.994.182 3.476-.353 2.76-.996 3.169-1.905 3.472-7.723.155-2.974.345-4.513.665-5.282a4 4 0 0 1 .261-.426c.467-.529 1.94-1.531 3.463-2.341 4.513-2.401 6.76-4.004 9.463-6.75 2.262-2.299 3.847-4.28 5.037-6.584q.151-.275.292-.548c.204-.396.413-.9.623-1.485.702-1.798 1.244-3.863 1.727-6.397h.001v-.006a97 97 0 0 0 .687-4.12c.933-6.366-.23-11.084-3.932-15.92l-.073-.098c-.069-.088-.131-.176-.2-.264l-.086-.105q-.132-.168-.265-.324c-2.246-2.693-3.466-2.539-7.007.517-2.364 2.039-3.434 2.106-5.81.363-.93-.683-1.786-1.486-1.9-1.785-.117-.303.354-1.035 1.362-2.129l.452-.455c1.061-1.07 1.648-1.718 1.964-2.254.265-.35.44-.626.484-.774.079-.265.014-.736-.16-1.278-.102-.464-.326-.95-.67-1.505a2.4 2.4 0 0 0-.207-.277c-.555-.794-1.316-1.398-2.807-2.299-1.358-.82-3.025-1.672-3.704-1.893-1.867-.608-5.632-2.282-7.258-3.194a14 14 0 0 1-1.664-1.412 36 36 0 0 1-2.03-2.437c-1.712-2.25-2.67-3.372-3.687-3.348m-64.49.936a1 1 0 0 0-.294.033c-1.674.212-2.791 1.943-1.45 2.724.83.483 1.01.47 2.244-.168.688-.356.94-.63.965-1.127a.5.5 0 0 0 .002-.225c.11-.45-.06-.817-.43-1.02-.163-.099-.383-.156-.687-.19-.067-.008-.132-.007-.198-.01a1 1 0 0 0-.153-.017m136.895 2.126c.479-.036 1.077.37 1.554 1.19.689 1.184 1.133 2.44 1.418 4.338l.002.011q.046.313.086.65l.02.163q.036.31.068.643l.014.142c.154 1.681.233 3.794.271 6.575l.097 7.134-.003.055c-.104.014-.326.03-.599.045l-9.195.025-9.797.028-.21-1.262c-.114-.694-.21-1.929-.212-2.744-.005-1.826-.55-4.587-1.422-7.194-.362-1.085-.766-3.157-.897-4.605a48 48 0 0 1-.082-1.002c.002-.85.082-1.578.252-2.037.116-.192.27-.383.474-.62.249-.289.431-.485.595-.618q.316-.158.66-.185a3 3 0 0 1 .618.228c.545.248 1.953 1.214 3.128 2.147 3.39 2.689 6.03 4.297 7.471 4.564.106.026.202.044.275.044l.066-.004.052.004c.875 0 1.626-.36 2.274-1.097q.099-.096.192-.204c.27-.27.498-.564.653-.863.177-.344.398-.976.603-1.67q.422-1.229.76-2.878.293-.76.675-.978a1 1 0 0 1 .139-.025M87.29 65.018l1.315 1.228.462.474c2.284 2.343 5.18 4.377 9.496 6.672 3.922 2.086 5.72 3.092 6.098 4.005.12.551-.222 1.145-.94 1.996-.165.167-.342.341-.54.531-1.54 1.475-2.124 2.28-2.279 3.305q-.044.217-.046.438l.004.074q-.004.074-.004.15c0 1.732.904 3.346 2.967 5.297 2.121 2.006 3.794 2.883 5.498 2.883.18 0 .437-.048.738-.13q.045-.005.087-.012c.225-.042.592-.177 1.034-.368 1.472-.568 3.355-1.515 4.547-2.357 2.044-1.442 3.351-.393 4.588 3.68.65 2.137.72 3.004.538 6.557-.541 10.498-5.877 18.947-15.912 25.199l-.377.237c-.252.154-.475.297-.693.437l-.019.012c-.243.155-.486.313-.692.457-1.625 1.096-2.025 1.645-2.788 3.154-.973 1.924-1.09 2.532-1.294 6.702a68 68 0 0 1-.305 4.036c-.08.54-.164.96-.25 1.197-.036.082-.076.154-.115.228a2 2 0 0 1-.294.366c-.627.523-1.646.664-2.494.26-.866-.414-.952-.658-1.131-3.174-.17-2.403-.317-2.854-1.235-3.811l-.1-.104q-.089-.122-.184-.235c-.34-.404-.554-.665-.692-1.125a5 5 0 0 1-.078-.368l-.09-4.788c-.056-3.044.03-8.117.192-11.273.343-6.667.257-6.5 4.144-8.022 3.221-1.26 4.202-1.988 5.379-3.99.515-.876.764-1.456.874-2.282a7.4 7.4 0 0 0 .12-2.868 11.4 11.4 0 0 0-.386-1.68c-1.01-4.092-4.255-7.418-9.358-9.494-2.188-.89-3.832-1.41-5.373-1.544a4.4 4.4 0 0 0-1.435-.013c-1.747.124-3.54.76-6.049 1.926-7.242 3.37-10.429 9.689-7.746 15.36.48 1.013 1.016 1.823 1.674 2.49.349.376.735.69 1.19.967.778.505 1.703.906 2.838 1.25 1.346.41 2.706 1.03 3.022 1.378.472.522.625 2.03.873 8.563.165 4.362.24 9.353.167 11.09-.12 2.857-.232 3.285-1.164 4.46-.933 1.179-1.03 1.554-1.03 3.965 0 .155-.002.28-.003.42-.001.138-.001.286-.004.411l-.002.056-.008.247c-.035.478-.086.921-.148 1.287-.115.371-.304.571-.62.792-.883.618-1.168.64-2.318.179-.638-.256-1.087-.823-1.382-1.805-.175-.902-.35-2.538-.45-4.275-.002-.135-.004-.265-.004-.405 0-2.841-.155-4.067-.712-5.595a6.6 6.6 0 0 0-.488-1.194c-.768-1.616-1.77-2.375-5.285-4.473-4.487-2.677-10.164-8.527-11.972-12.335-2.399-5.055-3.148-8.055-3.188-12.763-.006-.666-.004-1.22.004-1.73.04-1.189.132-2.211.286-3.113.107-.467.244-.914.431-1.412.97-2.59 2.089-4.153 2.973-4.153.384 0 1.973.736 3.53 1.634 3.698 2.133 5.238 2.328 7.719.978 2.264-1.233 4.463-3.669 4.953-5.488.555-2.061-.023-3.578-2.107-5.535-.33-.31-.635-.629-.9-.932-.418-.525-.724-.97-.838-1.226a1 1 0 0 1 .011-.393c.296-.63 1.82-1.554 7.57-4.736 2.594-1.436 4.319-2.572 5.976-3.964a27 27 0 0 0 2.588-2.348l.164-.167.77-.723zm17.73.947q-.015.002-.028.006a1 1 0 0 0-.204.007c-.328.003-.45.123-.39.325a.6.6 0 0 0-.014.117c0 .412 2.939 2.378 4.233 2.832.337.118.587.176.76.182.226.034.299-.052.299-.246 0-.1-.156-.293-.399-.532-.324-.355-.847-.817-1.568-1.366-1.012-.769-1.974-1.228-2.601-1.307a.4.4 0 0 0-.088-.018m-35.89.013c-.55.02-1.387.408-2.338 1.134-.431.33-.864.702-1.215 1.033q-.063.06-.122.12c-.255.249-.465.472-.552.61-.595.944.238.793 2.742-.499 1.386-.715 2.092-1.27 2.16-1.697 0-.007.006-.015.006-.022l-.002-.025.002-.02-.005-.068a.43.43 0 0 0-.111-.46c-.072-.072-.193-.097-.349-.088a1 1 0 0 0-.216-.018m-9.396 5.985c-.067 0-.277.233-.537.562l-.056.046c-.54.488-1.368 1.78-1.606 2.439a.6.6 0 0 0-.07.203q0 .013.006.022-.006.033-.007.062c0 .47 1.387-.283 2.387-1.08.663-.4 1.141-.758 1.141-.874 0-.064-.055-.172-.137-.297.032-.61-.332-.937-.814-.906-.13-.108-.242-.177-.307-.177m54.14.045c-.168.013-.258.157-.296.43-.073.086-.076.222-.022.385v.009l.001.009c.01.622.4 1.066 1.498 1.706.825.48 1.623.889 1.773.908.507.066-.739-1.937-1.67-2.709a3.3 3.3 0 0 0-.429-.328c-.396-.284-.673-.424-.855-.41m-92.183 2.098q-.297 0-.644.018a8.3 8.3 0 0 0-1.863.184c-.923.149-1.736.374-2.078.599-1.313.86-2.593 2.723-2.86 4.163-.161.87-.131 1.252.4 1.948.264.43.654.857 1.132 1.253.753.707 1.591 1.213 2.482 1.487q.493.15.976.255.174.043.372.074c1.861.338 3.573.15 4.933-.457.162-.06.313-.122.444-.19.33-.17.633-.391.905-.648 1.068-.9 1.715-2.177 1.738-3.736.03-2.055-.766-3.118-3.236-4.313-.96-.465-1.6-.64-2.701-.637m131.107.001c-.81-.012-1.348.089-2.03.36a6.5 6.5 0 0 0-1.417.652 6 6 0 0 0-.514.336q-2.119 1.407-2.12 3.547c0 2.138 1.435 3.965 3.769 4.797 2.819 1.005 5.925.485 8.001-1.341l.04-.037c.597-.43.955-.824 1.172-1.337.51-.825.614-1.657.338-2.596-.056-.377-.204-.707-.465-1.103-.932-1.764-2.12-2.653-4.153-3.032a7.2 7.2 0 0 0-2.139-.229h-.047c-.15-.007-.302-.015-.435-.017M20.933 75.86c1.484-.056 2.992.36 4.067 1.263 1.913 1.61 1.016 4.307-1.682 5.056-.897.25-1.872.36-2.623.32q-.098-.004-.196-.013a2.8 2.8 0 0 1-.605-.113 18 18 0 0 0-1.262-.317c-1.23-.268-2.778-1.762-2.793-2.69l-.001-.016c.002-.417.526-1.282 1.167-1.923.982-.982 2.444-1.51 3.928-1.567m131.668.051c.352-.002.765.015 1.261.045l.012.001c1.359.116 2.322.382 3.049.888q.071.053.14.107c.504.39.89.906 1.216 1.59l.284.595q.1.61-.231 1.142l-.577.516c-.617.551-1.725 1.17-2.463 1.375a8.6 8.6 0 0 1-3.556.226c-1.209-.262-2.21-.839-2.828-1.564-.274-.515-.42-1.312-.361-2.025.098-1.164.302-1.427 1.699-2.174.821-.44 1.37-.65 2.078-.712.091-.003.177-.01.277-.01m1.245 1.061a3.7 3.7 0 0 0-.841.062c-2.49.466-3.54 2.959-1.582 3.749a4.5 4.5 0 0 0 1.114.278c.335.052.672.063 1 .04.306-.006.606-.045.89-.12.84-.177 1.56-.539 1.899-1.045.268-.402.323-.822.22-1.216a.64.64 0 0 0-.133-.333c-.394-.766-1.392-1.368-2.567-1.415m-133.23.036q-.181.007-.365.03c-2.513.308-3.292 2.474-1.283 3.566.433.235 1.045.387 1.686.457q.162.019.324.027l.033.002q.195.024.392.016h.122q.092 0 .182-.005c.618-.024 1.187-.13 1.562-.331.408-.219.644-.67.676-1.275.035-.222.01-.445-.07-.66-.327-1.11-1.688-1.891-3.26-1.827m90.55 3.448q-.23.001-.45.084c-.428.114-.775.453-1.051 1.017-.17.277-.25.469-.243.662-.067.366.06.623.43 1.031.256.284.536.476.818.592a.95.95 0 0 0 .4.115c.933.14 1.782-.568 1.782-1.842 0-.712-.245-1.106-.86-1.387h-.001a1.46 1.46 0 0 0-.826-.272m-48.055.063q-.096.003-.193.021a.9.9 0 0 0-.461.126l-.014.01a1.32 1.32 0 0 0-.659.756c-.36.648-.236 1.308.38 2.102.205.264.619.373 1.056.352.722.171 1.402-.242 1.596-1.078.381-1.175-.656-2.32-1.705-2.29M35.77 86.515l-1.777 1.85c-.977 1.016-2.061 2.479-2.408 3.249l-.178.394-.567 1.006-8.238.049c-4.593.026-9.462.12-10.82.209q-.413.026-.812.038l-1.302-.013-.473-.014c-2.709-.17-4.756-.955-6.046-2.34-.78-.837-.898-1.915-.348-2.5q.11-.106.26-.205l.05-.033c1.724-.922 7.917-1.396 20.136-1.542zm102.517.023 13.3.144c10.025.108 13.989.277 16.096.686 2.648.513 3.916.917 4.302 1.412.086.193.12.41.11.644-.163 1.065-1.218 2.32-2.524 2.947-.616.295-1.89.588-3.186.801-.99.059-2.364.092-4.37.11-1.316-.091-4.968-.172-9.23-.195l-9.58-.05-.044-.074c-.073-.205-.292-.567-.588-1.003l-.236-.402c-.477-.814-1.583-2.276-2.458-3.25zM26.665 94.896c2.542.004 3.36.048 3.5.302l-.226.786c-.189.659-.344 1.596-.344 2.082h-.001v.372l-.07.513-.145.001-7.81.05c-5.88.038-8.552-.066-9.697-.48a4 4 0 0 1-.514-.277.8.8 0 0 1-.215-.303c-.31-.81.584-2.103 1.652-2.388.557-.148 4.72-.382 9.25-.518zm120.914.032q.729.003 1.659.01c.6.005 1.27.016 1.941.028 2.102.057 4.467.152 6.232.26 4.119.25 4.948.398 5.368.952.493.65.619 1.597.358 2.148a4 4 0 0 1-.21.18q-.043.035-.087.066c-.19.085-.45.153-.854.204-1.494.102-4.715.175-8.316.175h-8.746l-.195-.883a87 87 0 0 0-.486-2.028l-.207-.819c.136-.246.917-.302 3.543-.293M30.255 107.283q1.181-.004 2.478.042c4.948.176 6.586.45 8.013 1.78l.537.564c.048.05.087.097.134.147q.12.14.245.293c1.698 2.1 2.015 2.784 2.787 6.02.434 1.817.647 2.824.61 3.455l-.006.074-.007.048q-.07.331-.22.572c-.16.202-.396.353-.722.522-.168.087-.403.162-.722.228-.086.017-.187.034-.281.05-1.23.208-3.518.319-7.905.41-7.922.164-8.865.12-11.36-.531a3.4 3.4 0 0 1-.772-.287c-.61-.404-.97-.995-1.312-1.916-.246-.743-.483-1.741-.767-3.12a30 30 0 0 1-.44-2.722c-.008-.098-.02-.203-.026-.297-.113-1.688-.107-2.683.274-3.342.595-.85 2.364-1.45 5.033-1.757 1.192-.12 2.671-.195 4.205-.23.076 0 .147-.002.224-.003m113.932.005c1.935.044 3.842.156 5.311.32 1.388.207 2.496.515 3.306.924.076.039.138.074.203.11.281.219.498.473.655.78.1.403.109 1.034.106 2.15-.005 2.715-.719 6.348-1.571 7.995-.66 1.276-1.897 1.697-5.743 1.956a366 366 0 0 0-4.322.311c-.68.058-2.267-.009-3.528-.147-1.261-.14-3.578-.271-5.149-.294-.159-.002-.301-.007-.45-.01-.553-.058-1.19-.122-1.618-.169-.436-.078-.81-.16-1.101-.246-1.051-.558-.94-1.848-.313-4.856.492-2.355 1.585-4.563 2.934-6.128q.42-.466.904-.913l.047-.043c.562-.484 1.151-.858 1.748-1.086.582-.222 3.372-.494 6.201-.604a67 67 0 0 1 2.38-.05m-106.49 5.943a4.6 4.6 0 0 0-1.911.416q-.267.124-.451.26c-.234.11-.362.251-.372.421q-.039.046-.03.085c-.075.308.17.581.748.693a12 12 0 0 0 1.534.2c1.447.08 2.259-.268 2.259-1.01 0-.669-.78-1.056-1.777-1.065m98.95.026c-.723-.008-1.295.177-1.603.548q-.089.108-.147.196-.152.14-.116.305c.002.173.147.326.464.558.785.573 2.231.634 3.512.147 1.21-.46 1.141-.916-.206-1.386-.69-.24-1.343-.363-1.905-.368m7.498.33a1.2 1.2 0 0 0-.64.135c-.21.085-.371.212-.439.388-.11.287.07.678.403.872.87.506 2.042.387 2.419-.136.077-.043.124-.093.124-.154a.2.2 0 0 0-.016-.074.6.6 0 0 0 .016-.145c0-.57-.986-.91-1.824-.881-.015 0-.03-.004-.043-.004m-113.972.018c-.402 0-.866.115-1.306.35l-.03.019-.034.016c-.424.227-.598.33-.542.472-.147.274.032.516.54.65q.247.062.476.1c.29.129.546.143.823.058.835-.036 1.326-.403 1.183-.987.041-.247-.137-.444-.44-.557l-.025-.013-.04-.01-.119-.032a1.7 1.7 0 0 0-.486-.066m-6.175.338c-.808 0-1.622.377-1.94.794-.168.122-.237.208-.214.296l-.186.097.27.077.018.02c.01.025.017.05.032.074.162.262.693.389 1.271.394a2.5 2.5 0 0 0 1.007-.118c.325-.085.599-.212.74-.384.19-.227.272-.437.261-.617a.2.2 0 0 0-.007-.056.5.5 0 0 0-.053-.148c-.03-.13-.144-.216-.35-.295a2.4 2.4 0 0 0-.85-.133m126.055 0c-.493 0-.748.127-.832.422-.123.128-.136.293-.01.47.057.295.222.565.418.647.12.051.278.086.457.109.677.174 1.58.119 1.978-.141.29-.08.506-.181.545-.3.095-.29-.452-.675-1.155-.932a2.6 2.6 0 0 0-1.11-.275q-.054.001-.107.007a3 3 0 0 0-.184-.007"/>
</svg>
