<svg xmlns="http://www.w3.org/2000/svg" width="432.941" height="619.333">
    <path fill="#ececec" d="M216.47 0c-11.39 0-13.29.367-18.849 3.635-7.063 4.152-7.75 5.129-34.486 49.031-12.093 19.857-20.746 34.225-28.403 45.059-2.7 3.76-5.223 7.05-7.628 9.972-17.476 20.74-33.935 24.516-83.3 37.608-33.533 8.893-33.81 8.997-39.394 14.757l-.58.598-.277.244-3.082 2.637v.584l-.471.486.264 169.696.207 133.24v36.986l1.19 1c.175.285.335.467.435.467 0 0 0-.1.002-.102l5.658 4.752.41.377c9.615 8.846 20.706 16.886 34.318 24.81q.453.28.897.548c.098.165.213.281.344.281.02 0 .052-.022.076-.027 1.94 1.166 3.778 2.238 5.336 3.058.36.19.96.485 1.398.71a28 28 0 0 0 2.291 1.167c.67.356 1.333.71 2.014 1.067.423.254.797.461 1.021.527a389 389 0 0 0 7.276 3.682c25.66 12.63 34.786 16.15 56.668 21.861 8.066 2.106 15.266 3.656 16 3.447 1.757-.501 2.526-350.165.773-351.918-.014-.014-.08-.03-.107-.045v-.357l-.317-.018c.161-.346-.47-.456-2.017-.466a6 6 0 0 0-.756.043c-.133.004-.24.004-.385.01-.315.011-1.121-.004-1.764-.01-7.058-.767-20.372-1.773-35.478-2.623-44.22-2.491-43.283-2.225-43.283-12.3 0-6.557 2.434-11.718 5.894-12.492 6.526-1.459 53.974-8.648 57.074-8.648 1.872 0 16.32 5.932 32.108 13.184l28.705 13.185 4.11-2.498c2.26-1.374 4.108-2.959 4.105-3.52s-1.204-7.19-2.668-14.732c-1.46-7.514-2.65-14.227-2.658-14.976l.002-.04c.064-.704 4.518-1.271 10.037-1.271 6.259 0 9.34-.378 10.386-1.326l.266-.004.799-.002-.715-4.334c-.127-.769-.265-1.687-.404-2.621-.747-7.731-2.39-21.525-4.453-37-4.393-32.944-5.244-42.343-4.065-44.93 4.588-10.07 32.55-11.814 45.281-5.25a21.7 21.7 0 0 1 3.04 2.094c.526.44.988.856 1.408 1.273.497.594.92 1.217 1.224 1.883 1.18 2.587.329 11.986-4.064 44.93-1.975 14.81-3.574 28.131-4.363 36.033-.151 1.073-.421 3.13-.497 3.588l-.712 4.334h.226l.832.002c1.042.95 4.126 1.33 10.393 1.33 5.56 0 10.043.575 10.043 1.287 0 .707-1.2 7.458-2.664 15-1.465 7.543-2.663 14.172-2.666 14.733-.002.56 1.845 2.145 4.105 3.52l4.108 2.497 28.707-13.185c15.788-7.252 30.236-13.184 32.107-13.184 3.1 0 50.546 7.19 57.072 8.648 1.525.341 3.475 2.164 4.334 4.05 1.944 4.265 2.011 11.672.463 15.2-.145.173-.272.335-.433.518l-1.182 1.336c-2.903 1.162-14.85 2.238-40.608 3.69-20.37 1.147-37.801 2.47-40.226 3.037l-.451.025v1.129c-1.677 21.093-1.951 349.827-.19 350.916 1.544.954 24.855-4.835 38.856-9.649 6.233-2.143 21.834-9.065 34.668-15.382a387 387 0 0 0 8.027-4.07c.214-.107.462-.227.672-.333.06-.016.12-.025.182-.049.251-.096.467-.227.644-.375a239 239 0 0 0 3.621-1.86c.203-.095.417-.182.608-.282.084-.026.159-.033.246-.067a4.3 4.3 0 0 0 1.425-.896 144 144 0 0 0 5.534-3.262c13.47-7.867 24.472-15.855 34.011-24.63l.407-.374 7.289-6.12v-36.987l.207-133.24.263-169.696-.47-.486v-.516l-2.711-2.378-1.059-1.026a18 18 0 0 0-.93-.904c-4.897-4.978-6.759-5.543-38.634-13.996-76.874-20.387-73.944-18.113-119.33-92.639-26.737-43.902-27.425-44.88-34.489-49.031C229.76.367 227.861 0 216.471 0m-.57 207.932c-.506.046-.952 1.246-1.347 3.56-6.337 37.123-6.084 28.709-6.069 202.086.01 109.05-.063 146.527 1.44 168.285.008.141.014.278.031.397.88 12.45 2.284 19.821 4.545 32.74.092.528.215 1.021.346 1.49.033.316.116.926.138 1.176.084.917.753 1.668 1.487 1.668a.87.87 0 0 0 .47-.111c.522-.238.926-.845.973-1.557.017-.255.067-.707.104-1.088.715-3.032 1.708-9.395 3.802-23.244 2.497-16.511 2.622-25.015 2.615-179.334l-.008-162-3.175-21.13c-.74-4.92-1.408-8.915-2.028-12.23-.454-3.45-.947-6.054-1.447-7.78a.3.3 0 0 0 .027-.114c0-.027-.027-.067-.035-.098-.02-.86-.309-1.647-.85-1.894-.154-.223-.309-.378-.46-.428-.195-.271-.38-.41-.559-.394"/>
</svg>
