<svg version="1.1" viewBox="0 0 512 512" xmlns="http://www.w3.org/2000/svg">
 <path fill="#e5e5e5" d="m257.5 34.357c-21.291-0.24364-42.641 2.5153-63.449 8.4531-33.605 9.5894-62.768 27.402-89 50.148-93.33 80.925-92.586 234.81-6.9863 320.41 75.556 75.556 198.73 85.576 285.99 24.426 26.75-18.746 49.915-43.692 65.688-72.41 31.059-56.553 36.028-123.19 15.309-184-5.008-14.698-12.008-28.713-19.996-42-3.1188-5.1876-11.194-12.967-11.637-19-0.43933-5.9932 6.2601-14.755 8.8828-20 7.8736-15.747 22.474-36.569 24.754-54-18.244 1.5928-37.834 14.726-54 22.752-5.5244 2.7426-15.744 9.9097-22 9.1543-5.7607-0.69565-12.146-7.4604-17-10.482-11.35-7.066-23.5-13.241-36-18-25.899-9.8605-53.176-15.136-80.551-15.449zm-4.5312 17.77c18.438-0.27215 36.987 1.8381 55.082 6.3828 21.073 5.2927 48.882 14.78 65 29.873l-89 48.695-33 30.305c-7.0612-24.114 13.252-53.996 23.744-74 2.0723-3.9509 14.939-21.391 10.598-25.264-3.7466-3.3415-12.814 6.6886-15.342 8.8418-14.949 12.736-29.942 25.697-44 39.408-7.9644 7.7683-15.758 15.41-21.551 25.014-21.078 34.944-17.666 78.041-14.535 117 0.96346 11.987 2.0711 24.079 3.6602 36 0.58942 4.4219 0.17154 9.9496 2.4375 13.945 3.1892 5.6238 11.328 5.8637 16.988 6.8066 15.578 2.5952 31.261 5.069 47 6.334 34.761 2.794 73.448 5.6379 105-12.514 18.38-10.574 34.622-28.684 48.424-44.572 9.0371-10.403 27.766-23.169 28.576-38-13.258 2.3633-25.953 12.856-38 18.691-21.001 10.173-42.6 17.397-66 19.309l15-15.289 19.572-21.711 49.428-89h2c9.7206 18.264 20.296 35.099 26.654 55 17.109 53.547 11.088 113.74-15.967 163-9.3995 17.115-21.925 32.259-35.688 46-87.486 87.346-238.15 72.946-309.57-27-55.978-78.331-48.586-186.78 15.742-258 38.11-42.193 92.435-64.439 147.75-65.256zm-95.918 47.256c-14.213 10.21-28.156 20.719-39.711 34-44.592 51.252-56.874 121.16-35.455 185 6.3086 18.802 16.426 36.396 28.59 52 4.3736 5.6107 9.0588 12.897 15.576 16l29.654-44 13.346-23-45-7v-1l45-7-16.334-27-38.666-59 25 20c-3.9967-30.948-7.4425-59.143 0.37304-90 2.9522-11.656 7.2974-22.975 12.055-34 1.9659-4.5558 6.9556-9.9408 5.5723-15zm255 0c-2.7519 15.982-13.948 32.313-20.691 47-15.263 33.24-33.624 70.059-63.309 92.764-18.101 13.844-40.913 22.058-62 30.236 7.7907 10.824 23.329 14.907 35 20.309 3.1151 1.4416 11.813 4.8581 11.078 9.3887-0.79626 4.9122-18.449 2.3086-22.078 2.3027-18.319-0.0294-36.674-2.9116-55-3-5.6111-0.0271-17.102 2.1594-21.26-2.5137-5.2621-5.9149-2.7402-21.213-2.7402-28.486 0-24.734-0.20425-49.33 0-74 6.9343 2.4705 9.0268 9.6802 11.602 16 4.6128 11.322 9.0101 23.207 16.398 33 15.438-16.285 18.504-42.149 32.807-60 25.468-31.785 64.169-48.816 100.19-65.309 12.96-5.9331 26.077-14.392 40-17.691zm-48 49c-9.2216 0.21582-17.182 5.2719-25 9.7188-18.881 10.74-40.367 23.451-53.256 41.281-5.0843 7.0335-15.958 24.242-8.0918 32.566 7.7777 8.2308 26.382-1.3777 33.348-6.3555 16.666-11.91 26.99-31.707 38.434-48.211 5.7946-8.3573 13.503-18.619 14.566-29zm-174 194c-15.133 7.3226-29.094 23.577-42 34.41-5.8399 4.9019-13.699 9.569-17 16.59 15.508 11.496 30.176 23.258 48 31.139 60.201 26.617 131.31 19.83 185-18.43 15.019-10.703 28.589-23.771 39.422-38.709 3.8528-5.3124 8.9078-10.561 10.578-17-9.5949 3.5129-18.419 9.5257-28 13.395-20.552 8.2991-43.797 13.373-66 13.602-22.729 0.23383-43.06-7.7099-65-10.996l25 39-52-43.611-25-18.389-6 49h-2l-5-50z" fill="#040404"/>
</svg>
