<svg xmlns="http://www.w3.org/2000/svg" width="256" height="256" viewBox="0 0 849 849">
    <path d="M424.25 371.97c17.44 17.43 34.85 34.88 52.32 52.29-17.47 17.4-34.92 34.82-52.3 52.31-17.4-17.49-34.92-34.84-52.28-52.36 17.44-17.4 34.84-34.83 52.26-52.24"/>
    <path d="M79.97 424.24c37.94-37.9 75.82-75.86 113.79-113.75 25.51.02 51.03-.01 76.55.02-37.87 37.94-75.81 75.81-113.71 113.74 37.73 37.76 75.5 75.48 113.23 113.25-25.55-.01-51.09.02-76.63-.01-37.74-37.76-75.5-75.49-113.23-113.25" class="loader-left"/>
    <path d="M424.19 223.99c66.87 66.68 133.56 133.55 200.38 200.28-66.82 66.72-133.58 133.48-200.29 200.3-66.75-66.81-133.6-133.52-200.3-200.37 66.76-66.71 133.51-133.44 200.21-200.21M300.61 424.22c41.18 41.28 82.45 82.47 123.67 123.71 41.15-41.28 82.42-82.44 123.62-123.68-41.16-41.25-82.49-82.35-123.58-123.69-41.28 41.18-82.45 82.46-123.71 123.66" class="loader-center"/>
    <path d="M578.17 310.5c25.54 0 51.08-.01 76.62.01 37.93 37.92 75.84 75.85 113.78 113.76-37.84 37.69-75.52 75.54-113.33 113.24-25.52-.03-51.04.01-76.55-.02C616.4 499.72 654.17 462 691.9 424.25c-37.9-37.92-75.83-75.82-113.73-113.75" class="loader-right"/>
</svg>
