<svg xmlns="http://www.w3.org/2000/svg" width="613.813" height="610.624">
    <path fill="#eee" d="M307.7 0c-.356 0-.715.007-1.071.008-1.274 0-2.55.016-3.826.03-.453.005-.905.005-1.358.013-17.5.244-34.965 1.637-47.691 4.11l-16 3.109.424 3.986c.233 2.192.982 4.555 1.666 5.252s1.244 2.647 1.244 4.334c0 3.486.677 3.59 10.98 1.685 12.436-2.299 16.59-2.612 45.686-3.441 26.926-.768 37.538-.091 69 4.4.136.02.23.031.36.05.205.036.388.052.57.075 3.898.523 4.07.18 4.07-3.558 0-.768.075-1.48.201-2.098.108-.366.203-.679.322-1.09.245-.589.555-.957.895-.957.792 0 1.233-1.874 1-4.246a20 20 0 0 0-.145-1.15c.228-.899.393-1.597.393-1.746 0-.358-.782-.784-2.207-1.262-2.625-1.66-9.084-2.648-25.754-5.086-6.281-.919-13.506-1.562-21.18-1.955l-.11-.008-.034-.002c-.976-.05-1.966-.088-2.955-.129-1.216-.052-2.43-.105-3.664-.144a144 144 0 0 0-2.15-.055 344 344 0 0 0-4.048-.084l-.84-.008C310.22.02 308.967.001 307.7 0M202.185 10.748q-1.157.02-2.354.18c-17.144 2.3-21.942 22.799-7.469 31.908 6.521 4.104 16.861 2.756 22.768-2.969 3.93-3.808 4.558-5.158 4.611-10.717q.114-1.344-.02-2.718c-.154-4.362-.955-6.32-3.423-9.09-3.99-4.477-8.718-6.685-14.113-6.594m195.43 3.3a3 3 0 0 0-.964.141c-2.641.337-3.319 2.474-3.916 6.739-.383 2.739-.912 5.826-1.174 6.861-.299 1.183 1.505 2.609 4.858 3.838 20.796 7.622 28.235 10.655 40 16.31 19.624 9.434 42.103 24.11 60 39.174.78.657 1.59 1.238 2.375 1.762.108.128.228.264.285.356.631 1.021 1.444 1.426 2.541 1.185.2.064.38.11.518.113.046.002.123-.029.181-.039.051.024.14.08.162.08.095.001.326-.143.647-.386 1.455-.745 3.957-2.65 6.344-4.899l5.615-5.293-4.668-4.168c-24.834-22.186-66.449-46.51-99.016-57.875-5.173-1.805-8.813-2.995-11.431-3.513-.97-.25-1.745-.384-2.358-.385m-252.628 8.23c-4.072-.014-7.956.53-10.775 1.667-6.399 2.58-32.033 19.82-40.586 27.295-.839.734-4.753 4.03-8.7 7.326-7.465 6.236-27.388 25.917-33.173 32.772-7.378 8.741-18.414 22.944-22.715 29.236-3.63 5.311-4.535 7.857-4.99 14.516q-.165.997-.225 2.119a30 30 0 0 0-.054 3.4c.004 1.017.037 1.934.085 2.797.053 2.668.205 5.052.458 6.397 1.276 6.805 11.39 17.367 19.833 20.713 9.377 3.715 19.677 2.973 28.979-2.09 5.345-2.91 9.312-6.912 17.656-17.803 19.334-25.237 41.462-45.579 75.471-69.383 8.091-5.663 12.484-13.682 13.252-24.191.538-7.368-1.33-15.877-4.272-19.455-4.793-5.83-10.205-10.23-15.478-12.584-3.985-1.78-9.53-2.716-14.766-2.733m.715 17.718c2.927.04 5.956 1.01 8.854 2.957 7.058 4.744 8.35 15.44 3.382 21.682a18.7 18.7 0 0 1-2.52 2.367c-7.428 5.309-17.757 3.643-22.282-3.68-3.405-5.51-3.446-10.947-.121-15.99 3.217-4.881 7.81-7.401 12.687-7.336m159.744 29.572a228 228 0 0 0-18.592.856c-8.259.501-15.99 1.318-22.435 2.474-26.86 4.82-61.002 18.242-84.266 33.123-24.23 15.5-50.17 41.236-66.814 66.288-2.339 3.52-4.252 6.919-4.252 7.554 0 .116-.035.236-.067.354l-.501.845c-.17.17-.356.318-.567.4-.624.245-3.848 6.146-7.162 13.112-8.252 17.344-9.98 21.528-11.014 26.79-.257.904-.464 1.772-.578 2.507-.49 1.755-1.101 3.157-1.558 3.44-.63.388-1.537 3.681-2.02 7.318-.482 3.636-1.342 6.611-1.91 6.611s-1.32 2.85-1.672 6.334-1.296 8.733-2.098 11.666c-.792 2.9-1.236 13.588-1.37 25.498-.111 2.575-.182 5.018-.182 7.17 0 2.048.067 4.37.174 6.82.123 12.033.562 22.89 1.359 25.846.79 2.934 1.739 7.733 2.105 10.666.367 2.934 1.205 5.905 1.864 6.602s1.197 2.644 1.197 4.328c0 3.19 4.197 16.682 7.45 23.94 1.035 2.31 1.882 4.749 1.882 5.417 0 1.198 9.707 20.663 13.426 26.924 4.056 6.828 14.68 22.032 19.511 27.922 9.895 12.062 30.022 30.943 42.782 40.133 7.121 5.129 13.37 9.342 13.886 9.363 1.148.048 4.518-7.307 5.623-12.271.74-3.321-.102-4.318-9.54-11.29-13.924-10.283-32.31-28.14-41.862-40.656-4.304-5.64-7.826-10.613-7.826-11.054s-.75-1.699-1.666-2.793c-.89-1.063-2.172-2.6-2.922-3.506a302 302 0 0 1-3.644-5.95c-6.875-12.885-18.434-40.477-18.434-45.144 0-1.52-.616-3.38-1.37-4.133-.752-.753-1.743-4.622-2.202-8.6-.433-3.748-1.376-7.2-2.157-8.027l-.892-4.425c-.843-9.891-.994-34.905-.461-50.891.302-5.17.68-9.89 1.121-13.766.037-.09.073-.202.111-.25.816-1.03 1.832-4.975 2.258-8.77.426-3.793 1.325-7.994 1.996-9.333s2.234-5.736 3.473-9.77c3.735-12.16 11.795-30.096 18.17-41.303a247 247 0 0 1 3.496-5.662c.108-.17.22-.336.328-.505.754-1.083 1.463-2.026 2.082-2.7.76-.827 2.28-2.832 3.38-4.457 17.644-26.063 45.515-50.043 75.946-65.343 23.863-11.998 51.263-20.02 77.176-22.864q2.971-.203 6.043-.344c4.023-.035 8.517-.054 14.168-.054 5.055 0 9.156.016 12.889.043 3.164.14 6.273.328 9.29.57 32.188 3.87 66.325 15.687 93.475 32.816 13.125 8.281 32.1 24.391 41.21 34.99 4.795 5.581 10.162 11.743 11.927 13.694 1.765 1.95 3.209 3.927 3.209 4.39 0 .789 1.239 2.458 4.824 6.505.82.925 1.911 3.005 2.424 4.62.513 1.617 1.492 2.938 2.176 2.938a.9.9 0 0 1 .56.215q.297.487.59.975.092.333.094.715c0 1.047.75 2.698 1.666 3.667 2.092 2.212 7.666 13.536 7.666 15.575 0 .836.454 1.52 1.008 1.52.367 0 .688.238 1.185 1.251q.232.524.46 1.051c.934 2.277 2.42 6.737 5.335 15.697 1.67 5.134 3.488 10.534 4.041 12 6.132 16.26 7.92 62.063 3.436 88-1.395 8.067-3.044 15.237-3.666 15.934s-1.131 2.573-1.131 4.17c0 7.619-21.204 53.183-25.598 55.008-.588.244-1.07 1.058-1.07 1.808 0 2.372-16.656 22.722-26.18 31.985-11.332 11.021-18.13 16.64-27.088 22.388-6.713 4.308-6.92 4.621-6.06 9.205 1 5.332 4.216 12.17 5.722 12.17 2.49 0 30.565-22.487 40.526-32.457 14.308-14.322 16.96-17.517 27.83-33.543 13.45-19.83 20.95-35.842 30.508-65.127.92-2.82 2.18-8.22 2.799-12s1.733-9.573 2.476-12.873c.73-3.24 1.137-13.58 1.26-25.043.125-2.669.195-5.233.195-7.625 0-2.266-.076-4.738-.203-7.322-.136-11.045-.544-20.865-1.252-24.01-.743-3.3-1.887-9.3-2.545-13.334-1.227-7.526-6.71-25.388-10.09-32.867-1.044-2.31-1.898-4.845-1.898-5.63 0-1.732-12.085-25.584-13.984-27.6-.742-.788-2.535-3.638-3.985-6.334-1.45-2.697-3.101-4.903-3.668-4.903-.012 0-.024-.005-.037-.006-.304-.436-.619-.87-.928-1.306a3 3 0 0 1-.064-.577c0-1.038-.45-2.087-1-2.332s-2.8-3.099-5-6.343c-5.476-8.076-28.54-31.266-40.47-40.69-27.209-21.492-65.995-38.83-100.864-45.088-6.377-1.144-14.012-1.954-22.172-2.457a228 228 0 0 0-20.8-.873m-209.84 8.037c5.07.014 12.104 3.685 14.239 7.813 3.687 7.13 1.506 16.576-4.67 20.225-3.708 2.19-10.797 2.831-14.61 1.32-3.092-1.226-6.812-4.878-6.812-6.686 0-.937-.6-1.703-1.334-1.703a.4.4 0 0 1-.129-.025 15.7 15.7 0 0 1-1.195-5.48c.044-3.917 1.031-6.073 4.396-9.641 2.175-2.306 5.319-4.557 7.404-5.364a16 16 0 0 1 1.866-.416 10 10 0 0 1 .845-.043M529.141 95.24l-1.21 1.207c-1.929.405-3.836 2.358-6.814 5.43l-4.472 4.615 5.91 6.375c3.25 3.506 6.8 7.445 7.888 8.754a644 644 0 0 0 3.352 4c3.43 4.042 13.959 18.146 13.959 18.7 0 .338 2.347 4.135 5.215 8.435 6.128 9.19 18.785 33.472 18.785 36.039 0 .979.6 1.78 1.334 1.78.15 0 .295.052.432.134.32.713.653 1.45.937 2.104.001.032.007.062.008.095.025 1.284 1.206 4.733 2.623 7.666s2.596 6.091 2.621 7.018.787 2.873 1.694 4.324c.267.429.604.804.968 1.123.563.924 1.319 1.334 2.086 1.04.023-.01.108-.034.133-.044a1.7 1.7 0 0 0 .479-.058c1.11-.318 4.503-1.219 7.54-2.002l5.522-1.426-1.545-5.233c-.85-2.877-1.984-5.671-2.521-6.209s-.977-1.836-.977-2.886c0-1.999-1.74-6.292-7.453-18.07-.046-.161-.152-.461-.178-.577-.333-1.466-.992-2.69-1.549-2.945-.767-1.568-1.484-3.045-2.38-4.86-.404-1.413-.96-2.565-1.473-2.994-7.824-15.777-10.125-20.035-12.686-23.46-.578-.774-4.139-6.208-7.914-12.075s-7.201-10.965-7.615-11.332-3.753-4.24-7.42-8.61c-6.987-8.324-10.732-12.778-13.568-14.312l-1.653-1.728-.021.021zm-212.907 8.668c-4.39 0-4.48.114-4.48 5.733 0 3.153.5 6.303 1.113 7 .612.696 2.162 4.116 3.444 7.6 2.22 6.031 2.218 6.635-.01 12.667-1.287 3.484-2.933 7.11-3.657 8.059-2.336 3.063-1.645 16.537 1.108 21.607 3.648 6.72 3.494 18.894-.342 26.928-1.644 3.443-2.99 6.593-2.99 7s.9.738 2 .738 2-.691 2-1.539c0-.847 1.412-3.399 3.136-5.668 6.868-9.036 7.948-12.622 6.852-22.722-1.687-15.54-1.431-17.613 2.92-23.725 7.002-9.835 8.777-14.854 7.89-22.303-.439-3.69-1.15-9.635-1.582-13.21l-.785-6.5-6.068-.833c-3.338-.457-8.085-.832-10.549-.832m-25.685.537c-4.646-.116-19.217 2.018-20.387 3.188-1.05 1.05 6.149 16.305 8.332 17.654 2.586 1.598 3.635 8.89 2.317 16.098-1.536 8.395-.723 20.19 1.44 20.912.827.275 1.503 1.033 1.503 1.683s1.834 3.786 4.076 6.967c4.196 5.953 4.847 9.436 3.637 21.864a71 71 0 0 0-.32 2.43c-.456 4.149-.65 6.086-.438 6.39.07 2.416 1.4-.52 5.559-9.924 1.138-2.574 1.797-6 2-9.617.355-2.652.265-5.11-.248-7.6-.392-3.233-1.143-6.258-2.266-8.582-1.417-2.933-2.576-7.734-2.576-10.668s1.159-7.732 2.576-10.666c1.475-3.054 2.354-7.092 2.537-11.568.117-1.595.094-3.17-.076-4.752-.283-3.985-1.122-7.573-2.461-10.346-1.417-2.933-2.596-6.948-2.621-8.922-.025-1.973-.597-3.928-1.27-4.343-.19-.118-.65-.181-1.314-.198m64.556 5.352c-1.367.03-1.935.597-2.79 1.724-2.12 2.795-2.49 10.527-.561 11.72 2.263 1.398 1.568 15.058-.969 19.046-1.266 1.991-2.63 3.92-3.031 4.287-.4.367-1.914 2.466-3.363 4.666-2.308 3.502-2.598 5.964-2.313 19.752l.322 15.574c-.018.087-.033.179-.052.262l-5.301 7.805c-2.946 4.338-5.707 8.801-6.135 9.916-1.4 3.651.82 2.148 8.873-6.006 10.364-10.494 11.966-13.825 11.977-24.902.01-10.047 1.019-12.177 10.277-21.715 7.766-8 9.715-12.74 9.715-23.62 0-.115.003-.221.004-.335.14-1.251.25-2.479.303-3.637l.144-3.143c.29-1.904.705-3.237 1.205-3.738 2.235-2.234.148-3.435-10.722-6.166-4.049-1.017-6.215-1.521-7.582-1.49zm-105.732 2.111c-4.299 0-18.27 6.112-18.666 8.166-.213 1.105 3.283 5.809 7.77 10.451 9.532 9.864 10.61 12.184 10.61 22.856 0 9.802 2.797 15.55 11.753 24.146 6.853 6.578 8.201 10.17 8.232 21.938.008 3.057.413 6.597.9 7.867 1.336 3.48 4.318-9.155 4.39-18.596.053-7.097-.477-8.609-5.608-16l-5.666-8.162V147.53c0-.307-.005-.59-.006-.892.58-4.463.515-8.049-.363-11.43-.238-3.287-.574-5.398-.965-5.678-2.528-1.809-10-13.395-10-15.506 0-1.163-1.071-2.115-2.381-2.115zm143.195 12c-.127 0-.273.198-.43.53-2.46 1.185-3.297 5.585-3.962 14.205l-.854 11.056-8.363 9.115c-9.329 10.166-9.002 9.436-11.293 25.094-1.647 11.257-1.71 11.386-9.451 19.29-4.287 4.376-7.795 8.426-7.795 9s.298 1.042.662 1.042c1.265 0 20.016-13.791 21.602-15.888 1.597-2.113 4.653-10.79 6.3-17.891 1.114-4.802 3.593-7.33 13.032-13.295 9.068-5.731 11.312-8.882 14.713-20.66 1.418-4.913 2.88-9.908 3.248-11.102q.084-.276.066-.566c.402-.417.57-.82.34-1.033-.105-.098-.454-.31-.957-.594a2.6 2.6 0 0 0-.631-.586c-.157-.106-.403-.25-.592-.37-1.085-.904-2.652-1.937-4.832-3.185-4.208-2.407-7.174-3.817-9.309-3.953-.369-.13-.65-.209-.789-.209-.161 0-.314.037-.464.09-.055-.016-.217-.09-.24-.09M56.795 125.24c4.924 0 6.638.747 10.426 4.535 3.716 3.717 4.533 5.542 4.533 10.133s-.817 6.417-4.533 10.133c-3.612 3.612-5.576 4.525-9.666 4.492-9.821-.077-15.801-5.694-15.801-14.844 0-2.315.11-3.887.533-5.203.288-.665.614-1.32.988-1.953.684-.98 1.65-1.956 3.053-3.209 3.64-3.25 5.777-4.084 10.467-4.084m154.451 2.334-.67.367a.6.6 0 0 0-.146-.033l-.014.002-.049-.049-.117.075c-2.817.27-13.573 7.31-15.502 9.96-.01.009-.122.08-.129.086q-.096.09-.094.243a.8.8 0 0 0-.105.334c0 2.45 2.678 4.893 12.572 11.462 7.226 4.798 11.428 10.855 11.428 16.475 0 3.794 4.405 12.26 8.246 15.848 1.698 1.586 6.389 5.145 10.422 7.91 6.559 4.496 7.591 5.87 9.789 13.008 1.352 4.389 3.076 9.63 3.83 11.646 2.029 5.425 5.14 4.866 3.72-.668-.61-2.383-1.517-7.932-2.013-12.332-1.035-9.183-4.274-15.22-10.865-20.248-6.307-4.81-7.967-8.644-9.1-21.01-.533-5.824-1.931-12.124-3.105-14-1.8-2.874-9.593-10.902-14.637-15.457zm216.908 17.666c-.022 0-.054.021-.078.026-2.668.267-6.726 7.65-8.347 15.275-1.783 8.386-2.847 9.749-12.295 15.772-10.321 6.578-13.168 10.185-16.329 20.689-3.284 10.915-5.317 13.893-12.173 17.838-6.431 3.7-12.512 8.432-12.512 9.736 0 .523.751.622 1.668.22.917-.4 6.165-2.598 11.664-4.886 12.22-5.083 15.04-7.633 20.436-18.474 4.393-8.826 7.328-11.147 18.773-14.852 6.858-2.22 15.888-11.414 19.531-19.883 1.608-3.736 3.449-6.793 4.092-6.793s1.17-.849 1.17-1.887c0-2.216-12.835-12.78-15.527-12.78-.016 0-.032.006-.047.007-.006 0-.02-.008-.026-.008m-251.013 4.92-1.196 1.113c-1.476.788-3.547 2.649-7.097 6.004l-7.094 6.703 3.758 2.965c2.066 1.63 7.754 4.485 12.638 6.346a104 104 0 0 1 3.813 1.525c1.998 1.034 3.489 1.904 4.63 2.748 1.604 1.525 2.754 3.664 4.768 7.623 5.847 11.49 9.906 15.37 20.278 19.393 11.37 4.41 12.358 5.243 17.45 14.705 2.356 4.376 4.893 8.707 5.638 9.623 2.012 2.477 4.118 2.016 3.052-.668-.51-1.283-2.13-6.233-3.601-11-3.076-9.964-6.725-14.351-17.283-20.775-7.824-4.76-10.514-8.971-12.502-19.572-1.147-6.112-8.397-14.626-16.418-19.284-3.422-1.986-7.014-4.38-7.983-5.322-.754-.732-1.363-1.22-2.015-1.394zm280.869 21.643-3.639 3.486c-2 1.917-4.757 5.69-6.123 8.385-5.204 10.267-6.893 11.848-16.125 15.082-3.168 1.11-6.56 2.9-9.656 4.933-.752.462-1.454.95-2.125 1.463-4.89 3.554-8.588 7.518-8.588 9.9 0 1.082-.45 2.166-1 2.41s-1.919 2.246-3.041 4.446c-2.09 4.097-5.471 6.222-19.057 11.98-4.387 1.86-7.395 3.886-6.918 4.659.53.856 1.685.917 3.096.162 1.239-.663 5.253-1.63 8.92-2.15 4.565-.648 8.263-1.627 11.596-3.202.374-.056.766-.115.855-.115.137 0 .658-.425 1.367-1.058.276-.162.552-.323.824-.495 1.35-.753 2.573-1.654 3.793-2.802 1.971-1.671 3.936-3.664 6.026-6.076 7.417-8.562 7.571-8.637 24.863-12.24 7.428-1.549 8.722-2.412 18.322-12.235 7.374-7.544 9.953-11.024 9.014-12.164-.723-.878-3.81-4.47-6.86-7.983zm-430.334 4.105c-8.309 0-18.642 10.2-18.545 18.307.071 5.938 6.54 14.049 12.666 15.88 2.91.87 6.19 1.363 7.29 1.094s3.598-.869 5.55-1.334c1.951-.464 5.101-2.586 7-4.716 2.744-3.08 3.45-5.252 3.45-10.6l-.005-.209c0-.1.006-.181.006-.285 0-2.157-.149-3.72-.576-5.123-.388-1.844-.951-3.436-1.63-4.47-2.494-3.808-10.923-8.544-15.206-8.544m121.219 4c-.152 0-.506.308-.961.778-.318-.026-.584-.028-.721.025-1.809.694-10.125 13.072-10.125 15.07 0 .045.014.089.017.133-.002.017-.017.052-.017.066 0 .089.031.182.082.278.648 2.031 5.5 3.826 15.42 5.724 12.345 2.362 12.267 2.318 19.031 10.907 6.589 8.367 12.768 11.764 24.932 13.707 9.314 1.488 11.724 2.649 15.175 7.312 1.086 1.467 4.006 4.916 6.489 7.666s5.644 5 7.025 5c2.455 0 2.455-.056-.014-2.525-1.389-1.39-4.118-5.699-6.066-9.576-4.66-9.277-8.05-12.214-18.978-16.452-11.4-4.42-12.81-5.513-16.561-12.837-4.412-8.617-9.115-14.496-13.342-16.682-4.342-2.245-12.488-5.238-17.888-6.793-.633-.314-1.066-.56-1.239-.709-.696-.6-1.713-1.092-2.26-1.092M481.238 206c-2.762-.028-9.916 5.693-13.611 11.057a36 36 0 0 1-1.848 2.468c-1.258 1.281-2.336 2.33-3.28 3.135-2.783 1.968-6.29 2.905-12.343 3.762-11.904 1.686-17.529 4.612-23.437 12.191-6.605 8.473-10.786 10.755-23.408 12.776-5.832.933-11.2 2.295-11.93 3.025-.88.88 3.824 1.236 13.982 1.057 16.678-.294 15.815.03 30.922-11.57 4.93-3.786 5.85-3.993 17.799-3.993 13.802 0 17.9-1.29 25.67-8.076 2.567-2.242 6.335-4.968 8.375-6.057 3.688-1.968 3.698-2.004 1.478-6.257-1.227-2.353-2.765-5.178-3.416-6.278s-1.523-3.007-1.941-4.24-1.551-2.544-2.52-2.916a1.4 1.4 0 0 0-.492-.084m-353.5 7.984c-1.45-.134-2.624 2.362-8.39 14.922-.757 1.65-.998 3.375-.537 3.836 1.624 1.625 12.344 2.968 17.85 2.237 7.817-1.04 10.748-.014 19.609 6.867 9.264 7.193 16.09 9.307 26.558 8.222 8.98-.93 14.078.755 21.192 7 2.606 2.289 6.436 5.042 8.51 6.118 5.423 2.814 5.564 1.498.394-3.69-2.477-2.485-6.581-6.794-9.121-9.574-5.634-6.167-10.232-8.194-21.44-9.453-8.52-.957-8.707-1.067-18.062-10.655-9.863-10.107-12.355-11.358-26.547-13.324-3.667-.508-7.676-1.446-8.908-2.084-.424-.22-.773-.39-1.108-.422m128.266 8.59-.033.031h-.883l-11.024 10.862-10.959 10.797-.017.017-.047.047.016 1.377-.018.018.049 4.28v59l.662.214.004.3 13.832 4.526c15.228 4.982 24.01 9.553 35.51 18.482 14.467 11.235 18.9 20.513 20.246 42.383.706 11.484 1.089 13 3.273 13 2.144 0 2.474-1.11 2.48-8.334.018-18.238 3.906-30.715 12.366-39.666 10.86-11.491 24.524-19.561 43.795-25.865l13.832-4.525.004-.282.662-.213.02-32.224.017-29.627.014-1.156-.012-.012v-.438l.01-.886-.01-.01v-.096l-1.758-1.67-9.228-9.277-10.994-11.053H306.33zm-244.055 9.334c-.476 0-.965.388-1.48 1.2-7.059 8.099-12.786 55.646-9.533 85.476 1.614 14.803 5.49 32.9 8.685 40.547l1.914 4.582 6.336-1.908c3.485-1.049 6.576-2.144 6.867-2.436s-1.059-8.24-3-17.662c-3.062-14.863-3.526-20.32-3.508-41.213.02-22.868 1.777-39.617 5.514-52.578.739-2.562 1.344-6.517 1.344-8.79 0-3.64-.614-4.312-5.156-5.673-2.835-.85-6.165-1.545-7.4-1.545q-.168.002-.335.035c-.065-.007-.207-.035-.248-.035m589.694 0c-1.236 0-4.566.696-7.4 1.545-4.543 1.361-5.155 2.033-5.155 5.674 0 2.272.603 6.227 1.342 8.789 3.737 12.96 5.493 29.71 5.513 52.578.019 20.894-.445 26.35-3.507 41.213-1.942 9.422-3.275 17.386-2.965 17.695s3.198 1.356 6.422 2.325c3.223.968 6.294 1.53 6.824 1.248 1.448-.771 5.982-16.227 8.625-29.403 3.606-17.982 3.194-60.262-.768-78.865-2.828-13.28-4.892-19.797-7.117-21.95-.425-.563-.832-.849-1.23-.849-.046 0-.201.031-.276.04-.102-.015-.204-.04-.308-.04m-296.153 8.21c1.45.005 2.99.13 4.272.37 1.706.32 2.783.53 3.468 1.02 1.09 1.04 1.188 2.78 1.19 7.113 0 .341-.006.61-.008.92-.003.448-.003.914-.012 1.305-.009.443-.03.81-.05 1.18-.01.166-.013.363-.024.517-.244 3.035-1.108 3.523-4.105 4.568-1.71.597-3.215 1.081-3.915 1.272a8 8 0 0 1-.779-.051c-.337-.15-1.614-.64-3.44-1.307-3.381-1.235-3.667-1.9-3.667-8.537 0-4.085.114-5.9.933-6.873.598-.345 1.33-.68 2.287-1.08.107-.044.2-.075.303-.117.913-.204 2.183-.307 3.547-.3m-30.726.048c1.57-.008 3.173.104 4.427.34a35 35 0 0 1 1.688.351c.696.26 1.256.519 1.652.854.594 1.224.76 3.242.948 7.06l.175 3.602c-.229 2.927-.952 3.51-3.11 4.05-1.764.444-4.014 1.062-5 1.374-.984.312-3.44-.037-5.456-.774-3.375-1.232-3.668-1.905-3.668-8.455 0-6.863.147-7.148 4.105-8.017 1.13-.248 2.668-.377 4.239-.385m63.314 0c1.571.008 3.11.137 4.238.385 1.69.37 2.682.642 3.268 1.355l.002.004c.765 1.074.832 2.842.834 6.547v.117c0 .307-.005.546-.006.826-.002.457-.002.935-.01 1.329-.09 4.563-.673 4.938-4.316 6.033-2.773.833-5.896.844-8.668.031-2.735-.802-3.734-1.236-4.106-3.324-.171-1.054-.218-2.493-.223-4.524 0-.136-.004-.237-.004-.379v-.125c.001-2.501.026-4.13.274-5.242.276-.716.7-1.349 1.25-1.896.672-.345 1.64-.535 3.039-.797 1.255-.236 2.857-.348 4.428-.34m157.965 3.277c-3.285-.01-9.31 3.301-16.174 9.035l-4.797 4.008c-.776.358-1.589.597-2.556.754h-12.077c-13.58 0-13.797.051-20.207 4.686-14.077 10.178-13.509 9.97-27.144 9.998-1.889.004-3.738.053-5.47.133-3.134-.068-5.244.107-6.321.52-1.451.196-2.502.42-2.877.663-1.504.972-.841 1.305 2.668 1.34 2.567.025 7.665.88 11.332 1.9 11.13 3.097 16.524 2.58 26.744-2.568 10.326-5.201 13.027-5.52 22.469-2.656 10.117 3.069 16.202 2.498 27.394-2.569 5.533-2.504 11.014-4.847 12.18-5.209 1.532-.474 1.953-1.806 1.514-4.796-.334-2.277-1.139-4.469-1.787-4.87-.27-.167-.518-.624-.717-1.24-.012-.085-.028-.17-.04-.256a35 35 0 0 0-.376-2.23c-.016-.255-.047-.5-.047-.76 0-2.067-.854-4.467-1.899-5.334-.442-.367-1.054-.546-1.812-.549m-220.201 4.465c-2.275 0-3.317.242-3.77 1.182-.824.462-1.27 1.104-1.44 1.992-.26 1.379.334 3.02 1.323 3.647 4.159 2.635 9.133.613 9.133-3.711 0-2.432-.356-3.037-2.967-2.973-.56-.103-1.293-.137-2.28-.137m29.953 0c-4.044 0-4.707.44-4.707 3.112 0 1.71.4 3.51.889 4 .636.636 1.837.9 3.156.876.674.09 1.383-.013 2.056-.267 1.326-.319 2.548-.899 3.217-1.705 2.709-3.264.598-6.016-4.611-6.016m30.047 0c-4.845 0-5.422.344-5.422 3.223 0 1.772.751 3.538 1.668 3.924.273.114.684.205 1.146.283a6.5 6.5 0 0 0 2.149.402c.347.06.687.026 1.045-.086q.4-.061.781-.172c2.256-.2 3.153-1.001 3.533-3.26.054-.21.084-.426.1-.648.005-.067.018-.131.02-.199.36-3.256-.003-3.467-5.02-3.467m-223.963 4-1.389 5c-.763 2.75-1.392 7.55-1.396 10.666-.007 5.663-.003 5.667 4.994 5.653 2.75-.008 7.945-.908 11.545-2a65 65 0 0 1 3.814-1.043c1.015-.12 2.275-.255 3.063-.358 1.798-.233 3.228-.335 4.54-.299 2.963.353 5.887 1.531 9.934 3.66 10.33 5.434 15.271 6.11 25.844 3.545 12.423-3.014 14.724-2.79 25.78 2.508 9.63 4.615 15.812 5.92 15.812 3.334 0-.733-1.134-1.334-2.52-1.334s-6.036-2.58-10.334-5.732c-4.297-3.153-8.712-6.303-9.812-7-.546-.346-2.684-.734-5.688-1.082-1.875-.377-3.865-.55-6.078-.547a185 185 0 0 0-5.013-.305c-14.491-.653-14.878-.755-19.912-5.176-8.717-7.655-14.264-9.428-29.58-9.46zm210.578 14.963c1.428.005 2.863.128 3.963.37.42.091.779.18 1.115.269 2.747 1.004 2.883 2.033 2.885 7.836 0 .403-.005.73-.008 1.088-.003.37-.003.766-.01 1.095-.097 4.563-.699 5.034-4.182 6.248-2.312.807-3.546 1.227-4.6 1.262a17 17 0 0 1-.792-.055c-.967-.167-1.958-.693-3.74-1.664-2.99-1.627-3.287-2.509-2.877-8.535.42-6.189.761-6.786 4.332-7.57 1.066-.234 2.486-.349 3.914-.344m-32.236.027c1.896-.006 3.844.22 5.129.647 3.34 1.108 3.78 1.943 4.13 7.846.108 1.813.162 3.098.106 4.093-.12.967-.317 1.703-.654 2.266-.607.766-1.69 1.198-3.547 1.87-5.101 1.844-4.46 1.838-9.297.071-2.531-.924-3.328-1.532-3.568-4.552-.005-.069-.007-.161-.012-.233-.03-.44-.054-.91-.067-1.455-.006-.233-.005-.516-.008-.77-.005-.432-.011-.854-.011-1.353.003-5.72.158-6.8 2.761-7.773.518-.13 1.1-.251 1.832-.389.948-.178 2.068-.264 3.206-.267zm-31.11.106c1.1.036 2.222.183 3.309.445 4.506 1.086 4.68 1.362 5.064 7.973.112 1.922.166 3.267.108 4.303-.307 2.53-1.226 3.072-4.037 4.052-2.164.755-3.56 1.155-4.873 1.235-1.117-.044-2.274-.473-4.594-1.32-3.325-1.215-3.668-1.954-3.668-7.928 0-5.953.355-6.726 3.668-8.014 1.423-.553 3.19-.805 5.023-.746m94.666 0a16.5 16.5 0 0 1 3.31.445c4.49 1.082 4.681 1.38 5.06 7.836.382 6.537.277 6.753-4.094 8.334-5.101 1.845-4.463 1.839-9.3.072-.98-.358-1.698-.678-2.228-1.101-1.155-1.128-1.424-2.917-1.435-7.07.011-5.708.401-6.502 3.664-7.77 1.423-.553 3.19-.805 5.023-.746m-92.85 6.236c-2.281 0-4.885 4.149-4.214 6.715.78 2.987 5.88 3.261 8.295 1.299.059-.003.136-.014.187-.014.674 0 1.225-1.188 1.225-2.64 0-.683-.322-1.334-.846-1.905-1.024-1.795-3.008-3.455-4.646-3.455m89.512.514a4.7 4.7 0 0 0-1.921.3c-2.125.816-2.89 5.95-1.147 7.692.893.893 2.445 1.047 3.957.703.956-.065 1.935-.453 3.092-1.191.974-.621 1.271-1.518 1.092-2.43.25-2.617-2.337-4.947-5.073-5.074m-28.834.018c-.96-.065-2.073.209-3.28.855-2.513 1.345-3.453 5.288-1.682 7.059.488.489 2.588.888 4.666.888 3.277 0 3.779-.51 3.779-3.857 0-3.03-1.37-4.804-3.483-4.945m-30.505.17c-.613.004-1.258.23-2.043.65-2.567 1.374-3.537 5.305-1.748 7.094.544.544 1.565.804 2.742.857.814.257 1.672.178 2.445-.158 2.37-.387 4.592-1.391 4.592-2.62 0-.654-1.214-2.404-2.697-3.888-1.34-1.339-2.27-1.943-3.291-1.936m215.32 8.28-1.729.233-.011-.133-2.037.409-1.489.199c-2.896.388-9.456 2.637-14.578 4.998l-7.988 3.681a18 18 0 0 1-3.125.065l-7.934-2.41c-11.613-3.528-16.05-3.132-27.904 2.48-9.859 4.668-13.628 5.017-23.084 2.149-3.976-1.206-8.635-1.865-12.053-1.926-.246-.01-.468-.01-.685-.008-2.397.018-4.05.361-4.05 1.111 0 .64 2.37 1.543 5.267 2.006 2.896.463 7.245 1.987 9.666 3.389 9.661 5.593 14.637 6.116 26.88 2.826l9.477-2.547a24 24 0 0 1 3.22.205l9.009 4.115c11.806 5.392 20.298 6.202 29.816 2.844 3.118-1.1 7.392-2 9.5-2h3.832v-10.842zm-374.758 4.903c-3.234.08-6.615.765-10.574 2.014-4.767 1.503-10.018 2.743-11.668 2.752-2.837.016-3 .549-3 9.795 0 5.377.42 10.198.935 10.712 1.423 1.423 8.153-.38 17.342-4.646 9.439-4.383 11.83-4.592 20.936-1.83 10.212 3.098 15.975 2.503 27.908-2.885l8.18-3.695c1.723-.459 3.308-.647 4.99-.572l9.785 2.49c7.213 1.835 13.204 2.684 14.713 2.086 2.02-.802 1.031-1.501-4.79-3.395-4.032-1.312-9.318-3.42-11.745-4.685-6.583-3.43-13.652-3.916-21.936-1.508-10.549 3.066-15.684 2.692-24.154-1.764-6.553-3.447-11.532-5.001-16.922-4.869m206.742 5.193c1.33.01 2.578.327 4.094.955 3.546 1.47 3.92 2.212 3.922 7.873v.11c-.004 5.383-.47 6.438-3.397 7.771-1.762.803-3.29 1.236-4.783 1.338q-.704.011-1.412-.01c-1.496-.12-3.01-.574-4.74-1.408-2.485-1.198-2.998-2.527-3-7.78v-.027l.002-.166c.004-5.927.233-6.271 4.742-7.76 1.835-.605 3.243-.905 4.572-.896m-64.338.061c1.398.014 2.914.284 4.688.812 4.766 1.42 4.99 1.67 4.998 7.553v.041c-.006 2.829-.147 4.67-.543 5.932-.534 1.182-1.582 1.672-3.654 2.394-2.44.851-3.959 1.279-5.371 1.293l-.077-.004c-1.39 0-2.694-.4-4.687-1.2-2.557-1.028-3-2.202-3-7.948 0-6.127.336-6.872 3.668-8.147 1.301-.497 2.58-.74 3.978-.726m31.873.098c1.806-.028 3.611.179 4.916.675 3.19 1.213 3.565 2.039 3.565 7.842 0 5.656-.435 6.684-3.397 8.033-1.89.862-3.235 1.314-4.511 1.395-.296.002-.592.007-.885-.006-1.302-.104-2.636-.604-4.512-1.553-2.896-1.466-3.253-2.41-2.875-7.644.237-3.285.683-6.379.989-6.873.693-1.122 3.701-1.823 6.71-1.87zm.35 7.431c-.351 0-.681.026-1 .06-.18-.012-.347-.039-.535-.04-.726-.006-1.246.197-1.615.642-1.856.962-2.506 2.9-1.57 5.338.176.46.63.843 1.24 1.15.31.553.883.726 1.845.708.441.115.912.145 1.39.095 2.15.17 4.385-.224 5.05-1.299 1.843-2.982-.809-6.654-4.805-6.654m-31.045.197c-4.019-.096-5.731 2.18-4.308 5.887.375.979 1.252 1.522 2.71 1.684.549.209 1.168.255 1.797.168q.276.082.606.031c.199.01.395.033.594.033 1.46 0 2.285-.278 2.714-1.05.82-.535 1.063-1.4 1.063-2.95 0-2.24-.488-3.07-2.555-3.494q-.632-.259-1.482-.22c-.107-.012-.192-.027-.305-.038a12 12 0 0 0-.834-.05m60 0c-3.039-.072-4.752 1.216-4.795 3.45-.009.09-.03.175-.03.267 0 .561.127 1.127.333 1.631.055.178.113.354.184.54.375.978 1.252 1.521 2.71 1.683.61.232 1.307.268 2.006.138 3.777.147 6.239-2.133 4.727-4.87-.19-1.974-1.134-2.483-4.3-2.788a12 12 0 0 0-.835-.05m67.322 11.866q-1.48.099-1.478 1.27c0 .733.817 1.333 1.816 1.333s5.883 3 10.85 6.666l9.031 6.668H436.5c13.652 0 13.74.02 19.484 4.625 7.288 5.842 12.679 8.901 17.77 10.084 2.2.511 8.896.86 14.879.776 5.693-.08 8.964-.244 10.965-1.467l.798-.018.166-.771c1.666-1.742 2.14-4.864 2.737-10.58l.834-7.983h-5.637c-3.1 0-9.493 1.027-14.207 2.283l-3.594.957c-3.352.482-5.5.532-7.502.079l-7.478-3.702c-11.43-5.656-17.185-6.18-30.668-2.793l-6.543 1.643a19.5 19.5 0 0 1-4.211-.516l-7.992-3.793c-6.995-3.321-11.563-4.907-13.735-4.761m-15.908 3.941c-.138 0-.88.216-1.933.545-2.62.41-6.268 1.526-11.33 3.281-10.729 3.72-27.668 11.086-29.342 12.76-.232.232 1.325 3.943 3.46 8.248s5.275 11.878 6.975 16.828c.949 2.761 2.034 5.211 2.977 6.865l.92 2.184.443-.291c.173.148.33.242.461.242.94 0 3.87-2.16 6.51-4.8s5.16-4.44 5.6-4a.7.7 0 0 1 .144.203c-.083.139-.146.263-.234.406l-.057.094c-.157.058-.35.097-.61.097-.855 0-1.554.727-1.554 1.615s-2.342 4.04-5.205 7l-5.205 5.385 1.537 9.928.71 4.586.438 4.088.166-.196.225 1.45 3.666-4.364c2.193-2.61 3.668-3.564 3.668-2.373 0 .055-.013.108-.016.162a59 59 0 0 1-1.441 2.631c-.79.732-2.21 2.466-3.543 4.368-3.146 4.487-3.512 7.12-2.139 15.43.214 1.29.382 2.222.557 2.886l.01 1.404.361-.441c.438.632 1.067.141 2.39-1.057 1.368-1.237 2.535-3.205 2.593-4.375a3.5 3.5 0 0 1 .111-.793l.197-.293c.125-.031.274.131.436.528.352.862-.996 4.16-2.994 7.326-2 3.166-3.633 6.46-3.633 7.318s-1.279 2.144-2.84 2.856c-2.358 1.074-15.587 10.532-23.383 16.716-1.1.873-4.1 3.024-6.666 4.78-7.4 5.064-12.668 11.515-17.508 21.449-2.471 5.073-4.793 9.223-5.16 9.223-.366 0-2.688-4.15-5.16-9.223-5.387-11.058-9.969-15.832-27.291-28.438-7.237-5.267-14.747-10.925-16.687-12.574-4.46-3.79-5.742-3.79-4.956-.002.343 1.65 1.63 10.048 2.864 18.662l2.242 15.664 13.244 4.086c20.285 6.26 24.316 8.338 29.297 15.106a34 34 0 0 0 2.98 3.527c.463.696.801 1.267.801 1.477 0 1.267.725 1.57 1.824 1.138l.094.125.069-.078.013.02.196-.233.052-.029c.158.06.3.098.418.098 1.1 0 4.018-2.74 6.483-6.088 3.01-4.09 6.511-6.943 10.666-8.69 3.402-1.43 7.686-3.271 9.52-4.091s3.794-1.383 4.359-1.25c.564.132 4.914-1.016 9.666-2.551 7.31-2.362 8.675-3.286 8.873-6.008.166-2.295.397-4.448.691-6.744a.4.4 0 0 0 .028-.215c.46-3.552 1.117-7.555 2.238-13.592 2.485-13.393 2.647-5.164.195 9.944-1.066 6.57-1.709 12.176-1.428 12.457 1.612 1.611 11.67-4.017 17.545-9.817 8-7.897 9.918-14.149 10-32.584.133-29.928 2.384-82.924 3.584-84.379.736-.892 1.54-4.243 1.791-7.447q.07-.88.098-1.656c.326-1.604.257-2.541-.225-3.358-.37-1.602-1.238-2.483-2.861-2.714-.414-.261-.779-.442-.984-.442zm-159.648.205c-2.163-.062-3.634.572-4.467 1.914-1.053.803-1.285 1.701-.807 2.908l.014.04c-.06.99-.003 2.117.195 3.418.462 3.03 1.386 6.205 2.053 7.054s1.785 23.05 2.486 49.334 1.929 50.617 2.727 54.072c1.777 7.695 9.534 16.947 17.525 20.903 6.973 3.451 9.423 3.588 8.522.48-.372-1.283-1.698-10.432-2.945-20.332-1.248-9.9-2.933-18.9-3.747-20-2.132-2.883-4.812-7.815-4.812-8.855 0-.445 1.198.592 2.723 2.3.324.407.668.805 1.021 1.165l2.623 3.05.945-8.142c.9-7.752.747-8.394-3.183-13.356-5.207-6.574-5.435-9.665-.287-3.904l3.842 4.299 1.234-9.945 1.234-9.946-1.244-1.263c-.318-.841-.898-1.313-1.777-1.807l-1.461-1.484c-6.978-7.093-8.42-10.807-2.21-5.688 2.832 2.334 5.815 4.242 6.632 4.242 1.312 0 5.053-9.13 5.19-12.666.027-.733.351-1.633.718-2 .367-.366 2.597-4.689 4.957-9.605l4.291-8.94-3.623-2.5c-3.43-2.365-16.573-8.05-20.482-8.857-.995-.206-4.092-1.383-6.881-2.617-4.741-2.098-8.381-3.196-11.006-3.272m-38.649.283c-4.186.077-8.163 1.723-16.273 5.684l-8.162 3.986a16.7 16.7 0 0 1-3.49.266l-9.278-2.188c-13.038-3.073-17.695-2.487-30.125 3.788-4.328 2.184-8.799 3.972-9.933 3.972-1.56 0-1.866.896-1.252 3.666.757 3.42 2.764 10.843 3.964 14.666.3.953.985 1.478 2.022 1.59l.027.09.172-.088q.213.014.444.006c.059.025.132.07.173.07.188 0 .467-.072.803-.187 3.414-.654 8.982-3.919 16.172-9.59 5.015-3.956 5.633-4.094 16.947-3.791 12.757.341 19.195-1.447 25.182-6.996 7.687-7.126 10.558-8.104 23.836-8.104 1.164 0 2.23-.008 3.226-.025 4.222.118 6.64-.042 7.182-.473.266-.043.554-.082.78-.13l.31.017-.186-.053c1.096-.254 1.702-.582 1.844-1.002.368-1.088-.825-1.666-3.44-1.666-2.201 0-7.711-.95-12.244-2.111-3.6-.923-6.189-1.443-8.7-1.396zm210.727 16.34.967 1.16c-.613.225-.094 1.42 1.941 3.68a595 595 0 0 1 6.37 7.24c4.311 4.985 10.571 7.728 20.722 9.082 9.604 1.282 11.031 2.135 21.303 12.72 7.94 8.181 9.393 9.1 16.697 10.573 4.4.887 10.1 2.099 12.666 2.692s5.267 1.137 6 1.207c2.209.211 8.944-17.44 7.287-19.098-.539-.539-3.602-1.003-7.805-1.267a45 45 0 0 0-1.535-.09l-.062-.002a127 127 0 0 0-5.287-.137c-11.58-.066-13.737-.449-16.934-2.994-11.488-9.149-13.925-10.967-22.986-11.75a49 49 0 0 0-3.045-.211 393 393 0 0 0-4.38-.238l-14.423-.713a11 11 0 0 1-1.12-.578l-6.86-5.297c-3.268-2.523-5.828-4.082-7.329-4.637zm-127.496 2.5-.885 1.46c-2.359 2.49-6.076 10.71-9.135 20.54-1.711 5.5-3.12 10.414-3.13 10.918-.012.504 6.429 4.27 14.312 8.371s16.967 9.823 20.185 12.715c1.695 1.523 3.374 2.788 4.696 3.596.315.232.56.385.68.396.85.456 1.478.648 1.742.485.769-.476.694-1.349-.188-2.23-.444-.445-.839-1.757-1.105-3.432a96 96 0 0 0-.387-5.9c-.432-7.903-4.26-19.177-9.56-27.925-4.405-7.269-13.65-17.421-16.516-18.263zm69.222.668c-2.847 0-18.394 17.697-18.394 20.938 0 .95-.475 1.728-1.057 1.728-2.447 0-10.495 33.337-8.523 35.309 1.068 1.068 1.071 1.064 8.273-5.332 3.73-3.313 12.75-9.017 20.045-12.678 7.295-3.66 13.253-7.101 13.242-7.644s-1.42-5.489-3.13-10.989c-3.205-10.298-7.054-18.665-9.428-20.793-.055-.048-.11-.102-.162-.144-.245-.231-.467-.383-.639-.385-.01 0-.047.027-.062.031-.054-.01-.114-.04-.165-.04m-134.74 4.248c-3.555.03-8.235.692-12.28 1.664l-2.923.088-1.623 1.254c-1.44.526-2.617 1.086-3.355 1.656a1251 1251 0 0 0-8.2 6.422c-4.798 3.79-5.737 4.007-17.836 4.11-14.45.122-17.125.946-25.357 7.824-3.223 2.693-7.486 5.738-9.473 6.765l-3.611 1.868 4.168 8.658c2.293 4.762 4.874 8.684 5.734 8.717 1.875.07 9.654-6.17 12.377-9.928 5.503-7.593 8.916-9.761 16.832-10.7 13.503-1.6 19.692-5.108 27.82-15.765q.367-.479.757-.935c1.532-1.502 2.902-2.777 4.109-3.782 3.667-2.64 8.026-4.164 12.371-4.185 2.294-.011 5.038-.569 6.1-1.24 1.507-.954 1.113-1.427-1.793-2.157-.973-.244-2.29-.347-3.817-.334m5.922 21.483c-.47-.004-1.103.103-1.908.353-4.717 1.465-9.845 5.537-15.195 12.067-6.066 7.401-9.622 9.266-19.536 10.242-9.655.95-18.124 5.736-23.937 13.527-2.383 3.194-5.671 6.632-7.307 7.64l-2.972 1.835 5.992 7.636c3.296 4.2 6.48 7.635 7.074 7.635 2.568 0 12.213-14.077 12.213-17.826 0-.044.017-.095.021-.14.601-1.067 1.2-2.005 1.832-2.83 2.547-2.434 7.36-5.203 12.127-6.706 9.863-3.109 15.405-8.003 20.655-18.238 2.597-5.064 5.954-9.486 8.213-10.82 3.714-2.194 4.766-4.356 2.728-4.375m188.58 4.103c-.274-.004-.484.052-.605.174-1.54 1.544 6.04 6.98 13.76 9.87 10.854 4.06 13.425 6.162 16.619 13.585 4.23 9.833 11.396 16.318 21.892 19.81 4.242 1.412 8.073 3.024 9.244 3.858.17.126.286.23.338.315q.748 1.197 1.834 1.199c.037.003.078.021.113.021.032 0 .084-.033.122-.043 1.558-.167 3.586-2.048 6.013-5.623 2.117-3.116 4.298-5.867 4.848-6.111.55-.245 1-1.245 1-2.223 0-2.33-9.367-5.626-18.975-6.68-6.212-.68-8.332-1.59-11.334-4.863-13.917-15.174-15.503-16.178-28.822-18.24-5.022-.777-10.624-2.392-12.45-3.588-1.368-.897-2.774-1.447-3.597-1.46m-143.267 9.813c-.24-.023-.412.01-.508.107-.51.51-1.002 3.068-1.281 6.3-.157 1.213-.312 2.616-.497 4.243l-.884 7.813.957.498-.008.341 14 7.272c16.378 8.505 26.666 14.902 26.666 16.584 0 .657.6 1.195 1.334 1.195.973 0 1.368-.806 1.316-2.138.007-.064.018-.124.018-.196 0-.03-.027-.114-.04-.168l-.001-.004v-.006c0-.227-.034-.464-.112-.705-.839-4.976-5.906-14.594-11.547-20.453-6.94-7.209-25.813-20.34-29.414-20.684zm98.279.015c-3.201.346-20.479 11.936-28.861 19.532-4.612 4.178-14.12 21.616-12.88 23.623 1.086 1.756 1.744 1.495 4.971-1.97 1.615-1.733 11.036-7.377 20.936-12.54l18-9.387-.006-.264.959-.494-.164-1.455.053-.027-.166-.973-.633-5.59a95 95 0 0 0-.403-3.084c-.258-3.687-.797-6.723-1.361-7.287q-.123-.12-.445-.084m230.014 5.678c-1.344-.007-5.783 9.565-5.893 12.705-.01.275-.23.953-.533 1.774-.369.45-.628 1.121-.71 1.783a66 66 0 0 1-1.378 3.064c-1.417 2.934-2.598 6.383-2.623 7.666-.001.074-.01.143-.016.215-.271.611-.595 1.311-.89 1.963a.86.86 0 0 1-.471.156c-.733 0-1.334.688-1.334 1.528 0 7.113-27.3 51.988-41.25 67.806a4832 4832 0 0 1-6.178 6.988c-2.014 2.274-2.978 3.466-3.035 4.543l-.037.043.033.034c-.012.947.68 1.822 2.006 3.287 1.566 1.73 2.694 2.716 4.408 2.181.583.017 1.162-.333 1.903-1.05 3.085-2.253 7.965-7.973 17.484-19.373 5.824-6.975 7.833-9.727 14.6-19.987 11.093-16.82 23.4-39.314 23.4-42.773q0-.195.025-.377v-.002q.27-.594.535-1.188l.002-.002c.204-.204.447-.324.71-.324.7 0 1.666-2.101 2.148-4.668s1.409-4.666 2.06-4.666 1.19-1.05 1.194-2.334c.005-1.283.812-3.872 1.795-5.754s2.18-5.003 2.666-6.935c.8-3.186.415-3.643-4.127-4.905-2.755-.765-5.677-1.394-6.494-1.398m-368.909.004c-.45 0-.953.082-1.5.197-.083.007-.166.008-.25.018l-3.855.441v.55l-.668.167v49.367c0 25.645.181 40.469 1.05 50.434.26 8.2.665 11.731 1.284 12.35.917.916 1.666 2.779 1.666 4.14 0 3.682 7.44 17.997 13.586 26.143 14.366 19.04 33.644 31.33 56.808 36.215.446.093.932.183 1.403.275 1.675.381 3.364.74 5.084 1.053 1.792.326 3.97.544 6.394.666 2.917.32 5.608.526 7.578.547 10.409.11 27.943-2.994 37.852-6.702 6.507-2.434 21.544-11.331 25.295-14.964.894-.867 3.783-3.514 6.42-5.885 9.689-8.714 23.58-30.716 23.58-37.348 0-1.361.751-3.224 1.668-4.14.656-.656 1.073-4.556 1.328-13.862.566-6.575.8-15.495.902-28.135.278-14.605.314-30.994.092-44.324l.01-25.83-.666-.166v-.55l-2.568-.249a3.5 3.5 0 0 0-2.008-.285c-.672-.112-1.276-.152-1.791-.023-1.416-.062-2.476-.02-2.584.138-.044.065-.121 2.223-.213 5.399-.27 1.85-.452 4.853-.578 9.156-.03.893-.055 1.886-.078 2.885-.01.52-.024.96-.033 1.517-.033 1.714-.047 3.945-.067 5.965-.011 1.299-.025 2.59-.033 4.045-.025 4.485-.041 9.703-.043 15.635-.03 1.695-.058 2.743-.088 4.482-.825 47.34-1.685 57.596-5.744 68.666-10.073 27.469-34.866 47.122-65.873 52.211-12.76 2.095-14.503 2.095-27.264 0-14.93-2.45-26.389-7.091-37.531-15.197-8.816-6.413-9.862-7.457-17.031-17.014-7.66-10.21-11.108-17.508-14.455-30.597-1.819-7.11-2.418-11.883-2.614-31.467-.05-6.462-.07-14.134-.07-23.69 0-1.449-.004-2.454-.004-3.826 0-4.116-.004-8.168-.01-11.549-.003-1.306-.009-2.616-.014-3.834-.045-14.871-.189-22.467-.666-26.238-.145-3.035-.303-4.972-.472-5.238-.285-.45-.882-.806-1.639-1.049-.453-.356-.978-.5-1.59-.5m-189.492.287c-.117.001-.292.027-.422.033-.702-.067-1.694.085-2.771.352-.902.164-1.841.359-2.793.615-5.063 1.363-5.42 1.756-4.635 5.09.468 1.987 1.373 4.182 2.012 4.879.638.697 1.162 2.107 1.162 3.133 0 3.78 13.9 32.607 22.746 47.17a3575 3575 0 0 1 8.33 13.763c.875 1.467 1.891 2.968 2.258 3.334s2.139 2.766 3.94 5.332c1.8 2.567 3.762 5.267 4.359 6l3.785 4.668c1.486 1.834 6.125 7.346 10.308 12.25 4.184 4.904 8.357 8.954 9.274 9 .022.001.052-.007.076-.008.054.035.127.09.15.09.085 0 .257-.088.49-.238 2.109-.8 6.284-4.543 6.284-5.863 0-.424-1.65-2.505-3.666-4.625-4.525-4.758-4.61-4.863-14.445-17.94-13.361-17.764-32.555-50.788-32.555-56.012 0-1.093-.6-1.988-1.334-1.988a.9.9 0 0 1-.367-.092c-.34-.783-.67-1.57-1.002-2.357-.174-1.393-1.202-4.488-2.446-7.291-1.364-3.077-3.315-8.518-4.334-12.094s-2.539-6.766-3.378-7.09c-.21-.08-.565-.116-1.026-.111m332.553 18.172-.7.504c-.013-.03-.029-.089-.04-.102-.016-.018-.083.004-.178.047-.133-.15-.268-.252-.408-.252-.625 0-2.832 1.387-4.905 3.082-2.072 1.695-9.17 6.93-15.77 11.633-6.6 4.704-14.004 10.66-16.454 13.235-4.678 4.915-9.755 14.063-8.502 15.316.998.998.779 1.102 4.713-2.266 1.927-1.65 11.915-7.43 22.193-12.845s19.363-10.66 20.19-11.657c.275-.331.464-1.01.593-1.877.424-1.063.377-2.23.192-3.755-.039-2.653-.345-5.649-.819-7.832zm-105.34.197c-.091 0-.19.093-.293.23-.17-.05-.306-.07-.357-.019-.096.096-.212.788-.332 1.7-.412 1.391-.817 3.406-1.1 5.667-.573 4.585-.708 6.473.14 7.928l-.052.957 2.053 1.11c.142.114.258.217.414.34 1.926 1.515 11.03 6.653 20.228 11.42s18.285 10.004 20.19 11.638c5.438 4.665 6.092 2.243 1.445-5.355-5.629-9.204-6.281-9.837-20.996-20.342-6.967-4.974-14.363-10.445-16.436-12.158-2.073-1.714-4.28-3.116-4.904-3.116m154.34.002c-1.51-.004-1.208 2.46.873 7.13 1.03 2.31 2.208 6.553 2.62 9.427.41 2.874 1.26 5.574 1.89 6s1.53 1.824 2.004 3.105c.473 1.282 3.68 4.282 7.127 6.666s7.815 5.668 9.709 7.295c4.537 3.898 5.188 3.8 11.443-1.697l5.334-4.687-3.334-2.59c-1.833-1.425-7.233-3.878-12-5.451-8.25-2.725-16-8.095-16-11.088 0-1.854-8.393-14.107-9.666-14.11m-203.69 10.92c-.568.012-1.336.131-2.31.375-9.133 2.29-16.801 6.705-20.494 11.803-2.112 2.915-3.84 6.023-3.84 6.906s-1.499 3.223-3.332 5.201c-1.5 1.618-2.453 2.742-2.85 3.702l-.773.87.629.573c.288 1.15 1.585 2.304 3.994 4.203 1.336 1.053 2.733 1.965 3.892 2.596.662.465 1.206.802 1.41.81.09.004.185-.02.28-.045.105.029.188.04.271.05.01.002.055.034.06.034.014 0 .03-.015.044-.017l.016.002c2.313.02 6.517-8.917 7.386-15.701.88-6.862 5.578-13.42 12.15-16.96 4.634-2.495 5.93-4.453 3.467-4.402m172.766 49.055c-1.074-.015-2.695 1.238-5.076 3.334-2.936 2.584-3.599 4.185-3.654 9.17a179 179 0 0 0-.5 5.646c-.037.475-.083.903-.123 1.36-.15.546-.317.929-.495 1.039-.495.306-.717-1.663-.609-4.553.36-1.644.447-3.912.246-5.613-.02-2.189-.27-3.687-.701-3.684-1.663.015-4.498 6.598-4.498 10.443 0 5.14-5.09 13.996-9.965 17.336-2.452 1.68-11.562 5.06-20.246 7.508-20.471 5.774-20.467 5.771-21.291 9.871-.387 1.924-1.556 4.665-2.6 6.088-1.877 2.562-1.917 2.562-3.795 0-1.043-1.423-2.213-4.164-2.6-6.088-.82-4.09-.867-4.11-20.874-9.754-16.963-4.785-20.848-6.486-24.27-10.623l-3.45-4.168a3 3 0 0 1-.206-.296l-.092-.153c-.6-1.025-1.352-3.031-1.8-4.885-2.69-11.109-3.696-13.955-4.934-13.955-.745 0-3.272-1.797-5.615-3.994-3.276-3.07-5.223-4.617-6.317-3.812-.176-.078-.327-.134-.426-.139-.258-.012-.456 1.096-.585 2.902-.274 2.155-.242 5.743-.08 10.684.006.242.002.446.011.691.016.45.033.805.049 1.23.016.445.023.77.04 1.235.024.591.054 1.158.081 1.737.396 8.47 1.223 15.484 1.92 15.931.744.478 1.728 2.069 2.185 3.535 1.922 6.157 13.313 14.253 30.194 21.46 16.334 6.972 26.548 9.058 28.668 5.86l1.271.012-1.082-1.082c-.591-2.72-7.954-7.339-18.853-11.664-15.468-6.137-25.57-12.228-28.62-17.254-2.085-3.436-4.097-10.727-4.87-16.797-.105-1.299-.207-2.47-.305-3.5a25 25 0 0 1-.01-2.101l.2-4.268.558 4c1.965 14.087 7.612 23.977 16.363 28.66 1.993 1.067 23.21 7.762 31.133 9.938 1.516.739 2.7 1.486 3.611 2.271.214.808.45 1.85.668 3.016 2.52 13.434 17.343 13.461 19.861.037.386-2.054.8-3.243 1.795-4.097a19 19 0 0 1 1.795-1.014c.762-.303 1.693-.587 2.87-.9 13.801-3.681 23.135-6.865 29.554-10.385.205-.106.455-.222.604-.313.148-.09.3-.201.45-.3 5.65-3.306 8.89-6.94 10.89-11.579l2.011-4.668.043 4c.097 8.969-8.498 16.049-29.957 24.674-12.014 4.83-19.31 9.29-20.07 12.143l-1.184 1.183h1.281c.015.027.024.055.04.08l.021.028-.07.064.111-.01c3.897 5.509 43.288-9.807 53.557-20.883 3.116-3.361 5.666-6.925 5.666-7.918 0-.992.687-2.034 1.527-2.314.9-.3 1.608-5.382 2.049-14.521.632-8.479.602-19.858-.451-19.858-.089 0-.256.064-.457.156a1.1 1.1 0 0 0-.592-.18zm-125.14 10.69c-.25 0-.307.436-.223 1.148-.24.691-.08 1.745.201 3.185 1.142 5.838 2.66 8.963 8.225 11.928.576.329 1.244.649 1.962.965 3.953 1.802 9.531 3.645 17.649 6.105 8.321 2.523 13.113 4.102 15.838 5.49 1.564 1.008 2.46 2.048 3.308 3.397.068.333.104.68.104 1.057 0 1.254.4 2.68.889 3.17.375.375 2.03.694 4.021.824a3.8 3.8 0 0 0 2.135.172q.302-.04.6-.121c3.646-.07 4.293-.668 5.005-3.91.957-4.359 1.622-4.67 25.842-12.057 8.345-2.546 15.041-5.432 16.89-7.281 2.86-2.86 6.194-11.623 5.337-13.678-.006-.061-.013-.123-.034-.145-.009-.009-.041-.01-.058-.015-.025-.037-.04-.092-.07-.121-.818-.817-27.168 5.938-33.528 8.595-2.367.99-6.233 4.533-8.59 7.877-4.198 5.957-4.435 6.08-11.591 6.08-4.571 0-8.146-.924-10.21-2.511a11 11 0 0 1-1.529-1.791 4.05 4.05 0 0 1-.443-1.836c0-1.776-2.202-3.845-6.125-5.963-.14-.095-.287-.202-.422-.281-.222-.132-.633-.313-1.129-.514-3.954-1.934-9.28-3.882-15.656-5.66-9.909-2.765-14.76-4.067-17.004-3.908-.618-.118-1.133-.202-1.395-.202m253.162 36.76c-1.285.083-2.66 1.117-4.764 3.247-16.169 16.37-65.953 47.417-86.479 53.932-1.574.5-2.68 1.824-2.826 3.304-.005.025-.03.056-.03.079 0 .04.01.073.013.11-.002.046-.012.09-.012.136l.002.05-.002.006.004.024a5 5 0 0 0 .027.473c-.008.033-.03.071-.03.101 0 .804.22 1.276 1.1 1.305 1.908.496 6.837-1.344 18.764-6.42 26.416-11.243 49.542-25.333 75.135-45.78 5.751-4.594 6.054-5.832 2.229-9.107-1.188-1.017-2.132-1.526-3.131-1.46m-399.788.22c-.765.049-1.376.529-2.218 1.25-3.812 3.264-3.506 4.506 2.242 9.097 27.287 21.8 52.779 36.964 81.666 48.579 6.415 2.579 9.79 3.798 11.54 3.851.394.127.701.217.794.219.295.007.553-.345.736-.887a2.2 2.2 0 0 0 .213-.748q.231-.205.043-.543c.002-.074.008-.142.008-.22 0-.04-.007-.077-.01-.116.001-.045.01-.083.01-.129 0-1.466-.753-2.668-1.672-2.668-.194 0-.56-.091-1.002-.226-1.213-.741-2.848-1.529-4.994-2.403-9.168-3.732-29.318-14.238-41.523-21.648-10.383-6.303-19.453-13.014-34.383-25.441-7.325-6.097-9.765-8.075-11.45-7.967m287.479 65.92a5 5 0 0 0-.887.129c-1.596.35-8.83 2.215-16.076 4.144-39.455 10.504-100.865 10.504-140.32 0-20.239-5.388-18.686-5.364-20.336-.3-.8 2.453-1.673 5.66-1.942 7.126s-1.18 4.356-2.025 6.42-1.537 4.03-1.537 4.367c0 2.16 24.476 8.238 47.984 11.916 2.83.443 5.756.831 8.727 1.186 3.157.508 6.086.939 8.623 1.254.696.086 2.507.152 4.918.201 1.38.104 2.987.19 4.773.26 1.462.363 5.794.455 11.688.342 15.13.344 30.653-.266 45.152-1.846 4.864-.435 9.14-1.021 13.58-1.809 29.317-4.505 47.4-9.5 46.131-12.806-.382-.997-1.987-6.15-3.566-11.451-2.243-7.53-2.997-9.212-4.887-9.133"/>
</svg>
