<?xml version="1.0" standalone="no"?>
<!DOCTYPE svg PUBLIC "-//W3C//DTD SVG 20010904//EN"
 "http://www.w3.org/TR/2001/REC-SVG-20010904/DTD/svg10.dtd">
<svg version="1.0" xmlns="http://www.w3.org/2000/svg"
 width="256.000000pt" height="256.000000pt" viewBox="0 0 256.000000 256.000000"
 preserveAspectRatio="xMidYMid meet">
<metadata>
Created by potrace 1.16, written by Peter Selinger 2001-2019
</metadata>
<g transform="translate(0.000000,256.000000) scale(0.100000,-0.100000)"
fill="#f2f2f2" stroke="none">
<path d="M1266 2103 c-18 -72 -141 -211 -291 -328 -109 -85 -312 -217 -475
-308 -153 -85 -147 -77 -149 -214 -4 -256 92 -509 264 -701 26 -29 50 -51 52
-48 2 2 -19 33 -47 68 -63 78 -124 198 -140 275 -27 126 6 269 77 334 15 15
184 119 376 233 l347 207 348 -207 c191 -114 360 -218 375 -233 71 -65 104
-208 77 -334 -16 -77 -77 -197 -140 -275 -28 -35 -49 -66 -47 -68 2 -3 26 19
52 48 172 192 268 445 264 701 -2 137 4 129 -149 214 -163 91 -366 223 -475
308 -150 117 -273 256 -291 328 -3 15 -10 27 -14 27 -4 0 -11 -12 -14 -27z"/>
</g>
</svg>
