<svg xmlns="http://www.w3.org/2000/svg" width="391.912" height="533.349">
    <path fill="#f1f1f1" d="M156.135.002c-.205-.04-.1.596.404 2.072.016.046.067.225.086.285.377 2.209 1.36 6.219 2.664 10.696 4.484 15.404 7.56 32.864 8.998 49.677.218 5.257.297 11.116.3 18.137.007 9.544-.135 16.978-.587 23.479-6.46 51.346-28.405 91.922-82.844 153.263-29.762 33.537-39.765 46.17-49.033 61.926-10.395 17.673-14.938 31.425-17.617 53.328-1.86 15.212-.491 31.594 3.49 46.598l.018.074c.02.077.047.164.068.242 3.505 13.073 8.993 25.084 16.06 34.34l2.508 3.285 1.905 2.65a.7.7 0 0 1-.15.15H40.02l-3.402-.468c-3.571-.49-13.272-4.149-21.556-8.132a207 207 0 0 0-8.778-3.98C2.637 445.758 0 444.637 0 445.011q0 .166.072.418c-.044.014-.072.038-.072.074 0 2.083 8.428 13.973 16.605 23.922 2.314 2.815 4.614 5.505 6.69 7.736 20.018 21.52 43.495 36.032 70.654 43.666 7.06 2.102 14.218 3.666 21.385 4.635 1.744.236 3.573.416 5.437.57.097.017.482.078.563.092 1.405.242 3.988.342 7.201.346 1.617.072 3.24.127 4.873.152.17.009.453.03.592.035 1.049.038 2.312.027 3.73-.025 14.565-.153 29.241-2.167 40.936-5.852 16.822-5.3 32.77-16.21 43.535-29.783 2.476-3.122 5.087-7.13 7.606-11.563l.006-.01q1.982-3.27 3.742-6.716c.378-.728.739-1.468 1.1-2.207q0-.004.003-.008a101 101 0 0 0 4.348-10.346c1.548-3.957 2.821-7.77 3.674-11.158 1.606-6.384 2.63-14.738 2.7-19.934a17 17 0 0 0-.03-1.943c-.086-1.793-.35-2.91-.83-2.91-.447 0-4.048 2.956-8.002 6.57a62.5 62.5 0 0 1-8.194 6.314c-3.993 2.32-8.254 4.49-11.935 6.032a56.3 56.3 0 0 1-10.61 2.857c-1.95.106-4.236.142-7.113.149-3.63.008-6.297-.051-8.562-.229-.097-.02-.196-.034-.293-.055-11.133-2.335-18.95-6.623-27.156-14.898-12.544-12.649-18.619-29.425-18.612-51.406.006-21.443 4.642-37.636 20.04-70 12.058-25.347 18.566-42.598 23.89-63.334a300 300 0 0 0 3.998-17.868c.83-4.093 1.578-8.196 2.234-12.332.318-2 .597-4.383.856-6.927 3.617-28.122 3.562-57.308-.076-86.479-.23-2.092-.474-4.06-.748-5.728l-.053-.309a370 370 0 0 0-19.555-77.023c-5.018-13.482-11.457-28.086-15.19-34.965-1.454-2.78-2.5-4.42-2.786-4.133-.008.008-.001.077-.006.098h-.002c-.233-.317-.412-.516-.51-.536zM294.047 31.25c-1.708.595-15.03 24.565-24.19 43.62-12.562 26.134-20.665 48.759-25.175 70.868a237 237 0 0 0-.875 3.854c-.646 2.979-1.188 6.557-1.645 10.467a108 108 0 0 0-.96 9.035 227 227 0 0 0-.839 13.117c-.02.57-.022 1.106-.039 1.67q-.078 2.235-.101 4.445c-.171 10.882.282 20.736 1.68 30.602.352 2.971.768 5.661 1.26 7.941.244 1.139.5 2.26.757 3.381 4.665 21.842 14.247 45.847 31.8 83.287 10.744 22.915 17.352 41.173 22.065 61.129a217 217 0 0 1 3.006 16.803c.524 4.661.866 9.64 1.047 14.676a1186 1186 0 0 1-.008 15.966c-.292 7.69-1.006 14.85-2.15 20.502q-.35 1.63-.744 3.239c-.03.111-.055.241-.084.351-3.39 12.493-8.347 23.732-14.913 33.799-4.145 6.202-8.974 12.07-14.515 17.598a140 140 0 0 1-11.322 10.109c-.399.307-.78.624-1.184.928-9.19 6.917-24.57 15.51-31.469 17.584-4.334 1.302-1.967 2.54 9.918 5.18 5.645 1.254 14.894 1.837 24.867 1.851 1.402.031 2.807.064 4.223.084a132 132 0 0 0 15.842-.74c6.333-.312 10.449-.808 14.699-1.772 2.123-.368 4.056-.768 5.668-1.213 27.226-7.503 52.785-24.19 68.127-44.476 1.56-2.063 3.218-4.562 4.889-7.305a108.7 108.7 0 0 0 11.613-23.035c1.487-3.638 2.695-7.048 3.47-9.926 1-3.712 1.775-8.78 2.29-14.246.768-5.735 1.031-11.476.699-17.435-.077-4.653-.388-8.865-.975-11.979-5.681-30.174-20.244-59.153-67.842-135.006-10.583-16.867-21.804-35.767-24.935-42-12.51-24.907-19.568-53.29-21.111-83.096-.09-3.816-.131-7.858-.123-12.238a693 693 0 0 1 .136-13.336c1.199-22.942 5.543-46.366 13.088-69.4 1.624-4.958 2.896-9.233 3.602-11.951.149-.439.29-.873.441-1.313.203-.59.213-.825.063-.758.086-.457.13-.79.078-.843q-.002-.002-.006 0v-.006c-.002-.003-.01.005-.012.004a.11.11 0 0 0-.111-.016"/>
</svg>
