<svg xmlns="http://www.w3.org/2000/svg" width="499.665" height="400.663">
    <path fill="#e5e5e5" d="M233.451 0v1.688l-.004 5.767-.242 141.805-.254 149.213-7.5 5.814c-18.61 14.426-40.338 27.125-55 32.147-21.328 7.304-66.912 10.433-84.262 5.816-.102-.028-.204-.05-.306-.078-8.814-2.435-28.827-11.995-37.4-17.873-13.254-9.087-26.02-31.737-27.795-48.35a67 67 0 0 1 .128-9.824c1.127-10.301 4.991-19.754 10.405-24.88l3.488-3.304-1.855-3.447c-.87-1.615-1.818-2.969-2.307-3.338l-.15-.248-.26.219c-.732.373-3.155 2.323-5.782 4.672-11.46 10.247-18.019 19.144-21.398 29.654-.026.078-.059.157-.084.235-.019.057-.032.114-.05.171q-.153.487-.296.979c-.098.339-.193.686-.28 1.03C1.393 271.023.79 274.33.421 277.88c-.77 7.43-.49 14.378.896 21.01.316 2.759.919 4.628 2.004 7.257 3.478 10.064 9.736 19.49 19.016 28.89 34.2 34.641 103.772 58.497 189.613 65.017 3.096.235 8.59.373 15.031.455 5.944.206 15.49.188 26.028.011 8.255-.074 16.4-.213 23.928-.402l.625.033-.008-.048c10.298-.265 19.107-.613 23.396-1.043 104.605-10.494 179.553-46.47 196.201-94.178 2.214-6.344 2.554-8.956 2.51-19.334-.078-18.486-4.394-29.574-17.137-42.8a91 91 0 0 0-6.531-6.368c-3.344-3.109-5.94-5.332-6.28-5.332-.007 0-.019.009-.027.01l-.18-.15-.247.406c-.57.518-1.434 1.738-2.196 3.152l-1.84 3.42 3.608 3.607c4.693 4.694 7.437 10.198 9.178 18.41.915 4.318 1.39 8.262 1.386 12.096v.018c-.006.813-.042 1.612-.07 2.416-.417 7.567-2.77 14.916-7.389 24.115-5.575 11.103-13.307 20.807-20.517 25.75-8.596 5.894-28.695 15.491-37.473 17.895-6.823 1.868-10.56 2.187-25.496 2.173-12.023-.01-20.63-.559-27.5-1.75-5.5-.953-12.475-2.124-15.5-2.603-18.884-2.993-48.594-18.59-71.25-37.404l-6.252-5.192-.252-147.644-.246-145.266V.048h-31.01zm50 38.957v126.719c0 69.516.208 126.373.46 126.373.01 0 .14-.073.175-.088.003.008.007.088.01.088 1.332 0 25.06-14.58 40.723-24.658 6.68-4.125 12.03-7.467 12.472-7.871.103-.094.17-.318.217-.618.56-.43.948-.757.951-.853.026-.825-9.283-50.438-20.687-110.25l-20.735-108.75h-11.496zm-73.5.092c-.068 0-.124.004-.191.004-2.347.008-3.825.068-4.758.277-.923.13-1.55.29-1.55.469 0 .012-.176.938-.192 1.033-.048.149-.095.292-.137.467-1.061 4.376-40.56 212.29-40.863 215.096-.06.555-.049 1.036.2 1.574l-.01.062c0 .021.08.09.112.13 1.18 2.1 6.284 5.324 25.889 17.386 13.594 8.364 25.243 15.266 27.324 16.213.02.01.422.255.426.256v-.067c.994.079 1.25-25.814 1.25-126.4v-126.5h-6.89zm-78.07 38.17c-.14-.181-5.666 3.298-12.281 7.73-11.775 7.889-12.02 8.127-11.567 11.328.255 1.799 1.78 16.275 3.389 32.168.916 9.05 1.827 16.937 2.547 22.414.428 3.916.76 6.793.822 6.856l.273.17c.032.1.062.176.086.199.442.407 11.365 7.32 24.276 15.363 12.803 7.976 18.884 11.62 21.736 12.809.783.454 1.336.763 1.402.765.045.002.103-.07.17-.197.54.137.717-.002.717-.316l.031-.153c.007-.017.021-.028.028-.046.335-.969 2.554-10.835 4.931-21.924l4.323-20.162-20.315-33.338C141.276 92.549 132.02 77.4 131.881 77.219m236.601.584q-.077-.011-.1.013c-2.28 2.632-26.404 42.934-36.028 59.825l-.23.394-3.808 6.242.104.494c-.125.268-.21.473-.207.53.117 1.793 8.035 39.186 8.8 41.56.248.767.948.994 1.682.543 4.14-2.538 47.28-29.581 47.387-29.705.341-.39 4.611-44.104 5.89-59.416l.532-5.191-.147-.098c0-.088.013-.307.004-.314-3.288-2.837-22.273-14.63-23.878-14.877zm-330.904 45.34-14.814 16.025c-8.147 8.814-14.964 16.447-15.149 16.96-.007.02.053.162.133.34l-.172.212.38.687a1 1 0 0 0 .124.53c.213.356 4.605 8.353 9.15 16.63 17.883 33.43 55.294 102.185 63.977 117.286l2.451 4.263 5.147-2.945c2.83-1.62 17.521-10.126 32.646-18.899l27.5-15.949 5.608-28.867c3.083-15.877 5.333-29.141 5-29.475s-24.908-15.824-54.608-34.425-57.01-35.746-60.687-38.098zm425.236.492-29.521 18.539c-35.5 21.857-90.45 56.174-92.094 57.756-.092.088-.044.84.07 1.892-.049.19-.07.373-.048.547.02.166.361 1.99.463 2.574 2.072 13.911 9.596 52.335 10.726 53.465.546.546 15.067 9.198 32.268 19.229s31.513 18.276 31.806 18.324c.414.067 75.45-135.806 76.782-139.033.015-.038-.036-.145-.116-.282l.055-.097-.639-.713c-3.517-4.61-20.553-23.028-27.05-29.33z"/>
</svg>
