<svg xmlns="http://www.w3.org/2000/svg" width="542.612" height="650.59">
    <path fill="#dedede" d="M501.793 0c-.346 0-3.754 2.314-7.572 5.143-2.089 1.547-12.11 8.506-25.676 17.857l-.031.021a3 3 0 0 0-.387.266 12890 12890 0 0 1-28.674 19.695c-21.93 14.885-44.266 30.267-58.176 40.147-.73.442-1.377.895-1.843 1.312-1.31.935-2.563 1.832-3.682 2.641-1.659.748-3.917 2.453-5.963 4.41-.225.174-.427.333-.621.487-1.13.85-1.913 1.465-2.223 1.76l-.925.88-3.409 2.848V404h3.838c.126 0 .255-.013.383-.02.098-.005.194-.004.293-.011l.055-.006.199-.022c1.754-.173 3.504-.746 4.187-1.43.41-.409 1.068-.95 1.795-1.494.352-.262.72-.524 1.084-.773.4-.15.786-.244 1.118-.244 1.076 0 2.952-1.173 4.17-2.607.428-.505 4.387-3.302 10.624-7.559 7.426-4.898 16.765-11.073 27.006-17.865 3.833-2.543 8.232-5.44 12.383-8.186.075-.037.15-.074.197-.13 19.177-12.687 40.037-26.437 51.008-33.594l19.026-12.41.302-.19 5-3.01v-.261l.01-.006-.01-4.512V159.05c.346-80.636.493-120.242 0-139.847V2.98l-1.156-.303C503.555.166 502.796 0 501.793 0M37.875 2.666c-.211 0-.4.273-.566.98-.021.09-.039.251-.059.354h-1.305v133.857c0 42.79.062 72.42.217 93.143.013 1.834.032 3.36.047 5.033.04 4.427.083 8.557.135 12.049.02 1.283.042 2.559.064 3.707.054 3.02.107 6.085.172 8.352l.031 12.216v.043l39.153 26.588c.26.198.5.357.738.502l15.38 10.446 7.397 5.025c23.734 16.125 44.376 30.002 55.838 37.582.475.385.934.767 1.34 1.123 1.164 1.022 2.651 1.888 3.697 2.201.925.603 1.948 1.276 2.582 1.68.207.279.684.561 1.336.81.13.076.485.303.54.327 1.466.63 5.217 1.186 8.333 1.232l5.666.084V94.686l-1.976-1.311-.024-.404-3.03-1.621-.005-.002-5.234-3.471-4.922-3.264c-.14-.254-.398-.414-.766-.508h-.002l-6.115-4.054-.002-.002a4.5 4.5 0 0 0-.92-.66 6 6 0 0 0-.527-.3l-.004-.001-.83-.551-.02-.014a177 177 0 0 0-3.707-2.459l-41.312-27.388c-17.907-11.872-34.15-22.506-46.809-30.69a1.4 1.4 0 0 0-.967-.629c-3.613-2.334-7.053-4.55-9.937-6.388l-.006-.004c-1.507-1.084-3.05-2.273-4.258-3.299-1.95-1.658-4.658-3.053-6.63-3.502-1.49-.888-2.563-1.498-2.725-1.498l-.004.002zm184.059 122.668c-.223 0-.42.371-.596 1.332h-1.393v370.668h1.387l.006.041v.002c.13.702.272 1.078.426 1.22q.077.07.16.07l.012-.005.01.004c.32 0 2.654-1.319 6.226-3.463a59 59 0 0 0 4.838-2.836c4.182-2.731 9.253-5.807 11.27-6.834 1.551-.79 2.877-1.777 3.41-2.484a2647 2647 0 0 0 25.256-16.184l2.521-1.636c.264-.043.385-.115.354-.229l20.04-13.008c.506-.035 1.391-.627 2.216-1.437l23.869-15.492v-.042l.34-153.49v-.295l.004-1.892c.264-119.908.29-145.04-1.051-150.047l-.012-.05-.002-.003-.002-.008a4 4 0 0 0-.123-.375c-.015-.04-.03-.089-.045-.125-.033-.079-.068-.14-.103-.203-.027-.048-.053-.103-.08-.143-.024-.034-.049-.058-.073-.086a1 1 0 0 0-.129-.133l-.045-.027a.7.7 0 0 0-.156-.084h-.002l-.025-.008h-.002a1.3 1.3 0 0 0-.385-.053l-.02.004-.033-.004c-.462 0-2.047.743-4.289 1.94-.587.2-1.19.478-1.77.816-1.883.924-4.082 2.216-6.124 3.647-.16.111-.319.215-.479.326-.675.403-1.397.844-2.105 1.273l-.03.018a489 489 0 0 0-7.423 4.572l-.018.01c-.017.011-.028.016-.045.028q-.444.228-.803.507c-.793.5-1.572.987-2.377 1.5a424 424 0 0 1-13.062 8.022c-5.472 3.21-9.526 5.348-10.897 5.709-.434-.11-.888-.305-1.392-.56-1.858-1.186-11.315-7.552-22.803-15.362-5.51-3.746-10.704-7.141-14.916-9.79a107 107 0 0 1-2.037-1.525c-.88-.681-2.038-1.3-3.193-1.748a5 5 0 0 0-.532-.23c-1.945-1.123-3.3-1.818-3.654-1.818-.005 0-.01.006-.016.006-.005 0-.016-.006-.021-.006-.012 0-.023.01-.035.011s-.037-.011-.047-.011M37.15 296q-.217 0-.412.014-.209.013-.39.052l-.022.002c-.095.022-.18.058-.265.094-.019.008-.04.01-.059.02l-.012.004c-.06.03-.112.075-.168.115-.038.027-.08.049-.115.082-.022.02-.04.05-.06.072-.066.07-.13.14-.188.233q-.112.18-.203.427c-.245.66-.385 1.71-.451 3.367v.006c-.099 2.485-.031 6.34.101 12.313v.041l.373 16.842 58.758 38.379.002.002c.841.744 1.595 1.27 1.928 1.27.005 0 .025.008.031.01l9.281 6.062a5060 5060 0 0 0 41.608 26.894c.191.198.41.39.658.565.63.53 1.215.943 1.598 1.08q.15.053.257.054c.05 0 .163.045.266.082h.002c5.043 3.217 10.04 6.404 13.865 8.803l.043.027c3.29 2.157 6.373 4.096 7.826 4.883.096.052.18.085.274.135l.01.006c3.375 2.054 5.502 3.282 5.783 3.295.96.045 1.685-.184 2.233-.908l.006-.006c.334-.313.605-.685.761-1.092.753-1.962.973-8.602.81-15.178v-.008c0-5.274-.112-8.673-.46-11.021-.174-1.174-.408-2.087-.715-2.84-.026-.063-.061-.11-.088-.172l-.002-.004c-.128-.46-.26-.844-.402-1.033-.043-.057-.212-.194-.319-.291-.832-1.405-2.018-2.645-3.002-3.047-.52-.213-2.838-1.638-5.855-3.547-15.264-10.533-48.293-32.256-77.863-51.385-.725-.605-1.433-1.074-1.951-1.261-2.666-1.723-5.48-3.559-8.059-5.22l-.09-.058a3692 3692 0 0 0-20.058-12.828 1.15 1.15 0 0 0-.458-.293c-1.495-.948-2.882-1.824-4.275-2.703a365 365 0 0 0-6.14-3.861C43.168 299.246 37.737 296 37.185 296zm.89 57.334q-.2.001-.376.04c-.048.007-.099.011-.144.022-.021.005-.039.016-.06.022-.92.258-1.397 1.14-1.44 2.275-.956 2.812-1.409 8.194-1.409 16.473 0 3.84-.142 7.073-.345 8.904q-.431.98-.977 1.354c-.95-.325-3.586-1.359-7.02-2.733-1.107-.448-2.427-.996-3.695-1.517-.048-.151-.174-.272-.369-.361l1.074-.618-2.054.424c-1.404-.58-2.437-.988-3.946-1.619-8.776-3.667-16.268-6.666-16.646-6.666-.017 0-.033.028-.049.053-.016-.004-.14-.053-.146-.053-.068 0-.13.403-.186 1.13-.161 2.103-.26 6.95-.246 12.583 0 .217-.005.4-.004.619L.061 398l87.609 55.59c27.386 17.377 50.937 32.071 67.232 42.008 1.015.897 2.091 1.564 2.795 1.699 1.279.776 2.753 1.682 3.922 2.387.107.108.225.204.326.316 1.328 1.467 3.07 2.681 3.873 2.697.616.013 2.029.718 3.48 1.692.052.695.38.957.794.57.173.127.35.243.52.375 1.725 1.35 3.407 2.166 4.886 2.459 1.394.75 2.248 1.15 2.447 1.13.8-.076 1.362-.24 1.768-1.247v-.004l.006-.018h.002c.385-.16.496-.532.299-1.096.05-.236.097-.488.14-.777l.002-.002a5 5 0 0 0 .29-.78c.04-.148.076-.492.109-.974.088-.272.179-.544.277-.8.519-1.352.496-1.833-.183-1.6a244 244 0 0 0 .066-3.383c.473-2.873.536-8.246.277-18.582v-.01c.187-14.978.026-28.377-.37-29.996-.044-.177-.258-.459-.554-.79-.008-.134-.015-.379-.023-.505 0-.015-.02-.043-.025-.06l-.041-1.274c-.037-.293-4.481-3.316-9.887-6.857a7 7 0 0 0-1.828-1.192c-1.01-.657-1.99-1.295-3.02-1.959-3.964-2.71-7.913-5.3-10.761-7l-.493-.336c-.072-.083-.162-.175-.22-.25l-.002-.004a2.2 2.2 0 0 1-.274-.427c-.171-.386-.9-.715-1.797-.881-.855-.586-1.824-1.243-2.722-1.856-.564-.661-1.921-1.58-3.541-2.414a3150 3150 0 0 0-7.16-4.847c-.689-.703-1.546-1.289-2.278-1.536-2.124-1.432-4.162-2.809-6.46-4.353a9 9 0 0 0-1.014-.682c-2.092-1.404-4.483-3-6.72-4.498l-.001-.002c-.675-.568-1.313-1.01-1.762-1.178l-.004-.002-2.623-1.753c-.931-.623-1.805-1.21-2.76-1.848-.858-.708-1.62-1.22-2.224-1.488l-.004-.002h-.002l-.01-.006c-.88-.587-1.593-1.069-2.493-1.668-2.78-1.854-5.186-3.436-7.892-5.235l-.004-.004c-1.342-.958-2.682-1.864-3.867-2.564-2.73-1.812-5.47-3.63-8.092-5.365l-.012-.008c-.849-.75-1.661-1.305-2.162-1.436h-.002c-1.103-.729-2.365-1.573-3.445-2.285l-.332-.22c-.367-.243-.808-.538-1.172-.778-.187-.153-.365-.32-.557-.461a12 12 0 0 0-2.013-1.227c-1.295-.852-2.279-1.49-3.532-2.314h-.002c-.7-.753-2.18-1.781-3.896-2.653-.292-.148-.703-.395-1.057-.593-2.848-1.867-5.892-3.87-8.451-5.537l-.01-.008c-.266-.196-.564-.4-.816-.59-1.739-1.313-3.478-2.487-4.885-3.334a1.6 1.6 0 0 1-.227-.326c-.197-.466-1.088-.85-2.128-.987-.951-.614-1.98-1.28-2.862-1.847-1.748-1.828-7.17-5.438-10.955-7.448l-.002-.002a8 8 0 0 0-.326-.248 6 6 0 0 0-.314-.222l-.01-.006c-.818-.55-1.793-.927-2.768-.95h-.002l-.012-.006-.023.004-.057-.004h-.002zm464.255 1.959c-.346.043-1.031.327-1.951.777a1.7 1.7 0 0 0-.494-.07c-.453 0-.949.166-1.446.432l-.002-.002c-.188-.032-.565.23-1.129.746-.792.425-1.493.937-1.994 1.49-.189.209-.401.394-.605.59-.918.543-1.665.966-2.754 1.63-.214.13-.524.329-.744.464-.762.067-2.084.914-3.254 2.025l-.002.002a753 753 0 0 0-6.293 3.963q-.107.066-.215.137c-11.482 7.315-27.698 17.948-49.715 32.603-26.362 17.547-49.477 33.157-61.426 41.432-.833.315-1.877 1.032-2.765 1.914a223 223 0 0 0-4.567 3.254c-.139.016-.266.108-.384.289l-.002.002c-.495.374-.865.664-.942.761-1.839 2.33-2.49 58.998-.699 60.79.531.53 2.02.69 3.309.353.274-.072 2.66-1.487 6.2-3.64.318.08.603-.115.94-.567v-.002c2.833-1.729 7.545-4.663 11.84-7.328l.053-.031c.265-.148.51-.296.765-.446.796-.275 1.13-.45.975-.566.38-.239.673-.459 1.002-.688l.014-.01c2.293-1.426 3.792-2.344 6.39-3.966l.004-.002h.002a8 8 0 0 0 .96-.604c1.77-1.106 4.142-2.6 6.038-3.787l.676-.424.629-.394c.502-.056.638-.123.379-.239l.691-.433h.002c.876-.343 1.58-.784 1.926-1.21a11820 11820 0 0 0 50.88-32.073l47.507-30.116c.111-.03.158-.065.162-.103l40.353-25.58v-.455h.002v-23.807l-.666.104v-1.174l-.302.029c-.047-.144-.093-.307-.141-.383-.814-1.282-4.398-.291-14.98 4.14-21.018 8.803-19.91 8.664-19.91 2.499 0-6.8-.493-12.558-1.333-16.535V356h-1.87c-.286-.36-.586-.6-.9-.7a.5.5 0 0 0-.214-.007M319.818 473.545c-.212.016-.413.143-.632.39-.035.04-.078.113-.114.159a9 9 0 0 0-1.834.914c-1.809.977-4.182 2.541-7.232 4.732-.762.457-1.668 1.072-2.707 1.832-9.229 5.98-22.59 15.007-38.688 26.194l-.304.21-.034.024-23.988 16.465c-.118.023-.207.065-.226.156L218.739 542l-.063 38.307-.065 38.308.668.492v.221l3.567 2.524.002.002q.298.281.638.453l6.407 4.533a2340 2340 0 0 0 17.386 12.379c8.8 6.204 16.93 11.317 18.067 11.363 1.03.042 1.863-.106 2.54-.54.04-.026.084-.042.122-.07l.002-.001a3 3 0 0 0 .492-.44q.228-.251.426-.574l.002-.004.004-.008c.037-.061.068-.14.103-.205l.909-.074.164-3.8v-.001c.058-.424.113-.87.16-1.354v-.006q.076-.785.133-1.68v-.011c.076-1.196.128-2.547.162-4.063v-.023c.003-.146 0-.34.004-.489.022-1.168.032-2.459.035-3.828l.002-.037.006-.129.668-15.422 2.242-1.965 17.44-11.925c.516-.074.78-.246.851-.582l4.887-3.342a749 749 0 0 0 13.633-9.545c5.653-3.458 9.271-6.121 11.437-8.549 1.268-1.03 2.102-1.775 2.26-2.07l.002-.008c.003-.006.007-.025.01-.031.005-.01.021-.026.025-.034.127-.236.238-1.254.342-2.609.036-.15.079-.3.108-.451.243-1.296.355-6.338.375-13.383.057-3.035.114-6.098.148-9.65 0-.064 0-.112.002-.176.05-4.775.078-9.918.084-15.18v-.328c.01-10-.062-20.344-.209-29.467-.006-.4-.007-.863-.014-1.258-.04-2.37-.087-4.643-.138-6.793v-.011c-.052-2.15-.11-4.174-.172-6.041v-.008a346 346 0 0 0-.205-5.102v-.006a148 148 0 0 0-.24-3.976c-.467-6.09-.78-8.93-1.473-10.245l-.043-.09c-.046-.265-.092-.45-.137-.523a1.57 1.57 0 0 0-.965-.722 1.7 1.7 0 0 0-.404-.137c-.052-.01-.161.02-.297.068q-.204.012-.432.053c-.21-.133-.4-.207-.578-.193z"/>
</svg>
