<svg xmlns="http://www.w3.org/2000/svg" xml:space="preserve" width="167" height="152">
    <path stroke-linecap="round" d="M78 3c3.33 3.76 6 10.77 13.11 17.89C109.63 39.41 134.45 52.15 157 65c-1.67 13.97 1.85 18.23-2.98 34.09-1.88 6.18-4.22 12.24-7.33 17.91-2 3.64-5.06 6.86-5.69 11l-6 5c1.87-5.65 5.09-8.77 7.61-14 4.01-8.34 5.5-16.91 3.35-26-2.63-11.06-9.04-14.14-17.96-19.28l-12-7.17L90 51c-2.39-1.44-8.87-5.85-11.42-5.72-2.08.11-6.66 3.17-8.58 4.32L52 60.28 30 73.4c-3.84 2.31-10.07 5.78-12.9 9.12-6.97 8.21-7.71 20.19-4.53 30.14 2.1 6.58 6.09 12.36 9.43 18.34-6.34-3.65-12.84-17.09-15.48-24C2.75 97.1.58 87.64.45 77c-.04-3.29.08-8.73 1.86-11.62 1.34-2.17 4.51-3.56 6.69-4.8l16-9.26c13.96-8.7 28.07-17.46 39.73-29.19C71.02 15.8 75.45 11.93 78 3Zm0 60h2c6.87 13.34 22.41 23.04 35 30.64 2.97 1.8 13.42 7.21 14.66 9.7.74 1.5.5 3.07.56 4.66v9c-.79 8.15-5.24 20.41-11.22 26 1.55-3.65 3.48-7.54 4.25-11.42 3.7-18.45-13.23-24.01-26.25-31.78-3.88-2.32-15-10.12-19-9.59-2.75.36-10.3 5.42-13 7.11-9.88 6.15-27.65 12.69-30.82 24.68-2.44 9.27 3.47 14.49 2.82 20-4.02-6.72-8.02-15.2-9.29-23L27 102c15.71-6.77 43.47-23.66 51-39Z" style="stroke:#fff;stroke-width:1;stroke-dasharray:none;stroke-linecap:butt;stroke-dashoffset:0;stroke-linejoin:miter;stroke-miterlimit:4;fill:#fff;fill-rule:nonzero;opacity:1" transform="matrix(1.06 0 0 1.08 .057 -2.7)"/>
</svg>
