<?xml version="1.0" encoding="UTF-8" standalone="no" ?>
<!DOCTYPE svg PUBLIC "-//W3C//DTD SVG 1.1//EN" "http://www.w3.org/Graphics/SVG/1.1/DTD/svg11.dtd">
<svg xmlns="http://www.w3.org/2000/svg" xmlns:xlink="http://www.w3.org/1999/xlink" version="1.1" width="167" height="152" viewBox="0 0 167 152" xml:space="preserve">
<desc>Created with Fabric.js 3.6.3</desc>
<defs>
</defs>
<g transform="matrix(1.06 0 0 1.08 83.5 76.14)"  >
<path style="stroke: rgb(255,255,255); stroke-width: 1; stroke-dasharray: none; stroke-linecap: butt; stroke-dashoffset: 0; stroke-linejoin: miter; stroke-miterlimit: 4; fill: rgb(255,255,255); fill-rule: nonzero; opacity: 1;"  transform=" translate(-78.72, -73)" d="M 78 3 C 81.33 6.76 84 13.77 91.11 20.89 C 109.63 39.41 134.45 52.15 157 65 C 155.33 78.97 158.85 83.23 154.02 99.09 C 152.14 105.27 149.8 111.33 146.69 117 C 144.69 120.64 141.63 123.86 141 128 C 141 128 135 133 135 133 C 136.87 127.35 140.09 124.23 142.61 119 C 146.62 110.66 148.11 102.09 145.96 93 C 143.33 81.94 136.92 78.86 128 73.72 C 128 73.72 116 66.55 116 66.55 C 116 66.55 90 51 90 51 C 87.61 49.56 81.13 45.15 78.58 45.28 C 76.5 45.39 71.92 48.45 70 49.6 C 70 49.6 52 60.28 52 60.28 C 52 60.28 30 73.4 30 73.4 C 26.16 75.71 19.93 79.18 17.1 82.52 C 10.13 90.73 9.39 102.71 12.57 112.66 C 14.67 119.24 18.66 125.02 22 131 C 15.66 127.35 9.16 113.91 6.52 107 C 2.75 97.1 0.58 87.64 0.45 77 C 0.41 73.71 0.53 68.27 2.31 65.38 C 3.65 63.21 6.82 61.82 9 60.58 C 9 60.58 25 51.32 25 51.32 C 38.96 42.62 53.07 33.86 64.73 22.13 C 71.02 15.8 75.45 11.93 78 3 Z M 78 63 C 78 63 80 63 80 63 C 86.87 76.34 102.41 86.04 115 93.64 C 117.97 95.44 128.42 100.85 129.66 103.34 C 130.4 104.84 130.16 106.41 130.22 108 C 130.22 108 130.22 117 130.22 117 C 129.43 125.15 124.98 137.41 119 143 C 120.55 139.35 122.48 135.46 123.25 131.58 C 126.95 113.13 110.02 107.57 97 99.8 C 93.12 97.48 82 89.68 78 90.21 C 75.25 90.57 67.7 95.63 65 97.32 C 55.12 103.47 37.35 110.01 34.18 122 C 31.74 131.27 37.65 136.49 37 142 C 32.98 135.28 28.98 126.8 27.71 119 C 27.71 119 27 102 27 102 C 42.71 95.23 70.47 78.34 78 63 Z" stroke-linecap="round" />
</g>
</svg>