<?xml version="1.0" standalone="no"?>
<!DOCTYPE svg PUBLIC "-//W3C//DTD SVG 20010904//EN"
 "http://www.w3.org/TR/2001/REC-SVG-20010904/DTD/svg10.dtd">
<svg version="1.0" xmlns="http://www.w3.org/2000/svg"
 width="512.000000pt" height="512.000000pt" viewBox="0 0 512.000000 512.000000"
 preserveAspectRatio="xMidYMid meet">
<metadata>
Created by potrace 1.16, written by Peter Selinger 2001-2019
</metadata>
<g transform="translate(0.000000,512.000000) scale(0.100000,-0.100000)"
fill="#e5e5e5" stroke="none">
<path d="M2524 4898 c24 -139 28 -202 17 -286 -13 -105 -38 -182 -87 -269 -43
-78 -38 -88 49 -95 79 -7 120 -27 336 -172 190 -127 283 -176 347 -184 l41 -4
6 -81 c9 -107 39 -168 127 -255 37 -37 77 -83 89 -102 44 -72 15 -182 -59
-222 -54 -30 -163 -22 -219 15 -51 34 -91 110 -91 174 0 23 -5 45 -11 48 -6 4
-40 -7 -75 -25 -118 -58 -307 -268 -392 -435 -28 -56 -37 -86 -42 -153 -6 -67
-11 -87 -30 -107 -43 -46 -132 -27 -187 40 -43 52 -57 109 -51 208 9 139 61
251 145 310 42 30 105 39 126 18 44 -44 91 44 107 201 l8 83 57 51 c39 35 56
57 53 70 -2 13 -60 48 -190 114 -245 125 -458 249 -570 333 -87 65 -118 76
-118 42 0 -32 -31 -75 -78 -107 -26 -18 -139 -107 -252 -198 -228 -183 -341
-264 -398 -280 -40 -12 -132 5 -441 85 -74 19 -144 35 -155 35 -31 0 -96 -20
-96 -29 0 -4 19 -14 43 -21 182 -57 347 -183 426 -322 46 -82 59 -90 85 -53
70 98 104 122 305 221 211 103 348 187 381 234 l20 29 78 -37 c66 -32 86 -37
142 -36 36 1 102 11 147 23 140 36 201 24 257 -52 34 -45 29 -132 -9 -187 -16
-23 -47 -55 -69 -69 -33 -22 -51 -26 -110 -26 -50 0 -83 6 -109 19 -51 25 -61
13 -61 -72 3 -226 167 -597 293 -662 81 -41 102 -103 54 -161 -58 -68 -160
-79 -263 -27 -69 34 -176 133 -205 188 -20 39 -46 135 -40 153 2 7 6 24 9 39
4 17 18 34 36 43 17 9 30 24 30 34 0 32 -58 99 -135 156 -78 58 -79 60 -102
170 -13 62 -33 58 -184 -43 -263 -174 -565 -342 -668 -373 -54 -16 -61 -33
-29 -67 36 -39 48 -65 48 -109 0 -21 16 -139 35 -263 53 -335 55 -354 56 -456
1 -77 -3 -100 -19 -125 -10 -17 -102 -117 -205 -224 -152 -158 -188 -201 -197
-235 -6 -23 -10 -46 -8 -52 2 -6 25 8 51 30 147 128 294 190 471 201 117 7
113 0 71 121 l-27 75 16 250 c17 255 13 367 -15 429 -7 14 -10 27 -8 29 2 2
27 17 54 35 95 59 131 117 175 281 33 120 84 171 175 171 126 0 215 -171 154
-297 -20 -40 -44 -66 -99 -105 l-25 -18 38 -34 c68 -61 249 -116 450 -136 140
-14 234 -2 316 41 69 36 108 34 142 -9 32 -41 24 -144 -15 -200 -36 -52 -105
-97 -198 -129 -61 -21 -87 -24 -158 -21 -121 6 -190 47 -190 114 0 49 -20 59
-92 46 -33 -6 -90 -25 -125 -42 -77 -36 -103 -37 -178 -8 -51 19 -58 20 -72 6
-13 -14 -14 -35 -4 -180 20 -293 13 -662 -15 -796 l-7 -33 60 6 c56 7 67 4
149 -33 49 -21 175 -72 279 -111 217 -82 400 -168 432 -203 22 -24 71 -171
142 -428 35 -125 45 -149 76 -179 19 -19 37 -32 41 -28 4 3 1 35 -7 69 -19 84
-16 256 4 338 9 36 37 105 62 154 32 63 42 92 35 101 -6 7 -38 15 -73 17 -80
7 -127 31 -338 173 -185 125 -281 175 -345 183 l-41 4 -6 80 c-7 103 -39 169
-123 253 -91 91 -114 128 -114 184 0 58 33 117 80 143 53 29 165 21 221 -16
48 -32 87 -107 91 -174 1 -24 6 -46 11 -49 4 -3 38 9 74 27 117 58 307 269
391 435 28 56 37 86 42 153 6 67 11 87 30 107 53 56 165 14 214 -80 42 -81 30
-259 -25 -368 -29 -57 -101 -124 -145 -136 -30 -8 -44 -7 -71 5 -18 9 -39 14
-47 11 -23 -9 -56 -113 -65 -206 l-9 -86 -57 -51 c-39 -35 -56 -57 -53 -70 2
-13 60 -48 190 -114 246 -126 458 -249 570 -333 87 -65 118 -76 118 -42 0 34
32 75 95 120 36 26 130 99 208 163 316 258 414 320 484 308 21 -4 147 -34 280
-67 134 -32 251 -59 260 -59 30 0 93 20 93 30 0 4 -30 18 -67 30 -84 27 -133
52 -208 105 -78 55 -155 137 -194 207 -46 82 -59 90 -85 53 -70 -97 -103 -121
-304 -220 -213 -105 -349 -189 -382 -235 l-20 -29 -78 37 c-66 32 -86 37 -142
36 -36 -1 -102 -11 -147 -23 -140 -36 -201 -24 -257 52 -34 45 -29 132 9 187
16 23 47 55 69 69 33 22 51 26 110 26 49 0 83 -6 108 -18 45 -23 54 -18 61 30
16 93 -36 301 -117 468 -61 128 -120 207 -175 235 -85 43 -105 113 -48 167 41
40 75 53 141 53 152 0 355 -196 358 -347 1 -66 -8 -91 -43 -108 -16 -9 -29
-24 -29 -34 0 -32 58 -99 135 -156 78 -58 79 -60 102 -170 13 -62 33 -58 184
43 262 173 564 342 668 373 24 7 45 19 48 26 3 7 -8 28 -25 47 -32 36 -37 53
-47 151 -5 48 -56 392 -80 541 -3 17 -6 74 -6 127 -1 80 2 102 19 128 10 17
102 116 202 221 175 181 208 226 210 281 0 24 -13 21 -41 -9 -33 -36 -133
-106 -195 -137 -94 -47 -175 -69 -284 -75 -122 -8 -118 -1 -75 -122 l27 -75
-17 -252 c-16 -253 -12 -372 15 -423 15 -29 13 -33 -30 -58 -103 -58 -142
-117 -186 -277 -30 -106 -58 -149 -111 -171 -94 -40 -191 9 -228 115 -38 110
-5 195 105 273 l25 18 -39 35 c-67 60 -250 115 -446 134 -147 15 -236 3 -320
-40 -50 -27 -65 -30 -91 -23 -48 14 -70 51 -70 116 0 31 6 69 15 85 56 109
233 191 390 181 108 -7 176 -51 176 -114 0 -49 20 -59 92 -46 33 6 90 25 125
42 77 36 103 37 178 8 51 -19 57 -20 72 -5 14 14 15 33 4 179 -6 90 -11 267
-11 393 1 209 6 287 26 398 l7 38 -60 -6 c-55 -7 -66 -4 -164 38 -57 25 -183
76 -279 112 -203 76 -386 163 -417 197 -21 23 -69 165 -143 428 -33 119 -46
150 -72 177 -40 42 -52 42 -44 1z"/>
</g>
</svg>
