<svg xmlns="http://www.w3.org/2000/svg" width="147" height="256" viewBox="0 0 782 1366">
    <path d="M390.6.9c.3.27.9.81 1.2 1.09 72.13 89.71 144.27 179.43 216.4 269.15-57.64 71.73-115.39 143.39-172.96 215.19 3.41 5.13 7.82 9.83 11.6 14.8 14.78 18.38 29.56 36.77 44.34 55.14 38.53-47.94 77.07-95.87 115.72-143.72 58.15 72.33 116.31 144.65 174.46 216.99-38.54 47.94-76.98 95.97-115.58 143.87 30.24 37.69 60.56 75.32 90.82 112.99 2.29 3.15 5.34 6.04 7.14 9.34-124.21 156.4-248.6 312.67-372.92 468.98-124.37-156.39-248.75-312.77-373.12-469.16 32.73-40.72 65.5-81.41 98.19-122.16C77.27 725.52 38.86 677.47.31 629.54 58.44 557.2 116.62 484.9 174.75 412.55c38.67 47.83 77.2 95.77 115.72 143.72 18.74-23.23 37.4-46.53 56.13-69.77-57.68-71.81-115.41-143.58-173.14-215.35 49.11-61.09 98.23-122.18 147.34-183.26C344.04 58.87 367.5 30.02 390.6.9m.1 110.05c-42.59 53.25-85.43 106.3-128.12 159.47 42.8 53.44 85.61 106.87 128.42 160.3 42.75-53.37 85.53-106.72 128.25-160.11-42.9-53.17-85.49-106.62-128.55-159.66M88.81 629.5c23.66 29.72 47.59 59.23 71.35 88.87 28.73-35.72 57.45-71.44 86.16-107.17-23.78-29.59-47.56-59.18-71.36-88.76-28.74 35.67-57.36 71.43-86.15 107.06m517.88-107.06c-23.77 29.6-47.58 59.16-71.35 88.76 28.71 35.72 57.45 71.43 86.15 107.17 23.82-29.56 47.56-59.18 71.38-88.74-28.7-35.76-57.43-71.48-86.18-107.19M136.52 897.17c84.75 106.59 169.57 213.12 254.3 319.73 84.77-106.59 169.57-213.15 254.33-319.75-84.78-106.57-169.56-213.14-254.33-319.72-84.72 106.61-169.55 213.15-254.3 319.74"/>
    <path d="M217.5 897.2c57.77-72.65 115.59-145.25 173.32-217.92 57.77 72.59 115.46 145.25 173.3 217.79-57.64 72.75-115.55 145.29-173.29 217.97-57.78-72.62-115.49-145.28-173.33-217.84"/>
</svg>
