<svg xmlns="http://www.w3.org/2000/svg" width="256" height="256">
    <path d="M114.57 16.78c24.55-2.97 50.06 2.36 71.2 15.23 22.52 13.49 40 35.15 48.36 60.03 8.85 26.09 7.7 55.47-3.41 80.7-10.98 25.43-31.81 46.42-57.14 57.61-22.59 10.16-48.6 12.34-72.61 6.38-23.82-5.82-45.49-19.84-60.7-39.05-16.53-20.63-25.26-47.29-24.21-73.7.85-27.77 12.61-55.02 32.24-74.68 17.56-17.94 41.34-29.62 66.27-32.52M73.52 49.44c-20.33 14.03-34.9 36.19-39.43 60.5-4.07 21.09-.82 43.51 9.22 62.51 27.09-46.77 54.48-93.37 81.63-140.11-18.3.74-36.42 6.53-51.42 17.1m57.49-17.07c27.45 46.3 54.87 92.63 82.28 138.96 9.09-17.87 12.31-38.62 9.14-58.41-3.16-20.48-13.37-39.74-28.37-54.01-16.8-16.24-39.71-25.8-63.05-26.54m-10.87 54.82c-15.62 2.87-28.86 15.44-32.5 30.91-3.16 12.44-.01 26.21 8.13 36.11 7.72 9.58 19.88 15.42 32.2 15.34 10.89.08 21.7-4.45 29.38-12.16 7.98-7.91 12.54-19.18 12.19-30.43-.22-11.97-6.01-23.67-15.33-31.18-9.36-7.7-22.17-10.95-34.07-8.59m-73.79 90.6c11.22 18.32 28.69 32.77 48.92 40.07 20.65 7.57 43.94 7.67 64.65.29 20.57-7.2 38.36-21.8 49.73-40.36-54.43.01-108.87.01-163.3 0"/>
</svg>
