<svg xmlns="http://www.w3.org/2000/svg" width="256" height="256" viewBox="0 0 64 64">
    <path d="M28.88 3.14c.24-3.09 5.97-3.1 6.24-.02.32 3.67.06 7.37.13 11.06 8.56 1.5 16.2 8.19 17.89 16.86 1.37 4.98.37 10.43-2.05 14.94-.43 1.18-2.3 2.39-.91 3.6 2.77 3.04 5.89 5.74 8.7 8.74 1.89 2.64-1.03 5.99-3.93 4.64-3.5-3.06-6.59-6.57-9.95-9.78-7.46 5.63-18.54 5.62-26 0-2.98 2.95-5.92 5.95-8.89 8.9-1.2 1.51-4.23 1.58-5.11-.3-.91-1.22-.34-3.1.67-4.06 2.9-3.04 6.2-5.71 8.79-9.03-3.37-5.11-5.29-11.56-3.6-17.61 1.67-8.69 9.31-15.4 17.89-16.9.07-3.68-.18-7.37.13-11.04m-1.2 14.57c-7.61 1.67-13.63 8.62-14.19 16.4 4.06-.04 8.12-.03 12.17-.03 1.39-2.26 3.37-4.74 6.36-4.37 2.98-.36 4.93 2.12 6.32 4.37 4.05 0 8.11-.01 12.17.03-.59-10.86-12.35-19.46-22.83-16.4M13.52 37.19c.27 2.68.86 5.34 2.24 7.68.62.98 1.33 2.74 2.8 2.09 2.63-2.81 5.78-5.23 7.95-8.42-.18-.33-.55-.98-.74-1.31-4.08-.12-8.17.03-12.25-.04m24.57-.05c-.09.45-.26 1.36-.34 1.81 2.21 2.96 5.15 5.33 7.69 8.01.31.02.92.04 1.23.05 2.48-2.64 3.47-6.3 3.81-9.82-4.13 0-8.26.06-12.39-.05M20.14 49.93c6.4 5.86 17.31 5.83 23.72.02-2.72-3.1-5.73-5.93-8.7-8.79a6.42 6.42 0 0 1-6.31 0c-2.98 2.85-5.97 5.69-8.71 8.77"/>
</svg>
