<svg xmlns="http://www.w3.org/2000/svg" width="256" height="256">
    <path d="M66.83 8.07c44.35-.1 88.72-.15 133.07.03.23 71.62.04 143.27.1 214.9-.09 5.63.18 11.27-.1 16.9-44.34.16-88.71.16-133.05 0 .78-1.2 1.64-2.35 2.55-3.45 26.69-31.32 53.31-62.71 79.97-94.06 3.28-4.02 6.93-7.75 9.98-11.95.96-1-.37-2.06-.85-2.89-29.97-38.74-59.74-77.63-89.67-116.4-.73-.99-1.39-2.02-2-3.08"/>
    <path d="M56.25 86.36c20.14.04 40.29 0 60.43.02.3 8.07.28 16.19.02 24.27-7.27.26-14.57-.35-21.82.23-.36 9.39-.36 18.84-.01 28.24 7.26.58 14.56-.03 21.83.23.26 7.42.27 14.88 0 22.3-20.16.04-40.32.01-60.47.02-.54-20.54-.07-41.12-.23-61.67.08-4.55-.27-9.12.25-13.64"/>
</svg>
