<svg xmlns="http://www.w3.org/2000/svg" width="256" height="256" viewBox="0 0 128 128">
    <path d="M64.62 9.38c7.99 15.43 19.42 28.57 29.85 42.33-4.21 2.73-8.44 5.45-12.69 8.14 1.33-1.91 2.67-3.81 4.01-5.72-6.51-6.37-12.87-12.92-19.82-18.82.08 11.07 2.98 22.08 8.71 31.57-7.06-1.54-14.41-1.54-21.51-.27 5.44-9.49 10.06-19.69 8.94-30.99-7.34 5.89-14.3 12.25-21.07 18.78 2.02 2.26 4.03 4.53 5.98 6.86-4.93-3.17-9.79-6.43-14.4-10.04 11.8-13.01 23.58-26.31 32-41.84m21.14 59.28c4.6-2.03 9.26-3.9 13.94-5.74 6.7 16.09 13.21 32.42 23.11 46.9-17.65-1.53-35.28.47-52.82 2.27.03-4.79.04-9.57.13-14.35.39 1.48 1.17 4.46 1.56 5.95 8.89-1.92 17.78-3.87 26.6-6.08-9.62-5.92-20.87-8.33-32.04-8.78 4.38-5.3 8.98-10.77 10.72-17.59 5.85 9.31 12.92 18.58 23.16 23.3-2.04-8.83-4.71-17.5-7.12-26.23-2.41.12-4.83.24-7.24.35m-58.29-4.88c5 1.75 9.93 3.74 14.82 5.81-2.67-.16-5.3-.3-7.96-.47-2.14 8.69-4.61 17.29-6.47 26.05 9.83-5.51 17.2-14.14 22.53-23.95 1.5 7.01 5.98 12.94 11.38 17.49-11.27.32-22.24 3.64-32.18 8.86 8.71 2.56 17.62 4.39 26.49 6.32.56-2.06 1.13-4.11 1.7-6.17.09 4.83.19 9.66.25 14.5-17.59-1.23-35.2-3.21-52.85-1.48 9.68-14.49 15.94-30.84 22.29-46.96m26.61 6.15c6.23-.37 12.49-.53 18.73-.11-.41 6.54-3.95 12.18-8.9 16.24-4.55-4.46-8.53-9.76-9.83-16.13"/>
</svg>
