<svg xmlns="http://www.w3.org/2000/svg" width="998.667" height="998.667" version="1.0" viewBox="0 0 749 749">
    <path fill="#e5e5e5" d="M33.6 148.7c11 32.1 25.6 74.7 44.9 130.8 6.2 18.1 16.5 48.2 22.9 66.8 14.8 42.9 31.5 91.6 46 134 6.3 18.2 16.6 48.3 22.9 66.7 27.4 79.8 34.6 100.7 35.7 103.7l1.2 3.3h77c72.8 0 76.9-.1 76.4-1.8-.4-1.2-81.8-341.8-127.1-532l-.5-2.2H23.1zm259.4-5.5.1 25.3L315.9 273l22.7 104.5h72.8L434.2 273l22.7-104.5.1-25.3V118H293zm118.8 21c-.3.7-8.5 38.5-18.4 84-9.8 45.6-18.1 82.8-18.4 82.8s-8.6-37.2-18.4-82.8c-9.9-45.5-18.1-83.3-18.4-84-.3-.9 7.5-1.2 36.8-1.2s37.1.3 36.8 1.2m110.7-44c-45.3 190.2-126.7 530.8-127.1 532-.5 1.7 3.6 1.8 76.4 1.8h77l1.2-3.3c1.3-3.5 8.6-24.8 58.4-169.9 6.4-18.6 16.7-48.8 23-67 6.3-18.3 16.6-48.4 22.9-66.8 6.4-18.4 16.7-48.6 23-67 21.1-61.3 34.4-100.2 45.1-131.3l10.5-30.7H523z"/>
</svg>
