<?xml version="1.0" standalone="no"?>
<!DOCTYPE svg PUBLIC "-//W3C//DTD SVG 20010904//EN"
 "http://www.w3.org/TR/2001/REC-SVG-20010904/DTD/svg10.dtd">
<svg version="1.0" xmlns="http://www.w3.org/2000/svg"
 width="512.000000pt" height="512.000000pt" viewBox="0 0 512.000000 512.000000"
 preserveAspectRatio="xMidYMid meet">

<g transform="translate(0.000000,512.000000) scale(0.100000,-0.100000)"
fill="#000000" stroke="none">
<path d="M2423 4778 c-68 -71 -67 -65 -68 -359 -2 -300 4 -276 -86 -375 -27
-30 -50 -64 -51 -77 -1 -12 -2 -38 -4 -57 -1 -19 -2 -198 -3 -397 l-1 -362
-655 -715 c-697 -761 -681 -746 -761 -733 -27 5 -36 2 -44 -14 -9 -17 -2 -28
47 -81 63 -66 102 -88 157 -88 74 0 108 25 253 183 76 84 388 424 692 756 304
332 561 620 570 640 14 32 16 121 16 875 0 568 -3 840 -10 843 -6 2 -29 -16
-52 -39z"/>
<path d="M2644 4807 c-2 -7 -3 -386 -2 -842 3 -738 5 -834 19 -865 9 -20 168
-202 354 -405 1040 -1136 1046 -1143 1086 -1159 87 -35 148 -16 232 72 49 52
56 65 48 81 -9 16 -18 18 -51 14 -22 -3 -53 0 -71 7 -20 9 -257 260 -685 727
l-654 714 -1 362 c-1 199 -2 378 -3 397 -2 19 -3 45 -4 57 -1 13 -24 47 -51
77 -90 99 -85 77 -87 365 -1 141 -2 266 -3 278 -1 22 -95 133 -112 133 -5 0
-12 -6 -15 -13z"/>
<path d="M2459 2552 c-41 -42 -384 -416 -762 -829 -608 -664 -695 -755 -742
-779 -57 -27 -60 -27 -230 -12 -27 3 -30 0 -30 -25 0 -23 45 -78 240 -291 132
-145 255 -273 273 -286 45 -32 126 -38 177 -14 26 12 191 185 549 576 l511
558 2 97 2 97 48 48 c26 27 56 48 68 48 12 0 42 -21 68 -48 l47 -48 0 -94 0
-95 514 -561 c338 -369 526 -566 549 -577 50 -24 116 -22 164 6 25 13 136 126
287 292 203 221 246 274 244 295 -3 21 -8 25 -33 22 -169 -15 -173 -15 -229
12 -48 23 -137 117 -747 784 -381 416 -724 790 -763 830 -95 99 -108 98 -207
-6z"/>
</g>
</svg>
