<svg xmlns="http://www.w3.org/2000/svg" width="682.667" height="682.667" version="1.0" viewBox="0 0 512 512">
    <path d="M242.3 34.2c-6.8 7.1-6.7 6.5-6.8 35.9-.2 30 .4 27.6-8.6 37.5-2.7 3-5 6.4-5.1 7.7-.1 1.2-.2 3.8-.4 5.7-.1 1.9-.2 19.8-.3 39.7l-.1 36.2-65.5 71.5c-69.7 76.1-68.1 74.6-76.1 73.3-2.7-.5-3.6-.2-4.4 1.4-.9 1.7-.2 2.8 4.7 8.1 6.3 6.6 10.2 8.8 15.7 8.8 7.4 0 10.8-2.5 25.3-18.3 7.6-8.4 38.8-42.4 69.2-75.6s56.1-62 57-64c1.4-3.2 1.6-12.1 1.6-87.5 0-56.8-.3-84-1-84.3-.6-.2-2.9 1.6-5.2 3.9m22.1-2.9c-.2.7-.3 38.6-.2 84.2.3 73.8.5 83.4 1.9 86.5.9 2 16.8 20.2 35.4 40.5 104 113.6 104.6 114.3 108.6 115.9 8.7 3.5 14.8 1.6 23.2-7.2 4.9-5.2 5.6-6.5 4.8-8.1-.9-1.6-1.8-1.8-5.1-1.4-2.2.3-5.3 0-7.1-.7-2-.9-25.7-26-68.5-72.7L292 196.9l-.1-36.2c-.1-19.9-.2-37.8-.3-39.7-.2-1.9-.3-4.5-.4-5.7-.1-1.3-2.4-4.7-5.1-7.7-9-9.9-8.5-7.7-8.7-36.5-.1-14.1-.2-26.6-.3-27.8-.1-2.2-9.5-13.3-11.2-13.3-.5 0-1.2.6-1.5 1.3m-18.5 225.5c-4.1 4.2-38.4 41.6-76.2 82.9-60.8 66.4-69.5 75.5-74.2 77.9-5.7 2.7-6 2.7-23 1.2-2.7-.3-3 0-3 2.5 0 2.3 4.5 7.8 24 29.1 13.2 14.5 25.5 27.3 27.3 28.6 4.5 3.2 12.6 3.8 17.7 1.4 2.6-1.2 19.1-18.5 54.9-57.6l51.1-55.8.2-9.7.2-9.7 4.8-4.8c2.6-2.7 5.6-4.8 6.8-4.8s4.2 2.1 6.8 4.8l4.7 4.8v18.9l51.4 56.1c33.8 36.9 52.6 56.6 54.9 57.7 5 2.4 11.6 2.2 16.4-.6 2.5-1.3 13.6-12.6 28.7-29.2 20.3-22.1 24.6-27.4 24.4-29.5-.3-2.1-.8-2.5-3.3-2.2-16.9 1.5-17.3 1.5-22.9-1.2-4.8-2.3-13.7-11.7-74.7-78.4-38.1-41.6-72.4-79-76.3-83-9.5-9.9-10.8-9.8-20.7.6"/>
</svg>
