<svg xmlns="http://www.w3.org/2000/svg" width="256" height="256" viewBox="0 0 128 128">
    <path d="M56.83 28.27c2.55-4.53 8.9-3.86 13-2.13 3.06 4.12-1.1 8.47-2.34 12.45-1.13 1.75-1.3 5.41-3.92 5.35-2.57-2.51-3.15-6.42-4.8-9.55-1.05-1.89-1.85-3.93-1.94-6.12m-9.04 4.5c1.08-1.03 2.76-.65 4.11-.93 1.92 2.91 3.63 6.47 2.96 10.04-1.15 3.87-5.29 5.43-7.47 8.59-4.51 5.13-8.15 12.4-5.23 19.19 2.48 5.19 6.15 9.87 10.9 13.17 2.45 1.62 4.02 4.29 4.81 7.07.1 3.7.67 7.36 1.07 11.03.42 1.32-1.32 3.03-2.31 1.51-6.49-6.17-14.39-10.85-19.88-18.05-.89-.78-1.45-2.33-2.74-2.45-2.22 1.18-4.3 2.63-6.51 3.84-1.26.36-2.51.75-3.76 1.14-1.65-.82-3.31-1.59-5-2.3 2.8-3.93 8.27-4.7 12.23-7.2-.34-2.99-2.41-5.57-3.18-8.5-5.57.91-11.2 1.07-16.83 1.31-3.14.04-7.04 2.01-9.62-.6 1.98-3.37 3.8-7.57 8.14-8.29 6.05-.81 12.22.19 18.32.09.14-2.59 1.03-5.03 2.19-7.32-4.29-.91-9.25-1.21-12.49-4.53-1.21-2.04-1.69-4.4-2.49-6.61 6.48-.05 12.26 3.62 18.44 5.19 3.79-5.94 9.08-10.76 14.34-15.39m28.31-.93c1.34.27 2.99-.13 4.06.92 5.31 4.59 10.58 9.46 14.39 15.4 6.18-1.57 11.95-5.23 18.43-5.19-.81 2.22-1.27 4.62-2.52 6.65-3.23 3.29-8.18 3.58-12.45 4.49 1.15 2.29 2.06 4.73 2.18 7.32 6.08.09 12.23-.88 18.26-.11 4.36.71 6.21 4.9 8.21 8.28-2.54 2.67-6.48.66-9.62.63-5.63-.24-11.26-.4-16.83-1.31-.74 2.94-2.91 5.52-3.14 8.53 3.95 2.47 9.39 3.25 12.19 7.17-1.7.71-3.37 1.48-5.01 2.32-3.6-.8-6.69-2.78-9.73-4.76-1.24-.89-1.98.93-2.75 1.59-5.77 7.66-14.08 12.68-21 19.15l-.75.13c-2.22-2.42.12-6.08-.14-9-.31-4.29 1.41-8.79 5.07-11.23 4.74-3.3 8.41-7.97 10.89-13.16 2.92-6.78-.71-14.05-5.21-19.17-2.19-3.18-6.35-4.73-7.5-8.63-.65-3.56 1.04-7.12 2.97-10.02"/>
    <path d="M54.03 64.46c3.18-1.83 6.37-3.99 9.99-4.75 3.7.7 6.74 3.22 10.2 4.62-.16 1.1-.74 1.9-1.73 2.39-2.79 1.43-5.57 2.91-8.47 4.11-3.39-1.59-6.99-2.97-10.01-5.19.01-.3.02-.89.02-1.18"/>
</svg>
