<svg xmlns="http://www.w3.org/2000/svg" width="32" height="32">
    <path d="m1.66 1022.844 14.54 15.64c.355.071 1.315-.646 1.22-1.01l-12.98-16.86c-.723-.451-3.03 1.543-2.78 2.23m19.963 21.806c-.078-.256.58-.844.78-.733l6.567 8.386c.003.051-.055.054-.055.054z" style="fill:#000;fill-opacity:1;fill-rule:evenodd;stroke:none;stroke-width:1px;stroke-linecap:butt;stroke-linejoin:miter;stroke-opacity:1" transform="translate(0 -1020.362)"/>
    <path d="M11.87 1035.538c-9.508 7.314-11.083 12.388-9.638 14.413 4.69 5.465 33.376-15.872 28.559-21.44-1.42-1.267-5.334-3.365-15.543 4.745l.163.167s9.288-6.994 12.17-5.252c5.014 2.556-20.088 21.54-24.003 18.75-1.634-1.257 5.07-8.43 8.54-11.125z" style="fill:#000;fill-opacity:1;fill-rule:evenodd;stroke:none;stroke-width:1px;stroke-linecap:butt;stroke-linejoin:miter;stroke-opacity:1" transform="translate(0 -1020.362)"/>
</svg>
