<svg xmlns="http://www.w3.org/2000/svg" width="341.333" height="341.333" version="1.0" viewBox="0 0 256 256">
    <g fill="#e5e5e5">
        <path d="M121.4 29.6c-2.1 1.4-4.8 3.4-5.9 4.4-1.8 1.7-4.8 1.9-34 2.2-27.5.4-32.7.7-36.8 2.2-6.1 2.3-9 5.9-8.5 10.7.3 3.6.2 3.7-3.6 4.4C18 55.8 15.1 62.1 17 87l.5 6.4-3.4.7c-1.8.4-4.5 1.6-6 2.7-2.3 1.7-2.6 2.7-2.8 8-.2 8.2 1.2 9.8 10.2 11.7 5.2 1.1 14 1.5 34.5 1.4 29.8 0 32.9-.5 36.4-5.2 1.8-2.4 1.9-3 .7-4.9-1.1-1.8-1.1-2.2.3-3 1.8-1 2.1-3.9.6-5.4-.6-.6.7-3.9 3.9-9.4 6.9-11.9 7.8-13 12.5-15.1 3.6-1.6 6.7-1.9 24.1-1.9 26.2 0 26.5.2 34.6 14.5 4.6 8.1 5.6 10.6 5.2 13.2-.4 2.4-.1 3.4 1 3.9 1.3.4 1.4 1 .5 2.3-2 3.2-.1 7.1 4.5 9.1 3.8 1.8 6.8 2 32.2 2 15.4 0 30-.5 32.5-1 2.5-.6 5.5-1.2 6.7-1.5 4.2-1 5.3-3.2 5.3-10.5 0-7.5-1.1-8.9-8.1-10.8l-3.4-.8.4-13.1c.3-11.8.1-13.6-1.8-17.5-2.4-5-7.1-8.2-13.8-9.3-4.1-.6-4.2-.7-4.1-4.8 0-3.3-.5-4.6-3-6.8-5.3-4.8-8.4-5.2-42.6-5.6l-32-.5-4-3.3c-8-6.4-11.2-6.9-17.2-2.9m12 1.3c5.3 3.7 11.2 10.1 13.4 14.7 1.5 3.2 1.5 3.8.2 6.2-.8 1.5-3.9 3.9-6.9 5.4-9.1 4.6-22.5 3.3-29.3-2.9-2.3-2-2.3-7.1-.1-10.3 3.7-5.6 15.1-16 17.5-16 .5 0 2.8 1.3 5.2 2.9M72 37.5c0 .4-.7 2-1.6 3.7-1.5 2.8-1.5 5.9 0 9.8.5 1.3-1.6 1.5-16.1 1.4-11.4-.1-16.8-.5-17.1-1.3-.6-1.9 1.9-8.1 3.8-9.1 2.8-1.5 3-1.3 2 1.5-.6 1.5-.6 3.4 0 4.7.8 2 .9 1.9.9-1.3.1-5.6 2.7-8.1 9-8.7 5.1-.5 5.3-.4 4.2 1.6-1.3 2.5-1.4 8.1-.2 10.1.6.8.7-.3.4-3-.4-3.5 0-5 1.7-7.2 1.9-2.3 2.8-2.7 7.6-2.7 3 0 5.4.2 5.4.5m12-.1c0 .2-.7 1.7-1.5 3.2-1.9 3.7-1.9 4.2.4 8.7l1.9 3.7H79c-3.4 0-6.2-.5-6.7-1.3-1.7-2.1-2.2-5.8-1.2-8.6 1.8-4.6 3.9-6.1 8.6-6.1 2.3 0 4.3.2 4.3.4M97.8 40c-2.3 3.1-3 9.2-1.2 11 .6.6.8-.5.6-3.1-.4-3.5 0-4.5 2.9-7.5 2.7-2.8 4-3.4 7.6-3.4h4.2l-3.1 5c-2.4 3.9-3 5.7-2.5 8.4l.6 3.5h-8.6c-9.6 0-11.6-.7-13.8-4.9-2-3.9-1.9-6.2.6-9.4 1.8-2.3 2.7-2.6 8.5-2.6h6.5zm57.9-.8c3.2 3.6 4.5 6.8 3.8 9.5q-.6 2.55.6 1.8c1.8-1.2.4-8.4-2.2-11.1l-2.2-2.4h6.2c3.4 0 7.1.4 8.1 1 2.8 1.5 4 6.1 2.5 9.7-2.1 5-4.9 6.2-14.5 6.2h-8.6l.4-3.5c.3-2.6-.3-4.7-2.6-8.5l-3.1-4.9h4.8c3.7 0 5.2.5 6.8 2.2m28.3 1c2.3 3.8 2.5 6.6.8 10.3-1 2.3-1.7 2.5-7 2.5h-5.9l1.6-3c1.9-3.7 1.9-8-.1-10.8-1.5-2.2-1.5-2.2 3.6-2.2 4.6 0 5.2.3 7 3.2m12-2.2c2.6 1.4 4.1 6.3 3 10-.5 1.7-.5 2.8 0 2.5 1.8-1.1 2.1-6.5.6-9.6l-1.6-3.2 5 .5c5.7.6 8.6 2.7 9.9 7.2.8 2.6.9 2.7 1 .8.1-1.3-.4-3.2-1-4.3-1-1.9-.9-1.9 1-.9 3.1 1.6 5.3 5.5 4.9 8.6l-.3 2.6-16.7.2c-15.5.1-18.5-.3-15.8-1.9 1.5-.9 1.2-7.9-.5-10.1-.8-1-1.5-2.2-1.5-2.7 0-1.1 9.8-.9 12 .3M85.5 55c22.9.9 23 .9 28.8 3.9 3.2 1.6 7.8 3.3 10.3 3.7 6 .9 14.2-1 19.1-4.3 3.8-2.6 3.8-2.6 34.3-3.5 44.2-1.4 54.1 0 58.2 8.2 1.9 3.7 2.3 12.6 1.2 23.7l-.7 6-24.1.7c-22 .7-30.8 1.4-39.1 3.1-2.9.6-3.1.4-7.8-8.8-2.6-5.2-5.9-10.6-7.2-11.9-4.6-4.6-11-5.8-30.4-5.8-26.9 0-28.9.9-37.7 17.8-4.1 8-5.1 9.2-6.9 8.8-5.6-1.6-17.3-2.5-39.6-3.2l-24.6-.7-.7-10.8c-1.5-23.7 3-27.4 33.4-27.7 5.8 0 20.9.3 33.5.8m-33 41c22.8.9 31.5 2.1 33.6 4.6 1 1.2.9 1.8-.3 3-1.3 1.3-6.5 1.4-40.1.8L7 103.7v-2.3c0-2.7 2.3-4.2 8.3-5.4 5.6-1.1 11.2-1.1 37.2 0m188.1.1c6.4 1.1 10.1 3.6 9.1 6.2-.4 1.1-7.7 1.5-39.1 2.1-21.3.4-39.1.4-39.6.1-2.2-1.4-1-4.4 2.3-5.3 6.9-2.1 9.8-2.5 27.7-3.2 29-1.1 32.9-1.1 39.6.1M85 108.6c1.3 1.4 1.2 1.8-1.3 4-2.8 2.4-3.2 2.4-23.5 2.6-32.1.4-45-.1-48.4-1.8-3.3-1.7-4.3-3.6-3.4-6.1.6-1.5 3.7-1.6 37.9-.9 31.4.6 37.4.9 38.7 2.2m163.6-1.1c.8 2-1.3 4.5-5.6 6.3-5.1 2.3-66.3 1.9-69.7-.4-3-1.9-3-5.2 0-5.9 2.6-.6 17.7-1 51-1.3 20.4-.2 23.8 0 24.3 1.3"/>
        <path d="M123.6 38.9c-4.2 2.8-5 4.7-3.6 8.2 2.8 6.6 17.1 5.3 17-1.5-.1-2.5-1.6-4.5-5-6.9-3.1-2.2-4.8-2.1-8.4.2m8.1 6.5c-.2.6-1.8 1.2-3.5 1.4-3.7.4-4.4-1.9-1.5-5.1 1.7-1.8 1.8-1.8 3.6.4 1 1.2 1.6 2.7 1.4 3.3M43.5 67.1c-.7 6.5-.3 9 1 7.7 1.2-1.1 1.8-14.8.7-14.8-.5 0-1.3 3.2-1.7 7.1m167-2.4c.3 2.7.8 6.3 1.1 8.2.4 2.7.2 3.3-1 2.8-1.9-.8-6.6 2.9-6.6 5.2 0 2.6 3.2 5.1 6.7 5.1 5.5 0 8.5-6.6 4.3-9.2-1.5-1-2-2.4-2-5.9 0-6-1-10.9-2.2-10.9-.5 0-.7 2-.3 4.7m3.9 14.2c1.6 1.7 1.6 2 .1 3.5-.9.9-3 1.6-4.6 1.6-4 0-5-2.7-2-5.2 2.9-2.3 4.4-2.3 6.5.1M71.8 63.3c-.5 1-.8 3.7-.7 6 0 3.8.1 4 1 1.7.6-1.3.9-4 .7-6-.2-2.7-.5-3.1-1-1.7m111.7 3.1c.3 2.7.9 5.5 1.2 6.2.3.8-.5 1.7-1.9 2.3-7.3 2.8-7.3 12 0 14.1 10.3 2.8 17.3-10.3 7.2-13.6-3.2-1.1-3.6-1.6-4.3-6.5-.5-3-1.3-5.9-1.9-6.4q-1.05-1.05-.3 3.9m8.3 11.9c2.3 1.9 1.4 5.6-2 7.7-4.1 2.5-6 2.5-8.9.1-2-1.6-2.2-2.3-1.4-4.7 1.7-4.8 8.1-6.4 12.3-3.1M25.6 67.6c-.3.9-.6 3.3-.6 5.4s-.4 4.2-1 4.5c-1.8 1.1-1.1 5.4 1.1 6.5 3.4 1.9 6.4.9 6.7-2.2.3-2.2-.2-3-2.3-4-2.5-1.1-2.7-1.5-2.1-5.9.6-4.6-.6-7.5-1.8-4.3M30.5 81c0 2.3-4.9 2-5.3-.3-.3-1.5.2-1.8 2.5-1.5 1.7.2 2.8.9 2.8 1.8m198.6-9.9c.3 4.6 0 5.4-1.9 6.2-4.4 2-3.5 7.7 1.2 7.7 1.2 0 2.7-.5 3.4-1.2 1.5-1.5 1.6-5.4.2-6.3-.5-.3-1-2.8-1-5.5s-.5-5.2-1.1-5.5c-.7-.5-1 1-.8 4.6m2.2 8.6c1.1 1-1.3 3.3-3.4 3.3-1.8 0-2.6-2-1.2-3.3.8-.9 3.8-.9 4.6 0M66.2 75.1c-8.8 2.6-4.4 14.1 5.3 14.1 7 0 9.9-6.4 5.3-11.6-2.7-3-6.1-3.8-10.6-2.5m7.1 2c3.5 1.6 4.9 5.1 3.1 7.7-1.9 2.8-5.9 3.5-9.3 1.7-5.1-2.6-4.9-7.4.4-9.5 2.7-1.2 3.1-1.2 5.8.1m-29.6-1.3c-5.5.7-5.8 8.4-.3 9.8 5.8 1.4 9.4-1.1 8.3-5.8-.7-2.8-4-4.5-8-4m4.7 2.5c3 2.2 1.6 5.2-2.3 5.2-4.4 0-6.5-2.9-3.7-5.1 2.4-1.7 3.7-1.8 6-.1M20 81c0 .5.5 1 1 1 .6 0 1-.5 1-1 0-.6-.4-1-1-1-.5 0-1 .4-1 1m14 0c0 .5.7 1 1.5 1s1.5-.5 1.5-1c0-.6-.7-1-1.5-1s-1.5.4-1.5 1m20.6-.1c-.3.5.1 1.1.9 1.5 1.5.6 2.9-.7 1.8-1.8-.9-.9-2.1-.8-2.7.3M199 81c0 .5.7 1 1.5 1s1.5-.5 1.5-1c0-.6-.7-1-1.5-1s-1.5.4-1.5 1m21 0c0 .5.5 1 1 1 .6 0 1-.5 1-1 0-.6-.4-1-1-1-.5 0-1 .4-1 1m15 .1c0 .5.5.7 1 .4.6-.3 1-.8 1-1.1 0-.2-.4-.4-1-.4-.5 0-1 .5-1 1.1M85 83c-1.2.8-1.2 1 .3 1.6 2.1.8 3.5-.2 2.1-1.6-.5-.5-1.5-.6-2.4 0m83.5 0c-.8 1.3 1.5 2.4 2.7 1.2q.9-.9-.6-1.5c-.8-.3-1.8-.2-2.1.3m-54.6 2.6c-1.3 1.4-4.1 3.3-6.2 4.1-3.4 1.4-4.2 2.6-10.3 15.2-7.6 15.8-21 46.4-21.9 50.3-.7 2.7.4 4.7 6 11 1.4 1.7 4.9 1.8 46.6 1.8h45.1l4-4.3c3.4-3.6 3.8-4.7 3.4-7.6-.7-4.3-13.6-34.4-22.4-52.1-6-12-7.1-13.6-9.9-14.5-1.8-.5-4.4-2.2-5.8-3.8-2.5-2.6-2.8-2.7-14.4-2.7-11.4 0-11.8.1-14.2 2.6m25.6 4.1c1.4 1.6 4 3.3 5.8 3.9 2.8.9 3.9 2.5 9.1 13 8.8 17.9 21.8 48.5 21.1 49.8-2.1 4-3.5 6-4.7 6.7-1.6 1.1-83.9 1.2-85.3.1-1.7-1.2-4.5-6-4.5-7.7 0-3.2 22.1-52.8 26.2-58.6 1-1.5 3-3 4.5-3.4 1.6-.3 4-2 5.5-3.6 2.6-2.8 3.1-2.9 11.2-2.9 8 0 8.7.2 11.1 2.7"/>
        <path d="M127 90.9c0 .6 0 1.4.1 1.7s-1.2 1.9-2.7 3.5-2.3 2.9-1.7 2.9c.5 0 1.8-.9 2.8-2s2.5-1.8 3.4-1.5c2.3.7 4.4-.9 3.9-3.1-.3-2-5.8-3.4-5.8-1.5m4.1 1.6c-.1 1.5-2.4 1.2-2.9-.3-.3-.9.2-1.3 1.2-1 1 .1 1.7.7 1.7 1.3m-6 10.1c-1.7 1.4-3.1 3.4-3.1 4.4 0 1.7.3 1.6 2.5-.5 2.9-3 6.8-3.2 11.3-.5 4.8 2.9 5.8 5.9 3.7 10.4s-5.4 7-16.4 12.7c-16.3 8.6-20.7 19-10.9 26.2 4.6 3.4 29.1 4.8 32.1 1.8 1.6-1.6-1.7-3.7-6.8-4.5-11.8-1.6-17.5-4.1-17.5-7.5 0-2.4 2.6-4.7 11.8-10.2 4.4-2.6 9.1-6.4 11-8.8 2.7-3.6 3.2-5.1 3.2-9.7 0-3-.6-7-1.4-8.9-3.1-7.3-13.6-9.9-19.5-4.9"/>
        <path d="M104 115c-2.8 2.8-3.6 6.9-1.9 9.9 1.3 2.3 1.2 3-.3 6-2.7 5.3-2.1 7.2.7 2.5 2.1-3.6 3-4.2 6.7-4.7 7.9-1.1 11.1-8.4 6.1-13.9-2.2-2.5-8.7-2.4-11.3.2m10 2.5c2.7 3.3-2.7 9.3-7.5 8.1-2.7-.7-3.4-4.1-1.5-7.7 1.3-2.3 7.2-2.6 9-.4m33.3 18.5c-5.6 2.3-4.5 9.1 1.6 10 2.2.3 3.7 1.2 4.2 2.5.8 1.8.9 1.7.7-.5-.1-1.4.5-3.7 1.2-5.2 1.1-2.3 1-3.1-.4-5.3-1.7-2.6-3.6-3-7.3-1.5m5.7 3.9c0 .4-.9 1.6-2 2.6-1.9 1.7-2.2 1.8-3.7.2-1.6-1.5-1.5-1.8.1-3.6 1.4-1.6 2.3-1.8 3.7-1 1.1.5 1.9 1.3 1.9 1.8m-59.7 10.9c-1.2.8-1.6 2.4-1.4 6.3.1 2.5.3 2.6 3.9 1.9 6.7-1.2 7.9-3.3 4.2-7-2.1-2.1-4.6-2.5-6.7-1.2m5.7 2.7c1 1.2 1 1.8 0 3-1.7 2.1-5.4 1.5-5.8-.9-.7-3.2 3.6-4.8 5.8-2.1"/>
        <path d="M19.2 135c-4 .5-7.9 1.3-8.7 2-2.2 1.9-1.9 10.9.7 17.7 1.2 3.4 3.7 7.4 6 9.7 2.2 2.3 3.8 4.8 3.8 6.2 0 2.6 5.4 9.4 7.5 9.4.7 0 1.5 1.2 1.8 2.7.4 1.9 3.5 5.3 9.2 10.3 13.8 11.9 26.6 19.6 42.5 25.5 4.1 1.5 9.8 3.8 12.5 5.1 7.5 3.6 18.9 5.4 34 5.4 14.2 0 26.2-1.7 31.7-4.6 1.8-1 7.6-3.4 12.8-5.3 5.2-2 13.5-5.8 18.3-8.4 14.5-7.9 34.2-23.7 35.3-28.3.3-1.3 1.4-2.6 2.5-2.9 2.8-.9 5.9-5.4 5.9-8.5 0-1.9.8-3.3 2.6-4.5 3.1-2 8-12 9.5-19.5 1.4-7.3.2-10.5-4.3-11.4-5.9-1-42.1-1.7-48.8-.9l-6.5.8.1 3.8c.1 3.6 7.4 20 11.3 25.6 1.7 2.4 1.8 2.9.4 5.5-.8 1.6-1.3 4.1-1.1 5.6l.4 2.9-8 .6c-8.8.7-20 .2-28.6-1.3-8-1.4-69.9-.9-72.7.6-2.3 1.3-17.3 1.6-26.1.5-4.4-.5-5.2-.9-4.7-2.3.3-1-.1-3.6-1-5.7l-1.6-4 4.2-7.4c5.6-9.7 8.8-17.6 8.9-21.5v-3.1l-6.7-.6c-8.8-.9-33.7-.6-43.1.3m9.5 3.9c1.9 3.9-.4 8.3-5.3 10-3.4 1.2-4.4 1.1-7.7-.2-3.7-1.6-3.8-1.7-3.5-6.4l.3-4.8h4c3.6 0 4 .3 4 2.4 0 1.9-.8 2.7-3.5 3.7-3.3 1.2-3.3 1.3-.8 1.3 3.8.1 6.1-2.5 5.4-6.1-.5-2.8-.4-2.9 2.6-2.6 2.3.2 3.6 1.1 4.5 2.7m10.1-.4c2 4.3 1.4 9.1-1.3 12.4q-6.15 7.2-19.2 3.6c-1-.3-.4.1 1.2.9 3.7 1.9 11.2 2 14.5.3 4.2-2.1 7.2-7.6 6.7-12.2-.2-2.2-.7-4.8-1.1-5.8-.7-1.5-.2-1.7 3.8-1.7 4.1 0 4.8.3 6.6 3.2 1.1 1.8 2 5 2 7.1 0 8.9-6 14.6-17.5 16.6-3.3.6-7.1 1.3-8.5 1.5-1.4.3.9.3 5 .1s9.4-1.1 11.8-2c9.5-3.8 13-13.4 8.7-23.8-.6-1.5-.1-1.7 3.4-1.7 3.8 0 4.2.2 4.8 3 .3 1.6.9 3 1.4 3 .4 0 .4-1.4-.1-3-.8-2.8-.7-3 2.1-3 2.2 0 2.9.5 2.9 1.8 0 1.1-2.9 7.8-6.5 15l-6.4 13.1-4.6.7c-6.1.9-26.1-1.1-28.2-2.8-1.8-1.4-7.3-12.5-7.3-14.6 0-.9.5-1 1.9-.2 8 4.2 17.5-3.3 14.7-11.8-.7-2.1-.5-2.2 3.7-2.2 3.7 0 4.6.4 5.5 2.5m165.6 1.3c-2.1 4-1.8 10.8.7 15.2 3.3 5.8 10.1 9.1 19.7 9.6l7.7.4-8-1.4c-8.8-1.4-11.6-2.6-15.7-6.4-5.3-4.9-6-13.1-1.7-18.6 1.6-2 2.9-2.6 6.1-2.6 3.4 0 3.9.3 3.3 1.7-1.4 3.7-1.6 6.9-.7 9.3.9 2.2 1 1.9.9-2 0-7.1 1.5-9 7-9 3.7 0 4.4.3 3.5 1.2-.7.7-1.2 2.6-1.1 4.2l.1 3.1.8-3.3c1-4.5 2.3-5.6 5.5-4.8 1.9.5 2.5 1.1 2.1 2.3-1.1 2.8 2.1 6.3 5.7 6.2l3.2-.1-3.1-.9c-4.3-1.2-6.1-3.4-4.4-5.4 1.3-1.6 3.8-1.9 6.4-.9 1.1.4 1.6 1.9 1.6 5.1 0 4.1-.2 4.5-3.6 5.9-4.3 1.8-7.9 1.2-11.3-1.9-2.4-2.2-2.4-2.2-1.3-.1 2.1 4 8.8 5.4 14.6 2.9 1.6-.7 1.7-.5 1.1 1.6-.4 1.3-1.8 4.8-3.1 7.7-3.2 7.2-6 8.3-22.4 8.5-9.2.2-13.1-.2-14.3-1.1-2.2-1.9-13.9-26.3-13.3-27.9.3-.7 1.6-1.3 3-1.3 2.3 0 2.4.3 2 3.7l-.5 3.8 1.3-3.5c1.1-2.9 1.9-3.6 4.8-4.1 4.7-.7 5.1-.3 3.4 2.9M53.8 171.3c.7.6 1.2 2.2 1 3.6-.4 3.1-2.8 3.8-13.3 4-11.3.2-17.5-2.7-17.5-8 0-1.5 1.5-1.6 14.3-1.1 7.8.2 14.8.9 15.5 1.5m178.4.7c-.7 5.5-7.3 7.6-20.9 6.8-8.8-.6-11.3-2.2-9.5-6.2 1.1-2.5 1.4-2.5 13.4-2.9 18.3-.5 17.3-.6 17 2.3m-65.4 9.7c3.4 2.6 4.5 7.7 3.8 17.9-1 16.1-6.9 23.1-22.1 26.5-7.8 1.7-32 1.7-41 0-11.3-2.1-18.8-8.3-20.9-17.4-1.4-5.9-.9-21.3.8-24.5 2.5-4.7 2.6-4.8 46.5-4.6 28.4.2 30.5.3 32.9 2.1m-96 .3c14.3 0 15.4.1 14.7 1.7-1.7 4-1.7 18.8-.1 25.2.9 3.5 1.4 6.6 1.2 6.9-1 .9-16.4-6-26.5-11.8-17.8-10.3-28.4-19.1-26.5-22.2.5-.7 3.9-.9 11.2-.4 5.8.3 17.5.6 26 .6m152.2.8c0 2.7-7.3 9.2-18 16.2-10.5 6.9-27.8 15.6-32.7 16.6l-3.2.6 1.5-4.8c1.7-5.6 2.2-17.6 1.1-24.6l-.8-4.8 18.8-.3c10.3-.1 22.1-.3 26.1-.5 6.3-.2 7.2 0 7.2 1.6"/>
        <path d="M217.6 151.4c1.9 4.9 12.7 7.2 19.9 4.2 5.1-2.2 4.3-2.5-1.9-.8-6.6 1.8-11.4 1-15.6-2.4-1.9-1.6-2.8-2-2.4-1m-98.2 34.5c-9.2 5.3-15.4 15.1-14 22.4.8 4.1 6 9.4 10.7 10.7 4.6 1.3 19.4 1.3 24.4-.1 2.1-.6 5.4-2.6 7.2-4.4 2.7-2.7 3.3-4.1 3.3-7.4 0-2.3-.6-5.7-1.4-7.5-3.4-8-14.6-16.6-21.8-16.6-1.8 0-5.6 1.3-8.4 2.9m17.5 2.3c7.1 4.3 11.2 10.2 11.9 16.7.4 4.7.2 5.3-2.9 8.4-9.5 9.5-36 6.5-38.4-4.2-1.5-7.1 4.6-17 13.4-21.6 6.3-3.3 9.7-3.1 16 .7"/>
        <path d="M122.5 197.1c-8.5 7.5-.3 17.2 10.9 12.9 4-1.5 5.2-5 3.2-9.2-1.6-3.4-6.1-6.8-9-6.8-.8 0-3.1 1.4-5.1 3.1m9.3 4.1c2.2 2.2 1.4 4.6-1.8 5.3-5.9 1.3-8.9-1.5-5.4-4.9 1.8-1.9 5.5-2.1 7.2-.4"/>
    </g>
</svg>
