<svg xmlns="http://www.w3.org/2000/svg" width="341.333" height="341.333" version="1.0" viewBox="0 0 256 256">
    <g fill="#e5e5e5">
        <path d="M103.5 40c-14 2.9-22.2 5.8-26.2 9.3-3.9 3.4-8.5 12.5-10.7 20.9-1.3 5-1.5 5.3-10.5 10.9C41.3 90.4 26 103.8 26 107.4c0 .7-1.1 1.8-2.4 2.4-2.9 1.3-5.6 5.1-6 8.4-.2 1.2-1.9 4-3.8 6-5.1 5.3-9 15.9-8.6 23.5.3 5.8.3 5.8 4 6.7 2.3.6 3.8 1.6 4.2 2.8.2 1.1 1.4 2.2 2.5 2.5 1.9.5 2 .7.5 3.5-.8 1.6-2.1 3.1-2.9 3.5-2.1.8-5.5 6.7-5.5 9.5 0 2.7 2.8 5.8 5.2 5.8.8 0 3.7-1.1 6.4-2.5s7.6-3.7 10.9-5.1c6.9-2.8 11-6.4 12.5-11 .6-1.7 2-3.4 3-3.7 1.1-.3 2-1.2 2-2.1 0-1.1.9-1.6 3-1.6q3 0 3 1.5c0 .8.9 2 2 2.7s2 2.3 2 3.5.9 2.8 2.1 3.6c2 1.4 2 1.6.4 4.6-.8 1.7-4.7 6.6-8.5 10.8-8.9 9.7-11.5 14.9-11.5 23 0 7.8 2.4 11.7 7.8 12.1 3.3.3 3.9-.1 8.7-6.2 3.9-5 7.9-8.4 16.6-14.2 12.5-8.3 18-13.9 19-19.1l.6-3.4 5.7.6c3.6.5 7 1.6 9.5 3.3 8.5 5.8 10.7 6.6 19.1 6.7 6.7 0 8.9-.4 13.5-2.7 3-1.5 6.6-3.6 8-4.7s4.9-2.2 8.2-2.6l5.6-.6.7 3c1.2 5.5 6.1 10.6 17.1 18.1 12.4 8.3 16.4 11.7 20.5 17.7 2.5 3.6 3.5 4.3 6.3 4.3 6.3 0 10.2-7.3 8.6-16.1-1.3-6.9-3.9-11.4-11.4-19.7-3.6-4-7.3-8.6-8.2-10.4-1.5-2.9-1.5-3.2 0-4.3.9-.7 1.6-2.4 1.6-3.7 0-1.7.7-2.7 2-3.1 1.2-.3 2-1.4 2-2.6 0-5.4 9.1-.2 11.9 6.7 1.2 3 6.7 8.2 8.5 8.2.4 0 5 2.1 10.3 4.6 10.8 5.1 13.5 5.2 15.2.4 1.4-4 .2-6.8-4.8-11.8-4.6-4.5-5-5.8-2.1-6.7 1.1-.3 2-1.5 2-2.6 0-1.3.7-1.9 2.1-1.9 4.7 0 5.9-1.7 5.9-8.5 0-8.3-3-16.4-8-21.6-2.2-2.3-4.1-5.5-4.4-7.4-.6-3.1-5.4-8.5-7.7-8.5-.5 0-.9-.9-.9-1.9 0-3.9-20.9-21.4-34.5-29-3.7-2-4.2-2.8-5.8-8.9-2.4-9.2-6.5-16.9-10.8-20.4-4.1-3.3-15.6-7-28.8-9.3-11.8-2.1-35.1-1.8-46.6.5m55.7 5.9c10.1 2.3 13.4 3.9 18.9 8.8 6.4 5.8 8.7 11.9 10.4 27.3.7 6.7-.8 19.3-3 24.8-1.3 3.3-2.4 4.4-5.3 5.3-6.3 2-18.5 9.6-22.7 14l-4 4.3 4.6-4c11-9.3 22.9-14.3 28.6-11.9 3.4 1.4 6 6.7 7.3 15.3 1 5.9-1.2 16.8-4.9 24-4.2 8.3-13 13.1-27.5 15.1-12.7 1.8-11.6 2.7-11.6-9.7 0-9.5.9-18 2.5-24.5.2-1.2-.1-.9-.9.8-.8 1.6-1.9 6.6-2.5 11-3.6 24.9-6 31.6-12 33.3-5.3 1.6-11.9 1.5-17.3-.3-6.5-2.3-8-6.3-12.3-33-2.7-17.3-6.7-22.3-25-31.5L72 109.7l-2.2-7c-1.8-5.9-2-8.6-1.5-18.1.7-15.9 3.2-23 10-29.2 7.5-6.8 9.9-7.7 31.7-11.8 1.4-.2 11.1-.3 21.5-.1 14.5.3 21 .8 27.7 2.4M65.5 90.2c.4 5.7 1.3 12 2 14l1.3 3.8H49.4c-22.5 0-22.9-.2-14.6-8.2 4.7-4.6 26.7-19.4 29.3-19.7.4-.1 1 4.5 1.4 10.1m138.3-3c11.7 7.1 22.2 16 22.2 18.9 0 1.8-.9 1.9-19.1 1.9-18.3 0-19-.1-18.4-1.9 1.2-3.9 2.5-13.8 2.5-19.4q0-5.7 1.2-5.7c.7 0 5.9 2.8 11.6 6.2M67 109.8c0 .5-1.1 1.9-2.4 3.1-1.4 1.3-3 3.6-3.7 5.3l-1.2 2.9-19.3-.3c-10.6-.2-19.5-.6-19.9-.9-1.4-1.5.9-6.1 3.9-7.7 2.4-1.3 6.7-1.8 20.1-2.3 9.4-.3 18.2-.6 19.8-.7 1.5-.1 2.7.2 2.7.6m159.7.8c4.9.6 8 2.9 8.8 6.5.9 3.6-.6 3.9-21.1 3.9h-17.2l-1.2-2.9c-.6-1.6-2.2-3.9-3.6-5.2-1.3-1.2-2.4-2.5-2.4-2.9 0-.7 30.4-.2 36.7.6m-142.4 6.6c9.4 4.7 15.6 9.9 18.2 15.2 2.7 5.7 4.5 17.5 4.5 29.9v7.9l-6.7-.7c-20.4-2.2-30.9-8.7-35.2-21.6-2.9-8.9-3.6-15.4-2.2-22.1 1.3-6.1 4.1-10.5 7.4-11.7 2.6-1 8.6.3 14 3.1m-25.7 6.4c-.3.9-.6 2.4-.6 3.3 0 1.5-1.1 1.9-7 2.3-5.5.4-8.1 1.2-11.7 3.4C34.7 135.5 28 143 28 145.3c0 .7 1.1-.6 2.5-2.9 4.2-7 13.7-12.3 22.3-12.4 4 0 4.2.1 4.2 2.9 0 2.2-.6 3-2.4 3.5-4.8 1.2-11.6 8.8-11.6 12.8 0 .7.9-.5 1.9-2.8 1.9-4.1 5.7-7.5 9.8-8.8 1.9-.6 2.3-.2 2.8 2.7.5 2.7.1 4.2-1.9 7.2-1.4 2.1-2.6 4.4-2.6 5.1 0 2.2-36.2 2-38.4-.2-1-.9-1.6-1.1-1.6-.4 0 .6-1 1-2.2.8-2.1-.3-2.3-.8-2.3-7.3 0-5.6.6-8.3 2.9-13.3 4.3-9.4 5.7-9.9 30.5-10 15.3-.1 17.2 0 16.7 1.4m177.3-.2c4.2 1 4.7 1.5 7.9 8 2.8 5.4 3.6 8.4 4 14.1l.4 7.2-4.7.6c-2.6.4-12.8.7-22.6.7H203v-2.4c0-1.4-1.1-3.7-2.4-5.3-1.7-2.1-2.2-3.6-1.9-6.1.6-3.6 1.2-3.8 5.1-1.8s7.1 5.8 8.8 10.3l1.5 3.8-.6-3.4c-.7-4.7-4.6-9.4-9.6-11.9-3.1-1.6-4.3-2.8-4.5-4.7-.2-2.3.1-2.5 3.6-2.5 9.2 0 21.1 6.9 24 14 .7 1.7 1.5 2.8 1.8 2.6 1.1-1.2-5.2-9.8-9.1-12.4-5.5-3.8-9.9-5.2-15.8-5.2-3.3 0-4.9-.4-4.9-1.3 0-.6-.3-2.2-.6-3.4l-.6-2.3 16.8.1c9.3.1 18.9.7 21.3 1.3m-176.5 25c.3 1.3.9 3.1 1.2 4 .5 1.3-.1 1.6-3 1.6-4.1 0-4.1 0-2-4.6 1.9-4 3-4.3 3.8-1m141-.2c2.8 3.9 2.1 5.8-2 5.8-2.9 0-3.5-.3-3-1.6.3-.9.9-2.7 1.2-4 .8-3 1.8-3 3.8-.2M47 156.9c0 1.7-3.3 2.1-15.5 2.1-11.7 0-18.2-1-17.2-2.7.7-1.1 32.7-.4 32.7.6m195-.5c0 .7-1 1.6-2.2 2-3 .8-26.2.8-28.2 0-4.2-1.6-.3-2.4 13.7-2.7 8.3-.1 15.5-.4 16-.5.4-.1.7.4.7 1.2m-179 0c0 .2.3 1.1.6 2 1 2.6-6.2 2.2-7.6-.4-1-1.8-.8-2 3-2 2.2 0 4 .2 4 .4m137.8 1.3c-.2 1.3-1.5 1.9-4.6 2.1-4.4.3-4.5.3-3.6-2.2.4-1.1 1.9-1.6 4.6-1.6 3.2 0 3.9.3 3.6 1.7M34.7 161c6.5 0 7.2.2 6.5 1.8-1.8 4.4-4.6 6.5-16.1 11.8-9.9 4.5-12.4 5.4-13.6 4.4-2.7-2.3-1.7-5.8 3.5-11.5 2.8-3 5-6 5-6.6 0-.8 1.3-1 3.8-.5 2 .3 6.9.6 10.9.6m202.2 1.2c.5 1.3 2.3 3.6 4.1 5.3 5.4 5.1 7 10.5 3.5 11.9-.8.3-7-2.1-13.7-5.3-9.5-4.5-12.7-6.6-14-8.9-1-1.6-1.8-3.3-1.8-3.6s3.9-.7 8.8-.9c4.8-.1 9.5-.4 10.5-.5s2.1.7 2.6 2m-168.7 1.5 2.2 2.3h-5.1c-4.2 0-5.2-.3-5.6-1.9-.6-2.5-.5-2.6 3.2-2.6 1.8 0 3.9.9 5.3 2.2m126.9-1.7c1.2 0 1.9.7 1.9 2 0 1.8-.7 2-5.7 2h-5.6l2.3-2.5c1.3-1.4 3-2.3 3.8-2 .7.3 2.2.5 3.3.5m-117.3 8c2.3 1.1 5.7 2.3 7.5 2.7 5.8 1.1 6.7 1.9 5.6 5.5-1.3 4.6-7 10.1-18.1 17.5-6 3.9-12.2 9.1-16 13.3-7.3 8.1-9.7 8.8-12.8 3.7-4.5-7.3-1.3-16.8 9.6-28.8 3.9-4.2 7.8-9.5 8.8-11.8 1.8-4 2.1-4.1 6.6-4.1 2.6 0 6.4.9 8.8 2m116.1 2.4c1.2 2.4 5.3 7.8 9.1 12 7.2 7.9 10.3 12.8 11.5 18.4 2.1 10-6.6 17.7-11.4 9.9-3.1-4.9-9.7-10.9-19.6-17.6-11.1-7.4-12.7-8.8-15.9-13.6-4.1-5.9-3.6-7 4.2-9.4 3.7-1.1 7.4-2.5 8.2-3.1.8-.5 3.8-1 6.7-1 5.1 0 5.1 0 7.2 4.4"/>
        <path d="M121.7 53.6c-1.5.8-2.5 1.9-2.3 2.3 1.4 2.3 17.6 2.3 17.6 0 0-1.5-5.8-3.9-9.2-3.9-1.8.1-4.6.8-6.1 1.6m-5.7 8.8c-6.7 1.9-12 4.9-18 10.3-4.8 4.3-11 12.5-11 14.5 0 .4 3.9-2.3 8.8-6.1 10.6-8.3 19.1-12.7 26.8-13.9 7.1-1.1 17.3-.1 23.3 2.1 5.2 2 5.1 2 5.1.4 0-2.3-5.7-5.7-12.2-7.2-7.5-1.8-16.6-1.8-22.8-.1m46 18.5c0 .5 1.9 2.4 4.1 4.2 3.8 3 4.1 3.1 2.9.8-.7-1.3-1.9-3.2-2.8-4.2-1.6-1.8-4.2-2.3-4.2-.8M79 93.2c-1.1 1.8-2 4.1-2 5.1 0 1.7.2 1.7 3-.3 3.4-2.4 4.9-4.9 4.3-6.8-.8-2.2-3.3-1.3-5.3 2m93-1.7c0 1.6 6.9 8.9 7.7 8.2 1.1-1.2-5-9.7-6.9-9.7-.4 0-.8.7-.8 1.5m-84.5 2.7c-1.9 2.8-4.9 12.7-4.1 13.5 1.7 1.8 11.7-10.8 10.9-13.7-.7-2.7-4.8-2.6-6.8.2m74.5-.4c0 2.3 10.3 14.9 10.8 13.3.6-1.7-2.5-9.4-4.9-12.5-2.4-3-5.9-3.5-5.9-.8m-39.6 3.1c-5.5 2.4-8.1 10.4-5.2 16.6 1.3 2.9 3.2 3.4 2.3.6-.9-3 1.2-10.4 3.6-12.4 1.2-.9 3.8-1.7 5.9-1.7 5.2 0 7.3 2.6 7.8 10 .2 3.3.8 6 1.3 6 1.2 0 3.1-7.9 2.5-10.4-.3-1.1-1.8-3.6-3.3-5.5-2.4-2.8-3.6-3.4-7.8-3.7-2.8-.2-6 0-7.1.5M95 101.8c0 2.2 2.9 3.2 9.6 3.2 8.2 0 10.3-1.4 4.7-2.9-4.5-1.3-14.3-1.5-14.3-.3m50.6.4c-4.4 1.6-1.3 2.8 7.7 2.8 7 0 7.7-.2 7.7-2s-.6-2-6.2-1.9c-3.5 0-7.6.5-9.2 1.1m36.9 18.9c-1 1.5.3 2.5 1.6 1.2.7-.7.7-1.3.1-1.7-.6-.3-1.4-.1-1.7.5m-10.5 7.3c0 1.8 5.9 3.6 11.5 3.5h4l-5-1.8c-8.4-3-10.5-3.3-10.5-1.7m-47.3 7.7c-5.2 2-4.8 9 .8 11.6 3.1 1.5 3.5 1.5 6.3-.5 3.6-2.6 4.8-7 2.4-9.4-2.3-2.2-6.1-2.9-9.5-1.7m6.4 1.9c1.2.7 1.9 2.1 1.9 4.1 0 3.9-4.1 5.8-7.6 3.4-2.8-1.8-3.1-4.1-.7-6.7 1.8-2 3.6-2.3 6.4-.8m34.9-1c0 2.1 13.2 8.2 14.6 6.8.2-.2-3-2.1-7.1-4.1s-7.5-3.2-7.5-2.7m-9 4.8c0 2 6.1 10 10.1 13.3 7.4 6 7.7 5.6 1.1-1.6-3.5-3.9-7.1-8.2-8-9.8-1.6-2.6-3.2-3.6-3.2-1.9m-36 17.9c-4.5 5.7-.1 15.3 7 15.3 6.5 0 11.5-8.2 8.5-13.9-1.7-3.4-3.3-4.1-9-4.1-3.6 0-4.8.5-6.5 2.7m12.8 2.1c1.7 2.2.7 6.1-2.3 9.1-2.2 2.2-2.7 2.3-4.9 1.2-2.5-1.4-4.6-5-4.6-8.1 0-4.7 8.7-6.3 11.8-2.2m23-3.6c-.9 2.3.3 3.8 2.9 3.8 2 0 2.4-.4 2.1-2.3-.3-2.5-4.2-3.7-5-1.5m4.2 1.3c0 .8-.7 1.5-1.5 1.5s-1.5-.7-1.5-1.5.7-1.5 1.5-1.5 1.5.7 1.5 1.5M57.5 97.1c-.4.6-.5 1.3-.2 1.6.7.7 2.7-.6 2.7-1.8s-1.7-1.2-2.5.2m-9 1.9c.3.5.8 1 1.1 1 .2 0 .4-.5.4-1 0-.6-.5-1-1.1-1-.5 0-.7.4-.4 1M197 97.5c0 .9.5 1.5 1.1 1.3s1.1-.8 1.1-1.3-.5-1.1-1.1-1.3-1.1.4-1.1 1.3m9.5 1.5c.3.5.8 1 1.1 1 .2 0 .4-.5.4-1 0-.6-.5-1-1.1-1-.5 0-.7.4-.4 1M72.6 120.7c-1.1 1.1-.6 2.3.9 2.3.8 0 1.5-.4 1.5-.9 0-1.3-1.6-2.2-2.4-1.4m4.5 8.3c-7.8 2.3-8.6 3-3.5 2.9 4.8 0 10.6-2 11.2-3.7.5-1.5.1-1.5-7.7.8m5.4 11.1c-4.6 2.6-6 3.7-4 3.3 4-.9 9.8-3.9 11.4-5.8 2-2.3.4-1.8-7.4 2.5M97 143c-.7 1.4-4 5.6-7.4 9.5-6.1 7-5.4 7.2 1.7.6 4.5-4.2 8-9.6 7.5-11.3-.3-.8-1-.3-1.8 1.2m-2.6 15.5c-.4.9-.2 2.1.4 2.7 1.6 1.6 4.7.5 4.7-1.7 0-2.6-4.2-3.4-5.1-1m4.1.6c1 1.5-.1 2.3-2 1.5-.9-.3-1.3-1-1-1.6.8-1.3 2.2-1.3 3 .1M30 125c-1.9 1-5.1 3.6-7 5.7l-3.5 3.8 4-3.6c2.2-2 5.8-4.6 8-5.7 2.2-1.2 3.6-2.1 3-2.1-.5 0-2.6.8-4.5 1.9"/>
        <path d="M17.5 138.1c-.9 1.7-1.5 3.3-1.3 3.5.3.2 1.2-1.2 2.1-3.1 2.1-4.3 1.3-4.7-.8-.4m-3.4 9.5c0 1.1.3 1.4.6.6.3-.7.2-1.6-.1-1.9-.3-.4-.6.2-.5 1.3m210.8-22.4c5.6 2.7 10.4 7.6 13.5 13.6 1.4 2.6 2.5 4.3 2.6 3.9 0-1.6-4.1-8.8-7.2-12.2-3.1-3.6-9.5-7.5-12-7.5-.7.1.7 1.1 3.1 2.2m17.2 24.4c0 1.1.3 1.4.6.6.3-.7.2-1.6-.1-1.9-.3-.4-.6.2-.5 1.3M28.5 164c-.3.5-.1 1 .4 1 .6 0 1.1-.5 1.1-1 0-.6-.2-1-.4-1-.3 0-.8.4-1.1 1m-5.5 4c0 .5.4 1 .9 1 .6 0 1.3-.5 1.6-1 .3-.6-.1-1-.9-1-.9 0-1.6.4-1.6 1m-6 3.1c0 .5.5.7 1 .4.6-.3 1-.8 1-1.1 0-.2-.4-.4-1-.4-.5 0-1 .5-1 1.1m-4.3 4.6c-.4.3-.7 1.1-.7 1.7s.5.5 1.2-.2c.6-.6.9-1.4.7-1.7-.3-.3-.9-.2-1.2.2M226.5 164c.3.5.8 1 1.1 1 .2 0 .4-.5.4-1 0-.6-.5-1-1.1-1-.5 0-.7.4-.4 1m5 4c.3.5 1.1 1 1.6 1 .6 0 .7-.5.4-1-.3-.6-1.1-1-1.6-1-.6 0-.7.4-.4 1m6 3c.3.5 1.1 1 1.6 1 .6 0 .7-.5.4-1-.3-.6-1.1-1-1.6-1-.6 0-.7.4-.4 1m5.1 5.5c.4.8 1 1.5 1.5 1.5.4 0 .6-.7.3-1.5-.4-.8-1-1.5-1.5-1.5-.4 0-.6.7-.3 1.5M75.2 175c0 1.4.2 1.9.5 1.2.2-.6.2-1.8 0-2.5-.3-.6-.5-.1-.5 1.3m-4.5 8.7c-.4.3-.7 1.1-.7 1.7s.5.5 1.2-.2c.6-.6.9-1.4.7-1.7-.3-.3-.9-.2-1.2.2m-5.2 6.3c-.3.5-.1 1 .4 1 .6 0 1.1-.5 1.1-1 0-.6-.2-1-.4-1-.3 0-.8.4-1.1 1m-7.5 6c-.8.5-1.2 1.2-.9 1.5.4.3 1.2-.1 1.9-1 1.4-1.7 1.1-1.9-1-.5m-7.5 7.1c-.4.6-.5 1.2-.2 1.5.2.3.7-.2 1-1.1.7-1.7.1-2-.8-.4m-2.4 9.5c0 1.1.3 1.4.6.6.3-.7.2-1.6-.1-1.9-.3-.4-.6.2-.5 1.3M180 174.4c0 .8.5 1.8 1 2.1.6.3 1-.1 1-.9s-.4-1.8-1-2.1c-.5-.3-1 .1-1 .9m4 8.1c0 1.5 1.8 4 2.4 3.4.3-.3-.1-1.4-.9-2.5-.8-1-1.4-1.5-1.5-.9m5.5 7.5c.3.5.8 1 1.1 1 .2 0 .4-.5.4-1 0-.6-.5-1-1.1-1-.5 0-.7.4-.4 1m7.5 6.5c.7.8 1.7 1.5 2.2 1.5.6 0 .5-.7-.2-1.5s-1.7-1.5-2.2-1.5c-.6 0-.5.7.2 1.5m7 5.9c0 .2.7.9 1.5 1.6 1.3 1.1 1.4 1 .9-.4s-2.4-2.3-2.4-1.2m4.2 9.6c0 1.4.2 1.9.5 1.2.2-.6.2-1.8 0-2.5-.3-.6-.5-.1-.5 1.3"/>
    </g>
</svg>
