<svg xmlns="http://www.w3.org/2000/svg" width="341.333" height="341.333" version="1.0" viewBox="0 0 256 256">
    <g fill="#e5e5e5">
        <path d="M106 29.1c-11.7 2.2-16.9 4.9-18.9 9.7-1.2 2.8-1.7 3-8.4 3.7-3.9.3-8 1.1-9 1.7-2.8 1.5-4.5 6.6-5.1 15.4l-.5 7.9 1.4-8.8c.8-4.8 1.9-9.6 2.5-10.7 1-2 4.9-3.3 12.8-4.4 4.2-.6 4.3-.6 3.6 1.6-.9 3.2-3.9 8.9-5.9 11.3-1.6 1.9-1.6 1.8-1-1.8.3-2.1.9-4.6 1.2-5.5.4-1.5.3-1.5-.6-.2-.6.8-1.3 3.5-1.7 6-.6 4.1-2.5 6.9-4.8 7-.5 0-.6-2.8-.3-6.3.3-3.6.1-5.4-.3-4.2-.5 1.1-.9 4.2-.9 6.9-.1 4.6-.5 5.3-6 11-7.7 8-10.5 13.9-14.2 29.3-1.8 7.8-4.2 14.9-6.1 18.3-5.5 9.9-14 23-14.9 23-1.7 0-4.7-4.3-5.9-8.6-1.9-6.8-.7-16.4 3.8-30.6 7.1-21.8 7.5-30.4 1.9-34.3-2.8-2-7.7-1.9-10.5.1-1.9 1.3-2.3 2.4-2 5.3.4 4.4-1.6 4.8-4.5.9-1.4-1.9-2.1-4.7-2.4-10-.6-9.8.3-11 9.3-11.9 3.8-.4 10.1-1.3 14.1-2 5.7-1 7.9-1 11.2 0 5.9 1.7 7.5 4.7 8.2 15.5l.6 9.1.1-8.8c.3-14.6-3.3-18.4-16.7-17.4-12.9 1-23.5 2.7-26 4.4-2.2 1.4-2.3 1.9-1.9 10.4.5 10 2.6 14.4 6.9 14.4 2.1 0 2.4-.5 2.7-4.2.3-3.4.8-4.3 3.2-5.3 3.6-1.5 6.6-.6 8.7 2.6 2 3.1 1.4 10.6-1.7 22.1l-2.2 8.2-7.6-.5c-10.6-.7-12.6.4-13 7.4-.3 5.9 1.2 7.4 5.3 5.2 5.9-3.1 7.1 4.7 3.4 21.4-2.6 11.8-1.6 18.7 3.2 23.6 1.7 1.6 3.5 3 4 3 .6 0 .7.5.4 1-.4.6-.2 1.7.4 2.4.8 1 .2 1.9-2.7 3.7-9.5 6.1-8 23.6 2.3 26.5 3.8 1 3.9 1.3 5.5 7.8 1.7 7 3.9 10.7 8.1 13.8 3.5 2.6 17.2 5.8 25.6 6.1 9.4.3 11.5-1.5 11.9-10 .3-5.6.3-5.6-.6-1.6-2 9.5-4.6 10.9-16.6 9.3-17.3-2.3-23.3-5.6-25.9-14.3-2.4-8.1-2.1-10.3 1.6-11.1 6.7-1.3 9.1-.7 12.3 2.9 4.6 5.2 10.5 6.2 38.9 6.8 13.1.3 24.1.7 24.3 1 .3.3-.1 2-.8 3.8-.8 1.9-1.5 5.4-1.7 7.9s-.4 4.7-.6 4.9-1.6 0-3-.3c-1.7-.4-3.1-1.9-4-3.9-.9-1.9-1.4-2.5-1.5-1.4 0 2.3 4.4 6.7 6.7 6.7 1 0 2.3 1 2.8 2.2 3 6.8 40.7 7.7 47.2 1.2 1.3-1.3 3.7-3.1 5.4-3.9 1.6-.9 3.4-2.7 3.9-4.1 1.5-3.9 1.1-5.3-.4-1.8-1.5 3.4-5.6 6.8-6.7 5.6-.4-.4-.9-2.7-1-5.2-.2-2.5-.9-6-1.7-7.9-.7-1.8-1.1-3.5-.9-3.8.3-.2 10.8-.6 23.3-.9 12.6-.3 25.6-.9 28.9-1.5 6.9-1.2 12-4 12.8-6.9.4-1.6 1.4-2 4.9-2 7.5 0 9 .8 8.3 4.4-2.5 13.4-5.3 16.6-17 19.6-10.1 2.6-21.8 3.1-23.9 1-.8-.8-2.2-4.2-3-7.5l-1.5-6 .4 5c.8 11.1 4.4 13.3 18 11.4 20.1-2.8 26.3-7.4 28.3-21.1.7-5.2.8-5.3 4.8-6.1 2.3-.4 5.2-1.9 6.5-3.3 2-2.2 2.4-3.5 2.4-9.2-.1-7.9-2.1-12.4-6.5-14.4-1.8-.8-2.8-1.8-2.5-2.6s.5-2 .5-2.8c0-.7 1.3-2 2.9-2.8 5.7-3 7.6-13.9 4.5-26-.9-3.3-1.7-9.1-1.8-12.9-.1-5.1-.3-6.2-1.1-4.6-.6 1.5-.3 5.5 1 12.8 3.3 19.2 3.2 21.9-1.1 27.1-3.5 4.1-4.8 3.8-6.4-1.3-.7-2.3-2-5.8-3-7.7l-1.8-3.5 2.8-3.4c5.5-6.5 6.3-18.5 2.2-31.9l-2-6.2h7.8c9.1 0 11 .5 11 3.1 0 1 .5 1.9 1.1 1.9s.8-.7.5-1.6-.6-1.9-.6-2.4c0-1.8-6.3-3.2-13.2-2.9l-7.2.4-1.4-4.5c-2.4-8.2-4.2-18.9-3.5-22 .8-4.1 4.9-7.3 8.3-6.5 3.9 1 5 2.4 5 6.7 0 3.7.2 3.9 2.7 3.6 3.9-.4 6.2-5 6.9-13.9.6-6.9.5-7.7-1.7-10.1-2-2.3-3.8-2.9-11.4-3.9-14.2-1.9-22.4-2.2-25.5-.9-4.7 2-7 8-7 18.5 0 11.1 1.1 10.5 1.5-.9.3-10.6 2.2-14.4 8.3-16.6 3.5-1.2 5.2-1.2 11.4-.1 4 .7 10.3 1.6 14 2s7.3 1.2 8 1.9c1.6 1.6 1.5 12.6-.2 17.6-1.1 3.5-4.1 6.2-5.4 4.9-.3-.3-.6-2.1-.6-3.9 0-7.3-11-9.1-14.5-2.3-2.8 5.4-1.5 14.1 5.2 34.4 4.7 14.3 5.1 24.5 1.3 31.4-1.4 2.5-3 4.6-3.7 4.8-.6.2-3.3-2.9-5.9-6.9-8-12.3-13.1-22.9-14.9-31.4-2.8-13.1-5.4-20.1-10-26.2-4-5.5-4.3-6.5-5.4-15.8-1.7-14.1-3.2-15.8-14.3-17-6-.6-6.6-.9-8.2-3.9-2.6-4.8-8.4-7.5-20.5-9.6-13.7-2.4-29.5-2.3-43.1.2m43.8 2c15.4 2.7 16 3.1 23 19 1.8 3.9 4.5 8 6.7 10 19.1 17.1 21.7 21.1 25.4 38.4 2.6 11.9 4.8 16.9 13.4 30.6 7.6 12.2 10.6 18 13.7 26.7 2.8 7.7 1.9 9.4-4.4 8.4-3.7-.7-4.1-1.1-6.6-7.2-1.5-3.6-6.1-14.4-10.2-24s-9.6-23.1-12.3-30c-9.7-25.7-12.1-29.5-22.8-36.5-1.6-1-5.5-5.8-8.7-10.6-7.1-10.5-9.4-12.4-16.8-14.1-7.6-1.6-36-1.7-43.4 0S97.1 45.4 90 56c-3.2 4.8-6.5 9-7.2 9.2-.7.3-3.8 2.6-6.9 5.1-6.6 5.4-7.3 6.7-20.4 39.2-5.1 12.6-11.7 28.6-14.7 35.5-3.1 6.9-6 13.8-6.5 15.5-.8 2.5-1.6 3.1-5 3.5-4.8.7-6.3.3-6.3-1.5 0-4.1 6.9-19.3 13.1-29 9.8-15.4 13.6-23.5 16-34.5 3.6-17.2 6.1-20.9 25.7-39.1 4-3.7 5.5-6.1 8.2-13.3 4.4-11.5 6.4-12.9 22.1-15.6 18.6-3.1 23.7-3.1 41.7.1m1.9 13.9c4.7 1.4 7.1 3.7 13.9 13.6 3 4.4 7.4 9 11.3 12 3.5 2.7 7.3 6.1 8.3 7.5 1 1.3 7.2 15.7 13.7 31.9s13.9 34 16.4 39.5c5 11.2 7.7 19.8 7.7 24.3 0 2.4-1.2 4.2-5 8-3.8 3.7-5 5.7-5 7.9 0 1.7-.9 4.2-2 5.6-3.5 4.4-10.1 5.2-41.5 5-15.4-.2-33.6-.3-40.5-.3-6.9-.1-22.8.2-35.5.5-33.8 1-47.7-1.1-49-7.2-.4-1.5-.9-3.9-1.1-5.2-.3-1.4-2.5-4.3-5-6.5-3.5-3.1-4.4-4.6-4.4-7.2 0-3.7 3.7-15.3 7.8-24.4 4.1-9.2 13.1-30.9 19.8-48 8.9-22.9 11-26.1 20.8-32.8 2.2-1.5 6.4-6.4 9.7-11.4 6.8-10.1 8.9-11.7 17.3-13.5 7.4-1.5 36-1 42.3.7m29.8-.5c6.8 1.1 7.9 3.2 10 18.9l.7 5-4.1-3.5c-2.2-1.8-5.6-4.7-7.5-6.2-3.2-2.5-8.6-11.9-8.6-14.7 0-.7 1.1-1 2.8-.6 1.5.2 4.5.8 6.7 1.1M24.4 103.2c-5.3 16.7-4.4 31.1 2.4 37.2 2.1 1.8 2.1 1.9.3 5.5-1 2-2.4 5.4-3.1 7.6-1.7 5.5-1.9 5.6-4.1 4.4-5.8-3.1-7.3-12.1-4.4-26.1 2.3-10.6 2.3-17.3 0-19.8-2-2.2-6.1-2.7-6.8-.8-.9 2.1-2.7-1.3-2.7-4.9 0-4.3 1.9-5.2 11.3-5.3 7.7 0 7.8 0 7.1 2.2m7 68.3-.7 6.5 5.2 4.7c2.8 2.5 5.1 5.2 5.1 5.9 0 2.2-16.8 4.2-21.1 2.4-3.6-1.5-4.9-4.4-4.9-11 0-6.4 3.4-10.4 11-13 3-1.1 5.6-1.9 5.8-2 .1 0 0 2.9-.4 6.5m203.4-3.4c5.3 2.3 7.6 7 6.9 14.2-.6 6.7-2.9 8.8-9.8 9-7 .1-15.9-1.3-15.9-2.5 0-.6 2.3-3.2 5.1-5.9 5.1-4.9 5.2-5.1 4.6-9.7-.3-2.6-.9-5.5-1.2-6.4-.6-1.6-.3-1.7 2.6-1.2 1.9.4 5.3 1.5 7.7 2.5m-114.2 35.5c-1.8 7.2-1.8 8.2.3 10.3 1.7 1.7 3.3 2.1 8.1 2.1 5.2 0 6.2-.3 7.5-2.4 1.3-1.9 1.4-3.2.6-6.7-1.4-6-1.4-6.1 1.2-5.7 5.2.7 7.7 13.4 3.5 18.3-5 5.6-20.6 5.9-26.1.4-2.7-2.7-2.9-3.5-2.5-8.4.5-6.2 3-10.5 5.9-10.5 1.8 0 2 .4 1.5 2.6m5.4.4c0 1.6.4 3 .8 3 .5 0 .7-1.4.4-3-.3-2.3-.1-3 1.3-3s1.6.7 1.3 3c-.3 1.6-.1 3 .4 3 .4 0 .8-1.4.8-3q0-3 1.5-3c3.7 0 5 11.1 1.6 13-2.5 1.3-8.7 1.3-11.2 0-3.4-1.9-2.1-13 1.6-13q1.5 0 1.5 3m-12.6 1.5c-1.9 4.6-1.8 11.5.2 14.4 2.4 3.4 7.4 5.1 14.9 5.1s12.5-1.7 14.9-5.1c2-2.9 2.1-9.8.2-14.4-1.3-3.1-1.3-3.5 0-3.5 3.1 0 6.1 4.5 7.3 11.2 1.4 7.3.9 10.3-1.9 11.8-1 .5-5.9 1.7-10.9 2.5-7.4 1.3-10.5 1.4-17.3.5-15.4-2.1-17.3-4.2-14.4-15.8 1.6-6.5 4.2-10.2 7.2-10.2 1.1 0 1 .6-.2 3.5"/>
        <path d="M127 32c0 .5.7 1 1.5 1s1.5-.5 1.5-1c0-.6-.7-1-1.5-1s-1.5.4-1.5 1m-10 1c0 .5.5 1 1 1 .6 0 1-.5 1-1 0-.6-.4-1-1-1-.5 0-1 .4-1 1m20-.6c0 .2.7.6 1.5 1 .8.3 1.5.1 1.5-.4 0-.6-.7-1-1.5-1s-1.5.2-1.5.4m-30.2 2.3c.7.3 1.6.2 1.9-.1.4-.3-.2-.6-1.3-.5-1.1 0-1.4.3-.6.6m42 0c.7.3 1.6.2 1.9-.1.4-.3-.2-.6-1.3-.5-1.1 0-1.4.3-.6.6M92.5 40c-.3.5-.2 1 .4 1 .5 0 1.3-.5 1.6-1 .3-.6.2-1-.4-1-.5 0-1.3.4-1.6 1m70 0c.3.5 1.1 1 1.6 1 .6 0 .7-.5.4-1-.3-.6-1.1-1-1.6-1-.6 0-.7.4-.4 1m-91 29c-.3.5-.2 1 .4 1 .5 0 1.3-.5 1.6-1 .3-.6.2-1-.4-1-.5 0-1.3.4-1.6 1m111.5-.6c0 .2.7.7 1.6 1 .8.3 1.2.2.9-.4-.6-1-2.5-1.4-2.5-.6M64.5 77c-.3.5-.1 1 .4 1 .6 0 1.1-.5 1.1-1 0-.6-.2-1-.4-1-.3 0-.8.4-1.1 1m-16.8 41.7c-.4.3-.7 1.3-.7 2.2.1 1.3.3 1.3 1.1-.2 1.1-1.9.8-3.3-.4-2m160.3.2c0 .5.5 1.3 1 1.6.6.3 1 .2 1-.4 0-.5-.4-1.3-1-1.6-.5-.3-1-.2-1 .4m-165.5 9.2c-1.1 1.7.1 2.1 1.5.4.8-.9.8-1.5.2-1.5s-1.4.5-1.7 1.1m170.5.4c.7.9 1.5 1.3 1.7 1.1.7-.7-.7-2.6-1.9-2.6-.6 0-.6.6.2 1.5m-174.9 8.3c-.7 1.3-1.1 2.6-.8 2.8.8.8 2.9-2.5 2.5-3.8-.3-.8-.9-.4-1.7 1m178.9-1.2c0 .5.7 1.9 1.5 3 .8 1 1.5 1.4 1.5.8 0-.5-.7-1.9-1.5-3-.8-1-1.5-1.4-1.5-.8m-183.3 10c-.4.4-.7 1.7-.7 2.8.1 1.9.1 2 1.1.3 1.1-1.9.8-4.3-.4-3.1m188.3.6c0 .7.5 2 1 2.8.8 1.2 1 1.1 1-.7 0-1.2-.4-2.5-1-2.8-.5-.3-1 0-1 .7M29.4 157.4c-.8 3.5.1 4.4 1.6 1.6.8-1.5.9-2.5.1-3.3-.7-.7-1.2-.2-1.7 1.7m195.6-1.3c0 .8.7 2.4 1.5 3.5 1.1 1.5 1.4 1.6 1.5.3 0-.8-.7-2.4-1.5-3.5-1.1-1.5-1.4-1.6-1.5-.3M111.1 48c0 .8.6 2.8 1.4 4.5l1.4 3-.6-3c-.7-3.8-2.2-6.8-2.2-4.5m33.1 1.9c-.7 1.9-1.2 4.1-1.1 5 0 .9.7-.2 1.5-2.3.8-2.2 1.3-4.5 1.1-5-.2-.6-.9.5-1.5 2.3m-41.5 4.6c1.5 3 2.9 5.3 3.1 5.1.4-.5-4.6-10.6-5.3-10.6-.3 0 .7 2.5 2.2 5.5m52-3.2c-1.8 2.8-4.8 9.7-4.2 9.7.3 0 1.8-2.7 3.5-6 3.1-6.2 3.4-7.8.7-3.7m-43.6 12c-4.4 1.4-9.7 6.9-13.1 13.7-1.5 3-5.9 13.8-9.9 24-9.1 23.3-18 46-22.6 57.2-1.9 4.8-3.5 10.3-3.5 12.1 0 4.5 5.3 9.6 11.2 10.8 5.1 1 103.3 1.2 110.3.3 5.9-.9 11.5-6 11.5-10.7 0-1.7-4.2-13.7-9.4-26.6-5.2-13-12.4-31.5-16.1-41.1-11.7-30.6-16-37.4-25.2-39.9-4.9-1.4-28.7-1.2-33.2.2m37 6c4.8 3.2 8.1 9.2 14.8 26.7 10 26.5 17.1 44.1 22.6 56 7.3 15.8 7.9 18.3 5.2 21.6-4.2 5.4-4.2 5.4-62.2 5.4-57 0-57.6 0-61.9-4.8-2.6-3-1.8-6.9 4.3-20.3 5.4-11.7 16.4-38.7 23.7-58.1 5.9-15.8 8.5-20.7 13.3-25.1L112 67h16.4c15.3 0 16.5.1 19.7 2.3"/>
        <path d="M114.6 74.6c-.3.9-.6 1.7-.6 1.9s2 1.5 4.5 3c18.8 10.9 36.8 40.5 35.2 57.7-.3 3.3-1.6 8.2-3.1 11.1-4.5 9.3-16.8 16.5-25.7 15.1-4.3-.7-8.9-4.6-8.9-7.6 0-2.9 4.6-7.1 7-6.3s2.8-2 .4-2.9c-5.8-2.2-11.4 1.8-11.4 8.3 0 3.1.7 4.9 3.1 7.6 4.3 4.9 7.8 6.5 14.2 6.5 16.5 0 29.5-12.7 32.6-31.9 1.1-7.1-.1-22.6-2.5-31.5-2.5-9-8.8-20.9-13.8-26.2-6.7-6.9-9.1-3.9-3.7 4.5 3.2 5 8.5 16.1 9.6 20.1.4 1.4-1.3-.4-3.6-4-5.6-8.4-14.9-17.7-22.9-22.9-6.8-4.4-9.4-5-10.4-2.5"/>
        <path d="M102.3 92.4c.3.8-.4 1.8-1.8 2.4-4.1 1.9-2.5 4.6 3.1 5.4 15.5 2.3 25.6 8.8 39.2 25.3l3.3 4-.6-3.5c-1.8-9.5-16.2-26.3-27.4-31.8-7-3.5-16.9-4.6-15.8-1.8m2.7 16c0 .2.9 2.3 2 4.7 4.1 9.1 1.9 15.8-9.3 27.8-5 5.3-8 9.4-9 12.5-.9 2.5-1.4 4.6-1.2 4.6s1.4-1.7 2.6-3.8c1.3-2 6.2-7.8 11-12.7 10.9-11.4 12.9-15.2 12.8-24.2-.1-5.8-.2-6.3-.9-3-.9 4.9-1.6 5.4-2.3 1.7-.7-3.4-3.5-8-4.8-8-.5 0-.9.2-.9.4m64.3 28.3c.8 1.5 2 5.4 2.6 8.5 1.4 7.6-.4 13.4-6 20-4.6 5.4-2.5 5.1 3-.4 5.2-5.3 6.4-8.3 5.9-15.7-.4-6.8-3.2-14.1-5.6-14.9-1.1-.3-1.1.2.1 2.5"/>
        <path d="M166 142.3c0 .4.7 2.2 1.6 3.9 1.2 2.3 1.5 4.7 1.1 8.7-.5 5.3-.4 5.5.9 2.6 2.1-4.9 1.7-10-1.1-13.2-1.3-1.5-2.5-2.4-2.5-2M79 75.7c0 .9 9.5 7.3 10.7 7.3.3 0-1.8-1.8-4.7-4-5.7-4.3-6-4.4-6-3.3m93.2 3c-2.8 2.1-4.9 3.9-4.7 4.1.5.6 10.5-6.2 10.5-7 0-1.2-.5-1-5.8 2.9M71.1 86.5c.9.9 14.2 5.6 14.6 5.2.5-.5-12.2-5.7-13.9-5.7-.6 0-.9.2-.7.5m106.6 1.9c-6.2 2.6-8.9 4.4-4.7 3.1 4.8-1.4 13-4.6 13-5.1 0-.9-2.8-.2-8.3 2M46 168.2c-8.6 1-9.8 1.3-8.7 2.4.9.9 17.7-1.7 17.7-2.7 0-.5-.1-.8-.2-.8-.2.1-4.1.6-8.8 1.1m156.7-.1c.8.7 12.7 2.9 15.8 2.9 1.2 0 1.5-.3 1-.9-.6-.6-4.7-1.4-9.3-1.8-4.5-.5-7.9-.6-7.5-.2M55.1 183c-5.8 4.9-7.6 6.8-7 7.5.2.2 3.6-2.6 7.4-6.1 8.3-7.6 8.1-8.5-.4-1.4m146.4 1.2c3.9 3.6 7.2 6.4 7.5 6.1.6-.6-9.5-9.8-12.5-11.5-1.1-.6 1.2 1.8 5 5.4m-116 8.9c-.9 2.8-1.4 5.3-1.1 5.6.6.7 2-2.7 3.1-7.5 1-4.9-.1-3.8-2 1.9m84.1-2.1c.6 3.5 3.3 9.4 3.4 7.5 0-.6-.9-3.3-2-6-1.7-4.2-1.9-4.4-1.4-1.5m-73.3 3.5c0 2.7.2 3.8.4 2.2.2-1.5.2-3.7 0-5-.2-1.2-.4 0-.4 2.8m64 0c0 2.7.2 3.8.4 2.2.2-1.5.2-3.7 0-5-.2-1.2-.4 0-.4 2.8M178.2 50c0 .8.4 2.6.8 4 .6 2 .8 2.1.8.5 0-1.1-.3-2.9-.8-4-.5-1.2-.8-1.4-.8-.5m6.9 3.6c0 1.1.3 1.4.6.6.3-.7.2-1.6-.1-1.9-.3-.4-.6.2-.5 1.3m1.1 5.4c0 1.4.2 1.9.5 1.2.2-.6.2-1.8 0-2.5-.3-.6-.5-.1-.5 1.3m35.3-1c-.3.5-.2 1 .4 1 .5 0 1.3-.5 1.6-1 .3-.6.2-1-.4-1-.5 0-1.3.4-1.6 1M39 66c0 1.9.3 2.1 1.2 1.2s.9-1.5 0-2.4S39 64.1 39 66m177.2 0c0 1.4.2 1.9.5 1.2.2-.6.2-1.8 0-2.5-.3-.6-.5-.1-.5 1.3M38.7 80c-.3 1.1-.1 2 .4 2s.9-.9.9-2-.2-2-.4-2-.6.9-.9 2M216 78.7c0 .4.5 1.5 1 2.3.8 1.3 1 1.3 1-.2 0-.9-.4-2-1-2.3-.5-.3-1-.3-1 .2m3 13.4c0 .8.7 2.4 1.5 3.5 1.8 2.4 1.9.7 0-2.6q-1.35-2.4-1.5-.9M35.7 93.3c-1.1 2.9-.9 4.3.4 3 .6-.6.9-1.9.7-2.9-.3-1.8-.4-1.8-1.1-.1M32.2 109c0 1.4.2 1.9.5 1.2.2-.6.2-1.8 0-2.5-.3-.6-.5-.1-.5 1.3m190.9-1.3c0 .4.4 1.7.9 2.8.8 1.9.9 1.9.9-.2.1-1.2-.3-2.5-.9-2.8-.5-.3-1-.3-.9.2M250 110c0 2.1-1.5 2.7-2.5 1-.8-1.3-5.2-1.3-6 0-.4.7.2.9 1.8.5 1.4-.4 2.8-.2 3.1.4 1.1 1.6 4.3 1.3 5-.5.9-2.3.7-3.4-.4-3.4-.5 0-1 .9-1 2m-26.4 13.7c-.6 1.4-.5 1.5.5.6.7-.7 1-1.5.7-1.8s-.9.2-1.2 1.2m-147 87.2c.5.6 4.7 1 9.4 1.1 12.9.2 16.4-.2 8-1-11.5-1.1-18.5-1.1-17.4-.1m85.4.1c-6.8.6-6.3.7 5.3.8 7.9.1 12.7-.2 12.7-.8 0-1.1-5.6-1.1-18 0"/>
    </g>
</svg>
