<svg xmlns="http://www.w3.org/2000/svg" width="341.333" height="341.333" version="1.0" viewBox="0 0 256 256">
    <g fill="#e5e5e5">
        <path d="M103.5 34c-5.5.4-11.2 1.2-12.6 1.8-2.9 1.2-5.9 4.8-5.9 7 0 .8-1.2 2.8-2.6 4.5-3 3.6-6.5 3.8-10 .6-1.1-1-3.3-1.9-4.8-1.9-3.7 0-12.5 4.8-20.8 11.3-3.7 2.8-12 9.3-18.5 14.4C5.3 89.5 3.2 92 5.5 98.6c.8 2.1 1.4 5.4 1.5 7.3 0 4.8 5.3 9.5 23.4 20.6l14.6 9-.6 20c-.7 19.2-.6 20.2 1.5 24.2 1.4 2.8 3.7 5.1 6.6 6.9l4.6 2.6-2.3 1.6c-4.3 2.9-5 6.2-2.2 9.4 1.6 1.6 1.6 1.8 0 2.4-.9.3-1.6 1.7-1.6 2.9 0 2.7 4.3 5.7 10.7 7.4 3.7 1 4.2 1.5 4.5 4.3.4 4.7 3.6 6 12.6 5.4 7.5-.5 12.2-2.4 12.2-5.1 0-1.2 2-1.5 11.5-1.5 10.7 0 11.5.1 11.5 1.9 0 4.1 2.5 5.1 13.3 5.1 11 0 14.7-1.3 14.7-5.1 0-1.8.8-1.9 11.4-1.9 11.1 0 11.5.1 11.8 2.2.4 2.7 5.8 4.6 13.6 4.7 7.5.1 11.2-2 11.2-6.6 0-1.7 1.1-2.5 4.9-3.8 8.8-2.9 12.7-7.8 8.4-10.5-1.7-1-1.7-1 0-2 2.5-1.6 2.1-5.7-1-8.6-1.4-1.3-2.4-2.5-2.2-2.7 5.5-3.8 8.3-6.6 10-10 2.1-4 2.1-5 1.5-23.8l-.7-19.7 8.8-5.3c13.8-8.2 26-16.8 27.7-19.4.9-1.3 1.6-3.7 1.6-5.3s.6-4.7 1.4-6.8c.8-2.3 1-4.8.6-6-1-2.6-10-10.8-22-19.9-5.2-4-12.6-9.8-16.5-13C202.9 51.8 193 46 189.3 46c-1.7 0-4.1.9-5.4 1.9-4.1 3.2-7.3 3-10.3-.6-1.4-1.7-2.6-3.6-2.6-4.1 0-2.5-2.4-6.1-4.9-7.2-5.4-2.5-39.7-3.6-62.6-2m53.4 3.9c7.8.9 10.1 2.4 10.1 6.4 0 1 1.1 3.2 2.4 4.8 3 3.6 3 4-7 33.2-7.6 22.6-8.7 25-12.6 28.7-1.3 1.2-3.7 4.4-5.4 7.3-3.8 6.6-6.8 8.1-16.5 8.1-10.1 0-13.4-1.5-16.4-7.3-1.3-2.5-3.7-6-5.5-7.6-1.7-1.7-3.8-4.1-4.5-5.5C99.6 102.3 84 54.8 84 52.7c0-1.1 1.1-3.2 2.5-4.9 1.4-1.6 2.5-4 2.5-5.3 0-2.8 1.8-3.7 9.5-4.5 8.9-1 49.9-1 58.4-.1M70 51c1.1 1.1 3 2 4.3 2 4.4 0 5.9 2.4 10.7 17.5 1.8 5.5 5.3 15.4 7.7 22 4.4 11.7 4.5 12.3 4.8 25.5l.3 13.5-4.8 4.6c-2.6 2.6-6.8 5.9-9.3 7.3l-4.6 2.7-6.4-2.5c-3.5-1.4-7.7-2.6-9.4-2.6-4.5 0-49.4-27.4-52.8-32.3-.8-1.2-1.5-3.8-1.5-5.9 0-2-.5-4.9-1.2-6.3-1.5-3.4-.8-4.1 22.7-22.9C51 57.1 56.7 53 62.1 50.7c4.6-2.1 5.6-2 7.9.3m127.5 1.7c7.7 4.7 49.2 37.8 50.5 40.4.7 1.3.7 2.5 0 3.8-.5 1.1-1 3.8-1 6.1 0 5.1-1.5 6.6-17 16.8-24.9 16.3-32.1 20.4-37.4 21.2-2.8.4-7.2 1.7-9.8 2.9-5.6 2.6-7.4 2.1-15.9-4.5-8.7-6.6-8.7-6.8-8.5-21.9l.2-13 7.8-22.7c9-26.1 10.4-28.8 14.4-28.8 1.6 0 3.7-.9 4.7-2 2.6-2.9 5.1-2.5 12 1.7M108 120.1c4.2 8.1 11.8 10.9 25.1 9.4 7.3-.9 11.6-3.6 14.9-9.7 2.8-5.1 5.8-8.8 7.3-8.8.5 0 .6 4 .2 10.2-.7 12.5 0 14.1 10.1 21.7 8.5 6.5 11.6 7.1 19 3.7 3.1-1.4 7.1-2.6 8.8-2.6 1.9 0 5.6-1.4 8.8-3.4l5.6-3.3.7 15.2c.4 8.3.4 17.2 0 19.6-.9 5.6-4.4 11-8.8 13.8-3.1 1.9-4.1 2-7.9 1.1-2.3-.5-7.7-.9-11.8-.8l-7.5.1 6.5.7c12.7 1.6 20.1 4 23 7.5 1.1 1.4 1 1.9-.7 3.6-1.9 2-2.3 2-9.4.5-4.1-.8-11.6-1.8-16.6-2.2l-9.3-.7v-4.4c0-3.3-1.4-7.3-5.3-15.6-2.9-6.2-6.3-13.9-7.6-17.3-1.8-5-3.4-7.1-9.1-12.1-5.9-5.2-7.7-6.2-12-6.8-8.4-1.1-13.6.7-20.6 7.4-4.9 4.7-6.7 7.4-9.3 13.7-1.8 4.4-5.3 12.3-7.7 17.7-2.5 5.4-4.6 11.6-4.7 13.7l-.1 3.8-9.1.7c-4.9.3-12.1 1.3-15.9 2.1-6.2 1.2-7.3 1.2-9.3-.1-2.9-1.9-2.9-2.6 0-5.2 2.6-2.5 10.4-4.9 20.2-6.2l7-1-9.5.4c-5.2.2-10.4.6-11.5 1-1.4.4-3.2-.4-6.3-3-7.4-6.4-7.7-7.6-7.6-27.7 0-9.8.3-18 .6-18.3s2.7.8 5.4 2.4c2.7 1.8 6.1 3.1 8 3.1 1.7 0 5.8 1.2 9 2.6 7.5 3.3 10.3 2.8 19.6-4 10.4-7.7 11.2-9.4 10.3-22l-.7-10.1 3.2 3c1.8 1.6 4 4.6 5 6.6m33.9 28.7c5.1 5.1 6.6 7.4 10.4 16.8 2.5 6 5.9 13.8 7.6 17.4 3.1 6.5 4 12.3 2.1 13.5-.5.3-1 1.5-1 2.5 0 4-3.1 4.4-33 4.5-19.1 0-29.1-.4-30.4-1.1-2.1-1.2-4.6-7.5-4.6-11.5 0-1.4 1.7-6.1 3.8-10.5 2.1-4.3 5.3-11.7 7.2-16.4 2.7-6.9 4.4-9.7 9.4-14.8l6-6.2H136zm-49.1 52.4c1.4 5.5 4.5 6 36.7 5.6 24.6-.3 28.4-.5 30.7-2 1.5-1 2.8-2.8 3-4 .3-2.2.6-2.3 9.8-2 10.2.4 20.7 2.2 26.6 4.7 3.6 1.5 3.6 1.6 1.9 3.5-2.2 2.4-9 4.7-18 6-3.9.5-28.6 1-55.5 1-48 0-58-.6-67.1-3.6-5.6-1.8-8.6-4.6-6.7-6.2 3-2.4 21-5.7 33-6.1 4.5-.1 4.8 0 5.6 3.1m94.2 17.3c-2.3 2.8-20 1.3-20-1.6 0-.5 2.4-.9 5.3-1 2.8 0 7.5-.4 10.2-.7 5.3-.7 6.9.4 4.5 3.3m-98.1-1.9c2.8 2.5-16.5 4.8-19.4 2.4-.8-.7-1.5-1.9-1.5-2.7 0-1.2 1.6-1.3 10.3-.8 5.6.4 10.4.9 10.6 1.1m50.9 1.1c-.4 2.2-3.8 3.1-11.8 3.1s-11.4-.9-11.8-3.1c-.3-1.5.9-1.7 11.8-1.7s12.1.2 11.8 1.7"/>
        <path d="M92.2 49c-2.7 4.8-1 5.4 1.8.7 2.1-3.4 2.5-4.7 1.3-4.7-.5 0-1.8 1.8-3.1 4m68.3-1.8c.8 2.6 4.2 6.5 5 5.6.3-.3-.4-1.6-1.5-3.1-1.1-1.4-2-3-2-3.6s-.5-1.1-1.1-1.1-.8.9-.4 2.2M102 48.7c-2.6 1-5 3.6-5 5.4 0 4 17.9 55.2 20.1 57.6 2.2 2.2 2.9 2.4 11.3 2.1l9.1-.3 2.2-4c1.2-2.2 4.6-11.7 7.6-21 3.1-9.4 6.9-20.7 8.6-25.3 2.9-7.7 3-8.5 1.6-11.1-.8-1.6-2.5-3.1-3.7-3.5-2.8-.7-49.7-.7-51.8.1m53.2 3c1 .9 1.8 2.2 1.8 2.9 0 2.9-17.9 54.6-19.5 56.4-1.5 1.7-3.1 2-9.5 2-11 0-10.8.3-19.5-27-2.5-8-5.6-17.4-6.9-21-3.9-10.4-3.9-10.7-1.7-12.9 2-2 3.2-2.1 27.8-2.1 22.5 0 25.9.2 27.5 1.7"/>
        <path d="M113.8 58.1c-3.3 1.8-2 10.4 5.1 34.9 3.8 13.3 7.1 16.5 12.8 12.5 2.4-1.7 4.6-8 9.4-27.5 3.5-13.8 3.7-18.5 1-20-2.5-1.3-26-1.3-28.3.1m26.6 1.5c.9.3 1.6 1.7 1.6 2.9 0 5.1-8.3 36.5-10.6 40.2-.9 1.4-2.4 2.3-3.8 2.3-3 0-4.1-2.7-9.6-24-3.9-15.2-4.7-20-3.3-21.3.8-.9 23.6-.9 25.7-.1"/>
        <path d="M123 64.8c-2.8 2.2-3.7 8.9-1.7 11.7 2.3 3 10.2 2.8 12.8-.4 4.1-5.1.7-13.1-5.6-13.1-1.8 0-4.3.8-5.5 1.8m9.2 3.5c2.1 3.2-.7 7-4.7 6.5-4.1-.4-6-5.3-3-7.4 2.2-1.6 6.5-1.1 7.7.9M123 83.4c0 1.4 4.4 11.6 5 11.6.4 0 1.6-2.5 2.8-5.5 1.4-3.8 1.6-5.2.6-4.4-.7.6-1.6 1.9-1.9 3-.9 2.7-2.1 2.4-3.5-1.1-1.1-2.7-3-5-3-3.6M65 55c0 1.1 5.9 5 7.5 5 1.1-.1-5.6-5.9-6.7-6-.5 0-.8.5-.8 1M51.3 70.2C23.1 91.6 20 94.4 20 98s1.4 5.1 9.5 10.1c3.9 2.4 13.4 8.7 21.1 14C66.9 133.3 69.9 135 73.5 135c3.5 0 14.3-8.5 15.2-11.8.4-1.6-.4-5.4-2-10.1-13.6-40.2-16.8-48.7-18.3-49.8-3.4-2.5-6.3-1.3-17.1 6.9m17.5-5c.5.7 2.5 6.2 4.5 12.3 1.9 6 5.8 17.3 8.7 25 6.1 16.6 6.5 20.9 2.4 24.2-8.4 6.8-10.1 7.6-13.7 6.4-1.8-.6-11-6.4-20.5-12.9-9.4-6.4-19.6-13.2-22.6-15.1s-5.7-4.2-5.9-5.2c-1.1-4 .5-5.5 32.6-29.9 8-6.1 12.3-7.5 14.5-4.8"/>
        <path d="M61 71.7c.8.3 2.9 1.2 4.5 2l3 1.4-2.4-2.1c-1.3-1.1-3.3-2-4.5-1.9q-2.1 0-.6.6m-8.2 4.9c-1.5 1.4-.8 1.9 3.1 2 5.1.2 10.6 3.6 13.2 8.2 1.4 2.7 1.8 3 1.3 1.2-.7-3.2-3.4-6.9-6.5-9.2-2.7-1.9-10-3.4-11.1-2.2M48 86.8c-4.6 2.3-6.2 5.5-5.7 12s4.1 12.1 10.9 16.7c6.5 4.5 10.8 5.2 16.4 2.5 7.7-3.8 10-.4 3.9 5.7-2 2-3.3 3.8-3 4.2 1 .9 7.8-3.4 9.9-6.3 2.5-3.2 1.4-6.9-2.7-10-2.7-2-2.9-2-7.6-.3-6.9 2.4-8.9 2.2-15.3-1.8-6.8-4.3-9.3-9.1-7.7-15 1.8-6.6 10.3-8.1 14.2-2.4 2.1 2.9 1.1 4.9-2.4 4.9-3.3 0-3.9 1.6-.9 2.5 2.8.9 5.8-.3 7.1-2.7 1.7-3.2-.6-7.4-5.5-9.8-5.2-2.5-7.1-2.5-11.6-.2m23.1 5.8c0 1.1.3 1.4.6.6.3-.7.2-1.6-.1-1.9-.3-.4-.6.2-.5 1.3M33 95.2c.1 1.8.7 4.6 1.5 6.3l1.4 3-.7-3.5c-.4-1.9-.7-4.7-.7-6.3 0-1.5-.3-2.7-.7-2.7-.5 0-.8 1.5-.8 3.2M12.9 99c.9 2.7 2 5 2.5 5 1.2 0 0-6.8-1.5-8.6-2.2-2.7-2.5-1.4-1 3.6M186 57l-3.5 3 3-1c3.4-1.3 5.5-2.8 5.5-4.1 0-1.5-1.4-.9-5 2.1m.8 6.1c-1 .5-2.9 4.7-4.4 9.7-1.5 4.8-5.5 16.7-9 26.5-3.7 10.3-6.4 19.5-6.4 21.7 0 3.6.6 4.4 6.2 9.1s6.5 5.1 10.1 4.6c2.6-.4 6.9-2.6 12.6-6.5 4.7-3.3 13.8-9.4 20.1-13.5 20.5-13.6 19-12.3 19-16.2 0-4.4-.4-4.8-22-21.5-20.7-16-21.8-16.5-26.2-13.9m23.7 14c9.4 7.2 18.5 14.5 20.3 16.2 4.6 4.4 4.1 7.3-2.1 11.2-2.7 1.6-13 8.6-22.9 15.4s-19.4 12.7-21 13.2c-3.6 1-6.3-.2-12.5-5.6-5.3-4.5-5.4-6.7-1.2-18.5 1.7-4.7 5.8-16.4 9.1-26s6.2-17.8 6.4-18.2c.3-.5 2-.8 3.7-.8 2.6 0 6.6 2.7 20.2 13.1"/>
        <path d="m189.9 73-2.4 2.1 3-1.4c1.7-.8 3.7-1.7 4.5-2q1.5-.6-.6-.6c-1.2-.1-3.2.8-4.5 1.9m5.5 4.1c-3.1.9-9.4 6.9-9.4 9 0 .6 1.5-.5 3.3-2.4 3.3-3.6 10.1-6.2 13.1-5.1 1.1.4 1.6.1 1.6-1 0-1.8-3.5-2-8.6-.5m1.6 10.1c-4.8 2.5-7.5 6.6-6.5 9.8.8 2.6 4.7 3.5 7.7 1.8l2.3-1.3-3-.3c-1.6-.2-3.4-.7-3.8-1.2-1.4-1.3 1.2-5.1 4.6-6.5 6.2-2.6 10.7 1.4 10.7 9.5 0 3.3-.6 4.4-4.6 7.9-6.5 5.7-11.1 7-17.2 4.8-2.6-1-5.2-1.7-5.9-1.7-2.3 0-7.3 5.2-7.3 7.6 0 2.6 5.1 9 8.1 9.9 3.8 1.2 4-.7.4-4.6-1.9-2.1-3.5-4.6-3.5-5.4 0-1.9 2.9-1.9 5.5-.1 3.8 2.6 8.1 2.9 12.8.8 13.7-6.1 21-21.4 14-29.2-3.8-4.2-8.5-4.8-14.3-1.8M184.2 93c0 1.4.2 1.9.5 1.2.2-.6.2-1.8 0-2.5-.3-.6-.5-.1-.5 1.3m37.2 2.2c0 1.8-.3 4.6-.7 6.3l-.6 3 1.4-3c1.5-3.3 2-9.5.7-9.5-.4 0-.8 1.5-.8 3.2m20.1 1.8c-1.7 3.3-2 7-.5 7 .6 0 1-1 1-2.3 0-1.2.7-3.4 1.4-5 .8-1.5 1.1-2.7.6-2.7s-1.6 1.3-2.5 3M87.3 150.7c-2.1.8-1.6 6.1.7 7.3 2.8 1.5 6-.4 6-3.5 0-3.2-3.4-5.2-6.7-3.8m5.2 4.4c-.9 1.4-4.2 1.1-4.8-.5-.3-.8-.1-1.7.6-1.9 1.7-.6 4.9 1.2 4.2 2.4m71.1-3.6c-3.6 3.7-.6 8.7 4 6.6 2.1-.9 2.5-1.7 2.2-4.4-.4-3.7-3.5-4.9-6.2-2.2m4.7 3.1c-.5 1.4-3.5 1.9-4.6.7-.4-.3-.2-1.2.3-1.9 1.4-1.6 5-.6 4.3 1.2M65 158.1c-4.2 1.7-6 4-6 7.6 0 10.9 11.6 15.9 19.2 8.3 7.9-7.9-2.5-20.4-13.2-15.9m11.7 4.1c3.3 3 3.1 8-.3 10.7-5.5 4.3-13.8 1.3-14.9-5.4-1.2-7.2 9.3-10.9 15.2-5.3m103.6-3.3c-8.1 5.1-7 14.6 2.1 18.1 6.5 2.4 13.5-2.5 14.3-10.2.4-3.6.1-4.7-1.9-6.5-3.5-3.3-10.4-4-14.5-1.4m9.2 1.5c4.8 2 6.2 5.4 4 9.5-2 4-5.3 5.5-9.9 4.7-7.7-1.5-9.2-11.1-2.2-14.2 3.9-1.7 4-1.7 8.1 0m-62-11.1c-.4 1.5-.3 4.4.2 6.4l.9 3.8.8-5.4c.8-5.8-.7-9.6-1.9-4.8m-2 14.4c-12.4 3.2-14.3 21.1-2.7 26 7.3 3.1 15.9-1.4 18.2-9.5.8-3.1.6-4.4-1.3-8.1-3.2-6.5-8.8-9.8-14.2-8.4m8.1 5.9c2.6 1.8 5.4 6.3 5.4 8.8 0 .8-1.2 2.8-2.6 4.5-2.2 2.7-3.2 3.1-7.5 3.1-8.6 0-13.7-5.7-10.5-11.8 3.1-6 9.9-8 15.2-4.6"/>
        <path d="M123 173.9c-3.8 7.1 6 13 9.9 6 1.3-2.4 1.3-2.9-.2-5.3-2.2-3.3-8-3.7-9.7-.7m22 14.5c0 .7 8.3 6.6 9.2 6.6 2.2 0 .3-2.9-3.1-4.8-3.6-2-6.1-2.8-6.1-1.8m-41.3 4.3c-2.6 1.8-3.5 2.9-2.7 3.7.7.7 2.1-.1 4.8-2.7 4.3-4.3 3.4-4.7-2.1-1m23.9 4.9c-.7 2.8 0 4.7 1.5 3.9 1.2-.8 1.2-5.2 0-5.9-.5-.3-1.2.6-1.5 2"/>
    </g>
</svg>
