<svg xmlns="http://www.w3.org/2000/svg" width="341.333" height="341.333" version="1.0" viewBox="0 0 256 256">
    <g fill="#e5e5e5">
        <path d="M101.3 22.9C96 23.8 94 25.5 94 29c0 2.3-.8 3.2-4.7 5.1l-4.8 2.4-.5 8.6c-.5 8.3-1.8 11.9-4.3 11.9-.6 0-3.4-2.3-6.2-5-4.1-4.1-6.1-5.2-10.1-6-2.7-.5-6-1.2-7.4-1.5-5-1.2-23 13.4-23 18.7 0 1.2-1.7 4-3.9 6.3C21.6 77.3 15 86.4 15 88.9c0 1.3.8 3.3 1.7 4.4 1.7 1.8 1.7 2-1.2 4-1.6 1.2-3.8 2.7-5 3.2-4.1 2.1-4.9 6-5.3 24.8-.6 24 .8 29 8.5 32.2 3.4 1.4 4.1 2.9 2.2 4-.5.4-1.4 1.8-2 3.2-1.3 3.5.9 7.1 10.4 16.6C46.7 203.6 50.2 209 42.5 209c-5.7 0-13.4-3.1-16.5-6.7-2.3-2.6-3-4.3-3-7.6 0-4.9-1.3-6.7-5-6.7-4.5 0-7 3.9-8.2 12.3-1 6.6-.9 7.9.8 11.3 2.4 5 7.5 8.3 19.8 12.8 12.6 4.8 22.1 7.1 37 9.1 18.5 2.6 20 1.8 23.7-11.5 3.6-13.1 8.9-21 14-21 3.2 0 3.9 1.4 3.9 8.5 0 3.7.6 6 1.9 7.6 1.9 2.3 2.4 2.4 16.9 2.4 18.1 0 19.2-.5 19.2-9.2 0-6.6 1.3-9.3 4.5-9.3 4.7 0 9.4 7.6 13.9 22.2 3.7 12.1 4.4 12.5 18.7 10.9 15.1-1.8 29.5-5.2 41.7-9.9 18.5-7.2 21.9-11 20.7-23.2-.9-9-3.3-13-7.9-13-4.2 0-5.4 1.5-5.3 6.6.1 2.4-.6 5.2-1.7 6.8-2.3 3.6-9.7 6.8-16 7-8.4.2-7.3-2.1 9.4-19.5 8-8.4 15.3-16.4 16.2-17.8 2.2-3.2 2.3-7.4.3-9.1-2.3-1.9-1.8-2.8 2.3-4.7 6.7-3.2 7.3-5.8 7-29.3-.2-15.8-.6-21.2-1.8-23.4-1.4-2.8-5.4-5.9-9.2-7.2-2.3-.8-2.3-1.3.4-4.1 2.1-2.2 2.1-2.5.5-5.7-.9-1.9-5.3-7.8-9.7-13.1-5.3-6.2-8-10.2-7.6-11.1.7-1.9-8.8-12.2-15.2-16.4-4.6-3-8.6-3.8-9.7-2-.3.5-1.9 1-3.5 1-4.8 0-8 1.8-12.9 7.1l-4.7 5.1-2.8-2.9c-2.7-2.7-2.8-3.1-2.3-9.4.7-7.8-.5-10.1-5.7-11.9-2.8-.9-3.5-1.7-4-4.6-1.3-6.5-2.8-6.9-31.6-7.1-14-.1-27.4.2-29.7.6m51 2c6.9.7 8.7 1.8 8.7 5.5 0 1.6-.5 1.7-3.2 1.2-12-2.5-50.5-2.5-60.4 0-1.7.4-2.4.2-2.4-.8 0-3.2 2.8-5.2 8.1-5.9 7.7-.9 41.1-.9 49.2 0m9.5 9.5c7.8 2.1 8.2 2.7 8.2 11.2 0 6.8.2 7.6 3.1 10.9l3.1 3.5-4.9 5.7C159.7 79.2 158 81.9 158 86.5c0 2.6-.6 4.7-1.5 5.5-3 2.5-1.8 6.5 3.5 11.3 2.8 2.5 5 5.2 5 6.1 0 2.7 5.5 4.7 11.3 4.1l5.2-.5-4.1 1.9c-5.8 2.7-7.4 5.4-7.4 12.6 0 7.9 1.5 10.4 7.8 13.8 3 1.6 5.1 3.1 4.8 3.4s-2.7-.1-5.4-.7c-6.8-1.8-9.3-.8-15.7 5.8-5.9 6.1-6.8 9.3-4 14.2.8 1.4 1.4 3.7 1.5 5.2 0 4 11.7 20.4 24.6 34.6 3.7 4.1 5.9 5.6 8.9 6.2 2.2.5 4.9 1.1 6 1.5 1.5.4 3.3-.3 6-2.5 3.8-3 3.9-3.1 4.7-1 1.1 2.9 3.1 3.4 9 2 10.4-2.4 16.8-8.2 16.8-15.2 0-5 4.9-6.5 7.6-2.3 1.2 1.8 1.7 4.9 1.8 10.5.1 7-.1 8.1-2.4 10.5-3.3 3.5-7.3 5.5-20 10-13.4 4.6-23.9 7.1-36.8 8.6-7.7.8-10.6.8-11.6 0-.8-.7-3.6-6.6-6.2-13.3-5.7-14.2-10.8-20.8-16.1-20.8-4.3 0-5.6 2.2-6.4 10.2-.4 4.3-1.2 7.4-2 7.9-1.8 1.1-27.9 1.2-29.7.1-.7-.5-1.5-3.9-1.9-7.8-.7-7.9-2.3-10.4-6.6-10.4-5.2 0-9.6 5.9-15.9 21.1l-5.5 13.4-6.9-.3c-16.4-.6-40.3-6.8-55.4-14.4-8.5-4.3-10.5-7.9-9.5-17.3.9-8 3-11.1 6.8-10.1 2.2.5 2.7 1.2 2.7 3.7 0 7.9 4.8 12.9 15.2 15.6 7 1.8 9.7 1.4 10.5-1.7.7-2.5 1.5-2.5 3.7-.1 2.7 3 7.1 4.5 9.4 3.2 1.2-.6 3.2-1.1 4.5-1.1 3 0 11.9-9.2 22.9-23.7 8.4-11 10.8-15.2 10.8-18.2 0-1.1.8-3.3 1.7-4.9 2.3-4 .7-7.6-6.9-14.8-5.8-5.6-6-5.7-10.6-5.1-2.6.4-5.8.9-7.2 1.2-1.4.4.1-.8 3.2-2.5 7.2-4.1 9.3-8 8.4-15.4-.9-6.6-2.7-9.3-7.9-11.7l-4.2-1.9 6.1.5c5.1.5 6.5.2 8.7-1.5 1.5-1.2 2.7-2.7 2.7-3.4 0-.6 2-2.8 4.4-4.9 5.7-4.7 6.5-7 3.6-10.9-1.5-2-2-3.7-1.6-5.4.4-1.3.1-3.4-.5-4.7-1.5-2.8-9.1-12.8-14.1-18.6L80 59.8l3-2.8c2.8-2.6 3-3.3 3-10.3 0-6.9.2-7.7 2.6-9.6 5.1-4 14.6-5 44.9-4.6 16.4.3 24.5.8 28.3 1.9M61.3 51.5c1.5.3 3.7.7 5 1 3.4.7 26.7 30.3 26.7 34 0 1.1 1 3.8 2.2 6.1l2.1 4.1-2.2 3.1c-3.9 5.6-5 5.2-18.2-5.5-6.7-5.4-15.8-12.6-20.3-16.1C46.5 70.3 42 66 42 64.2c0-1.9 6.9-9.9 10.5-12.2 1.7-1.1 3.7-1.8 4.5-1.5.8.2 2.7.7 4.3 1m146.3 4.7c3.5 3.3 6.4 6.9 6.4 7.9 0 2.4-10.8 11.7-36.9 32-9.2 7.2-10.7 8-12.7 7-1.3-.5-3.1-2.2-4-3.6-1.7-2.5-1.6-2.8.4-7.1C162 90 163 87.1 163 86c0-1.9 11.5-17.8 20.8-28.8 3.5-4.1 5.1-5.2 7.6-5.3 1.7-.1 4.2-.5 5.6-.9s2.9-.8 3.3-.9c.5-.1 3.8 2.7 7.3 6.1m-156 20.7c12.5 8.9 35.6 29 35.1 30.5-.2.7-4.1 1.1-10.8 1.2-9.7.1-11.8-.3-29.8-5.3-10.7-3-20.3-5.9-21.3-6.4S23 94.8 23 93.5s-.4-2.7-1-3c-2.1-1.3-.8-4.6 4.1-10.7 7.7-9.5 9.7-11.1 13-10.4 1.6.3 7.2 3.7 12.5 7.5m174.3-2.2c2.8 3.2 6.3 7.4 7.8 9.5 2.4 3.5 2.5 4 1 5.6-.8.9-1.7 2.8-1.9 4.2-.4 3-2.7 3.9-26.8 10.3-14.7 3.9-17.6 4.4-26.5 4.3-7.3-.1-10-.4-10-1.3 0-1.2 8.4-9 22.5-20.7 9.8-8.1 24.1-17.6 26.6-17.6 1.5 0 4 2 7.3 5.7M31 101.9c25 6.4 34.4 9.3 37.3 11.5 1.8 1.3 5.1 3.3 7.4 4.5 4.4 2.2 5.7 4.5 5.7 10.6 0 6-1.2 8.1-5.6 10.1-2.3 1-5.5 3-7 4.3-2 1.6-8.9 4-22.6 7.7-19.1 5.2-26.5 6.4-27.7 4.5-.3-.5-1.9-1.2-3.5-1.6-1.7-.4-3.5-1.5-4-2.5-1.3-2.4-1.3-42.1 0-45.4.6-1.7 1.7-2.6 3.2-2.6 1.3 0 3.2-.7 4.2-1.5 2.5-1.9 3.5-1.9 12.6.4m206.7-.5c1.5.8 3.6 1.7 4.6 2 .9.3 2.2 1.7 2.7 3.1 1.1 2.9 1.2 39.6.1 43.3-.7 2.6-6 5.1-12.1 5.9-5.1.6-42.1-9.8-45.8-12.9-1.5-1.2-4.7-3.2-7-4.2-3.5-1.6-4.4-2.6-5.3-5.9-1.6-6.1-.3-11.6 3.3-13.6 1.7-.9 5.2-3.1 7.9-4.9 3.5-2.3 9.2-4.4 20.2-7.3 8.3-2.3 17.2-4.7 19.7-5.4 6.2-1.7 8.4-1.7 11.7-.1M90.4 152c6.5 6 7.3 8.1 4.7 12.5-1.1 2-2.1 4.5-2.1 5.7 0 1.1-1 3.4-2.2 5.1-3.6 5.2-20.5 26.1-22.5 27.8-1 .9-4.7 2-8.3 2.4l-6.5.7-16.2-16.8c-18.2-18.9-19.4-20.5-17.1-23.1.9-1 1.8-2.7 2-3.8.5-2.7 2.8-3.7 22.3-9 9.4-2.6 17.2-4.8 17.3-5 .2-.2 5.8-.3 12.4-.4h12zm117.6.6c21.8 5.9 24.8 7 25.6 9.7.3 1.2 1.3 3 2.1 3.9 1.4 1.5 1.3 2.1-.5 5-3.1 5-21.1 24.4-27.8 30l-5.9 4.9-6-.6c-5.7-.6-6.2-.9-11.3-6.3-8-8.5-21.2-26.2-21.2-28.4 0-1-.9-3.7-2-5.9-1.2-2.2-1.8-4.8-1.5-5.9.3-1 2.8-3.8 5.4-6.4l4.9-4.5h10.9c9.6.1 12.6.6 27.3 4.5"/>
        <path d="M120.2 42c-4.2 2.6-6.9 7.1-8.2 14-1.8 8.7-2.9 11.5-5.5 14-2.9 2.7-3.2 4-.9 4 3.7 0 7.2-5.8 9.4-15.5 1.8-7.7 2.8-10.2 5.4-13 8.5-9 17.5-3.7 21 12.4 2 8.6 3.7 12.4 6.8 14.5 4.2 3 5.1 1.7 1.5-2.3-2.7-3-3.7-5.2-4.6-10.4-1.9-10.7-4.6-15.4-10.8-18.6-3.4-1.8-10.4-1.3-14.1.9"/>
        <path d="M127 54c0 1.6.5 3 1 3 .6 0 1-1.4 1-3 0-1.7-.4-3-1-3-.5 0-1 1.3-1 3m0 14c0 1.6.5 3 1 3 .6 0 1-1.4 1-3 0-1.7-.4-3-1-3-.5 0-1 1.3-1 3m0 15.9c0 2.2.5 4.3 1 4.6.6.4 1-1.2 1-3.9 0-2.5-.4-4.6-1-4.6-.5 0-1 1.8-1 3.9m-7.9 10.3c-4.4 1.2-7.9 3.6-9.3 6.2-1 2-1 2 .8.4 3.8-3.3 9.6-5 17.3-5 8.8.1 13.5 1.3 16.8 4.4 1.2 1.2 2.3 1.6 2.3 1 0-1.8-6.1-5.9-10.5-7.1-4.8-1.3-12.7-1.3-17.4.1m-1.6 9.6c-2.2 1-7 4.5-10.7 7.7-8.3 7-8.5 8.7-2.7 17.1 8.6 12.4 15.7 17.6 23.8 17.6 8 0 15.5-5.3 23.6-16.7 6.9-9.6 6.9-10.1-1.5-17.4-9.5-8.2-12.1-9.4-21-9.8-5.8-.3-8.4 0-11.5 1.5m18 2.3c7.7 2.1 12.8 9.1 12.7 17.5-.1 9.6-5.8 17-15.5 19.9-12 3.6-24.6-6.6-24.7-19.8 0-6.2 2-10.8 6.1-14 5.8-4.4 13.7-5.7 21.4-3.6m-30.1 14.5c-.6 4.3-.8 4.6-2 2.9-1.8-2.5-1.8-4.4.3-6.7 2.2-2.5 2.6-1.8 1.7 3.8m48 1.6c-.9 1.7-1.7 2.8-1.8 2.6-.2-.1-.6-2.5-1-5.2l-.6-5 2.5 2.4c2.3 2.2 2.3 2.4.9 5.2"/>
        <path d="M120.3 116c-5.7 3.4-5.6 11.9.1 17.6 4.2 4.2 7.8 5.1 12.2 3 9-4.2 10-17.3 1.7-21.5-3.4-1.7-10.4-1.3-14 .9m12.1 6.9c2.3 2.6 1.3 5.6-2.3 7.1-2.3.9-3.3.9-5-.2-3.3-2-3.5-4.1-.6-6.5 3.2-2.8 5.6-2.9 7.9-.4m-32.4 17c-1.2 1.7-2 3.9-1.8 4.9.3 1.2 1.1.4 2.7-2.6 2.7-5.2 2.2-6.5-.9-2.3m53-2.4c0 1.4 4.2 7.5 5.1 7.5 1.2 0-1.5-5.2-3.5-6.9-.9-.8-1.6-1-1.6-.6m-25.3 16.2c-1.1 1-.8 5.1.3 5.8.6.4 1-.8 1-2.9 0-3.7-.2-4.1-1.3-2.9m-8.4 11.8c-4.7 2-6.6 5.6-6.1 11.4 1.6 16.3 21.8 20.2 28.8 5.5 4.9-10.1-1.5-18.5-14.2-18.4-2.9.1-6.7.7-8.5 1.5m16.7 3c7.7 4 6 13.9-3.1 18.6-3.7 1.8-4.7 2-8 1-4.4-1.3-8.4-5.7-9.4-10.2-.8-3.6 1.5-7.5 5.6-9.6 3.3-1.7 11.4-1.6 14.9.2m-9 28.5c0 1.1.5 2 1 2 .6 0 1-.9 1-2s-.4-2-1-2c-.5 0-1 .9-1 2m37 .1c0 .5.5.7 1 .4.6-.3 1-.8 1-1.1 0-.2-.4-.4-1-.4-.5 0-1 .5-1 1.1m-40.6 6.3c-1.1 2.8.1 6.1 2.8 7.5 2.5 1.5 2.9 1.4 5.2-.8 4.6-4.3 2.8-8.1-3.6-8.1-2.4 0-4.1.5-4.4 1.4m8.6 2.4c0 1.4-2.3 3.2-4.1 3.2-3.7 0-4.4-4-.9-5.2 1.6-.6 5 .8 5 2m-49.7.9c-1.7.6-1.6 2.8.1 4.2 2.1 1.7 4.5-1.5 2.5-3.3-.8-.8-2-1.2-2.6-.9m2.2 2.3c-.3.5-1.1 1-1.6 1-.6 0-.7-.5-.4-1 .3-.6 1.1-1 1.6-1 .6 0 .7.4.4 1m87.1-2.3c-1.4 1.5-.5 4.3 1.4 4.3 1.3 0 2-.7 2-1.9 0-1.9-2.3-3.5-3.4-2.4m2.4 2.3c0 .5-.4 1-1 1-.5 0-1-.5-1-1 0-.6.5-1 1-1 .6 0 1 .4 1 1m-135 9c0 .5.5 1 1 1 .6 0 1-.5 1-1 0-.6-.4-1-1-1-.5 0-1 .4-1 1m176.5 0c.4.6 1.1.8 1.6.5 1.4-.9 1.1-1.5-.7-1.5-.8 0-1.2.5-.9 1m-161.8.6c-.4.4-.7 1.6-.7 2.6 0 1.3.7 1.8 2.6 1.8 2.1 0 2.5-.4 2.2-2.2-.3-2.3-2.7-3.5-4.1-2.2M71 220c-2.3 2.3-2.2 3.8.3 5.4 1.2.8 2.2.8 3.5 0 2.5-1.6 2.7-5.1.3-6.4-1.7-.8-2.4-.7-4.1 1m4 1.9c0 1.4-1.8 2.3-3 1.6-.6-.4-.8-1.1-.5-1.6.8-1.2 3.5-1.2 3.5 0m105.6-2.4c-3.1 3.1-.9 7 3.6 6.3 3-.4 3.1-4.5.2-6.5-1.9-1.2-2.4-1.2-3.8.2m4.2 2.7c-.3.7-1.1 1.3-1.8 1.3s-1.5-.6-1.7-1.3c-.3-.7.4-1.2 1.7-1.2s2 .5 1.8 1.2m14.3-2.8c-1.6 1.9-.6 3.6 2 3.6 1.5 0 2-.6 1.7-2.2-.4-2.7-2.1-3.3-3.7-1.4M78 87c0 .5.5 1 1 1 .6 0 1-.5 1-1 0-.6-.4-1-1-1-.5 0-1 .4-1 1m6 3.5c-.7.9-.8 1.5-.2 1.5.5 0 1.2-.7 1.6-1.5.3-.8.4-1.5.2-1.5s-.9.7-1.6 1.5m3.7 3.3c-2 2.2-2.2 3.3-.4 2.6 1.5-.6 4-4.4 2.9-4.4-.5 0-1.6.8-2.5 1.8m88.8-6.8c.3.5.8 1 1.1 1 .2 0 .4-.5.4-1 0-.6-.5-1-1.1-1-.5 0-.7.4-.4 1m-6.5 2.4c0 .2.8 1 1.8 1.7 1.5 1.3 1.6 1.2.3-.4s-2.1-2.1-2.1-1.3m-4.2 3.2c1.3 2.5 4.2 5 4.2 3.7 0-.5-1.2-2-2.6-3.4-2.4-2.1-2.6-2.2-1.6-.3M31.2 82.3c-6.5 6.6-8.8 10.6-2.6 4.6 3.6-3.4 9.9-10.9 9.2-10.9-.2 0-3.2 2.8-6.6 6.3M34 87c-1.7 2.2-2.8 4-2.3 4 .6 0 2.4-1.8 4.2-4 1.7-2.2 2.8-4 2.2-4-.5 0-2.4 1.8-4.1 4m188.3-6c3.8 4.8 8.6 9.4 9.3 8.8.2-.2-2.6-3.3-6.3-6.9-5.6-5.4-6.1-5.7-3-1.9m-4.5 2.5c.6 1.1 2.5 3.3 4.3 5l3.2 3-2-3c-1.2-1.7-3.1-3.9-4.3-5l-2.3-2zM42.6 116c-7.8 3.9-10.6 8.4-10.6 17 0 4.4.5 5.6 2.9 8.1 1.6 1.6 3.6 2.9 4.4 2.9 2.2 0 6.7-3.9 6.7-6 0-2-2.7-4.6-3.7-3.6-.3.3-.2.6.4.6 2 0 2.4 3.3.7 5.1-3.9 4.3-8.4.8-8.4-6.5 0-8.1 3.5-12.7 11.2-14.6 6.9-1.8 10.6.6 13.3 8.5 2.3 6.8 5.9 10.1 9.9 9.1 3.1-.8 5.6-5.2 5.6-10.1 0-4.4-2.5-4.8-3.3-.6-.6 3-3.9 5.7-5.7 4.6-.5-.3-1.2-2.2-1.6-4.3-1.5-8.5-5.7-12.2-13.6-12.2-2.4.1-6.1 1-8.2 2m154.7 0c-2.3 1.4-3.5 3.1-4.3 6.2-1.9 6.8-2.9 8.8-4.4 8.8-1.8 0-4.6-3.8-4.6-6.3 0-1.1-.5-1.7-1.2-1.4-1.8.6-1.4 7.1.5 10.1.9 1.3 3.1 2.7 4.9 3.1 2.7.6 3.5.3 5.5-2 1.3-1.5 2.9-4.7 3.5-7.1 1.7-6.1 4.7-8.7 10.2-8.7 8.8 0 15.1 6.6 14.3 15.1-.3 2.4-1.3 5.2-2.3 6.3-3.5 3.9-9.3.2-6.6-4.2 1.1-1.8 1.1-2 0-1.7-.7.3-1.3 1.9-1.3 3.8 0 2.7.6 3.8 2.8 5 2.4 1.3 3 1.3 5.5 0 5.9-3.3 6.2-14.3.7-21.6-5.2-6.7-16.7-9.4-23.2-5.4M79.8 159c-2.1 1.9-2.8 3-1.8 3 2 0 8-3.7 8-5 0-1.9-3-1-6.2 2m-44 4.1c-2.8 1.6-2.3 6.5.7 8.5 2.4 1.6 2.7 1.6 4.5-.1 2.6-2.3 2.6-7.1.1-8.5-2.4-1.2-3.1-1.2-5.3.1m5 4.3c.4 2.1-1.4 3.7-3.4 2.9-1.6-.6-2.6-3.2-1.8-4.4 1-1.7 4.9-.5 5.2 1.5m20.5 3.1c-1.9 1.6-2.3 2.4-1.3 2.5 1.9 0 6-2.8 6-4.1 0-1.6-1.8-1-4.7 1.6M42.8 183c-2.3 2-2.8 3-1.7 3 1.9 0 6.9-3.7 6.9-5.1 0-1.7-1.9-.9-5.2 2.1m12.4 2.3c-2.5 3-2.4 6.2.4 9 1.5 1.5 3.5 2.7 4.5 2.7 4.4 0 6.8-9.9 3-12-2.7-1.4-6.6-1.3-7.9.3m7.2 3.3c1.5 4-.8 6.3-4.5 4.4-1.9-1-2.6-4-1.2-5.3 1.2-1.3 5.1-.7 5.7.9M170.5 157c-.7 1.1 2.8 3.5 6.5 4.5 2.4.6 2.3.5-.8-2.4-3.4-3.3-4.7-3.7-5.7-2.1m44.2 6.8c-2.2 2.5-2.1 5.5.2 7.6 1.5 1.4 2.4 1.5 4 .7 4.4-2.4 4.8-7.9.5-9.5-2.4-.9-2.9-.8-4.7 1.2m6 2.8c.4 1.1-.1 2.2-1.2 3.1-1.6 1.1-2.1 1.1-3.3-.1-.8-.8-1.2-2.2-.9-3 .8-2.1 4.6-2.1 5.4 0m-30.1 2.3c-.6 1 3.6 4.1 5.5 4.1.8 0 .8-.5-.1-1.6-1.9-2.2-4.8-3.6-5.4-2.5m17.4 12c0 1.4 5 5.1 6.8 5.1 1.1 0 .8-.9-1.3-3-2.8-2.9-5.5-3.9-5.5-2.1m-15.3 4.9c-1 1-1.7 3-1.7 4.3 0 2.8 3.3 6.9 5.6 6.9s6.4-4.6 6.4-7.3c0-5-7-7.6-10.3-3.9m7.7 2.7c.6 1.8-2.9 5.8-4.6 5.3-2.3-.8-3.3-3.6-1.9-5.2 1.7-2 5.7-2.1 6.5-.1"/>
    </g>
</svg>
