<svg xmlns="http://www.w3.org/2000/svg" width="341.333" height="341.333" version="1.0" viewBox="0 0 256 256">
    <g fill="#e5e5e5">
        <path d="M115 2.7C66.8 7.9 24.3 42 9 87.8c-4.9 15-6.3 23.3-6.3 39.7-.1 17 1.5 27.3 6.4 41.3 15 42.5 49.9 73.3 94.1 82.8 11.6 2.6 38.1 2.6 49.5.1 52.1-11.2 91.5-51.8 99.8-102.7 5.3-32.8-2.6-67.1-21.6-94-10.8-15.4-29.5-31.3-46.8-40C164.7 5.3 136.9.3 115 2.7m40 5.7c11.8 2.7 23.4 7 32.9 12.3 7.1 4.1 20.5 13.8 23.8 17.4l2.2 2.5-86.8 86.8-86.9 86.9-5.8-7.2C-19 142.2 5.2 45.3 82.6 14.3c23.2-9.4 48.2-11.4 72.4-5.9M195 118c3.7 5.8 6.2 15.4 5.8 22.7-.3 5.6-.4 5.7-3.8 6.6-4.8 1.2-15.5-.5-22.1-3.7-3.7-1.7-8.6-5.8-15.9-13.1L148.5 120l12.5-12.5L173.5 95l9.3 9.3c5.1 5 10.6 11.2 12.2 13.7m-63.8 40.7c12.7 13 16.8 21.4 16.8 34.5 0 7.3-1.5 8.3-10.9 7.5-12.5-1-17.2-3.6-30.1-16.3L95.5 173l12-12c6.6-6.6 12.5-12 13-12 .6 0 5.4 4.4 10.7 9.7m54.9 2c6.4 6.6 11.4 12.7 12.7 15.5 2.8 6.1 4.7 17.2 3.8 22.2l-.7 3.8-9.2-.4c-13.5-.6-18.4-3.1-32-16.6L150 174.5l12.2-12.2c6.8-6.8 12.5-12.3 12.9-12.3.3 0 5.3 4.8 11 10.7"/>
        <path d="M55.7 54.7c-2.6 4.4-1 17.7 2.9 25.8 1.7 3.4 6.3 8.9 13 15.6L82 106.5 94.5 94 107 81.5l-9.3-9.3C86.9 61.3 81.6 57.7 73.5 55.5c-6.2-1.6-17.1-2.1-17.8-.8m53.7 3.9c-1.1 4.1.3 14.5 2.7 21 1.9 4.9 4.1 7.8 13.3 17.2l11.1 11.3L149 95.5 161.5 83l-9-9c-13.9-14-21.8-18-35.7-18-6.5 0-6.8.1-7.4 2.6m-52.6 51c-1.3 1.2-.9 12.5.6 18.2 2.1 7.9 5.5 12.7 16.3 23.4l9.8 9.8L96 148.5l12.5-12.6-10.2-10c-13-12.7-19.6-16.1-32.3-16.7-4.7-.2-8.8-.1-9.2.4"/>
    </g>
</svg>
