<svg xmlns="http://www.w3.org/2000/svg" width="341.333" height="341.333" version="1.0" viewBox="0 0 256 256">
    <g fill="#e5e5e5">
        <path d="M117.6 6.2C62.4 10.3 15.8 53.9 7 109.5c-.6 3.8-1.1 12.6-1.1 19.5 0 58 40.6 107.4 98.1 119.5 45.7 9.7 94.6-9.3 123.1-47.7 31.7-42.8 31.5-103.2-.5-145.9-25.7-34.2-65.5-52-109-48.7M152 9.4c49.9 10.7 86.2 48 95.6 98.1 2.5 13.5 1.6 37.5-2 50.7-11.6 43.4-44 75.8-87.4 87.4-13.2 3.6-37.2 4.5-50.7 2-50.9-9.6-88.6-47-98.6-98.1-2-10.2-1.8-34 .4-44.5 7.9-37.2 30.6-67.4 63.3-84.2C85.8 14 98.5 10.1 115.5 7.6c6.1-.9 29.2.3 36.5 1.8"/>
        <path d="M104 13.1c-45.6 9.6-81.7 45.8-90.9 91.6-2.6 12.6-2.8 33.2-.5 45.3 7.4 39.2 35 72.8 71.8 87.5 15.4 6.1 24.7 7.8 42.6 7.9 12.6.1 18.5-.4 25-1.8 46.4-10.1 81.5-45.2 91.6-91.6 1.4-6.5 1.9-12.4 1.8-25-.1-17.9-1.8-27.2-7.9-42.6C222.8 47.6 189.2 20 150 12.6c-11.8-2.3-33.9-2-46 .5m48 4.8c10.7 2.4 20.4 6 30 11.2 8 4.3 19 12.2 22.7 16.1l2.2 2.4-15.7 15.6-15.7 15.7-4.6-1.1c-3.8-.9-5.2-.8-8.3.7-2.1 1-4.7 3.2-5.7 4.9-2 3.3-2.5 9.6-.9 12.5.7 1.4.4 2.3-1.4 4l-2.4 2.2-5.3-2.9c-14.1-7.8-30.5-5.8-41.7 5.1-11.4 11-13.8 27.3-6.1 41.8l3.3 6L75 179.5C43.5 211 47.8 209.1 38.1 196c-10-13.4-17.1-29.1-20.7-46-2.2-10.3-2.5-32.5-.5-41.5C27.1 62.4 56.2 31.1 100.1 19c4.2-1.1 10.2-2.5 13.5-3 8.5-1.3 28.5-.3 38.4 1.9m61.1 35.7c1.1 1.3-.8 3.5-13.4 16.2C191.6 77.9 185 85 185 85.5s6.7-5.7 14.9-13.9c12.9-12.9 15.2-14.8 16.5-13.7.9.8 1.6 1.9 1.6 2.5s-7.4 8.5-16.5 17.6S185 94.9 185 95.5c0 .5 7.8-6.9 17.4-16.4l17.5-17.5 1.2 2.8c1.3 2.7 1 3-17.7 21.7-17.2 17.2-19 18.8-20.3 17.2-1.2-1.6-1.2-1.6-.6.7.4 1.4 1.1 3.2 1.6 4 .7 1.3.8 1.3.9 0 0-.8 8.7-10.3 19.4-20.9l19.5-19.5 1.2 2.8c1.3 2.7 1 3-18.4 22.4-16.2 16.2-19.9 19.4-20.8 18.2s-1-1.2-.5.3c.3 1 .6 2.4.6 3.1s9.2-8 20.5-19.4c19.6-19.5 20.6-20.4 22.1-18.5 1.4 1.8.3 3.1-19.3 22.7-16.6 16.6-20.9 20.4-21.5 19-.5-1.3-.7-1.1-.7 1-.1 1.5.3 2.9.7 3.2.5.3 10.2-8.9 21.7-20.4 20-20.1 21-20.9 22.2-18.7 1.1 2.1-.2 3.6-21.4 24.8-12.4 12.5-22.4 23.2-22.2 23.8s10.5-9 22.9-21.4C232.7 88.7 234.9 87 235 92c0 .8-10.6 12.1-23.5 25-19.7 19.7-23.5 23.1-23.6 21 0-1.4-.9.8-1.9 4.8-5.8 22.2-21 37.4-43.2 43.2-4 1-6.2 1.9-4.8 1.9 2.1.1-1.3 3.9-21 23.6-12.9 12.9-24.2 23.5-25 23.5-5-.1-3.3-2.3 18.5-24 12.4-12.4 22-22.7 21.4-22.9s-11.3 9.8-23.8 22.2c-21.2 21.2-22.7 22.5-24.8 21.4-2.2-1.2-1.4-2.2 18.7-22.2 11.5-11.5 20.7-21.2 20.4-21.7-.3-.4-1.7-.8-3.2-.7-2.1 0-2.3.2-1 .7 1.4.6-2.4 4.9-19 21.5-19.6 19.6-20.9 20.7-22.7 19.3-1.9-1.5-1-2.5 18.5-22.1 11.4-11.3 20.1-20.5 19.4-20.5s-2.1-.3-3.1-.6c-1.5-.5-1.5-.4-.3.5s-2 4.6-18.2 20.8c-19.4 19.4-19.7 19.7-22.4 18.4l-2.8-1.2 19.5-19.5c10.6-10.7 20.1-19.4 20.9-19.5.8 0-.8-1.1-3.7-2.4-6.4-2.9-14.3-8.2-14.3-9.7 0-.5.7-.8 1.4-.5.9.4 1.3.1 1-.6-.2-.7 2.9-4.5 7-8.6l7.4-7.4 2.9 2.1c9.1 6.5 23.4 7.8 33.4 3.1 7.6-3.6 12.9-8.6 17-16.1 3.1-5.8 3.4-7 3.4-15.4 0-8.6-.2-9.6-3.7-16.4l-3.7-7.2 2.2-1.9c1.2-1 2.9-1.6 3.7-1.4 6 1.6 7.2 1.6 11.2-.4 2.4-1.1 5.1-3.4 6.1-5 1.8-3.2 2.2-9.7.7-12.1-.7-1.2 2.5-4.9 14.8-17.3 8.6-8.6 16-15.7 16.3-15.7.4 0 1.2.7 2 1.6m24.1 44.8c.4 2.1-3.5 6.4-26.9 29.8-15 15-27.3 27.1-27.3 26.8s.9-3 2.1-6c1.8-4.9 4.8-8.3 26.1-29.7 13.3-13.3 24.5-24 24.9-23.8.3.3.9 1.6 1.1 2.9m1.8 8.4c0 2.2-11.2 13.9-64.7 67.4-53.7 53.7-65.3 64.8-67.5 64.8-1.5 0-2.9-.4-3.2-.8-.3-.5 14-15.1 31.7-32.5 38.9-38.3 32.1-31.5 70.4-70.4 17.4-17.7 32-32 32.5-31.7.4.3.8 1.7.8 3.2m-85.2-.3c.2 1.5-6.2 8.5-23.2 25.4-20.1 20-23.8 23.2-25.1 22.1-.8-.7-1.5-1.7-1.5-2.3 0-1.9 46.4-47.8 48-47.5.8.2 1.6 1.2 1.8 2.3m25.5 72.7c-61.4 61.4-61.9 61.8-65.2 61.2l-3.3-.7 64.3-64.3 64.4-64.4.8 3.2c.8 3.1.5 3.5-61 65m5 5c-56.1 56.1-56.8 56.8-60.8 56.8h-4l60.5-60.5 60.5-60.5.3 3.7c.3 3.6-.2 4.2-56.5 60.5m5 5c-51.1 51.1-51.8 51.8-55.8 51.8h-4l55.5-55.5 55.5-55.5.3 3.7c.3 3.6-.2 4.2-51.5 55.5m50.7-44.1c-.7 3.8-4.5 7.9-45.8 49.1-41.2 41.3-45.3 45.1-49.1 45.8-2.2.4-4.1.5-4.1.1 0-.8 98.3-99.1 99.1-99.1.4 0 .3 1.9-.1 4.1m-2.9 13.2c-1.1 3.8-5.7 8.8-37.9 40.9-35.8 35.7-39.4 38.8-45.1 38.8-.9 0 17.5-19.1 40.9-42.5 23.3-23.3 42.6-42.2 42.8-42 .3.2-.1 2.4-.7 4.8m-5.1 14.3c-3.1 7.3-51.2 55.6-58.8 59-2.9 1.3-5.6 2.4-6 2.4s14.4-15.1 32.8-33.5 33.6-33.3 33.7-33.1c.2.2-.6 2.5-1.7 5.2m-140.9 3c1.1 1.3-1.3 4-17.4 20.2-17.8 17.7-18.8 18.6-20.4 16.9-1.7-1.6-.8-2.6 16.7-20.2C80.2 182.3 88.8 174 89.1 174c.4 0 1.2.7 2 1.6m5.5 3.8c1.8 1.4.9 2.5-16.6 20C69.8 209.7 61 218 60.4 218s-1.7-.7-2.5-1.6c-1.1-1.3 1.3-4 17.2-20C85.2 186.3 93.7 178 94 178c.4 0 1.5.7 2.6 1.4m6.7 3.8c1.5 1.2-.4 3.4-17.2 20.2-18.7 18.7-19 19-21.7 17.7l-2.8-1.2 19-19C91 190.5 100 182 100.5 182c.6 0 1.9.6 2.8 1.2m24.9 27.1c-23.4 23.4-27.7 27.3-29.8 26.9-1.3-.2-2.6-.8-2.9-1.1-.2-.4 10.5-11.6 23.8-24.9 20.1-20 25-24.4 29.2-26 2.8-1.1 5.4-2 6-2.1.5-.1-11.3 12.2-26.3 27.2m95.1-21.2c-4.2 7.3-15.4 19.9-23 25.9-15.9 12.8-14.6 10 4.7-9.4 10.7-10.8 19.6-19.6 19.8-19.6s-.5 1.4-1.5 3.1"/>
        <path d="M121.8 69.7c1.2.2 3 .2 4 0 .9-.3-.1-.5-2.3-.4-2.2 0-3 .2-1.7.4m11 0c1.2.2 3 .2 4 0 .9-.3-.1-.5-2.3-.4-2.2 0-3 .2-1.7.4m-17 1c.7.3 1.6.2 1.9-.1.4-.3-.2-.6-1.3-.5-1.1 0-1.4.3-.6.6m24 0c.6.2 1.8.2 2.5 0 .6-.3.1-.5-1.3-.5s-1.9.2-1.2.5m-31.3 1.8c-3.9 1.7-2.1 1.8 2.5 0 1.9-.7 2.8-1.4 2-1.4s-2.8.6-4.5 1.4m12.8.2c.9.2 2.3.2 3 0 .6-.3-.1-.5-1.8-.5-1.6 0-2.2.2-1.2.5m12 0c.9.2 2.3.2 3 0 .6-.3-.1-.5-1.8-.5-1.6 0-2.2.2-1.2.5m-17.5 1c.7.3 1.6.2 1.9-.1.4-.3-.2-.6-1.3-.5-1.1 0-1.4.3-.6.6m24 0c.7.3 1.6.2 1.9-.1.4-.3-.2-.6-1.3-.5-1.1 0-1.4.3-.6.6m12.2.8c1.4.8 3 1.4 3.5 1.4.6 0-.1-.6-1.5-1.4s-2.9-1.4-3.5-1.4c-.5 0 .1.6 1.5 1.4m-51.2 1.1c-3.9 2.1-3.5 2.8.5.8 3.7-1.9 4.4-2.4 3.1-2.4-.5.1-2.1.8-3.6 1.6M105 77c-.8.5-1 1-.5 1 .6 0 1.7-.5 2.5-1s1.1-1 .5-1c-.5 0-1.7.5-2.5 1m-4.6 2.6c-1.8 1.4-1.8 1.5.4.4 1.2-.6 2.2-1.3 2.2-1.5 0-.8-.5-.6-2.6 1.1m-9 2.6-1.9 2.3 2.3-1.9c2.1-1.8 2.7-2.6 1.9-2.6-.2 0-1.2 1-2.3 2.2m1 3-1.9 2.3 2.3-1.9c1.2-1.1 2.2-2.1 2.2-2.3 0-.8-.8-.2-2.6 1.9m-6.5 1.5-2.4 2.8 2.8-2.4c2.5-2.3 3.2-3.1 2.4-3.1-.2 0-1.4 1.2-2.8 2.7m-4.5 5.5-1.9 2.3 2.3-1.9c2.1-1.8 2.7-2.6 1.9-2.6-.2 0-1.2 1-2.3 2.2m3 1-1.9 2.3 2.3-1.9c2.1-1.8 2.7-2.6 1.9-2.6-.2 0-1.2 1-2.3 2.2m-8.9 7.9c-.9 1.7-1.5 3.3-1.3 3.5.3.2 1.2-1.2 2.1-3.1 2.1-4.3 1.3-4.7-.8-.4m3.5-.1c-.6 1.1-.8 2-.6 2 .3 0 1-.9 1.6-2s.8-2 .6-2c-.3 0-1 .9-1.6 2m-2.4 4.5c-.9 2.6-.7 3.2.5 1.2.6-1 .9-2.1.6-2.3-.2-.3-.7.2-1.1 1.1m-4.5 3.6c-.6 1.8-1.1 3.7-1 4.3 0 .6.7-.7 1.5-2.8.8-2.2 1.2-4.1 1-4.3s-.9 1-1.5 2.8m-2 7.5c0 1.1.3 1.4.6.6.3-.7.2-1.6-.1-1.9-.3-.4-.6.2-.5 1.3m3 0c0 1.1.3 1.4.6.6.3-.7.2-1.6-.1-1.9-.3-.4-.6.2-.5 1.3m-3.8 6.9c0 2.2.2 3 .4 1.7.2-1.2.2-3 0-4-.3-.9-.5.1-.4 2.3m2.9-1c0 1.6.2 2.2.5 1.2.2-.9.2-2.3 0-3-.3-.6-.5.1-.5 1.8m-2.9 12c0 2.2.2 3 .4 1.7.2-1.2.2-3 0-4-.3-.9-.5.1-.4 2.3m2.9 0c0 1.6.2 2.2.5 1.2.2-.9.2-2.3 0-3-.3-.6-.5.1-.5 1.8m-2 6.5c0 1.4.2 1.9.5 1.2.2-.6.2-1.8 0-2.5-.3-.6-.5-.1-.5 1.3m2.9-.4c0 1.1.3 1.4.6.6.3-.7.2-1.6-.1-1.9-.3-.4-.6.2-.5 1.3m-.1 9.8c0 1.1 5 10.6 5.5 10.6.3 0-.7-2.4-2.1-5.3-2.8-5.5-3.4-6.5-3.4-5.3m8 14.6c1.1 1.6 2.6 3.3 3.2 3.6.7.4-.1-.9-1.6-2.9-3.4-4.4-4.6-5-1.6-.7m99.1-59c1.4 3.1 1.9 3.6 1.9 2.4 0-.6-.7-1.9-1.6-3-1.4-1.8-1.4-1.8-.3.6m3 8.6c0 1.1.3 1.4.6.6.3-.7.2-1.6-.1-1.9-.3-.4-.6.2-.5 1.3m1.1 4.4c0 1.4.2 1.9.5 1.2.2-.6.2-1.8 0-2.5-.3-.6-.5-.1-.5 1.3m0 19c0 1.4.2 1.9.5 1.2.2-.6.2-1.8 0-2.5-.3-.6-.5-.1-.5 1.3m-11.8 26.2-1.9 2.3 2.3-1.9c2.1-1.8 2.7-2.6 1.9-2.6-.2 0-1.2 1-2.3 2.2m-9 9-1.9 2.3 2.3-1.9c1.2-1.1 2.2-2.1 2.2-2.3 0-.8-.8-.2-2.6 1.9m-69.4.2c0 .2.8 1 1.8 1.7 1.5 1.3 1.6 1.2.3-.4s-2.1-2.1-2.1-1.3m4 3c0 .3.9 1 2 1.6s2 .8 2 .6c0-.3-.9-1-2-1.6s-2-.8-2-.6m8 4.6c.8.5 2 1 2.5 1 .6 0 .3-.5-.5-1s-1.9-1-2.5-1c-.5 0-.3.5.5 1m7.8 2.7c.7.3 1.6.2 1.9-.1.4-.3-.2-.6-1.3-.5-1.1 0-1.4.3-.6.6m4 1c.6.2 1.8.2 2.5 0 .6-.3.1-.5-1.3-.5s-1.9.2-1.2.5m19 0c.6.2 1.8.2 2.5 0 .6-.3.1-.5-1.3-.5s-1.9.2-1.2.5"/>
    </g>
</svg>
