<svg xmlns="http://www.w3.org/2000/svg" width="341.333" height="341.333" version="1.0" viewBox="0 0 256 256">
    <path fill="#e5e5e5" d="m202.6 50.9-46.9 46.9-5.4-4.4c-12.6-10.3-28.5-15.8-45.8-15.7-21 .1-37 6.7-51.5 21.3-14.9 14.9-20.9 28.7-21.8 49.6-.3 10-.1 13.5 1.6 20.2 2.7 10.4 7 19.5 13.2 27.6l4.8 6.3-23.9 23.9C13.8 239.7 3 250.8 3 251.2c0 3.3 6.6-2.3 26.9-22.6l23.4-23.4 6.1 4.5c15.3 11.3 30.1 15.8 48.6 15 12.7-.6 19-2.2 29.4-7.3 19.3-9.7 33.2-26.9 38.6-47.9 2.5-9.6 2.7-26 .4-35.5-1.9-8.3-8.1-21.2-13.4-27.8-2.2-2.8-4-5.5-4-5.9 0-.5 21.1-22 47-47.8s47-47.3 47-47.7c0-3.5-9.4 5.1-50.4 46.1m-84.8 32.7c9.6 2 15.9 4.6 24.2 10 11.4 7.5 11 6.9 6.8 11l-3.6 3.7-4.8-3.7c-10.7-8.2-22.7-12-36.9-11.9-21.6.2-40.8 11.9-50.8 31-4.9 9.3-6.7 16.9-6.7 27.8 0 13.5 3.7 24.8 11.3 34.8 2.1 2.6 3.7 5.1 3.7 5.5s-1.5 2.3-3.4 4.1l-3.4 3.3-4.8-6.3c-9.4-12.7-13.7-25.8-13.8-41.4 0-12.1 1.9-19.8 7.6-31.5 3.3-6.8 5.8-10.2 12.7-17.1 7.2-7.2 10.2-9.4 18.1-13.2 15.1-7.4 28.6-9.2 43.8-6.1m-1.7 12.8c7.4 1.6 17.4 6.3 23.2 10.9l3.9 3-6.1 6.1c-5.7 5.7-6.4 6.1-10 5.8-5.4-.5-8.4 2.4-8 7.8.2 2.1-.3 4.5-1 5.4-1.2 1.4-1.7 1.4-5.2-.4-6.9-3.6-17.1-1.9-22.1 3.7-4.9 5.3-6.1 14.4-2.8 20.8l2 3.9-2.7 2.8c-1.5 1.5-3 2.8-3.4 2.8s-2-2.6-3.6-5.8c-10.3-21 9.5-44.7 31.9-38 4.1 1.2 5.7.4 5.8-2.9 0-2-8-3.5-16-3.1-12.1.7-21.5 6.9-26.7 17.6-2.4 5-2.8 6.9-2.8 14.7 0 9.2 1.7 14.6 6.3 19.8 1.1 1.2 1.2 2.1.5 2.8-1.5 1.5-5.9-4.6-8.4-11.7-4.1-11.4-1-25.8 7.5-35.1 1.9-2.2 6.4-5.5 9.8-7.4 6-3.2 6.8-3.4 16.3-3.4 7.6 0 10.8.4 13.1 1.7 2.4 1.3 4.2 1.6 7.5 1l4.4-.8-7-3.4c-6.7-3.4-7.4-3.5-18-3.5-9.9 0-11.6.3-16.8 2.7-8.1 3.8-16.1 11.7-19.9 19.7-2.5 5.3-3.3 8.3-3.6 14.7-.5 9.7 1.1 16.3 6.3 24.8l3.6 6-5.4 5.4-5.4 5.4-5-7.4c-18.9-28.3-9.6-65.3 20.5-81.2 11.9-6.2 24.3-7.9 37.3-5.2m49.2 22.3c12.2 23.4 11.1 48.7-3.2 70.5-17.5 26.8-50.9 37.9-81.2 26.8-8.2-3-21.6-11.1-22.6-13.7-.8-2.2 5.3-8.1 7-6.8 6.9 5.2 15 9.8 20.5 11.7 5.6 1.9 8.8 2.3 18.7 2.3 14.6 0 21.8-2.1 33.1-9.7 16.4-11 25.4-28.1 25.4-48.5 0-13.7-3.8-25.6-11.6-35.8l-3.6-4.7 3.3-3.5 3.4-3.5 3.6 4.1c2 2.2 5.2 7.1 7.2 10.8m-14.3 1.4c8.4 13 11.4 27.2 8.7 41-3 15.2-10.8 27.4-23 36-18.8 13.1-44 13.4-63.4.6-3.5-2.3-6.3-4.6-6.3-5.2s2.2-3.3 4.9-5.9l4.9-4.9 3.1 2.2c1.6 1.2 5.6 3.4 8.8 4.9 5.1 2.3 7 2.7 15.8 2.7 9.1 0 10.6-.3 16.6-3.1 16.3-7.7 24.6-21.5 23.7-39.4-.3-7.5-.9-9.8-3.8-15.6l-3.4-6.9-.7 4c-.5 2.8-.1 5.7 1.2 9.7 6.3 19-4 38.9-23.3 45-7.6 2.3-13.1 2.3-20.7-.1-6.9-2.1-13.8-6.8-12.3-8.3.6-.6 2.3 0 4.7 1.7 16 10.8 38.9 4.4 47.6-13.3 1.9-3.8 2.3-6.3 2.4-13.7 0-5-.6-10.2-1.2-11.7-1.1-2.5-1.5-2.7-3.6-1.7-2.4 1.1-2.4 1.2-1 5.8 6.8 22-17.1 42-38.1 31.7-3.1-1.5-5.6-3.1-5.6-3.5s1.3-2 2.9-3.5c2.8-2.7 3-2.7 5.4-1.2 1.3.9 4.7 1.9 7.5 2.3 10.3 1.2 19.1-6.3 20-17.1.3-4-.1-6.2-1.6-9.3-2.5-4.9-1.6-6.3 4.2-6.3 5.5 0 8.6-3 8.6-8.4 0-3.5.7-4.7 5.2-9.3 2.9-2.9 5.8-5.3 6.5-5.3.8 0 3.1 2.7 5.3 6.1m-21.6 6.8c2.3 2.5.6 6.1-2.8 6.1-3.7 0-5.2-2.5-3.2-5.5s3.7-3.2 6-.6m-18.6 11.2c1.2.5 2.2 1.2 2.2 1.6 0 1.1-19.8 20.8-20.3 20.2-4.5-5-3.3-14.3 2.5-19.6 4.2-3.9 9.2-4.6 15.6-2.2m7.2 7.5c3.6 9.3-3.3 20.4-12.6 20.4-3.4 0-9.4-1.8-9.4-2.8s19.3-20.2 20.3-20.2c.4 0 1.2 1.2 1.7 2.6"/>
</svg>
