<svg xmlns="http://www.w3.org/2000/svg" width="341.333" height="341.333" version="1.0" viewBox="0 0 256 256">
    <g fill="#e5e5e5">
        <path d="M218 63.5 190.5 91h4c3.9 0 4.7-.7 29.8-25.8C238.4 51.1 250 38.7 250 37.7c0-1.1-.8-1.7-2.3-1.7-1.6 0-10 7.7-29.7 27.5"/>
        <path d="m155 106.1-51.5 51.1 3.9 3.4c8.2 7.1 22.3 10.1 33.2 6.9 11.3-3.2 20.4-10.9 25.3-21.4 2.3-4.9 2.6-6.9 2.6-15.6 0-9.3-.2-10.5-3.2-16.5l-3.3-6.5L186.5 83C200.3 69.3 211 57.8 211 56.8c0-5.6-5.1-1.1-56 49.3m-41.1-17.3c-10.6 3.5-19.1 11-23.8 21.2-2.3 4.8-2.6 6.8-2.6 15.5 0 9.3.2 10.5 3.2 16.5l3.3 6.5L69.5 173C55.7 186.7 45 198.2 45 199.2c0 5.6 5.1 1.1 56-49.3l51.5-51.1-3.9-3.4c-8.5-7.3-23.6-10.2-34.7-6.6m79.8 19c-8.6 8.6-15.7 16.5-15.7 17.5 0 1.2.8 1.7 2.8 1.7 2.2 0 6-3.3 20.2-17.5L218.5 92H214c-4.5 0-4.6.1-20.3 15.8M55 146.5 37.5 164H42c4.5 0 4.6-.1 20.3-15.8 8.6-8.6 15.7-16.5 15.7-17.5 0-1.2-.8-1.7-2.8-1.7-2.2 0-6 3.3-20.2 17.5"/>
        <path d="M31.7 190.8C17.6 204.9 6 217.3 6 218.3c0 1.1.8 1.7 2.3 1.7 1.6 0 10-7.7 29.7-27.5L65.5 165h-4c-3.9 0-4.7.7-29.8 25.8"/>
    </g>
</svg>
