<svg xmlns="http://www.w3.org/2000/svg" width="341.333" height="341.333" version="1.0" viewBox="0 0 256 256">
    <g fill="#e5e5e5">
        <path d="M106.5 12c-23 3.6-45.4 15.5-63 33.4-14.8 15.2-23.9 31.1-29.7 52.3-1.8 6.7-2.1 10.6-2.2 27.8-.1 18.9.1 20.5 2.7 29.9 4.4 16 13.5 33.5 22.9 44.2l3.1 3.5-14.1 14.2c-9.8 9.8-14.2 14.9-14.2 16.5 0 1.4.6 2.2 1.7 2.2 1 0 9.3-7.5 18.5-16.7l16.7-16.6-4.6-5.1c-12.8-14.2-20.6-30.5-25.3-52.4-5.5-25.8.6-55.6 16.2-79.2 19.3-29.4 51.4-47.4 87-48.7 10.5-.4 14.3-.2 23 1.7 21.9 4.7 38.2 12.5 52.4 25.3l5 4.5 16.7-16.6C235.6 16 238.5 12 233.8 12c-1.6 0-6.7 4.4-16.5 14.2l-14.2 14.1-3.5-3.1C189 27.9 171.4 18.7 156 14.5c-8.1-2.3-12-2.7-26.5-3-9.3-.2-19.7 0-23 .5M214 47.5 187.6 74l3.6 3.7c12.6 13.2 20.7 36.5 19.5 56.3-2.2 36.2-25.2 64.4-60.7 74.6-9.9 2.8-30 2.6-40.4-.4-10.6-3.1-21.1-8.3-28.5-14.3-3.4-2.7-6.7-4.9-7.4-4.9s-12.8 11.6-27 25.8C21 240.5 18.3 244 22.6 245.7c1.1.4 5.9-3.7 16.4-14.2l14.8-14.7 5.5 4.5c10.4 8.5 26.8 16.6 41.7 20.8 7.7 2.1 10.5 2.4 29.5 2.4 20 0 21.4-.2 30.5-2.8 11.8-3.4 29.3-12 38.1-18.6 7.9-6 18.3-16.5 24.4-24.6 6.2-8.2 14.9-26.1 18.2-37.5 2.6-9.1 2.8-10.5 2.8-30.5 0-19-.3-21.8-2.4-29.5-4.4-15.5-12.1-31-20.8-41.7l-4.5-5.5L231.5 39c10.5-10.5 14.6-15.3 14.2-16.4-1.7-4.4-5.1-1.7-31.7 24.9"/>
        <path d="M112.7 46c-44.9 8.1-75 51.3-66.1 94.8 2.8 13.8 10.4 29.2 18.8 38.5 2.9 3.2 3.3 3.2 5.7 1.1 1.7-1.5 1.6-1.9-3.2-7.8-6.1-7.5-12.2-19.8-14.4-29.1-2.4-9.8-2.2-26.6.4-36.8 3.4-13 9.2-22.9 19.6-33.2C83.8 63.1 93.8 57.3 106.6 54c9.8-2.5 27.8-2.7 37.3-.4 8.9 2.1 21.3 8.3 28.7 14.3l6.2 5 2.1-2.3 2.1-2.2-7.2-5.7c-8.5-6.6-18.5-11.7-28.9-14.7-8.3-2.4-26.3-3.5-34.2-2m59.4 43.4-10.4 10.4 3.2 4c1.7 2.2 4.4 6.7 5.9 9.9 2.4 5.3 2.7 6.9 2.7 17.3 0 10.9-.2 11.9-3.2 18.2-4.4 9.4-10.9 16-20.2 20.6-7.4 3.6-7.7 3.7-19.1 3.7-10.4 0-12-.3-17.3-2.7-3.2-1.5-7.7-4.2-9.9-5.9l-4-3.2-10.4 10.4C83.7 177.8 79 183 79 183.6c0 1.9 11.5 10.1 19.4 13.8 10.4 4.9 18.4 6.6 31.8 6.6 14.1 0 23.5-2.2 35.1-8.2 11.4-5.9 24.6-19 30.4-30.3 6.7-13.1 8.7-21 8.7-35 .1-13.5-1.4-20.2-7-32.1-3.7-7.8-11.9-19.4-13.8-19.4-.6 0-5.8 4.7-11.5 10.4"/>
        <path d="M115.8 84c-12.3 3.1-23 12.1-28.7 24-3.4 7.1-3.6 8.1-3.6 17.5.1 11.4 2 17.5 8.1 25.9l3.6 4.9 10-10 10-10-1.6-3.1c-2-3.9-2.1-10.4-.1-14.3 3.3-6.3 12.8-8.9 19.7-5.3l3.1 1.6 10-10 10-10-4.9-3.6c-7.3-5.3-14.6-7.8-23.9-8.2-4.4-.2-9.7.1-11.7.6m14.8 46.9-9.9 9.9 3.4 2.1c11.8 7.2 26.1-6.9 18.9-18.7-1.1-1.7-2.1-3.2-2.3-3.2-.1 0-4.7 4.5-10.1 9.9"/>
    </g>
</svg>
