<svg xmlns="http://www.w3.org/2000/svg" width="341.333" height="341.333" version="1.0" viewBox="0 0 256 256">
    <g fill="#e5e5e5">
        <path d="M120.6 55.2C112.2 69.6 107 86.1 107 98.5c0 8.9 1.9 16.6 7.1 29.6 7.5 18.9 9 24 9.6 33.5.8 13-1.7 21.1-9.1 29.1-3.2 3.5-7.5 6.8-10.5 8.3-6.7 3.1-5.4 4.2 5.3 4.8 18.4 1 34.7-8.7 40.5-24.1 3.5-9.2 3.2-25.1-.7-36.2l-1.7-5-.3 3.7c-.2 2.1-.6 3.8-1 3.8s-2.6-3.7-5-8.3c-2.3-4.5-7.1-13.4-10.7-19.7-9.4-16.5-11-22.3-10.9-39 .1-10.5.6-15 2.2-20.5 1.1-3.8 1.9-7.1 1.7-7.3s-1.5 1.6-2.9 4"/>
        <path d="M98.4 106.5c2.1 9.3 1.3 18.3-2.4 25.5-1 1.9-5.2 8.2-9.3 13.9-10.4 14.6-12.1 21.4-7.2 30l2.5 4.4-3-.6c-1.6-.4-3-.2-3 .2 0 1.4 7.4 6.9 11.4 8.6 5.5 2.3 15.3 1.9 20.1-.8 4.2-2.4 8.5-8.6 8.5-12.5 0-2.6-.7-2.7-3.4-.7-3.4 2.6-8.1 1.9-11-1.5-4.3-5.1-4.3-8.7-.2-21 3-9.3 3.6-12.3 3.6-19.8 0-9.5-1.8-18.1-5-24-1.1-2-1.9-2.8-1.6-1.7m74.2 11.5c-3.5 3.4-7.8 8.2-9.5 10.8-5.6 8.8-6.4 12.2-7 32.2-.6 17-.9 19-3.2 24-3.3 6.9-6.7 11.1-12.4 14.7-2.5 1.5-4.5 3.1-4.5 3.4s1.8 1.4 4 2.4c4.7 2.1 13.8 1.7 18.7-.9 3.9-2 8.9-6.9 11-11 2.5-4.4 2.2-17.9-.6-34.9-2-11.9-2.1-14.6-1.2-20.3 1.3-7.2 4.9-16.1 8.5-20.8 5.5-7.5 4.6-7.4-3.8.4"/>
        <path d="M109 142c0 .5.5 1 1 1 .6 0 1-.5 1-1 0-.6-.4-1-1-1-.5 0-1 .4-1 1m-1.6 7.1c-.9 1.5 1.2 3.3 3 2.6.9-.4 1.6-1.3 1.6-2.2 0-1.7-3.5-2.1-4.6-.4M105 158c-2.4 2.4-2.6 5.3-.4 7.4 3.4 3.4 8.4 1.1 8.4-3.9 0-2.4-.6-3.8-1.9-4.5-2.8-1.4-3.8-1.3-6.1 1"/>
    </g>
</svg>
