<svg xmlns="http://www.w3.org/2000/svg" width="341.333" height="341.333" version="1.0" viewBox="0 0 256 256">
    <g fill="#e5e5e5">
        <path d="M135.6 27.3c-1.9 1.9-4 4.6-4.6 6.1-1.5 4.1-1.2 11.3.7 14.9l1.6 3.2 1-2.5c2.7-7.2 4.2-9.6 8.7-14.4 5.1-5.4 5.9-7.3 3.8-9.4-2.4-2.4-7.5-1.4-11.2 2.1M116.5 40c.4 1.4.9 6.9 1.2 12.2.9 16.9-2.8 25-21 46.8-12.9 15.3-14.2 18-14.2 29.5 0 7.5.4 9.6 2.2 12.7 2.3 3.9 1.7 4.6-1.9 2.7-3.7-2-3-.1 1.8 5.2 6.1 6.5 10.5 9.3 18 11.5 9.9 2.8 21.3.4 27.1-5.8 2.9-3.1 6.3-10.6 6.3-14.1v-2.8l-2.8 2.1c-4.5 3.3-10 3.6-14.2.8-8.6-5.8-9.1-15.1-1.8-31.8 6.2-14.1 8.2-24.4 7.5-38-.6-10.6-4.1-25.3-7.3-30.9l-1.5-2.6z"/>
        <path d="M142.7 53.2c-5.3 10.9-7.1 18.1-7.1 27.8 0 9.4.6 11.8 7.2 27 5.8 13.4 7.2 18.9 7.2 27.5 0 10.9-5.4 20.1-14.4 24.7l-4.1 2.2 4 .9c18.5 4.1 38.2-12 36.1-29.6-.7-6.3-5.1-15.5-15.3-32.4-4.5-7.2-8.8-15.3-9.8-18-2.4-6.9-3-21.2-1.2-29.8.8-3.9 1.3-7.2 1.2-7.3-.2-.2-1.9 2.9-3.8 7M109.1 51C105 64.7 97.8 74 82.3 85.8c-22 16.8-27.3 23.8-28.1 37.2-.5 9.3.8 14.6 5.4 20.6 1.9 2.5 3.4 4.7 3.2 4.8s-4.2 2.8-9.1 6c-8.9 5.9-15.3 8.5-21.6 8.7l-3.6.1 4.4 1.1c6.2 1.5 14.1-.4 20.9-4.9 6.2-4.1 12.1-6.4 16.5-6.4h3.1l-4.4 4.6-4.5 4.6 6.8-3.5c5.6-3 7.3-3.4 9.3-2.7 3.5 1.4 3.6 1.3 2.4-1.1-.6-1.1-4-4.1-7.5-6.6-8.7-6.3-11.8-11-12.3-19.1-.4-5.7-.1-7 3.4-14 4-8.1 7.8-12.4 26.6-29.5 7.3-6.6 10.4-10.2 12.7-14.7 3.4-6.9 5.4-15.2 4.9-20.7l-.3-3.8z"/>
        <path d="M151 71.7c.1 7 3.5 12.2 15.9 24.3 13.5 13.2 18 20.4 18.8 29.9.9 9.1-1.7 15.2-9.4 22.8-3.4 3.4-6.3 6.7-6.3 7.2 0 .6 1.9.1 4.3-.9 8-3.7 12.3-2.7 27.8 6.3 5.4 3.2 11.9 4.3 18.6 3.1l4.8-.8-6.6-.7c-7-.7-12.1-2.9-19.7-8.3q-9.3-6.6-13.2-6.6c-1.9 0-1.8-.5 1.7-4.4 6.3-7.1 7.9-16 4.8-26.3-2.2-7.3-6.1-12.1-18.8-22.7-13.7-11.4-18.5-16.7-20-22.4-1.4-5.2-2.7-5.4-2.7-.5m-22 16.2c0 .6.5 1.3 1 1.6.6.3 1-.1 1-.9 0-.9-.4-1.6-1-1.6-.5 0-1 .4-1 .9m-.7 10.3c.2.7 1 1.3 1.7 1.3s1.5-.6 1.8-1.3c.2-.7-.5-1.2-1.8-1.2s-2 .5-1.7 1.2m-.9 10.2c-1 2.6.4 4.8 2.8 4.4 1.7-.2 2.3-1 2.3-2.8s-.6-2.6-2.3-2.8c-1.3-.2-2.5.3-2.8 1.2m-6.3 12.2c-2.4 3.1-2.5 3.8-.9 6.7 2.8 5.3 9.2 6.4 13.3 2.2 4.6-4.5 2.1-9.9-3.5-7.8-3.2 1.2-4 .8-4-1.9 0-2.6-2.5-2.2-4.9.8"/>
        <path d="M176.5 157c-.4.7-.3 1.6.3 2.2 1.4 1.4 4.5.2 4-1.5-.6-1.6-3.4-2.1-4.3-.7m7.7.2c.6 1.8 2.8 2.1 2.8.4 0-.9-.7-1.6-1.6-1.6s-1.4.5-1.2 1.2m6.8 1.8c0 .5.5 1 1 1 .6 0 1-.5 1-1 0-.6-.4-1-1-1-.5 0-1 .4-1 1m-94 4c0 .5.5 1 1 1 .6 0 1-.5 1-1 0-.6-.4-1-1-1-.5 0-1 .4-1 1m-23 1.3c-7.1 2.3-11.9 8.8-20.5 27.6C43.1 214.5 37 221.5 22 227.7c-5.4 2.2-5.4 2.3-2 2.3 5.1 0 15.4-2.6 21.5-5.6 8-3.7 14.3-10 21-20.9 11.4-18.6 19.4-24.9 31.5-24.9 4.3 0 7.6.6 9.8 1.8 1.9.9 3.6 1.5 3.9 1.2s-.6-2.5-2.1-5c-6.3-10.7-19.9-16-31.6-12.3m91.9 0c-6.4 2.4-10.9 5.8-13.4 10.1-3.4 5.8-3.2 7.3.5 4.2 5.5-4.6 13.8-4.6 21.6-.1 4.8 2.8 6.6 5.1 16.5 21 8.6 14 14.4 20.2 22.5 24.3 6.3 3.2 17.2 6.2 22 6.2 2.4-.1 1.5-.8-5.5-4.5-13.8-7.2-18-12.3-26.6-32-9.9-22.9-16.2-29.6-27.8-30.2-3.5-.2-7.8.3-9.8 1m-63.5.8c-1 1.7 1.3 3.6 2.7 2.2 1.2-1.2.4-3.3-1.1-3.3-.5 0-1.2.5-1.6 1.1m16.8 1.6c.4 2.1 3.3 2.5 3.3.3 0-.8-.8-1.6-1.8-1.8-1.4-.3-1.8.1-1.5 1.5m-9.8 2.8c-.7 1.8 1.2 4.5 3.2 4.5 1.6 0 3.3-3 2.7-4.8-.7-1.7-5.2-1.5-5.9.3m16.9.5c-7.8 1.7-14.3 10.5-14.3 19.3 0 9.6 4 14.5 17.7 22.2 10 5.5 16.4 11 18.8 16.2 2.4 5 3.8 2.3 2.5-4.6-1.4-7.3-5.3-14.4-12-21.6-8.2-8.8-10.4-13.7-8.4-19 .9-2.3 6.2-4.8 9-4.1s3-.1.8-3.2c-2.8-4-9-6.3-14.1-5.2"/>
        <path d="M88.8 183.3c-5.6 1.8-12 6.8-15.6 12.2-4.5 6.8-4 7.4 1.6 1.7 5.5-5.6 9.9-8.5 8.9-5.8-.9 2.2 1 2 2.2-.3 1.8-3.2 7.8-5.4 13.3-4.8 4.3.5 4.8.4 3.8-.8-1.1-1.4-7.3-3.6-9.5-3.4-.5 0-2.7.6-4.7 1.2m50 .8c-3.1 1.7-2.1 5.4 2.9 10.9 5.4 6 6.8 5.2 2.7-1.7-1.5-2.6-2.7-5.9-2.6-7.5.1-3-.4-3.3-3-1.7"/>
    </g>
</svg>
