<svg xmlns="http://www.w3.org/2000/svg" width="341.333" height="341.333" version="1.0" viewBox="0 0 256 256">
    <g fill="#e5e5e5">
        <path d="M126.7 50.2c5.2 5.5 7.7 11.5 7.7 18.3 0 11-5.1 17.5-24.5 31.1-12.5 8.8-18.5 14.9-22 22.2-4.8 9.9-3.4 22.3 3.7 32.9 2.4 3.6 4.4 6.8 4.4 7.1 0 .4-2.7 0-8.6-1.4-2.8-.6-2.8-.5 1.5 3.9 5.5 5.8 16.4 11.2 25.4 12.7 15.7 2.8 33.9-4.7 39.9-16.4 5.9-11.4-.8-27.6-11.3-27.6-4.6 0-6 1.5-2.1 2.3 3.2.7 5.2 4.1 5.2 9.1 0 3.8-2.9 8-7 10.1-11.4 5.9-27.9-7.5-25.4-20.6 1.2-5.9 4.1-10.4 14.4-22 13-14.7 16.5-21.4 16.5-31.9 0-12-5-22.5-14.2-29.5-5.8-4.4-7.7-4.5-3.6-.3"/>
        <path d="M151.7 134.1c3.5 2.2 7.8 10 8.8 16.1 1 5.1-1.7 13.6-5.9 18.4-2 2.3-6.8 5.8-11.6 8.4-9.5 5.1-15.4 10.4-18.1 16.3-2 4.5-2.5 11.3-.9 13.7.7 1.1 1 .4 1-2.6 0-8.2 7.2-14.9 22.1-20.8 17.5-6.9 23-12.3 23.7-23.1.5-7.4-.9-12.4-5.1-18.3-3.7-5.1-11-10.2-14.6-10.2-2.6 0-2.6 0 .6 2.1"/>
    </g>
</svg>
