<svg xmlns="http://www.w3.org/2000/svg" width="341.333" height="341.333" version="1.0" viewBox="0 0 256 256">
    <g fill="#e5e5e5">
        <path d="M105.6 30.2c2.9 10 8.1 19.7 14.1 26 5 5.1 7.9 7 20.1 13 22.4 11 31.2 20.7 31.2 34.2 0 9-4.8 15.7-10 14.1-2.2-.7-2.6.5-.8 2.3 2.4 2.4 6.7 1.3 11.3-2.9 5.7-5.3 8-11.2 7.9-20.4-.1-8.5-2.2-13.5-9.8-22.6-5.6-6.8-13.5-13.6-12.3-10.6.4.9 1 2.4 1.4 3.3.5 1.4.3 1.5-1.5.5-1.2-.6-7.2-3.1-13.3-5.6-6.1-2.4-13.3-5.9-16-7.6-6.8-4.3-15-13.7-19.4-22-2-3.8-3.8-6.9-4-6.9s.3 2.4 1.1 5.2"/>
        <path d="M71.6 47C63.4 49.5 59 60.4 62 71c1.7 6.1 6.6 12.7 11 15 7.2 3.7 12.1 3.6 25-.5 11.6-3.7 23.5-5.6 29.3-4.9 1.8.2 4.9.6 6.9.9 6.4.9 14.5 4.4 20.9 9.1l6.1 4.6-2.8-3.7c-7.1-9.4-23.5-19.2-36.9-22-4.2-.9-12.5-1.5-20.8-1.5-16 0-20.2-1.4-23.1-7.4-2.3-4.9-2-7.3 1.3-10.6 2.2-2.2 2.5-3 1.4-3.4-2-.8-5.2-.6-8.7.4m-21.4 2.7c-3.4 1.4-5.4 11-3.3 16.5 1.1 2.8 7 8.8 8.7 8.8.9 0 .9-1.2-.2-4.8-1.2-3.9-1.3-5.9-.3-11.4 1.5-8.4 0-11.1-4.9-9.1"/>
        <path d="M87.1 53.4c-2.1 2.5-.4 5.8 2.7 5.4 2.3-.2 2.7-.8 2.7-3.3 0-2.3-.5-3.1-2.1-3.3-1.1-.2-2.6.4-3.3 1.2M46.4 84.5c-2.7 18 10.5 33.7 27.1 32.3 5.7-.5 11.4-3 34.7-15.6 11.5-6.3 21.1-8.7 30.7-7.7 7.5.7 16 3.5 21.2 7 5 3.2 4 .7-1.3-3.5-9.4-7.6-22.5-12-35.8-12-6.2 0-9.5.7-19 4.1-22.3 7.8-23.4 8.1-30.5 8.2-11 0-17.4-3.6-23.6-13.1l-2.8-4.4z"/>
        <path d="M59.4 81.1c-1 1.7 1.3 3.6 2.7 2.2 1.2-1.2.4-3.3-1.1-3.3-.5 0-1.2.5-1.6 1.1m67.4 17.2c-10.2 2.3-19.8 10.8-23.2 20.5-2.7 7.6-2.8 14.3-.6 35.2 1.2 11.3 2.1 24.3 2.1 29-.1 16.2-5.3 29-18.8 46l-2.8 3.4 4.9-3.4c8.2-5.9 18-17.1 22-25.1 6.1-12.3 7.1-20.1 5.6-41.9-1.1-16.2-1-19.4.4-25.8 3.1-14.9 9-23.6 19.1-28.4 9.5-4.5 21.6-3.8 27.3 1.4 1.5 1.5 2 2.8 1.6 4.1s-.2 1.7.5 1.3c.6-.4 1.1-2 1.1-3.6 0-3.8-6.7-9.5-13.5-11.6-7.1-2.1-18.9-2.6-25.7-1.1m-23.2 9.4c-1.1 1.1-.6 2.3.9 2.3.8 0 1.5-.4 1.5-.9 0-1.3-1.6-2.2-2.4-1.4"/>
        <path d="M144.5 108.5c-9.6 3.4-15.9 16.3-14.1 28.9.8 5.4 2.1 5.9 3 1.3l.7-3.2 2.1 4.4c2.4 5 8.3 9.6 14.2 11.2 2.7.8 8.6.9 17.1.5 19.5-1 28.2 1.3 37.2 9.9 5.1 4.9 5.4 4.5 1.2-1.8-7.5-11.3-21.6-21-35.2-24.2-9.1-2.1-11.8-3.2-14.9-6.2-6.2-5.9-5.7-14.2.9-17 4-1.6 3.6-2.9-1.5-4.3-4.7-1.3-5.8-1.2-10.7.5m-48.1 4.6c-.9 1.5 1.2 3.3 3 2.6.9-.4 1.6-1.3 1.6-2.2 0-1.7-3.5-2.1-4.6-.4m-7.2 5.1c-1.6 1.6-1.5 3.3.4 5.2 1.9 2 5.4.5 5.4-2.2 0-2-1.8-4.2-3.5-4.2-.6 0-1.6.5-2.3 1.2"/>
    </g>
</svg>
