<svg xmlns="http://www.w3.org/2000/svg" width="341.333" height="341.333" version="1.0" viewBox="0 0 256 256">
    <g fill="#e5e5e5">
        <path d="M165 22.2c0 .2-1.7 5.3-3.8 11.4-5.9 17.3-15.5 31.2-28.1 40.8-3.1 2.3-11.2 7.6-17.9 11.7-16.4 9.8-23.2 16-27.7 25.2-2.6 5.5-3.5 8.7-3.7 13.4-.2 3.5-.6 6.3-1 6.3s-2.2-1.8-3.9-4c-1.8-2.2-3.4-3.8-3.7-3.6-.2.3.4 3 1.3 6.1 4.2 14.5 15.2 23.5 28.8 23.6 7.4.1 12.1-1.6 16-5.9l2.8-3-6.5-.4c-10.4-.6-16.1-6.4-16-16.3.1-9.2 5.6-17 18.9-26.5 14-10 22.8-19.3 30.4-31.8 4-6.7 9.5-19.9 11.5-27.7 1.5-6 3.5-19.5 2.9-19.5-.2 0-.3.1-.3.2m23.7 3.4c-1.1 6.8-5.6 19.5-9.8 27.8-5.4 10.8-11.5 19.1-22.6 30.7l-9.5 9.9 2.8 1c1.6.5 4.2 1.6 5.7 2.5 1.6.8 3.3 1.5 3.8 1.5 1.5 0 9.8-13.5 15-24.4 8.2-17.6 16.6-44.7 15.7-50.8-.3-1.7-.5-1.2-1.1 1.8m2.3 54.2c0 .4-2.5 3.9-5.5 7.7-5.2 6.5-11.8 12.8-17.4 16.5l-2.4 1.6 3.3 4.7c4 5.5 4 5.5 11-5 7.4-11.1 14.3-26.3 11.9-26.3-.5 0-.9.3-.9.8M93 93c0 .5.5 1 1 1 .6 0 1-.5 1-1 0-.6-.4-1-1-1-.5 0-1 .4-1 1m-7 4.5c0 .8.7 1.5 1.5 1.5s1.5-.7 1.5-1.5-.7-1.5-1.5-1.5-1.5.7-1.5 1.5m-5.8 7.2c.5 2.6 3.8 2.9 3.8.4 0-1.5-.6-2.1-2.1-2.1-1.4 0-1.9.5-1.7 1.7"/>
        <path d="M126.5 104.3c-3.4 1.6-9.5 6.5-9.5 7.7 0 .4 2.6.8 5.9.8 9.3-.1 15.4 4.8 16.3 13.2 1.2 10.2-4.5 19.3-18.2 29-17.3 12.3-27.2 23.8-35.5 41.1-2.4 5.2-5.5 13.7-6.8 18.9-2.4 9.4-4.4 22-3.3 20.9.3-.3 1.7-4.4 3.1-9.2 4.8-16.8 14.9-32.9 26.5-42.4 3.2-2.6 11.8-8.4 19.1-12.8 21.9-13.3 31.1-23.5 32.6-36.3.3-2.9.9-5.2 1.4-5.2 1.4 0 4.7 6.4 6.9 13.4 3.5 10.8 1.4 21.4-6.6 33.6-.9 1.4.7 0 3.5-2.9 9.5-10.2 12.6-20.9 9.8-34.3-3.2-15.8-11.5-27.5-23.7-33.2-7.5-3.5-16.6-4.5-21.5-2.3m-50.1 10.1c-1 2.6.4 4.8 2.8 4.4 1.7-.2 2.3-1 2.3-2.8s-.6-2.6-2.3-2.8c-1.3-.2-2.5.3-2.8 1.2"/>
        <path d="M116 122.2c-2.7 4.5-2.5 8 .6 11.1 5.2 5.2 8.5 4.2 10-3.1.8-3.9-1.3-7.5-5.6-9.7-3-1.5-3-1.5-5 1.7m-51-.6c-3.2 3.8-.6 12.3 4.6 14.6 3.1 1.4 3.9.6 2.3-2.4-.8-1.2-1.6-4.8-1.9-7.8-.5-5.9-2.5-7.6-5-4.4m64.5 1.4c-.3.5-.1 1 .4 1 .6 0 1.1-.5 1.1-1 0-.6-.2-1-.4-1-.3 0-.8.4-1.1 1m46 2.5c.4 1.1 1 3.3 1.2 5 .9 6.8 1.3 7.5 3.8 7.5 1.9 0 2.5-.5 2.5-2 0-2.9-2.3-7-5.6-10-2.4-2.2-2.6-2.2-1.9-.5m-44.8 3.1c-.8.8.1 2.4 1.4 2.4.5 0 .9-.7.9-1.5 0-1.5-1.2-2-2.3-.9m-3.2 7.3c-.8 1.5.3 3.1 2.1 3.1.9 0 1.4-.7 1.2-1.7-.4-2-2.4-2.8-3.3-1.4m-52.9 9.3c-2.6 4-5.3 11.7-6 17.3l-.7 5 3.4-7c1.8-3.9 4.6-8.4 6-10.1 2.7-3.1 2.7-3.2.8-5.5l-1.8-2.3zm81.7 5.7c-1.8 3.6-3.5 8.3-3.9 10.3-1.1 6.7-5.6 12.2-15.1 18.6-4.8 3.3-9.9 7.2-11.3 8.8l-2.5 2.8 2.5-1.7c1.4-.9 6.6-4.1 11.5-7.1 5-3 10.9-7.1 13.2-9.1 5.7-4.8 10.4-14.5 10.5-21.3 0-8.5-1.3-8.8-4.9-1.3m-74.2 5.9c-3.9 7.7-6.6 22.6-5.2 29.7l.7 4 .7-4.8c1-7 6-16.7 11.6-23l4.9-5.3-4.6-2.2c-2.6-1.2-5-2.2-5.4-2.2s-1.6 1.7-2.7 3.8m13.9 5.7c0 2.2.4 2.6 2.3 2.3 1.4-.2 2.2-1 2.2-2.3s-.8-2.1-2.2-2.3c-1.9-.3-2.3.1-2.3 2.3"/>
        <path d="M140.8 167.4c-5.3 3.8-6.8 6.4-4.3 7.3 2.9.9 11.4-7.8 10.3-10.6-.2-.4-2.9 1.1-6 3.3m-51.4.7c-1 1.7 1.3 3.6 2.7 2.2 1.2-1.2.4-3.3-1.1-3.3-.5 0-1.2.5-1.6 1.1m-3.9 7.9c.3.5.8 1 1.1 1 .2 0 .4-.5.4-1 0-.6-.5-1-1.1-1-.5 0-.7.4-.4 1"/>
    </g>
</svg>
