<svg xmlns="http://www.w3.org/2000/svg" width="341.333" height="341.333" version="1.0" viewBox="0 0 256 256">
    <g fill="#e5e5e5">
        <path d="m156.9 16-4.8 5h-16.5c-24.8 0-39.1 2.7-56.4 10.5-5.8 2.6-12.4 4.4-26.2 7-16.4 3-18.8 3.7-20.8 6-2.6 3-2.6 4.6-.7 13.5 2.3 10.3 1.9 13-2.5 21.3-9.2 17.1-13.2 33.5-13.2 54.2 0 32.1 11 58.7 33.5 80.7 14.1 13.9 30.5 23.1 50.5 28.6 8.8 2.3 11.3 2.6 28.2 2.6 16.7-.1 19.5-.3 28.1-2.6 5.2-1.4 13-4 17.1-5.8 12.9-5.3 35.8-22 41.1-30 1.3-1.9 4.4-6.4 6.9-10 12.9-18.5 19-38.8 19-63.5 0-19.8-3.5-35.2-11.7-51.5-8.3-16.4-23.6-33.3-39-43-4.7-3-11.3-7.6-14.4-10.2-5.4-4.3-5.9-5-6.5-9.7-.7-5.2-2.6-8.1-5.3-8.1-.9 0-3.7 2.2-6.4 5m8.1 7.7v5.1l5.5 3.1c3 1.7 6.1 4.1 6.7 5.2.7 1.2 5.1 4.7 9.8 7.9 11.6 7.9 18.8 14.6 26.1 24.3 15.9 21.1 23.7 48.6 20.9 74.2-.5 5.5-1.5 11.3-2 13-1 3-1 3-.5-.5 4.2-27.8 1.7-46.6-9-68.5C211 64 193.1 47.1 172.7 40.6l-10.6-3.3L161 40c-.6 1.5-2.4 4-4 5.5l-2.8 2.7-.7-3.1c-.4-1.7-.5-4.7-.3-6.7l.3-3.6-9-2.5c-5-1.3-11.8-2.7-15.1-3-6.4-.5-21.8 1.1-25.7 2.7-1.6.7-1.1.8 1.8.2 2.2-.3 6-.7 8.5-.7 4.1 0 4.5.2 4.8 2.7q.3 2.7 2.4 3c1.5.2 5.7 6.6 15.9 24.3 7.6 13.2 14 24.4 14.2 24.9.3.9 7.7-3 7.7-4 0-.2-5.6-10.1-12.5-22S134 38.4 134 37.8c0-.5 1.2-.7 2.8-.4 1.5.3 4.3.8 6.2 1.1 3.3.6 4 1.5 14.9 20.4l11.4 19.8 4.1-1c2.3-.5 4.2-1.1 4.4-1.2.1-.1-3.8-7.3-8.9-15.9-5-8.7-8.9-16-8.6-16.2.6-.7 11.5 4.8 14.5 7.2 1.3 1.1 4.9 6.4 8.1 11.9 5.5 9.7 5.8 10 9.2 10 1.8-.1 4.8-.4 6.5-.7 5.5-1.2 6.3.4 6.5 12.1l.1 10.4 5.3 8.6c2.8 4.8 5.5 10.5 5.9 12.6.7 3.6.6 3.8-.7 2-.7-1.1-3.3-5.5-5.6-9.8-2.4-4.3-4.5-7.6-4.8-7.4-.2.3 2.3 5.2 5.6 10.9l6.1 10.4v8.7c0 4.7-.4 8.8-.9 9.1-.4.3-5-6.7-10.1-15.7-5.1-8.9-9.5-16.4-9.7-16.6-.5-.7-7.3 2.8-7.3 3.8 0 .5 5.5 10.4 12.2 22.1l12.2 21.2-2 5.5c-1 3-2.3 5.6-2.8 5.7-.5 0-7-10.6-14.6-23.7-7.5-13.1-14.2-24.3-14.8-24.9-.8-.8-1.5-.8-2.6.1-1.1 1-1.3 2.5-.9 6.4.5 4.3 2.9 9.3 13.9 28.3 7.4 12.7 13.4 23.9 13.4 24.8s.8 1.6 1.7 1.6 2.4.7 3.4 1.6c1.7 1.5 2 1 6.3-7.8 8.9-18.2 12.2-39.2 9.2-58.3-3.2-21.2-10.7-36.9-26.3-55.5l-3.8-4.5 4.4 3.9c10.4 9.1 17.3 18.4 23.7 32 6.8 14.5 8.9 24.1 8.9 42.6 0 11.9-.4 17.2-1.9 23-3.4 13.4-8.7 25.4-15.8 35.5-2.1 3.1-2.9 5.6-3.4 11.2l-.7 7.2-7.4 1.3c-6 1-8.5 2-12.6 5-7.1 5.3-20.8 12.2-30.2 15.1-22.9 7.2-48.7 5.9-71.1-3.6-22.4-9.4-42.4-28.9-52.5-51.3C32 170 27 152.7 27 149.1c0-.9 1.7 3.5 3.9 9.6 11.4 33.5 36.8 57.2 71.2 66.5 11.3 3 34.5 3.3 45.9.4 7.1-1.7 22.5-7.5 21.8-8.1-.2-.2-9.2 1.4-20 3.4-10.9 2.1-19.8 3.4-19.8 3s-.6-1.4-1.3-2.1-6.6-10.5-13.1-21.8c-17.2-29.8-15.8-28-20.1-27-2 .5-3.9 1-4.2 1.3-.2.3 5.4 10.7 12.7 23.2 7.2 12.5 12.9 23 12.6 23.2-1 1.1-10.9-1-12.5-2.6-.9-.9-6.8-10.8-13.1-21.8-8.2-14.5-12.1-20.3-13.5-20.5-1.5-.2-2.3-1.5-3-4.9-.5-2.5-1.8-5.4-2.7-6.3-1-1-1.8-2.4-1.8-3.2 0-.9-7.4-14.4-16.5-30.1-9.1-15.8-16.5-29.2-16.5-29.9s.9-3.7 2.1-6.6c1.5-4 1.9-6.3 1.4-10-.4-2.6-1-5-1.4-5.2-2.2-1.4-11.6 21.9-14.2 34.9-1.9 9.4-1.6 31 .5 40.3C29.9 175 38.8 191.6 53 206c13.6 13.8 25.5 21.4 43 27.1 4.7 1.6 7.8 2.8 6.9 2.9-2.2 0-14.4-4.2-21-7.4C27.8 203 6.1 136.7 34.3 83.5l4.4-8.2-2.6-13.2c-1.9-9.7-2.3-13.6-1.5-14.9.8-1.2 7.2-2.8 25.5-6.3 13.4-2.5 27.8-5.8 32-7.2 11.3-3.9 21-5.7 33.9-6.3 25.1-1.1 31-1.6 31-2.8 0-.6 1.4-2.9 3.1-5 3.8-4.5 4.9-3.6 4.9 4.1m30 41.8c-.7.8-1.7 1.2-2.3.8s-.3-.9.9-1.4c2.7-1.1 2.8-1.1 1.4.6m-6.1 3.1c1.2 2 2 3.9 1.7 4.1-.2.3-1.4-1.3-2.6-3.6-2.5-5.1-2-5.4.9-.5M213 96.5c0 .8-.7 1.5-1.5 1.5-1.3 0-1.4-.3-.3-1.5 1.6-1.8 1.8-1.8 1.8 0M62.9 165.1C78.5 192 91 214.4 90.7 214.6c-.8.8-14.2-6.4-16-8.4-.7-.9-10.5-17.5-21.5-36.8l-20.2-35v-9.2c0-5.1.4-9.2.8-9.2.5 0 13.6 22.1 29.1 49.1M35 157.6c0 .8-1.9 1.3-2.4.6-.3-.5.1-.9.9-.9s1.5.2 1.5.3m194 9.9c-1.2 3.6-2.4 6.5-2.6 6.3s.6-3.4 1.8-7.1c1.2-3.6 2.4-6.5 2.6-6.2.2.2-.6 3.4-1.8 7M59.4 183.8c11.3 19.7 13.7 25 8.1 18-2.6-3.3-22.7-41.2-20.8-39.3.6.5 6.3 10.2 12.7 21.3M44 173c0 .5-.8 1-1.7 1-1.5 0-1.6-.2-.3-1 1.9-1.2 2-1.2 2 0m9 15.5c0 .8-.7 1.5-1.5 1.5-1.3 0-1.4-.3-.3-1.5 1.6-1.8 1.8-1.8 1.8 0m54.7 48.1c-.3.3-1.2.4-1.9.1-.8-.3-.5-.6.6-.6 1.1-.1 1.7.2 1.3.5m5.6 1.1c-.7.2-1.9.2-2.5 0-.7-.3-.2-.5 1.2-.5s1.9.2 1.3.5m10.5 1c-1 .2-2.8.2-4 0-1.3-.2-.5-.4 1.7-.4 2.2-.1 3.2.1 2.3.4"/>
        <path d="m159.5 24.8-2 3.7-7.1-.3c-7.4-.4-10.8 1.1-5.2 2.2 1.8.3 4.9 1.1 7.1 1.7l3.9 1-.7 5c-.8 6 .4 6.3 3.4.9 2.5-4.4 3.3-4.7 8.2-2.6 1.9.7 4.5 1.7 5.9 2.1l2.5.8-2-2.3c-1.1-1.2-4.1-3.3-6.7-4.6L162 30l.7-4.5c.7-5.5-.5-5.8-3.2-.7M75.3 41.3c-20.4 4-37.4 7.5-37.7 7.8-.7.7 8.4 49.1 9.4 50.2.7.8 48.8-7.8 49.9-8.9.3-.3-.7-6.7-2.2-14.2-1.5-7.6-2.7-14.5-2.7-15.3s5-4.1 12-7.8l12-6.4v-6.3c0-5.5-.3-6.4-1.7-6.3-1 0-18.5 3.3-39 7.2m37.7-2.8c-1 1.2-1 1.9-.2 2.7 2.2 2.2 1.2 3.6-4.5 6.5-11 5.5-19.5 10.6-20 11.9-.3.8-.1 2 .5 2.7.5.6 1.2 2.8 1.6 4.8.6 3.1.4 3.7-1.1 3.5-1 0-1.8.6-1.8 1.4 0 .9.9 1.5 2.1 1.4 1.9 0 2 .2 1 1.8-.7 1.2-.8 2.1-.1 2.6 1.1.8 3.5 7.1 3.5 9.3 0 1.2-.2 1.2-.9 0-1.1-1.7-4.1-.7-4.1 1.4 0 1.7-.2 1.8-2.4.9-.9-.3-1.6-1.5-1.6-2.5s-.6-1.9-1.4-1.9c-2.3 0-3.1 2.2-1.3 3.5 2.1 1.5 2.2 2.5.1 2.5-.9 0-2.2-.7-2.9-1.7-1.3-1.8-3.5-1-3.5 1.3 0 .9-.7 1.4-1.7 1.3-1-.2-2.8.3-4.1 1-2 1.1-2.6 1-3.8-.6-.8-1-1.9-2.8-2.4-4.1-1.1-2.6-3.3-2.5-3.8.1-.2 1.1.3 1.7 1.6 1.7 1.5 0 1.8.5 1.4 2.5-.3 2-.9 2.4-2.7 1.9-1.3-.3-2.6-.1-2.9.5-.4.6-1.6 1.1-2.7 1.1-1.5 0-1.9-.7-1.9-3.5 0-2.5.4-3.5 1.6-3.5.9 0 1.4-.7 1.2-1.8-.2-.9-1.2-1.6-2.1-1.6-1.5.2-1.6-.1-.5-1.3 1-1.2.9-1.7-.3-2.7C50.6 80 48.3 70 50 69c.7-.4 1-1.5.7-2.5-.4-.9-1.2-1.3-1.9-.9-.8.5-.9.2-.5-1.1.4-.9.3-2.3-.2-2.9s-1.2-2.6-1.6-4.4c-.5-2.5-.3-3.2.9-3.2.9 0 1.6.7 1.6 1.5 0 1.6 1.2 2 2.3.8.4-.3.1-1.3-.6-2.1-1-1.3-.7-1.4 2.6-.8 2.1.4 3.7.3 3.7-.2 0-1.5 9.7-3.1 11-1.8.8.8 1.4.6 2.1-.7 1.3-2.2 5.7-2.3 5.5-.1 0 .9.5 1.9 1.3 2.2 1 .3 1.2-.2.7-2.2-.7-2.9 1-3.6 3.3-1.4 1 1.1 1.5 1 2.4-.3 1.7-2.2 8.8-3.9 11-2.5 1.2.8 2 .7 2.9-.6 1.6-2 9.5-3.3 10-1.6.2.6 1.1.9 2 .6 1.8-.7 1.3-5.7-.6-5.9-.6-.1.3-.5 1.9-.9 1.7-.4 3.2-.8 3.4-.9.2 0-.2.6-.9 1.4m-10 1.4c-2.4 1.3-8 2.1-8 1.1 0-.8 3-1.5 7.5-1.8 1.6-.1 1.7 0 .5.7M91 42c0 .5-.6 1-1.2 1-.7 0-3.1.2-5.3.5l-4 .5 4-1.4c4.9-1.8 6.5-1.9 6.5-.6m-17.5 3.5c-2.7.8-5.1 1.4-5.2 1.5-.2 0-.3-.4-.3-.9 0-1 3.3-1.7 8-1.9 1.4 0 .3.6-2.5 1.3M65 47c0 .5-.8 1-1.9 1-1 0-3.4.3-5.2.6-1.9.4-3.1.3-2.7-.1.6-.7 4.6-1.7 9.1-2.4.4 0 .7.3.7.9m-18 2.4c0 .2-1.6 1.3-3.5 2.5-1.9 1.1-3.5 1.7-3.5 1.2 0-1.2 2.1-2.8 4.5-3.4 1.1-.2 2.1-.5 2.3-.6.1 0 .2.1.2.3m4.3.3c-.7.2-1.9.2-2.5 0-.7-.3-.2-.5 1.2-.5s1.9.2 1.3.5m-7.9 14.4.6 5.4-1.5-6c-1.7-7-1.8-8.6-.5-6.4.5.8 1.1 4 1.4 7M46.8 82v2.5L46 82c-.4-1.4-.8-3.4-.8-4.5l-.1-2 .9 2c.5 1.1.8 3.1.8 4.5M50 96.5c0 .5-.5.3-1-.5s-1-2-1-2.5c0-.6.5-.3 1 .5s1 1.9 1 2.5"/>
        <path d="M101.6 45.9c-.7 1.1 1.8 3.3 2.7 2.4.4-.3.7-1.2.7-2 0-1.5-2.6-1.8-3.4-.4m-13.2 2.2c-1 1.7 1.3 3.6 2.7 2.2 1.2-1.2.4-3.3-1.1-3.3-.5 0-1.2.5-1.6 1.1m8 1c-1 1.7 1.3 3.6 2.7 2.2 1.2-1.2.4-3.3-1.1-3.3-.5 0-1.2.5-1.6 1.1m-12.8 1.6c-1.2 1.2-.6 3.3.9 3.3.8 0 1.5-.6 1.5-1.4 0-1.7-1.4-2.8-2.4-1.9m8 1c-1.2 1.2-.6 3.3.9 3.3.8 0 1.5-.6 1.5-1.4 0-1.7-1.4-2.8-2.4-1.9M62 53.5c0 .8.7 1.5 1.5 1.5s1.5-.7 1.5-1.5-.7-1.5-1.5-1.5-1.5.7-1.5 1.5m8 1c0 .8.7 1.5 1.5 1.5s1.5-.7 1.5-1.5-.7-1.5-1.5-1.5-1.5.7-1.5 1.5m7.5.4c-.3.5-.1 1.2.5 1.6 1.2.7 3-.2 3-1.6 0-1.2-2.7-1.2-3.5 0m-21 1c-.7 1.2 1.2 2.4 2.5 1.6 1.1-.7.4-2.5-1-2.5-.5 0-1.1.4-1.5.9m28.8.3c.2.7 1 1.3 1.7 1.3s1.5-.6 1.8-1.3c.2-.7-.5-1.2-1.8-1.2s-2 .5-1.7 1.2m-20.8.9c-1 1.5.1 2.3 2 1.5.9-.3 1.3-1 1-1.6-.8-1.3-2.2-1.3-3 .1m7.5 1.4c0 1 .7 1.5 1.8 1.3 2.1-.4 1.9-2.2-.2-2.6-1-.2-1.6.3-1.6 1.3m-20.3.2c-1.2 1.1-.8 2.3.8 2.3.8 0 1.5-.7 1.5-1.5 0-1.6-1.2-2-2.3-.8m28.3.8c0 .8.7 1.5 1.5 1.5s1.5-.7 1.5-1.5-.7-1.5-1.5-1.5-1.5.7-1.5 1.5m-20.8 1.1c.4 2.1 2.2 2.3 2.6.1.2-1-.3-1.7-1.3-1.7s-1.5.6-1.3 1.6m8 1c.4 2.1 2.2 2.3 2.6.1.2-1-.3-1.7-1.3-1.7s-1.5.6-1.3 1.6m8 1c.4 2.1 2.2 2.3 2.6.1.2-1-.3-1.7-1.3-1.7s-1.5.6-1.3 1.6m-21.8.5c-1 1.7 1.3 3.6 2.7 2.2 1.2-1.2.4-3.3-1.1-3.3-.5 0-1.2.5-1.6 1.1m29.1-.2c-.3.5 0 1.3.5 1.6.6.4 1.5 1.8 2 3.1 1.1 2.9 3 3.2 3 .4 0-1.1-.6-2-1.4-2-.9 0-1.2-.7-.9-2 .4-1.4 0-2-1-2-.9 0-1.8.4-2.2.9m-21.1 1.2c-1 1.7 1.3 3.6 2.7 2.2 1.2-1.2.4-3.3-1.1-3.3-.5 0-1.2.5-1.6 1.1m8 1c-1 1.7 1.3 3.6 2.7 2.2 1.2-1.2.4-3.3-1.1-3.3-.5 0-1.2.5-1.6 1.1m8 1c-1 1.7 1.3 3.6 2.7 2.2 1.2-1.2.4-3.3-1.1-3.3-.5 0-1.2.5-1.6 1.1m-20.8.6c-1.2 1.2-.6 3.3.9 3.3.8 0 1.5-.6 1.5-1.4 0-1.7-1.4-2.8-2.4-1.9m8 1c-1.2 1.2-.6 3.3.9 3.3.8 0 1.5-.6 1.5-1.4 0-1.7-1.4-2.8-2.4-1.9m7.3 1.9c-1 1.3-.9 1.6.8 2 1.4.4 1.9 1.2 1.6 2.5-.4 1.3 0 1.9 1 1.9 2.3 0 3.2-2.1 1.3-3.2-.9-.5-1.6-1.5-1.6-2.3 0-2.1-1.6-2.6-3.1-.9m7.6.3c-.8 1.5.3 3.1 2.1 3.1.9 0 1.4-.7 1.2-1.7-.4-2-2.4-2.8-3.3-1.4m-28.8.7c-.9 1 .2 2.4 1.9 2.4.8 0 1.4-.7 1.4-1.5 0-1.5-2.1-2.1-3.3-.9m7.8 1.3c-.3.5-.1 1.2.5 1.6 1.2.7 3-.2 3-1.6 0-1.2-2.7-1.2-3.5 0m7.8 1.3c.2.7 1 1.3 1.7 1.3s1.5-.6 1.8-1.3c.2-.7-.5-1.2-1.8-1.2s-2 .5-1.7 1.2m16.4.4c-1.4 1.4-.7 3.5 1.1 3.2.9-.2 1.7-1 1.7-1.7 0-1.6-1.8-2.5-2.8-1.5M53 75.4c0 .8.4 1.7.9 2 1.1.7 3.3-1.8 2.4-2.7-1.2-1.2-3.3-.7-3.3.7m8.2 1.2c.4 2.1 2.2 2.3 2.6.1.2-1-.3-1.7-1.3-1.7s-1.5.6-1.3 1.6m8 1c.4 2.1 2.2 2.3 2.6.1.2-1-.3-1.7-1.3-1.7s-1.5.6-1.3 1.6m7.2.6c-.4.6-.2 1.4.5 1.6s1.7 1.5 2.2 2.9c.9 2.5 2.9 2.7 3.7.4.2-.7-.5-1.5-1.6-1.8-1.4-.3-1.8-1.1-1.5-2.4.6-2.1-2.1-2.7-3.3-.7m-21 .9c-1 1.7 1.3 3.6 2.7 2.2 1.2-1.2.4-3.3-1.1-3.3-.5 0-1.2.5-1.6 1.1m29 .1c-.4.6-.2 1.4.5 1.6s1.7 1.5 2.2 2.9c.9 2.5 2.9 2.7 3.7.4.2-.7-.5-1.5-1.6-1.8-1.4-.3-1.8-1.1-1.5-2.4.6-2.1-2.1-2.7-3.3-.7m-21 .9c-1 1.7 1.3 3.6 2.7 2.2 1.2-1.2.4-3.3-1.1-3.3-.5 0-1.2.5-1.6 1.1m8 1c-1 1.7 1.3 3.6 2.7 2.2 1.2-1.2.4-3.3-1.1-3.3-.5 0-1.2.5-1.6 1.1m-12.7 1.5c-1.4 1.4-.7 3.5 1.1 3.2.9-.2 1.7-1 1.7-1.7 0-1.6-1.8-2.5-2.8-1.5M66 85c0 1.5.5 2 1.8 1.8.9-.2 1.7-1 1.7-1.8s-.8-1.6-1.7-1.8c-1.3-.2-1.8.3-1.8 1.8m7.7.4c-.7 1.6.1 2.6 2 2.6.7 0 1.3-.9 1.3-2 0-2.3-2.5-2.7-3.3-.6m-5 2.2c-1.4 1.5-.6 3.4 1.4 3.4 1.4 0 1.9-.5 1.7-1.7-.3-1.8-2-2.7-3.1-1.7m-13.7 4c0 .9.7 1.4 1.7 1.2 2.5-.5 2.8-2.8.4-2.8-1.2 0-2.1.6-2.1 1.6m64-35.3c0 3.3-.5 4.9-1.5 5.3-.8.4-1.5 1-1.5 1.4 0 .5 20.4 36.5 21.4 37.7.1.2 1.6-1.2 3.4-3l3.1-3.2L132.6 75c-6.2-10.7-11.7-20.4-12.4-21.5-1-1.7-1.1-1.3-1.2 2.8m-17.2 13.5c-1.6 1-2.8 2-2.8 2.4 0 .8 25.8 45.9 27.1 47.2.4.5 1.8-1.1 3-3.6l2.1-4.5-12.3-21.6c-6.8-11.9-12.8-21.6-13.4-21.6-.5.1-2.2.8-3.7 1.7m81.4 9.3c-15.8 3.2-22.2 5.8-31.1 12.5-13 9.8-21.8 24.5-25.6 43-1.5 7.1-1.5 11.2-.4 41.6.9 22.5 1.6 33.8 2.3 33.8.6 0 18.3-3.2 39.4-7.2l38.3-7.2-.3-6.5-.3-6.6-15.2-2c-8.4-1.2-15.4-2.3-15.6-2.5-.4-.5-2.7-58.5-2.7-68v-5.6l15-7.9 15-7.9v-6.3c0-7.6 1.3-7.4-18.8-3.2m11.5 1.5c-.3.3-1.2.4-1.9.1-.8-.3-.5-.6.6-.6 1.1-.1 1.7.2 1.3.5M181.5 83c-.3.5-1 1-1.6 1-.5 0-.9-.5-.9-1 0-.6.7-1 1.6-1 .8 0 1.2.4.9 1m15.5 3.1c0 1.8-.2 1.9-1.5.9-1.5-1.2-1.2-3 .6-3 .5 0 .9 1 .9 2.1m-5.1 3.8c-.6 1.6-2.5-.1-3.4-2.9l-.7-2.5 2.2 2.1c1.2 1.2 2.1 2.7 1.9 3.3m-7 .2c.7 1.6 1.1 3.3.7 3.6-.3.3-1-.6-1.5-2.1-.6-1.4-1.5-2.6-2.1-2.6-.5 0-1-.5-1-1 0-2.2 2.6-.8 3.9 2.1M162.5 89c-.3.5-1.2 1-1.8 1-.7 0-.6-.4.3-1 1.9-1.2 2.3-1.2 1.5 0m15.9 2.1c-.2.4.3 1.4 1.1 2.2 1.7 1.7 2 3.7.6 3.7-.8 0-5.1-7.2-5.1-8.5 0-.3.9 0 1.9.7 1.1.7 1.8 1.5 1.5 1.9m-5.3 3.5c1 1.6 1.8 3.6 1.8 4.4.1 1.8-4.6-3.7-5.3-6.3-.7-2.7 1.5-1.5 3.5 1.9m-5.1 3.8c0 .8.5 1.8 1 2.1.6.3 1 1 1 1.6 0 .5-.4.9-1 .9-.5 0-1-.5-1-1.2 0-.6-.6-1.9-1.4-2.7-.7-.9-1.7-2.7-2.1-3.9l-.7-2.4 2.1 2.1c1.2 1.2 2.1 2.7 2.1 3.5M152 96c0 .5-.5 1-1.1 1-.5 0-.7-.5-.4-1 .3-.6.8-1 1.1-1 .2 0 .4.4.4 1m8.3 2.3c1.7 1.8 3.3 4.5 5.9 9.7 3.1 6.2 3.1 6 2.1 6-.4 0-1.4-1.4-2.1-3-.8-1.7-1.9-3.6-2.5-4.3-1.7-1.8-5.9-9.7-5.2-9.7.4 0 1.2.6 1.8 1.3m-2.3 8.3c1.1 2.4 2.5 4.4 3 4.4.6 0 1 .7 1 1.5 0 2.6-2.5.6-4.3-3.5-.9-2.2-2.1-4-2.7-4-.5 0-1-.9-1-2.1 0-3 1.7-1.4 4 3.7m-7 .9c0 .9.7 1.8 1.5 2.1.8.4 1.5 1.2 1.5 2 0 1.8-2.6.7-3.4-1.4-.3-.9-.9-2.3-1.2-3-.3-.6-.1-1.2.5-1.2s1.1.7 1.1 1.5m-3 6.9c0 .8.7 1.9 1.5 2.6 1.7 1.4 2 3 .5 3-.5 0-1-.6-1-1.4 0-.7-.7-1.9-1.5-2.6-1.7-1.4-2.1-4.5-.5-3.5.6.3 1 1.2 1 1.9m8 1.2c0 .8-.4 1.2-1 .9-.5-.3-1-1-1-1.6 0-.5.5-.9 1-.9.6 0 1 .7 1 1.6m8 1c0 .8-.4 1.2-1 .9-.5-.3-1-1-1-1.6 0-.5.5-.9 1-.9.6 0 1 .7 1 1.6m-5.5 2.3c.3.5.1 1.2-.5 1.6-.5.3-1-.1-1-.9 0-1.8.6-2.1 1.5-.7m7.2 2.3c-.3.8-.6.5-.6-.6-.1-1.1.2-1.7.5-1.3.3.3.4 1.2.1 1.9m-20.7.9c0 .5-.4.9-1 .9-.5 0-1-.7-1-1.6 0-.8.5-1.2 1-.9.6.3 1 1 1 1.6m8 1c0 .5-.4.9-1 .9-.5 0-1-.7-1-1.6 0-.8.5-1.2 1-.9.6.3 1 1 1 1.6m8 .9c0 .5-.2 1-.4 1-.3 0-.8-.5-1.1-1-.3-.6-.1-1 .4-1 .6 0 1.1.4 1.1 1m8 1c0 .5-.2 1-.4 1-.3 0-.8-.5-1.1-1-.3-.6-.1-1 .4-1 .6 0 1.1.4 1.1 1m-21 1c0 .5-.4 1-1 1-.5 0-1-.5-1-1 0-.6.5-1 1-1 .6 0 1 .4 1 1M99 97.7c0 1.1.9 2.7 2 3.4 1.6 1.1 2.6 4.1 4.4 13.4 2.2 11.3 2.8 12.9 9.2 24l6.9 12 .6-7.5.7-7.5-10.6-18.5c-5.8-10.2-11.1-19.2-11.9-20-1.1-1.2-1.3-1.1-1.3.7m-18.2 9.7c-8.6 1.7-16 3.4-16.3 3.7-.5.6 8.3 49.8 9.1 50.8.5.5 34.8-6 35.5-6.7.5-.5-6-36.8-9-51-.2-.5-4.3.2-19.3 3.2m6.9 2.2c-.3.3-1.2.4-1.9.1-.8-.3-.5-.6.6-.6 1.1-.1 1.7.2 1.3.5m10.3 6.9c1.3 2.5 2 4.8 1.7 5.1-.4.4-1.1-.5-1.6-2-.6-1.4-1.6-2.6-2.2-2.6-.7 0-.9-.3-.6-.6.3-.4.2-1.5-.4-2.5-.5-1.1-.6-1.9-.1-1.9s1.9 2 3.2 4.5m-7.6-1c-.4.8.1 1.7 1 2.1.9.3 1.6 1.2 1.6 2s-.6 1.1-1.5.8c-.8-.4-1.5-1.3-1.5-2 0-.8-.7-1.7-1.5-2-1.7-.7-1-2.4 1-2.4.9 0 1.2.6.9 1.5m-5.6 2.8c.7 1.5 1.8 2.7 2.3 2.7.6 0 .7.5.4 1.1-.4.5-.1 1.8.7 2.7 1.7 2.2 3.8 6 3.8 6.9 0 1.1-4.9-5-5-6.1 0-.5-1-2.3-2.3-4s-2.7-3.9-3-4.9c-1.1-2.9 1.6-1.5 3.1 1.6m-7.8-.8c0 .9.7 1.8 1.5 2.1.8.4 1.3.9 1 1.4-.2.4.2 1.6 1 2.6 1.7 2.3 1.9 3.4.5 3.4-.6 0-1.3-.8-1.7-1.8-.3-.9-1.6-3.1-2.9-4.8-2.2-2.9-2.2-4.4-.2-4.4.4 0 .8.7.8 1.5m18 6.1c0 .8-.4 1.2-1 .9-.5-.3-1-1-1-1.6 0-.5.5-.9 1-.9.6 0 1 .7 1 1.6m2.4 4.5c-.3.5-1 .7-1.5.3-.5-.3-.7-1-.3-1.5.3-.5 1-.7 1.5-.3.5.3.7 1 .3 1.5m-13.4 2c0 .5-.4.9-1 .9-.5 0-1-.7-1-1.6 0-.8.5-1.2 1-.9.6.3 1 1 1 1.6m16 1.9c0 .5-.2 1-.4 1-.3 0-.8-.5-1.1-1-.3-.6-.1-1 .4-1 .6 0 1.1.4 1.1 1m-21 1c0 .5-.4 1-1 1-.5 0-1-.5-1-1 0-.6.5-1 1-1 .6 0 1 .4 1 1m-23-19.3c.1 1.3 7 12.9 7 11.7 0-.6-.5-3.6-1.1-6.7-1-5-1.5-5.7-3.5-5.7-1.3 0-2.4.3-2.4.7"/>
        <path d="M177 161c0 11.2 1.8 14.6 8.5 15.6 2.5.3 4.8.4 5.1.2.4-.5-10.9-21.2-12.8-23.3-.4-.5-.8 2.9-.8 7.5m-64.4.1c-1.6 10.5-1.7 9.9 4.5 20.4l5.9 10v-8.4c0-7.8-.3-8.9-3.7-15-5.9-10.8-6.1-10.9-6.7-7"/>
    </g>
</svg>
