<svg xmlns="http://www.w3.org/2000/svg" width="341.333" height="341.333" version="1.0" viewBox="0 0 256 256">
    <g fill="#e5e5e5">
        <path d="M85.4 7.2C81.7 9.8 78 14.9 78 17.3c0 .9 1.4 5.3 3 9.9 3.6 9.7 3.8 14.9.9 18.9-5 7-11 7.4-26.8 1.9-21.9-7.8-32.8-7.4-40.9 1.4C5.7 58.6 8.1 66.7 24.5 85c7.9 8.8 10 12.6 12.6 22.8 1 4.2 3.5 11.1 5.4 15.3 4.9 10.6 6.2 17.9 4.7 27.6-.7 4.3-1.6 8.1-2 8.5s-8.1 2.3-17.2 4.3C6.2 168.4 5.1 169 2.9 177.2c-1.1 4.1-1 5.6.9 13 3.2 11.8 7.3 19.6 14.3 26.9 6.1 6.5 9.8 12.6 9.9 16.5 0 1.2.9 5.1 2 8.6 3.6 11.9 6.6 12.1 45 3.9 30.6-6.6 46.6-10.7 51.5-13.3 3-1.5 5-1.9 8.3-1.4 5.3.7 26.8-1.9 33.4-4 2.5-.8 9.1-4.6 14.6-8.4 5.4-3.8 14.2-8.9 19.4-11.4 7.1-3.4 11.4-6.3 17-11.5 8.4-7.8 12.1-14 16.2-27 1.5-4.6 4.1-11.2 5.8-14.5 5.7-11.2 9.6-21.2 11.3-28.9 1.5-6.9 1.5-8.2.1-16.4-.9-4.8-2.4-10.8-3.3-13.3-2.8-7.7-9.6-17.1-19.4-26.6-10-9.7-16-13.4-28.4-17.4-11-3.5-16.1-5.9-29.4-13.3-15.5-8.7-58.3-28.8-67.5-31.6-9-2.8-15.2-2.7-19.2.1m15 6.7c6.6 2 13.3 5.1 32.1 15.2 5 2.6 11.3 5.7 14.1 6.8s8.9 4.1 13.5 6.7C178 52.7 194.7 60.4 202 62c12.3 2.8 21 9.1 25.4 18.5q1.65 3.3 7.2 6.6c3.1 1.7 5.7 3.6 6 4.3.2.6.6 3.8.8 7.1s1.3 8 2.4 10.4c2.5 5.5 2.1 10.9-1.3 19.5-2.4 5.9-3.3 9.3-3.4 12.8-.1 1-1.5 3.3-3.1 5.1-1.7 1.9-3 4.2-3 5 0 .9-.6 2-1.3 2.4-2.3 1.4-7.4 13.1-6.5 14.8 1.1 1.8.3 9.4-1 10.7-.6.6-1.7.6-3-.1-1.9-1-2.3-.7-4.1 3.4-3.8 8.6-8.6 13.3-17.3 17L196 201l-4-3.6-4.1-3.7.7 3.9c.4 3 .2 4.3-1 5.4-1.5 1.1-2.1 1-4.7-.9-1.6-1.2-3.3-2-3.7-1.7-1.3.8-4 7.1-4.7 10.8-.4 2.4-1.6 4.6-3.6 6.2-3.3 2.8-5.9 3.2-9.1 1.5-1.7-.9-3.1-.7-7.2 1.4-6.4 3.2-18.4 5.2-20.6 3.4-1.3-1.1-3.2-1.2-10.6-.8-.7.1-1.4 1-1.7 2.1-.6 2.3-2.7 2.5-8.2.5-5.4-2-5.8-1.9-5.1 1s-.6 3.8-8.2 5.4c-3.7.8-5.9.8-7.3.1-1.5-.8-1.9-.7-1.9.4 0 1.7.5 1.6-17.8 5.6-10.9 2.4-14.6 2.9-15.7 2-1-.8-1.5-.8-2.2.3-.9 1.5-8.6 3.7-13.1 3.7-1.5 0-3.8-.9-5-2-3.6-3.4-3-20.1 1.2-30 .5-1.2-.2-1.5-3.4-1.5-2.3 0-4.2.5-4.4 1.2-.6 1.5-6.6 1.8-6.6.3 0-.6-.6-1-1.4-1-1.7 0-2.3-1.6-3.2-8.2-.5-3.8-1.4-5.9-3.4-7.7-2.1-2.1-3-4.2-3.9-10-.7-4.7-.8-7.8-.2-8.4.7-.7 25.6-7.1 39.8-10.2 2-.5 2.2-1 2-5.6-.4-6.4 2.6-13.2 8.3-18.8l4.2-4.1-3.8-4.1c-2.2-2.3-6.2-6.6-9.1-9.5-5.6-5.6-7.6-10.7-7.1-17.2.3-3.4.6-3.7 3.6-4 1.8-.2 6.2.6 9.8 1.8s6.7 2 7 1.8c1-1-2.6-4.3-4.8-4.3-1.8 0-2.4-.6-2.6-2.8-.4-3.2-2.1-4.2-8.2-5-3.4-.4-5.2-1.4-7.5-3.9-1.7-1.8-4.3-4.1-5.8-5.1-1.5-.9-2.7-2.3-2.7-3.1 0-1.3-7.4-8.4-12.4-11.9-1.5-1-2.6-2.8-2.6-4 0-1.3-.9-3-2-4-1.1-.9-2-2.4-2-3.3 0-2.4 1.9-5.4 3.4-5.4.8 0 1.6-.6 1.9-1.3.3-.9 3-1.6 7.3-2 6.1-.6 7.1-.4 9.1 1.5 1.9 1.7 3 2 6.8 1.5 4-.6 4.9-.4 6.8 1.7 1.2 1.3 3.8 2.7 5.7 3.1s4.7 1.6 6.1 2.6c1.5 1 6.9 2.8 12 4 5.2 1.2 11 2.7 12.9 3.4 7 2.5 24.5 5.3 31 4.9 9.4-.6 11.3-.5 12.4.6.6.6 1.5 1 2 1 .6 0-2.1-3.2-5.9-7.1-5.1-5.2-9-8-14.4-10.7-9.2-4.4-15.5-10.4-17.1-16.4-.7-2.3-1.9-6-2.6-8.1-.8-2-1.4-4.9-1.4-6.2 0-1.4-.5-2.5-1-2.5-1.5 0-6-4.7-6-6.2 0-2.2 5.1-7 6.9-6.4.9.3 4.7 1.4 8.5 2.5"/>
        <path d="M89.7 16.1c-.4 1.3-1 1.8-1.8 1.4-.7-.5-1-.3-.7.5.2.7 3.3 3.1 6.8 5.3 4.7 2.8 5.7 3.8 3.8 3.5-2.5-.5-2.8-.2-2.8 2.1 0 1.5.7 3.6 1.5 4.7.8 1.2 1.1 2.4.8 2.8-.4.4.3.9 1.5 1.3 2.5.6 3 2.3.7 2.3-2.1 0-.6 2.8 4.3 8.2 3.3 3.7 3.9 3.9 7.4 3.4 3.6-.6 5.1.5 2.7 2-1.9 1.1 8.5 6.1 11.8 5.7 2.2-.4 3.2 0 3.7 1.3.3.9.4 1.9.1 2.2s-.5 0-.5-.6c0-.7-.7-1.2-1.5-1.2-2.7 0-1.6 2.5 3.1 7 2.5 2.5 5.3 5.9 6.2 7.6.9 1.8 4.3 5.9 7.4 9.3l5.8 6.2 4.1-2.4 4.2-2.5-3-1.6c-1.7-.8-3.3-1.2-3.7-.9-.4.4-.6-.7-.4-2.5.1-1.8.8-3.2 1.5-3.2s1.2.6 1 1.2c-.1.7.6 1.3 1.5 1.3s2 .4 2.4.8c1.3 1.2 3.6.8 5-1.1 1.3-1.6 1.3-1.6 1.4.2 0 1.5.3 1.6 1.5.6.8-.7 1.5-1.6 1.5-2 0-1.3-8.8-4.3-10.6-3.6-.9.4-2.1 0-2.8-.8-1.4-1.8-7.6-3.2-7.6-1.7 0 .6-.4 1.1-1 1.1-1.6 0-1.2-1.8 1-4 2.3-2.3 3.4-2.6 2.7-.6-.8 1.9 7.2 3.2 8.5 1.4.8-1 1.1-1 1.5-.1.2.7 1.6 1.3 3 1.3 4.1 0 2.4-3.2-2.5-4.6-3.5-1.1-4.2-1.1-4.2.2 0 .8-.5 1.4-1.1 1.4s-.8-.7-.5-1.6c.4-1 0-1.5-1.2-1.3-3 .3-4.3-.1-3.7-1 .3-.5 2-.7 3.9-.4 2.5.4 3.5.1 4-1.2.5-1.4.2-1.6-1.4-1.2-1.3.3-2.3 0-2.7-.9-.3-.8-1.3-1.4-2.2-1.4s-2.2-.5-2.8-1.1-3-1.2-5.2-1.3c-2.3 0-4.1-.4-4.1-.9 0-1.2 7.8-.2 13.3 1.8 2.6 1 5 1.5 5.3 1.2.8-.7-9.7-5.7-12-5.7-1.2 0-4.3-.7-7-1.5-2.6-.8-5.2-1.2-5.8-.9-.5.3-1.4.1-2.1-.4-2.1-1.6-6.8-2.3-8.2-1.2-1 .9-1.6.7-2.3-.7-.9-1.6-.5-1.8 3.6-1.8 2.6 0 4.9.3 5.2.6.8 1 9 2.7 9 1.9 0-1.3-16.4-8.3-16.8-7.1-.6 1.8-2.3 1.3-2-.7.2-1.1-.3-1.6-1.5-1.4-.9.2-2-.4-2.3-1.3-.3-.8-1.3-1.5-2-1.5-2.3 0-6.5-3.1-5.8-4.2.4-.7.9-.7 1.3 0 .5.8 15.4 8.2 16.6 8.2.3 0 .5-.5.5-1 0-.6-.9-1-2-1s-2-.4-2-1c0-.5-1.6-1.7-3.5-2.6-5.8-2.7-3.2-2.7 3 .1 4.1 1.8 5.4 2.1 4.4.9-1.7-2.1-11.9-6.6-13.5-6-1.7.7-2.6-.5-1.4-1.9.6-.8-.2-2.3-2.6-4.8-2-2-3.2-3.7-2.7-3.7s2 1.2 3.4 2.6c2.4 2.7 6.1 4.6 9.1 4.9.9.1 3.1 1.6 4.8 3.4 1.7 1.7 3.6 3.2 4.1 3.2.5.1 1.4.3 1.9.4.6.1 1.7.3 2.6.4.8 0 1.2.6.9 1.1-.4.6-1.1.7-1.7.4-.7-.4-.8-.2-.4.5.4.6 1.2.9 1.7.6.5-.4 2 .5 3.3 2 1.6 1.7 2.9 2.3 4.2 1.9 1.1-.4 1.6-.3 1.2.1-1.2 1.3 2.2 3.2 7 4 2.3.4 4.8 1.2 5.5 1.8 4.2 3.9 6 4.8 11.3 5.8 5.1.9 6.5 1.7 10.6 6.1 5.3 5.4 5.8 6.4 2.7 4.8-1.1-.7-2.3-.9-2.6-.6s.3.9 1.3 1.2c1 .4 4.1 1.6 6.8 2.6 5.6 2.1 7.6 1.7 2.3-.5-1.9-.8-3.8-2-4.2-2.7-.5-.8-.2-.9 1.1-.1 1.1.6 4.4 1.7 7.4 2.6 4.4 1.2 6 2.3 8 5.1 1.3 2 4.4 5.7 6.7 8.1 2.4 2.4 4.3 5 4.3 5.8s1.5 3.2 3.4 5.3c3.6 3.9 5.7 9.2 3.7 9.2-.6 0-.8 1.2-.4 3.2.7 4.1 1.2 4.6 2.4 2.8.7-1.1.8-.8.4 1.1-.5 2-.1 3.2 1.7 4.8 1.8 1.8 2.4 3.6 2.9 9.4.3 4 .2 7.9-.2 8.7-.8 1.4-1.5-4.8-1-9.4.1-2.1-2-7.6-3-7.6-.6 0-1.9 3.5-1.9 5.2 0 .4.8.5 1.8.2 1.4-.5 1.4-.3-.3 1.1-1.6 1.3-2 2.8-2 7.5 0 3.6.5 6.4 1.3 7.2.7.7 1.2.8 1.1.3-.1-.6.1-2.2.5-3.8.5-1.7.4-3.2-.3-4.1-.8-.9-.8-1.6-.2-2 1.4-.9 2.1.6 2.2 5.8.2 3.7.5 4.4 1.6 3.5 1-.9 1.3-.8 1.3.4 0 1.7 3.3 4.1 4.2 3.1.3-.3.8 1 1.2 2.9.3 1.8 1.2 4.2 2 5.2 1.2 1.7 1.5 1.5 3.9-2.6 2.7-4.5 2.7-7.2 0-3.1-.9 1.2-2.2 2.2-2.9 2.2-2.1 0-1.7-1.7.6-2.3 1.3-.3 1.8-1 1.4-2.1s-.1-1.6 1-1.6c.9 0 1.6-.7 1.6-1.6s.8-2.3 1.8-3.1c1.6-1.4 1.6-1.4-.1-.9-1.6.5-1.6.4 0-2.2 2.2-3.6 2.8-4.1 2-1.9-.4 1.1-.3 1.6.4 1.2.5-.4.7-1.6.3-2.7-.4-1.3-.2-1.8.4-1.4.7.4.8-.3.2-2.4-.8-2.8-.6-3.4 1.3-3.1.4 0 .7-1.6.7-3.6 0-2.9-.3-3.4-1.2-2.5-2 2-2.8 1.3-2.1-1.9.4-2.1.1-3.4-.8-4-1.1-.7-1.1-1.1-.1-1.7 1.3-.9.7-4.2-.8-4.2-.4 0-.6-1.9-.3-4.3.4-3.9.2-4.3-3.1-6.5-2-1.2-4.1-2.2-4.8-2.2-1.5 0-3.3-2.6-6.4-9.1-3-6.4-8.5-10.5-17.7-13.4-4.3-1.4-8.4-2.5-9.2-2.5s-4.9-1.6-9.2-3.6-8.7-3.8-9.8-3.9c-1.1-.2-5-2.2-8.6-4.7-7.1-4.6-10.8-6.5-40.4-20.9-16-7.7-35.3-15.9-37.6-15.9-.4 0-.9.9-1.2 2.1M124 46c0 .5-.4 1-1 1-.5 0-1-.5-1-1 0-.6.5-1 1-1 .6 0 1 .4 1 1m-7 1c0 .5-.2 1-.4 1-.3 0-.8-.5-1.1-1-.3-.6-.1-1 .4-1 .6 0 1.1.4 1.1 1m19 7c0 .5-.4 1-1 1-.5 0-1-.5-1-1 0-.6.5-1 1-1 .6 0 1 .4 1 1m-3 4c0 .5-.4 1-1 1-.5 0-1-.5-1-1 0-.6.5-1 1-1 .6 0 1 .4 1 1m11 1.4c0 .3-.4.8-1 1.1-.5.3-1 .1-1-.4 0-.6.5-1.1 1-1.1.6 0 1 .2 1 .4m-7 1c0 .3-.4.8-1 1.1-.5.3-1 .1-1-.4 0-.6.5-1.1 1-1.1.6 0 1 .2 1 .4m9.8 3c-.8.6-1.8 2-2.2 3.1-.5 1.2-1 1.5-1.3.8-.6-1.7 2.7-6.4 4-5.6.6.4.5 1-.5 1.7m-5.8.5c0 1.3-2.7 2.1-6.8 2l-3.7-.1 4.5-1.2c5.9-1.7 6-1.7 6-.7m1 6.1c0 .5-.4 1-1 1-.5 0-1-.5-1-1 0-.6.5-1 1-1 .6 0 1 .4 1 1m8 6c0 .5-.4 1-1 1-.5 0-1-.5-1-1 0-.6.5-1 1-1 .6 0 1 .4 1 1m10 2c0 .5-.4 1-1 1-.5 0-1-.5-1-1 0-.6.5-1 1-1 .6 0 1 .4 1 1m68 13c0 .5-.5 1-1.1 1-.5 0-.7-.5-.4-1 .3-.6.8-1 1.1-1 .2 0 .4.4.4 1m4 2.4c0 1.1-1.9 1.5-2.5.6-.3-.5.1-1 .9-1 .9 0 1.6.2 1.6.4m-15.3 10.8c-.3.8-.6.5-.6-.6-.1-1.1.2-1.7.5-1.3.3.3.4 1.2.1 1.9m20.3-.8c0 .3-.4.8-1 1.1-.5.3-1 .1-1-.4 0-.6.5-1.1 1-1.1.6 0 1 .2 1 .4m1 6.6c0 .5-.4 1-1 1-.5 0-1-.5-1-1 0-.6.5-1 1-1 .6 0 1 .4 1 1m1 6.4c0 1.1-1.9 1.5-2.5.6-.3-.5.1-1 .9-1 .9 0 1.6.2 1.6.4m-3 4c0 .3-.4.8-1 1.1-.5.3-1 .1-1-.4 0-.6.5-1.1 1-1.1.6 0 1 .2 1 .4m3.4 3.7c-.3.5-1 .7-1.5.3-.5-.3-.7-1-.3-1.5.3-.5 1-.7 1.5-.3.5.3.7 1 .3 1.5m-6.4.9c0 .5-.4 1-1 1-.5 0-1-.5-1-1 0-.6.5-1 1-1 .6 0 1 .4 1 1m4 1.8c0 .4-.7 1.8-1.6 3-1.6 2.3-3.4 2.9-3.4 1.2 0-.6.7-1 1.5-1s1.5-.9 1.5-2 .5-2 1-2c.6 0 1 .3 1 .8m-7 1.8c0 .8-.4 1.2-1 .9-.5-.3-1-1-1-1.6 0-.5.5-.9 1-.9.6 0 1 .7 1 1.6m1 6.4c0 .5-.4 1-1 1-.5 0-1-.5-1-1 0-.6.5-1 1-1 .6 0 1 .4 1 1"/>
        <path d="M116 31c1.7 1.1 4.7 1.4 3.6.3-.3-.4-1.7-.8-2.9-1-1.7-.2-1.9-.1-.7.7m11.7 12.1c.7.7 1.5 1 1.8.7s-.2-.9-1.2-1.2c-1.4-.6-1.5-.5-.6.5m3.3 1.3c0 .3.9 1 2 1.6s2 .8 2 .6c0-.3-.9-1-2-1.6s-2-.8-2-.6m15 4.5c0 .6 1.2 1.3 2.8 1.7 1.5.3 4.3 1.9 6.2 3.4 5.3 4.1 8 5.2 10.7 4.5 1.6-.4 2.2-.2 1.8.5-.3.5.6 1.5 2 2 3.6 1.4 3.8 1.3 2-1.4-1.7-2.6-6.3-4-8.1-2.5q-1.2.9-1.8-.6c-.3-.8-1-1.5-1.7-1.5-.6 0-2.9-1.3-5.2-2.9-4.8-3.3-8.7-4.8-8.7-3.2M27.3 52.7c-3.6.4-4.4.8-4.9 3-.5 1.6-.9 2.1-1.4 1.3-.9-1.5-3-.4-3 1.5 0 .7 1.2 2.3 2.8 3.5 1.7 1.4 2.3 2.3 1.5 2.6-1.7.7 0 4 2.8 5.5 1.7.9 2 .8 1.7-.3-.3-.7-1-1.3-1.5-1.3-.6 0-1.5-.3-1.9-.8-.4-.4.5-.7 1.9-.7 3.5 0 3.4-.7-.5-4.2-2.3-2-2.6-2.6-1-1.8 1.4.7 2.2.7 2.2.1 0-1.3 2.8-.3 5.9 2.1 2.9 2.2 4.2 2.3 3.4.2-.4-1.2-.1-1.5 1.2-1.3 1 .2 2 1 2.3 1.8s0 1.1-.7.7c-.6-.4-1.1-.2-1.1.4 0 .7 1.6.9 4.8.4 4.7-.6 4.8-.5 10.2 4.8 3 3 7.5 6.4 10 7.6s6 3.5 7.8 5.2c5.6 5.1 4.8 3.3-1.4-3.2-3.2-3.5-7.7-7.1-9.9-8.1-2.1-1-6.5-4.6-9.7-8-5.2-5.4-6.1-6-7.8-4.9-3.3 2-8.8 1.5-11.3-1.1-1.2-1.3-2.9-2.7-3.7-3-1.1-.4-1-.6.4-.6 1-.1 2.9 1 4.1 2.3 1.3 1.4 3.1 2.3 4.1 2.1 8.3-1.7 8.1-1.3 2.7-4-2.6-1.4-5-2.4-5.3-2.3s-2.4.3-4.7.5m83.7.3c-.8.5-1 1-.5 1 .6 0 1.7-.5 2.5-1s1.1-1 .5-1c-.5 0-1.7.5-2.5 1"/>
        <path d="M45.3 55.7c-1.8.7.7 4.3 3 4.3 1 0 1.6.4 1.3.9-.7 1.1 5.2 6.5 10 8.9 5.2 2.7 20.5 18.2 18 18.2-1.2 0-1.6.5-1.2 1.6.3.9.6 1.9.6 2.2 0 .4.5 0 1.1-.8.9-1.2 1-1.1.5.4s.4 2.9 3.5 5.6c3.7 3.2 4.1 3.8 3 5.7-.7 1.4-.8 2.4-.1 2.8 1.6 1 1.1 2.6-.7 2.3-1.3-.2-1.7.3-1.5 1.6.2 1.2-.1 1.6-1 1.1-.7-.3-.4.1.7.9 1.1.9 2.5 1.4 3.2 1.2.6-.3 1.4 0 1.6.7s.8.9 1.2.5.4-1.5 0-2.5c-1.5-3.3-1.7-7.6-.4-10s1.4-2.2-6-8c-1.2-.9-1.2-1.2-.3-1.3 2.2 0 12.5 5.5 17.7 9.5 5.6 4.2 9.1 6 15 7.5 2.3.5 6 2.4 8.3 4.2 4.1 3.1 4.2 3.4 2.4 4.8-2 1.7-1.8 4 .4 4 .8 0 1.1-.6.8-1.5-.4-.9 0-1.5.9-1.5 1.4 0 2.7-2 2.7-4.1 0-.5-.6-.9-1.4-.9-.7 0-2-.8-2.7-1.7-1.5-1.7-1.4-1.7 3.8.4.7.3 1.5-.7 1.8-2.4 1.9-9.3 5.1-15.3 8.1-15.3.8 0 1.2-.5.9-1-.3-.6-1.5-1-2.6-1-1.6 0-1.8-.5-1.3-2.7.6-2.2.4-2.5-1-2-1.2.5-1.6 0-1.6-1.9 0-1.3-.7-2.7-1.5-3-1-.4-1.3-1.3-1-2.5.4-1.1-.2-2.6-1.5-3.9-1.9-1.9-2.8-2.1-6.8-1.5-6.6 1.1-11 .7-19.4-1.5-8.2-2.2-12.3-2.6-9.8-1 2.9 1.9-1 1.1-5.1-1.1-2.2-1.1-8.1-2.9-13.1-3.9-5-1.1-10.7-2.9-12.5-4-1.9-1.1-3.8-1.8-4.3-1.5-.4.3-1.3-.2-2-1S55 60 54.1 60c-1 0-2.8-1.1-4.1-2.5-2.4-2.6-2.7-2.7-4.7-1.8m24.4 16.5c-.3.8-.6.5-.6-.6-.1-1.1.2-1.7.5-1.3.3.3.4 1.2.1 1.9m7 1.1c.4.6-.2.8-1.5.5-1.3-.4-2.2-.1-2.2.5 0 .7-.4.6-.9-.3-.6-.8-.8-1.7-.5-2.1.5-.9 4.3.1 5.1 1.4m23.6 3.4c-.7.2-2.1.2-3 0-1-.3-.4-.5 1.2-.5 1.7 0 2.4.2 1.8.5m4 2c-.7.2-2.1.2-3 0-1-.3-.4-.5 1.2-.5 1.7 0 2.4.2 1.8.5m19.1 1.8c-.6 1.6-2.4 2.1-2.4.7 0-1.1 1.1-2.2 2.1-2.2.5 0 .6.7.3 1.5m7.6 4.9c0 .3-.4.8-1 1.1-.5.3-1 .1-1-.4 0-.6.5-1.1 1-1.1.6 0 1 .2 1 .4m-38.1 6c2.4.4 5.3 1.2 6.5 1.9 1.1.6 3 1.2 4 1.2 1.1 0 2.1.5 2.3 1.1.4 1.2-5.5.7-7.2-.6-.5-.5-2.8-1.1-5-1.5-4.9-.9-7.1-2-10.4-5.2l-2.6-2.5 4 2.5c2.2 1.4 6 2.8 8.4 3.1m38.6.5c.3.5.1 1.2-.5 1.6-.5.3-1-.1-1-.9 0-1.8.6-2.1 1.5-.7m4.5 2.6c0 1.1-3.2 5.5-4 5.5-.4 0-.7-1.1-.6-2.4 0-1.3.4-2.2.8-2s.9 0 1.3-.6c.6-1 2.5-1.4 2.5-.5m-6 2c0 .9-.6 1.2-1.5.9-.8-.4-1.2-1-.9-1.5.8-1.4 2.4-1 2.4.6m-10.5 4.9c-.4 2.5-1.1 4.6-1.6 4.6-1.2 0-1.1-1.6.2-6.3 1.4-5.1 2.2-4.1 1.4 1.7m-8.8-.8c.2.7-.6 1-2.1.7-1.4-.3-2.3-1-2-1.5.8-1.2 3.6-.6 4.1.8m3.2 2.8c1 1.2.8 1.3-.8.9-1.2-.3-1.8-.9-1.5-1.4.7-1.2 1-1.1 2.3.5m16.1-.4c0 .5-.4 1-1 1-.5 0-1-.5-1-1 0-.6.5-1 1-1 .6 0 1 .4 1 1m-9.3 3.2c-.3.8-.6.5-.6-.6-.1-1.1.2-1.7.5-1.3.3.3.4 1.2.1 1.9m10.3 3.2c0 .3-.4.8-1 1.1-.5.3-1 .1-1-.4 0-.6.5-1.1 1-1.1.6 0 1 .2 1 .4M158 64c0 .5 1.2 1 2.8 1 2.1 0 2.4-.2 1.2-1-2-1.3-4-1.3-4 0"/>
        <path d="M29.2 65.6c.4.4.3 1.3-.3 2.1-.9 1.1-.1 1.3 4.2 1.4 7.3 0 13.3 1.2 12.8 2.4-.2.5-1.1.9-1.9.8s-3.5-.5-6-.9c-4.1-.6-4.4-.5-3.1.9.7.9 2 1.6 2.9 1.5 5-.4 12.2.3 12.2 1.2 0 .5-2.5 1-5.5 1-4.4 0-5.3.3-4.9 1.5.4.8 1 1.2 1.6.9C42.7 77.5 53 76.3 53 77c0 .4-2.5 1.2-5.5 1.9S42 80.6 42 81.1c0 1.1 5.3 1.2 6.4.1 1-.9 5.6-1 5.6-.1 0 .4-1.4 1-3.1 1.4-2.1.5-2.8 1-2.1 1.7.6.6 1.8.7 2.9.3 1-.5 2.5-1 3.3-1.1s2.7-.5 4.3-.9 2.7-.3 2.7.3-2.5 1.6-5.5 2.3c-4.4 1-5.3 1.5-4.4 2.6 1.5 1.7 3.8 1.7 4.5-.2.4-.9 1.4-1.3 2.8-.9 1.5.3 2.8-.2 4.3-2 3-3.4 1-5.1-5-4.2-3.4.6-4 .5-2.9-.6 1-1 .5-2-2.5-5-2-2.1-4.1-3.8-4.6-3.8s-1.5-.7-2.3-1.5c-.9-.8-2.6-1.5-3.8-1.5-1.3 0-3.6-.4-5.2-.9-4.8-1.5-8.9-2.3-8.2-1.5M190 70.5q0 1.65 1.5 1.2c.8-.4 1.7-.2 2 .3.3.4-.1 1-.7 1.3-.9.3-.1 1.7 2.2 4.2 3.9 4.1 9.6 7.6 8.7 5.3-.2-.7-.9-1.2-1.5-1.1-1.4.3-3.6-2.4-6.4-7.7-2.4-4.6-5.8-6.6-5.8-3.5"/>
        <path d="M29 72.5c0 .8.5 1.5 1.1 1.5 1.2 0 6.4 5.9 6.4 7.4 0 .6 1.2 1.6 2.6 2.3 1.5.7 4.5 3.1 6.7 5.3 3 3 4.8 4 7.1 4 4.2 0 7 1.6 8.1 4.6.6 1.4 1.7 2.4 3 2.4 1.2 0 2.5 1 3.2 2.6 1 2.2 7.9 6.4 10.5 6.4 1.5 0-3.2-3.9-5-4.2-1.1-.2-2.3-1-2.7-1.8s-1.2-2.5-1.9-3.8c-.9-1.8-.8-2.2.3-2.2 3.7 0 6.6-2.3 6.6-5.2 0-1.6-.6-3.1-1.5-3.4-1.7-.7-6.5 2.1-6.5 3.6s2.1 1.2 4.2-.7c2.5-2.3 2.3.2-.2 2.7-1.2 1.2-2.5 1.8-3 1.5-.4-.3-1 .1-1.3.7-.3 1-.8 1-1.8-.1-1.1-1-1.1-1.5-.1-1.8.6-.3 1-.9.7-1.3-.3-.5-1.7-.5-3.2.1-2 .8-3.3.5-6.7-1.5-2.2-1.3-5.2-3.6-6.5-5-1.4-1.4-3.1-2.6-3.9-2.6s-4.2-2.9-7.6-6.5c-6.1-6.4-8.6-7.9-8.6-5m158.9.9c2.9 3.1 3.5 3.3 2.2.7-.6-1-1.8-2.2-2.8-2.5-1.3-.5-1.1-.1.6 1.8m-19.7 7.1c-3.4 3-9.2 7.1-12.7 9-3.6 2-8 5.4-9.8 7.6-3.9 4.5-4.3 4.6-5 1.9-.8-3-2.5-2.4-4.2 1.2-2.8 6.2-10.3 36.8-10.6 42.8-.2 6.2 0 7.2 1.6 6.7.8-.4 1.7-.2 1.9.2.9 1.4-1.8 6.1-3.4 5.8-1-.1-1.4.5-1.3 2.1.2 1.7-.2 2.2-1.5 2-1.2-.2-1.6.3-1.5 1.7.1 1.1-.5 2.4-1.3 2.8-.8.5-1.2 1.2-.9 1.7s.1 1.1-.5 1.5c-1.6 1-1.2 3.6.8 5.1 1.6 1.3 1.6 1.3-.2 1.4-1.6 0-1.8.6-1.3 4.7.3 3.2 1.2 5.1 2.7 6.3 1.3 1 1.8 2 1.3 2.3-1.2.7-.5 5.7.7 5.7s-1.7 5.4-4 7.5c-2 1.8-2.7 4.5-1.1 4.5.5 0 1.4-.7 2.1-1.5s2.7-1.5 4.5-1.5c2.7 0 3.4-.5 3.9-2.5.3-1.3 1.9-3.9 3.5-5.7 1.5-1.8 3.3-4.3 4-5.5 1.3-2.6 1.5-6.3.2-6.3-.5 0-.7.9-.4 2s0 2-.6 2-2 1.9-3.2 4.2c-3.4 6.8-6.9 10-6.9 6.3 0-.8.5-1.5 1.1-1.5 1.5 0 6.3-11.4 5-11.8-1.6-.5-1.4-2.2.3-2.2s3.2-8.3 1.6-8.8c-1.5-.5-1.2-2.2.4-2.2 1.7 0 2.7-7.7 1.1-8.5-.6-.3-.5-.7.3-1.1 1.7-.8 1.7-16 0-16.7-1-.4-1-.8.1-1.5.7-.5 1.4-3.1 1.6-5.8s1-6.8 1.9-9.2c.8-2.3 1.1-4.2.6-4.2-.6 0-1-.5-1-1.1s.7-.9 1.5-.5c1 .4 1.5-.1 1.5-1.4 0-2.2 3.1-6.2 10.3-13.2 6-5.8 11.1-8.8 20.9-12.3 4.3-1.5 8.3-3.4 9-4.3 1.1-1.2.7-1.2-2 .2-1.8.9-4.1 1.6-5 1.4-1.3-.3-.9-.8 1.5-2.1 3.1-1.6 8.3-7.5 8.3-9.3 0-.4-1.4.7-3.1 2.6-1.7 2-2.4 2.4-1.5 1 .9-1.3 1.6-3.2 1.6-4.2 0-1.7-3.5-4.8-5.5-4.8-.5 0-3.8 2.5-7.3 5.5m-32.3 30.9c-1.2 3.1-2.5 5.4-2.7 5.1-.3-.2.6-2.9 1.8-6s2.5-5.4 2.7-5.1c.3.3-.5 3-1.8 6m-10.3 55.3c-1 1-1.9-.5-1-1.8.6-1.1.8-1.1 1.2 0 .2.7.1 1.5-.2 1.8m4.4 1.3c0 .5-.4 1-1 1-.5 0-1-.5-1-1 0-.6.5-1 1-1 .6 0 1 .4 1 1m-7 1.6c0 .8-.4 1.2-1 .9-.5-.3-1-1-1-1.6 0-.5.5-.9 1-.9.6 0 1 .7 1 1.6m4 2.4c0 .5-.4 1-1 1-.5 0-1-.5-1-1 0-.6.5-1 1-1 .6 0 1 .4 1 1m4 3c0 .5-.4 1-1 1-.5 0-1-.5-1-1 0-.6.5-1 1-1 .6 0 1 .4 1 1m-7 1c0 .5-.4 1-1 1-.5 0-1-.5-1-1 0-.6.5-1 1-1 .6 0 1 .4 1 1m4 3c0 .5-.4 1-1 1-.5 0-1-.5-1-1 0-.6.5-1 1-1 .6 0 1 .4 1 1m-6.5 1c-.3.5-1 1-1.6 1-.5 0-.9-.5-.9-1 0-.6.7-1 1.6-1 .8 0 1.2.4.9 1m4 3c-.3.5-1 1-1.6 1-.5 0-.9-.5-.9-1 0-.6.7-1 1.6-1 .8 0 1.2.4.9 1m3.1 3.7c-1 1-1.9-.5-1-1.8.6-1.1.8-1.1 1.2 0 .2.7.1 1.5-.2 1.8m-2.2 3.4c-.3.5-1 .7-1.5.3-.5-.3-.7-1-.3-1.5.3-.5 1-.7 1.5-.3.5.3.7 1 .3 1.5M125 200c0 .5-.4 1-1 1-.5 0-1-.5-1-1 0-.6.5-1 1-1 .6 0 1 .4 1 1"/>
        <path d="M136 81.6c0 1.2.7 2.7 1.5 3.4s1.5 2 1.5 2.9c0 2.5 4.4 6.3 6.3 5.5 2.6-.9 2.1-1.8-3.8-8.1-4.4-4.7-5.4-5.4-5.5-3.7m-70 3.9c0 .9-.6 1.8-1.4 2.1s-1.7 1.2-2 2c-.5 1.2-.1 1.4 1.5.9 2.8-.9 6.1-4.3 5.4-5.5-1-1.6-3.5-1.2-3.5.5m140 2.6c.7 1.1 1.4 1.9 1.6 1.6.7-.7-.7-3.7-1.7-3.7-.6 0-.5.9.1 2.1M57.6 89.9c-.3.5.1 1.2 1 1.5 2 .8 2.9.1 1.9-1.3-.8-1.3-2.2-1.4-2.9-.2m129.2 2.6c-.6 3-.3 4.3.8 3.3.3-.4.4-1.9.2-3.5l-.3-2.8zm22.3 0c0 .6.9 2.8 2 5l1.9 4-.5-3.5c-.5-3-3.6-8.1-3.4-5.5M74.3 96.9c-.3 1.2-1.1 1.7-1.9 1.4-1.7-.6-3.1 2.4-1.7 3.8.6.6 1.6.2 2.8-1.1 2.2-2.4 4.5-2.6 4.5-.4 0 .8-.4 1.3-.9.9-1.1-.6-2.6 1.3-1.7 2.2.3.4 1.5-.2 2.6-1.2 2-1.8 2.1-1.8 3.4 0 .9 1.2 1.5 1.4 2 .7.9-1.5-1.1-5.2-2.8-5.2-.8 0-1.6-.7-2-1.5-.8-2.1-3.7-1.9-4.3.4m107.5 9.7-3.6 7.4 2.6-.1c1.5 0 2.1-.3 1.5-.6-.7-.2-1.3-.9-1.3-1.5s.7-.8 1.5-.4c1.1.4 1.5-.1 1.5-1.7 0-1.3.4-2.7.9-3.3 1.2-1.3 2.4-7.4 1.4-7.3-.4 0-2.4 3.4-4.5 7.5m-9.5-5.8c-2.1.2-3.7 1.2-4.8 2.9-1 1.4-1.2 2.3-.7 1.9 1.8-1.1 2.6 1.6.9 2.9-1 .7-1.7 1.7-1.7 2.3s-.8 1.5-1.7 2.1c-1.6.8-1.3 1.3 2 4.5 2.1 2 4 3.6 4.1 3.6s.1-1.4-.2-3c-.2-1.7-1-3-1.8-3s-1.4-.5-1.4-1c0-.6.9-1 2.1-1 1.6 0 1.9-.4 1.4-2-.5-1.4-.2-2 .9-2 .9 0 1.6-.9 1.6-2s.4-2 .9-2c.9 0 2.7-3.9 1.9-4.3-.1-.1-1.7-.1-3.5.1m-1.3 2.7c0 .8-.7 1.5-1.6 1.5-1.4 0-1.4-.3-.4-1.5.7-.8 1.4-1.5 1.6-1.5s.4.7.4 1.5m-81.9.6c-1.3 3.8-1.3 3.9-.2 3.9.9 0 2.4-6 1.7-6.7-.2-.2-.9 1-1.5 2.8m107.4-1.8c-.4 1-.5 2.1-.1 2.4 1 1 1.8-.4 1.3-2.4-.4-1.7-.4-1.7-1.2 0m8.9.7c.3 1.4.9 6.5 1.3 11.5.6 7.7.8 8.5 1.5 5.5.8-3.7-.7-15.3-2.4-18-.7-1.1-.8-.8-.4 1m-113.9 4.6c-.9 5.5-3.5 13.3-4.6 13.9-1.1.7-1.2 4.7-.1 6.1.4.5-.1.1-1-.9-1.2-1.2-1.8-1.5-1.8-.6 0 .7.8 2.1 1.8 3.2 1.6 1.9 1.6 2-.4.9-1.8-.9-2.3-.7-3.8 1.9-.9 1.6-3.1 3.6-4.7 4.5-2.7 1.4-3 1.9-2.7 5.7.2 2.6-.1 4.1-.8 4s-1 1.4-.9 4c.4 8.4.5 9.3 1.4 7.9.6-1 1-1 2 .2.7.8 1 2 .6 2.7-.6.8-1 .7-1.6-.2s-.9-1-.9-.2c0 2 1.2 4.3 2.2 4.3.6 0 1.7.8 2.4 1.7 1.1 1.6 1.2 1.3.8-1.8-.3-2.7 0-3.8 1.2-4.3q1.65-.6.9-2.4c-.4-.9-.9-3-1.2-4.7-.3-1.6-1.1-3.4-1.8-4-2-1.6-.2-5.1 4.2-7.8 4.1-2.7 7.7-6.3 11.1-11.4 2.4-3.4 2.8-4.8 1.2-3.8-.5.3-1 .1-1-.5 0-.7.7-1 1.5-.7 2 .8 2.9-1.1 1.5-2.8-1-1.2-.9-1.5 1-1.5 1.8 0 2-.3 1.1-1.4s-.8-1.7.7-2.8c1-.7 2.1-2.1 2.5-3.1.5-1.3.1-1.7-1.8-1.7-1.4 0-2.5-.6-2.5-1.3s-1.3-2.6-2.9-4.1l-3-2.8zm1.5 21.9c0 .8-.4 1.5-1 1.5-.5 0-1-.7-1-1.5s.5-1.5 1-1.5c.6 0 1 .7 1 1.5m-3 4.1c0 .8-.4 1.2-1 .9-.5-.3-1-1-1-1.6 0-.5.5-.9 1-.9.6 0 1 .7 1 1.6"/>
        <path d="M48 107.9c0 5.1 1.8 8 10.7 17.7 8.5 9.3 12.3 11.5 12.3 7.4 0-2.1.7-2.5 2.7-1.2.9.6-1 3.1-6.3 8.3-10.3 10.1-12.7 15.3-10.8 22.6 1 3.7 2.7 2.7 2-1.2-1.2-6.5.7-10.5 8.9-18 4.1-3.9 7.5-7.6 7.5-8.3s.4-1.1.9-.8c.4.3 1.7-.2 2.7-1 1-.9 1.4-1.3.7-1-1.8 1-6.2-1.5-5.6-3.1.3-.8 1.2-1.2 2.1-.8 1.7.6 5.2-2.1 5.2-4.1 0-1.6-5-5.5-11.4-8.9-3.8-2-5.1-2.3-6.3-1.4-1 .9-1.7.9-2.5.1-.9-.9-.6-1.2 1.3-1.3 2.3-.1 2.3-.1-.6-1.4-3.7-1.7-9.8-2-7.5-.4 1.2.9 1.2 1-.3.5-1-.3-2.2-.6-2.6-.6s-.7-.9-.7-1.9c0-1.5.4-1.7 1.7-1 1 .5 2.9.9 4.3.9 3.8 0 10.1 2.8 18.9 8.3 7.6 4.6 10.7 5.4 10.7 2.4 0-2.7-4.7-5.8-10.1-6.6-3-.5-7.5-1.9-10.1-3-4.4-1.9-7.8-2.9-15-4.5-2.6-.6-2.8-.4-2.8 2.3m11.3 7.8c-.7.2-1.9.2-2.5 0-.7-.3-.2-.5 1.2-.5s1.9.2 1.3.5m7.5.4c-.2.6-.7 1-1.1 1-.4-.1-1.7-.1-2.9-.2-2.2-.1-2.2-.1.2-.9 3.6-1.1 4.2-1.1 3.8.1m4 3.1c-.5 1.6-8.8 2.4-8.8.9 0-.6 1.2-.8 2.9-.5 1.6.4 3.2.1 3.5-.5 1-1.5 2.9-1.4 2.4.1m-11.1.4c-.3.3-1.2.4-1.9.1-.8-.3-.5-.6.6-.6 1.1-.1 1.7.2 1.3.5M75 122c0 .5-.7 1-1.6 1-.8 0-1.2-.5-.9-1 .3-.6 1-1 1.6-1 .5 0 .9.4.9 1m-6 1c1.2.8.9 1-1.3 1-1.6 0-2.6-.4-2.2-1 .8-1.2 1.6-1.2 3.5 0m9.5 2c-.3.5-1 1-1.6 1-.5 0-.9-.5-.9-1 0-.6.7-1 1.6-1 .8 0 1.2.4.9 1m-4.6 1.1c-1.8 1.1-5.2 1.1-4.5 0 .3-.5 1.7-.9 3.2-.9 1.8 0 2.2.3 1.3.9m-6.6 1.6c-.7.2-1.9.2-2.5 0-.7-.3-.2-.5 1.2-.5s1.9.2 1.3.5M79 106.5c0 .8.4 1.5.9 1.5s1.1-.7 1.5-1.5c.3-.9 0-1.5-.9-1.5-.8 0-1.5.7-1.5 1.5m76.6 0c-1.7 1.3-1.7 1.5.9 3.9 3.7 3.5 4.8 3.3 4-.7-1.2-5.2-1.7-5.6-4.9-3.2m40.4 2.9c0 1.3-.3 3.3-.6 4.3-.5 1.3-.4 1.5.4.8 1.7-1.5 2.7-7.5 1.3-7.5-.6 0-1.1 1.1-1.1 2.4m16 1.2c0 2.1.5 4.6 1.1 5.4.7 1.1.8.1.3-3.5-.8-6.2-1.4-7-1.4-1.9m-64.2 1.6c-2.3 3-4.8 7.2-4.8 8 0 .2 1.8.4 4 .5 2.2.2 4-.2 4-.7 0-.6 1.2-1 2.8-1l2.7-.1-3.3-2.7c-3.3-2.7-4-4.2-2.2-4.2.6 0 1 .7 1 1.5s.9 1.5 1.9 1.5c1.1 0 2.1.6 2.3 1.2.3.7 1.7 1.3 3.3 1.3l2.8.1-2.2-1.6c-1.2-.8-3.7-2.7-5.6-4.3-1.8-1.5-3.5-2.7-3.8-2.7-.2 0-1.6 1.5-2.9 3.2m1.2 4.8c0 .5-.4 1-1 1-.5 0-1-.5-1-1 0-.6.5-1 1-1 .6 0 1 .4 1 1m36.6-4.3c-.6 1.4-.5 1.5.5.6.7-.7 1-1.5.7-1.8s-.9.2-1.2 1.2m-72.6.2c0 .5.5 1.3 1 1.6.6.3 1 .2 1-.4 0-.5-.4-1.3-1-1.6-.5-.3-1-.2-1 .4m-7.5 1.1c-.3.5-.1 1 .4 1 .6 0 1.1-.5 1.1-1 0-.6-.2-1-.4-1-.3 0-.8.4-1.1 1"/>
        <path d="M117.5 115.2c1.9 6.3 1.9 6.8-.8 6.8-3.7 0-7.7-1.7-9.9-4.2-2.2-2.6-2.3-2.1-.3 1.9 1.6 3.3.8 3 17.5 4.8l4.5.4-4-1.3c-2.7-.9-3.9-1.8-3.7-2.9.3-1.7-2.4-7.7-3.4-7.7-.4 0-.3 1 .1 2.2"/>
        <path d="M110 116.4c0 2.2.3 2.7 1.1 1.9s.8-1.6 0-3c-.9-1.6-1-1.4-1.1 1.1m12-1.5c0 .5.5 1.3 1 1.6.6.3 1 .2 1-.4 0-.5-.4-1.3-1-1.6-.5-.3-1-.2-1 .4m52.6 3.9-2.6 3.6 2.8 1.2c3 1.3 4.2 1 4.2-1.2 0-.8.5-1.4 1-1.4.6 0 1 .7 1 1.5 0 2.3 1.7 1.8 2.4-.8 1.2-4.6.2-4.9-4.2-1.2-2.5 2.1-3.1 2.3-3.6.9-.9-2.3-.8-2.7.8-2.1 2.1.8 3.7-1.5 2.1-3-1-.9-1.8-.4-3.9 2.5m-60.7-1.2c-1 1.3-1 1.7.1 2.4 2 1.2 2.9.4 2.3-2s-.7-2.4-2.4-.4m-11.4.4c-.3.5-.1 1 .4 1 .6 0 1.1-.5 1.1-1 0-.6-.2-1-.4-1-.3 0-.8.4-1.1 1m83.5.5c.7.8 1.8 1.5 2.5 1.5s2.9 1.1 5 2.5c2 1.4 3.5 2 3.3 1.4-.2-.7-1.3-1.7-2.4-2.3-1-.6-2.1-1.3-2.4-1.6-.6-.7-5.9-3-6.7-3-.3 0 0 .7.7 1.5m-22.1 0c-.4.5-.5 2.6-.2 4.5.2 1.9.5 5 .6 6.9s.8 3.6 1.5 3.9c.9.3 1.1-.6.6-3.5-.3-2.1-.9-5.8-1.3-8.3-.3-2.5-.9-4.1-1.2-3.5m2.1 2.1c0 .4.5 2.4 1.2 4.5 1.1 3.9 2.1 4.8 3.3 2.9.3-.6.2-1-.3-1s-1.2-.9-1.5-2c-.6-2.4.1-2.5 2.4-.4 1 .9 1.5 2.2 1.2 3-.8 2 .6 6.6 1.7 5.9 2.4-1.5 1-6.3-3-9.9s-5-4.2-5-3m-24 2.6c0 1 5.7 1.1 6.3 0 .3-.4-1-.7-2.9-.8-1.9 0-3.4.3-3.4.8m12.6 1c-2.2 1.1-6 2.3-8.5 2.7-4.2.6-4.6.9-5.7 4.6-.8 2.5-1.3 10.9-1.3 22 0 10-.4 19.3-1 20.8-.8 1.9-.7 3.4.1 5.3 1.1 2.4 1.2 2.3 3.5-3.8 2.5-6.9 3-10.9 1.8-15-.5-2-.2-3.1 1.3-4.6 1.1-1.1 2.5-2.8 3.1-3.8 1-1.6 1-1.4.6 1.1-.5 2.8-.5 2.9.5.6.6-1.4.9-3 .6-3.7s.8-3 2.3-5.1l2.8-3.8-3.1-3.8c-3.8-4.8-2.5-6 5.1-5.2l5.1.6-1.3-4.3c-.7-2.4-1.3-4.7-1.3-5.1-.1-1.6-.7-1.5-4.6.5m29.1.6c-1.5 1.6-1.4 1.8.9 2.9 2.3 1 2.4 1 1.8-1.5-.9-3.5-.8-3.5-2.7-1.4m-84.3 2.5-1.6 3.4 4.6 6.7c4.8 7.1 5.2 8.1 3.6 9.1-.6.3-1.4-.5-2-1.9-1.1-3.1-2.5-3.5-1.7-.6.7 2.6.1 2.5-1.4-.1-.8-1.6-.8-2.3 0-2.8.7-.5 0-1.9-1.9-4.2l-2.9-3.4-2.5 3c-1.4 1.6-2.6 3.9-2.6 5-.1 1.1-.4 1.4-.7.7-.2-.6-.9-1.2-1.4-1.2-1.2 0-1.1 7.7.1 8.5.6.4.8 1.1.5 1.6-1.1 1.8.6 3.1 2.3 1.7 1.3-1.1 1.5-1 1 .9-.6 2.3 1.7 4.2 2.5 2q.3-1.2 2.1.6c2 1.9 6.7 2.2 9.8.6 1.5-.8 1.7-1.3.8-1.9s-.6-1 .9-1.5c2.6-.8 2.5-3.7-.1-4.1-1.2-.1-1.8.4-1.8 1.7 0 1-.5 1.9-1.1 1.9-1.5 0-.2-5.1 1.7-6.5 1.4-1 1.4-1.8 0-7.9-1.7-7-4.1-13.2-5.7-14.2-.5-.3-1.6 1-2.5 2.9m-4.1 15.6c.5 3.8.4 4.1-.8 2.4-.7-1-1.1-3.1-.8-4.6.7-3.5.9-3.2 1.6 2.2m2.7-3.3c0 .8-.4 1.2-1 .9-.5-.3-1-1-1-1.6 0-.5.5-.9 1-.9.6 0 1 .7 1 1.6m2 5.3c0 1.2-2 2.5-2.7 1.8s.6-2.7 1.8-2.7c.5 0 .9.4.9.9m-7.6 3.6c.7 3 .7 3-.9.7-.9-1.2-1.3-2.7-1-3.3.9-1.3 1.1-1.1 1.9 2.6m12.2-.3c.4.6.3.8-.4.4-.6-.3-1.3-.2-1.7.4-.7 1.2-2.5.4-2.5-1.1 0-1.3 3.7-1.1 4.6.3m-7.6 1.3c0 .8.7 1.5 1.5 1.5s1.5.7 1.5 1.5-.4 1.5-.9 1.5-1.1-.7-1.5-1.5c-.3-.8-1.2-1.5-2.1-1.5-1.6 0-2-1.2-.8-2.3 1.1-1.2 2.3-.8 2.3.8m7.3 6c-.3.8-.9 1.5-1.4 1.5-1 0-1.2-2.4-.3-3.3 1.1-1.1 2.4.3 1.7 1.8m89.4-29.9c.3.7 1.4 1.6 2.5 2 3.2 1 3.2-.3-.1-1.9-2.3-1.2-2.8-1.2-2.4-.1"/>
        <path d="M175.7 127.2c.4 1.3 1.2 3.2 1.9 4.2 1.1 1.7 1 2.3-1.2 4.9-1.3 1.6-2.2 3.7-2 4.6.3.9.8 2.8 1.2 4.3.3 1.6 1 2.5 1.5 2.2 1.5-.9 1-5.4-.6-6-2.2-.9-1.9-1.9 1.7-6 2.9-3.2 3-3.7 1.5-4.6-1-.5-1.5-1.4-1.1-1.9.4-.6 1.5-.2 2.9 1.1 1.9 1.8 2.3 1.9 2.8.6.7-1.8-.2-2.5-3.7-2.8-1.4-.1-2.8-.8-3-1.5-.9-2.2-2.4-1.4-1.9.9m-67.8 1.1c.5 1.4 1.3 4.5 1.6 6.8.3 2.4 1.3 6.6 2.1 9.3 1.5 5.4 1.8 10.4.6 12.2s-6.9 4.4-9.9 4.5c-1.8.1-.9.5 2.7 1.3 3 .7 6.5 1.8 7.7 2.4 3 1.6 3.1 1.6 3.8-1.7.3-1.7 2-4.8 3.6-7 2.5-3.6 2.9-5 2.9-10.8 0-3.8.7-8.9 1.4-11.5l1.4-4.6-4.1-1c-2.3-.6-6.6-1.4-9.5-1.8l-5.3-.7zm81 .7c-.5 4.8-.3 5.5 2.1 5.8 2 .2 2.2.1 1-.7-1.2-.9-1.1-1.1.7-1.1 3.6 0 5.3 1.1 5.3 3.6 0 1.3-.4 2.4-1 2.4-.5 0-.7-.6-.4-1.4.4-1.1 0-1.3-1.6-.9-1.3.4-1.9 1.1-1.6 2 .3.8.6 1.9.6 2.4s.7.9 1.5.9c1.6 0 6.2-8.7 5.1-9.7-.3-.4-3-.8-6-1.1-4.1-.3-5.3-.8-4.9-1.8.3-.8.2-1.4-.1-1.4s-.6.4-.7 1m-109.4 1c-.3.5-.2 1 .4 1 .5 0 1.3-.5 1.6-1 .3-.6.2-1-.4-1-.5 0-1.3.4-1.6 1"/>
        <path d="M181.6 133.8c-.3.6-.1 1.4.5 1.7 1.5 1 2.5-.3 1.2-1.6-.7-.7-1.3-.7-1.7-.1m-29.4 2.8c1.5 1.5 3.1 2.5 3.4 2.1.4-.4-.1-1.4-1.2-2.2-1.7-1.3-1.6-1.4 1.4-.5 1.9.5 4 1.4 4.7 2 1 .8 1.5.8 2 0 1.3-2-1.3-3.3-7.2-3.8l-5.8-.4z"/>
        <path d="M164.7 137.9c-1.9 2.1-3.8 4.5-4.3 5.3s-2.2 1.8-3.9 2.2l-3 .8 2.8-2.6c2.7-2.5 3.5-4.6 1.7-4.6-.5 0-1 .6-1 1.3 0 .8-1.2 2.4-2.6 3.8-3 2.8-5.4 6.6-3.3 5.4q1.35-.9.6.9c-2 5.2-2 6.6.2 6.6 1.6 0 2.1-.6 2.1-2.8 0-1.5.9-3.8 2-5.2l2-2.5-1.5 3.7c-.8 2.1-1.4 5.4-1.4 7.5l.1 3.8.8-4.6c.4-2.5 2-7 3.5-10 2.3-4.4 2.9-5.1 3.5-3.5.6 1.7.7 1.7 1.3.3.3-.8.1-1.7-.5-1.9s-.3-.9.6-1.7c1.4-1.2 1.6-1.1 1.6.8 0 1.2.4 1.9 1 1.6.7-.4.6-1.3-.1-2.7-.7-1.3-.7-2.4-.1-3 .7-.7 1.2-.3 1.7 1.1.3 1.2 1.3 2.1 2.1 2.1 1.2 0 1.2-.4.4-2-.6-1.1-1.5-2-2.1-2s-.7-.5-.4-1c1.3-2.2-.4-.8-3.8 2.9m-11.5 10.3c-.7.7-1.2.8-1.2.2 0-1.4 1.2-2.6 1.9-1.9.2.3-.1 1.1-.7 1.7m27.1-9.6c-.5 1.3-.7 1.3-1.4.2-.7-1-.9-.9-.9.4 0 2.4 1.9 3.2 2.7 1.1.4-1 1.1-2.1 1.7-2.5.7-.5.7-.8-.2-.8-.7 0-1.5.7-1.9 1.6m36-.2c.4 1 .7 2.2.7 2.6 0 .5.9 1.8 2.1 2.8l2 1.9-2 5.6c-3.4 9.9-5.5 11.5-6.7 5-.8-4-1.6-4.8-3.1-2.8-1.7 2.4-1.7 3.5.2 3.5 1.8 0 2 1.6.3 2.3s1.2 2.9 3 2.2c1.6-.6 1.5 1-.2 2.4-1.1.9-1.5.9-1.9-.1-.6-1.7-4.1.2-4.5 2.6-.5 2.4 1.7 2 2.7-.6q.75-2.25 1.5-.9c.4.6.2 2-.6 2.9-1.2 1.6-1.1 1.6.6.2 1.8-1.4 1.9-1.3 1.3.3-.5 1.4-.3 1.6 1.2.8 1.3-.8 2.3-.6 3.7.5 1.7 1.4 1.7 1.5.2 1-1-.3-1.8-.3-1.8.1 0 .3.8 1.2 1.8 2 1.6 1.3 1.6 1.4-.3.9-2.7-.8-5.4 4.6-3.5 7 1.6 1.8 2.5 1 2.5-2.4 0-1.6.5-2.6 1.3-2.5.6.2 1.2-.2 1.2-.8 0-.7.7-.8 1.8-.4 4.7 1.9 4.7 1.9 2.8-.3-1-1.2-2.3-2-2.9-1.9s-1.1-.5-1.2-1.3c0-.8-1.5-2.2-3.2-3.1-1.8-.9-3-1.9-2.6-2.2.8-.9 4.3 1.1 8.1 4.6 2.9 2.8 3.2 2.9 3.2 1 0-2.5-1.4-3.7-6.2-5.2-2.1-.7-3.8-1.5-3.8-1.8s.9-2.1 2.1-3.9c3.8-6.2 7-15.6 5.8-17.1-.6-.7-.8-1.3-.3-1.3s.2-.5-.6-1-1-1-.4-1c1 0 4.7 3.7 7.4 7.5 1.4 1.9 1.4 1.9-.6.2-2.6-2.2-3.1-2.1-3.7.2-.4 1.5.2 2 3 2.6 1.9.3 3.7.4 3.9.2s-.5-2.5-1.6-5.1c-2.3-5.1-4.9-7.2-10-8.2-2.9-.6-3.2-.5-2.7 1"/>
        <path d="M209.5 139.4c-1.1.7-3.2 1.6-4.8 2-2.7.6-2.7.7-1 3.1 2.1 2.8 3.3 3.2 3.3 1 0-.8-.6-1.5-1.2-1.5-.7 0-.2-.6 1.2-1.3 3.4-1.8 4.2-1.4 6.3 3.5l1.7 4.1-2.5-2.3c-1.3-1.2-2.2-2.7-1.9-3.1.3-.5.3-.9 0-.9s-1 .9-1.6 2c-.9 1.7-.6 2.2 2.5 3.7 1.9.9 3.7 1.4 4 1.1.6-.6-2.3-10.7-3.4-12-.4-.4-1.6-.2-2.6.6m-27.5.7c0 .5.5.7 1 .4.6-.3 1-.8 1-1.1 0-.2-.4-.4-1-.4-.5 0-1 .5-1 1.1m-12.6 2.4c-1.7 1.3-1.7 1.4-.2 1.5.9 0 2-.5 2.3-1.1 1.1-1.7 0-2-2.1-.4m-85 1c-1.8 1.4-1.8 1.6-.1 2.6.9.5 1.7 1.7 1.7 2.4 0 .8.4 1.5.9 1.5.6 0 .6-1.2.1-3.1-.5-1.8-.7-3.6-.4-4 .8-1.3 0-1.1-2.2.6m104 1.9c1.4 1.9 2.6 4.1 2.6 4.8 0 .8-.5.6-1.1-.5-.6-.9-1.5-1.5-2-1.1-.6.4-.4 1.3.7 2.5 2.1 2.3 3.4 2.4 3.4.4 0-1.8.9-1.9 3.3-.1 1.6 1.3 1.5 1.6-2.2 4.5-2.1 1.7-4.1 3.1-4.4 3.1s-.7-1.2-.9-2.8c-.2-2.2-.9-2.8-3.3-3-2.7-.3-2.8-.2-1.3 1 2.1 1.6 4 6.6 3.2 8.1-.4.7.9-.3 2.9-2.2l3.5-3.3 2.2 2c1.2 1.1 2.9 1.9 3.8 1.8 2.5-.4 6.2 3.6 4.9 5.2-.9 1.1-1.3 1.1-1.9-.5-.7-1.5-.8-1.4-.4.5.3 1.6-.3 2.7-2 3.9-1.4.8-2.2 1.8-2 2 .7.8 6.5-3.6 7.6-5.7.8-1.5.5-2.4-1.5-4.4-1.9-1.9-2.2-2.6-1.1-3.5.7-.6 1.5-.8 1.8-.6.3.3 1.2-.5 2.1-1.9 1.4-2.1 1.4-2.5.2-3-.9-.3-2 .5-2.9 2.3-.8 1.5-2.1 3.3-2.9 4-1.2.9-1.5.8-1.3-.5 0-1.1-.8-2-2.2-2.3l-2.4-.6 2.1-1.9c2.7-2.4 2.6-3.2-.1-4.1-2-.6-2.1-.8-.5-1.2 2.4-.6 5.2 1.6 3.7 3.1s-1.2 2.6.6 2.6c1.2 0 1.5-.8 1.1-3.6-.7-5-1.9-5.9-5.4-4-2.9 1.5-3.1 1.4-5.8-1.4-3.9-4.1-5.3-3.8-2.1.4m16.7 10.3c-1.2 2-1.4 1.4-.5-1.2.4-.9.9-1.4 1.1-1.1.3.2 0 1.3-.6 2.3m-40.5-9.8c-.4.6-1.5 1.1-2.5 1.1s-2.3 1.2-3 2.6c-1.2 2.6-1.1 2.7 1.8 2.1 1.7-.4 4-1.6 5.1-2.7s2.6-2 3.4-2 1.8-.4 2.1-1c.4-.6-.4-.6-2.1 0-2 .8-2.9.8-3.4-.1-.6-.8-.9-.8-1.4 0m1.4 1.5c0 .2-.7.9-1.5 1.6-1.3 1.1-1.4 1-.9-.4s2.4-2.3 2.4-1.2"/>
        <path d="M184.1 146.6c1.4 1.7 3.2 1.9 2.7.2-.2-.6-1.2-1.2-2.2-1.4-1.4-.2-1.5 0-.5 1.2m-117.8 1.8c-3.7 3.1-5.5 7.3-5.1 11.7.3 3.4.4 3.4 5.6 3.7 4.8.3 5.3.1 4.8-1.5-.3-1-.7-3.2-.9-4.9s-.9-3.9-1.5-4.9c-.7-1.3-.7-2.6 0-3.8 1.5-2.9.3-3-2.9-.3m102.9.3c-.6.2-1 .9-.6 1.4.3.5-.3.9-1.3.9-1.5 0-1.4.3.6 1.6 1.7 1.2 2.6 1.3 3.4.5s.7-1.1-.6-1.1c-1.1 0-1.4-.5-1-1.6.3-.8 1.2-1.3 2-1s1.1.1.8-.4c-.7-1.1-1.3-1.1-3.3-.3m-86.6 1.2c-1 1.5.1 7.8 1.5 8.6.5.4 2.3.3 4 0l3-.7-2.5-2.6c-1.5-1.5-3.2-3.6-4-4.6-.9-1.4-1.5-1.6-2-.7m139.9 2.1c.3.5.8 1 1.1 1 .2 0 .4-.5.4-1 0-.6-.5-1-1.1-1-.5 0-.7.4-.4 1m-44.1 1.5c-.3.8-.2 2 .2 2.7.5.7.8 2.2.7 3.3-.1 1.6-.1 1.6.3.2.3-.9 1-1.7 1.5-1.7s.9-.7.9-1.5-.7-1.5-1.5-1.5c-1.8 0-2-1.6-.2-2.3.9-.4.9-.6-.1-.6-.7-.1-1.5.6-1.8 1.4m48.2-.6c-.4.7-.5 1.5-.2 1.8.9.9 1.9-.4 1.4-1.8-.4-1.1-.6-1.1-1.2 0m-69 .9c-.6.9.4 2.1 3.1 3.6.9.5 1.1.2.6-1-.5-1.4-.2-1.6 1.8-1 4.1 1.2 5.4 1.2 5.4-.4 0-1.1-1.4-1.6-5.2-1.8-2.8-.2-5.4.1-5.7.6m63 5.3c-1.7 3.8-2 5.6-1.2 6.1 2 1.4 3.3.8 4.4-1.7 1.7-3.7 1.4-4.5-.4-1.3-1.4 2.8-3.4 3.8-3.4 1.8 0-.6.4-1 .8-1 1.1 0 3.6-8 2.8-8.8-.3-.3-1.7 1.9-3 4.9m-48-3.3c-.3.5-.2 2.2.3 3.8 1 4 4.5 4 4.9 0 .3-2.7.2-2.8-2.4-2.2-2.4.6-2.6.5-1.5-.8.8-1 .9-1.6.3-1.6s-1.3.4-1.6.8m-27.6 2.7c0 5.1 5.5 9.6 6.8 5.6.2-.7-.2-1.1-1-.9-.7.2-1.4-.1-1.5-.6s-.7-1.3-1.5-1.8.1-.6 2.5-.2c3.1.5 3.7.3 3.7-1.1 0-1.2-.6-1.6-1.8-1.3-1 .3-2.7-.1-3.7-.8-2.7-2-3.5-1.7-3.5 1.1m35.2 4.3c-1.7 3.9-3.4 8.2-3.8 9.6-.3 1.4-.9 2.4-1.3 2.3-.3-.1-1.7.6-3.1 1.6-1.3.9-1.9 1.7-1.2 1.7s1 .4.7 1c-.3.5-.4 1-.1 1s1.2-1.2 2.1-2.8c1.5-2.7 1.5-2.6 1.1 2.3-.3 2.7-.3 4.1 0 3 1.9-7.3 5.7-17.9 7.5-20.9 1.1-2 1.9-4.1 1.7-4.7-.2-.7-1.8 2-3.6 5.9m-17.6-3.2c-.3.9-1.1 1.2-1.8.8s-1-.4-.6 0c.3.4-1.7 3.7-4.4 7.4-4.4 5.8-8.8 13.9-8.8 16 0 .4 1.8-2.5 3.9-6.3 5.2-9.3 10.7-15.6 12.9-14.9 1.2.4 1.3.3.4-.3-.7-.5-1-1.7-.6-2.6.3-.9.4-1.7.1-1.7s-.8.7-1.1 1.6m7-.7c-.4.7-.5 1.5-.2 1.8.9.9 1.9-.4 1.4-1.8-.4-1.1-.6-1.1-1.2 0m-81.1 2.5-5 1.1-.3 15.8c-.3 17.8-.9 16.7 8.3 14.4 5.7-1.5 7.3-4.2 3.1-5.3-2.6-.6-2.6-.7-2.6-10.6 0-9.5.1-10.1 2.5-12 2.9-2.3 3.3-4.8.8-4.7-1 0-4 .6-6.8 1.3m95.1.2c-.4.9-.4 1.9-.1 2.2.2.3.7-.3 1.1-1.2s.4-1.9.1-2.2c-.2-.3-.7.3-1.1 1.2m4.7 1.9c-1.9 2.1-1.6 2.7.7 1.5 1.1-.6 2-1.5 2-2 0-1.4-1.3-1.2-2.7.5m-17.5.2c.7.3 1.6.2 1.9-.1.4-.3-.2-.6-1.3-.5-1.1 0-1.4.3-.6.6m27.3.2c-.9.6-1 1.1-.2 1.5 2.3 1.5.9 2.6-3.1 2.7-3.9 0-4.1.2-2 1.1 3.3 1.7 7-.3 6.8-3.6 0-1.4-.1-2.6-.1-2.6s-.6.4-1.4.9m-45.1 1.6c0 1.6 1.6 2 2.4.6.3-.5-.1-1.1-.9-1.5-.9-.3-1.5 0-1.5.9m-51 .3c0 1.2 7.8 3.3 8.5 2.2.7-1.2-.3-1.7-4.8-2.5-2.2-.4-3.7-.3-3.7.3"/>
        <path d="M161.6 168.4c.5 3.3 1.1 4.3 2 3.3.4-.4.2-1.2-.3-1.9-.6-.7-1.3-2-1.6-2.8-.2-.8-.3-.2-.1 1.4m1.5-1.8c0 1.1.3 1.4.6.6.3-.7.2-1.6-.1-1.9-.3-.4-.6.2-.5 1.3"/>
        <path d="M166.4 166.4c-.3.8-.4 2-.2 2.8.4 1.7-11.6 13-12.7 12-.5-.4-.5-.2-.1.5s-.7 3.9-2.4 7.2c-4.3 8.6-3.7 8.9.9.6 2.2-3.9 6.2-9.2 9-11.9 4.9-4.9 5.1-4.9 7.1-3.1 1.5 1.4 2.3 1.5 3.4.6 2-1.7 2.8-5.8 1.6-8.1s-5.8-2.7-6.6-.6m5.4 3.5c.2 1.3-.2 2.8-.8 3.5-.9.8-1 .4-.5-1.9.5-2.8.5-2.8-.6-.8-.7 1.3-1.6 2.3-2.2 2.3-.5 0-.4-.6.2-1.4.9-1.1.9-1.5 0-1.8-1.8-.6 0-3 1.9-2.6 1 .2 1.9 1.4 2 2.7m3.2-3.4c0 .8.2 1.5.4 1.5s.6-.7 1-1.5c.3-.8.1-1.5-.4-1.5-.6 0-1 .7-1 1.5m16.3-.5c-1.7.4-4.8 1.7-6.7 2.8l-3.6 2.1.5-2.7c.5-2.6.5-2.6-.5-.3-.6 1.3-.8 2.6-.5 2.9s-.3 1.4-1.2 2.6c-1 1.1.4.3 3.1-1.7 2.6-2 6.5-3.9 8.5-4.3 5.3-.8 5.6-1 4.6-1.6-.6-.2-2.4-.2-4.2.2m-44.6 3.2c-4.3 5.8-6 12.3-6.1 24-.1 6.2-.5 10.4-1 10-.5-.3-.7.2-.3 1.1.4 1.2.1 1.7-.9 1.7s-1.4-.6-1.1-1.5c.4-.8.2-1.7-.3-2-.6-.4-1 .2-1 1.2 0 1.6-.1 1.6-1.6.1-2.1-2.1-1-3.8 2.4-3.9 1.7-.1 2.1-.3 1-.6-1-.2-1.8-1.3-1.8-2.4 0-2.2-.4-2.3-3.1-.9-1 .6-1.9 1.7-1.9 2.5s-.5 1.5-1 1.5c-2.5 0-.1 3.7 4 6.2 2.4 1.5 5 3.5 5.7 4.4 1 1.4 1.6 1.5 2.5.6.8-.8.8-1.5 0-2.5-1.6-1.9-.3-3 1.6-1.4 1.1.9 1 .3-.4-2.3-1.5-2.8-1.8-5.3-1.6-12.2.2-9.5 2-16 5.9-22 3.2-4.8 2.4-6.1-1-1.6m-91.2-.6c-3.3.8-10.2 2.4-15.2 3.5l-9.3 2.1v4.4c0 2.4.4 4.4.9 4.4.9 0 22.6-4.8 25.4-5.6 1.5-.5 1.7.5 1.7 10.9 0 11 .1 11.5 2 11s2-1.4 2-15.9c0-8.4-.3-15.5-.7-15.7-.5-.2-3.5.2-6.8.9M66 171c0 4.5 2.1 5.5 4 2 2.5-4.6 7.8 3 6.7 9.5-.8 4.6-4.6 10-6 8.6-.6-.6-1.9-1.1-2.9-1.1-1.4 0-1.8.8-1.8 4 0 5.4 2 5.3 8-.8 5.8-5.7 7.8-11.5 6.1-17.3-1.5-4.9-6.2-8.9-10.7-8.9-3.3 0-3.4.1-3.4 4m85-2c0 .5.5 1 1.1 1 .5 0 .7-.5.4-1-.3-.6-.8-1-1.1-1-.2 0-.4.4-.4 1m-49.4 1.7c-.3.3-.1 1.3.3 2.2 1 1.9 7.7 9.1 8.4 9.1.3 0 1.2-2 2-4.4l1.5-4.5-3.1-1c-4.5-1.4-8.4-2-9.1-1.4"/>
        <path d="M147.1 174.9c-2.4 5.6-2.5 6.5-1.1 5.6 1.9-1.2 5.2-8.7 4.2-9.7-.6-.6-1.7 1-3.1 4.1m41.5-3.3c-1 2.5.1 2.9 1.4.5.6-1.2.7-2.1.1-2.1-.5 0-1.2.7-1.5 1.6M97 172.9c0 1.2-.4 2.1-1 2.1-2 0-1 3.8 1.3 4.4l2.2.6-2.2 1.9-2.3 1.9 2.4 1.6c1.4.8 2.7 2.5 3.1 3.6.6 2 .7 2.1 2 .3.7-1 1.1-2.1.8-2.6-.2-.4.1-1.4.7-2.2s1-2.2.7-3.2c-.3-1.5-.6-1.3-1.5.9-1.2 2.9-2.6 3.6-3.7 1.7-.4-.6.1-1.6 1-2.3 1.4-1 1.5-1.7.7-3.2-.6-1-1.4-1.9-1.9-1.9-.4 0-.6-1-.5-2.2.2-1.1-.2-2.4-.7-2.8-.7-.3-1.1.2-1.1 1.4"/>
        <path d="M205.5 172c-6.1.7-18.1 4.6-19.1 6.1-1.2 1.9-2.4.7-2.4-2.4l-.1-3.2-1.4 2.5c-1.9 3.3-1.8 4 .2 4 1.4 0 1.4.2-.2 2l-1.9 2.1-1.5-2.8-1.6-2.8-.3 2.9c-.5 4.4 1.6 4.8 6.4 1.1 5.4-4.1 13.6-7.3 21.2-8.1 3.1-.4 6.4-1 7.2-1.5s1.1-.8.5-.7c-.5 0-3.7.4-7 .8m-48.7 1.7c-2 .5-3.3 3.3-1.4 3.3 1.3 0 4.2-2.8 3.5-3.3-.2-.2-1.1-.2-2.1 0"/>
        <path d="M206.8 175.3c.7.8.8 2.4.3 4.2-.6 2.4-.9 2.7-1.7 1.4-1.4-2.4-4.8-3.9-8.6-3.8l-3.3.1 4 .9c4.2 1 8.5 4.4 8.5 6.7 0 1.1-.3 1.2-1.4.3-2.5-2.1-6.7 1.4-4.9 4.1.3.7.1.8-.5.4-.7-.4-1.2-.3-1.2.3 0 1.7 1.9 2.2 4.1 1 1.2-.6 3.5-1.5 5.1-2 2.4-.7 2.9-.5 2.4.6-.9 2.6.4 1.6 2.3-1.6 1.7-2.8 1.8-3.4.5-4.6-.7-.8-1.8-1.1-2.4-.8-1.5.9-1.2 2.5.5 2.5 1.6 0 2 1.6.6 2.4-.5.3-1.7-.6-2.6-2-1.2-1.9-1.4-2.9-.6-3.4.7-.4.9-1.5.4-2.6-.6-1.7-.5-1.8 1.2-.4 1.8 1.5 1.8 1.4 0-1.8-1.1-1.7-2.3-3.2-2.8-3.2s-.5.6.1 1.3M21 176.8c-3.6.8-6.6 1.5-6.7 1.6-.3.3 1.8 13 2.2 13.4.2.2 2.2-.2 4.5-.8 4.1-1.1 4.2-1.2 3.7-4.8-.3-2.7.1-4.3 1.5-5.9 1.1-1.1 1.8-2.7 1.6-3.5-.2-1.1-1.3-1.1-6.8 0m143-.9c0 1 3 2.4 3.7 1.7.3-.3.2-.9-.2-1.5-.8-1.3-3.5-1.5-3.5-.2m-97.9 6.3c-.1 4.7 0 4.8 2.9 4.8 3.2 0 5-2.6 5-7.3 0-1.6-.3-1.8-1.2-.9-1.6 1.6-5.5 1.5-6.1-.1-.3-.6-.6.9-.6 3.5m95.9-3.1c0 1.7 2 4.9 3 4.9.6 0 .9-.3.9-.8-.5-3 .3-3.3 3.6-1.2 1.9 1.2 3.5 1.8 3.5 1.3 0-1-7.9-5.3-9.7-5.3-.7 0-1.3.5-1.3 1.1"/>
        <path d="M189.5 179.5c-1.9 1.5-1.9 1.5-.1 2.6 1 .6 2.7 2 3.7 3 1.1 1.1 2.5 1.9 3.2 2 .6 0 .1.6-1.3 1.2-4.9 2.3-5.1 3.2-1.5 6.7 3.2 3.1 3.6 3.2 6.5 2 1.8-.8 2.9-1.8 2.6-2.6-.3-.7 0-1.5.7-1.8s.1-.3-1.3 0c-3.2.6-6.7-1.7-5.4-3.7.9-1.5 1.1-2 1.3-4.4 0-.9 1.1-2 2.4-2.4 2.4-1 1.6-1.5-3.3-2.4-1.4-.2-3.2-.7-4-1.1-.9-.4-2.4 0-3.5.9m6.3 12.3c.2.7-.3 1.2-1.2 1.2s-1.6-.7-1.6-1.6c0-1.7 2.2-1.4 2.8.4m5.6 3.4c-.7 1.2-4.4 1-4.4-.2 0-.5 1.1-.9 2.4-.8 1.4.1 2.2.6 2 1m-86.3-12.5c-.1 4 .1 4.3 2.6 4.3 2.4 0 2.5-.1 1-1.3-1-.6-2.1-2.6-2.6-4.2-.9-2.9-.9-2.9-1 1.2m44.4-1.7c-.3.5-.1 1 .4 1 .6 0 1.1-.5 1.1-1 0-.6-.2-1-.4-1-.3 0-.8.4-1.1 1"/>
        <path d="M185.7 181.7c-1.4 1.3-.6 3.3 1.3 3.3 1.1 0 2-.4 2-.9 0-1.3-2.6-3.2-3.3-2.4m-35.9.8c-.3.5-.9 2.6-1.2 4.5l-.7 3.5 1.6-2.8c1.5-2.6 1.8-7.6.3-5.2m-101.5 2.7-4.3.9v5c0 5.4-.1 5.3 7 3.8l5-1.1v-4.9c0-5.4 0-5.5-7.7-3.7m115.4 1.7c-9.2 5.4-12.1 10.1-13 20.8-.4 5.2-.3 5.3 2.8 6.3 7.2 2.4 15.8-2.3 22.1-12.2 5.6-8.6 5.1-10.2-.5-1.9-5.1 7.5-9.5 10.9-15.5 12-4 .7-4.6.6-4.1-.6.4-1.2 0-1.4-1.5-1-3.6.9-2.1-1.5 5.3-9 4.1-4 7-7.3 6.6-7.3s-.9-1-1.1-2.2c-.3-2.1-.4-2.1-4 1.1-2.1 1.8-3.8 3.9-3.8 4.7 0 2 1 1.7 4.2-1.3 1.5-1.4 2.9-2.5 3.1-2.2.2.2-2.5 3.3-6.1 6.9l-6.4 6.5.7-4c1.2-6.4 4-10 11.5-14.5 3.9-2.3 7-4.4 7-4.6 0-1.1-3 0-7.3 2.5m-8-1.2c-.8.8-.9 4.3-.1 4.3.3 0 2.2-1.1 4.2-2.5l3.7-2.5h-3.6c-2 0-3.9.3-4.2.7"/>
        <path d="m35.3 187.2-4.3.9v9c0 8.1.2 9 1.8 8.5.9-.2 6.1-1.4 11.5-2.6 7.8-1.8 9.7-2.5 9.7-4 0-1.6-.4-1.6-5.7-.4-3.2.8-6.1 1.4-6.5 1.4-.5 0-.8-3.2-.8-7 0-3.9-.3-7-.7-6.9-.5.1-2.7.5-5 1.1m73.4 1.2c.5 2.6 2.7 2.6 3.7 0 .3-.8.2-1.2-.3-.9s-1.2.1-1.6-.5c-1.2-1.9-2.2-1-1.8 1.4m80.8-1.4c-1.7.7-1.4.9 1.3.9 2 .1 3.1-.3 2.7-.9-.7-1.2-1.3-1.2-4 0m-84.5 1.5c-1 1.2-1 1.5.4 1.5.9 0 1.6-.7 1.6-1.5s-.2-1.5-.4-1.5-.9.7-1.6 1.5m76.6.6c.5.9 7.4 1.7 7.4.8 0-.4-1.8-.9-3.9-1.1-2.2-.2-3.7 0-3.5.3m-36.5 1.5c0 1.1.3 1.4.6.6.3-.7.2-1.6-.1-1.9-.3-.4-.6.2-.5 1.3m23.9-1.2c0 .2.7.6 1.5 1 .8.3 1.5.1 1.5-.4 0-.6-.7-1-1.5-1s-1.5.2-1.5.4m-56.7 3.5c-2.2 1.6-5 4.9-6.2 7.3-2.8 6-2.7 7 .7 6.2 6.6-1.6 7.2-2.1 7.2-6.3 0-3 .5-4.2 2.5-5.5 2.7-1.8 3.4-4.6 1.2-4.6-.8 0-3.2 1.3-5.4 2.9m54.2-1.9c-.3.5-.1 1 .4 1 .6 0 1.1-.5 1.1-1 0-.6-.2-1-.4-1-.3 0-.8.4-1.1 1m13.8 1c3.5 2.8 5.1 5.7 3.1 5.7-.7 0-1.4-.5-1.4-1.1s-.5-.4-1.2.3c-1.1 1-.8 1.6 1.1 3.2 3.5 2.9 5.1 2.4 5.1-1.4-.1-4.1-2.7-7.4-6.5-8.2l-3-.6zm-29.6 2c-.8 1.9-1.3 3.9-1 4.4.8 1.3 3.5-4.2 3-6.2-.3-1.2-.8-.7-2 1.8m-53.2.8-6 1.7-.3 6.8-.3 6.9 4.3-.7c4.9-.8 5.9-1.9 5.6-5.7-.2-1.8.6-3.7 2.6-5.7 1.5-1.6 2.5-3.4 2.2-4-.9-1.3-.7-1.3-8.1.7m46.5 1.1c0 1.7.4 3.2.8 3.5.4.2.6-1.1.4-3-.5-4.2-1.2-4.5-1.2-.5m-122.4-1c-.9 1.4 1.5 13.1 2.8 13.1 3.7-.1 4.3-4 2-12.3-.5-1.8-3.9-2.4-4.8-.8m152.5 1.7c0 1.1.3 1.4.6.6.3-.7.2-1.6-.1-1.9-.3-.4-.6.2-.5 1.3m-7.1.3c0 .7-.4 1-.8.7-1.1-.7-9.8 8.2-8.9 9.1.4.3 1.3.1 1.9-.5 1.9-1.9 3.2-1.4 1.7.5-1.1 1.6-1.1 1.6.1.5.8-.7 1.5-1.6 1.5-2s1-2.1 2.3-3.7c1.9-2.3 2.5-2.6 3.2-1.5.7 1.2 1.2 1.1 2.9-.4 1.2-1.1 2.1-2.4 2.1-3s-.8-.2-1.6.9c-1.5 2-1.5 2-3 .1-.8-1.1-1.4-1.4-1.4-.7m-81.7.8c-1 .3-1.3 4.1-1.3 14.3v13.9l-3.6 1c-2 .6-8.3 2-14 3.2-8.7 1.9-10.4 2.5-10.4 4.1 0 1.4.5 1.7 2.3 1.3 6.4-1.5 29-6.5 29.3-6.5.8 0 .4-30.9-.3-31.3-.5-.2-1.4-.2-2 0"/>
        <path d="M76.5 199.5c-.5.2-5.4 1.4-10.7 2.6l-9.8 2.1v11.4c0 14.2 1.2 14.9 7 3.5 3.6-7.2 4.3-8.1 7.7-9 2.1-.6 4.5-1.1 5.4-1.1 2.5 0 4.1-2.5 3.7-6.1-.3-3.1-1.2-4.1-3.3-3.4m77.6 2.1c0 1.1.3 1.4.6.6.3-.7.2-1.6-.1-1.9-.3-.4-.6.2-.5 1.3m15.4.2c-1.1.2-3.1 1.6-4.5 3.1s-3.5 3.3-4.5 3.9c-1.1.6-1.7 1.3-1.4 1.7 1.2 1.2 5.8-.7 9.5-3.9 3.9-3.4 4.3-5.4.9-4.8m-122.3 5.3c-1.8 1.2-4.5 4.2-6 6.7-2.3 4.1-2.7 6-3 14.9-.5 11.8-.9 11.3 9.3 8.9 5.5-1.2 6.5-3.3 2.7-5.2-2.3-1.1-2.4-1.7-2.4-10.9 0-9.3.2-9.9 2.6-12.2 1.5-1.3 2.4-2.8 2.1-3.4-.9-1.3-1.6-1.1-5.3 1.2m72.3 3.1c-2.7 3-3 3.8-1.5 3.8.6 0 1.6-1.1 2.2-2.5 1.6-3.7 3-3.1 2.2 1-.7 3.8 1.4 5.2 2.3 1.5.3-1.1 1.2-2 2-2 .9 0 1.3-.6 1-1.5-.4-.8-.2-1.7.4-2 1.8-1.2 2.1 2.5.4 5.1-.9 1.4-1.4 3.2-1.1 4 .5 1.3 1 1.3 3.6-.1 1.9-1 3-1.1 3-.5s.4.9 1 .5c.5-.3.6-1.3.3-2.1-.5-1.3-.1-1.5 1.5-1 2.5.8 3.8-.9 2.1-2.7-1-1-1.6-.9-3.5.8-5.4 4.9-6.4 5.4-6.4 3.1 0-.8 1.2-2.4 2.7-3.6 3.5-2.8 1.9-4.4-4.7-4.5-4.3-.1-5.4.3-7.5 2.7m-12.5-.3c-5.2 1.5-.9 9.2 6.2 11.2 2.1.5 4.3.7 4.8.4 1.9-1.2 1-3.5-1.5-4.1-2.1-.5-2.5-1.2-2.5-4.5 0-3.4-.3-3.9-2.2-3.8-1.3.1-3.4.4-4.8.8m38.4 1.3-1.9 2.1 2.8-1.8c2.8-1.8 3.3-2.5 1.9-2.5-.5 0-1.7 1-2.8 2.2m21.1 2.4c-3 1.7-3.5 2.4-2 2.4 1.1 0 3.2-.7 4.5-1.6 1.8-1.1 1.6-.8-.5 1-1.6 1.4-2.5 2.6-1.9 2.6 1.9 0 5.3-4 4.8-5.5-.4-.8-.7-1.5-.8-1.4 0 0-1.9 1.2-4.1 2.5m-71.7-.4-3.8 1v6.9c0 3.8.3 6.9.8 6.9 1.6-.1 12.1-2.8 13.1-3.5 1.8-1.1 1.3-2.3-1.6-3.7-2.1-1-2.7-2-2.8-4.7 0-3.9-.6-4.2-5.7-2.9"/>
        <path d="M76.5 214.5c-.5.2-2.2.6-3.7.9-2.1.5-3.5 2-5.4 5.7-1.4 2.8-2.3 5.3-2 5.6.2.3 3.9-.3 8-1.2l7.6-1.7v-4.9c0-4.9-.8-5.7-4.5-4.4m64.2 1.2c-.4.3-.7 1.3-.7 2.1 0 1.2.3 1.2 1.5.2.8-.7 1.5-1.6 1.5-2.1 0-1.1-1.4-1.2-2.3-.2m3.3 1.8c-1.3 1.4-1.9 2.5-1.3 2.5 1.2 0 4.8-3.8 4.1-4.5-.2-.3-1.5.6-2.8 2m-93.2-.5c-.8 2.4.5 13 1.5 13 .8 0 1.1-2.2.9-7-.3-6.2-1.4-8.9-2.4-6m97.8-.2c-.9 1.4 1 3.3 2.7 2.6 2.1-.8 2.2-2 .1-2.8-2-.8-2.2-.8-2.8.2"/>
    </g>
</svg>
