<svg xmlns="http://www.w3.org/2000/svg" width="341.333" height="341.333" version="1.0" viewBox="0 0 256 256">
    <g fill="#e5e5e5">
        <path d="M158.1 21c-14.7 3.9-27.7 12.1-36.5 23-10.5 13-10.4 13-15 13-4 0-4.9-.6-11.2-6.5-8.8-8.4-15.3-11.7-24.8-12.3-10.1-.6-13.7.8-21.1 8.4-12 12.3-16.5 25.3-17 48.9-.1 8.4-.7 14-1.5 15.5-.7 1.4-5.5 6.8-10.6 12.2-13.7 14.2-13.9 14.9-13.9 34.3.1 25.5 3 35.6 13.5 46.8 10.3 11.1 23.2 18.7 43 25.3l11.5 3.9h45l14.7-4.2c8-2.4 18.4-6.1 23.1-8.3 7.3-3.5 9.8-5.4 18.4-14.3 7.3-7.5 10.8-12 13.1-16.8 3.3-6.9 8.2-24.2 8.2-28.9 0-6.9 3.9-11.3 15-17.1 9.6-5 18.1-11.7 24.3-19.4 15.5-19.2 17.5-40.1 7.6-77-1.3-4.9-14.9-18.6-22.4-22.7-7.7-4.1-19.1-5.8-38.9-5.7-13.5 0-18.6.4-24.5 1.9m46.7 9.6c11.5 2.3 15.7 4.5 17.3 8.8.8 2.3 1.9 3.6 3.1 3.6 2.2 0 9.8 6.7 9.8 8.7 0 .8-.6 2.6-1.4 4.1-1.3 2.5-1.2 2.9.8 4.9 3.1 3 4.6 8.4 5.3 18.5.9 14.4-1.8 24.1-10.2 36.7-6.9 10.2-18.9 18.2-34.8 23.2l-7.7 2.4V158h-4.6c-2.7 0-4.3-.4-3.9-1 .3-.6 1.3-1 2.1-1 1.1 0 1.4-1.6 1.4-7.5 0-6.8-.2-7.5-2-7.5-1.5 0-2 .7-2 2.7-.1 1.6-.7 3.9-1.4 5.2-.8 1.4-1.1 3.2-.8 4 .3.9.1 1.2-.6.7-.6-.3-1.5.2-2.1 1.1-.9 1.4-1 1.1-.8-1.9.1-2.1.5-3.8.9-3.8.3 0 .4-.9.1-2s-.9-1.7-1.4-1.4-.9.1-.9-.4c0-.6.7-1.2 1.5-1.6 1.7-.6 2.1-3.6.5-3.6-.5 0-1 .6-1 1.2 0 .8-.3.9-.8.3-1.1-1.6-6.2-3.6-6.2-2.5 0 .6.4 1 .8 1s.8.9.9 2-.3 2-.8 2c-.6 0-.8.4-.5.9 1 1.5-.5 4.1-2.3 4.1-.9 0-2.2.4-3 .9-1.1.7-1.1 1.3.3 3.2.9 1.3 1.6 2.8 1.6 3.4 0 .5-1.1-.6-2.4-2.6-4.9-7.2-14.7-8.4-25.8-3.2-3.6 1.7-10.1 5.5-14.4 8.4-10.4 7.1-11.3 7.6-8.7 4.7l2.3-2.4-6.3-.1c-6.5 0-19.1-2.3-17-3 .8-.3-.6-2.4-3.5-5.3-7.6-7.8-7.4-7-2.5-11.7 2.8-2.7 4-4.4 3.2-4.9-.8-.4-.4-1.1 1.2-2 2-1 2.7-1 4.1.2 1.9 1.8 2.9.7 2.6-3.2-.5-5.7-18.8-14.4-30.4-14.4-6.9 0-14.9 1.7-16.5 3.6-1 1.2-.5 1.4 2.7 1.5 3.9.1 3.9.1-.9.9-2.7.5-5 1-5.2 1.2s3.3.3 7.8.4c6 0 9.7.7 13.7 2.3 6.8 2.6 13.6 7.4 13.2 9.1-.1.7.4 2.3 1.2 3.5 1.3 2 1.3 2.5.2 3.5-1.1.9-1.7.2-2.8-3.2-1.7-5.2-5.3-7.8-14.5-10.9-4.5-1.5-9-2.2-14.2-2.2-9.1 0-13.6 2-20.7 8.8-2.5 2.5-4.9 4.5-5.4 4.5-.4 0-1.3 3.4-2 7.5-2.1 12 .2 29.5 5 38.7 2.8 5.5 6.2 9.7 7.8 9.7.6.1 1.2.7 1.2 1.4 0 1.4 3.7 4 4.3 2.9.2-.4.2-.2.1.5-.2.7 2.4 2.8 5.6 4.8 3.3 2 6 4.3 6 5.1 0 1 .6 1.3 1.8 1 2.5-.8 9.2 2.1 9.2 3.9 0 .8.5 1.5 1 1.5.6 0 1-.5 1-1 0-1.2 3.6-.5 8.7 1.6q3.3 1.35 2.7 2.7c-.4 1.3-1.8 1.1-8.7-1-22.6-6.8-41.1-19.8-45.6-31.9-5.2-13.7-6.8-37.8-3-44.8 2.7-5.1 11.6-14.2 15.9-16.4 2.4-1.1 4.2-3.2 5.6-6.2 1.2-2.5 3-5.3 4.1-6.2 1.9-1.7 1.9-1.9.2-8.5-2.2-8.5-2.3-10.7-.3-22.4 1.9-11.7 6.5-21.7 13.6-29.5l5.2-5.6 6.2.5c17.2 1.3 32.1 19.7 27.3 33.5-.7 2.1-.7 3.7 0 5 .9 1.7 1.9 1.9 8.3 1.4 4-.2 8.9 0 10.9.6l3.6 1 .5-10.2c.4-8.1 1.1-11.4 3.2-16.6 6.9-16.2 20.2-26.7 41.1-32.5 7.2-2 31.5-1.9 41.3.1M39.3 142.5c6.1 1.3 16.8 6.3 18.2 8.4.2.5-3.6-.6-8.5-2.5s-11.6-3.6-14.7-3.9l-5.8-.5 4 1.4c2.2.8 5.7 1.7 7.9 2.1 4.9.8 4.1 1.5-2.6 2.4l-5.3.6.2 5.5c.2 3 .8 6.7 1.4 8.2 1.9 4.6 4.8 3.6 14.9-5.1l6.5-5.6-3.4 4.4c-4.5 5.7-10.7 10.1-14.2 10.1-5.5 0-14.9-12.8-14.9-20.1 0-1 .4-2.9 1-4.3 1.1-3.1 4.7-3.4 15.3-1.1m38.1 4c-.4.8-1 1.2-1.5.9-1.4-.8-1-2.4.6-2.4.9 0 1.2.6.9 1.5m-2.5 1.1c1.8 1.3 2 1.8 1 2.5-2.1 1.3-2.9 1.1-2.9-1 0-1.1-.6-2.2-1.2-2.4-.7-.3-.8-.6-.3-.6.6-.1 2.1.6 3.4 1.5m-8.2 5.4c-2.2.9-3.5 2-3.2 2.8.3.9 0 1-1.5.2-3.1-1.7-3.2-2.9-.3-3.5 1.5-.4 3.7-1 4.8-1.4 1.1-.5 2.4-.6 3-.3.5.4-.7 1.3-2.8 2.2m-5.7 3.5c1.2 1.5.8 1.9-2 1.6-.9-.1-2.4 1.3-3.4 3-2 3.4-12.8 10.9-15.8 10.9-1 0-1.8.4-1.8 1 0 .5.6 1 1.4 1s1.3.8 1.2 1.7c0 1 .5 1.7 1.2 1.6.6-.2 1.2.4 1.2 1.2s1.1 1.7 2.5 2.1c1.4.3 2.5 1 2.5 1.4 0 1.7 9.9 2 19.5.6 23.9-3.6 36.6-7.5 60.7-18.8 17-7.9 21.4-7.4 22.4 2.4.4 3.7.3 4-.6 1.8-1.6-3.5-4-6-6-6-1.5 0-1.7 1-1.4 7.7l.3 7.8-1.3-5.5c-2.7-10.9-3.7-11.4-6.2-3.4-4.3 13.8-20.3 26.5-39 31-4.5 1.1-11.3 1.7-19.4 1.7-11.1.1-13.4-.2-20.3-2.6-4.3-1.5-9.9-3.9-12.5-5.3s-3.8-2.2-2.7-1.8c1.1.3 3.9 1.2 6.3 2l4.2 1.3v-3.2c0-4.5-2.5-7.7-6-7.7-1.5 0-5.2-1.1-8.2-2.5-5.1-2.4-4.7-3.5.6-1.5 1.7.6 2.6.6 2.6 0s-.4-1-.8-1c-1.6 0-12.4-11.5-14.3-15.2-2.7-5.2-2.3-7.1.5-2.5 5.3 8.7 7.7 9.8 14.8 7.3 3.3-1.2 15.7-10.8 16.6-12.9.6-1.1 1.8-.8 3.2.8m125.6 4.2c-.3 1-1 3.9-1.5 6.4-.6 2.6-1.5 5.8-2.1 7.3-.9 2.6-1.1 2.6-3.9 1.1-3.1-1.6-5.3-3.9-2.7-2.9 1 .4 1.6-.5 2.2-2.8.4-1.8.7-3.9.5-4.6-.1-.6.2-1.2.7-1.2s.9-.7.9-1.5-.4-1.5-.9-1.5-.6-.5-.3-1c.3-.6 2.2-1 4.1-1 2.9 0 3.4.3 3 1.7m-8.1 16.3c1.7.8 3.1 1.5 3.3 1.6.8.5-6.1 13.4-7.2 13.4-1.7 0-7.1-5.8-6.3-6.7.4-.3.7-.2.7.3s.9 1 2 1c1.5 0 2.2-.9 2.6-3.3.3-1.8 1.1-3.3 1.8-3.3s.7-.3.1-.8c-1.1-.8-1.7-4.5-.6-4 .3.2 2 1 3.6 1.8m-5.5 3.4c0 .3-.4.8-1 1.1-.5.3-1 .1-1-.4 0-.6.5-1.1 1-1.1.6 0 1 .2 1 .4m.1 14.4c-.6.2-2.5 1.8-4.3 3.5-1.8 1.8-4.7 4.4-6.4 5.8s-3.3 3.1-3.6 3.9c-.3.9-1.2.1-2.6-2.2-2.5-4-3-7.5-.7-4.4.8 1.1 1.5 1.4 1.5.8 0-.7.7-1.2 1.5-1.2s1.5-.5 1.5-1c0-.6.7-1 1.5-1s1.5-.7 1.5-1.5.6-1.5 1.4-1.5c1.6 0 2.6-2.1 2.6-5.8v-2.6l3.5 3.4c2 1.9 3.1 3.6 2.6 3.8m-108.3 13c-2.8.5-7.1-1.5-10.2-4.6-2.5-2.7-2.4-2.7 4.8.8 5 2.4 6.7 3.6 5.4 3.8m90.8-.4c1.2 2.2 1.3 2.7.2 2.4-1.4-.6-10.9 3.8-12 5.6-1 1.3-2.8-1-2.8-3.6s1.2-5.1 1.9-3.9c.9 1.4 5.1.2 5.1-1.5 0-.7.6-1.1 1.4-.8s1.6-.4 2-1.8c.7-2.5 1.1-2.1 4.2 3.6m-35.5.5c-1.1 1.5-3.2 3.6-4.6 4.5s-2.3 2.2-1.9 2.8c.4.7.3.8-.4.4-1.5-.9-10 4.6-9.5 6.1.7 1.8 2.3 1.6 2.3-.3 0-.9.9-1.8 2-2.1s2-.9 2-1.3c0-1.1 5.4.1 6.2 1.4.4.6 1 .7 1.4.3s.2-1.3-.4-1.9c-1.4-1.4-1.6-3.2-.2-2.3 1 .6 11.4-4.3 16.5-7.8l3-2.1-2.2 2.5c-3 3.3-2.9 4.7.2 4.1 1.4-.2 2.2-.8 1.9-1.3s.1-.9.9-.9c1.3 0 2.7 2.8 2.7 5.6 0 .6-1.7 1.4-3.8 1.8-2.1.3-8.3 1.9-13.6 3.6-8.8 2.7-11.2 3-23.1 3-17.5 0-22.5-.7-22.5-3.1 0-1.7.9-1.9 9.5-1.8 9.9.1 17.5-1.7 22.5-5.1 1.4-1 3.4-2 4.6-2.4 1.1-.3 3.3-2 4.9-3.6 3.6-3.8 4.2-3.8 1.6-.1m26.9-2.5c0 .3-.4.8-1 1.1-.5.3-1 .1-1-.4 0-.6.5-1.1 1-1.1.6 0 1 .2 1 .4"/>
        <path d="M166.5 33.6c-10.1 2.2-23.9 9.2-30.1 15.3C127.7 57.6 123 69 123 81.5c0 11.8 4.4 18.7 13.4 20.9 2.7.7 2.8.6 2.1-2.1-.4-1.5-.9-3.9-1.2-5.3-.2-1.3-1-2.8-1.6-3.2-.9-.6-.9-.8.1-.8 1.3 0 .9-4.9-.5-5.9-1.2-.9-1.4-3.1-.4-3.1.6 0 1.3.4 1.6 1 .3.5 1.1 1 1.8 1 .6 0 .1-.7-1.2-1.6-1.6-1.1-1.9-1.9-1.1-2.4.6-.4 1.5-3.8 2-7.5.7-5.4 1.3-7.3 3.1-8.6 1.3-1 2.7-1.5 3.1-1.3.4.3.8 0 .8-.5 0-.6.4-1.1.9-1.1s3.4-1.6 6.6-3.5 6.2-3.6 6.9-3.9c.8-.3.7-.7-.2-1.4-1.1-.7-1.1-1 .3-1.5.9-.4 1.3-.3 1 .3s-.2 1 .2 1c.5 0 1.7.6 2.7 1.3 1.7 1.3 1.7 1.4 0 2.8-1.6 1.3-1.7 1.2-1.1-.6l.7-2-1.6 2c-.8 1.1-2 1.9-2.5 1.7-1.2-.3-9.2 3.8-8.6 4.4.3.3 3.1-.1 6.3-.9 3.3-.8 10.2-2.2 15.4-3.2 5.2-.9 10.6-2.1 12-2.7 1.4-.7 2.9-1.1 3.3-1s.3-.7-.3-1.8-1.3-2-1.6-2-.2.5.1 1.1c.8 1.2-2.5 4-3.8 3.2-1.7-1-13-.3-14.6.9-.9.7-1.3.8-.8.3.4-.4-.4-1.6-1.9-2.5-2.1-1.4-2.3-1.8-.9-2.4.9-.3 1.3-.2 1 .4-1 1.7.7 1.1 2.2-.8 1.2-1.4 1.4-1.4 1-.1-.5 1.4.5 1.5 7.1 1.2 4.3-.3 8.4-.7 9.2-1 .8-.4 2.1-.5 2.8-.4.8.1 2.1-.4 3-1.1 1.1-.8 1-.5-.3 1.1-1.1 1.4-1.4 2.1-.7 1.7s1.8-.3 2.5.2c1.6 1.3 11.7.3 11.7-1.2 0-2 5.2-6.4 10.3-8.5 2.7-1.2 4.5-2.5 4.2-3.1-3.6-5.8-33.8-9-51-5.4"/>
        <path d="M212 44.7c-7.6 3.9-7.3 5.3.5 2.9 4.8-1.5 6.5-2.5 6.5-3.8 0-2.4-.7-2.3-7 .9m5 3c-4.9 1.7-13 5.7-13 6.3 0 1.2 2.6 3 3.3 2.3.4-.3.7 1 .7 3 0 2.9-.4 3.5-1.9 3.4-1.1 0-1.7-.5-1.5-.9.3-.5 1-.6 1.5-.3s.6-.1.3-1c-.6-1.4-.9-1.4-2.8-.2-2.4 1.6-4.1 4.7-5.1 9.4-.5 2.6-.3 3.4 1.5 4.3 1.8 1 2.9.8 5.6-.6 2.8-1.5 3.7-1.6 5.2-.6 2.5 1.8 4.2 2.5 4.7 2 .9-.9-2.6-10.7-4.1-11.6-.8-.4-1.7-2.6-1.9-4.8-.3-2.1-.3-3.3.1-2.6.3.6 1 1 1.5.6.8-.5 1.3.9 1 2.9-.1.4 1.1 2.6 2.5 4.9 2.3 3.7 3.1 6.3 3.3 11.7.1.9.9 1.1 2.9.7 2.4-.6 2.5-.5 1 .7-1.4 1.1-1.5 1.6-.5 2.7.7.7-.6.3-2.8-.9s-3.1-1.5-1.9-.6c2 1.5 2.1 1.8.7 7.8-.8 3.4-2.8 8.6-4.4 11.4-1.9 3.4-2.5 5.3-1.7 5.3.7.1.2.7-1.1 1.4-2.3 1.3-2.3 1.4-.5 1.9 1.5.4 1.5.5.2.6-.9 0-2 1.1-2.3 2.2-.5 1.6-.9 1.8-1.5.9-.4-.7-1.3-.9-1.9-.6-.6.4-.8 1.2-.5 1.8.5.7.2.8-.5.4-.8-.5-1.4 0-1.8 1.3-.3 1.1-.9 1.8-1.4 1.5s-1.2.2-1.5 1c-.3.9-1.2 1.6-1.9 1.6s-1.5.3-1.7.7c-.1.5-1.7 1.5-3.4 2.4-3.7 2-8 .5-6.4-2.1.9-1.3 1.1-1.3 2 0 .7 1.1 1 1.1 1 .2 0-.7.4-1 1-.7 1.4.8 7-2.6 6.3-3.8-.3-.6-.1-.7.5-.3 1.5.9 7.7-5.7 7.9-8.4.2-2.6.6-3.1 2.6-3.4.8-.1 2.2-.8 3.1-1.5 1.7-1.5 5-9.7 6-15.4.6-3.2.4-3.7-1.2-3.7-3 0-4.9 2.2-6.1 7.2-.8 3.6-.8 5.2 0 6.7.7 1 .9 2.6.5 3.6-.5 1.4-1.5 1.7-5.1 1.3-3.3-.4-4.5-.2-4.5.8 0 1.4-1.1 1.9-9 3.3-8.4 1.6-37.1 7.9-37.5 8.3-.8.7 6.7 7.8 7.6 7.2.6-.3 1 0 .8.7-.1.8-.1 2.3.1 3.4l.1 2 .9-2c.5-1.1.9-1.4.9-.8.1 2.1 2.1 1.4 2.1-.7 0-1.1.4-2 .9-2s.7.8.4 1.9c-.4 1.6 0 1.8 3.3 1.4 2.1-.2 4.2-.9 4.6-1.6s.8-.8.8-.2c0 .7 1.5.9 3.5.7 3.1-.4 3.4-.6 2.3-1.9-.8-1 .8-.5 4 1.1 4.8 2.4 7.3 4.6 3.6 3.2-.9-.4-2.3-.1-3 .5-1.2.9-1.3.9-.8-.4.5-1.4.1-1.5-2.8-.6-1.8.6-6.1 1.1-9.5 1-4.4-.1-6.3.3-6.3 1.2 0 .8-.4.7-1-.3-.8-1.3-1.1-1.3-1.9-.1-1.4 2.2 1.1 9.7 3 8.6.5-.4.9 0 .9.8 0 3.6 11 4.5 21.5 1.7 4.4-1.1 8.2-2.5 8.3-3 .2-.6 1.2-1 2.1-1 1 0 5.1-1.6 9.1-3.6 18.1-9.1 28.6-26.8 28.3-47.9-.1-12.3-1.8-17.5-6.5-19.8-2-1-6-2.1-8.9-2.4l-5.2-.6 3.2-2.9c1.7-1.5 5.2-3.4 7.6-4 4.2-1.1 4.4-1.3 2.8-3-1.6-1.8-8.7-2.4-12.3-1.1M63.4 52.4C57 55.2 49.9 66.7 47.5 77.9c-1.7 8.4-2 20.1-.5 20.1.6 0 1 .6.9 1.2-.4 3.3.2 5.9 1.2 5.3.6-.4 1-.1.8.6-.3 2.9.2 3.7 2.1 3.2 1.1-.3 2-1.3 2.1-2.2 0-1 .2-1.1.6-.4.8 2 2.3 1.5 2.3-.8 0-1.1-.4-1.8-.8-1.5-.4.2-.8-.7-.8-2.2 0-5-1.5-13.3-2.3-12.8-.4.3-.8-.8-.8-2.5v-3l2.6 2.5c2.1 2.1 2.5 3.4 2.2 7.1-.1 2.7.2 4.5.8 4.5s1.1 1.8 1.1 3.9c0 4.4 1.7 6.3 3.4 3.9.8-1.1 1.8-1.3 3.4-.7 2.4.9 4.9.3 7-1.7 1.4-1.5 1.6-2.8.2-1.9-.5.3-1 .1-1-.4 0-.6.4-1.1 1-1.1.5 0 .6-.7.3-1.7-.4-1.1-.3-1.4.5-.9q1.2.75 1.2-1.8c0-1.3-.6-2.7-1.2-2.9-.9-.4-.7-.6.3-.6.9-.1 1.6-.8 1.6-1.6s-.4-1.2-.8-.9c-.4.2-1 0-1.4-.6-.3-.6.1-1.3 1-1.6 1.2-.5 1.3-.9.5-1.4-.7-.5-.8-1-.3-1.3.6-.4 2.1.5 3.4 2 1.3 1.4 1.9 2.3 1.3 2-1.2-.7-2.4 3.4-2.4 8 0 2.5.1 2.5 2.5.9 1.3-.9 3.3-1.6 4.4-1.6s2.5-.8 3-1.8c.6-.9 1.1-1.1 1.1-.5 0 .7.4 1.3.9 1.3.4 0 1.1-2.2 1.4-5 .3-2.7 1.4-7.2 2.3-9.8 1.7-4.7 1.7-5.2.1-9.4-4.6-12-20.4-21.4-29.3-17.4m11.2 9.7c3.1 1.5 4.3 2.6 4 3.6-.5 1.2.7 4.7 2.1 6.3.2.2 1.5-.9 2.8-2.5 2.4-2.8 2.3-2.6-.5 3.5-3 6.3-3 6.5-1.1 7.8 1.8 1.3 1.8 1.5.3 3.1-1.6 1.7-1.8 1.7-3.8-.1s-2.1-2.2-.9-4.5c.7-1.4 1.2-3.1 1-3.7s-.6-2.3-.9-3.8-1.5-2.9-2.5-3.3c-1-.3-2.2-1.7-2.5-3-1.2-4.7-8.8-4.5-9.1.3-.1 1.2-.5 2.5-1 2.9-.4.5-.5.1-.3-.7.3-.8-.1-2.8-.9-4.4-.8-1.5-1.1-2.6-.6-2.3s1.5.2 2.3-.4c2.4-1.5 6.8-1 11.6 1.2m-15.3 8.6c-2.4 5.1-3.3 11.5-1.8 14.8.8 2 .8 2-1.3.1-2.6-2.2-2.3-6 .9-13.5 1-2.4 1.7-4.7 1.4-5.1-.3-.5.1-1.1.7-1.3.7-.3.4-.6-.7-.6-1.7-.1-1.7-.3-.5-1.1 1.1-.7 1.8-.5 2.6.5.8 1.1.5 2.6-1.3 6.2M80 94.4c0 .3-.4.8-1 1.1-.5.3-1 .1-1-.4 0-.6.5-1.1 1-1.1.6 0 1 .2 1 .4m-18 9c0 .3-.4.8-1 1.1-.5.3-1 .1-1-.4 0-.6.5-1.1 1-1.1.6 0 1 .2 1 .4"/>
        <path d="M75.1 64.6c0 1.1.3 1.4.6.6.3-.7.2-1.6-.1-1.9-.3-.4-.6.2-.5 1.3m152-11.4c-1.9.5-4.3 1.6-5.4 2.3-1.8 1.3-1.7 1.4 1.9 2.4 5.3 1.5 5.1 1.5 6.9-1.9 2.3-4.5 2.3-4.5-3.4-2.8m-32.2 1.1-4.7.9-2.6 9.7c-1.4 5.4-2.6 10.2-2.6 10.8 0 .8 1.3.8 4.3.1 5.2-1.1 6.8-2.6 4.5-3.9-1.5-.8-1.5-1.4-.1-6.7.9-3.3 2.6-6.7 4-8 3.4-3.1 2.6-3.9-2.8-2.9M185 56c-1.3.9-1.3 1.1 0 2 2.2 1.5 3 1.2 3-1s-.8-2.5-3-1m-7.4 3.6c-.3.9-.6 2.3-.6 3.1 0 1.4.3 1.4 1.9-.1 1.1-1 2.5-1.5 3-1.1 3.6 2.2-2 14.3-6 13-1.4-.5-2.1 0-2.8 1.7-1.2 3.1.2 3.4 4.4.8 4-2.5 8.5-9.5 8.5-13.2 0-4.6-6.9-8.1-8.4-4.2M162.8 61c-10.2 2.3-10.5 2.4-11 5.4-.6 3.1-.9 3.1 10.5.7 9.7-2 9.5-2.2 7.2 5.3-1.7 5.6-1.9 7.6-.6 7.6.8 0 6.1-17.2 6.1-19.8 0-1.5-2.7-1.4-12.2.8m-17.4 3.9c-4.8 1.2-5.4 1.9-5.4 6.3 0 3.9.1 4 2.7 3.3 3.1-.7 4.3-2.1 4.3-4.8 0-1 .6-2 1.4-2.3 1.9-.7 2.9-3.4 1.3-3.3-.7.1-2.6.4-4.3.8"/>
        <path d="M153.5 71.9c-2.5.5-3.3 1.4-4.7 5.6-2.5 7.7-2.7 7.5 6.2 5.6 4.4-1 8.3-2.1 8.7-2.4 1.3-1.4-.6-1.7-4.6-.8-4.6 1-4.5 1.1-3-4.2.6-2.2.9-4 .7-4.1s-1.6 0-3.3.3m9.2.8c-.4.3-.7 1.5-.7 2.5 0 3 4.7 2.4 5.2-.7.4-2.1.1-2.5-1.7-2.5-1.2 0-2.5.3-2.8.7m41.2 3.7c-3.7 2.5-7.5 7.4-6.5 8.3 1.4 1.4 5.8-1 6.8-3.8.5-1.6 1.9-3.4 2.9-4 1.9-1 2.6-2.9 1.1-2.9-.4 0-2.3 1.1-4.3 2.4m-60.5.4c-1.7 1.1-2.5 9.2-.9 9.2 1.8 0 2.3-.9 3.1-5.8.6-4.1.1-5-2.2-3.4m50.8.2c-4.2 1-4.8 1.6-6 6.2-.9 3.4-.8 3.8.8 3.8 2.9 0 5-1.1 5-2.6 0-.8 1.4-2.8 3-4.6 1.7-1.7 3-3.3 3-3.4 0-.5-1.9-.3-5.8.6m-9.5 2.7c-.3.5-1.5 4.6-2.8 9.3-1.2 4.7-2.6 8.8-3.1 9.1s-5.1 1.4-10.3 2.4c-5.6 1.1-9.5 2.4-9.5 3.1 0 .8 2.6.6 9.3-.7 13.5-2.7 13-2.4 15.7-12.5 1.2-4.9 2.5-9.5 2.8-10.2.4-1.3-1.4-1.7-2.1-.5"/>
        <path d="m171.3 81.7-7.1 1.5-2.1 7.6c-1.1 4.2-1.8 7.8-1.5 8.1.6.6 4.4-3.4 7.9-8.2 1.5-2 3.5-3.1 6.8-3.9 2.6-.5 4.7-1.3 4.7-1.6 0-.4.3-1.7.6-3 .7-2.6.7-2.6-9.3-.5m-13.9 4.2c-1.8 1.1-4.3 3.4-5.7 5.3-2.4 3.2-6.3 14.5-5.3 15.5.8.8 8.5-.8 9.2-1.9.4-.6 0-1.4-.7-1.9-1.2-.7-1.1-1.9.4-7.6 1-3.7 2.1-6.9 2.5-7.1 2.1-.7 3.4-2.1 3.1-3.1-.3-.7-1.5-.4-3.5.8M139.3 91c1.2 9.9 2.6 14 4.7 14 .5 0 1.1-1.8 1.5-3.9.4-2.2 1.5-5.6 2.4-7.5l1.8-3.5-2.9.6c-2.2.4-3.5 0-5.5-1.8l-2.5-2.4zm57.4-3.3c-.4.3-.7 1.7-.7 2.9 0 2.5 2.6 4.4 5.9 4.4 2.3 0 2.8-1.8.7-2.6-.8-.3-1.1-1.5-.8-3 .4-2 0-2.4-2-2.4-1.4 0-2.8.3-3.1.7m-8.9 2c-.9.2-1.9 1.6-2.3 3.1-.3 1.5-.8 3.6-1.2 4.6-.5 1.7-.1 1.8 3.8 1.2 5.3-.8 6.7-2 5-4-.7-.8-1-2.4-.6-3.6.6-2-.6-2.4-4.7-1.3m-88.8 3c-1.4.2-7.6 2.9-13.8 5.8-12.3 5.9-13.5 7.6-7.7 10.4 2.5 1.2 4.1 1.2 12.4-.4 11.4-2.1 21.2-3.4 34.1-4.3l9.5-.7-4.4-2c-2.4-1.1-5.7-3.3-7.2-5-2.8-2.9-2.9-2.9-4.3-1-1.5 1.9-1.5 1.9-1.6-.8V92l-7.2.1c-4 .1-8.4.4-9.8.6m75.9.5c-.8.7-2.2 2.2-2.9 3.2-1.4 1.8-1.3 1.9 2 1.3 1.8-.4 3.8-1.3 4.2-2 1.2-1.9.9-3.7-.5-3.7-.7 0-2 .6-2.8 1.2m-36.3 11.7c-1.5.6-1.2.9 1.8 1.8 2 .6 3.6.9 3.6.6 0-.5-2.7-3.3-3.2-3.2-.2 0-1.1.4-2.2.8m67.6 1.6c0 1.6.2 2.2.5 1.2.2-.9.2-2.3 0-3-.3-.6-.5.1-.5 1.8m-94.5 1.9c-3.3 1.4-6.1 2.7-6.5 3-1.2 1.3 2.1.5 5.8-1.4 2.2-1.1 5.7-2.4 7.7-2.9 2.8-.7 3.2-.9 1.3-1-1.4 0-5.1 1-8.3 2.3M63 109c-.7 1.3-.7 2-.1 2s1.5-.9 2.1-2c.7-1.3.7-2 .1-2s-1.5.9-2.1 2m39.4.5c-2.4 1.8-.7 1.9 2.6 0q2.4-1.35.9-1.5c-.8 0-2.4.7-3.5 1.5m35.6-.5c.8.5 2.2.9 3 .9 1 0 .8-.3-.5-.9-2.7-1.2-4.3-1.2-2.5 0m-86.8 4.1c-4.5 2.2-8.2 6.2-8.2 8.6 0 1 1.2.5 3.5-1.6 2-1.7 4.2-3.1 5-3.1 1.5 0 5.1-4.7 4.3-5.5-.2-.2-2.3.5-4.6 1.6m19.8-1.7c0 .2.7.6 1.5 1 .8.3 1.5.1 1.5-.4 0-.6-.7-1-1.5-1s-1.5.2-1.5.4m76.5 2c1.7 1.4 3.3 2.5 3.6 2.6 1.1 0 6 8.1 5.4 8.9-.2.5.3 1.7 1.3 2.8.9 1 1.4 1.4 1 .9-1.1-1.4-1-2.8.2-2.1 1.6 1 1.2-.4-1.2-3.8-3.5-5.1-7.1-8.8-10.3-10.4l-3-1.5zm-52-.4c-.3.5.1 1 .9 1 .9 0 1.6-.5 1.6-1 0-.6-.4-1-.9-1-.6 0-1.3.4-1.6 1m40 .7c2.8 1 6.5 2.9 8.3 4.1 1.7 1.3 3.2 1.9 3.2 1.3 0-2-7.8-6.3-12.2-6.7l-4.3-.5zm-69 .3c-.3.5.3 1 1.5 1s1.8-.5 1.5-1c-.3-.6-1-1-1.5-1s-1.2.4-1.5 1m39 3.9c-2 2.7-4.8 5.4-6.3 6-2.2.8-2.3 1-.6 1 1.1.1 2.7-.5 3.6-1.2 2.6-1.9 8.9-10.7 7.8-10.7-.6 0-2.6 2.2-4.5 4.9M125 116c0 .4 2.1 1.5 4.7 2.4 3.7 1.3 4.4 1.3 3.3.3-1.9-1.8-8-3.9-8-2.7m-13 2.2c-1.8 1.3-4 3.4-4.9 4.8l-1.5 2.5 2.9-2.5c2.3-2 2.2-1.6-.8 1.8-2 2.3-3.7 4.7-3.7 5.4 0 .6-.3.9-.6.6-.3-.4 0-1.6.6-2.8 1.1-2 1-2.1-.9-1.1-4.5 2.4-3.8 9.7 1.5 16.7 2 2.5 3 4.3 2.2 3.9q-1.35-.9-.3.3c.6.6 3 1.5 5.4 2.1 10.6 2.3 21.1-5.5 21.1-15.9 0-3.7-3.3-11.2-6-13.8-1.2-1.1-3.7-2.3-5.7-2.7-1.9-.3-4-.8-4.7-1.1s-2.7.6-4.6 1.8m-1.2 9.8c-2.2 3-3.5 4.1-2.2 1.7.9-1.6 3.6-4.7 4.1-4.7.2 0-.6 1.3-1.9 3m20.2 10.1c0 .5-.4.7-1 .4-.5-.3-2.2.6-3.6 2.2l-2.5 2.8 2.2-3.3c2.2-3.1 4.9-4.3 4.9-2.1m-2 3.9c-.6 1.1-1.3 2-1.6 2-.2 0 0-.9.6-2s1.3-2 1.6-2c.2 0 0 .9-.6 2m17-16.5c1.3 1.4 2.6 2.5 2.8 2.5.3 0-.5-1.1-1.8-2.5s-2.6-2.5-2.8-2.5c-.3 0 .5 1.1 1.8 2.5m4.8.2c.7.3 1.6.2 1.9-.1.4-.3-.2-.6-1.3-.5-1.1 0-1.4.3-.6.6"/>
        <path d="M150.6 127.7c-.4.5-3.1.8-5.9.8h-5.1l-.2 3.7c-.2 2-.9 4.9-1.7 6.4-1.4 2.6-1.4 2.5-.9-2.4.3-3.5.1-5.2-.7-5.2-.6 0-1.1 1.3-1.1 2.9 0 9.3-5.3 15.2-16.9 18.7-7.7 2.3-12.5 1.9-16.4-1.6-1.9-1.7-3.7-3.9-4-5-.4-1.7.2-1.4 3.3 1.4 3.8 3.4 7.7 5.3 8.7 4.2.4-.3 0-.6-.9-.6-2.6 0-9.4-5.6-10.8-8.9-.8-2-1.9-3.1-3.3-3.1-1.1 0-3.2-1-4.6-2.2-2.3-2-2.3-1.9.2.8l2.8 3.2-3-.4c-3.4-.4-4 .6-1.6 2.6s1.7 3.3-.7 1.6c-5.2-3.7-5.2.6 0 5.6 5 4.9 9.5 6.9 16.2 7.5 8.3.8 14.7-1 23.9-6.6 9.6-5.8 13.9-6.8 22.7-5 7.7 1.5 11.7.6 12.2-3 .2-1.3-.4-2.9-1.5-3.8-1-.8-1.2-1.1-.5-.8 1 .5 1.3-.2 1-3.1-.2-2.2-.9-4-1.5-4-.7-.1-1.7-.2-2.1-.3-.5 0-1.9-1-3.2-2.1-2.5-2.2-3.3-2.4-4.4-1.3M140.5 142c-.3.5-1.4 1-2.3 1-1.5 0-1.5-.2-.2-1 2-1.3 3.3-1.3 2.5 0m-10.8 27.5c-2.1 2.4-5.8 5.6-8.2 7.1-2.5 1.4-4.5 3.2-4.5 3.9 0 2.3-5.9 7.4-9.4 8.1-1.9.3-4.2.1-5.3-.4-1.3-.7-3.8-.3-9.3 1.5-8.3 2.8-23.4 3.6-28 1.5-2-.9-1.1-1 4.8-.5 4.6.4 7.2.2 7.2-.4s1.8-.9 4.3-.7c2.3.3 7.1-.4 10.7-1.4 6.4-1.7 6.5-1.8 6.8-5.5.2-2 0-3.7-.5-3.7-.4 0-3.7.9-7.3 2.1-6.8 2.1-21.7 4.9-30.7 5.6l-5.3.5v8.6l8.7 1.2c23.2 3.3 45.1-2.6 59.5-15.9 5.1-4.7 11.7-14.5 10.6-15.7-.2-.2-2.1 1.7-4.1 4.1"/>
        <path d="M123.8 169.2c-3.2 1.5-4.8 2.8-5.1 4.4-.6 3.4.4 3 6-2.1 2.6-2.4 4.6-4.4 4.3-4.4-.3.1-2.6 1-5.2 2.1m-11.9 6.5c-.6 1.6-1.2 4.1-1.4 5.7-.2 2-1 3.2-2.5 3.8-3.2 1.2-4.5-.3-3.2-3.9 1-2.8 1-2.8 1.2-.3.1 2.2.4 2 1.9-1.5 1-2.2 1.7-4.1 1.6-4.3-.2-.2-1.9.4-3.8 1.2-2.9 1.2-3.7 2.1-4.3 5.1-1 5.5 2.6 7.1 8.6 4 3.2-1.7 4.9-4.3 6.1-9.2.6-2.8.4-3.3-1.2-3.3-1.2 0-2.4 1.1-3 2.7m16.6 37.3c-.3.5.1 1 1 1s1.3-.5 1-1c-.3-.6-.8-1-1-1s-.7.4-1 1"/>
    </g>
</svg>
