<svg xmlns="http://www.w3.org/2000/svg" width="341.333" height="341.333" version="1.0" viewBox="0 0 256 256">
    <g fill="#e5e5e5">
        <path d="M50 7.8C31.7 20.1 31.5 20.3 28.4 28.3c-1.5 4-4 9.9-5.6 13.2-5 10.7-3.6 24.5 3.8 35.2 4.9 7.1 4.5 11-2.1 21.3-6.3 9.7-13 23.9-15.2 32.1-1.2 4.5-1.7 10.1-1.7 18.9 0 11 .3 13.4 2.7 20.3 3.2 9.3 3.3 12 .7 21.5-1.9 6.7-1.9 7.5-.4 10.3 6.1 12 26.2 23.9 47.6 28.4 18.8 4 34 2.8 54.6-4.1 13.3-4.5 21-5.6 25.9-3.7 1.2.4 5 3.5 8.5 6.8 16.1 15.5 20.4 17.5 37.6 17.5 10.6 0 12.1.2 15.2 2.3 7.2 4.8 13.8 5.9 19.3 3.1 4.8-2.5 20.2-13 24.2-16.5 2.4-2.1 4-4.8 5-8.4 1.8-6.1 2.4-2.9-7.6-43-3.4-13.8-7.2-27.3-8.4-30.1-1.6-3.6-6.4-9.4-17-20.4l-14.7-15.4.6-6c2.5-25.2 2-29.7-4.7-43.1-8-16.1-16.5-25.3-28-30.3-2.6-1.2-9.6-3.3-15.5-4.8-9.5-2.4-11.9-2.6-21-2-12 .7-12.2.6-20.8-7.3-3.3-3.1-8.6-6.9-11.8-8.5-3.1-1.5-7.8-4.6-10.3-6.7C81.9 2.4 76.1 0 68.3 0h-6.8zm21 2.7c1.5 1.6 3.3 2.5 4.6 2.3 1.6-.2 4.3 1.6 9.4 6.5 5.8 5.5 7.6 6.7 10.4 6.7 2.9 0 4.4 1.2 12.2 9.4 8.2 8.7 9 9.3 11.4 8.4 1.4-.6 7.7-1.3 14-1.5 9.7-.5 12.9-.2 20.5 1.7 10.6 2.6 13.4 3.9 19.7 9.2 4.6 3.8 12 13.3 15.1 19.4 4.7 9.1 5.2 26 1.2 39.4-3 10.2-2.9 10-.8 10 2.3 0 13.3 10.9 13.3 13.2 0 1 .5 1.8 1.2 1.8 1.7 0 11.8 10.1 11.8 11.7 0 .7.6 1.3 1.3 1.3s2.6 1.4 4.2 3c2.6 2.7 3.8 6.8 11.2 36.3 4.5 18.2 8.2 33.7 8.3 34.3 0 1.7-25.5 20.4-27.8 20.4-.5 0-4.2-3-8.1-6.6l-7.1-6.6-3.6 2.7c-3.5 2.7-3.9 2.8-13 2.2-8.5-.5-9.8-.8-12.9-3.4-1.8-1.5-3.4-3.4-3.4-4.1-.1-.6-.9-1.2-1.8-1.2-2.3 0-8.3-5.9-8.3-8.2 0-1-.7-1.8-1.7-1.8-1.9-.1-15.3-12.2-15.3-13.8 0-.6-1.2-1.3-2.6-1.6-1.4-.4-5.4-3-9-5.8l-6.5-5.1-6.7 3.1c-12.8 5.7-22.1 7.6-38.2 7.6-13.5 0-15-.2-20.9-2.7-13.1-5.5-19.2-10.6-27.3-22.5-7.5-11.1-9.8-22-7.8-36.1 1.4-9.2 3.1-14.3 8.4-24.1C31 107.4 41 92.1 43.3 90.2c1.4-1.2 1.3-1.7-.7-4.7-1.5-2.2-2.2-4.3-1.9-5.9.4-1.9-.6-3.6-4.3-7.6-2.6-2.8-4.8-6.1-4.9-7.3-.2-1.2-.5-5.8-.9-10.2l-.6-8 4.1-2.8c3.9-2.7 4-2.9 3.8-8.1-.1-2.9.1-5.8.5-6.4C39.7 27.1 66.3 8.1 68.1 8c.3 0 1.6 1.1 2.9 2.5M28 191.4c0 .3-.9.6-1.9.6s-2.2.7-2.5 1.6c-.6 1.5-.8 1.5-2.6-.1-2.5-2.3-2.5-2.6.1-5.9l2-2.6 2.5 2.9c1.3 1.6 2.4 3.2 2.4 3.5m9 5.2c3 2.1 5.7 3.8 5.9 4s-1.6 3.6-3.9 7.6c-2.4 4-4.5 6.7-4.7 6.1-.3-.7.7-3.2 2.2-5.7l2.6-4.5-5.5-3.7c-3.1-2-5.6-3.8-5.6-4 0-1.3 1.4-3.4 2.4-3.4.6 0 3.6 1.6 6.6 3.6m-16-.4c0 .7-.9 2.4-2 3.8-1.4 1.9-2.2 2.2-3.1 1.3-.8-.8-.7-1.7.7-3.7 2-2.7 4.4-3.4 4.4-1.4m101.5 3.8c0 2-.6 2.6-2.8 2.8q-2.7.3-3.3-1.2c-1.1-2.8.4-4.8 3.3-4.4 2.2.2 2.8.8 2.8 2.8M29 200c1.3.8 1.3 1.4-.3 4.2l-1.8 3.2 2.5 1.9c1.4 1 2.6 2.3 2.6 2.8 0 1-3.8-.9-8-4.1l-2.3-1.7 2.2-3.7c2.4-3.9 2.8-4.1 5.1-2.6m83.6 5.1c-.2 3.6-1.6 5.8-3.8 5.9-1.4 0-.8-5.5.8-7.8 2.3-3.3 3.2-2.7 3 1.9M50 210.5c0 2.4-.7 3.9-2.6 5.4-4.5 3.5-11.4 2.2-8.3-1.5 1.2-1.4 1.4-1.4 2.5.1 2.5 3.4 7.4-1.9 5.9-6.5-.4-1.1-1.1-1.8-1.6-1.5-1.8 1.2-2.9-.6-1.8-2.8 1.2-2.1 1.2-2.1 3.5.7 1.5 1.7 2.4 4 2.4 6.1m55.5-5.6c.3.5.1 1.2-.5 1.6-.5.3-1 1.9-1 3.6 0 1.6-.4 2.9-.9 2.9s-1.6.2-2.3.5c-1 .4-1.8-.6-2.6-3-1-3.6-1-3.7 2.1-5 3.9-1.7 4.4-1.8 5.2-.6M58.4 207c3 1.1 3.4 2.6.8 3.2-2.3.6-4.5 7.8-3.6 11.4.6 2.4.5 2.6-1.2 2-1-.5-2.7-1.1-3.6-1.3-2.3-.7-2.3-1.2.4-9.5 2.3-7 2.9-7.5 7.2-5.8m33.4 3.6c.2 1.7-.4 2.3-2.8 2.7-1.7.4-3.2 1.2-3.5 1.9-2.1 6-2.7 7-3.5 6.2-.5-.5-1-3.4-1.2-6.4l-.3-5.5 4-.6c5.8-.9 7-.6 7.3 1.7m4.8 5.1c.4 3.8.8 7.2.9 7.8 0 .9-14.5 3.7-15.4 3-1.2-1.1 1.7-2.3 7-2.9l6.1-.7-.7-7.6c-.9-9.5.9-9.2 2.1.4m-19.9-3.9c-1.9 2.1-2.4 12.2-.7 12.2.6 0 1 .7 1 1.5 0 1.3-.7 1.5-3.7.9-2.1-.4-3.9-.7-4-.8s.1-2.7.4-5.8c.6-6.2 3-9.8 6.5-9.8 2 0 2 .1.5 1.8m38.3.2c0 .6 1.2 1.5 2.7 2.1 3.8 1.4 1.5 3.3-3 2.5-4.6-.9-6.5-3-4-4.5 2.3-1.3 4.3-1.4 4.3-.1m-9.3 3.9c.3 1.1 1.3 2.1 2.4 2.4 2.6.7 2.4 2.4-.5 3.1-1.3.3-3.1.8-3.9 1.2-1 .3-1.8-.5-2.6-2.7-1.5-4.2-1.4-4.7.7-5.2 3.1-.8 3.4-.7 3.9 1.2"/>
        <path d="M56 20.2c-14.9 10.3-15 10.4-15 15 0 2.1.3 3.8.6 3.8.8 0 20.4-13.5 24.3-16.8 3.1-2.6 3.3-3.1 2.5-6.4l-.9-3.5zM70 17c0 .5.7 1 1.5 1s1.5-.5 1.5-1c0-.6-.7-1-1.5-1s-1.5.4-1.5 1m7.2 2.5c0 2.2.3 4.9.8 6l.9 2v-2c0-1.1-.4-3.8-.8-6l-.9-4zm3.2 5.4c.6 5.4 1.2 7 3.4 9 1.5 1.4 5 4.6 7.9 7.3 6 5.6 9.7 6.4 8.7 2C98 32.5 96.9 30 94.6 30c-1.4 0-4.7-2.3-8.6-5.9l-6.3-5.9z"/>
        <path d="M70.3 21.4c-1.5 1.3-8.6 6.3-15.8 11.2S40 42.7 38.2 44l-3.4 2.5.7 7c.4 3.8.8 7.1 1 7.3.1.2 8.9-5.4 19.4-12.4C66.5 41.5 75.3 36 75.5 36.2c.3.2-8.5 6.4-19.5 13.8L36.1 63.3l2.4 2.9c1.4 1.6 2.2 3.5 1.9 4.1-.5.8-.4.9.4.2.6-.6 1.2-2.1 1.4-3.5.2-1.9 2.9-4.1 12-10 6.4-4.1 14.8-9.6 18.6-12.3 3.8-2.6 7.4-4.7 7.9-4.7s3.4 2.9 6.4 6.4c3 3.6 6 6.5 6.7 6.5.6.1 1.2.5 1.2 1s-.6 1.1-1.2 1.4c-.7.2-1 .7-.6 1.1.7.9 4.9-1.1 6-2.8.4-.6 1.3-1.1 2-1.2 3.7-.3 3.8-.4 2.1-2.4-2-2.3-6.5-2.8-5.7-.6.3.8.1 1.7-.5 2.1-.7.3-1.1-.2-1.1-1.4s-.7-2.1-1.6-2.1c-.8 0-2.2-.6-3-1.4-.7-.8-2.6-2.4-4-3.5s-2.4-2.5-2.2-3c.1-.6 2.2.7 4.6 2.9s4.6 4 5 4c.7 0-5.8-6.4-11.3-11l-3-2.5 2.4 2.7c2.4 2.8 2.4 2.8.3 2.8-1.2 0-2.2-.6-2.2-1.4 0-.7-.6-1.9-1.4-2.5-.7-.6-1.9-4.5-2.7-8.6-.8-4.5-1.8-7.5-2.5-7.5s-2.5 1.1-4.1 2.4"/>
        <path d="M79.1 31.6c0 1.1.3 1.4.6.6.3-.7.2-1.6-.1-1.9-.3-.4-.6.2-.5 1.3m20.9 2.7c0 2.4 2.1 7.7 3.1 7.7.5 0 .7 1 .4 2.3-.8 2.9 2.6 6.3 5.2 5.2 1-.4 2.6-.9 3.5-1 2.5-.2 3.5-1.5 1.4-1.5q-1.8 0-1.2-1.5c.4-1-.1-1.5-1.4-1.5-1.4 0-2-.7-2-2.1 0-1.6-.4-1.9-2.1-1.4-1.6.5-2 .3-1.7-1.2.2-1.2-.3-1.8-1.4-1.7s-1.8-.5-1.8-1.7c0-1-.4-2.1-1-2.4-.5-.3-1 0-1 .8m8 11.6c0 .6-.4 1.3-1 1.6-.5.3-1-.1-1-.9 0-.9.5-1.6 1-1.6.6 0 1 .4 1 .9m-32-1.4c-.7.8-8.3 6-17 11.5L43.3 66l.7 3.8c.5 2 1.7 8.6 2.9 14.6 1.1 6 2.3 11.1 2.5 11.4.3.2.8-.8 1.2-2.3.4-1.8-.3-7-2-14.3-1.5-6.3-2.5-11.7-2.2-12s.6-.3.6 0 1.3 5.6 3 11.9c2.8 10.9 3 14.8.7 17.6-.9 1.2.1 2.3 19.5 20.2 3.4 3.1 5.3 4.1 6.5 3.6 1.5-.6 1.1-1.2-2.7-4.3-9.1-7.5-10.9-9.6-11.2-13-.3-3.3 0-3.5 11.7-10.7 6.6-4.1 12.3-7.5 12.6-7.5.4 0 4.5 3.6 9.3 8 4.7 4.4 8.9 8 9.3 8 1.5-.1 4.5-2.9 4-3.7-.3-.5-3.7-4.2-7.5-8.3s-8.2-9-9.9-10.9l-2.9-3.4-13 7.8c-7.1 4.3-14.9 9.2-17.4 10.9-6.2 4.4-8.1 5.3-4.5 2.1 1.7-1.4 8-5.8 14-9.6 6.1-3.9 13-8.5 15.5-10.3l4.6-3.2-2.8-9.4c-1.6-5.2-3.6-11.9-4.4-14.8-1.6-5.3-3.2-6.4-5.4-3.7M79.5 59c2.4 9.8 3 11 5.4 11.9l2.6.9-2.7.1c-3.4.1-4.1-1.1-6.6-11.9-1.1-4.7-2.4-9.3-2.7-10.3-.4-.9-.3-1.7.3-1.7.5 0 2.2 4.9 3.7 11"/>
        <path d="M84.1 49.2c.5 1.8.9 3.4.9 3.5 0 .2.7.3 1.5.3 1.7 0 2 1.1.5 2.6-.6.6-.4 2 .6 3.9.8 1.7 1.5 3.1 1.5 3.2-.6 2.2.4 5.7 2.1 7.3 1.2 1.1 1.6 2 1 2-2.7 0-.8 3.2 6 10.2 3.9 4 7.6 7.3 8.2 7.3s1 .8.8 1.8c-.2 1.1.4 1.7 1.8 1.7 3.6 0 2.1-2.7-5-9.2-3.8-3.5-7-6.9-7-7.6 0-.6-.7-1.2-1.5-1.2-1.8 0-2-1.7-.4-2.2.9-.3.8-1-.1-2.8-.7-1.3-1.4-4.1-1.5-6.1-.4-4.3-1.2-6.2-2.5-5.4-.5.3-1.1.1-1.5-.5-.3-.5-.1-1 .4-1 .6 0 1.1-.7 1.1-1.5 0-2.3-3-6.5-4.6-6.5-.8 0-1.4-.7-1.4-1.5s-.4-1.5-.9-1.5c-.6 0-.6 1.2 0 3.2M92 63.9c0 .6-.4 1.3-1 1.6-.5.3-1-.1-1-.9 0-.9.5-1.6 1-1.6.6 0 1 .4 1 .9"/>
        <path d="M125 47.4c-8.9 1.9-14.7 3.5-16.8 4.5-.9.5-3.3 1.6-5.2 2.5-6.8 3.2-8.5 4.6-8.2 6.3.1 1 1 4.8 1.8 8.5 1.6 6.7 2.9 8.3 4.1 5.2.3-.8 1.2-1.3 1.9-1 1.6.6 8.4-2 8.4-3.3 0-.4 1.2-.8 2.8-.9 3.9 0 14.3-2.6 14.2-3.5 0-.4.3-.7.8-.6.4.1.6.5.5 1-.3.8 4.8 1.4 9 1 .9-.1 1.7.2 1.7.7 0 .6-4.4 1.2-9.7 1.4-9.6.4-10 .5-17 4.8-4 2.5-7.3 5-7.3 5.7 0 1.5 4.7 5.2 7.6 5.9 1.3.3 5.2-.4 8.6-1.5 9.8-3.4 16.2-3.7 23.2-1.2 3.3 1.1 7 3.1 8.3 4.3l2.3 2.2-.6-3.5c-1.3-7.5-2.9-10.6-7.7-15.2-5.2-4.9-8.4-6.4-11.4-5.3-.9.4-2 .1-2.4-.6-1.4-2.2-9.6-1.6-11.3.7-.9 1.1-1.6 1.4-1.6.7 0-1.4-5-1.7-5-.2 0 .5-1.3.7-2.9.4-1.6-.4-3.2-.1-3.5.5-.4.6-1.6 1.1-2.6 1.1-1.3 0-1.7.5-1.4 1.5.8 1.9-.3 1.9-2.1.1-1.1-1.1-.8-1.6 2.2-3 5.7-2.7 23.1-5.9 28.3-5.1 9.7 1.5 16.4 6.4 20.6 15.3 2.2 4.6 2.6 6.9 2.6 13.1-.1 6.3-.6 8.5-3.6 14.8-13.1 27.6-49.5 54.5-81.5 60.3-16.3 2.9-30.4-6.4-33.3-21.8-1.4-7.4-.1-14.2 4.2-23 2.8-5.5 9-12.8 9-10.5 0 .6-.7 1.6-1.4 2.3-2.9 2.3-8.1 11.3-6.8 11.8.7.2 1.2.8 1.2 1.4s-.7.8-1.5.4c-1.1-.4-1.5.1-1.5 1.9 0 1.3-.4 2.7-1 3-1.6 1-1.2 4.5.6 4.5.8 0 1.2.5.9 1-.4.6-1.1.8-1.6.5-.5-.4-.9.5-.9 1.9 0 1.6.6 2.6 1.5 2.6 1.7 0 1.9 1.2.5 2.6-1.6 1.6 1.6 8.5 3.5 7.8 1-.4 1.5 0 1.5 1.5s.5 2.1 1.7 1.9 1.7.3 1.5 1.4c-.2 1.2.4 1.8 1.7 1.8 1.1 0 2.1.5 2.3 1.1s1.8 1.7 3.4 2.4l3.1 1.3.5-10.3c.6-10.6 2.1-15.7 7-22.9 2.9-4.3 3-8.1.2-8.1-1.2 0-1.9-.7-1.9-2 0-1.2-.6-1.9-1.4-1.7s-1.8-.3-2.3-1c-.6-1-2.2.1-5.9 4.2-2.8 3-5.7 6.8-6.6 8.4-2.1 4.1-2.8 10.7-1.1 11.8 1 .8 1 1.1.1 1.5-1.5.5-1.8 5.3-.4 5.3.5 0 .9 1.1.8 2.5 0 1.3-.3 2.2-.8 1.9s-.9-1.2-.9-2-.9-2.2-1.9-3.1c-1.5-1.3-1.7-2-.8-3.4.8-1.3.7-2.1-.3-3.4-1-1.2-1-1.9-.2-2.7 1.8-1.8 1.4-4.6-.6-5.1-1.4-.4-1.4-.6.6-1.2 1.2-.4 2.2-1.4 2.2-2.2 0-2 8.8-15.3 10.6-16 1.7-.6 1.9-2.6.2-2.1-.7.3-1.7-.4-2.3-1.5-1.9-3.7-4.2-4.4-6.8-1.9-1.5 1.4-3.6 2.2-6 2.2-4.2 0-4.3.2-2.1 3.5 1.4 2.2 1.4 2.6-1 6.3-1.7 2.7-3.7 4.4-6.2 5.2l-3.7 1.3 2.7 1.4c2 1 2.6 1.9 2.1 3.1-3.1 7.3-2.9 17.6.4 24.1 5.7 11 13.1 15.1 29.1 16l10.5.6-.2 3.9-.3 3.8 4.7-.7c2.5-.4 7.3-1.6 10.7-2.8 5.9-2.1 6.1-2.3 6.6-6.2.5-3.8.8-4.1 10-9.2 15.1-8.5 13.9-8.1 16-5.3l1.8 2.4 3.9-2.6c7-4.6 16.3-12.9 16.3-14.6 0-.8-.7-2.3-1.6-3.3-1.5-1.7-1.4-2.1 2.3-6.6 9.5-11.5 17.6-26.1 19.9-35.8 3.6-15.5-2.4-30.4-14.3-35.5-3.2-1.4-4.3-2.5-4.8-4.9-.8-3.8-1.4-3.9-4.5-.1-2 2.4-3.3 3-6.3 3-2.3 0-3.6-.4-3.2-1 .3-.6.1-1-.4-1-.6 0-1.1-.9-1.1-2 0-2.7-1-2.5-3.5.5-1.5 1.9-3.9 2.9-9.5 4-4.1.9-9.9 2.7-12.8 4s-5 1.9-4.6 1.3c1-1.6 10.9-5.7 17.7-7.3 3.8-.9 7-2.4 8.8-4.1l2.9-2.7 2.4 2.6c3 3.2 5.6 3.4 8.2.6 3.8-4.2 5.2-4.3 7.1-.4 1 2.1 3.4 4.5 5.9 6 14.5 8.5 18.9 29.2 10.4 49-2.2 5.2-13 21.7-16.9 25.8-2.4 2.6-2.5 2.9-.8 3.8.9.6 1.7 2.2 1.7 3.6 0 2.9-4.3 7.3-14.1 14.4-7.9 5.8-9.4 6.3-11.7 3.9-1.9-2-2-2-11.8 3.1-5.4 2.9-10 5.3-10 5.3-.1.1-.4 1.7-.7 3.7-.2 2-.8 4.2-1.1 4.8-.4.6-5.1 2.4-10.5 4.1-13.3 4.1-15.7 3.5-15.1-3.8.1-2.1-.2-2.2-7.2-2.2-17.9 0-29.7-8.1-33.5-22.9-1.5-5.6-1.1-14.8.8-18.2.6-1.2.2-1.9-1.6-2.7-3.4-1.6-3.1-2.9 1-4.9 1.9-.9 4.4-3.2 5.5-5 1.8-3.1 1.8-3.4.2-6.3-1.5-2.7-1.5-3.2-.2-4 .8-.5 2.7-1 4.3-1.1 4.3-.2 4.4-.3 6.8-3.2 1.4-1.9 1.8-3.1 1.1-3.6-.6-.3-1.3-1.8-1.7-3.3-.4-1.6-1.2-2.5-2-2.2-1.8.7-12.5 16.5-16.3 23.9C24 130 22 137.4 22 147c0 7.7.4 9.4 3 14.6 3.5 6.9 3.5 7.1 1.4 5.3-3.9-3.3 4.5 9.1 9.2 13.6 7.1 6.6 7.6 7 11.2 8.9 8.2 4.2 30.4 7.3 31.5 4.3.4-.9.7-.9 1.8 0 1.6 1.6 4.9 1.7 4.9.2 0-.6.9-.8 2.1-.4s3.1.3 4.3-.3c1.1-.5 4-1.5 6.4-2.1 2.3-.7 4.2-1.6 4.2-2 0-.5 1.2-.9 2.6-.9s3.9-.9 5.4-2.1c1.6-1.1 3.4-2.1 4-2.1.5 0 1-.7 1-1.5 0-1.6 1.6-2.1 2.2-.6.5 1.4 10.8-5.9 10.8-7.6q0-1.35 1.8-.9c2.2.7 11.2-4.9 11.2-7 0-.8.7-1.4 1.5-1.4s1.5-.7 1.5-1.5.7-1.5 1.6-1.5c2.3 0 9.3-5.1 14.5-10.6 7.7-8.3 17-21.6 16.3-23.6-.3-1.2 0-1.8 1-1.8.9 0 1.6-.9 1.6-2s.4-2 .9-2c1.7 0 3.4-6.9 2.2-8.4-.9-1-.7-1.5.7-1.8 2.2-.6 4.1-8 2.3-8.6-1.6-.5-1.4-2.2.3-2.2 1.6 0 2.6-4.8 2-10.5-.2-2.2-.5-4.7-.5-5.5-.3-3.7-2.3-9-3.5-9-.8 0-1.1-.6-.8-1.5.5-1.2-5-11.5-6.1-11.5-.6 0 2.3 7.2 3.1 7.9.5.3 1 1.9 1 3.6.1 1.6.4 6.7.8 11.3.4 5.6.3 8.1-.4 7.7-.5-.3-1-2.1-1-3.8 0-5.6-2.8-18.3-5.3-23.9-2.8-6.4-7.7-12.3-12.1-14.5-8.5-4.4-26.4-6.2-37.6-3.9m41.1 10.8c1.6 2.9.2 2.1-2.2-1.5-1.7-2.3-1.8-2.8-.6-1.8 1 .8 2.3 2.3 2.8 3.3M185 82c0 .5-.4 1-1 1-.5 0-1-.5-1-1 0-.6.5-1 1-1 .6 0 1 .4 1 1m.5 7c-.3.5-1 1-1.6 1-.5 0-.9-.5-.9-1 0-.6.7-1 1.6-1 .8 0 1.2.4.9 1m0 5.9c.3.5.1 1.2-.5 1.6-.5.3-1-.1-1-.9 0-1.8.6-2.1 1.5-.7m-2.5 3.9c.3.2-.1.7-.7.9-1.5.5-1.8 5.3-.3 5.3.6 0 1 .4 1 1 0 .5-.6 1-1.3 1s-1.8 1.7-2.3 3.9c-.9 3.1-.8 4 .5 5 1.4 1 1.3 1.1-.6.7-1.9-.3-2.3 0-2.3 1.9 0 1.3-.7 2.5-1.5 2.9-.8.3-1.5 1.2-1.5 2.1 0 2-4.9 2-5.7-.1-.3-.8 1.3-6.2 3.6-11.9 2.2-5.7 4.1-10.8 4.1-11.2 0-2.7 4.8-3.7 7-1.5m-136 2.1c0 .6-.4 1.3-1 1.6-.5.3-1-.1-1-.9 0-.9.5-1.6 1-1.6.6 0 1 .4 1 .9m7.4 14.2c-.3.5-1 .7-1.5.3-.5-.3-.7-1-.3-1.5.3-.5 1-.7 1.5-.3.5.3.7 1 .3 1.5M51 118c0 .5-.4 1-1 1-.5 0-1-.5-1-1 0-.6.5-1 1-1 .6 0 1 .4 1 1m11 3c0 .5-.4 1-1 1-.5 0-1-.5-1-1 0-.6.5-1 1-1 .6 0 1 .4 1 1m-14 1c0 .5-.4 1-1 1-.5 0-1-.5-1-1 0-.6.5-1 1-1 .6 0 1 .4 1 1m10.4 3.1c-.3.5-1 .7-1.5.3-.5-.3-.7-1-.3-1.5.3-.5 1-.7 1.5-.3.5.3.7 1 .3 1.5m7.1-1.1c-.3.5-1 1-1.6 1-.5 0-.9-.5-.9-1 0-.6.7-1 1.6-1 .8 0 1.2.4.9 1m-9.5 4c0 .5-.7 1-1.5 1s-1.5-.5-1.5-1c0-.6.7-1 1.5-1s1.5.4 1.5 1m109.8-.4c3 .8 2.9 4-.4 8.7-2.9 4.3-4.8 4.4-7.2.5-1.5-2.5-1.4-2.8 1.2-6.2 2.9-3.9 2.9-3.9 6.4-3m9.2 2.4c0 .5-.7 1-1.6 1-.8 0-1.2-.5-.9-1 .3-.6 1-1 1.6-1 .5 0 .9.4.9 1m-122.5 2c-.3.5-1 1-1.6 1-.5 0-.9-.5-.9-1 0-.6.7-1 1.6-1 .8 0 1.2.4.9 1m119 2c-.3.5-1 1-1.6 1-.5 0-.9-.5-.9-1 0-.6.7-1 1.6-1 .8 0 1.2.4.9 1m-3.5 3.6c0 .8-.5 1.2-1 .9-.6-.4-.8-1.1-.5-1.6.9-1.4 1.5-1.1 1.5.7m-115.5.3c.3.5.1 1.2-.5 1.6-.5.3-1-.1-1-.9 0-1.8.6-2.1 1.5-.7m105.5 3.2c0 .6-1.3 2.2-3 3.6-1.6 1.3-3 3.1-3 3.9s-.9 1.4-2 1.4c-1.4 0-2 .6-1.8 1.7.2 1.2-.3 1.7-1.4 1.5-.9-.1-1.9.2-2.3.8-.3.5-.1 1 .4 1 .6 0 1.1.5 1.1 1.1s-.7.8-1.6.5c-1.5-.6-10.1 4.6-11.7 7.1-.4.7-1.5 1.3-2.4 1.3s-1.3.6-.9 1.5c.3.9 0 1.5-.8 1.5s-2.3.3-3.3.6c-2.7.9 3-4.3 10.7-9.8 3.6-2.5 9.7-7.7 13.5-11.5 7.2-7.1 8.5-8.1 8.5-6.2m7-.1c0 .5-.4 1-1 1-.5 0-1-.5-1-1 0-.6.5-1 1-1 .6 0 1 .4 1 1m-3 4c0 .5-.4 1-1 1-.5 0-1-.5-1-1 0-.6.5-1 1-1 .6 0 1 .4 1 1m-3 2.9c0 .6-.4 1.3-1 1.6-.5.3-1-.1-1-.9 0-.9.5-1.6 1-1.6.6 0 1 .4 1 .9m-3 4.1c0 .5-.4 1-1 1-.5 0-1-.5-1-1 0-.6.5-1 1-1 .6 0 1 .4 1 1m-3.6 4.1c-.3.5-1 .7-1.5.3-.5-.3-.7-1-.3-1.5.3-.5 1-.7 1.5-.3.5.3.7 1 .3 1.5m-10 4c-.3.5-1 .7-1.5.3-.5-.3-.7-1-.3-1.5.3-.5 1-.7 1.5-.3.5.3.7 1 .3 1.5m6.6-1.1c0 .5-.4 1-1 1-.5 0-1-.5-1-1 0-.6.5-1 1-1 .6 0 1 .4 1 1m-9.5 4c.3.5-.1 1-.9 1-.9 0-1.6-.5-1.6-1 0-.6.4-1 .9-1 .6 0 1.3.4 1.6 1m-3.5 4c0 .5-.4 1-1 1-.5 0-1-.5-1-1 0-.6.5-1 1-1 .6 0 1 .4 1 1m-96.5 7c7.2 4.8 9.2 7.8 6.5 9.5-2.3 1.4-16-9.7-16-13 0-2.4 1.6-1.8 9.5 3.5m80.9-2.6c2.9 2.6 3.4 4.6 1.1 4.6-.8 0-1.5.7-1.5 1.6 0 1.1-.5 1.4-1.6 1-.9-.4-2.2-.1-3 .5-3.1 2.5-9.1-2.9-6.2-5.7 1.4-1.4 6.8-4.4 8-4.4.4 0 1.8 1.1 3.2 2.4m12.6-.8c0 .8-.4 1.2-1 .9-.5-.3-1-1-1-1.6 0-.5.5-.9 1-.9.6 0 1 .7 1 1.6m-7 .4c0 .5-.5 1-1.1 1-.5 0-.7-.5-.4-1 .3-.6.8-1 1.1-1 .2 0 .4.4.4 1m-19.5 8c-.3.5-1.3 1-2.2 1s-1.3.6-1 1.5c.8 1.8-1.3 3.2-2.3 1.6-.5-.9-1.6-.8-4.3.5-2 1-3.4 2.1-3.1 2.5.2.4-.1 1.1-.7 1.5-.6.3-1.5 0-2-.7-.7-1.1-1.2-1.2-2.9-.1-1.1.7-3.1 1-4.5.6-1.3-.3-2.9-.3-3.6.2-2 1.2-8.3 1-10.9-.4-2.4-1.3-2.3-1.3 1.5-.8 5.3.7 16.8-.8 17.3-2.2.2-.7 1.3-1 2.5-.7 1.2.2 4.9-.8 8.2-2.4 6.3-3.1 9-3.8 8-2.1m-45 2.6c3.3 2.2 3.1 4.5-.4 6.6-2.5 1.4-3 1.4-3.5.2-.3-.8-1.1-1.4-1.8-1.4-1.7-.1-5.8-3.5-5.8-4.8 0-2.4 8.2-2.8 11.5-.6m48.5.4c0 .5-.4 1-1 1-.5 0-1-.5-1-1 0-.6.5-1 1-1 .6 0 1 .4 1 1m-61 4c0 .5-.4 1-1 1-.5 0-1-.5-1-1 0-.6.5-1 1-1 .6 0 1 .4 1 1m51 0c0 .5-.4 1-1 1-.5 0-1-.5-1-1 0-.6.5-1 1-1 .6 0 1 .4 1 1m7 0c0 .5-.4 1-1 1-.5 0-1-.5-1-1 0-.6.5-1 1-1 .6 0 1 .4 1 1m-40.6 3.1c-.3.5-1 .7-1.5.3-.5-.3-.7-1-.3-1.5.3-.5 1-.7 1.5-.3.5.3.7 1 .3 1.5M53 189c0 .5-.4 1-1 1-.5 0-1-.5-1-1 0-.6.5-1 1-1 .6 0 1 .4 1 1m37 1c0 .5-.4 1-1 1-.5 0-1-.5-1-1 0-.6.5-1 1-1 .6 0 1 .4 1 1m7 0c0 .5-.4 1-1 1-.5 0-1-.5-1-1 0-.6.5-1 1-1 .6 0 1 .4 1 1m-20 1c0 .5-.4 1-1 1-.5 0-1-.5-1-1 0-.6.5-1 1-1 .6 0 1 .4 1 1m7-.6c0 1.1-1.9 1.5-2.5.6-.3-.5.1-1 .9-1 .9 0 1.6.2 1.6.4M63 192c0 .5-.2 1-.4 1-.3 0-.8-.5-1.1-1-.3-.6-.1-1 .4-1 .6 0 1.1.4 1.1 1m7 0c0 .5-.4 1-1 1-.5 0-1-.5-1-1 0-.6.5-1 1-1 .6 0 1 .4 1 1"/>
        <path d="M177 103.7c-2.4 9.4-4.3 14.8-5.6 16.4-1.8 2-1.8 4 0 3.3 3.5-1.3 10.8-24.4 7.7-24.4-.4 0-1.4 2.1-2.1 4.7m-14.2 27.8c.2 1.4-.1 3.2-.8 4-.7.9-1 1.8-.8 2.1.8.7 4.8-5.1 4.8-7 0-.9-.8-1.6-1.9-1.6-1.4 0-1.7.6-1.3 2.5"/>
        <path d="M160.1 132.4c-.8.9-1.1 1.9-.7 2.3.9.9 2.9-1.3 2.4-2.7-.2-.8-.8-.7-1.7.4M32 171.4c0 1.3 5.6 6.9 8.2 8.2 3.1 1.6 6.2 1.9 5.3.4-.3-.6-1.3-1-2.2-1-.8 0-3.7-1.8-6.4-4.1-2.7-2.2-4.9-3.8-4.9-3.5m83.3.3c-.7.2-1.3.9-1.3 1.5 0 1.2 4.1.6 4.1-.7.1-1.2-1.1-1.5-2.8-.8"/>
        <path d="M111 174c-1.1.7-1.1 1.1-.1 2.4 1.8 2.2 4.4 2 7.2-.5 2.3-1.9 2.3-2 .2-1-2.8 1.4-2.9 1.4-4.6-.3-.8-.9-1.9-1.1-2.7-.6m-58 9c0 1.3 4.8 3.2 6.9 2.7 1.3-.3 1.2-.5-.4-1.1-1.1-.4-2.8-1.2-3.7-1.7-2.3-1.2-2.8-1.1-2.8.1M33.1 53.2c0 3.2.2 5.8.7 5.8.4 0 .6-1.9.4-4.3-.5-7-1-7.6-1.1-1.5M35 65.9c0 .5.7 1.2 1.6 1.5 1.4.5 1.5.4.4-.9-1.4-1.7-2-1.9-2-.6m101.7 22.4c2.8 3.6 13.7 14.7 14.4 14.7s2.9-4.6 2.9-6.1c0-1.6-7.7-8.8-10.5-9.9-1.5-.6-4-1-5.6-1-3 0-3 0-1.2 2.3m4.3-.3c0 .5-.4 1-1 1-.5 0-1-.5-1-1 0-.6.5-1 1-1 .6 0 1 .4 1 1m3.5 2.9c.3.5.1 1.2-.5 1.6-.5.3-1-.1-1-.9 0-1.8.6-2.1 1.5-.7m3.9 4.2c-.3.5-1 .7-1.5.3-.5-.3-.7-1-.3-1.5.3-.5 1-.7 1.5-.3.5.3.7 1 .3 1.5M152 98c0 .5-.4 1-1 1-.5 0-1-.5-1-1 0-.6.5-1 1-1 .6 0 1 .4 1 1m-76.7-4.2c-11 6.8-12.1 7.8-10.6 9.3.8.8 2.4.3 6-1.7C80 96 87 90.9 87 89.5c0-2.4-2-1.7-11.7 4.3M89 90.7c1.2 2.9 8.6 11.1 13.3 14.4 2.3 1.8 2.7 1.8 2.7.4 0-1.8-7.5-10.2-13.2-14.7l-3.8-3zm38.4 1.4c-1.6 1.7-1.6 2.2-.4 3 1.2.7 1.3 1.1.2 1.8-.8.4-1.3 1.1-1.3 1.5.3 1.9-.2 2.6-3.9 5.1-3 2.1-4 3.5-4 5.5 0 2.1-1.2 3.5-6 7-3.3 2.4-6 4.7-6 5.2 0 .4-.5.8-1.2.8-1.8 0-9.8 4.1-9.8 5 0 .4.7 1.3 1.5 2 1.2 1 1.5.9 1.5-.4 0-1 .5-1.4 1-1.1.8.5.7 1.1-.1 2.1-.9 1.1-.8 1.9.7 3.5 1.3 1.5 1.4 1.8.3 1.4-.8-.3-3.5-2.8-5.9-5.6-2.3-2.7-4.5-4.7-4.8-4.5-.3.3 3.6 4.9 8.7 10.1 5.1 5.4 9.1 10.4 9.1 11.5s.3 2 .6 2 4-2.4 8.2-5.2c7.6-5.2 22.8-19.7 27.3-26l2.4-3.2-4 2.3c-2.2 1.4-8.9 5.8-15 9.8-13.2 8.9-9.7 5.7 7.7-6.9 7-5.1 12.7-9.9 12.8-10.6 0-.6.5-1.2 1-1.2 2.1 0 .9-2.3-3.6-6.8-2.7-2.7-4-3.6-3.2-2.2 1.6 2.6 1.4 5-.4 5-.6 0-.7-.7-.4-1.6.9-2.3-.3-3.7-1.9-2.4-.9.8-1.5.8-2 0-.3-.5.1-1 1-1 1.2 0 .8-1-1.6-4-3.6-4.5-5.7-5-8.5-1.9m3.6.5c0 .8-.5 1.2-1 .9-.6-.4-.8-1.1-.5-1.6.9-1.4 1.5-1.1 1.5.7m3.5 2.3c.3.5.1 1.2-.5 1.6-.5.3-1-.1-1-.9 0-1.8.6-2.1 1.5-.7M132 99c0 .5-.4 1-1 1-.5 0-1-.5-1-1 0-.6.5-1 1-1 .6 0 1 .4 1 1m3 3c0 .5-.4 1-1 1-.5 0-1-.5-1-1 0-.6.5-1 1-1 .6 0 1 .4 1 1m-6 .4c0 1.1-1.9 1.5-2.5.6-.3-.5.1-1 .9-1 .9 0 1.6.2 1.6.4m10 2.5c0 .6-.4 1.3-1 1.6-.5.3-1-.1-1-.9 0-.9.5-1.6 1-1.6.6 0 1 .4 1 .9m7 .1c0 .5-.4 1-1 1-.5 0-1-.5-1-1 0-.6.5-1 1-1 .6 0 1 .4 1 1m-20.6 2.1c-.3.5-1 .7-1.5.3-.5-.3-.7-1-.3-1.5.3-.5 1-.7 1.5-.3.5.3.7 1 .3 1.5m6.6-1.1c0 .5-.4 1-1 1-.5 0-1-.5-1-1 0-.6.5-1 1-1 .6 0 1 .4 1 1m-3 3c0 .5-.5 1-1.1 1-.5 0-.7-.5-.4-1 .3-.6.8-1 1.1-1 .2 0 .4.4.4 1m7 0c0 .5-.4 1-1 1-.5 0-1-.5-1-1 0-.6.5-1 1-1 .6 0 1 .4 1 1m7-.6c0 1.1-1.9 1.5-2.5.6-.3-.5.1-1 .9-1 .9 0 1.6.2 1.6.4m-21 1.6c0 .5-.4 1-1 1-.5 0-1-.5-1-1 0-.6.5-1 1-1 .6 0 1 .4 1 1m17.5 2c.3.5-.1 1-.9 1-.9 0-1.6-.5-1.6-1 0-.6.4-1 .9-1 .6 0 1.3.4 1.6 1m-13.5 1c0 .5-.4 1-1 1-.5 0-1-.5-1-1 0-.6.5-1 1-1 .6 0 1 .4 1 1m7-.6c0 1.1-1.9 1.5-2.5.6-.3-.5.1-1 .9-1 .9 0 1.6.2 1.6.4m-14 1.6c0 .5-.4 1-1 1-.5 0-1-.5-1-1 0-.6.5-1 1-1 .6 0 1 .4 1 1m10.5 2c.3.5-.1 1-1 1s-1.3-.5-1-1c.3-.6.8-1 1-1s.7.4 1 1m-13.5 1c0 .5-.4 1-1 1-.5 0-1-.5-1-1 0-.6.5-1 1-1 .6 0 1 .4 1 1m7-.6c0 .3-.4.8-1 1.1-.5.3-1 .1-1-.4 0-.6.5-1.1 1-1.1.6 0 1 .2 1 .4m-3.6 4.7c-.3.5-1 .7-1.5.3-.5-.3-.7-1-.3-1.5.3-.5 1-.7 1.5-.3.5.3.7 1 .3 1.5m-6.4-.1c0 .5-.4 1-1 1-.5 0-1-.5-1-1 0-.6.5-1 1-1 .6 0 1 .4 1 1m-3.6 4.1c-.3.5-1 .7-1.5.3-.5-.3-.7-1-.3-1.5.3-.5 1-.7 1.5-.3.5.3.7 1 .3 1.5m6.6-1.1c0 .5-.4 1-1 1-.5 0-1-.5-1-1 0-.6.5-1 1-1 .6 0 1 .4 1 1m-13 1c0 .5-.4 1-1 1-.5 0-1-.5-1-1 0-.6.5-1 1-1 .6 0 1 .4 1 1M77 99.5c-5.8 3.5-10.5 6.8-10.5 7.3s2.9 3.3 6.5 6.2 7.3 6 8.4 6.9c1.7 1.5 1.8 1.4 1.5-.3-.5-2.7 15.7-12.2 17.8-10.5.7.7 1.7.9 2 .5.4-.4-2.9-4.2-7.2-8.6l-8-7.8zm20 7.5c0 .5-.4 1-1 1-.5 0-1-.5-1-1 0-.6.5-1 1-1 .6 0 1 .4 1 1m13.5-12c-.3.5-.1 1 .4 1 .6 0 1.1-.5 1.1-1 0-.6-.2-1-.4-1-.3 0-.8.4-1.1 1"/>
        <path d="M91 114.6c-4.1 2.4-6.9 4.4-6.1 4.4 1.9 0 15.1-7.1 15.1-8.1 0-1.4-1-1-9 3.7m1 9.3c0 .5.5 1.3 1 1.6.6.3 1 .2 1-.4 0-.5-.4-1.3-1-1.6-.5-.3-1-.2-1 .4m-13.1 1.4c-1.4.7-3.4 1.8-4.3 2.6-5.6 4.7-11.7 26.3-8.7 30.9 1.4 2.3 18.8-1.6 30.2-6.7 3.5-1.6 4.8-2.7 5.2-4.8.4-2.4-.8-4.1-9-13-5.3-5.7-9.8-10.3-10.2-10.2-.3 0-1.8.6-3.2 1.2m103.2 4.9c-1.2 3.3.4 8.8 2.5 8.8 1.2 0 1.2.4.2 2-1 1.5-1 2.2 0 3.2.6.6 1.2 2 1.2 2.9s.6 1.9 1.4 2.2c1.5.6 1.5.6-.5-9.6-.7-3.7-1.6-5.7-2.5-5.7-1.6 0-1.8-1.2-.4-2.6.5-.5.6-1.5 0-2.4-.7-1.1-1.1-.9-1.9 1.2m9.3-.9c.3 1 .6 2.7.6 3.8 0 1.3.7 1.9 2.3 1.9 1.9.1 2 .2.7 1.3-1.7 1.3-1.5 4.7.2 4.7.5 0 .7.7.4 1.6-1 2.5 1.4 9.3 3 8.7 1.7-.6 1.8.9.3 2.4s.3 7.5 3 10.2c2.5 2.5 3.1 2.6 3.1.6 0-.8-.7-1.5-1.5-1.5s-1.5-.5-1.5-1c0-.6.5-1 1-1 1.5 0 1.2-2.6-.5-4-1-.9-1.2-1.7-.6-2.3.5-.5.6-1.9.2-3.1-.5-1.1-1.1-4.2-1.5-6.9-.5-3.1-1.2-4.7-2.2-4.7-.8 0-1.4-.5-1.4-1 0-.6.5-1 1-1 2.1 0 .8-2.8-3.1-6.5-2.5-2.4-3.9-3.2-3.5-2.2m8 16.8c-.3.5-1 .7-1.5.3-.5-.3-.7-1-.3-1.5.3-.5 1-.7 1.5-.3.5.3.7 1 .3 1.5m-20.3-8.4c0 .4.4 1.7.9 2.8.8 1.9.9 1.9.9-.2.1-1.2-.3-2.5-.9-2.8-.5-.3-1-.3-.9.2m26.5 8.1c.6 6.7 2.6 13.8 4.2 15 1.5 1.1 1.5 1.4.2 2.2-1.2.8-1.3 1.3-.2 3 .6 1.1 1.2 3.2 1.2 4.8 0 1.8 1 3.7 3.1 5.5 3.8 3.4 4 3.3 2.9-.1-.5-1.5-1.1-4.4-1.5-6.5-.4-2.3-1.1-3.7-2-3.7-.8 0-1.5-.5-1.5-1 0-.6.5-1 1-1 1.3 0 1.3-3.7-.1-4.5-.6-.4-.8-1.4-.5-2.2.9-2.2-1.5-8.3-3.2-8.3-.8 0-1.2-.6-.9-1.4s-.2-2.1-1.2-3c-1.6-1.4-1.7-1.4-1.5 1.2m4.4 9.2c0 .5-.4 1-1 1-.5 0-1-.5-1-1 0-.6.5-1 1-1 .6 0 1 .4 1 1m5 17c0 .5-.4 1-1 1-.5 0-1-.5-1-1 0-.6.5-1 1-1 .6 0 1 .4 1 1m-37.8-22.8c-1.7 2.4-6.2 7.6-10.1 11.6s-7.1 7.7-7.1 8.2c0 .6-.7 1-1.5 1s-1.5.7-1.5 1.5-.7 1.5-1.6 1.5c-1.6 0-10.6 5.8-11.2 7.2-.2.4-1 .8-1.7.8s-1.5.9-1.8 2c-.3 1.2-1.1 1.8-2 1.5-1.5-.6-8.7 3.1-8.7 4.5 0 1.3 8.4 2 9.3.7.7-.9 1-.9 1.4 0 .8 2.1 2.9 1.5 6.3-1.7 1.8-1.7 3.6-3 4-3s1-.9 1.3-2.1 1-1.8 1.7-1.4c1.1.7 5.8-2 10.4-6 1.6-1.4 3.3-2.5 3.8-2.5.4 0 .7-.6.5-1.3-.1-.6.7-1.2 1.8-1.2 1.4 0 1.9-.6 1.7-1.9-.3-1.4.1-1.7 1.2-1.3 1.2.5 1.6 0 1.6-1.8 0-1.4.4-2.5.9-2.5 1.4 0 6.1-10.8 5.5-12.5-.4-.8-.1-1.5.5-1.5s1.1-.9 1.1-2c0-3.3-2.4-2.3-5.8 2.2m2.8 4.2c0 1.1-1.9 1.5-2.5.6-.3-.5.1-1 .9-1 .9 0 1.6.2 1.6.4m-3.6 4.7c-.3.5-1 .7-1.5.3-.5-.3-.7-1-.3-1.5.3-.5 1-.7 1.5-.3.5.3.7 1 .3 1.5M173 161c0 .5-.4 1-1 1-.5 0-1-.5-1-1 0-.6.5-1 1-1 .6 0 1 .4 1 1m-3.4 4.7c-1 1-1.9-.5-1-1.8.6-1.1.8-1.1 1.2 0 .2.7.1 1.5-.2 1.8M167 168c0 .5-.4 1-1 1-.5 0-1-.5-1-1 0-.6.5-1 1-1 .6 0 1 .4 1 1m-3 4c0 .5-.4 1-1 1-.5 0-1-.5-1-1 0-.6.5-1 1-1 .6 0 1 .4 1 1m-3.6 4.1c-.3.5-1 .7-1.5.3-.5-.3-.7-1-.3-1.5.3-.5 1-.7 1.5-.3.5.3.7 1 .3 1.5m-6.4-.1c0 .5-.4 1-1 1-.5 0-1-.5-1-1 0-.6.5-1 1-1 .6 0 1 .4 1 1m-3.5 2.9c.3.5.1 1.2-.5 1.6-.5.3-1-.1-1-.9 0-1.8.6-2.1 1.5-.7m7 .1c-.3.5-1 1-1.6 1-.5 0-.9-.5-.9-1 0-.6.7-1 1.6-1 .8 0 1.2.4.9 1m-9.5 4c0 .5-.7 1-1.6 1-.8 0-1.2-.5-.9-1 .3-.6 1-1 1.6-1 .5 0 .9.4.9 1m-3.9 4.3c-1.3 1.3-2.6.3-1.6-1.2.3-.6 1.1-.8 1.7-.5.6.4.6 1-.1 1.7m-6.1-.3c0 .5-.4 1-1 1-.5 0-1-.5-1-1 0-.6.5-1 1-1 .6 0 1 .4 1 1m43-28.5c-4 8.7-4.3 11.8-1.5 12.9.8.3 1.5 1.2 1.5 2 0 .7.9 1.6 1.9 1.9 1.6.4 2.5-.8 5.1-6.7 4-8.8 4.1-12 .1-16l-3-3zm35.4-.3c.4 1.3.8 3.2 1 4.3.9 6.3 1.8 8.4 3.2 7.8 1.9-.7 1.8-3.2-.1-3.9-1-.4-1.3-1.3-.9-2.6.7-2.2-1.3-7.8-2.8-7.8-.6 0-.7 1-.4 2.2"/>
        <path d="M194.7 173.3c-2 5-3.7 9.8-3.7 10.4 0 .7-.4 1.2-.9 1-1.4-.4-31.1 20.6-31.1 22 0 1.5-1.6 1.8-2.4.4-.3-.4-3.6-.9-7.3-1l-6.8-.2 3.9 3.3c5.1 4.3 6.1 4.6 12.5 4.7 4.6.1 5.2-.1 4.1-1.4-1.7-2 .7-2.1 2.9-.1 1.4 1.2 3.5.1 16.6-9 12.2-8.5 14.9-10.8 14.7-12.5-.2-1.3 0-1.9.7-1.4.7.4 1.9-1.2 3.1-3.9 1.1-2.5 2.9-6.6 4-9.1l2-4.5-3.6-4c-2-2.2-3.9-4-4.3-4-.3 0-2.3 4.2-4.4 9.3m.8 15.5c-1.1 1.2-3.8-2.7-3.1-4.4.6-1.5.9-1.4 2.2 1.1.8 1.5 1.2 3 .9 3.3"/>
        <path d="M161.4 180.2c-7.6 5.5-14.8 10.6-15.8 11.4-1.9 1.3-1.9 1.4-.1 3.4 1 1.1 1.3 2 .7 2-.7 0-1.2-.4-1.2-.8 0-1.6-5.3-3.3-11.9-3.8l-6.6-.6 3.3 3.1c2.6 2.5 4.2 3.1 8 3.2 2.6.1 7.2.3 10.2.4 5.5.2 5.6.2 20-9.8 8-5.5 14.7-10.2 14.9-10.4.8-.6-4.2-5.2-5-4.7-.5.3-.9-.2-.9-1s-.4-1.7-.8-2-7.1 4-14.8 9.6m59.9-8.5c-1.4.5-1.8 5.3-.5 5.3.5 0 .9 1.4.9 3.1 0 1.8.9 3.9 2.1 5.2l2.2 2.1v-2.2c0-1.2-.7-2.5-1.5-2.8-.9-.4-1.2-1.1-.7-1.8 1.2-1.6-1-9.4-2.5-8.9m-13.6 13.5c-3.5 7.9-4.7 12.5-2.9 11.4.5-.3 1.5.6 2.2 1.9 2 3.8 3.6 3 6.3-2.9 5.4-11.7 5.4-12.2 2.2-15.6-1.6-1.6-3.2-3-3.5-3-.4 0-2.3 3.7-4.3 8.2"/>
        <path d="M220.6 186.8c-.3.5-2.1 4.6-4 9.1-3.1 7-3.3 8.2-2.1 9.5 1.7 1.7 2 3.6.5 3.6-.5 0-1-.6-1-1.4s-.6-1.6-1.4-1.9c-1.4-.5-29.8 18.5-30.4 20.4-.4 1.1 4.9 6 6.1 5.6.4-.1 7-4.5 14.7-9.7 8.8-6 13.9-10.1 14-11.3 0-.9.6-1.7 1.4-1.7.7 0 3-3.8 5.2-8.6l3.8-8.5-3.1-3.1c-1.7-1.7-3.3-2.6-3.7-2m-96.1 1.2c.3.5 1.5 1 2.6 1s1.7-.5 1.4-1c-.3-.6-1.5-1-2.6-1s-1.7.4-1.4 1"/>
        <path d="M187 206.1c-8 5.5-14.6 10.6-14.8 11.4s-1.1 1.4-2 1.3-3.9 0-6.6 0l-4.9.2 2.3 2.5c2 2.1 3.3 2.5 8.2 2.5 6.1 0 6.9-.5 4.1-2.6-1.5-1.1-1.5-1.3-.3-1.4.9 0 2.3.9 3.3 2 1.7 2 1.8 2 12-5.1 5.6-3.9 12.6-8.7 15.5-10.7 4.1-2.8 5-3.8 4.1-4.8-.6-.8-1.7-1.4-2.4-1.4s-1.5-.9-1.8-2-.9-2-1.4-2c-.4.1-7.3 4.6-15.3 10.1m42.6.1c-1.4 4.1-1.5 4.8-.6 5.3.4.3 1.1-.1 1.4-.7.3-.7.4-.4.1.8s.1 2.7 1 3.4c1.9 1.6 2 .1.1-6-1-3.2-1.6-4-2-2.8m-9.9 12.8c-2.6 1.6-4.7 3.4-4.7 4 0 .5-.9 1-2.1 1-1.4 0-1.9.5-1.6 1.5.7 1.7-.9 3-1.8 1.5-.4-.6-1.8-.2-3.6 1.1l-3 2.1 2.7 2.9c2.9 3.1 5.1 3.3 4.6.5-.2-.9.2-1.6.8-1.6.5 0 1 .5 1 1 0 .6 1.2 1.5 2.6 2 2.3.9 3.4.4 9-3.7 3.5-2.6 6.4-5.3 6.4-6s.7-1.3 1.5-1.3 1.5-.5 1.5-1c0-1.7-2.8-1.1-3.9.7-.9 1.6-1.2 1.6-2.1.3-1.6-2.4-1.2-3 1.8-3h2.7l-3-2.5c-1.6-1.3-3.2-2.4-3.6-2.5-.3 0-2.6 1.3-5.2 3m5.3-.6c0 .3-.4.8-1 1.1-.5.3-1 .1-1-.4 0-.6.5-1.1 1-1.1.6 0 1 .2 1 .4m-3 3.6c0 .5-.7 1-1.6 1-.8 0-1.2-.5-.9-1 .3-.6 1-1 1.6-1 .5 0 .9.4.9 1m3 3.6c0 .8-.4 1.2-1 .9-.5-.3-1-1-1-1.6 0-.5.5-.9 1-.9.6 0 1 .7 1 1.6m-6.5.4c-.3.5-1 1-1.6 1-.5 0-.9-.5-.9-1 0-.6.7-1 1.6-1 .8 0 1.2.4.9 1m-3.5 3.6c0 .8-.5 1.2-1 .9-.6-.4-.8-1.1-.5-1.6.9-1.4 1.5-1.1 1.5.7m7-.6c0 .5-.4 1-1 1-.5 0-1-.5-1-1 0-.6.5-1 1-1 .6 0 1 .4 1 1m-13.5 1c-.3.5-1 1-1.6 1-.5 0-.9-.5-.9-1 0-.6.7-1 1.6-1 .8 0 1.2.4.9 1m10.5 2.4c0 .3-.4.8-1 1.1-.5.3-1 .1-1-.4 0-.6.5-1.1 1-1.1.6 0 1 .2 1 .4m-47.5-4.6-2.9.7 2.7 1.8c2 1.3 4.2 1.7 7.7 1.5 4.5-.3 4.7-.4 3.5-2.1-1.5-2-6.5-2.9-11-1.9"/>
        <path d="M210 236.9c0 1.1 3.1 2.4 3.9 1.6.3-.3-.1-1-.9-1.5-1.9-1.2-3-1.2-3-.1M118 200c0 .5.7 1 1.5 1s1.5-.5 1.5-1c0-.6-.7-1-1.5-1s-1.5.4-1.5 1"/>
    </g>
</svg>
