<svg xmlns="http://www.w3.org/2000/svg" width="341.333" height="341.333" version="1.0" viewBox="0 0 256 256">
    <g fill="#e5e5e5">
        <path d="M73.5 3C54 8.1 27.9 22.6 20.9 32.3c-4.2 5.8-3.7 10.8 1.9 20.2C29 62.7 28.4 66.3 18.4 78c-6.9 8.1-12.7 19.5-15.1 29.7-2.5 10.9-2.6 42.9 0 52.1 4.5 16.5 13 31.3 25.6 44.5 15.5 16.2 34.6 25.1 56.6 26.3 5 .3 10.5.7 12.3 1 5.1.8 10 5.7 11.8 11.9 1.8 6.4 7.8 12.5 12.2 12.5 5 0 20.7-2.9 29.7-5.5 20.5-6 30.6-12.2 32-19.9.5-2.2-.2-7.9-1.9-15.9-1.4-6.8-2.6-14.7-2.6-17.5 0-4.5.4-5.5 3.5-8.6 2.2-2.2 4.8-3.7 7.2-4.1 12.6-2.1 15.6-5.5 16.8-19 1.6-17.5 4.5-27.5 9.8-33.4 1.2-1.3 5.6-4.6 9.7-7.2 13-8.4 15.1-10 18.1-14.2 3.5-4.9 6.4-13.6 4.9-15.1-.7-.7-1-.6-1 .2 0 .7-.5 1.2-1.1 1.2-.8 0-.7-.5.1-1.5.7-.9 1.9-1.4 2.6-1.1 1.9.7 3.9-2 2.2-3-2.9-1.8-4.7-1.2-7.3 2.4-1.6 2-3.5 4.3-4.4 5-1.4 1.1-1.4 1.4-.1 2.2 1.1.7.7 1-1.8 1-2.3 0-3.2.4-2.9 1.2.2.7 1.6 1.3 3.1 1.3 2.5-.1 2.5 0 .9 1.7-3.3 3.2-13.4 8.6-22.8 12.3-5.1 2-9.9 4.3-10.6 5.1-1 1.3-1.4 1.2-2.5-.5-.9-1.2-2.1-1.7-3.4-1.4-2.2.6-2.7 2.9-.9 3.5 3.7 1.2-6.6 15.8-11.1 15.8-2.1 0-2.2.3-1.6 4.7.3 2.5 1.8 7.1 3.3 10.2l2.7 5.6.6-6c.9-7.8 2.6-13.8 5.6-19.7 2.4-4.7 5-7.6 3.7-4.1-.6 1.6-.5 1.6 1.1.4.9-.8 1.4-2.1 1.1-3-.3-.8-.3-1.2.1-.8s2.7-1.1 5-3.3c6.4-5.8 7.4-4.9 1.4 1.2-2.9 2.9-6 6.9-7 8.8-3 6-5.1 16.7-5.2 26.1 0 12.4 0 12.4-16 11.9-7.5-.2-7.7-.1-9.1 2.7-.8 1.5-1.7 4.1-2.1 5.7-.4 1.7-1.6 4.2-2.7 5.7-1.7 2.5-1.8 3-.4 6.8 2.3 6.6 7.5 28.9 7.5 32.2 0 2.4-10.5 7.4-26 12.3-10.8 3.4-29.3 7.1-30.9 6.2-.4-.3-1.1-4.3-1.5-8.8-.4-4.6-.9-10-1.3-12-.5-3.4-.3-3.8 2.8-5.3l3.4-1.5-3.5.6c-1.9.4-4.6.8-6 .9-1.4.2-3.6.7-5 1.3-3.6 1.3-18.7 1.4-26.7.2-9.9-1.6-23.7-6.5-31.8-11.2-16-9.5-31.6-31.1-37.2-51.8-2.8-10.3-2.4-35.9.6-46.5 5.3-18.4 17.6-34.9 29.3-39.3 6.6-2.6 13.7-6.1 12.2-6.2-.6 0-2.9.7-5 1.6-3.9 1.6-3.9 1.6-5.9-1.1-1.1-1.6-3.4-4.7-5.2-6.9-1.7-2.3-5.3-7.1-7.9-10.9-5.5-7.8-6.4-6.1 8.1-15.9C52.2 22.7 67 15.6 79.4 12.4c5.9-1.5 6-1.5 7.9.8 1.8 2.3 1.8 2.3.7 0-.6-1.2-.7-2.2-.2-2.2 1.9 0 14.7 18 21.8 30.6 3 5.3 3.9 6.3 7 6.9 3.3.6 3.8.3 7.4-3.7 5.1-5.8 12-9.5 19.7-10.3 5.4-.7 6.8-.4 12 1.9 3.2 1.5 8.1 5 11 7.8 4.8 4.7 5.2 4.9 6.2 3 .6-1.1 2.3-2.4 3.9-3 3.3-1.1 11.8 0 13.5 1.7.9 1 .4 1.1-2.5.6-6.4-1.2-10.5-.9-13.2.8l-2.6 1.8 2.2 2.9c2.7 3.7 4.4 3.7 11.8 0 3.3-1.7 6.4-3 7-3 2.6 0 .4 1.8-6 5-3.8 1.9-7 4-7 4.7 0 .6 2.5-.2 5.8-1.8 3.1-1.7 4.6-2.2 3.3-1.2-4.9 3.5-6.6 5.1-6.1 5.6.3.2 4.8.1 10-.2 5.2-.4 9.7-.4 10 0 .3.3 2.9 1.4 5.9 2.4 4.3 1.4 6 1.5 9 .7 2-.6 4.7-1.4 6.1-1.7 2.4-.6 2.4-.5.6.9-1.1.9-3.9 2.3-6.3 3.2-4.4 1.7-8.9 1.3-15.8-1.2-1.9-.7-1.9-.7-.2 1.3.9 1.1 1.4 2.3 1 2.6-1.1 1.2-2.3.8-2.3-.9 0-1.1-.6-1.4-2-.9-1.2.4-2 .2-2-.5 0-.6-1.2-1.5-2.6-2-2-.8-3.3-.6-5.5.7-3.6 2.1-3.7 3.3-.3 3.3 2.2 0 2.5-.2 1.4-1.5-1-1.2-1-1.5.3-1.5.8 0 2 .7 2.7 1.5s1.9 1.5 2.7 1.5c1 0 1.3.6.9 1.6-.4 1.2-.1 1.4 1.3.9 1.1-.3 2.2-.1 2.6.5 1.4 2.2 14.4-.2 21.7-4.1 4.8-2.6 13.2-9.3 12-9.7-2.5-.8-1.1-2 2.3-1.9 1.9.1 3.5.1 3.5.2 0 0-2.8 2.1-6.1 4.5-3.4 2.5-7 5.3-8 6.2-1.1 1-2.3 1.8-2.8 1.8-1.1 0-9.1 7.7-8.5 8.3.3.2-.2 1-1.1 1.7-.8.7-1.5 1.9-1.5 2.6 0 .8-.6 1.4-1.2 1.4-.7 0-.5.5.5 1.1.9.5 1.7 1.7 1.7 2.4 0 1.9.3 1.9 4.2-.5 1.8-1.1 3.7-2 4.2-2 .4 0-4.3 3.4-10.5 7.6-6.3 4.2-12.4 8.5-13.6 9.7-1.3 1.1-2.5 1.8-2.8 1.5s1.6-2.5 4.3-4.9c3.6-3.2 5.1-5.4 5.6-8 .4-2.1 1.8-5.4 3.2-7.4 1.4-2.1 2.3-3.9 2.2-4.1-.6-.5-23.2 14.5-24.5 16.3-1.8 2.4-1.6 6.7.5 8.6q1.65 1.5 7.2 1.5c3.1 0 7 .3 8.8.6 2.6.6 3.2.4 3.2-.9 0-.8-.7-1.8-1.5-2.1-2.7-1.1 1.3-5.2 11.6-12 9.6-6.3 17.2-10.3 9.4-4.9-2.2 1.5-5.4 3.9-7.2 5.2l-3.2 2.3 2.6 6.3c1.5 3.4 3 6.6 3.4 7.1 1.9 2.2 20.9-9.4 24.5-15 1.7-2.5 1.6-2.6-2.4-6.7-5.4-5.5-5.5-8.5-.2-18.1 3.5-6.4 4-8.1 4-13.7 0-7.9-2.3-13.2-7.5-17.8-5.6-4.9-9.3-6.1-19-6.1-8.2 0-8.6-.1-12.2-3.3C191.8 11.9 169 3.4 145 2.3c-14.3-.6-24.3.5-37.7 4.3L98 9.2l-3.2-2.7C90.9 3.2 86 1 82.8 1.1c-1.3 0-5.4.8-9.3 1.9m60.9 5.7c.3 1 .8 4 1.2 6.8.6 4.9 2.3 9.5 2.4 6.6 0-.9.7-1.1 2.2-.8 1.4.4 2.9 0 4-1 3.5-3.1 1.2-9.7-3-8.6-1.8.4-2.2.1-2.2-1.6 0-2.9 3.4-2.7 6.5.4 2.5 2.4 3.2 6.5 1.9 10-.9 2.1-5.6 4.5-9.2 4.5-2.7 0-3-.4-3.6-3.8-.4-2-.9-4.9-1.2-6.3l-.5-2.6-7.2 1.3c-5.4.9-7.4.9-7.9 0-1.9-2.7-.2-4.1 6.2-5.2 9.2-1.6 9.8-1.6 10.4.3m25.5 1.8c.3.4-.4 1.4-1.6 2.3-2.6 2.1-4.3 11-2.3 12.2 2.6 1.6.1 2.9-3.8 1.8-2-.5-3.8-1.1-3.9-1.2-.2-.2 1.3-7.4 2.8-13 1-3.7 1.2-3.8 4.6-3.3 1.9.4 3.8.9 4.2 1.2M113 12.8c0 .4-.5 1.3-1.1 1.9-.8.8-.8 1.7 0 3.1.9 1.7.7 2.1-1.2 2.6-1.2.3-2.5.6-2.9.6-1.3 0-4-6.2-3.1-7 1.6-1.6 8.3-2.5 8.3-1.2m11 6.4c0 3.9 1.5 5.2 5 4.5 2.3-.5 3-.3 2.7.6-.4 1.2-10.4 3.3-11.4 2.3-.8-.8-2.1-8.5-1.5-9.1.3-.3 1.6-.5 2.9-.5 1.7 0 2.3.6 2.3 2.2m58-1.2c0 .5-.9 1-2 1-2.6 0-6.3 8.3-5.5 12.2l.7 2.8-3.9-1.6c-2.1-.9-3.9-1.7-4.1-1.9-.7-.6 5-11.5 6.5-12.4 2.3-1.3 8.3-1.4 8.3-.1m10.6 5c4.7 3.3 4.9 3.7 3.4 6-.8 1.3-1.3 1.3-4-.2-3-1.7-3.3-1.7-7 .2-4.5 2.3-5 2.4-5 .9 0-1.6 6-9.9 7.1-9.9.6 0 3 1.4 5.5 3m-77.1 2c1.8 3.6 1.9 3.7 0 4.4-1.4.5-4.5-3.8-4.5-6.4 0-2.2 3-.9 4.5 2m85.1 4.5c-1.1 2.9-8.7 13.5-9.6 13.5-1.4 0-14-8.3-14-9.3 0-1.6 2.8-.4 7.9 3.3 3 2.1 5.8 3.7 6.2 3.5.3-.3 2.4-3.2 4.5-6.5 3.6-5.5 6.4-8 5-4.5m8.8 6.6c2.6 3.1 2.7 5.3.1 4.3-.7-.3-2.3 0-3.5.6-1.8.9-2.5.8-4.1-.6-1.9-1.7-1.9-1.8.8-4.6 1.5-1.5 3-2.8 3.4-2.8s1.9 1.4 3.3 3.1m16 .9c-3.5 1.4-11.7 1.6-12.2.2-.3-.9 1.6-1.2 7-1.1 5 0 6.7.3 5.2.9M201 41.5c1.1 1.3 1.1 2 0 4-.7 1.3-1 3.1-.7 3.9 1 2.6-1.7 1.8-4.8-1.4l-2.9-3 2.4-2.5c2.7-2.9 4.2-3.1 6-1m33 .9c0 .9-12.1 7.8-12.7 7.2-.8-.8-.7-.9 6.2-4.4 6.6-3.4 6.5-3.4 6.5-2.8m-17.9 4.1c3.2 1.7 3.2 3.6-.1 2.8-1.1-.3-2.6 0-3.3.6-1.1.8-1.9.5-3.5-1.2-1.2-1.3-1.9-2.7-1.5-3 1.1-1.2 5.3-.8 8.4.8m18.8 6.7c-7.3 8.5-8.9 9.6-7 4.6.8-2.1 10.3-10.8 11.8-10.8.3 0-1.9 2.8-4.8 6.2M207.5 50c1.7 1.9 1.7 2.1 0 4-.9 1-1.5 2.6-1.2 3.4.9 2.3-1.1 2.9-2.2.7-1.7-3.2-1.1-10.1.9-10.1.4 0 1.5.9 2.5 2m32 3c.3.6-.1.7-.9.4-1.8-.7-2.1-1.4-.7-1.4.6 0 1.3.4 1.6 1M213 54.4c0 .3-.4.8-1 1.1-.5.3-1 .1-1-.4 0-.6.5-1.1 1-1.1.6 0 1 .2 1 .4m12.5 1.7c1.4 4.2-4.5 6.6-6.1 2.4-1-2.5.4-4.5 3-4.5 1.6 0 2.7.7 3.1 2.1m20 41.8c.3.5.1 1.2-.4 1.5s-1.1-.1-1.5-.9c-.6-1.6.9-2.1 1.9-.6"/>
        <path d="M221.2 57.1c.2.6.8 1 1.3 1s1.1-.4 1.3-1-.4-1.1-1.3-1.1-1.5.5-1.3 1.1M143.5 39c.4.6 1 .8 1.5.5 1.4-.9 15.7 9.1 15.3 10.6-.2.4.4.6 1.2.3.9-.4 2.2 0 3.1.7 1.3 1 1.7 1 2.5-.2 1.5-2.4 1-3.1-1.7-2.5-2 .5-2.4.3-2.2-1.1.2-1.3-.3-1.7-1.9-1.6-1.5.2-2.3-.3-2.3-1.2 0-.8-.9-1.5-1.9-1.5s-2.2-.7-2.5-1.6c-.3-.8-1-1.3-1.5-1s-1.1-.1-1.5-.9c-.3-1-1.9-1.5-4.6-1.5-2.5 0-3.9.4-3.5 1m-6.8 1.1c-2.4 1.4-6.6 5.7-6 6.2.2.3 0 .8-.6 1.2-.6.3-1.1.1-1.1-.4 0-1.8-1.4-1.2-2.9 1.1-1.3 2.1-1.3 2.2.2 1 .9-.8 2.1-1.1 2.7-.7 1.4.8 4.2-1.4 3.4-2.7-.3-.5 0-.8.7-.7.8.1 2.5-.2 3.8-.8 2.2-.9 2.2-1 .6-1.7-1.7-.6-1.7-.7.1-2.1 2.2-1.7 1.7-1.9-.9-.4m4.2-.1c-.1.6-.2 1.5-.3 2.1s1.8 1.3 4.2 1.5c2.3.2 4.2.2 4.2 0 0-.9-8-4.5-8.1-3.6m15.1.4c0 .2.7.7 1.6 1 .8.3 1.2.2.9-.4-.6-1-2.5-1.4-2.5-.6M96 45v1.7c0 .5 1.1.8 2.5.8 3 .1 3.2-1 .6-2.5-2.5-1.3-3.1-1.3-3.1 0m54-.2c0 1.2 1.9 2.6 2.6 1.9.2-.2-.2-1-1.1-1.7-.9-.8-1.5-.8-1.5-.2M91.4 46c-1.2.5-3.1 2.2-4.3 3.9l-2.2 3 2.6 1.7c3 2 4.7 1 1.9-1.1-1.3-1-1.5-1.4-.5-1.5.8 0 1.2-.3.8-.6-1.2-1.2 2.1-3.4 4-2.7 1.5.6 1.6.4.6-.9-.7-.8-1-1.8-.6-2.1.8-.9.4-.8-2.3.3"/>
        <path d="M71 48.8c0 1 1.2 2.5 2.8 3.2 1.5.8 4.8 2.9 7.3 4.7 5.1 3.6 7.1 4 8.8 1.9 1.5-1.7-1.1-3-2.7-1.4-.8.8-1.3.7-1.8-.5-.3-.9-1.2-1.7-1.9-1.7s-1.5-.7-1.9-1.5c-.3-.8-1.2-1.5-2.1-1.5-1.3 0-1.9-1.1-1.7-3.1.1-.4-.7-.5-1.7-.2s-2.2 0-2.5-.6c-1.1-1.7-2.6-1.3-2.6.7m62.8 1.7c-2.1 2.8-2.6 7.7-.6 5.7 1.7-1.7 2.9-1.5 2.6.4-.2 1 .2 1.9.8 2.1 1.7.6.4-4.8-1.3-5.4-1.2-.5-1.2-.7-.1-1.4 2.2-1.5 3.8-1 3.8 1.1 0 1.3.9 2.2 2.8 2.6 1.5.3 3.3.7 4 1 2.6.8 1-2.6-2-4.3-2.6-1.3-2.9-1.8-1.5-2.1.9-.2 1.5-.8 1.1-1.3-.4-.6-1.1-.6-1.9.1-1 .8-1.9.8-3.4.1-2.5-1.4-2.3-1.5-4.3 1.4m-68.3.5c-.3.5-.1 1 .4 1 .6 0 1.1.7 1.1 1.5s.9 1.5 2 1.5c2.6 0 2.6-2.6.1-4-2.4-1.2-2.8-1.3-3.6 0m79.5-.1c0 .5 1.4 1.6 3.1 2.5 2.8 1.4 3 1.4 1.8 0-1.7-2.1-4.9-3.7-4.9-2.5"/>
        <path d="M103.3 51.7c-1.5.3-2.3 1.2-2.3 2.4 0 1-.5 1.9-1.1 1.9s-.9-.7-.5-1.5q.45-1.5-1.2-1.5c-2.3 0-4.2 1.9-4.2 4.3 0 2.5-6.1 8-7.4 6.7-.6-.6-1.7-1-2.5-1s-2.5-.9-3.7-2.1c-1.8-1.6-2.6-1.9-4.1-1-1.7 1-1.7 1 0 1.1 3 0 1.9 3.6-2.3 7.4-4.7 4.2-5 6.8-1.2 10.1 2.7 2.3 2.5 4.9-.2 2.6-.8-.7-3.2-1.1-5.3-.9-3.8.3-3.8.3-3.5 4.3.2 2.2.8 4.6 1.4 5.2.8 1 .6 1.3-.5 1.3-2.1 0-4-2.7-3.4-4.9.5-2.1-3.7-7-5-5.8-.3.4 0 1.3.9 2 2 1.5 3.1 4.7 1.7 4.7-.7 0-.9 1-.4 2.7.6 2.4.5 2.5-1 1.3-1.1-.9-1.4-2.2-1-3.8s.1-2.8-1.1-3.6c-2.3-1.7-1.1-4.7 2.6-6.9 1.6-1 3-2.2 3-2.8 0-1.5-1.9-1-3.8.9-1 1-2.3 1.7-2.9 1.5-.5-.2-2.1.5-3.4 1.6s-1.8 2-1.1 2.1c1.7 0 1.5 3.9-.3 4.6-.8.4-1.5 1.3-1.5 2.1 0 1-.6 1.3-1.6.9-2.6-1-8.9 3-13.2 8.4-3.1 3.8-4.1 4.6-4.6 3.4-.4-1-1.4-1.4-2.6-1.1-1.9.5-1.9.4.2-2.5 1.3-1.6 3-4 3.9-5.3 1.8-2.8 6.3-6.5 7.8-6.5 1.4 0 1.4-1.3 0-2.7-.8-.8-.7-1.7.2-3.4 1.2-2.4 1.2-2.4-1-.5-1.1 1.1-2.1 2.5-2.1 3.3s-2.4 4.4-5.4 8.1C23.2 96.7 21 101 18 111c-1.2 4.1-2.7 7.8-3.3 8.2s.2 1 1.9 1.3c5.2 1.2 6.1 1.9 2.7 2.3-2.5.2-3.3.8-3.3 2.3 0 1.1-.4 1.8-.9 1.5-1-.6-.5 8.3 1 21.1 1.6 13.5 8.7 29.8 16.7 38.2 2.3 2.5 4.2 5.3 4.2 6.2 0 1.8 6.3 7.9 8.1 7.9 1 0 1.3.2 7 4.9 2 1.7 3.8 2.8 4.1 2.6.3-.3 3.5.9 7.2 2.6 4.6 2.2 7.4 2.9 9.2 2.5 1.5-.4 2.3-.3 2 .3-.3.5.2 1.2 1.2 1.6 3.3 1.3 15.7 1.7 21.2.7 4-.7 5.7-.7 6.3.1.5.7.6 0 .3-1.5-.5-2.1-.3-2.8.9-2.8.9 0 1.3.4 1 1-.4.6.6 1 2.4 1 2.3 0 2.9-.4 2.5-1.5-.4-.8-.1-1.5.5-1.5s1.1.4 1.1 1c0 1.6 1.8 1.2 8.1-1.6 3.3-1.5 5.9-3.3 5.9-4.1 0-.9.6-1.3 1.5-.9.9.3 3.1-.2 4.9-1.1 3.2-1.5 3.6-1.5 5.1.1.9.9 2.4 1.6 3.2 1.6 1.4 0 1.4-.3-.2-2-1-1.1-2.4-2-3.2-2-1 0-1.2-.6-.8-2.1.5-1.6.4-2-.6-1.5-.8.3-2.2.9-3.1 1.2-1 .4-1.8 1.3-1.8 2.1s-.6 1.3-1.2 1c-1.6-.5-7 2.1-8.1 4-.6.9-1.3 1.1-2 .5-1.5-1.1-14.2-2.3-16.2-1.6-.8.4-1.2 1-.9 1.5.6 1-.9 1.2-1.9.2-.4-.3.3-1.3 1.5-2.1 2-1.5 2-1.6.2-3s-1.8-1.4.1-.8c2.4.9 2.3.9 6 .7 2.7-.2 2.8-.3 1.2-1.5s-1.5-1.4 1.4-2c1.7-.3 4.4-.6 5.8-.6 1.5 0 3.6-.6 4.6-1.4 1.8-1.3 1.8-1.5.1-5-1-2.1-1.6-3.9-1.4-4.1.1-.1 1.9.8 3.8 2.1s2.9 2.4 2.2 2.4c-1.8 0-1.4 4.1.6 5.6 1.6 1.2 1.5 1.3-.4.8-1.2-.3-2.7.1-3.5.8-.9 1-2.9 1.3-6.4 1.1-4.7-.4-4.9-.3-3.1 1.1 2.3 1.9 6.7 2.1 8.4.4.7-.7 1.2-.9 1.2-.4 0 .4 2.2-.5 5-2 2.7-1.5 4.7-3.1 4.4-3.6s-1.2-.7-2-.4c-1.3.5-3.8-2.6-2.9-3.6.3-.3-.4-1.3-1.5-2.3s-2-2.7-2-3.8c0-1.9.2-1.8 2.9.7l3 2.9 3.3-2c1.8-1 3.4-2.6 3.5-3.4 1.1-8.7 1.6-11.2 2-10.2.7 2 2.3 1.5 2.3-.6 0-3.2 1.9-3.4 2.6-.4 1.4 6.3 1.5 6.5 3 5.2 1-.8 1.4-.8 1.4 0s1 .6 3-.4c3.3-1.7 6.1-.9 7.8 2.2.6 1 1.6 1.4 2.6 1 1.9-.7 2.2-3.9.3-3.5-.7.2-1.2-.2-1.2-.7 0-.6.4-.8 1-.6 2.5.9 4 .5 4.3-1.2.3-1.5 0-1.8-1.8-1.2-1.7.5-2.1.4-1.7-.6.5-1.4 1-1.5 3.8-.4 2.4.9 6.6-6 4.9-7.9-.9-1.2-.7-1.3.8-.9 2 .5 3.9-2.2 2.2-3.2-.6-.4-1-.1-1 .4 0 .6-.4 1.1-1 1.1-2.1 0-.9-1.9 1.8-2.8 1.8-.7 2.1-1.1.9-1.1-1-.1-1.6-.5-1.2-1.1.3-.5 1.3-.6 2.2-.3 1.3.5 1.5.2 1-2-.5-1.6-.3-2.7.5-2.9.7-.3 1.3-2.4 1.3-4.9.1-2.5.4-5 .9-5.7.9-1.5.5-18.2-.6-18.8-.4-.3-1.5-3.1-2.4-6.2s-2-6.2-2.4-6.7c-.5-.6-1.3-4.6-2-9-1-6.4-1.8-8.6-4.1-11.3-1.6-1.8-2.9-4-2.9-4.9 0-1.3-.3-1.3-1.5-.3s-1.5 1-1.5-.3c0-.8.5-1.7 1.2-1.9.6-.2-.4-1.5-2.3-2.7C157 75.3 149 67.2 149 65.8c0-.5-.8-.8-1.7-.6-1.2.2-1.7-.3-1.5-1.4.4-2.3-1.3-3.1-2.8-1.3-.9 1.1 0 2.5 5.1 7.4 3.4 3.4 6.6 6.1 7 6.1.3 0 .9.9 1.2 2 .4 1.4 1 1.8 2.3 1.3s1.6-.3 1.2.8c-.7 1.8 6.3 11.7 8 11.1.6-.2 1.2.1 1.2.6 0 .6-.4 1.2-1 1.4s-.4 1.4.4 3c.8 1.5 1.2 3.6.9 4.6-.2 1.1 0 2.3.6 2.6.6.4.8 2 .5 3.5-.3 1.6-.1 3.2.5 3.5.6.4.8 2 .4 3.7-.4 2.1-.1 3.4.8 4 1.2.8 1.2 1 0 1.8-1.1.7-1.1 1.3.3 3.2.9 1.4 1.5 4.1 1.5 6.4-.1 2.2-.4 3-.6 1.8-.7-3.7-2.9-4.7-4.7-2.1-1 1.3-1.2 2.4-.6 2.6 1.9.7 1 2.4-1 1.9-1.8-.5-1.9-.3-.4 2.4.8 1.6 1.8 2.9 2.2 2.9.6 0 1.1 3.1 1.2 8.9 0 1.3.4 2.9 1 3.5.6.8.4 2.7-.6 5.5-.8 2.4-1.2 5.1-.9 6.2.5 1.6.2 1.7-2.9 1.2q-3.6-.6-3.6.6c0 .6-.5 1.1-1 1.1-.6 0-1-.8-.8-1.8.2-1.2-.3-1.6-1.9-1.5-1.3.2-2.3-.2-2.3-.7 0-.6.5-1 1.1-1 .8 0 .8-.5-.1-1.5-1.4-1.7-3.5-2.1-2.5-.5.3.6-.1 1-.9 1-.9 0-1.6-.5-1.6-1 0-.7-.6-.7-1.9 0-3 1.6-3.6 1.2-1.6-1 1-1.1 2.4-2 3-2 1.7 0 2.5-2.3 2.5-6.9 0-4.9-.8-5.6-3.2-2.6-1.4 1.7-2.9 2.5-5.1 2.5-3-.1-3.1-.2-1.3-1.5 1-.8 2.4-1.6 3-1.8.6-.3.3-1.1-.9-2-1.9-1.4-1.9-1.5.8-1 2 .4 2.7.1 2.7-1.1 0-.9-.4-1.6-1-1.6-.5 0-1-1.5-1-3.4 0-7.6-4.3-11.6-7-6.5-.7 1.1-1.4 1.8-1.7 1.6-.9-1 1.7-4.6 3.7-5.1 1.1-.3 2.8-.8 3.8-1.1 1.5-.4 1.9 0 1.9 2.5 0 2.1 1 4.1 3.3 6.5 1.9 1.9 3.5 3.3 3.7 3.2.2-.3-2.9-6.5-9.2-18.8-.5-1-1.7-1.9-2.5-1.9s-2.2-.4-2.9-.9c-2.5-1.6 3.1-3.6 5.8-2.2 1.9 1.1 2.1.9 2.1-1.7 0-1.6-.9-3.7-2-4.7s-2-3-2.1-4.4l-.1-2.6-1.1 2.8c-.6 1.5-2.1 3-3.4 3.3-2.6.7-8.7-1.1-10.3-3.2-2.4-2.8-3-1.3-2.5 5.8s.4 7.2-.8 3.1c-.6-2.3-2.1-4.9-3.2-5.8-1.6-1.2-1.6-1.4-.2-.9.9.3 1.7.3 1.7-.1 0-1.3-2.3-5-3.9-6.2-1-.7-1.1-1.2-.4-1.3.8 0 .9-.9.3-3.1l-.9-3 5.4 3c7.1 4 7.8 3.9 2.9-.4-6.3-5.7-11.1-4.2-9.9 3.2.6 3.6.5 3.7-.9 1.9-2.3-2.9-2-7.2.6-9 3.7-2.6 7.4-2 12 2.1 4.2 3.8 4.2 3.5.1-2.6-2.4-3.6-3-8.9-1.3-12.1.7-1.3 1.8-1.7 4-1.4 1.7.3 3 .1 3-.5s.5-1.1 1-1.1c.6 0 1 .8.8 1.7-.2 1.3.3 1.7 2 1.6 1.2-.2 2.2.2 2.2.7 0 .6-.4 1-.9 1s0 1.8 1.2 3.9c1.2 2.2 2.4 3.9 2.7 3.9q2.55-.15 1.2 1.5c-1.4 1.7 2 7.7 4.4 7.7 1 0 1.4.5 1 1.5-.3.9 0 1.5.9 1.5 1.7 0 2-3.6.4-4.5-.6-.4-.8-1.4-.5-2.2.7-1.8-1.8-6.9-3.8-7.6-.9-.4-1.3-1.3-1-2.1.6-1.7-1.2-3.1-2.1-1.6-.4.6-1.1.7-1.7.4q-.9-.6.3-1.5c1.8-1.1-5.2-8.5-9.9-10.6-3-1.2-3.3-1.7-2.7-4.1l.7-2.7-2.4 2.2c-1.4 1.3-3.4 2.3-4.6 2.3-3.4 0-9.3 2.7-9 4.2.2.6-.4 1.2-1.2 1.3-.8 0-2.5.6-3.6 1.2-2.1 1.2-3.4.8-3.4-1 0-.5.6-.7 1.3-.4.6.2 2.8-.9 4.6-2.6 1.9-1.6 5.9-4 8.8-5.3 5.7-2.6 6.5-4.3 3.5-8.1-2.1-2.7-11.1-5.8-12.5-4.4-.6.6-1.5.7-2.1.2-1.5-1.2-6.6-1.9-9.3-1.4M98 58.6c0 .8-.5 1.2-1 .9-.6-.4-.8-1.1-.5-1.6.9-1.4 1.5-1.1 1.5.7m28 2.4c0 .5-.4 1-1 1-.5 0-1-.5-1-1 0-.6.5-1 1-1 .6 0 1 .4 1 1m-30.6 2.1c-.3.5-1 .7-1.5.3-.5-.3-.7-1-.3-1.5.3-.5 1-.7 1.5-.3.5.3.7 1 .3 1.5M82 64.6c0 .8-.4 1.2-1 .9-.5-.3-1-1-1-1.6 0-.5.5-.9 1-.9.6 0 1 .7 1 1.6m4 2.4c0 .5-.4 1-1 1-.5 0-1-.5-1-1 0-.6.5-1 1-1 .6 0 1 .4 1 1m-7 1c0 .5-.4 1-1 1-.5 0-1-.5-1-1 0-.6.5-1 1-1 .6 0 1 .4 1 1m35 2c0 .5-.4 1-1 1-.5 0-1-.5-1-1 0-.6.5-1 1-1 .6 0 1 .4 1 1m17 .6c0 .8-.4 1.2-1 .9-.5-.3-1-1-1-1.6 0-.5.5-.9 1-.9.6 0 1 .7 1 1.6m-6.6 1.5c-.3.5-1 .7-1.5.3-.5-.3-.7-1-.3-1.5.3-.5 1-.7 1.5-.3.5.3.7 1 .3 1.5m10.6.9c0 .5-.4 1-1 1-.5 0-1-.5-1-1 0-.6.5-1 1-1 .6 0 1 .4 1 1m-81.5 6c.3.5-.1 1-1 1s-1.3-.5-1-1c.3-.6.8-1 1-1s.7.4 1 1M152 91c0 .5-.7 1-1.6 1-.8 0-1.2-.5-.9-1 .3-.6 1-1 1.6-1 .5 0 .9.4.9 1m-66.6 2.1c8.5 2.4 15.4 9.4 14.2 14.5-.5 2 .3 3.4 4.9 7.9 9.8 9.8 14.1 21.8 13.3 36.4-1.2 19.9-16.7 36.5-38.2 40.7l-7.1 1.4 6.5-.5c3.6-.2 7.4-.6 8.5-1 1.1-.3.5.2-1.3 1s-5 1.6-7.2 1.7-4 .3-4 .6c0 .2 1.6 2.2 3.5 4.3 3.6 4.1 3.7 6.3.3 7.2-1.1.3-1.7 1-1.4 1.6.4.5.2 1.2-.3 1.5-.5.4-1.2.2-1.6-.4-1-1.6-3.6-1.2-5.2.7-1.3 1.7-1.3 1.7-1.1-.3.2-1.6-1.1-3.3-4.9-6.3-2.9-2.2-6.4-6-7.8-8.5-1.5-2.5-3.8-4.9-5.5-5.6-1.6-.7-3.5-1.9-4.2-2.8-.9-1 .1-.8 3.1.7 6.2 3.2 6.2 1.9-.1-1.6-16.4-9.3-25.2-30.8-20.3-49.6 2.1-8.3 5-13.3 11.1-19.7 8.2-8.7 19.6-14 30-14 4.1 0 4.2-.1 5.4-4.5 1.1-3.9 3-6.4 5-6.5.3 0 2.3.5 4.4 1.1M45 109.3c0 .2-1.2 1.4-2.7 2.8l-2.8 2.4 2.4-2.8c2.3-2.5 3.1-3.2 3.1-2.4m93.5 7.6c.3.5.1 1.2-.5 1.6-.5.3-1-.1-1-.9 0-1.8.6-2.1 1.5-.7m38.5 4.6c0 .8-.4 1.5-1 1.5-.5 0-1-.7-1-1.5s.5-1.5 1-1.5c.6 0 1 .7 1 1.5m-37 2.5c0 .5-.4 1-1 1-.5 0-1-.5-1-1 0-.6.5-1 1-1 .6 0 1 .4 1 1m38 4c0 .5-.4 1-1 1-.5 0-1-.5-1-1 0-.6.5-1 1-1 .6 0 1 .4 1 1m1 7c0 .5-.4 1-1 1-.5 0-1-.5-1-1 0-.6.5-1 1-1 .6 0 1 .4 1 1m-7 1c0 .5-.4 1-1 1-.5 0-1-.5-1-1 0-.6.5-1 1-1 .6 0 1 .4 1 1m-52.3 3.2c-.3.8-.6.5-.6-.6-.1-1.1.2-1.7.5-1.3.3.3.4 1.2.1 1.9m56.3-.2c0 .5-.4 1-1 1-.5 0-1-.5-1-1 0-.6.5-1 1-1 .6 0 1 .4 1 1m-55.3 15.7c-.2 2.7-.3.5-.3-4.7s.1-7.4.3-4.8c.2 2.7.2 6.9 0 9.5m53.3-12.3c0 1.1-1.9 1.5-2.5.6-.3-.5.1-1 .9-1 .9 0 1.6.2 1.6.4m3 3.2c0 .8-.5 1.2-1 .9-.6-.4-.8-1.1-.5-1.6.9-1.4 1.5-1.1 1.5.7m-2.6 4.5c-.3.5-1 .7-1.5.3-.5-.3-.7-1-.3-1.5.3-.5 1-.7 1.5-.3.5.3.7 1 .3 1.5M156.5 166c-.3.5-1 1-1.6 1-.5 0-.9-.5-.9-1 0-.6.7-1 1.6-1 .8 0 1.2.4.9 1m11.9.9c.3.5-.1 1.2-1 1.5-2 .8-2.9.1-1.9-1.3.8-1.3 2.2-1.4 2.9-.2m-7.9 2.1c-.3.5-1 1-1.6 1-.5 0-.9-.5-.9-1 0-.6.7-1 1.6-1 .8 0 1.2.4.9 1m-2.5 3.4c0 1.1-1.9 1.5-2.5.6-.3-.5.1-1 .9-1 .9 0 1.6.2 1.6.4m-7 1.6c0 .5-.4 1-1 1-.5 0-1-.5-1-1 0-.6.5-1 1-1 .6 0 1 .4 1 1m-36 33c0 .5-.4 1-1 1-.5 0-1-.5-1-1 0-.6.5-1 1-1 .6 0 1 .4 1 1m-48 1c0 .5-.4 1-1 1-.5 0-1-.5-1-1 0-.6.5-1 1-1 .6 0 1 .4 1 1m41 0c0 .5-.4 1-1 1-.5 0-1-.5-1-1 0-.6.5-1 1-1 .6 0 1 .4 1 1m-20 3c0 .5-.4 1-1 1-.5 0-1-.5-1-1 0-.6.5-1 1-1 .6 0 1 .4 1 1m-7 1c0 .5-.4 1-1 1-.5 0-1-.5-1-1 0-.6.5-1 1-1 .6 0 1 .4 1 1m18 1c0 .5-.4 1-1 1-.5 0-1-.5-1-1 0-.6.5-1 1-1 .6 0 1 .4 1 1m-7 1c0 .5-.4 1-1 1-.5 0-1-.5-1-1 0-.6.5-1 1-1 .6 0 1 .4 1 1"/>
        <path d="M79.1 95.3c-2.3 2.8-4.2 14.8-3.9 24.8l.3 9.9 4.4-5.5c2.4-3.1 7.5-8 11.3-11.1 7.9-6.4 8.4-8.4 3.6-13.2-5.5-5.2-13.3-7.7-15.7-4.9"/>
        <path d="m69.6 108 .5 3.5-1.5-3-1.5-3 .5 3 .5 3-1.6-3-1.5-3 .5 3 .5 3-1.5-2.5-1.6-2.5.6 3c.4 2.2.3 2.6-.5 1.5-.7-1.2-1-1.2-1-.1 0 .8-.8.4-2-1-2.1-2.4-2.1-2.3 0 1.9 2.9 5.9 2.1 6.3-1 .5-1.3-2.5-2.6-4-2.8-3.4s-.8.9-1.3.5c-.5-.3-.9 0-.9.6s-.4.8-1 .5c-.5-.3-1-.1-1 .5s-.5.8-1.1.4c-.8-.5-.8-.1 0 1.4 1.2 2.3 3.1 3.8 3.1 2.5 0-.5-.6-1.5-1.2-2.2-1-1.1-1-1.3 0-.7.6.4 1.2.2 1.2-.4s.5-.8 1-.5c.6.3 1 .1 1-.5s.5-.8 1-.5c.6.3 1 1.1 1 1.6 0 .6-.5.7-1.2.3-.8-.5-.9-.2-.5 1 .5 1.1.3 1.5-.5 1-.7-.5-.9-.2-.5.8.8 2.1-1.6 1.7-4.2-.6-2.2-2-4.3-1.4-3.4 1 .5 1.4.3 1.5-1.7.4-1.2-.7-2-.7-1.6-.2.3.6.1 1.2-.6 1.4-.7.3-.5.7.6 1.1.9.4 1.5.3 1.1-.3-1.2-2 3.7-.4 5.8 1.9 1.2 1.4 1.4 1.9.5 1.2-1-.7-1.8-1-1.8-.5 0 .4-.5.3-1.2-.4-2.4-2.4-3.1-1.1-.7 1.5l2.4 2.8-2.5-2.1c-3.5-3-5.5-4-4.5-2.4.6.9.2 1-1.6.5-2.3-.7-2.4-.7-.4.9 2.4 1.8 3.9 2.1 2.9.4-.5-.7-.3-.8.5-.4.7.5 1 1.1.7 1.4s0 1.2.6 2.1c1 1.3 1 1.4-.2.3-1.7-1.4-3.4-1.6-2.5-.2.4.6-.1.7-1.1.3-1.2-.4-1.5-.3-1 .5.5.9 0 .9-2 .2-1.5-.6-2.9-.8-3.2-.5s.1.5.9.6c.9 0 .6.4-.6 1-1.6.7-1.4.8 1 .4 2-.4 2.5-.3 1.6.3-1.1.8-1.1 1 0 1.5.8.4.1.4-1.6.1-2.3-.4-2.7-.3-1.5.5 1.3.9 1.2 1.1-.5 1.2h-2l2 .9 2 .9-2 .1-2 .1 2 .9c1.8.8 1.8.9-.5 1l-2.5.2 2.5.8 2.5.8-2.5.2-2.5.2 2.5.8c2.5.8 2.5.8-.5 1l-3 .3 3.5.7 3.5.7-4 .2c-3.2.2-3.6.4-2 1.1l2 .9-2 .1-2 .1 2 .9 2 .9h-2c-1.7.1-1.7.3-.5 1.1s1.2 1-.5 1.1h-2l2 .9c1.4.6 1.6.9.5 1-.8.1-.1.8 1.5 1.6l3 1.5-3-.6c-2-.4-2.5-.2-1.6.3 1.1.8 1.1 1 0 1.5-1.1.4-1.1.6-.1.6.7.1 1 .6.6 1.3-.5.8-.2.9 1 .5 1.1-.4 1.5-.3 1 .4-.4.8.1.9 1.7.4 1.3-.3 2-.3 1.4.2-1.6 1.3-1.7 3.6-.1 3 1.2-.5 1.5.9.6 3.3-.1.3-.2.8-.1 1.3 0 .4-.4.6-1 .5-.6-.2-1.3.5-1.4 1.5-.3 1.5-.1 1.5 2.5-.3l2.9-2-.5 2.6c-.5 2.5-.3 2.6 1.3 1.3s1.7-1.2.4.3c-.7 1-1.7 1.6-2.1 1.3-.5-.3-1.2 0-1.6.6-.5.8-.3.9.6.4 1-.6 1.2-.4.6 1-.7 1.8-.6 1.8 1.4 0 1.1-1 2-1.5 2-1 0 .4.8.1 1.8-.6 1.4-1.1 1.4-1-.2.8-1 1.3-2.2 2-2.6 1.8-.4-.3-1 .2-1.4 1-.3.8-.2 1.4.2 1.4 2.1-.3 3.2.2 2.6 1.3q-.75 1.05.6.3c1-.6 1.2-.4.7.9-.4 1-.3 1.5.3 1.1.6-.3 1-.1 1 .5s.4.9.9.5c.5-.3 1.2.4 1.6 1.5s1.1 1.8 1.6 1.5c.5-.4.9-.2.9.4s1.1 1.3 2.5 1.7c1.4.3 2.5 1 2.5 1.6 0 .5.5.6 1 .3.6-.3 1-.2 1 .2 0 1.8 4 1.1 6.4-1.2 1.9-1.8 2.6-2 2.6-.9 0 .8.5 1.2 1 .9.6-.3 1 .2 1 1.2 0 1.5.2 1.6 1 .3.6-.9 1-1 1-.3 0 .6-.5 1.5-1 1.8-2.2 1.4.4 2.5 5.5 2.5 6.1 0 16-3.3 17.5-5.8.5-.9 1-1.4 1-1 0 .7.8.2 6.2-4.5 1.2-.9 2.6-1.7 3.2-1.7s.4-.5-.4-1c-2-1.3-3.3-1.2-2.4.1.5.8.2.9-1.1.1-2.3-1.3-3-4.3-.7-3.5.9.4 1.3.2.9-.4-.5-.8.2-.8 2.3 0 2.6 1 2.8 1.3 1.3 1.9-1 .3-1.3.7-.6.7.6.1 1.9-.2 2.8-.6 1.5-.5 1.4-.8-.6-2-2.4-1.4-2.4-1.4.6-.8 2 .4 2.5.3 1.6-.4-1.2-.8-1.2-1 0-1.3.8-.3.1-.3-1.6-.1-2.4.2-2.6.1-1-.6l2-.8-2-.6c-1.1-.3-.2-.4 2-.1 3 .3 3.5.2 2-.5-1.9-.9-1.8-1 .5-1.1l2.5-.2-2.5-.8c-2.3-.7-2.3-.8 1-1l3.5-.3-3.5-.7-3.5-.7 3.5-.3 3.5-.2-3-.8-3-.8 3-.2 3-.2-3-.8-3-.8 3-.2c2.8-.3 2.7-.3-1-1l-4-.7 3.5-.2c1.9-.1 4.2-.6 5-1.2 1.2-.9 1.1-1-.7-.6-1.3.3-2.3.1-2.3-.3 0-.5 1-1.1 2.3-1.3 2.1-.4 2.1-.4-.3-.6-2.3-.2-2.4-.3-.5-1.1 1.8-.8 1.8-.9-.5-1s-2.3-.2-.5-1l2-.9-2-.1c-1.6-.1-1.4-.4 1-1.5l3-1.5-3.5.5-3.5.6 3.3-1.5c1.7-.8 3.2-1.8 3.2-2.1s-.9-.1-1.9.5c-3.6 1.9-4.6.9-1.1-1.1 3.2-1.9 2.9-1.9-1.7-.3-1 .3-.4-.3 1.2-1.5 3.4-2.4 2.3-2.8-1.5-.6-4.4 2.5-4.7 1.6-.2-1.1 4.4-2.6 5.5-3.8 2.5-2.7-1.6.6-1.7.5-.3-1.2s1.4-1.8-1.7-.1c-3.8 1.9-4.3 3.1-1 2 2.6-.8 2.2-.2-1.2 1.6-1.8.9-2.2.9-1.6 0 .5-.9.1-1-1.6-.6-2.1.6-2.1.5.4-.9 3-1.7 3.7-3.1 1.1-2.1-1.4.5-1.5.4-.4-.9 1.5-1.8 0-2-2-.3-.8.7-.6.3.4-1 2.3-2.6 1.1-2.9-1.8-.5-2 1.7-2 1.7-.6-.1.8-1 1.5-2.5 1.6-3.3.2-.8 1-2.3 1.8-3.2 3-3.3 1.6-3.1-1.6.2-1.8 1.8-3 2.8-2.5 2.3 1.9-2.6.3-2.7-2.5 0l-3.3 2.9 2.8-3.1c3.5-3.9 3.5-5.5 0-2.3-2 1.7-2.3 1.8-1 .3 2.1-2.5 2.3-4.1.2-2.4-.8.7-.4-.9 1.1-3.6 2.3-4.5 1.6-4.1-2.1 1.1-1.4 1.9-1.4 1.9-.8.1.4-1.3.3-1.7-.5-1.2-.7.4-.6-.6.3-2.8 2.3-5.4 1.7-5.6-1.1-.4-1.3 2.7-2.7 4.8-2.9 4.8-.3 0 .1-1.3 1-3 1.9-3.7 1.9-6.4 0-3-.9 1.5-1.5 1.9-1.5 1 0-1-.5-.7-1.3.8-.7 1.2-1.6 2-2 1.6-.3-.4-1.2.5-1.8 1.9-1 2.1-.9 3 .2 4.4.9 1.1 1 1.4.2.9-2.9-1.7-1 1.3 3.7 5.9 2.7 2.7 4.7 5.1 4.5 5.3-.3.3 0 1.1.6 1.9.6.7.8 1.3.4 1.3-.5 0 0 .9 1 2s1.4 2 .8 2-.8 1.1-.5 2.5c.2 1.4.9 2.5 1.4 2.5.7 0 .6.5-.1 1.3-.6.8-.8 1.7-.4 2 .3.4 0 1.3-.7 2.2s-.8 1.5-.2 1.5c1.5 0 .9 2.6-1.3 5-1 1.1-1.4 2-1 2 .5 0-.2 1.2-1.6 2.6-1.3 1.4-2.3 2.7-2.1 3 .5.9-.7.9-1.5 0-.5-.6-.2-.6.7-.1.8.5 1.2.4.7 0-.4-.5.3-2 1.5-3.4 1.3-1.4.1-.6-2.5 1.9-2.6 2.4-4.7 4.5-4.7 4.5 0 .1.7.2 1.5.2s1.1-.5.8-1.1-.2-.7.2-.3c1.4 1.2 1.5 3.8.2 3-2.5-1.5-4.7-1.2-6.3 1-1.3 1.8-1.5 1.8-1 .3.5-1.6.4-1.7-.9-.6-.8.7-2.1 1-2.9.7s-1.7-.3-2 0-1.9.7-3.6.8c-2.3.2-3-.1-2.6-1.1.4-1.1.1-1.2-1.4-.4-1.3.7-2.1.7-2.5-.1-.4-.6-1.3-.8-2-.5-.7.2-2.1-.4-3.1-1.5-1.9-2.1-3.9-2.6-2.8-.7.4.7-1.1-.4-3.3-2.5-2.1-2-4.3-3.4-4.8-3-.4.5-.5.3-.1-.4.3-.6.2-1.4-.4-1.8s-.8-1.1-.5-1.6c.4-.5.3-1.5-.2-2.2-.7-1.2-1.2-2.9-1.7-5.7-.1-.9-.4-2-.7-2.5-.7-1.3-.4-8.6.4-10.5.4-.8.8-2.5 1-3.8.2-1.2 2-3.9 4-6 2.1-2.1 3.4-4.1 3-4.5s-.8-1.4-.9-2.3c-.2-1.2.1-1.3 1.2-.3.7.6 1.1 1.5.8 2-.9 1.5.8 1 2.9-.9 1.1-.9 1.7-1.1 1.3-.5-.5.9-.2 1.1.8.7.8-.3 1.7-1.2 2-1.9.3-.8 1.3-1.1 2.5-.8 1.6.4 2.1 0 2.2-1.3 0-1.8.1-1.8.9.1.5 1.1.9 1.4.9.7.1-.6.8-1.2 1.7-1.2.8 0 1.2.4.9 1-.3.5-.1 1 .4 1 .6 0 1.1-1.8 1.1-4.1 0-2.2.5-4.9 1-6 .7-1.2.7-3 .1-5.1-.8-3-.9-3-1.1-.8-.1 2.5-.1 2.5-1.5-.5l-1.4-3zm1.1 7.2c-.3.8-.6.5-.6-.6-.1-1.1.2-1.7.5-1.3.3.3.4 1.2.1 1.9M51 116.5c1.3 1.4 2.1 2.5 1.8 2.5-.2 0-1.5-1.1-2.8-2.5s-2.1-2.5-1.8-2.5c.2 0 1.5 1.1 2.8 2.5m44 7.9c0 .2-.6.9-1.4 1.5-1.1.9-1.6.9-2.2 0-.4-.7-.3-.9.4-.5.6.3 1.3.2 1.7-.4.6-1 1.5-1.4 1.5-.6m-4.5 5.1c.6 0 1.7-.4 2.5-.9 1-.6 1-.3-.2 1-1.6 1.7-1.6 1.9-.1 3.6.9 1 1.4 1.8 1.2 1.8-.3 0-2.1-1.7-4-3.7-1.8-2-2.7-3.3-1.9-2.7s2 1 2.5.9m6.1 4.9c0 1.4-.3 2.3-.7 2-.6-.3-.6-2.2 0-4.2.3-1 .7.2.7 2.2m-59.3 13.3c-.7.2-1.9.2-2.5 0-.7-.3-.2-.5 1.2-.5s1.9.2 1.3.5m71.4 1.9c-.3.3-1.2.4-1.9.1-.8-.3-.5-.6.6-.6 1.1-.1 1.7.2 1.3.5m-73 4c-.3.3-1.2.4-1.9.1-.8-.3-.5-.6.6-.6 1.1-.1 1.7.2 1.3.5m67 0c-.3.3-1.2.4-1.9.1-.8-.3-.5-.6.6-.6 1.1-.1 1.7.2 1.3.5m4.6.1c-.7.2-1.9.2-2.5 0-.7-.3-.2-.5 1.2-.5s1.9.2 1.3.5M47 173.6c0 .8-1.9 1.3-2.4.6-.3-.5.1-.9.9-.9s1.5.2 1.5.3m46.5 4.2c-.3.3.1 1.2.8 2.1 1.1 1.4 1 1.4-.6.2-.9-.8-1.5-1.6-1.2-1.9s-.1-1.2-.8-2.1c-1.1-1.4-1-1.4.6-.2.9.8 1.5 1.6 1.2 1.9m3.1.8c.1.9 0 1.3-.4 1-.3-.4-.7-1.4-.8-2.2-.1-.9 0-1.3.4-1 .3.4.7 1.4.8 2.2m-5.3 1.9c.4 0 .7.4.8.8.2 1.8-.9 1.6-2.7-.5-1.1-1.3-1.3-1.8-.4-1.2.8.5 1.8.9 2.3.9m-2.2 2.2c1.2 1.6 1.2 1.7-.2.6-.9-.7-2-.9-2.4-.5-.5.4-.5.1-.1-.6.9-1.6 1.1-1.5 2.7.5m-3.5 1.5c.3.4-.1.5-1 .4-.8-.1-1.8-.5-2.2-.8-.3-.4.1-.5 1-.4.8.1 1.8.5 2.2.8m-6.5.7c.7-1.1.9-1.1.9-.1 0 .7.4 1.1.9.7.5-.3 1.2-.1 1.6.4.3.6-.3.8-1.5.6-1.1-.2-2 .2-2 .8 0 .7-.4.6-1-.3-.8-1.2-1-1.2-1-.1 0 .8-.2 1.2-.5.9s-.2-1.3.2-2.4c.4-1.2.8-1.4 1.1-.5.4 1.1.6 1.1 1.3 0"/>
        <path d="M60.6 108.3c.3 1 .9 1.5 1.2 1.2s0-1.1-.7-1.8c-1-.9-1.1-.8-.5.6m36.6 8.2c-1.7 3.7-1.4 4.5.4 1.2.9-1.6 1.4-3.1 1.1-3.3-.2-.2-.9.7-1.5 2.1m3 3.5c-1.4 2.3-1.6 3.3-.3 2.5.5-.3 1.2.4 1.6 1.5.7 2.3 2 1.9 3.6-1.3l1.2-2.2-2.3 2-2.3 2 1.3-2.5c1.3-2.4 1.2-2.4-.5-1-1.6 1.4-1.7 1.3-1.1-.8.9-2.7.5-2.8-1.2-.2M40 123c1.2.8 1.2 1 .1 1-.8 0-1.2.2-.9.5s1.3.2 2.2-.1c1.4-.5 1.5-.9.4-1.5-.7-.5-1.7-.9-2.3-.9-.5 0-.3.5.5 1m43 2c0 .5.5 1 1.1 1 .5 0 .7-.5.4-1-.3-.6-.8-1-1.1-1-.2 0-.4.4-.4 1m22.4 3.2-1.9 2.3 2.3-1.9c2.1-1.8 2.7-2.6 1.9-2.6-.2 0-1.2 1-2.3 2.2m2 1c-1.9 2.1-1.9 2.1 0 1.4 1.6-.5 1.7-.4.6.9-.7.8-.8 1.5-.2 1.5.5 0 1.5-.7 2.2-1.5 1-1.2 1-1.5 0-1.5-.7 0-1-.7-.6-1.5.8-2.1.2-1.9-2 .7m1.6 4.3c-.7.8-.8 1.5-.2 1.5.5 0 1.5-.7 2.2-1.5s.8-1.5.2-1.5c-.5 0-1.5.7-2.2 1.5m-61.1 2.2c-1.3 1.6-1.2 1.7.4.4.9-.7 1.7-1.5 1.7-1.7 0-.8-.8-.3-2.1 1.3m9 1.2c-1.6 1.6-2.9 3.9-2.9 5.1 0 1.8.5 1.6 3.8-1.7 2-2.1 4.6-4.3 5.7-5 1.9-1.1 1.8-1.2-.8-1.2-1.9-.1-3.9.9-5.8 2.8m-4.9 9.6c0 .8.4 1.5 1 1.5.5 0 .7-.7.4-1.5-.4-.8-.8-1.5-1-1.5s-.4.7-.4 1.5m1 5.5c.6 1.1 1.5 2 2 2 .6 0 .5-.9-.2-2s-1.6-2-2.1-2c-.4 0-.3.9.3 2m-20.4 5.8c.6.4 1 1.5.9 2.4-.2 1.2.2 1.5 1.3 1 1.5-.5 1.5-.4.2 1.3-1.4 1.7-1.4 1.7.7.4l2.3-1.4-2.3-1.2c-1.4-.8-1.7-1.2-.7-1.3 1.3 0 1.3-.1 0-1-.8-.5-1.9-1-2.5-1s-.5.3.1.8m61.9 2.2c-.3.6.1.7.9.4 1.8-.7 2.1-1.4.7-1.4-.6 0-1.3.4-1.6 1M83 161.1c-1.4.6-6 .9-10.2.7-6.2-.2-7.4-.1-6.5 1 1.6 2 6.3 4.2 8.7 4.2 3.1 0 8.9-2.9 10.1-5.1.5-1.1.8-1.9.7-1.8-.2 0-1.4.5-2.8 1M51.5 167c2.1 2.2 4.1 4 4.4 4s-1.3-1.8-3.4-4-4.1-4-4.4-4 1.3 1.8 3.4 4m-14.1 1.2-1.9 2.3 2.3-1.9c2.1-1.8 2.7-2.6 1.9-2.6-.2 0-1.2 1-2.3 2.2M99 175c-.8.5-1 1-.5 1 .6 0 1.7-.5 2.5-1s1.1-1 .5-1c-.5 0-1.7.5-2.5 1m-37.2 15.4c-2.1 1.2-3.8 2.6-3.8 3.2 0 1.5 7.8 9.8 11.3 11.9 2.3 1.5 3.2 1.5 5.7.5 1.7-.7 3-1.7 3-2.3 0-.5-2.1-3.3-4.8-6.1-2.6-2.8-5.4-6-6.2-7.2l-1.5-2.1zM154 55.6c4.6 6.7 11.7 9.2 7.5 2.7-3.1-4.9-5.8-7.3-8.2-7.3h-2.4zm13.7-3.5c-1 .6-2.7.8-4 .5-1.2-.3-1.6-.3-.9 0 .6.3 1.2 1.2 1.2 2 0 .7 1.7 2.2 3.8 3.3s4.4 2.7 5.1 3.5c.8.9 1.9 1.6 2.6 1.6.8 0 1.5.5 1.7 1.1s1.2 1 2.1.8c3-.6-3.9-8.9-7.4-8.9-1.5 0-3.2-.6-3.8-1.4-1-1.2-.8-1.3.8-.9 1.2.3 2.1.1 2.1-.5 0-1.7-1.4-2.1-3.3-1.1M72 54c0 .5.7 1 1.6 1 .8 0 1.2-.5.9-1-.3-.6-1-1-1.6-1-.5 0-.9.4-.9 1m-9.5 1c-.3.5-.1 1 .4 1 .6 0 1.1.7 1.1 1.5 0 1.8 2 2 2 .2.1-.7.6-.5 1.4.6 1 1.2 1.6 1.5 2.1.7.4-.6.5-1.3.4-1.4-2.2-1.6-5.5-3.6-6.1-3.6-.4 0-1 .4-1.3 1"/>
        <path d="M149 57.5c0 1.4 8.5 8.5 10.2 8.5.5 0 .6.5.2 1.2s-.3.8.4.4c1.9-1.1 9.6 4 11.1 7.4 1.5 3.6 2.6 3.3 1.7-.4-.9-3.4-5.6-8.8-7.2-8.2-.8.3-1.4-.1-1.4-.9 0-.7-1.3-1.6-2.9-2-1.6-.3-4.1-1.7-5.6-3.1-1.4-1.3-3-2.4-3.6-2.4-.5 0-.9-.5-.9-1 0-.6-.4-1-1-1-.5 0-1 .7-1 1.5m-16 2c0 .9.7 1.8 1.5 2.1.8.4 1.5 1.5 1.5 2.5 0 1.2.7 1.9 1.9 1.9 1.1 0 2.3.5 2.7 1.2.5.8.2.9-.9.5-1-.3-1.7-.3-1.7.1 0 1.1 5.7 6.2 6.9 6.2.6 0 1.1.6 1.1 1.3s2 2.3 4.5 3.7c2.4 1.3 4.3 2.6 4 2.8-.2.2-1.3-.2-2.5-.8-1.2-.7-2.1-.8-1.8-.3 1.8 3.9 4.7 7.1 8 8.9 4.8 2.4 5.2 3.7 1.4 4.4l-2.9.5 4.1 2.2c4.8 2.8 5.5 2.8 4.3.5-.6-.9-1.2-2.9-1.5-4.3-.6-2.8-5.3-8.4-7-8.4-.6 0-1.1-.8-1.1-1.7 0-1.9-5.2-7.7-10.5-11.7-1.9-1.5-3.6-3.3-3.8-4.1-.9-4.2-8.2-10.8-8.2-7.5M61 61c0 1.3.7 2 2 2 1 0 2.4.8 2.9 1.7.6 1 1.1 1.4 1.1.9s.6-.4 1.3.2c.6.5 2.1.6 3.1.3 1.6-.6.9-1.3-3.7-3.9C61 58.4 61 58.4 61 61m115 6c.6 1.1 1.5 2 2 2 .6 0 .9 1.5.8 3.2-.3 3.1-.1 3.3 3.2 3.3 4.2 0 4.9-2.5 1-3.6-2.2-.5-2.3-.7-.7-1.4 1.6-.6 1.3-1.1-2-3.1-4.7-2.9-5.7-3-4.3-.4m-114 .5c0 .8.9 1.5 2 1.5 1.2 0 2 .7 2 1.7.1 1.6.2 1.6 1.2-.1.9-1.5.7-2.2-.8-3.3-2.4-1.7-4.4-1.7-4.4.2m93.9 1.2c1.2 1.8 2.4 3.3 2.7 3.3.9 0-1.5-3.7-3.3-5.1-1.2-1-1.1-.5.6 1.8M182 67c0 .5.5 1 1.1 1 .5 0 .7-.5.4-1-.3-.6-.8-1-1.1-1-.2 0-.4.4-.4 1M54.2 69.5c-1.3 1.6-.5 1.9 2.2.9.9-.3 1.6-1 1.6-1.5 0-1.4-2.4-1-3.8.6"/>
        <path d="M161 69.7c0 .5 1.7 2.4 3.8 4.4 2.1 1.9 3.6 4.1 3.4 4.7-.2.7.1 1.2.6 1.2 3 0-4.1-10.9-7-11-.5 0-.8.3-.8.7M46.7 74.2c-1.5 1.1-2.5 2.4-2.1 2.9.3.5-.3.9-1.3.9s-2.5.4-3.3 1c-1.2.7-1.1 1 .5 1.6 1.1.5 2.6 1.4 3.3 2.1 1 .9 1.9 1 3.3.3 2.4-1.3 2.5-2.4.1-1.8-1 .3-2.3-.1-3-.8-.9-1-.7-1.4.8-1.9 1.1-.4 2-1 2-1.5s.7-1.6 1.6-2.5c2.4-2.4 1.3-2.6-1.9-.3m17.2.4c-1.1 1.4-1 1.6.9 1.2 1.3-.1 2.3-.7 2.3-1.3.1-1.7-1.7-1.6-3.2.1M188 77c-1.4 1.1-4.2 2.3-6.3 2.6-2.1.4-4.1 1.3-4.4 2.1-.6 1.6 1.6 7.3 2.9 7.3.7 0 11.3-8.5 15.8-12.6 2.4-2.3-5-1.7-8 .6m12.4.2c-.2.4 0 .9.6 1.3 1.2.8 5-.3 5-1.5 0-.9-5-.8-5.6.2M60 78c-.8.5-1.2 1.2-.9 1.5.4.3 1.2-.1 1.9-1 1.4-1.7 1.1-1.9-1-.5m136.9 1.6c-.8 1.1-2.2 2.3-3.1 2.7-2 .7-2.4 2.2-.9 3.2.5.3 1.6-.3 2.3-1.4.7-1 2-2 2.9-2.2 1.1-.3 1.4-1 .9-2.3-.6-1.9-.7-1.9-2.1 0m-64.4.4c.3.5.1 1-.4 1-.6 0-1.1 1.1-1.1 2.5s.4 2.5.8 2.5 1.3 1.3 1.9 3c.6 1.6 1.9 3 2.8 3 1 0 1.5.7 1.3 1.7-.2 1.2.4 1.9 2 2.1 1.2.2 2.2 0 2.2-.3 0-.7-7.8-10.5-9.2-11.5-.4-.3-.3-1.2.2-2 1.3-2 1.2-3-.1-3-.5 0-.7.4-.4 1"/>
        <path d="M135.7 80.6c-.8.8.1 2.4 1.4 2.4.5 0 .9-.7.9-1.5 0-1.5-1.2-2-2.3-.9m34.5 1.4c-.6 1.1-1.2 2.4-1.2 3 0 1.4 2.8.1 3.5-1.7.9-2.5-.9-3.5-2.3-1.3M40 85c-1.3.8-1.2 1 .3 1 .9 0 1.7-.5 1.7-1 0-1.2-.1-1.2-2 0m134.1 1.7c1.3 1.5 1.2 1.5-.7.5s-2.1-.9-1.7 1.2c.4 1.8 1 2.3 2.6 1.9 2.1-.4 2.1-.4.4 1.1-2 1.5-1.5 6.2.4 5 .6-.3 1.3.4 1.6 1.5.7 2.7 2.7 2.2 3.1-.7.2-1.6-.1-2-1.1-1.6-.7.2-2-.3-2.8-1.2-.8-1-.9-1.5-.2-1.1.6.4 1.4.3 1.8-.2.8-1.4-2.1-8.1-3.6-8.1-.8 0-.7.5.2 1.7m34.5-.1c-.9 2.2-.8 2.4.9 2.4.8 0 1.5-.9 1.5-2 0-2.4-1.5-2.7-2.4-.4m-68.6-.1c0 1.4 3.1 6.5 4.1 6.5 1.1 0-1.5-5.5-3.1-6.5-.5-.3-1-.3-1 0m48 .5c0 .5.6 1 1.4 1s1.8-.5 2.1-1c.3-.6-.3-1-1.4-1-1.2 0-2.1.4-2.1 1M35.5 88.1c-1.1 1.7.1 2.1 1.5.4.8-.9.8-1.5.2-1.5s-1.4.5-1.7 1.1m120 1.9c-.3.6-.1 1 .5 1s.8.4.5 1c-.3.5.3 1 1.4 1 2.6 0 2.7-1.2.1-2.7-1.2-.8-2.1-.9-2.5-.3m28.5 0c-.8.5-1.2 1.2-.9 1.5.8.8 3.9-.5 3.9-1.6s-1.1-1.1-3 .1m-152.3.6c-.3.3-.3 1.3 0 2.1.5 1.2.7 1.2 1.4.1 1.5-2.3.4-4-1.4-2.2m175.3.5c0 .5.5.7 1 .4.6-.3 1-.8 1-1.1 0-.2-.4-.4-1-.4-.5 0-1 .5-1 1.1m-25 3c0 .5.5.7 1 .4.6-.3 1-.8 1-1.1 0-.2-.4-.4-1-.4-.5 0-1 .5-1 1.1m-153.3.6c-.3.5-.1 1.7.3 2.8.7 1.9.7 1.9 1.8-.1 1.1-2.1.7-3.4-.9-3.4-.4 0-1 .3-1.2.7m115.3-.5c-.1 1.7 4.3 7.8 6 8.3 1.1.3 1.7 1.1 1.5 1.8-.3.7 1.3 3.2 3.6 5.6 4.2 4.5 4.6 6.9.7 3.5-1.3-1-2-1.5-1.6-1s.3 1.5-.2 2.2c-.8.9.2 1.9 3.7 4.1 5.9 3.6 8.3 4.5 8.3 3.3 0-.6-.5-1-1.1-1s-.9-.7-.5-1.5c.3-.9-.5-2-2.2-2.9-3.6-2-1.9-2 1.8-.1 1.7.9 3 2.2 3 3.1s.5 1.2 1.1.8c1.5-.9.5-13.4-1.3-17.1-1-2-2.1-2.7-3.6-2.6-1.4.2-2.2-.3-2.2-1.2 0-.8-.9-1.9-2-2.5-1.6-.8-2-.8-2 .3 0 1.6 4 6.2 5.9 6.8.8.3 1.1 1.3.8 2.4-.5 1.9-.5 1.9-1.2-.2-.8-2.5-3.4-3.7-5.8-2.7-1.5.5-7.7-2.3-7.7-3.6 0-.8-4.9-6.6-5-5.8m21.7 18.2c-.2.6-.9 1.2-1.7 1.4-.9.3-1.1-.1-.7-1.2.5-1.2 0-1.6-1.8-1.6-1.6 0-2.5-.6-2.5-1.5 0-.8-.6-1.5-1.2-1.5-.7 0-2.4-1-3.8-2.1s.8-.3 4.7 1.8c4 2.1 7.1 4.2 7 4.7M125 96c0 .5.5 1 1.1 1 .5 0 .7-.5.4-1-.3-.6-.8-1-1.1-1-.2 0-.4.4-.4 1m83.4 1.5c-.4 1.1-.9 2.4-1.2 2.9s0 .6.6.2c.6-.3 1.3-.2 1.7.4.8 1.2 3.5 1.3 3.5.1 0-.5-.9-1.9-1.9-3.2-1.9-2.3-2-2.3-2.7-.4M211 99c0 .5-.4 1-1 1-.5 0-1-.5-1-1 0-.6.5-1 1-1 .6 0 1 .4 1 1m-72.5-1c1 1.6 1.5 5 .7 5-.4 0-2.7-1.2-5.1-2.5-5.1-2.9-6.6-2.7-2.3.3 4.2 3.1 7.8 3.7 9.8 1.8 1.5-1.6 1.5-1.8-.1-3.6-1.9-2.1-4.1-2.8-3-1m69.5 5.5c0 .8.9 1.5 2 1.5 1.4 0 2 .7 2 2.1 0 1.9-.5 2.1-4.9 1.7-6.4-.4-5.7 1.4 1.2 3 7.3 1.7 8.4 1.5 10.3-1.3 1.7-2.6 1.2-4.5-1.1-4.5-.8 0-2.9-.9-4.7-2-4-2.4-4.8-2.5-4.8-.5m-30.3.9c-.7 1.9 0 2.5 2.4 1.9 1.1-.3 1.8-1.1 1.6-1.7-.6-1.7-3.4-1.9-4-.2m53.4.9c-1.3 1.6-.5 2.7 2.1 2.7 2 0 2.1-.1 1.2-2.4-.7-2-1.8-2-3.3-.3m-45.7 3.3c.3.9.6 1.9.6 2.4 0 1.1 5.6 2.3 6.9 1.5.6-.3.8-1.2.5-2-.4-.8-1-1.2-1.5-.9-.6.3-2.1-.1-3.4-1-3.1-2-3.9-2-3.1 0m40.9-.9c-1 .4-.9.8.1 1.9 1.4 1.4 4.6 1 4.6-.6 0-1-3.1-1.8-4.7-1.3m-47.9 2.9c.6 1.3 1.9 2.4 2.9 2.4s1.6.4 1.2.9c-.8 1.3 1 2.2 2.9 1.5 2.4-.9 2-2.1-1.3-4-1.7-1-2.8-2-2.6-2.3s-.7-.7-1.9-.7c-2.1-.2-2.2.1-1.2 2.2m16.6-1c0 1.1.8 1.4 2.5 1.2 3.5-.4 3.6-2 .3-2.4-2-.2-2.8.2-2.8 1.2m26 2.2c0 1.5.5 1.9 2 1.5 2.4-.6 2.1-2.6-.3-3.1-1.1-.2-1.7.3-1.7 1.6m-39.8 5.1c.4 1.3 1.8 1.6 1.9.4 0-.4-.5-.9-1.1-1.2-.7-.2-1.1.2-.8.8m8.9.3c-3 .8-3.2 1.1-2.6 4.1.4 1.8 1.4 4.5 2.1 6.2.8 1.6 1.2 2.2.9 1.2-.6-2.1 1.7-7.1 4.7-10.4 2-2.1 2-2.2.1-2.1-1 .1-3.4.6-5.2 1m16.6.2c.4.5-.1.7-1 .3-.9-.3-1.9-.2-2.2.4-.4.5-1.1.7-1.6.4-.5-.4-.9-.2-.9.4s.9 1.5 2 2.1c1.5.8 2.1.6 3-1 .7-1.4 1.7-1.9 2.9-1.5.9.3 2.6-.1 3.6-.9 1.7-1.2 1.5-1.3-2.2-1.2-2.3 0-3.9.5-3.6 1m-53.7 2.7c0 1 .9 2.3 2 2.9 1.7.9 2 .8 2-1.3 0-1.6-.7-2.6-2-3-1.5-.4-2 0-2 1.4m7 4.9c2.4 3.4 3.8 3.8 4.7 1.4.7-1.9-2.1-4.4-5-4.4-1.7 0-1.7.2.3 3m-5 2.5c0 .8.9 1.9 2 2.5 1 .6 1.7 1.6 1.5 2.3-.6 1.4 3 7.7 4.3 7.7.5 0 .7 1.1.5 2.3-.3 1.4.2 3.1 1.2 4 .9 1 1.2 1.7.6 1.7s-1.1.8-1.1 1.9c0 2.1 2.7 4.8 3.7 3.7.4-.4.1-1.1-.6-1.5-.9-.6-1.1-1.8-.7-3.6.4-1.7.3-3.1-.4-3.5-.6-.4-1.1-1.8-1.2-3.1-.1-3.2-1.9-6.9-3.4-6.9-.6 0-1.5-.7-1.8-1.6-.4-1.2-.2-1.5.9-1 1.2.4 1.3.2.5-1.2-2.8-4.9-6-6.9-6-3.7m40.3.4c.3 1.3-.1 2.1-1.5 2.4-1.1.3-1.7 1-1.4 1.6.4.6-.9 1.7-2.9 2.5-3.3 1.4-4.1 3.6-1.3 3.6 1.4 0 10.8-9.6 10.8-11 0-.5-1-1-2.1-1-1.6 0-2 .5-1.6 1.9m4.2 9.6c-.8 2.1-1.3 4-1 4.3.7.7 1.6-.3 1.9-2 .2-.7.6-2.1 1.1-3.1.4-1 .5-2 .2-2.4-.3-.3-1.3 1.2-2.2 3.2m-48.9-.6c-.3.5.6 1.6 2 2.6 2.5 1.6 2.5 1.6 1.5-.4-1.4-2.5-2.8-3.4-3.5-2.2m7.4 4c0 .6.4 1.3 1 1.6s.7-.1.4-.9c-.7-1.8-1.4-2.1-1.4-.7"/>
        <path d="M156 143.4c0 .3.5 1.7 1.1 3.3.7 1.5 1.3 3.5 1.4 4.3s.2 2.2.3 3c.1.9 1.8 2.4 3.7 3.4 1.9 1.1 3.3 2.1 3.1 2.3-.2.3-1.6-.3-3-1.2-3-2-3.5-.6-.6 2 2.4 2.2 4.7 1.4 5.6-2.1.8-3-1.2-5-3.3-3.2-.9.7-1.6.3-2.4-1.6-.7-1.4-1.6-2.6-2.1-2.6s-.6-.4-.3-1c.3-.5-.1-2.3-1-4-1.4-2.7-2.5-3.8-2.5-2.6m41 2.3c0 2.2.2 2.5 1 1.3 1.3-2 1.3-4 0-4-.5 0-1 1.2-1 2.7m-1 5.5c0 1.9.2 2 1 .8 1.3-1.9 1.3-3 0-3-.5 0-1 1-1 2.2m.2 4.8c0 1.4.2 1.9.5 1.2.2-.6.2-1.8 0-2.5-.3-.6-.5-.1-.5 1.3m-15.1 4.8c-.9 1.8-.8 2.3.8 3.2 4.2 2.2 5.2 1 2.2-2.9l-1.9-2.4zm5.9 1c0 1.3 6.6 8.2 7.8 8.2.6 0 1-2.1.9-4.8 0-2.6-.2-3.7-.4-2.5-.5 2.8-1.7 2.9-5.4.2-1.6-1.1-2.9-1.6-2.9-1.1m-9.5 7.2c-.4.6.6 1 2.2 1 2.2 0 2.5-.2 1.3-1-1.9-1.2-2.7-1.2-3.5 0m7 .1c-.7 1.1.4 1.5 5 1.8 2.8.1 3.7-.1 3-.8-1.4-1.4-7.4-2.1-8-1m-45.5 8.2c0 1.4.7 2.7 1.5 3.1 1 .3 1.5-.1 1.5-1.3 0-1-.7-2.4-1.5-3.1-1.3-1.1-1.5-.9-1.5 1.3m13.6 2.6c-.7 1 2.2 3.7 3 2.8.9-.8-.3-3.7-1.5-3.7-.5 0-1.2.4-1.5.9m-13.6 3.6c0 1.7.5 2.5 1.3 2.2.6-.2 1.2-1.2 1.2-2.2s-.6-2-1.2-2.3c-.8-.2-1.3.6-1.3 2.3m20.1-.9c0 1.1.3 1.4.6.6.3-.7.2-1.6-.1-1.9-.3-.4-.6.2-.5 1.3m6.5-.7c-.4.5-.2 1.2.3 1.5.5.4 1.2.2 1.5-.3.4-.5.2-1.2-.3-1.5-.5-.4-1.2-.2-1.5.3m-16.9 2c.7 2.6 4.8 4.4 6.2 2.7 1.4-1.6-1.4-4.2-4.5-4.4-1.6 0-2.1.4-1.7 1.7"/>
        <path d="M142.7 186.2c-1.5 1.5-2.1 1.7-3.3.7-2-1.6-5 .7-3.3 2.7.8 1 .5 1.3-1.7 1.1-3-.2-4.5 1.9-2 2.9.9.4 2.8-.5 4.6-1.9 1.6-1.4 4.6-3.1 6.5-3.8s3.4-1.8 3.2-2.3c-.6-1.7-2.1-1.5-4 .6m16 2.7c-2.6 2.7-4.4 5.2-3.9 5.5s1.9-.6 3-1.9c1.2-1.4 2.7-2.5 3.3-2.5s.8-.7.5-1.6c-.4-1.2-.2-1.5.9-1.1 1.7.7 2.7-.4 1.6-2.1-.4-.8-2.3.5-5.4 3.7m-9.7-.5c-.7.9-.8 1.6-.2 1.6.5 0 1.2.7 1.6 1.5.4 1.2 0 1.4-1.9.9-2.8-.7-3-.2-1.5 2.7 1.6 2.8 2.8 2.3 4.5-1.8 1.3-3.1 1.3-3.9.2-5-1.2-1.2-1.6-1.2-2.7.1m2.5 7.6c-.9 1.5.4 3 2.6 3 2.3 0 2.6-2.5.3-3.4-2.1-.8-2.2-.8-2.9.4m-6.5 3.1c0 2.7.2 3 1.5 1.9 1.5-1.2 1.6-1.1 1.9 1.2.1 1.2.8 1.4 3.6.9 2.2-.3.7-2.7-3-4.9l-4-2.3z"/>
    </g>
</svg>
