<?xml version="1.0" standalone="no"?>
<!DOCTYPE svg PUBLIC "-//W3C//DTD SVG 20010904//EN"
 "http://www.w3.org/TR/2001/REC-SVG-20010904/DTD/svg10.dtd">
<svg version="1.0" xmlns="http://www.w3.org/2000/svg"
 width="151.000000pt" height="92.000000pt" viewBox="0 0 151.000000 92.000000"
 preserveAspectRatio="xMidYMid meet">
<metadata>
Created by potrace 1.16, written by Peter Selinger 2001-2019
</metadata>
<g transform="translate(0.000000,92.000000) scale(0.100000,-0.100000)"
fill="#e5e5e5" stroke="none">
<path d="M430 850 l0 -70 30 0 30 0 0 70 0 70 -30 0 -30 0 0 -70z"/>
<path d="M971 905 c-191 -42 -331 -188 -362 -376 -37 -230 110 -455 336 -514
187 -48 388 31 495 197 53 81 74 165 68 275 -3 76 -9 98 -40 163 -37 77 -111
161 -176 200 -89 54 -221 77 -321 55z m262 -83 c257 -127 303 -471 89 -664
-125 -112 -319 -131 -466 -44 -60 35 -133 118 -164 184 -23 50 -26 70 -27 162
0 98 2 110 31 170 36 74 93 137 159 176 74 43 122 54 221 51 79 -2 100 -7 157
-35z"/>
<path d="M1064 817 c-2 -7 -3 -87 -2 -177 l3 -165 179 -3 179 -2 -6 48 c-18
150 -150 280 -310 305 -26 4 -40 2 -43 -6z"/>
<path d="M226 855 c-17 -13 -17 -16 14 -69 35 -62 33 -60 61 -46 19 10 18 13
-13 70 -18 33 -35 60 -38 60 -3 -1 -13 -7 -24 -15z"/>
<path d="M647 833 c-48 -76 -49 -81 -28 -93 28 -14 26 -15 60 40 37 59 37 62
11 78 -18 11 -22 8 -43 -25z"/>
<path d="M62 690 c-6 -11 -12 -22 -12 -24 0 -3 25 -19 56 -36 53 -31 56 -31
69 -14 8 11 15 21 15 24 0 4 -78 52 -110 68 -3 1 -11 -7 -18 -18z"/>
<path d="M355 667 c-94 -45 -141 -131 -133 -240 12 -148 150 -251 292 -218 54
13 59 21 42 68 -39 110 -39 265 0 358 18 43 11 47 -80 52 -60 3 -79 0 -121
-20z"/>
<path d="M0 455 c0 -24 2 -25 65 -25 63 0 65 1 65 25 0 24 -2 25 -65 25 -63 0
-65 -1 -65 -25z"/>
<path d="M103 280 c-57 -33 -59 -36 -40 -62 12 -15 17 -14 65 14 56 32 58 36
40 61 -12 15 -17 14 -65 -13z"/>
<path d="M240 127 c-16 -28 -30 -54 -30 -57 0 -6 41 -33 44 -28 14 19 56 99
56 105 0 4 -9 14 -20 21 -18 11 -22 7 -50 -41z"/>
<path d="M626 157 c-18 -13 -18 -16 9 -60 33 -57 35 -59 59 -41 19 13 19 15
-7 61 -29 54 -36 58 -61 40z"/>
<path d="M435 112 c-3 -3 -5 -29 -5 -59 0 -52 0 -53 30 -53 l31 0 -3 57 c-3
50 -5 57 -26 58 -12 1 -24 -1 -27 -3z"/>
</g>
</svg>
