<?xml version="1.0" standalone="no"?>
<!DOCTYPE svg PUBLIC "-//W3C//DTD SVG 20010904//EN"
 "http://www.w3.org/TR/2001/REC-SVG-20010904/DTD/svg10.dtd">
<svg version="1.0" xmlns="http://www.w3.org/2000/svg"
 width="100.000000pt" height="97.000000pt" viewBox="0 0 100.000000 97.000000"
 preserveAspectRatio="xMidYMid meet">
<metadata>
Created by potrace 1.16, written by Peter Selinger 2001-2019
</metadata>
<g transform="translate(0.000000,97.000000) scale(0.100000,-0.100000)"
fill="#e5e5e5" stroke="none">
<path d="M284 906 c25 -36 48 -72 53 -81 8 -13 17 -9 56 31 26 26 47 48 47 50
0 2 -18 4 -40 4 -25 0 -63 11 -100 30 l-60 30 44 -64z"/>
<path d="M703 940 c-38 -22 -65 -30 -100 -30 l-47 0 48 -49 49 -50 48 69 c55
81 61 90 57 90 -2 0 -26 -14 -55 -30z"/>
<path d="M84 854 c22 -27 41 -51 43 -53 5 -7 157 -30 162 -25 3 2 -12 21 -32
42 -29 30 -52 41 -109 56 -40 10 -80 21 -88 24 -8 3 3 -16 24 -44z"/>
<path d="M401 799 l-95 -99 -101 0 c-76 0 -106 4 -123 16 -13 9 -25 14 -27 12
-6 -6 439 -708 447 -705 5 1 364 561 453 706 5 9 -5 6 -27 -7 -30 -19 -50 -22
-136 -22 l-101 0 -93 100 c-51 55 -95 99 -98 99 -3 -1 -48 -46 -99 -100z m184
-59 l80 -80 96 0 97 0 -122 -192 c-67 -106 -147 -232 -177 -280 -30 -48 -56
-88 -59 -87 -6 0 -344 538 -348 553 -2 8 28 10 90 8 l93 -3 80 81 c44 44 82
80 85 80 3 0 41 -36 85 -80z"/>
<path d="M436 694 l-59 -63 -83 -3 -83 -3 142 -227 c78 -125 144 -228 147
-228 4 0 280 432 288 452 2 4 -35 8 -81 8 l-85 0 -58 65 c-32 36 -60 64 -63
64 -4 -1 -32 -30 -65 -65z"/>
<path d="M856 876 c-66 -19 -85 -29 -113 -61 -18 -21 -32 -39 -31 -40 5 -4
153 20 163 27 16 10 77 98 68 97 -4 0 -44 -11 -87 -23z"/>
<path d="M86 284 c-43 -69 -77 -127 -74 -129 3 -3 195 16 280 28 14 2 5 22
-46 106 -35 56 -68 107 -73 112 -5 5 -43 -46 -87 -117z"/>
<path d="M766 301 c-36 -60 -66 -111 -66 -113 0 -3 53 -10 118 -17 64 -6 132
-14 149 -17 l33 -5 -62 98 c-33 54 -70 113 -80 131 -11 17 -21 32 -23 32 -2 0
-33 -49 -69 -109z"/>
</g>
</svg>
