<svg xmlns="http://www.w3.org/2000/svg" width="341.333" height="341.333" version="1.0" viewBox="0 0 256 256">
    <path fill="#e5e5e5" d="M53.3 62.5c-17.8 3.9-33.9 17.1-42.7 35-5.6 11.3-7 18.2-7 33 0 11.6.3 13.9 2.8 21 3.8 10.9 8.4 18.1 16.5 25.7 13 12.3 27.7 17.4 47.4 16.5 17.1-.8 29.2-5 41.1-14.3 9.3-7.4 13.9-14.3 26.8-40.4 13.9-28.2 19.1-36.6 25.9-42 7.6-6 14.8-8.3 24.4-7.8 10.1.5 17.4 3.7 24.9 10.8 17.1 16.2 17.9 42.8 1.8 58.9-11.5 11.5-29.8 15.1-44 8.6-5.7-2.6-15.3-11.2-19.7-17.5-1.5-2.2-3.1-3.7-3.5-3.5-.5.3-3.1 4.8-6 10.1l-5.1 9.6 2.5 3.8c6.4 9.7 18.6 19 31.4 23.8 5.8 2.2 8.2 2.6 18.7 2.6s12.9-.4 18.7-2.6c23-8.7 38.6-27.6 43.4-52.4 7.2-37.9-15-71.1-52.8-78.8-19.5-4-36.9.3-50.2 12.4-7.4 6.9-14.3 17.4-26.6 41-15.2 29-18.6 34.4-26.6 42-9.5 9-15.5 11.4-27.4 10.8-10.4-.5-17.4-3.5-25.5-10.9-17.4-16-16.8-43.3 1.5-60.2 18.9-17.5 47.6-12.6 61.9 10.6 1.2 2 2.6 3.5 3.1 3.2.4-.2 3.1-4.5 5.9-9.5l5.1-9.1-2.9-4.3c-1.7-2.4-6.2-7.3-10-10.8-15-13.9-34.6-19.5-53.8-15.3"/>
</svg>
