<svg xmlns="http://www.w3.org/2000/svg" width="341.333" height="341.333" version="1.0" viewBox="0 0 256 256">
    <g fill="#e5e5e5">
        <path d="M110.3 18.2c-4.9 7.9-5.6 13.8-1.4 13.8 1.9 0 5.1 2.9 5.1 4.7 0 .6 2.1 2.7 4.6 4.8 3.3 2.7 4.8 3.5 5.6 2.7.9-.9.7-1.7-.5-3-.9-1-1.7-3.2-1.7-4.8 0-2.5-.6-3.2-3.4-4.2-4.5-1.7-6.9-5.5-6.8-10.9 0-4.6-.2-5.1-1.5-3.1m33.8 1.3c.1 1.6.1 4 .1 5.2-.2 2.7-5.7 8.3-8.3 8.3-1.5 0-1.9.7-1.9 3.2 0 1.7-.8 4-1.7 5-1.2 1.3-1.4 2.1-.5 3 .8.8 2.3 0 5.6-2.7 2.5-2.1 4.6-4.3 4.6-5 0-1.7 3.3-4.5 5.3-4.5 3.2 0 3.6-3 1.2-8.3-3.1-6.6-4.7-8.2-4.4-4.2M103 33.4c0 .7.7 1.9 1.5 2.6s1.5 2.1 1.5 3.1c0 1.1 1.4 2.5 3.3 3.5 1.7.9 5.1 3.1 7.5 4.7 4.1 3 4.3 3.3 3.7 6.9-.5 3-.4 3.8.9 3.8.9 0 1.3-.6 1-1.4s.2-2.6 1.1-3.9c1.6-2.5 1.5-2.6-4.4-7.7-3.2-2.9-6.4-6.3-6.9-7.5-.6-1.3-2.5-3-4.3-3.9-3.9-2-4.9-2-4.9-.2m47-.4c-.8.5-2.3 1.1-3.3 1.4-.9.3-2 1.4-2.4 2.3-.3 1-3.5 4.6-7.2 7.9-6.5 6.1-6.6 6.2-4.7 8.2 1 1.2 1.6 2.8 1.3 3.6-.4.9-.2 1.8.4 2.1 1.5 1 2.3-2.6 1.1-4.6-1.4-2.2-.5-3.3 8.3-9.1 3.7-2.4 6.5-4.9 6.5-5.9 0-.9.7-2.2 1.5-2.9 1.5-1.3 2.1-4 .8-3.9-.5 0-1.5.4-2.3.9m-55.2 6.7c-1.2 2.5-1.9 2.8-7.6 3.3-5.8.5-6.7.9-9.8 4.2-4.1 4.5-3.6 8.1 1.2 8.6 7.1.8 7.4 9.4.9 23.7-3.3 7.3-22.2 55.6-22.8 58.5-.4 1.6-4.5 5.9-10.9 11.4-5.7 4.9-10.4 9.2-10.6 9.6-.2.6 4.4 9.1 6.4 11.9.2.2 15.2-4.9 21.6-7.4 2-.8 1.6.4 16.3-51.5 14.4-50.3 14.1-49.5 17.1-51.4 2.9-1.9 2.9-3.2.7-10.3-1.4-4.4-1.5-6-.5-8.6 1.5-4.1-.1-5.9-2-2m63.9.5c1.1 3.3.9 7.6-.7 13-1.4 4.8-1.4 4.8 1.7 8 3.2 3.4 4.5 7.4 17.3 52.8 9.8 34.7 13.3 46.6 14.1 48.1.7 1.3 20 8.9 22.7 8.9.7 0 7.2-10.2 7.2-11.3 0-.2-4.7-4.6-10.5-9.7-6.6-5.8-10.8-10.2-11.1-11.9-.4-1.4-2.6-7.3-4.9-13.1s-7-17.7-10.5-26.5c-3.4-8.8-6.8-17.4-7.5-19-3.6-8-4.5-11.1-4.5-15.4.1-5.7 1.8-8.1 5.7-8.1 2.5 0 3.2-.5 3.5-2.4.4-1.9-.5-3.4-3.6-6.5-3.9-3.8-4.6-4.1-9.7-4.1-5 0-5.7-.3-6.7-2.5-1.5-3.2-3.7-3.4-2.5-.3m-32 5.4c-1.4 1.5-.6 3.4 1.4 3.4 1.4 0 1.9-.5 1.7-1.7-.3-1.8-2-2.7-3.1-1.7"/>
        <path d="M108.3 50.1c2 1.1 3.7 2.2 3.7 2.5 0 .2-1 1.8-2.2 3.5-2.2 2.9-2.2 3.1-.5 7.8 2.1 6.1 2.2 11.8.1 15.9-1.6 3.3-1.6 7.7 0 7.7.5 0 1.3-1.4 1.8-3 .4-1.7 1.8-5 3.2-7.5 3.2-6.1 5.3-15.7 3.8-17.2-.7-.7-1.2-2.9-1.2-4.9 0-4.7-2.8-6.9-8.5-6.9l-4 .1zm33.7-.8c-1.9 1-2.6 2.2-2.8 5.2-.2 2.2-.8 4.5-1.4 5.2-1.7 2 1.7 15.9 4.7 19.3.7.8 1.7 3.1 2.2 5s1.3 3.5 1.9 3.5c1.6 0 1.6-4.4 0-7.7-2.1-4.1-2-9.8.1-15.9 1.7-4.7 1.7-4.8-.5-7.2-3-3.2-2.8-4.4 1.3-6.1 1.9-.8 3.5-1.7 3.5-2 0-1.1-6.5-.6-9 .7m-74.9 8.1c-2.6 2.6-3.2 4-2.7 5.8.4 1.6-2.2 8.9-8.8 24.8l-9.4 22.5-.5 12.7-.5 12.8-5.1 5.6c-4.1 4.4-5.1 6.3-5.1 9 0 1.9.5 3.4 1 3.4.6 0 4.8-3.7 9.4-8.3l8.4-8.2.1-8.5c.1-4.7.6-10.1 1-12 .7-3 6-16.7 9.1-23.5 3.5-7.8 4-9.9 3-13-.9-2.9-.6-4 3.9-12.1 4.7-8.3 4.9-8.9 3.1-9.6-1.1-.4-2-1.7-2-2.8 0-2.8-1.1-2.5-4.9 1.4M184 56.1c0 1.2-.8 2.3-2 2.6-1.1.3-2 .6-2 .8 0 .1 2.3 4.2 5.1 9.1 4.9 8.4 5.1 9.1 3.9 12.3-.9 2.4-.9 3.9-.2 5.5 2.2 4.4 12 29.2 12.6 31.6.3 1.4.6 6.3.7 11l.2 8.5 8.5 8.7c4.7 4.9 8.9 8.8 9.4 8.8.4 0 .8-1.6.8-3.4 0-2.7-1.1-4.9-5.1-9.6l-5.1-6.2-.5-12.6-.5-12.7-8.6-20.5c-4.7-11.3-8.9-21-9.4-21.7-.6-.7-.7-2.6-.3-4.4.6-2.6.2-3.6-2.6-6.5-3.8-3.9-4.9-4.2-4.9-1.3"/>
        <path d="M73.4 68.4c-4.7 9.1-5.3 12.4-1.8 9.5 1.4-1.1 1.8-1.1 2.9.4.7.9 1.5 1.7 1.7 1.7.3 0 1.5-2.4 2.6-5.3 3.5-9 3.8-15.7.7-15.7-.7 0-3.4 4.2-6.1 9.4m102.3-8.7c-1.4 1.3-.6 9 1.5 15 2.3 6.6 3.3 7.6 4.3 4.3.7-2.3 1.6-2.5 3.3-.8.6.6 1.5.8 1.9.4.8-.8-8.6-19.6-9.7-19.6-.4 0-1 .3-1.3.7M106 74.2c-2.6 3.9-4.7 4.7-6.8 2.6-.6-.6-1.5-.8-1.9-.4-1 1 3.4 4.6 5.6 4.6 2.1 0 6.4-6.3 5.9-8.7-.3-1.4-.9-1-2.8 1.9m41-1c0 2.9 4 7.8 6.2 7.8 2.7-.1 5.8-2.2 5.8-4 0-.9-.7-.8-2.5.4-3.2 2.1-3 2.2-5.5-1.9-2.2-3.5-4-4.6-4-2.3m-20.5 26.5c-.3 9.3-1 25.7-1.5 36.6-.7 15.9-.6 22.3.6 32 2.1 17.4 2.7 17.3 4.8-.3.8-6.9 1.3-15.7 1.1-19.5-.6-8.2-2.5-55.8-2.5-61.5 0-2.2-.4-4-.9-4s-1.2 7.5-1.6 16.7m-94.6.8-2.3 4.5 1.8 17.7c.9 9.8 2.2 18.2 2.7 18.8.6.6 2-.1 3.9-2 2.8-2.9 2.9-3.4 3.8-16.9l.9-13.9-3.6-6.3c-2-3.5-3.9-6.4-4.3-6.4s-1.7 2-2.9 4.5m79.5-1.8c-.6 1-3 5.4-5.4 9.8-2.3 4.4-5.7 10.7-7.5 14-3.6 6.7-5.2 13.5-3.1 13.5 1.5 0 4.7-6.3 11.4-22.5 5-12.2 6.6-16.5 6-16.5-.2 0-.8.8-1.4 1.7m105.3 4.2-3.5 5.8 1 13.9c.9 13.4 1.1 14 3.9 16.9 1.9 1.9 3.2 2.6 3.9 1.9.5-.5 1.7-8.9 2.6-18.7 1.7-17.2 1.7-17.8-.2-21.7-1-2.2-2.4-4-3-4-.7 0-2.7 2.6-4.7 5.9m-72.8-2.3c.5 1.6 3.6 9.3 6.9 17 8.1 19.2 11.1 23.4 10.3 14.8-.1-2.1-3.6-9.6-8.2-18.2-8.4-15.5-10.5-18.6-9-13.6m25.6 85.6c-.2 1.3-.6 3.6-.7 5.3l-.3 3 19.5.3c18.7.3 25.5-.4 28.4-2.9.5-.5-.5-2.3-2.5-4.4l-3.4-3.5h-20.2c-20.2 0-20.3 0-20.8 2.2m42 2.4 1.7 2.7-2.5-1.9c-1.4-1.1-2.3-2.2-2-2.7.7-1.1.9-.9 2.8 1.9"/>
        <path d="M215 194.5c-2.2.9-8.1 1.4-16.2 1.4-7.4.1-12.9.5-13.3 1.1s.4 2.9 1.7 5.3l2.3 4.2 11.5.3c8.4.2 13.2-.1 17.7-1.3 3.5-1 8.6-1.5 11.7-1.3 3.1.1 5.6-.1 5.6-.5 0-.5-1.9-3.1-4.2-5.8-3.9-4.6-4.4-4.9-8.7-4.8-2.5 0-6.2.7-8.1 1.4m-113 1.9c0 2 1.9 3.1 3.3 1.7.7-.7 1.4-.7 2.3-.1 1.6 1.4 34.4.9 34.4-.5 0-.6-6.7-1.1-17.6-1.2-9.7-.1-17.9-.4-18.2-.7-1.1-1.2-4.2-.6-4.2.8m42.2.3c.4 2.2 4.3 2.5 4.3.3 0-.8-1.1-1.6-2.3-1.8-1.9-.3-2.3 0-2 1.5m-115.8 13c-5.3 7.6-10.3 14.3-11 14.9-1.9 1.5-1.8 6.1.2 6.8.9.3 13.4.6 27.8.6 22.4 0 27.7-.3 35.7-2 5.2-1.1 10.4-2 11.7-2 1.9 0 2.2-.5 2.2-4v-4.1l-27 .3c-14.9.2-27-.1-27-.5s2.6-5.2 5.7-10.7l5.7-10 24.1-.2c15.4-.2 23.9-.7 23.8-1.3-.2-.6-11.7-1.1-31.3-1.3l-30.9-.2zm29.8 20c-7.2.2-19.2.2-26.5 0-7.2-.1-1.3-.3 13.3-.3s20.5.2 13.2.3"/>
        <path d="M150.7 196.6c-1.7 1.7 1.2 2.4 9.8 2.4h9.4l3.1 9.7c1.6 5.4 3 10.1 3 10.5s-4.8.9-10.7 1l-10.8.3.1 3.5v3.5h11.5c6.9 0 11.4-.4 11.5-1 0-.6.3-1.7.7-2.5.3-.8.7-2.2 1-3 .2-.8.4 1.4.3 5-.1 5.5.3 7 2.3 9.7 4.1 5.4 6.8 4.1 8.5-4l.6-2.7h19.4c15.9 0 19.6.3 20.6 1.5.7.8 1 2.2.6 3-.3.8-.1 1.5.5 1.5.5 0 1.4-1.2 2-2.6.7-2.1.6-3.1-.7-4.6-1.6-1.7-3.3-1.8-25.3-1.6l-23.6.3-.3 3.7c-.2 2.1-.8 3.8-1.3 3.8-.8 0-.5-2.9.7-6.8.2-.7-.6-3.3-1.7-5.7-2.3-4.9-1.9-6.5 1.7-6.5 2.9 0 2.9.3.4-5.5-1.1-2.6-2-5.6-2-6.8.1-1.2 1 .3 2 3.3 1.1 3 2 5.6 2 5.7 0 .2.5.3 1 .3 1.6 0 1.2-4.6-.7-8.7-3.5-7.5-3.1-7.3-19.9-7.3-8.3 0-15.4.3-15.7.6"/>
        <path d="M55.2 202.2c-.8 1.1-5.7 10.2-7 13-.2.5 27.4.8 61.3.8 58.4 0 61.7-.1 61-1.8-.3-.9-1.3-4.3-2.2-7.5l-1.6-5.7h-55.2c-43 0-55.5.3-56.3 1.2m164.3 4.8c-1.1.5-8.2.9-15.8.9l-13.7.1-1.1 2.7c-.5 1.4-.8 3.2-.5 4 .4.9-.5 1.3-2.9 1.3-4 0-4.1.4-2 5.4l1.5 3.6h22.5c12.4 0 22.5-.3 22.5-.8 0-.4-1.1-2.4-2.5-4.5l-2.6-3.7-17.2-.2-17.2-.2 16.5-.4c16.7-.3 21 .1 21 1.8 0 1.2 5.5 9.4 7.5 11 1 .8 1.3 2.1.9 3.7-.6 2.1-.3 2.4 1.2 2.1 2.6-.4 3-4.5.8-7-1-1.1-2.3-3.4-2.9-5.1-.5-1.7-2-3.7-3.3-4.3l-2.3-1.1 2.5-1.9c1.4-1.1 2.9-3.4 3.2-5.2l.7-3.2-7.4.1c-4.1 0-8.3.4-9.4.9M97.7 220.6c-.4.4-.7 2.2-.7 4.1 0 2.9.3 3.3 2.5 3.3 2.3 0 2.5-.3 2.2-3.7-.2-3.6-2.2-5.4-4-3.7m6.5.6c-.6.7-.8 2.5-.5 4l.5 2.8h40.6l.5-2.8c1-5 0-5.2-20.8-5.2-14.2 0-19.5.3-20.3 1.2m43.5-.5c-.2.4-.4 2.4-.3 4.3.1 2.8.5 3.5 2.1 3.5 1.7 0 2-.7 2-4 0-2.9-.4-4.1-1.7-4.3-.9-.2-1.8.1-2.1.5m49.7 10.1c-4.9.3-5.2.5-5.8 3.4-.8 4.3.2 5 6.4 4.6 5-.3 5.4-.5 6.2-3.3 1-4-.5-5.1-6.8-4.7"/>
        <path d="M219.9 230.5c-.1 0-.3.9-.4 2s-.5 3-.9 4.2c-.7 2.2-.5 2.3 4.4 2.3 4.6 0 5.1-.2 6.1-2.8 1.8-4.6 0-5.7-9.2-5.7m-13.7 2.2c.1 1-.2 2.8-.6 4-.7 2.2-.5 2.3 4.7 2.3 5.3 0 5.6-.1 6.6-3.1.6-1.7.8-3.5.5-4s-2.9-.9-5.9-.9c-4.5 0-5.4.3-5.3 1.7"/>
    </g>
</svg>
