<svg xmlns="http://www.w3.org/2000/svg" width="341.333" height="341.333" version="1.0" viewBox="0 0 256 256">
    <g fill="#e5e5e5">
        <path d="M148.5 21c-1.9 2.1-1.8 2.2 16.2 20.2 15.7 15.7 18.4 18 19.7 16.9.9-.8 1.6-1.9 1.6-2.5s-8-9.1-17.8-18.9l-17.8-17.8zm-7.3 7.3-3.3 3.4 3.5 7.6c3.8 8.4 8.6 21.7 8.6 23.9 0 .8-12.6 13.9-28 29.2l-28 27.8 14.7-.7 14.8-.7 21.2-21c19.8-19.8 21.1-21.3 20-23.5-.8-1.9-.7-2.9 1-5.1 1.6-2.1 2.9-2.7 6.2-2.8 4-.1 8.1-2.5 8.1-4.8 0-.6-8-9.1-17.8-18.9L144.4 25zm46.7 32.3c-1.1 1.3.6 3.4 12.1 14.9 12.7 12.8 13.5 13.4 15.2 11.8 1.8-1.6 1.3-2.3-11.4-15C196.5 65 190.2 59 189.9 59c-.4 0-1.2.7-2 1.6m-7.2 7.2c-1.5 1.6-2.7 3.9-2.7 5.4 0 3.1-4.5 7.2-7.1 6.5-1.1-.3-3.7 1.6-7.3 5.2l-5.6 5.7 3 2.2c1.6 1.3 3 3 3 4 0 .9-2.5 4.2-5.7 7.4-6.9 6.9-6.4 8.3 2.6 8.2l6.1-.1 8.8-8.5c11.5-11.2 16.4-12.8 25.6-8.1 2.7 1.4 3 1.4 6-1.6l3.1-3.1-13-13c-7.1-7.2-13.2-13-13.5-13-.4 0-1.8 1.3-3.3 2.8"/>
        <path d="M134.3 114.2c-24.6 24.6-24.3 22.5-3.8 22.7l12 .1 11-11.1 11-11-4.7.2c-3.9.2-5.2-.2-7.3-2.1l-2.5-2.4 5.5-5.6c5.8-5.9 6.9-9.2 3.6-11-1.1-.5-2.3-1-2.7-1-.5 0-10.4 9.6-22.1 21.2"/>
        <path d="M165.2 119.3c-5 5.1-9.2 9.5-9.2 9.9 0 .3 1.1.9 2.5 1.2 2.8.7 4.9 3.9 4.1 6.4-.4 1-2.8 3.9-5.4 6.5l-4.8 4.8-16.5-1.1c-9-.5-19-1.2-22.1-1.5l-5.8-.5v7.8l16.8.7 16.7.7 5.7 6.2c3.2 3.3 5.8 6.4 5.8 6.8 0 .5 1.1.8 2.5.8 2.3 0 2.5-.4 2.5-4.3 0-4.2.4-4.7 10.4-14.5 10.1-10 10.4-10.2 14.9-10.2 2.6 0 6.7.7 9.3 1.6 4.7 1.6 4.7 1.6 7.3-1l2.6-2.6-13.5-13.5c-7.4-7.4-13.7-13.5-14-13.5s-4.7 4.2-9.8 9.3m-55.7 4.4c-3.2.3-5 1.4-9.3 5.6-5 4.9-5.2 5.2-3 5.9 6.8 1.9 9.1 1.1 15.8-5.7 7.2-7.2 7.4-6.8-3.5-5.8m-14 1.3c-1.1.4-4 2.9-6.5 5.4l-4.4 4.6h3c2.3 0 4.2-1.3 8.4-5.5s5-5.5 3.5-5.4c-1.1 0-2.9.4-4 .9M78 142.5c-1.8 1.9-3.1 2.4-5 2-1.8-.4-3.9.3-7.3 2.6-7.8 5.2-14.3 14.6-18.3 26.6-.9 2.6-3.1 7.6-4.9 11-3.2 5.9-3.3 6.2-1.5 6.8 1.1.4 2 1.3 2 2.1 0 3.7 6.8.4 13.1-6.3 3.6-3.8 4.8-5.9 5.3-9.5C63 167 72.1 158 81.5 158h4.2v-4.7c0-3.9.4-5 3.1-7.5 2.3-2 4.3-2.8 6.8-2.8 2.4 0 3.4-.4 3.2-1.3-.3-.8-3.4-1.3-9.4-1.5-8.5-.3-9.1-.1-11.4 2.3"/>
        <path d="M91.7 148.8c-3.8 4.2-.9 11.2 4.6 11.2 2.6 0 6.7-4 6.7-6.5 0-.7-.9-2.4-2.1-3.9-2.4-3.1-6.8-3.5-9.2-.8m15.1 28.2c-.1 11-.2 21.6-.2 23.7-.1 2 .4 3.8 1 4s1-.6 1-1.8c-.1-2.9 2.7-4.7 4.8-3 .9.8 1.6 2.2 1.6 3.2 0 1.8 1 1.9 16 1.9h16v-4c0-4 0-4-3.9-4-2.1 0-4.4-.6-5.1-1.4-.8-1.1-1.1-6.6-.9-19.3l.2-17.8-6.6-.3-6.7-.3v7.4c0 4.1-.3 10.8-.6 15l-.7 7.7H113v-31h-6zm-33-12.5c-3.9 2.7-8.5 10.7-9.4 16.6-.5 2.8-2.1 5.2-6.5 9.5-3.2 3.2-5.9 6.3-5.9 7 0 .6 2 5.5 4.5 11 4.9 11 4.8 10.9 13.2 7.8 5.5-2 8.9-6.1 10.9-13.2 2.5-8.9 6-14.1 10.7-16.3 2.3-1 5.2-1.9 6.5-1.9 2.2 0 2.3-.2 2-9.1l-.3-9.1-6.4-2.4c-8.4-3.2-14.5-3.1-19.3.1"/>
        <path d="M141.7 173.2c-.4 6.2-.7 13.2-.7 15.5 0 4.2.1 4.3 3.4 4.3h3.3l.6-12.3.6-12.2-3.3-3.3-3.3-3.4zm-48.3 18.7c-4.6 2.8-7.2 6.7-9.4 14.1-3 10-5.5 13.2-12 15.2-3 .9-8.1 2.1-11.3 2.8-4.7.9-6.7 2-10.3 5.4-4.5 4.4-5.9 7.5-2.6 6 .9-.4 7.3-1 14.2-1.4 11.2-.5 13-.9 17.6-3.4 7.7-4.2 12.2-8.3 16.5-14.8 6.1-9.6 7-19.7 2.1-24.1-1.6-1.5-2-1.5-4.8.2"/>
    </g>
</svg>
