<svg xmlns="http://www.w3.org/2000/svg" width="341.333" height="341.333" version="1.0" viewBox="0 0 256 256">
    <path fill="#e5e5e5" d="M123 47.5c0 24.5.2 44.5.4 44.5s1.6-1.9 3.1-4.2c3.1-4.6 2.9-4.7 7.7 2.3 1.6 2.3 1.7 0 1.7-42.4L136 3h-13zm-38.3-6.9c-.8.9-.7 87.8.2 98.4l.6 7.5 5.8-8.3 5.7-8.4-.2-44.6-.3-44.7-5.5-.3c-3.1-.2-5.9 0-6.3.4m78 0c-.4.4-.7 20.6-.7 45v44.2l5.8 8.4 5.7 8.3.7-9.5c.5-5.2.7-29.1.5-53l-.2-43.5-5.5-.3c-3.1-.2-5.9 0-6.3.4M49 144.7c0 45.2.2 53.5 1.4 52.3.7-.8 3.6-4.9 6.5-9.1l5.1-7.5V91H49zm148-9v44.7l5.1 7.5c2.9 4.2 5.8 8.3 6.5 9.1 1.2 1.2 1.4-7.1 1.4-52.3V91h-13zM13 189.5c0 33.3.2 60.5.4 60.5s2.9-3.6 6-8l5.6-7.9V129H13zm221-8v52.6l5.6 7.9c3.1 4.4 5.8 8 6 8s.4-27.2.4-60.5V129h-12zm-107.2-36.3c-3.1 4.1-73.2 103-74.2 104.6-.5.9 17.6 1.2 75.9 1.2 61 0 76.6-.3 76.2-1.3-.6-1.5-72.4-104.6-74.2-106.5-1-1.2-1.7-.8-3.7 2"/>
</svg>
