<svg xmlns="http://www.w3.org/2000/svg" width="341.333" height="341.333" version="1.0" viewBox="0 0 256 256">
    <g fill="#e5e5e5">
        <path d="M82.4 61.2c-34.1 34.3-45.6 46.4-47.2 49.9-4.8 10.7-4.8 23.1 0 33.8 1.6 3.5 13.1 15.6 47.5 50.1l45.3 45.5 45.3-45.5c34.4-34.5 45.9-46.6 47.5-50.1 3.3-7.3 4.5-15.9 3.2-23.2-2.2-12.2-2.9-13-50.8-61C148.6 36.1 128.3 16 128 16s-20.8 20.4-45.6 45.2m89.3 4C200.3 94 215.6 110 217.2 113c2 3.9 2.3 5.9 2.3 15 0 9.5-.3 11-2.7 15.5-1.9 3.5-15.2 17.5-45.7 48l-43.1 43-42.9-42.9c-29.6-29.6-43.9-44.6-45.8-48-2.6-4.7-2.8-6-2.8-15.6 0-9.1.3-11.1 2.4-15 1.5-3 16.9-19.2 45.4-47.8C108.1 41.5 127.7 22 128 22s19.9 19.5 43.7 43.2"/>
        <path d="m112.8 58.7-9.8 9.8v27l-16.2 16.2L70.5 128l16.3 16.3 16.2 16.2v27l10 10 10 10v-40l-19.7-19.7L83.5 128l19.8-19.8L123 88.4l-.2-19.7-.3-19.7zm20.2 9.8v20l19.5 19.5 19.5 19.5-19.5 19.5-19.5 19.5v41l10-10 10-10v-27l16.2-16.2 16.3-16.3-16.3-16.3L153 95.5v-27l-10-10-10-10z"/>
        <path d="M73.9 97.7c-19.8 19.9-21.3 22.1-21.1 30.9.1 7.8 3 11.9 22.1 30.9l18.1 18v-17l-16.2-16.2L60.5 128l16.3-16.3 16.3-16.3-.3-8.2-.3-8.3zM163 87v8.5l16 16 16 16-16 16-16 16v18l18.1-18c11.1-11 18.8-19.6 20-22 1.1-2.4 1.9-6.2 1.9-9.5s-.8-7.1-1.9-9.5c-1.2-2.4-8.9-11-20-22l-18.1-18z"/>
    </g>
</svg>
