<svg xmlns="http://www.w3.org/2000/svg" width="341.333" height="341.333" version="1.0" viewBox="0 0 256 256">
    <g fill="#e5e5e5">
        <path d="m128 9.4-7.6 6.3-3.9 16.6-3.8 16.6-14.4 12.3c-14 11.9-16.4 15-14.6 18.2.5.8 9.8 12.1 20.8 25.1 14.8 17.4 20.5 23.5 22.2 23.5 2.4 0 2.9-.4 24.3-18.9 16.3-14.1 18-15.8 18-17.7 0-.6-7.4-10-16.5-20.9-20.8-24.9-20.5-23-6-35.1 5.8-4.8 10.5-9.4 10.5-10.3s-3.9-6.2-8.5-11.9C142.2 5.8 139.4 3 137.7 3c-1.2.1-5.6 2.9-9.7 6.4"/>
        <path d="m145.2 42.9-3.3 2.8 16.7 20.4c9.2 11.2 16.9 20.6 17.1 20.8.7 1 6.3-5.4 6.3-7.2 0-2-30.4-39-32.4-39.4-.6-.1-2.6 1-4.4 2.6M64.8 90.1C46.5 105.4 37 114.2 37 115.8c0 1 2.6 4.9 5.7 8.6l5.7 6.9-3.2 2.7c-1.8 1.4-3.2 3-3.2 3.5 0 .4 3.3 4.6 7.3 9.2 3.9 4.7 8.2 9.7 9.4 11.2l2.1 2.6 2.9-2.8c1.6-1.5 3.3-2.7 3.8-2.7s3.7 3 7.1 6.6c5.5 5.9 6.3 6.5 8.3 5.5 2.8-1.6 33.2-27.8 35-30.2 1.1-1.6 1.1-2.2 0-3.8-2.4-3.3-40.1-46.5-41.7-47.9-2.6-2-3.8-1.5-11.4 4.9m-1.5 47.7c2.3 2 2.2 5.7-.3 8.2-2.4 2.4-4.8 2.5-7.8.4-3.2-2.2-2.8-8.3.7-10 2.6-1.3 4.6-.9 7.4 1.4m92.5-25.3-15.7 13.3 3.6 4.6 3.6 4.6h13.8l11.9-9.3c8.6-6.7 11.9-9.8 12-11.4 0-2.4-10.4-15.3-12.3-15.2-.7 0-8.3 6-16.9 13.4m20.9 22.1L160 147.2v40.4l-5 3.7-5 3.7v57h29.3c30.3 0 31.7-.2 31.7-4.1 0-1.9 2-2.9 6-2.9 4.4 0 6-2.3 6-8.9 0-3.1-.5-6.2-1.2-6.9s-4.3-1.2-9-1.2H205v-7h18v-8.4c0-9.9.3-9.6-11.1-9.6H204v-70.6l-5.3-5.2-5.3-5.3zM97.5 188l-10 8.9-13.2.1c-12.6 0-13.3.1-13.3 2 0 1.7-.7 2-4.2 2-3.8 0-4.7.5-7.5 4l-3.3 3.9V245h23v-6h36v13h33v-13c0-12.3.1-13 2-13s2-.7 2-14.5V197h-40.4l5.7-5.8c6-6.1 7.1-9.4 3.8-11.2-1.1-.5-2.3-1-2.8-1-.4 0-5.3 4.1-10.8 9"/>
    </g>
</svg>
