<svg xmlns="http://www.w3.org/2000/svg" width="341.333" height="341.333" version="1.0" viewBox="0 0 256 256">
    <path fill="#e5e5e5" d="M81.3 49.3c-25.4 11.7-47 22-48 23-1.7 1.7-1.8 5.2-1.8 53.2V177l2.5 2.3c3.6 3.5 89.4 48.7 92.3 48.7 3.1 0 93.5-40.4 96-42.9 1.8-1.7 1.8-4.2 1.1-55.1-.7-52.2-.7-53.3-2.8-55.6-3.2-3.4-86.7-46.4-90.2-46.3-1.6 0-23.7 9.6-49.1 21.2m2.4 56 37.8 18.3-.4 43.5c-.1 23.9-.5 43.6-.7 43.8-.5.5-74.8-39-75.6-40.3-1.1-1.6-1-83.6.1-83.6.5 0 17.9 8.2 38.8 18.3M211.2 121c.2 17.6.2 37.4 0 43.9l-.4 12-37.2 16.7c-20.4 9.2-37.8 16.9-38.6 17.1-1.3.4-1.5-4.2-1.3-37.4.2-20.8.5-40.6.9-43.9l.5-6.2 37.2-17.1c20.5-9.4 37.5-17.1 37.8-17.1.4 0 .8 14.4 1.1 32"/>
</svg>
