<svg xmlns="http://www.w3.org/2000/svg" width="341.333" height="341.333" version="1.0" viewBox="0 0 256 256">
    <path fill="#e5e5e5" d="M72.2 31.2c-.9.9-1.2 7.3-1.2 22.8 0 17.1-.3 22-1.4 23.6-1.3 1.7-3 1.9-20.8 2.2-13.3.3-19.5.7-20 1.5-.4.7-.8 8.5-.8 17.3 0 12.7.3 16.4 1.4 17.3 1 .9 7.7 1.1 23.8.9l22.3-.3 18.6-14.2c10.3-7.8 18.9-15 19.3-15.9.3-.8.6-13.2.6-27.4 0-22.2-.2-26.1-1.6-27.4-1.3-1.3-4.6-1.6-20.3-1.6-13.2 0-19.1.4-19.9 1.2m72 0c-.9.9-1.2 8.6-1.2 28.3v27.1l3.3 3c4 3.8 31.4 24.6 34.4 26.3 1.6.8 8.8 1.1 24.5.9l22.3-.3v-36l-19.2-.5c-16.3-.4-19.5-.8-20.9-2.2-1.5-1.4-1.7-4.5-1.8-23.8-.2-18.2-.4-22.3-1.6-23-2.3-1.5-38.3-1.3-39.8.2m-20.6 73c-3.1 1.8-25 19.1-26.3 20.7-.7.9-1.3 3-1.3 4.7 0 3.7 1.6 5.3 17.9 17.3 8.5 6.2 13.2 9.1 15.1 9.1s7.1-3.3 17.6-11.3c13.3-10 14.9-11.6 15.2-14.4.2-1.8 0-3.9-.5-4.7-.4-.8-5.1-4.7-10.3-8.7s-11.4-8.8-13.8-10.6c-4.6-3.5-9.8-4.3-13.6-2.1m-94.4 40c-.8.8-1.2 6.3-1.2 18 0 15.5.1 16.8 1.9 17.8 1.2.6 9.7 1 20.6 1H69l1 2.6c.6 1.4 1 12.1 1 23.9 0 18.5.2 21.4 1.6 21.9.9.3 10.1.6 20.4.6 17.7 0 19-.1 20-1.9 1.5-2.9 1.3-52-.3-54.8-.7-1.1-8.1-7.4-16.6-13.8C71.8 141 77.2 143 52.1 143c-15.6 0-22 .3-22.9 1.2m151.7.2c-3 1.5-30.9 22.6-35.1 26.5l-2.8 2.5v27.7c0 24.3.2 27.8 1.6 28.3.9.3 10.1.6 20.4.6 14 0 19.1-.3 19.7-1.3.4-.6.8-11 .9-22.9.1-15.9.4-22.1 1.4-23.3s4.4-1.5 19.9-1.5c13.2 0 19.1-.4 19.9-1.2 1.7-1.7 1.7-33.9 0-35.6-1.8-1.8-42.4-1.7-45.9.2"/>
</svg>
