<svg xmlns="http://www.w3.org/2000/svg" width="682.667" height="682.667" version="1.0" viewBox="0 0 512 512">
    <g fill="#e5e5e5">
        <path d="M355.2 6c-3 1-5.7 2.2-6.2 2.6-3.2 3.4-14.4 22.4-20.5 34.9-10.9 22.2-16.9 40.6-15.1 46.2.4 1.1 4.2 3.9 8.6 6.4 6.5 3.5 7.6 4.5 6 5.1-1 .4-3.3.3-5.1-.2-3.9-1.2-4.1-1-2.4 1.3 1.7 2.4 25.5 11.2 32 11.9l5 .6-3.5-2.9c-1.9-1.6-4.7-3.5-6.2-4.2-1.6-.6-2.8-1.4-2.8-1.7s3-.6 6.8-.7c11.6-.1 33.6-7.1 45.4-14.3l4.7-2.9 11.3 5.4c13.4 6.4 15.8 7.2 15.8 5.2 0-.8-1.5-6-3.4-11.6-3.1-9.1-3.5-11.4-3.5-21.4-.1-15.9-2.6-24.8-8.3-30.2-4.7-4.4-12-10.4-18.3-15.1l-3.9-2.9 4.2 5.4c4.9 6.2 10.7 17.6 12.1 24.1.5 2.4.9 4.6.7 4.7-.2.2-2.4-3.2-4.9-7.5-6.3-10.8-15.1-21.5-24.1-29.1-14.2-12-15.1-12.3-24.4-9.1m23.1 22.9c7.4 10.3 11.5 18.6 15.3 31l3.2 10.5-4.2 3.1C377.7 84.9 361.1 91 345 91c-13.3 0-14.2-.3-17.5-6.4l-2.8-5.2 3.3-9.9c4.9-15.2 21-46.1 25.4-49 1.2-.8 4.9-2.1 8.1-2.8 5.9-1.4 6-1.4 8.7 1 1.4 1.4 5.1 6 8.1 10.2"/>
        <path d="M357.5 27.9c-.9 2.8-2.1 5.3-2.6 5.7-1.6 1-5 8.4-3.8 8.4.6 0 2.4-1.4 4.1-3 3.7-3.8 5.4-3.8 10.7.1 6.1 4.4 6.9 3.1 2.1-3-2.4-3-5.3-7.2-6.5-9.4l-2.3-3.9zm-3.4 23.7-3.3 4.6 2.7 5.1c3.3 6.1 4.4 7.7 5.6 7.7.9 0 6.9-12.5 6.9-14.4 0-1.5-6.2-7.6-7.6-7.6-.6 0-2.5 2.1-4.3 4.6m20.9.2c0 .4.6 1.6 1.4 2.7.7 1.1 1.7 3.4 2 5.2.6 2.8.3 3.5-3.3 6.9-4.8 4.3-5.1 6.1-1.5 7.5 2.1.7 3.5.5 6.3-.9 4.4-2.3 6-5.1 5.2-9.7-.8-4.8-10.1-15.6-10.1-11.7m-36.4 10.4c-1.7 2.6-1.9 3.8-1.7 9.1.2 7 7.5 11.3 11.5 6.8 1.7-1.8 1.5-2-3.3-4.6-5.8-3.2-6.8-5.2-4.7-9.4 1.9-3.5 1.9-4.1.6-4.1-.5 0-1.6 1-2.4 2.2M352 82c0 1.6-.7 2-3.7 2.1-3.7.1-3.7.2 1.5 1.4 2.9.7 6.4 1.6 7.7 1.9 3.4.9 3.2-.9-.4-4.5q-5.1-5.1-5.1-.9m78.3-25.9c.8 4 2.4 7.2 6.3 12.4 13.8 18.5 32.6 51.2 34.1 59.5l.6 3.5-2.8-2.5c-3.5-3.2-11.5-14.2-23.5-32.4-5.2-7.9-9.6-14.3-9.8-14.1-.2.1.4 9.3 1.3 20.4s1.5 20.9 1.3 21.7c-.2 1-2.7-1.9-6.2-7-5-7.3-7.1-9.4-13.5-13.5-11.9-7.6-13.5-8.3-16.8-7l-2.8 1.1 2.4 1.9c1.3 1 3 1.9 3.8 1.9 1 0 1.4.7 1 1.9-.4 1.7 0 1.9 3.6 1.8 5.1-.2 5.9 1.7 1.3 3.4l-3.4 1.2 2.4 1.9c6.9 5.5 25.7 34.1 30.7 46.8 3.3 8.3 8.3 28.1 9.8 38.5 1.2 8.4.6 38.8-1 47.8-.8 5-9.3 18.6-14.8 23.9l-2.9 2.8-3.6-6.4c-3.6-6.1-3.7-6.7-4.3-19.2-1-18.5-2.9-30.4-6.9-42.7-6.4-19.6-14.9-35.4-25.5-47.6-16.6-19.2-25.1-26.1-39.4-32.2-10.7-4.5-11.4-3.1-1.7 3.2 12.1 7.9 20.1 14.9 27.3 24 7.9 9.8 18.1 27.7 20.1 34.9.8 3 2.6 9.8 4 15 2 7.2 2.9 13.8 3.8 27.3 1.5 25 0 36.5-7.3 55.7-1.6 4.1-3.4 8.3-4 9.3-.6 1.1-.9 2.1-.7 2.3s4.4-.5 9.3-1.5c14.2-3 23.7-4.9 28-5.6 6.9-1.1 21.7-6.6 30.1-11.1l8.1-4.3 2.1 6.2c3.1 9 4.9 17 6.2 27.7 2 15.7 2.2 15.9 5.8 4.5 4.7-15.3 9-33.5 10.9-46.9 2.5-17.2 2.5-62.8-.1-77.1-.9-5.5-1.9-11.1-2.2-12.5-.2-1.4-.8-4-1.3-5.9-.6-1.8-1-3.6-.9-4 .1-.3-.4-2.6-1-5.1-6.9-25.6-13.2-41.5-25.3-64-5.9-10.9-20.9-31.7-29-40.4l-4.7-5zm17.3 58.1c7.8 11 17.6 35.4 22.2 55.3 4.9 21 6.5 50.1 4.2 75.1-1.3 14.3-1.4 14.6-6.6 17l-4.4 2.1.7-10.6c1.4-19 .9-46.6-1-58.8-3.1-19.7-10.9-42.2-21.3-60.8l-3.3-6.1 1.9-5.4c1-3 2.2-7.2 2.5-9.3.3-2 .8-3.7 1-3.7.1 0 2 2.4 4.1 5.2M83.5 80.8C75.3 89.9 57 114.7 57 116.6c0 .3-1 1.9-2.1 3.6-3.1 4.3-13.7 25.1-17 33.3-1.5 3.8-3.3 8.3-4 10-.7 1.6-2.2 5.9-3.4 9.5-1.9 5.5-2 6.6-.8 6.8.8.2 7.4-.1 14.6-.7 7.3-.6 19.4-1.3 27-1.7 10.4-.5 13.7-1 13.7-2 0-2.1 5.7-16.1 10.6-25.9 6.3-12.4 20.2-33 26.4-39 5.1-4.9 5.2-4.9 4.6-2-1 4.2-6.3 15-14.7 29.5-6.2 10.9-18.3 36.9-17.5 37.7.2.2 5-1.9 10.7-4.6 18.5-8.8 28.7-11.2 37.2-8.8 2.4.7 2.7 1.2 2.7 5.2 0 4.8 5 16.5 7.1 16.5.6 0 2.9-1.3 5.2-2.9 2.3-1.5 5.3-3.2 6.5-3.6 1.3-.4 2.8-1.9 3.3-3.5l1-2.7 8.7 2.4c4.7 1.4 9.4 2.9 10.3 3.4 1.6.8 7.6 15 10.9 25.6 1.8 5.9 5.8 10.3 9.4 10.6 2.9.2 3 .1 4.2-6.9 3.1-18.2 9.4-39.7 15.9-54.4 1.8-4.1 3.9-9.5 4.6-11.9l1.3-4.4-3.4-3c-1.9-1.6-7.8-5.7-13-9.1-28.2-18.4-42.1-26.6-54.1-31.7-4-1.7-8.3-3.8-9.5-4.6-4.6-2.9-19.2-7.4-28.1-8.4-5-.6-9.6-.9-10.1-.8-.5.2-8.2 9.6-17.2 20.9-16 20-25.4 31.2-27.1 31.8-1.1.5 8.1-20.4 12.7-28.5 2.1-3.8 6.6-11 10-16.1l6.3-9.2h-6.5c-6.3 0-6.7.1-9.9 3.8m92.5 43.9c0 2.1-2 9.5-4.4 16.6l-4.3 12.7 14.1 4.5c13.2 4.2 23.4 9.3 24.3 12.1.7 2.2-14.3-1.9-51.9-14.2-24.2-7.9-24.1-7.9-32.6-4.1-2.4 1-4.6 1.6-4.9 1.3-.4-.3-.4-.7-.2-.9s3.1-2.3 6.4-4.6l6-4.3 7.3.6c4 .4 10.7 1.7 14.8 3.1l7.6 2.3 1.1-3.1c3.3-9.7 13.2-25.7 15.8-25.7.5 0 .9 1.7.9 3.7m-98 27 4.5 2-4.4 1.2c-3.1.9-7.9 1.1-15.7.6-9.8-.6-11.3-1-11.7-2.6-.8-3.2 2.1-4 12.8-3.6 7.2.3 11.2.9 14.5 2.4m-2.2 12.1c1.3.4 2.4 1.1 2.5 1.7.3 1.6-12.2 4.2-24.1 4.9-10.8.7-10.9.7-11.5-1.6-1.2-4.3 3.2-5.6 18.8-5.6 6.6 0 13 .3 14.3.6m82.2 10.1c.8 1.6.5 2.3-1.7 4.1-2.9 2.3-3.8 1.9-4.8-2.2-.5-2-.3-2.7 1.2-3.1 3.4-.9 4.2-.7 5.3 1.2m72.1-16.1c-3.7 11.5-4.8 16.2-3.8 16.2.2 0 1.8-.7 3.5-1.5 3.6-1.8 7.2-10.1 7.2-16.3 0-5.1-1.1-11.2-2-11.2-.4 0-2.6 5.8-4.9 12.8"/>
        <path d="M68.5 188.4c-.5.3-3.7.8-7 1.1-7.3.9-5.1 2.3 3.8 2.4 3.1.1 5.7.3 5.7.6s-.9 4.5-2 9.4c-2.7 12.2-9.6 54.7-11.6 71.5-1.6 13-1.9 14.4-5.3 19.6-2 3-5.2 9-7.1 13.2-1.9 4.3-3.9 7.7-4.3 7.8-1.4 0-11.4-22.2-12.1-26.8-1.4-9.4-.7-58.8.9-71.8 2.4-18.5 2.9-19.5 9.3-21.4 2.9-.9 4.9-1.9 4.6-2.3-.9-.9-12-.9-16.2-.1l-3 .6-3.1 16.2c-1.7 8.8-3.3 18.6-3.6 21.6-.2 3-.8 8.2-1.1 11.5-.8 6.7-.8 41.7 0 44.3.3 1 .8 4.6 1.1 8.2 1.9 18.6 9.6 49.4 17.4 68.7 15.6 38.9 42.9 75.5 75.1 100.2 34.8 26.8 77.7 42.8 120.1 44.9 38.6 1.9 73-4.9 108.5-21.3 4-1.9 7.5-3.8 7.9-4.4.3-.6 1-.9 1.5-.6 1.7 1.1 3.1-2.6 3.7-10.4.3-4.4.4-8.1.1-8.1s-3.6 1.5-7.5 3.4c-18.4 9-36.6 13.4-58.3 14.3-17.6.7-28.2-.9-45.5-6.7-12.9-4.3-16.6-6.2-30.5-15.9-17-11.7-34.8-31.7-40.6-45.6-2.2-5.5-.2-3.5 5.9 5.8 14.7 22 33.2 35.9 60.9 45.6 22.1 7.7 64.9 6.4 93.4-2.8 12.6-4.1 23.3-9 23.8-11 .2-.9.7-5 1.1-9.1.3-4.1 1.2-10.7 2-14.5.7-3.9 1.1-7.2.9-7.4s-4.8.6-10.2 1.9c-20.4 4.8-22.6 5.1-34.5 4-16.4-1.5-24.4-3.7-42-11.5-12.9-5.8-14.6-7-25.7-17.1-12.7-11.6-19.5-20.5-26.7-34.9C212.2 349.3 204 324 202 311c-.6-4.1-1.9-11.6-2.8-16.5-1-5.7-1.6-14.5-1.7-24 0-14.3.5-20.7 2.5-35.5 1.6-10.9 1.5-11.2-3.8-13.8-9.9-4.7-64.9-22.1-89.7-28.4-12.2-3.1-18.5-4.1-26.5-4.4-5.8-.2-10.9-.2-11.5 0m45 12.5c6.6 1.8 17 4.7 23 6.6 6.1 1.9 19.3 5.7 29.5 8.5s20.6 5.8 23.1 6.6l4.7 1.5-.9 3.7c-.4 2-1.6 11.3-2.5 20.7-1.5 15.7-1.5 18.3 0 36 1.6 18.4 1.5 19.3-.3 28.3-1.1 5.1-2.7 16.2-3.7 24.6l-1.8 15.4-6.5-5.5C164.9 336.4 148 318.8 147 315c-1.4-5.1-2.8-20.6-4-44-1.5-29.7-3-48.8-3.9-51.3-.7-1.8-1.1-1.2-2.6 3.8-3.9 13.2-4.6 17.6-5.1 33-.7 17.2.7 41.8 3.2 57.8 1.4 9 1.4 10.5 0 16.5-2.9 12.6-6.6 37.7-6.6 45.4 0 .6-1-.2-2.2-1.8s-10.8-11.7-21.4-22.5c-10.6-10.7-19.8-20.7-20.3-22.2-4.6-12.1-7.6-65-5.1-90.2 1.9-19.8 7.1-42.7 10-44.5.6-.4 3.6.1 6.8 1.1 3.1.9 11.1 3.1 17.7 4.8M94.8 408c18.8 22 29.6 31.7 51.9 46.6 22 14.8 47.3 25.8 70.8 30.9 25.7 5.5 54.9 6.9 69 3.1 2.8-.7 5.5-1.1 6-.9.6.2 5.1-1 10-2.7 4.8-1.6 9-2.8 9.3-2.6 1.2 1.3-22.4 11.2-31.3 13.2-8.4 1.9-35.7 3.7-43.5 2.9-27.1-2.7-62-15.6-87.5-32.2-16.5-10.8-38.1-31.2-52.2-49.3-8.2-10.6-17.9-26.2-12.9-21 .7.8 5.4 6.2 10.4 12"/>
        <path d="M206.4 286c.8 19.9 9.6 49.5 19.2 64.2 5.7 8.9 16.9 20 26.2 26.2 12.9 8.5 33 15.5 37.2 12.8 2.5-1.5 3-1.5 3 .2 0 2.3 6.5 3 9.6 1 2.5-1.7 2.7-1.7 4.3.4 1.9 2.5 4.8 2.9 11.1 1.4 10.3-2.5 30.8 1 42.9 7.3q2.85 1.35 5.7.6c1.7-.4 3.6-.3 4.5.2 1.9 1.2 10.5-1.2 10.2-2.8-.1-.6-4.2-2.2-9.2-3.6-4.9-1.5-10.9-3.5-13.3-4.6s-7.3-2.5-10.9-3.2c-8.1-1.4-25.8-1.5-29.3-.1-1.5.5-3.5.6-4.8.1s-7.3-1.1-13.3-1.5c-13.3-.7-26.4-4.1-34.2-8.8s-22.6-17.2-30.3-25.5c-7.9-8.5-15.7-22.9-19.5-35.8-3.3-11.5-6.1-23.5-7-30.5-1.5-10.8-2.6-9.7-2.1 2m237.1 11c-11.2 4.8-25.4 8.9-38.5 11-11.9 2-13.7 2.7-16.7 7.3-1.6 2.3-6.9 10.4-11.7 18-7.6 11.9-8.7 14.2-7.8 16 1.9 4.2 18.2 23.5 24.9 29.7 10.2 9.4 22.4 14 38 14.3l8.7.2 3.7-5.5c2.1-3 4.2-6 4.8-6.6.5-.7 1.4-6.2 2-12.4s1.2-11.5 1.4-11.6c.2-.2 1 2.5 1.7 6.1 1.4 6.6 2.3 7.9 3.4 4.7.3-.9 1.4-3.1 2.5-4.7 1.1-1.7 3.3-5.8 5.1-9.3l3.2-6.3-.4-16.7c-.3-14-.8-18-2.7-24.5-1.3-4.2-2.7-7.7-3-7.7-.4 0-1.9 2.5-3.4 5.6-3.7 7.5-11 18.4-14.3 21.4-2.2 2-2.6 2.1-2.1.7.4-1 1.6-5.4 2.7-9.7 1.1-4.4 3.3-11.5 4.9-16 1.5-4.4 2.8-8 2.7-8-.1.1-4.1 1.8-9.1 4m-.6 46c2.9 7.6 3 8.3 2.1 16.2-1.6 14-4.3 28-5.6 28.5-1.7.6-12.7-2.1-22.5-5.7-8.1-2.9-9.2-3.7-17.8-12.3-5.1-5.1-10.6-11.3-12.3-14-1.7-2.6-3.9-4.7-4.8-4.7-2.8 0-8-2.1-7.5-3 .6-1 3.1-1.3 21-3 12.4-1.2 27.9-4.5 37.5-8 3-1 5.8-1.9 6.2-2 .3 0 2 3.6 3.7 8"/>
        <path d="M426 344.6c0 .3 2.7 3.3 6 6.6 3.8 3.7 6 5.4 6 4.3 0-2.7-2.8-7.2-5.9-9.4-2.7-2-6.1-2.8-6.1-1.5m-26.5 5.4c-1.3 1.4-1.6 2.8-1.1 5.2.6 3.4 4.4 10.4 5.2 9.6.2-.3-.1-2.9-.6-5.9-.9-4.6-.8-5.6.6-6.6 1.8-1.3 1.2-4.3-.9-4.3-.8 0-2.2.9-3.2 2m14.6 1.9c-.7.5-1.7 2.7-2.1 5-.7 3.7-.4 4.6 1.7 7.2 4.5 5.3 11.7 9.2 11.8 6.2 0-.6.3-1.5.8-1.9.4-.4.7-2.8.7-5.4 0-4-.5-5.1-3.3-7.6-1.8-1.6-3.7-3-4.2-3.1-.6-.1-1.7-.4-2.5-.7s-2.1-.2-2.9.3m16.2 22.7c-.4 1.2-1.4 1.4-4.4.9-2.6-.5-3.9-.3-3.9.5 0 1.4 8.7 5.3 10 4.5s1.3-7.5 0-7.5c-.6 0-1.3.7-1.7 1.6M331.1 403c-3 2.1-5.9 4.1-6.5 4.4-1.9.8 3.7 4.6 6.8 4.6 4.9 0 29-8.6 28.1-10.1-.3-.4-3.4-.6-6.8-.2-4.4.4-7.6.1-11-1.1-2.6-.9-4.9-1.6-5.1-1.6-.1 0-2.6 1.8-5.5 4m-16.6-1.9c-5 1.5-22.4 2.1-31.5 1.1-4.7-.5-8.6-.8-8.8-.7-.6.5 6.6 4.4 11.3 6.1 6.8 2.4 27.3 2.4 32.7 0 4.4-1.9 4.8-2.5 3.7-5.4-.9-2.3-2.5-2.6-7.4-1.1m60.7 8.9c-4.3 3.2-8.4 6.5-8.9 7.2-1.8 2.1-5.1 14.7-6.3 23-.8 6.7-.5 16.8.6 16.8.2 0 4.1-2.4 8.7-5.4 16.6-11 15.4-9.9 15.9-15.3.3-2.6.3-5 .1-5.2-.4-.6-8.9 6.5-16.5 13.8-3.8 3.5-6.8 5.9-6.8 5.2s2.3-3.5 5-6.1c4.4-4.2 5.5-6.2 8-13.7 2.3-6.9 3.8-9.5 6.6-12 2.1-1.8 3.9-4.6 4.3-6.5.8-3.6-.2-7.8-1.8-7.8-.5 0-4.5 2.7-8.9 6m7.2 40.8c-.6 1-5.6 4-11 6.7-5.5 2.7-10.1 5.2-10.4 5.6-.8 1.2.1 10.9 1.1 10.9.5 0 .9-.7.9-1.5s.7-1.5 1.6-1.5c2.1 0 12.8-8.3 15.9-12.4 1.4-1.8 2.8-4.7 3.1-6.4.7-3.6.4-4-1.2-1.4"/>
    </g>
</svg>
