<svg xmlns="http://www.w3.org/2000/svg" width="682.667" height="682.667" version="1.0" viewBox="0 0 512 512">
    <g fill="#e5e5e5">
        <path d="M385.3 19.2c-.4.7-.6 2.1-.5 3 .4 2.1-.2 2.2-2.6.7-1.5-.9-3.5-.3-10.8 3.3-4.9 2.5-12.9 7.1-17.9 10.2-4.9 3.1-12.7 7.7-17.2 10.3-4.5 2.7-8.3 5.1-8.3 5.6-.1 2.2 13.8-4.1 25.2-11.5 3.6-2.3 11-6.7 16.3-9.6 9.8-5.5 11.9-5.8 15.8-3 1.5 1.1-1.3 2.9-23.5 14.5-13.9 7.2-25.4 13.6-25.6 14.2-.7 2.1 3 1.1 13.1-3.7 9.6-4.6 43.5-22.6 44.7-23.8.3-.3-.4-1.2-1.4-2-1.9-1.4-1.9-1.4.2-1.4 1.3 0 3.6 1.5 5.5 3.7 3.2 3.7 7.1 9.4 6.5 9.7-.2.1-2.1 1.3-4.3 2.7-2.2 1.3-8.7 4.7-14.5 7.3-5.8 2.7-13.1 6.4-16.3 8.2-7.5 4.4-10.3 5.1-12.5 3.1-.9-.9-3-2.1-4.7-2.7-2.5-.9-3.7-.8-7.7 1.1-5.5 2.6-5.8 3.8-.4 1.5 2-.8 3.6-1.1 3.6-.7 0 .5.8 1.1 1.8 1.3 1.2.3 3.5 4.9 7.1 13.9 3 7.4 6.5 15.6 7.8 18.3 1.4 2.7 2.1 5.2 1.6 5.6-.4.4-11.4 6.2-24.3 12.9-22.7 11.9-26 14-26 16.8 0 .9 2.8-.1 8.3-3 26.1-14 44.3-23.3 52.2-26.7 21.7-9.2 26.2-11.3 29.2-13.1 1.8-1.1 6.6-3.5 10.8-5.3l7.6-3.3-3.3-1.3c-1.8-.8-4.4-2.1-5.8-3s-9.2-4.7-17.5-8.4c-8.2-3.7-15.4-7.1-15.9-7.6s.3-1.4 2-2.2c1.6-.7 6.7-3.5 11.4-6.1 4.7-2.7 10.9-6 13.8-7.3 6.3-2.8 6.5-4 2-11.9-4.3-7.6-10.7-11.4-19-11.5-3.5 0-6 .5-6.5 1.2"/>
        <path d="M415.5 41.9c-7 2.7-21.8 10.1-21.3 10.7.2.1 10.9 5 23.8 10.9s23.6 10.8 23.8 11c.6.6-20.3 11.2-45.8 23.4-14 6.7-36.5 17.7-50 24.4l-24.5 12.2-.8 7.5c-.4 4.1-.6 9.2-.5 11.2l.3 3.7 5.5-3.4c3-1.9 5.9-3.6 6.3-3.7.4-.2.1-2-.7-4l-1.5-3.6 6.3-4 6.4-4 2.6 3.9c2.6 3.9 6.2 5.2 7.2 2.6.2-.7-.2-3.3-1.1-5.7-.8-2.3-1.4-4.4-1.3-4.5 2-1.4 16-8.6 16.2-8.4s1.1 1.9 2 3.6c1.2 2.5 2.3 3.3 4.2 3.3 2.3 0 2.5-.3 1.9-2.3-2.4-7.9-2-8.6 9.6-14.2 7.7-3.8 8.2-3.9 9.3-2.1 3.2 5.3 4.2 6.1 7 4.8 2.5-1.1 2.5-1.2 1-5.3-.8-2.4-1.1-4.6-.7-4.9.5-.4 5.3-2.6 10.8-4.9l9.9-4.2 1.8 2.3c1 1.3 1.8 2.7 1.8 3.1 0 .5 1 .7 2.3.5 2.3-.3 2.8-3 1.3-7.5-.6-2 .2-2.7 8.3-6.8 5-2.5 9.7-4.5 10.5-4.5s2.1.9 2.9 2.1l1.5 2 4.1-2c3.7-1.9 4-2.3 2.9-4.1-.7-1.1-2-1.8-2.8-1.5-2.3.7-3.3-.4-7.2-7.4l-3.6-6.3-10-3.8c-12.9-4.9-25.6-10.6-26-11.8-.1-.5 3.7-1.9 8.5-3.2 4.8-1.2 8.9-2.4 9.1-2.5.7-.6-1.7-4.3-3-4.8-.7-.2-4.5.8-8.3 2.2m-112 11.6c-2.2.7-6.2 2.5-8.9 3.9s-5.5 2.6-6.3 2.6c-.7 0-1.3.4-1.3 1 0 .5.7 1 1.5 1s1.5.4 1.5.8c0 .5 1.9 1.5 4.3 2.2 2.3.7 6.8 2.5 10 4.1 3.2 1.7 7.2 3 9 3 1.8.1 7.9-2 13.7-4.5s9.7-4.5 8.8-4.6c-.9 0-3-1.1-4.5-2.5-2.4-2.2-13.6-6.3-21.3-7.8-1.4-.3-4.3.1-6.5.8m13 11.3c-4.5 2.6-5.2 2.7-7.3 1.4-1.2-.8-2-1.7-1.7-2 .7-.7 7.3-1.9 11-2.1 2.8 0 2.7.1-2 2.7m171.9-9.4c-4.4 1.8-9.7 4.4-11.9 5.8s-6.1 3.7-8.7 5.2c-5.5 3.1-6 4.8-2 7.1 1.7 1.1 3.8 4.1 5.6 8.1 2.1 4.6 3.6 6.6 5.2 7 1.7.4 6-1.5 16.1-7.2 7.6-4.2 14.4-8.3 15.1-8.9 2.1-1.9 2.7-10.7.8-14.3-3.3-6.4-9.4-7.2-20.2-2.8m17.2 5.7c.6 4.4.5 4.7-2.7 6.7C499 70.1 477.2 79 475.3 79c-.7 0-1.3-.4-1.3-1 0-.5-.6-.7-1.4-.4-1.8.7-2.9-3.7-1.3-5.2.7-.6 5.6-3.7 11.1-6.8 11-6.5 20.7-10.8 21.8-9.7.4.4 1.1 2.7 1.4 5.2M247.3 56c-1.7.7-2.4 2-2.9 5.9-.4 2.8-1 4.8-1.5 4.6-.4-.3-1.9 0-3.3.6-2.2 1-2.6 1.9-2.6 5.6 0 4.1-.1 4.3-2.5 3.7-1.4-.3-4-.3-5.9 0-3.9.7-3.2-1.1-11.7 31.6-4.3 16.3-10.2 33.9-14.2 41.9-4.9 9.8-9.8 15.7-18 21.4-3.2 2.3-8.9 6.3-12.6 9-15.5 11.1-27.4 18.8-39.1 25.2-6.9 3.8-16.1 9.1-20.5 11.8-4.4 2.8-12.5 7.2-18 9.8-5.5 2.7-15.6 7.8-22.5 11.5s-13.8 7.1-15.5 7.7c-4.6 1.6-25.3 13-33.9 18.6-4.2 2.7-8.6 5.3-9.6 5.6-1.1.4-2 1.2-2 1.9 0 .8-.8 2-1.9 2.7-1.3 1-2.5 4.5-3.9 11.9C2 303.1 1.6 308.4 3 315.2c1.1 5.2 1.7 6.3 4.1 7.2 1.6.5 3.3 2.3 4 3.8.6 1.5 1.6 2.8 2.1 2.8s1.9.9 3.1 2.1c2 1.8 3 1.9 9.3 1.4l7.1-.7 4.9 4.6c4.7 4.5 4.9 4.6 8.3 3.5 2-.6 4.4-1.9 5.4-2.8 1.7-1.4 2-1.4 3 0 2.3 3.1 5.4 3.2 11.5.3 3.1-1.5 18.6-8.6 34.3-15.9 24.6-11.4 35.1-17 75.5-40.6l46.9-27.4 10.2-10c24.8-24.4 41.6-53.4 51.8-89.3 4.5-16 5.1-17.5 7.7-19.1 1.8-1.1 2-1.1 1.5.3-1 2.4.9 1.9 2.6-.8 4.2-6.3 6.9-15.1 6.8-22.1 0-6.8-.1-7.1-3.8-10.2-4-3.4-3.6-4.3.7-1.8 4.5 2.6 5.6 1.7 2.3-1.8-3.4-3.4-5.7-8.3-4.7-9.8.3-.5.2-.9-.3-.9-.4 0-1.5 1.5-2.3 3.3-1 2.2-2.2 3.2-3.7 3.2-3.4.1-4.8 1.9-2.8 3.9.9.9 1.4 1.6 1.1 1.6-2.1 0-34.5-13.8-40-17-3.8-2.2-7.3-4-7.8-4s-.8-.8-.6-1.8c.4-2 1.1-2 10.3.8 3.9 1.2 8.6 2.3 10.5 2.4 1.9.2 7.7 1.9 12.8 3.8 7.7 3 9.2 3.3 9.2 1.9 0-1.5-1.9-2.5-13-6.6-7.8-2.8-21.5-11.1-21.8-13.1-.4-2.9 4.8-2.8 12.1.1 3.3 1.4 6.2 2.3 6.5 2 .2-.2 4.9 1.8 10.3 4.5 5.4 2.8 11 5 12.4 5 4.4 0 6.5 1.7 6.5 5.3.1 2.3.3 2.8.9 1.7 1.7-2.8 1.7-8.2.1-9.1-.8-.4-8.9-4.2-18-8.5-9.1-4.2-17.2-8.2-18-8.9-1.1-1-11.2-3.8-12.3-3.4-.1 0-1.2.4-2.4.9m34.2 42.7c7.7 3 15 6.4 16.3 7.5 2.2 2.2 3 4.8 1.3 4.8-.5 0-1.4 3-2.1 6.6s-1.9 6.8-2.6 7.1c-.8.3-4.2-.4-7.6-1.6-7.9-2.7-9.8-2.6-15.7.4-5.6 2.8-4.8.8-12 27.2-5.1 18.3-10.7 32.9-15.3 39.6-2.8 4.1-21.8 20.4-28.2 24.1-32.7 19.1-122.5 68.2-137.1 75-10.4 4.9-19.6 9.3-20.2 9.9-1.3.9-7.3 19.1-7.3 21.8 0 .8 2.4 4 5.3 7.3l5.2 5.9L66 332c5.6-2.8 5.5-2.7 4.2-4.2-.7-1 0-4.6 2.6-13.3 2-6.6 4.2-12.7 4.7-13.6.6-.9 10.9-6.3 23-12s27.9-13.7 35.1-17.7c7.3-3.9 14.2-7.2 15.5-7.1 1.3 0 7.8 2.6 14.3 5.7l12 5.8-20 11.6c-10.9 6.3-26.2 14.7-33.9 18.5-14.1 7.1-63.7 30.3-64.7 30.3-.3 0-3.5-3.5-7.1-7.9-4.2-4.9-6.7-8.8-6.7-10.3 0-3.3 5.9-22 7.5-23.6.7-.8 10.2-5.5 21.1-10.6 22-10.3 119.5-64.4 138.9-77.1 14.1-9.3 24.5-19.3 29.8-28.8 2.7-4.7 5.7-13.4 10.2-29.4 3.6-12.4 7.1-23.5 7.9-24.7 3.5-4.9 5.3-6.6 8.8-8.1 5.1-2.1 7.4-1.9 14.7 1.1 3.5 1.4 6.4 2.4 6.6 2.2 1.1-1.5 2.6-10.1 1.9-10.8-1-1-34-14-35.5-14-.5 0-.9.7-.9 1.6 0 4.2-17.5 65.5-21 73.6-9 20.7-12.7 23.4-89 66.2-38.1 21.4-69.5 38.2-82.5 44.3l-20.9 9.8-3.8 12c-2.1 6.6-3.8 12.9-3.8 14.1 0 1.1 2.7 5.2 6 9.1 3.2 3.9 5.6 7.3 5.3 7.7-1.3 1.3-3.5.5-8.5-3-4.7-3.2-5.7-3.5-9.8-2.9-3.6.5-4.9.3-5.9-.9-.7-.9-1.7-1.3-2.2-1.1-.4.3-2.4-1.1-4.4-3.2l-3.6-3.8.4-8c.3-4.4 1.7-13.9 3.2-21.1l2.8-13.1 5.6-1.8c3.1-1 7.4-2.8 9.6-4 2.2-1.3 13.3-7 24.8-12.9 11.4-5.8 22.6-11.8 25-13.3 2.3-1.4 7.4-4.1 11.3-5.9s12.7-6.5 19.5-10.6 16.9-9.9 22.4-12.8c16.7-9 55.3-35.8 63.5-44 6.3-6.4 14-19.1 16.6-27.5 1.3-3.8 3.3-10.3 4.5-14.3 2.5-8.2 11.7-26.5 15-29.7l2.1-2-.7 6-.6 6 3.6-6.5c5.5-9.6 7.4-12 9.6-12 1 0 1.9.5 1.9 1 0 .6 1.1.5 2.7-.4 2.5-1.2 3.3-1.2 7.8.6 2.7 1.1 11.3 4.5 19 7.5"/>
        <path d="M249.3 100.5c-.3.9-.3 1.8-.1 2.1.3.3.8-.4 1.1-1.6.6-2.3-.1-2.7-1-.5M109.5 289.1c-14.3 7.1-26.8 13.8-27.7 14.9-1.6 2-5.3 16.1-4.6 17.8.1.5 9.9-3.5 21.6-8.9 23-10.6 58.7-29.8 57.5-31-1.9-1.8-14-5.9-17.2-5.8-2.5 0-11.7 4.1-29.6 13m226-218.8c-9.1 3.7-15.9 8-13.4 8.5.9.2 6.2-1.5 11.8-3.7 6.8-2.6 10.3-3.5 10.6-2.8 2.6 9.3 4.7 17.8 4.4 18-8.7 6.2-20.1 13.3-23.8 14.8-4.4 1.9-5 2.5-6.1 6.5-.7 2.5-1 4.7-.8 5 .6.6 34.8-17 37.8-19.4l2.1-1.7-2.2-6.5c-1.2-3.6-3.1-7.3-4.1-8.4-1.4-1.3-1.9-2.9-1.7-6.1.3-4.9-1.3-7.5-4.5-7.5-1.1 0-5.7 1.5-10.1 3.3m126 19.2c-2.2 1.3-37.3 19.9-78 41.4l-74 39-2.3 17.8c-1.2 9.8-3.3 22.4-4.6 28l-2.2 10.2 2 4.3c2 4.1 2.4 4.4 10.1 6.5 15.5 4.3 22.4 2.7 45-10.2 7.5-4.3 16.8-9 20.7-10.7 9.4-3.8 10.2-4.4 8.4-7-.8-1.1-1.3-2.5-1-3.2.2-.6-.5-2.2-1.5-3.5l-1.8-2.3-3.9 2.1c-2.1 1.2-6.1 3.4-8.9 5.1-12.5 7.3-12.1 7.5-20.3-11-3.4-7.8-6.1-14.4-6-14.5.2-.1 27.5-15.7 60.8-34.5s61.7-35.1 63.3-36.2c1.8-1.3 2.7-2.8 2.7-4.6 0-3.7-3.1-19.2-3.9-19.2-.3.1-2.4 1.2-4.6 2.5m-9.4 20.1c-.7 2.9-1.7 5.7-2.4 6.2s-9.7 5.6-20.2 11.2c-10.4 5.7-19.9 11.1-21 12s-6 3.8-11 6.5c-4.9 2.6-14.6 8.4-21.5 12.8-6.8 4.4-15.6 9.6-19.5 11.5-3.8 1.9-9.8 5.4-13.2 7.8-3.5 2.3-6.8 4.4-7.5 4.6-.9.3.1 3.3 3 9.7 2.3 5 4.2 10.3 4.2 11.6 0 3.1-3 6.2-6.7 7.1-1.6.3-4.7 1.2-7.1 2-5.5 1.8-6.7 1.8-8.3-.2-1.2-1.4-.7-2.1 3.1-5.6 2.5-2.1 6.6-5.3 9.3-6.9 2.6-1.7 4.7-3.2 4.7-3.3s-2-4.9-4.4-10.6c-2.4-5.8-4.2-10.9-3.9-11.3.3-.5.9-.3 1.3.4.7 1 1.7.7 4.7-1.3 2.1-1.3 27.9-15.4 57.3-31.3 29.4-15.8 54.3-29.7 55.2-30.8.9-1.2 2-3.8 2.3-5.7.4-1.9 1-3.9 1.3-4.5 1.3-2 1.4 3 .3 8.1M348 203c2.2 4.4 4 8.4 4 9 0 1-16.9 9.4-17.5 8.8-.2-.2 2.3-2.1 5.6-4.3 5.3-3.6 8.7-8.3 7.5-10.4-1.1-1.7-4.5-11.1-4.1-11.1.3 0 2.3 3.6 4.5 8m116.3-81.9c-3.3 2.3-4.3 3.7-4.3 5.8 0 1.5.3 3.1.6 3.4 1.9 1.8 11.4-6.6 11.4-10 0-3.2-2.5-2.9-7.7.8"/>
        <path d="M452 128.5c0 2.6 2.9 7.4 5.1 8.6 3 1.6 3.2.8.8-4.9-1.5-3.6-2.7-5.2-4-5.2-1.1 0-1.9.7-1.9 1.5m-12.7 5.3c-6 3-7.2 5.2-4.8 8.8 1.6 2.4 1.6 2.4 4.5.7 1.6-.9 4.8-3.3 7.1-5.3 3.9-3.4 4.1-3.7 2.5-5.3-2.2-2.2-3.1-2.1-9.3 1.1m-133 8.3c-4.3 2.7-4.2 3.3.2 1.2 1.9-.9 3.5-2 3.5-2.5 0-1.1 0-1.1-3.7 1.3m121.1 1.6c1.7 9.7 2.3 8.8-11.7 18.2l-12.8 8.6.6 5.4c.4 2.9 1.5 7.4 2.6 9.8 1.4 3.2 1.6 4.9.9 5.8-1.8 2.2 0 4.3 4.6 5.4 2.5.7 6.1 2.7 8.4 4.7 2.2 2 4 3.1 4 2.4 0-2.7-6.2-10.9-9.4-12.4-2.8-1.3-3.9-3-6.9-10.4-2.1-4.8-3.7-9.1-3.7-9.4 0-.7 15.8-10.2 23-13.8 5.9-2.9 8.2-5 7.1-6.4-.4-.6-1.6-3.5-2.6-6.4-2.3-6.3-5.1-7.3-4.1-1.5"/>
        <path d="M398.1 157.5c-23.3 13.6-32 19-33.3 20.9-2.3 3.4 1.6 3.5 5.1.2 1.5-1.3 13.4-8.7 26.6-16.6 25.1-14.9 27.3-16.4 25.8-17.3-.5-.3-11.4 5.4-24.2 12.8m-96.8-6.2c-2.4 1.1-4.3 2.5-4.3 3 0 .4.4.6.9.2.5-.3 1.2.4 1.6 1.5l.6 2 4-2c2.9-1.6 3.9-2.6 3.9-4.5 0-3-1.2-3-6.7-.2m4.9 9.7c-2.9 1.8-4.3 4-2.4 4 1.2 0 6.7-4.8 6.2-5.4-.3-.3-2 .4-3.8 1.4"/>
        <path d="M386 177.2c-1.9 1.1-6.2 3.8-9.6 6-6.3 3.9-9.2 4.6-11.2 2.6-.6-.6-2.1-1.3-3.3-1.5s-2.8-1.1-3.5-2.1c-1.1-1.4-1.3-1.5-1.4-.2 0 2 7.1 9 9 9 .8 0 3.9-1.8 7-3.9 6.7-4.7 8.4-4.5 12.3 1.1 2.6 3.7 3.1 4 6.4 3.5 2-.4 3.8-.9 4.1-1.2.9-.8-4.1-14.8-5.3-15.2-.5-.1-2.6.7-4.5 1.9m-92.9 1.4c-1.2 2.7-1.1 2.8.4 1.2 1-.9 1.6-2.1 1.3-2.8-.2-.7-1 .1-1.7 1.6m-.8 8c-1.8.8-3.3 1.9-3.3 2.4 0 .6 1.8.1 4-1 5.9-3 5.4-4.1-.7-1.4m60.3 2.9c1.1 4.8 6.3 14.5 7.8 14.5.8 0 2.3-1.1 3.3-2.4 1.2-1.5 3.5-2.6 6.1-3.1 4.4-.7 5.8-2.5 2-2.5-1.3 0-4 .5-6 1.1-4.1 1.1-3.6 1.4-11.7-8.1l-2.1-2.5zm-64.4 10.9c-3.6 5-12.8 25.4-18.1 40.3l-3.6 10.1-8.9 7.8c-5.3 4.7-9.1 7.3-9.4 6.6-.2-.8-2.6.3-6.8 3.3-7.3 5.1-8.8 5.6-5.4 2 3.7-4 1.9-3.7-5 .7-3.6 2.2-9.2 5-12.5 6.2l-6 2.1 6 .5c5.8.6 5.9.6 3.2 1.8-1.6.7-5.6 1.2-9.1 1.2-4.2 0-8.1.8-12.2 2.4-8.8 3.5-13.4 5.9-13.4 6.9 0 1.2 9.1.1 15.3-1.9 5.2-1.7 7.3-1.3 3.5.6-3.9 2.1-6.8 5.3-6.3 6.9.2.9 3.8 30.8 8 66.6 4.1 35.7 8.2 70.8 9.1 77.8.9 7.1 1.4 13 1.1 13.3-.2.2-2.8-2-5.8-4.9s-6.7-6.2-8.3-7.3c-2.8-2-2.9-2.3-3.8-15.5-.5-7.4-1.5-19.9-2.3-27.9s-1.7-18.1-2-22.5c-.8-9.8-7-60.6-8.6-69.3-1.2-6.7-1.8-7.6-4.4-6.6-1.1.5-1.4 1.4-1.1 3.3.4 1.4 1.5 10 2.5 19.1 1.1 9.1 3.1 25.5 4.5 36.5 3.9 31.9 7.2 61.7 8.8 82.4.3 2.9-.1 3.6-3.1 5.2-1.9 1-5.2 3.7-7.4 5.9-3.9 4.1-3.9 4.2-3.3 9.8 1.5 12.8 1.5 13 8 20 3.3 3.7 7.4 8.4 8.9 10.4 1.6 2 4.1 4.1 5.8 4.7 1.6.5 2.9 1.5 2.9 2.1 0 .8 2 1.1 6.3.9 5.3-.3 6.9.1 11.1 2.4 2.7 1.5 5.3 2.7 5.8 2.7 1.9 0 15.4-8.4 18.6-11.6 1.7-1.7 3.2-4.2 3.2-5.3 0-2.1.1-2.1 3-.6 1.6.8 3.4 1.5 4.1 1.5 1.4 0 35.2-15.4 38.6-17.6 1.5-.9 2.5-3.1 3.3-7.1 1.7-8.8 1.8-9 5.7-10.8 3.5-1.7 3.5-1.8 2.9-6.4-.3-2.5-2.2-11.7-4.2-20.3-4.2-17.8-3.8-17.3-15.1-18.2-4.9-.4-6.3-.2-6.3.9 0 2.1 1.3 2.5 8.3 2.7l6.4.2 4.3 17.9c3.5 14.8 4 18.1 2.9 18.8-3.9 2.4-6.2-1.1-4.6-7.2.7-3 .5-5.1-1.3-10.3-2.7-8.1-3.7-9-9.4-8.2-4 .6-4.6.4-6.5-2-1.2-1.5-2.1-3.9-2.1-5.4 0-5-17-149.5-18-152.9-.8-3-.7-3.6 1.6-5.4 6.7-5.2 9.6-10.6 12-22.2.9-3.9 3.7-13.8 6.4-22 7.3-22.6 7.3-22.2 2.2-15.1m-25.6 67.1c.3 1.3.4 3 .2 3.7-.3.7-8.9 5.8-19.3 11.3s-19.3 10.7-19.9 11.7c-.7 1.1 1.1 19.8 6.3 65.5 10 87.3 9 80.2 11.5 80.9 1.5.3 7.9-2.5 20.5-9.1 10-5.3 18.4-9.5 18.5-9.3.3.3 2.6 20.6 2.6 22.5 0 2.5-16.2 9.8-26 11.7-6.4 1.3-12.7 3.4-19.5 6.6-14.4 6.8-14.1 6.8-14.8 2.3-.3-2.1-4.7-40.6-9.8-85.5l-9.3-81.7 2-2.7c1.3-1.8 11.3-7.6 28.4-16.5 14.6-7.6 26.8-13.8 27.2-13.9.4 0 1 1.1 1.4 2.5m-15.6 0c-.7.9-1.5 1.3-1.7 1.1-.7-.7.7-2.6 1.9-2.6.6 0 .6.6-.2 1.5m17.9 20.8c.1 3.4-.1 3.7-1.8 2.7-4-2.1-8.5-1-19.6 4.9-12.2 6.5-11.3 4.9-10 17.3.4 3.8 1.1 6.8 1.8 6.8.6 0 1.8.7 2.6 1.5 1.5 1.2 2.9.8 12.5-4.1 11.4-5.9 14.5-6.3 16.6-2.3 1.1 2 1 2-3.3 1.4-4-.6-5.3-.2-16 5.5-6.4 3.4-11.9 6.5-12.1 6.9-.2.3 0 4.3.6 8.7l1 8.1 3.6 1.1c3.4 1.1 4.2.8 13.8-4.3 10.9-5.7 13.4-6 15.3-1.9 1.5 3.4 1.4 3.6-.8 2.4-1.1-.5-3-1-4.2-1-2.1 0-15.8 6.5-23.5 11.1l-3 1.8.9 8.2c.7 6.5 1.4 8.6 3.1 10 1.1 1 2.7 1.8 3.5 1.9.7 0 5.9-2.4 11.5-5.4 10.6-5.7 14.9-6.4 15.9-2.5.5 1.7.1 1.8-3.1 1.3-3.2-.4-5.5.5-16.2 6.1l-12.6 6.6.7 5.7c.4 3.1.8 6.8.8 8.2.1 1.7 1.2 3.2 3.4 4.6l3.3 2.1 10.9-5.8c10.7-5.7 10.9-5.8 13.7-4.1 3.1 1.8 4.1 4.9 1.1 3.4-2.8-1.5-5.1-.7-18.1 6l-12.4 6.3.5 5.8c.3 3.5 1.2 6.6 2.2 7.7 1.6 1.7 2 1.8 4.4.6 5.1-2.7 20.2-6.7 23.7-6.4 2.7.2 3.9.9 4.5 2.5.7 2 .4 2.3-2.9 2.9-2 .4-10.6 4.2-19 8.6s-15.5 7.9-15.7 7.7c-.7-.7-16.3-139.1-15.9-140.4.3-.6 8.7-5.5 18.7-10.8l18.2-9.6.7 4.2c.3 2.3.7 5.9.7 8m34 163.1c.8 1 .7 2.4-.4 5.6-2.1 5.8-2.9 6.6-7.5 7.4-4.4.7-5.5 2.6-1.5 2.6 4.1 0 1.9 2.8-3.5 4.4-2.6.8-6 2.1-7.6 2.9s-5.8 2.4-9.3 3.6l-6.3 2.2-4.4-2.1c-5.6-2.7-8-2-9.5 2.9-1 3.5-1.9 4.2-10.9 8.6-8.7 4.3-10.2 4.7-14.6 4.2-3.5-.3-6.3 0-9.9 1.4-2.7 1-5 1.9-5 1.9 0-3.5-.7-5.5-2.2-6.3-3.5-2-12.3-11-14.6-15.1-2.5-4.2-4.1-13.3-2.8-15.4 3.1-5.1 19 7.4 24.5 19.4 1.9 3.9 3.8 7.4 4.4 7.8.5.3 3.1.3 5.6 0 3.8-.6 4.5-1 4.1-2.4s.2-1.9 2.7-2.4c1.8-.3 5.9-2.2 9-4.2 4.9-3.1 5.6-3.9 4.7-5.5-.8-1.6-.2-2.2 4-4.4 6.2-3.1 9.4-3.1 16.8-.3 3.2 1.2 6.5 2.1 7.3 1.9 2.8-.4 8-3.2 8-4.1 0-.6.5-1 1.1-1 2 0 4.4-3.3 4.1-5.7-.3-1.9.3-2.6 2.8-3.4 1.7-.6 2.9-1.6 2.7-2.3-.2-.6 1-1.6 2.7-2.3 4.1-1.5 4.2-1.5 5.5.1"/>
        <path d="M213 488c0 .5.5 1 1 1 .6 0 1-.5 1-1 0-.6-.4-1-1-1-.5 0-1 .4-1 1m181.9-289.5c-2.1 1.1-2.5 2-2.1 4 .5 3.1 1.9 2.8 4.6-.8 2.5-3.4 1.2-5.1-2.5-3.2m9.4 6.1c-6.3 3.3-9.9 6.1-9 7 .4.4 3-.5 5.8-2.1 4.7-2.5 5.2-2.6 6.7-1.1 1.6 1.6 1.4 1.9-2.3 5.1-3.1 2.6-3.7 3.6-2.8 4.5.9 1 2.6.4 7.5-2.6 3.5-2.1 6.6-4.2 7-4.8.8-1.3-2.8-6.1-5.7-7.4-1.9-.9-3.3-.6-7.2 1.4m-138.2 27.8c-4.1 6.6-9.4 19.1-8.8 21 .2.5 2.4-1.6 4.9-4.7 3.4-4.2 4.7-6.8 5.3-10.4.4-2.6 1.3-6.3 2.1-8.2 2.3-5.6.9-4.6-3.5 2.3m108.3 1.4c-.8.5-.1 3.4 2.3 9.6 3.9 10 3.9 15.6.3 15.6-2.2 0-4.6-4.2-8.1-13.7-1.2-3.2-2.5-6.2-2.9-6.7-.5-.4-3.4.6-6.6 2.3s-6.4 3.1-7.2 3.1c-1 0-1.2.5-.7 1.7.5 1 1.7 4.6 2.9 8 2.6 7.7 4.1 9.5 9.5 11.3 8.6 2.8 18.7-1.4 20.5-8.6.3-1.2-.9-6.3-2.7-11.5-4.3-12.3-4.7-12.9-7.3-11.1M248.5 256c-3.7 3.8-3.7 4.8 0 3.4 1.6-.6 5-6.2 4.3-7-.3-.2-2.2 1.4-4.3 3.6"/>
    </g>
</svg>
