<svg xmlns="http://www.w3.org/2000/svg" width="341.333" height="341.333" version="1.0" viewBox="0 0 256 256">
    <g fill="#e5e5e5">
        <path d="M145.2 8.6c-.3 5.9-4.5 20-8.2 28.1-11.1 24-33 45.6-57.3 56.7-7.2 3.2-7.7 3.7-7.7 6.5 0 1.7.3 3.1.6 3.1 1.9 0 17-7.9 24.2-12.7 18.5-12.3 35.9-34.1 43.6-54.4 3-8 5.9-22.7 5.3-27.2l-.4-3.2z"/>
        <path d="M158.8 15c1.9 40.3-33.9 91.9-70.5 101.5-14.1 3.7-22.7-3.7-20.8-17.9 1.6-11.6 8-24 19.7-38.2 3.9-4.7 6.9-8.6 6.7-8.8-.2-.1-6.2-2.4-13.4-5.1-27.6-10.3-43-15.5-44.2-15.1-2.2.9-14.1 20-19.8 31.8-6.2 13-8.9 21.9-11.1 37.1-1.8 12.3-1.3 16 3.6 25.7 4.5 9 9.6 12.7 25.1 18.5 14.9 5.5 22.5 6.6 31.8 4.5 26.4-5.8 59.1-33.8 77.9-66.7 14-24.5 20.6-50 17.3-67.5-1.9-9.8-2.8-9.8-2.3.2m30.2 91.1c-41.3 11.8-83.2 60.4-93.1 108-2.3 11.4-2.2 24.3.3 31.1 1.2 3.4 1.3 2.8 1.4-9 .1-15 2.5-24.3 10.4-40.9 11.5-24.2 28.3-42.3 48.7-52.7 24.6-12.4 38-1.4 29.2 24-2.7 8-8.6 17.7-16.9 27.8-3.9 4.7-6.7 8.7-6.3 8.9 1.3.8 30 11.6 43.3 16.3 6.9 2.4 13.1 4.2 13.7 3.9 2.2-.8 14.1-19.9 19.8-31.7 6.2-12.9 9.8-25.7 11.5-40.9 1.3-11.6.2-18.3-3.7-22.9-8.8-10.5-11.5-12.4-25.3-17.5-11.5-4.2-14.7-5-21.5-5.2-4.4-.1-9.6.2-11.5.8"/>
        <path d="M173 156.8c-12 5.9-21.6 12.7-30.1 21.3-19.2 19.5-30.9 42.7-32.4 64.4l-.5 7 1.4-7.2C118 207.9 142 178 175.7 162c7.7-3.7 8.3-4.2 8.3-7 0-1.6-.3-3-.7-3-.5 0-5.1 2.2-10.3 4.8"/>
    </g>
</svg>
