<svg xmlns="http://www.w3.org/2000/svg" width="341.333" height="341.333" version="1.0" viewBox="0 0 256 256">
    <path fill="#e5e5e5" d="M105 32.5C65.6 41.3 34.8 72 27.4 109.8c-1.8 9.4-1.8 25.9 0 35.4 7.7 39.7 39.5 70.4 80.6 77.9 3.6.7 12.4 1.2 19.5 1.1 10.6 0 14.8-.5 23-2.6 19-4.9 36.1-15.1 49.3-29.2 9.6-10.3 16.5-21.5 20.8-34.1 4.4-13 5.8-22.4 5.1-35.3-1.3-24-10.8-44.8-28.3-62.4C185 48.3 169.1 39 152 33.9c-9.8-2.8-36.9-3.7-47-1.4m66.5 32.2c-1 1.6-7.8 11.7-15.1 22.6-7.4 10.9-13.4 20-13.4 20.3 0 .2 7 .4 15.5.4s15.5.3 15.5.8c0 .8-84.9 80.8-88.3 83.2-2.2 1.5-2.2 1.5-.6-1 6.2-9.8 37.9-62 37.9-62.4 0-.3-6.8-.7-15.1-.8l-15-.3 11.3-16.6c6.2-9.1 16.5-23.8 22.8-32.7L138.5 62h34.7z"/>
</svg>
