<svg xmlns="http://www.w3.org/2000/svg" width="341.333" height="341.333" version="1.0" viewBox="0 0 256 256">
    <path fill="#e5e5e5" d="M108 15.4c0 .3.9 2 2 3.8 2.4 4 2.5 6.4.5 11.2-1.9 4.5-1.3 7.2 3.1 13.3 1.8 2.6 3.1 4.9 2.9 5.1s-2.5-.3-5.1-1.2S105 46 103 46c-3.5 0-3.6.1-3.2 3 .3 2.5-.3 3.8-3.7 7.5-5.8 6.3-6.1 8.7-2.3 15.6 3.7 6.7 4 9.6 1.2 13.2-2.1 2.6-11.2 7.7-13.9 7.7-.8 0-7.1-5.5-14-12.3S52 67 49 65.3C44 62.4 21.9 55 18.4 55c-2.5 0-1.5 4.8 1.8 8.7 1.8 2.1 7.1 7.8 11.8 12.8 10.7 11.3 15 16.5 19.4 24 3.2 5.2 3.6 6.7 3.6 12.4 0 11.7-2.9 19.3-14 38.2-10.8 18.2-13.7 25-14.5 34.4-1 12.5 2.4 38.7 5.6 41.9.9 1 2.9-3.1 8.9-17.6 1.7-4.3 4.4-9.6 5.9-11.8 3.7-5.6 24.4-24.5 30.6-28.1 6-3.5 7.2-3.6 8-.8 1 2.9 7.9 10.4 12.1 13 1.9 1.1 3.4 2.7 3.4 3.5s-2.1 2.9-4.7 4.7C89 195.2 86 198.5 86 201.5c0 2.6-4 7.6-7 8.8-1.3.5-1.3.7 0 1.7 1 .7 4.3.9 9.8.6 4.5-.4 8.2-.4 8.2-.2 0 .3-2.6 2.1-5.8 4-8.9 5.4-11.2 8.1-11.2 13.1 0 3.6-.5 4.8-3 6.8-1.7 1.4-2.6 2.8-2.2 3.1 3.8 2.4 17 1.3 27-2.1 8.4-2.8 15-8.1 35.8-28.6l20.6-20.2 5.2.3c3.5.2 10.4-1 22.5-4.1l17.5-4.5-6-1.2c-8.8-1.7-12.2-2.9-19.7-6.8-7.7-4-13.5-9.9-17.2-17.7-9-19.1-4.4-40.9 12.6-58.8 6-6.4 6.8-6.9 6.8-4.7.1 1.4-2.6 7-6 12.5-3.3 5.5-6.7 12.4-7.6 15.4-3.4 12 .9 27.5 10.2 36.5 8.8 8.6 24.2 13.8 34.8 11.8 5.2-1 5.2-1 3.6 3.9-1.7 4.9-7 12-16.8 22.7-14.1 15.3-21.3 27.4-21.3 36 0 6.3 7.1 10.5 13.3 7.9l3.3-1.3-3.9-2c-5.4-2.6-5.6-5.5-1.3-13.6 3.4-6.5 10.5-14.1 32.9-35.3 16.5-15.6 20.2-22.9 16.8-33.5-.6-1.9-1.2-9.6-1.3-17-.1-13.3-.2-13.6-3.7-21-5.3-11.1-13.5-19.3-40.6-40.3-1.3-1.1-5.3-2.5-9-3.3-12.6-2.6-21.6-9.9-29.2-23.8-2.4-4.4-6.4-10.1-8.9-12.8-5-5.4-16-12.6-23.7-15.6-5.3-2.1-13.5-3.8-13.5-2.8m-4.4 88.9c-10.7 13.1-11.4 27.8-1.6 34.4 1.8 1.3 4.6 2.3 6.1 2.3h2.9v7.2c0 12.2 4.3 16.8 16.4 17.8l7.1.6-4 1.2c-8.8 2.6-17.6 1-23.6-4.5q-6.9-6.3-6.9-11.7c0-1.8-.9-3-2.9-4-6.7-3.5-10.8-12.2-9.7-20.3.9-6.4 6.1-16 12.1-22 6.4-6.4 9.1-7 4.1-1M211 110c2.8 1.5 4.7 8.4 3 10.5-2.7 3.3-7.6 4.9-13.7 4.6-3-.1-9-5.5-11.4-10.2-1-2.1-1.9-4-1.9-4.2s2.4-.2 5.3 0c2.8.3 7 0 9.2-.5 5.4-1.3 7.3-1.4 9.5-.2"/>
</svg>
