<svg xmlns="http://www.w3.org/2000/svg" width="341.333" height="341.333" version="1.0" viewBox="0 0 256 256">
    <g fill="#e5e5e5">
        <path d="M165 66.7c-15.1 20-28.5 37.5-29.7 38.9-1.6 1.7-3.3 2.4-5.8 2.4-3.1 0-3.8-.4-5-3.3-2.3-5.6-3.5-18.2-3.5-37.2 0-10.1-.4-18.6-.8-18.9-.5-.3-1.2 8.8-1.6 20.2-.9 30.4-2.8 39.2-8.2 39.2-5.7 0-12.3-5-31.6-23.9-7.6-7.4-14.1-13.1-14.5-12.8-.3.4 4.5 6 10.8 12.4 24 24.7 29.7 33.8 23.7 37.7-4 2.6-13.8 3.7-36 4.3-12 .3-21.8 1-21.8 1.4 0 .5 7.3.9 16.3.9 17 0 33 1.3 38.4 3.1 10.1 3.3 6.4 10.7-18.3 36.7-7.5 7.9-13.4 14.6-13 14.9.3.4 7-5.7 14.9-13.3 26.4-26 33.5-29.2 36.6-16.8 1.5 5.9 3 27 3.1 42.3 0 6.8.4 11.1.9 10.5.5-.5 1.1-11.5 1.4-24.4.6-31.3 2.6-37.7 10.5-34.9 2.3.8 9.2 9.6 31.7 40.5 15.9 21.6 29.1 39.4 29.4 39.4.4 0 5.9-5.3 12.4-11.8l11.8-11.9-37.4-28.4c-37.5-28.4-41.7-32.2-41.7-37.7 0-2.6 3.6-5.2 7.1-5.2 1.4 0 22.8 3.1 47.4 7 24.6 3.8 45.6 7 46.6 7 1.8 0 1.9-1.1 1.9-16.4 0-9.1-.3-16.7-.7-16.9-.5-.3-21.6 2.4-47.1 5.9-44.5 6.1-46.4 6.3-50.3 4.8-4.8-2-5.9-5-3.2-9.6 1.1-2 10.9-9.8 26.3-21.1 13.5-9.8 30.4-22.3 37.7-27.6l13.2-9.7-12.2-12.1-12.2-12.1z"/>
        <path d="M89 35.9C57 42.7 30.1 67 20.2 98c-3.3 10.4-4.4 17.5-4.4 29 0 16.1 3.1 28.9 10.3 43 7.7 14.9 21.6 29.5 36.3 37.8 12.5 7.1 31.1 12.3 43.1 12.1 5-.1 5-.1-2.3-1.5-26.8-4.8-50.1-21.1-63.8-44.4-32.7-55.5.1-127 63.4-138.4l7.7-1.4H104c-3.6-.1-10.3.7-15 1.7"/>
    </g>
</svg>
