<svg xmlns="http://www.w3.org/2000/svg" width="341.333" height="341.333" version="1.0" viewBox="0 0 256 256">
    <g fill="#e5e5e5">
        <path d="M125.6 1.2c-.2.7-.9 4.7-1.5 8.8-1.4 9.2-5.7 18.7-11.6 25.6l-4.4 5.2 3.7 7.2c3.5 6.9 3.7 7.8 3.6 16.4 0 7.5-.5 10.2-2.7 15.5-1.5 3.6-2.7 7.4-2.7 8.6 0 2.7 4.7 9.9 9.5 14.5 6.8 6.6 13.6 4.1 21.6-7.9 3.6-5.5 3.6-7.1.2-15.2-2.2-5.3-2.7-8-2.7-15.5-.1-8.6.1-9.5 3.6-16.4l3.7-7.2-4.4-5.2c-5.9-6.9-10.2-16.4-11.6-25.6-1.5-9.5-1.6-10-2.9-10-.6 0-1.2.6-1.4 1.2"/>
        <path d="M93.5 53.2C68.9 67.7 58.7 69.7 29.2 66.3l-5.2-.6 3.9 6.4c6 9.9 11.8 22.1 14.7 30.6 2.3 6.8 2.8 10 3.3 24.8l.6 17 3.5-.3c4.8-.5 12.1-3.1 14.4-5.1 1-.9 4-4.8 6.7-8.7 6.6-9.8 9.2-11.7 14.9-11.2 5.1.5 21 6.6 27.6 10.6l4.4 2.7V143c-.1 11.8-1.9 24.1-4.5 28.9-2.2 4.3-6.3 5.9-17.6 6.7-5.2.4-10.5 1.2-11.9 1.9-2.8 1.4-12 10.9-12 12.3 0 .5 3.8 3 8.4 5.5 13.1 7.4 22.2 14.3 27.2 20.5 4.2 5.4 18.4 32.3 18.4 35 0 3.1 2 0 8.2-12.7 7.9-16.2 13.7-24.4 21.2-30.1 4.7-3.6 25.6-16.1 29-17.3 1.7-.7-10.4-12.6-13.9-13.6-1.6-.5-7-1.2-11.9-1.6-10.4-.7-14.7-2.3-17.2-6-2.6-4-4.3-12.9-5-26.6l-.7-12.7 3.9-2.5c5.8-3.8 24.1-10.8 29.9-11.4 4.5-.5 5.5-.2 8.3 2.2 1.8 1.5 5.5 6 8.3 10 5.8 8.5 11.6 11.8 21.9 12.7l3.5.3.6-17.5c.4-14.6.9-18.6 2.8-23.9 2.6-7.5 8.2-18.6 14.5-29.1 2.5-4.1 4.3-7.6 4.1-7.8-.1-.2-5.9.2-12.7.9-13.6 1.3-24.7.7-32.9-1.7-5.1-1.5-18.5-8-29.2-14.1-5.5-3.1-5.7-3-8.2 5.1-2.5 8.2-2 11.8 3 21.3 6.1 11.5 6.1 14.7-.1 21.3-4.3 4.6-15.3 12.3-23.2 16.4l-3.4 1.8-8-4.9C105.2 104.1 97 95.7 97 89.9c0-1.3 2.1-6.7 4.6-12.2 4.2-8.9 4.6-10.4 4.1-15-.5-5.2-3.4-13.7-4.6-13.7-.3 0-3.7 1.9-7.6 4.2"/>
        <path d="M84.3 132.2c-1.1 1.3-3.4 4.4-5.1 7-6.8 10.1-15.5 15.4-27.3 16.6l-7.1.7-2.2 7.5c-2.8 9.7-5.3 13.8-14.4 23.1-4.1 4.3-6.9 8-6.3 8.3.6.4 3.6-.7 6.9-2.3 9.8-5 16.2-6.4 27.5-6l10 .4 2.7-5.2c1.5-2.9 3.9-6.8 5.3-8.6 2.8-3.7 14.1-10.1 19.7-11.2 9.8-1.9 11-2.5 13-6.5 2.1-4.1 4.1-11.7 4.2-16.3.2-6-7.3-9.7-19.6-9.7-4.2 0-5.7.5-7.3 2.2m67.7-1c-4.9 1-9 4.6-9 7.9 0 1.1.7 5.1 1.6 9 2.2 9.6 4.7 12.4 12.4 13.8 7.8 1.3 18.2 6.5 22 10.8 1.7 1.9 4.3 6 5.9 9.2l3 5.8 10.3-.5c9.2-.4 11.1-.1 18.3 2.2 4.4 1.5 9.5 3.6 11.4 4.7 2.3 1.3 3.7 1.7 4.4 1s-.9-2.7-4.5-6c-7.7-7-12.8-14.8-15.8-24.4l-2.7-8.2-7.4-.8c-4.1-.4-9.2-1.7-11.4-2.7-4.8-2.4-12.6-9.7-16.7-16-1.7-2.5-3.8-5.1-4.6-5.8-1.8-1.4-10.6-1.4-17.2 0"/>
    </g>
</svg>
