<svg xmlns="http://www.w3.org/2000/svg" width="341.333" height="341.333" version="1.0" viewBox="0 0 256 256">
    <g fill="#e5e5e5">
        <path d="M169.5 20c-18.1 3.7-28.3 3.8-43 .5-13.8-3.1-20.8-3.1-32.6-.1-16.1 4.1-26.6 9.7-38.2 20.4C50 46 43.2 49.9 39.8 50c-2.5 0-3.1 1.8-1.9 4.9C40.2 60.3 48.6 63 57 61c5.2-1.2 11.8-5.3 23-13.9 8-6.3 14.4-8.6 23.2-8.5 5.6.1 8 .8 14.5 3.9 17.6 8.4 22.8 9.1 33.3 4.5 8.5-3.7 13.2-3.9 16.5-.5 3.2 3.1 3.2 6.5-.1 9.6-1.4 1.3-3.9 4-5.5 6l-2.9 3.7 8.7 4.3c7 3.4 10.4 6 16.9 12.4l8.1 8.2 2.6-2.1c1.5-1.2 2.7-2.6 2.7-3.2s.6-1.8 1.3-2.8c1.2-1.7 1.5-1.7 6.5-.1 7.9 2.6 10.8 1.4 13.7-5.6 3-7.4 8-15 14.9-22.7 6.6-7.4 7.1-10.3 2.7-14.6l-2.9-2.8-7.7 3.3c-7.3 3-8 3.1-13 2-2.9-.7-6-2-7-3.1-.9-1-3.1-2.2-4.9-2.5-1.7-.4-5.8-1.6-9.1-2.7-4-1.4-8.7-2.1-14-2.1-7.3 0-9.1.4-19.9 4.7-16 6.4-19.9 6.4-29.5.7-11.8-7.2-21.3-8.8-33.4-5.6-7.3 1.9-11.7 4.1-24.9 12.7-12.5 8.1-19 10.8-25.6 10.7l-4.7-.1 5.2-.8c5.9-.9 11.9-4.1 21.1-11.2 14.3-11.2 24-16.1 35.5-17.9 8.6-1.4 16.7.2 27.2 5.6 5.4 2.7 10.3 4.5 12.3 4.5 1.9 0 7.5-1.7 12.6-3.9 12.8-5.3 18.3-6.5 28.2-5.8l8.4.5V17l-3.7.1c-2.1 0-10.1 1.3-17.8 2.9"/>
        <path d="M148.7 73.1c-1.5.9-1.1 1.6 2.8 6.4 4.7 5.8 11.9 19.7 13 25.2.4 1.8 1 3.3 1.3 3.3.4 0 3-1.2 5.9-2.8 5.9-3 6-3.4 1.6-11.1-3.4-5.8-8.5-11.4-15.3-16.5-7.2-5.6-7.3-5.6-9.3-4.5M120 83.2c-.1.2-.2 2.8-.4 5.9-.5 9.8-7.5 19-22 28.9-3.9 2.7-8.4 6-10.1 7.4l-3 2.6 3.4 2.9c2.2 2 6 3.6 11.5 5.1 4.4 1.1 10.5 2.9 13.3 3.9 4.6 1.6 5.4 1.7 6.5.4 2.2-2.7 15.1-12.9 22.7-17.9l7.4-4.9-.7-8c-.6-8.3-1.6-13-4.3-20.2-1.5-4.2-1.5-4.2-5.8-3.6-2.3.3-5.8.1-7.6-.5-3.8-1.2-10.9-2.5-10.9-2m-48.8 56.1-4.2 4.2 2.1 4.3c1.2 2.4 4.8 6.6 8 9.5 3.2 2.8 7.2 7 8.9 9.4l3.1 4.3 7.7-8.1c4.2-4.5 7.8-8.5 8-8.8.1-.4-3.1-2.2-7.3-4-9.7-4.3-16.1-8.5-18.2-12.2-1-1.6-2.2-2.9-2.8-2.9s-3 1.9-5.3 4.3m-13.9 14.9c-6.5 7-11.2 13.9-10.6 15.6 1 2.9 6.5 9.6 10.1 12.4 3.1 2.5 11.3 5.6 18.5 7.2 2.4.6 2.9.2 4.3-2.7 1.6-3.2 1.5-3.4-2.2-10.3-2.1-3.8-5.5-8.9-7.7-11.4-2.1-2.5-5-6.6-6.3-9.3-1.3-2.6-2.6-4.7-2.7-4.7-.2 0-1.7 1.5-3.4 3.2M37 176.1c-.7 1.1-1.8 4.2-2.6 6.8-2.1 7.1-7 13.7-13.5 18.4-3.3 2.2-5.9 4.5-5.9 5.1 0 .5 2.5 3.3 5.6 6.1 5.5 5.2 5.6 5.2 6.5 13.1.6 4.3 1.7 8.9 2.4 10.1 1.7 2.6 6.9 3.8 12.1 2.9 6.3-1.2 16.5-12.4 25.1-27.4l4.2-7.5-8.1-4c-9.7-4.9-16.2-11.2-20.3-19.6-1.6-3.4-3.2-6.1-3.6-6.1-.5 0-1.3.9-1.9 2.1"/>
    </g>
</svg>
