<svg xmlns="http://www.w3.org/2000/svg" width="341.333" height="341.333" version="1.0" viewBox="0 0 256 256">
    <g fill="#e5e5e5">
        <path d="M117.3 12c-8 2.2-36.8 21.4-46.9 31.2-8.5 8.3-9.4 10.7-9.4 24.4 0 13.8.7 15.7 9.2 24 10.1 9.9 39.3 29.5 47.2 31.7 3.3.9 6.1 1.5 6.3 1.4.1-.2-.3-9.2-.9-20-.8-14.5-1.5-19.7-2.4-19.7-1.7 0-18.4-9.7-20.8-12-2.3-2.2-2.6-8.1-.6-10.5.7-.9 4.3-3.2 7.9-5.2s7.8-4.5 9.3-5.5c1.4-1 3.2-1.8 4-1.8 1.2 0 1.7-3.9 2.6-19.7.6-10.8 1.1-19.8.9-19.9-.1-.1-3 .6-6.4 1.6m14 6.3c.4 4.5 1 13.4 1.3 19.7l.7 11.5 5.7 2.8c3.1 1.6 8.4 4.6 11.8 6.7 6.1 3.9 6.2 4.1 6.2 8.3 0 2.9-.6 4.9-1.7 5.9C152.5 75.5 136 85 134.6 85c-.9 0-1.6 5.3-2.5 19.6-.6 10.8-1 19.8-.8 20s3-.4 6.3-1.3c4.5-1.3 10.3-4.8 24.9-14.9 21.1-14.7 28.7-21.7 30.4-27.9 1.4-5.2 1.4-20.9 0-25.9-1.7-6.2-9-12.8-29.8-27.4-15.8-11.1-20.5-13.9-25.8-15.3l-6.6-1.8z"/>
        <path d="M165.5 120c-10.7 10.7-14.2 13.6-20.8 17-4.3 2.2-8.4 4-9.1 4-1.7 0-1.8 1.3-5.3 43.4-1.9 23.5-3 32.8-3.5 30-.3-2.1-1.8-18.5-3.3-36.4-2.9-36.4-3-37-5-37-.8 0-4.9-1.8-9.2-4-6.3-3.3-10.2-6.5-20.6-16.8-10.5-10.4-12.6-12.1-11.4-9.2 5.5 13.6 49.1 114.7 49.6 115.2.4.5 12.2-26.1 26.3-58.9 14.2-32.9 25.6-59.8 25.5-60-.2-.1-6.1 5.6-13.2 12.7m-141.7 8.1c-2.6 1.4-2.2 2.9 1.3 5.9 2 1.6 3.2 3.5 3.2 5.1 0 2.4 1.1 3 12.8 7.8 7.1 2.9 13.8 6 14.9 7 1.6 1.4 4.5 11.9 3.5 12.9-.2.2-1.5-1.9-3-4.7-2.5-4.5-3.3-5.2-9.7-7.5-3.8-1.4-7.3-2.6-7.9-2.6-2.3 0-.5 1.9 4.1 4.4 2.9 1.6 5.7 4 6.6 5.7l1.5 3-3.7-.7c-2.1-.4-7.4-2.4-11.8-4.4-10.1-4.7-13.9-5.6-15.5-3.6-1 1.2-.7 1.7 1.8 3 1.6.9 3.4 2.2 3.8 2.9s5.5 2.3 11.3 3.5c8.8 1.8 10.9 2.7 12.7 4.9 2.7 3.4 2.1 4.4-1 1.5-1.4-1.3-4.1-2.3-7.7-2.6l-5.5-.6 4 1.5c4.9 1.9 8.1 4.9 10.7 9.8 1.6 3.3 1.7 4.4.8 7.3-1.1 3.1-1 3.8.9 5.8 1.5 1.6 2.3 4.4 3.1 11.1.5 5 1 9.7 1 10.6 0 1.1 1.2 1.8 3.8 2.3 2.2.3 5.5 1.7 7.6 3.1 4.6 3.1 4.6 3.1 4.6-.1 0-1.9-1.5-4.1-5.6-7.9l-5.7-5.2.8-4.9c.3-2.7 1.5-8.7 2.6-13.3 3-13 4-21.6 3.2-29.3-.7-8.2-2.4-10.5-9.3-12.8-2.4-.8-8-4.7-13.6-9.5-10.7-9.3-16.4-11.9-20.6-9.4m198.5.1c-1.8.6-7.5 4.8-12.7 9.3-5.6 4.8-11.2 8.7-13.6 9.5-6.9 2.3-8.6 4.6-9.3 12.8-.8 7.7.2 16.3 3.2 29.3 1.1 4.6 2.3 10.6 2.6 13.3l.8 4.9-5.7 5.2c-4.1 3.8-5.6 6-5.6 7.9 0 3.2 0 3.2 4.6.1 2.1-1.4 5.4-2.8 7.6-3.1 2.6-.5 3.8-1.2 3.8-2.3 0-.9.5-5.6 1-10.6.8-6.7 1.6-9.5 3.1-11.1 1.9-2 2-2.7.9-5.8-.9-2.9-.8-4 .8-7.3 2.6-4.9 5.8-7.9 10.7-9.8l4-1.5-5.5.6c-3.6.3-6.3 1.3-7.7 2.6-3.1 2.9-3.7 1.9-1-1.5 1.8-2.2 3.9-3.1 12.7-4.9 5.8-1.2 10.9-2.8 11.3-3.5s2.2-2 3.8-2.9c2.5-1.3 2.8-1.8 1.8-3-1.6-2-5.4-1.1-15.5 3.6-4.4 2-9.7 4-11.8 4.4l-3.7.7 1.5-3c.9-1.7 3.7-4.1 6.6-5.7 4.6-2.5 6.4-4.4 4.1-4.4-.6 0-4.1 1.2-7.9 2.6-6.4 2.3-7.2 3-9.7 7.5-1.5 2.8-2.8 4.9-3 4.7-1-1 1.9-11.5 3.5-12.9 1.1-1 7.8-4.1 14.9-7 11.7-4.8 12.9-5.4 12.9-7.8 0-1.6 1.1-3.5 3.1-5.1 3.6-3.1 3.9-4.5 1.2-6-2.3-1.2-3.5-1.2-7.8.2"/>
        <path d="M38.8 176.2c-5.5 8.5-7.1 14.5-4.3 16.8.8.7 2.9 3.9 4.6 7.1 2.6 4.8 3.8 6.1 6.7 6.9 4.1 1.1 5.8.4 4.1-1.6-.6-.7-.9-2-.6-2.7s-1.8-2.9-4.9-5.1c-5.1-3.7-5.4-4.2-5.4-8.2 0-5.4 1.6-6.5 2.3-1.8.6 3.6 3.1 7.4 4.9 7.4.5 0 .1-1.1-.8-2.5-1.4-2.2-1.5-3.1-.4-6.8 1.3-4.7 1.5-7.9.6-10.4-.6-1.4-.8-1.4-2.1.3s-1.4 1.7-1.5.1c0-2.4-1.5-2.1-3.2.5m169.6-.9c-.9 2.5-.7 5.7.6 10.4 1.1 3.7 1 4.6-.4 6.8-.9 1.4-1.3 2.5-.8 2.5 1.8 0 4.3-3.8 4.9-7.4.7-4.7 2.3-3.6 2.3 1.8 0 4-.3 4.5-5.4 8.2-3.1 2.2-5.2 4.4-4.9 5.1s0 2-.6 2.7c-1.7 2 0 2.7 4.1 1.6 2.9-.8 4.1-2.1 6.7-6.9 1.7-3.2 3.8-6.4 4.6-7.1 2.4-2 1.8-6-1.8-12.4-3.5-6.2-5.7-8.1-5.7-4.9-.1 1.7-.1 1.7-1.5-.1-1.3-1.7-1.5-1.7-2.1-.3m-130 13.8c-1.5 1.7-2 4-2.3 11.1-.3 8.1 0 9.8 2.9 17.6 4.4 11.6 10.5 21.8 14.9 24.8 4.9 3.3 6.7 3.1 4.1-.5-1.4-1.8-2.5-5.3-3-9.7-.7-6-1.3-7.3-3.9-9.5-3.6-2.9-3.7-3.5-1.5-5.6 1.1-1.2 1.4-2.6.9-5.2-.3-2-.6-7-.5-11.1 0-5.9-.4-8.2-2-10.8-2.4-3.9-6.6-4.4-9.6-1.1m89 0c-1.5 1.6-1.9 3.7-2.1 9.3 0 3.9-.4 9.3-.8 12.1-.5 3.7-.3 5.5.9 7 1.4 1.8 1.2 2.2-1.5 5.1-2.5 2.6-3.2 4.4-3.9 9.9-.5 4.3-1.6 7.9-3 9.6-2.6 3.6-.8 3.8 4 .5 4.1-2.8 9.8-12 14.2-23.1 4.1-10.2 5-22.9 2.1-28.5-2.3-4.4-6.8-5.3-9.9-1.9"/>
    </g>
</svg>
