<svg xmlns="http://www.w3.org/2000/svg" width="682.667" height="682.667" version="1.0" viewBox="0 0 512 512">
    <g fill="#e5e5e5">
        <path d="M129.9 7.4c-10.6 5.7-14 7.7-29.6 18-8.3 5.5-15.5 10.7-16.1 11.7-1.3 2.1.1 6.9 3.5 11.6 1.3 1.7 2.3 3.4 2.3 3.8 0 .3-3.1 4.1-6.8 8.4S74 72.3 71 76.6c-4.5 6.6-5.3 8.4-5.1 11.7.1 3 4.7 12.4 18.3 37.6 9.9 18.5 18.7 34.7 19.5 35.9 1.3 2.1 1.3 2.6-.3 4.3-1.6 1.8-1.7 2.5-.6 6.6 1.3 4.5 1.2 4.7-1.5 6.9-2.6 2.1-2.7 2.4-1.4 4.6.8 1.3 2.6 4.3 3.9 6.8 1.3 2.4 3.8 6.2 5.5 8.5 1.7 2.2 3.2 4.1 3.3 4.3s1.1-.1 2.3-.7c2.6-1.5 4.1 1.1 4.1 7.2 0 7.4 7.5 15.7 14.1 15.7 1.6 0 2.9.4 2.9.9 0 .6 2.4 3.8 5.3 7.3s6.8 8.5 8.7 11.3c1.8 2.7 4.3 6.1 5.6 7.5 2 2.2 13 20 29.6 47.8 4.7 7.9 4.9 8.5 4.3 13.6-1.3 10.1 5.6 18.7 16.5 20.5l3.5.6v7c.1 11.1 5.7 20.6 13.3 22.7 2 .5 5.4 2.6 7.6 4.6 3.9 3.8 9.6 10.9 9.6 12.2 0 .7-8.1-.3-11.8-1.4-1-.3-2.3.4-3.3 1.7-2.4 3.3-5 11.8-4 13.1.4.6 1.6 4.3 2.6 8.3 4.2 17.5 28.6 46.9 46.4 55.9 5.3 2.7 7.3 3.2 14.8 3.3 6.8.2 9 .6 10 1.9.7.9 5 6.6 9.4 12.7 11.6 16 23.9 30 27.5 31.3 5.7 2.2 14 1.4 24.9-2.2 18.2-6.1 29-12.4 56-32.6 14.3-10.7 17.5-13.6 25.7-23.7 5.7-6.9 7.6-11.1 6.2-13.5-.4-.7-.7-2.7-.5-4.4.2-2.5-1.5-5.3-9.5-16-5.4-7.1-12.2-16.7-15.2-21.4s-8.9-13.2-13.2-19c-4.2-5.8-10.7-15.8-14.5-22.2-9.5-16.5-11-17.1-37.2-14.3-3.5.4-4.3.1-4.3-1.1 0-2.3 6.2-12.2 10-16.1l3.1-3.2-2-3.9c-3.6-7-10-14.4-12-13.7-1.4.4-2-.1-2.4-2.2-.3-1.6-.3-4 0-5.5.9-4.9-.6-9.3-4.5-13.3-3.7-3.8-12.2-8.5-15.4-8.5-2 0-2.3-1.5-1.9-9.6.2-3.6-.3-6.4-1.8-9.1-2.5-4.9-11-12.8-15.6-14.4-1.9-.7-3.6-1.8-3.8-2.3-.3-.6-12.9-18.3-28-39.2-26.8-37-27.6-38.3-28.6-44.3-.6-3.5-1.5-6.9-2.2-7.7-.9-1.1-.9-2.1.1-4.3 1.1-2.8.8-3.6-7.8-16.8l-8.9-13.8h-4.8c-3.6 0-5.1-.5-5.9-1.9-.6-1-3.2-4.8-5.8-8.5-9.2-12.8-14.5-20.7-19.2-28.6-6.6-11-16.3-25.4-19.6-29-1.5-1.7-5.3-6.8-8.4-11.5-7.6-11.6-16-20.9-21.8-24.3-2.6-1.5-5.1-2.7-5.6-2.7s-3.8 1.5-7.3 3.4m13.2 9.3c2 2.1 15.4 20.7 29.9 41.3s28.4 40.4 30.8 43.8c2.5 3.5 5.1 6.6 5.8 6.9 1.7.6 2.5 4.3.9 4.3-.7 0-1.8.7-2.5 1.5-.7.9-1.5 1.4-1.7 1.1-.3-.2-4.4.9-9.1 2.6-4.8 1.6-11.4 3.1-14.7 3.3-5 .3-7.7 1.2-16.1 5.8-14.4 7.8-29.6 18.4-38.9 27.1-4.4 4.1-7.5 7.5-7 7.5.6.1 4.1-2.4 7.8-5.4 16.2-12.8 38.2-26.3 47.3-28.9 2.7-.8 7.4-2.1 10.4-3s8.2-2 11.4-2.6c3.3-.5 6.3-1.5 6.6-2.1.6-.8.9-.8 1.5.1.9 1.5 1.1 1.4-6.9 3.4s-22.3 7.3-23.1 8.6c-.3.5 2 0 5.2-1.1 7.6-2.6 28.9-7.9 31.9-7.9 2.8 0 3.1-1.6.8-4.1-1.4-1.6-1.3-1.8 1.5-2.4 1.7-.3 3.9-.4 4.8-.1 1.9.6 7 7.4 6.6 8.8-.2.4.1.8.5.8.5 0 3.1 3.2 5.7 7.1 3.9 5.5 4.7 7.4 3.9 8.7-.8 1.1-.6 2.4.5 4.6.8 1.7 1.5 5.5 1.5 8.6l.1 5.5 30.3 42c27.1 37.5 30.8 42.2 34.2 43.5 8.6 3.4 12 9.2 12 20.6 0 7.3 2.1 9.8 8.9 10.7 4.8.6 8.3 2.8 11.5 7.1 1.7 2.2 2.1 4.3 2.2 10.2.1 8.2 2.1 12 5.6 10.9 1.3-.5 2.5.5 4.7 4.2 1.6 2.6 3.6 5.6 4.5 6.5 2.2 2.5 2 4.2-.9 7.6-1.4 1.7-2.5 3.5-2.5 4.2 0 .6-1.4 2.9-3.2 5.1-3.5 4.4-3.3 5.5 2.1 11.9 2.4 2.8 2.9 3 6.1 2 1.9-.5 7.6-1 12.6-1 9.9 0 10.3.2 16 8.5 1.1 1.6 10.6 15.1 21 30 10.5 14.8 20.9 29.8 23.3 33.3 2.3 3.5 5.3 6.7 6.5 7.2 2.8 1 4 3.8 2.5 5.6-.9 1.1-.9 1.4 0 1.4 2.7 0 2.2 3.2-.9 6-1.8 1.6-3.3 3.7-3.4 4.7-.3 2.2-16.4 19.3-18.2 19.3-1.7 0-11.4 5.9-11.4 6.9 0 .4-2.5 2.5-5.5 4.6-3.1 2.1-8.1 6.2-11.1 9.2-8 7.9-18.6 12.5-36.3 15.8-4.1.8-8.8 2-10.4 2.6-2.3 1-3.2 1-3.5.1-.2-.7-1.1-.8-2.8-.2-1.9.8-2.4.6-2.4-.6 0-.8-1.3-2.6-2.8-3.9-1.6-1.3-7-8.4-12.2-15.7-5.1-7.3-11.1-15.6-13.4-18.5-4-5-4.2-5.1-8.1-4.5-2.2.4-7.4.7-11.5.7-7.5 0-7.5 0-16.3-5.9-6.4-4.2-10.5-7.8-14.6-13.1-9.1-11.4-14.8-21.2-17-29.5-2.7-9.7-2.7-13.5.1-15.4 2.1-1.5 2.2-1.4 4 4 6 17.9 24.1 41.3 38.1 49.3 5 2.8 6.2 3.1 14.3 3.1h8.9l10.7 11.3c5.9 6.1 13.6 14.3 17.2 18.2 3.5 3.8 6.8 6.7 7.1 6.3.4-.4-1.5-3.7-4.1-7.4-2.7-3.7-4.9-7.3-5-7.9s-5.2-7.4-11.4-15.1c-12.7-15.8-29.5-40.4-28.3-41.4.4-.4 2.6-1.3 4.8-2s8.7-3.7 14.5-6.6c5.8-3 11-5.4 11.6-5.4 1.7 0 20.5-11.9 29.9-19 5-3.7 13-10.2 17.8-14.5 4.9-4.2 9-7.5 9.1-7.3.2.1 7.7 11.3 16.6 24.8 16.3 24.5 20.2 30 25 35.3 2.3 2.7 2.4 2.9.7 3.9-1 .5-4.1 3-6.9 5.4-2.7 2.5-11.5 9.7-19.4 16-15.4 12.3-17.1 14-12.7 12.3 9.7-3.7 20.6-10.6 33.5-21.3 9.1-7.6 10.3-9.5 8.8-14.1-4.1-12.3-37.3-64.4-44.8-70.2-2.7-2-3.4-2.1-12.9-1.3-5.5.5-11.2 1.2-12.6 1.5-2.2.6-2.9.3-3.8-1.9-.7-1.4-2-2.6-3.1-2.6-1.2 0-1.8-.7-1.8-2.4 0-2.9-2.2-4.9-4.4-4-1.8.7-2.1 2.5-.6 4 1.3 1.3-3.2 15.4-5.3 16.6-.9.5-1.4 1.5-1.1 2.2.8 2.1 8.3.2 16.1-4 4.9-2.6 8.7-3.9 13.3-4.4 3.6-.4 6.6-.6 6.8-.5.4.3-10.9 11.1-17.8 17-13.4 11.4-64.5 37.3-67.6 34.2-1.2-1.2 1.1-5 6.4-10.8 4.5-4.9 6.2-6 14.2-8.8 8.6-3.1 21.9-10.8 24.9-14.5 1.6-2 3.2-2.5-16.8 5.8-7.4 3-13.8 5.3-14.3 5-.9-.6-8.8-12-8.8-12.8 0-.3 2.1-1.4 4.6-2.5 2.5-1.2 6.7-3.6 9.2-5.4 2.6-1.9 8.6-5.7 13.3-8.5 4.8-2.9 11-7.3 13.8-9.8 2.9-2.6 5.5-4.4 5.8-4 .9.9 4.4-2.5 3.7-3.6-.3-.5 1.6-3.4 4.3-6.6l4.8-5.6-7 5.3c-3.8 3-10.4 8.1-14.5 11.5-17.1 14.1-55.8 34.6-65.2 34.6-1.2 0-3.6.5-5.3 1.1-2.8 1.1-3.5.8-9.7-3.5-7-4.9-11.8-9.8-11.8-12.1 0-.7-1.5-1.8-3.4-2.5-4-1.3-6.9-4.4-8.5-8.9-1.3-4.1-1.4-12-.1-14.1 1.1-1.8-2.4-6-5.1-6-3.7 0-12.5-4.1-14.4-6.8-1.9-2.6-2.6-10.8-1.5-18.2.6-3.5-55.3-84-58.2-84-7.7 0-14.6-10.1-12.7-18.5 1-4.6.9-5.9-.5-7.8-1.3-1.6-1.6-1.6-6 .4-2.6 1.1-4.9 1.9-5 1.7-.1-.1-1.8-2.6-3.8-5.4-6-8.6-6.1-8.9-3.3-12.2l2.4-2.9-2.1-4.2-2.1-4.2 2.2-2.3 2.2-2.4-3.2-5.8c-1.8-3.3-4-7-5-8.4-.9-1.4-4.4-7.8-7.8-14.3-3.3-6.5-8-14.6-10.4-18-8.9-12.5-16.4-28.9-14.1-30.5.5-.4 4.8-5.2 9.6-10.7C84.9 70 91.3 63 94.4 60s5.6-5.9 5.6-6.6c0-.6-1.3-3-3-5.2-4.7-6.5-4.2-8.2 4.6-15.2 4.2-3.3 8.8-6.7 10.4-7.5 1.5-.8 6.7-3.9 11.6-7 11.1-6.9 14.4-7.2 19.5-1.8m142.5 363.9 4.6 6.5-6.4 6.7c-7.3 7.7-10.8 12.3-10.8 14.5s6 13.2 14 25.6c3.9 5.9 7 11.1 7 11.4 0 3.5-15.8-5.6-25.6-14.6-8.7-8.1-14-14.9-19.4-25-3.8-7-4.1-8.1-3.3-11.5l.9-3.7 2.8 5.5c4.3 8.4 17.6 25.6 17.6 22.7 0-.3-2.4-4.4-5.4-8.9-9.3-14.5-13.9-25.5-11.6-28.3.9-1.1 1.6-1.2 3-.2 2.4 1.4 8.2 0 18.9-4.7 4.2-1.8 7.9-3.1 8.3-2.9s2.9 3.3 5.4 6.9"/>
        <path d="M127.5 24.8c-3.3 2.1-10 6-15 8.7-4.9 2.6-9.2 5-9.4 5.1-.4.4 1 2.7 13.2 22.1 5.3 8.4 10.6 17.1 11.8 19.5s4.4 6.9 7.2 10.2c12.4 14.3 16.5 23.6 10.9 24.4-4.6.7-11.4-5.2-25.4-21.9-13.7-16.5-17.8-22.2-17.8-25 0-2.1-.4-1.9-4.7 2.2-2.7 2.5-8.2 7.4-12.3 10.9s-7.9 6.7-8.5 7.2c-.5.5 1.5 3.3 5.1 7.1 6.4 6.5 16.5 19.2 27.5 34.6l6.7 9.2 5.7-5c7.4-6.5 16.5-11.9 30.5-18.2 9-4.1 12.9-5.3 18.2-5.7 5.5-.4 6.9-.2 7.4 1.1.6 1.8-.9 5.2-4 8.5l-2.1 2.3 2.6-1c1.4-.5 3.2-.9 4-.8 1 .2 13.5-4.5 15.7-5.9.1-.1-2.3-3.8-5.4-8.2-9.2-12.8-44.5-68-49.3-77-2.4-4.5-4.9-8.2-5.5-8.2s-3.8 1.7-7.1 3.8m78.1 104.3c-8 1.9-32.8 14.9-49.9 26.2-18.3 12.2-34.7 25.1-34.7 27.4 0 .8.3 1.3.8 1.1.4-.2 3.4-1.6 6.7-3.2 3.3-1.5 8.4-4 11.3-5.3 2.9-1.4 6.8-2.8 8.7-3 2.9-.3 3.4 0 3.7 1.9.4 2.5-1.1 6.8-2.3 6.8-1.4 0-7.1 5.4-11 10.3-2.8 3.5-3.9 5.8-3.9 8.3 0 5.7 2.4 10.1 6.9 12.3 4.9 2.5 7.2 2.6 11.4.5 5-2.6 6.6-4.4 7.2-8.3 1.3-7.7 1.5-8.1 4-8.1 1.3 0 2.6.3 2.9.8.2.4.7 5.6 1 11.6.7 11.1 1.1 12.7 8.7 30.6 2.8 6.5 22.9 36.2 29.7 43.8 4.6 5.2 4.8 5.3 11.1 5.7 6 .5 9.8 1.5 5.4 1.5-2.5 0-9.8 5.2-11.4 8.2s-1.2 9.8.7 11.9 6.4 3.3 7.6 2.1c.6-.6.1-2.3-1.1-4.3-2.4-4-2.7-8.2-.6-9.9.8-.6 3.1-1.4 5.2-1.7 5.1-.7 7.4 1.9 8.1 8.8.5 5.8 1.8 6.7 6.3 4.5 3.9-1.9 3.9-1.9 3.9-.2 0 .7.7 1.9 1.5 2.6 3.1 2.6 9-2.4 6.5-5.5-2.4-2.9-.6-3.8 6.7-3.6 8.2.3 11.4-1 16.2-6.4 2.6-3 3.7-6.4 3.2-9.8-.3-1.9 2.1-.4 3.9 2.5 4 6.5 2.4 10.5-8.4 21.1-1.8 1.9-2.6 3.5-2.3 4.8 1 3.8-1.1 8.6-4.4 9.9-2.6 1.1-3.6 1-6.7-.5-5.3-2.7-10.4-2.8-15.9-.4-9.1 3.9-12.1 9.3-8.8 16.2 2 4.2 9 8.3 11.2 6.5 1.9-1.5 1.6-2.7-.9-4.9l-2.3-1.8 2.8-.1c2.8 0 3.2-.6 2.1-3.4-.9-2.2-3.7-2-5.2.4s-3.8 2.6-4.6.4c-1.4-3.5 3.8-8.4 8.9-8.4 3.9 0 7.5 3.5 8.4 8.2.5 2.3 1.2 3.3 2.6 3.3s2.3-1.5 3.8-5.8c2.4-7.3 4.4-8.5 9.6-5.6 2.1 1.1 4.6 1.9 5.6 1.8 2.6-.5 3.6-5.1 1.9-8.4-.8-1.5-1.4-4-1.4-5.7 0-2.5.6-3.2 4.3-4.8 5.2-2.3 7.7-1.2 9.1 4.3.8 3.1.6 4-1.7 7.1-5.5 7.2-1.7 9 6.4 3 3.2-2.3 5.2-4.6 5.8-6.7l.8-3.2 2.2 5c2.5 5.5 2.3 10.8-.5 15.1-.9 1.3-1.2 2.4-.7 2.4 1.2 0 17.9-11 23-15.1 6.8-5.6 13.3-13.3 12.3-14.9-1-1.7-6.4 1.4-13.8 8.2-5 4.4-5.7 4.8-10.6 4.8-4.2 0-5.7-.5-7.3-2.3-2.5-2.7-5.3-8-5.3-10.1 0-2.4 3.6-3.9 6.1-2.6 2.5 1.4 7.9.3 7.9-1.5 0-.7-.7-1.8-1.6-2.6-2-1.7-4.4-6.3-4.4-8.7 0-2.1 4-6.2 6.1-6.2 2.4 0 7.9 3.9 7.9 5.5 0 2.1-2.7 3-4.5 1.5-1.5-1.2-1.6-1.1-1.9 2.2-.1.8 1.1 1.3 2.9 1.3 2.7 0 3 .3 3 3 0 4.1 3.5 4.6 6.4.9 2.5-3.1 2.6-5.5.7-9.2-2.2-4.3-5.7-7-10.7-8.3-4.1-1.1-5.3-1-9.3.5-5.6 2.1-7.5 3.9-8.3 7.7-.7 3.8-3.5 6.1-7 5.7-2.6-.3-2.8-.7-3.4-5.6-.7-5.7-4.1-11.5-9.3-15.8-3.6-3.1-2.3-4.4 3.5-3.7 4.7.7 5.1-.7.9-3.7-3.4-2.4-3.7-3.8-1.4-8.6 1.7-3.6 5.8-6.4 9.2-6.4 2.8 0 7.2 3.8 7.2 6.1 0 1.1.5 1.7 1 1.4s1-2.1 1-4c0-8.4-14-11.5-20.9-4.6-1.2 1.2-2.5 2.1-3 2.1-1.6 0-2-4.4-.6-6.6 1.3-2 1-2.8-3.2-10-14.7-25.4-24.6-39.6-33.5-48.4-3.7-3.8-6.8-7.3-6.8-7.9s-.7-1.1-1.5-1.1c-2 0-1.9-.9.5-4.5 3-4.6 2.5-6.1-1.1-3.1-5.5 4.7-8.6 5.8-13.9 5.1-2.7-.4-5.5-1.4-6.3-2.3-1.4-1.6-1.2-1.7 2.6-1.7q7.95 0 13.8-9.3c3.6-5.7 3.7-9.1.3-13.1-4-4.7-6.1-5.4-15.3-5.2-6.8.1-9.8.7-15.4 3.1-5.8 2.4-7.2 2.7-8.3 1.6s.2-2 7.4-5.4c4.8-2.2 10.5-4.6 12.7-5.3 3.8-1.3 3.9-1.4 1.2-1.7-3.9-.5-10.8 2-29.7 10.5-22 10-23.3 10.6-22.6 9.5.8-1.3 17.7-11.3 27.5-16.2 11.7-5.8 25.6-11 29.6-11 4.1 0 5.4-1.6 2.3-2.6-2.2-.7-2.2-.7-.3-1.5 2.9-1.1-7-.9-11.9.2m14.3 26.1c1.9 3.8 1.9 4.4.6 6.5-2.3 3.5-4.9 4.5-7.1 2.8-1.6-1.2-1.7-1.4-.3-1.5 2.3 0 4.1-2.4 3.3-4.4-.9-2.3-4.4-2.1-4.4.3 0 1.2-.9 2.1-2.6 2.5-3.1.8-3.1.8-3.9-2.5-.4-1.8-.1-3 1-3.9 3-2.5 5.9-3.8 8.6-3.9 2.2-.1 3.1.7 4.8 4.1m-32.5 19c1.2 1.6 1.3 2.5.4 3.5-.8 1-.8 1.7 0 2.5 3.9 3.9-2.2 8.4-8.5 6.5-3.9-1.2-6.8-5.6-5.8-8.8.7-2.2 6.9-5.8 10.2-5.9 1.2 0 2.9 1 3.7 2.2m17.3 15.2c-.6 6.8-2.7 10.1-8.3 13.3-8 4.6-17.6 4-22.5-1.4-4.2-4.5-4.9-8.4-.9-4.8 1.2 1.1 4 1.6 8.6 1.7 5.6.1 7.6-.3 10.6-2.1 4.4-2.7 7.4-7.1 8.3-12.4.7-3.7.8-3.8 2.7-2 1.7 1.5 1.9 2.7 1.5 7.7m-48.6 2.3c1.2 3.3.3 4.3-5 5-3.2.4-4.1 1-3.9 2.2.4 2 4.8 2.7 5.9 1 .4-.8 1.1-1.1 1.4-.7 1 .9-1.6 4.5-4.3 5.9-1.6.9-2.8 1-4 .3-2.6-1.7-5.1-5.6-5.8-9.1-.6-2.9-.3-3.3 3.2-5.2 2.2-1.1 5.6-2 7.7-2.1 3.2 0 3.9.4 4.8 2.7m108.2 87c1.1.7.8 4.1-.4 4.5-.8.3-.8 1 .2 2.7 1.3 2 1.2 2.4-1.5 4.7-2.1 1.8-3.5 2.4-5 1.8-1.2-.3-3.7-.7-5.6-.8-3.2-.1-3.5-.4-3.8-3.3-.6-6.2 5.9-11.9 12.3-10.7 1.7.4 3.3.8 3.8 1.1"/>
        <path d="M183.3 181.7c-.7.3-1.3 1.4-1.3 2.5 0 1.4.5 1.8 1.6 1.4.9-.3 1.8-.6 2-.6.7 0 .4-2.9-.3-3.3-.5-.2-1.4-.2-2 0m74.4 103.9c-1.1 1.1.3 2.4 2.4 2.4 1.2 0 1.9-.5 1.7-1.3-.5-1.4-3.1-2.1-4.1-1.1M144.6 157.3c-4.9 2.8-11 7.2-13.5 9.6-5.2 4.9-4.6 4.5 10.6-5.8 16-11 16.9-12.1 2.9-3.8m148.2 104.4c-2.1.5-2.5 4.3-.5 4.3 1.7 0 3.7-2 3.7-3.7 0-1.3-.3-1.4-3.2-.6M223 305c-.9 1.6-.8 2.2.5 2.7 2 .7 5-2 4.1-3.6-1.1-1.7-3.4-1.3-4.6.9m110.9 16.6c-2.4 2.5-7.7 6.9-11.8 9.7-4 2.9-10 7-13.2 9.3-8 5.6-8.4 6.1-1.9 2.9 12.7-6.3 33-21.1 33-24.1 0-2.8-1.9-2.1-6.1 2.2m-52.4-2.6c-.4.7-.3 1.6.2 2.1 1.2 1.2 4.5 0 4-1.5s-3.4-1.9-4.2-.6m.5 30.1c-.7 1.1-.9 2.3-.6 2.6s.9-.2 1.2-1.1c.4-1 1.6-2.2 2.8-2.6 2.1-.9 2.1-.9-.1-.9-1.3-.1-2.7.8-3.3 2m85.9 27.2c-14.9 13.6-36.4 27.3-50.6 32.1-3.7 1.3-9 3.4-11.8 4.8-2.7 1.4-6.7 3.1-8.7 3.7l-3.6 1.2 5 7.7c7.3 11 19.7 28.3 22.5 31.3 1.8 1.9 3.1 2.4 5.3 2.1 1.6-.2 2.7-.8 2.4-1.3s.7-1.4 2.2-2.1c2.5-1.2 2.9-1 6 2.6l3.3 3.8 8.1-3c10.6-4 24.4-11.9 35-20.2 4.7-3.6 9.7-7.4 11.2-8.4 2.3-1.5 4.9-5.9 3.7-6.2-.2 0 .2-.8 1-1.7.7-.9 1.7-1.4 2.3-1.1.5.3 1.5 0 2.3-.6 1.2-1 .7-2.5-3.1-9.8-2.6-4.8-5.3-9.7-6.3-10.8-5.9-7.7-13.3-17.8-16.6-22.7-2.1-3.1-4.1-5.7-4.4-5.7s-2.7 1.9-5.2 4.3m46.9 62.3c-13 13.6-23.5 21.4-47.5 35.3-7.8 4.5-15.2 9.1-16.5 10.2l-2.3 2 2.4-.7c4.2-1.1 18.9-8.2 29.2-13.9 21.2-11.9 43.9-31.9 43.9-38.7 0-3.1-1.7-2-9.2 5.8"/>
    </g>
</svg>
