<svg xmlns="http://www.w3.org/2000/svg" width="682.667" height="682.667" version="1.0" viewBox="0 0 512 512">
    <g fill="#e5e5e5">
        <path d="M294.5 4.6c-1.1.3-4 1.2-6.4 2.1-3.6 1.3-4.5 1.3-5.2.2-1.9-2.9-4.6 2.6-5.9 11.8-1.4 9.9-.9 45.8.7 47.4.6.6 1.2-6.5 1.7-19.3.7-21.4 2.4-34.5 4.7-35.9.8-.4 3.8-1.1 6.7-1.5 7.5-.9 40 .2 44.1 1.5 1.9.6 3.6.9 3.8.7 1.1-1.1-1.4-3.7-5-5.2-3.4-1.5-7.4-1.9-20.7-2-9.1-.2-17.4 0-18.5.2"/>
        <path d="M340.4 19.9c.4 2.8.5 5.1.2 5.1s-1.7-.5-3.2-1c-3.4-1.3-38.4-7-42.7-7l-3.2.1 3 1.6c1.7.9 11.8 4 22.5 6.9 22.6 6.1 25 6.9 25 8.6 0 .7.3 2.4.7 3.7.4 1.6.3 2.2-.5 1.8-1.6-1-25.6-6.3-34.6-7.7-4.3-.6-9.5-.9-11.5-.5l-3.6.8 5.2 2.3c2.9 1.3 9.6 3.5 15 4.9 15.8 4.2 26.6 7.6 29.1 9.1 1.6 1.1 2.2 2.4 2.2 5.3v3.8l-8.2-3.3c-10.2-4.1-26.3-8.2-34.9-9-6.2-.5-6.3-.5-3.7 1.1 1.5.8 9.2 3.8 17 6.6 17.6 6.3 28.9 11.7 29.6 14.1.6 2.4 2.2 2.3 2.2-.1 0-1.1.5-2.1 1.1-2.3.7-.2.7-1.2 0-3.1-1.4-3.7-1.4-13 0-14.4.8-.8.7-2-.5-4.4-1.8-3.6-2.2-10.9-.5-10.9 1.2 0 .2-4.1-1.2-5-.5-.3-1.2-3-1.6-6-.5-3.1-1.4-5.5-2.2-5.8-1.1-.4-1.3.5-.7 4.7m-79.2 40c-.7.4-1.4 1.5-1.6 2.3-.2 1.9-4.3 7.4-8.6 11.7-3 3-3.5 3.1-11.4 3.1-8.2 0-22.6 2.2-40.6 6.1-9.5 2.1-14.5 4.3-13.6 5.8.8 1.2 16.4 6.8 21.1 7.6 9 1.4 9.4 2.2 3.3 7.4-5.2 4.5-9.8 11.6-9.8 15.3 0 3 3.2 10.2 5 11.3.6.4 1-.9 1-3.3 0-2.1.5-5.4 1.1-7.3 2.5-7.6 14.2-13.8 23.7-12.5 10.1 1.5 22.4 6.7 27.9 11.8 1.7 1.7 3.6 2.7 4.2 2.4 1.7-1.1-.3-3.9-5.9-8.4-2.8-2.3-5-4.3-4.8-4.6s-1.3-2.2-3.3-4.3c-7.3-7.6-12.9-15.4-12.9-17.8 0-2.1 1.4-3.2 10.5-7.6 8-3.9 11-5.9 12.6-8.5 2.4-3.9 2-3.7 5.3-2.3 4 1.9 7.3.5 7.9-3.3.4-2.3 0-3.7-1.1-4.6-1.8-1.4-8-1.6-10-.3m8.5 3.8c.7.9 1 2 .7 2.4-1.4 2.4-8.4-.8-8.4-3.8 0-2 6-1 7.7 1.4m18.3-2.8q-1.05 1.95 0 4.5c1.6 4.3 7 2.8 7-1.9 0-4.3-5-6.2-7-2.6m14.5 2.1c-.9 1.5 1.3 4 3.7 4 1.4 0 1.9-.6 1.6-2.3-.3-2.4-4.1-3.6-5.3-1.7m18.8 9.9c-6.5 1.9-9.3 3.5-9.3 5.5s-6.6 14.9-9.8 19.3c-4.3 5.7-17.6 16.9-23.3 19.6-4.6 2-5.9 3.8-5.9 7.9 0 1 .5 1.8 1 1.8.6 0 2 .9 3.1 1.9 1.9 1.8 13 8.1 14.2 8.1.3 0 1.4-2.7 2.5-6 2.3-6.7 14.1-24.6 20-30.2 8.2-7.9 15-8.5 32.2-3.2 27.7 8.5 32.6 8.9 40.2 2.9 5.7-4.6 9.5-4.7 12.4-.2 1.2 1.8 2.4 4.2 2.8 5.5.9 2.6 2.4 2.9 3.3.6.9-2.5-2.1-7.6-8.5-14.6-9-9.6-26.8-18.3-41.2-20.2l-4.5-.6 4.9 2.6C360.5 76.3 371 86 371 88c0 .7-2.3-.9-5.1-3.4-2.8-2.6-9-6.5-13.7-8.9-7.7-3.8-9.4-4.2-16.6-4.4-5.5-.2-10.1.3-14.3 1.6"/>
        <path d="M266.5 76.9c-3.8.9-10.1 2.8-13.8 4.2-6.8 2.4-6.9 2.4-6.4 5.6.7 4.3 3.1 9.1 6.8 13.6 3.5 4.3 17.2 15.7 18.9 15.7 2.4 0 11.9-7.1 19.5-14.7 5.7-5.7 9.2-10.3 12.3-16.1 3.9-7.4 4.1-8.2 2.5-9-3.3-1.7-32.1-1.2-39.8.7m129 7.8c.6.5 2.7 2.1 4.7 3.6 4.2 3.1 8.8 11.7 9.1 17.1l.2 3.7 4-.7c2.2-.4 4.9-.8 6-.9 1.8-.1 4.5-1.1 9.7-3.3 2.5-1 1.2-2.3-7.1-7.2-9.6-5.5-29.4-14.7-26.6-12.3M333 104.5c-1.6 2 .2 6.5 2.5 6.5 2.8 0 5.5-2 5.5-4 0-3.5-5.7-5.3-8-2.5m24 3.3c-1.8 1.4-2.2 2.5-1.6 4.5.7 3.1 3.6 3.6 6 1.1 1.9-1.8 2-2.8.6-5.5-1.3-2.4-2.2-2.4-5-.1m16.3 1.4c.2.7 1 1.3 1.7 1.3s1.5-.6 1.8-1.3c.2-.7-.5-1.2-1.8-1.2s-2 .5-1.7 1.2"/>
        <path d="M378.9 113.6c-3.5 3.1-9.3 7-12.9 8.7-9.6 4.4-21 4.2-36.5-.8-1.4-.4-1.2-.2.5.9 3.7 2.3 2.1 1.9-7-1.4-11.9-4.4-15.2-3.9-8.9 1.5 4.2 3.5 9.9 6.3 18.4 9.2l7 2.4-12.4-.5c-10.3-.4-12.8-.8-15.1-2.4-1.7-1.3-3.2-1.7-4-1.2-1.1.7-.8 2.5 1.4 9.7 3.1 9.6 7.9 21.6 10.1 25l1.4 2.1 5.1-1.9c2.8-1 5.9-1.9 7-1.9s2-.3 2-.8c-.1-2.3-2.3-3.3-8.9-3.9-8.2-.7-8.8-2-1.9-4.4 3.4-1.1 4.4-1.9 3.8-2.8-.6-1-2.2-1.2-6.4-.7-6.8.9-7.5-.6-1.6-3.3 3.4-1.5 3.8-2 2.7-3.4-1-1.3-1.9-1.5-5.2-.7-5 1.1-6.6-.6-3.1-3.5 1.8-1.4 2.2-2.4 1.6-3.6-.8-1.4-.3-1.4 5.3-.2 8.7 1.8 26.8 1.7 31.4-.2 1.9-.8 3.7-1.5 3.9-1.5s.1.7-.2 1.5c-.4 1 0 1.5 1.5 1.5 2.8 0 2.7 2.7-.1 3.6-4.3 1.3-4.9 4-1.2 5.4 3 1.2 2.3 3-1.1 3-1.2 0-2.6.7-2.9 1.6-.9 2.2-.9 2.2 2.2 2.6 3.7.4 3.4 2.2-.5 2.6-2.4.2-3.3.9-3.8 2.9-.8 3.2-.6 3.3 4.3 4l4 .5 1-5.3c.6-3 1.6-10.4 2.3-16.4.6-6.1 1.6-11.8 2.1-12.7.4-.9 3.1-2.8 5.9-4.2 4.3-2.2 5-2.3 4.5-.8-2 6.9-1.7 18.5.5 15.1.5-.8.9-2.8.9-4.6 0-6.5 3.6-15.3 7.9-19.2 4-3.7 5.4-7.1 2.8-7.1-.8 0-4.2 2.5-7.8 5.6m-165.4 16.3c.3 1 1.8 7.9 3.4 15.2 2.7 13.3 2.8 13.6 7.4 18.3 12.3 12.6 13.2 14.1 15 25.6 1.5 9 2.9 13.2 9.8 29 10.1 22.9 15.9 36.9 15.9 38.1 0 .5-.7.9-1.5.9s-1.2.6-.9 1.4c.6 1.6-2.4 2.6-8 2.6-3.9 0-15.6-4.6-15.6-6.1 0-1.4 2.2-1.1 8.3 1 3.2 1.1 5.7 1.9 5.7 1.7 0-.1-2.4-1.9-5.3-3.9-3-2.1-6.4-4.9-7.8-6.3l-2.4-2.5 2.7 1c1.4.5 5.4 2.4 8.7 4 3.3 1.7 6.3 3.1 6.7 3.1.3 0-3.3-4.1-8-9.1l-8.6-9.2v-14.8l-10.4 5.6c-6 3.2-10.7 5.1-11 4.6-.4-.6 2.3-4.2 6-8l6.6-7-5.6-9.5c-3.1-5.3-6.5-10-7.6-10.6-2.7-1.4-2.5-2.8.5-4.2 1.9-.9 2.5-1.9 2.5-4.5 0-2.9-.4-3.4-3-4-4.4-.8-11.7-9.3-19.5-22.8-3.8-6.3-7.2-11.5-7.7-11.5s-3.4 2.3-6.3 5.1l-5.5 5.1-5.6-5.1c-3-2.8-6.4-5.1-7.5-5.1s-3.7.9-5.9 2l-3.9 2-5.7-4c-3.2-2.2-6.5-4-7.4-4s-6.9 4.8-13.4 10.6c-6.5 5.9-12.2 10.4-13 10.1-1.7-.7-5.8 3.3-17.6 16.8-5.2 6-10.5 11.8-11.7 12.9-3.3 3.2-9.3 10.7-9.3 11.7 0 1.5 6.2 7.7 18.8 19l12.2 11v5.2c0 4.8 1.5 18.9 3.9 36.2.5 3.8 1.7 12.6 2.6 19.5.9 6.8 2 13 2.3 13.6.5.9 1.6.9 4.4-.1l3.8-1.2.5 3.6c.9 5.9 2 9.9 6.4 22.4 2.4 6.8 3.9 12.6 3.6 13.7s-1.9 2.7-3.5 3.6c-9.6 5.8-9.3 23.6.6 32.3 3 2.7 3.4 3.6 3.4 7.8 0 7.1.7 8.6 5.1 11.1 3.5 2 3.9 2.7 3.9 6.1 0 7.7-1.3 16.1-2.5 16.1-.8 0-.9-1.5-.4-5.2 1-7.3 1-9.1-.1-10.8-2.1-3.3-3.3.7-3.1 10.2l.2 9.4-3.8 2.1c-2.1 1.2-5.5 3.7-7.7 5.5l-3.8 3.3 2.1 7c1.2 3.9 4 10.7 6.4 15.2 4.6 9.3 4.4 9.1 21.9 13 9 1.9 12.1 1.1 13.3-3.4.9-3.8 2.3-5.3 5.1-5.3 2 0 2.3.6 2.6 4.2.3 4 .5 4.1 5.1 5.5 5.3 1.5 8.1.7 9.2-2.7.4-1.3 1.3-1.9 2.3-1.6 7.4 2 7.4 2.1 3.7 5.6-1.4 1.3-2.5 2.8-2.5 3.3 0 1.8 12.1 15.4 14.8 16.7 4 1.8 7.5 2.8 19.9 5.5 6.2 1.3 15 3.6 19.7 5l8.4 2.7 11.6-5.3c6.4-3 11.6-5.8 11.6-6.2 0-.5-.9-2.1-1.9-3.6-1.9-2.7-1.9-2.7 0-3.9 1-.7 1.9-1.8 1.9-2.5 0-2.4-4.4-5.5-8.5-6-2.9-.4-4.8-1.5-7-3.9-1.6-1.9-5.9-6.7-9.4-10.6-6-6.9-6.5-7.2-10.7-7.2-4 0-4.6-.3-7-4.1-1.4-2.2-2.3-4.3-2-4.6 1.6-1.7 26.1 5.3 40 11.4 7.9 3.5 8.5 3.6 23.1 4l15 .5 6.5-4c3.7-2.3 6.6-4.8 6.8-5.8.3-2.4-7.2-8.9-11.3-9.8-1.7-.4-9.3-4.1-17-8.2C285.6 435 274 430 270.9 430c-.4 0-2.3 1.4-4.1 3s-3.6 3-4 3-2.5-2.4-4.7-5.4c-6.3-8.5-8.6-9.9-15-9.1-3 .4-6 .9-6.7 1.2-.8.3-2.4-1.7-4.2-5.4-2.8-5.5-3.3-5.9-9.8-8.5-12.3-4.7-13.1-4.7-20.6 1l-6.6 4.9-2.6-8.6c-7.2-24-9.8-41.7-10.1-69.6-.2-19.4-1-37.5-2-44.2-.2-1.2-.7-8.6-1.1-16.3l-.7-14h2.6c4.1 0 7.5 1.7 13.3 6.7 4.8 4 21.5 23.8 32.8 38.7 6.2 8.3 17.6 19.3 25.4 24.7 8.4 5.9 26.7 14.8 36.2 17.7 13.4 4.1 22.9 5.5 34.5 5 6-.3 11.9-.9 12.9-1.3 1.9-.8 1.9-.9 0-1.6-1.2-.5.3-.8 4.1-.8 7.3-.1 17.4-2.6 19.5-4.8 1.3-1.4 1.3-1.5-.5-.9-12.6 4.5-22.2 4.4-32.8-.3-7.2-3.2-35.7-13.3-35.7-12.6 0 .9 12.8 8 21.8 12.1 10.8 4.9 10 5.3-4.4 2.4-18.2-3.8-34-10-48.9-19.2-8.4-5.3-23.1-17.5-22.1-18.5.2-.2 2.6 1.1 5.3 3 6.7 4.8 10.3 7 10.3 6.5 0-.3-4.6-3.9-10.3-8.1-7.7-5.6-12.8-10.5-20.4-19.4-23.6-27.5-35.4-35.9-51.8-36.9l-8-.5 4.8 2.6 4.7 2.5v6.3c.1 3.4.5 10.8 1 16.4.5 5.5 1.2 13.6 1.6 17.9.5 5.9.4 7.5-.5 7-.9-.6-1.1 2.7-.6 14.6.3 8.4.9 17.4 1.3 19.9.5 2.6.4 5.7-.1 7s-.6 5.7-.2 9.6c.3 4 .4 7.3.1 7.3-.8 0-4.5-17.4-6.2-29-1.2-9-1.5-17.8-1.2-40.2.2-15.7.2-28.5 0-28.4-.1.2-1.1 5.5-2.2 11.7-3 17-2.8 43.2.5 68.2 3.1 23.5 5 35.5 7.7 47.1 1.6 7 1.8 9.3.9 11.3-1.3 2.8-.8 3.8 5.1 10.7l3.4 3.8 11.9.6c11.8.5 12 .5 14.5 3.5l2.6 3 12.4-.6c6.9-.3 13.9-.9 15.5-1.3 5.3-1.2 1.4 1.1-6.7 4-4.3 1.6-7.8 3.2-7.8 3.6 0 .5 3 2.5 6.6 4.5 6.4 3.6 6.6 3.6 11.7 2.4 2.9-.6 6.9-2 8.9-3 4.7-2.4 4.4-2.4 6.4.6 1.6 2.5 1.6 2.7-.6 5-1.3 1.4-2.2 2.6-1.9 2.8.2.1 3.1 1.3 6.4 2.6 3.3 1.4 10.4 4.6 15.7 7.2l9.7 4.9 11.3-.9c9.5-.8 11.5-1.2 12.9-3 1-1.2 2.3-2.1 3-2.1 1.4 0 7.9 4.8 7.9 5.9 0 .4-2 1.7-4.5 2.9-4.1 2-6.1 2.2-19.5 2.2h-14.9l-11.3-4.4c-15-5.8-24-8.4-33.4-9.6-4.2-.6-8.4-1.6-9.3-2.3-2.3-2-17.8-7.7-20.7-7.7-4 0-8.2 2.7-11 7.2l-2.6 4.1 4.1 8.1c2.3 4.5 5.1 9.3 6.4 10.8 2.2 2.6 2.2 2.6 11.2 1.8 5-.5 12.5-.9 16.8-.9 7-.1 8 .2 10.2 2.4 3.6 3.5 3.1 4.5-2.4 4.5-2.6 0-6.2.5-8 1.1-2.9 1-3.1 1.4-3.1 5.7 0 2.6.4 5.3.9 6.1.8 1.3 15.2 5 19.7 5.1 1.2 0 4.9-2 8.3-4.5 5.1-3.8 6.8-4.5 10.6-4.5 5 0 5.7 1.2 2.3 3.9l-2.2 1.8 2.2 1.9c2.9 2.5 2.8 2.8-1.5 4.4-2.1.7-5.4 2.3-7.3 3.6-5.7 3.7-7.9 3.8-17.6.6-4.9-1.7-13.8-4-19.9-5.2-10.5-2-21.5-6-21.5-7.7 0-.4-2.1-3-4.5-5.6l-4.5-4.8 3-2.5c3.8-3.3 3.8-4.9-.2-7.4-4.5-2.7-10.1-2.6-12 .2-1.4 2.2-1.6 2.2-4.1.5-1.5-.9-2.9-3-3.3-4.5-1.1-5.1-1.2-5.2-6-5.2-4.2 0-5.1.4-8.6 4.1-4.3 4.5-3.6 4.5-18.1.7l-7.8-2.1-2.6-5.6c-1.9-4.3-5.2-14.1-5.3-15.9 0-.9 15 1.5 30.8 4.9 5.1 1.1 9.2 1.2 9.2.1 0-.4-5-3.9-11.1-7.7l-11-7 .6-4c2.9-18.6 3.5-22.4 3.5-25.2 0-3.2-.1-3.3-3.8-3.1-2.2 0-4.9-.6-6.5-1.7-2.5-1.6-2.7-2.3-2.7-8.1 0-6.2 0-6.3-3.5-8-4.9-2.3-9-10.7-8.2-17 .9-8.7 7.4-13.9 15-12.2 4.7 1 9.9 4.6 12.5 8.6 1.3 2 1.7 4.5 1.5 11.2l-.2 8.5 2.5-2.8c3.3-3.8 3.4-12.4.2-18.7-2.8-5.6-9.5-10.4-14.3-10.4-3.2 0-3.5-.3-5.6-6-2.9-7.9-8.8-31.6-9.3-37-.5-6.1-.8-6.4-6.3-5.6-2.6.5-5 .6-5.3.3s-.7-14.5-1-31.7c-.5-28.5-.7-31.4-2.4-34.1-1.1-1.7-7.4-8.4-14.1-15s-12.5-13-12.9-14.1c-1-3.3 3.1-4 6.4-1.1 16.3 14.7 29.5 27.8 33.1 32.7 4.6 6.3 5.6 7 6.5 4.5 1.6-4-12.5-19.1-29.6-31.9-5.8-4.3-10.6-8.1-10.7-8.5-.1-.3 3-3.2 7-6.4 4-3.1 11-9.3 15.7-13.6l8.5-7.9-2.6-2.7-2.6-2.7 9.1-9.2 9.1-9.3 3.5 1.9c1.9 1 12.5 8.1 23.5 15.8 16.8 11.8 32.1 21 34.9 21 3.3 0-8.8-12.8-18.9-20-6.4-4.6-7.4-5.7-5.9-6.5.9-.6 3.7-2.6 6.2-4.6l4.6-3.6 8.6 12.2c10.5 15.1 14.4 19.5 17 19.5 1.1 0 2 .7 2 1.5s-.4 1.5-1 1.5c-.5 0-5 3-10 6.7-5 3.8-11.3 8.4-14 10.3-4.8 3.4-6.4 6-3.7 6 .7 0 3.1 3.6 5.2 8.1 4.1 8.4 6.2 9.5 2.6 1.3-1.2-2.6-1.9-4.9-1.7-5.1s3.2 1.4 6.6 3.6 8 4.8 10.1 5.8c3.2 1.5 4.2 2.7 5.9 7.1 1.1 2.9 2 6.5 2 8 0 1.6.6 3.5 1.3 4.4 1.8 2.4 32.2 22.6 34.9 23.3 1.5.4 4.6-.6 9-2.9l6.7-3.6 1.6 2.2c.8 1.3 1.5 3 1.5 3.9 0 1.9-4.5 5.9-6.6 5.9-1.5 0-7.7 5-7 5.7.3.3 1.8-.4 3.4-1.6 4.1-2.9 7.6-2.7 10.1.5 1.2 1.5 2.1 3.3 2.1 4 0 .8.4 1.4.9 1.4 1.7 0 8.1-4.2 8.1-5.2 0-.6-1.5-3.6-3.4-6.7-4-6.5-10.8-24.5-10-26.4.3-.8-3.3-9.7-7.9-19.8-9.9-21.5-11-24.7-13.6-39.6-2.3-13.1-2.9-14.2-14.1-24.5l-8-7.3-3.4-12.8c-1.8-7.1-3.9-13.3-4.7-13.8-2.4-1.5-4.1-1.1-3.4 1M198 214.6c11.9 6.8 10.8 6.8-4.3 0-3.2-1.4-5.5-3.1-5.2-3.6.9-1.4.8-1.5 9.5 3.6m-22.3 96.6c-.3.7-.5.2-.5-1.2s.2-1.9.5-1.3c.2.7.2 1.9 0 2.5m5.3 55.3c0 7.6 7.3 36.2 12.5 48.7.6 1.5.2 1.8-2.6 1.8-6.3 0-7.5-.8-9.2-6.2-1.3-4.2-1.3-4.9-.1-4.4 1.9.7 1.9-5 0-14.1-2.1-9.6-3.3-29.8-1.8-28.9.7.4 1.2 1.8 1.2 3.1m59.5-224.7c-2.6.9-6.5 3.5-6.5 4.3 0 .4 1.9.9 4.2 1.2s5.3 1.4 6.7 2.5c3.3 2.4 8 9.2 8.1 11.4 0 2.5.5 2.3 4.5-2 2.9-3 3.4-4.3 3-6.6-.3-1.6-1.3-3.8-2.3-4.9-3.8-4.2-13.3-7.4-17.7-5.9m43.5 3.4c1.6 1.7 17 13.7 19.3 15.3 3 1.9 4.7 1.4 2.8-.9-1.6-1.9-14.7-10.9-19.1-13.1-1.9-1-3.3-1.5-3-1.3"/>
        <path d="M365.6 159.7c.5 6.1.3 7.3-2.1 11.8-3.5 6.4-8.3 12.5-10 12.5-.9 0-.1 3.5 2.6 12.2 3.9 12.4 6.5 23.6 5.5 24.5-.8.8-6.7-11.6-11.2-23.7l-4.2-11.5-9.9-1.2c-14.1-1.6-21.2-4.4-39-14.9-4.3-2.5-11.2-6.3-15.4-8.5l-7.7-3.8-5.9 6.2c-3.3 3.4-7.9 8.8-10.2 12-4 5.3-4.3 6.1-3.8 10.2.8 5.3 6.3 19.9 8.3 21.9.8.8 5.4 2.7 10.2 4.2 10.3 3.2 22.8 9.3 25.9 12.5 2.7 3 8 12.2 15.5 27.3 5.2 10.2 7.2 13.2 14.8 21 4.9 5.1 12 11.8 15.8 15.1l7 6 7.5-.4c5.4-.2 7.7.1 8.3 1 .5.8 2.9 9.2 5.4 18.9l4.5 17.5 5.7.3c5.5.3 5.8.2 10.1-4 4.5-4.2 4.5-4.4 3.7-8.8-.5-2.5-1.2-9.8-1.6-16.2l-.7-11.7 3.7-4.3c3.1-3.6 3.6-4.8 3.1-7.3-1-4.6-2.2-12.7-4-26.5-.8-6.9-2-14.6-2.5-17.2-1.1-5.3-6.8-20.5-10.9-28.8-2.9-5.6-5.4-14.6-6.7-23.5-1.1-8.3-9.8-29.5-11.9-29.5-.3 0-.2 3 .1 6.7m-74.8 12.7c.4 2.1-2.9 5.8-14.1 15.7-5.9 5.3-8.4 6.9-10.7 6.9-4.9 0-4-3.6 2.8-10.2 7.2-7 18.2-14.9 20.2-14.6.8.2 1.6 1.2 1.8 2.2M303 178c1 1.8.5 2.8-3.5 7.3-2.6 2.9-7.4 7.6-10.7 10.5-5.9 5.1-8.3 5.9-11.1 3.3-.9-.9 21.3-23.1 23-23.1.7 0 1.7.9 2.3 2m90.7 87.2c1 1.7.4 5.1-1 6-2.5 1.5-6.1-4.5-4-6.5 1.1-1.1 4.1-.8 5 .5m-37.7 9.9c1.6 2.9.5 4.9-2.4 4.9-1.9 0-2.7-.7-3.2-2.4-.3-1.4-.3-3 .1-3.5 1.1-1.8 4.4-1.2 5.5 1M138.4 170.8c-2.7 2-7.3 5.4-10.3 7.5-6.9 5-5.9 5.9 1.3 1.3 6.5-4.2 7.8-4.3 13.8-1.6 5.6 2.5 22.5 12 28.2 16 2.7 1.8 5.7 3 7.6 3 3.7 0 12-2 12-2.9 0-.3-4.2-2.6-9.3-5-5-2.4-13.9-7.3-19.7-10.9s-12.3-7.5-14.6-8.8l-4-2.4z"/>
        <path d="M140 187.9c-4.6 1.1-14 7.2-15.5 10.1-2.4 4.6-1.8 4.7 2.5.5 3.5-3.5 4.6-3.9 10-4.3 8.5-.6 13.7 1.6 19.9 8.4 6.1 6.7 7.6 11.2 7.5 22.1 0 4.6 0 8.3.2 8.3s1.5-2 2.9-4.3c3-5.2 3.3-11.7.9-19.7-3.3-11.2-19.3-23.1-28.4-21.1"/>
        <path d="M132.6 210.9c-.5.7.2 1.1 1.6 1.1 1.3 0 5.6 1.6 9.5 3.7 6.9 3.5 10.9 4 6.7.8-5.8-4.5-16.5-7.8-17.8-5.6m5.4 8.9c0 1 9.1 5.5 9.7 4.8.3-.3-1.8-1.6-4.6-3-2.8-1.5-5.1-2.3-5.1-1.8M270.6 234c6.1 11.4 21.7 37.1 24.9 40.8 2.1 2.4 2.4 2.5 3 1q.75-1.65-2.7-5.1c-1.8-1.8-5.9-8.4-9.1-14.5-6.4-12.4-16.3-27.9-19.2-30.2-1.1-.9.1 2.3 3.1 8m19.4-1.9c4.6 7.1 6.5 12.4 8.4 23.8.8 4.5 1.7 8.5 2 8.8 1.3 1.3 4.6-2 4.6-4.6 0-8.6-4.6-22.5-9.3-27.7-2.6-3-7.4-6.4-9.1-6.4-.3 0 1.2 2.7 3.4 6.1m-21 15.8c0 .6.4 1.3 1 1.6s.7-.1.4-.9c-.7-1.8-1.4-2.1-1.4-.7m-78 2.6c0 .3 3.3 2.9 7.4 5.9 4.2 3.2 11.8 10.6 17.7 17.3 12.8 14.7 24.4 26 29.8 29.3 2.3 1.4 8.5 5.3 13.9 8.8s10.6 6.1 11.7 6c2.4-.4 3.2-4.2 1.4-6.5-2.3-2.7-15.1-10.8-25.6-16.2-10.6-5.4-14.6-8.7-25.2-21-8.6-9.8-19.9-19.4-26.1-21.9-2.7-1.2-5-1.9-5-1.7m-40 17.4c0 1.3-1.3 9.4-3 18-4.1 21.6-6.3 49.1-4 49.1.6 0 1-2.6 1-5.8 0-6.3 3.5-29 4.6-30.1.4-.3.4 6.6 0 15.4-.5 13-.3 17 .9 21.3.9 2.8 1.9 5.2 2.3 5.2s1.7-.8 2.9-1.8c2-1.6 2.1-2.1 1.3-10.2-.5-4.6-1.2-15.6-1.5-24.5-.6-17.9-2.3-35.2-3.6-37.5-.6-1.1-.8-.9-.9.9m-24.2 7.7c-.6.5 8.8 28.4 9.9 29.4.8.7 0-2.9-3.9-17.8-2.9-10.9-4.2-13.5-6-11.6m173.7 6.1c-2.8.7-7.2 3.9-12.2 8.7-5.1 4.8-5.8 7.1-.9 2.8 2.6-2.3 5.1-3.3 10.6-4.2 8.7-1.5 14-.8 20.4 2.8 7.4 4 10.7 8.7 11.3 16 .5 5.3.2 6.6-2.1 10.8-3.4 6-2.4 7 2 2 5.4-6.3 6.8-18 2.9-25.5-2.5-4.8-10-10.9-15.6-12.5-5.1-1.5-12.2-1.9-16.4-.9m46.8 19.5c-4.1 2-2.4 7.8 2.3 7.8 4.8 0 6.3-4.7 2.6-7.8-1.8-1.4-2-1.4-4.9 0"/>
        <path d="m296 303.8-2.5 2.1 4.1-.6c2.9-.4 5.5.1 8.9 1.6 8.2 3.6 12.1 2 4.5-1.9-6.2-3.2-12-3.6-15-1.2m5 8.1c.8.5 2.9 1.1 4.5 1.4l3 .6-3-1.4c-3.4-1.6-7.2-2.1-4.5-.6m44.5 9.3c.4 4 1.1 7.7 1.5 8.2.4.4 2.2.5 3.9.1l3.1-.7v-6.9c0-6.8 0-6.9-2.4-6.3-1.3.3-3.4 0-4.6-.6l-2.2-1.2zm15.1-1c1.4 4.7 5.3 12.8 6.1 12.8 2-.1 3.5-1.8 2.7-3.1-2-3.3-8.6-11.9-9.1-11.9-.2 0-.1 1 .3 2.2m-3 11.8c-.8 5-2.2 5.6-16 7.1-5.5.7-10.5 1.5-11 2-1.2 1 5.3 2.6 14 3.3 6.2.5 7.7.3 11.5-1.7 4.9-2.6 5.4-3.9 4.4-10.3-.8-5.5-2-5.6-2.9-.4m-221.8 34.7c-1 .2-1.8.9-1.8 1.4s.8.9 1.8.9c.9 0 3.5 1.1 5.7 2.5 2.2 1.3 4.6 2.5 5.3 2.5 2.6 0 1-2.6-3.2-5.3-4.4-2.7-4.7-2.8-7.8-2m3.6 8.8c1.1.8 2.5 1.5 3 1.5.6 0 .2-.7-.8-1.5-1.1-.8-2.5-1.5-3-1.5-.6 0-.2.7.8 1.5m22.1 37.2c1.1 10.1 2.6 18.7 3.8 21.2.8 1.5 3.1 3.1 6.5 4.3 2.9 1.1 5.5 1.8 5.7 1.6 1.3-1.2-13.9-32.7-15.8-32.8-.4 0-.5 2.6-.2 5.7m26.5 13.1c0 1.8 7.5 8.1 8.8 7.3 1.8-1.1.7-3.3-3.1-5.9-3.4-2.2-5.7-2.8-5.7-1.4m-1 9.5c0 1.9 2.7 5.3 3.6 4.5.9-1-1.2-5.8-2.6-5.8-.5 0-1 .6-1 1.3"/>
    </g>
</svg>
