<svg xmlns="http://www.w3.org/2000/svg" width="341.333" height="341.333" version="1.0" viewBox="0 0 256 256">
    <path fill="#e5e5e5" d="M73 16.9c0 1.6 7.7 9.1 13.2 12.8 2.6 1.7 5.9 5.1 7.5 7.4 3.5 5.3 3.7 12.5.4 22.1-1.8 5.5-2 7.1-1 8.9 1.1 2.2 1.3 2.1 5.7-3 9-10.5 17.1-11 22.1-1.4 1.8 3.5 1.3 5-2.6 9.4-6.8 7.5-12.3 8.7-20.4 4.2-3.6-1.9-4.8-3.1-4.4-4.3.6-1.8-3-4-6.7-4-1.1 0-4-1.8-6.4-4-4.6-4.2-9.9-5.5-11-2.5-.9 2.3 1.4 8 4.6 11 2.4 2.3 3 3.7 3 7.2 0 3.3.4 4.5 1.8 4.9 3.5 1.1 4.7 2.2 6.9 6 3 5.1 2.9 8.6-.3 13.4-4.8 7.2-11.3 9.7-17.3 6.5-6.1-3.1-5.5-7 2.4-16.6 3.6-4.3 6.5-8 6.5-8.3 0-1.5-6.6-1.3-15.4.5-9.2 1.9-10.8 2-13.7.9-4.6-1.9-9.7-6.6-11.9-11-1.7-3.4-10.5-12-12.2-12-.4 0-.1 1.8.7 4s1.9 8 2.5 12.8c2.2 17 4 27.3 5.5 30.1 2.7 5.3 11.5 12 22.4 17.2 11.5 5.5 16.7 9.6 17.6 14 .4 1.6 1.1 3.1 1.6 3.5 1.2.7 22.1-1.7 21.6-2.5-5.6-10.4-6.6-15.9-3.6-20.8 3.3-5.3 8.7-11.2 11.9-12.8 2.4-1.2 3-1.2 5.7.5 1.7 1 6 5.3 9.4 9.4 3.5 4.1 7.5 8 9.1 8.7 1.5.6 2.8 1.5 2.8 1.8 0 1.1-4.2 4.7-7.2 6.2-1.5.8-12.7 11.7-24.9 24.4l-22.2 23h-5.2c-5.8 0-8.1 1.4-9 5.4-.7 3.2-5.5 8.4-5.5 6-.1-.8-2.5-4.1-5.5-7.4-5.1-5.5-5.6-5.9-7.1-4.3-1.5 1.5-1.3 2.1 3.7 7.7 2.9 3.4 5.9 6.1 6.5 6.1.9 0 .8 1.5-.3 5.2-1.4 4.6-3 6.7-11.7 15.3-5.5 5.5-12.9 11.8-16.4 13.8-3.4 2.1-6.2 4.2-6.2 4.6 0 2.2 3.2 3.1 9.9 2.9 5.6-.2 7-.6 6.8-1.8-.1-.9.9-1.7 2.8-2.1 1.7-.4 2.6-.7 2.1-.8-1.6-.2 1.6-3.1 3.4-3.1 1 0 2-1 2.4-2.3.3-1.3 1.7-2.9 3.1-3.5 2-.9 2.5-1.7 2-3.2-1.1-3.4 2-7.5 7.4-9.9 2.7-1.1 5.4-2.1 6-2.1 1.5 0 1.4-1.7-.1-2.3-2.4-1 4-5.7 7.6-5.7s8.6 3.3 8.6 5.6c0 .8.5 1.4 1 1.4.6 0 1-.5 1-1 0-.6 1.1-1 2.4-1 1.4 0 2.8-.5 3.1-1 .4-.6-.6-1-2.4-1-1.6 0-3.3-.5-3.7-1.1-.7-1.2 4.3-6.9 6-6.9.6 0 13.3-12.2 28.3-27.2l27.2-27.1 7 6.2c11.5 10.2 25.9 26 28 30.5 1.4 3.3 5.1 6.9 16.9 16.5 8.2 6.7 16.4 14.3 18.2 16.7 2.8 4 3.1 5 2.6 8.8-.6 4-.4 4.6 2.7 7.7 3.6 3.5 9.1 7.9 10 7.9 1.2 0 5.7-9.5 5.7-12 0-1.6-1.6-5.7-3.5-9.2-1.9-3.4-4.4-8.4-5.6-11.1-2.1-4.5-2.3-4.7-5.4-4.1-3.1.5-3.9 0-12.3-8.3-5-4.8-11.1-10.4-13.7-12.3-2.5-1.9-13.4-12.4-24.2-23.3l-19.5-19.9 8.6-8.8c4.7-4.8 8.6-9.3 8.6-9.9 0-.7 4.6-6.1 10.3-11.9C198.2 87.4 212 70.8 222 55.5c5.8-8.9 14.6-26.3 13.7-27.2-.7-.6-82.3 79.1-90.5 88.4-3.1 3.5-5.9 6.3-6.4 6.3s-1.6-1.6-2.5-3.5-2.2-3.5-2.9-3.5c-1.7 0-16.4-14.4-16.4-16.1.1-4.4 13.4-16.3 19.4-17.5 3.7-.6 10.1 2 13.5 5.7l2 2.1.5-3.3c.3-1.9.8-6.3 1.1-9.9s.9-7.5 1.1-8.7c.4-1.5 0-2.3-1.6-2.8-3.6-1.1-8.8-6.3-12.3-12.3-15.3-26-14.7-25-20.1-27.7-3.5-1.7-8.9-2.9-17.6-4-11.3-1.5-21.6-3.4-27.7-5.1-1.4-.4-2.3-.2-2.3.5m9 4.1c1.9.6 9.1 1.7 16 2.6 14.8 1.8 16.4 2.1 21 4.5 5.1 2.5 8 6 15.5 18.4 3.7 6 9 13.3 11.7 16.1 3.4 3.5 4.6 5.4 3.8 5.9-2.2 1.3-6.3-3-16.1-16.9-5.3-7.5-11.1-15.3-13-17.2-4.2-4.3-9.9-6.1-22.6-7-9.8-.6-18-3.1-20.4-6-1.4-1.7-.6-1.7 4.1-.4M34 77.6c0 .6 2.4 3.7 5.4 6.7 6.9 7 9.7 7.6 22.6 4.8 5.1-1.2 9.5-1.9 9.8-1.7.7.7-6 3.8-11.3 5.2-6.8 1.8-13.7 1.7-17.8-.2-3.5-1.7-9.2-9.3-13.7-18.4l-2.2-4.5 3.6 3.4c2 1.9 3.6 4 3.6 4.7m160.4-.4c-.8 1.4-20.3 23.9-28.2 32.7-3.5 3.9-5.4 5.3-6.5 4.8-1-.4-1.7-1.2-1.7-1.9 0-.9 35.7-36.6 36.8-36.8.2 0 0 .6-.4 1.2M90 107.6c-3.6 9.3-17.5 14.7-24.4 9.3-3.3-2.6-3.4-4.1 0-2.9 6.8 2.6 15.3.1 21.6-6.4 1.8-1.8 3.4-3.2 3.6-3.1.1.1-.2 1.5-.8 3.1m65.1 11c1.1 1.3.7 2.1-2.4 5.1-3 3.1-3.8 3.5-5.1 2.3-1.4-1.1-1.2-1.7 1.6-5 3.8-4.4 4.1-4.5 5.9-2.4m-10.2 10.7c.8 1 .2 2.2-2.8 5.1-3.4 3.3-3.9 3.5-5.1 2.1-1.1-1.4-.8-2.1 2-5 3.8-3.9 4.3-4.1 5.9-2.2m-13.1 15.4c-3.2 3.1-3.9 3.5-5.3 2.3s-1.2-1.7 2.2-5.2c3.3-3.4 3.9-3.6 5.2-2.3 1.4 1.4 1.2 1.9-2.1 5.2m-25.6 24.5c-3.3 4.8-13.9 16.9-15.7 18-.7.4-2.1.1-3.1-.7-1.8-1.3-1.7-1.6 2.6-6 6.2-6.5 18.1-16.7 18.7-16.1.3.2-.8 2.4-2.5 4.8m-33.6 18.9c.6 1-4.2 6.9-5.8 6.9-.4 0-1.1-1.2-1.4-2.7-.5-1.9-.2-3 1.1-4 2.3-1.6 5.1-1.7 6.1-.2m12.1 3.5c.8 2.1-3 5.9-5.1 5.1-1.9-.7-2.1-3.8-.4-5.5s4.8-1.5 5.5.4M229 222.5c1.6 1.9.9 4.9-1.2 5.3-1.9.4-4.2-3.3-3.4-5.4.7-1.8 3-1.8 4.6.1"/>
</svg>
