<svg xmlns="http://www.w3.org/2000/svg" width="341.333" height="341.333" version="1.0" viewBox="0 0 256 256">
    <path fill="#e5e5e5" d="M220.5 4.8c-2.2.9-7.4 3.4-11.5 5.5-4.1 2-8.7 3.7-10.2 3.7-6.9 0-23.8 9.5-23.8 13.4 0 .5-.6 1.7-1.4 2.5-.8.9-2.9 5.2-4.6 9.6l-3.2 7.9 2.1 1.7c2.7 2.2 2.7 6.1 0 8.5-1.2 1-3.2 4.1-4.5 6.7-5.5 10.8-9.1 15.2-15.4 19.1-6.6 4.1-11.2 10.1-16.7 21.5-1.4 3.1-5.2 8.7-8.3 12.6-3 3.8-6.3 8.2-7.3 9.7-1.9 3.1-2.2 7.3-.7 8.3.8.5.7 1.1-.1 2.1-.6.8-.9 1.7-.5 2.1.3.4-1 2.4-3.1 4.5-2.7 2.8-4 3.5-4.9 2.7-1-.8-3.8 1.6-11.4 9.5-7.2 7.5-11.9 11.4-16.3 13.7-6.8 3.5-15.7 10.7-15.7 12.6 0 .7-.9 1.3-2 1.3s-2.7 1.1-3.6 2.5c-.9 1.3-3.8 4-6.4 5.9-2.7 1.9-5.1 4.4-5.5 5.5-.3 1.2-1.7 2.4-2.9 2.7-3.1.7-13.2 11.3-13.9 14.4-1.4 6.4-4 10.2-13.7 20-10 10-14 15.3-12.8 16.6.7.7 4.3-1.5 11.9-7.2 3-2.3 8.3-5.6 11.6-7.2s9.1-5.4 12.9-8.4 10.4-7.2 14.7-9.3c7.4-3.7 7.8-4 7.2-6.7-.9-3.8 1.3-3.7 2.8.2 1 2.6 1.6 3 5 3 4.7 0 10.5-2.9 13.3-6.7 2.9-3.9 4.1-8.5 4.9-18.2.4-4.6 1.1-9.5 1.6-10.9.5-1.3 5.7-7.6 11.5-14 5.8-6.3 11.3-12.7 12.2-14.1 4.2-6.9 10-10.9 11.6-8.2 1.4 2.2 6.4-.5 17.1-9 3.3-2.7 10.1-6.8 15.2-9.3 9.7-4.7 15.5-9.7 18.8-16 1.5-3 4-5.1 10.6-9 12.9-7.6 14.2-8.4 16.2-9.8 1.5-1.1 2-1 3.2.6.8 1 1.6 2.4 1.8 3 .2.7 2.7.3 7.3-1.3 8.9-3.1 14.6-6.4 18.3-10.6 3-3.5 9.1-17.8 9.1-21.7.1-1.3 1.7-5 3.6-8.3 6-10.4 8.3-16.1 9-22.4.5-5 .4-6.1-.8-6.1-3.2 0-7.8 6.2-7.8 10.5 0 1.5-.5 3.5-1 4.6-1.1 1.9-1.1 1.9-3.2-.1-1.2-1.1-2.5-2-3-2-1.2 0-7.8 6.1-7.8 7.2 0 .6-1.1 2.1-2.4 3.3-3.2 3-4.4 9-2.3 11.3 2.2 2.4 4.1 10.3 3.4 13.3-.9 3.6-4.5 7.9-7.5 9-2.8 1.1-8.6-.5-11.4-3-1.8-1.7-1.8-1.5 1.2-13.1.5-1.9 1-4.8 1-6.3 0-1.6.9-4.2 2.1-5.8 1.5-2.2 1.8-3.3 1-4.3-1.4-1.6 4.2-7.1 8.2-8 2.2-.5 2.7-1.2 2.7-3.6 0-4-4.2-6-7.1-3.4-1.1 1-1.9 2.5-1.9 3.4 0 2.2-5.6 7.5-6.5 6.1-.4-.7-1.8-.2-4 1.5-1.9 1.4-3.9 2.3-4.5 1.9s-4.4.1-8.5 1c-10.8 2.4-12.9.6-13-10.8 0-4.2.4-5.2 3.3-7.8 5-4.5 12.4-3.8 17.5 1.6 2.3 2.6 2.6 2.6 6.7 1.4 2.3-.7 4.7-2.1 5.4-3.1.6-1 1.6-1.8 2.1-1.8 1.7 0 7.5-6.4 7.5-8.2 0-.8-.7-2.1-1.5-2.8-3.3-2.8-1.5-4.6 4.2-4.1 4.1.3 12.6-6.3 10.6-8.3-1.3-1.2-11.9-.4-15.8 1.2m-12.9 46.7c.9 2.2-.5 5.3-1.5 3.7-.5-.9-1.8-1.1-3.7-.6l-2.9.7 2.4-2.7c2.7-2.9 4.9-3.3 5.7-1.1M186.1 74c1 0 1.9.2 1.9.4s-4.3 4.6-9.6 9.9c-6.5 6.5-9.7 9.1-10.1 8.1-.3-.8-1.1-1.4-1.9-1.4-2 0-1.7-3.8.4-4.9.9-.5 5.1-4.3 9.2-8.5 6.1-6.1 7.6-7.2 7.8-5.6.2 1.2 1.1 2 2.3 2M72.9 195.9c2 2 1.9 5.2-.2 7.8-2.5 3.3-10.7-.1-10.7-4.4 0-4.8 7.3-7 10.9-3.4"/>
</svg>
