<svg xmlns="http://www.w3.org/2000/svg" width="341.333" height="341.333" version="1.0" viewBox="0 0 256 256">
    <path fill="#e5e5e5" d="M72 70.3v23.2l28 28 28 28 28-28 28-28V70.3c0-12.8-.3-23.3-.8-23.3-.4 0-13 12.3-28 27.3L128 101.6l-27.2-27.3c-15-15-27.6-27.3-28-27.3-.5 0-.8 10.5-.8 23.3m-46 42.5v27.8l14.3 14.2L54.7 169H109v-26.5l-22.7-22.7L63.6 97l-.1-5.7v-5.8l-18.7-.3L26 85zm166.3-26.3c-.3.9-.3 3.5-.1 5.9l.5 4.4-22.8 22.8-22.9 22.9V169h54.3l14.4-14.2 14.3-14.2V85h-18.5c-15.8 0-18.7.2-19.2 1.5m-81 106.2 16.7 16.8 16.7-16.8 16.8-16.7h-25.9l-3.8 3.7-3.8 3.7-3.8-3.7-3.8-3.7H94.5z"/>
</svg>
