<svg xmlns="http://www.w3.org/2000/svg" width="341.333" height="341.333" version="1.0" viewBox="0 0 256 256">
    <g fill="#e5e5e5">
        <path d="m123.3 7.4-2.8 2.4 3.4 24.1c1.9 13.3 3.7 24.1 4.1 24.1s2.2-10.8 4.1-24.1l3.4-24.1-2.8-2.4C131.1 6.1 129 5 128 5s-3.1 1.1-4.7 2.4M41.5 41.5c-5.2 5.1-3.2 7.9 14.8 21.2C78.5 79.1 80.6 80.6 79.4 79c-.6-.8-6.9-9.4-14.1-19.1-16.3-22-18.5-23.7-23.8-18.4m165-1.4c-1.1.6-7 7.9-13.2 16.2-16.4 22.2-17.9 24.3-16.3 23.1.8-.6 9.4-6.9 19.1-14.1 22-16.3 23.7-18.5 18.4-23.8-2.6-2.6-4.7-3-8-1.4M75.2 108C66.8 122.2 60 134.2 60 134.5s8.6.4 19.2.3l19.1-.3 9.5-22.8 9.5-22.7h21.4l9.5 22.7 9.5 22.8 19.1.3c10.6.1 19.2 0 19.2-.3s-6.8-12.3-15.2-26.5l-15.2-26H90.4z"/>
        <path d="M123.7 101.7c-.3.4-4 9.1-8.2 19.3l-7.6 18.5 9.8 19.7c5.3 10.9 10 19.8 10.3 19.8s5-8.9 10.3-19.8l9.9-19.7-7.9-19-7.8-19-4.2-.3c-2.2-.2-4.3.1-4.6.5M7.1 123.6c-2.7 3.5-2.6 5.7.3 9.1l2.4 2.7 20.8-2.8c20.1-2.8 27.1-4.7 21.3-6-4-.9-38-5.6-40.4-5.6-1.3 0-3.3 1.1-4.4 2.6m214.2.3c-10.1 1.5-18.5 3-18.8 3.3-1.5 1.5 3.8 2.8 22.9 5.4l20.8 2.8 2.4-2.7c2.9-3.4 3-5.6.3-9.1-2.6-3.2-3.6-3.2-27.6.3"/>
        <path d="M60 144.3c0 .8 67.2 62.2 68 62.2.4 0 16-14 34.5-31l33.8-31-18.9-.3c-16.1-.2-19.1 0-20 1.3-.6.8-7.4 13-15 27S128.3 198 128 198s-7.1-12.1-15.1-26.8l-14.6-26.7-19.2-.3c-10.5-.1-19.1-.1-19.1.1m.8 45.6c-10.2 7.7-19.4 15.1-20.4 16.6-2.2 3.3-1 7.3 2.7 9.4 4.7 2.6 7.4.4 19.6-16.2C79.5 177 80.2 176 79.8 176c-.1 0-8.7 6.3-19 13.9M176.6 177c.6.8 7 9.5 14.2 19.2s14.3 18.4 15.7 19.4c3.3 2.2 7.3 1 9.4-2.7 2.6-4.7.4-7.4-16.2-19.6-22.3-16.5-24.3-17.9-23.1-16.3m-51.9 40.7c-.2.4-1.3 7-2.3 14.7l-1.8 13.9 2.8 2.3c3.4 3 5.8 3 9.2 0l2.8-2.3-1.8-13.9c-1-7.7-2.1-14.3-2.3-14.7-.3-.4-1.1-.3-1.9.4-1.1.9-1.7.9-2.8 0-.8-.7-1.6-.8-1.9-.4"/>
    </g>
</svg>
