<svg xmlns="http://www.w3.org/2000/svg" width="682.667" height="682.667" version="1.0" viewBox="0 0 512 512">
    <g fill="#e5e5e5">
        <path d="M236.5 26c-8.7.9-16.5 3.2-27.7 8.4-8.1 3.7-10.1 5.5-11.6 10.6-2.1 7-8.5 37.4-12.3 58.5-.6 3.3-1.7 9.1-2.4 13-2.3 11.6-3.5 18.7-4.2 24.5-.3 3-1 6.5-1.4 7.8-.5 1.3-.9 3.5-.9 5 0 3.1-2.3 14.6-5 24.7-1 3.8-3.2 13.6-4.9 21.7-1.7 8-3.7 16.3-4.5 18.5-2 5.4-2.8 9.3-1.8 9.3.5 0 2.4-1.6 4.3-3.6s7.4-6.3 12.4-9.5c7.8-5.2 9.6-5.9 13.8-5.9 2.7 0 5.7.4 6.7 1 1 .5 8.8 3 17.2 5.4 22 6.4 28.4 8.9 31.1 12.2 1.2 1.6 3.2 4 4.4 5.4l2.2 2.5.1-3.3c0-6.7 3.3-16.5 10.3-30.7 5.4-11 5.1-8.5 2.8-28.5-.9-7.8-2.2-22-3.7-39.3-.3-3.7-.3-6.7 0-6.7.9 0 3.6 10.8 4.6 18.6.6 4.4 1.2 9.2 1.5 10.9 2.3 17.4 3.6 33 2.8 34.9-1.6 3.7-.6 13.9 2.2 21.1 1.4 3.7 2.4 6.9 2.3 7-.2.1-1.3.8-2.6 1.4-2.1 1.1-2.4.9-3.9-2.6-1.5-3.6-1.6-3.7-2.6-1.6-.8 1.9-.4 3.1 2.7 7.5 4 5.9 4.4 7.3 2 8.2-1.9.7-4.1-.8-4.9-3.5-.8-2.5-2.5-2.4-2.5.1 0 2.7 2.2 7 4.9 9.4 2.6 2.4 2.7 5.2.2 6.5-1.5.8-2.5.4-5.4-2.4-3.3-3.2-3.6-3.3-4.2-1.5-1.3 4.2 4.6 9.6 9.4 8.5 5.3-1.1 8.4-8.1 9.6-21.6.2-2.6.9-6.6 1.4-9 .6-2.6.6-7.4.1-12.4-.5-4.4-1.4-14.1-2-21.5-.7-7.4-1.4-14.4-1.6-15.5-.3-1.1-1.3-7.9-2.4-15-1.1-7.2-2.6-16.2-3.4-20-2.3-11.1-4.6-29-4.6-36.2 0-3.7-.6-12.4-1.4-19.3s-1.7-18.4-2-25.5c-.4-12.2-.4-12.8 1.1-10.1 2.7 5.1 5.3 15.8 6.8 28.6 1.8 14 4.2 25.7 5.6 26.5 1.1.8 1.1-1.6-.1-19.5-1.8-24.8-5.9-36.6-17-49.3-4.7-5.3-4.6-5.3-21.5-3.7m-62.6 26.4c-20 17.5-31.7 31.1-47.5 54.9-9 13.5-9.6 15.5-10.4 33.2-.7 15.2-2.8 25-9.1 42-1 2.7-2.1 7-2.5 9.5-1.2 9-6.8 29.5-12.8 47.2-1.9 5.7-4 12.2-4.6 14.5-.9 3.8-2.3 5.2-10.8 11.7C60.3 277.6 49.6 286 48 287.6c-1.2 1.2-1 1.3 1.7.5 4-1.2 6.8-2.7 12.8-6.9 4.6-3.3 31.3-15 39.5-17.3 1.9-.6 7.4-3.6 12.1-6.7l8.6-5.7 1.8-7c3.6-14 8.5-27.5 14-38.9 3.1-6.4 5.9-11.6 6.2-11.6 1.1 0-.7 32.5-2.1 38.5-.8 3.3-1.3 6.1-1.2 6.3.2.1 1.5-.2 3-.8 4.2-1.6 6.7-10.4 12.1-43 3-18.8 4.7-28.4 8.5-50.5.5-2.8 1.6-8.8 2.4-13.5 2.9-15.9 3.5-19.5 4-23.5.3-2.2 1.8-8.7 3.4-14.5s3.5-13.7 4.2-17.5c2-12 5.3-25.9 6.7-28.8 3.1-6.2.2-4.8-11.8 5.7M284.6 233c-1.6 6.9-3.6 14-4.5 15.8-.8 1.8-4.4 5.5-7.8 8.3-6 4.9-7.3 7.2-6.3 11.4 2.7 10.8 4.6 14 9.1 15 1.7.4 5.7 1.8 8.8 3.2 6.8 3.1 15.2 5.8 20.5 6.8 2.1.3 9.3 2.4 16 4.5 24.8 7.9 40.1 11.9 41.3 10.7.3-.3-1.3-1.1-3.5-1.6-2.2-.6-4.5-1.8-5.2-2.6s-5.8-2.9-11.4-4.6c-19.1-5.8-35.1-11.3-36.7-12.7-1-.7-5-2.6-9-4.2-11.7-4.5-20.3-8.2-21.2-9-1.2-1 1.3-5.9 3.3-6.5 3.4-1.1 7-8.1 7-13.4 0-2.8.7-10 1.6-16.2 2.4-17.2 1.4-19.6-2-4.9"/>
        <path d="M187 224.7c-2.5 1.5-9.4 6.1-15.4 10.2-15.2 10.6-20.9 14.1-30.3 18.4-4.5 2-9.9 4.8-11.9 6.2s-4.1 2.5-4.7 2.5c-.5 0-.4.7.3 1.5 1.8 2.1.7 4-4.2 7.2-2.4 1.5-9.9 7-16.8 12.3s-14.6 10.8-17.3 12.2c-5.3 3-4.9 3.4-3.2-4.5.3-1.6 1.7-4.6 3-6.8 1.4-2.1 2.5-4.1 2.5-4.4s-7.9 3.5-17.6 8.4c-18.1 9.2-21.9 11.8-34.1 23.3-4 3.8-7.7 6.8-8.3 6.8-.7 0-.8.5-.3 1.2.4.7.8 1.5.8 1.8s.8 1.6 1.7 3 1.9 4 2.3 5.8 1.3 3.6 2.1 3.9 4.5 0 8.2-.7c5-1 8.2-2.3 12.7-5.5 3.3-2.3 7.5-5 9.3-5.9l3.2-1.7v3.4c0 1.8-.5 5.9-1.1 9-1 5.5-.9 5.9 1.8 9.4 5.9 7.8 14.3 11.4 18.5 8 .9-.7 1.8-3.4 2.1-6.7 1.1-12.2 13.9-36.4 25.6-48.4 7.1-7.3 17.9-15.4 23.3-17.5 1.3-.5 5.8-2.9 9.9-5.3 4-2.4 10.6-5.6 14.4-7.2 3.9-1.5 9.5-4.1 12.5-5.7 3-1.7 8.9-4.6 13-6.6 7.1-3.4 8-3.6 17.2-3.5 11.5.2 16.3 1.2 28.3 6.3 5 2.2 9.6 3.9 10.2 3.9 1.1 0 4.8 3.6 8.9 8.6 1.4 1.7 1.5 1.5.9-2.5-1.1-8.6-8.7-18.1-20.5-25.7-2.5-1.6-4.7-3.2-5-3.5-.9-1.1-8.3-4.6-12.5-5.9-2.2-.6-7.9-2.7-12.7-4.6-4.9-1.9-9.6-3.4-10.5-3.4-1 0-3.8 1.2-6.3 2.7"/>
        <path d="M205.5 263.2c-7.3 1.7-12.6 3.3-21 6-4.9 1.6-11.2 3.6-14 4.3-4.7 1.3-20.1 9.5-34 18-3.3 2.1-7.3 4.5-9 5.4-3.5 2.1-9.9 11.7-8.4 12.7.6.3 2.7-.7 4.7-2.4 4.5-3.5 19.8-10.9 25.5-12.2 2.3-.5 6.8-1.9 10-3 15.1-5.3 24.1-6.9 46-7.6l14.7-.6 6 3.1c7.8 4.1 10.8 6.2 21.7 15.3 5.1 4.2 10.9 8.2 13 8.8 7.4 2.2 10.3 2.8 10.8 2 .2-.4-1-2.9-2.8-5.5-1.8-2.7-4.5-6.9-6.1-9.4-1.5-2.5-5.4-7.3-8.5-10.6-3.2-3.3-6.5-7.2-7.5-8.7-3.7-5.7-17.2-13.3-27.1-15.2-7.6-1.5-9.5-1.5-14-.4m76.1 35.3c-1.9 1.4-1.8 1.7 2.2 10.2l4.2 8.8 11.8-.3c6.4-.2 17.6-1 24.7-1.7 7.2-.8 16.4-1.2 20.5-1l7.5.4-8.5-1.7c-5.2-1.1-12.2-3.6-18-6.4-9-4.4-18-6.6-23.8-6-1.9.2-7.1-.8-17.2-3.3-.8-.2-2.4.2-3.4 1"/>
        <path d="M170.8 298.5c-.2.2-4.7.8-10.2 1.5-10.5 1.2-15.5 3.5-30.5 13.5-6.1 4-7.3 5.8-4.7 6.8.9.4 1.2 1.4.9 2.6s-.1 2.1.5 2.1c1.8 0 8.6-3.2 12.7-6 7.3-5 14.3-8 22.7-9.7 4.6-.9 10.3-2.5 12.8-3.6q7.5-3.15 36-3c10.3.1 11.2 0 8.5-1.2-4.3-1.8-20.9-3.4-35.7-3.3-7 0-12.8.2-13 .3m239.7 6.6c-3.8.5-7.3 1.3-7.8 1.8-.9.9 16.6 7.1 20.2 7.1 2 0 2.1-.2 1.1-1.5-.7-.8-1.9-1.5-2.6-1.5-.8 0-1.4-.5-1.4-1 0-1.5 1.6-1.3 13 2 5.8 1.7 13.2 3.3 16.5 3.6l6 .6-3.5-2.4c-4.8-3.4-12.3-6.4-20.3-8.2-7.4-1.7-10.6-1.8-21.2-.5m-186.2 9.4c-1.8.8-3.3 2-3.3 2.7s-.5 7.4-1.1 14.8c-1.2 16.4-.5 27.3 1.9 26.8 1-.2 2-1.9 2.5-4.8l.9-4.4 1.4 3.2c1.2 2.9 1.6 3.2 3.3 2.2 1.4-.7 2.1-2.3 2.3-5.3.4-5 1.7-5.2 4-.6 2.6 4.9 4.2 4.3 4.6-1.6.4-6.7 1.5-7.4 3.7-2.5 1.2 2.7 2.3 3.9 3.3 3.5.7-.3 1.6-.5 1.8-.5s.4-1.5.4-3.3c0-6.1 1.5-6.6 5.5-2 2.6 3.1 4 4 5.6 3.6 1.7-.5 2-1.2 1.7-4.4l-.3-3.8 2.4 2.2c1.4 1.2 3 2.8 3.6 3.5.6.8 1.8 1 2.9.6 1.5-.6 1.7-1.4 1.2-4.5-.3-2.2-.4-3.9-.1-3.9s3.3.9 6.7 2.1c6.8 2.3 8.5 2 9-1.3.3-2.1.9-2.3 9-3 4.8-.3 9.2-.9 9.8-1.3.5-.3 8.1-1 16.7-1.5 15-.9 19.4-1.4 23.6-2.6 1.9-.6 29.3-2.4 40.2-2.7 5.7-.2 6-.1 6.3 2.4s.2 2.6-9.5 3.7c-14.1 1.7-23.1 3-51.3 7.8-5.2.8-13.6 2.2-18.5 2.9-12.6 2-34.5 6.4-37.6 7.6s-10.3 6.4-19.6 14.1c-3.8 3.1-9.1 6.8-11.8 8.1-9.6 4.8-40.5 8-75.5 7.8l-24.5-.1-2.7-3.3c-1.5-1.7-3.7-6.1-4.9-9.6-2.6-7.7-2.1-17 1.3-26.7 2.6-7.3 2.1-9.8-1.6-8.1-4.4 2-6.1 8.4-6.1 22.2 0 11.5.1 12.3 3.2 18.5 1.8 3.8 4.6 7.6 6.5 9 3.2 2.5 3.6 2.5 26.3 2.9 35.5.5 68.4-3.1 81-8.9 3.3-1.5 9.5-5.6 13.9-9.1 14-11.4 15.9-12.4 25.4-14.3 4.8-1 11-2.2 13.7-2.8 2.8-.5 8.8-1.6 13.5-2.3s15.3-2.5 23.5-4c8.3-1.4 18.4-3.1 22.5-3.6 8.5-1.2 29.8-5.5 34.9-7.1 3.6-1.1 3.6-1.5 1.1-10.7-1.7-6.2-1-6-19.5-5-9.3.5-17.7 1.2-18.5 1.5-.8.4-10.3 1-21 1.5-10.7.4-20.6 1.1-22 1.4s-10.8.8-21 1.2c-17.3.6-19 .5-25-1.5-22.5-7.5-38.5-9.8-45.7-6.7"/>
        <path d="m210.3 316.1-4.3 1.8v17.7c0 13.4.4 19.2 1.6 23.6 1 3.3 2.2 5.7 2.8 5.5 1.8-.6 3.5-10.9 5.1-30.2 1.7-20.9 1.6-21.4-5.2-18.4m215.8-1.2c-1.1.7-1 1.1.5 2 2 1.3 1.3 1.2-17.5-.6l-6.3-.6.6 5.4c.4 3 .9 7 1.2 9 .3 2.4 0 3.9-.9 4.7-.7.7-6.3 2.1-12.3 3.2-6 1.2-15.4 3-20.9 4.1s-13.7 2.5-18.2 3c-11.8 1.3-14.8 2.9-4.3 2.2 5.8-.3 18.1.5 38.5 2.6 80.6 8.2 119.8 11.6 121.5 10.6 1.8-1.1 1.1-3.5-1.2-4-1.3-.3-12.4-2.6-24.8-5-21.6-4.4-36.7-8.4-34.4-9.2.6-.2 5.8.3 11.5 1.2s14.3 2 19 2.5c4.8.5 11.2 1.6 14.4 2.5 3.2.8 8.8 1.7 12.4 2.1l6.6.6-12.5-6.6c-30.3-15.9-46.2-23.4-55.5-26.4-12.2-3.8-15.6-4.5-17.4-3.3m-228.6 2.9c-1.3.9-5.5 9.3-5.5 10.9 0 .7-.4 1.3-1 1.3-.5 0-1-1-1-2.3 0-3.8-1.3-4.9-4.3-3.8-1.5.6-2.7 1.8-2.7 2.6 0 2.5-3 7.6-4 7-.5-.3-1.2-2.1-1.6-4-1-5.5-3.4-4.6-8.9 3.4l-2.4 3.3-1.1-4.1c-.6-2.3-1.5-4.1-2.1-4.1-1.7 0-5.8 4.7-6.5 7.5-.8 3.4-2.8 2.7-3.4-1.4-.3-1.7-.8-3.1-1.2-3.1-5.2 1-8.1 5.8-9.8 16.5-.9 5.5-.9 8.7.2 15 .7 4.4 1.8 7.9 2.3 7.7.6-.2.8-1.7.7-3.4-.2-1.7-.1-5 .2-7.3l.7-4.1 15.2-1.2c12.6-1.1 36.2-5.1 37.1-6.4.4-.5 2.6-24.8 2.6-28.1 0-2.6-1.4-3.4-3.5-1.9m-175.3 9.6-3.3 2.1.5 16c.3 8.8 1.1 17.8 1.7 20s1.4 11.2 1.7 19.9c.5 10.7 1.1 16.1 1.9 16.3 1.8.6 2.2-2.1 2.4-16.7.1-7.4.6-14.5 1-15.6 1.5-4.3 2.2-32 .9-37.3-1.5-6.5-2.7-7.3-6.8-4.7"/>
        <path d="M8.2 334c-4.5 30.5-6.5 50.4-5.7 56.5.7 5.9 3.1 12.9 5.7 16.7 1 1.4 1.8 3.1 1.8 3.7 0 2.5 5.5 14 9.6 20.1 2.4 3.6 8.1 10.4 12.7 15.2 10.1 10.5 16.2 13.8 27.1 14.6 3.9.2 8.2 1 9.6 1.7 1.4.6 5 1.7 8 2.3 18 3.9 19 4.2 25.4 8.5 3.5 2.4 11.2 6.8 17 9.7 10 5.1 11.1 5.4 20.8 6.1 5.7.4 23.7.8 40 .8l29.8.1 8.9-6.8c4.9-3.7 13.3-9 18.8-11.9 6-3.2 11.5-7 14.3-9.9 2.5-2.5 7.1-6.8 10.3-9.5l5.9-5 17.6.1c9.8.1 18.9-.3 20.3-.9 2.6-.9 10.9-12.9 12.3-17.7.8-2.5 5.1-3.1 25.6-3.3 6.9-.1 13.6-.4 15-.6 19.5-3.3 26.6-3.7 66.5-4.2 32.5-.4 43-.8 46.3-1.9 2.3-.8 5.3-1.4 6.5-1.4 3.7 0 14.6-7.1 20.3-13.3 5.1-5.5 5.4-6.1 4.8-9.5-.8-4.7-4.7-12.7-8.5-17.4l-3-3.8 4.2-4c2.3-2.2 3.9-4.3 3.6-4.7-.9-.8-14.1 5.9-14 7.2.1.5-.6 1.4-1.5 1.9-1.3.8-.5 1.9 5 7 6.2 5.7 6.7 6.5 7.2 11.4.7 5.1.6 5.3-3.8 10-3 3.2-6.2 5.4-10.3 6.9-6.1 2.3-8.6 2.5-50.3 3.8-17.4.6-46.3 2.3-53 3.1-1.9.3-17 .7-33.5.9l-30 .5-1.2 2.7c-.6 1.6-2.3 5.8-3.8 9.4-3 7.5-4.9 8.9-12.3 8.9-5.8 0-26.6 2.6-30.8 3.8-6.1 1.9-10.1 4.6-18.9 13.1-7.3 7.1-11.5 10.1-22.2 16-7.2 4-13.7 7.9-14.3 8.7-.7.7-1.6 1.2-2 .9-.5-.3-3 .6-5.6 2-4 2.1-6 2.5-13.3 2.5-16.7 0-49.2-2.9-57.6-5.1-9.6-2.6-9-2.3-23.6-11.5-11.9-7.4-21.2-11-38.6-14.9-5.9-1.4-8.2-1.4-12.7-.5-7 1.4-10.6-.2-14.4-6.7-1.5-2.5-6.5-9.3-11.1-15.2-4.6-5.8-9.5-12.4-10.9-14.6s-3.1-4.5-3.7-5c-2-2-7.3-14.1-8.1-18.5-.4-2.5-1-17.1-1.3-32.5-.4-15.4-.8-27.3-.9-26.5"/>
        <path d="M45.4 342.7c-1.7.8-3.8 2.7-4.6 4.2-2.2 3.7-4.1 16-4.1 26.8 0 8 .4 10 2.7 14.7 3.1 6.3 10.3 12.7 14.3 12.8 4.4 0 9.6-2.7 13.6-7.1 3.3-3.6 3.7-4.7 3.7-9.4 0-2.8.4-6.8.9-8.9 1.8-7.6-3.2-27.3-6.9-27.3-1.7 0-1.9 6.3-.5 20.3.7 6.9.5 8.8-1 12.2-1 2.2-2.1 4-2.5 4-1.2 0-7.1-14.1-8.3-19.7-.8-4-.8-6.6.4-12 1.8-8.5 1.2-11.7-2.1-12-1.4-.1-3.9.5-5.6 1.4m-3 41.9c.3.8.2 1.2-.4.9s-1-1-1-1.6c0-1.4.7-1.1 1.4.7m259.4-29.5c-2.6 1.4-2.4 4.3.1 3 1.9-1.1 3.7-4.1 2.3-4.1-.4 0-1.5.5-2.4 1.1m-212.2 2.4c-4.8 1.4-6 3.5-1.9 3.2l2.8-.2.6 8.5c.3 4.7 1.4 10.7 2.3 13.5 4.7 13.1 12.9 33.3 14.9 36.5 6.3 10.4 27.2 33.1 32.7 35.4 3 1.2 8 1.1 8-.3 0-.3-3.4-4.2-7.6-8.6-4.1-4.4-10.2-12.1-13.6-17-3.3-5-6.6-9.7-7.3-10.5-.8-.8-3.8-7.2-6.8-14.3l-5.5-12.7 4.2 2.3c2.2 1.2 5 3.7 6.1 5.5 3.1 5.1 13.4 20.2 20 29.4 9.5 13.2 11.6 14.8 23 18.5 16.4 5.3 18 5.5 24.3 4.3 12.3-2.4 30.9-9.4 39.2-14.7 3-1.9 8.2-5.2 11.5-7.2 5.4-3.4 14.1-13.1 11.7-13.1-.5 0-2.9 1.5-5.4 3.4-7.3 5.6-32.4 17.7-41 19.7L194 441l-15-4c-8.2-2.2-16.2-4.6-17.7-5.2-5.5-2.4-14.1-8.7-18.6-13.8-5.2-5.8-15.4-21-16.9-25-.8-2.5-4.3-5-7.1-5-2.1 0-13.1-8.1-16.3-12.1-2.3-2.7-3.5-5.7-4.3-10.1-1.4-8.1-3.2-9.9-8.5-8.3"/>
        <path d="M291.5 357.7c.4 1 2.5 6.5 4.7 12.3 4.7 12.7 5 13.3 9.3 19.2 5.5 7.5 7.3 8.3 19.5 8.4 5.8.1 12.1.6 14 1.3 4.2 1.3 8 1.4 8 .2 0-.5-1.2-1.2-2.7-1.6-1.6-.3-5-1.7-7.8-2.9-2.7-1.3-8-2.9-11.8-3.6-6.3-1.1-7-1.6-11.8-6.8-2.8-3.1-4.7-5.8-4.1-6 .9-.3 92.3 5 151.2 8.7 15.7 1.1 28.7 1.7 29 1.4s-.9-1.7-2.6-3.3c-2.9-2.5-4.1-2.8-13.5-3.5-5.7-.3-41.7-3.2-79.9-6.2-38.2-3.1-73.1-5.8-77.5-6.2-7.2-.5-8.8-1-14.2-4.6-3.4-2.2-6.7-5-7.2-6.2-1.2-2.7-3.7-3.2-2.6-.6"/>
        <path d="M361.4 360c-5.5 2.8-5.1 5.5.9 6.4 11.7 1.6 34.4 2.7 37 1.7 2.5-1 3.8-3.1 1.8-3.1-.5 0-.8-.8-.7-1.7.1-1.4-1.5-1.9-9.4-3-18.7-2.5-25-2.6-29.6-.3m-86.8 15.8c-.4.6-.2 5 .4 9.9.5 4.8.9 10.4.8 12.3-.3 8.2 2.2 13.8 9.6 22.3l5.1 5.8 5-.6c7.8-1 8.2-1.3 11.4-7.2 3-5.5 3.4-8.5.7-4.8-1.1 1.5-2.1 1.7-5.7 1.1-9.9-1.5-11.8-2.6-16.3-9s-5.9-10.5-7.7-22.1c-1-7-2.1-9.6-3.3-7.7M379 389.9l-6.5.6 8 .8c4.4.4 13.6 1.4 20.5 2.2s21.5 1.9 32.5 2.5 26.5 1.4 34.4 1.9c15.1 1 17.3.8 16.5-1.4-1.2-3.1-14-4.7-41.4-5.1-14.6-.3-32.3-.9-39.4-1.4-7.2-.6-14.1-.9-15.5-.8-1.5.1-5.5.4-9.1.7"/>
    </g>
</svg>
