<svg xmlns="http://www.w3.org/2000/svg" width="341.333" height="341.333" version="1.0" viewBox="0 0 256 256">
    <g fill="#e5e5e5">
        <path d="M113.8 26.1c-14.7.6-17.4 1-22.1 3.2C84.5 32.6 75 41.9 75 45.7c0 2.3-.9 3.4-4.8 5.8-2.6 1.6-12 10-21 18.5C27 91.1 25 95.4 25.2 120.2c0 6.8-.5 17.3-1.2 23.3-1.8 15.8-1.1 17.8 12.8 32.3 10 10.5 11 11.3 15.6 12.1 5.5 1 7.6 3 7.6 7.3 0 1.6.5 2.8 1.3 2.8.6 0 3.6 3.7 6.6 8.2 4.3 6.3 6.3 8.4 9.2 9.6 2.5.9 4.2 2.5 5 4.4 1.4 3.4 5.5 5.5 17 8.6 22.2 6.1 42.6 5.4 64.9-2.1 8.6-2.9 9.5-3.5 10-6.1.3-1.8 1.6-3.4 3.6-4.4 1.6-1 14.3-13.2 28-27.2 28.3-28.8 28.3-28.9 27-41.8-.4-3.7-1.1-15.5-1.5-26.2-1.2-27.4-2-29.3-19.8-46.3-8.1-7.7-9.6-8.7-12.8-8.7-2 0-4.5-.5-5.7-1.1-1.7-.9-1.9-1.7-1.4-5.4.6-3.8.4-4.5-2-6.4-1.5-1.2-3.5-2.1-4.5-2.1-2.2 0-3.9-2.9-3.9-6.4 0-2.9-8.3-10.2-15.9-14.1-11.4-5.7-15.5-6.1-51.3-4.4M99 53.8c1.2 3.1 2.4 7.9 2.6 10.7l.5 5-3.6-3.9c-5-5.6-8.5-13.3-9.1-20.2l-.5-5.9 4 4.3c2.2 2.4 5 6.9 6.1 10m65.7-8.4c-.3 2.9-1.5 7.3-2.7 9.7-2.7 5.3-8.2 12.8-9.4 12.9-1.6 0 .3-10 2.9-15.8 2.9-6.4 7.1-12.2 8.7-12.2.7 0 .9 1.8.5 5.4m-59.4 57c-.4.6-2.6 4-4.8 7.6-9 14-8.6 19.6 1.4 21.9 3.7.8 10.8 5.8 9.7 6.8-.1.2-3.2-.6-6.7-1.6-3.5-1.1-6.5-1.8-6.7-1.6-.8.7 4.6 7.2 7.7 9.5 7.1 5 14.3 7.4 22.1 7.5 6.6 0 8.5-.5 14.3-3.3 6.4-3.2 13.7-10 13.7-12.9 0-1.7.3-1.8-7.5 1.8-3.7 1.6-7 2.8-7.3 2.5-1.2-1.2 7-7.5 10.6-8.1 6.2-1.1 9.3-2.7 10.3-5.4 1.4-3.7.5-6.1-6.1-16.4-3.2-5.1-5.5-9.4-4.9-9.6 1.3-.4 26.9 25.7 26.9 27.5 0 .8-1.7 4.8-3.7 9.1-4 8-9.1 13.1-21 21.1-2.9 1.9-5.3 4.1-5.3 4.8 0 1.8 6.4-1.1 22-9.6l11.5-6.3 5.5 1.1c11.3 2.4 24 10.4 24 15.2 0 2.7-3.8 6.8-8.3 9.1-5.6 2.9-14.3 11.3-17.5 17.1-1.5 2.6-3.2 4.8-3.9 4.8-2 0-7.3 5.1-9.4 9.1-1.1 2.2-2.2 3.9-2.5 3.9-2.1 0-6.3-3.5-8.4-7-6.9-11.4-10.1-16-11.1-16-1.4 0-.4 6.3 2.2 13.9 1.1 3 1.9 7.1 1.9 9.2 0 6.2-1 6.4-29 6-13.5-.1-24.6-.4-24.7-.4 0-.1 1.2-6 2.7-13.2 1.6-7.1 2.6-13.2 2.4-13.4-1.1-1.2-4.2 2-8 8.4-4.7 7.7-7.9 10-11.8 8.5-1.5-.5-3.1-2-3.7-3.3s-2.6-3.2-4.5-4.2-5.9-5.1-8.9-9.1c-6.3-8.3-12.5-13.9-16.3-14.9-7.7-1.9-9.4-6.6-4-11.5 1.7-1.6 8.3-5.5 14.7-8.8l11.6-5.9 3.6 3.6c2.1 2.2 6.3 4.8 10.5 6.5 3.8 1.6 9.7 4.1 13 5.7 3.4 1.6 6.4 2.9 6.8 2.9 2.1 0-.6-2.6-9.1-9-15.7-11.7-19-15.5-20.7-23.7-.7-2.9.1-4 12.1-17.6 7.1-8 13.4-14.2 14-14 .7.3 1 1 .6 1.7M54.1 113c14.1 3.8 19.1 7.3 14.7 10.4-1.8 1.3-1.9 1.8-.9 4.7.6 1.7 1.1 4.3 1.1 5.6 0 3.2-4.2 7.3-7.5 7.3-2 0-2.9.8-4.1 3.6-1.5 3.6-6 6.4-10.4 6.4-1.3 0-2.8 1.2-3.8 3-.9 1.6-2 3-2.3 3-.4 0-1.2-2.7-1.9-6-.9-4.5-1-9.5-.4-19.7.5-7.6.8-16.6.7-20.1l-.2-6.3 3.3 2.9c2.2 1.9 6.1 3.7 11.7 5.2m165 7.2c1.4 12.5.4 24-2.8 33.3l-1.6 4.8-1.3-3.1c-1.5-3.6-4.1-5.2-8.6-5.2-2.7 0-3.6-.6-4.8-3.3-1-2.1-3.4-4.2-7-6.2-6.1-3.4-7-5.3-5-11.8 1-3.5 1-4-.9-5.4-3.5-2.4-1-4.7 9.1-8.7 5.1-2 11.8-5 14.8-6.5 6.7-3.5 6.3-4 8.1 12.1"/>
        <path d="M141 152.7c-8.2 3.9-17.8 4.3-25.9 1l-6.2-2.5 2.4 3.1c6.2 8 13.2 11 22.2 9.3 3.6-.7 8.2-4.6 12.4-10.5 2.7-3.7 2.3-3.7-4.9-.4M117.1 172c-11.4 2.4-5.3 5.5 10.9 5.5 9.5 0 12.1-.3 15-1.9l3.5-2-3.5-.8c-5.8-1.3-21.2-1.8-25.9-.8"/>
    </g>
</svg>
