<svg xmlns="http://www.w3.org/2000/svg" width="341.333" height="341.333" version="1.0" viewBox="0 0 256 256">
    <g fill="#e5e5e5">
        <path d="M147 42.9c-10.7 2.3-30.2 8.8-53.5 17.9-22.9 8.9-35.4 12.7-49.7 14.7C28.3 77.7 28 77.8 28 79.6c0 .9 1.5 4.6 3.2 8.3 4.6 9.3 13.3 17.7 23.8 23 12.2 6.1 15.2 5.2 11-3.3-2.8-5.9-1.9-7.5 6.2-10.5C75.6 95.8 87.7 90.4 99 85c29.7-14.1 39.5-17.3 43.5-14s.5 7.6-17.8 21.4c-10.9 8.2-13.9 11.6-10.2 11.6.8 0 7.9-3.4 15.8-7.5 30-15.7 45.2-18.7 66-13 10 2.7 13.7 2.4 15.1-1 2.1-5.6-2-13-13.3-23.7-17.5-16.7-29.5-20.4-51.1-15.9"/>
        <path d="M85 101.2c-5.9 3.6-11.2 10.3-13 16.6-.5 2-1.3 7.1-1.6 11.3l-.7 7.6-11.6.6c-11.2.6-22.1 2.8-22.1 4.7 0 .4 6 2.7 13.3 5 16.5 5.1 21.6 7 22.1 7.9.3.4 1.2 6.6 2.1 13.7 1.5 11.9 1.5 13.8.1 22.2-.9 5-2.9 12.5-4.6 16.6-3 7.5-3.1 10-.5 11 3.8 1.4 14.1-4.1 20.3-10.8 5.2-5.6 5.5-9 1.2-12.6-2.9-2.4-3-2.9-4.5-17.2-.8-8.1-1.5-15.4-1.5-16.3 0-2 6.1 1 21.7 10.8 21.2 13.4 23.8 14.7 34.3 18.1 5.8 1.9 13 3.5 16 3.6 9.1.4 14.4 0 16-1.1 2.3-1.6-1.4-3.6-16.2-9-18.6-6.8-25.7-11.1-42.7-25.7-10.9-9.3-19.2-14.9-24.4-16.4-2.3-.6-4.6-1.5-5.1-1.9-1.9-1.6 1.5-18.3 5.6-27.3 6.5-14.5 5.5-17.2-4.2-11.4"/>
        <path d="M136.7 102.9c-9.3 3.7-18.7 13.7-18.9 20-.1 1.7.7 4 1.8 5.2 1.7 1.9 2.5 2 9.9 1.3 11.5-1.1 15.7-.7 23.8 2.5 4 1.6 8.7 3.2 10.6 3.6l3.4.7-2.1-2.9c-1.2-1.7-3.7-4.1-5.7-5.4-5.8-4-5.8-7.9.1-8.1 4.9-.1 9.5 1.3 20.4 6.2 5.8 2.6 14.4 6.4 19.3 8.5 4.8 2.1 9 4.2 9.3 4.7s-.1 2-1 3.3c-2 3.1-2.1 6.5-.1 6.5 5.5 0 16.9-9.8 21.8-18.7 4-7.5 2.1-10.2-5.8-8.3-11 2.6-22.6.4-36-7.1-4.9-2.7-12.8-6.8-17.5-9.1-8-4.1-9-4.3-18.5-4.5-8-.3-10.9.1-14.8 1.6"/>
        <path d="M175.4 132.5c-.3.8.3 3.4 1.5 5.7 3.6 7.6 4.5 17.3 2.6 29.6-.9 5.9-1.9 13.9-2.2 17.7-.5 6.6-.4 7.3 2.1 10.2 6.8 8.1 27.6 14.7 27.6 8.8 0-.7-3.6-4.6-8.1-8.5-4.4-4-8.7-8.7-9.6-10.4-2.1-3.9-2-12.2.1-24.1 3-17.1 1.3-23.6-7.3-27.9-5.9-3-6-3.1-6.7-1.1"/>
    </g>
</svg>
