<svg xmlns="http://www.w3.org/2000/svg" width="341.333" height="341.333" version="1.0" viewBox="0 0 256 256">
    <g fill="#e5e5e5">
        <path d="M107.5 49.1C97.1 55 88.4 60.3 88.3 60.7c-.3.9 37.4 22.6 39.1 22.6 1.3 0 39.6-21.6 39.6-22.3 0-.6-39.3-23.1-40-22.9-.3.1-9 5-19.5 11M83 77v7l5.3 3.3c2.8 1.9 9.1 5.6 13.9 8.3l8.8 4.9v10.2c0 5.7.3 10.3.6 10.3.4 0 3.1-1.4 6.1-3.1l5.4-3.1-.3-11.6-.3-11.7L104 80.8C93.8 74.9 84.9 70.1 84.3 70c-.9 0-1.3 2-1.3 7m67.8 3.8L132 91.5v23.4l6.1 3.6c3.3 1.9 6.2 3.5 6.5 3.5.2 0 .4-4.8.4-10.8v-10.7l13-7.4 13-7.5v-7.8c0-4.3-.3-7.8-.7-7.8-.5 0-9.2 4.9-19.5 10.8"/>
        <path d="M40.7 91c-10.3 5.9-19 11-19.3 11.3-.6.6 37.9 22.7 39.6 22.7.7 0 10-5 20.7-11.1l19.4-11.1-2.8-1.7c-10.9-6.6-37.1-21.1-37.8-21-.6.1-9.5 5-19.8 10.9m134.4 0c-10.7 6.1-19.6 11.2-19.8 11.4-.6.5 38.3 22.6 39.7 22.6 1.1 0 34.8-18.7 38.3-21.2 1.6-1.2-.4-2.6-17.4-12.3-10.6-6.1-19.7-11.1-20.3-11.3-.6-.1-9.8 4.8-20.5 10.8M17.2 133l.3 22.2 18.9 10.9c10.3 6 19 10.9 19.2 10.9s.4-9.9.4-21.9v-21.9l-18.7-10.7c-10.4-5.9-19.1-11-19.6-11.2-.4-.2-.6 9.5-.5 21.7M86 121.6c-10.1 5.7-19 11-19.7 11.6-1 .8-1.3 6.1-1.3 22.4 0 11.8.3 21.4.8 21.4.4 0 3.1-1.4 6-3l5.2-3v-29.8l13.6-7.8c7.5-4.3 13.8-8.3 14.1-8.9.2-.7.3-4 .1-7.4l-.3-6.1zm65-3.2v7.4l13.5 7.8 13.5 7.8v29.1l5.9 3.3c3.2 1.7 6.1 3.2 6.5 3.2.3 0 .6-9.7.6-21.5V134l-3.7-2.4c-3.6-2.2-29.1-16.9-34-19.5-2.3-1.2-2.3-1.1-2.3 6.3m68.3 3.7L200 133.2v21.9c0 12 .2 21.9.4 21.9.6 0 37-21.1 37.9-21.9.4-.4.6-10.5.5-22.4l-.3-21.6z"/>
        <path d="M107.6 131.3C96.8 137.5 88 142.8 88 143.1c0 .9 39 23.1 39.9 22.7 3.3-1.4 39.1-22.2 39.1-22.7s-9.3-5.9-34.1-19.8l-5.6-3.1zm-24.4 42.4.3 21.8 19.5 11.2 19.5 11.2.3-21.6c.1-11.9-.1-22-.5-22.4-1.4-1.4-37.4-21.9-38.4-21.9-.6 0-.8 8.4-.7 21.7m67.8-10.8-18.5 10.7-.3 22.3-.2 22.4 2.2-1.5c1.3-.8 10.1-5.9 19.6-11.2l17.2-9.8v-21.9c0-12.1-.3-21.9-.7-21.9-.5.1-9.1 4.9-19.3 10.9"/>
    </g>
</svg>
