<svg xmlns="http://www.w3.org/2000/svg" width="682.667" height="682.667" version="1.0" viewBox="0 0 512 512">
    <g fill="#e5e5e5">
        <path d="M445 41.5c-.8.2-6.2 1.1-12 2-10.4 1.7-10.6 1.8-21.8 9.2-9.9 6.6-24.7 14.3-27.7 14.3-.6 0-2.1 1-3.5 2.3-1.4 1.2-5.2 4.1-8.5 6.4-7.1 5-12.9 6.1-23.1 4.4-14.7-2.5-31.1 3.6-52.1 19.3-8.6 6.3-10.4 8.2-14.8 15.5s-5.8 8.8-11.6 12.2c-6.5 3.9-6.6 3.9-26.3 5.9-21.5 2.2-21.7 2.3-33.5 10.3l-7.5 5-11-3.6-10.9-3.6-6.1 2.4c-4.3 1.6-11.2 3-22.9 4.3-15.5 1.8-17.1 2.2-21 4.9l-4.2 3-5-1.7c-4.8-1.6-6.1-1.6-23.5-.1-10.4 1-19.6 2.3-21 3.1-5.8 3.1-20.1 12.9-27.8 18.9l-8.3 6.6-8 16.5c-4.5 9.1-9.4 19.2-11.1 22.5-2.9 5.5-3 6.4-2.5 13.5.6 7 .4 8-1.8 11.3-1.4 2-2.5 3.9-2.5 4.3s-1.1 2.1-2.3 3.8c-1.8 2.3-2.7 5.5-3.6 12.1l-1.1 9 6.5 6.1c3.6 3.3 6.5 6.6 6.5 7.2 0 1.6 7 6.2 9.4 6.2 1.1 0 5.6 1.3 10 3 4.5 1.6 10 3.4 12.3 4 2.4.6 5.2 2.1 6.3 3.3s5.1 3.7 8.7 5.7c5.5 2.8 7.1 4.3 9 8 1.3 2.5 4.5 7.5 7.1 11.1 9.4 13.1 22.5 30.4 23.8 31.5.7.6 1.8 3.3 2.5 6 1.7 6.9 1.9 7.2 11.5 17.2 7.8 8.1 8.7 9.3 9 13.3 1.1 13.8.9 13.5 14.3 34.9l12.7 20.5 11.5 9.7c10.4 8.8 12.5 10.2 24.4 15.2 10.4 4.4 14.8 5.7 22 6.6 14.8 1.8 15.3 1.7 29.6-4 12.1-4.8 16.2-7.2 42.4-24.6 16-10.6 35.5-24.5 43.4-31 12.6-10.2 15.9-13.7 26.8-27.3 11-13.9 13.3-17.5 20.8-32.6l8.4-17 4.7-28.5 4.7-28.5 5-7.8c4.4-6.8 5.8-10.6 11.7-30.5l6.7-22.7 4.9-2.7c2.7-1.5 11.7-5.1 20.1-8l15.2-5.2 7.3-8.6c13-15.2 14.6-18.2 16.8-30.6 2.2-12.1 2.5-25.6 1-45.8l-.9-12.9 3.4-5.6c1.8-3.1 4-8.1 4.9-11.1 3.3-12.5-.1-30.2-6.7-34.7-3.5-2.4-6.5-5.3-16.2-15.2-3.9-4-7.2-6.5-9.5-7-4.3-1.2-13-2-15-1.6m11.6 3.5c5.6 1 6.2 1.4 13.9 9.5 4.4 4.6 10 9.9 12.4 11.8 5.8 4.6 8.1 10.5 8.1 20.8 0 8.9-2 16.6-6.1 23l-2.9 4.5.7 25.1c.5 21.7.4 26.2-1.2 34.4-1.4 7.4-2.3 10-4.4 12-1.4 1.5-6.4 7.4-11.1 13.2l-8.4 10.6-14.1 4.9c-7.7 2.7-16.1 5.5-18.7 6.1-2.5.7-6 2.5-7.8 4-3 2.5-4.3 6-7.9 22.1-2.2 9.8-7.5 26.8-9 28.6-.9 1.2-3.3 4.2-5.3 6.6l-3.7 4.4-5 31c-4.3 26.5-5.4 31.7-7.8 35.9-2.4 4.4-13 20.4-28.5 43-3.7 5.4-7.2 8.8-15 14.7-5.7 4.2-13 9.7-16.3 12.2s-9.4 7-13.5 10c-13.6 10-16.3 12.1-20.9 16.2-2.5 2.3-10.9 8.4-18.7 13.6-11.7 8-14.9 9.7-19.2 10.3-2.8.4-6.2 1.5-7.4 2.4-1.5 1.2-5.7 2.2-12.2 2.9-9.4 1.1-10.2 1-17.5-1.4-9.4-3.2-16.1-6.3-22.6-10.7-10-6.6-22-15-22.5-15.6-.3-.4-1.7-1.4-3.1-2.3-1.7-1.1-6.7-8.9-13.5-21-10.8-19.1-10.9-19.3-11.4-27.2l-.6-7.9-5.6-5.1c-5.2-4.8-5.8-5.7-8.9-15.6-2.3-7.4-4.5-12.1-7.4-15.9-2.2-2.9-4.8-6.5-5.7-7.9-.9-1.3-2-2.8-2.5-3.1s-4.5-5.3-8.8-11.1c-4.4-5.8-9.1-11.9-10.5-13.7s-3.4-4.3-4.5-5.7-2.4-2.6-3-2.6c-3 0-15.5-5.8-16.6-7.6-.8-1.6-5-3.4-15.6-7l-14.6-4.9-2.9-5.5c-1.6-3-4.8-7.1-7.1-9.1-4-3.5-4.2-3.9-4.2-9.5 0-5.4.5-6.7 5.4-14.7l5.4-8.7-.7-7.2-.6-7.1 10.9-22.1C48.5 187.4 49.1 186.4 54 183c2.8-1.9 7.9-5.5 11.3-8 14.4-10.4 12.1-9.7 34-10.9 18.7-1.1 19.8-1.1 23.5.8l3.8 1.9 4.1-3.7 4.1-3.7 18.7-2.2c10.2-1.2 20.7-3 23.2-3.8 6-2.1 13.1-.6 22.5 4.6 2.7 1.5 3.2 1.3 8.4-3.1 8.4-6.9 9.1-7.2 26.4-8.9 27.9-2.9 34.8-4.5 40.5-9.6 1.7-1.4 4.7-3.8 6.7-5.1 3.3-2.2 8.7-9.9 11.1-15.7 2.1-5.2 12.1-13.9 23.1-20 10.3-5.8 27.8-8.5 33-5.1 1.9 1.3 3.5 1.4 9.1.6 3.8-.6 7.1-.9 7.4-.8 1.3.3 22.7-14.1 29.4-19.8 23.2-19.7 26.4-21.8 36.7-23.8 15.7-3 17.3-3.1 25.6-1.7"/>
        <path d="M440.8 48c-12 2.1-21 6.2-29.3 13.5-3.3 2.8-6.9 5.9-8 6.7-11.1 8.8-18.6 14.7-21 16.5-5.9 4.4-15.1 9.2-19 9.8-11.2 1.8-11.5 2.1-5.9 5.5 2.6 1.5 4 1.8 4.7 1.1 1.6-1.6 4.7-1.3 5.3.3.8 2 4.4 2.8 4.4 1 0-.8.9-1.4 2.1-1.4 1.6 0 1.9-.5 1.5-2.3-.6-2.2-.6-2.2.6.1.9 1.9.9 2.5-.2 3.2-1.7 1.1.6 2.1 9 4 3 .6 7.8 2.1 10.5 3.2 8.1 3.2 8.5 3.3 8.5.9 0-1.1.4-2.1.9-2.1 1 0 2.1 2.4 2.1 4.8 0 2.3 3.7 4.4 6.3 3.6 3.9-1.2 26.4-16.5 28.3-19.2 2.5-3.6 2.7-10.7.6-16.9-1.7-4.8-1.9-6.7-1.1-10.4s1.7-4.9 5.5-7.3c4.2-2.6 5-2.8 11.2-2.3 3.7.4 8.1.9 9.7 1.2l3 .6-3.3-3c-3.6-3.4-6.5-3.8-11.7-1.7-1.9.8-3.5 1.1-3.5.7 0-.5 2.1-1.7 4.7-2.8l4.8-1.9-4.7-2.8c-5.4-3.1-9.4-3.8-16-2.6m8.7 1.8c-.6.5-2.6 1.5-4.5 2.2-8.1 3.2-9.9 4.8-10.5 9.8-.3 2.6-1 6.7-1.4 9.2l-.9 4.5-.1-6.5c-.1-5.7-.3-6.3-1.5-4.7-2.9 3.8-10 7.7-14.2 7.7-3.1 0-5.2.8-8.5 3.4-2.4 1.8-6.4 4.3-8.9 5.6s-7 4-10 6-6.6 4.1-8 4.5c-2.4.7 12-9.6 15-10.7.8-.3 4.8-2.9 8.9-5.7 6-4.1 8.3-5.1 11.5-5.1 5.5 0 13.6-5.5 16.6-11.4 1.6-3 6.4-6.5 11.5-8.4 3.7-1.3 6.2-1.5 5-.4m2.5 4.1c0 .5-1.6 1.5-3.5 2.1-2 .7-4.7 2.8-6.3 4.8-2.6 3.5-2.7 3.9-2.6 16.6 0 10.2-.2 12.2-.9 9.1-.5-2.2-1-8.1-1.1-13-.1-8 .2-9.4 2.3-12.6 1.4-2 4.4-4.5 7-5.7 5.4-2.5 5.1-2.5 5.1-1.3m-75.4 39.6c-.8.8-1.8 1.5-2.2 1.5-.3 0-.1-.7.6-1.5s1.7-1.5 2.2-1.5.3.7-.6 1.5"/>
        <path d="M460 64c0 .5.8 1 1.8 1 2.3 0 11.7 5.7 15.9 9.6 2.9 2.8 3.3 3.8 3.3 8 0 10.3-.8 12.3-5.9 14.8-2.5 1.3-6.5 2.7-8.8 3.1-2.2.3-4.9 1.3-6 2-1.7 1.3-1.6 1.4 1.3 1.5 2.1 0 3.4.6 3.9 1.7.3 1 .9 10.2 1.2 20.5.4 16.9.3 19.4-1.5 25-1.1 3.5-2.3 7.6-2.7 9.2-1.1 5.3-6.5 15.5-8.6 16.7-1.8.9-2.5.7-4.8-1.4-1.4-1.4-4.2-4-6.1-5.9-2-1.8-5.3-5.5-7.4-8.1l-3.9-4.9 4.9-5c6-6.2 9.8-9.7 10.2-9.3.2.1-.7 2.3-1.9 4.8-2.7 5.6-2.1 8.7 2.6 12.3 4.6 3.5 5.3 2.6 1.5-2.1-1.6-2.1-3-4.7-3-5.8s1.4-4.8 3.1-8.3c1.8-3.6 2.9-6.7 2.6-7.1-.7-.7-16.7 13.5-16.7 14.8 0 .5-1 1.4-2.3 2-1.2.6-3.2 2.4-4.2 4-2.4 3.6-14.9 13.4-22.3 17.4-6.5 3.5-8.1 5.2-5.7 6.1.9.4 3.3-.2 5.5-1.5 3.1-1.7 4-1.9 4.9-.8 1.6 2 5.7 11.7 6.5 15.3.4 1.8 1.5 3.8 2.4 4.6 2.5 2.1 5.2 2.9 5.2 1.6 0-.9.3-.9 1.2 0 2.3 2.3 9 1.4 13.8-1.8 2.5-1.6 4.9-3 5.3-3s2.6-.9 4.7-1.9c5.7-2.8 4.9-.9-1.2 3-2.9 1.8-6 4.1-6.9 5.2-1.5 1.8-4 2.5-21.4 5.6-2.2.4-5 1.3-6.3 2-1.5.8-3.8 1-6.1.6-3.2-.5-3.9-.3-4.4 1.2-.3 1-2.4 6.2-4.6 11.6-2.3 5.3-4.1 10.2-4.1 10.8s-1.4 4.1-3.1 7.8c-3 6.4-3.6 7.8-7.4 15.1-1 1.9-2.3 4.4-2.8 5.5-1.1 2.2-3.7 12.6-4.2 17-.8 6.9-2.6 21-4.6 35-1.1 8.2-2.3 19.9-2.6 26l-.6 11 2.9-3.4c2.4-2.8 3-4.7 3.5-10.5.4-3.9 1.4-12.7 2.3-19.6s2.3-18.1 3.2-25c2.3-19.1 4.7-28.2 8.5-33 1.8-2.2 3.8-4 4.5-4 .8 0 1.6-1.2 1.9-2.8.8-3.8 3.9-12 9-23.7 5.1-11.6 4.3-11.1 22.4-14.4 8.4-1.5 12-2.7 14.1-4.5 1.6-1.3 5.3-3.1 8.2-4.1 6-1.9 8.1-3.4 12.3-9 1.6-2.2 4.3-5.5 6-7.3 1.9-2.2 4.1-6.7 6-12.5l3-9.2-.2-26.5c-.1-24.4-.3-26.9-2.2-31.3-1.2-2.7-2.1-4.9-2.1-5s1.4-.2 3.1-.3c2-.1 4.2-1.3 6.5-3.5l3.6-3.4-.7-9.5c-.9-12.9-1.8-15.5-6.8-18.8-7.8-5-18.7-8-18.7-5.2m4.9 104.6c-1.9 9.4-2.3 10.1-7.2 15.4-5.1 5.5-9.1 7.8-13.5 7.9-2.6.1-3.4-1.5-5.2-11.1-1-5.5-1.8-7.3-4.4-9.6-1.7-1.6-4.1-3.9-5.3-5.3-2.1-2.3-2.1-2.5-.4-4.6l1.8-2.2 4.6 6.2c6.2 8.3 14.2 16.7 15.9 16.7 4 0 10.4-8.7 13.4-18.2 1-3.2 1.9-5.6 2.1-5.5.2.2-.6 4.8-1.8 10.3m-30.6 6.5c2 3.1 3.7 17.7 2.4 21.1-.8 2.2-.9 2.2-2.1.5-.8-.9-1.6-3.5-2-5.7-.7-4.3-8.4-15.2-12.6-17.9-1.9-1.2-1.5-.4 1.7 3.4 2.2 2.7 4.9 6.8 5.8 9 2.3 5.3 4.6 13.8 3.9 14.4-1.2 1.2-3.9-1.8-5.3-6-2-5.6-8.7-18.6-10.1-19.4-.5-.3 1.4-2.5 4.3-4.9l5.2-4.3 3.6 3.6c2 2 4.3 4.8 5.2 6.2m-12.4 14.2c1.7 5 2.9 9.2 2.7 9.4-1.2 1.2-3.7-1.6-5.4-6-1.1-2.9-3.1-7.9-4.5-11.2-1.4-3.2-2.3-6.4-2-6.9 1.3-2 6.2 6 9.2 14.7m31.3-124.1c.6 1.8 2.8 2.1 2.8.4 0-.9-.7-1.6-1.6-1.6s-1.4.5-1.2 1.2m-5.6 2.7c-.4.7-.5 1.5-.2 1.8.9.9 1.9-.4 1.4-1.8-.4-1.1-.6-1.1-1.2 0"/>
        <path d="M455.4 71c-5.9 2.9-7 5.6-6.6 16.4.3 8.9.2 9.3-3.3 15.1-2 3.3-4.3 6.7-5.3 7.5-.9.8-2.4 2.4-3.2 3.4-1.4 1.8-1.4 1.9.5.9 9.4-5.1 15.1-13.5 16.1-23.8.3-3.9 1.5-8.9 2.6-11.2 1.6-3.5 2.6-4.4 5.5-4.9 2.1-.4 4.5-.1 6.1.6l2.7 1.3-3.5.7c-4.6.8-7.7 2.6-9 5-1.4 2.7 1 2.7 3.4.1 2.2-2.4 7.2-3.7 8.9-2.3.7.6 1.2 2.7 1.1 4.6-.1 4.3-3.4 8.2-7.8 9.5-2.8.8-2.5.9 2.5 1 5.8.1 8-1.2 10.8-6.6 2.5-4.9-.2-12-4.1-10.7-1.4.4-1.8.2-1.4-.5 1.2-1.9-1.2-4.8-5.4-6.5-5.1-2-5.7-2-10.6.4"/>
        <path d="M457.5 91.5c-.3.8-.7 2.2-1 3.1-.3.8-.1 1.3.4 1s1.1-1.7 1.3-3.1c.6-2.7 0-3.4-.7-1m-125 2.5c-14.8 2.3-26.9 11.2-36.5 27-4.2 6.9-9 12.5-15.5 17.9l-4 3.3 4.4-2.3c2.5-1.3 5.9-3.9 7.6-5.6 2.8-2.9 8.9-6.3 11.3-6.3.4 0 .6 1.6.4 3.5s-.2 3.5.2 3.5c.8 0 5.6-9.6 5.6-11.1 0-2.7 6.8-10.9 12.3-14.9 3.1-2.3 5.7-4.6 5.7-5.1s.5-.9 1-.9c.6 0 .3 1.1-.6 2.5-.8 1.3-1.3 2.8-1 3.3s-1 3.9-2.8 7.6c-4.8 9.6-8.2 20.4-6.8 21.8.9.9 1.8-.3 3.7-4.6 1.4-3.1 2.5-6.1 2.5-6.6 0-2.5 7.6-16.3 10.8-19.4 4.3-4.4 10.7-7.6 15-7.6 3.5 0 4.1-1 1.7-3-1.1-.9-3.1-1-8-.3-3.6.5-6.5.6-6.5.1 0-.4 1.5-.8 3.3-.9 3.5 0 8.5-1.7 5.5-1.8-.9-.1-2.2-.3-3-.5-.7-.2-3.5 0-6.3.4m103.7 10.5c-2.9 2.3-9.7 6.7-15.1 9.8l-9.8 5.7-6.4-3c-3.5-1.6-8-3-10-3s-6.2-.9-9.5-2c-6.7-2.2-8.4-2.4-8.4-1 0 .5 1.7 1.4 3.8 2 2 .6 5.5 2.2 7.7 3.5 5.7 3.4 11.3 6 16.9 7.9 4 1.3 4.7 1.3 4.3.2-.3-.8.1-1.7.9-2 1-.4 1.4.2 1.4 1.9 0 1.4.4 2.5.8 2.5 2.3 0 17.5-10.6 22-15.4 4.4-4.7 8-10.3 7-11.1-.2-.1-2.7 1.7-5.6 4m-74-1c-2.2 1.2-2.2 1.2-.2 3 2.8 2.6 12.1 4.9 13.2 3.3.9-1.5-2.6-3.7-5.9-3.8-1.2 0-2.8-.8-3.5-1.8-1.1-1.5-1.7-1.6-3.6-.7"/>
        <path d="M339 108.7c-4.8 3.7-5 4.1-5 9.7 0 3.2-.6 5.6-1.7 6.8-2.1 2.3-1.1 3.3 1.6 1.6 2.8-1.7 3.1-2.9 1.9-7.9-1.1-4.2-1.1-4.3 2.8-7.6 2.1-1.8 4.2-3.3 4.5-3.3.4 0 1 1.2 1.4 2.7.8 3.4 2.3 5.3 4.1 5.3 1.3 0 9.4-7.4 9.4-8.5 0-1.6-3.6-.1-6 2.5-3.6 3.8-4.4 3.8-5.5-.2-1.3-4.2-3.1-4.5-7.5-1.1m108.7-.9c-.3.4-1.2 3-2.1 5.8-1.4 4.2-3.4 6.8-11.4 14.6-18 17.7-31.3 28.8-34.3 28.8-1.3 0-4.3-1.7-6.6-3.8-3.4-3-5-5.5-7.7-12.7-1.8-5-3-9.1-2.6-9.3s3.1 1.1 6.1 2.8c8.7 5.2 23.3 5.7 31.7 1.1 3.6-1.9 2.3-2.2-4.9-1-9.8 1.6-18.9.6-26.5-3.1-6.4-3.2-9.4-3.4-9.4-.6 0 3.2 4.4 15.5 7.3 20.4 2.2 3.7 4.4 6 7.1 7.3 4.4 2.1 8.1 2.5 9.1.9.4-.6 2.3-1.9 4.3-2.9 2.1-1.1 4.8-3 6.2-4.3s4.7-4.1 7.4-6.2c2.6-2.2 9.9-9 16.2-15.1 10.9-10.8 11.4-11.1 13-9.4 1 1.1 2.4 1.9 3.3 1.9 1.4 0 1.4.2.1 1-.8.5-2.9.9-4.7.8-2.5-.1-3.8.6-6 3.3-1.5 1.9-5.6 6.3-9.1 9.8-9.8 9.9-6.8 8.1 4.1-2.4 8.6-8.3 10-9.3 11.7-8.3 4.9 3.1 15-10.5 10.3-14-5.1-3.9-6.7-3.6-3.7.7 1.5 2.1 1.5 2.4.1 3.8-1.3 1.4-2 1.4-4.6.3-3.5-1.4-3.4-1.1-2.2-6.2.7-2.8.5-3.8-.5-4.2-.7-.3-1.5-.2-1.7.2m13.3 1.1c0 .6.5 1.3 1 1.6.6.3 1-.1 1-.9 0-.9-.4-1.6-1-1.6-.5 0-1 .4-1 .9m-93.8 5.3c-2.2 2.2-1.4 5.8 1.5 6.9 3.6 1.3 5.6.8 6.8-1.9.8-1.9 1.5-2.1 4.5-1.6l3.5.5-2.4-2.1c-1.8-1.5-3.2-1.9-5.6-1.4-1.9.3-3.5.1-3.9-.5-.9-1.4-2.9-1.4-4.4.1m3.4 4.6c-2.2.5-3-.3-2.1-1.8.5-.8 1.1-.7 2.2.2 1.5 1.2 1.4 1.3-.1 1.6m83.4 12.9c-1.9.9-3 1.8-2.4 2 1.6.5 6.4-1.5 6.4-2.7 0-.5-.1-1-.2-.9-.2 0-1.9.8-3.8 1.6m-163 4.4c-4.1 2.8-9.1 6.4-11 7.9-2 1.6-5 3.4-6.9 4.2-3.1 1.2-2.8 1.3 5.1 1 7.6-.2 11-.8 19.2-3.3 1.6-.5 4-.9 5.3-.9 4.6 0 1.7-2.5-3.7-3.2-3.9-.4-6.2-.2-8.6 1-1.9.8-3.7 1.2-4.1.9-.8-.9 2.1-3.3 6.2-5.2 1.7-.7 3.8-2.7 4.8-4.4s1.7-3.1 1.5-3.1c-.2.1-3.7 2.4-7.8 5.1"/>
        <path d="M328 138.2c-5.8 2.2-14.3 5.1-18.9 6.5-8.5 2.4-12.2 4-19.4 8.1-2.1 1.2-5.7 2.6-8.1 3.2-4 .9-31.6 3.1-41.3 3.2-4.6.1-5.2.8-2.7 2.9 2.9 2.4 9.5 17.7 10.9 25.3 1.3 6.6 1.3 13 0 26.2-.3 3.1.1 7.1 1 10.2 1.6 5.2 1.6 5.2 5.8 5.2 2.3 0 7.1.5 10.7 1 3.6.6 10.7 1.4 15.9 2l9.4 1 13.1-4.4c20.4-6.9 19.7-6.4 27-16.8 7.1-10.1 7.3-10.4 11.1-13.3 1.7-1.4 2.5-3 2.5-5.1 0-8.3 3.7-20.7 8.7-29.4.8-1.4 2-3.9 2.8-5.5.7-1.7 2.3-3.9 3.4-4.9 1.5-1.4 2.1-3.1 2.1-6 0-4.8-.1-5-6.2-9.9-4.3-3.4-5.1-3.7-11-3.6-4.8.1-8.9 1.1-16.8 4.1m-78.4 30.7c1.3 2.9 2.4 5.9 2.4 6.7 0 2.1 2.2 2.8 3.2 1.1.5-.9 2.9-3 5.3-4.7 2.4-1.6 4.6-3.9 5-4.9.4-1.4 2.8-2.4 10.3-4.1 5.3-1.2 10.3-2.5 11-2.7.6-.3 1.2-.1 1.2.5 0 .9-3.1 1.9-16.7 5.2-2.5.6-4.3 1.7-4.3 2.5 0 1.9-12.6 11.7-14.5 11.3-1-.2-2.6-3.3-4.2-7.8-1.4-4.1-2.9-7.9-3.4-8.5-.5-.5-.9-1.6-.9-2.5.1-2.3 2.7 1.4 5.6 7.9m30.4 25.7c0 1.6-1.6 1.9-2.5.4-.8-1.3.4-3.2 1.6-2.5.5.4.9 1.3.9 2.1m-1.3 11.9c1.8 1.6 2.3 2.4 1.3 2.5-3.4 0-6-1.3-6-3.1 0-2.6 1.3-2.4 4.7.6m14.3 5.6c1 1.8.9 2-.7 1.7-1-.2-1.9-1.1-2.1-2.1-.5-2.4 1.5-2.1 2.8.4m-12.5 5.9c.3.5.2 1-.4 1-.5 0-1.3-.5-1.6-1-.3-.6-.2-1 .4-1 .5 0 1.3.4 1.6 1m18 6.1c1 1.5-.1 2.3-2 1.5-.9-.3-1.3-1-1-1.6.8-1.3 2.2-1.3 3 .1m68.5-79.8c0 .6 1.2 2.3 2.7 3.9 2.6 2.7 2.6 2.9 1.4 8.5-1.6 7.4-1.6 10-.1 11.8 1.6 1.9 5 1.9 5 0 0-.8.4-1.5.9-1.5s1.4-1.4 2-3c.9-2.7.7-3.3-1.4-5.2-1.7-1.5-2.5-3.2-2.5-5.5 0-1.9-.4-4.3-1-5.3-1.2-2.3-7-5.4-7-3.7m10 17.6c-.1.8-3.7 5.1-4.3 5.1-1.3 0-1.4-3-.1-4.8 1.3-1.9 4.5-2.1 4.4-.3m42.8-11c-3.6 3.1-8.2 6.7-10.2 8.1-6.6 4.5-8.7 6.2-8.2 6.7 1.2 1.2 14.2-8.2 22.1-16.1 2-2.1 3.9-3.5 4.2-3.2.6.6-6.3 7.3-8.9 8.7-1 .5-1.8 1.4-1.8 2 0 1.4 9.3-5.1 12.4-8.8l2.7-3.2-2.8.1c-1.9.1-5 2-9.5 5.7m39.9.3c-1.2 2.9-1.4 4.5-.7 5.2 1.6 1.6 3-1.1 3-5.7 0-2-.2-3.7-.3-3.7-.2 0-1.1 1.9-2 4.2"/>
        <path d="M364 149.5c0 1.1-1.2 3.8-2.7 6s-3.5 5.3-4.3 7c-.9 1.6-2.1 3.9-2.7 5-4.1 7.4-5.8 13.5-6.3 23.5-.6 10.4-.7 10.6-5.1 17.2-2.4 3.6-5.7 8.8-7.2 11.5-1.6 2.6-3.2 5.3-3.5 5.9-.9 1.4-22.8 11.6-32.2 14.9-4.1 1.5-7.9 3.1-8.4 3.6-2 1.8-22.8.3-33.4-2.5l-5.4-1.3-1 2.6c-.6 1.4-2.1 4.7-3.4 7.2-2.4 4.7-3.1 7.9-1.6 7.9 2 0 7.3 14.8 7.1 20-.1 1.8-.5 1.2-1.4-2-2.5-9-5.5-16.4-7-17.2-1.6-1-1.4-1.9 2.7-10.6 3.3-6.9 3.1-9.2-.7-9.2-4 0-6.2 1.6-7.5 5.5-1.7 5.1-.5 10.4 5.2 23.3 5.3 12.2 7.1 20.8 4.8 23.9-.7 1 .5 0 2.5-2.2 4.3-4.6 3.1-1.4-1.8 4.7-3.8 4.8-3.2 6.5 2.1 6 3.1-.3 5.1-1.4 8.4-4.6 4.8-4.6 10.2-7 19.3-8.7 3.3-.6 10.6-3.4 16.3-6.2 9.9-4.9 10.5-5 13-3.6 3.1 1.7 3.9 4.3 2.1 6.6-1.3 1.5-16.4 9.3-18.1 9.3-1.8 0-20.7 8.4-22.9 10.2l-2.4 1.9 2.5-.6c3.5-1 34.2-13 42-16.5 6.5-3 6.5-3 8-.9 1.5 2 1.6 1.9 3.6-.8 3.8-5.2 3.8-5.4.7-4.8-1.5.4-4 1.1-5.5 1.7-1.5.5-3.2.7-3.9.2-1.6-.9 6.5-4.3 10.7-4.3l3.1-.1 1.2-11.4c2.1-20.6 2.6-22.2 9.8-29.4 6.1-6.2 6.3-6.7 8.4-15.3 1.1-4.9 2.4-8.7 2.8-8.5.4.3 1.3 3.6 2 7.3 1.1 6.2 1 8-1.2 19.3-1.4 6.9-2.8 14.5-3.1 17-.6 4.3-2.5 7.5-14.3 24.1-2.9 4.2-3.2 5.4-4.2 16.9-.6 6.9-1.4 15-1.8 18l-.6 5.5 3-3.3c3.8-3.9 4.7-4 7.9-.5 1.4 1.6 2.8 2.3 3.2 1.7.4-.5 2-2.9 3.6-5.3 1.5-2.4 6-7.5 9.8-11.3 7.8-7.7 10.3-12.4 11.3-21.5.7-6.3 4.2-19.2 4.4-16.1.1.9-.4 2.9-1 4.5-.6 1.5-1.5 7-2 12.2-1.1 11.4-2.5 14.3-11.2 23.5-3.6 3.8-9.1 10.6-12.2 15.2-6.1 9-8.5 10.3-12 6.4-1.7-1.9-1.8-1.9-3.5.3-1.3 1.6-2.2 5.7-3 14.2-.8 8.3-2 13.8-3.6 17.6-1.3 3.1-2.4 6-2.4 6.3 0 .4-1.1 3.1-2.3 5.9-1.3 2.9-3.6 8.3-5.2 12.2-1.5 3.8-3.6 9-4.7 11.4s-2.8 6.6-3.9 9.4-5.7 10.2-10.2 16.4c-4.5 6.3-9.2 13-10.5 15l-2.3 3.5 6.1-4.9c3.3-2.6 8.7-7.1 11.9-9.8 3.2-2.8 7.2-6.1 8.7-7.4 10.2-8.3 27.5-24.8 30.9-29.2 2.2-2.9 5-6.4 6.2-7.8 3.6-4.2 13.6-16.7 16.6-20.7 2-2.7 2.7-4.9 2.7-8.1 0-2.4.7-9 1.5-14.6 2-14 3.5-26.5 4.5-37.2.5-5 1.4-11.4 2-14.4.5-2.9 1-7 1-9.1 0-2 .8-6.3 1.8-9.6 1.1-3.2 2.9-9.5 4.2-13.9 1.2-4.4 3.3-11.4 4.5-15.5s3.5-11.8 5-17 3.7-12.3 4.8-15.7l2.1-6.2-5.5-11.1c-3.9-7.9-5.8-10.9-6.9-10.6-.8.2-3 1-4.8 1.8-2.9 1.1-3.7 1.1-6.4-.5-1.7-1-3.2-1.6-3.4-1.5-.1.2-.9 2.6-1.6 5.3-.7 2.8-2.2 5.7-3.3 6.6s-4.2 6-6.9 11.3-5 9.5-5.2 9.3.5-3.2 1.6-6.8c2.5-8 2.5-9.4-.1-4.9l-2 3.5.6-4.5c.4-2.5 1-5.6 1.5-7s1.1-3.7 1.4-5.2c.4-1.5 1.5-3 2.7-3.3 2.5-.8 5.4-7 8.5-18.4l2.3-8.3-2.4-3.6c-2-2.9-2.5-3.2-2.5-1.7m-4.9 73.7c1 2 1.9 5.4 1.9 7.5 0 5.6-2.7 15.9-6 23.3-1.6 3.6-4.1 9.6-5.5 13.5-4.3 11.3-8.5 20.7-10.6 23.3-1.2 1.6-1.9 4-1.9 6.8 0 2.5-.6 4.9-1.6 5.8-2 2.1-2.8 2-1.9-.2.4-.9 1.3-4.1 2.1-7s2.5-7 3.9-9 2.5-4.4 2.5-5.2c0-.9.6-2.4 1.3-3.5.8-1.1 2.8-5.8 4.6-10.5s4.5-11.7 6.1-15.5c4.4-11 6-18.4 5.1-23.2-.5-2.4-1.3-4.8-1.9-5.5-.5-.7-1.3-3.1-1.6-5.3-.6-3.5-.5-3.7.5-1.5.6 1.4 1.9 4.2 3 6.2m19 22.3c-2.9 10.8-5.9 19.3-6 16.6-.1-2.2 3.9-16.7 6-22 1.8-4.5 1.8-1.5 0 5.4m-13.1 79c0 .9-.7 1.8-1.6 2.2-1.8.7-3.9-1.1-3-2.6 1.1-1.7 4.6-1.3 4.6.4m-98.5-172.4c-7.7.3-20 1-27.3 1.4l-13.2.8-2.6 4.6c-2.4 4.3-2.4 4.6-.7 5.9 1.2.9 3.1 1.1 5.6.8l3.8-.6 3.2 6.7 3.2 6.8v28.2c0 15.5.3 28.4.7 28.8 1 1.1 2.8-6.5 2.8-12.1 0-2.8.7-11.8 1.6-20 1.8-16.8 1.6-18.8-2.5-29.6-3.1-8.4-7.5-14.6-10.3-14.7-2-.1-2.5-2.1-.5-2.1 21.1.3 50.1-2.1 54.7-4.6 2.9-1.5 4.7-1.5-18.5-.3m-48.3 4.4c-1.3.7-3.5 2.4-5 3.8-1.5 1.3-3.7 3-4.9 3.6-3.2 1.6-2.8 3.1.8 3.1 4.4 0 6.3-1.4 9.8-7 3.2-5.2 3.1-5.6-.7-3.5m237 1.4c1.1 1.8 1 2.5-.4 4.8-1.4 2.2-2.4 2.7-4.8 2.5-3.3-.2-4.3 2.1-1.2 3.2.9.3 2.2.9 2.9 1.2 1.6.7 5.6-7.7 5.1-10.7-.2-1.2-.9-2.4-1.6-2.7-1.1-.3-1.1-.1 0 1.7m-271.1 3.9c-1.9.7-7.1 1.5-11.5 1.7-4.5.2-10.3.8-13 1.5-2.7.6-9.4 1.5-14.8 2-7.6.7-10.7 1.5-13.1 3.2-2.7 2-4.5 2.2-16.6 2.5-7.5.2-17.5.3-22.4.3-8.7-.2-8.8-.1-17 4.5-18.3 10.5-17.9 10.2-23.2 22.7-2.6 6.2-5.5 12.9-6.5 14.8-4.1 8-9 20.1-9 22.1 0 1.2.5 3.9 1.1 5.9 1.1 3.6.9 4.2-4 12.5-2.8 4.8-5.1 9.4-5.1 10.3 0 1 .9 4.2 1.9 7.2 1.7 5.2 2 5.5 5.7 6.1 2.1.3 6 1.5 8.6 2.7s5.1 2.2 5.5 2.2c2.1 0 24 9.3 25.8 10.9 1.1 1 6.1 4 11 6.6 9.8 5.1 17.6 10.4 21.5 14.5 1.4 1.5 6.2 5.9 10.7 9.9l8.2 7.2 2.8-1.8c1.5-1 3.7-2.4 4.8-2.9 2.6-1.4 3.1-5.8 1-9-2.2-3.4-4-3-1.9.5 1.9 3.3 1.3 6.1-1.4 6.1-1 0-2.7.6-3.7 1.4-1.7 1.2-3 .3-14.9-10.6-7.2-6.6-13.2-12.4-13.4-12.8-.8-2.1 6.8-2.1 14.8.1 8.4 2.3 8.8 2.5 20.1 13.5l3.7 3.5 6.7-3c3.7-1.7 7.1-3.1 7.6-3.1.4 0 .9 2.1 1.1 4.7l.4 4.8 1.3-4.7c1.5-5.4 3.8-8 5.1-5.8 1.1 1.8.4 13.8-.9 15.4-.8 1-2.4 1.2-5.1.9-4.1-.6-5.5.9-2.2 2.2 5.7 2.3 7.1 2.3 8.5.2 2-3.2 5.8-13.9 11.3-32.4l4.9-16.3 6.1-3.1c9.7-5 10.4-5.8 11.9-13 3.1-14.8 3.6-22.5 1.8-30.1-1.4-5.8-2.2-7.2-4.3-8.1-2.3-1-8.4-6.9-17.2-16.7-3.2-3.6-4-4-6.5-3.4-8.1 2.1-9.1-.1-2.8-6.3 4.6-4.7 4.6-4.7 3.9-10-.7-6-1.4-6.3-7.3-3.2-3 1.5-4.3 3-5 5.5-.5 1.8-1.9 4.7-3 6.3-1.2 1.6-2.1 3.4-2.1 4s-1.3 1.9-2.9 2.9c-4 2.4-3.7 3.5 1.7 5.3 6.6 2.2 10.5 8.7 12.6 21.2 3.4 20.6 2.9 33.2-2.4 58.2-1 4.9-2.2 10.5-2.5 12.3-.7 3.5-1.7 4.1-14.4 9.1l-5.4 2.1-3.1-2.4c-1.7-1.3-5.1-4.4-7.6-6.9-4.6-4.5-6.7-5.4-18-7.7-4.4-.8-6.5-.7-10.3.4-2.6.8-4.7 1.1-4.7.7 0-.3 2.4-2.5 5.3-4.8l5.3-4.1 2.8-13.6c3.1-14.9 3-15.5-2.2-25-3.6-6.7-5.6-7.2-5-1.5.2 2.6-.3 6.9-1.3 10.3l-1.8 5.8 3.2 7c2.7 5.8 3.2 7.9 2.7 11.6-.4 4.1-1 4.9-5.4 8-4.1 2.8-5.3 3.3-6.8 2.3-1-.6-2.5-1.1-3.3-1.1-2.8 0-1.5-3.4 2.8-7.1l4.2-3.7v-10.8c0-6.7.5-11.7 1.3-13.1 2.7-4.8.7-17.3-2.8-17.3-1 0-3.3 2-5.1 4.4-2.6 3.4-5.2 5.3-11.6 8.2-4.5 2-9.2 4.8-10.4 6.1-1.3 1.2-2.7 2.3-3.3 2.3s-2.7 1.7-4.8 3.7c-4.1 4-2.8 4.1-15-.2-4.7-1.7-6.9-4.8-4.3-6.3.7-.4 2.7-3.6 4.4-7.1 3.2-6.2 3.2-6.4 1.7-10.2-3.2-7.9-2-11.5 11.5-35.5 9.6-17.1 11-19 18.9-24.3l6-4.1h10c5.6 0 13.3-.7 17.6-1.7 6-1.3 8-1.4 9.5-.5 2.8 1.8 7.5 1.5 11.7-.7 2-1.1 6.6-2.6 10.2-3.4 3.6-.9 8.3-2.2 10.5-3s9.1-2 15.3-2.6c7.1-.7 13-1.8 15.9-3.1 3.7-1.6 5.2-1.8 8.2-1 7.4 2 11.4.4 4.9-2-6.3-2.3-10.2-2.7-13.7-1.2m-23.4 46.1c-1.1 3.1-1 3.3 3.1 7.2 3.1 3 4.2 4.8 4.2 7 0 2.1-.4 2.8-1.2 2.3s-.9-.2-.4 1.2c3.8 9.5 6.1 30.6 4.7 42.7-.6 4.5-1.3 12.9-1.6 18.7-.8 15.7-1.5 19.7-3.7 22.5-2.8 3.6-4.3 2-1.6-1.8 2-2.8 2.4-4.9 2.9-16.2.4-7.1 1.2-17.1 1.9-22 1.3-10.4.7-22.9-2-35.8-1-4.9-1.6-9.6-1.3-10.6.3-1.1-1.2-3.5-4.1-6.6-2.5-2.6-4.6-5.2-4.6-5.8 0-1.2 4.1-6.9 4.6-6.4.2.2-.2 1.8-.9 3.6m-66.3 44.7c1.2 3.1.6 11.9-.9 14.1-.8 1.2-4.9 4-9 6.3-4.3 2.4-9.3 6.2-11.9 9.1l-4.6 5.1-3.7-1.5c-3.5-1.3-3.9-1.9-4.5-6.3-.6-4.2-.4-5.2 1.5-7.2 2.9-3.1 11.7-8 15.7-8.9 2.1-.4 5.5-2.8 9.4-6.4 3.3-3.2 6.4-5.8 6.7-5.9.4 0 1 .7 1.3 1.6M110 266c0 1.9-.6 5.7-1.4 8.5l-1.3 5-2.1-3.5c-2.7-4.4-2.8-8.2-.2-10.5 1.1-1 2.2-2.7 2.6-3.8.9-2.8 2.4-.2 2.4 4.3m-15 11.3c-.1 6-1.6 9.3-5.1 11-1.3.7-2.5 2.3-2.7 3.6-.3 1.6-.8 2.1-2 1.7-8.8-2.8-12.7-4.7-13-6.1-.5-2.1 5-7.1 11.7-10.5 3.1-1.6 6.5-3.5 7.6-4.3 2.8-2.2 3.5-1.3 3.5 4.6"/>
        <path d="M381 165.9c-.5 1.1-1 3.5-1 5.4 0 5-2.7 5.7-6.2 1.8-2.7-3-4.8-4-4.8-2.3 0 .4 1.3 2.3 2.8 4.1 5 6.1 11.2 3.8 11.2-4 0-2.1.3-4.4.6-5.3.9-2.3-1.3-2-2.6.3m-163.5.3c-.8 2-.1 3.4 2.6 4.8 2.5 1.4 2.5-.6-.1-4-1.6-2.2-2-2.3-2.5-.8m-31.3 1.5c-4.3.9-1.6 2.8 4.9 3.5 3.5.4 9.3 1.4 12.9 2.2 5.8 1.3 6.1 1.4 2.5 1.5-2.2 0-6.9-.6-10.5-1.4-3.6-.7-6.6-1.2-6.7-1.1-.2.1 1.8 2.2 4.2 4.5 2.5 2.4 4.5 4.7 4.5 5.2s2.5.9 5.5.9c7.1 0 7.8 1.2 6.5 11.7-.5 4.3-1.2 14.2-1.6 22.1-.5 11.8-.3 15.8 1.2 22.9 1.5 7.5 1.6 9.7.6 18.2-.7 5.3-1.2 11.7-1.2 14.3 0 5-.7 6.1-6.4 10.5-1.7 1.4-3.7 4.7-5.2 8.5-1.2 3.5-3.2 8.5-4.3 11.3-1 2.7-2.5 6.6-3.2 8.5s-1.9 5-2.6 6.8c-.8 1.8-2.3 5.6-3.3 8.5-3.4 9.6-6.8 16.3-9.2 17.9-3.8 2.5-17.3 14.3-20.6 17.9-1.9 2.2-4 3.4-5.8 3.5-2.7.1-2.9.3-2.6 4l.3 3.9-2.3-2.7c-4.4-5.2-15.6-11.5-18.4-10.4-1.4.5-1 2.4 1.5 8.1.5 1.1 2.1 4.5 3.4 7.7 2.2 4.8 3.1 5.9 7 7.6 2.5 1.1 6.5 3.8 8.9 6 3.9 3.6 5.3 4.2 12.8 5.5 4.7.8 8.7 1.3 8.8 1.1.2-.1-.1-2.4-.6-5-.6-2.6-.7-5.7-.2-6.9.9-2.5 12-7.8 14.3-7 1.8.7 7.4-3.8 8.3-6.8 1.5-5.1 8.4-18.4 10.7-20.7 1.3-1.4 5.5-4.8 9.3-7.5 6.5-4.7 9.4-7.5 16.3-15.5 2.7-3.2 3-3.3 2.4-1l-.6 2.5 2.9-2.7c1.6-1.4 4.4-4 6.2-5.7l3.3-3-3.1-4.3c-3.4-4.6-3.4-4.2-.9-17 1.2-6.5 1.2-6.8-1.3-12-2.9-5.7-7.1-18.1-8.2-23.8-.4-1.9-1.2-4.7-1.7-6.1-.8-2-.5-4 1.1-8.8 2.6-7.4 2.1-11.9-1.7-17-2.6-3.4-2.6-3.4-1.3-11.4 2.7-16.5 1.4-28.9-4.4-41.9l-2.4-5.5-10.4-.7c-5.7-.3-11.9-.8-13.8-1s-4.5-.2-5.8.1m36.8 69.8c0 3.6-.6 5.7-2.1 7.5l-2.1 2.5.6-4.7c.4-3.4 0-5.8-1.4-9-1.1-2.4-1.9-5.4-1.9-6.8 0-2.4.1-2.3 3.4 1.5 3 3.4 3.5 4.7 3.5 9m-8.2-4.3c2.4 2.4.4 8.8-2.8 8.8-.9 0-.8-.6.5-2 2.1-2.3 1.3-5-1.5-5-2 0-2.6-1.1-1.3-2.3 1-1.1 3.8-.8 5.1.5m2.3 31.5c.5 2.4 2.2 7.4 3.9 11.2 3.9 9 3.8 12.3-.2 4.6-3-5.9-6.8-18-6.8-22 .1-2 .1-2 1.2 0 .6 1 1.5 3.9 1.9 6.2m-3 15c-.5 1-2.8 3.7-5 6-2.3 2.3-4.1 4.8-4.1 5.6 0 .7-2.2 5.8-5 11.2-2.7 5.4-5 10.4-5 11 0 1.4-5.9 15.3-9.5 22.4-1.5 2.9-2.8 5.9-2.9 6.7-.3 1.9-8.7 10.4-10.2 10.4-.6 0-1.7.7-2.4 1.5-1 1.2-.9 1.5.5 1.5 2.6 0 8-3.5 17-11.2 8.6-7.2 11.7-10.6 24.9-26.8 4.7-5.8 9.7-12 11.1-13.8 1.5-1.7 3-3.2 3.3-3.2.4 0 .8 3.3.8 7.3.1 4.6-.1 6.5-.6 5.2-.5-1.1-.9-3.6-1-5.5l-.1-3.5-1.9 2.5c-14.3 18.1-26.1 31.5-31.7 36.3-2.1 1.7-5 4.2-6.3 5.5-4 3.7-12.7 9.2-14.7 9.2-1.1 0-3.1 2.2-5.2 5.6-1.8 3-4 5.8-4.9 6.2-.9.3-3.2 2.1-5 4-2.8 2.7-3.3 3.9-2.8 6 .4 1.5.9 4.5 1.2 6.7.6 3.9.6 3.9-1 1.8-.9-1.2-1.9-4.8-2.2-8.1l-.7-5.9 4.7-3.3c5.6-4.1 12.7-14 9.9-14-.3 0-2.3 1.9-4.5 4.2-2.1 2.3-4.1 3.9-4.4 3.5-1.1-1 7.6-10.7 9.6-10.7 2.8 0 5-1.1 5-2.4 0-.7 1.2-1.9 2.6-2.7 4.4-2.3 9-9.4 12.9-19.7 6.2-16.3 7.5-19.3 13.2-31.2 5.3-11.1 11.4-19.7 14.1-19.9.9-.1 1 .4.3 1.6m11.8 11.1c1.2 4.4-.1 10.5-2.7 12.4-.9.7-6.2 6.2-11.6 12.3-11.1 12.3-26.6 27.4-28.1 27.5-.5 0 4.3-5.1 10.7-11.3 6.4-6.1 12.3-12.6 13-14.3 1.6-3.8 6-8.9 11.7-13.3 5.4-4.3 7.4-8.6 6.1-13.2-1.1-3.9-1.1-3.9-.5-3.9.2 0 .9 1.7 1.4 3.8m-2.8 36.6c-3.4 3.3-7.3 7.3-8.7 8.8-1.5 1.6-3 2.8-3.4 2.8-.3 0 3.3-4.2 8.1-9.3 5.8-6 8.9-10.1 9-11.7.2-2.3.2-2.3.6.4.4 2.4-.5 3.8-5.6 9M206 341.1c-1.9 1.2-5.5 4-8 6.2-3.5 3.3-3.8 3.5-1.5.8 3.4-3.9 10.3-9.1 11.9-9.1.6 0-.5.9-2.4 2.1m-13.9 15.3c-1.2 1.9-3.6 6.2-5.3 9.5-1.7 3.4-3.3 5.9-3.5 5.7-.5-.4 6-13.5 8.5-17.4 2.4-3.6 2.7-1.7.3 2.2"/>
        <path d="M168 172.1c-20.4 4.1-29.6 6.6-35.3 9.6-4.9 2.6-10 3.2-11.4 1.4-1-1.4-1.8-1.4-7-.2-3.2.7-11 1.5-17.3 1.7-11.4.4-11.5.4-17.4 4.4-6.5 4.4-6.8 4.7-11.6 13.5-1.9 3.3-4.9 8.7-6.7 12-10.2 18.3-12.1 25-8.3 29.4 1.8 2.1 3.1 2.4 9.5 2.7 4.1.2 7.5.2 7.5 0 0-.3-3.2-1.2-7.2-2.1-3.9-.9-7.7-2.4-8.4-3.3-1.7-2.2-1.8-5.2-.1-5.3.6-.1 1.8-.2 2.6-.3 1.2-.1 3.9-4.3 11.5-18.6 7.1-13.2 7.9-15.1 6.8-16.2-.6-.6-.8-1.7-.5-2.4.7-1.8 13.6-10.4 15.7-10.4 2.6 0 9.6 4.1 9.6 5.6 0 1.7 2.4 2.9 4 1.9 1.3-.8-1.6-4.5-3.5-4.5-.7 0-1.5-.6-1.8-1.4-.4-1 1.1-1.5 6.6-2 4-.3 8.9-.9 11-1.2 2-.3 3.7-.2 3.7.3 0 2-5.3 6.3-9 7.3-2.2.6-4 1.7-4 2.4 0 1.5 8.3 4.2 9.9 3.2.6-.4 1.9-2.6 2.9-4.9 1.1-2.3 2.8-5 3.8-5.9 1.8-1.6 1.9-1.5 1.9 4.2 0 8.4 1.3 9.5 11.8 9.5 10.8-.1 13.4-1.5 17.1-9.4 3.4-6.9 4.5-7.6 19.6-11.1 11.5-2.7 14.3-3.7 13.5-5-.4-.6-1.3-.7-2.3-.1-.9.5-6 1.9-11.2 3.1-17.2 3.9-18.4 4.6-22.2 13.5-.7 1.6-2.9 4-4.8 5.3-3.1 2.1-4.3 2.3-10.4 1.9-7.7-.5-8.6-1.2-8.6-7.3 0-4.9 1.3-6.5 6.5-8.6 2.2-.9 8-3.3 12.9-5.3 5.9-2.5 12.7-4.4 20.5-5.6 12.2-2 18.3-3.8 12.6-3.7-1.6 0-7.3.9-12.5 1.9"/>
        <path d="M184 182.6c-2.5.7-5.5 1.4-6.7 1.4s-2.4.4-2.7.9c-1 1.6 2.1 11 4.9 14.7l2.8 3.7 1.4-2.9c.8-1.6 3.9-5.2 6.9-8l5.5-5.1-2.9-3.1c-3.4-3.6-3.1-3.6-9.2-1.6m8.3 11.2c-4.5 4.1-6.4 6.6-6.8 8.9-.4 2.8 0 3.6 4.7 7.6 5.8 4.8 9.2 6.4 10.3 4.7 1.5-2.5.3-27-1.4-27-.3 0-3.4 2.6-6.8 5.8m-102.8 2.9c-.3 2.7-1.9 7-3.4 9.8-2.1 3.7-3 7.1-3.5 12.8-.7 7.6-1.3 9.5-6.2 20.5-2.2 4.8-3 8.2-2 8.2 2.1 0 5.6-2.3 5.6-3.6s.6-1.5 3-1c3.7.7 5.1-.6 10.5-10.3 3.6-6.5 4.6-7.5 10.3-10.3 7.3-3.6 8.2-5.4 1.6-3.1-5.3 1.8-12.6 8.7-16.6 15.6-2.9 5.1-3.4 5.3-6.1 3.3-1.6-1.3-1.5-1.8 1.9-9 2.6-5.4 3.9-9.9 4.5-14.9.4-4 1.5-9.2 2.4-11.7 1.6-4.4 1.4-11-.4-11-.5 0-1.2 2.1-1.6 4.7"/>
        <path d="M95.5 198.9c-.7 1.2 1.2 2.4 2.5 1.6 1.1-.7.4-2.5-1-2.5-.5 0-1.1.4-1.5.9m12.5 3.5c0 .7.7 1.9 1.6 2.7.9.7 2.9 3.9 4.5 7.1s3.6 5.8 4.4 5.8c1.7 0 1-2.3-1.7-5.9-1-1.3-1.8-2.8-1.8-3.4 0-1.4-4.9-7.7-6.1-7.7-.5 0-.9.6-.9 1.4m-9.8 1.2c.4 2.1 2.2 2.3 2.6.1.2-1-.3-1.7-1.3-1.7s-1.5.6-1.3 1.6m-4.2 2.8c0 .9.7 1.6 1.6 1.6s1.4-.5 1.2-1.2c-.6-1.8-2.8-2.1-2.8-.4m3.6 3.3c-1.2 1.2-.6 3.3.9 3.3.8 0 1.5-.6 1.5-1.4 0-1.7-1.4-2.8-2.4-1.9m-4.6 4.8c0 .8.7 1.5 1.5 1.5s1.5-.7 1.5-1.5-.7-1.5-1.5-1.5-1.5.7-1.5 1.5m8.2.6c.2.6.8 1 1.3 1s1.1-.4 1.3-1-.4-1.1-1.3-1.1-1.5.5-1.3 1.1m26.8 1.7c0 1.6-.5 5.4-1.1 8.5-.9 4.3-1.6 5.7-2.8 5.5-2.2-.4-2.1-.1 2.6 14.7 6.5 20.4 7 29.5 2.7 43.5-1.4 4.9-2.4 9.6-2 10.6 1.1 2.9 2.4.5 5.6-10.8 4.1-14.2 4.2-23.5.6-37.7-1.5-5.7-2.5-10.5-2.3-10.7s2.2 1.5 4.4 3.9c6.1 6.3 10.1 14.5 10.9 22.6.4 4.5 1.3 7.6 2.6 9.2 1.7 2 1.9 2.1 1.3.4-.4-1.1-1.2-5.6-2-10.1-.7-4.4-2.3-10-3.4-12.3l-2.2-4.2 2.1 1.3c3.8 2.3 6.3 7.7 6.9 14.7.7 7.7 2.6 8.5 2.2.9-.3-6.4-2.7-12.5-5.3-13.9-1.3-.7-1.7-1.4-1-2.1 1.2-1.2.4-4.8-1.2-4.8-.7 0-1.7.5-2.2 1-1.6 1.6-4.6.1-3.9-2 .4-1.1-.9-3.2-3.6-6l-4.2-4.3.7-6.1c.4-4 1.2-6.5 2.3-7.4 2.1-1.5 9.4-1.5 15.8.2 4.1 1 5.3 1.9 6.7 4.7 2.2 4.3 3.6 13.8 4.4 30.1.4 7.1 1.1 12.8 1.5 12.8 1.2 0 2.2-8.5 1.5-13.3-.3-2.3-1.1-8.9-1.6-14.5-.7-7.4-1.7-12-3.6-16.2l-2.6-5.8-5.1-.5c-2.9-.3-8.6-1.5-12.7-2.6-10.5-2.9-12-2.8-12 .7m-31.3.8c-.8.8.1 2.4 1.4 2.4.5 0 .9-.7.9-1.5 0-1.5-1.2-2-2.3-.9m-5.3 3.5c-.8 1.4 1.1 3.3 2.5 2.5.6-.4 1.1-1.1 1.1-1.6 0-1.3-2.9-2-3.6-.9m25.3.9c-1.4 1.1-5.4 3.3-8.9 4.9-7.1 3.2-13.4 9.1-12.5 11.5.8 2 3.7 2.1 3.7.2 0-2 5.6-6.5 10.8-8.7 4.3-1.9 12.1-7.7 12.2-9.2 0-1.4-2.7-.7-5.3 1.3m-66 28.7c-1.3 1.2-.7 3.3.8 3.3.8 0 1.5-.9 1.5-2 0-2-1.1-2.6-2.3-1.3m3.3 5.2c0 1.2.5 2.1 1 2.1.6 0 1-.6 1-1.4s-.4-1.8-1-2.1c-.5-.3-1 .3-1 1.4m-5 1.6c0 .8.5 1.5 1 1.5.6 0 1-.7 1-1.5s-.4-1.5-1-1.5c-.5 0-1 .7-1 1.5m7.2 3.2c.5 2.5 2.8 2.8 2.8.4 0-1.2-.6-2.1-1.6-2.1-.9 0-1.4.7-1.2 1.7m-11 .5c.6 1.8 2.8 2.1 2.8.4 0-.9-.7-1.6-1.6-1.6s-1.4.5-1.2 1.2m4.8.8c0 .5.5 1 1 1 .6 0 1-.5 1-1 0-.6-.4-1-1-1-.5 0-1 .4-1 1m252 17.5c-1.9.7-7.1 3.2-11.5 5.4-4.4 2.3-8.5 4.1-9.2 4.1-.6 0-1.5.4-1.8 1-1.1 1.8 5.8-.1 13-3.5 3.9-1.8 8.9-3.9 11.3-4.6 2.3-.7 4.1-1.7 3.9-2.3-.5-1.5-1.9-1.6-5.7-.1"/>
        <path d="M194.5 286.9c-2.1 2.5-9.6 18.8-17 36.6-5.7 13.6-8.2 18.1-11.2 20.4-1.5 1.2-6.2 4.8-10.4 8.1-8.8 6.9-10.9 7.3-18.6 3.5-4.5-2.3-6.5-4-13.5-11.6-1-1-2.9-3.7-4.4-6-1.5-2.4-5.2-7.6-8.3-11.7s-6.5-8.6-7.5-10.1c-2.3-3.3-9.5-8.6-10.4-7.7-.3.4.8 1.8 2.5 3.2 1.8 1.3 5.6 5.7 8.5 9.6s6.4 8.6 7.8 10.4 4.5 5.9 7 9.1c8.4 11 15 16.7 21.7 18.7l6.1 1.8 4.8-3.2c4.4-3 6.4-4.6 14.1-10.9 1.2-1 2.9-2.1 3.8-2.4.8-.4 1.8-1.5 2.1-2.4.3-1 1.6-4.1 2.9-6.8 2.8-5.8 5-10.8 8.1-18.5 1.2-3 3.8-9.2 5.8-13.8s3.6-8.9 3.6-9.5c0-.7 1.2-3 2.6-5 3-4.4 2.9-5.7-.1-1.8m-154.5.4c0 1.2.9 2.8 2.1 3.5 2.2 1.4 17.4 6.9 22.8 8.2 1.8.5 4.5 2 6 3.4 1.4 1.4 4.3 3.2 6.3 4 3.9 1.7 10.8 8.1 17.3 16 2.2 2.7 5.3 6.1 6.9 7.5 1.5 1.4 3.6 4.2 4.6 6.2 1 1.9 3.4 5.4 5.2 7.7 1.8 2.2 4.8 6.1 6.7 8.6 3.5 4.9 5.1 5.5 7.1 3.1 1-1.2.8-2-1-4.2-7.7-9.9-12-16-12-17 0-.6-3.2-4.4-7-8.5-3.9-4-7.7-8.4-8.5-9.8-2-3.8-10.6-11.5-15.6-14-2.4-1.2-5.5-3.3-6.9-4.6-1.4-1.2-6.6-3.6-11.5-5.3-5-1.6-11.6-3.9-14.7-5-7.2-2.6-7.8-2.6-7.8.2m231 5.8c-4.9 2.2-11 7.5-11 9.6 0 .7-1.3 2.8-3 4.6-1.6 1.9-3 3.8-3 4.2 0 .5-1.8 3.2-4 6.1s-4 5.8-4 6.3c0 .6-2.6 2.3-5.7 3.8-3.4 1.6-8.3 5.3-11.8 8.8-4.3 4.3-7.8 6.8-12.5 8.8-3.6 1.5-7.1 3.6-7.8 4.7-1.6 2.6-1.2 2.5 4.5-.5 2.7-1.4 6.9-3.4 9.5-4.4 3.6-1.5 5.2-2.9 6.5-5.6 1.3-2.8 3.4-4.5 9.3-7.7 5.2-2.8 10.2-6.8 16.3-12.9 7.9-7.9 8.6-9 7.5-10.8-1-1.6-.7-2.7 1.8-6.8 2.2-3.6 4.3-5.5 8.4-7.5 6.4-3.2 5.6-3.7-1-.7m40.5 3.3c-2.8 1.3-8.3 3.4-12.3 4.5-3.9 1.2-7.4 2.7-7.8 3.3-.5.7-.2.9.7.6.8-.3 6-1.9 11.5-3.6 5.6-1.8 11.2-4.1 12.5-5.2 3.2-2.6 1.5-2.4-4.6.4m-73.5 2.2c-1.5 3.9-1.2 7.2.8 8.3 2.1 1.1 4.2-.3 4.2-2.8 0-2.3-2.3-8.1-3.2-8.1-.5 0-1.3 1.2-1.8 2.6m3 4.6c0 1.6-.3 1.9-1.1 1.1-.6-.6-.8-1.6-.5-2.2 1.1-1.7 1.6-1.3 1.6 1.1m76.5-1.6c-2.2 1.5-5.2 3.8-6.7 5.1-1.8 1.7-3.2 2.3-4.7 1.8-2.4-.7-5.1.6-11.1 5.5-2.5 2.1-8.8 6-14 8.7s-10.4 5.5-11.5 6.1S258.7 334 248 339c-28.3 13.2-28.2 13.1-30.4 18.4-1.8 4.5-1.8 4.6.2 8.8s2.1 4.4.3 9.3c-.9 2.7-2.6 6.8-3.6 9-2.9 6-2.5 17.1.8 25.3 5.8 14.2 12.9 23.8 24 32.5 3.4 2.6 3.9 2.7 14.6 2.6l11-.1 3.7-4.6c2.1-2.6 4.5-5.6 5.5-6.7 4-4.4 17.4-20.2 22.2-26 1.3-1.7 2.8-4.1 3.2-5.5s1.5-4.3 2.5-6.5 2.7-6.3 3.8-9c1.2-2.8 4.6-10.9 7.7-18 5-11.5 5.8-14.3 7-24.5 1.8-15.3 2.8-38.8 1.8-42.3l-.8-2.7zm-6.5 63.6c-1.7 3.5-4.2 8.5-5.4 11.3-1.3 2.7-3.5 7.5-4.9 10.5s-3 6.6-3.5 8c-6.4 15.5-13.8 27.6-15 24.1-.2-.7.5-2.5 1.7-4 1.2-1.4 5.1-8.7 8.7-16.1 17-35.1 20.3-41.4 21.1-40.6.3.2-.9 3.3-2.7 6.8m24.4-41.1c-1 1.7 1.3 3.6 2.7 2.2 1.2-1.2.4-3.3-1.1-3.3-.5 0-1.2.5-1.6 1.1m-132.9 26.2c-1.2.9-1.4 1.6-.7 2.1.6.3 1.6-.3 2.2-1.4 1.3-2.4 1-2.5-1.5-.7m-4.6 6.9c-5.3 10.7-8.9 19.6-8.9 22 0 .5 1.2 0 2.8-1.2 1.5-1.1 3.8-2.9 5.2-3.9 2.1-1.6 2.2-2.1 1.1-3.5-1.2-1.4-1.5-1.3-3.2.7-1.2 1.4-.6-.7 1.7-6.1 3.5-8.2 4.5-14.6 1.3-8"/>
        <path d="M204 372c0 .6.6 2.3 1.4 3.9 1.5 2.9 1.6 2.7-5.6 28.3-.9 3.1-.8 4 1.1 6.4 1.1 1.4 2.1 3.3 2.1 4.1s2.6 7 5.9 13.7c5.4 11.3 6.5 12.8 13.7 19.4 7.5 6.9 11.6 9.3 13.2 7.7.4-.4-.6-1.8-2.3-3.1-14.2-11.5-19.5-18.1-23.2-28.9-.9-2.7-2.2-6-3-7.4-.7-1.5-1.3-3.1-1.3-3.7s-.9-1.9-2-2.9-2-2.4-2-3.1c0-1.8 5.8-22 7.2-25 .9-1.9.7-3.2-.7-6.4-1.6-3.6-4.5-5.5-4.5-3m-7 4.5c-.7.8-4.6 4-8.7 7.1-5.4 4.1-7.2 5.9-6.4 6.7 1.8 1.8 1.3 9.2-.7 11-1 1-2.3 1.7-2.9 1.7s-1.3.7-1.7 1.5c-.8 2.1 1.7 1.9 4.7-.5 3.6-2.8 4.4-2.6 6.5 2.4 2.7 5.9 4.1 6.6 3.5 1.6-.4-2.8-.1-4.6.9-5.8 2.9-3.3 6-14.4 5.4-19-.3-2.4-.1-5.2.4-6.3 1.3-2.3.7-2.5-1-.4m-26.3 7.3c-1.8 2-2.5 12.2-.8 12.2.7 0 3.4-13 2.7-13.7-.1-.2-1 .5-1.9 1.5m7.7-.4c-2.8 2.2-.6 4.1 2.4 2 1.2-.8 2.2-1.9 2.2-2.5 0-1.4-2.3-1.1-4.6.5"/>
        <path d="M178.6 392.2c-1 3.1-1.5 7.6-.9 8.2 1.3 1.2 3.3-1.8 3.3-5 0-3.3-1.7-5.6-2.4-3.2m-24.6 9.7c0 1.1.4 2.2.9 2.5 1.1.7 2.3-2.2 1.5-3.5-.9-1.6-2.4-1-2.4 1m8.5-.9c-1.1 1.8.5 5.1 2.3 4.7 1-.2 1.6-.9 1.4-1.6-.1-.8.6-1.1 2-.9 1.5.2 2.3-.2 2.3-1.2 0-1.8-6.9-2.7-8-1m19.3 5.6c-.9.9-3.2 1.8-5 1.9s-4.1.5-5.1.9c-1.1.5-4.5.2-8.5-.8-7.1-1.7-18.2-2.2-18.2-.7 0 .4 2.2 4.6 5 9.2 2.7 4.6 6.1 10.5 7.5 13.1s5.1 7.2 8.3 10.3c5.8 5.5 17.8 14.5 19.4 14.5.5 0 2.1.9 3.6 2 4.8 3.5 20.5 9.1 30.6 11 9.7 1.7 10 1.7 15.4-.1 3.1-1.1 6.3-2.5 7.1-3.2.9-.7 2.8-1.9 4.4-2.7 2.6-1.3 3.5-3.4 2-4.3-.5-.3-4.8.4-9.8 1.4l-9 1.9-6.2-2.6c-4.8-2.1-7.6-4.2-12-9.1-3.2-3.6-6.2-7.2-6.7-8.1s-3.5-5.3-6.6-9.7-7.2-10.7-9-14-3.6-6.5-4-7c-.5-.6-1-2-1.2-3.3-.3-2.2-.4-2.2-2-.6M170 417.5c0 2.5 4.8 12.5 6 12.5.5 0 1.1.9 1.5 2 .3 1 2.7 5 5.2 8.7 2.6 3.8 3.6 5.9 2.4 4.8-4.9-4.3-15.4-21-16.6-26.4-.4-1.7-1.6-3.6-2.8-4.3-2.2-1.1-3.7-2.7-3.7-4 0-.4 1.8.5 4 1.9 2.6 1.7 4 3.4 4 4.8m14.8-.9c2.4 2.6 5.1 6.1 5.8 7.8.8 1.7 3 5.6 4.9 8.6s4.4 7.4 5.6 9.7c2.6 5.4 9.9 12 17.2 15.7 7.7 3.8 7.3 5.1-.5 1.8-9.8-4.2-14.7-10-26.2-31.2-3.7-6.7-11.2-15.7-12.2-14.7-.3.3 1.5 3.8 4 7.9 2.5 4 5.8 9.3 7.2 11.8 6.1 10.4 11.6 17.8 14 18.9 1.5.6 2.4 1.4 2.1 1.7-1.8 1.8-13.7-9.4-13.7-12.9 0-.6-2-4.3-4.5-8.3-2.5-3.9-4.5-7.4-4.5-7.7 0-.2-1.6-3.1-3.5-6.3s-3.5-6.1-3.5-6.6c0-2.2 3.8-.3 7.8 3.8"/>
    </g>
</svg>
