<svg xmlns="http://www.w3.org/2000/svg" width="341.333" height="341.333" version="1.0" viewBox="0 0 256 256">
    <g fill="#e5e5e5">
        <path d="M104.4 30.2c-4.1 8.1-3.9 9.5 1.7 11.3 2.1.7 3.9 2.2 4.8 4.1 1.7 3.6 5.1 7.4 6.6 7.4.6 0 2.2 1.1 3.5 2.5 2.1 2.2 2.5 2.3 3.3 1 .6-1.1.3-2.4-.7-4-.9-1.3-1.6-4-1.6-5.8 0-3-.4-3.5-2.8-4-1.5-.3-3.9-1.5-5.4-2.6-3.2-2.5-5.9-10.1-5.1-14.2.9-4.7-.4-3.4-4.3 4.3m45.9-4.3c.8 4.1-1.9 11.7-5.1 14.2-1.5 1.1-3.9 2.3-5.4 2.6-2.4.5-2.8 1-2.8 4 0 1.8-.7 4.5-1.6 5.8-1 1.6-1.3 2.9-.7 4 .8 1.3 1.2 1.2 3.3-1 1.3-1.4 2.9-2.5 3.5-2.5 1.5 0 4.9-3.8 6.6-7.4.9-1.9 2.7-3.4 4.8-4.1 5.6-1.8 5.8-3.2 1.7-11.3-3.9-7.7-5.2-9-4.3-4.3m-52 16.8c-.4 1.1.1 2.1 1.5 3.1 1.3.9 2.2 2.5 2.2 4.1.1 2.1 1.2 3.2 6.2 6.1 3.3 1.9 7.9 5.2 10.2 7.2 3.7 3.4 3.9 3.9 2.4 4.8-2.2 1.3-2.3 4.3-.3 6 1.3 1.1 1.5.8 1.5-2 0-1.9.7-4.2 1.6-5.1 1.6-1.7 1.5-2.1-1-5.4-1.5-1.9-4.7-4.8-7.1-6.5-2.6-1.8-5.1-4.6-6-6.6-.8-2-2.5-3.8-4.2-4.5-1.5-.6-3.6-1.5-4.6-2-1.3-.7-1.9-.5-2.4.8"/>
        <path d="M158.1 42.4c-.7.8-2.4 1.6-3.9 1.8-2 .2-3.2 1.4-4.8 4.3-1.1 2.2-3.4 4.9-5 6s-4.7 3.9-6.8 6.2c-3.6 4-3.7 4.3-2.2 6.5.9 1.2 1.6 3.5 1.6 5.1 0 2.5.2 2.8 1.5 1.7 2-1.7 1.9-4-.2-5.5-1.6-1.2-1.4-1.6 2-4.8 2.1-1.8 6.7-5.1 10.2-7.2 4.7-2.7 6.5-4.3 6.5-5.8 0-1.1.9-3.1 2.1-4.3 1.5-1.6 1.8-2.7 1.2-3.9-.8-1.4-1.1-1.5-2.2-.1M88 51.9 86 56h-7.2c-6.7 0-7.4.2-11.4 3.6-4 3.2-4.4 3.9-4.4 8V72h4.5c4 0 4.7.3 5.6 2.7 2.5 6.6.9 12.3-16.3 55.8-9.2 23.1-16.9 43.1-17.2 44.5-.3 1.6-5.2 6.5-13.6 13.8-7.1 6.2-13 11.7-13 12.2 0 .8 6.5 12.6 7.7 14 .2.2 6.9-1.8 14.9-4.5l14.5-5L52 199c1-3.6 8.8-30.8 17.4-60.5 8.5-29.7 15.9-55.2 16.5-56.6.5-1.5 2.4-3.7 4.1-4.9 3.5-2.5 3.5-3 .6-13.6-1-3.7-1.2-6.4-.5-9.9.5-2.7.7-5 .5-5.3-.3-.2-1.4 1.4-2.6 3.7m80.5-.9c1.1 5 .7 11.2-.9 15.9-2.2 6.1-2.1 6.9 2.2 11.5 3.6 4 4.3 6 21.1 65.1 9.6 33.5 17.7 61.3 18 61.7.4.4 7 3 14.8 5.7l14.2 5 4.1-6.9c2.2-3.7 4-7.2 4-7.7s-5.8-6-13-12.1c-8.9-7.7-13.2-12.1-13.6-14-.3-1.5-8.2-21.9-17.5-45.3-17.7-44.5-18.7-48.1-15.9-55.3.8-2.3 1.5-2.6 5.5-2.6h4.5v-3.7c0-3-.8-4.5-4.2-8-4.2-4.3-4.2-4.3-11.5-4.3H173l-2-4c-2.4-4.8-3.4-5.1-2.5-1m-40.3 7.2c-1.6 1.6-1.5 3.3.2 4.7 2.1 1.8 4.1-1.1 2.6-3.8-1.3-2.5-1.2-2.5-2.8-.9m-26.6 3.6c-.3.5 1 1.4 2.9 2 5.7 2.1 6.3 3.8 2.6 7.6l-3.2 3.3 2 6.1c2.4 7.1 2.7 16.6.6 20.2-1.7 2.9-2 9.6-.5 10.5.6.3 1-.2 1-1.3 0-1 1.8-5.4 4-9.8 2.1-4.3 4.7-10.9 5.7-14.6 1.7-6.4 1.7-6.9 0-9.7-.9-1.6-1.6-4.5-1.4-6.6.2-3-.3-4.1-2.3-5.5-2.8-2-10.6-3.5-11.4-2.2"/>
        <path d="M146.2 64c-3.2 2-3.3 2.3-2.7 6.1.5 3.1.3 4.5-1.1 6-1.6 1.8-1.7 2.6-.6 8.2.7 3.4 3 9.8 5.2 14.2 2.1 4.4 4.2 9.3 4.6 10.8.4 2 1 2.5 1.7 1.8 1.5-1.5 1.1-6.4-.7-10-1.9-3.5-2.1-14.2-.4-17.4 2.8-5.3 2.7-8.4-.5-12.2-3.3-4.1-3.3-4.1 3.8-7.5l4-2h-5c-3.3 0-6.1.7-8.3 2m-92.6 8.8c-4.3 4.4-4.7 5.3-4.1 8.1.5 2.6-1.3 7.8-11.2 30.8l-11.8 27.8-.3 15.9-.3 16-6.3 7c-5.1 5.7-6.4 7.9-6.9 11.3-.3 2.5-.1 4.6.5 4.9.6.4 5.9-4.2 11.8-10.1l10.7-10.7.7-13.4.7-13.4 8-19.3c7.6-18.2 8-19.5 7.4-24.7-.5-5.4-.4-5.9 5.5-16.4 3.3-5.9 6-11 6-11.2s-1.1-.4-2.4-.4c-2.1 0-2.5-.5-2.8-3.6l-.3-3.5zM200 72c0 2.5-.4 3-2.5 3-1.4 0-2.5.3-2.5.6s2.7 5.4 6 11.4c5.8 10.4 6 11.1 5.4 16.2-.5 5 0 6.6 7.5 24.9l8 19.6.7 13.4.6 13.4 10.7 10.2c5.8 5.6 11 10.1 11.6 9.9.5-.1.8-2.2.6-4.7-.2-3.9-1-5.2-6.7-11.1l-6.4-6.6v-30.5l-11.1-26.6c-6.2-14.6-11.6-27.1-12.1-27.8-.6-.7-.7-3-.3-5.1.5-3.4.2-4.2-3.5-8.5-2.3-2.6-4.6-4.7-5.1-4.7s-.9 1.3-.9 3"/>
        <path d="M61.1 86.4c-7.4 14-7.7 15.8-2.2 12 1.9-1.4 2.5-1.4 3.2-.3.5.8.9 2 .9 2.7 0 3 2.6.2 4.9-5.4 3-7.4 3.6-19.6 1-20.2-1.2-.2-3.3 2.8-7.8 11.2m127.5-9.8c-1.5 3.9.1 12.5 4.1 22.6 1.8 4.4 2.8 4.8 3.7 1.3.7-2.9 1.8-3.1 5.1-.9 2.3 1.5 2.5 1.5 2.5-.1 0-2.6-12-24.5-13.5-24.5-.7 0-1.6.7-1.9 1.6m-87.4 18.6c-1.8 2.7-3.4 4.8-3.6 4.8s-2.1-.7-4.2-1.6c-3.5-1.5-3.7-1.5-2.4.1 1.5 1.8 6.3 4.5 7.9 4.5 1.8 0 6.3-7.7 5.9-10.2-.3-2.1-.6-1.8-3.6 2.4m52.6-3.7c-1.2 1.2.6 5.6 3.6 9l3.1 3.5 4.3-2.5c5.2-3.2 5.6-5.2.4-2.6l-3.8 1.9-3.4-4.9c-3.6-5.3-3.4-5.1-4.2-4.4m-24.7 8.5c0 .8-1 23.2-2.2 49.7l-2.2 48.2 2.2 16.8c2 14.7 3.1 20.8 3.1 16.2 0-.8.9-8.5 2.1-17.3l2.1-15.9-2.1-48.6c-1.9-41.7-2.7-55.6-3-49.1M9.7 125.7c-1.3 2.1-2.7 4.4-3.1 5-.7 1.2 2.9 44.1 3.9 47 .7 2.2 3 1.4 6.2-2l3.2-3.2 1.1-17.6 1.2-17.5-4.7-7.7c-2.6-4.2-4.8-7.7-5.1-7.7-.2 0-1.4 1.7-2.7 3.7m89.6 16.8C89.1 160.7 88 163.2 88 167.6l.1 4.9 2.7-3.4c2.2-2.8 20.7-46 19.9-46.7-.1-.1-5.3 8.9-11.4 20.1M241.5 130l-4.6 7.9 1.1 17.3 1.1 17.3 3.1 3.2c3.6 3.7 6.8 4.3 6.8 1.4 0-1.1.9-11.6 2.1-23.4l2-21.5-3.1-5.1c-1.8-2.8-3.3-5.1-3.5-5.1s-2.4 3.6-5 8m-92.3-4c4.4 12.1 16.8 40.4 18.9 43.4l2.9 4v-5.2c0-4.7-.9-6.9-10.2-23.5-9.3-16.7-13-22.7-11.6-18.7"/>
    </g>
</svg>
