<svg xmlns="http://www.w3.org/2000/svg" width="341.333" height="341.333" version="1.0" viewBox="0 0 256 256">
    <g fill="#e5e5e5">
        <path d="m89 56.5-3.5 2.4H46.4c-36.6.1-39.2.2-40.7 1.9-2.3 2.6-2.5 19.3-.2 21.2C6.7 83 7 85.8 7 95.4l-.1 12.1-2-2.4c-1.1-1.3-2.1-2.2-2.3-2-.1.2.2 6 .7 12.7.8 11.9.8 12.5-1.2 14.6S0 133.6.2 146.6l.3 13.9 4.9-7.9c2.8-4.3 5.2-7.4 5.4-6.8s-1.1 3.2-2.9 5.6c-2.3 3.3-2.9 4.9-2.2 5.8.6.7 1.7 3.2 2.4 5.6 1.5 5.2 6.7 11.4 12.2 14.6 3.2 1.9 6.6 2.7 14.2 3.4l10 .9-9.3.2c-8.1.1-9.9-.2-14.4-2.5-8.8-4.5-19.1-16.9-15.7-18.9.5-.4.9-1.1.9-1.6s-1.1-.2-2.5.7S1 162 1 162.9c0 3.2 5.8 10.9 11.2 14.9 7.6 5.7 11.1 7.2 16.3 7.2 4.3 0 5.5.7 15.1 8l10.5 8H72c11.3 0 18-.4 18-1s13.3-1 38-1 38 .4 38 1 6.7 1 18 1h17.9l10.5-8c9.6-7.3 10.8-8 15.1-8 5.2 0 8.7-1.5 16.3-7.2 5.4-4 11.2-11.7 11.2-14.9 0-.9-1.1-2.4-2.5-3.3s-2.5-1.2-2.5-.7.4 1.2.9 1.6c3.4 2-6.9 14.4-15.7 18.9-4.5 2.3-6.3 2.6-14.4 2.5l-9.3-.2 10-.9c7.6-.7 11-1.5 14.2-3.4 5.5-3.2 10.7-9.4 12.2-14.6.7-2.4 1.8-4.9 2.4-5.6.7-.9.2-2.4-2.2-5.5-3-4-3.7-5.3-5.8-10.2-.5-1.3-.9.7-1.1 6.1-.3 7.7-.5 8.4-3.8 12.3-6.6 7.7-8.3 8.1-33 8.1-20.7 0-21.8-.1-25.3-2.2-3-1.9-5.3-2.3-14.8-2.7-10.7-.3-11.3-.2-14.6 2.3-3.4 2.6-3.5 2.6-21.7 2.6s-18.3 0-21.7-2.6c-3.3-2.5-3.9-2.6-14.6-2.3-9.5.4-11.8.8-14.8 2.7-3.5 2.1-4.6 2.2-25.3 2.2-24.7 0-26.4-.4-33-8.1-3.5-4.2-3.6-4.5-3.6-12.6 0-6.7.3-8.3 1.5-8.3 1.3 0 1.5-2.1 1.5-12.6v-12.6l-3-2.8c-2.9-2.7-3-3.2-3-11.2 0-4.7-.3-14.6-.7-22.1L10.7 64h101.9l2.2 3 2.3 3h21.8l2.3-3 2.2-3h101.7l-.6 9.7c-.3 5.4-.8 15.9-1.1 23.4-.5 12.8-.6 13.8-3 15.9-2.3 2.2-2.4 2.9-2.4 14.1 0 11.3.1 11.8 2.2 12.1 1.4.2 4.1 3.5 8.7 10.8l6.6 10.5.3-13.9c.2-11.3 0-14.2-1.3-15.6-1.1-1.3-1.5-4.2-1.5-12.3 0-10.5-.4-11.9-2.8-9.5-.9.9-1.2-1.8-1.2-12.4 0-10.8.3-13.8 1.5-14.8 1.1-.9 1.5-3.5 1.5-10.5 0-7.6-.3-9.5-1.8-10.8-1.7-1.5-6-1.7-40.8-1.7h-38.9l-4-2.5c-3.3-2-5.3-2.4-11.2-2.5-3.9 0-7.4.4-7.7.8-.7 1.1-38.5 1.1-39.2 0-.3-.4-4-.8-8.2-.7-6.4 0-8.3.4-11.2 2.4m-77.5 99.7c.7.4 1.6 2 1.9 3.5 1.1 4.4 5.3 10 9.8 13.3 3.4 2.5 5 3 9.9 3 4.8 0 6.1-.4 7.1-2 1.1-1.6 2.4-2 7.4-2 4.8 0 6.5.4 7.9 2 1.6 1.8 3.1 2 14.9 2 10.8 0 13.6-.3 16.1-1.8 14.5-8.7 16.7-8.8 3.9-.3l-7.6 5.1H56.4c-26.1 0-26.5 0-31.3-2.4-5.4-2.8-10.4-8-12.9-13.5-.9-2-2.2-4.4-3-5.3-.9-1.1-1.1-2.5-.6-4 .7-2.1.8-2.2 1.2-.3.2 1.1 1 2.3 1.7 2.7m235.4 1.6c-.8.9-2.2 3.3-3.1 5.3-2.5 5.5-7.5 10.7-12.9 13.5-4.8 2.4-5.2 2.4-31.3 2.4h-26.4l-7.6-5.1c-12.8-8.5-10.6-8.4 3.9.3 2.5 1.5 5.3 1.8 16.1 1.8 11.8 0 13.3-.2 14.9-2 1.4-1.6 3.1-2 7.9-2 5 0 6.3.4 7.4 2 1 1.6 2.3 2 7.1 2 4.9 0 6.5-.5 9.9-3 4.6-3.3 8.7-8.9 9.8-13.3.3-1.6 1.3-3.1 2-3.4.8-.3 1.4-1.5 1.5-2.7 0-2.1 0-2.1 1.1.2.9 1.7.8 2.6-.3 4M147.5 171c-.4.6-8 1-19.5 1s-19.1-.4-19.5-1c-.4-.7 6.3-1 19.5-1s19.9.3 19.5 1m18.5 8.3c8.1 2.8 2.7 3.2-38 3.2s-46.1-.4-38-3.2c4.9-1.7 71.1-1.7 76 0M72.5 181c.4.6-1.8 1-5.9 1-3.7 0-6.6-.4-6.6-1s2.6-1 5.9-1 6.3.4 6.6 1m123.5 0c0 .6-2.9 1-6.6 1-4.1 0-6.3-.4-5.9-1 .3-.6 3.3-1 6.6-1s5.9.4 5.9 1M69.4 195c3 0 5.7-.3 5.9-.8.3-.4-2-.5-5-.3-6.6.4-10.3-1.2-9.5-4.1.6-2.5-1.5-3.9-4.3-2.8-1.3.5-2.7.3-3.9-.6-2.4-1.7 11.5-2.1 75.4-2.1s77.8.4 75.4 2.1c-1.2.9-2.6 1.1-3.9.6-2.8-1.1-4.9.3-4.3 2.8.8 2.9-2.9 4.5-9.5 4.1-3-.2-5.3-.1-5 .3.2.5 2.9.8 5.9.8 5.8 0 6.3-.2 17.9-8.4 3.9-2.7 6.4-4.2 5.6-3.3-1.2 1.5-1 1.7 1.3 1.7 1.9 0 2.5.4 2 1.2q-.9 1.35.9 0c.9-.8 2.2-1.2 2.8-1 .7.2-2.5 3.2-7.1 6.5l-8.4 6.2-17.3.1c-11.2 0-17.3-.3-17.3-1s-13-1-39-1-39 .3-39 1-6.1 1-17.3 1l-17.3-.1-8.4-6.2c-4.6-3.3-7.8-6.3-7.1-6.5.6-.2 1.9.2 2.8 1q1.8 1.35.9 0c-.5-.8.1-1.2 2-1.2 2.3 0 2.5-.2 1.4-1.5-.7-.9 3 1.4 8.3 5 8.9 6.1 9.9 6.5 15.1 6.5"/>
        <path d="M71.4 187.5c-2.4 1.7-.7 3.8 2.7 3.3 2.9-.4 3.5-2.4 1.1-3.7-1.4-.7-2.4-.6-3.8.4m16.3-.7c-1 .2-1.7 1.1-1.5 2 .4 2.2 5.3 2.8 6.1.8.7-1.8-1.9-3.4-4.6-2.8m14.7.7c-2.4 1.7-.7 3.8 2.7 3.3 2.9-.4 3.5-2.4 1.1-3.7-1.4-.7-2.4-.6-3.8.4m16.3-.7c-1.1.2-1.7 1.1-1.5 2 .4 2 5.9 2.4 6.5.5.5-1.5-2.6-3.1-5-2.5m14.6.7c-1.3 1-1.5 1.7-.7 2.5 1.6 1.6 5.8.8 6.2-1.1.4-2.2-3.2-3.1-5.5-1.4m16.1 0c-2.4 1.7-.7 3.8 2.7 3.3 2.9-.4 3.5-2.4 1.1-3.7-1.4-.7-2.4-.6-3.8.4m15.3-.3c-2.4 1.3-.9 3.8 2.4 3.8 2.2 0 2.9-.5 2.9-1.9 0-2.2-3-3.3-5.3-1.9m15.7.3c-2.4 1.7-.7 3.8 2.7 3.3 2.9-.4 3.5-2.4 1.1-3.7-1.4-.7-2.4-.6-3.8.4M44 187.4c0 .2 1.4 1.4 3 2.6 1.7 1.2 3 1.9 3 1.6 0-.2-1.3-1.4-3-2.6-1.6-1.2-3-1.9-3-1.6m164.5 2.2-3 2.6 3.3-2.2c1.7-1.2 3.2-2.3 3.2-2.6 0-.7-.4-.5-3.5 2.2M51 192.4c0 .2.8 1 1.8 1.7 1.5 1.3 1.6 1.2.3-.4s-2.1-2.1-2.1-1.3m151.9 1.3c-1.3 1.6-1.2 1.7.4.4s2.1-2.1 1.3-2.1c-.2 0-1 .8-1.7 1.7M16.4 70.5c-.4.8-.3 3.4.1 5.7.4 2.4.9 10.3 1.1 17.5l.5 13.3 3 1.7 2.9 1.7v16.8c0 16.1-.1 16.8-2 16.8-1.7 0-2 .7-2 4.6 0 4.2.5 5.1 4.4 9l4.3 4.4h21.7c19.7 0 22-.2 25.6-2 3.4-1.7 5.9-2 19.3-2 14.1 0 15.5.2 17.2 2 1.6 1.8 3.1 2 15.5 2s13.9-.2 15.5-2c1.7-1.8 3.1-2 17.2-2 13.4 0 15.9.3 19.3 2 3.6 1.8 5.9 2 25.6 2h21.7l4.3-4.4c3.9-3.9 4.4-4.8 4.4-9 0-3.9-.3-4.6-2-4.6-1.9 0-2-.7-2-15.3v-15.3l2.9-2.9c3-2.7 3-2.9 3.5-16.4.3-7.5.6-16.1.8-19.1l.3-5.5-46.7-.3-46.7-.2-2.3 3-2.2 3h-27.2l-2.2-3-2.3-3H63.4c-40.3 0-46.5.2-47 1.5"/>
    </g>
</svg>
