<svg xmlns="http://www.w3.org/2000/svg" width="341.333" height="341.333" version="1.0" viewBox="0 0 256 256">
    <path fill="#e5e5e5" d="M205.1 9.6c-13.4 2.4-24.6 4.5-24.8 4.8-.2.2 1.3 9.7 3.5 21.2l3.8 20.8 20.5-24.5c18.7-22.3 22.6-27.1 21.7-26.8-.2 0-11.3 2.1-24.7 4.5m-103.6 9.5c-5.5 6.1-10.1 11.5-10.3 12-.3.8 6.6 13.9 7.4 13.9 1 0 23.4-17.3 23.4-18.1 0-1.6-9-18.9-9.8-18.9-.4 0-5.2 5-10.7 11.1m113.3 17.2c-10.8 13.8-19.6 25.3-19.4 25.4.4.4 32-1.9 32.5-2.3.4-.4 7-47.7 6.7-48.1-.1-.1-9 11.1-19.8 25M129 64l-42.5 45.9-4.2 20.8c-2.2 11.5-4 20.9-3.9 21 .1.2 23.1-19.6 50.9-43.8 35.8-31.1 50.6-44.6 50.3-45.8-.2-.9-1.9-11.2-3.7-22.9-1.8-11.6-3.5-21.2-3.8-21.2S152.4 38.7 129 64m-16-18.9c-6.2 4.3-11.5 8.1-11.6 8.2-.2.2-2.4 8.1-4.9 17.7L92 88.5 106.5 74l14.4-14.5 2.1-10.9c1.2-5.9 2-11 1.8-11.2-.2-.1-5.5 3.3-11.8 7.7M85.6 41c-.3.8-3.3 8.9-6.6 17.9l-6 16.5.1 14.5c.1 8 .4 18 .8 22.1l.6 7.5 3.4-11c1.9-6.1 6-21.1 9.1-33.5l5.8-22.5-3.3-6.5c-2.2-4.2-3.5-6-3.9-5M202 70.6c-6.3.7-12.4 1.5-13.5 1.7-2 .3-110.9 89.7-110.2 90.4.2.1 13.9-3.6 30.5-8.5l30.2-8.7 38.2-36.1c21.1-19.9 39.2-37.1 40.2-38.3 1.9-2.1 1.9-2.1-1-2-1.6.1-8.1.8-14.4 1.5M60.1 127.7c-3.3 1.6-3.3 1.8-2.7 6.7.3 2.8.2 5.7-.2 6.3-.5.7-4.1 2.4-8.1 3.8-4.1 1.4-9.7 4.2-12.5 6.4-2.8 2.1-6.5 4.6-8.3 5.5-3.2 1.6-6.3 5.1-6.3 7.2 0 1.8 3.3 2.2 10.7 1.3 3.7-.5 12-1.3 18.3-1.8 14.8-1.2 19.4-2.8 19.8-6.7.2-1.6 1-6.5 1.8-10.8 1.3-7.2 1.3-8.5-.2-13-.9-2.8-2.2-5.4-2.8-5.8-1.8-1.3-5.9-.9-9.5.9m94.4 11.8c-5.5 5.2-9.8 9.5-9.5 9.5s6 .7 12.5 1.5c6.6.8 12.7 1.5 13.5 1.5 1 0 2.4-3 4.3-9.6 1.6-5.2 2.6-9.8 2.3-10.1-.6-.7-8.3-2.2-11.1-2.2-1.2 0-6.2 4-12 9.4m-42 20.5-27 6.9 26.5.1h26.5l15.5-5.2 15.5-5.2-9-1.3c-19.9-2.7-18.6-2.8-48 4.7m-56.9 9.2c-1 .6-6.6 1.2-12.5 1.3-5.8.1-12.3.5-14.3 1l-3.7.7 1.6 3.4c1.3 2.5 2.8 3.7 6.5 5.1 2.6.9 4.8 2.1 4.8 2.5 0 2.1-3 6.5-5.9 8.6-3 2.2-3.1 2.3-1.5 4.7 2.3 3.5 6.3 3.3 10-.6 1.6-1.7 6.4-5.6 10.6-8.6 8.3-5.8 11.8-9.5 11.8-12.4 0-1 .4-2.1 1-2.4.5-.3 1.5-1.5 2-2.6 1-1.8.7-1.9-3.7-1.9-2.6 0-5.6.6-6.7 1.2m16.8 9c-3.3 3.5-7 7.9-8.2 9.9-1.3 2.1-3.8 4.3-6.2 5.4-2.3 1-5.9 4.2-8.5 7.3-4 4.8-4.5 6-4.5 10.3 0 2.7.3 4.9.6 4.9.4 0 2.4-1.6 4.5-3.5 2.2-1.9 4.5-3.5 5.2-3.5 1.6 0 5.7 12.3 5.7 17.1 0 2.2 1.2 5.3 3.1 8.5 1.8 2.7 3.6 6.2 4.2 7.9 1.3 3.9 2.5 5.3 5.9 7.1 2.8 1.4 3.1 1.4 6.4-1.1 4.6-3.5 5.5-6.1 6-17.5.8-15.4.7-15.9-2.2-19.7l-2.7-3.5 5.3-15.7c2.9-8.6 5.4-16.1 5.7-16.7.2-.8-1.2-1.4-3.9-1.7-2.4-.3-5.7-.9-7.3-1.2-2.7-.6-3.6-.1-9.1 5.7m27.2 1.1c-2.8 3.5-4.4 7-6.5 14.6-1.6 5.6-2.7 10.1-2.6 10.1.2 0 1.9-2.2 3.9-5 3.3-4.5 4-5 7.5-5 3.9 0 3.9 0 5 5 .6 2.8 1.1 6.2 1.1 7.6 0 3.5 4.2 7.4 7.9 7.4 2.2 0 4.1 1.2 7.5 4.8 5.4 5.7 9.4 8.2 10.4 6.5.4-.7.7-6.3.6-12.5-.1-10.4-.4-11.9-3.4-19.1-2.8-6.5-3.1-8.2-2.2-10.2s1.9-2.5 4.7-2.5c2.6 0 3.9-.6 5.1-2.5.9-1.4 1.5-2.7 1.3-2.9-.2-.3-2.9 0-5.9.6-5.3 1-21.3.5-27.6-.7-2.8-.6-3.5-.2-6.8 3.8"/>
</svg>
