<svg xmlns="http://www.w3.org/2000/svg" width="682.667" height="682.667" version="1.0" viewBox="0 0 512 512">
    <g fill="#e5e5e5">
        <path d="M287 72.2c-3 3.4-6.4 7.1-7.5 8.2-1.2 1.2-4.2 4.7-6.9 7.8l-4.8 5.8h-8.2c-8.8 0-9.4.3-14.3 6.6-2.8 3.5-17.5 21.9-20.6 25.5-1.2 1.5-3.3 4.1-4.6 5.7l-2.4 3-14.1.7-14.1.8-19.5 19.1c-10.7 10.6-20.3 19.9-21.3 20.6-1 .8-2.6 2.2-3.5 3-1 .8-6 5-11.2 9.2s-10.9 8.9-12.7 10.5c-1.8 1.5-7 5.9-11.7 9.8-8.2 6.6-8.6 7.1-8.6 11 .1 2.2.7 7.6 1.6 12 .8 4.4 2.3 13.9 3.4 21.2 3.1 20.1 3.9 23.7 5.6 25 1.4 1 .1 1.9-8.2 5.8-18.2 8.4-20.9 9.9-25.9 14.4-5.4 4.9-25.1 23.1-31.9 29.6-2.3 2.2-10.2 9.6-17.6 16.5s-15.4 14.4-17.8 16.7l-4.3 4.1 2.4 6.9c2.4 6.5 4.3 11.7 10.3 27.1 1.4 3.7 3.6 9.7 4.9 13.4 3.3 9.2 5.6 13.4 12 22.1 4.5 6 6.4 7.8 9.8 8.9 2.3.8 11 3.8 19.2 6.6 8.3 2.8 23.6 8.1 34 11.7l19 6.5 20.2 1.7 20.1 1.6 10.8-4.4c6-2.4 11.8-5.3 12.9-6.4 2.1-2.3 25.4-23.9 42.4-39.5 5.7-5.2 11.1-10.3 12-11.2s7.2-11 14-22.5c6.9-11.4 12.8-21.3 13.3-21.9.9-1.3 5.1-.5 21.8 3.9 18.8 5 33.5 8.9 35.5 9.4 1.4.3 3.6-1.1 7.1-4.4 2.7-2.6 10.6-10.1 17.5-16.5 11.8-11 12.6-12.1 15.9-19.8 1.9-4.5 3.8-8.4 4.2-8.6 1-.6 30.6-4.4 34.7-4.4 2.9 0 4.5-1.2 12.8-9.7l9.4-9.8-.5-5.5c-.7-7.3-1-24.9-.4-25.5.2-.3 5.8-1.6 12.2-2.9 13.1-2.6 11.6-1.7 23.1-15.2l5.8-6.8-.7-9.2-.6-9.1 4.2-1.1c2.4-.6 6.8-1.6 9.9-2.2 6-1.1 7.2-2.4 17.1-17l3.8-5.5-2-22.3-2-22.3 2.8-4.1c1.5-2.3 3.2-4.8 3.7-5.7.6-.9 1.8-2.7 2.8-4 1.6-2.2 1.7-4 1.1-17.5l-.7-15.1-6-11.7c-3.3-6.5-6.5-12.2-7.1-12.7-.6-.4-9.4-3.7-19.6-7.1-16.5-5.6-19.7-6.4-29.5-7.1-11.9-.8-12.5-.7-27.1 6.8l-5 2.6-8.3-6.5-8.2-6.5-8.2-.7c-4.5-.3-16.1-1.1-25.7-1.6s-26.3-1.6-37-2.5c-28.7-2.2-26.5-2.5-33 4.7m45.1.7c14 1.1 32.2 2.3 40.4 2.6 16.6.7 17.3 1 27 9 2.8 2.3 5.8 4.5 6.9 4.8 1.2.5 5.5-1.1 12.5-4.4l10.6-5.2 9.5.7c8 .5 12.5 1.6 28.2 6.7l18.7 6.2 5.5 10.8 5.5 10.9.7 13.8.7 13.8-5.6 8.6-5.6 8.5 1.4 12.9c.7 7.1 1.6 17.2 1.9 22.5.6 9.4.6 9.7-2.1 13.2-1.6 2-4.5 6-6.6 9l-3.8 5.4-8.6 1.7c-12.9 2.5-12.3 1.9-12.3 14v10.3l-7 7.9c-3.9 4.3-7.8 8.2-8.8 8.5-.9.3-6 1.4-11.2 2.3-5.2 1-10.6 1.9-11.9 2.2l-2.3.5.7 16.7.6 16.7-7.9 8.2-8 8.2-17.3 2.1c-24.4 2.9-22.5 2.3-24.8 8.4s-6.1 13.9-7.3 14.7c-.5.3-6.4 5.8-13.1 12.1s-13.6 12.7-15.4 14.2l-3.1 2.6-9.4-2.4c-5.1-1.4-15.4-4.1-22.8-6.1-18.4-5-24.6-6.3-26.3-5.3-.8.4-4.3 5.5-7.8 11.3s-7.2 11.8-8.1 13.3c-1 1.5-2.9 4.7-4.3 7.2-7.6 13.1-7.3 12.8-29.6 33.5-4.1 3.8-13.3 12.4-20.3 19-15.6 14.5-14.8 14-26 18.5l-9.1 3.7-18.5-1.4c-20.4-1.7-18.3-1.1-71-19.4-9.6-3.3-18.8-6.4-20.3-6.9-2.7-.9-4.3-2.5-9.4-9.5-3.1-4.2-7.9-13.5-8.7-16.9-.4-1.5-1.5-4.7-2.5-7-1.1-2.2-2.4-5.5-2.9-7.1-.6-1.7-3.6-9.5-6.6-17.5L11 366.5l4.4-4c2.4-2.2 10.3-9.6 17.7-16.5 7.3-6.9 16.9-15.9 21.3-20 17-15.8 20.3-18.9 25.1-23.5s7.9-6.3 31-16.9c4.4-2 8.8-4.1 9.7-4.6 1-.6 2.5-1 3.4-1 1 0 1.4-.7 1.2-2.2-.2-1.9-1.1-2.4-5.1-3-2.7-.4-5.1-.9-5.4-1.2-.3-.2-1.2-4.9-2-10.3s-2.5-16.2-3.9-24c-3.9-22.9-6.1-18.7 20.9-40.8 13.3-11 31.3-27 42.5-38 10.6-10.5 19.6-19.2 19.8-19.5.3-.3 6.9-.7 14.7-1l14.1-.5 14.9-18.5c8.2-10.2 15.4-19.3 16.1-20.3 1.3-1.7 4.7-2.2 17.2-2.6 1.3-.1 6.1-4.8 13.9-13.6L294.4 71h6.2c3.4 0 17.6.9 31.5 1.9"/>
        <path d="M288.7 86.1c-5.9 6.1-10.7 11.2-10.7 11.5 0 .2 1.2.4 2.8.4 2.2 0 5-2.3 13.5-10.8 5.9-5.9 10.5-11.1 10.1-11.5-2.3-2.2-5.6 0-15.7 10.4m8.7 1.4c-6.9 6.6-11.2 11.5-10.3 11.5s3.8-2 6.5-4.5c4.9-4.7 5.9-5.2 6.9-3.5 2.1 3.4 11.4 5.1 50.5 9 16.3 1.6 17.7 1.6 20 0 3.1-2 6.9-.9 11.9 3.5 16.5 14.3 17.8 16.9 16.9 34-.3 6.5 3.4 12.9 9.7 16.7 5.6 3.3 8.7 8.1 10 15.2.4 2 1.2 3.9 1.7 4.2.6.4.8-.1.5-1.2-4.1-14.4-4.5-15.1-11.2-19.5-3.4-2.3-4.4-3.9-6.8-10.3-2.1-5.6-2.5-8-1.8-9.4.7-1.3.6-3.3-.5-6.7-.8-2.7-1.3-5-1.1-5.2.2-.1 1.7 1 3.4 2.7 1.9 1.9 4.4 6.7 7.2 13.9 2.3 6.1 4.7 11.3 5.2 11.7 1.9 1.1 2.2-.5.9-5.3-.7-2.6-1.4-6.3-1.6-8.2s-1.4-5.1-2.8-7.1c-2.5-3.8-26.7-27.3-30.2-29.3-1.2-.7-4-2.5-6.3-4.1l-4.2-2.9-3.8 3.7-3.9 3.8-16.3-2.1c-9-1.2-21.6-2.5-27.9-3-10.9-.8-13.4-1.5-19.8-5.6-.1-.1 0-.9.3-1.8.6-1.3 2.7-1.4 14.8-1 7.8.2 21.2 1.1 29.7 2 8.5.8 18 1.7 21.1 1.8 4.5.2 7 1.1 12.5 4.3 3.8 2.2 8 5.1 9.4 6.4 1.4 1.4 3.3 2.9 4.2 3.4 1 .5 5.9 5 11 9.9 8.9 8.7 16.5 13.6 17.7 11.6.4-.5 1.9-1.5 3.4-2l2.8-1.1-2-2.9c-3-4.2-22.3-22.3-29.2-27.3-3.2-2.4-6-5.1-6.3-6.1-.2-1-.8-1.7-1.3-1.5-.4.1-1.8-.2-3.1-.6-1.6-.5-3.3-.1-5.9 1.5-2 1.3-3.1 2.5-2.4 2.7s2-.3 3-1.2c1.9-1.7 5.1-2.2 5.1-.7 0 .5-.9 1.3-2 1.6s-2 1-2 1.5c0 1.8 2 2 4.4.5 1.4-.9 3-1.3 3.7-.9.8.4-.1 1.4-2.6 2.7l-3.8 1.9-4.8-2.3c-2.7-1.2-4.9-2.6-4.9-3s1.4-1.9 3.2-3.3 2.9-2.8 2.6-3.2c-.4-.3-5.8-1-12-1.6-6.2-.5-20.6-1.8-31.9-2.9-11.3-1-21.7-1.9-23-1.9-1.9 0-5.8 3.1-14.5 11.5m76.6 8c1 1.2 1 1.5-.3 1.5-.8 0-2 .7-2.7 1.5s-1.9 1.5-2.7 1.5c-1 0-.8-.8.9-3 2.5-3.4 3.1-3.6 4.8-1.5m39.6 41.5c.2 2-.1 1.7-1.7-1.4-1-2.2-1.9-4.7-1.9-5.5.1-2.3 3.3 3.9 3.6 6.9m7.4-47.4c-4.6 2.5-8.7 4.7-9 5-.6.6 9 9.3 10.3 9.4 1 0 8.1-4.9 12.2-8.5 1.7-1.4 4.5-3.8 6.2-5.3 5.1-4.2 4.3-5.2-3.9-5.2-6.7.1-8 .5-15.8 4.6m21 2.1c-3 3.1-8.3 7.4-11.7 9.6-4 2.5-6 4.4-5.6 5.3.3.8.8 1.4 1.2 1.4s3.1 2.3 6 5c4.7 4.5 12.7 10 14.4 10 .4 0 5.3-4.5 10.9-10 5.7-5.5 10.6-10 11.1-10 .4 0 .7-.7.7-1.5s2.1-2.6 4.8-3.9c3-1.6 4.2-2.6 3.2-2.9-7.5-2.6-27.7-8.7-28.5-8.7-.5.1-3.5 2.6-6.5 5.7"/>
        <path d="M296.6 94.8c-.4.7-.3 1.2.3 1.2s1.6 1 2.2 2.2c1.1 2.1 1.1 2.2-.5.9-.9-.8-1.7-1.2-1.9-1-2.3 4-2.7 5.2-2.2 5.7.4.4 1.1-.1 1.6-1.1.6-.9 1.9-1.7 2.9-1.7 2.5 0 2.5-2.1.2-5.1-1.3-1.5-2.1-1.9-2.6-1.1m182.7 7.4c-1.1 1.3-7 7.2-13.2 13.2-6.1 6-11.1 11-11.1 11.2 0 .1 3.5.5 7.8.9 4.2.4 8.4.9 9.4 1.1 2.7.8 2.9 3.4.4 5.9l-2.4 2.4 6.4 3.6c6.1 3.3 6.7 3.4 9.3 2.1 5.1-2.7 5.5-3.9 5.3-15.4-.3-9.4-.6-11.2-2.9-15.2-1.4-2.5-3.4-6.2-4.5-8.3-1-2-2-3.7-2.1-3.7-.2 0-1.3 1-2.4 2.2m-175.9-.4c.3.3 5.1.9 10.6 1.3 5.6.4 11.7 1.3 13.6 1.9 1.9.7 3.7 1 4 .7.2-.2-1.9-1.1-4.8-2-5-1.5-24.5-3.1-23.4-1.9m69.9 1.4c-.8 1-.7 1.9.7 3.5 3.5 4.4 5.6 1.9 2.2-2.5-1.5-1.9-2-2.1-2.9-1m-117.9 6.1c-2.2 2.4-6.8 7.6-10.4 11.7-3.6 4-8.9 9.8-11.7 12.9-2.9 3.1-5.3 5.9-5.3 6.3 0 .5 1.2.8 2.8.8 1.9-.1 3.5-1.1 5.5-3.7 1.5-2 7.7-8.9 13.8-15.4s12-13 13.1-14.4l1.9-2.5h-2.9c-2.2 0-3.9 1.1-6.8 4.3m86.7-3.9c.2.2 4.7.6 9.9.9 6.8.4 8.1.3 4.5-.3-5.2-.9-15.2-1.3-14.4-.6m-90.2 17.7c-9 9.4-16.5 17.6-16.7 18.2-.2.7 3.2-2.5 7.6-7.1l8-8.3.4 3.1c.4 2.7-.1 3.8-3.9 7.3-2.3 2.2-4.3 4.4-4.3 4.9 0 2.1 7.8.7 11.4-2 3.5-2.6 4.2-2.8 9.5-2.1 9.2 1.3 29.9 3.7 40.6 4.9 23.3 2.6 34.3 5.5 40.2 10.6 2.8 2.5 17.3 31.6 17.3 34.9 0 1.6 6.6 7.5 8.3 7.5.7 0 2.4 1 3.8 2.3 2 1.7 3.2 4.6 5.3 13.2 1.5 6 3.1 11.4 3.5 11.8s2.1 1 3.7 1.3c1.6.2 3.5.7 4.2.9.7.3 1.2-.5 1.2-1.9 0-3.4-8-27.7-9.8-29.9-.8-.9-3.3-2.2-5.6-2.8-4.1-1.1-8.4-3.5-7.8-4.4.2-.3-.8-3.6-2.3-7.4-2-5.3-2.3-7.4-1.6-9.4.7-1.7.6-4.1-.4-7.8-.8-2.9-1.3-5.4-1.1-5.6.1-.1 1.6 1.2 3.3 3 2.7 2.7 8 14.4 10.7 23.4.7 2.3 3.3 4.9 4.1 4.1.3-.3 0-2.9-.6-5.9s-1.3-6.6-1.4-8c-.6-5.3-4.7-10.8-17.1-22.8-11.2-10.7-27.9-24.1-30.2-24.1-.4 0-2.1 1.6-3.8 3.7l-3.1 3.6-11.9-1.1c-39.4-3.8-51.3-5.5-54-7.7-1.9-1.5-2.5-2.7-2.1-4 .7-1.6 1.9-1.7 16.5-1.1 19.9.9 37.8 2.3 46.5 3.8 5 .8 7.3.8 9.2 0 1.4-.6 2.5-.8 2.5-.3s2.9 2.5 6.5 4.5c7.7 4.2 14.6 9.7 28 22.3 10.9 10.2 17.5 14.2 19.6 11.7.6-.8 1.8-1.4 2.6-1.4.7 0 1.6-.7 1.9-1.5.7-1.8-10.9-14.7-20.7-23-3.9-3.3-7.8-6.8-8.7-7.8-.9-.9-2-1.7-2.5-1.7-.4 0-3.5-2.3-6.8-5-3.3-2.8-6.3-5-6.7-5-.9 0-8.2 4.9-8.2 5.5s3.1-.6 5.8-2.3c1.2-.8 2.2-1 2.2-.6 0 .5-1 1.5-2.1 2.3-1.8 1-1.9 1.5-.8 2.2.9.5 2.3.2 3.7-.7 2.4-1.6 5.2-1.3 5.2.6 0 1.7-6.9 4.2-9.3 3.4-1.2-.4-3.6-1.6-5.3-2.7l-3.1-2.1 2.9-2.4c1.6-1.4 2.6-2.8 2.1-3.2-.4-.4-6.6-1.5-13.8-2.4-7.1-.9-21.5-2.7-31.9-4.1-10.3-1.4-20-2.5-21.5-2.5-2.2 0-5.8 3.2-19.2 17.1m8.7 2.8c3 1.9 9.4 2.8 35.4 5.1 6.3.6 16.4 1.7 22.5 2.6l10.9 1.6 1.8-2.2c1.5-1.8 2.5-2.1 5-1.6 5.3 1.1 21.6 15.9 24.2 22 2.7 6.6 3.8 13.3 2.5 15.7l-1.2 2.3-1.8-2.3c-1-1.2-1.6-2.7-1.3-3.4 1.1-3.1-15.3-23.4-18.1-22.3-.6.2-3.6-.4-6.7-1.5-3-1-12.6-2.7-21.4-3.8-29.1-3.6-50.9-6.1-53.4-6.1-3.3 0-7.7-6.4-6-8.6.9-1 1.7-1.1 2.9-.3.9.5 3 1.8 4.7 2.8m73.6 3.9c-1.1.2-2.6 1-3.2 1.8-1.2 1.4-4 2-4 .8 0-.3 1.2-1.8 2.8-3.4 2.5-2.6 2.8-2.7 4.6-1.1s1.8 1.6-.2 1.9m-80.2.2c.9 1.6.8 1.8-.5 1.4-.8-.4-1.5-1.2-1.5-2 0-2 .7-1.7 2 .6m121.7 36.7c2.1 5.1.8 5.2-1.6.2-2.4-4.9-2.5-5.3-1-4.3.6.3 1.8 2.2 2.6 4.1"/>
        <path d="M333.3 136.6c-.8 2.2 3.3 6.2 4.8 4.7.9-.9.8-1.8-.5-3.7-1.9-3-3.4-3.3-4.3-1m1.5-29.9c1.2.2 3 .2 4 0 .9-.3-.1-.5-2.3-.4-2.2 0-3 .2-1.7.4m28 1c.6.2 1.8.2 2.5 0 .6-.3.1-.5-1.3-.5s-1.9.2-1.2.5m-19.3 3.3c3.4.5 6.4.4 7-.1.5-.5-1.8-.8-6-.8l-7 .2zm10.5.5c-1.1 1.3-.6 2.2 3.3 6 3.7 3.7 5.8 4.8 11.1 6.2 6.1 1.5 6.7 1.4 9.1-.1 1.4-.9 2.5-2.2 2.5-3 0-1.4-4.9-4-13.5-7.4-7.9-3.1-11-3.5-12.5-1.7m25-.7c0 .5 1.7 2.2 3.8 3.9s5.8 5.8 8.2 9.1c2.5 3.4 4.6 5.9 4.9 5.7.2-.3-.5-1.6-1.5-3.1-1.1-1.5-2.6-3.8-3.5-5.1-1-1.4-3.6-4.5-5.9-6.9q-6-6.3-6-3.6m2.4 13.6c-2.3 1.8-1.2 3.1 3.4 4.1 3.6.7 3.9 0 1.6-3.3-1.8-2.6-2.4-2.7-5-.8m42.7 1.8-3.2 2.1 2.3 2.5c10.7 11.8 14.1 14.6 31.1 26.1 5.8 3.9 9 5.3 12.5 5.7 4.7.6 4.7.5 7-3.6 1.3-2.3 2.2-4.3 2-4.4-1-.8-18.8-10.6-19.3-10.6-.4 0-7.8-5-23.2-15.7l-5.9-4.1z"/>
        <path d="M420.3 143.4c1.1 8 1.6 8.5 14.1 15.9 6.3 3.8 5.9 4.8-.6 1.3-4.9-2.7-7.3-3.5-9.2-3-3 .7-2.5 2.4.7 2.2 1.2-.1 5.4 1.6 9.2 3.8 3.9 2.1 11.3 6.1 16.5 8.8 14.1 7.1 13.2 5.9 14.6 18.8.8 8.2 1.6 11.5 2.8 12.3 1.5 1.1 1.4 1.4-1.1 3-1.5 1-4.6 2-7 2.3-2.4.2-4.3.9-4.3 1.4 0 .6 1 .8 2.3.5 6.5-1.5 8.7-1.5 4 0-4.8 1.4-5.3 1.9-5.3 4.5 0 2.3.4 2.8 1.8 2.4.9-.3 4.9-1.2 8.7-2 6.1-1.3 7.5-2 10.6-5.5 2-2.3 4.2-4.1 4.8-4.1 1.5 0 1.4-4.5-.5-18.1-.8-6.3-1.5-14-1.6-17.2 0-3.1-.4-5.9-.8-6.2-1.5-.9-8 7.4-8 10.3 0 3.5 2.2 24.6 2.6 25.1.2.2 1.2-.2 2.1-1 1.7-1.3 1.7-1.3.1.7-1 1.1-1.8 2.6-1.8 3.2s-.9 1.6-2 2.2c-2.4 1.3-2.4 1-3.9-15-.8-8.3-1.5-11.6-2.6-12.3-.9-.5-1.5-2.3-1.5-4.5l-.1-3.7-11.2-5.4c-6.2-2.9-15.5-7.4-20.7-10l-9.5-4.7-.9-5.2c-1.2-6.3-3.1-7.1-2.3-.8m22.2 18.1c3.9 3.2 2.9 3.2-1.5 0-1.9-1.4-3-2.5-2.4-2.5.5.1 2.3 1.2 3.9 2.5m8.5 5.9c.7.9 1.9 1.6 2.7 1.6 1.2 0 1.3-.3.3-1.4-.8-1.1.4-.8 4.2.7 6.6 2.7 6.1 2.4 5.3 3.7-.4.7-1.5.4-3.2-1-3.9-3.1-6.5-2.6-2.8.6l3 2.6-5-2.8c-5.1-2.8-12.2-8.7-7.9-6.6 1.1.6 2.6 1.8 3.4 2.6m19.5 40.6c-.3.5-1.2 1-1.8 1-.7 0-.6-.4.3-1 1.9-1.2 2.3-1.2 1.5 0m-288-45.4c-9.9 9.6-20.9 19.5-24.5 22s-11.2 7.9-17 12c-5.8 4-12.9 9-15.7 10.9-2.9 2-5.3 4-5.3 4.5s-.6.7-1.3.4c-.7-.2-2.1.4-3.1 1.5-2.2 2.4-1.9 4.2 6.5 47.8.9 4.5 1.4 5.3 4.1 6.2 1.7.6 3.3 1 3.4.8.2-.1-.5-4.3-1.5-9.2-4.9-23.9-8.2-42.6-7.8-44.2.3-1.3.5-1.2.6.6 0 1.3.8 5.1 1.7 8.4.9 3.4 2.2 9.5 2.9 13.7.8 4.1 2.5 12.7 3.8 19 2.4 11.3 2.5 11.4 5.6 12.3 2.2.5 3.7.4 4.7-.4 2.1-1.7 1.7-2.6-1.5-3.2-3.9-.8-5.7-6.3-7.7-24.2-.3-3.3-1.5-10.5-2.5-16-1.5-7.9-1.6-10.2-.6-11.2 1.6-1.6 25.6-18.2 33.2-23 3.3-2.1 12.4-10.3 20.5-18.4 8-8.1 18-17.7 22.3-21.3l7.9-6.6h-5.4l-5.3.1z"/>
        <path d="M206.4 151.3c-3.9 3-8.9 7.3-11 9.7-7.9 8.8-30.2 31-31.1 31-.6 0-4.4 2.2-8.6 5-4.2 2.7-7.9 5-8.3 5-.9 0-11 7.6-14.4 10.9-3.4 3.2-.3 2.1 5.3-1.9 8.2-5.9 20.7-14 21.8-14 .5 0 2.7-.9 4.8-1.9l3.8-2-.9 6.2c-1.9 14.1-2.9 15.5-14.3 18.9-3.8 1.1-7.4 2.5-8 3-2.3 2.2 16.1-3.7 18.7-6 2.4-2 4.6-8.6 5.3-15.9.8-8.7 3.3-12.4 18-28 9.6-10.1 13.1-13.1 14-12.3.7.6 9 1.3 19.6 1.6 18.8.5 32.8 1.6 47.8 3.9 5.8.9 9 1 10.1.3 1.2-.8 2.7-.4 5.9 1.6 2.3 1.5 5.8 3.6 7.7 4.7 3.9 2.1 5.5 3.4 8.7 6.5 1.2 1.1 2.9 2.5 3.9 3 .9.5 6.9 5.8 13.3 11.9 11.1 10.3 20.2 16.6 21.4 14.6.3-.4 2.1-1.6 3.9-2.5 1.7-.9 3.2-2 3.2-2.4 0-1.1-20.5-22-26.5-27-2.7-2.3-9.2-7.4-14.3-11.3l-9.4-7.2-4.4 2.2c-4.3 2.2-6.4 4.1-4.5 4.1.5 0 2.6-1 4.6-2.1 4.2-2.5 6.1-1.6 2.5 1.1-3.3 2.5-1.8 3.7 2.6 2.1 5.2-1.9 6.5 0 1.9 2.8-2 1.1-4 2.1-4.4 2.1-.8 0-12.1-6-12.1-6.4 0-.2 1.8-1.6 4-3.1s4-3.1 4-3.6c0-1.5-11.1-4.9-15.9-4.9-2.7 0-7.2-.4-10-1-5-.9-20.5-2.2-41.6-3.5l-10-.6zm86.1-4.3c-.9 1.4-1.1 1.3 5.5 4.2l5.5 2.5 3.2-2.6 3.3-2.6-2.7-.7c-5.9-1.6-14-2-14.8-.8m17 5c-2.2 2.3-2.5 3-1.2 3 1.5 0 4.8 1 21.9 6.6 4.5 1.5 4.8 1.5 7.7-.7 1.7-1.3 3.1-2.8 3.1-3.5 0-2.8-8.3-6.2-17.5-7.3-11.7-1.4-10.7-1.5-14 1.9m83 1.9c-.7 1.2 1.2 2.4 2.5 1.6 1.1-.7.4-2.5-1-2.5-.5 0-1.1.4-1.5.9m6.2 3.8c-.4.3-.7 1.1-.7 1.7s.5.5 1.2-.2c.6-.6.9-1.4.7-1.7-.3-.3-.9-.2-1.2.2m-9.9 2.9c-1.6.8-2.8 2-2.8 2.7 0 2.1 17.1 18.1 26 24.3 15.6 10.9 16.4 11.3 21.7 12l5.1.6 2.6-4.1c1.4-2.2 2.6-4.3 2.6-4.5 0-.5-9.3-5.7-18-10.2-3-1.5-8-4.6-11-6.8-3-2.3-6.2-4.6-7.1-5.1-.9-.6-4.8-3.1-8.6-5.8-3.9-2.6-7.2-4.7-7.4-4.7-.2.1-1.6.8-3.1 1.6m-47.6 1.6c-1.8 1.8-1.5 2.5 1.9 3.7 2.3.8 2.9.8 2.5-.2-.3-.6-.9-2-1.2-3-.7-2-1.6-2.1-3.2-.5"/>
        <path d="M197 164c0 .5 1.5 1.7 3.3 2.6 1.7.9 3.9 2.2 4.7 2.9.9.8 7 1.7 15 2.4 13 1.1 31 3 49.2 5.2 8.3 1 8.9 1 11.9-1.2 2.8-1.9 3.5-2 7-1 2.1.7 3.9 1.5 3.9 2 0 .4 2.8 3 6.2 5.7 11 8.6 13.3 11.6 16.3 20.9 2.5 7.5 2.6 8.9 1.5 11.3l-1.3 2.7-2.4-5.5c-3.9-8.7-17.9-25-21.5-25-1.2 0-1.8-.8-1.8-2.3-.1-3.1-2.6-6.1-4.5-5.4-1.8.7-2 2.8-.3 4.5.9.9.4 1-2.1.2-1.7-.5-8.7-1.4-15.4-2s-21-2-31.7-3-23.1-2-27.5-2.2l-8-.3-1.7-3.8c-2.1-4.5-4.3-4.4-4.3.1 0 2.3-1.1 4.1-4.7 7.7-2.7 2.6-4.8 5.5-4.8 6.4 0 1-1 2.6-2.1 3.7l-2.2 1.9.7-3c.5-2.2.4-2.6-.4-1.5-.5.8-1 2.7-1 4.3 0 1.5-.4 3.5-1 4.5-.5.9-1.2 5.1-1.5 9.3l-.6 7.7-8 8.3c-7.4 8-7.9 8.6-7.8 12.9 0 6.5 2.2 17.5 3.5 17.5.6 0 2.7-1.5 4.8-3.3l3.7-3.2-1.2-8.5-1.2-8.4 4.5-5.3c6-7.1 6.8-8.8 6.8-15 0-8.9 1.4-11.9 9.5-20.3 4.1-4.4 7.5-8.3 7.5-8.8s.6-.4 1.4.2c.8.7 6.5 1.6 12.8 2.1 6.2.5 18.5 1.6 27.3 2.5 8.8.8 21.1 2 27.4 2.6 14.3 1.3 18.4 2.6 25.3 7.7 6.7 4.9 10.8 10 14.9 18.3 1.8 3.5 3.5 6.6 3.9 6.9s1 2.3 1.4 4.5 1.8 7 3.2 10.7c2.3 5.9 3 6.9 6.8 8.7 2.3 1.2 4.7 2.1 5.4 2.1 1.3 0 5.4 12.9 7.8 25 1.6 8.2 1.6 24.2 0 28-.4.8-3.1 2.5-6 3.8-5.3 2.3-5.4 2.5-7.5 9.2-1.2 3.8-2.5 8.6-2.8 10.7-.8 5.5-3 9.4-7 12.9l-3.5 3.1 2.1 4c2.4 4.7 4.7 7.3 6.6 7.3 1.3 0 .8-3.8-.9-8.1-.5-1-.1-1.9.7-2.2 2.2-.8 6-9.9 8.7-20.5 2.1-8 2.8-9.6 5.7-11.8 1.8-1.4 3.1-3 2.8-3.5-.4-.5-.3-.9 0-.9 1 0 3 2.3 4.4 4.8 1.4 2.7 5.1 3 5.1.4 0-1-.7-2.7-1.5-3.8-1.6-2.2-2-7.4-.5-7.4.6 0 1 .6 1 1.2.1.9.4.8 1.3-.2.7-.8 2.3-1.5 3.7-1.5 1.6 0 2.5-.5 2.4-1.5-.3-3-2.7-17.8-4.9-30-1.3-6.9-2.6-14.1-3-16.2-.7-4.5-3.7-7-16.2-13.4-4.6-2.5-8.9-12.8-8.5-20.9.1-3.4-.4-8.2-1.2-10.8l-1.4-4.8 3.9 4.1c2.1 2.2 3.9 4.2 3.9 4.5s.9 2.4 1.9 4.8c1.1 2.3 3.4 7.9 5.1 12.5 2.9 7.5 5.1 10.5 6.6 8.9.4-.3-.1-2.8-1-5.4-.9-2.7-1.8-6.7-2-8.9-.5-6.8-3.4-11-16.1-23.1-16-15.5-21.3-20.3-21.9-20.3-.3 0-3.1-1.8-6.2-4-3.2-2.2-6.2-4-6.9-4-.6 0-2.8 1.8-4.9 4-2.7 2.9-4.4 3.9-5.9 3.5-3.2-.6-19.3-2.3-43-4.5-19.9-1.8-21.1-2.1-25.8-5-5.4-3.3-5.9-3.5-5.9-2m89 8.3c0 .4-.5.5-1.1.2-.6-.4-2.1.3-3.4 1.5-3.6 3.4-5.2 2-2.1-1.8 2.4-2.7 3-3 4.7-1.9 1 .6 1.9 1.5 1.9 2m-89 .6c1.6 3 1.2 3.6-1 1.6-2.1-1.9-2.6-3.5-1-3.5.5 0 1.4.9 2 1.9m132.1 39.3c2.2 4.1 3.2 9.1 1.8 8.2-.4-.2-1.4-2.3-2.2-4.7-.8-2.3-1.8-5-2.2-6-1.4-3.4.5-1.6 2.6 2.5m56-33.6c-.2 8.6 1 10 17.7 19.9 3.4 2 10.2 6.8 10.2 7.1 0 .6-5.4-2-9-4.3-1.9-1.3-3.8-2.3-4.2-2.3s-2.7-1.4-5.1-3c-5-3.4-7.8-4.1-5.6-1.4 1.8 2.2 6.4 5 18.4 11.4 15.4 8.1 23 12.2 23.3 12.5.2.2.9 5.1 1.7 11s2.1 11.8 3 13.2c.9 1.3 1.3 2.8 1 3.3-.8 1.4-6.8 3-13.6 3.8-5.8.6-6.3.9-6.2 2.9 0 1.3.1 3.4.2 4.8.1 2.5.2 2.5 5.9 1.9 3.1-.3 8.7-1 12.4-1.5 6.6-1.1 6.8-1.2 12.3-7.6 3.4-4 5.4-7.2 5.1-8.2-.3-.9-1-9-1.6-18.1-1.2-18.1-2-27-2.7-27-.2 0-3 2.8-6.1 6.2-3.8 4-5.6 6.8-5.4 8.2.3 2.5 4.2 25.2 4.8 28.4l.5 2.2 2.4-2.6 2.5-2.7v3c0 1.7-.8 3.8-2 4.8-1.1 1-2 3.1-2 4.7s-.5 2.8-1.3 2.8c-1.4 0-4.8-3.6-4.1-4.3.5-.5-2.2-21.9-3.2-25.1-.4-1 0-2.2.7-2.7 1.1-.6 1-1.1-.4-2.7-.9-1-2-3.2-2.3-4.9-.4-2.2-1.1-2.9-2.3-2.7-.9.3-3.6-.9-6.1-2.6-5.2-3.4-4.7-3.9 1-1 4.3 2.2 7 2.6 7 1 0-.6-.6-1-1.3-1-.8 0-4.9-1.8-9.3-3.9-4.3-2.2-13.6-6.7-20.6-10.1-10.9-5.2-12.9-6.5-13.4-8.8-.3-1.5-1-4.1-1.4-5.7-.8-2.9-.8-2.8-.9 1.1m20.5 18.6 1.9 2.1-3-1.8c-4.1-2.6-4-2.5-2.3-2.5.8 0 2.3 1 3.4 2.2m14.2 9.1c10.3 6.7 13 9.7 5.5 5.9-3.4-1.8-19.3-14.1-16.8-13.1.6.2 5.7 3.5 11.3 7.2m32.4-23.1c-.7.7-1.2 3.6-1.2 6.5 0 4.4.5 5.8 3.1 8.8 1.8 2 3.4 3.3 3.7 3s-.5-1.6-1.7-2.9c-2.2-2.4-4.1-8.1-4-12.1.1-1.1.6.2 1.3 3l1.3 5 .4-6.3c.4-6.2-.4-7.5-2.9-5m6.4.6c-.3.5 0 4.1.6 8.1 1.4 9.3 3.4 8.2 2.3-1.3-.6-6.2-1.7-8.7-2.9-6.8"/>
        <path d="M247.4 189.3c-.6.7-6.1 5.7-12.2 11.2s-10.8 10.3-10.4 10.6c.4.4 3.1.9 6 1.1l5.4.5 13.4-11.3c13.4-11.3 13.4-11.3 10.2-11.8-9-1.4-11.4-1.4-12.4-.3m15 4.2c-1.9 1.8-7.6 6.8-12.8 11.1s-9.3 8.2-9 8.5c.2.3 4.5 1.1 9.6 1.8s13 1.9 17.6 2.7l8.3 1.5 6.6-6.3c3.6-3.5 7.9-7.6 9.4-9.2l2.8-2.9-2.5-2c-5.2-4.1-13.8-7.4-20.3-7.9-6-.4-6.5-.3-9.7 2.7m78.1-2.5c.3.5 1.3 1 2.1 1s1.4-.5 1.4-1c0-.6-.9-1-2.1-1-1.1 0-1.7.4-1.4 1m9.7 5.3c-2.5 2.7-2.8 3.7-.9 3.7 1.4 0 5.7-4.1 5.7-5.3 0-1.5-2.8-.6-4.8 1.6m-161.7.7c-.3.5.3 1 1.4 1s2.3-.5 2.6-1c.3-.6-.3-1-1.4-1s-2.3.4-2.6 1m167.8 2.4c-3.3 3.3-4.2 5.6-2.3 5.6 1.7 0 8.2-6.9 7.5-8-1-1.6-1.8-1.2-5.2 2.4m-197.2 5.7c-.1 5.6-1.2 6.7-8.2 7.9-6 1-16.5 4.9-13.4 4.9 2.4 0 16-3.2 19.7-4.7 3.3-1.3 4.3-4.6 3-9.3l-1-3.4zm136.3.2c-.6.7-4.4 4.2-8.3 7.9l-7.2 6.7 3.8.7c2.1.3 8 1.7 13.2 3 10.7 2.7 11.1 2.8 11.1 1.3 0-1.8-7.1-17.3-8.7-19.2-1.9-2-2.4-2.1-3.9-.4m163.9-.1c-3.5 1.2-4.4 2.8-1.6 2.8 2.4 0 8.3-2.3 8.3-3.2 0-1-2.7-.9-6.7.4M344 206.3c-1.4.7-2.6 2-2.8 2.8-.6 3.5 19.3 21.5 33.6 30.4.9.5 2.2 1.5 2.8 2.1 4 3.6 11.5 7.2 16 7.8l5.1.6 3-4.8c3.5-5.6 4.2-4.6-7.5-10.9-12.2-6.6-21.1-11.9-22.2-13.2-.3-.3-1.2-1.1-2.1-1.6-.9-.6-6.2-4-11.6-7.8-5.5-3.7-10.4-6.7-10.9-6.7s-2 .6-3.4 1.3m18.1.1c-.7.8-.8 1.7-.3 2 .6.3 1.5-.1 2.1-.8.7-.8.8-1.7.3-2-.6-.3-1.5.1-2.1.8M132 219.6c0 1.4.3 1.4 1.5.4.8-.7 1.5-1.4 1.5-1.6s-.7-.4-1.5-.4-1.5.7-1.5 1.6m286.4 2.5c-2 2.2-2.1 6.8-.3 12.6 1 3.2 5.7 7.9 6.7 6.8.3-.3-.3-1.2-1.5-2-1.8-1.3-2-2.3-1.8-10.5.1-4.9-.1-9-.5-9s-1.5.9-2.6 2.1m1.6 4.3c0 1.3.2 3.9.5 5.7.4 2.5.3 2.9-.3 1.4-1.4-3.2-2.2-9.5-1.1-9.5.5 0 .9 1.1.9 2.4m-80.5-4.3c-1 1.5.4 9.8 2.1 13.1.8 1.5 2.9 3.5 4.7 4.4 6 3.1 26.2 16.8 29.6 20.1 1.9 1.9 5.3 4.2 7.5 5.3 4.5 2.1 8.2 4.7 7.5 5.4-.2.2-5.8-2.9-12.4-7s-12.7-7.7-13.5-8.1-2.9-1.7-4.6-3-3.6-2.3-4.1-2.3c-.6 0-1.6-.7-2.4-1.6-1.6-2-6.9-4.7-7.7-3.9-1.3 1.3 8 8.2 21.8 16 2.5 1.4 5.9 3.4 7.5 4.5 1.7 1.1 4.4 2.7 6 3.6 1.7 1 4.6 3 6.6 4.6l3.6 2.9.7 10.2c.5 7.7 1.1 10.5 2.3 11.4.9.7 1.9 1.1 2.1.8.8-.7-3-36.9-4-38.1-.4-.6-.6-1.9-.2-2.8.5-1.2 0-1.6-1.7-1.6-1.3 0-5.5-1.5-9.3-3.4-32.4-15.6-38.4-18.7-39-20.2-.3-.8-.6-3.5-.6-5.9 0-4.4-1.2-6.5-2.5-4.4m19 22.7c-.3.3-1.1 0-1.8-.7-.9-1-.8-1.1.6-.5 1 .3 1.5.9 1.2 1.2m6 2.7c1.7 1.4 2.6 2.5 2 2.5-.5 0-2.3-1.1-4-2.5-1.6-1.3-2.5-2.4-2-2.4.6 0 2.4 1.1 4 2.4m17.5 11.4c3 1.7 7.8 6.1 6.5 6.1-1.5 0-11.1-6.3-15.6-10.3l-5.4-4.8 5.5 3.5c3 2 7.1 4.5 9 5.5m4.5-1.8c3.9 1.7 3.8 1.6 3.1 2.8-.4.6-3.1-.5-6.6-2.6-8.9-5.2-8-5.3 3.5-.2m39.4-34.4c0 .5 0 3.9.1 7.8.1 7 1.1 9.8 2.9 7.9 1.2-1.1-.8-16.4-2.1-16.4-.4 0-.8.3-.9.7m-243.4 22.9c-9.3 8-17.1 14.9-17.3 15.5-.2.5-.8.9-1.3.9s-3.8 2.4-7.3 5.2c-3.5 2.9-11.7 8.1-18.2 11.4-6.6 3.4-18.2 9.4-25.9 13.4-7.7 3.9-15.6 8.1-17.5 9.3-2.9 1.7-12.9 9.9-19 15.7-4.8 4.4-11.3 10.2-18.5 16.3-4.4 3.8-8.4 7.4-9 8-.5.7-4.1 3.9-7.9 7.2s-8.5 7.5-10.5 9.3c-2 1.9-5.1 4.5-6.9 5.9-3.6 2.8-3.8 4.1-1.8 8.6.8 1.8 3.2 8.1 5.4 14.2 2.2 6 5.5 14.4 7.2 18.5 1.8 4.1 4 9.7 5 12.4 1.1 2.7 2.6 5.6 3.5 6.6.8.9 1.5 2.1 1.5 2.7 0 2.3 5.2 5.4 13 7.8 11.3 3.4 15.4 4.5 15.8 4 .6-.5-5.4-17.8-7.7-22.4-1.2-2.2-2.1-4.7-2.1-5.5 0-.9-1.6-2-4.2-2.7-5.3-1.4-9.8-3.6-9.8-4.9 0-.5-1.4-3.8-3-7.3-4.3-9.4-4.1-10.6 3.1-14.1l6-3 11.2 1.3 11.2 1.2 7.5-8c4.1-4.4 14.7-15.9 23.5-25.7 8.8-9.7 17.2-18.6 18.7-19.7 1.6-1.2 2.8-2.5 2.8-3 0-1.7-17.1 0-24.5 2.3-7.7 2.5-25.1 10.8-30.3 14.5-10.5 7.6-32.4 28.6-35.5 34.1-1.1 2-4.4 1.7-7.8-.7-4.4-3.1-3.9-6.1 2.3-11.7 2.9-2.6 7.7-7.1 10.8-10 3-2.9 6.2-5.9 7-6.6 3.7-3.3 27.1-18.5 32.5-21.1 3.3-1.5 7.4-3.5 9-4.3 1.7-.9 3.7-1.8 4.5-2.2 6.8-3 13.3-6.8 14.1-8.2.7-1.3 18.5-13.6 32.2-22.1 2.3-1.5 9.7-7.4 25.8-20.4 15.6-12.8 42.9-35.6 42.7-35.8-.2-.1-3.2-.5-6.8-.8l-6.5-.6zM89 341.5c-1 1.2-1 1.5 0 1.5 2.2 0-.8 2.7-6.6 6-7.3 4.1-11.8 8.3-18.9 17.8-3.3 4.4-7.2 8.8-8.7 9.6-2.9 1.8-6.8 2.1-6.8.7 0-1.1 19.4-20.2 26-25.6 2.5-2 5.6-4.6 7-5.8 2.1-1.9 7.8-5.5 8.9-5.7.2 0-.2.7-.9 1.5m-58.5 35.8c1.1 1.7 3.3 3.8 4.8 4.5 2.5 1.2 2.7 1.8 2.7 7-.1 5.3-.2 5.6-1.6 3.7-.8-1.1-1.8-3.3-2.1-4.8-.3-1.6-1.4-3.2-2.4-3.5-2.2-.9-7.1-8-6.4-9.3 1.1-1.7 3-.8 5 2.4M41 402.1c0 .6-.4.7-1 .4-.5-.3-1-1.1-1-1.6 0-.6.5-.7 1-.4.6.3 1 1.1 1 1.6m12.1 7.2c5.3 1.4 7.9 3.2 7.9 5.6 0 .9.7 2.5 1.5 3.5 1.3 1.7 1.3 2.3-.1 4.4-1.2 1.9-1.3 2.6-.3 3.8 1.1 1.4.4 1.5-5.6 1.2-6.6-.3-7.1-.5-9.2-3.7-2.4-3.6-3-7.1-1.3-7.1.6 0 1.9 1.4 2.8 3 1.1 1.9 3 3.4 5.1 4 1.9.5 3.6.8 3.7.7.9-1.2 1.3-4.7.4-5.2-.5-.3-1-1.9-1-3.4 0-2.4-.7-3.1-5.7-5.4-6.3-2.7-5.5-3.3 1.8-1.4"/>
        <path d="M55 372.5c-1.1 1.3-1 1.4.4.9.9-.3 1.6-1 1.6-1.5 0-1.3-.6-1.1-2 .6M215 234c0 .6-1.1 1.5-2.4 2.1s-2.8 1.9-3.2 2.9c-.5 1-4 4.4-7.9 7.6-3.8 3.2-7.5 6.3-8.1 6.9-4.5 4.1-9.8 8.8-15.4 13.5-3.6 3-7.6 6.6-9 8s-5.4 5-8.9 8c-3.6 3-7.2 6.2-8.1 7-.8.8-4.5 4-8 7-3.6 3-9 7.8-12 10.7l-5.5 5.3h4c5.2 0 26.4 4.5 27.8 5.9 1.7 1.7 2.9 1.3 6.7-2 1.9-1.7 6.4-5.6 10-8.7 3.5-3.1 8.2-7.3 10.5-9.2 2.2-1.9 4.5-4 5-4.6.6-.6 5.7-5 11.5-9.9s11.5-9.8 12.8-10.9c1.2-1.2 3-2.8 4-3.7.9-.9 6.9-6 13.2-11.5 6.3-5.4 13.2-11.4 15.2-13.3 2.1-1.8 4.7-4.1 5.9-4.9 1.9-1.3 1.9-1.6.6-2.4-.9-.4-5.8-1.3-10.9-1.8s-12-1.4-15.3-2c-7.6-1.3-12.5-1.3-12.5 0m-78.2 3.6c-.7.6.2 3.8 2.6 9.9l1.6 4-.5-5.7c-.7-7.8-1.8-10.2-3.7-8.2"/>
        <path d="M250.9 247.3c-4.8 4.5-14.9 14-22.5 21.2-7.6 7.1-15.3 14.3-17 16-1.7 1.6-10 9.5-18.4 17.5-26.3 24.9-26.6 25.2-24 30 .6 1.2 1.8 4.6 2.6 7.6 1.2 4.8 1.2 6.4 0 12.3-.8 3.8-2.3 8.6-3.4 10.8-2.5 4.7-12.4 17-22.6 27.8l-7.5 7.9-2.1-2.7c-2.6-3.2-3.8-3.3-9.1-.7-4.2 2.2-7.3 2-8.3-.7-.4-1 2.1-4.2 8-10.2 13.7-13.6 24.4-26.5 24.4-29.4 0-.8.9-4 2.1-7.3 1.2-3.5 1.8-7.1 1.4-8.8-1.2-6.4-8.4-12.2-17.4-14-3.6-.6-3.4-.8-13.1 10-1.9 2.1-9.8 10.9-17.4 19.4-7.7 8.5-16.4 18-19.3 21s-5.3 6-5.3 6.6c0 .7 2.4 1.5 5.6 1.9 4.8.6 6.2 1.3 9.8 4.9 4.5 4.4 7.6 9.7 7.6 12.7 0 2 3.5 4.3 5 3.4.5-.3 1.5-2.5 2.1-4.8 1.1-4.1 2.5-6.7 3.8-6.7s.4 13.9-1.3 20.5c-1.1 3.8-2 7.1-2 7.2-.1.1-3.2-.5-7-1.3-4.6-.9-7.3-1.1-7.9-.5-.7.7-.1 4.6 1.6 11.3 1.5 5.7 2.7 11.9 2.7 13.9 0 3.5.1 3.6 7.3 6.3 3.9 1.5 9.4 3.6 12.2 4.7 6.4 2.6 16.4 3.3 30.9 2.4l11.8-.7 2-4.7c2.9-6.7 6.5-10.1 10.5-10.1 4.7 0 9.1-2.1 13.9-6.7 4.6-4.4 24.6-22.8 31.6-29.2 4.1-3.7 9.9-11.2 13.4-17.2.6-1 1.8-2.7 2.7-3.7 1-1 1.7-2.2 1.7-2.5 0-.4 2.4-4.7 5.4-9.5 6.4-10.3 7.2-14 8-36.1l.6-14.3 5.7-6.7c3.1-3.6 9.3-10.4 13.7-15 6.3-6.6 7.1-7.7 3.6-5-2.5 1.9-8.7 7.4-13.7 12.3-5.1 4.9-9.3 8.5-9.3 7.9 0-.5.7-3.1 1.6-5.7 1.3-3.9 4.4-7.6 15.3-18.8 7.5-7.7 13.8-14.4 14-15 .3-.9-14.2 11.1-15.9 13.2-.3.3-4.7 4.1-9.8 8.3-9.1 7.8-14.2 13.3-14.2 15.6 0 .6-1.1 2.8-2.4 4.9s-2.5 4.5-2.7 5.3c-1.3 4.9-18.3 36-21.7 39.4-2.1 2.2-10.5 11.2-18.7 20-8.1 8.8-17.6 18.9-21 22.5l-6.2 6.5 1.9 7c3.3 12.8 3.7 16.6 1.9 17.3-.9.3-2 1-2.4 1.6-.6.8-1 .7-1.4-.2-.2-.6-1.1-1.2-2-1.2-1 0-1.2.6-.8 2.1.5 1.3-.1 3.7-1.5 6.4-2.2 4.3-2.3 4.4-8.9 5.2-13.9 1.6-19.8 1.1-30.6-3-5.5-2.1-12.1-4.5-14.6-5.2-3.6-1.2-4.9-2.2-6.2-5.1-1.2-2.5-1.5-4-.8-4.8.8-.9.2-1.9-1.9-3.5-4.4-3.2-3.9-4.5 1.3-3.6 2.3.4 6.3.8 8.9.9 2.5 0 4.9.4 5.3.8 1 .9-2.4 2.5-7.2 3.3-2.4.4-4.3.9-4.3 1.1 0 .3.9 2.3 2 4.5 3.9 7.5 15.8 10.8 39.2 10.9h12.7l1.9-2.8c2-2.7 2-2.7-.4-10.7-1.3-4.4-2.3-8.8-2.4-9.8 0-1.1-.7-4.3-1.5-7.2l-1.6-5.3-7.1-1.6c-10.2-2.3-15.3-2.1-17.2.6-.9 1.2-1.6 3.3-1.6 4.5 0 2-.5 2.3-3.1 2.1-2-.2-3.4.3-4 1.5-1.7 2.9-2.9 1.9-2.9-2.3 0-2.2-.7-5.7-1.5-7.7-2.2-5.1-1.9-6.2 1.3-6.1 1.5 0 3.7-.3 4.9-.7 2.1-.7 2.3-.5 1.6 2.5l-.6 3.3 9.3-.6c7.2-.5 10-1.1 12.1-2.6 1.6-1.2 3.2-2.1 3.7-2.1 1.1 0 10.6-9.4 22.2-22.1 5.2-5.6 10.9-11.7 12.5-13.4 4.8-5.1 17.4-18.4 26.2-27.8 4.6-5 9.9-11.9 12.1-16 2.2-4 5.4-9.9 7.3-13.2 9.3-17.1 11.6-20.9 14.8-25.3 1.4-1.7 3.1-3.2 3.8-3.2s1.3-.5 1.3-1c0-1.3 9.9-11.2 24.3-24.4 5.9-5.4 10.7-10.2 10.7-10.6 0-.9-24.5-6-29-6-.3 0-4.4 3.7-9.1 8.3M220.8 325c-.6 1.9-74.3 78.8-75.5 78.9-.7.1-1.3-.2-1.3-.5s.6-1.1 1.3-1.9c.6-.7 6.8-7.2 13.7-14.5 6.9-7.2 15.7-16.4 19.5-20.4 3.9-4 14.6-15.2 23.9-24.9 15.3-16 19.5-19.8 18.4-16.7m-82.4 20.2c-1.4 2.4-4 5.8-5.7 7.5-1.7 1.8-2.6 3.3-2 3.3.7 0 1.5-.5 1.9-1.1.4-.8.9-.8 1.7 0 .7.7.6 1.6-.6 2.9-.9 1-1.7 2.2-1.7 2.7 0 1.5-4.3 5.5-5.9 5.5-.9.1-5.4 3.7-9.9 8l-8.4 7.9.7 5.1c.4 2.7.4 5 .1 5s-2.6-2-5-4.5c-4.1-4.1-4.3-4.5-2.1-4.5 1.6 0 5.3-2.9 11.6-9.1 5.2-5 10.8-9.7 12.6-10.5s3.7-2.3 4.3-3.4c1-1.9.9-2-1.4-1.4-3.9.9-3.2-.9 2.3-6.1 2.9-2.7 5.9-6.9 7.3-10 1.5-3.5 2.4-4.7 2.6-3.5.2 1-.9 3.8-2.4 6.2m108.6 1.2c0 .3-.4.8-1 1.1-.5.3-1 .1-1-.4 0-.6.5-1.1 1-1.1.6 0 1 .2 1 .4m1 9.3c0 1-4.2 5.3-5.2 5.3-1.7 0-.7-2.9 1.4-4.4 2.4-1.7 3.8-2 3.8-.9m1 6.3c0 .6-1.6 1.8-3.5 2.7s-3.5 2.5-3.7 3.6c-.4 2.4-2.8 3.6-2.8 1.3 0-2.7 2.2-6.4 4.4-7.4 2.8-1.4 5.6-1.5 5.6-.2m-124.5 60.9c.3.5.1 1.2-.5 1.6-.5.3-1-.1-1-.9 0-1.8.6-2.1 1.5-.7m12 2.1c0 2-3 3.4-5.1 2.5-1.8-.8-1.7-.9.4-1.2 1.2-.3 2.2-1.1 2.2-2 0-.8.6-1.3 1.3-1.1.6.3 1.2 1.1 1.2 1.8m-3 7c-.3.5-1.2 1-2 1s-1.7-.5-2-1c-.4-.6.5-1 2-1s2.4.4 2 1M429 245c-1.4.4-4.3.9-6.5.9-4.2.1-7.4 1.5-6.3 2.7 1.2 1.1 15-1.4 16.7-3 1.3-1.4 1.3-1.6.1-1.5-.8.1-2.6.5-4 .9m-26.1 8.7-5.2 7.8 1.8 18c1 9.9 1.9 18.1 2 18.3.2.2 1.3-1.3 2.5-3.3 1.2-1.9 2.6-3.3 3.1-2.9 1.5.9 1.1 2.2-1.9 5.6-1.6 1.8-3.1 4.1-3.5 5-.9 2.4-3.6 2.3-4.5-.2-.7-2-.8-2-4.2.5-1.9 1.4-4.7 2.5-6.3 2.5-4.9 0-29 3.1-31.3 4-3.1 1.2-8.2 9.6-10.6 17.3-1.6 5.4-3.1 7.9-7 11.9-5.5 5.6-7.6 5.8-3.2.2 1.6-2 3.5-4.7 4.2-6 1.8-3.4 7.1-20.4 6.3-20.4-1.8.1-6 6.2-7.5 11-3.5 11.2-8.6 19.9-13.5 23.3-4 2.8-4.3 3.2-2.4 3.5 2.2.3 2.2.4-.7 2.8-1.6 1.4-3.4 2.3-3.9 1.9-.6-.3-2.9.4-5.1 1.5-3.4 1.7-4.7 1.9-7.3 1.1-1.8-.6-6.6-2.1-10.7-3.4s-10.1-3.2-13.3-4.1c-8.3-2.5-6.4-3 2.4-.7 4.1 1 11.1 2.7 15.6 3.6 7.9 1.7 8.4 1.7 10.3 0 1.8-1.6 1.8-1.8.2-4.1-1.2-1.7-2.7-2.3-5.2-2.4-1.9 0-6.9-1.1-11-2.4-4.1-1.4-11-3.4-15.2-4.7-7-2-9.4-3.8-7-5.3 1-.6 17.6 2.8 23.1 4.8 5.9 2.2 8.7 2.1 9.4-.4.4-1.6-.2-2.2-3.6-3-2.3-.6-6-1.7-8.2-2.4-6.7-2.4-14.3-3.8-15.6-3-2.6 1.6 2.8-5.1 10.1-12.5 1.4-1.5 5-5.5 8-9 9.4-11 11.8-12.9 13.4-10.2.4.5 3 1.7 6 2.6 5 1.6 5.5 1.6 8.7-.1l3.4-1.7-7.9-2.3c-4.3-1.2-8.3-2.7-8.9-3.3-1.7-1.7 1.8-1.3 11.6 1.3 7.3 2 8.9 2.1 9.4 1 .8-2.2-.4-4.4-2.5-4.4-1 0-4.6-1-8.1-2.1l-6.3-2.2 2.5-2.4c2.4-2.4 2.4-2.5 7.7-.9 3 .9 6.1 1.6 6.9 1.5 2.1-.1-5.8-3.8-8.1-3.9-2.2 0-2.3-1-.3-3.6.8-1 1.5-2.2 1.5-2.7 0-1.4-2.9-.7-4.2 1.2-1.2 1.7-11.8 13.7-17.8 20-1.4 1.5-4.5 5.1-7 8-2.5 3-5.5 6.3-6.6 7.5-1.2 1.1-6.7 7.2-12.3 13.4L265 336.2v7.9c0 9-.6 8.3 10.5 11.5 2.8.7 9.5 2.8 15 4.5 10.4 3.2 21.5 6.5 25 7.4 1.5.4 4.4-1.8 11.9-9.1 5.5-5.3 11.7-10.7 13.8-12.1 4.4-2.7 11.4-13 12.4-18.1.5-2.6.1-4.1-1.6-6.4-3.3-4.5-2.2-5.5 6.7-6.3 4.3-.4 15.2-1.8 24.1-3l16.4-2.4 6.8-7.1 6.9-7-1-15.8c-.6-8.6-.8-17.5-.5-19.7.6-5.3-.6-13.7-2.1-14.2-.6-.3-3.5 3.1-6.4 7.4m-122.3 89.7c13.2 4.5 22.2 6.9 23.7 6.3 2-.7 2.9.3 1.7 1.8-1.1 1.4-5.9.5-18.5-3.4-3.8-1.1-9.2-2.7-11.9-3.4-5-1.4-7.4-3.7-3.9-3.7 1.1 0 5.1 1.1 8.9 2.4m33.4 16c0 .2-.7.7-1.6 1-.8.3-1.2.2-.9-.4.6-1 2.5-1.4 2.5-.6M136.1 248.6c0 1.1.3 1.4.6.6.3-.7.2-1.6-.1-1.9-.3-.4-.6.2-.5 1.3m186-.2c-.8.9-1.1 1.9-.7 2.3.9.9 2.9-1.3 2.4-2.7-.2-.8-.8-.7-1.7.4"/>
        <path d="M292.4 253.2c-1.1 1.2-4.7 4.7-8 7.7-6.8 6.2-29.7 27.7-36 33.6-3.9 3.8-6.9 9-20.7 37-5.7 11.7-.8 3.8 6.9-11 4.2-8.3 8.3-16 9-17.3.6-1.3 4.7-5.5 9-9.5s9.3-8.6 11-10.2c4.7-4.5 24.4-22.7 28.3-26.1 2-1.8 3.2-3.7 3-4.8-.4-1.6-.6-1.5-2.5.6M138 258.8c0 1 4.5 3.2 6.5 3.2 2.3 0 1.7-1.6-1-2.8-3-1.4-5.5-1.5-5.5-.4m238.3 14.6c-2.1 2.1-2.2 2.6-1.1 9 .8 5.1 1.8 7.5 4 9.8 1.6 1.7 3.2 2.8 3.5 2.4.4-.3-.5-1.9-2-3.4-2-2.1-2.9-4.4-3.5-9-.5-3.5-.5-6.5 0-6.8.4-.3.8 1.6.9 4.3.1 8.6 1.8 9.6 1.8 1 .1-4.2.1-8 .2-8.4.1-1.5-1.7-1-3.8 1.1m7.4.3c-1 1.7 1.8 16.7 3.2 17.1 1.1.4 1.3-1 .7-7.9-.5-4.6-1-8.7-1.2-9.1-.7-1-2.2-1-2.7-.1m4.8 24.7c-1.6.8-6.8 1.6-11.5 2-7.9.6-28.3 4.3-25 4.5.8.1 8.7-.6 17.5-1.5 14.8-1.4 23.5-3.5 23.5-5.6 0-1-.8-.9-4.5.6m-44.5 2.9c0 .9.9 2.1 2 2.7s2 .7 2 .2-.9-1.7-2-2.7c-1.8-1.6-2-1.6-2-.2m13.1 26.3c-1.3 3-2.1 5.8-1.7 6.1.3.3.8 0 1.1-.8 4-11.1 4.4-14.6.6-5.3m-91.1-.1c-.6.8-1 2-.8 2.6s1.2 0 2.1-1.5c1.8-2.7.8-3.7-1.3-1.1"/>
        <path d="M223.6 339.7c-.6 1.4-.5 1.5.5.6.7-.7 1-1.5.7-1.8s-.9.2-1.2 1.2M57.5 387.9c-.5 1 7.8 3.8 15 5.1 2.2.4 7.7 1.8 12.3 3 8.3 2.4 10.4 2.2 8.6-.7-1.3-2.1-7.2-3.8-21.8-6.3-13.7-2.3-13.3-2.3-14.1-1.1m116.9 58.3c-1.2.6-2.9 2.6-3.8 4.5l-1.7 3.6 2.8-1.8c4.3-2.7 7.4-6.2 6-6.8-.7-.2-2.1 0-3.3.5"/>
    </g>
</svg>
