<svg xmlns="http://www.w3.org/2000/svg" width="682.667" height="682.667" version="1.0" viewBox="0 0 512 512">
    <g fill="#e5e5e5">
        <path d="M131.4 99.8c-10.8 8.6-26.3 24.2-33.5 33.7-55.9 73.1-55.9 171.9 0 245 7.2 9.5 22.7 25.1 33.5 33.7l9.9 7.9 4.6-5.2c4.7-5.3 6.5-7.9 5.9-8.3-3.2-2-12.9-9.8-18.7-14.9-28.6-25.9-48.5-60.7-56.8-99.6-2.5-11.6-2.7-14.4-2.7-36.1s.2-24.5 2.7-36.1c9.5-44.5 34.5-84.1 69.7-110.2 3-2.3 5.7-4.2 5.8-4.3.6-.4-1.2-3-5.9-8.3l-4.6-5.2zm233.9-1.7c-2.9 3.3-5.3 6.4-5.3 6.7 0 .4 2.2 2.2 4.8 3.9 2.6 1.8 8.4 6.6 13 10.7 29.7 26.6 49.5 61 57.9 100.5 2.5 11.6 2.7 14.4 2.7 36.1s-.2 24.5-2.7 36.1c-8.3 38.9-28.2 73.7-56.8 99.6-5.8 5.1-15.5 12.9-18.7 14.9-.6.4 1.2 3 5.9 8.3l4.6 5.2 9.9-7.9c10.8-8.6 26.3-24.2 33.5-33.7 55.9-73.1 55.9-171.9 0-245-7.2-9.5-22.7-25.1-33.4-33.7-5.4-4.3-9.9-7.8-10-7.8s-2.6 2.7-5.4 6.1"/>
        <path d="M159 128.7c-4.1 3.1-11.8 10-17 15.3-21.8 22.1-36.3 49.3-43.1 81-2 9-2.3 13.4-2.3 31s.3 22 2.3 31c3.2 15.1 7.3 26.8 14.1 40.5 7.6 15.3 17 28.3 29 40.5 8.9 9 23.5 21 25.6 21 1 0 8.9-9 8.3-9.4-6.4-4-18.4-14-24.9-20.6-19.6-19.9-33.5-45.9-39.6-74-2.7-12.2-2.7-45.8 0-58 6.1-28.1 20-54.1 39.6-74 6.5-6.6 18.5-16.6 24.9-20.6.6-.5-7.3-9.4-8.4-9.4-.5 0-4.4 2.6-8.5 5.7m180.6-1.1c-2.1 2.5-3.6 4.6-3.5 4.8 6.4 4 18.4 14 24.9 20.6 19.6 19.9 33.5 45.9 39.6 74 2.7 12.2 2.7 45.8 0 58-6.1 28.1-20 54.1-39.6 74-6.5 6.6-18.5 16.6-24.9 20.6-.6.4 7.3 9.4 8.3 9.4 2.1 0 16.7-12 25.6-21 21.8-22.1 36.3-49.3 43.1-81 2-9 2.3-13.4 2.3-31s-.3-22-2.3-31c-3.2-15.1-7.3-26.8-14.1-40.5-7.6-15.3-17-28.3-29-40.5-8.9-9-23.5-21-25.6-21-.5 0-2.7 2.1-4.8 4.6"/>
        <path d="M186.5 156.2c-14.5 10.1-30.2 27.9-38.2 43.3-9.6 18.6-13.7 35.4-13.7 56.5s4.1 37.9 13.7 56.5c8.1 15.6 24 33.5 38.6 43.4l6.3 4.3 2.9-2.8c1.6-1.5 2.9-3 2.9-3.3s-2.8-2.4-6.3-4.6c-3.4-2.2-10.5-8.2-15.8-13.5-15.4-15.2-25-31.7-30.6-52.8-2.4-8.7-2.6-11.5-2.6-27.2s.2-18.5 2.6-27.2c5.5-20.7 15.2-37.6 30.1-52.4 5-5 12-11 15.6-13.4s6.7-4.5 6.9-4.7c.5-.4-5-6.3-5.8-6.2-.3 0-3.3 1.9-6.6 4.1m129-1.2c-1.6 1.6-2.7 3.1-2.4 3.3.2.2 3.3 2.3 6.9 4.7s10.6 8.4 15.6 13.4c14.9 14.8 24.6 31.7 30.1 52.4 2.4 8.7 2.6 11.5 2.6 27.2s-.2 18.5-2.6 27.2c-5.6 21.1-15.2 37.6-30.6 52.8-5.3 5.3-12.4 11.3-15.8 13.5-3.5 2.2-6.3 4.3-6.3 4.6s1.3 1.8 2.9 3.3l2.9 2.8 6.3-4.3c14.6-9.9 30.5-27.8 38.6-43.4 9.6-18.5 13.7-35.8 13.7-57-.1-33.8-12.8-63.5-37.5-87.1-6.9-6.6-19.6-16.4-21.2-16.4-.2 0-1.6 1.3-3.2 3"/>
        <path d="M247.6 190.3c-4.4 18.2-8 33.4-8.2 33.5-.1.2-9.9-6.1-21.6-14-11.7-8-21.9-14.8-22.7-15.3-1.9-1.1-2.2-1.6 14.7 23.3 7.9 11.7 14.2 21.5 14 21.6-.1.2-15.3 3.8-33.5 8.2-18.3 4.3-33.3 8.1-33.3 8.4s15 4.1 33.3 8.4c18.2 4.4 33.4 8 33.5 8.2.2.1-6.1 9.9-14 21.6-8 11.7-14.8 21.9-15.3 22.7-1.1 1.9-1.6 2.2 23.3-14.7 11.7-7.9 21.5-14.2 21.6-14 .2.1 3.8 15.3 8.2 33.5 4.3 18.3 8.1 33.3 8.4 33.3s4.1-15 8.4-33.3c4.4-18.2 8-33.4 8.2-33.5.1-.2 9.9 6.1 21.6 14 24.9 16.9 24.4 16.6 23.3 14.7-.5-.8-7.3-11-15.3-22.7-7.9-11.7-14.2-21.5-14-21.6.1-.2 15.3-3.8 33.5-8.2 18.3-4.3 33.3-8.1 33.3-8.4s-15-4.1-33.3-8.4c-18.2-4.4-33.4-8-33.5-8.2-.2-.1 6.1-9.9 14-21.6 8-11.7 14.8-21.9 15.3-22.7 1.1-1.9 1.6-2.2-23.3 14.7-11.7 7.9-21.5 14.2-21.6 14-.2-.1-3.8-15.3-8.2-33.5-4.3-18.3-8.1-33.3-8.4-33.3s-4.1 15-8.4 33.3"/>
    </g>
</svg>
