<svg xmlns="http://www.w3.org/2000/svg" width="341.333" height="341.333" version="1.0" viewBox="0 0 256 256">
    <g fill="#e5e5e5">
        <path d="M28.7 18.7c-1.4 1.4-.5 5.1 3.8 15.3l4.3 10.5 15.6.3c9.5.1 15.6-.1 15.6-.7 0-.5-4.1-3.1-9.1-5.8-9.2-4.8-21.3-14.7-22.4-18.3-.5-1.5-1.5-2-3.9-2-1.8 0-3.6.3-3.9.7m190.3.1c0 .6-2 3.2-4.5 6-4.6 5.1-12.5 10.7-22.2 15.6-2.9 1.4-5.3 3.1-5.3 3.6 0 .7 5.6 1 15.6.8l15.6-.3 4.4-10.9c5.4-13.1 5.4-15 .2-15.4-2.1-.2-3.8.1-3.8.6M74 50.9c0 2.1-.6 3.2-2 3.6-2.8.9-2.5 3.4.6 4.5 3.2 1.3 21.9 1.3 26.2.1 3-.9 3.8-.6 9.8 4 3.6 2.7 7 4.9 7.7 4.9 1.3-.1 6.2-3.9 5.6-4.3-.2-.2-3.2-2.5-6.6-5.1-5.2-3.9-6.3-5.2-6.3-7.7V48H74zm74 0c0 2.5-1.1 3.7-6.5 7.7-3.6 2.6-6.5 5.1-6.5 5.5 0 .8 4.6 3.9 5.8 3.9.5 0 3.8-2.2 7.5-5 6-4.6 6.7-4.8 9.8-4 3.8 1.1 22.1 1.2 25.9.1 2.4-.7 4.2-4.1 2.1-4.1-1.9 0-4.2-3.2-3.6-5.1.6-1.8-.1-1.9-16.9-1.9H148zM25.4 60.1c.8 4.9 2.5 8.4 6 12.2C33.7 74.8 34 75.9 34 83v8l3.7 1.5c7.7 3.2 7.3 1.3 7.3 35.4v30.6l-5.6 3.5-5.6 3.5.5 6.3c.5 6.2.5 6.3-2.7 7.6-5.7 2.4-10.5 9.9-12.1 18.8l-.7 3.8H62l6.8-7.3c3.8-3.9 11.2-11.9 16.4-17.6l9.6-10.4-2-4.6c-7.5-17.3-7.6-38.2-.2-56.7 1.4-3.6 2.4-8.1 2.4-11v-4.9L78.7 72.7 62.5 55.9l-18.9.1H24.7zm152.7 12.6-16 16.8-.1 4.9c0 2.9 1 7.4 2.4 11 7.4 18.5 7.3 39.4-.2 56.7l-2 4.6 9.6 10.4c5.2 5.7 12.6 13.7 16.4 17.6l6.8 7.3h43.2l-.7-3.7c-1.6-9-6.4-16.5-12.1-18.9-3.2-1.3-3.2-1.4-2.7-7.6l.5-6.3-5.6-3.5-5.6-3.5v-30.6c0-34.1-.4-32.2 7.3-35.4L223 91v-8c0-7.1.3-8.2 2.6-10.7 3.5-3.8 5.2-7.3 6-12.2l.7-4.1h-38.1z"/>
        <path d="M119.9 98.5c-9.2 3-17.9 13.4-19.5 23.4-.5 3.2-1.1 4.1-2.6 4.1-3 0-5.8 1.9-5.8 3.8 0 2.7 2 4.2 5.5 4.2 2.8 0 3.4.6 5.1 4.2 2.7 6 7.9 11.5 13.8 14.6 7.4 3.9 17.8 3.8 25.8-.1 6.4-3.1 11.2-8.1 14-14.4 1.3-2.9 2.5-4.3 3.8-4.3 3.3 0 5-1.2 5-3.4 0-2.6-1.8-4.6-4.1-4.6-1.2 0-1.9-1.2-2.4-3.8C155.9 108 145 98.1 131 97.4c-3.9-.2-8.3.2-11.1 1.1m19.1 4.6c5.4 2.4 10.5 7.1 13 11.9 2.2 4.5 3.5 11 2 11-.5 0-1-1.3-1-2.8 0-4.9-4.8-13-9.6-16.3-10.1-6.9-22.5-5.9-30.9 2.6-2.8 2.8-4.8 5.8-5.5 8.7-1.9 6.7-3.1 9-2.4 4.3 2.4-16 20-25.9 34.4-19.4m2.9 4.3c4.8 3.3 8.9 9.7 9.8 15 .5 3.3.4 3.6-2 3.6-1.4 0-3.2.3-4.1.6-1.1.4-1.7-.2-2.2-2.3-2.5-10.8-13.7-15.5-22.3-9.4-3.3 2.4-6.1 7.7-6.1 11.6 0 2.5-.1 2.5-2.2 1.1-1.2-.9-3-1.6-4-1.6-3.6 0-1.5-8.6 3.6-14.6 4.5-5.4 10-7.6 18.2-7.2 5.9.3 7.8.8 11.3 3.2m-6.2 9.6c3.7 2.2 6.5 9.2 4.5 11.2-.9.9-1.2.5-1.2-1.9 0-4.6-3.6-8.3-8.7-9-3.7-.5-4.5-.2-7.3 2.5-2 2.1-3 4-3 6.1 0 1.7-.4 3.1-1 3.1-.5 0-1-1.6-1-3.6 0-2.8.8-4.4 3.4-7 4-4 9.2-4.6 14.3-1.4m-2.8 3.5c3 1.5 4.1 3.3 4.1 6.6 0 1.8-.6 2-7.7 1.7-7.7-.3-7.8-.3-7.5-2.8.2-2.7 4.4-7 6.8-7 .8 0 2.8.7 4.3 1.5m-15.2 13.9c1.3 2 3.7 4 5.8 4.7 3.3 1.2 3.5 1.6 3.5 5.6 0 5.1-.7 5.3-7.9 1.7-3.8-1.9-6.2-4-8.3-7.3-2.7-4.3-2.8-4.6-.9-4.9 1.1-.2 2.5-1 3.1-1.8 1.7-2 2.2-1.8 4.7 2m5.2-.9c1.3 1.4 2.7 2.5 3.2 2.5s.9.4.9 1c0 .5-.8.7-1.7.3-2.2-.7-6.3-4.3-6.3-5.5 0-1.5 1.5-.8 3.9 1.7m4.1-1c0 .8-.4 1.5-.9 1.5s-1.4-.7-2.1-1.5c-1-1.3-.9-1.5.9-1.5 1.2 0 2.1.6 2.1 1.5m8-.6c0 .5-.7 1.1-1.5 1.5-.9.3-1.5 0-1.5-.9 0-.8.7-1.5 1.5-1.5s1.5.4 1.5.9m3.8 1c-1.1 1.9-6.8 5.7-6.8 4.6 0-.8 6.3-6.4 7.3-6.5.4 0 .2.8-.5 1.9m9.8 1.1c2.4 0 2.4.1 1 2.8-2.1 4.1-6.6 8.2-11.1 10.3-5.9 2.7-6.5 2.5-6.5-2.5 0-3.8.3-4.5 2.4-5 1.4-.3 4-2.4 5.7-4.5 2.8-3.3 3.5-3.6 4.7-2.5.7.8 2.4 1.4 3.8 1.4m-39.1 5.2c9.4 16 32.8 14.5 41.8-2.7.9-1.7 1.6-2.4 1.7-1.7 0 2.2-2.7 6.6-6.2 9.8-5.5 5.3-9.5 6.8-17.3 6.8-10 0-18-4.8-22.6-13.7-2.9-5.5-.9-4.4 2.6 1.5m20.2 8c-.2 1.3-.4.3-.4-2.2s.2-3.5.4-2.3c.2 1.3.2 3.3 0 4.5m-36 54.1-13.8 15.2 14.1.3c13.9.3 14.1.3 15.2 2.7l1.1 2.5H145l1.2-2.5c1.1-2.4 1.3-2.5 15.2-2.7l14-.3-13.8-15c-7.6-8.3-14.5-15.2-15.4-15.4-.8-.1-3.3.8-5.6 2-3.5 2-5.5 2.4-13.3 2.4-7.9 0-9.5-.3-12.2-2.3-5.4-4-6.5-3.3-21.4 13.1m-52.2 15.1c-2.9 5-6 13.2-7 18.8l-.7 3.8h4.5c4 0 4.7-.4 6.8-3.6 3.2-4.7 12.6-11.7 22.2-16.6 4.5-2.2 7.7-4.4 7.4-5.1-.2-.8-4.8-1.3-15.5-1.5l-15.1-.3zm140.5-2.6c0 1.2 2.3 2.9 7.3 5.4 9.3 4.6 19.1 11.8 21.9 16.3 2 3.1 2.8 3.5 6.6 3.5 3.6 0 4.2-.3 4.2-2.1 0-3.3-4.8-16.6-7.5-20.9l-2.5-4h-15c-13.7 0-15 .2-15 1.8"/>
    </g>
</svg>
