<svg xmlns="http://www.w3.org/2000/svg" width="341.333" height="341.333" version="1.0" viewBox="0 0 256 256">
    <g fill="#e5e5e5">
        <path d="m84 72.2-.1 22.1 22.1 22.1 22 22.1 22-22.1 22.1-22.1-.1-22.1c-.1-12.2-.5-22.2-.9-22.2s-4.5 3.8-9 8.5l-8.3 8.5.4 6.5.4 6.5h-7.2c-8.3 0-7.5 1.1-9.5-13.2-1.1-8.3-1.4-8.9-5.5-12.9l-4.4-4.3-4.4 4.3c-4.1 4-4.4 4.6-5.5 12.9-2 14.3-1.2 13.2-9.5 13.2h-7.2l.4-6.5.4-6.5-8.3-8.5c-4.5-4.7-8.6-8.5-9-8.5s-.8 10-.9 22.2"/>
        <path d="M41 73.5v18L84.5 135l43.5 43.5 44-44 44-44V73.3c0-9.5-.3-17.3-.8-17.3-.4 0-4.9 4.2-10 9.3l-9.2 9.2v17l-34 34-34 34-34-34-34-34v-17L50.5 65 41 55.5z"/>
        <path d="M41 113.5v6L84.5 163l43.5 43.5 44-44 44-44v-5.2c0-2.9-.3-5.3-.8-5.3-.4 0-20.2 19.5-44 43.3L128 194.6 84.5 151 41 107.5z"/>
    </g>
</svg>
