<svg xmlns="http://www.w3.org/2000/svg" width="341.333" height="341.333" version="1.0" viewBox="0 0 256 256">
    <g fill="#e5e5e5">
        <path d="M103.1 9.1C35.7 23.3-6.4 91.7 11.1 158.5c2.9 11.3 6.9 20.9 8.2 19.6.6-.6 3.8-6 7.2-12.1l6.1-11-1.8-8.7c-6.1-29.8 2.9-62 23.8-85.2C64.9 49.6 82.9 37.9 97 33.5l5.5-1.7 6.5-11.5c3.6-6.3 6.7-11.9 6.8-12.4.5-1.3-1.9-1-12.7 1.2m41.9 3.7c11.5 20.3 11.2 20 15.5 21.2 17.1 5 38 21 49.3 37.7 14.4 21.3 20.3 48.7 15.7 72.9l-1.5 7.7 6.6 11.6c3.6 6.4 6.9 12 7.3 12.4.5.5 2-2.5 3.5-6.5 15.6-43.7 6.4-90.4-24.5-124.2-18.7-20.4-42-32.7-71.7-38l-3.4-.6zm-66.1 90-49.7 87.7 99.6.3c54.7.1 99.7.1 99.9-.1.5-.5-98.5-175.1-99.4-175.4-.5-.2-23.1 39.2-50.4 87.5m89.2 2.9c21.1 37.3 39.2 69.3 40.2 71l1.9 3.3h-80.7c-74.2 0-80.7-.1-80.1-1.6C50.7 175.1 128.5 38 129.1 38c.4 0 17.9 30.5 39 67.7"/>
        <path d="M123.1 66.8c-3 5.3-6.7 12-8.3 14.9l-2.9 5.1 5.8-1.3c7.4-1.8 15.3-1.8 22.6-.1 3.2.7 5.7 1.1 5.5.7-1.6-3.7-16.1-29.1-16.6-29.1-.4 0-3.1 4.4-6.1 9.8m-4.2 41.5c-5.4 2.9-10.5 10.1-11.5 16.3-2.5 17 16.4 30.8 31.6 22.9 13.1-6.8 16-25.8 5.4-35.7-6.6-6.2-17.5-7.7-25.5-3.5M76 151.2c-4.1 6.7-8.1 13.2-8.8 14.5l-1.3 2.3h34.3l-4.5-5.3c-5-5.8-7.9-11.1-9.8-17.7-.7-2.5-1.5-4.8-1.9-5.2-.3-.5-4 4.7-8 11.4m96.7-11.5c-.2.4-1.4 3.7-2.6 7.4-2.1 6.5-3.7 9.2-9.9 16.8l-3.4 4.1h34.4l-1.4-2.3c-.8-1.2-4.8-7.6-8.8-14.2-8.6-14.1-7.7-12.8-8.3-11.8M36 205.9c0 .5 3.5 4.3 7.8 8.6 46.1 45.8 122.3 45.8 168.5 0 4.2-4.3 7.7-8.1 7.7-8.6s-6.6-.9-14.7-.9h-14.7l-5.8 4.1c-8 5.6-22.7 12.3-32.8 15-12.3 3.3-35.7 3.3-48 0-10.1-2.7-24.8-9.4-32.8-15l-5.8-4.1H50.7c-8.1 0-14.7.4-14.7.9"/>
    </g>
</svg>
