<svg xmlns="http://www.w3.org/2000/svg" width="341.333" height="341.333" version="1.0" viewBox="0 0 256 256">
    <path fill="#e5e5e5" d="M125.1 33.7c-1.1 3.2-7 19.9-13 37.2-6.1 17.2-11.2 31.5-11.3 31.7-.2.1-18.2.6-40.1 1-21.8.4-39.7 1-39.7 1.3s14.2 11.2 31.5 24.1 31.4 24 31.5 24.6c0 .6-5.1 17.9-11.4 38.5-6.3 20.5-11.4 37.4-11.3 37.5s15-10.1 33.2-22.6l33-22.8 14 9.6c7.7 5.3 22.6 15.6 33 22.8 10.5 7.3 19.1 13.1 19.2 13 .1 0-5-17-11.3-37.5-6.3-20.6-11.4-37.9-11.4-38.5.1-.6 14.2-11.7 31.5-24.6s31.5-23.8 31.5-24.1-17.9-.9-39.7-1.3c-21.9-.4-39.9-.9-40.1-1-.1-.2-6.1-16.9-13.2-37.1-7-20.1-13-36.9-13.3-37.1-.2-.3-1.4 2.1-2.6 5.3"/>
</svg>
