<svg xmlns="http://www.w3.org/2000/svg" width="341.333" height="341.333" version="1.0" viewBox="0 0 256 256">
    <g fill="#e5e5e5">
        <path d="M30 14.1c-12.7 1.1-13 1.2-13 4.4V21h79v-2.9c0-2.7-.3-2.9-5.2-3.5-9.4-1.1-50-1.5-60.8-.5M6 41v15h100.9l.6-3.3c.3-1.7.5-8.4.3-14.7l-.3-11.5-50.7-.3L6 26zm1 23.9c0 .4 3.2 3.6 7 7l7 6.3V89h62v-9.9l5-2.2c4.6-2 13-9.8 13-12 0-.5-21.1-.9-47-.9s-47 .4-47 .9m85.8 18.7c-.5.4-.8 4.9-.8 9.9v9.2l5.9.6c11.1 1 21.5 7.7 26.2 16.9l1.9 3.8h90.2l-.7-3.7c-2.2-12-14.2-23.9-30.3-30-14.9-5.6-22-6.5-58.2-7-18.4-.3-33.8-.2-34.2.3M21 111.9c0 12.7.2 15 1.6 15.5.9.3 9.8.6 19.8.6h18.3l1.8-4.5c2.2-5.9 10.4-14.8 16-17.5 4-1.9 4.5-2.5 4.5-5.6V97H21z"/>
        <path d="M87.5 107.9c-7.8 2-15.1 7.7-19.2 15.4-2.6 4.7-2.5 18.8.2 24.2 4.6 9.4 13 14.7 24.2 15.3 6 .3 8 0 12.5-2 6-2.8 11-7.5 14.1-13.3 1.7-3.1 2.2-5.8 2.2-12 0-7.1-.3-8.6-3.1-13.5-6.3-11.1-19.1-17-30.9-14.1m15.4 9c14.3 7.3 15.6 26.8 2.4 35.5-14.5 9.6-34.6-2.9-31.9-19.7 1.2-7.1 6-13.6 12.1-16.3 4.5-2 12.9-1.7 17.4.5"/>
        <path d="M81.6 126.4c-.9 1.4-1.6 3-1.6 3.5 0 .9 23.9 17.6 24.4 16.9 1.6-2.1 3.6-5.4 3.6-5.9 0-.8-21-15.6-23.4-16.5-.7-.3-2 .6-3 2m46.3 4.8c0 .2-.2 3-.5 6.3-1.3 15.4-12.2 27.5-27.6 30.7l-5.8 1.2v4.1c0 2.9.6 4.7 1.9 5.9 1.9 1.7 2.3 1.7 7.3.1 2.9-.9 7.9-3.2 11-5.1l5.7-3.4 41.3.4c22.7.3 45.9.8 51.6 1.1l10.2.6v-4.2c0-3.5-.6-4.7-3.5-7.5l-3.5-3.3V131h-44c-24.2 0-44 .1-44.1.2M148 140c1.6 1.6 2 3.3 2 9.3 0 10-3.2 14.4-7.4 10.1-1.2-1.1-1.6-3.6-1.6-9.9s.4-8.8 1.6-9.9c2-2.1 3-2 5.4.4m13.4-.4c1.2 1.1 1.6 3.6 1.6 9.9s-.4 8.8-1.6 9.9c-4.2 4.2-7.4-.1-7.4-9.9s3.2-14.1 7.4-9.9m13 0c1.2 1.1 1.6 3.6 1.6 9.9s-.4 8.8-1.6 9.9c-4.2 4.2-7.4-.1-7.4-9.9s3.2-14.1 7.4-9.9m50.3-7.9c-.4.3-.7 6.4-.7 13.4 0 12.4.1 12.9 2.3 14.4 2.9 1.9 4.7 5.6 4.7 9.5 0 2.3.5 3 2 3 1.8 0 2-.7 2-6.3-.1-5.4-.5-6.6-3-9.7-2.4-2.7-3-4.4-3-8.1 0-4.2.3-4.8 2.3-5.1 1.9-.3 2.2-1 2.5-6.1l.3-5.7h-4.4c-2.4 0-4.7.3-5 .7M237 143v12h5v-24h-5zm-215.5-7.9c-.3.8-.4 20.7-.3 44.4l.3 43 32.3.3 32.2.2v-54.6l-5.3-2.2c-6.2-2.6-13.8-9.7-16.7-15.6-1.1-2.3-2.5-6.8-3.1-9.9l-1.2-5.7H44c-8.7 0-17.1-.3-18.9-.6-2.1-.5-3.2-.2-3.6.7M237 163c0 1.8.7 2 8.5 2s8.5-.2 8.5-2-.7-2-8.5-2-8.5.2-8.5 2m-57.9 32.2v16.3l5.8 9c4.6 7.3 6.2 9.1 8.4 9.3l2.7.3V179h-17zM204 209c-1.6 1.6-2 3.3-2 9.3 0 10.9.3 11.1 15 11.6 6.6.2 14.1 0 16.5-.3 3.9-.6 4.5-1.1 5.5-4.3 1.6-4.6.9-16.1-1.1-17.4-.7-.5-8.3-.9-16.6-.9-14 0-15.5.2-17.3 2m30.8 8.5c.3 8-.8 10.6-3.5 8.9-1.3-.8-1.9-2.6-2.1-6.4-.4-7.7.4-10.2 3.1-9.8 2 .3 2.2.9 2.5 7.3M21 234.4c0 1.9 1 2.8 4.8 4.4 10.8 4.6 16.3 5.7 29.2 5.6 11 0 13.5-.3 20.5-2.8 9.3-3.2 10.5-4 10.5-7.2V232H21z"/>
    </g>
</svg>
