<svg xmlns="http://www.w3.org/2000/svg" width="341.333" height="341.333" version="1.0" viewBox="0 0 256 256">
    <g fill="#e5e5e5">
        <path d="M93.1 41.5C77.6 52.7 64.4 62.2 64 62.7c-.7.7 8.3 18 10.6 20.3.6.6 7.9-.4 18.8-2.5 9.8-1.9 18.2-3.3 18.6-3s2 2.6 3.6 5.3c1.5 2.6 2.8 4.8 3 5 .2.3 26.9-17.2 28.8-18.9.8-.7-21.1-41.6-24.7-46.2-1-1.3-5.3 1.4-29.6 18.8m.7-16.2-14.6 3.2L55 45c-13.3 9-23.8 16.6-23.4 16.7.5.2 7.1-.5 14.6-1.6l13.7-1.9 24.5-17.7c20.5-14.6 26.5-19.3 24.4-18.4-.2.1-6.9 1.5-15 3.2m86.5 51.1c-16.1 11-29.1 20.7-29 21.4.4 2.2 38.2 72.1 39 72.2.5 0 13.4-10.2 28.8-22.6l27.9-22.5-1.7-3.2c-5.1-10.1-34.6-64.3-35.1-64.8-.4-.4-13.8 8.4-29.9 19.5m1.5-16.3-14.7 2.8L144.5 78C132.1 86.2 122 93.4 122 94c0 .5.4 1.2 1 1.5 1.4.9 21.1-1.6 23.6-2.9 3.5-1.9 49.3-33.7 49.9-34.7.4-.5.5-.8.3-.8-.2.1-6.9 1.4-15 3M38 66.9c-9.6 1.5-17.4 3-17.3 3.4.4 2 17.8 31.7 18.5 31.7.5 0 6.3-3.7 13-8.1 6.7-4.5 13-8.4 14-8.7 1-.2 1.8-.7 1.8-.9 0-1.1-11.3-20.3-11.9-20.2-.3.1-8.5 1.3-18.1 2.8"/>
        <path d="M80.3 104.4c-16.1 11.1-29.2 20.5-29.3 20.9 0 .5 8.8 17.2 19.6 37.2l19.7 36.4 15.6-12.6c30.6-24.8 41.1-33.4 41.1-33.7 0-.6-36.2-67.2-36.8-67.7-.4-.3-13.8 8.5-29.9 19.5m1.5-16.3-14.6 2.8-25.7 17c-14 9.4-24.8 17.1-23.8 17.1 1-.1 7.7-.9 14.9-1.9l13.1-1.7 24.4-16.8C91.7 89.7 98.6 84.7 97 85.1c-.3.1-7.1 1.4-15.2 3"/>
        <path d="M135.8 100.4c-4.2.6-8 1.4-8.3 1.8-.4.4 5.4 12 12.9 25.9s13.6 25.6 13.6 26-2.7 2.9-6 5.5-6 5.1-6 5.5.5 1.9 1.1 3.2c1 2.3 1.7 2.4 13.1 3.1 12.8.6 27.8.8 27.8.3 0-1.2-38.9-72.2-39.6-72.3-.5 0-4.4.4-8.6 1M26.2 129.5c-9.5 1.2-17.5 2.4-17.6 2.6-.2.2 7.8 15.3 17.7 33.6l18.1 33.1 17.1.7c9.3.4 18.2.5 19.8.4 2.7-.4 2.7-.4-16.7-36.4-10.6-19.7-19.7-36-20.2-36.1s-8.7.9-18.2 2.1"/>
        <path d="m198.3 171.6-8.3 6.6-24.4-.8-24.4-.7-2.2-3.8c-2.3-4.2-2.9-4.2-7.8 0l-2.2 1.9 15.7 25.1c8.7 13.8 16.1 25.1 16.5 25.1 1.1 0 52.8-48.2 52.8-49.3 0-1.3-6-10.7-6.9-10.7-.3 0-4.3 3-8.8 6.6m-88 18L97 200.1l5.2 8.2c2.8 4.5 6.8 10.9 8.8 14.2l3.7 6 19.9-.4c10.9-.2 20-.4 20.2-.6.4-.4-29.7-48-30.6-48.2-.4-.1-6.7 4.5-13.9 10.3"/>
    </g>
</svg>
