<svg xmlns="http://www.w3.org/2000/svg" width="341.333" height="341.333" version="1.0" viewBox="0 0 256 256">
    <g fill="#e5e5e5">
        <path d="M210.4 35.4C199.5 88.2 154.5 129.6 86 149.5c-12.9 3.7-35.1 8.5-49 10.6l-8.5 1.3 5.5.8c3 .5 14.3.8 25 .9 28.3.1 49.1-3.1 71.4-10.8 43.1-14.9 70.7-46.5 79-90.2 1.6-8.1 4.1-35.9 3.4-36.6-.2-.2-1.3 4.2-2.4 9.9"/>
        <path d="M117.4 41c-19.1 3.8-32.3 22.9-29.3 42.4.5 3.2 1.5 6.9 2.2 8.2 1 2 1.2 1.1 1.2-5.9 0-6.9.5-9 2.7-13.3 5.3-10.1 14.4-15.6 26-15.6 11.5 0 20.4 5.7 25.9 16.4 2.6 5.1 3.5 13.9 2 19.5-2.6 9.6-11.3 18.3-20.8 20.9-4.8 1.3-4.8 1.3-1.2 1.3 5.5.1 15.8-3.5 21.1-7.4 18.1-13.3 19.7-40.9 3.4-56.4-9.9-9.2-20.7-12.5-33.2-10.1m104.4 86.5c-8.6 3-25.2 11.4-39.3 19.8-15.5 9.2-16.6 10.5-4.5 4.8 35-16.4 47.6-7.5 36.4 25.7-2.5 7.7-11 27-12.5 28.7-.5.5-.9 1.4-.9 1.9 0 1.2 10.8-13.3 19-25.4 14.5-21.7 22.8-38.4 23.7-48.1.5-4.9.3-5.9-1.6-7.8-2.9-2.9-11.4-2.7-20.3.4M133 171.1c-38.3 10.4-84.2 31.1-116 52.2-9.9 6.6-10.6 7.3-4 4.4 15.8-7 57-18.5 104.3-29.2 8.2-1.8 15.1-3.6 15.4-3.8.5-.6 5.3-21.4 5.3-23.3 0-1.6-.2-1.6-5-.3"/>
    </g>
</svg>
