<svg xmlns="http://www.w3.org/2000/svg" width="341.333" height="341.333" version="1.0" viewBox="0 0 256 256">
    <path fill="#e5e5e5" d="M209.4 13.2c-5.5 5.7-9.5 11-12.7 16.8-4 7.6-6.7 10.7-22.4 26.1-16.9 16.6-24.9 22.9-29 22.9-1 0-2.4 1.2-3.1 2.9-2 4.6-23.9 25.2-30.9 29.1-3.5 1.9-10.1 7.3-14.8 11.9-8.2 8-8.7 8.4-11 7.1-2.2-1.2-2.7-1.1-4.5.5s-1.9 2.1-.6 3.9c1.2 1.9 1.1 2.5-1 5.6-1.3 1.9-3.5 6.4-4.9 10.1-1.7 4.3-4.1 8.2-7 11.3-3.9 4.1-4.4 4.9-3.4 6.7.9 1.8 1.7 2 4.7 1.6 6-1 9.2-5.2 13.4-17.2 1.1-3.3 2-4.2 5.3-5.3 2.2-.7 4.8-2.2 5.8-3.5 7-8.4 9.3-10.7 10.5-10.7s1.2.4-.2 2.3c-.9 1.2-3 4.5-4.7 7.4-2 3.5-4.5 6-7.2 7.5-3.5 2-4.4 3.2-6.2 8.4-2.6 7.5-5.5 10.9-27.7 32.3l-17 16.4-3.5-1.2-3.5-1.3-8.2 7.9c-4.6 4.3-9.4 8.6-10.8 9.5-1.8 1.2-2.7 2.9-3.1 5.8-.3 2.3-1.2 4.9-2.1 5.9S8 236.4 8 237.2c0 .9-.7 2.1-1.5 2.8-1.7 1.4-1.9 4.3-.5 7.1 1.3 2.4 6.2 2.5 11.5.3 3.3-1.3 3.9-1.3 5.4 0 1.1 1 2.1 1.2 3.3.5.9-.5 4.5-1.2 8-1.5 15.3-1.4 24-6.6 34.9-20.6 6.9-9 10.2-11.7 18.3-15.3 4.1-1.8 6.8-2.4 8.7-2 1.8.4 2.9.2 2.9-.4 0-1.4 3.3-1.4 4.6-.1 1.4 1.4 4.2.3 4.9-1.9.3-1 2.1-2.5 4.1-3.4 8.3-4 18.4-16.7 18.4-23.4 0-3.6 1-5.1 3-4.6 1.2.3 3.4-1 6.5-3.8 4.4-4.1 4.7-4.6 4.2-8.6-.4-3.6-.2-4.2 1.6-4.5 3-.4 3.2-2.5.3-3.2-4.7-1.2-5.5-12-1.5-20.1 2.1-4.2 4.2-6.1 13.4-11.8 2.2-1.3 8.3-6.4 13.6-11.3 5.2-4.9 13.1-11.6 17.5-14.9 4.3-3.3 11.7-9.4 16.4-13.5 4.7-4.2 13-11.4 18.5-16.2 9-7.8 27.5-26.2 27.5-27.4 0-.2-1.3.2-3 1.1-1.9 1-3 1.1-3 .5s-1.3-3-2.8-5.3c-4.3-6.3-4.4-7.3-1.7-10.3 2.5-2.7 3.2-4.4 1.8-4.4-.4 0-4.4 3.6-8.9 8.1-5.7 5.6-8.7 8-10 7.7-1.5-.3 0-2.4 7.5-10.1 7.1-7.3 9-9.7 7.5-9.7-1.1 0-3.1 1.1-4.4 2.5-3.4 3.6-5.5 3.2-6.8-1.4-.7-2.1-1.2-4.5-1.2-5.3 0-1.9-6.2-7.8-8.1-7.8-.9 0-5.1 3.7-9.5 8.2m6.6 20.5c0 .9-5.3 6.9-11.8 13.2-34.3 33.8-79 77.1-79.6 77.1-3.3 0 5.6-11.7 18.8-24.7 4.9-4.8 17.8-17.8 28.7-28.8 10.8-11 23.2-22.9 27.4-26.5s9.1-7.7 10.8-9.2c3.7-3.1 5.7-3.5 5.7-1.1m16.4 11.6c3.1 2.3 1.1 5-11.7 16.6-18.4 16.4-60.1 52-60.6 51.5-.6-.6 10.1-14.5 17.1-22.1C191.3 75.8 205.5 62 207.4 62c2.4 0 6.6-3.8 6.6-6 0-1.7 8.5-10.4 11-11.3 2.7-1 5.6-.7 7.4.6m-93.3 94.9c.1 1.3 0 4.8-.1 8-.1 3.9.5 7.1 1.9 10.3 1.2 2.6 2.1 5.2 2.1 5.8 0 2.3-6.4 7.7-9 7.7-4.2 0-4.3-1.1-.3-4.4 3.4-3.1 3.5-3.3 2.5-6.6-.7-1.9-1.4-6.8-1.7-10.8-.5-5.8-.3-7.9 1-9.8 1.9-3 3.5-3.1 3.6-.2M107.2 170c-.1 1.9-1.6 5.6-3.3 8.2-2.7 4.2-3.3 4.6-5.1 3.7-2.7-1.5-1.8-5.6 2.4-11.5 3.8-5.4 6.4-5.5 6-.4m14.2 1.9c4.1 2.4 5.1 6.1 3.6 12.9-1 4.4-2.2 6.4-5.9 10.1-2.7 2.7-6.2 5.1-8.6 5.8-6.4 2-17 4.3-19.1 4.3-1.1 0-4.8.9-8.1 2.1-6.1 2-10.3 5.7-21 18.2-3.4 4.1-5.3 4.7-5.3 1.8 0-1-.7-3.7-1.5-6.1-2-5.6-1.1-7.1 10.7-18.6C77.5 191.3 80.8 189 86 188.5c4.9-.5 7 1.9 7 8.2 0 4.7.3 4.9 6.3 3.2 3.2-.9 3.6-1.2 2.7-2.9-1.4-2.7-1.2-8.6.4-9.9.7-.6 1.4-2.2 1.4-3.5s1.5-4.9 3.3-8c3.2-5.3 3.6-5.5 7.4-5.5 2.2 0 5.3.8 6.9 1.8M106 206c0 .5-.2 1-.4 1-.3 0-.8-.5-1.1-1-.3-.6-.1-1 .4-1 .6 0 1.1.4 1.1 1m-52.2 20.7c.4 5.9-1 8-6.9 9.7-4.4 1.4-5.5 1.4-8.5.1-1.9-.8-3.4-2-3.4-2.7s2.3-3.6 5.1-6.4c4.7-4.7 5.5-5.2 9.3-5.1 4.1.2 4.1.2 4.4 4.4"/>
</svg>
