<svg xmlns="http://www.w3.org/2000/svg" width="341.333" height="341.333" version="1.0" viewBox="0 0 256 256">
    <g fill="#e5e5e5">
        <path d="m118.7 13.4-8.8 7.1 9.1.3c4.9.1 13.1.1 18.1 0l9.1-.3-8.9-7c-4.8-3.9-9-7.1-9.3-7.1-.3-.1-4.5 3-9.3 7M108 32c-4.7 1-11.6 3-15.5 4.4C85.6 39 75 44.9 75 46c0 .4 2.9 2.2 6.4 4.2l6.3 3.5 3.6-1.8c1.9-1 7.5-3.1 12.4-4.6 8-2.4 10.3-2.7 24.3-2.7s16.3.3 24.3 2.7c4.9 1.5 10.5 3.6 12.4 4.6l3.6 1.8 6.3-3.5c3.5-2 6.4-3.8 6.4-4.2 0-1.3-11-7.1-18.6-9.9-17-6.2-37.5-7.8-54.4-4.1"/>
        <path d="M49.5 50c17.3 28 25.8 45.4 30.1 61.6.1.7 2.7 2 5.6 2.9 6 2 19.1 8.6 22.8 11.5l2.5 2-2.5 2c-3.7 2.9-16.8 9.5-22.8 11.5-2.9.9-5.5 2.2-5.6 2.9-4.3 16.2-12.8 33.6-30.1 61.6-.6.9-.4 1.1.5.5 28-17.3 45.4-25.8 61.6-30.1.7-.1 2-2.7 2.9-5.6 2-6 8.6-19.1 11.5-22.8l2-2.5 2 2.5c2.9 3.7 9.5 16.8 11.5 22.8.9 2.9 2.2 5.5 2.9 5.6 16.2 4.3 33.6 12.8 61.6 30.1.9.6 1.1.4.5-.5-17.3-28-25.8-45.4-30.1-61.6-.1-.7-2.7-2-5.6-2.9-6-2-19.1-8.6-22.8-11.5l-2.5-2 2.5-2c3.7-2.9 16.8-9.5 22.8-11.5 2.9-.9 5.5-2.2 5.6-2.9 4.3-16.2 12.8-33.6 30.1-61.6.6-.9.4-1.1-.5-.5-28 17.3-45.4 25.8-61.6 30.1-.7.1-2 2.7-2.9 5.6-2 6-8.6 19.1-11.5 22.8l-2 2.5-2-2.5c-2.9-3.7-9.5-16.8-11.5-22.8-.9-2.9-2.2-5.5-2.9-5.6C95.4 75.3 78 66.8 50 49.5c-.9-.6-1.1-.4-.5.5M105 93.2c.1.7 1.5 5.1 3.3 9.8l3.3 8.6-8.6-3.3c-4.7-1.8-9.1-3.2-9.7-3.3-2.2 0-1.4-1.3 4.4-7.2s7.3-6.8 7.3-4.6m53.2 4.5c5.9 5.8 6.8 7.3 4.6 7.3-.7.1-5.1 1.5-9.8 3.3l-8.6 3.3 3.3-8.6c1.8-4.7 3.2-9.1 3.3-9.8 0-2.1 1.3-1.3 7.2 4.5m-49.8 55c-1.8 4.9-3.3 9.4-3.4 10 0 .7-.4 1.3-.8 1.3-1 0-12.7-11.8-12.1-12.3.2-.2 4-1.6 8.4-3.1 4.4-1.6 8.7-3.2 9.5-3.7s1.6-.9 1.6-.9c.1 0-1.4 3.9-3.2 8.7m54.4-1.7c2.1 0 1.3 1.3-4.5 7.2s-7.3 6.8-7.3 4.5c-.1-.6-1.5-5-3.3-9.7l-3.3-8.6 8.6 3.3c4.7 1.8 9.1 3.2 9.8 3.3"/>
        <path d="M127.8 57c-.4.8-1.6 4.7-2.8 8.7l-2.2 7.2 2.1 7.1c1.2 3.8 2.5 7 3 7 1.1 0 2.5-3.4 4.1-9.6 1.2-4.5 1.1-5.7-.8-11.5-1.1-3.5-2.3-7.3-2.5-8.4-.3-1.5-.5-1.7-.9-.5M42.2 80.3c-4.2 7-8.7 19.4-10.6 29.7-3.2 16.6-1.5 35.9 4.5 52.4C38.9 170 44.7 181 46 181c.4 0 2.2-2.9 4.2-6.4l3.5-6.3-1.8-3.6c-1-1.9-3.1-7.5-4.6-12.4-2.4-8-2.7-10.3-2.7-24.3s.3-16.3 2.7-24.3c1.5-4.9 3.6-10.5 4.5-12.4l1.9-3.5-3.4-6.4c-1.9-3.5-3.8-6.4-4.2-6.4s-2.1 2.4-3.9 5.3m163.6 1.1-3.5 6.3 1.8 3.6c1 1.9 3.1 7.5 4.6 12.4 2.4 8 2.7 10.3 2.7 24.3s-.3 16.3-2.7 24.3c-1.5 4.9-3.6 10.5-4.6 12.4l-1.8 3.6 3.5 6.3c2 3.5 3.8 6.4 4.2 6.4 1.3 0 7.1-11 9.9-18.6 8.1-22.2 8.1-46.6 0-68.8C217.1 86 211.3 75 210 75c-.4 0-2.2 2.9-4.2 6.4M13.3 119l-7.2 9 7.2 9 7.2 9.1.3-9.1c.1-4.9.1-13.1 0-18l-.3-9.1zm221.7 9c0 10.6.4 18 .9 17.5.5-.6 3.8-4.7 7.5-9.3l6.6-8.2-6.6-8.3c-3.7-4.5-7-8.6-7.5-9.2-.5-.5-.9 6.9-.9 17.5m-167-3.9c-1.4.6-4.7 1.6-7.5 2.4-2.7.7-4.3 1.5-3.5 1.8s4.7 1.5 8.7 2.7l7.2 2.2 7.1-2.1c3.8-1.2 7-2.5 7-3 0-.9-2.4-1.9-8.9-4-4.1-1.3-6.8-1.3-10.1 0m107 .9c-3 1.1-5.6 2-5.7 2-.2 0-.3.4-.3 1 0 .5 3.2 1.9 7 3.1l7.1 2.1 7.2-2.2c4-1.2 7.9-2.4 8.7-2.7s-.7-1.1-3.5-1.8c-2.7-.8-6.3-1.8-7.8-2.4-3.8-1.5-6.2-1.3-12.7.9m-50.1 51-2.1 7.1 2.2 7.2c3.2 10.4 3.2 10.5 3.7 8.2.2-1.1 1.4-4.9 2.5-8.4 1.9-5.8 2-7 .8-11.5-1.6-6.2-3-9.6-4.1-9.6-.5 0-1.8 3.2-3 7m-43.6 29.8c-3.5 2-6.3 3.8-6.3 4.2 0 1.3 11 7.1 18.6 9.9 22.2 8.1 46.6 8.1 68.8 0 7.6-2.8 18.6-8.6 18.6-9.9 0-.4-2.9-2.2-6.4-4.2-5.7-3.1-6.6-3.4-8.7-2.2-3.8 2.1-16.8 6.2-23.3 7.3-16.1 2.9-37.4 0-51.6-6.9-3.5-1.7-3.5-1.7-9.7 1.8m29.3 30.1c.5.5 4.6 3.8 9.2 7.5l8.2 6.6 8.3-6.6c4.5-3.7 8.6-7 9.2-7.5.5-.5-6.9-.9-17.5-.9s-18 .4-17.4.9"/>
    </g>
</svg>
