<svg xmlns="http://www.w3.org/2000/svg" width="341.333" height="341.333" version="1.0" viewBox="0 0 256 256">
    <g fill="#e5e5e5">
        <path d="M64 73.5c0 25.3-.4 45.5-.9 45.5s-2.7-.7-5-1.5l-4.2-1.5.3 2.6c.2 2.2 4.1 5.1 23.8 18 12.9 8.4 23.8 15.4 24.3 15.4.4 0 .6-22.2.5-49.3l-.3-49.2L85 41.7c-9.6-6.5-18.3-12.3-19.2-12.8-1.7-.9-1.8 1.5-1.8 44.6m108.5-32.8-19 12.8-.3 49.2c-.1 27.1.1 49.3.5 49.3.5 0 11.4-7 24.3-15.4 19.7-12.9 23.6-15.8 23.8-18l.3-2.6-4.2 1.5c-2.3.8-4.5 1.5-5 1.5s-1-20.5-1.1-45.5l-.3-45.5zm-37.8 25-6.8 4.5-6.5-4.1c-3.6-2.3-6.7-4.1-7-4.1-.2 0-.4 26.9-.4 59.9v59.9l6.3 4.1c3.5 2.2 6.6 4.1 7 4.1s.7-2 .7-4.4c0-4.3.1-4.5 7-9.2l7-4.8v-55.3c0-30.4-.1-55.3-.2-55.2-.2 0-3.4 2.1-7.1 4.6"/>
        <path d="M52.9 137.7c-.7 3.2-1.3 10.5-1.2 16.3.3 36.2 25.7 66.7 61.7 74.1 11.5 2.4 17.7 2.4 29.2 0 23.2-4.8 42.5-19.3 53.4-40.2 5.7-11 8.2-21.1 8.3-33.9.1-10.1-1.6-22-3.2-22-.4 0-2.9 1.4-5.6 3.1-4.8 3-4.8 3.1-2.4 4.3 1.9.9 2.5 2.2 3 6.1 1 8-.5 24.9-2.1 24.3-.4-.2-4.7-4.9-9.6-10.6-4.8-5.6-9.2-10.2-9.6-10.2-1.1 0-7.8 4.4-7.7 5 0 .3 5.6 5.4 12.4 11.5 6.9 6 12.5 11.4 12.5 11.9 0 .4-1.6 3.9-3.6 7.7-3.9 7.3-16.2 21.6-17.4 20.2-.5-.4-4.1-10.4-8.1-22.1-4-11.6-7.8-21.2-8.4-21.2-2.4 0-3.5 2.7-3.5 8.6 0 5.7.7 7.8 7.5 22.6 7.1 15.2 7.5 16.4 5.8 17.6-6.3 4.7-22.2 10.2-29.7 10.2h-3.9l.6-10.4.7-10.4-3.6-2.1c-1.9-1.2-3.8-2.1-4.1-2.1s-.2 5.6.2 12.5l.7 12.5h-3.8c-5.9 0-18.1-3.7-25.4-7.7-3.6-1.9-6.6-3.6-6.8-3.7-.1-.2 3.4-7.8 7.8-17.1 7.7-15.9 8.1-17 7.8-22.8-.2-4.7-.7-6.3-2.3-7.3-2-1.3-2.3-.6-9.5 19.7-4.1 11.6-7.9 21.6-8.3 22.2-1.2 1.9-12.9-11.2-17.1-19.2-2-3.8-3.6-7.1-3.6-7.3 0-.3 5.6-5.5 12.5-11.7S89 154.6 89 154.2s-1.7-1.8-3.7-3.1l-3.6-2.3-4.4 4.8c-2.3 2.7-6.6 7.7-9.5 11.1s-5.6 5.9-6 5.5c-1.2-1.2-2.6-14.4-2.2-20.7.5-8.1 1.2-10.5 2.9-10.5 2.8 0 1.5-1.9-2.8-4.5-2.4-1.4-4.6-2.5-5-2.5-.3 0-1.1 2.6-1.8 5.7"/>
    </g>
</svg>
