<svg xmlns="http://www.w3.org/2000/svg" width="341.333" height="341.333" version="1.0" viewBox="0 0 256 256">
    <g fill="#e5e5e5">
        <path d="M123 49.4c-1.7 6.2-3.5 11.8-3.9 12.4-.5.8-2.5.8-7.6.1-4.9-.8-8.4-.8-12.3 0-9.6 1.9-16 1.5-19.4-1.4-2.8-2.4-3.1-2.4-6.5-1-1.9.8-6.1 2.2-9.1 3l-5.6 1.4-23-10.9C23 46.9 12.5 42.1 12.4 42.3c-.2.1 7.3 8.3 16.6 18.2 16.1 17.2 16.9 18.2 17 22.1 0 3.6.5 4.4 4.3 7.1 7.9 5.8 8.8 7 8.1 11.2-.5 3.1 0 4.6 2.6 8.9 1.7 2.9 4 5.8 4.9 6.5 2.4 1.7 4.1 5 4.1 8.2 0 1.5 1.4 4.4 3 6.5 1.7 2.1 3 4.2 3 4.6 0 .5-4 6.5-8.9 13.4s-8.8 12.6-8.8 12.6c.1.1 8.1.4 17.7.7 21 .6 23 1.1 23 6.5 0 3.3.6 4.3 3.8 6.9 4.7 3.8 9.4 12.5 12 21.9 1.3 4.8 3.4 9.2 6.7 14 9.2 13.1 7.4 13 14.4.6 3.4-6 6.1-11.3 6.1-11.9s1.1-1.8 2.4-2.6c1.3-.9 3.6-3.7 5.1-6.3 2.2-3.8 2.6-5.4 2.1-8.6-.6-3.5-.3-4.3 3.6-8.9 2.3-2.7 5.6-5.9 7.4-7 2.1-1.2 3.5-3.1 3.9-5 .5-2.3 1.1-2.9 2.3-2.4 4 1.6 8.5 1.6 21.2 0 7.4-.9 13.6-1.7 13.7-1.9.1-.1-4.2-3.5-9.7-7.5-6.8-4.9-10.6-8.4-11.9-10.9-1.9-3.6-1.9-3.8.1-8.7 1.1-2.7 2.6-5.7 3.4-6.6s1.9-3.3 2.5-5.3c.8-2.8 2.3-4.5 7-7.6 5.1-3.5 5.8-4.4 5.4-6.5-.3-1.4-.7-3.5-1-4.8-.4-1.9.2-2.7 3-4 3.9-1.8 8.5-9.7 8.5-14.5 0-2.5 1.9-4.4 14.6-14.5 8.1-6.4 14-11.7 13.1-11.7s-9.4 1.6-18.9 3.6c-18.1 3.8-25.8 4.3-31.3 2-4-1.7-20.9-1.5-24.1.2-1.4.7-5.9.9-14 .4l-11.9-.7-5.4-11.3c-3-6.1-5.8-11.2-6.1-11.2-.4 0-2.2 5.1-4 11.4m64.3 29.2c5.4.8 5.9 1.7 1.9 3.3-3.6 1.5-9.2 10.9-8.5 14.3.4 2.1-.3 3-4.6 5.7-4.9 3.2-5.1 3.5-5.1 7.9v4.5l-3-2.9c-1.6-1.6-3-3.9-3-5.2 0-4.1-4.7-11.8-7.8-13.1-2.3-1-3.7-2.8-5.6-7.2-1.4-3.3-2.6-6.3-2.6-6.6s1.9-.2 4.3.2c5.6 1 11.3.7 14.9-.8 2.9-1.2 10.3-1.2 19.1-.1M76.5 81c1.9 1.8 2.7 1.9 7.6 1 8.1-1.4 23.1-3.1 23.5-2.7.2.2-.4 2.4-1.4 4.9-1.1 3-3.5 6.2-6.5 8.8-4.2 3.7-4.7 4.6-4.7 8.2 0 3.5-.6 4.7-4.2 8l-4.3 3.9-1.5-2.3c-.8-1.2-3.1-4-5-6.1-2.8-3.2-3.4-4.6-3.1-7.6.2-3.9-3.2-11.3-7-14.7-1.9-1.7-1.9-1.9-.2-2.5 3-1.2 4.6-1 6.8 1.1m56.9 7.5c5 12.3 7.1 15.8 10.5 17.8 2.7 1.6 3.1 2.4 3.1 6.2 0 3.9.4 4.7 4 7.7 5.3 4.1 8.7 9.5 7.1 11.1-.6.6-1.1 2.7-1.1 4.6-.1 2.3-1 4.7-2.5 6.6l-2.4 2.9-5.5-1.8c-4.9-1.7-6.4-1.7-14.8-.7-9.6 1.2-21.8 1.4-27.7.4l-3.4-.6.6-9.5c.5-9.4.6-9.7 4-12.6 4.3-3.9 7.7-9.5 7.7-12.9 0-1.8 1.3-3.6 4.5-6.3 2.6-2.1 4.5-4.5 4.5-5.6 0-2.6 6.2-15.9 7.3-15.5.4.1 2.3 3.8 4.1 8.2m7.3 72.3c.8.5.6 1.4-.8 3.2-5.6 7-7.3 10.6-7.4 15 0 7.1-2.4 6.3-6.8-2.4-2.1-4.1-4.9-8.6-6.3-10.1-1.3-1.4-2.4-3-2.4-3.4s4.2-1.2 9.3-1.8c12.8-1.4 13.1-1.4 14.4-.5"/>
        <path d="M126.7 103.5c-.9 2-1.7 4.2-1.7 5 0 .7-1 2.2-2.3 3.2s-2.7 3.1-3.1 4.6c-.4 1.6-1.8 3.9-3.1 5.1-1.4 1.3-2.5 3.1-2.5 4.1 0 .9-.9 2.8-2 4.2s-2 3-2 3.5c0 .6 5.3.9 13.3.7 7.2-.1 14.6.1 16.2.5 2 .5 3.6.3 4.9-.7 1.6-1.2 1.7-1.8.7-4.9-.6-1.9-2.5-4.8-4.1-6.3-1.7-1.6-3-3.9-3-5.2 0-1.2-.8-2.7-1.9-3.2-1-.6-2.9-3.6-4.1-6.8-3.1-7.7-3.3-7.9-5.3-3.8"/>
    </g>
</svg>
