<svg xmlns="http://www.w3.org/2000/svg" width="341.333" height="341.333" version="1.0" viewBox="0 0 256 256">
    <path fill="#e5e5e5" d="M77 23.6c0 .8 5.6 20.4 7.6 26.7l1.6 4.8 3.3-2.1c1.8-1.1 3.7-2 4.3-2 .5 0 2 2.6 3.2 5.7 1.3 3.2 2.6 6.1 3 6.6.3.4 1.6-2.5 2.9-6.3l2.2-7-4.1-7.8c-4-7.5-4.5-7.9-13.5-13.5C78.2 23 77 22.5 77 23.6m43.6 5.3-5.9 5.9 3.6 14.4c2 7.8 3.5 14.3 3.4 14.4s-2.8 1.5-6 3.1l-5.8 2.9L119 74l9 4.4 6.5-3.2c7.6-3.7 7.7-2.2-1.1-15.8L128 51V37c0-7.7-.4-14-.8-14s-3.4 2.7-6.6 5.9m26.4-3.2c-3.6 1.4-6.6 2.7-6.8 2.8-.1.1.9 2.6 2.2 5.6 1.4 3 2.5 4.6 2.5 3.5.1-1.8 1.1-1.8 7.4 0 1.5.5 1.7-.3 1.7-7 0-4.2-.1-7.6-.2-7.5-.2 0-3.2 1.2-6.8 2.6m20.7 15.9c-6.4 5.8-11.7 11.1-11.7 11.9 0 .7.7 4.7 1.6 8.9 1.4 7.1 1.4 8.4-.1 17.2-1 5.2-1.6 9.6-1.4 9.8s6.4-1 13.8-2.6l13.4-3 9.4-7.6c6.4-5.3 9.2-8.1 8.8-9.2-.6-1.5-20.3-33.8-21.4-35.2-.4-.4-5.9 4-12.4 9.8m-104 22.3-7.6 8.9-7.3.7c-4 .3-10.8.9-15 1.3l-7.8.7 11.6 12.7c6.4 7.1 12 12.8 12.5 12.8s3.7-2.5 7-5.6l6.2-5.7 7.1.6c3.9.4 11.5.9 16.8 1.3l9.7.7-3-9.3c-1.6-5.1-3-9.5-3.2-9.6-.2-.2-3.1.7-6.5 2-3.4 1.4-6.4 2.1-6.6 1.7-.3-.4-1.7-5.4-3.1-11.1-1.5-5.8-2.8-10.6-2.9-10.7-.1-.2-3.7 3.7-7.9 8.6M106 84.8c0 .4 1.6 5.8 3.5 12.1 2 6.3 3.4 11.8 3.3 12.3-.2.4-3.3-1.1-7-3.3l-6.8-4.1-6.7 2.7c-3.8 1.5-7.9 3.2-9.3 3.7-2.4 1-2.3 1.2 7.2 10.1l9.8 9.2-4.5 7.2c-5.1 8.3-5.6 8 8 5.9 5-.8 9.3-1.2 9.8-.9.4.2.7 4.3.8 9.1s.4 11.4.8 14.7l.6 6 3.9-9.4 4-9.3 4.5 4.8c2.5 2.7 7.2 7.7 10.4 11.2 3.1 3.5 5.7 5.8 5.7 5.3 0-1.2-2.6-19.4-3.6-25l-.5-3.3 13.3.6 13.3.7-4-3.7c-2.2-2.1-6.6-6.1-9.7-9l-5.7-5.2 13.9-12.7c7.7-6.9 14-12.8 14-13s-1.5.1-3.2.5c-1.8.5-9.1 2.5-16.3 4.5-7.1 1.9-13.5 3.5-14.1 3.5-.8 0-.4-3.4 1.2-10.7 1.2-5.9 2.1-10.9 1.9-11.1s-3.7 2-7.9 4.8l-7.4 5.3-11.6-7.2c-6.4-3.9-11.6-6.8-11.6-6.3m99.3 9.6c-8.2 6.9-35.4 33.6-34.2 33.6.3 0 6.1-2.3 12.9-5 6.8-2.8 12.8-5 13.3-5s5 2.3 9.9 5.1 9.3 4.7 9.8 4.3c.4-.5 2.4-5.2 4.3-10.4 2-5.2 4.7-12.6 6.1-16.3l2.6-6.8-7.5-3.5c-4.2-1.8-7.8-3.4-8-3.4s-4.3 3.3-9.2 7.4M34 108.2c-.1.7-1.3 7.9-2.9 16-1.5 8.2-2.7 14.8-2.5 14.8 2.2 0 23-8.4 23.9-9.7 1.2-1.6 2-1.2 9 4.1 7.7 5.8 7.8 5.8 9.4 3.8.9-1.1 3-3.8 4.8-5.9l3.2-4-6.9-5.6-6.9-5.7H44.4l-3.5-3.6c-4.2-4.4-6.9-6-6.9-4.2m163.6 25.3c-1.1.8-5.8 2.7-10.5 4.1l-8.6 2.6 7.3 6.9c3.9 3.8 7.2 7.1 7.2 7.4 0 .2-3 .5-6.7.7l-6.8.3 13.8 9.3L207 174v-7.2l.1-7.3 9.9-6.9c5.5-3.9 10-7.2 10-7.4 0-.3-26.9-13.3-27.3-13.2-.1 0-1.1.7-2.1 1.5M36 154.7l-8.5 5.7 4 .7c2.2.4 7.2 1 11 1.3l7 .6 7.2-7 7.3-7H44.5zm33 10.6v6.4l-10 2.2-10.1 2.2 4 4.7c6.2 7.4 9 9.7 9.6 8.1.2-.8 1.1-3.2 1.8-5.4l1.4-4 13.3-2.2c7.3-1.2 13.6-2.6 14-3s1.3-3.5 2-6.8 1.5-6.6 1.7-7.3c.4-.9-2.7-1.2-13.6-1.2H69zm89.1-2.6c0 1 .8 9.2 1.7 18.3l1.7 16.5 9.5 4.7 9.5 4.7.3-8.1c.2-5.8.6-7.8 1.5-7.5 4.6 2 15 6.2 19.1 7.9l4.9 1.9-3.8-4.3c-2.1-2.4-10.7-11.4-19-20.1L168.3 161h-5.2c-4.2 0-5.1.3-5 1.7M121.5 181l-4.5 9v29.5l8.5 6.8c4.6 3.7 8.6 6.7 8.9 6.7.2 0-1.5-4.9-3.9-11l-4.3-11 6.9-10.1 7-10-6.7-9.5c-3.7-5.2-6.9-9.4-7-9.4-.2 0-2.4 4-4.9 9m-20.6 1.9c-3.2 2.6-4.5 3-11 3.3l-7.4.3-3 11.7c-1.6 6.4-2.7 12-2.4 12.3.6.5 21.9-2.4 22.7-3.1.2-.1-1.5-2.6-3.8-5.5s-3.7-5.5-3.2-5.7c.6-.2 3.4.1 6.4.7 2.9.5 5.4.8 5.6.6.2-.1.2-4.1 0-8.9l-.3-8.6zm45.8 23.8c-2.1 1.5-3.6 3.2-3.3 3.9s3.5 5.4 7.3 10.3c7.6 10.2 7.6 10.2 8.8-1.1.7-6.7.7-6.7-3.1-11.2-2.1-2.5-4.3-4.6-4.9-4.5-.5 0-2.7 1.2-4.8 2.6"/>
</svg>
