<svg xmlns="http://www.w3.org/2000/svg" width="341.333" height="341.333" version="1.0" viewBox="0 0 256 256">
    <g fill="#e5e5e5">
        <path d="M101.4 28.6c-.7.3-3 2.7-5.4 5.5L91.9 39l6.5 9.8 6.6 9.7v21.1l-33.5 56.9c-18.4 31.4-33.1 57.3-32.7 57.7 1.4 1.3 86.7 33.8 88.8 33.8 2.2 0 86.2-32.5 87.6-33.8.4-.4-14.3-26.3-32.7-57.6l-33.5-57V58.5l6.6-9.7 6.6-9.8-4.7-5.5-4.7-5.5-25.2.1c-13.8 0-25.6.3-26.2.5m41.3 70.2c1.8 1.2 52.3 87.6 51.5 88.3-1.2 1.1-65.2 25.9-66.8 25.9-1.5 0-66.4-24.9-67.6-25.9-.8-.7 49.7-87.1 51.5-88.3.7-.4 7.7-.8 15.7-.8s15 .4 15.7.8"/>
        <path d="M126.3 113.7c-3 .4-4 1.9-19.9 29.6-9.2 16.1-17.6 30.6-18.6 32.3l-1.8 3.1 20.2 7.8c11.2 4.3 20.8 7.8 21.3 7.8 1.9 0 41.5-15.6 41.1-16.2-.1-.3-5-8.7-10.8-18.6s-14.1-24.3-18.4-31.9c-4.4-7.7-8.3-14-8.9-14.1-.5-.1-2.4 0-4.2.2"/>
    </g>
</svg>
