<svg xmlns="http://www.w3.org/2000/svg" width="341.333" height="341.333" version="1.0" viewBox="0 0 256 256">
    <path fill="#e5e5e5" d="M106 36.5 84.5 58l8 8 8 8 13.7-13.7L128 46.5l13.8 13.8L155.5 74l8-8 8-8L150 36.5C138.2 24.7 128.3 15 128 15s-10.2 9.7-22 21.5m-63 7.3v13.7l26 26 26 26 7.2-7.3 7.3-7.2L77 62.5C59.1 44.6 44.2 30 43.8 30c-.5 0-.8 6.2-.8 13.8m136 18.7L146.5 95l7.3 7.2 7.2 7.3 26-26 26-26V43.8c0-7.6-.3-13.8-.8-13.8-.4 0-15.3 14.6-33.2 32.5m-143 44L14.5 128l21.7 21.7L58 171.5l8-8 8-8-13.7-13.7L46.5 128l13.8-13.8L74 100.5l-7.8-7.8C62 88.5 58.2 85 58 85c-.3 0-10.2 9.7-22 21.5m153.7-13.8-7.7 7.8 13.7 13.7 13.8 13.8-13.8 13.8-13.7 13.7 8 8 8 8 21.8-21.8 21.7-21.7-21.5-21.5C208.2 94.7 198.3 85 198 85s-4 3.5-8.3 7.7M106.5 107l-21 21 21.3 21.3 21.2 21.2 21.2-21.2 21.3-21.3-21-21C138 95.5 128.3 86 128 86s-10 9.5-21.5 21m-37.8 65.8L43 198.5v13.8c0 7.5.3 13.7.8 13.7.4 0 15.3-14.6 33.2-32.5l32.5-32.5-7-7c-3.8-3.8-7.2-7-7.5-7s-12.1 11.6-26.3 25.8m84.8-18.8-7 7 32.5 32.5c17.9 17.9 32.8 32.5 33.2 32.5.5 0 .8-6.2.8-13.8v-13.7l-25.8-25.8C173.1 158.6 161.3 147 161 147s-3.7 3.2-7.5 7m-61 36-8 8 21.8 21.8 21.7 21.7 21.7-21.7 21.8-21.8-8-8-8-8-13.7 13.7-13.8 13.8-13.8-13.8-13.7-13.7z"/>
</svg>
