<svg xmlns="http://www.w3.org/2000/svg" width="341.333" height="341.333" version="1.0" viewBox="0 0 256 256">
    <g fill="#e5e5e5">
        <path d="M92 16.6c-14.3 4.8-18 8.5-24 23.6-1.6 4.3-2.7 5.8-4.1 5.8-6.9 0-12.3 6-11.8 13.1.3 3.2-.2 4.4-3 7.2-5.6 5.9-11.7 30.2-10.9 43.4.3 5.3.9 6.8 3.3 9.4 2.8 2.9 16.6 10.4 26.2 14.1 3.8 1.5 4.2 1.9 4.8 6.2.7 4.1 1.4 5.1 6.9 9.5 8.2 6.5 16.5 11.3 25.6 14.6 6 2.2 9.8 2.9 18.5 3.2 16.7.7 29-2.9 43.5-12.7 10.4-7.1 13.8-10.6 14.5-15.2.6-3.6 1.2-4.2 4.9-5.6 9.5-3.7 23.3-11.2 26.1-14.1 2.4-2.6 3-4.1 3.3-9.4.5-7.4-1.8-21.5-5.3-32.4-1.8-5.7-3.4-8.8-5.9-11.2-3-2.9-3.3-3.8-2.9-7 .9-6.9-4.6-13.1-11.6-13.1-1.4 0-2.5-1.5-4.1-5.8-6-15.2-9.7-18.8-24.2-23.6-8.6-2.9-14-3.3-18-1.2-1.9 1-3.8 1.2-7.3.5-2.6-.5-5.1-.6-5.6-.3s-.9 2.9-.9 5.9v5.4l3.8.6c18.2 2.9 33.5 12.6 43.1 27.4 6.1 9.6 8.6 18.6 8.6 31.6 0 17.3-5 29.2-17.4 41.6-8.7 8.7-18.3 14-29.1 16-3.6.6-7.1 1.3-7.7 1.5-.9.2-1.3 2.6-1.3 7.4v7h-6v-7c0-4.8-.4-7.2-1.2-7.4-.7-.2-4.2-.9-7.8-1.5-20.1-3.8-37.2-19.5-44.6-41.1-2.9-8.5-2.6-25.2.5-34.8C75.1 55.3 84 43.8 95.4 36.5c5.5-3.5 17.5-7.8 24.9-9l3.7-.6v-5.4c0-3-.4-5.6-.9-5.9s-3-.2-5.6.3c-3.5.7-5.4.5-7.3-.5-4-2-9.8-1.7-18.2 1.2M67.8 53.8C70.6 57.5 67.6 64 63 64c-2.7 0-6-3.5-6-6.3 0-5.9 7.2-8.5 10.8-3.9m126.6-.7c3.1 2.5 3.4 6.1.6 8.9-2.4 2.4-4.8 2.5-7.8.4-3.3-2.3-2.8-8.3.8-10.1 3.3-1.7 3.3-1.6 6.4.8M59.9 81.4c.8.9 1.1 5.2.9 12.6-.3 9.5-.6 11.5-2 12.4-1.3.8-2.3.8-3.5 0-1.5-.9-1.8-2.9-2.1-12.4-.3-11.6.4-14 3.8-14 1 0 2.3.6 2.9 1.4m138.5-.8c1.3.5 1.6 2.6 1.6 12.9 0 7.6-.4 12.6-1.1 13-.5.4-2.1.4-3.5.1-2.4-.6-2.4-.7-2.4-13 0-12 .3-13.2 3.2-13.5.3-.1 1.3.2 2.2.5"/>
        <path d="M114.7 38.5c-12.5 3.4-25.1 13.2-30.9 24.1-5.3 9.9-7.3 24.4-4.7 35.4 5.6 24.3 31.1 41.2 55.7 37 19.2-3.2 35.9-18.6 40.1-37 1.5-6.6 1.3-17.7-.4-24.5-4.4-16.8-18.2-30.4-35.6-35-6.6-1.8-17.7-1.8-24.2 0M76.4 157.1c1.5 7.4 2.8 11 5.1 13.7 2.2 2.6 2.5 4 2.5 10.3 0 4.1.4 7.9.8 8.5.4.5 2.8 2.5 5.3 4.3l4.6 3.2-2.3 11.2c-1.3 6.2-2.3 12.3-2.4 13.5 0 2.8 5.9 9.2 8.6 9.2.9 0 6.3 2.3 12 5.1 5.6 2.8 11.9 5.3 14 5.6 4.4.5 14.3-2.8 23.1-7.7 2.9-1.7 6.2-3 7.4-3 2.9 0 8.9-6.2 8.9-9.2-.1-1.2-1.1-7.4-2.4-13.6l-2.3-11.2 4.7-3.5c2.6-1.9 5.1-4.2 5.4-5.1s.6-4.6.6-8.4c0-4.9.4-7.1 1.6-8.1.8-.7 2.1-2.4 2.8-3.8 1.5-3 4-13 3.4-13.6-.2-.2-2.6 1.2-5.4 3.1-6.4 4.6-16.3 9.6-24.4 12.4-10 3.4-27 3.9-38 1.1-10.3-2.6-19.1-6.6-27.7-12.7l-6.6-4.5zm24.7 23c4.3 2.8 7.9 5.8 7.9 6.6 0 1.9-3.8 7.3-5.2 7.3-.6 0-3.9-2-7.4-4.6-6.2-4.3-6.4-4.7-6.4-8.8 0-7.2.6-7.2 11.1-.5m62.7 0 .3 4.7-6.7 4.7c-7.3 5.3-8.1 5.2-11.5-.2l-2-3.2 8.3-5.6c4.6-3 9-5.4 9.8-5.3 1 .2 1.6 1.8 1.8 4.9m-31.7 6.2c3 2.3 3.9 5.6 3.9 14.6 0 4.9.5 11.2 1.2 14 1.1 4.8 1 5.3-1.2 7.6-5 5.4-13 5.4-18 0-2.2-2.3-2.3-2.8-1.2-7.6.7-2.8 1.2-9.1 1.2-14 0-12.1 2.1-15.8 9-15.8 1.9 0 4.2.5 5.1 1.2"/>
    </g>
</svg>
