<svg xmlns="http://www.w3.org/2000/svg" width="341.333" height="341.333" version="1.0" viewBox="0 0 256 256">
    <g fill="#e5e5e5">
        <path d="M76.1 54.4c-28.2 28.2-51.2 51.8-51 52.3.8 1.9 45.4 41.1 45.8 40.2 1.3-3.7-1.7-8.8-14.1-24l-13.1-16.1 42.2-42.2L128 22.5l42.1 42.1 42.2 42.2-13.1 16.1c-12.4 15.2-15.4 20.3-14.1 24 .4.9 45-38.3 45.8-40.2C231.2 105.8 129.2 3 128 3c-.3 0-23.6 23.1-51.9 51.4"/>
        <path d="m120.4 57.6-6.1 2.4-2.2 7.3-2.3 7.3-14.4 4.9c-12.1 4.2-14.4 5.3-14.4 7 0 1.1 1.1 11.4 2.5 22.9l2.4 20.9-3.4 4.9c-1.9 2.6-3.5 5.8-3.5 7.1 0 3.9 7 69.1 7.8 72.1.6 2.3 1.4-1.3 3.6-15l2.9-17.9 4.2-3.7c4.1-3.7 4.4-4.1 8.1-19 2-8.4 3.9-14.8 4.1-14.3.1.6 1.1 8.3 2.2 17.1l1.9 16.1 5.6 7.5 5.6 7.5V224h-4.5c-5.1 0-5-.2-3.1 8.7 1.1 5.3 9 20.2 10.6 20.2s9.5-14.9 10.6-20.2c1.9-8.9 2-8.7-3.1-8.7H131v-31.3l5.6-7.5 5.6-7.5 1.9-16.1c1.1-8.8 2.1-16.5 2.2-17.1.2-.5 2.1 5.9 4.1 14.3 3.7 14.9 4 15.3 8.1 19l4.2 3.7 2.8 17.7c1.6 9.8 3.1 17.5 3.3 17.3.6-.5 8.1-68.7 8.2-73.2 0-2.2-1.2-4.9-3.5-8.1l-3.4-4.9 2.4-20.9c1.4-11.5 2.5-21.8 2.5-22.9 0-1.7-2.3-2.8-14.4-7l-14.4-4.9-2.3-7.3-2.2-7.3-6.6-2.5c-3.7-1.4-7.1-2.5-7.6-2.4-.6 0-3.7 1.2-7.1 2.5"/>
    </g>
</svg>
