<svg xmlns="http://www.w3.org/2000/svg" width="682.667" height="682.667" version="1.0" viewBox="0 0 512 512">
    <g fill="#e5e5e5">
        <path d="M185.3 8c-6.7 1.6-12.7 5.5-14.9 9.8l-2.1 4.1.1 148c0 81.5-.1 148.1-.4 148.1-.3.1-1.6 1-3 2.1-2.2 1.9-2.3 2.2-.7 3 1.2.7 1.5 1.7 1.1 3.5-.7 2.9-.4 2.9 4.6.5l3.9-1.9-2.1 2.9c-1.2 1.6-2.5 2.9-2.8 2.9s-1.4.6-2.4 1.3c-1.6 1.2-1.7 1.6-.5 3.8.8 1.3 1.4 2.5 1.5 2.7.1.1 2.2-.6 4.8-1.7 5.2-2.3 6.2-1.5 1.6 1.2-1.6 1-3 2.5-3 3.3 0 2.6-1.4 1.9-18.3-9.8-2.2-1.6-6.4-3.1-10.5-3.8-6.3-1.2-7.1-1.1-10.9.8-8.9 4.6-19.8 14.7-28.4 26.6-2.4 3.3-2.8 4.4-2.3 8.5.8 6.2 3.3 15.1 4.3 15.1.4 0 2.3 2.3 4.2 5 4.5 6.7 21.9 20.2 32.8 25.5 4.7 2.3 13.9 6.1 20.4 8.5l11.7 4.4v39.3l3 5.9c3.9 8 18.8 26.3 24.8 30.8 2.7 1.9 6.8 3.9 9.3 4.5 7.4 1.6 36.6 2.3 44.4 1 16-2.6 26.6-5 36.5-8.3 18.8-6.1 24.6-10.7 30.3-23.9 1.9-4.5 5.2-12 7.3-16.7 3.2-7.1 3.9-10.1 4.5-18 .3-5.2 1.3-18 2-28.3l1.3-18.8 11.6-11.3c6.3-6.2 15.5-15 20.4-19.4s11.6-11.1 14.9-14.9c3.3-3.7 7.6-8.6 9.6-10.8 4.3-4.7 12.9-18.6 16.2-26.5 1.9-4.3 2.4-7.2 2.3-13.5 0-8.3-1.4-12.4-5-15.6-1.1-.9-10.9-5.4-21.9-9.9-17.3-7.1-20.6-8.1-24.5-7.7-4.3.4-17.8 6.3-24.7 10.8l-3.3 2.1.6-73.4c.7-76.7-.2-111.5-3.1-118.4-1-2.5-2.8-4.1-7.6-6.5-5.6-2.8-7-3.1-12.1-2.6-4.1.4-6.9 1.3-9.1 3l-3.2 2.4-32-17.2c-34.7-18.7-33.8-18-37.5-29.1-4.1-12.1-11.2-20.2-20.2-22.9-5.4-1.6-17.9-1.9-23.5-.5m17 6.7c2.7.4 5.4 2 8.9 5.2l5 4.6-2.5 5-2.5 5-1.1 87.5c-1.5 117.5-1.5 148.7.3 153.6 1 3 1.2 8.9.8 24.9-.3 17.7-.2 21.5 1.2 23.9 1.3 2.6 3.7 3.8 16.3 8.7 8.1 3.1 15.3 5.4 16.1 5.1 1.2-.4 1.3-14.6.8-98.1-.4-53.6-.4-100.6 0-104.3l.7-6.8 5.8-3.6c7.5-4.5 9.5-4.1 18.5 3.6 9.1 7.9 11.1 11.9 13.9 27.5 1.2 6.5 1.5 20.9 1.5 75.9 0 64.1.1 67.8 1.8 67.3 8.7-2.8 13.8-3.7 20.5-3.7 4.2 0 7.7.3 7.7.6 0 1.6-6.7 9.9-11.7 14.4-9.9 8.9-37.7 26-42.2 26-1.2 0-.4-2.8 1.5-5 1-1.2 1.3-19.4 1.4-86.5.2-93.9 0-97.6-5.9-102.9-2.2-2-2.3-1.8-3.4 3-.2 1.1-.1 28.8.4 61.5.4 32.7.9 77.4 1.1 99.5l.3 40.1 3.5-1.5c7.9-3.2 30-14.9 36.5-19.3 5.9-3.9 21.2-18.6 41.1-39.6 5.5-5.8 8.4-5.8 16.9.2 5.1 3.5 7.8 4.7 13.2 5.5 3.7.6 6.9 1.3 7.1 1.5 1 1-1.2 2.2-7.7 4.5l-7.1 2.4-3.6 7.1c-12.5 23.8-28.2 41.8-41 46.9-5.6 2.3-7.4 2.5-13.2 2l-6.8-.7-3.3 4.2c-2.9 3.7-3.2 4.5-2.3 6.7 1.3 2.7 2.4 2.9 5.5 1.2 4.3-2.3 4.6-2 4 4.5-.8 8.3-.3 46 .6 47 .5.4 1.1-4.7 1.4-11.5.9-16.1 3.1-30.3 5.4-33.6 1-1.5 2-3.6 2.4-4.7.6-2.4-1.6-4.9-3.6-4.1-.8.3-2.8-.6-4.4-1.9-3.6-3.1-3.9-3.1-5.1 0-.5 1.4-1.4 2.5-2 2.5-1.6 0-1.2-1.2 1.3-4.2l2.2-2.8 5.3 1.4c4.9 1.3 5.8 1.3 11-.5 7.7-2.6 12.1-5.7 21.2-14.8 8.7-8.6 13.7-15.7 22.5-31.6 5.8-10.4 6.2-11 9.8-11.6 4.6-.7 4.7-.1.2 3-1.9 1.3-3.5 2.7-3.5 3 0 .4-3.1 5.6-6.9 11.6s-6.8 11.1-6.7 11.3c1.4 1.4 10.1-8.6 16.3-18.8 1.2-1.9 3.6-4.5 5.2-5.8 1.7-1.2 3.1-3.2 3.1-4.3 0-1.2.9-3.2 2-4.6s2-3.6 2-4.8c0-2-.6-2.3-6.9-2.8-5.6-.5-8.3-1.3-13.5-4.3-8.6-5-7-6.5 2.5-2.5 4.1 1.7 8.2 3.1 9.1 3.1 3.6 0 1.7-2.6-4.3-5.9s-6.4-3.4-15-2.8c-4.9.3-8.9.3-8.9-.1.1-1.7 1.9-3.1 7.6-6l6.2-3.1 10.3 5.5c5.7 3.1 12.6 7.2 15.4 9.1 5.4 3.9 5.4 3.9 16.3-.1 3.4-1.3 4.6-1.4 6.1-.4 2.4 1.4 4.1 5 4.1 8.3 0 3.1-.7 3.1-3.2 0-2.6-3.3-5.6-3.2-10.6.5-3 2.2-5.3 3-8.3 3-5.7 0-4 1.6 2.5 2.4 4.1.6 6.2.3 8.5-.9 2.8-1.4 3.4-1.4 6.2 0 2.4 1.3 2.9 2.1 2.4 3.8-.4 1.2-.9 3-1.2 4-.6 2.4-5.1 9-12.6 19-5.9 7.8-10.9 12-15.9 13.2-4.9 1.2-3-2.5 12.1-23 3.5-4.7 6.1-8.9 5.8-9.2-1.5-1.4-10.3 7.9-23.5 24.7-7.9 10.2-15.6 19.6-17 21-7.8 7.4-13.6 11.8-17.3 12.9-5.6 1.7-11.7 6.7-13.6 11.1-.8 2.1-1.6 8-1.9 14.5-.2 6-.9 17.2-1.5 24.8s-.9 14.1-.6 14.4c1.2 1.1 5.5-9.5 6.1-15.2 1.7-14.4 6.5-29.2 5.3-16.5-.2 3-1 11.8-1.7 19.5-.6 7.7-1.6 14.8-2.1 15.7-.5 1-1.4 3.9-1.9 6.5-1.3 5.8-14.3 36.5-17.1 40.5-2.5 3.5-4.9 4.7-19.7 10.2-8.7 3.3-15.3 4.9-25.7 6.5-7.7 1.1-17.4 3-21.5 4.2-6.8 1.9-8.3 2-16 1-13.6-1.8-17-3.3-23.6-10.4-7.2-7.7-15.1-18.3-18.2-24.4-3.4-6.6-4.4-14.7-4-33.3.3-16.2.3-16.6-2.2-19.8-2.4-3.3-11.6-8.2-15.3-8.2-1.1 0-3.4.9-5.1 2l-3.2 1.9-13.4-7.2c-11.5-6.1-14.9-8.5-22.8-16.1-11.7-11.3-12.7-13.9-8.7-23.2 5.2-12.2 25.9-29.6 33.4-27.9 1.5.3 6.2 3.5 10.5 7.1 4.3 3.5 10.9 8 14.7 9.9 5.5 2.8 7.3 4.3 8.9 7.6 2.1 4 6.6 6.9 10.7 6.9 4.8 0 9.5 2.5 16.1 8.5 4 3.6 7.7 6.5 8.2 6.5 1.7 0-5.4-11.1-9.5-14.9-3.2-2.9-5.5-4-10.1-4.9-4.8-1-6.5-1.8-8.2-4.2-3.6-4.8-3.9-8.3-.8-10.3 1.4-.9 3.6-1.7 4.9-1.7s4.4-.7 7-1.6l4.6-1.6 13.3 5.1c14.6 5.6 15.8 6.5 23.2 18.1 3.1 4.9 5.2 7 8.6 8.7 2.5 1.2 6.1 3.5 8 5.2l3.5 3 .3 25.8.3 25.8 2.4 2.5c2.3 2.3 2.6 2.3 4.2.7s1.6-1.9 0-5.2c-2.3-4.9-2.2-19.8.5-59l.3-4h-10.2l-10.2-.1-6.3-9.4c-5.8-8.8-6.8-9.8-12.8-12.7-3.6-1.8-10.1-4.4-14.4-5.9-4.4-1.4-9.7-3.4-11.9-4.5-3.4-1.8-4.5-1.9-8.9-.9-2.8.6-5.3.9-5.5.6-.2-.2-.5-1.6-.6-3.2-.2-2.9-.1-2.9 6.5-3.5 3.8-.3 7.1-.9 7.5-1.2 1.7-1.8-2-2.8-8.6-2.5-5 .2-7.2-.1-7.6-.9-.6-1.8 4.7-4.3 10.5-5 6.6-.8 8-1.7 5.7-4-1.6-1.6-2.1-1.7-8-.1-3.4.9-6.3 1.5-6.4 1.4-.3-.2-1.3-138.2-1.7-222.8l-.3-60.7 2.8-1c2.1-.7 2.9-.6 3.3.4.2.7.5 17.2.5 36.7 0 35.1.7 57.9 1.8 60.8 1.6 3.9 2.4-11.3 2.9-55.1.6-45.7.6-47.8-1.2-50.3-2.3-3.1-5.9-3.4-7.4-.5-1.4 2.5-2.4 1.8-1.5-1 .3-1.2 2.8-3.2 5.3-4.6 4.8-2.5 8.8-3 15.5-1.8m27.5 43.9c1.9 1.3 2.2 2.4 2.2 8.8 0 8-1.5 13.6-3.5 13.6-1.8 0-2.4-2-3.1-10-.7-6.8.1-14 1.4-14 .4 0 1.8.7 3 1.6m89.3 20.9 3.6 2.4.5 102.3c.4 90.5.3 102.5-1 104.1-1.1 1.2-1.9 1.4-2.6.7s-1.1-19.8-1.3-56.8c-.5-113.3-1-139.9-3.1-148-2.1-8-1.6-8.5 3.9-4.7M305 109c0 9.5-.9 12.1-3.7 10.4-2.9-1.8-4.5-9-3.3-15.3.5-2.9 1.5-6 2.2-6.8 1-1.2 1.4-1.1 3 .9 1.4 1.8 1.8 4.2 1.8 10.8m-34.1 2c5.4 4.3 7.6 7.3 6.7 9.6s-3 1.6-4.9-1.5c-1.2-2-3.5-3.6-7.3-5-3-1.2-6.1-2.1-6.9-2.1-2.7 0-2.5-1.9.2-3.4 4.4-2.4 6.7-1.9 12.2 2.4M234 296.1c5.5 2.9 7.8 5.4 6.5 6.8-.3.3-3.7-.6-7.6-1.9-7.5-2.5-10.2-5.1-7.2-6.9 2.4-1.4 1.7-1.5 8.3 2m7.1 15.2c.8 1.5.8 2.2-.2 2.8-2.4 1.5-4.8 1-12.5-2.5-5.6-2.6-7.2-3.8-6.8-5 .4-1 .1-1.6-.7-1.6s-.3-.9 1.1-2l2.5-1.9 7.8 4.1c4.3 2.2 8.2 5 8.8 6.1m-13.2 3.7c7.5 3.8 12.7 9.9 10 11.6-.5.3-.7.9-.4 1.4.3.4-1.8-.3-4.7-1.7-2.8-1.4-7.6-3-10.5-3.6-3.1-.7-4.8-1.4-4-1.9.9-.5.7-1.1-.8-2.2-2-1.4-1.9-1.5.7-2.5 1.4-.5 2.9-1.5 3.3-2 .9-1.5 2-1.4 6.4.9"/>
        <path d="M192.1 17.1c-3.7 1.5-1.4 2.7 5.6 3 6.8.3 8.9-.5 5.2-1.9-4.4-1.7-8.4-2.1-10.8-1.1M195 22c-1.3.8-1.3 1 0 1.4 3.8 1.4 14.5 2.5 15.4 1.6 1.1-1.1.2-1.5-6.4-2.9-5.6-1.3-7.1-1.3-9-.1m-59.9 316.4c-2.4 1.9-5.8 5.7-7.5 8.5-1.7 2.9-4.6 6.2-6.5 7.3l-3.4 2.2 1.3-2.3c2-3.8-.8-1.4-3.6 3.1-2 3.1-2.3 4.2-1.3 5.4 1.5 1.8 2.9 1.8 2.9 0 0-.8 1.1-1.6 2.3-2 3.4-.8 15.7-15.1 21.1-24.4 1.2-2-.6-1.3-5.3 2.2m53.4 9c-1.9 1.4-1.9 1.5-.2 3.4.9 1 4.2 2.4 7.2 3.1 3.9.9 7.1 2.6 11.6 6.2 5.4 4.3 7.9 5.7 7.9 4.5 0-.2-.7-2-1.6-4.1-.8-2-1.4-4.1-1.2-4.6.6-1.8 9.6 4.9 12.7 9.4 3.1 4.6 4.1 7.1 1.9 4.9-1.9-1.9-5.3-1.4-7.5 1-2 2.2-2.1 3.9-2.7 31.3-.7 27.9-.6 29.3 1.4 36 1.9 6.2 3 7.8 9 13.7 3.8 3.8 7.7 6.8 8.6 6.8 1.4 0 1-.9-1.8-3.8-8.3-8.5-15-21.6-12.4-24.2.7-.7 1-4.4.8-10.3-.6-14.7 2.5-37.7 5-37.7 1 0 1.1 2.5.8 28.6-.3 26.5 0 27.2 12.2 36.8 8.5 6.7 9.4 7.2 11.5 5.8 1-.6.6-1.7-1.3-4.3-1.4-1.9-4.2-5.9-6.2-8.9l-3.7-5.5-.3-25.8-.3-25.8-6.5-10.7c-10.9-17.7-10.9-17.7-18.2-21-12.2-5.6-23-7.6-26.7-4.8m70.5 4.9c-6.4 1.7-10.9 6.4-8.4 9 .5.5 10.4-2 11.4-3 .2-.2-.2-.8-1-1.3-2.6-1.7 3.8-1.2 7 .5 3.6 1.9 6 5.2 6 8.5 0 1.4.7 3.6 1.7 4.9 1.1 1.7 1.3 2.8.6 4-.6 1-.7 6.6-.3 15.1.4 7.4.5 18.2.2 24.1-.2 5.8-.2 13.1.2 16.3.7 5 1 5.6 2.1 4.5 3.4-3.4 4.9-15.6 4.9-40.4l.1-24-3-6c-3.2-6.4-6.8-9.4-13.8-11.7-3-1.1-5.2-1.2-7.7-.5m0 5.1c0 .2-.7.7-1.6 1-.8.3-1.2.2-.9-.4.6-1 2.5-1.4 2.5-.6m-143.7 9.3c-3.5.7-2.7 3.1 1.1 3.9 2.5.4 5.7 2.8 11.4 8.3 11.9 11.6 24.3 17.1 38.4 17.1 7.9 0 13-1.6 15.3-4.7.9-1.1 1.5-.8 3.4 1.8l2.3 3.1-2.2 3-2.1 2.9 2.1 6.4c1.9 5.7 2.1 7.8 1.5 17.7-.3 6.2-.2 12.6.3 14.3.9 2.8 1 2.7 1.5-2.5 3.3-29.1 3.5-35.1 1.2-37-1.3-1.1-1.3-1.6.5-4.5l2-3.2-3.3-3.1-3.3-3.2-4.4 1.5c-2.4.8-4.9 2-5.6 2.6-2 1.6-20.4-3.3-28.9-7.7-3.8-2-9.2-5.6-12-7.9-6.6-5.6-13-9.5-15.2-9.4-1 .1-2.8.4-4 .6m83.2 25.6c-.3 1.2-.2 4.3.4 6.7.5 2.7.6 14 .2 28l-.6 23.5 2.5 4.3 2.5 4.3 5.5-.3c5.4-.3 7.3-2 2.8-2.6-1.3-.1-4.3-1.2-6.7-2.5l-4.3-2.2.6-10.5c1.7-29.6 1.9-39 .6-44.9-1.3-6.4-2.6-7.7-3.5-3.8m87 70.8c-6 1.6-14.4 3.6-18.5 4.5-4.1.8-11.1 2.5-15.5 3.6s-9.8 2.4-12 2.8c-8.4 1.6-28.1 6.4-30.8 7.5l-2.9 1.2 3.5 3.6c3.3 3.5 3.7 3.7 10 3.7 6.8 0 18.2-2 16-2.7-2.9-1-.9-2 6-3.2 3.9-.7 12.6-2.9 19.2-4.8 6.6-2 14.3-4.1 17-4.8 2.8-.7 5.9-1.6 7-2 1.4-.5 1.1.1-1 1.9-4.3 3.6-1.1 3.4 6.8-.5 3.4-1.7 6.3-3.2 6.4-3.3.1 0 1.1-2.5 2.2-5.4l2.1-5.2-2.3.1c-1.2.1-7.1 1.4-13.2 3"/>
    </g>
</svg>
