<svg xmlns="http://www.w3.org/2000/svg" width="341.333" height="341.333" version="1.0" viewBox="0 0 256 256">
    <g fill="#e5e5e5">
        <path d="M180.7 11.9c-2.5 4.7-8.2 16.6-12.8 26.5l-8.3 17.8-17.2 11.3c-10.4 6.9-19.2 12-22.4 12.9-6.7 2-19.4 9.7-24.5 15-2.3 2.2-8 6.3-12.8 9s-8.7 5.5-8.7 6.1c0 2.1 7.4 4.8 14.5 5.3l7 .4 32.3-20.1C159 76.6 163 74.2 163 75.3c0 .3-13.8 9.3-30.8 20-16.9 10.8-31.6 20.5-32.6 21.6-4.6 5.1 2.8 1.3 28.2-14.5 14.7-9.2 30-18.7 34-21.2 4.9-3 8.2-5.9 9.9-8.6 1.4-2.3 2.7-4.3 2.9-4.5.1-.2 1.6.6 3.2 1.8 3.5 2.4 4.2 1.6 4.2-4.7 0-2 2.5-11.1 5.5-20.2 4.7-14.3 5.3-16.7 4-17.9-1.2-1.3-1.5-1.1-2.4 1-3.2 8.4-15.5 33.7-16.9 35-.9.9-16.6 10.9-34.7 22.3-29.4 18.3-33.6 20.6-37.3 20.6-2.3 0-4.2-.3-4.1-.8 0-.4 16.2-11.3 36-24.2C152 68.1 168.5 57.1 169 56.5c1.1-1.4 22-50 22-51.3 0-.5-1.3-1.2-2.9-1.4-2.8-.4-3.2 0-7.4 8.1m20.6 54.2c-2.6 2.6-1.3 3.7 5 4.4 8.9 1 12.5 3.7 18.7 14.1l5.3 8.7-1.9 10c-1.5 8.3-2.5 11.1-5.6 15.7-3.6 5.4-3.7 5.5-1.8 7.4 2.1 2.1 3 1.7 10.1-4.9 4.9-4.5 5.2-5.3 7.4-18.5 2.4-14.9 1.8-17-7.1-25.2-4-3.6-9.1-7.7-11.5-9.1-5.3-3-16.7-4.6-18.6-2.6"/>
        <path d="M199 78.1c-1.1 3-2.8 5.2-5.9 7.3-3 2.2-5.3 5-7.6 9.5-2.7 5.5-4.3 7.2-10.6 11.5-5.8 4.1-7.9 6.2-10.2 10.6-2.2 4.3-3.7 5.9-6.8 7.2-2.2 1-18.1 9.9-35.4 19.9l-31.3 18.2-6.2 8.5c-3.4 4.6-6.8 10-7.6 12.1l-1.4 3.6.3-6.5c.2-3.6.6-7.1.8-7.9.6-2-4.1-2.4-6.2-.5-1.4 1.2-2.4 1.3-5.4.5-4.2-1.1-5.7-.7-10.3 2.7-4.4 3.2-7.1 2.6-16.1-3.4-3.8-2.5-7.4-4.3-7.9-4-1.6 1-2.1 5.9-1.1 10.6.7 3.4 2.4 6 6.7 10.7 7.5 8.1 10 8.6 14.3 3.2 1.7-2.2 4.9-5.2 7.1-6.5 2.6-1.7 4.1-3.4 4.5-5.4.6-3.4.7-3.4 3.4-2 1.7 1 1.9 2.2 1.9 11 0 11.2-.2 11.4-8.8 9.7-3.7-.8-4.8-.6-7.7 1.5-3.8 2.5-4.3 4.3-2.1 7.3 1.2 1.7 1.7 1.7 4.5.5 2.4-1 3.5-1 4.4-.1.6.6 3.1 1.1 5.6 1.1 5.5 0 4.6 1-3.9 4-6.7 2.4-9 3.7-9 5 0 .4 1.7-.1 3.8-1.2 4.8-2.5 14.6-2 21.6 1.1 6.9 3 18.1 1.9 17.4-1.8-.3-1.1-1.3-1.5-3.3-1.3-3.3.3-10.5-1.7-10.5-2.9 0-.4 2-1.7 4.5-2.9s4.5-2.3 4.5-2.3c0-.1-.6-2.2-1.3-4.6-1.3-4.1-1.5-4.3-2.8-2.5-1.4 1.9-6.9 4.9-6.9 3.8s2.3-4.9 4.6-7.7c1.8-2.2 2.1-3.3 1.4-5.1-.5-1.3-.6-4.9-.3-7.9.5-5.2 1-5.9 6.7-11.4 4.8-4.7 12.7-9.8 36.9-23.8 16.9-9.7 30.9-17.6 31.1-17.4s1 1.8 1.9 3.4c1.3 2.7 1.3 3.5.1 6.4s-1.2 3.9.1 7.8c1.6 4.6 2.1 18 .6 15.3-.5-.8-1.4-4.6-2.1-8.3-2.1-11.3-6-19.5-6-12.6 0 2.4-1.8 3.3-3.6 1.8-.8-.6-1.7-.9-2.1-.6-.9 1 8.5 27.5 11.9 33.4 3.5 6.3 4.7 7.2 6.5 4.8 1.7-2.5 1.7-5.2-.3-11.3-1.6-4.8-1.6-5.3 0-7.6.9-1.4 1.6-3.6 1.6-4.9 0-2.6 1.7-4.7 3.4-4.1.6.2 3.4-2.5 6.1-6.1s9.1-10.2 14.3-14.7c9.3-8.1 12.2-11.8 12.2-15.9 0-1.6-2.5.4-10.8 9-5.9 6.1-11.4 11.1-12.2 11.1-2.1-.1-9.9-7.6-11.1-10.8-1.6-4.2.6-7.7 7.7-12.2 3.5-2.2 6.7-4 7.1-4s-1.4 2.2-4 4.8c-3.3 3.3-4.9 6-5.3 8.4-.6 3.2-.3 3.6 2.5 4.8 4.4 1.8 7.2.1 12.9-7.5 6.2-8.5 7.7-12.2 6.3-16.1-1.6-4.4-1.5-4.5 2.4-2.7 1.9.9 3.8 2.6 4.1 3.7.4 1.2 1.2 2.8 1.9 3.6s1.6 3.4 2 5.7c.7 4.6-1.9 11-5.6 13.6-4.2 3-21 20-24 24.3-2.9 4.3-3 4.4-1.2 6.9 1 1.3 2.1 2.5 2.4 2.5s3.2-3.9 6.4-8.8c3.3-4.8 8.3-11.2 11.1-14.2 8.1-8.7 24.4-29.2 26.4-33 .9-1.9 2.2-5.6 2.8-8.2 1.1-4.4 1-4.9-2.4-11-5.6-10.1-8.2-12.1-15.6-12.6l-6.3-.4z"/>
        <path d="M176 81.7c-.8.3-3.7 2.7-6.5 5.3-2.7 2.6-13.8 11.6-24.5 20-16.2 12.6-23.5 17.4-43 28.6-12.9 7.3-25.5 15.2-28 17.5l-4.5 4 5.5-2.9c22.2-12 51.1-27.9 59.3-32.7 5.4-3.1 10-5.5 10.2-5.3.5.5-16.3 11.7-23.1 15.5-12.4 6.8-52.3 30.9-52.3 31.5-.1 1.4 4.9.9 8.2-.8 1.8-.9 19.3-10.9 38.9-22.2 34.3-19.8 35.9-20.8 37.8-24.9 1.1-2.4 2.3-4.3 2.8-4.3 1.9 0 15.2-12.8 19.4-18.8 6.3-9 6.3-12.8-.2-10.5M72 114.1c0 .8-1.3 3.3-2.8 5.5-1.6 2.1-7.5 13-13.2 24-10 19.4-10.3 20.3-9 23.3.7 1.7 1.6 3.1 2 3.1s1.7-3.9 3-8.8c2.2-8.4 5.7-16.9 6.6-16 .2.3-.2 2.7-1 5.4-1.8 6.3-2.8 15.4-1.6 15.4 1.1 0 4-8.7 4-12.2 0-2.8 6.9-21.2 7.7-20.5.2.2-.8 3.6-2.2 7.4-2.4 6.9-3.4 15.3-1.6 15.3.5 0 2.3-3 4.2-6.8 2.6-5.3 3.4-8.1 3.5-13.5.2-4.4.8-7.5 1.7-8.5s1.8-3.7 2.2-6.2c.6-3.8.3-4.8-1.4-6.4-1.6-1.5-2.1-1.6-2.1-.5m6.4 5.1c-.4.6-.9 4.5-1.2 8.6-.5 8.3-.7 8.2 6.1 2.9 2-1.6 3.7-3.7 3.7-4.6 0-2.4 1.1-3.3 2.6-2 .7.5 1.4.6 1.7.2 1-1.6-1.9-4.1-5.8-5.2-5.1-1.4-6.2-1.4-7.1.1m59.3 31.8c-.7 3-3.1 4.1-4 1.7-.2-.6-.8-.8-1.3-.4-1.1 1 8.1 27.7 11.6 33.7 5.3 9.1 9.8 4.3 6.3-6.7-1.4-4.3-1.5-5.8-.5-7.3 1.6-2.6 1.5-7.3-.2-11.5-2.5-5.9-3.6-4.3-2.9 4 .8 9.5-.9 10-2.6.7-1.4-8-4.2-17.2-5.2-17.2-.3 0-.9 1.3-1.2 3m-14 5.6c-.4.4-.7 1.4-.7 2.3s-.4 2.2-.9 3c-.8 1.2-1.2 1.3-2.5.1-.9-.7-1.9-1-2.2-.7s1.4 6.4 3.8 13.5c4.7 13.7 11.2 26.6 13.1 25.9 2.2-.7 3-5.9 1.7-10.9-.8-3.1-.9-6.6-.4-9.6.4-2.6.6-5.6.5-6.7-.4-2.9-3-7.5-4.2-7.5-.6 0-.8 1.1-.5 2.7s.8 5 1.2 7.8c1 7.6-.9 4.4-3.4-5.7-2.6-10.4-4.4-15.2-5.5-14.2m-15.7 9.1c0 .7-.5 2.4-1 3.9-1 2.6-1.1 2.6-3 .9-1.8-1.6-2-1.6-2-.2 0 3.1 9.1 28.3 12.1 33.5 5.2 9.1 8.8 5 6.1-6.6-1.2-5-1.3-6.8-.4-8.3 2.2-3.5.2-13.7-2.8-14.7-1-.4-1.2.6-.7 4.4.3 2.7.2 6.5-.3 8.4-.4 1.9-.8 2.6-.9 1.5-.2-3.6-5.1-21.9-6.1-22.9-.7-.7-1-.6-1 .1m-16 10c0 1-.5 2.5-1 3.3-.8 1.2-1.3 1.3-3 .2-2.9-1.8-2.7-.7 2.8 14.8 5.4 15.5 9.8 24.2 12 23.8 2.9-.6 3.6-5.6 1.7-11.8-1.3-4.4-1.5-6.2-.6-7.8 1.5-2.8 1.4-7.6-.3-11.7-2.5-5.9-3.6-4.3-2.9 4 .8 9.5-.9 10-2.6.7-.6-3.7-1.9-9.1-2.8-12-1.6-5.1-3.3-6.9-3.3-3.5m-72.5 13.2c-1.4 2.8-2.5 6.5-2.5 8.3 0 3.1.6 3.7 7.9 8.1 4.4 2.6 8.2 4.7 8.6 4.7.6 0 3.5-6.3 3.5-7.9 0-.5-.9-1.1-2-1.4-1.5-.4-2-1.4-2-3.7 0-4.4-1.3-6.5-6.5-10l-4.4-3.1zm19.9 17.9C37.1 212 35 219 35 221.2c0 1.6.6 1.5 4-1.3 2.2-1.8 4.9-4.6 5.9-6.2 1.8-2.8 1.8-3.3.3-6.3-2.2-4.8-3.9-5-5.8-.6m-23.4.4c.1 3.1 9.9 13.7 13.1 14 2.1.3 2.4-.1 2.7-3.7.2-4 .2-4-6.9-8-9.1-5.1-8.9-5.1-8.9-2.3"/>
    </g>
</svg>
