<svg xmlns="http://www.w3.org/2000/svg" width="682.667" height="682.667" version="1.0" viewBox="0 0 512 512">
    <path fill="#e5e5e5" d="m236.5 111-19 19 19.3 19.3 19.2 19.2 19.2-19.2 19.3-19.3-19-19c-10.4-10.4-19.2-19-19.5-19s-9.1 8.6-19.5 19m-106.3 65.3C118.6 188 109 198 109 198.5c0 .6 9.7 10.7 21.5 22.5l21.5 21.5 22-22 22-22-21.7-21.7c-12-12-22-21.8-22.3-21.8s-10.1 9.6-21.8 21.3m207.5.5L316 198.5l22 22 22 22 21.5-21.5c11.8-11.8 21.5-21.9 21.5-22.5 0-1-42-43.5-43-43.5-.3 0-10.3 9.8-22.3 21.8m-126-7L199 182.5l12.8 12.8 12.7 12.7 12.8-12.8 12.7-12.7-12.8-12.8-12.7-12.7zm63 0L262 182.5l12.8 12.8 12.7 12.7 12.8-12.8 12.7-12.7-12.8-12.8-12.7-12.7zM226.5 231l-29 29 29.3 29.3 29.2 29.2 29.2-29.2 29.3-29.3-29-29c-15.9-15.9-29.2-29-29.5-29s-13.6 13.1-29.5 29m-122.8 10.8L87 258.5l30.5 30.5 30.5 30.5v-68l-13.3-13.3C127.4 231 121.2 225 121 225c-.3 0-8.1 7.5-17.3 16.8m65.5-3.5L156 251.5v33.3c0 18.2.3 33.2.8 33.2.4 0 9.5-8.8 20.2-19.5l19.5-19.5-9.5-9.5-9.5-9.5 10.3-10.3 10.2-10.2-7.3-7.3c-4-3.9-7.5-7.2-7.7-7.2-.3 0-6.5 6-13.8 13.3m152-6.1-7.2 7.3 10.2 10.2 10.3 10.3-9.5 9.5-9.5 9.5 19.5 19.5c10.7 10.7 19.8 19.5 20.2 19.5.5 0 .8-15 .8-33.3v-33.2l-13.3-13.3C335.4 231 329.3 225 329 225s-3.8 3.3-7.8 7.2m56 6.1L364 251.5v68l30.5-30.5 30.5-30.5-16.7-16.7c-9.2-9.3-17-16.8-17.3-16.8s-6.5 6-13.8 13.3m-185.9 79.9L169 340.5l39.8 39.8c21.8 21.8 40 39.7 40.5 39.7.4 0 .7-19.7.7-43.7v-43.7l-18.2-18.3-18.3-18.3zm88.9-3.9L262 332.6v43.7c0 24 .3 43.7.8 43.7.4 0 18.6-17.9 40.5-39.8l39.7-39.7-22.3-22.3-22.2-22.2z"/>
</svg>
