<svg xmlns="http://www.w3.org/2000/svg" width="682.667" height="682.667" version="1.0" viewBox="0 0 512 512">
    <g fill="#e5e5e5">
        <path d="M98 52.1c-4.1.4-14.9 1.2-24 1.7-18.9 1.1-20.6 1.6-31.5 9.6-4.1 3.1-8 5.6-8.7 5.6-1.9.1-4.8 2.7-11.3 10-9.4 10.6-10.1 12.2-11.4 24.6-.7 6-1.7 28.7-2.2 50.4-.6 21.7-1.2 43.3-1.5 48-.7 11.8 2.9 48.1 5.9 60 1.3 5.2 2.7 11.3 3.1 13.5 1.1 6 5.3 16.1 10.2 24.5 5.6 9.5 22.2 26.7 32.4 33.5 11.2 7.4 29.4 16 38 17.9 12 2.6 23.6 6 25.3 7.4.9.8 6.7 1.7 13.9 2.3 15.9 1.3 32.4-.6 42.9-5 4.7-2 7.1-2.6 7.4-1.8.1.7 1.1 5.2 2 10.2 2.4 12.7 7.2 31.8 10 40 2.7 8 13.4 32.2 15.6 35.2 3.6 5.1 9.5 11.3 10.8 11.3.7 0 2.9 1.3 4.7 3 7.5 6.5 25.5 9.1 38.3 5.4 6.9-2 21.8-9.4 26-13 1.7-1.4 4.1-4.4 5.2-6.5 1.2-2.4 2.7-3.9 3.7-3.9s2.8-1 3.9-2.2c3.4-3.7 11-29.2 17.2-57.3 1.1-5 2.5-11.4 3.1-14.2l1.2-5.3 2.6 1.4c7.6 3.9 24.4 7.7 33.8 7.7 3.7 0 8.1-.8 11.5-2.1 4.5-1.7 6.7-1.9 12.9-1.4 9.5.8 20.3-1.2 37-6.7 17.4-5.7 22.2-8.4 34.2-19.3 8.4-7.6 11.9-11.6 17.5-20.3 11.5-17.9 17.7-33.5 22.3-56.2 1.2-5.8 2.3-10.7 2.5-11.1.2-.3 1.1-8.7 2.1-18.5 1.4-14.8 1.6-23.8 1-50.3-1-51.2-2.3-72.6-4.7-80-2.8-8.3-12.1-22.1-20.5-30.4-6.5-6.3-7.4-6.9-14.9-8.8-8.9-2.3-24.7-4.2-49.6-6.1-16.5-1.2-29.1-.6-41.4 2.1-37.5 8.3-59.1 15.1-78.7 25-9.1 4.7-15 5.8-35.3 6.6-20.2.8-21.8.4-62-15.9-6-2.4-13.4-5.8-16.3-7.6-3-1.7-7-3.8-9-4.7-5.8-2.5-21-6.4-25-6.4-2 0-7.3-.7-11.7-1.5-8.6-1.5-26.4-1.7-38.5-.4m41.5 11c32 7 49.3 12.8 71.6 23.9 19.7 10 27.1 11.4 49.6 10 14.4-.9 15.3-1.1 28.3-6 7.3-2.8 15.6-6.3 18.4-7.9s6.7-3.2 8.6-3.6 10.3-2.9 18.5-5.5c8.3-2.7 22.4-6.3 31.5-8.1 16.3-3.2 16.9-3.2 47-3.3 21.6-.1 33.7.3 41.4 1.4 12.5 1.6 13.6 2.3 26.8 16.5 11.1 12.1 11 11.7 14.7 35.5 2.6 16.2 3.9 68.8 2.3 87.2-.6 6.8-1.9 20.4-2.7 30.3-.9 9.9-2 20.5-2.5 23.6-1.8 11.5-18.5 49.6-27.6 62.5-4.9 7.2-7.3 9.5-14.4 14.4-25.5 17.3-44.6 20.4-80 13.1-18.3-3.8-22.8-5.2-28.7-8.8-2.7-1.7-6.6-3.6-8.8-4.3s-5.7-2.1-7.8-3.2c-4.2-2.1-5.6-1.7-9.8 2.9-2.3 2.4-2.8 4.2-3.8 14.3-4.2 39.4-13.9 73.4-23.4 82.5-1.8 1.7-4 4.5-4.9 6.2-3.2 6.1-11.8 9-31.9 10.9-7.6.8-10.5-.4-17.7-6.9-2.9-2.7-4.3-3.5-3.8-2.3.7 1.9.6 2-1.4.1-7.1-6.4-20.8-43.5-23.5-63.5-.3-2.5-1-6.1-1.4-8-.5-1.9-1.4-6.9-2.1-11s-1.6-8.8-2.1-10.4-.9-4.8-.9-7.2c0-4.1-.2-4.4-3.7-5.3-6.2-1.7-12-1.3-17.8 1.4-3 1.3-8.3 3.1-11.7 3.9-3.5.8-8.3 2.2-10.8 3.1-9.5 3.4-22.3 4.5-41 3.5-14.5-.7-18.9-1.3-25.5-3.5-17.3-5.7-26.3-10.9-40.4-23.4-7.9-7.1-12.2-14.2-17.5-28.9C27.7 281 20 254.5 20 252.7c0-.7 3.3 6.9 7.3 16.8 8.9 22.1 14.8 32.5 23.5 41 5.1 5.1 7.6 6.8 11.8 8 2.9.8 6.1 1.8 7 2.2 1.5.5 1.6.1 1-3.9-.7-4.7-2-8.5-7.5-22.2-1.8-4.3-3-8-2.8-8.2.5-.5 6 5.6 14.2 15.5 8.8 10.8 20.7 21.6 26 23.7 4.9 1.8 7.9 1.5 16.8-1.8 5-1.9 6.1-3.1 4.9-5.4-.5-1.1-1.8-3.7-2.8-5.9s-7.9-10.2-15.2-17.8c-15-15.7-20.6-23.4-9.9-13.7 4.5 4 31.3 20.6 42.3 26.1 10.1 5 10.4 5.1 23.8 6.2 18.4 1.5 18.7 1.1 7.5-9.8-6.4-6.2-11.9-10.2-21.6-15.9-8.8-5.2-13.4-8.5-14.2-10.3-.6-1.4-1-2.7-.9-2.8.2-.2 3.2 1.5 6.8 3.6 4.2 2.6 7.4 3.9 9.5 3.7 1.7-.1 5.5 1.2 9 3 12.7 6.6 22.4 8.8 36.3 8.4l6.3-.2-1.8-3.2c-2.1-3.7-12.6-14.7-16.3-17-2.4-1.5-2.3-1.5 2.5-.7 7.3 1.2 14.2 1.1 18.7-.3 3.5-1 3.9-1.4 3.3-3.7-.4-1.4-1.5-3.6-2.6-4.7-1.8-1.9-2-3.4-1.8-13 .1-12 3.1-41.5 5.4-53.8.8-4.4 1.3-8.2 1.1-8.4-.6-.5-3.6 10.4-4.8 17.2-.6 3.4-1.4 6.7-1.8 7.5-1.2 2.3-2-12.5-.8-15.7.7-1.7.8-3.7.3-4.8-.4-1-.7-2.4-.6-3.1.1-.6-.3-1.4-.9-1.8-1.5-.9-1.2-6.8.5-10.1.8-1.6 1.7-5.5 2.1-8.7.4-3.1 1-6 1.5-6.2.4-.3 1.1 2.4 1.4 6 1.3 11.5 2.6 7.8 4-10.5.3-4.1.1-12.4-.3-18.3l-.9-10.8-4.9-5c-6.1-6.2-8.3-6.8-44.9-13.2-17.7-3-18.6-3.1-49-3-24.4.1-32.4.5-37.5 1.7-3.6.9-8.7 1.5-11.5 1.5h-5l5.5-2c10.1-3.6 18.7-4.9 34.3-5l15.2-.1-11-2.2-11-2.3 6-.7c3.3-.5 7.8-1.2 10-1.8 2.2-.5 13.9-1.2 26-1.5 19.3-.5 23.8-.3 36 1.6 7.7 1.2 16.8 2.8 20.3 3.6s6.6 1.5 6.9 1.5c.8 0-9-8.7-15.6-13.9-10-7.8-40.1-21.1-48-21.1-1.1 0-2.9 1-4 2.2-2 2.1-2.1 2.1-8.1.5-7.5-2.1-22.8-2.2-34.2-.2-9.5 1.6-27.1 7.4-33.7 11.1-5.3 2.9-5.9 2.9-8.6.4-2.1-1.9-2.1-1.9-5.3 0-1.8 1.1-3.2 2.8-3.2 3.9 0 2-5.9 7.1-8.2 7.1-.8 0-2.4.9-3.6 2L18 96.1v-2.5c0-3.5 16.5-18.6 27.5-25.2 8.3-5 8.7-5.1 20.2-6.3 19.1-1.9 19.8-1.9 42.8-1.4 16.7.3 24.1.9 31 2.4m4 61.9c13.4.9 19.7 1.6 37.4 4.1 7.6 1.1 8 1.3 9 4.2 2.5 7-.3 14-6.1 15.2-1.5.4-3.3 1.5-3.8 2.6-1.6 2.8-6.5 5-9.7 4.3-1.6-.4-22.4-.8-46.3-1-81.1-.5-75 0-75-6.2 0-10.4 4.4-22.7 8.4-23.5 4.3-.9 72.6-.6 86.1.3m-105 21.2c.7 13.8 1.2 16.5 2.8 14.9 2.4-2.4 28.5-.8 37.4 2.3l3.6 1.2-4.4 1.2c-13.1 3.5-37.3 5.4-39.7 3-.9-.9-1.5-.9-2.4 0-1.8 1.8-3.8 1.4-3.8-.7 0-1-.7-2.4-1.6-3.1-1.2-1.1-1.4-2.5-.9-6.9 1.2-10.5 2.5-16.5 4.7-21.3 2.9-6.5 3.7-4.8 4.3 9.4m138.3 28.4c6.7.7 7.5 1.6 8.7 9.5.7 5.5-1.5 9.5-7.7 13.8-2.4 1.6-5.1 3.7-6.1 4.6-1.3 1.1-4.3 1.8-9.5 2.1-13.9.8-97.5.8-105 0-6.7-.7-7.3-1-8-3.5-1.1-4.2-.7-14.4.9-17.6 1.6-3.3-.3-2.8 22.4-5.4 5.5-.6 19.2-1.4 30.5-1.7s23.9-.9 28-1.3c9.4-1 37.7-1.3 45.8-.5M37.5 197.3c1.3 5.2 2.9 10.7 3.7 12.1l1.4 2.6 16.4.3c12.3.3 17.9.8 21.8 2.1 3 1 5.2 1.9 5 2.1-1 1.1-24.4 3.5-33.8 3.5-6.2 0-11.1.4-11.5 1-1.4 2.3-3.2.6-5.5-5.1-2-5.1-2.4-8-2.4-16.3-.1-9 .7-13.6 2.1-12.3.2.3 1.5 4.8 2.8 10m143.4 29.3 3.3.7-.4 8.8c-.4 9.5-1.3 11.2-7.2 14.8-2.5 1.6-7.6 2.3-27.6 3.8-25.3 1.9-30.2 2-63 1.4-18.7-.3-28.5-1.2-30.2-2.9-1.5-1.5-2-9.7-.9-13.7 2.1-8 1.9-7.9 20.8-8.6 11.6-.5 18.5-1.2 22.3-2.4 8.7-2.8 71.3-4.2 82.9-1.9"/>
        <path d="M387 75.6c-1.4.2-5.9.9-10 1.5-14.5 2.1-54.4 12.1-56 14-.8 1-3.2 2.5-5.2 3.3-3.9 1.7-5.8 3.6-3.6 3.6 6.7.2-20.7 6.5-34.8 8-12.1 1.3-14.4 1.8-14.4 2.9 0 .4 3.3.2 7.3-.6 3.9-.8 11.9-1.5 17.7-1.6 9.6-.2 11 0 16 2.5l5.6 2.7 6.3-1.9c3.4-1.1 8-2 10.1-2s6.8-.7 10.5-1.5c7.4-1.8 10.7-.9 9.8 2.5-.6 2.1 2 2.9 3.2 1 .3-.6 1.4-1 2.5-1 1 0 4-2 6.7-4.5 5.3-4.7 8.6-5.8 20.1-7.1l6.4-.6-3.1 4.2c-3.5 4.8-3.8 6.5-1.5 7.4 1 .4 1.3 1.3.9 2.6-.7 2.4-1 2.3 3.7.7 2.2-.8 5.1-3.1 7.6-6.2 7.4-9.4 7.9-9.6 16.8-9.3l7.9.3.3 3c.4 5 1.2 7.5 2.3 7.5.5 0 3.1-2 5.7-4.4l4.7-4.4 8.9 1.4c4.8.7 9.5 1.5 10.2 1.8 2.8 1.1-.3-2.9-7.5-9.7-7.8-7.3-19.6-13.7-28.9-15.6-4.9-1-20.5-1.3-26.2-.5m56.1 5.8c-1.6.9-2 1.6-1.2 2 .6.4.9 1.1.6 1.5-.8 1.4 13.8 7.1 18.3 7.1h2.6l-3-3.1c-2.9-3.1-12-8.9-13.9-8.9-.5.1-2.1.7-3.4 1.4m28.7 12.2c-5.6 3.6-7.2 6.6-6.1 11.1l.8 3.7 5.6-5c3.1-2.7 6.4-5.4 7.3-5.9 1.4-.8 1.6-1.5.7-3.8-1.3-3.3-3.4-3.4-8.3-.1m-224.6 25.5c-3 .5-8.2 2.5-11.6 4.4l-6.3 3.5-.7 11.8c-.4 6.4-1.1 19.7-1.6 29.5-1 19.2-2.6 33.7-4 35.1-.4.4-1.1-2.3-1.5-6-1.2-12.9-1.3-10.9-.8 18.8.2 16.6 0 29.8-.5 29.8-.9 0-4.2-10.7-4.2-13.5 0-.8-.4-1.5-1-1.5s-1 4-1 9.9c0 5.6.4 10.3 1 10.6s1 1.7 1 3.1c0 2 .5 2.4 2.9 2.4 1.6 0 3.1-.4 3.3-1 .5-1.6 21.4-5 34.3-5.7 9.9-.4 13.7-.2 21.8 1.5 8.9 1.9 12.7 2 12.7.3 0-.3-2.8-1.5-6.2-2.5-15.8-4.9-16.4-5.2-19.4-11.2-1.6-3.1-4.4-7.5-6.4-9.8-1.9-2.2-4.8-6.1-6.4-8.5-3.4-5.3-12.6-29.2-12.6-32.7 0-5.1 3.2-23.2 5.7-32.4 3.4-12.1 6.6-18.6 10.1-20.4 4.1-2 15.8-3.8 23.2-3.4 6.4.3 6.5.3 8.8 4.5 1.2 2.3 3.1 7.9 4 12.4l1.8 8.2 1.8-6.1c1.7-5.4 1.7-7.1.8-14.8-1.2-9-2.3-11.4-5.2-11.4-.9 0-2.5-.9-3.4-1.9-1-1.1-4-2.5-6.7-3-5.9-1.3-26.1-1.3-33.7 0m77.6 15.6c-9.6 9.9-9 21.9 1.5 30.2 6.4 5 8.8 5.4 48.7 6.6 9.6.3 20.4.8 24 1s15.5.7 26.5 1.1c11 .3 21.1.7 22.4.9 1.3.1 4.2-.2 6.4-.8 3.2-.8 4.3-1.7 5.8-5.1 2.3-5 2.3-7.2 0-16.1-2-7.6-3.6-9.2-13-12.9-3.8-1.5-4.6-1.5-5.8-.3-1.4 1.4.4 3.1 9.1 9.1 1.3.9 2 2.8 2.3 6.2l.4 4.9-5.3 2.5c-5.1 2.4-6 2.5-28.8 2.7-12.9 0-24.6-.3-26-.7-1.4-.5-8.1-1.1-15-1.4-6.9-.2-14.7-1-17.5-1.6-2.7-.6-7.5-1.3-10.5-1.5-3-.3-8.8-1-12.8-1.6-6.5-1.1-7.4-1.5-9.2-4.4-1.1-1.8-2-4.4-2-5.8 0-4.2 3.7-11.6 6.5-12.9 3-1.3 3.3-2.8.6-2.8-1.1 0-2.5-.2-3.3-.5-.7-.3-3 1.2-5 3.2"/>
        <path d="M340.7 142.6c-2 1.1-2.5 1.9-1.9 2.7.6.7 1 1.6.9 2.2-.2 1.2 19.6 3.6 24 2.9 3.4-.5 5.2-2.2 3.7-3.3-.5-.3-.9-1.3-.9-2.1 0-1-2-1.8-7-2.7-9.5-1.6-15.4-1.5-18.8.3m-36.6 18.3c-1.3.8-1.3 4.3-.3 25.9.7 13.7 1.6 26.2 2.1 27.8.7 2.7.8 2.6 1.4-2 .4-2.7.7-14.9.7-27 0-23-.6-26.8-3.9-24.7m20.5 27.3c-5.8 6.3-5.8 6.3-5.1 11.2.9 7.2 2.6 10.5 8.1 15.9 5.7 5.5 8.1 6.3 22.4 7.2 5.8.3 15 1 20.5 1.5s13.4 1.2 17.5 1.5c10.3.8 17.7 1.4 23 2 2.5.2 7.4.7 11 .9 3.6.3 13.2 1.1 21.3 1.7l14.8 1.2 5.2-5.1 5.2-5.2-.1-7.3c-.3-13.7-7.1-22.1-17.3-21.5-6.3.4-6.2 2.3.3 5.3 3 1.4 5.7 2.8 5.9 3.3.3.4.8 3 1.2 5.9.7 5.1.6 5.2-2.7 6.9-2.9 1.6-5.9 1.8-25.3 1.7-12.1-.1-26.9-.7-33-1.3-6-.7-15.9-1.5-22-1.9-6-.3-11.5-.9-12.1-1.3s-5.1-1-10-1.3-11.1-.8-13.8-.9c-5.7-.4-6.8-1.4-9.5-8.3-1.6-4.2-1.8-5.8-1-9 .6-2.1 2-4.7 3-5.9 1.9-2 1.7-3.4-.6-3.4-.7 0-3.8 2.8-6.9 6.2"/>
        <path d="M339.3 190.3c-2.4 1.2-3.1 2.7-1.3 2.7.6 0 1 .8 1 1.9 0 1.6 1.2 1.9 10.4 2.5 11.1.8 15.8-.2 13.7-2.8-.6-.7-.9-1.5-.6-1.8 2.7-2.6-18.6-4.9-23.2-2.5m-15 41.2c-2.2 1.5-5.3 9.8-5.3 14 0 3.8 5.1 12.6 9.1 15.4 3 2.2 5.7 3.1 13.1 4 5.1.7 11.8 1.6 14.8 2.1 22.7 3.9 66.5 10 68.7 9.6 1.6-.2 8.9-.7 16.3-1.1 7.4-.3 14.3-.9 15.3-1.1 2-.6 5.1-6.2 6.2-11.1 1.3-6.2-7.9-16.9-12.3-14.3-.9.5-1.2 1-.7 1 2.3.1 4.8 3.2 5 6 .1 2.5-.4 3.4-2.7 4.6-4 2.1-28 1.3-45.3-1.5-7.1-1.1-22.4-3-34-4.1-11.5-1.1-24.6-2.4-29-3-4.4-.5-8.7-.7-9.6-.5-2.5.8-6.6-3.1-8.5-8.1-1.7-4.4-1.7-4.7.1-8 1-1.9 2.2-3.4 2.7-3.4s.6-.5.3-1c-.8-1.4-1.7-1.3-4.2.5"/>
        <path d="M345.5 234.7c-1.1.3-3.5 1.1-5.4 2-2.8 1.3-3.1 1.7-1.8 2.4.9.5 1.4 1.6 1.1 2.4-.4.8-.2 1.5.2 1.5.5 0 5.1.3 10.1.6 7.2.4 9.9.1 12.3-1.1 3-1.6 3.6-2.6 2.3-3.9-.4-.4-.8-1.5-.8-2.3 0-1.3-1.5-1.6-8-1.8-4.4-.1-8.9 0-10 .2m-98 39.3c-3.3 1.1-8.7 3.5-12 5.3-8.8 4.7-8.9 5.2-8.9 43.2 0 20.5.4 34 1.3 40 1.7 12.2 1.9 13.1 2.7 20 .6 5.3 1.8 7.8 10.1 21 8.7 13.7 16.4 23.5 18.6 23.5.5 0-.7-2.1-2.6-4.8-9.1-12.4-17-28.1-18.6-36.9-1.6-8.4-1.5-8.4 12.5 12.5 9.5 14 13.2 18.6 9.9 12.3-2.9-5.7-11.2-28.4-14.2-38.6l-2.8-10 .1-29.5c0-16.4.5-30.8 1.1-32.5.8-2.6 2.1-3.4 8.7-5.9 5.8-2.3 8.2-2.7 9.4-1.9 3.3 2.1 16.2 25.2 16.2 29.1 0 2.6 1.6 4.5 3.2 3.9 2-.7 5.8-21.1 5.7-29.7l-.1-6.5-7.7-5.6c-14.6-10.7-21.5-12.6-32.6-8.9m169.7 26.2c-.7.7-1.2 2.2-1.2 3.5 0 2.9 5.7 18 7.1 18.9 1.7 1 5.9-.5 5.9-2.1 0-1.8-5.8-16-7.8-19.3-1.6-2.5-2.3-2.7-4-1m22.8 4.2c-1.7 3.2-3.8 8-4.5 10.7-1.2 4.6-1.2 5.1.6 6.2 1.2.8 1.9 2.3 1.9 4.4v3.2l4.1-1.8c6.4-2.9 6.4-2.8 4.6-14.6-2.3-14.6-2.7-15-6.7-8.1m-69.1 1.3c.5 1 5.9 6.7 12 12.6 7.6 7.4 11.6 10.7 12.7 10.3.9-.3 2-.6 2.6-.6 1.9 0-.3-5.4-3-7.8-7.3-6.1-22.6-16.2-24.7-16.2-.3 0-.1.8.4 1.7m26.2 2.5c1.1 2.2 9.4 14.2 12.3 18 1.6 2.1 6 1.3 5.2-.9-.3-.8-.6-1.8-.6-2.3 0-1.7-8.2-11.2-12.2-14-4.9-3.6-6.3-3.8-4.7-.8m-42.8 7.5c10.5 8.7 27.1 16.3 29.9 13.5.9-.9.7-1.6-.6-3.1-2.2-2.4-24.8-12.7-30.1-13.7l-4-.7zM233.6 406c.7 4.2 5.5 12.9 8.5 15.6 1.8 1.6 1.7 1.2-.6-2.6-1.6-2.5-4.1-7.2-5.7-10.5-2.4-5-2.7-5.4-2.2-2.5m-82.9-268c-1.7 1.1-2.4 2-1.8 2.4s1.1 1.5 1.1 2.5c0 2.1 4.1 3.1 12.3 3.1 5.4 0 11.7-2.3 11.7-4.2 0-2.7-1.7-3.7-8-4.7-8.8-1.5-12-1.3-15.3.9m-1.1 53c-2.4 1.5-2.7 2-1.4 2.5 1 .4 1.4 1.4 1 2.7-.5 2.1-.3 2.1 7.8 1.4 10.2-.8 15.1-2.6 14.3-5.4-.4-1.5-1.7-2.1-6.5-2.6-9.1-.9-12-.6-15.2 1.4m4.9 41.7c-4.1 1.1-6.2 3.2-5.7 5.9.5 2.9 3.9 4.6 7.9 3.9 1.6-.3 4.8-.7 7.3-.9s5.7-.9 7.3-1.5c2.4-.9 2.7-1.5 2.1-3.8-.4-1.6-.9-3.1-1.1-3.6-.5-.8-14.6-.8-17.8 0"/>
    </g>
</svg>
