<svg xmlns="http://www.w3.org/2000/svg" width="341.333" height="341.333" version="1.0" viewBox="0 0 256 256">
    <g fill="#e5e5e5">
        <path d="M113.6 22.1C69 28.6 32.2 64.1 24 108.4c-1.6 8.4-5 12.7-14.1 17.6l-6.2 3.3 5.7 3c7.3 3.9 13.2 10.3 14.5 15.9 5.4 22.1 14.1 38.8 27.6 53.3l5.5 5.9 5.2-5.1 5.1-5.1-6.4-7.1c-9.7-10.6-16.6-23-21.1-38.1-2.9-9.5-3.6-31-1.4-42 6.1-29.8 27.8-56.3 55.5-67.5 21.7-8.9 49-9 69.8-.4 37.5 15.6 60.5 52 58 91.8-1.3 21.4-11 46-23.1 58.9l-3 3.2 5.4 5.5 5.4 5.5 2.3-2.8c9.3-11 18.7-29.2 22.8-44.2 5.1-18.4 7.3-21.8 18.4-27.9l5.4-2.9-5.3-2.7c-2.9-1.5-7.4-4.8-10-7.4-4.1-4.1-4.8-5.4-5.4-10.1-.9-7-5.6-21.1-9.7-29.2-9.5-18.9-25.8-35.6-44.9-46.1-18.8-10.2-44.7-14.8-66.4-11.6"/>
        <path d="M112.5 47.4C71.9 56.8 45 92 47.3 132.8c.9 17.9 8.7 35.8 21.4 49.2l6.5 6.9 3.9-3.1 3.8-3.1-5.5-6.1c-7.5-8.3-13.7-18.5-17-28.1-2.5-7-2.8-9.5-2.8-20.5-.1-10.4.3-13.8 2.2-20 6.4-20.5 19.4-36 37.7-45 11.6-5.8 18.9-7.4 32.5-7.4s20.9 1.6 32.5 7.4c18.2 9 31.3 24.5 37.7 45 3 9.7 3.2 28.8.4 39-2.5 9.4-8.8 21.9-14.6 29.1l-5 6.3 3.2 3.3c1.7 1.8 3.5 3.3 3.9 3.3 1.3 0 10.1-12.4 13.4-19 22.5-44.8 6-95.9-37.6-116.4-4.1-2-10.1-4.3-13.4-5.2-8.2-2.2-30.1-2.8-38-1"/>
        <path d="M114 66.6C96.1 71.2 79.9 84.2 72.2 100c-5.4 11-7.2 18.3-7.2 29.5 0 9.9 1.6 16.8 5.8 25 2.8 5.7 9.5 14.5 14.1 19l3.1 2.9 3.2-3.1 3.1-3.2-6.5-7c-14.5-15.7-18.2-33.7-10.8-53.4C84.8 88.8 107.6 73 130 73c14.4 0 30 6.7 40.5 17.4 20.7 20.9 22 50.2 3.5 74.5l-4.1 5.3 2.8 3 2.8 3 4.3-4.9c8.7-9.7 16.1-28.9 16.2-41.6 0-8-2.9-19.8-7.2-28.7-3.3-7-5.6-10-12.7-17-9.6-9.5-18.6-14.7-30.1-17.4-8.1-2-24.7-1.9-32 0"/>
        <path d="M125.8 93.2c-11.3 1.4-22 9.1-27.9 20-3.2 6-3.4 6.8-3.4 16.3 0 11.3 1.4 15.3 8.4 23.5l3.9 4.4 12.2-11.7c6.7-6.4 12.7-11.7 13.3-11.7.5 0 6.3 5.2 12.8 11.6l11.7 11.6 3.1-3.3c1.7-1.9 4.3-5.9 5.8-8.9 2.5-4.9 2.8-6.6 2.8-15.5 0-9.5-.2-10.3-3.4-16.3-7.9-14.6-22.7-22.2-39.3-20"/>
        <path d="M107.1 170.7 83 195.5l2.2 1.9c3.2 2.7 15.2 8.1 22.3 10.1 3.8 1.1 11.5 1.9 21.2 2.2 20.9.7 31.9-1.8 47-10.9l5.2-3.1-24.1-24.9c-13.2-13.6-24.4-24.8-24.9-24.8-.4 0-11.6 11.1-24.8 24.7"/>
        <path d="M184.4 205.1c-11.6 7.9-28.4 13.5-44.4 14.8-22.2 1.8-41.4-2.3-58.1-12.5l-6.1-3.7-4.9 4.9c-2.7 2.6-4.9 5.1-4.9 5.4 0 1 11.7 8 19.4 11.5 4.3 2 12.2 4.8 17.5 6.3 8.4 2.2 11.6 2.5 26.6 2.6 18.8.1 27.7-1.3 42-6.5 8.2-3 21.5-10.1 23.9-12.8 1.2-1.4.8-2.2-3.3-6.8l-4.8-5.1z"/>
    </g>
</svg>
