<svg xmlns="http://www.w3.org/2000/svg" width="341.333" height="341.333" version="1.0" viewBox="0 0 256 256">
    <g fill="#e5e5e5">
        <path d="M98.2 59.3 83 74.5v22L97.5 111l14.5 14.5v13l8 8 8 8 8-8 8-8v-13l14.5-14.5L173 96.5v-22L157.4 59c-10.2-10.1-15.3-14.6-14.8-13 .4 1.4 2.6 10 4.9 19.3l4.3 16.7-11.2 7.7c-6.1 4.3-11.8 7.7-12.6 7.7s-6.5-3.5-12.7-7.7L104.2 82l4.8-18.8c2.6-10.3 4.7-18.8 4.6-18.9s-7 6.6-15.4 15M53.8 97.7 41 110.5v52l13-13 13-13-.2-25.8-.3-25.7zM189 110.6v25.9l12.8 12.8c7 7 13.1 12.7 13.5 12.7s.6-11.6.6-25.8l-.2-25.7-13.3-13L189 84.6z"/>
        <path d="m75.8 114.8.4 6.9 25.9 25.9 25.9 25.9 25.9-25.9 25.9-25.9.4-6.9c.2-3.7.1-6.8-.2-6.8s-12.1 11.6-26.2 25.7L128 159.5l-25.8-25.8C88.1 119.6 76.3 108 76 108s-.4 3.1-.2 6.8"/>
        <path d="M156.7 171.8 128 200.5l-28.3-28.3-28.3-28.3-2.9 3.1-2.9 3.1 31.2 31.2 31.2 31.2 31.7-31.7 31.8-31.8-3-3-3-3z"/>
        <path d="M112 169.6v7l8 7.8 8 7.8 8-7.8 8-7.8v-14.1l-8 8.1-8 8.1-8-8.1-8-8.1z"/>
    </g>
</svg>
