<svg xmlns="http://www.w3.org/2000/svg" width="341.333" height="341.333" version="1.0" viewBox="0 0 256 256">
    <g fill="#e5e5e5">
        <path d="M175.3 9.8c-5.2 4.8-7.8 8.3-9.7 12.4-1.4 3.2-2.9 5.8-3.4 5.8-.4 0-1.8 2.1-2.9 4.7-1.5 3.6-4.2 6.6-10.4 11.8-4.6 3.8-10.1 8.6-12.4 10.6-14.8 13.1-33.9 29-38.5 32.2-3.2 2.1-8.8 4.6-13 5.8-8.8 2.5-10 3.3-10 6.8l-.1 2.6-2-2.8c-1.1-1.5-2.4-2.7-2.8-2.7-.5 0-3.1 2.4-6 5.2-5.1 5.3-8.1 11.2-9.5 19-.7 3.7-.6 3.8 2.2 3.8 1.6 0 3.7.9 4.8 2.1 1 1.1 2.9 3 4 4.2 1.6 1.6 2 3 1.7 5.5-.6 3.8-.1 3.9 4 1 8.4-5.7 13.7-11 13.7-13.5 0-4.1 2.2-15.7 3.3-17.1.5-.6 1.7-1.2 2.6-1.2 2.5 0 12.3-5.2 17.3-9.1 6.6-5.2 15.6-12.8 36.3-30.8 31.1-27.1 36.4-31.4 38-30.7 1.2.4 1.4 1 .5 2.5-.5 1.1-1.5 2.3-2 2.6-2.2 1.3-.8 2.5 3 2.5 2.5 0 5.8 1 8.8 2.7 4.9 2.7 8.2 2.7 8.2-.1 0-.8-3.2-5.2-7.1-9.7-3.9-4.6-7.6-9.4-8.2-10.8-.7-1.4-1.8-3.1-2.5-3.7-1.1-.8-1.2-2.1-.3-6.9 1.3-6.8 1.4-11.5.4-11.5-.5 0-4 3.1-8 6.8M221.2 45c-2.8 2.6-2.7 3.1.1 5.8 2.9 2.7 3.5 2.7 5.8 0 4.7-5.3-.7-10.6-5.9-5.8"/>
        <path d="M205.2 48.1c-3.9 3.7-4.8 4.1-8.2 3.6-2.2-.3-5.3-1.5-6.9-2.6-2.4-1.7-3.5-2-5-1.1-1.1.5-4 1-6.5 1-4.3 0-4.6.2-4.6 2.7 0 1.6.9 4.3 2 6.1 2.5 4.1 2.5 6.4.1 8.6-1.6 1.4-1.7 2.3-.9 5.8.5 2.3.8 4.6.6 5.3-.3 1.2-22.6 21.5-26.4 24.1-1.1.8-5.6 1.7-9.9 2.1l-7.8.6-8.6 7.5c-4.7 4-9.2 8.1-9.8 9-1.9 2.3-1.6 7 .8 14.7l2 6.7-3.6 4.6c-2.4 3.1-3.4 5.4-3.1 6.7.3 1.1.8 5.1 1.2 8.8s1 7 1.4 7.2c.4.3 2.4-3 4.5-7.3 2.1-4.2 4.5-8.5 5.4-9.5.8-1 8.9-7.6 17.8-14.5 14.5-11.3 16.3-13 16.3-15.6 0-1.6.6-3.7 1.4-4.5.7-.9 2.4-4.8 3.6-8.6 2.9-8.8 5.2-11.7 19-24 16.4-14.5 26.7-22.2 30.9-22.9 10.9-1.8 12.7-1.8 14-.2 1.4 1.7 4.6 2.3 3.6.6-.3-.5.2-2.1 1.1-3.5 2-3.1 1.4-4.1-1.6-2.5-3.1 1.7-5.1.6-11.9-6.5-3.5-3.6-6.3-6.5-6.4-6.5s-2.2 1.9-4.5 4.1"/>
        <path d="M206.2 69.7c-6.6 4.5-26.6 21.9-32.9 28.7-5.8 6.2-7.8 10.5-11.5 24.4-1 3.8-2.3 5.2-9.7 10.9-20.6 15.8-28.1 23.4-28.1 28.5 0 3.4-12.2 18.2-14.3 17.5-.7-.2-1.7-4.9-2.3-10.8-1.2-11.1-4.6-22.4-9.3-31.7-5.2-10.2-4.9-10.1-11.4-4.8l-5.6 4.6 2.9 4.7c5.3 8.3 11 26 11 34.4 0 8.7-10.8 22.7-31.5 40.5-12.4 10.5-13.8 11.5-16.5 10.9-1.7-.4-3-1.3-3-2s4.9-4.7 10.8-8.8c12.8-8.8 20.3-15.6 27-24 9-11.4 9.6-14.2 6.1-28-2.3-9.1-5.6-16.7-9.2-21.2l-2.4-2.9-2.9 1.9c-5.2 3.3-17.3 16.8-18.5 20.4-1.4 4.2-20.3 23-23.1 23.1-2.2 0-2.2.5-.3 11.5.9 4.9 3.6 13.9 6 20.1 2.5 6.3 4.5 12.5 4.5 14 0 1.8-1.8 4.4-6 8.8-4.7 4.9-6 7-6 9.3 0 5.2 3 4.8 10.7-1.5 6.4-5.3 33.2-29 44.7-39.4 2.8-2.6 5.7-4.7 6.4-4.8 1.7 0 4.7-1.8 12.1-7.3 3.5-2.6 7-4.7 7.7-4.7s4 3.3 7.3 7.4c3.4 4.1 7 7.7 8 8.1 1.1.3 2.7 1.8 3.8 3.3 1.5 2.3 1.8 4.4 1.6 14.9-.2 6.8.1 12.3.6 12.3 1.4 0 6.1-7.4 8.1-12.9 3.1-8.1 2.7-12.8-1.8-19.7-2.2-3.2-4.9-6.8-6-7.8-1.2-1.1-2.2-2.8-2.2-3.9 0-1.7.5-1.8 3.5-1.3 2.8.6 3.5.4 3.5-.9 0-.8-.4-1.5-1-1.5-.5 0-2.8-1.6-5-3.6-3.8-3.5-3.9-3.7-2.4-6 .9-1.3 2.5-2.4 3.5-2.4 2.2 0 2.4-1.6.4-5-2.3-4.1-1.8-9.2 1.3-13.6 1.6-2.1 7.1-7.5 12.2-11.9s12.8-11 17.1-14.8c4.3-3.7 8.3-6.7 8.8-6.7 2.3 0 .9 2.9-3.4 6.8-3.8 3.5-4.4 4.4-3.6 6.4.5 1.6 1.7 2.4 3.7 2.6 2.3.2 4.1-.9 8.9-5.4 3.3-3.2 11.6-10.7 18.5-16.7s13.3-12.4 14.2-14.1 6.9-8 13.2-13.9c9.7-9.1 11.6-11.3 11.6-13.8 0-1.9-.6-3.1-1.7-3.5-1-.3-2.5-.9-3.5-1.4-1.2-.7-3 .3-7.3 4.1-5.1 4.5-7.5 5.4-7.5 2.9 0-.5 1.1-2.6 2.5-4.6s2.5-4.7 2.5-6c0-2.2-.4-2.4-5.3-2.4-4.2 0-6.3.6-9.5 2.7M160 83.3c-5.9 5.1-12.4 10.6-14.5 12.4-4.2 3.3-4.2 5.3 0 3.7 3.7-1.4 26.4-21.7 26.4-23.7.1-.9-.2-1.7-.6-1.7-.5.1-5.5 4.2-11.3 9.3"/>
        <path d="m102.6 125.9-2.7 2.9 3.1 7.3c1.7 4.1 3.5 7.8 3.9 8.2.5.5 1.7-.3 2.8-1.7l2-2.5-2.6-8.6c-1.4-4.7-2.8-8.5-3.1-8.5-.4 0-1.9 1.3-3.4 2.9m47.9 23.1c-16.7 14.7-17.6 16.8-10 24.9 2.5 2.6 4.5 5.8 4.5 7 0 1.1.4 2.1.9 2.1.7 0 10.3-8.3 24.4-21l3.9-3.5-7.9-8.3-7.8-8.2zM22.4 195.1c-3 5.5-2.5 21.7 1 34.2 1.5 5.3 2.4 10.6 2.1 11.7-1.1 3.4 1.3 2.3 6.5-3 5.9-5.8 6.3-8.2 2.4-16.7-3.7-8.3-8.4-21.9-8.4-24.5 0-1.3-.4-2.9-.9-3.7-.7-1.1-1.3-.6-2.7 2m84.5 4.8c-2.7 2.2-3.6.7 11.1 17.5l9.5 10.9.3-6.1c.4-7.5-.7-9.6-5.9-12.2-2.2-1.2-5.5-4.3-7.5-7-2-2.8-3.9-5-4.4-5-.4 0-1.8.8-3.1 1.9"/>
    </g>
</svg>
