<svg xmlns="http://www.w3.org/2000/svg" width="341.333" height="341.333" version="1.0" viewBox="0 0 256 256">
    <g fill="#e5e5e5">
        <path d="M112 12.1c-26.3 6.8-39.3 23.8-39.3 51.6 0 10.1-.1 10.3-2.4 10.3-8 0-2.8 19.1 6.7 24.7 1.8 1 5.6 5.3 8.6 9.6 10.2 14.5 28.2 30.3 37.9 33.3 3.8 1.1 5.2 1.1 9 0 9.7-3 27.7-18.8 37.9-33.3 3-4.3 6.8-8.6 8.6-9.6 9.5-5.6 14.7-24.7 6.7-24.7-2.3 0-2.4-.2-2.4-10.3-.1-17.3-4.2-28.6-14-38.2-13.1-13-37.2-18.7-57.3-13.4"/>
        <path d="M98 138.5c0 6.2-5.9 10-26 17-7.4 2.6-15.7 6-18.5 7.5-9.6 5.5-16.2 14.4-17.9 24.1-1.2 6.5 5.6 13.4 25.6 25.8 12.2 7.7 47 25.7 58.3 30.2l7.9 3.1 5.5-1.7c7.6-2.4 49.4-23.7 61.9-31.5 20-12.5 26.7-19.4 25.6-25.9-1.7-9.5-8.5-18.8-17.8-24-2.8-1.6-11.2-5-18.6-7.6-20-7-23.4-8.9-25.4-14.8l-1.3-3.8-4.9 3.9c-2.7 2.2-7.6 5.5-10.9 7.3-5.3 3-6.8 3.4-13.5 3.4s-8.2-.4-13.5-3.4c-3.3-1.8-7.8-4.8-10-6.5-5.7-4.6-6.5-5-6.5-3.1"/>
    </g>
</svg>
