<svg xmlns="http://www.w3.org/2000/svg" width="341.333" height="341.333" version="1.0" viewBox="0 0 256 256">
    <g fill="#e5e5e5">
        <path d="M162.5 28.3C157 30.8 149 37.9 149 40.2c0 1.2 1.9 5.5 4.1 9.7 12.6 23 31 41.4 53.3 53.2 9.9 5.3 12.5 5.8 14.8 3.1 2.9-3.2 5.8-10.1 5.8-13.5 0-5.2-3.6-9.5-15.9-18.8C193.3 60.4 171.8 35 178.3 35c3 0 24.7 19.1 24.7 21.7 0 .7 1.5 2.3 3.4 3.4s7.1 6.9 11.7 12.9c5.4 7.2 8.9 11 10.1 11 1.5 0 1.8-.5 1.2-2.3-.9-2.9-10.4-15.5-17.9-23.6-8.8-9.5-27.4-26-31.9-28.3-5-2.6-13.2-3.3-17.1-1.5M146 60.4c-3.2 4 3.1 15.8 10.7 20.1 2.5 1.4 4.8 2.4 4.9 2.2.2-.2-2.2-5.5-5.4-11.8-5.7-11.4-7.7-13.4-10.2-10.5"/>
        <path d="M203 63.6c0 1.6 2.3 4.4 3.5 4.4 1.8 0 1.8-.5.5-3.1-1-1.7-4-2.7-4-1.3m-94.5 3.7c-11.2 4.6-19 10-24.1 16.9-4.7 6.5-10 19.2-11.7 28.1-1.5 8-.5 8.7 6.7 5.1 7-3.5 8.7-2.8 9.9 4.2 1.6 9.4 5.9 14.4 12.4 14.4 3.1 0 10.7-3.2 11.7-4.9.9-1.5-5.4-7-8.1-7.1-2.7 0-7.3-2-7.3-3.2 0-.4-1.1-.8-2.3-.8-1.3 0-3.1-.8-4-1.8-1.9-2.1-3.5-13.2-1.8-13.2.6 0 2.1-1.8 3.3-4 1.8-3.1 2.9-4 5-4s2.9.7 3.8 3.4c.6 1.8 3.5 6.2 6.5 9.6 3 3.5 5.5 6.7 5.5 7.1s1.2 1.4 2.7 2.1 3.4 2.6 4.1 4.2c1.2 2.3 1.8 2.7 4.1 2.2 8.8-2.1 11-1.9 17.8 1.5 13.6 6.9 21.2 17.8 20 28.6-1.3 11.8-13.7 16.8-27 10.9-7.1-3.1-22-12.7-26.7-17.2-3.5-3.3-8.6-5.9-13.3-6.8-4.7-.8-9.8-3.8-11.2-6.7-.8-1.5-1.5-5.3-1.5-8.4 0-6.3-1-6.8-7.8-4-5.1 2.2-7.8 5-11.4 11.8-3.3 6.2-21.6 26.9-29.2 33.2-2.6 2.1-4.9 4.9-5.3 6.3-.8 3.2 4 12.8 6.8 13.7 2.7.9 22.5-8.2 25-11.4 1.5-1.8 1.9-3.4 1.5-5.6-.3-1.6-.9-5.5-1.2-8.6-.6-5.1-.4-5.8 1.7-7.3 5.8-4 12.8-.6 15.4 7.7 1 2.8 2.7 6.3 3.9 7.5 1.9 2.2 2.6 2.3 8.1 1.6 7.6-1 20.2-.7 23.5.6 1.4.6 8.1 2.1 15 3.4 24.9 4.9 37.7 2.1 50.4-10.6 6.7-6.7 11.6-15.5 11.6-20.7 0-4.4-2.2-3.9-6.5 1.3-4.3 5.3-5.9 6-9.3 4.3-2.3-1-2.7-1.9-2.9-5.7-.4-10.1-1.2-12.1-5.7-14.1-4.8-2.1-24.3-21.6-32.5-32.4-6.8-9.1-8.5-9.9-15.9-8.1-2.6.6-3.8.4-5.3-1-3.1-2.8-2.4-5.8 2.7-10.1 3.5-2.9 4.7-4.6 5-7.3.2-1.9.5-4.4.6-5.5.5-3.1-3.7-2.9-12.7.8"/>
        <path d="M129.1 65.3c-1.4 1.8-.8 4.6 3.1 14.1 8.1 19.6 27.6 39.9 48.6 50.5 3.7 1.9 7.5 3.1 9 2.9 2.6-.3 2.7-.6 3-6.9.2-4.5-.1-6.9-1-7.6-.7-.5-6.2-3-12.2-5.4-10-4-11.6-5.1-19.8-12.8-9.5-9-12.6-13.4-15.3-22.1-3.6-11.4-6-14.1-9.4-10.8-1 1.1-1.6.8-3-1-1.5-2-1.9-2.2-3-.9m-59.7 99.9c1.8 9.3 1.8 11.5.2 14.7-2 3.8-8.2 8.4-14.4 10.7-10.9 4-13.2 5.2-13.2 7.4 0 4.2 14.7 17.2 28.7 25.4 11.7 6.9 9.4 7.7 27.2-9.6 11.4-11.2 17.7-16.5 23.4-19.8 4.2-2.5 7.6-4.9 7.4-5.5-.2-.5-2.8-1.3-5.8-1.7s-9.2-2.3-13.9-4.2c-9.4-4-13-4.4-15.2-1.9-3.4 3.9-2.9 14.3.6 14.3.9 0 3.1-1.4 5-3 2.2-2 4.6-3.1 6.8-3.2 4.2-.1 9.8 1.1 9.8 2.2 0 .5-3.9 4.4-8.7 8.7-4.9 4.3-12.3 11.3-16.6 15.6-5.3 5.2-8.4 7.6-9.5 7.3-.9-.3-3.6-1-5.9-1.6-5.7-1.4-5.5-3.5.7-5.5 5.2-1.7 8.2-4.6 12.6-12l2.5-4.4-2.1-4.2c-1.7-3.2-2-5.2-1.6-8.2.8-4.7-.4-6.4-5-7.3-4.4-.8-7.1-4.2-9.1-11.6-1-3.7-2.2-5.8-3.1-5.8-1.1 0-1.3.8-.8 3.2"/>
    </g>
</svg>
