<svg xmlns="http://www.w3.org/2000/svg" width="341.333" height="341.333" version="1.0" viewBox="0 0 256 256">
    <g fill="#e5e5e5">
        <path d="M127 22.6c0 3.7-7 14.4-14.8 22.6-17 17.8-46 38.5-80.4 57.2-4.8 2.6-9 5.2-9.3 5.6-1.6 2.6-2.4 18.1-1.4 27.9 2.5 27 13.3 52.2 30 70.6 7.6 8.2 7.8 6.7.4-3-15.6-20.5-21-41.7-14.7-58.3 3.3-8.5 7.8-13.4 17.7-19.4 5-3 23.5-14.4 41.3-25.2l32.3-19.7 29.7 18c56.3 33.9 53.2 31.9 57.9 38.8 5.1 7.7 6.7 14.7 6 26.3-.8 13.4-7.2 27.9-18.4 41.6-5.9 7.3-4.5 8.4 1.8 1.4 14.1-15.8 24.9-37.8 29-59 1.4-7.1 1.8-34 .7-38-.6-1.9-3.8-4.2-13.4-9.5-15.7-8.7-35.5-21.2-48.8-30.9-22.1-16.1-35-29.4-40.9-41.8-3.1-6.7-4.7-8.4-4.7-5.2"/>
        <path d="M125.6 104.7c-4.2 10-22.7 25.5-50.3 42-7.6 4.5-14.6 8.8-15.6 9.5-1.6 1.1-1.9 2.7-1.8 11.3.1 19.9 4.9 34 17.3 50.2 6 7.8 6.5 6.4.8-2-6.4-9.4-9-17-9-25.9 0-8.2 3.1-15.2 8.2-19.1 6.2-4.6 51.6-31.7 53.1-31.7.8 0 7.3 3.6 14.3 7.9 7.1 4.4 19.2 11.7 26.9 16.4 13.3 8 14.1 8.7 16.9 14 1.5 3 3.1 7.5 3.3 10 1 8.4-3 19.8-10.4 30-5.1 6.9-3.3 6.9 2.1 0 6.4-8 12.3-19.8 14.6-29 2.4-9.3 3.5-22.3 2.3-27.7-.8-3.7-1.5-4.3-14.4-12.1-7.4-4.4-17.7-11-22.9-14.5-11.7-8-28-23.9-30.5-29.8-1.1-2.3-2.1-4.2-2.4-4.2s-1.5 2.1-2.5 4.7"/>
        <path d="M127 155.4c0 5.1-16.2 19-34.8 29.9l-10.4 6.1.4 10.5c.4 9.9.7 11.2 4.5 19.1 4.2 8.6 8.6 15 9.7 13.9.4-.3-.9-2.9-2.8-5.8-6.6-9.8-6.9-21.3-.6-27 1.5-1.4 10.1-7 19-12.4l16.2-9.8 17.8 10.8c20.1 12.1 22 14.1 22 23.1 0 5.6-1.8 10.7-6.2 17-4 5.8-2.9 6.5 1.5 1 6.5-8.1 10.5-18.4 11.4-29.9.7-9.2-.2-11.1-6.5-14.3-14.9-7.6-35.5-24.1-38.2-30.7-1.3-3-3-3.9-3-1.5"/>
    </g>
</svg>
