<svg xmlns="http://www.w3.org/2000/svg" width="170.667" height="170.667" version="1.0" viewBox="0 0 128 128">
    <path fill="#e5e5e5" d="M55.7 17.5c-7.4 2.8-29.4 21.9-28.4 24.8.5 1.5 60.9 51.6 62.2 51.7.6 0 3.2-2.1 5.7-4.7 7.6-7.7 9.4-14.5 6.3-23.4-1.4-3.9-1.4-4.7 0-8.1 3-7.5 1.2-15.3-4.8-21.6C90.8 30 76.2 19 72 17.5c-5.2-1.8-11.3-1.8-16.3 0m20.7 11.7c2.6 1.7 7.4 5.6 10.7 8.7C92.4 43 93 44 93 47.6c0 4.7-2.2 8.5-4 6.8-.8-.8-.8-1.8.1-3.7.6-1.4.9-3.7.5-5-.6-2.5-12.4-12.8-17.8-15.4-4.1-2.1-9.1-1.1-14.3 2.9l-4.3 3.3 2.1 2.2c2.4 2.7 4 2.9 5.7.8.7-.8 1.9-1.5 2.6-1.5s8.1 5.4 16.3 12.1C95.2 62.4 99 67 99 73.1c-.1 6-1.2 5.4-25.6-14.7-13.1-10.8-24.3-20-24.9-20.6-1-.9 2-3.7 9.8-9.1 5.7-3.9 11.8-3.7 18.1.5M30.6 59.3c-7.4 9.6-7.3 20.1.2 28.1 5.5 5.9 22.3 18.5 25.9 19.5 8.5 2.4 17.1.4 23.8-5.4l4-3.5-3.5-3.1c-8.8-7.7-9.7-8.2-12.2-6.5-4.6 3.2-6.9 2.2-22.2-10.2-8-6.4-14.5-12.2-14.6-12.9 0-.6 1.1-2.5 2.5-4.1 1.8-2.2 2.1-3.2 1.3-4-1.8-1.8-2.5-1.5-5.2 2.1"/>
</svg>
