<svg xmlns="http://www.w3.org/2000/svg" width="170.667" height="170.667" version="1.0" viewBox="0 0 128 128">
    <path fill="#e5e5e5" d="M33.2 21.7C26.1 25.2 22 34.4 24 42.1c.6 2.2 2.6 5.7 4.4 7.7 2.6 3 3.1 4.2 2.5 6.2-.9 3.1-1.1 13.3-.3 15.4.4 1.1 1.1 1.3 2.8.5 1.8-.8 2.1-1.7 1.8-4.5-.2-1.9-.1-5.4.2-7.8.7-4.4.7-4.5 4.2-3.9 4.7.8 11.6-2 15.3-6.3 3.5-4 5.5-10.4 4.7-14.9-.9-4.6-5.7-10.9-9.9-12.8-4.4-2.1-12.2-2.1-16.5 0m44.9 0c-4 2-8.8 8.3-9.7 12.8-.8 4.5 1.2 10.9 4.7 14.9 3.7 4.3 10.6 7.1 15.3 6.3 3.5-.6 3.5-.5 4.2 3.9.3 2.4.4 5.9.2 7.8-.3 2.8 0 3.7 1.8 4.5 1.7.8 2.4.6 2.8-.5.8-2.1.6-12.3-.3-15.4-.6-2-.1-3.2 2.5-6.2 1.8-2 3.8-5.5 4.4-7.7 2.1-7.7-2.2-17.1-9.3-20.5-4.5-2.1-12.2-2-16.6.1M62 32.5c0 1.8.5 2.5 2 2.5s2-.7 2-2.5-.5-2.5-2-2.5-2 .7-2 2.5M35.4 74.1c-4.2 1.2-10 7.8-11.4 12.8-1.3 5.1-.1 11 3.3 15.5 6.9 9 22 8.8 28.5-.3 2.4-3.4 2.9-3.6 8.2-3.6s5.8.2 8.2 3.6c6.5 9.1 21.6 9.3 28.5.3 5.8-7.7 5-17-2.1-24-5.2-5.3-11.2-6.6-18.1-4C73.8 77 68 84.9 68 91.7c0 1.5-3.5 2.6-6 1.8-1.1-.3-2-1.2-2-1.8 0-3.2-2.3-9-4.7-11.8-4.9-5.8-12.5-8-19.9-5.8"/>
</svg>
