<svg xmlns="http://www.w3.org/2000/svg" width="682.667" height="682.667" version="1.0" viewBox="0 0 512 512">
    <g fill="#e5e5e5">
        <path d="M245.8 69.7c-13.5 18.6-33.9 49.4-45.3 68.3-11.8 19.7-27.5 50.4-33.2 65-7.1 18.4-15.2 48.1-15.6 57.4l-.2 5.9 8.5 3.1c11.5 4.1 37.4 17.3 49 25.1 10.4 6.9 23.4 19.7 29.6 29 3.6 5.3 3.9 5.6 4.5 3.4.4-1.3 3.4-35.6 6.6-76.2 3.2-40.5 6-73.7 6.3-73.7s3.1 33.2 6.3 73.7c3.2 40.6 6.2 74.9 6.6 76.2.6 2.2.9 1.9 4.5-3.4 6.2-9.3 19.2-22.1 29.6-29 11.6-7.8 37.5-21 49-25.1l8.5-3.1-.2-5.9c-.4-9.3-8.5-39-15.6-57.4-5.7-14.6-21.4-45.3-33.2-65-16.7-27.8-53.2-81-55.5-81-.5 0-5.1 5.7-10.2 12.7m-214.2 188c10.1 45.6 24.1 89.5 37.3 116.8 7.7 15.9 23.5 40.5 31 48.2 19.9 20.4 42.2 31.1 68.9 32.9 5.3.4 9.6.3 10.6-.3 1.5-.8.9-1.1-2.8-1.6-5.8-.8-16.1-4.9-24-9.5-9.3-5.5-20.1-17-28.4-30.2-11.1-17.9-18.2-35.2-26.5-64.5-5-17.7-10.2-39.3-9.6-39.9s20.4 2.1 37.4 5c18 3.1 41.9 9.1 53.3 13.3 13.1 4.9 31 14.5 38.4 20.6 12.5 10.4 22.2 26.5 25.3 42 .9 4.4 1.8 8.1 2 8.3.8.9 1.7-15.5 1.1-21.5-2.3-22.5-14.1-46.3-30.8-62-10.5-9.8-37.4-25.4-56.7-32.8-26.2-10.1-71.5-20.1-122.4-27l-4.8-.6zm442.9-2c-47.2 6.3-95.1 16.9-120.6 26.8-19.3 7.4-46.2 23-56.7 32.8-16.7 15.7-28.5 39.5-30.8 62-.6 6 .3 22.4 1.1 21.5.2-.2 1.1-3.9 2-8.3 3.1-15.5 12.8-31.6 25.3-42 7.4-6.1 25.3-15.7 38.4-20.6 11.4-4.2 35.3-10.2 53.3-13.3 17-2.9 36.8-5.6 37.4-5s-4.6 22.2-9.6 39.9c-8.3 29.3-15.4 46.6-26.5 64.5-8.3 13.2-19.1 24.7-28.4 30.2-7.9 4.6-18.2 8.7-24 9.5-3.7.5-4.3.8-2.8 1.6 1 .6 5.3.7 10.6.3 26.7-1.8 49-12.5 68.9-32.9 7.5-7.7 23.3-32.3 31-48.2 13.2-27.2 27.3-71.5 37.3-116.8.7-2.9.7-2.9-5.9-2"/>
        <path d="M158.7 376.2c1.6 1.8 15.8 17.9 31.5 35.8s29.1 33 29.9 33.6 7.4 3.2 14.7 5.7L248 456l-.7-2.8c-.3-1.5-2.3-8.1-4.2-14.7l-3.7-12-40.9-26.7c-22.6-14.6-41.4-26.7-41.9-26.7-.6-.1.4 1.4 2.1 3.1m154.8 23.6-40.9 26.7-3.7 12c-1.9 6.6-3.9 13.2-4.2 14.7l-.7 2.8 13.2-4.7c7.3-2.5 13.9-5.1 14.7-5.7s14.2-15.7 29.9-33.6 29.9-34 31.5-35.8c1.7-1.7 2.7-3.2 2.1-3.1-.5 0-19.3 12.1-41.9 26.7"/>
    </g>
</svg>
