<svg xmlns="http://www.w3.org/2000/svg" width="341.333" height="341.333" version="1.0" viewBox="0 0 256 256">
    <g fill="#e5e5e5">
        <path d="M86.3 14c-8.8 1.8-9.1 2.4-9.7 19.6-.2 5.6-.9 11.1-1.5 12.2-2.3 4.3-.4 19.2 2.5 19.2.8 0 3.7 2.1 6.5 4.7s7.1 6.1 9.7 7.8c3.3 2.1 5.1 4.2 6.2 7.1 2.6 6.9 20.6 26.6 27.3 29.7 8.4 4 23.7 4.5 25.6.8.5-.9.7-3.5.4-5.7-.4-3.5 0-4.6 4.4-10.4 2.7-3.6 7.7-10.6 11.1-15.6 8.2-12.3 16.7-22 26.3-30 6.7-5.6 10.9-10.5 10.9-12.8 0-1.1-13.9-4.7-19.1-5.1-3-.1-6.4-.6-7.6-1-1.7-.6-2.5-.1-3.7 2.3-2 3.8-6.6 7.2-9.9 7.2-1.4 0-6.8-2.9-12.3-6.6C137.2 26.6 125.5 21.5 111 19c-3.6-.7-9.2-2.2-12.6-3.6-3.3-1.3-6.5-2.4-7-2.3s-2.8.5-5.1.9"/>
        <path d="M96 95c0 2.8-.6 3.3-8.4 7-9.1 4.3-13.7 8.7-15.7 15-2.2 6.9-4.1 9.8-7.4 11.6-4.8 2.5-10.4 10.3-12.6 17.5-1 3.3-1.9 6.7-1.9 7.5 0 2.4 7.2-1.9 14.4-8.7 4.9-4.6 7.4-6.1 10.3-6.5 6.9-.9 8.1-1.4 11.2-4l3.1-2.6v2.6c0 1.4 1.6 5.5 3.5 9.2 1.9 3.6 3.5 7.6 3.5 8.8s-1.4 3.5-3.1 5.2c-5.5 5.2-7 8.8-7.9 18.3-.8 9.1-2.3 13-7.9 21.3-1.6 2.4-3.6 6.7-4.5 9.7-1.8 6.3-2.2 22.6-.6 28.3 1.7 5.9 8 9.3 8 4.3 0-7.1 10.3-27.5 22.9-45.6 6.1-8.7 6.5-9.1 7.4-6.8.5 1.3 1.3 9.1 1.7 17.4.5 11.8 1.2 16.2 2.9 20.7 3.7 9.5 11.1 17.8 16.1 17.8 2.4 0 2.4-.1.4-10.9-1.2-6.5-1.5-11.6-1-20.6 1.9-35.7 1.9-38.5.1-45.1-.9-3.5-2.3-6.8-3.1-7.5-1.9-1.5-1.8-7.1.2-11.7.9-2 1.6-6 1.6-8.7 0-6.4.4-7 3.5-4.5 3.5 2.7 8.4 3.4 14 2 4-1 5.7-1 9.9.3 5.6 1.7 10.9 1.1 16.6-1.9l3.1-1.6-2.9-1.9c-6.2-4-14.8-6-27.1-6.2-10.6-.2-12.3-.5-16.9-2.9-2.7-1.5-5.7-3.4-6.5-4.4-.8-.9-3.8-3.3-6.7-5.2-3.4-2.1-6.4-5.1-8-7.9-3.6-6-9.1-12.3-10.8-12.3-.9 0-1.4 1.1-1.4 3"/>
    </g>
</svg>
