<svg xmlns="http://www.w3.org/2000/svg" width="341.333" height="341.333" version="1.0" viewBox="0 0 256 256">
    <g fill="#e5e5e5">
        <path d="M35.2 30c-1.8 1.1-4.1 3.4-5.2 5.2-1.9 3.2-2 5.2-2 46.6V125l4-2.6 4-2.7V104h15v4.5c0 2.5.4 4.5 1 4.5.5 0 4.1-.5 7.9-1.2 6.8-1.2 7-1.3 7.3-4.2.3-3.1.3-3.1 7.1-3.4l6.7-.3v6.9l7.1 1.6c3.9.9 7.5 1.6 8 1.6s.9-2.3.9-5v-5h28v27.5l5.7 7.7c3.2 4.2 6.1 7.4 6.6 7.1.4-.2.7-9.8.7-21.1l-.2-20.7 8.6-.3 8.6-.3v2.8c0 3.5 3.4 11 6.3 14.2 1.2 1.3 4.5 3.4 7.2 4.7 4.4 2.1 6.5 2.4 17.4 2.4h12.4l-2.3 2.5c-1.3 1.4-3.3 2.5-4.4 2.5-7.9 0-14.8 4.8-17.3 12.1l-1.8 4.9H138l1.9 3.7c1 2.1 2.4 5.7 3.1 8l1.3 4.3H173v54h-6v-12.3c0-9.8-.4-13-1.9-16.2-2.5-5.3-8.6-11.1-13.8-12.9-2.4-.8-4.3-1.4-4.3-1.3-.1.1-.2 3.8-.3 8.2-.2 7 0 8.2 2.1 10.2 2 2 2.2 3.1 2.2 13.3v11h-6.4c-6.3 0-6.4 0-9 4l-2.6 4h42.2c40.4 0 42.4-.1 45.6-2 1.8-1.1 4.1-3.4 5.2-5.2 1.9-3.2 2-5.3 2-92.8s-.1-89.6-2-92.8c-1.1-1.8-3.4-4.1-5.2-5.2-3.2-1.9-5.3-2-92.8-2s-89.6.1-92.8 2M51 45.5V55H36v-7.5c0-9.7 1.5-11.5 9.5-11.5H51zm30 0v9.6l-6.7-.3-6.8-.3-.3-9.3-.3-9.2H81zm44 0V55H97V36h28zm54.1 14.2c0 25.6-.5 27.9-6.1 30.8-5.5 2.8-6 2.3-6-6.3 0-18.2-7.5-27.8-22.7-29.1l-6.5-.6.1-8.8c0-4.8 0-8.9.1-9.2 0-.3 9.2-.4 20.5-.3l20.6.3zM218 38c1.1 1.1 2 3.3 2 4.9 0 2.7-.2 2.9-5.4 3.3-3.9.3-6.5 1.2-9 3.2-6.5 4.9-6.6 5.3-6.6 37.6v29h-11.5c-13 0-16.5-1.1-19-6-2.2-4.3-1.9-6 1-6 6.8 0 15.4-6 19.2-13.3 2.8-5.2 2.8-5.3 3.1-30l.4-24.7h11.9c10.6 0 12.1.2 13.9 2m2 47v31h-13V87.7c.1-20.6.4-28.6 1.3-29.8 1.9-2.4 4.9-3.8 8.5-3.9h3.2zM51 79.5V92H36V67h15zm30 0V92H67V67h14zm44 0V92H97V67h28zm24.1-10.8c4.2 2.5 5.9 6.9 5.9 15.7V92h-17.5V67h4.3c2.4 0 5.7.8 7.3 1.7M220 171.8c0 44.8-.1 46.5-3.8 47.4-1.1.2-1.3-3-1.2-15.8.2-26.6-2.1-34.8-12.5-44.2-4.2-3.9-7.2-5.7-12.2-7.2-3.6-1.1-7.1-2-7.9-2-1.8 0-1.7-.4.1-3.9 1.6-3.2 2.4-3.7 8.9-4.6 6.2-1 10.7-4.1 13.1-9.2l2-4.2 6.8-.1h6.7zm-30.5-2.3c2.3 1.3 5 4.1 6.3 6.3 2.1 3.9 2.3 5.2 2.3 23.9v19.8l-8.5.3-8.6.3v-54.2l2.3.6c1.2.4 4 1.7 6.2 3"/>
        <path d="M60.3 131.4c-19.2 4.4-35.9 20.4-40.8 39.1-1.9 7.6-1.9 21.4 0 29 7.7 29.5 41 47.5 69.6 37.6 9.1-3.1 13.6-5.8 20.8-12.6 23-21.7 23-57.3 0-79-7.2-6.8-11.7-9.5-20.9-12.7-7.3-2.5-20.7-3.2-28.7-1.4m22.1 16.1c6.3 1.6 13.2 5.3 16.1 8.5 1.8 2 1.6 2.3-14.8 18.7L67 191.4l-7.8-7.6-7.7-7.7-5.1 4.9-5.1 4.8 13.6 13.6L68.5 213 89 192.5l20.5-20.6 1.2 3.8c2.6 8.5.9 21.2-4 29.6-14.4 24.5-49.4 26.5-66.1 3.7-11.2-15.2-9.7-37.7 3.4-50.8 10.7-10.6 24.2-14.4 38.4-10.7"/>
    </g>
</svg>
