<svg xmlns="http://www.w3.org/2000/svg" width="341.333" height="341.333" version="1.0" viewBox="0 0 256 256">
    <g fill="#e5e5e5">
        <path d="M173.7 22.5c-13.6.7-24.9 1.4-25.1 1.6s-4.6 7.8-9.9 16.9c-7.9 13.5-9.3 16.6-7.9 16.8 1 .2 20.7-1.8 43.7-4.3 23.1-2.5 43-4.6 44.3-4.8 1.4-.1 5.4 2.3 11.7 7.1 5.2 4 9.5 7 9.5 6.6s-.5-3.6-1.1-7l-1.1-6.3-18.1-14c-9.9-7.8-18.8-14-19.6-14-.9.1-12.7.7-26.4 1.4m-81.4 10c-21 1.1-38.4 2.2-38.7 2.5-.8.8 59.2 28.2 60.3 27.6 1.2-.8 17.2-30.8 16.9-31.5-.2-.3-17.5.3-38.5 1.4M20 42.5c-2.7 3.4-5 6.7-5 7.2C15 51 46.4 82 47.7 82c1.5 0 44.5-15.2 44.1-15.6-.3-.2-44.3-20.2-61.5-27.9l-5.2-2.4z"/>
        <path d="M168 63.2c-26.7 3.3-48.6 6.1-48.6 6.1-.1.1-15.7 27.5-34.8 60.8L50 190.7l-.6 9.9-.6 9.9 15.7 11.3c8.6 6.2 16.3 11.6 17 11.8.8.4 13.5-17.6 35.5-50.5 18.8-28.1 34.4-51.1 34.7-51.1.2 0 .1.6-.4 1.2-6.9 11.2-54.9 98.4-54.2 98.6.5.2 28-3.8 61.1-9l60.2-9.3 8.7-18 8.7-18 2.1-36.5c1.2-20.1 2.4-39.9 2.7-44l.5-7.5-33.3 50.2c-18.4 27.7-33.8 50.6-34.3 51-.5.5-.2-.3.6-1.7 10.6-17.2 68-114.2 67.7-114.5-3.5-3.5-22.6-17.5-23.7-17.4-.9.1-23.4 2.8-50.1 6.1M76.1 81.6c-11.2 3.5-20.4 6.4-20.6 6.6-.3.5-4.2 77.3-3.9 77.7.1.2 10.5-20 22.9-44.9S97 75.7 96.8 75.5c-.2-.1-9.5 2.7-20.7 6.1m-60.5.7c-.3 2.9-.7 27.2-.8 54.2l-.3 49 12.3 2.8c6.8 1.6 12.6 2.6 13 2.3.5-.6 4.9-76.2 5.1-88.1.1-2.7-1.3-4.1-14.3-14.2L16.1 77.1zM14 192.5c0 .9 12.2 27.1 12.9 27.8s5.5 2.6 25.6 10.1c8 3 8.5 3.6-6-7.9l-7.5-6 .2-8.4.3-8.5-5.5-1.7c-10.3-3.1-20-5.7-20-5.4"/>
    </g>
</svg>
