<svg xmlns="http://www.w3.org/2000/svg" width="682.667" height="682.667" version="1.0" viewBox="0 0 512 512">
    <g fill="#e5e5e5">
        <path d="M240 31.2c-8.5 9.4-18.4 20.3-22 24.2s-8.3 9.3-10.5 12l-4 4.9 4.5 3.9 4.4 4 7.1-7.4c3.8-4 12.8-13.7 19.8-21.6C251.6 37.6 252.3 37 256 37s4.4.6 15.7 13.2c6.5 7.3 15.4 17 19.8 21.6l8 8.2 4.5-3.9 4.5-3.9-5.5-6.3c-11.4-13.3-46.8-52-47.3-51.8-.1 0-7.2 7.7-15.7 17.1"/>
        <path d="M232.4 72.2c-2.8 2.9-6.5 7.2-8.3 9.5l-3.2 4.2 7.4 7.3c4 4 10.4 9.8 14.2 12.8s8.4 7 10.4 8.9 3.7 2.8 3.9 2.2 5.4-5.5 11.5-10.8c6.2-5.3 13.8-12 17-15l5.9-5.4-4.8-5.7c-2.6-3.1-6.5-7.4-8.5-9.6l-3.7-3.8-7.3 6.1c-10 8.4-12.3 8.4-21.5.1-3.6-3.3-6.9-6-7.3-6s-2.9 2.4-5.7 5.2"/>
        <path d="M187.9 89c-13.8 15-14.4 15.9-14.4 24.4 0 6.7.3 7.6 4.4 14.6 5.4 9.1 15.8 19.6 30.6 31 14.3 11.1 23.5 20.2 27.4 27.1 3.6 6.4 11.2 14 16.5 16.6 3.4 1.6 3.8 1.6 7.2 0 5.4-2.6 12.8-10.1 17-17.3 4.4-7.5 11.3-14.3 27.5-27 19.6-15.4 25.7-21.9 31.8-34 3.7-7.3 4.1-13.6 1.2-19.2-1.9-3.7-21.6-26.2-22.9-26.2-.4 0-2.6 1.7-4.9 3.8l-4.3 3.7 9.4 11.2c5.2 6.1 9.7 12.5 10.1 14.1 1.7 7.9-7.1 18.6-31.2 37.9-14.5 11.6-22.8 19.9-28.6 28.8-6.5 10-11.3 9.9-18.1-.4-5.7-8.5-15.4-18-31.6-30.8-22.3-17.7-31.1-29-28.2-36.3.6-1.4 5.3-7.5 10.6-13.5l9.7-11-4.3-3.7c-2.4-2.1-4.6-3.8-5-3.8-.3 0-4.8 4.5-9.9 10"/>
        <path d="m211.6 95.9-2.8 3 2.1 2.9c2.6 3.7 2.6 4.1-.1 5.1-1.7.7-2.8.4-4.4-1.1-2.1-1.9-2.1-1.9-6.8 3.3-2.5 2.8-4.6 5.6-4.6 6.3 0 3.9 7.8 11.6 27 27 9.1 7.3 20.5 17.1 25.4 21.8l8.8 8.6 6.2-6.5c6.9-7.4 17.9-16.9 34.1-29.5 11.3-8.8 17.8-15.1 19.7-19.3 1-2.2.6-3-3.7-8l-4.8-5.6-2.1 2c-1.4 1.3-2.9 1.8-4.4 1.4-2.7-.7-2.8-1.7-.1-5.5l2.1-2.9-2.8-3c-1.5-1.6-3.1-2.9-3.4-2.9-.4 0-4 2.2-8.1 4.9-7.7 5-22.9 20-28.8 28.3-1.9 2.7-3.7 4.8-4 4.8-.4 0-3-3.1-5.9-6.9s-8.4-9.9-12.3-13.5c-7.1-6.8-21.1-17.6-22.7-17.6-.4 0-2.1 1.3-3.6 2.9m47.9 42.1c4-3.9 4.6-2.9 1.2 2.1-1.7 2.6-3 3.4-5.2 3.4s-3.5-.8-5.2-3.4c-3.8-5.6-2.8-7 1.7-2.6l4 3.9z"/>
        <path d="M201.3 173.2c.4 4.7 1.6 13 2.7 18.4 4 19.2 15 97.1 20 141.9 1.2 10.4 5.4 46.4 9.5 80l7.3 61 4.2 9c2.3 5 4.7 10.1 5.3 11.5.9 2.1 1.2.9 1.8-7.8.7-11.2 1.8-13.7 4.7-10.9 1.3 1.4 1.8 4.1 2.2 11.5l.6 9.7 2.7-6c8.7-18.6 6.7-6.1 21.2-129.5 8.7-74.4 18.8-147.6 23-168.3 1.4-6.5 2.8-15.4 3.1-19.9.8-9.1 1.3-9-7.2-2.6l-5.1 3.8-2.6 13.3c-3.1 15.3-6.5 38.3-13.7 90.2-2.7 20.3-5.7 39.8-6.5 43.3-1.7 7-4 12.2-5.5 12.2-.6 0-1-18.7-1.1-51.3-.1-28.1-.4-56-.8-62l-.6-10.7-3.6 2.4c-3.2 2.2-3.7 3.1-4.2 7.8-.4 2.9-.7 31.4-.8 63.3-.1 64.6-.7 74.7-3.9 69.5-.6-.9-1-27.6-1-65 0-34.9-.3-65.8-.6-68.7-.6-4.7-1.1-5.5-4.5-7.8-2.2-1.4-4-2.2-4-1.8-.1.5-.5 28.4-.8 62.2-.6 65.2-.8 67.5-5 57.9-1.3-2.9-3.7-17.8-7.6-46.3-6.7-49.8-10.5-74.8-14.1-94.5-2.9-15.6-2.4-14.7-11.3-21.2l-4.4-3.2z"/>
    </g>
</svg>
