<svg xmlns="http://www.w3.org/2000/svg" width="341.333" height="341.333" version="1.0" viewBox="0 0 256 256">
    <g fill="#e5e5e5">
        <path d="M119 23.2c-4.3 2.3-6.4 5.5-38.7 57.4-18.9 30.2-35.2 56.8-36.3 59.1-2 3.8-9.5 47.1-8.5 48.2.3.2 7.1-5 15.2-11.5 8.1-6.6 15.3-12.3 16-12.7.7-.5-2.2 4.7-6.4 11.4-5.5 8.6-10.9 15.5-18.1 23l-10.4 10.8-1.8 11.8c-1 6.5-1.7 11.9-1.5 12.1s11-8.9 24-20.2C65.6 201.3 76.6 192 76.9 192c.4 0 5.8 5.2 12.1 11.5l11.3 11.5 9.7-9.4c5.2-5.2 10.8-9.8 12.3-10.1l2.7-.7V86h-13.5C99 86 98 85.9 97 84c-.6-1.2-.8-3.1-.4-4.2.4-1.2 6.5-11.6 13.7-23.1 13.4-21.5 15.3-23.6 20-21.8 1.6.6 6.7 7.9 15.4 21.8 7.2 11.5 13.3 21.9 13.7 23.1.4 1.1.2 3-.4 4.2-1 1.9-2 2-14.5 2H131v108l3.8 1.5c2 .9 7.6 5.5 12.5 10.3l8.7 8.7 11.4-11.4c10.5-10.5 11.6-11.3 13.3-10 1 .8 11.8 10.1 24.1 20.7 12.3 10.7 22.5 19.2 22.7 19 .2-.1-.5-5.6-1.5-12.1l-1.8-11.8-10.4-10.8c-7.2-7.5-12.6-14.4-18.1-23-4.2-6.7-7.1-11.9-6.4-11.4.7.4 7.9 6.1 16 12.7 8.1 6.5 14.9 11.7 15.2 11.5.6-.6-6.2-43-7.4-46.1-.6-1.5-16.9-28.2-36.2-59.3-38.7-62.1-37.4-60.6-47.8-61.3-4.5-.3-6.5.1-10.1 2"/>
        <path d="m118.2 216.3-8.3 8.3 4.3 4c6.1 5.6 12.2 7.3 19.2 5.1 3.4-1.1 6.5-3.1 9.1-5.7l3.9-4-7.9-8c-4.8-4.8-8.8-8-10-8s-5.3 3.3-10.3 8.3"/>
    </g>
</svg>
