<svg xmlns="http://www.w3.org/2000/svg" width="341.333" height="341.333" version="1.0" viewBox="0 0 256 256">
    <g fill="#e5e5e5">
        <path d="M118.3 25.9c-1.7 1.1-3.4 2.8-3.7 3.9-.5 1.3-2.2 2.1-6.4 2.9-9.8 1.9-22.5 7.1-32 13.3-5.1 3.3-9.2 6.3-9.2 6.8s3.6 2.5 8 4.5l8 3.6 7.2-3.9c6.8-3.5 19.2-8 22.4-8 1.1 0 1.4 2.2 1.4 10.4 0 9.7.2 10.7 2.5 13.5 4.7 5.5 16 5.1 20.5-.6 1.7-2.2 2-4.1 2-12.9 0-5.7.4-10.4.9-10.4 2.8 0 15.6 4.7 21.9 8l7.2 3.9 8-3.6c4.4-2 8-4 8-4.5s-4.1-3.5-9.2-6.8c-9.2-6-21.8-11.3-31.6-13.2-4.1-.9-5.6-1.7-6.5-3.5-2.4-5.3-13.2-7.1-19.4-3.4m11.7 7c.6 1.1 1 8.7 1 17.6s-.4 16.5-1 17.6c-1.2 2.1-5 2.5-6.8.7-1.7-1.7-1.7-34.9 0-36.6 1.8-1.8 5.6-1.4 6.8.7m-79.1 37L67 86.7v32.4c0 30 .1 32.6 1.9 35.5 2.3 3.8 14 16.4 15.2 16.4.5 0 .8-20.1.7-47.7l-.3-47.7-23.9-11.3C47.5 58.1 36.3 53 35.8 53c-.6 0 6.2 7.6 15.1 16.9M191 64.4l-23.5 11.2-.3 47.7c-.1 27.6.2 47.7.7 47.7 1.2 0 12.9-12.6 15.2-16.4 1.8-2.9 1.9-5.5 1.9-35.5V86.7l16.1-16.8c8.9-9.3 15.5-16.9 14.8-16.8-.8 0-12 5.1-24.9 11.3"/>
        <path d="M41.6 87c-4.6 10.1-7.5 21-8.3 31.2l-.6 7.8h-6.6c-8.8 0-13.4 1.4-16.5 5.1-3.6 4.2-3.5 8.9.3 13.1 2.9 3.3 3 3.3 14 3.8l11.2.5 2.8 8.1c4.5 13.1 13.5 27.9 21.5 35.3 2.5 2.4 2.6 2.8 2.6 13.8V217l3.3 2c4.1 2.5 6.8 2.5 10.1-.1 2.2-1.7 2.6-2.8 2.6-6.9v-4.8l5.3 2.9c2.8 1.6 5.5 2.9 6 2.9.4 0 .7-4.2.7-9.3l-.1-9.2-5.5-3.5c-13.3-8.4-25.8-24.9-31-40.8-2.7-8.1-2.9-9.8-2.9-24.2.1-14.4.3-16 2.8-23 4.3-11.5 4.4-10.8-2.1-17.8l-5.8-6.4zm-7.8 47.9c.8.4 1.2 1.9 1 3.2-.3 2.3-.5 2.4-10.2 2.4-8.1 0-10.1-.3-10.9-1.7-.8-1.2-.7-2.1.2-3.2 1-1.2 3.3-1.6 10-1.6 4.7 0 9.2.4 9.9.9m166.8-49.4c-5.8 6.6-5.9 6.8-4.7 9.9 5 12.3 5.5 14.8 5.5 30.6.1 14.4-.1 16.1-2.8 24.2-5.2 15.9-17.7 32.4-31 40.8l-5.5 3.5-.1 9.2c0 5.1.3 9.3.8 9.3.4 0 3.1-1.3 6-2.9l5.2-2.9v4.8c0 4.1.4 5.2 2.6 6.9 3.3 2.6 6 2.6 10.2.1l3.2-2v-11.3c0-11 .1-11.4 2.6-13.8 8-7.4 17-22.2 21.5-35.3l2.8-8.1 11.2-.5c11-.5 11.1-.5 14-3.8 3.8-4.2 3.9-8.9.3-13.1-3.1-3.7-7.7-5.1-16.5-5.1h-6.6l-.6-7.8c-.8-10.4-3.8-21.5-8.4-31.3l-3.8-8.1zm37.5 50.1c.9 1.1 1 2 .2 3.2-.8 1.4-2.8 1.7-10.9 1.7-9.7 0-9.9-.1-10.2-2.4-.5-3.4 1.2-4.1 10.9-4.1 6.7 0 9 .4 10 1.6M111 118.7c0 1.8 15.1 91.6 15.4 92 .3.3 14.3-81.9 15.3-89.5l.6-4.2h-15.7c-13.9 0-15.6.2-15.6 1.7m-10 93.9v17.7l5-6.9 5.1-6.9-.3-10.5-.3-10.5-4.7-.3-4.8-.3zm40.7-16.9c-.4.3-.7 5.2-.7 10.7v10.1l5 6.9 5 6.9V195h-4.3c-2.4 0-4.7.3-5 .7"/>
    </g>
</svg>
