<svg xmlns="http://www.w3.org/2000/svg" width="341.333" height="341.333" version="1.0" viewBox="0 0 256 256">
    <g fill="#e5e5e5">
        <path d="M207.4 2.7c-.9 2.9-2.1 4.8-3 4.8-1.8 0-3.4 1.7-3.4 3.4 0 1.1-3 4.3-7.2 7.7-4 3.2-18.7 15.2-32.6 26.7s-26.9 21.8-28.8 22.9c-3.2 1.9-3.6 1.9-5.3.4-2.5-2.2-3.4-2-2.7.7.4 1.8-.1 2.5-2.5 3.6-1.6.7-4.2 1.1-5.7.8-3-.6-6.2.7-6.2 2.6 0 .7-1.7 2.8-3.6 4.7s-3.8 4.7-4.1 6.1c-.3 1.9-6.1 7.2-20.6 19.2-11.1 9.2-22.6 18.1-25.6 19.9-7.6 4.6-7.5 4.7 6.1 8.1 2.6.7 2.7.6 1.6-2.3-.8-2.4-.7-3.5.6-5.5 1.4-2.2 2.4-2.5 6.9-2.4 2.8 0 7.8.4 10.9.8l5.7.7 14.3-10.9c7.9-5.9 19.1-14.5 25.1-19 5.9-4.5 10.7-8.7 10.7-9.4 0-.6 3-3.8 6.7-7 3.6-3.2 9-7.8 11.8-10.3s9.8-8.3 15.5-13c5.8-4.7 13.2-10.8 16.6-13.7 6.5-5.4 10.1-6.7 12.8-4.4 1.7 1.4 2.5 1.1 8.5-3.7 2.4-1.9 2.4-2.1.8-4.6-2.3-3.4-2.1-4.7.5-4.2 1.5.2 2.9-.6 4.1-2.1 1-1.2 2.7-2.3 3.7-2.3 2.7 0 4.8-3.6 5.5-9.5.6-4.2.4-5.4-1.5-7.8S220.3 1 214.4 1c-5.3 0-6.6.3-7 1.7"/>
        <path d="M222.2 21.2c-.7.7-1.2 1.8-1.2 2.5s-1.1 1.3-2.4 1.3c-2.7 0-4.1 2.7-3.1 5.9.4 1.5-.9 2.9-6.2 6.7-3.7 2.7-8.1 5.7-9.8 6.8-2.6 1.6-29.1 22.5-47.5 37.4-3 2.4-7.7 5.6-10.5 6.9-2.7 1.4-15.8 10.9-28.9 21-16.6 12.7-24.4 18.2-25.5 17.7-.9-.3-5.6-1-10.4-1.6-9.8-1-11.7-.3-11.7 3.8 0 1.3.9 3.3 1.9 4.3 1.8 1.8 11.4 5.2 18.9 6.7 1.8.4 3.2 1.1 3.2 1.6s-.8.7-1.7.4c-1-.3-6.1-1.7-11.3-3-5.2-1.4-13.5-3.6-18.4-5-5-1.3-9.5-2.2-10.1-2-1 .4-4.5 9.6-4.5 11.7 0 .4 1.6 2.5 3.6 4.7 3.8 4.2 3.7 6.1-.7 7.5-2 .7-2.5 3-.9 4 .6.4 2-.5 3.1-1.8 2.9-3.8 7.7-5 13.3-3.6 6.1 1.5 5.9 3-.4 2.2-8.6-1-13 2.4-13 10.1 0 4.3 8.2 20.8 11.6 23.5 1.7 1.4 2.4 2.6 2 3.7-.7 1.9-28.5 49.5-29.6 50.7-.9 1-9.7-4.8-14.8-9.7-3.7-3.4-9.2-13.7-9.2-17.1 0-1.8-.7-2.4-3-2.7-1.7-.3-3-.2-3 .2 0 1.6 4.9 12.9 7.2 16.5 4.2 6.6 10.5 13.1 16.8 17.4 8 5.5 9.2 5.3 11.5-1.1 1-2.9 2.4-6.2 3-7.3.7-1.1 3-5.4 5.2-9.5s5.7-10.3 7.7-13.7 3.6-6.4 3.6-6.8c0-2.1 4.4-6.5 6.6-6.5 1.8 0 2.9-1.1 4.9-5 1.4-2.7 2.5-6 2.5-7.4s-2.4-6-5.4-10.3c-6.6-9.7-7.3-11.8-5-14.4.9-1 2.5-1.9 3.5-1.9 3.2 0 6.9 2.3 6.9 4.2 0 2.2 5.9 9.8 7.7 9.8 1.3 0 3.4 5.3 6.2 15.6 2.6 9.6 5.5 16 7.8 17.1 1 .5 3.6.9 5.8.8 5.4 0 5.6-2 1.1-15-2-5.7-3.6-11.4-3.6-12.7 0-1.5 1.4-3.6 4.1-5.9l4.2-3.6 3.7 2.1c3.2 1.7 4 1.8 5.4.7.9-.7 1.6-2.8 1.6-4.6 0-2.7-.6-3.7-3.5-5.5-1.9-1.2-3.5-2.5-3.5-3 0-.4 2.1-2.2 4.8-3.9 6.6-4.3 7.4-5.9 7.2-15.5-.2-4.5-.2-9.1-.1-10.2 0-1.2 3.2-5.1 7.2-9 4-3.8 7.9-8.8 8.9-11.1 1.1-2.3 8-11 15.5-19.3 7.5-8.2 13.7-15 13.8-15s4.3-.5 9.3-.9c9.6-1 13.1-2.2 17.7-6.5 3.3-3 4.2-2.8 5 1.2.4 2 4.7 6.7 14.4 15.8 7.5 7.1 16.6 15.6 20.1 18.9s7.4 6.5 8.6 7.2c3.2 1.9 8 1.5 11-.8 2.1-1.7 2.6-2.9 2.6-6.5 0-5.2.4-4.7-16-19-15.2-13.1-27.8-23.2-31.1-24.9-1.6-.9-2.9-2-2.9-2.6 0-.5 4.3-5.5 9.7-11 7.9-8.1 10.1-9.9 12.5-9.9 2.1 0 3.1-.6 3.5-2 .4-1.5 1.3-1.9 3.6-1.7 2.8.2 3.2-.2 4.2-3.8 2.6-8.9 2.6-9.2-.1-12.4-2.3-2.8-3.1-3.1-8.3-3.1-3.1 0-6.2.5-6.9 1.2M95.7 172.6c2.4 1 4.3 2.2 4.3 2.6s-1.3 1.6-2.9 2.7l-2.9 2.1-2.6-4.1c-2.3-3.4-2.8-6.7-.8-5.6.4.2 2.6 1.2 4.9 2.3"/>
        <path d="M214.5 56c-5.1 4.9-6.2 6.6-5.4 7.7 1.9 2.2 4.3 1.5 7.8-2.1 2.8-2.9 5.8-10.3 4.6-11.4-.2-.3-3.4 2.4-7 5.8m-46.3 27.7c-1.3.3-7.2 5.9-14 13.5-13.3 14.8-16.2 18.5-16.2 21 0 1-3.4 5-7.5 9s-7.5 7.8-7.5 8.4 1.1 1.4 2.4 1.6c2 .4 3.9-.9 10.1-6.9 5-4.9 7.8-8.4 8.2-10.5.6-2.9 17.8-22.9 23.7-27.6 1.4-1.1 5.6-2.5 9.3-3.2 8.4-1.6 8.6-1.7 7.3-4.1-.9-1.6-2.1-1.9-7.3-1.8-3.4.1-7.2.4-8.5.6"/>
        <path d="M176.5 90.4c-7.4 1.8-8.2 2.5-19.8 15-7.6 8.2-10.9 12.6-11.6 15.3-.8 2.9-2.8 5.4-7.6 9.7-6.3 5.5-7.3 7.6-3.7 7.6 1.9 0 22.8-20.1 28.1-27.1 1.9-2.5 7.6-7.8 12.8-11.9 11.9-9.6 12.3-11.2 1.8-8.6M46.3 187c-1.8 1.6-3.3 3.8-3.3 4.9 0 1.8 8.4 12.1 9.8 12.1.4 0 2-2.3 3.5-5l2.8-5-4.3-5c-2.4-2.7-4.5-5-4.8-5s-2 1.4-3.7 3m-11 9c-1.8 1.6-3.3 3.7-3.3 4.5 0 4.4 9.2 16.5 12.5 16.5.7 0 2.7-2.4 4.4-5.2l3-5.3-3.9-3.8c-2.2-2-4.7-5.1-5.5-6.7-1.9-3.7-3.1-3.7-7.2 0m-11.1 8.8c-4 3.3-4 5.3-.2 12.8 3 6.1 5.3 8.7 10.2 11.9l2.7 1.7 3.4-5.4 3.4-5.3-4.2-3.7c-2.3-2-5.5-6.2-7.1-9.3-1.6-3-3.3-5.5-3.9-5.5-.5 0-2.5 1.3-4.3 2.8"/>
        <path d="M14.8 212.5c-3.4 3-3.7 7.1-.8 13.1 3.1 6.3 12.8 15.4 16.5 15.4.6 0 2-1.8 3.2-3.9l2.2-3.9-3.9-2.6c-4.3-2.8-10-10.8-12.1-16.9-.7-2-1.5-3.7-1.9-3.7-.3 0-1.7 1.2-3.2 2.5"/>
    </g>
</svg>
