<svg xmlns="http://www.w3.org/2000/svg" width="341.333" height="341.333" version="1.0" viewBox="0 0 256 256">
    <g fill="#e5e5e5">
        <path d="M66.6 22.9c-1.1 1.7.3 4.9 2.5 5.6 1 .4 1.9 1.3 1.9 2 0 1.7 4.2 2.3 20.5 2.9 16 .5 25.5 3.3 17.6 5.1-2.9.6-7.1-.8-7.1-2.3 0-.5-1.5-.7-3.2-.5-1.8.1-11.2.5-20.8.8s-21.9.8-27.3 1.1c-8.9.6-10 .5-12-1.4-4.1-3.6-6.7-4.4-12.3-3.7-5.8.7-6.2.3-4.2-4 .9-2.1.9-2.8-.1-3.4-3.3-2.1-8.1 2.1-8.1 7 0 1.4 1.1 4.7 2.5 7.3S19 45 19 46.1c0 2.9 6 8.2 7.7 6.8 1.6-1.4 1.4-2.3 5.7 20.1 2 10.2 6.1 30.6 9.1 45.5 3.1 14.8 7.6 37.3 10.1 50 2.5 12.6 4.9 23.3 5.3 23.8.4.4 2.1-.8 3.9-2.6l3.1-3.2-3-14.5C56.4 150.6 36 49.7 36 49c0-.3 1.7-.6 3.8-.6 2 0 8.4-.6 14.2-1.3 10.5-1.3 27.4-.8 29.5.9.6.4 3.7 1.6 7 2.5 11.3 3.2 16.3 4.9 21.5 7.5.8.4 1.6 1.7 1.8 2.9.3 1.9.8 2.1 4 1.5 2-.4 4.4-1 5.2-1.4.9-.5 2.4-.4 3.3.2 1 .5 2.5.7 3.4.4 3.6-1.4 11.7 2.6 17.6 8.7 3.2 3.2 6.1 5.7 6.4 5.4s2.6.8 5.3 2.4c2.6 1.6 5.1 2.9 5.6 2.9 1.1 0 15.4-14.2 15.4-15.3 0-.4-1-.7-2.2-.7-1.3 0-4-1.1-6.1-2.4-3.3-2-4.8-2.3-10-1.9l-6.2.5-5.3-5.1c-3.2-3.1-5.2-5.9-5.2-7.3 0-1.6-1-2.8-3.3-3.8-1.7-.8-3.4-2.4-3.6-3.5-.6-3.3-2.2-4.7-10.8-8.7C115.1 27.1 105.8 25 88 24c-8.5-.4-16.7-1.1-18.1-1.5-1.6-.4-2.9-.2-3.3.4m60 21.6c1.8 1.4 1.7 1.5-1.5 1.3-1.9-.2-3.6-.9-3.9-1.6-.5-1.7 3-1.5 5.4.3"/>
        <path d="M230 24.7c-9.2 1.4-8.9 1.2-12.1 6.8-1.8 3.2-14.3 17.3-31.9 36-16 16.8-29 31-29 31.4 0 .5-20.6 21.4-45.7 46.6C79.7 177 62.9 193.1 57 197.3c-13.1 9.4-28.2 21.2-31.2 24.3-3.1 3.4-7.2 14.7-6.3 17.5.8 2.4 2 2.4 10.1-.3 6-2 7.2-2.9 14.4-10.8 4.3-4.8 9.9-12.1 12.6-16.1 4.6-7.2 12.7-15.4 118.9-120.7 14.4-14.3 43.8-40.7 52.9-47.5 2.8-2.2 5.3-4.1 5.5-4.2.1-.2.6-3.2 1.1-6.7.7-5.8 0-9.1-1.9-8.7-.3.1-1.7.3-3.1.6"/>
        <path d="M186.6 87c-4.2 4.4-7.6 8.5-7.6 9.1s1.6 2.9 3.5 5c2.1 2.3 3.5 5 3.5 6.4 0 1.8.7 2.8 2.4 3.4 2.5 1 7.4 6.7 10 11.9 1.9 3.7 2.6 14.4 1.3 20.2-.7 3.1-.5 3.6 1.5 4.5 2.9 1.3 4.9 5.3 9.3 19.5 5.1 15.9 5.9 22.9 4.5 37.2-.6 6.4-1.5 13-2 14.6-.6 2.2-.4 3.4.8 4.6 1.5 1.5 1.5 1.6-.1 1.6-2.1 0-83.1-16.2-116.1-23.2l-24-5.1-2.8 3.3c-1.5 1.9-2.5 3.7-2 4.1.4.3 8.4 2.1 17.7 3.8 9.4 1.8 19 3.7 21.5 4.3 9 2 63 13 81.7 16.6 17 3.3 19.2 3.9 18.7 5.5-.8 2.6 6.2 8.8 9.1 8.1 1.5-.4 2.6 0 3.2.9 1.1 1.9 4.7 3.7 7.6 3.7s6.7-3.8 6.7-6.8-1.6-3.5-4.6-1.5l-2.8 1.8.7-2.5c1.8-6.2 1.8-7.9.2-10.9-.9-1.8-2.5-4.1-3.6-5.2-2.2-2.2-2.3-4.1-.9-15.9.6-4.7 1.3-17.3 1.5-28.1.5-17.3.3-19.7-1-20.3-1.8-.7-1.8-7.7.1-8.3 1.8-.6 3.7 9.7 4.3 24.6.7 14.9 1.8 19 5.6 20.5 2.5.9 4-2.2 2.7-5.8-.7-1.8-1.2-7.8-1.2-13.5 0-12.7-1.4-22.4-4.6-32.1-3.8-11.3-7.5-18.1-10.8-20-1.7-.9-3.7-2.9-4.6-4.6-1-1.6-2.5-2.9-3.6-2.9-2.1-.1-8.9-5.7-10.7-9-.7-1.1-1.2-5.2-1.2-9.2 0-6.2-.3-7.5-2.2-9.3-1.4-1.2-2.3-3.3-2.3-5 0-1.6-.4-3.1-.9-3.4s-4.3 3-8.5 7.4m32.4 51.3c0 1-.5 1.7-1.2 1.5-1.9-.7-3.2-3.4-2.4-5.4.7-1.9.8-1.9 2.2 0 .8 1.1 1.4 2.8 1.4 3.9"/>
    </g>
</svg>
