<svg xmlns="http://www.w3.org/2000/svg" width="682.667" height="682.667" version="1.0" viewBox="0 0 512 512">
    <g fill="#e5e5e5">
        <path d="m234.6 236.4-20.8 178.5 20.7 20.3c11.4 11.2 21.1 20.3 21.5 20.3s10.1-9.1 21.5-20.3l20.7-20.3-20.8-178.5C265.9 138.3 256.3 58 256 58s-9.9 80.3-21.4 178.4M189 178.8c-21.6 46.6-40.2 86.6-41.4 89l-2 4.3 5.6 5.6c4.1 4.1 5.9 5.3 6.2 4.2.3-.7 16.6-43.2 36.1-94.3s35.3-93.1 35.2-93.3c-.2-.1-18.1 37.9-39.7 84.5m94.4-83.3c.4 1.1 16.2 42.5 35.1 92s34.9 91.3 35.5 92.9l1.1 2.9 5.4-5.3c3-3 5.5-5.7 5.5-6.1 0-.9-82-177.2-82.7-177.9-.3-.3-.3.4.1 1.5"/>
        <path d="M194 253.3c-12.8 37-23.7 67.6-24.2 68.2s-14-12.2-34.4-32.5l-33.5-33.5 43.6 66c24.1 36.3 44.3 66.7 45.1 67.5 1.2 1.2 1.4 1.2 1.4-.5 0-1.1 5.9-47 13-102 7.1-54.9 12.8-100 12.7-100.2-.2-.1-10.8 30-23.7 67m100.4-63.8c1.2 7.9 25.6 197.4 25.6 199.1 0 1.6.2 1.6 1.4.4.8-.8 21-31.2 45.1-67.5l43.6-66-33.5 33.5c-20.3 20.3-33.9 33.1-34.4 32.5s-11.3-31.2-24.2-68c-12.8-36.9-23.5-67.2-23.7-67.5-.3-.3-.2 1.3.1 3.5"/>
    </g>
</svg>
