<svg xmlns="http://www.w3.org/2000/svg" width="682.667" height="682.667" version="1.0" viewBox="0 0 512 512">
    <g fill="#e5e5e5">
        <path d="M113.3 37c-5.8 3.5-6.5 5.6-6.2 18.2.2 6.2.2 18.3.1 26.8-.7 34.6 8.5 52.1 34.3 65.2 7.9 3.9 11.5 6.3 12.7 8.5 2.3 3.9 3.8 14.4 3.8 27.8 0 6 .5 16.1 1 22.3.6 7.5.6 12.2-.1 14-.6 1.5-5 6.5-9.9 11.2-13.3 12.9-20 24.6-23.4 41.3-4.2 20.4 0 36.7 13 49.4 7.6 7.4 16.8 12.2 35.9 18.3 14.9 4.8 17.1 5.9 22.1 10.2 9.4 8.3 11.3 15.1 12.3 43.3.7 21.1.9 22.2 3.5 27.7 3.8 7.9 10.1 13.3 18.8 15.9 7.7 2.4 12.5 2 15.4-1.2 1.7-1.9 1.7-2.8.6-14.2-.7-6.7-1.5-21.9-1.8-33.7-.6-22.4-1.4-27.6-4.2-28.2-3.2-.7-7.2 1.3-7.9 4-.7 2.9.3 30.7 1.7 46.6 1.1 12.1.6 13.6-4 13.6-3.8 0-7.7-3.4-8.9-7.7-.6-2-1.5-11.1-2.1-20.2-1.5-23.6-2.5-29.5-6.5-37.9-4.1-8.7-12.6-17.7-20.4-21.7-3-1.5-11.4-4.6-18.8-7-15.5-5.1-22.9-9-29.6-15.7-6.9-6.9-10-14.2-10.5-25-1.1-21.8 9.8-43.6 28-55.9 8.6-5.9 9.2-7.9 6.1-21.1-1.2-5.5-1.7-12.8-1.8-29.3-.1-13.7-.7-23.6-1.4-26.3-1.3-4.6-7.3-12-11.3-13.9-1.3-.6-5.8-2.8-10.1-4.8-8.9-4.3-16.8-11.5-20.9-19.1-5-9.2-5.8-14.8-6.5-43.4-.6-26.1-.5-26.5 1.5-28.4 1.8-1.6 3.2-1.8 8.4-1.3s6.7 1 8.7 3.3c2.2 2.7 2.3 3.3 1.7 11.9-.3 4.9-.9 18.3-1.2 29.6-.7 20.2-.7 20.6 1.4 22.7 2.5 2.5 5 2.8 7.6.9 1.6-1.2 1.8-3.2 2-16.6.1-13.9.3-15.4 2-16.7 2.6-1.8 5.6-1.8 8.4.2 1.9 1.3 2.2 2.4 2.2 8.9 0 22.4 5.8 37.7 16.8 44.5 9.4 5.8 8.6 4.2 10.5 21.2s5.7 33.9 8.6 37.8c2.2 3 5.3 3.7 7 1.6 1.1-1.3.8-3.3-1.2-11.3-3.2-12.3-4.4-20.5-5.3-36.3-.3-6.9-1-13.1-1.4-13.8-.3-.8-4-3-8.1-5-8-4-12.9-9.2-15-16-.6-2-1.4-10.5-1.8-18.7-.4-8.6-1.2-15.9-1.9-17.2-2.2-3.9-6.2-6.2-12.2-6.9-8.6-1-8.5-.8-8.5-12.6 0-9-.3-10.8-2.3-14-3.4-5.5-9-7.8-19.3-7.8-6.6 0-9.1.4-11.6 2M220 48c-1.9.4-4.3 1.9-5.3 3.2-1.8 2.1-1.9 3.8-1.3 28.3 1.4 55.4 3.6 95.7 5.7 103.6 1 4 4.1 8.4 6.8 9.9 1 .5 5.4 1.9 9.7 3 24 6.5 40.2 24.8 40.4 46l.1 4.5 4.9-5.2c3.8-4.2 5.1-6.5 6.1-10.8 1.3-5.7 1.3-5.1-2.8-23.4-.5-2-.3-2.2 1.4-1.3 4 2.2 10.7 9.9 13.1 15.1 2.1 4.6 2.4 6.3 2 13.5-.5 9.5-3.5 16.4-9.2 21.4-3.4 2.9-11.7 6.2-15.8 6.2-2.8 0-9 2.8-11.7 5.3-5.5 5-7.7 15.9-4.8 23 1.8 4.2 8.4 10.1 13.3 11.8 5.5 1.9 17.8 1.7 24.4-.5 9.8-3.3 19.3-8.9 25.6-15.2 17.1-17 19-41.2 5.2-64.9-5.6-9.7-25.6-29.3-43.3-42.7-18.9-14.2-24.8-20.9-30.1-33.8-4.8-11.8-5.7-19.5-6.4-54.5-.8-42.7-.7-42.4-16.4-43.1-4.5-.2-9.7.1-11.6.6"/>
        <path d="M268.5 74c-4.7 1.8-5 3.2-3.7 16.3.7 6.7 1.5 21.9 1.8 33.7.6 22.4 1.4 27.6 4.2 28.2 3.2.7 7.2-1.3 7.9-4 .7-2.9-.3-30.9-1.7-46.8-1.1-11.9-.6-13.4 4-13.4 3.8 0 7.7 3.4 8.9 7.7.6 2 1.5 11.1 2.1 20.2 1.5 23.6 2.5 29.5 6.5 37.9 4.1 8.7 12.6 17.7 20.4 21.7 3 1.5 11.4 4.6 18.8 7 15.5 5.1 22.9 9 29.6 15.7 6.9 6.9 10 14.2 10.5 25 1.1 21.8-9.8 43.6-28 55.9-8.6 5.9-9.2 7.9-6.1 21.1 1.2 5.5 1.7 12.8 1.8 29.3.1 13.7.7 23.6 1.4 26.3 1.3 4.6 7.3 12 11.3 13.9 1.3.6 5.8 2.8 10.1 4.8 8.9 4.3 16.8 11.5 20.9 19.1 5 9.2 5.8 14.8 6.5 43.4.6 26.1.5 26.5-1.5 28.4-1.8 1.6-3.2 1.8-8.4 1.3s-6.7-1-8.7-3.3c-2.3-2.7-2.3-3.3-1.7-12.4.3-5.2.9-18.5 1.3-29.6.6-19.7.6-20.1-1.5-22.2-2.5-2.5-5-2.8-7.6-.9-1.6 1.2-1.8 3.2-2 16.6-.1 13.9-.3 15.4-2 16.7-2.6 1.8-5.6 1.8-8.4-.2-1.9-1.3-2.2-2.4-2.2-8.9 0-22.4-5.8-37.7-16.8-44.5-9.4-5.8-8.6-4.2-10.5-21.2s-5.7-33.9-8.6-37.8c-2.2-3-5.3-3.7-7-1.6-1.1 1.3-.8 3.3 1.2 11.3 3.2 12.3 4.4 20.5 5.3 36.3.3 6.9 1 13.1 1.4 13.8.3.8 4 3 8.1 5 8 4 12.9 9.2 15 16 .6 2 1.4 10.5 1.7 18.9.6 13.2 1 15.5 2.8 18 2.6 3.6 6.1 5.2 12.3 6 7.6.9 7.6.9 7.6 12.5 0 9 .3 10.8 2.3 14 3.4 5.5 9 7.8 19.3 7.8 6.6 0 9.1-.4 11.6-2 5.8-3.5 6.5-5.7 6.2-18.2-.1-6.2-.3-19.9-.3-30.3-.1-17.9-.3-19.5-2.9-27.2-5.4-16.1-14.4-25.9-31.7-34.7-7.4-3.7-11-6.2-12.2-8.3-2.3-3.9-3.8-14.4-3.8-27.8 0-6.1-.5-16.1-1-22.3-.6-7.5-.6-12.2.1-14 .6-1.5 5-6.5 9.9-11.2 13.3-12.9 20-24.6 23.4-41.3 4.2-20.4 0-36.7-13-49.4-7.6-7.4-16.8-12.2-35.9-18.3-14.9-4.8-17.1-5.9-22.1-10.2-9.4-8.3-11.3-15.1-12.3-43.3-.7-21.1-.9-22.2-3.5-27.7-3.7-7.7-10.1-13.3-18.4-15.8-6.9-2.1-9.5-2.4-12.7-1"/>
        <path d="M363 98.5c-25.5 1.6-29.9 2.1-35.1 4.2-7.3 2.9-7.9 4.5-7.9 21.5 0 16.1 1 20.7 5.1 22.8 2.5 1.4 6.7 1 22.4-2 9-1.8 16-2.3 38.5-2.7 37.1-.7 38.3-.3 41.3 12.9 4.2 18.9 2.9 24.2-2.8 11.3-4.7-10.5-8.7-15.3-13.7-16.4-6.5-1.5-17.8 1.8-17.8 5.2 0 .6.9 3 1.9 5.3 2.5 5.5 6.7 23.4 8.7 37.4 2.2 15.6 1.5 43.6-1.5 56.3-2.9 12.4-9.1 27.4-16.5 39.7-7.1 11.8-9.7 18.2-12 29.3-2.9 13.8-1.7 21.1 4 25.6 1.6 1.3 8.9 6.1 16.3 10.7 7.4 4.7 17.3 11.4 22 15 13.8 10.3 16.1 9 14.1-7.9-3.5-30.2-1.1-47.4 13.1-93.7 7.9-25.8 11.3-40.1 13-55 2.6-22.8-2-76.2-8.2-95.5-7.9-24.9-18.6-27.9-84.9-24M82 132.6c-1.1 1.2-1.1 3.6 0 12.7 3.5 30.2 1.1 47.4-13.1 93.7-12.7 41.4-14.6 53.8-13 85.7 2.9 58.4 8.8 79.6 24.1 86.2 10.2 4.4 25.3 5 67.1 2.6 33.5-1.9 39.4-3.1 43.3-8.7 2.2-3.1 2.3-30.2.2-35.3-2.7-6.3-5.1-6.6-26.1-2.5-9 1.8-16 2.3-38.5 2.7-37.1.7-38.3.3-41.3-12.9-4.2-18.9-2.9-24.2 2.8-11.3 4.7 10.5 8.7 15.3 13.7 16.4 6.5 1.5 17.8-1.8 17.8-5.2 0-.6-.9-3-1.9-5.3-2.5-5.5-6.7-23.4-8.7-37.4-2.2-15.6-1.5-43.6 1.5-56.3 2.9-12.4 9.1-27.4 16.5-39.7 7.1-11.8 9.7-18.2 12-29.3 2.9-13.8 1.7-21.1-4-25.6-1.6-1.3-8.9-6.1-16.3-10.7-7.4-4.7-17.3-11.4-22-15-8.8-6.5-11.9-7.6-14.1-4.8m135 76.9c-15.2 4.3-30.6 15.8-36.4 27.2-9.6 19-6.6 40.8 8.2 60.3 7.3 9.6 21.9 23.2 37.7 35.2 19.7 14.9 26.2 22.1 31.4 35.4 4.5 11.5 5.4 19.4 6.1 53.4.7 34.5 1 37.1 5.8 41.4 4.5 3.9 22.6 3.3 26.9-1l2.4-2.4-.6-27.3c-1.2-54.6-3.9-100.5-6.4-106.9-1.5-4-4.7-5.9-13.7-8.5-16.4-4.6-27.8-12-34.4-22.4-3.9-5.9-7-16.4-7-23.1 0-2.7-.4-4.8-.9-4.8s-2.7 2-4.9 4.4c-6 6.6-7 12.6-4.3 26.3 1.2 5.8 2 10.8 1.7 11-.9 1-8.7-6.1-12.1-11.1-4.2-6.2-5.5-10.3-5.5-17.7 0-14.9 8.6-26.2 21.5-28.4 15.7-2.6 22.4-9.9 21.3-23.1-.6-7.2-4.6-12.9-11.2-16.2-6.2-3.1-17.7-3.9-25.6-1.7"/>
    </g>
</svg>
