<svg xmlns="http://www.w3.org/2000/svg" width="341.333" height="341.333" version="1.0" viewBox="0 0 256 256">
    <path fill="#e5e5e5" d="M131.8 3.7c-.8 1-2.2 6.6-3.1 12.6-.9 5.9-2.1 11.6-2.6 12.6-.8 1.4-2.7 1.9-9.3 2.4-4.6.3-10.4.9-12.9 1.3l-4.7.6-1.7-5.8c-2.2-7.8-4-10.4-7-10.4-3.1 0-4.3 4.1-3.7 13.2.4 6.6.4 6.6-2.8 8.3-2.3 1.2-3.5 1.3-4.5.5-1.9-1.6-5.8-11.8-9-23.5C69 10 67.6 4.9 67.4 4.2c-.5-1.9-4.2-1.4-5.4.7-.5 1.1-1 5.1-1 8.8 0 10.8-2 33.2-3.3 36.9-.7 1.8-5.1 7.3-9.8 12.2l-8.6 9-.5-9.6c-.7-13.7-3.7-18.8-8.2-14.2-1.9 1.9-2.1 3.6-2.6 22.3-.5 17.8-.9 21.1-3 27.9-1.4 4.3-2.8 7.8-3.1 7.8s-1-2.3-1.5-5.2c-1.1-6.1-3.4-8.2-6.1-5.5-1.5 1.5-1.9 3.9-2.1 14.3-.4 14.2 1.1 25.1 5.9 43.4 11.9 45 40.1 74.3 81.9 84.8 4.8 1.2 11 1.6 24 1.6 15.7-.1 18.5-.3 27.5-2.7 19-5.1 36.5-15.5 50-29.8 5.6-6 19.9-26.4 24.5-34.9 3.2-5.9 9.2-30.2 14.6-58.5C244 95.2 244.8 87 243 87c-2.1 0-4 5.1-6 16.5-2.7 15.5-5.1 26.6-6 28.5-.5.9-1.1-.8-1.5-4.5-1.1-10.4-3.6-21.9-5.7-26.5-3.1-6.8-3.4-19.1-.9-40.9 1.4-11.7 1.8-18.8 1.2-19.4-1.9-1.9-3.9.3-6.1 7-2.8 8.3-8.6 20.2-10.3 20.9-.7.2-5.5-3.8-10.8-9C185.7 48.8 185 47 185 30.5c0-13.3-1.6-16.6-7.6-15.1-1.7.5-3.1 2-4.3 4.9-2.7 6.1-7.6 12.4-11.2 14.2-2.8 1.5-3.7 1.5-9.3.1-3.3-.8-7.3-1.8-8.7-2l-2.7-.6-.3-12.9c-.3-11-.7-13.2-2.3-15-2.3-2.6-4.8-2.7-6.8-.4m5.7 42.4c17.1 6.4 18.9 20.1 3.7 27.6-5.2 2.6-6.6 2.8-17.3 2.8-10.9 0-11.9-.2-17.4-3-7.1-3.7-10-7.2-10-12.5 0-9.6 11.9-16.9 27.7-17 5.4 0 9.4.6 13.3 2.1m-58.6 17c2.6 4.7.2 10-7.7 16.5-9.9 8.2-14.6 10.8-17.1 9.4-2.4-1.2-2.8-4.9-.9-8.3 2-3.9 10.2-12.9 15.2-16.9 5.6-4.4 8.3-4.6 10.5-.7m101.3 1.3c5.4 4.4 12.6 12.4 14.6 16.3 1.8 3.4 1.5 7.1-.8 8.3-2.6 1.4-6.2-.5-15.3-7.8-10.1-8-12.8-13.7-9.1-19 2.2-3.2 4.6-2.7 10.6 2.2M82.1 95.1c4.9 2.6 4.4 7.5-1.6 16.4-1.9 2.7-3.9 6.9-4.4 9.1-1.7 6.4-3.3 7.2-7.9 4-2.6-1.8-5.1-2.6-8-2.6-7.1 0-9.9-4.9-7.2-12.7 1.5-4.2 5.2-5.8 9-3.8 1.6.8 3.2 1.9 3.5 2.5 1.2 2 2.6.9 4.6-3.8 2.3-5.3 4.5-8.1 7.4-9.3 2.6-1 2.4-1 4.6.2m91.3 1.8c1 .9 2.9 4 4.2 6.8 1.3 2.9 2.6 5.3 2.8 5.3.3 0 2.2-1.1 4.2-2.5 4.6-3.1 4.9-3.1 8.5.4 2.3 2.3 2.9 3.8 2.9 7.2 0 5.9-2.1 7.9-8.3 7.9-3.8 0-5.6.6-7.9 2.5-1.6 1.4-3.3 2.5-3.8 2.5-1.7 0-4-3.2-4-5.6 0-2.7-3.3-9.9-5-10.9-1.4-.9-5-8.1-5-10 0-.9 1.1-2.7 2.5-4.1 2.7-2.7 5.3-2.6 8.9.5M50 98c0 .5-.4 1-1 1-1.6 0-8 6.1-9.6 9.1-.7 1.5-1.4 4.4-1.4 6.3 0 3.1.5 3.8 3.8 5.5 7.6 3.9 7.6 3.8 8.4 27.8.6 18 1 21.9 2.5 24.5 2.7 4.5 5.4 6.1 7.7 4.5 1.8-1.3 1.8-1.6-.8-8-3.2-8.1-5.5-26.4-3.7-30.3 1.6-3.5 5.7-4.9 8.8-2.9 3.2 2.2 4.1 4.9 5.2 16.1 1.1 12.6 2.1 13.6 9.3 10.6 3-1.2 6.5-2.2 8-2.2 2.6 0 3.8-1.6 3.8-5.1 0-2.1-6.5-5.9-10.2-5.9-2.2-.1-2.2-.1-.4-1.5 1.1-.8 3.7-1.5 5.9-1.5 3.1 0 4.6.7 7.3 3.4 5.3 5.3 5 6.7-5 19.9-7.9 10.6-10.5 17.6-8.7 23.7s8.1 8.8 12.9 5.4c2.2-1.5 2.4-1.4 6.8 3.5 2.5 2.8 6.7 6.5 9.4 8.2 3.5 2.3 5.7 4.7 7.9 8.9 4.8 9 9.4 9 14.1.1 2.1-4 4.5-6.6 8.1-9.1 2.9-1.9 7.1-5.7 9.4-8.4 4.2-4.7 4.4-4.8 6.6-3.2 3.4 2.3 6.5 2 10.1-1.3 2.8-2.5 3.2-3.5 3.2-7.7-.1-6.1-2.7-12.1-9-20.2-9.9-12.8-10.3-14.5-5-19.8 3.7-3.7 7.2-4.3 12.3-2.3l2.8 1.2-4.1.9c-5.3 1.1-8.6 4.2-8.2 7.6.2 2 .9 2.8 2.8 3 1.4.2 5.1 1.2 8.3 2.4 7.8 2.8 8.6 1.9 9.8-9.8 1.2-12.2 2.4-15.8 5.4-17.2s6.9-.2 8.4 2.7c1.9 3.4-.4 22.9-3.5 30.7-2.6 6.4-2.6 6.8-.8 8.1 2.3 1.7 5 0 7.8-4.6 1.6-2.7 1.9-6.1 2.4-24.2.6-23.6.7-24.1 8.3-27.9 3.3-1.8 3.9-2.5 3.9-5.3 0-4.2-5-12.2-9-14.5-4.1-2.3-3.8-3.6.7-2.9 7.6 1.3 16.1 11.7 18.4 22.6 1.5 7.2.6 28.9-1.6 39.5-2.3 11-7 23.5-11.4 30.4-12 18.5-36.3 33.6-63.6 39.4-9.8 2.1-33.4 1.6-43.5-.9-28.9-7.2-52.9-24.6-62.9-45.6-9.8-20.5-13.3-55.8-6.9-69.8 4.3-9.5 11.2-15.8 17.6-15.9 1.2 0 2.2.4 2.2 1m90.5 5.9c10.6 5.3 14.5 12.1 11 19.5-2.1 4.3-8.9 9.3-15.3 11.2-5.9 1.8-18.6 1.8-24.8-.1-10.2-3-17.3-11-16-18 .9-4.4 3.8-7.9 9.4-11.2 10.7-6.3 24.6-6.8 35.7-1.4m-4.6 58.8c8.1 5.1 13 16.7 10.7 25.8-.9 3.7-7.5 10.5-12.1 12.6-5 2.3-15.2 2.5-20.3.3-4.3-1.7-9.7-6.7-11.8-10.6-2.3-4.4-1.8-12.7 1.2-18.6 6.1-12.3 20.7-16.6 32.3-9.5"/>
</svg>
