<svg xmlns="http://www.w3.org/2000/svg" width="341.333" height="341.333" version="1.0" viewBox="0 0 256 256">
    <g fill="#e5e5e5">
        <path d="M38 16.5c-1.4.2-6.4.7-11.2 1l-8.8.7V24h77v-2.9c0-2.6-.3-2.9-4.7-3.5-5.5-.7-48.5-1.6-52.3-1.1m-31 27V58l49.3-.2 49.2-.3.3-14.3.3-14.2H7zm7.3 29.6c7.6 7 7.7 7.1 7.7 12V90h60v-4.8c0-4.8 0-4.9 4.1-6.1 4.4-1.3 12.9-9 12.9-11.6 0-1.3-5.4-1.5-46.2-1.5H6.5zm77.5 12.5c-.5.4-.8 4.6-.8 9.4v8.7l5.8.6c11 1 20.6 7.2 25.1 16.1l2.2 4.6h88.1l-.7-3.8c-1.8-9.7-11.8-21.1-23.8-27-3.7-1.8-11.1-4.5-16.4-5.9-9.5-2.6-10.9-2.7-44.3-3.1-19-.2-34.8 0-35.2.4M22 113v15h38.7l1.7-4.4c2.3-6 8.8-13.2 14.7-16.2 4.5-2.2 4.9-2.8 4.9-5.9V98H22z"/>
        <path d="M86.3 109c-7.7 1.8-14.5 7.6-18.9 16-2.3 4.5-2.4 16-.2 21.1 2.2 5 8.3 11.6 13.2 14.2 5.6 3 18.3 3.1 24.1.2 9.7-4.8 15.5-14.3 15.5-25.4 0-17-17-30.1-33.7-26.1m18.4 10.6c10.4 8.3 10.9 22.4 1 31.1-12.9 11.4-32.7 2.4-32.7-14.8 0-7.4 3.1-13.4 8.9-17.1 4.2-2.7 5.2-2.9 11.8-2.6 6.2.3 7.7.7 11 3.4"/>
        <path d="M80.5 127.6c-2.1 3.3-2.3 3 11.5 12.4l10.5 7.1 2.2-2.8c1.3-1.5 2.3-3 2.3-3.3 0-.8-22.7-16-23.8-16-.5 0-1.7 1.2-2.7 2.6m44.8 9.4c-.3 7.8-2.9 14.4-8.1 20.1-5.3 6-14.6 10.9-20.4 10.9H93v4.9c0 8.6 4.2 9.1 17.8 2l7.7-4.1 50.3.4 50.2.5v-2.4c0-3.2-2.6-8-5-9.3-1.8-1-2-2.1-2-14.5V132h-86.5zm20.5 3.2c1.9 1.9 1.6 17.3-.4 19.2-1.8 1.9-2 1.9-4.5.6-1.7-.9-1.9-2.2-1.9-10.4 0-5.1.3-9.6.7-9.9 1.1-1.1 4.8-.8 6.1.5m13.6.4c.9 2.4.7 16.7-.3 18.2-.5.8-2.1 1.2-3.7 1l-2.9-.3-.3-8.9c-.2-4.9-.1-9.5.2-10.3.8-1.9 6.2-1.7 7 .3m12.4-.4c.7.7 1.2 4.3 1.2 9.3 0 8.6-.8 10.5-4.7 10.5-3.1 0-4.3-2.8-4.3-10.5 0-3.6.5-7.5 1-8.6 1.2-2.1 5-2.5 6.8-.7m48.2 4.6v12.7l3 2.8c1.9 1.9 3.2 4.3 3.6 6.8.5 2.9 1.1 3.9 2.5 3.9 1.6 0 1.9-.8 1.9-5.3 0-4.4-.5-5.8-3-8.7-2.4-2.9-2.9-4.4-3-8.8 0-4.5.2-5.2 2-5.2s2-.7 2-5.5V132h-9zm12-1.3V155h6v-23h-6zM22 178v43h63v-52.7l-6.5-3.2c-10-5-16.9-14.5-18.2-25.2l-.6-4.9H22zm210-15c0 1.8.7 2 8.5 2s8.5-.2 8.5-2-.7-2-8.5-2-8.5.2-8.5 2m-55.9 31.2.1 16.3 5.2 8.5c4.6 7.5 5.6 8.5 8.4 8.8l3.2.3V178h-17zm23.8 13.5c-.9 1-1.4 4.3-1.4 9.5 0 10.8-.1 10.8 18.6 10.8 14.1 0 14.9-.1 16.3-2.2 2-2.8 2.2-16.8.4-18.6-.8-.8-6-1.2-16.9-1.2-13.3 0-15.9.2-17 1.7m29.9 9c-.3 7-.5 7.8-2.3 7.8s-2-.8-2.3-6.4c-.4-7.7.1-9.1 2.8-9.1 2 0 2.1.5 1.8 7.7m-207.6 16c.2 2.3 1.3 3.1 6.3 5.1 16.9 6.8 34.4 6.8 51.3.1 4.6-1.9 5.2-2.5 5.2-5V230H21.9z"/>
    </g>
</svg>
