<svg xmlns="http://www.w3.org/2000/svg" width="85.333" height="85.333" version="1.0" viewBox="0 0 64 64">
    <path fill="#e5e5e5" d="M24.4 15.4c-.3.8.2 2.8 1 4.5 1.1 2.1 1.3 3.2.5 3.7-.6.3-1.5.1-1.9-.7-1.4-2.1-2.3 3.3-1.1 6.3 1.2 3.2 4.3 5.2 5.8 3.7 1.8-1.8.8 5.8-1 7.9-.9 1-1.7 2.7-1.7 3.7 0 1.6.4 1.5 2.8-.8 1.5-1.5 3.1-2.7 3.4-2.7.4 0 1 2 1.4 4.5.7 5 1.9 5.5 5.8 2.4 3.1-2.4 3.2-3.3.7-6.7-1-1.5-1.9-4-1.9-5.6 0-1.5-.4-3.1-.9-3.5-1.8-1.1-6.5-9.3-5.8-9.9.4-.4 1.5.4 2.4 1.7.9 1.4 2.4 3.4 3.4 4.5 2.6 2.9 1.6 0-1.7-5.2-1.9-3-3-3.9-4.5-3.5-1.4.4-2.4-.3-3.5-2.6-1.8-3.5-2.4-3.8-3.2-1.7m1.6 15c0 1.8-1.7-.8-2.4-3.4l-.7-2.5 1.5 2.5c.9 1.4 1.5 2.9 1.6 3.4m7 6.7c0 .5-.4.9-1 .9-.5 0-1-.7-1-1.6 0-.8.5-1.2 1-.9.6.3 1 1 1 1.6"/>
</svg>
