<svg xmlns="http://www.w3.org/2000/svg" width="341.333" height="341.333" version="1.0" viewBox="0 0 256 256">
    <g fill="#e5e5e5">
        <path d="M195 8.5c-.6.8-.9 2.3-.5 3.6.6 1.8-1.8 4.7-15.9 18.8L162 47.5l10.4 10.4 10.5 10.4 16.9-16.1c9.9-9.4 17.8-16.2 18.9-16.2 2.7 0 4.3-1.9 4.3-5.3 0-2.4-1.9-4.9-10.2-13.3C204.1 8.5 202.2 7 199.4 7c-1.7 0-3.7.7-4.4 1.5m-76.2 44.6c-.2 2.7.1 4.3 1 4.8 1.1.6 1.3 3.6 1 13.9l-.3 13.2-10 10c-8.8 8.8-10.4 10-13.4 10-3.1 0-5 1.6-20.2 16.7-14 13.8-16.6 16.9-15.8 18.4.5 1 .9 4.1.9 7 0 5-.2 5.5-6 11.5-3.3 3.4-6 6.9-6 7.7 0 .7.9 2.2 2 3.2 2.1 1.9 2 2-14 18l-16.1 16.1 2 2.5 2 2.4 35.4-35.3 35.3-35.3 1.9 2.1c1.9 2.1 1.8 2.2-35.6 39.6l-37.4 37.5 7.8 7.5c13.9 13.2 24.5 20.4 30 20.4 3.1 0 7.7-4.2 7.7-7 0-1-2.2-3.8-5-6.4-2.7-2.6-5-5.2-5-5.9s3.5-11.4 7.7-23.9l7.8-22.6 5.4-1.1c7.5-1.5 7.6-1.5 8.9 2.2.6 1.8 3 5 5.2 7.2l4 3.9 5.2-5.1 5.1-5.2-2.9-3.3c-1.6-1.8-4.6-7.7-6.8-13.1-3.7-9.6-3.8-9.8-2-11.8 1.6-1.8 2.6-2 7.2-1.4 4.3.5 5.7.3 7.2-1 1.6-1.5 3-1.5 14-.4l12.2 1.2 22.1-22.1 22-22-2.7-16.4-2.7-16.3-11.2-11.2-11.2-11.2-16.6-1.5c-9.2-.9-17.3-1.6-18.2-1.6-1 0-1.6 1.3-1.9 4.1m40.9 20.1 6.3 6.2v25.8l-7.2 7.4c-3.9 4.1-7.9 7.4-8.9 7.4-1.9 0-6.9-5.4-6.9-7.5 0-.7 1.2-2.8 2.7-4.5 2.5-3 2.7-4.1 4-20.8 1.3-18 1.7-20.2 3-20.2.4 0 3.6 2.8 7 6.2M126 104.7l-1.2 16.8-4 4.2c-4 4.1-4.2 4.2-7 2.7-1.6-.8-3.2-2.2-3.5-3s.2-6.8 1.2-13.2l1.7-11.7 6.6-6.7c3.6-3.7 6.8-6.6 7-6.3.3.2-.1 8-.8 17.2m-43.9 41.7c-10.4 10.4-13.3 12.8-14.3 11.8-1.8-1.8 24-27.6 26-26 1.1.9-1.2 3.7-11.7 14.2"/>
        <path d="M101.5 72.3c-.4 2.4-.5 5.6-.3 7.3.3 2.9.4 2.9 7.1 3.2l6.7.3V68h-12.9z"/>
    </g>
</svg>
