<svg xmlns="http://www.w3.org/2000/svg" width="341.333" height="341.333" version="1.0" viewBox="0 0 256 256">
    <g fill="#e5e5e5">
        <path d="M107.6 22.6c-21 4.1-38.5 13.4-54.3 28.7-20.8 20.2-32.9 48.3-32.1 74.3.3 8.3.5 8.9 2.5 9.2 7.3 1.1 24.7-17 43.5-45.2 4.5-6.7 10.8-15.8 14.1-20.4l6-8.3 2.5 2.3c1.3 1.3 7.2 7 13 12.8l10.5 10.5 2.3-5c1.3-2.8 2.4-5.5 2.4-6 0-.6-5.4-6.4-11.9-12.9l-12-12 3-3.8c1.7-2.1 3.4-3.8 3.9-3.8.4 0 5.5 4.7 11.3 10.6l10.5 10.5 2.1-6.3 2.1-6.2-9.2-9.3-9.2-9.3 3.4-3.5c1.9-1.9 3.7-3.5 4-3.5.4 0 3.6 2.9 7.2 6.5 7.4 7.2 7.8 7.1 7.8-2.1 0-8.6-.8-9.4-9.3-9.3-4 0-10.3.7-14.1 1.5"/>
        <path d="M175.3 38.5c-17.2 7.4-42 34.8-72.1 79.5-6.1 9.1-15.4 21.7-20.6 28.1l-9.5 11.7-11.7-11.9c-6.5-6.5-12.1-11.9-12.5-11.9-.3 0-1.6 2.5-2.8 5.6l-2.1 5.7 10.5 10.4c5.8 5.8 10.5 10.8 10.5 11.2 0 .3-1.4 2.4-3.1 4.5l-3.2 3.8-9.3-9.3-9.2-9.2-1.1 3.9c-2.6 10-2.9 8.9 4.3 16.1l6.7 6.6-2.8 1.9c-1.5 1-4 1.8-5.5 1.8-1.6 0-2.8.3-2.8.7 0 2.7 17.4 21 25.6 26.9 7.5 5.3 10.7 5.6 19 1.4 16.2-8.1 39.7-34.2 65.9-73 11.8-17.6 25.8-36.2 29.7-39.6 1.2-1.1 1.8-1.3 1.4-.6-.6.9 3.2 5.3 11.7 13.7l12.5 12.4 2.1-5.1c1.1-2.8 2.1-5.6 2.1-6.2s-5-6.1-11.1-12.2l-11.2-11.2 2.1-2.9c4.3-6.1 4.1-6.2 14.9 4.6l10 10 1.6-5.3c.9-2.9 1.7-5.9 1.7-6.7 0-.7-3.5-4.8-7.7-9.1-8.3-8.4-8.4-8.5-2.2-12.9l2.8-1.9 5.1 5.2 5.2 5.3-.5-4.6c-.5-5.8-4.4-11.7-14.6-22.3-14.5-15-21.7-18.6-29.8-15.1"/>
        <path d="M78.7 74.5C77.2 77 76 79.6 76 80.2c0 1.3 25.4 26.8 26.7 26.8.5 0 2-2.3 3.3-5.1l2.4-5-13.5-13.5L81.5 70zM66.5 96l-2.6 5.1 13.6 13.6c7.9 8 13.9 13.3 14.4 12.7.4-.5 1.9-2.8 3.2-5.2l2.3-4.3L84 104.5C76.6 97.1 70.2 91 69.8 91s-1.9 2.3-3.3 5m-10.3 20.5c-1.2 2.5-2.2 5-2.2 5.6 0 1.2 24.8 26.5 25.3 25.8 2.4-3.5 5.7-9 5.7-9.6 0-.9-25.2-26.3-26.1-26.3-.3 0-1.5 2-2.7 4.5m114.1 1.7-3.2 5.2 13.5 13.4c7.4 7.4 13.6 13.3 13.8 13.1s1.5-2.7 2.9-5.5l2.6-5.1-13.2-13.1-13.2-13.2z"/>
        <path d="M225.5 123.5c-9.7 6.5-22.5 21.7-39.5 46.9-6.1 9.1-11.6 16.9-12.2 17.2-.7.4-.2-.6 1-2.3s2.2-3.5 2.2-4c0-.4-6-6.9-13.4-14.2l-13.5-13.4-2.7 5.6-2.8 5.6 11 10.9c6 6 12 12.1 13.3 13.5l2.4 2.6-2.8 3.8c-1.6 2.1-3 4-3.2 4.3-.2.2-6-5.2-12.8-12s-12.6-12.2-12.8-12c-.2.3-1.3 2.9-2.5 5.9l-2.2 5.4 11.5 11.5 11.5 11.4-3.1 3.9c-1.7 2.1-3.4 3.9-3.8 3.9-.3 0-4.9-4.3-10.1-9.5s-9.7-9.1-10.1-8.7-1.4 3.1-2.3 6.1l-1.6 5.4 6.3 6.2c11 11 10.5 9.9 5.6 13.5l-4.3 3.1-4.8-4.8-4.8-4.7v3.3c0 6 1.3 7.1 8.4 7.1 12.4 0 29.5-4.4 42.6-11 19.9-10 37.9-27.9 47.7-47.5 7.6-15 11.6-31.7 11.1-46.1-.3-8.7-.4-8.9-2.8-9.2-1.5-.2-4.2.8-6.5 2.3"/>
        <path d="M158.7 137.8c-1.5 2.7-2.7 5.3-2.7 5.7 0 .9 26.9 27.9 27.3 27.4.2-.2 1.6-2.6 3.1-5.3l2.8-4.9-13.9-13.9-13.9-13.9z"/>
    </g>
</svg>
