<svg xmlns="http://www.w3.org/2000/svg" width="341.333" height="341.333" version="1.0" viewBox="0 0 256 256">
    <path fill="#e5e5e5" d="M43.2 33.3 29 41.4v33.1l9.3 5.2c5 2.9 11.5 6.6 14.3 8.2l5.1 3 5.7-3.5c3.2-1.9 6.1-3.2 6.5-3 1.6 1 14.2 23.6 13.6 24.5-.3.6-2.8 2.2-5.5 3.7l-5 2.7V148l4.6 2.8c8.4 4.9 8.1 3.9 2.8 12.8-2.6 4.3-4.8 8-4.9 8.2-.1.1-3-1.4-6.3-3.4-3.4-2-6.5-3.4-6.9-3.2-.5.1-7 3.8-14.6 8.2L34 181.2v32.6l14 8.2c7.8 4.5 14.7 8 15.4 7.8s7.2-3.7 14.4-7.8l13.2-7.5v-16.7c0-18.7.9-16.2-7.7-21.4l-3.1-1.9 4.8-8c2.6-4.4 5.2-7.9 5.8-7.8.5.1 3.2 1.5 6 3.2l4.9 2.9 14.1-8.2 14.2-8.1V135h40v13.8l13.9 8.1c7.7 4.5 14.2 8.1 14.6 8.1s6.9-3.6 14.6-8.1l13.9-8.1v-32.7l-9.2-5.5c-5.1-2.9-11.6-6.6-14.4-8.2l-5-2.8-14 8-13.9 8-.3 6.7-.3 6.7H130v-13.9l-5-2.8c-2.7-1.5-5-3.2-5-3.6 0-1.5 8.2-14.7 9.1-14.7.4 0 3.4 1.5 6.6 3.4l5.7 3.4 5.1-2.9c2.7-1.6 9.2-5.3 14.2-8.2l9.3-5.2V51.3l-14.3-8.2-14.3-8.2-14.2 8.3-14.2 8.2v33.1l5.3 2.9c2.8 1.6 5.3 3 5.5 3.1.2.2-8.2 14.2-9.2 15.2-.2.3-3.2-1.1-6.6-3.1l-6.2-3.7-6.3 3.5-6.2 3.5-6.6-11.2c-3.6-6.1-6.8-11.9-7.1-12.7-.4-1.1 1-2.4 4.9-4.5l5.5-2.9V41.4l-13.7-7.8c-7.6-4.4-14.1-8.1-14.4-8.2-.3-.2-6.9 3.4-14.7 7.9"/>
</svg>
