<svg xmlns="http://www.w3.org/2000/svg" width="85.333" height="85.333" version="1.0" viewBox="0 0 64 64">
    <g fill="#e5e5e5">
        <path d="M13.2 17.2c-1.5 1.7-1.8 2.7-1.1 4 1.2 2.1-.6 5.4-3.3 6.1-2.6.7-2.5 6.4.2 7.2 2.9.9 4.5 4.2 2.9 6.1-1.8 2.1 1.7 5.7 4.8 4.9 1.3-.3 3.4.1 4.8 1.1 2.4 1.6 2.5 1.6 2.5-1 0-1.6-1.6-4.4-4.5-7.6-5.5-6.2-5.7-8.7-.9-14 3.6-4 4.2-7.7 1.2-7.2-.9.1-1.9-.2-2.3-.8-.9-1.5-1.9-1.2-4.3 1.2M46.5 16c-.4.6-1.4.9-2.3.8-3-.5-2.4 3.2 1.2 7.2 4.8 5.3 4.6 7.8-.9 14-2.9 3.2-4.5 6-4.5 7.6 0 2.6.1 2.6 2.5 1 1.4-1 3.5-1.4 4.8-1.1 3.1.8 6.6-2.8 4.8-4.9-1.6-1.9 0-5.2 2.9-6.1 2.7-.8 2.8-6.5.2-7.2-2.7-.7-4.4-4-3.3-6.2.8-1.4.5-2.3-1.3-4-2.5-2.4-3.2-2.6-4.1-1.1"/>
        <path d="M27.6 22.9c-5.4 5.6-3.5 10.1 2.1 4.9l2.3-2.1 2.4 2.3c2.6 2.3 5.6 2.2 5.6-.3 0-1.2-7-8.7-8.1-8.7-.3 0-2.2 1.8-4.3 3.9"/>
        <path d="M27.7 32.8c-2 2.1-3.7 4.5-3.7 5.4 0 3 2.1 3.1 5.1.2l2.9-2.8 2.9 2.8c3 2.9 5.1 2.8 5.1-.3 0-1.5-6.7-9.1-8.1-9.1-.3 0-2.2 1.7-4.2 3.8"/>
    </g>
</svg>
