<svg xmlns="http://www.w3.org/2000/svg" width="85.333" height="85.333" version="1.0" viewBox="0 0 64 64">
    <g fill="#e5e5e5">
        <path d="M28.3 17.6c-2.8 2.2-3.3 3.2-3.3 7 0 2.4-.3 4.4-.7 4.4-.5 0-2.3 1.4-4 3.1-2.6 2.4-3.3 3.8-3.3 6.8 0 3.2.6 4.5 3.5 7 4.1 3.6 4.3 3.6 7.3 1.2 1.8-1.6 2.2-2.9 2.2-8 0-5.8-1-7.6-2.7-4.9-.4.7-.8 2.9-.8 4.8 0 2.8-.4 3.6-2.1 3.8-1.1.2-2.6-.4-3.3-1.2-1.8-2.1 1.6-7.5 6.9-11l4-2.6 4 2.6c5.3 3.5 8.7 8.9 6.9 11-.7.8-2.2 1.4-3.3 1.2-1.7-.2-2.1-1-2.1-3.8 0-1.9-.4-4.1-.8-4.8-1.7-2.7-2.7-.9-2.7 4.9 0 5.1.4 6.4 2.3 8 2.9 2.4 3.1 2.4 7.2-1.2 2.9-2.5 3.5-3.8 3.5-7 0-3-.7-4.4-3.2-6.8-1.8-1.7-3.6-3.1-4-3.1-.5 0-.8-2-.8-4.4 0-3.9-.4-4.8-3.3-7-1.9-1.5-3.6-2.6-3.8-2.6s-1.9 1.2-3.6 2.6m6.5 6.1c-.2 2.2-.8 2.8-2.8 2.8s-2.6-.6-2.8-2.8c-.3-2.4 0-2.7 2.8-2.7s3.1.3 2.8 2.7"/>
        <path d="M23 39.4c0 .9.5 1.6 1 1.6.6 0 1-.4 1-.9 0-.6-.4-1.3-1-1.6-.5-.3-1 .1-1 .9m16.6-.5c-.4.7-.5 1.5-.2 1.8.9.9 1.9-.4 1.4-1.8-.4-1.1-.6-1.1-1.2 0"/>
    </g>
</svg>
