<svg xmlns="http://www.w3.org/2000/svg" width="341.333" height="341.333" version="1.0" viewBox="0 0 256 256">
    <path fill="#e5e5e5" d="M213 25c-1.9.5-7.5 1.4-12.5 2-4.9.6-11.9 2-15.5 3.2-7.8 2.5-67.2 32.9-82.1 42.1-5.8 3.5-12.4 7.4-14.7 8.6-8.1 4.1-13.9 2.3-23.8-7.7l-6.3-6.4-5.7 2.7c-4.6 2.2-7.8 2.8-17.8 3.5-17.9 1.3-28.9 4.2-30.1 8.1-.9 2.7 9 17.2 18.8 27.5 4.3 4.6 11.6 10.8 16.3 14 14.9 10 23.3 20.5 35.4 44.3 4.3 8.2 9.2 16.3 11.6 19 4.2 4.5 4.3 4.6 7 3.1 2.1-1.1 3.2-3 4.6-7.5 2.5-8.7 4.1-9.6 14.4-8.9 9.2.8 12.6-.5 14.4-5.1.5-1.3 2.2-3 3.7-3.8 4.8-2.5 21.5-7.9 22.1-7.2.4.4.7 7.9.7 16.8-.1 17.5-.9 21.3-6.2 28.9-2.7 4-11 8.8-15 8.8-1.3 0-4.6 1.2-7.4 2.6s-5.4 2.3-5.7 2c-.3-.4 1.3-2.2 3.5-4 2.4-2.1 5.1-5.9 6.9-9.8 2.5-5.6 2.9-7.7 3.2-18.2l.4-12-2.3 1.7c-6.4 4.7-11 6-19 5.4l-7.7-.6-1.1 3.1c-.6 1.7-1.1 4.4-1.1 6 0 2.2-.8 3.3-3 4.6-1.6.9-3.2 2.3-3.5 3.1s1 4 3 7c7.1 11 8.9 15.9 8.9 24.3.1 4.2.4 7.9.8 8.3 1.4 1.4 5.4-.5 10.7-5 6.2-5.3 14.2-9.6 22.3-11.9 10.9-3.2 19.1-14.6 20.8-29.2 1.3-11.1 2.1-14.5 3.4-14.1 2.1.7 3.7 10 3.3 18.9-.3 7.2-.7 9.3-2.6 11.8-3.2 4.4-2.5 6.4 2.3 6.8 2.8.2 5.7-.5 10.2-2.8 11-5.4 17.5-15.3 19-28.8.4-3.1 1.4-9.1 2.4-13.2 1.6-6.5 2.4-8.1 6.7-12.5 2.6-2.8 5.4-6.8 6.2-9 .8-2.3 1.5-10.6 1.8-20l.5-16 4-8.9c8.3-18.3 9.3-42.6 1.8-42.6-1.1 0-2.7 1.2-3.7 2.7-1 1.6-3 4.4-4.5 6.3-1.4 1.9-2.8 4.8-3 6.4-.3 2.5-.7 2.9-4.2 3.2-6 .5-21.8 8.8-27.1 14.1-2.4 2.5-6.5 8.4-9 13.2-2.6 4.7-5.7 10.4-7 12.6-3.1 5-7.1 16.9-8.6 25.8l-1.3 6.7-11 3.5c-6 1.9-11.1 3.3-11.3 3.1-.2-.1.4-2.9 1.2-6.1 2.2-8.3 7.5-17.9 15.3-27.4 3.7-4.5 7.6-9.3 8.6-10.7 1.6-1.9 2.1-4.7 2.6-13.2.7-11 2-15 5.9-18.6l2.1-1.9v4c0 2.1.7 4.8 1.5 5.9 1.4 1.8 1.4 1.8 1.5-.7 0-1.5 1.7-5.1 3.7-8 4.5-6.5 12.6-24.4 14.3-31.6 1-4.4.9-5.7-.4-8.3-1.5-3-1.4-3.1 1.1-4.1 3.4-1.3 5-.6 6.5 2.5.9 2.2.6 3.5-2.4 9.3-2.8 5.4-3.7 8.4-4.1 14.4-.4 4.2-.9 8.3-1.3 9.2-.3.9.2 1.9 1.4 2.6 1.6.8 2.5.6 4.5-.9 1.4-1.1 3.2-2 4-2 2.6 0 7.6-6.8 9.3-12.6 1.1-4 1.5-8.4 1.3-14.8l-.4-9.1 3-.6c1.7-.4 6.2-.7 10-.8 8.3-.1 12.9 2.1 14.9 7.2.7 1.7 1.6 8.6 2 15.2.7 14.4 2.5 22.5 6.8 30.8 3.8 7.1 4 10.5 1.8 26.1-1.1 7.8-1.1 11-.2 15.5 1.6 7.8 1.5 9.9-.8 17.2-1.8 5.7-3.9 8.7-18.6 25.9-9.1 10.7-21.3 25.6-27.2 33-5.8 7.4-12.2 15.5-14.1 18l-3.6 4.5 5.3-4.4c5.5-4.5 21.4-21.1 47.1-49.1 18.6-20.3 19.6-22.2 18.7-38-.8-14.8-.8-15.4 1-26.4 2-12.2 1.4-17.6-2.7-25.7-5.2-10.4-6-13.7-7.3-31-1.3-18.6-2.3-21.1-9.3-24.4-4.3-2.1-15.2-2.8-20.3-1.5M108.1 79.7c-12.4 12.5-26.7 29.2-30 35.1-.8 1.4-1.4 1.2-4.6-1.2-5.2-4-10.7-12.9-13.7-22.2-3.7-11.5-3.9-12.8-2.4-15 1.3-1.8 1.7-1.6 7.4 3.9 6.7 6.3 9.4 7.7 15.3 7.7 5.5 0 8.1-1.3 26.4-12.8 8.8-5.6 16.1-10.2 16.1-10.2.1 0-6.4 6.6-14.5 14.7"/>
</svg>
