<svg xmlns="http://www.w3.org/2000/svg" width="341.333" height="341.333" version="1.0" viewBox="0 0 256 256">
    <g fill="#e5e5e5">
        <path d="M97.5 16.2c-6.9 3.8-8.6 9.8-4 14.3 1.3 1.4 3.1 2.5 3.9 2.5 1.3 0 1.3-.4-.1-2.8-4.6-8 5.9-13.8 11.7-6.5 2.4 3.1 2.7 11.6.6 16.6-.7 1.8-4.5 6.2-8.5 9.9S93 58.6 92 60.7l-1.8 3.8-.7-2.8c-.4-1.5-.4-4.2-.1-6.1.6-3.4.6-3.5-5.4-6.4-7.4-3.7-18.9-6.4-25.6-6l-4.9.3 5.5 2.9c8.5 4.4 21 13.5 27 19.6 4.1 4 7.2 8.8 11.9 17.8l6.3 12.4-2.6 6.1c-1.4 3.4-2.6 6.6-2.6 7.1s2.2 3.2 4.9 6.1c7.8 8.2 11.3 22.6 6.5 26.6-1.3 1.1-1.1 1.6 1.5 4.3 1.7 1.7 3.9 5.2 5 7.7 2 4.5 8.3 29 7.7 29.6-.2.2-2.5-4.6-5.1-10.7s-5.2-11.3-5.7-11.7c-.6-.3-3.3 1.8-6.2 4.6l-5.1 5.1 4.9 4.2c6 5.2 13.5 16.4 17.2 25.8 1.5 3.9 3 6.7 3.4 6.3.3-.4 1.9-3.9 3.5-7.7 4.2-10.1 11.7-21.1 17-24.8l4.5-3.2-5.2-5.3c-2.9-2.9-5.5-5.3-5.9-5.3s-2.9 5-5.6 11.2c-2.6 6.1-4.9 10.4-5.1 9.6-.4-2.2 4.5-21.4 6.9-26.8 1.1-2.5 3.4-6.2 5-8.3 3-3.6 3-3.9 1.4-5.7-4.2-4.7-.1-18.8 7.6-26.1l4.9-4.7-2.5-5.3c-1.4-3-2.5-6.7-2.5-8.3 0-3.1 8.1-19.1 13.4-26.5 3.3-4.6 18.7-16.5 29.6-22.8l6.4-3.8-3.8-.3c-6.4-.5-17.1 1.8-24.4 5.3-7.9 3.7-8.7 4.6-7.2 7.5 1.1 2 .4 7-1 7-.4 0-1.3-1.3-2-3-.7-1.6-4.5-5.9-8.5-9.5-8.7-7.8-11.1-12.6-10.2-20.6.7-5.8 1.6-7.2 5.5-8.8 3.7-1.5 7.8 0 9.4 3.4 1 2.2.8 3-1.1 5.5-2.3 3.2-1.7 3.7 2.3 1.9 3.8-1.7 5.1-5.8 3.2-10.2-4.1-9.9-18.8-8-24.2 3-2.3 4.8-3 14.9-1.4 20 .7 2.1 4 8.7 7.4 14.8 8.6 15.4 8.7 14.3-5.2 52.8-6.2 17-11.5 31.3-11.8 31.9-.4.7-1 .5-1.5-.5-1.4-2.5-22.6-62-23.1-65-.9-4.7.8-9.7 6.6-19.7 8.9-15.6 10.4-24.6 5.6-34-4.1-8-12.6-12.1-18.5-8.8"/>
        <path d="M76 29.5c-3.1 3.8 2 9.7 6.6 7.6 2.7-1.2 3.3-5.8 1.2-7.9-1.7-1.7-6.3-1.5-7.8.3m95.6 0c-2 2.1-2.1 4.9 0 6.9 3.4 3.5 8.8.2 8.2-5.1-.2-2.3-.8-2.9-3.4-3.1-1.9-.2-3.8.3-4.8 1.3m-49.7 35.6-5.3 8.1 1.9 4.6c1 2.6 3.5 10.3 5.5 17.2l3.8 12.5 1.1-4.5c2.8-10.5 6.5-21.8 8.3-25.4l2-3.8-5.8-8.4c-3.2-4.6-5.8-8.4-6-8.4-.1 0-2.5 3.6-5.5 8.1"/>
        <path d="M63.5 62.1c.4 1.3 2.2 4.5 4 7C71.9 75.3 74 79.4 74 82c0 2.4-1.3 2.6-3.1.3-1.6-1.8-17.9-15-22-17.7-2.4-1.5-3.3-1.5-11.5-.1-13.8 2.3-26.3 2.4-29.8.2-4.7-3.1-4.1-1.1 1.1 4 6.2 6 14.2 9.9 31.3 15.3 17.7 5.6 25.9 9.9 34.1 18 6.8 6.7 10.3 12.4 13.4 22 1 3 2.8 7 4.2 8.7 1.5 2 1.8 3.1.9 2.7-.8-.3-4.5-5.6-8.2-11.7-8-13.1-17.3-23.1-25.4-27-3-1.5-11.8-4-19.5-5.7-15.9-3.4-21.9-5.2-28.8-8.7C8 81 5.6 80 5.4 80.2s1.3 3.7 3.4 7.8c2.5 5.1 5.9 9.8 10.7 14.8l7.1 7.2 13-.6c11.9-.6 13.2-.5 17.1 1.4 10.2 5.3 11.2 14.2 1.4 14.2-4 0-6.1-.9-6.1-2.7 0-1.1.7-1.3 2.5-.9 2.2.6 2.5.3 2.5-1.8 0-4.4-7.8-4.8-10-.6-1.4 2.5-.5 5.4 2.3 8 3.4 3.3 8.1 4 17 2.8 5.9-.8 9-.7 11.8.1 5.5 1.7 4.8 3.1-1.3 3.1-4.8.1-5.1.2-3.4 1.5 3.5 2.6 18.1 9.9 24.4 12.1 3.5 1.2 6.5 2.4 6.8 2.7s-1.2 1.8-3.5 3.2c-3.6 2.5-4.3 2.6-7.6 1.5-4.1-1.3-6.5-.8-6.5 1.5 0 .9-.6 2.8-1.4 4.4-1.2 2.3-3.9 3.6-16 8.2-8 3-14.2 5.7-13.8 6 .4.4 2.5 1.2 4.7 1.9 12.1 3.8 32.8 17.5 44.1 29.2 10 10.3 15.9 18.9 20.1 29.3 1.8 4.4 3.4 7.3 3.7 6.5 5.5-15.6 11.5-25.1 23-36.6 11.7-11.7 39.3-29.4 45.8-29.4 4.9 0 1.4-2.2-10.2-6.5-7.1-2.6-13.8-5.4-14.9-6.2-1.1-.7-2.6-3.2-3.2-5.3-1.3-4.4-1.6-4.5-7.2-2.9-3.5.9-4.3.8-7.9-1.6-4.5-3-4.2-3.6 2.2-5.4 5.2-1.5 21.3-9.3 25-12.1l2.5-2h-4.7c-5.5 0-6.2-1.2-1.8-3 2.3-1 5.2-1 12-.3 10.8 1.2 13.2.9 17-2.7 3.6-3.4 3.9-7.2.8-9.4-4.1-2.9-8.8-1.5-8.8 2.6 0 1.4.6 1.6 3 1.2 1.9-.4 3-.2 3 .4 0 2.8-8.2 4.3-12.1 2.2-4.7-2.6-.2-10.6 7.7-13.6 3.6-1.4 6.4-1.6 15.1-1.1 12.7.7 13.6.4 21.9-8.5 5-5.4 14.1-20.4 13-21.5-.2-.2-3.7 1.2-7.7 3.2-4.4 2.1-14.7 5.3-25 7.9-9.6 2.4-18.9 5.1-20.5 5.9-9.3 4.8-19.4 15.8-25.4 27.7-1.5 3-4 6.6-5.5 8l-2.7 2.5 2-3.5c1.1-1.9 3-6.6 4.2-10.5 2.8-9.5 5.9-14.3 13-20.7 8.3-7.5 13.5-10.1 34.7-17.3 19.5-6.7 26.8-10.6 31.9-17.2l2.6-3.5-3.3 1.8c-4.5 2.4-19.2 2.4-30.6 0-4.6-.9-8.8-1.4-9.5-1-3.6 2.1-19.7 14.6-22.2 17.3-6.8 7.1-6.2.7.9-10 3-4.6 5.5-8.7 5.5-9.2 0-1.5-16.2 13.6-20.3 18.9-8.7 11.4-11 21.4-6.7 29.9 1.1 2.1 1.9 3.9 1.7 4-.1.1-1.2.8-2.4 1.4-1.3.6-3.4 3.6-4.9 6.6-1.6 3.4-4.5 7.2-7.5 9.8-2.7 2.3-4.9 4.8-4.9 5.5 0 .8.9 2.5 2 3.9l2 2.5-4 3.9c-2.2 2.2-4 4.2-4 4.6.1 1.3 17.3 13.4 26.7 18.8 4.7 2.8 8.8 5.5 9 6.1s-.8 1.6-2.2 2.2c-3.4 1.6-4 1.5-2.6-.2 1-1.2.8-1.7-.9-2.6-1.8-1-2.9-.6-7.8 3.1-13.6 10.2-28 26.2-34.2 38.1l-3.8 7.1-1.1-3.6c-3-9-20.3-29.3-34.7-40.8-5.6-4.4-6.5-4.8-8.9-3.9-2.3.9-2.5 1.3-1.5 2.5 1.6 2 0 1.9-2.8-.1-1.2-.8-2-1.9-1.7-2.4s4.3-2.9 9-5.4c8.9-4.7 26.5-17.3 26.5-18.9 0-.5-1.6-2.5-3.6-4.5l-3.7-3.7 2.1-3.5 2-3.5-5.8-5.6c-4.1-3.8-6.2-6.8-7.1-9.8-.8-2.6-2.3-4.9-3.8-5.9-1.4-.9-2.8-1.7-3-1.9-.2-.1.5-1.9 1.5-4 4.2-8.7 1.9-18.2-7.5-30.6-5.3-7-20.6-20-19.6-16.6m-39.8 64.6c-1.4 1.3-.6 3.3 1.3 3.3 1.3 0 2-.7 2-2 0-1.9-2-2.7-3.3-1.3m204 .7c-.7 1.8.1 2.6 2.5 2.6 1.3 0 1.8-.6 1.6-1.7-.4-2.2-3.4-2.9-4.1-.9"/>
        <path d="M39.2 136.2c-1.7 1.7-1.5 5.3.4 7.2 2 2 2.7 2 5.5-.3 2-1.6 2.2-2.3 1.4-4.7-1.1-3.2-5.1-4.4-7.3-2.2m170 0c-1.9 1.9-1.4 5.5 1 7.2 1.2.9 2.6 1.6 3 1.6 1.4 0 3.8-3.2 3.8-5 0-3.9-5.2-6.4-7.8-3.8m-150.5 6.9c-2.4 1.4-4.9 6.7-4.2 9 1.4 4.4 8.3 4.9 10.5.8 1.6-2.9.5-5.2-2.1-4.4-1.5.5-2 .3-1.7-.6.3-.8 1.6-1.5 3.1-1.7 6.3-.8 9.7 5 5.6 9.4-1.2 1.3-1.8 2.4-1.1 2.4 1.7 0 5.2-5 5.2-7.6 0-1.2-1.2-3.6-2.6-5.3-2.1-2.6-3.3-3.1-6.7-3.1-2.3 0-5 .5-6 1.1m126.5-.4c-1.6.6-4.2 5.6-4.2 8.2 0 2.1 4.9 8.5 5 6.5 0-.6-.7-1.7-1.5-2.4-3.7-3.1.3-9.3 5.7-8.8 1.7.2 3.3.9 3.6 1.7.3.9-.1 1.1-1.6.7-2.4-.8-3.6.7-2.7 3.4 1.5 4.6 8.2 5 10.2.7 1.3-2.9-.6-8-3.6-9.6-2-1.1-8.6-1.4-10.9-.4"/>
    </g>
</svg>
