<svg xmlns="http://www.w3.org/2000/svg" width="341.333" height="341.333" version="1.0" viewBox="0 0 256 256">
    <g fill="#e5e5e5">
        <path d="M147.4 3.4c-17.8 9.5-39.4 27.9-49 41.7L95.7 49l5.5 8.2c8.6 12.9 9.7 18.1 4.9 22.9-8.7 8.6-27.9-2.9-33.7-20.3-.9-2.7-2-4.6-2.4-4.1-.4.4-3.3 8-6.5 16.8-4.6 12.8-5.8 17.6-6.2 24.1-.9 12.8.8 16.6 13.2 29.4 12.5 13 16.6 18 24.9 30.4 7 10.5 10.1 17.6 11.2 25.4 1.2 8.9-3.8 15.2-12.1 15.2-1.9 0-3.5.2-3.5.5s4 5.9 8.9 12.3c4.9 6.5 9.8 13.6 10.9 15.8 2.2 4.3 3.9 11.4 2.7 11.4-1.4 0-23.3-17.7-30.8-25-8.1-7.7-12-13.7-13.2-20.3-.4-2.1-1.1-4-1.7-4.3-.5-.3-.7.5-.4 1.8.3 1.2.7 5.3 1.1 8.9.5 5.7 2.1 12 5 19.1.6 1.6.4 1.7-2.6.6-12.2-4.2-18.9-13.5-19.7-27.4-.6-11.7 3-22.5 11-32.6 1.6-2.1 2.5-3.8 2-3.8-1.8 0-8.7 6.2-12.5 11.3-4.7 6.1-6.7 10.6-7.6 16.6l-.6 4.4-2.5-3.9c-2.3-3.5-10.5-9.3-11.6-8.1-.3.2.9 2.7 2.6 5.4s5.1 10.7 7.5 17.8c7.5 21.6 10.7 24.5 37 33.1 21 6.9 27.1 10 35.7 18.7l6.8 6.7 6.2-6.3c10.1-10.1 12.7-11 35.8-11.8 19.9-.7 22.5-1.1 29.6-4.7 5.9-3 9.7-7.9 15.9-20.1 5.7-11.5 11-17.4 16.6-18.6 3.9-.9 3.7-2.5-.3-2.5-9.8 0-18.6 5.3-24.5 14.9l-4.1 6.6.5-6.1c.5-5.7.2-6.8-3.7-15.5-4.6-9.8-6-17.2-4.1-20.8 1.5-2.8 0-2.7-2.6.2-5.9 6.4-6.9 15.3-2.9 26.7 3.9 10.9 3.8 14.9-.5 21.3-3.6 5.5-9.1 8.4-17.4 9.2-6.6.6-6.6.6 2.4-4.8 3.6-2.1 6.1-4.5 7.4-6.9 2.6-5.2 1.8-6.3-2.6-3.3-4.5 3.1-9.9 5.1-19.1 7.1-9.4 2-14.6 4.4-20.2 9.6l-4.7 4.3.7-4.4c1.2-8 4.4-13.4 12.1-21.1 4.1-4.1 7.5-7.8 7.5-8.1 0-.4-.9-.5-1.9-.2-4.9 1.3-9.8-5.9-8.6-12.6.9-4.9 3.9-10.5 8.3-15.3 5.5-6.1 19.6-16.7 33.3-25 14-8.4 23-16.3 27.6-23.9 1.8-3 5.3-11.8 7.8-19.6s5-14.5 5.5-14.8c2.5-1.6.6-2.4-2.2-.9-4.7 2.4-11.9 9.5-23.1 22.7-10.4 12.3-14.9 15.7-21 15.7-4.7 0-7-2-6.9-5.9.1-4.2 2.5-8.1 12-19.9 10.5-13.1 13.7-17.9 18.2-27.5 6.6-14.2 9-27.8 7.1-39.3-1.1-6.5-7.9-32.4-8.7-33.3-.8-.8-8.2 6.6-13.7 13.7C170.5 28 159 49 150.1 70.3c-8.2 19.8-25.8 81.7-29.6 104.3-1.4 8.1-2.8 15-3.1 15.3s-.3-2.8 0-6.9.8-15.6 1.1-25.5c1.6-53 6-83.4 17.2-117.9 4.3-13.3 8.6-22.9 14.3-31.9 2.3-3.7 4.1-7 3.8-7.2-.2-.2-3.1 1.1-6.4 2.9"/>
        <path d="M149.7 180.8c-4.5 4.9.8 11.8 6.8 9 3.3-1.5 4.2-5.1 2.1-8.3-2-3-6.5-3.4-8.9-.7"/>
    </g>
</svg>
