<svg xmlns="http://www.w3.org/2000/svg" width="341.333" height="341.333" version="1.0" viewBox="0 0 256 256">
    <g fill="#e5e5e5">
        <path d="M110.1 6.1c-4 3.3-16.1 7.9-27.4 10.4-7.1 1.6-8 2-10.1 5.4-3 4.9-11.3 20.9-12.6 24.3-.5 1.6-1.4 2.8-2 2.8-2 0-2.2-5.2-.4-14.4 1.6-8.7 1.4-14.2-.5-12-.4.5-1.9 3.6-3.4 6.9-3.5 8.2-5.7 21.8-6.7 42-.7 16.1-1 17.5-4.5 27-7.9 21.4-8.7 24.2-9.2 29.5-.7 7.8 2.2 14.3 9.6 21.3 7.3 7 11.5 9.1 24.5 12.2 12.2 2.8 19 6 24.2 11.1 6.3 6.4 8.3 14.5 4.4 18.4-2.6 2.6-9.8 2.7-17.3.1-3.2-1.1-5.7-1.6-5.7-1.1s.4 1.2 1 1.5c1.2.8 30 32.9 39.4 43.9 3.7 4.5 8.4 10.5 10.4 13.3 1.9 2.9 3.8 5.3 4.1 5.3.4 0 2.6-2.6 4.8-5.8 5.1-7.3 13.1-16.6 34.1-40 8.9-10 15.6-18.2 14.8-18.2-.7 0-3.3.7-5.6 1.5-6.2 2.2-13.5 2-16-.5-4.2-4.2-1.8-12.1 5.9-19.3 5.1-4.8 10.9-7.3 24.3-10.7 13.4-3.5 25.4-11.6 30.1-20.5 1.7-3.1 2.1-5.6 2.1-11.5-.1-6.7-.8-9.3-6.4-24l-6.3-16.5-.8-17.1c-1.1-24.4-2.3-30.6-7.9-42.8-3.5-7.4-3.9-7.9-4.5-5.4-.4 1.4.1 6.3 1 10.7 1.9 9.2 1.7 14.6-.4 14.6-.8 0-1.8-1.1-2.1-2.5-.9-3.1-12.6-25.1-14.3-26.6-.7-.7-5.9-2.3-11.7-3.8-6-1.4-14.3-4.4-19.3-6.9-7.7-3.8-8.6-4.1-8.1-2.3 1.9 6.3 6.7 12.9 15.3 21.1 24.6 23.3 27.7 26.7 31.4 34.5 4 8.3 6 16.1 5.5 21.2-.3 3.1-.4 2.9-2.5-3-5.5-15.8-14-26.4-32.4-40.2-6.3-4.8-14.3-11.8-17.8-15.6l-6.3-6.9.8 8.5c.8 10 2.2 15.4 5.8 21.5 3 5.1 7.6 8.1 18 11.6 8.4 2.9 13.6 7.3 13.6 11.5 0 3.5-.8 4.7-3.8 6.3-2.9 1.6-2 2.8 5.8 8.1 8.3 5.6 12 10.2 12 14.8 0 2.1-.5 4.3-1.1 4.9-.9.9-.1 1.4 2.7 2.2 5.1 1.4 9.8 4.9 13.6 10.1 1.7 2.2 3.2 3.9 3.4 3.8.2-.2-.3-3.3-1-6.8-.8-3.6-1.2-6.7-1-6.9.6-.6 4.4 6.4 6 11.3 2.9 8.6.1 22-5.9 28.4-3.6 3.9-11.2 7.1-22.9 9.8-6.1 1.4-12.3 3.1-13.8 3.9-6.8 3.5-16.8 18.8-22.1 33.8-1.3 3.7-1.2 3.9 1.1 5.8 2.2 1.7 3.5 1.9 9.8 1.5 8.4-.7 9.2.3 3.6 4.8-3.2 2.5-3.5 2.6-2.4.6 1.4-2.7 1.2-3-2-2.3-2.8.5-8.6 8.1-20.1 26.2-3.5 5.6-6.6 10.1-6.9 10.1s-5.1-7.1-10.8-15.8c-12.2-18.7-12.9-19.7-16.6-20.6-2.3-.6-2.7-.4-2.2.8 1.8 4.5 1.4 4.8-1.8 1.2-2-2.2-3.6-4.3-3.6-4.8 0-.4 3.3-.5 7.3-.2 6.3.6 7.5.4 9.7-1.4 2.4-1.9 2.4-2.2 1.1-5.9-5-14.5-15.3-30.3-22-33.8-1.5-.7-7.6-2.5-13.6-3.8-13-3-17.3-4.7-21.8-8.7-8.2-7.2-10.7-22.8-5.5-34.1 2.4-5.3 6.1-9.8 4.4-5.3-.4 1-1 4.1-1.3 6.8l-.6 4.8 5.9-6c4.2-4.3 7.1-6.3 10.1-7.1 4-1.1 4.1-1.2 3.1-3.9-2.2-5.7 1.4-11.5 11.1-18.1 8.3-5.6 8.7-6.3 5.1-9-6.8-5-1.8-13.1 10.7-17.1 13.3-4.3 18.4-9.1 21.8-20.3 1.4-4.8 2.9-20.7 1.9-20.7-.4 0-3.4 2.9-6.7 6.6-3.3 3.6-11.3 10.5-17.8 15.5C82.6 50.2 74.1 59 70.6 65.8c-1.3 2.6-3.8 9-5.7 14.2-3.3 9.2-3.4 9.4-3.7 5.5-.5-6.3 1.6-15.4 5.6-23.5 3.8-7.8 7.8-12.2 31-34.1 8.2-7.8 10.7-10.8 13.3-16.2 1.7-3.7 2.9-7.1 2.7-7.6-.1-.5-1.8.4-3.7 2"/>
        <path d="M125.7 50.3c-1.3 2-16.9 19.8-35.8 40.9-3.8 4.2-6.5 7.9-6 8.2 1.2.8 10.1-.5 10.1-1.4 0-.4-.8-1.1-1.7-1.4-1.4-.6-1.5-.9-.4-1.6 2.1-1.2 3.3-.6 19.8 11.2 8.4 5.9 15.8 10.8 16.4 10.8.7 0 8.1-5 16.6-11 10.7-7.6 16.2-11 18.1-11 2.6.1 2.6.1.8 1.5-1.1.8-1.8 1.7-1.5 1.9.7.7 10.9 1.8 10.9 1.2s-13.8-16.4-31.5-36.2C137 58.5 132.3 53 131 51.2c-2.8-3.8-3.3-3.9-5.3-.9m15.2 27.2c6.6 6.8 12.1 12.8 12.1 13.2 0 .8-17.1 14.4-22.2 17.8-2.7 1.7-2.9 1.7-5.5 0-5.2-3.4-22.3-17-22.3-17.8 0-1 24-25.7 25-25.7.4 0 6.2 5.6 12.9 12.5"/>
        <path d="M122 84.6c-3 2.5-5.6 4.7-5.8 4.9s2.4 2.2 5.7 4.4l6.1 4.2 6.2-4.2c5-3.4 5.9-4.4 4.7-5.3-.9-.6-3.6-2.8-6.1-4.9-2.5-2-4.7-3.7-4.9-3.7s-2.9 2.1-5.9 4.6m-21 26.8 2.3 3.8-2 4.2c-4.9 9.9-14.5 20.1-21.9 23.2-3.2 1.4-3.8 1.3-6-.1-3.2-2.1-4.7-6.1-3.9-10.5 1-5.5 3.2-8.2 6.3-7.8 2.9.3 4.5 3.8 1.7 3.8-2.1 0-3 2.7-1.5 4.5 1.6 2 5.4 1.9 7.4-.1 3.6-3.6 3.2-9.9-.9-14-2.9-2.9-9.8-3.3-13.3-.8-3.4 2.4-6.2 8.7-6.2 14.1 0 9 7.1 18.3 13.8 18.3 1.5 0 6.3-2.6 11.3-5.9 9.6-6.5 11.7-7.5 13.7-6.2.9.5-.4 1.9-4.3 4.4-3 2.1-5.5 4-5.5 4.3s1.8 2.7 4.1 5.2c8.1 9.3 16.9 27.9 25.9 55.2 3.2 9.6 6.1 16.8 6.4 16s2.2-6.7 4.2-13c4.9-15.4 13.5-36.6 18.4-45.6 2.2-4 6.1-9.5 8.5-12.2 2.5-2.8 4.5-5.2 4.5-5.4 0-.3-2.5-2.2-5.5-4.2-5.3-3.7-6.2-5.6-2.6-5.6 1 0 5.7 2.7 10.5 6.1 10.3 7.2 13.7 8 18.6 4.7 7.3-4.9 10-14.9 6.4-23.8-3.8-9.5-15.6-11.3-19.9-3-2.3 4.5-1.5 10 1.9 12.2 2.3 1.6 6.5.8 7.1-1.2.8-2.4-.1-4-2.1-4-.9 0-1.4-.7-1.2-1.8.2-1.2 1.3-1.7 3.3-1.7 2.4 0 3.3.7 4.7 3.5 2.7 5.4 2.3 9.6-1.2 13.1-3.5 3.6-5.1 3.4-12.3-1.5-5.7-3.9-12.6-12-16.4-19.2l-2.7-5.1 2.4-3.3c1.6-2.2 1.9-3.2.9-2.8-2.4.9-14.9 9.9-14.9 10.7 0 .4.5 1.2 1.2 1.9 1 1-.4 2.9-6.5 9l-7.7 7.7-7.7-7.7c-6.1-6.1-7.5-8-6.5-9 .7-.7 1.2-1.5 1.2-1.9 0-.6-10.9-9-14.9-11.4-.9-.5-.5.7.9 2.9m20.8 28.4 6.3 4 8.6-5.4c10.8-6.8 13.6-7.1 8.4-1.1-1.5 1.8-1.3 2.1 2.2 5.3 2 1.9 3.7 3.8 3.7 4.2.1 1.4-22.5 60.2-23.1 60.2S105 148.3 105 146.8c0-.4 1.7-2.3 3.7-4.2 3.6-3.3 3.7-3.5 2-5.3-.9-1.1-1.7-2.5-1.7-3.1 0-1.7 4.9.5 12.8 5.6"/>
        <path d="M121.3 154.2c.2.7 1.7 5.2 3.3 10 1.5 4.9 3.1 8.8 3.5 8.8.7 0 6.9-17.5 6.9-19.3 0-.4-3.2-.7-7.1-.7-5.3 0-7 .3-6.6 1.2m-78.9 5.2c-1 2.6.4 4.8 2.8 4.4 1.7-.2 2.3-1 2.3-2.8s-.6-2.6-2.3-2.8c-1.3-.2-2.5.3-2.8 1.2m166 0c-1 2.6.4 4.8 2.8 4.4 1.7-.2 2.3-1 2.3-2.8s-.6-2.6-2.3-2.8c-1.3-.2-2.5.3-2.8 1.2m-150.2 8.2c-2.9 2-2.8 5 .3 7 5.5 3.6 10.6-3.3 5.3-7-1.2-.9-2.5-1.6-2.8-1.6s-1.6.7-2.8 1.6m134 0c-5.3 3.7-.2 10.6 5.3 7 3.1-2 3.2-5 .3-7-1.2-.9-2.5-1.6-2.8-1.6s-1.6.7-2.8 1.6m-118 5.6c-1.9 1.9-1.4 5.6.9 6.8 2.9 1.6 5.2.5 4.4-2.1-.8-2.5 1.2-2.3 2.9.4.8 1.2.5 2.1-.9 3.6-2.3 2.6-1.4 3.6 2.2 2.4 6.5-2.2 2.5-12.3-5-12.3-1.8 0-3.8.5-4.5 1.2m97.2 1.3c-3.5 3.5-3.1 8.5.9 9.8 3.6 1.2 4.5.2 2.2-2.4-1.4-1.5-1.7-2.4-.9-3.6 1.7-2.7 3.7-2.9 2.9-.4-.8 2.6 1.5 3.7 4.4 2.1 2.3-1.2 2.8-4.9.9-6.8-2.1-2.1-7.7-1.4-10.4 1.3"/>
    </g>
</svg>
