<svg xmlns="http://www.w3.org/2000/svg" width="341.333" height="341.333" version="1.0" viewBox="0 0 256 256">
    <g fill="#e5e5e5">
        <path d="M203.5 3.8c-16.1 6.7-29.8 16.7-37 27.2-2.8 4.1-2.9 4.3-2.6 17.3.3 19.5-1.8 26.7-8 26.7-3 0-6.5-3.6-7.5-7.7-.4-1.2-.9-2.3-1.3-2.3s-2.6 3.9-5 8.7c-5.1 10.4-15 25.9-18.6 29.3-2 1.8-1.4.4 2.5-6.6 9.9-17.6 14.1-34.3 12-47.5-2-13.5-6.8-23.5-15.2-31.7-5.4-5.4-10-7.5-17.4-8-7-.5-11.8 1.5-17.1 7-5.6 5.8-7.7 12-7.8 22.8 0 8.2.3 10.2 2.5 14.5 6.4 12.9 21.3 12.9 27.1 0 2.1-4.5 2.4-10 .8-14.2-3.5-9.4-12.9-9.9-12.9-.7 0 2.3.3 2.6 2.5 2.1 3.2-.6 4.5 1.6 4.5 7.7 0 5.5-2.5 8.6-6.9 8.6-8.2 0-12.2-18.3-6.1-27.4 5.3-7.6 15.2-9.9 22.3-5 4.5 3 11.2 12.9 12.9 18.8.6 2.3 1.1 8.6 1.2 14.1.1 18.3-5.9 31.9-23.9 54.5-9.8 12.3-15.7 21.8-19.1 30.5-2 5.2-1.4-4.3 1.2-16.7 5.6-28.2.7-49-15.6-65.8-11.1-11.4-29-17-40.4-12.6-8 3-15.6 13.4-17.2 23.3-1.4 9 5 21.5 13.6 26.2 10.5 5.8 22.7.8 21.2-8.7-.4-2.5-4.2-4.5-6.7-3.6-1.9.8-1.9 1.4.2 3 1.7 1.3 1.7 1.5-.1 2.9-2.5 1.9-4.7 1.9-9 .1-10.8-4.5-10.1-20.1 1.3-28 8.4-5.9 18.8-5.3 29 1.5 8.1 5.4 9.2 7.2 2.4 3.7-6.4-3.2-12.7-3.7-17.9-1.2-1.9.9-3.6 1.9-3.8 2.3-.2.3 2.8.6 6.7.7 9 .1 13.8 2.4 21.3 10.2s10.6 14.4 11.1 23.5l.4 7.2-2.3-5.8c-3.6-9-10.4-16.1-17.5-18.2l-2.2-.6 2.5 5.5c1.4 3 3 9.2 3.6 14.1 1.1 7.9.9 10-1.7 26.6-2.7 16.5-2.8 18.6-1.7 26.7.6 4.8 1.4 9.8 1.7 11.2.6 2.5.6 2.5-1 .5-4.5-5.3-6.5-11.8-6.5-20.9 0-7.2-.4-9.5-2.1-12.2-4.3-7-10.9-9.4-20.2-7.4-7.7 1.6-9.2 3.6-2.4 3.2 6.1-.3 10.7 2 13.2 6.8.9 1.8 2 7.8 2.6 14.8 1.5 18.6 4.7 39 6.9 43.9 2.6 6 11.2 16.6 16.8 20.9 2.5 1.9 11.1 6.8 19.2 10.9 16.4 8.3 25.9 14.9 29.7 20.6 1.4 2.2 2.8 3.9 3 3.9.3 0 1.7-1 3.2-2.3 1.5-1.2 6.3-4.1 10.7-6.5 15.2-8.2 22.8-15.6 29.4-29 4.7-9.4 6.5-19.5 5.1-29-1.5-10.1-4.8-16.5-12.1-23.9-7.6-7.6-14.2-11.2-22.2-12.2l-6.3-.7 3.6-1.1c2-.6 6-2.7 8.8-4.7 5.2-3.5 13.4-6.6 17.5-6.6 3.5.1 10 3.6 12.9 6.9 4.5 5.3 2.9 12.1-2.7 12.1-3 0-4.8-2.2-4.4-5.4.4-3.4-1.3-3.7-3.1-.4-1.4 2.5-1.4 2.9.5 5.5 1.6 2.1 3.1 2.9 6.2 3.1 5.8.4 9.2-2.9 9.2-9.1 0-6.1-3.2-10.5-10.1-14-13.2-6.6-29.3-4-44.1 7.2-2.9 2.2-10.1 6.2-16 9.1-12.1 5.7-18.3 11.1-22.5 19.4-4.6 9-4.2 27.5.8 33.6l2 2.5-.8-2.5c-.4-1.4-.8-6.1-.8-10.5 0-7.1.4-8.9 3.3-14.7 3.9-8 10.1-13.8 18.1-17 4.7-1.9 7.3-2.3 16.6-2.2 13.3.1 20.5 2.4 25.6 8.2 12.8 14.5 11.6 37.5-2.9 55.8-3.9 5-21.4 17.9-22.6 16.7-.3-.3-.6-3.5-.6-7 0-10.5 3.8-16.5 16.2-24.9 11.1-7.7 12.9-23.3 3.8-32.4-6.3-6.3-14.5-7.4-22-2.9-4.1 2.5-3.6 3 1.6 1.6 12.6-3.3 24.1 12.1 17.4 23.1-1.1 1.8-4.1 4.5-6.7 6-2.5 1.5-6.7 4.1-9.2 5.7l-4.6 3-5.4-3.2c-3-1.8-6.5-4.2-7.8-5.4-2.7-2.6-4.5-8.3-3.7-11.6.8-3.2-.3-2.9-2.1.7-1.7 3.4-1.9 8.7-.5 12.6.6 1.5 3.9 5.8 7.4 9.4 4.2 4.5 6.9 8.4 8 11.5l1.6 4.8-2.3-2.1c-1.3-1.3-6.4-3.8-11.3-5.8-13.9-5.5-17-7.1-21.3-11-15.2-13.6-13.7-44.7 2.7-59.5 6.3-5.6 26.7-19.6 34.1-23.4 13.2-6.6 31.9-10 46.2-8.3 11.8 1.4 11.5 1.4 22.5-2 15.1-4.8 25-10.9 37.4-23l10.5-10.3-4.1.4c-2.7.3-7.6 2.5-13.9 6.3-12.3 7.3-21.5 9.9-21.5 6 0-.7 1.6-2.5 3.7-3.9 4.8-3.4 30.2-31.6 30.9-34.3.3-1.1-.2-6.8-1-12.6-2.4-16.1-2.1-30 1-44.8l.7-3.4L231 6c-9.8 7.8-17.1 20.2-27.5 47-7.9 20.2-13.5 30.5-21.5 39.8-11.6 13.4-20 18.8-39.3 25.3-5.1 1.7-12.1 4.6-15.6 6.5-3.6 1.8-6.6 3.2-6.8 3s.7-1.7 2.1-3.3c1.5-1.8 8-5.7 16.3-9.8 24.1-12 30.7-17.2 40.4-32.3 5.6-8.8 9.5-18.4 17.3-43.2 4.4-13.7 6.9-19.7 11.6-27.8 3.3-5.7 6-10.5 6-10.8 0-.8-1.6-.3-10.5 3.4"/>
        <path d="M99.8 77.7c-4.4 5.1-2.4 11.3 3.7 11.3 5.8 0 8.7-6.8 4.5-11-2.5-2.5-6.2-2.6-8.2-.3m88.4 54.9c-2.4 1.7-3 6.2-1 8.2 1.8 1.8 7.3 1.4 9.1-.6 5-5.5-1.9-12-8.1-7.6m-9.8 37.9c-.9 2.3.3 4.5 2.6 4.5 2.5 0 3.7-2.5 2-4.5-1.6-1.9-3.9-1.9-4.6 0m-59.9 20.1-4 3.6 4.5 3.8c2.5 2.2 4.7 3.9 5 3.9s2.5-1.7 5-3.9l4.5-3.8-4-3.6c-2.2-1.9-4.7-3.5-5.5-3.5s-3.3 1.6-5.5 3.5"/>
    </g>
</svg>
