<?xml version="1.0" standalone="no"?>
<!DOCTYPE svg PUBLIC "-//W3C//DTD SVG 20010904//EN"
 "http://www.w3.org/TR/2001/REC-SVG-20010904/DTD/svg10.dtd">
<svg version="1.0" xmlns="http://www.w3.org/2000/svg"
 width="256.000000pt" height="256.000000pt" viewBox="0 0 256.000000 256.000000"
 preserveAspectRatio="xMidYMid meet">
<metadata>
Created by potrace 1.16, written by Peter Selinger 2001-2019
</metadata>
<g transform="translate(0.000000,256.000000) scale(0.100000,-0.100000)"
fill="#e5e5e5" stroke="none">
<path d="M1222 2414 c-64 -111 -82 -127 -165 -152 l-77 -23 0 -474 0 -474 29
-20 c41 -30 112 -61 139 -61 l22 0 0 469 0 469 -60 7 c-74 9 -82 31 -14 41 34
5 56 2 80 -10 46 -22 54 -20 54 9 0 16 6 25 16 25 10 0 14 6 11 18 -3 9 -8 38
-12 64 -6 45 -5 48 20 54 35 9 55 -11 50 -47 -3 -16 -7 -42 -10 -59 -3 -22 -1
-30 10 -30 9 0 15 -10 15 -25 0 -29 8 -31 54 -9 24 12 46 15 80 10 68 -10 60
-32 -14 -41 l-60 -7 0 -469 0 -469 23 0 c26 0 97 31 138 61 l29 20 0 474 0
474 -57 15 c-90 25 -104 36 -162 124 -47 71 -57 82 -83 82 -23 0 -33 -8 -56
-46z"/>
<path d="M1657 2199 c-2 -8 -2 -212 0 -454 6 -490 5 -485 75 -535 62 -45 737
-432 747 -428 7 2 -551 980 -808 1417 -7 12 -9 12 -14 0z"/>
<path d="M860 2148 c-16 -29 -200 -348 -408 -708 -208 -360 -373 -656 -367
-658 15 -4 733 413 768 446 53 51 57 85 57 549 0 273 -4 423 -10 423 -5 0 -23
-24 -40 -52z"/>
<path d="M1270 1875 c0 -177 4 -275 10 -275 6 0 10 98 10 275 0 177 -4 275
-10 275 -6 0 -10 -98 -10 -275z"/>
<path d="M485 924 c-214 -124 -394 -230 -399 -234 -6 -6 -2 -41 9 -90 l18 -80
-45 -92 c-38 -76 -44 -97 -36 -113 17 -31 28 -35 116 -35 97 0 109 -5 178 -72
l52 -50 403 232 c222 129 407 238 411 244 16 24 2 206 -16 206 -2 0 -115 -64
-252 -143 -137 -79 -314 -181 -394 -227 -80 -46 -151 -89 -158 -95 -11 -10 -9
-21 12 -63 28 -55 20 -78 -16 -46 -30 28 -48 68 -48 109 0 37 -15 46 -38 23
-10 -10 -15 -10 -21 1 -7 11 -18 6 -54 -23 -52 -43 -70 -45 -86 -10 -14 32
-13 33 52 60 36 14 51 26 49 37 -1 8 7 18 18 22 29 9 25 22 -19 50 -42 28 -74
96 -54 116 8 8 21 -3 45 -39 l34 -51 184 106 c308 175 614 354 624 364 13 11
-15 41 -74 79 -87 56 -63 64 -495 -186z"/>
<path d="M1614 1129 c-59 -28 -122 -85 -109 -97 10 -11 299 -179 625 -365
l184 -106 34 51 c24 36 37 47 45 39 20 -20 -12 -88 -54 -116 -44 -28 -48 -41
-19 -50 11 -4 19 -14 18 -22 -2 -11 13 -23 49 -37 65 -27 66 -28 52 -60 -16
-35 -34 -33 -86 10 -36 29 -47 34 -54 23 -6 -11 -11 -11 -21 -1 -23 23 -38 14
-38 -23 0 -41 -18 -81 -48 -109 -36 -32 -44 -9 -16 46 21 42 23 53 12 63 -7 6
-78 49 -158 95 -80 46 -257 148 -394 227 -137 79 -250 143 -252 143 -18 0 -32
-182 -16 -206 4 -6 189 -115 411 -244 l403 -232 52 50 c69 67 81 72 178 72 88
0 99 4 116 35 8 16 2 37 -36 113 l-45 92 18 80 c11 49 15 84 9 90 -19 18 -792
460 -805 460 -8 0 -33 -9 -55 -21z"/>
<path d="M530 609 c-247 -143 -236 -136 -227 -145 6 -6 416 226 462 260 15 11
16 15 5 15 -8 0 -116 -58 -240 -130z"/>
<path d="M1795 724 c46 -34 456 -266 462 -260 4 3 4 8 2 10 -15 15 -459 266
-470 266 -9 -1 -7 -6 6 -16z"/>
<path d="M1205 551 c-54 -24 -726 -410 -745 -427 -12 -12 118 -14 813 -14 471
0 827 4 827 9 0 9 -695 412 -754 436 -47 20 -92 19 -141 -4z"/>
</g>
</svg>
