<?xml version="1.0" standalone="no"?>
<!DOCTYPE svg PUBLIC "-//W3C//DTD SVG 20010904//EN"
 "http://www.w3.org/TR/2001/REC-SVG-20010904/DTD/svg10.dtd">
<svg version="1.0" xmlns="http://www.w3.org/2000/svg"
 width="256.000000pt" height="256.000000pt" viewBox="0 0 256.000000 256.000000"
 preserveAspectRatio="xMidYMid meet">
<metadata>
Created by potrace 1.16, written by Peter Selinger 2001-2019
</metadata>
<g transform="translate(0.000000,256.000000) scale(0.100000,-0.100000)"
fill="#e5e5e5" stroke="none">
<path d="M1105 2470 c5 -8 38 -61 73 -118 35 -57 63 -104 61 -106 -20 -15 -99
-66 -103 -66 -3 0 3 14 14 32 17 28 17 34 4 60 -14 26 -18 28 -77 28 -38 0
-71 -6 -83 -14 -11 -8 -62 -78 -113 -155 l-94 -141 -48 0 c-57 0 -69 -13 -40
-44 12 -12 37 -69 56 -126 l35 -104 0 -387 0 -388 79 -55 c71 -50 84 -56 133
-57 29 -1 64 -4 78 -8 25 -6 93 -97 141 -187 l22 -40 -101 -159 c-55 -88 -99
-161 -97 -163 2 -2 28 13 58 33 44 29 67 55 113 131 32 52 61 94 64 94 3 0 32
-42 64 -94 46 -76 69 -102 113 -131 30 -20 56 -35 58 -33 2 2 -42 75 -97 163
l-101 159 22 40 c48 90 116 181 141 187 14 4 49 7 78 8 49 1 62 7 133 57 l79
55 0 388 0 387 35 104 c19 57 44 114 56 126 29 31 17 44 -40 44 l-48 0 -94
141 c-51 77 -102 147 -113 155 -12 8 -45 14 -83 14 -59 0 -63 -2 -77 -28 -13
-26 -13 -32 4 -60 11 -18 17 -32 14 -32 -4 0 -83 51 -103 66 -2 2 26 49 61
106 35 57 68 110 73 118 7 11 1 10 -20 -4 -17 -11 -44 -29 -62 -40 -17 -12
-44 -42 -60 -68 -15 -26 -30 -48 -33 -48 -3 0 -18 22 -33 48 -16 26 -43 56
-60 68 -18 11 -45 29 -62 40 -21 14 -27 15 -20 4z m199 -286 c9 -3 39 -43 67
-89 68 -111 84 -124 181 -150 l83 -22 3 -460 2 -461 -101 -71 c-55 -39 -107
-71 -115 -71 -12 0 -14 66 -12 478 l3 477 46 3 46 3 56 -88 57 -88 0 57 c0 49
-5 66 -35 112 -33 52 -36 54 -89 60 -39 5 -63 3 -83 -7 -15 -8 -38 -18 -50
-21 -20 -7 -23 -4 -23 23 0 22 -5 31 -16 31 -13 0 -15 7 -11 33 20 119 20 116
-7 128 -20 9 -32 9 -52 0 -22 -10 -25 -16 -21 -44 19 -112 19 -117 3 -117 -11
0 -16 -9 -16 -31 0 -27 -3 -30 -22 -23 -13 3 -36 13 -51 21 -20 10 -44 12 -83
7 -53 -6 -56 -8 -89 -60 -30 -46 -35 -63 -35 -112 l0 -57 57 88 56 88 46 -3
46 -3 3 -477 c2 -412 0 -478 -12 -478 -8 0 -60 32 -115 71 l-101 71 2 461 3
460 83 22 c97 26 113 39 182 150 57 94 72 105 114 89z m-288 -31 c-23 -44 -75
-113 -86 -113 -10 0 41 92 68 123 23 26 34 20 18 -10z m546 10 c27 -31 78
-123 68 -123 -11 0 -63 69 -86 113 -16 30 -5 36 18 10z m-272 -678 c0 -217 -4
-335 -10 -335 -6 0 -10 118 -10 335 0 217 4 335 10 335 6 0 10 -118 10 -335z"/>
<path d="M739 1435 c-15 -22 -100 -156 -189 -299 -89 -142 -169 -270 -178
-285 l-17 -26 30 19 c17 11 45 29 63 41 23 16 79 95 178 255 143 229 145 232
142 283 l-3 52 -26 -40z"/>
<path d="M1790 1422 c0 -50 7 -62 144 -283 99 -159 155 -238 178 -254 18 -12
47 -30 63 -41 l30 -19 -19 30 c-11 17 -98 156 -194 310 -96 154 -181 287 -188
295 -12 12 -14 7 -14 -38z"/>
<path d="M1248 383 c-17 -20 -98 -142 -98 -148 0 -3 23 -40 51 -85 44 -69 55
-80 79 -80 24 0 35 11 79 80 28 45 51 84 50 88 0 4 -24 41 -52 82 -55 79 -81
94 -109 63z"/>
</g>
</svg>
