<?xml version="1.0" standalone="no"?>
<!DOCTYPE svg PUBLIC "-//W3C//DTD SVG 20010904//EN"
 "http://www.w3.org/TR/2001/REC-SVG-20010904/DTD/svg10.dtd">
<svg version="1.0" xmlns="http://www.w3.org/2000/svg"
 width="256.000000pt" height="256.000000pt" viewBox="0 0 256.000000 256.000000"
 preserveAspectRatio="xMidYMid meet">
<metadata>
Created by potrace 1.16, written by Peter Selinger 2001-2019
</metadata>
<g transform="translate(0.000000,256.000000) scale(0.100000,-0.100000)"
fill="#e5e5e5" stroke="none">
<path d="M340 2510 c0 -17 7 -20 45 -20 32 0 47 -5 53 -17 6 -10 92 -245 192
-523 100 -278 235 -652 300 -831 l118 -325 4 -230 c3 -138 10 -239 16 -254 9
-19 11 45 9 270 l-3 295 -98 265 c-53 146 -183 504 -288 795 -105 292 -193
536 -195 543 -4 8 8 12 40 12 43 0 45 -1 60 -42 9 -24 143 -394 297 -823 l280
-780 0 -333 c0 -359 1 -365 56 -437 14 -19 30 -35 35 -35 5 0 9 485 9 1130 0
747 3 1130 10 1130 7 0 10 -383 10 -1130 0 -645 4 -1130 9 -1130 5 0 21 16 35
35 55 72 56 78 56 437 l0 333 280 780 c154 429 288 799 297 823 15 41 17 42
60 42 32 0 44 -4 40 -12 -2 -7 -90 -251 -195 -543 -105 -291 -235 -649 -288
-795 l-98 -265 -3 -295 c-2 -225 0 -289 9 -270 6 15 13 116 16 254 l4 230 118
325 c65 179 200 553 300 831 100 278 186 513 192 523 6 12 21 17 53 17 38 0
45 3 45 20 0 19 -7 20 -199 20 l-199 0 -20 -57 c-11 -32 -105 -308 -209 -613
-105 -305 -193 -562 -196 -570 -3 -8 -6 216 -6 498 l-1 512 24 0 c43 0 87 12
83 24 -7 22 -80 25 -124 6 -43 -19 -58 -15 -47 14 4 10 1 16 -10 16 -13 0 -14
10 -9 65 l6 65 -33 0 -33 0 6 -65 c5 -55 4 -65 -9 -65 -11 0 -14 -6 -10 -16
11 -29 -4 -33 -47 -14 -44 19 -117 16 -124 -6 -4 -12 40 -24 83 -24 l24 0 -1
-512 c0 -282 -3 -506 -6 -498 -3 8 -91 265 -196 570 -104 305 -198 581 -209
613 l-20 57 -199 0 c-192 0 -199 -1 -199 -20z"/>
</g>
</svg>
