<?xml version="1.0" standalone="no"?>
<!DOCTYPE svg PUBLIC "-//W3C//DTD SVG 20010904//EN"
 "http://www.w3.org/TR/2001/REC-SVG-20010904/DTD/svg10.dtd">
<svg version="1.0" xmlns="http://www.w3.org/2000/svg"
 width="256.000000pt" height="256.000000pt" viewBox="0 0 256.000000 256.000000"
 preserveAspectRatio="xMidYMid meet">
<metadata>
Created by potrace 1.16, written by Peter Selinger 2001-2019
</metadata>
<g transform="translate(0.000000,256.000000) scale(0.100000,-0.100000)"
fill="#e5e5e5" stroke="none">
<path d="M1218 2263 c-9 -10 -42 -61 -73 -113 -71 -116 -118 -176 -153 -194
-15 -7 -70 -25 -122 -40 -52 -15 -107 -32 -122 -38 l-28 -10 0 -534 0 -533
-220 -166 c-121 -92 -222 -170 -225 -175 -10 -16 90 -94 170 -131 75 -35 91
-39 164 -39 l82 0 194 148 195 147 0 59 c0 45 -3 56 -12 49 -7 -6 -90 -69
-185 -142 l-172 -132 -82 3 c-51 2 -84 7 -86 15 -2 6 94 86 214 179 120 92
242 187 271 211 l52 45 0 418 c0 372 -2 419 -16 424 -9 3 -55 6 -102 6 -98 0
-115 7 -110 41 3 22 11 25 85 38 l82 14 71 -32 c97 -43 104 -42 96 14 l-7 45
31 0 c25 0 30 3 26 18 -3 9 -10 61 -17 115 -14 107 -13 110 39 123 23 7 58 0
81 -15 13 -8 13 -24 2 -108 -7 -54 -14 -106 -17 -115 -4 -15 1 -18 26 -18 l31
0 -7 -45 c-8 -56 -1 -57 96 -14 l71 32 82 -14 c74 -13 82 -16 85 -38 5 -34
-12 -41 -110 -41 -47 0 -93 -3 -102 -6 -14 -5 -16 -52 -16 -424 l0 -418 53
-45 c28 -24 150 -119 270 -211 120 -93 216 -173 214 -179 -2 -8 -35 -13 -86
-15 l-82 -3 -172 132 c-95 73 -178 136 -184 142 -10 7 -13 -4 -13 -49 l0 -59
195 -147 194 -148 82 0 c73 0 89 4 164 39 80 37 180 115 170 131 -3 5 -104 83
-225 175 l-220 166 0 533 0 534 -27 10 c-16 6 -71 23 -123 38 -52 15 -107 33
-122 40 -35 18 -82 78 -153 194 -78 129 -79 130 -135 130 -32 0 -52 -5 -62
-17z m-300 -965 c-3 -367 -12 -482 -29 -403 -4 17 -7 202 -8 413 -1 380 -1
382 20 382 20 0 20 -1 17 -392z m761 10 c-1 -211 -4 -396 -8 -413 -17 -79 -26
36 -29 403 -3 391 -3 392 17 392 21 0 21 -2 20 -382z"/>
<path d="M496 1996 c-99 -32 -163 -59 -172 -71 -12 -15 -14 -105 -14 -504 l-1
-486 -130 -99 c-138 -106 -156 -122 -145 -134 4 -3 40 -8 81 -10 l73 -4 141
106 141 107 0 502 c0 418 2 506 14 523 9 11 62 35 132 59 65 22 120 46 122 53
8 25 -85 9 -242 -42z"/>
<path d="M747 1985 c-108 -34 -204 -68 -212 -75 -13 -11 -15 -82 -15 -521 0
-408 -3 -510 -13 -521 -8 -7 -118 -94 -245 -192 -128 -99 -231 -184 -229 -190
2 -6 38 -12 83 -14 l79 -3 238 178 237 178 0 525 c0 458 2 528 15 548 12 16
59 35 174 72 175 56 217 81 135 79 -30 -1 -125 -25 -247 -64z"/>
<path d="M1530 2035 c6 -8 83 -37 171 -65 115 -37 162 -56 174 -72 13 -20 15
-90 15 -548 l0 -525 237 -178 238 -178 79 3 c45 2 81 8 83 14 2 6 -101 91
-229 190 -127 98 -237 185 -245 192 -10 11 -13 113 -13 522 l0 510 -22 14
c-40 25 -414 136 -458 136 -36 0 -41 -2 -30 -15z"/>
<path d="M1822 2038 c2 -7 57 -31 122 -53 70 -24 123 -48 132 -59 12 -17 14
-105 14 -523 l0 -502 141 -107 141 -106 73 4 c41 2 77 7 81 10 11 12 -7 28
-145 134 l-130 99 -1 486 c0 449 -1 488 -17 507 -11 12 -79 39 -180 71 -160
51 -239 64 -231 39z"/>
<path d="M1265 1678 c-9 -72 -2 -1074 8 -1084 4 -4 10 -4 15 0 9 10 16 1012 7
1084 -3 28 -10 52 -15 52 -5 0 -12 -24 -15 -52z"/>
</g>
</svg>
