<?xml version="1.0" standalone="no"?>
<!DOCTYPE svg PUBLIC "-//W3C//DTD SVG 20010904//EN"
 "http://www.w3.org/TR/2001/REC-SVG-20010904/DTD/svg10.dtd">
<svg version="1.0" xmlns="http://www.w3.org/2000/svg"
 width="256.000000pt" height="256.000000pt" viewBox="0 0 256.000000 256.000000"
 preserveAspectRatio="xMidYMid meet">
<metadata>
Created by potrace 1.16, written by Peter Selinger 2001-2019
</metadata>
<g transform="translate(0.000000,256.000000) scale(0.100000,-0.100000)"
fill="#e5e5e5" stroke="none">
<path d="M399 2495 c-36 -27 -48 -45 -63 -89 -18 -60 -35 -70 -59 -35 -9 13
-17 16 -22 10 -13 -21 -31 -10 -70 45 -53 74 -68 82 -100 50 -14 -14 -25 -31
-25 -39 0 -7 29 -35 65 -61 68 -50 72 -55 54 -73 -8 -8 -6 -15 10 -25 34 -21
25 -34 -39 -57 -48 -18 -66 -31 -90 -66 -16 -24 -30 -48 -30 -54 0 -27 26 -18
78 28 l57 51 1060 -1059 c1034 -1034 1061 -1060 1114 -1075 30 -9 80 -16 110
-16 l56 0 -1125 1126 c-707 708 -1120 1128 -1111 1131 8 4 434 -415 1130
-1111 614 -614 1120 -1116 1125 -1116 14 0 0 132 -19 176 -11 29 -298 321
-1072 1096 l-1057 1057 51 59 c39 44 49 62 40 71 -15 15 -16 15 -68 -24z"/>
<path d="M550 2475 l-55 -55 345 -346 c191 -192 359 -352 377 -360 43 -19 91
-17 130 4 33 18 703 693 703 709 0 5 -22 30 -48 56 -42 42 -53 47 -92 47 l-45
0 -235 -236 c-129 -129 -247 -242 -262 -250 -39 -21 -156 -19 -188 4 -15 9
-129 122 -254 250 l-229 232 -46 0 c-43 0 -51 -4 -101 -55z"/>
<path d="M955 2309 c121 -121 232 -227 247 -235 32 -17 120 -19 151 -3 25 12
457 440 457 451 0 5 -10 8 -22 8 -15 0 -88 -65 -238 -214 -241 -240 -255 -249
-327 -206 -21 12 -125 111 -231 221 -171 176 -197 199 -225 199 -30 0 -19 -13
188 -221z"/>
<path d="M2093 2519 c-9 -9 1 -27 40 -71 l51 -59 -442 -442 -442 -442 47 -48
48 -47 441 441 c271 271 447 440 455 436 9 -3 -151 -170 -431 -451 l-445 -446
48 -47 47 -48 443 442 442 443 57 -51 c52 -46 78 -55 78 -28 0 6 -14 30 -30
54 -24 35 -42 48 -90 66 -64 23 -73 36 -39 57 16 10 18 17 10 25 -18 18 -14
23 54 73 36 26 65 54 65 61 0 16 -44 63 -59 63 -5 0 -31 -28 -57 -62 -26 -35
-49 -65 -51 -68 -2 -2 -12 1 -22 7 -14 9 -20 7 -29 -8 -21 -34 -40 -22 -59 37
-14 45 -26 61 -64 90 -53 39 -51 38 -66 23z"/>
<path d="M78 2003 c-41 -42 -47 -54 -49 -96 l-3 -48 242 -242 c132 -133 246
-255 252 -270 15 -41 12 -102 -5 -145 -11 -25 -94 -113 -251 -267 l-235 -230
-2 -153 c-1 -83 0 -152 3 -152 10 0 798 796 809 817 14 28 14 98 0 126 -14 28
-691 707 -704 707 -6 0 -32 -21 -57 -47z"/>
<path d="M2073 1708 c-187 -189 -346 -353 -352 -365 -14 -28 -14 -98 0 -126
11 -21 799 -817 809 -817 3 0 4 69 3 152 l-2 153 -235 230 c-157 154 -240 242
-251 267 -17 43 -20 104 -5 145 6 15 120 137 252 270 l242 242 -3 48 c-2 42
-8 54 -49 96 -25 26 -51 47 -57 47 -5 0 -164 -154 -352 -342z"/>
<path d="M26 1783 c2 -21 49 -74 197 -218 198 -193 237 -240 237 -285 0 -46
-40 -94 -236 -285 -149 -145 -196 -197 -198 -217 -2 -16 0 -28 3 -28 4 0 108
102 233 228 317 319 317 285 0 605 -125 125 -229 227 -233 227 -3 0 -5 -12 -3
-27z"/>
<path d="M2298 1583 c-317 -320 -317 -286 0 -605 125 -126 229 -228 233 -228
3 0 5 12 3 28 -2 20 -49 72 -198 217 -196 191 -236 239 -236 285 0 45 39 92
237 285 148 144 195 197 197 218 2 15 0 27 -3 27 -4 0 -108 -102 -233 -227z"/>
<path d="M553 758 l-492 -493 -15 -61 c-17 -65 -21 -144 -8 -144 4 0 254 247
557 550 l550 550 -45 45 c-24 25 -47 45 -50 45 -3 0 -226 -222 -497 -492z"/>
<path d="M610 584 l-555 -556 75 4 c46 3 92 13 120 25 34 16 164 141 528 505
l482 483 -48 48 -47 47 -555 -556z"/>
<path d="M1236 845 c-31 -11 -132 -106 -440 -415 l-401 -400 155 0 155 0 235
236 c129 129 247 242 262 250 32 16 115 19 155 4 15 -6 136 -119 268 -251
l241 -240 147 3 147 3 -399 399 c-219 219 -405 402 -412 406 -31 17 -76 19
-113 5z"/>
<path d="M1215 486 c-16 -8 -129 -113 -250 -235 -206 -207 -218 -221 -189
-221 28 0 55 23 219 193 103 105 204 202 224 214 39 25 80 29 114 12 12 -6
115 -103 228 -216 169 -168 210 -204 230 -201 21 3 -2 30 -186 217 -136 138
-224 220 -250 232 -47 22 -98 24 -140 5z"/>
</g>
</svg>
