<?xml version="1.0" standalone="no"?>
<!DOCTYPE svg PUBLIC "-//W3C//DTD SVG 20010904//EN"
 "http://www.w3.org/TR/2001/REC-SVG-20010904/DTD/svg10.dtd">
<svg version="1.0" xmlns="http://www.w3.org/2000/svg"
 width="256.000000pt" height="256.000000pt" viewBox="0 0 256.000000 256.000000"
 preserveAspectRatio="xMidYMid meet">
<metadata>
Created by potrace 1.16, written by Peter Selinger 2001-2019
</metadata>
<g transform="translate(0.000000,256.000000) scale(0.100000,-0.100000)"
fill="#e5e5e5" stroke="none">
<path d="M1600 2506 c0 -32 5 -37 78 -80 43 -25 82 -46 86 -46 4 0 6 17 4 37
-3 34 -8 41 -73 79 -38 24 -76 43 -82 43 -8 1 -13 -12 -13 -33z"/>
<path d="M1130 2497 c0 -31 6 -37 79 -80 43 -26 81 -47 85 -47 3 0 6 17 6 38
0 36 -3 39 -74 80 -40 23 -78 42 -84 42 -7 0 -12 -15 -12 -33z"/>
<path d="M897 2414 l-78 -47 3 -79 3 -80 83 -50 82 -50 0 -78 0 -78 70 -41 70
-40 0 39 c0 38 -2 41 -65 77 -36 20 -65 40 -65 43 1 3 67 44 148 91 144 84
147 86 150 122 2 20 6 37 9 37 4 0 57 -30 120 -66 l113 -66 0 -186 c0 -103 -4
-192 -8 -197 -4 -6 -28 -23 -54 -38 l-48 -28 0 -78 0 -79 68 -40 67 -40 67 36
68 37 0 85 0 85 -50 27 -50 28 -2 217 -3 217 -78 47 -78 47 80 48 c79 47 81
49 81 86 l0 39 -32 -17 c-18 -9 -57 -32 -85 -50 -47 -30 -53 -37 -53 -69 l0
-34 -59 34 c-33 19 -62 35 -65 35 -3 0 -6 -17 -6 -37 0 -36 -3 -40 -63 -73
-34 -19 -65 -36 -69 -38 -5 -2 -8 14 -8 35 0 37 -2 39 -76 83 -43 25 -81 47
-85 48 -5 2 -9 -14 -9 -35 0 -37 2 -39 75 -82 42 -24 78 -47 80 -52 4 -6 -138
-99 -151 -99 -2 0 -4 18 -4 39 0 39 -2 40 -80 87 -44 26 -80 50 -80 53 0 3 35
26 78 51 72 42 77 47 80 83 2 20 0 37 -5 37 -4 0 -43 -21 -86 -46z m713 -724
c38 -19 40 -23 40 -68 0 -44 -2 -48 -40 -70 l-41 -23 -39 22 c-38 21 -40 25
-40 70 0 42 3 49 33 68 40 26 39 26 87 1z"/>
<path d="M1678 2314 c-73 -43 -78 -48 -78 -80 0 -21 5 -34 13 -33 6 0 44 19
82 43 65 38 70 45 73 79 2 20 0 37 -5 37 -4 0 -43 -21 -85 -46z"/>
<path d="M433 2247 c-40 -23 -73 -45 -73 -49 0 -4 13 -14 30 -23 29 -15 32
-14 110 30 43 25 82 45 85 45 3 0 5 -44 5 -98 l0 -98 35 -17 35 -17 0 95 0 95
-62 40 c-33 22 -68 40 -77 39 -9 -1 -49 -20 -88 -42z"/>
<path d="M1919 2187 c-55 -31 -57 -33 -63 -82 -3 -27 -6 -73 -6 -100 l0 -51
-65 -39 -65 -40 0 -83 0 -84 33 21 34 21 79 -45 c43 -25 82 -45 87 -45 4 0 22
7 39 16 l32 16 -40 25 c-21 13 -61 35 -87 49 -46 24 -50 24 -74 9 -13 -9 -27
-15 -29 -12 -3 3 -4 37 -2 76 l3 71 150 -86 150 -85 32 15 33 16 0 -133 0
-134 -168 -96 c-93 -53 -174 -97 -181 -97 -7 0 -32 11 -55 25 l-43 25 -67 -37
-66 -38 0 -82 0 -82 66 -39 66 -40 69 40 69 40 0 62 0 63 172 99 c94 54 179
103 188 107 13 6 40 -4 99 -38 76 -45 83 -47 111 -35 17 7 33 16 35 21 3 4
-33 29 -80 54 -83 46 -86 47 -111 30 -14 -9 -28 -15 -30 -12 -3 2 -4 43 -2 90
l3 86 80 -45 80 -45 35 16 c33 16 34 17 15 32 -11 8 -49 30 -83 50 -63 35 -64
36 -98 20 l-34 -17 0 74 c0 74 0 74 35 95 l35 20 0 96 c0 53 -3 95 -7 93 -68
-33 -63 -22 -63 -130 l0 -98 -33 -16 c-33 -16 -35 -16 -100 22 l-67 38 30 19
c30 19 30 19 30 113 0 52 -2 94 -5 94 -4 0 -19 -7 -35 -15 -29 -15 -29 -17
-32 -109 l-3 -93 -78 45 -78 45 30 20 c31 19 31 19 31 113 0 52 2 94 5 94 3 0
42 -20 85 -45 78 -44 81 -45 110 -30 17 9 30 19 30 23 0 9 -149 92 -164 91 -6
0 -36 -15 -67 -32z m-165 -918 c33 -19 36 -25 36 -69 0 -45 -2 -49 -37 -70
l-38 -22 -42 22 c-41 22 -43 25 -43 69 0 44 3 49 38 69 46 27 43 27 86 1z"/>
<path d="M420 2055 l0 -94 30 -16 c17 -9 30 -19 30 -23 0 -4 -28 -23 -61 -41
-62 -34 -62 -34 -95 -16 l-33 17 -63 -35 c-35 -20 -71 -42 -82 -49 -17 -14
-17 -15 10 -33 l29 -19 88 48 87 47 30 -18 c29 -17 30 -19 30 -95 l0 -79 -31
16 c-29 16 -32 15 -107 -25 -42 -23 -81 -45 -86 -50 -5 -5 6 -16 26 -26 l36
-17 75 42 c41 22 77 41 81 41 3 0 6 -40 6 -90 l0 -90 -34 17 c-34 16 -35 16
-110 -26 -41 -22 -79 -41 -83 -41 -5 0 -9 41 -9 91 0 85 -2 92 -25 110 -50 38
-57 19 -43 -118 6 -55 10 -62 38 -77 17 -9 46 -26 64 -37 l32 -21 83 47 c81
46 82 46 115 31 18 -9 35 -16 37 -16 3 0 5 78 5 173 l0 172 -31 26 -32 26 105
61 c57 33 109 62 115 64 5 2 87 -41 181 -95 l171 -98 3 -61 3 -60 65 -36 65
-36 68 38 67 38 0 82 0 81 -62 35 c-35 19 -66 37 -70 38 -5 2 -31 -10 -59 -27
l-50 -31 -183 105 c-100 58 -188 105 -193 105 -6 0 -42 -18 -81 -40 -38 -22
-72 -40 -76 -40 -3 0 -6 43 -6 95 l0 94 -30 16 c-16 8 -31 15 -35 15 -3 0 -5
-43 -5 -95z m788 -351 c2 -48 2 -50 -38 -72 l-40 -22 -40 25 c-37 23 -40 29
-40 70 0 41 3 46 42 69 l41 24 36 -22 c32 -21 36 -28 39 -72z"/>
<path d="M1215 2082 c-76 -45 -80 -50 -83 -86 -4 -46 -4 -46 99 14 67 40 69
42 69 80 0 22 -1 40 -2 40 -2 0 -39 -22 -83 -48z"/>
<path d="M1300 2006 c0 -32 5 -37 78 -80 43 -25 82 -46 86 -46 4 0 6 17 4 37
-3 35 -9 41 -73 80 -38 24 -75 43 -82 43 -8 0 -13 -13 -13 -34z"/>
<path d="M760 1753 c-25 -14 -63 -36 -84 -48 l-39 -23 32 -20 32 -20 84 46
c46 25 82 50 79 54 -3 4 -17 14 -32 22 -25 13 -31 12 -72 -11z"/>
<path d="M560 1625 l0 -96 30 -17 c16 -9 30 -20 30 -24 0 -3 -25 -21 -55 -38
-30 -17 -57 -35 -60 -40 -3 -5 8 -16 25 -25 30 -15 32 -15 95 20 36 20 65 41
65 46 0 4 -13 15 -30 24 l-30 16 0 98 c0 107 5 96 -62 129 -5 2 -8 -40 -8 -93z"/>
<path d="M1913 1630 l-33 -20 0 -95 c0 -52 3 -95 6 -95 3 0 19 8 35 17 29 17
29 18 29 115 0 54 -1 98 -2 98 -2 0 -18 -9 -35 -20z"/>
<path d="M2493 1613 c-21 -14 -23 -23 -23 -109 0 -52 2 -94 5 -94 4 0 19 7 35
15 l30 16 0 94 c0 101 -4 108 -47 78z"/>
<path d="M1133 1522 l-133 -77 0 -160 0 -160 135 -77 c74 -43 141 -78 148 -77
6 0 71 35 142 77 l130 77 2 160 3 160 -135 78 c-74 42 -140 77 -147 77 -7 -1
-73 -36 -145 -78z m262 -53 l105 -61 0 -124 0 -123 -102 -60 c-57 -33 -110
-61 -118 -61 -8 0 -61 28 -117 61 l-103 60 0 123 0 124 103 60 c56 34 108 61
115 61 7 1 60 -26 117 -60z"/>
<path d="M1203 1417 l-73 -42 0 -92 0 -91 71 -41 c39 -23 76 -41 82 -41 7 0
44 20 82 44 l70 43 3 85 3 86 -79 46 c-43 25 -81 46 -83 45 -2 0 -37 -19 -76
-42z m133 -53 c44 -26 44 -26 44 -82 l0 -57 -50 -28 -50 -28 -48 29 c-46 28
-47 30 -50 83 l-3 55 48 27 c26 15 52 27 56 27 5 0 28 -12 53 -26z"/>
<path d="M780 1489 l-65 -39 -5 -61 -5 -61 -189 -109 -188 -109 -82 46 -81 46
-50 -27 c-91 -48 -88 -43 -86 -188 l1 -58 29 16 c31 15 34 28 44 176 l2 37 78
-45 c73 -42 80 -45 105 -32 15 7 30 15 35 17 4 2 7 -37 7 -87 0 -50 -2 -91 -4
-91 -2 0 -38 20 -81 44 -76 43 -77 44 -106 27 -16 -9 -27 -20 -26 -25 2 -5 38
-29 82 -53 73 -41 79 -42 101 -28 13 8 26 15 29 15 3 0 5 -27 5 -60 0 -57 -1
-61 -35 -82 l-35 -23 0 -98 0 -99 32 19 33 19 3 95 c3 94 3 95 32 113 30 17
30 17 95 -19 36 -20 65 -40 65 -44 0 -4 -11 -13 -25 -19 -24 -11 -25 -15 -25
-107 0 -52 2 -95 5 -95 4 0 19 7 35 15 30 15 30 16 30 106 0 50 3 89 8 87 4
-2 38 -21 76 -42 62 -35 67 -41 51 -52 -10 -7 -22 -15 -27 -16 -5 -2 -12 -47
-15 -101 -3 -53 -7 -97 -8 -97 -1 0 -37 20 -80 45 -74 42 -79 43 -106 30 -15
-8 -30 -19 -33 -23 -3 -5 31 -28 75 -51 82 -44 111 -47 141 -17 8 7 28 21 46
30 l32 17 0 94 0 95 35 17 c19 9 35 20 35 24 0 4 16 16 35 28 l35 20 0 81 c0
45 -3 80 -7 78 -5 -2 -20 -10 -35 -17 -31 -16 -32 -15 -134 42 l-61 35 -32
-20 c-17 -11 -31 -22 -29 -23 2 -1 40 -23 86 -49 77 -44 84 -46 105 -31 12 8
25 15 29 15 5 0 8 -34 8 -75 0 -41 -2 -75 -5 -75 -7 0 -174 93 -248 137 -55
33 -59 34 -82 19 -13 -9 -29 -16 -35 -16 -6 0 -10 47 -10 129 l0 129 175 101
176 101 51 -29 52 -30 68 37 68 37 0 82 0 81 -35 21 c-19 12 -50 30 -67 40
l-33 19 -65 -39z m111 -51 c37 -20 39 -25 39 -68 0 -45 -2 -48 -44 -70 l-43
-23 -37 22 c-33 21 -36 26 -36 71 0 43 3 50 33 69 40 26 41 26 88 -1z"/>
<path d="M2217 1173 c-79 -46 -79 -46 -113 -30 l-34 17 0 -180 0 -180 31 -19
30 -19 -115 -66 -116 -66 -169 97 -170 98 -3 63 -3 63 -66 37 -66 36 -66 -38
-67 -37 0 -82 0 -82 62 -35 c35 -19 66 -36 69 -38 4 -2 29 10 56 26 l49 29
185 -106 184 -107 0 -59 c1 -134 2 -140 38 -158 17 -10 46 -27 64 -38 l32 -20
73 41 c90 51 97 58 78 71 -36 23 -57 19 -128 -20 -39 -23 -76 -41 -82 -41 -6
0 -10 37 -10 95 0 92 -1 96 -25 107 -14 6 -25 14 -25 18 0 3 33 25 73 48 l72
42 3 -94 c3 -100 -2 -92 65 -124 4 -2 7 39 7 92 0 91 -1 96 -25 112 -14 9 -25
19 -25 23 0 3 27 21 60 40 58 31 62 32 85 17 13 -9 30 -16 36 -16 7 0 48 21
91 46 l79 47 -33 19 -32 20 -61 -33 c-33 -18 -72 -40 -86 -48 -24 -13 -29 -13
-53 2 -24 16 -26 22 -26 97 l0 81 28 -14 c25 -13 32 -11 111 34 l84 47 -33 21
-34 20 -56 -31 c-30 -17 -65 -37 -76 -45 -21 -13 -21 -12 -26 69 -3 46 -3 85
-1 88 2 2 17 -3 33 -12 28 -16 30 -15 106 28 43 24 81 44 86 44 4 0 8 -42 8
-93 0 -102 -5 -92 63 -125 9 -4 9 74 1 145 -7 53 -7 53 -71 88 -35 19 -65 35
-66 34 -1 -1 -37 -21 -80 -46z m-756 -238 c38 -25 40 -28 37 -71 -3 -42 -7
-48 -43 -69 l-40 -23 -37 24 c-35 22 -38 28 -38 72 0 44 3 49 38 69 20 12 38
22 40 23 1 0 21 -11 43 -25z"/>
<path d="M1923 1162 c-35 -21 -63 -40 -63 -44 0 -4 13 -14 30 -23 29 -15 32
-14 95 22 36 20 65 41 65 45 0 7 -55 39 -62 37 -2 0 -31 -17 -65 -37z"/>
<path d="M638 1144 c-28 -14 -28 -16 -28 -115 l0 -101 33 21 32 20 3 96 c1 52
-1 95 -5 95 -4 -1 -20 -8 -35 -16z"/>
<path d="M918 1068 l-68 -40 0 -78 0 -79 55 -31 55 -31 0 -218 0 -218 -82 -49
c-78 -47 -83 -52 -86 -87 -2 -20 0 -37 3 -37 3 0 42 21 85 46 75 43 80 48 80
80 0 19 3 34 8 34 4 0 40 -20 80 -44 l73 -43 -80 -48 c-76 -44 -81 -49 -81
-81 0 -21 5 -34 13 -34 7 0 44 19 82 43 61 37 70 47 73 75 2 17 6 32 10 32 4
0 31 -14 60 -30 48 -28 52 -33 52 -68 0 -37 3 -40 79 -85 43 -26 81 -47 85
-47 3 0 6 17 6 38 0 36 -2 38 -80 82 -79 44 -80 45 -80 85 0 39 2 41 63 75 84
47 85 47 89 3 3 -35 8 -41 73 -80 39 -23 76 -43 83 -43 7 0 12 13 12 34 0 32
-5 37 -80 81 -44 26 -80 50 -80 54 0 6 123 81 135 81 3 0 5 -15 5 -34 0 -31 5
-37 86 -85 l85 -51 -3 41 c-3 40 -6 43 -80 88 l-78 46 0 80 0 81 -63 37 c-35
20 -67 37 -71 37 -4 0 -6 -17 -4 -37 3 -35 8 -41 65 -73 34 -19 62 -37 62 -40
0 -3 -66 -44 -147 -91 -144 -84 -147 -86 -150 -122 -2 -20 -6 -37 -9 -37 -4 0
-57 30 -120 66 l-113 66 0 191 c0 106 4 197 8 203 4 6 28 23 55 38 l47 28 0
78 0 78 -71 41 c-39 23 -71 41 -72 40 -1 0 -32 -19 -69 -41z m112 -43 c37 -23
40 -29 40 -70 0 -41 -3 -47 -39 -69 l-39 -25 -41 22 c-39 21 -41 24 -41 69 0
44 3 50 38 72 20 14 38 25 40 25 1 1 20 -10 42 -24z"/>
<path d="M1922 975 l3 -96 33 -20 32 -21 0 101 0 100 -30 16 c-16 8 -32 15
-35 15 -3 0 -4 -43 -3 -95z"/>
<path d="M1765 874 c-44 -25 -81 -47 -84 -49 -2 -2 12 -12 32 -21 l35 -17 81
44 c44 23 81 46 81 49 0 5 -54 40 -62 40 -1 0 -39 -21 -83 -46z"/>
<path d="M1090 652 c0 -40 1 -41 138 -118 27 -16 32 -24 32 -56 0 -21 2 -38 5
-38 6 0 105 59 138 82 20 15 27 28 27 54 0 19 -2 34 -5 34 -3 0 -39 -20 -79
-45 -41 -25 -77 -45 -80 -45 -3 0 -6 16 -6 35 0 29 -6 38 -42 63 -24 16 -62
39 -85 51 l-43 21 0 -38z"/>
<path d="M1680 239 c-92 -50 -102 -60 -98 -102 l3 -36 80 48 c74 45 80 51 83
85 2 20 0 36 -5 36 -4 0 -33 -14 -63 -31z"/>
<path d="M790 155 c0 -31 6 -38 54 -69 30 -19 68 -42 85 -50 l31 -17 0 39 c0
37 -2 40 -79 85 -43 26 -81 47 -85 47 -3 0 -6 -16 -6 -35z"/>
</g>
</svg>
