<?xml version="1.0" standalone="no"?>
<!DOCTYPE svg PUBLIC "-//W3C//DTD SVG 20010904//EN"
 "http://www.w3.org/TR/2001/REC-SVG-20010904/DTD/svg10.dtd">
<svg version="1.0" xmlns="http://www.w3.org/2000/svg"
 width="256.000000pt" height="256.000000pt" viewBox="0 0 256.000000 256.000000"
 preserveAspectRatio="xMidYMid meet">
<metadata>
Created by potrace 1.16, written by Peter Selinger 2001-2019
</metadata>
<g transform="translate(0.000000,256.000000) scale(0.100000,-0.100000)"
fill="#e5e5e5" stroke="none">
<path d="M1280 2501 l0 -39 -377 -218 c-208 -120 -390 -226 -406 -236 l-27
-19 2 -755 3 -755 60 -34 c33 -18 213 -121 400 -229 l340 -197 3 40 3 40 377
217 c207 120 389 226 405 236 l27 19 -2 755 -3 755 -53 30 c-29 16 -200 114
-380 218 -180 103 -337 193 -349 200 -22 11 -23 10 -23 -28z m420 -282 l305
-176 3 -721 2 -720 -362 -209 -363 -210 -5 -41 -5 -41 -360 208 -360 208 -3
720 -2 721 362 209 363 210 3 42 3 42 57 -33 c31 -18 194 -112 362 -209z"/>
<path d="M1150 2166 c-69 -41 -210 -123 -315 -183 l-190 -110 -3 -494 -2 -494
32 -19 c18 -10 143 -81 278 -158 135 -77 263 -151 286 -163 l40 -24 140 83
c76 46 189 112 249 147 l110 65 0 384 0 385 -185 107 c-102 59 -205 119 -229
133 l-44 26 31 20 c25 14 32 26 32 49 0 16 3 30 8 30 4 0 115 -63 247 -139
l240 -138 3 -474 2 -475 -57 -33 c-32 -19 -152 -87 -266 -153 l-208 -119 -34
26 c-31 25 -35 25 -57 11 -23 -15 -33 -10 -304 146 -153 88 -287 163 -297 166
-16 4 -18 -1 -15 -33 l3 -37 310 -179 c171 -98 317 -179 325 -179 9 0 25 7 37
15 12 8 65 40 120 71 348 199 450 259 466 272 16 14 17 51 17 503 l0 487 -177
103 c-98 56 -242 140 -320 185 l-142 82 -78 -47 c-43 -26 -156 -91 -250 -146
l-173 -99 0 -386 0 -386 225 -130 c124 -71 225 -132 225 -135 0 -3 -11 -12
-24 -19 -19 -10 -26 -22 -28 -51 l-3 -39 -215 124 c-118 68 -230 132 -247 142
l-33 19 0 472 0 472 93 55 c322 189 442 254 449 242 13 -22 67 -41 81 -27 6 6
16 11 23 11 6 0 139 -74 295 -164 l284 -164 3 35 c2 21 -2 41 -10 48 -17 15
-608 355 -616 354 -4 0 -63 -33 -132 -73z m30 -248 c0 -33 4 -35 280 -193
l279 -160 1 -365 0 -365 -175 -100 c-95 -55 -177 -99 -182 -97 -4 1 -8 14 -8
29 0 24 -24 40 -274 184 -151 87 -278 162 -283 167 -5 5 -5 171 -2 370 l7 361
171 99 c94 55 174 101 179 101 4 1 7 -14 7 -31z"/>
<path d="M1123 1674 c-43 -25 -43 -26 -43 -83 l0 -58 50 -27 50 -27 48 29 c46
28 47 30 50 84 l3 56 -47 26 c-57 32 -59 32 -111 0z"/>
<path d="M1433 1614 c-42 -26 -43 -27 -43 -83 l0 -56 50 -28 50 -28 50 28 50
28 0 57 c0 56 0 56 -44 82 -54 32 -60 32 -113 0z"/>
<path d="M1177 1462 l-98 -57 3 -114 3 -115 98 -58 98 -58 100 57 99 57 0 117
0 117 -98 56 c-54 31 -100 56 -103 55 -2 0 -48 -26 -102 -57z m172 -57 l61
-36 0 -79 0 -78 -65 -37 -65 -36 -65 38 -65 37 0 78 0 77 63 35 c34 20 65 36
69 36 4 0 34 -16 67 -35z"/>
<path d="M1233 1374 c-42 -26 -43 -27 -43 -83 l0 -56 45 -25 45 -25 45 24 45
24 0 58 c0 58 0 58 -43 84 -24 14 -46 25 -48 25 -2 -1 -23 -12 -46 -26z"/>
<path d="M913 1433 c-43 -24 -43 -25 -43 -82 l0 -58 50 -27 50 -27 50 27 50
27 0 58 c0 57 0 57 -44 83 -53 31 -59 31 -113 -1z"/>
<path d="M1545 1317 l-40 -23 0 -62 0 -63 45 -26 45 -25 48 27 47 27 0 58 c0
59 0 59 -43 85 -53 30 -52 30 -102 2z"/>
<path d="M1023 1134 c-43 -25 -43 -25 -43 -84 l0 -59 46 -27 47 -28 46 26 c46
26 46 27 49 86 l3 60 -45 26 c-24 14 -48 26 -53 26 -4 0 -27 -12 -50 -26z"/>
<path d="M1332 1073 l-43 -26 3 -59 c3 -59 3 -60 49 -86 l46 -26 47 28 46 27
0 59 0 59 -43 26 c-24 14 -48 25 -53 25 -5 -1 -28 -12 -52 -27z"/>
</g>
</svg>
