<?xml version="1.0" standalone="no"?>
<!DOCTYPE svg PUBLIC "-//W3C//DTD SVG 20010904//EN"
 "http://www.w3.org/TR/2001/REC-SVG-20010904/DTD/svg10.dtd">
<svg version="1.0" xmlns="http://www.w3.org/2000/svg"
 width="256.000000pt" height="256.000000pt" viewBox="0 0 256.000000 256.000000"
 preserveAspectRatio="xMidYMid meet">
<metadata>
Created by potrace 1.16, written by Peter Selinger 2001-2019
</metadata>
<g transform="translate(0.000000,256.000000) scale(0.100000,-0.100000)"
fill="#e5e5e5" stroke="none">
<path d="M1027 2502 c-38 -23 -35 -76 6 -100 25 -16 29 -16 55 0 19 12 28 26
30 50 2 28 -2 36 -27 51 -34 20 -28 20 -64 -1z"/>
<path d="M1168 2412 l-98 -56 0 -118 0 -118 40 -20 c49 -25 51 -25 96 2 l36
21 -51 31 -51 31 0 55 0 55 66 37 66 38 64 -36 64 -36 0 -58 0 -59 -67 -39
c-38 -21 -112 -63 -165 -93 l-98 -54 0 -115 0 -115 102 -58 101 -57 98 56 99
56 0 118 0 118 -37 22 -37 22 -44 -21 c-24 -12 -41 -25 -38 -30 4 -5 31 -23
61 -40 l56 -32 -3 -70 -3 -71 -76 -44 -76 -44 -82 46 -81 46 0 67 0 67 180
103 180 103 0 118 0 118 -96 56 c-53 31 -99 56 -103 55 -3 0 -50 -26 -103 -57z"/>
<path d="M2071 2279 c-24 -14 -31 -26 -31 -49 0 -23 7 -35 31 -49 29 -18 33
-18 60 -2 23 13 29 23 29 51 0 28 -6 38 -29 51 -27 16 -31 16 -60 -2z"/>
<path d="M445 2133 c-33 -19 -77 -46 -97 -59 l-38 -24 0 -113 0 -113 98 -57
c55 -31 102 -57 105 -57 3 0 83 45 178 100 94 55 177 100 183 100 6 0 35 -14
64 -30 l52 -30 0 -93 0 -93 -81 -47 -80 -47 -57 33 -57 33 -3 77 -3 76 -44
-27 c-43 -25 -45 -29 -45 -72 l0 -45 99 -57 c55 -32 102 -58 106 -58 3 0 49
25 101 56 l94 55 0 118 0 119 -97 55 -97 56 -53 -30 -52 -30 -3 63 -3 62 -100
58 c-55 32 -102 57 -105 57 -3 0 -32 -16 -65 -36z"/>
<path d="M1928 2112 l-98 -56 0 -63 c0 -35 -2 -63 -5 -63 -2 0 -27 13 -55 30
l-51 30 -99 -57 -100 -57 0 -118 0 -117 100 -56 99 -57 101 57 100 57 0 48 c0
44 -3 50 -36 69 -19 12 -39 21 -45 21 -5 0 -9 -33 -9 -73 l0 -72 -58 -32 -58
-32 -80 47 -79 47 -3 92 -3 91 54 31 c30 17 60 31 66 31 6 0 90 -45 186 -101
l175 -101 100 57 100 56 0 117 0 117 -99 58 c-54 31 -100 57 -102 56 -2 0 -48
-26 -101 -57z"/>
<path d="M908 2122 c-24 -15 -28 -24 -28 -62 0 -41 3 -47 33 -63 32 -18 35
-18 70 -1 35 17 37 21 37 64 0 43 -2 47 -35 63 -42 20 -42 20 -77 -1z"/>
<path d="M1553 2119 c-28 -18 -33 -27 -33 -59 0 -33 5 -41 37 -61 36 -23 36
-23 72 -3 31 17 36 24 39 61 3 39 0 44 -30 63 -41 25 -45 25 -85 -1z"/>
<path d="M197 1912 c-21 -13 -27 -24 -27 -52 0 -28 6 -38 29 -51 26 -15 30
-15 55 0 21 12 26 23 26 53 0 31 -5 40 -28 52 -25 13 -31 12 -55 -2z"/>
<path d="M503 1630 c-29 -17 -33 -25 -33 -63 0 -38 3 -44 36 -62 34 -18 36
-18 70 0 31 17 34 22 34 65 0 43 -2 47 -35 63 -43 20 -34 21 -72 -3z"/>
<path d="M1973 1630 c-29 -17 -33 -25 -33 -63 0 -40 3 -46 35 -63 34 -18 36
-18 70 0 32 18 35 23 35 66 0 43 -2 47 -35 63 -43 20 -34 21 -72 -3z"/>
<path d="M1130 1522 l-135 -78 0 -164 0 -164 135 -78 c74 -43 139 -78 143 -78
4 0 68 35 142 78 l135 77 0 165 0 165 -134 78 c-74 42 -139 77 -143 77 -5 0
-69 -35 -143 -78z"/>
<path d="M2351 1512 c-9 -22 -9 -35 0 -55 10 -22 19 -27 50 -27 33 0 41 5 54
30 14 27 14 32 -1 55 -13 19 -25 25 -54 25 -32 0 -39 -4 -49 -28z"/>
<path d="M185 1380 l-57 -101 57 -99 56 -100 118 0 117 0 103 180 103 180 68
0 68 0 46 -80 47 -80 -47 -80 -46 -80 -68 0 -69 0 -33 56 c-18 31 -37 57 -41
58 -4 1 -18 -16 -29 -36 l-22 -38 21 -37 22 -38 118 -3 118 -3 58 100 58 100
-58 101 -58 100 -115 0 -115 0 -69 -123 c-38 -67 -81 -141 -94 -164 -24 -43
-24 -43 -81 -43 l-57 0 -37 65 -38 65 38 65 37 65 58 0 c56 0 58 -1 77 -37 38
-71 37 -71 62 -20 l23 47 -21 37 -22 38 -119 3 -120 3 -57 -101z"/>
<path d="M1657 1380 l-58 -101 57 -99 56 -100 119 0 119 0 21 43 21 43 -22 37
c-12 20 -25 37 -28 37 -4 0 -22 -27 -40 -60 l-33 -60 -69 0 -68 0 -46 80 -47
80 47 80 46 80 68 0 68 0 75 -132 c41 -73 87 -154 103 -180 l29 -48 116 0 117
0 57 100 56 100 -56 100 -57 100 -118 0 -118 0 -24 -41 -25 -42 25 -44 c27
-48 27 -48 63 20 19 36 21 37 77 37 l58 0 37 -65 38 -65 -38 -65 -37 -65 -57
0 c-66 0 -47 -22 -170 197 l-74 133 -115 0 -116 0 -57 -100z"/>
<path d="M96 1103 c-12 -24 -12 -31 2 -60 10 -21 21 -32 30 -28 7 3 24 5 37 5
34 0 53 51 31 85 -24 36 -80 35 -100 -2z"/>
<path d="M498 1052 c-23 -14 -28 -24 -28 -59 0 -37 4 -44 35 -63 35 -22 36
-22 68 -3 28 17 32 25 35 65 3 43 1 48 -27 62 -38 20 -49 20 -83 -2z"/>
<path d="M1967 1052 c-25 -15 -27 -22 -25 -62 3 -38 8 -47 36 -63 31 -18 33
-18 65 0 27 16 32 25 35 64 3 40 0 46 -27 62 -36 21 -49 21 -84 -1z"/>
<path d="M718 972 l-98 -57 0 -45 c0 -43 2 -47 45 -72 l44 -27 3 76 3 77 57
33 57 33 80 -47 81 -47 0 -93 0 -93 -52 -30 c-29 -16 -58 -30 -64 -30 -6 0
-89 45 -183 100 -95 55 -175 100 -178 100 -3 0 -50 -26 -105 -57 l-98 -57 0
-112 c0 -77 4 -115 13 -122 6 -6 52 -33 101 -61 l88 -51 102 58 101 58 3 62 3
63 52 -30 53 -30 97 56 97 55 0 119 0 118 -94 55 c-52 31 -99 56 -103 56 -4
-1 -52 -27 -105 -58z"/>
<path d="M1618 974 l-98 -55 0 -118 0 -117 100 -57 99 -57 51 30 c28 17 53 30
55 30 3 0 5 -28 5 -63 l0 -63 101 -57 100 -58 100 58 99 58 0 117 0 117 -100
56 -100 57 -175 -101 c-96 -56 -180 -101 -186 -101 -6 0 -36 14 -66 31 l-54
31 3 91 3 92 79 47 80 47 58 -32 58 -32 0 -72 c0 -40 4 -73 9 -73 6 0 26 9 45
21 33 19 36 25 36 69 l0 48 -99 56 c-54 31 -101 56 -103 56 -1 0 -47 -25 -100
-56z"/>
<path d="M1168 852 l-98 -57 0 -115 0 -115 98 -54 c53 -30 127 -72 165 -93
l67 -39 0 -59 0 -58 -64 -36 -64 -36 -66 38 -66 37 0 55 0 55 51 31 51 31 -36
21 c-45 27 -47 27 -96 2 l-40 -20 0 -118 0 -118 101 -57 c55 -32 104 -57 108
-55 3 2 48 27 99 56 l92 54 0 118 0 118 -180 103 -180 103 0 67 0 67 81 46 82
46 76 -44 76 -44 3 -71 3 -70 -56 -32 c-30 -17 -57 -35 -61 -40 -3 -5 14 -18
38 -30 l44 -21 37 22 37 22 0 118 0 118 -98 56 c-54 31 -100 56 -103 55 -2 0
-48 -26 -101 -57z"/>
<path d="M2282 744 c-34 -24 -30 -75 8 -97 29 -18 31 -18 60 3 39 27 41 70 5
94 -30 20 -45 20 -73 0z"/>
<path d="M908 562 c-24 -15 -28 -24 -28 -62 0 -41 3 -47 33 -63 32 -18 35 -18
70 -1 35 17 37 21 37 64 0 43 -2 47 -35 63 -42 20 -42 20 -77 -1z"/>
<path d="M1553 559 c-28 -18 -33 -27 -33 -59 0 -33 5 -41 37 -61 36 -23 36
-23 72 -3 31 17 36 24 39 61 3 39 0 44 -30 63 -41 25 -45 25 -85 -1z"/>
<path d="M418 372 c-38 -23 -39 -74 -2 -98 23 -16 28 -16 60 -1 45 22 48 66 5
96 -34 25 -29 25 -63 3z"/>
<path d="M1443 153 c-16 -11 -23 -26 -23 -49 0 -27 6 -36 31 -50 30 -15 33
-15 58 4 16 12 27 31 29 50 3 26 -2 33 -27 46 -36 19 -40 19 -68 -1z"/>
</g>
</svg>
