<?xml version="1.0" standalone="no"?>
<!DOCTYPE svg PUBLIC "-//W3C//DTD SVG 20010904//EN"
 "http://www.w3.org/TR/2001/REC-SVG-20010904/DTD/svg10.dtd">
<svg version="1.0" xmlns="http://www.w3.org/2000/svg"
 width="256.000000pt" height="256.000000pt" viewBox="0 0 256.000000 256.000000"
 preserveAspectRatio="xMidYMid meet">
<metadata>
Created by potrace 1.16, written by Peter Selinger 2001-2019
</metadata>
<g transform="translate(0.000000,256.000000) scale(0.100000,-0.100000)"
fill="#e5e5e5" stroke="none">
<path d="M642 2459 l-39 -71 24 -44 c20 -36 30 -44 54 -44 16 0 29 -3 29 -7 0
-4 -22 -47 -50 -95 -27 -48 -50 -94 -50 -100 0 -7 25 -55 55 -107 31 -52 53
-96 51 -98 -2 -3 -32 11 -66 31 -33 20 -64 36 -67 36 -3 0 -47 -25 -98 -55
-52 -30 -96 -55 -99 -55 -3 0 -6 10 -6 23 0 16 -13 29 -46 48 l-47 26 -68 -39
-69 -40 0 -78 0 -79 46 -27 c45 -26 47 -27 75 -10 l30 18 -3 -118 -3 -118 -55
-31 -55 -31 -3 -116 -3 -116 61 -33 60 -32 0 -114 0 -114 -29 17 c-28 17 -30
16 -75 -10 l-46 -27 0 -79 0 -78 69 -40 68 -39 47 26 c27 15 46 33 46 44 0 9
3 17 8 17 4 0 50 -25 102 -55 l95 -54 30 18 c16 10 47 28 68 40 20 13 37 20
37 16 0 -3 -26 -52 -58 -109 l-58 -102 53 -92 c29 -51 53 -95 53 -98 0 -2 -12
-3 -27 -2 -22 3 -31 -5 -53 -43 l-28 -46 40 -72 40 -71 78 0 78 0 31 52 c19
34 26 57 20 62 -21 22 -4 26 95 26 l105 0 27 -50 27 -50 137 0 137 0 27 50 27
50 105 0 c99 0 116 -4 95 -26 -6 -5 1 -28 20 -61 l31 -53 78 0 78 0 40 71 40
72 -28 46 c-22 38 -31 46 -53 43 -15 -1 -27 0 -27 2 0 3 24 47 53 98 l53 92
-58 102 c-32 57 -58 106 -58 109 0 4 17 -3 38 -16 20 -12 51 -30 67 -40 l30
-18 95 54 c52 30 98 55 103 55 4 0 7 -8 7 -17 0 -11 19 -29 46 -44 l47 -26 68
39 69 40 0 78 0 79 -46 27 c-45 26 -47 27 -75 10 l-29 -17 0 114 0 114 60 32
61 33 -3 116 -3 116 -55 31 -55 31 -3 118 -3 118 30 -18 c28 -17 30 -16 75 10
l46 27 0 79 0 78 -69 40 -68 39 -47 -26 c-33 -19 -46 -32 -46 -48 0 -13 -3
-23 -6 -23 -3 0 -47 25 -99 55 -51 30 -95 55 -98 55 -3 0 -34 -16 -67 -36 -34
-20 -64 -34 -66 -31 -2 2 20 46 51 98 30 52 55 100 55 107 0 6 -22 52 -50 100
-27 48 -50 91 -50 95 0 4 13 7 29 7 24 0 34 8 54 44 l24 44 -39 71 -40 71 -78
0 -78 0 -31 -52 c-26 -46 -28 -55 -15 -69 8 -8 14 -19 14 -22 0 -4 -48 -7
-107 -7 l-108 0 -30 53 -31 52 -134 0 -134 0 -31 -52 -30 -53 -109 0 -108 0
15 23 c14 22 13 27 -15 75 l-30 52 -78 0 -78 0 -40 -71z m208 14 c18 -31 19
-40 9 -65 -10 -24 -17 -28 -53 -28 -35 0 -43 -4 -58 -30 -14 -24 -24 -30 -52
-30 -29 0 -38 5 -51 30 -20 39 -20 40 17 104 l32 56 67 0 c67 0 67 0 89 -37z
m1048 -19 c37 -64 37 -65 17 -104 -13 -25 -22 -30 -51 -30 -28 0 -38 6 -52 30
-15 26 -23 30 -58 30 -36 0 -43 4 -53 28 -10 25 -9 34 9 65 22 37 22 37 89 37
l67 0 32 -56z m-469 -44 l31 -50 117 0 c94 0 120 -3 135 -17 10 -9 18 -20 18
-24 0 -5 -52 -10 -116 -11 l-116 -3 -60 -103 -59 -103 62 -105 61 -105 127 3
126 3 58 102 59 102 -56 98 c-52 91 -54 98 -35 101 28 5 32 0 94 -108 l53 -92
-69 -118 c-103 -177 -103 -176 25 -100 47 27 88 50 92 50 4 0 51 -26 105 -57
79 -46 99 -62 99 -80 0 -13 -3 -23 -7 -23 -5 0 -49 24 -99 53 l-91 54 -106
-61 -106 -61 -1 -125 0 -126 68 -38 c37 -21 85 -49 107 -62 l40 -23 105 62
105 63 3 108 c2 79 6 106 15 103 8 -2 14 -45 17 -137 l5 -134 58 -34 57 -34 0
-102 0 -101 -60 -33 -59 -33 -3 -131 c-2 -94 -7 -133 -15 -136 -10 -3 -13 22
-13 101 0 122 10 107 -136 189 l-81 45 -107 -60 -106 -61 0 -126 1 -125 107
-60 107 -61 90 53 c50 29 94 53 98 53 5 0 7 -12 5 -27 -3 -27 -13 -35 -153
-114 l-50 -28 -93 54 c-50 29 -94 50 -97 45 -3 -5 26 -64 65 -131 39 -67 72
-125 73 -129 1 -4 -23 -51 -52 -104 -45 -78 -59 -96 -78 -96 -13 0 -23 2 -23
5 0 2 23 43 50 89 28 47 53 92 56 101 4 8 -18 58 -51 115 l-56 100 -129 0
-128 0 -29 -47 c-54 -87 -83 -141 -83 -156 0 -9 26 -60 58 -114 l58 -98 107
-3 c59 -1 107 -6 107 -10 0 -4 -7 -15 -14 -25 -11 -14 -31 -17 -134 -17 l-121
0 -31 -55 -31 -55 -119 0 -119 0 -31 55 -31 55 -121 0 c-103 0 -123 3 -134 17
-7 10 -14 21 -14 25 0 4 53 9 117 10 l118 3 57 100 c32 55 58 106 58 113 0 7
-25 56 -56 108 l-55 94 -129 0 -129 0 -42 -72 c-23 -40 -49 -86 -58 -101 -18
-31 -23 -16 63 -169 l38 -68 -34 0 c-33 0 -36 4 -89 96 -29 53 -53 100 -52
104 1 4 34 62 73 129 39 67 68 126 65 131 -3 5 -47 -16 -97 -45 l-93 -54 -50
28 c-140 79 -150 87 -153 114 -5 38 9 35 112 -27 l89 -53 106 62 106 63 0 123
0 123 -105 62 c-92 55 -108 61 -125 50 -11 -7 -59 -34 -107 -61 l-88 -49 0
-113 c0 -111 -1 -113 -20 -103 -18 10 -20 21 -20 140 l0 129 -60 33 -60 33 0
101 0 102 58 34 57 34 3 132 c2 119 4 133 22 142 19 10 20 7 20 -103 l0 -113
68 -38 c37 -21 85 -49 107 -62 l40 -22 105 62 105 63 0 123 0 124 -106 61
-106 62 -89 -53 c-49 -29 -95 -53 -101 -54 -7 0 -13 10 -13 23 0 18 20 34 99
80 54 31 101 57 105 57 4 0 45 -22 92 -50 128 -76 128 -77 25 100 l-69 118 57
99 c47 82 61 99 84 101 15 2 27 -1 27 -6 0 -6 -22 -48 -50 -95 -27 -47 -50
-91 -50 -97 0 -7 26 -57 57 -111 l58 -99 125 0 125 0 58 99 c31 54 57 104 57
111 0 7 -26 57 -57 111 l-58 99 -117 0 c-65 0 -118 3 -118 7 0 3 7 15 17 25
14 15 33 18 135 18 l118 0 31 50 31 50 118 0 118 0 31 -50z m-347 -190 l31
-55 -49 -87 -49 -88 -110 0 -110 0 -33 54 -32 54 53 91 52 91 108 -2 109 -3
30 -55z m704 -34 l52 -90 -32 -50 -32 -51 -110 -3 -110 -3 -47 84 c-26 46 -47
89 -47 95 0 7 14 34 31 62 l31 51 106 -3 106 -3 52 -89z m-1455 -283 c41 -24
40 -67 -1 -88 -26 -14 -30 -21 -30 -58 0 -37 -4 -44 -31 -60 -30 -17 -32 -17
-65 4 -33 20 -34 22 -34 89 l0 68 53 30 c61 36 70 37 108 15z m2004 -14 l55
-31 0 -68 c0 -67 -1 -69 -34 -89 -33 -21 -35 -21 -65 -4 -27 16 -31 23 -31 60
0 37 -4 44 -30 58 -40 21 -42 63 -2 87 37 24 44 23 107 -13z m-1689 -81 l55
-33 -3 -109 -3 -109 -90 -53 c-98 -56 -90 -56 -167 -7 l-38 23 0 109 0 108 88
51 c48 28 91 52 95 52 5 0 33 -15 63 -32z m1433 -20 l91 -52 0 -108 0 -107
-60 -35 -59 -35 -93 53 -93 52 0 109 0 109 55 33 c30 18 58 33 61 33 4 0 48
-23 98 -52z m-1473 -732 l89 -53 0 -112 0 -112 -56 -31 -56 -31 -92 52 -92 53
3 111 3 111 55 32 c30 18 55 33 56 34 1 0 41 -24 90 -54z m1503 19 l61 -36 0
-108 0 -109 -92 -52 c-100 -57 -96 -57 -177 -5 l-41 25 0 104 0 104 88 55 c48
30 90 56 94 56 4 1 34 -15 67 -34z m-1836 -214 c24 -12 27 -20 27 -60 0 -41 4
-49 30 -64 42 -25 40 -58 -5 -83 l-35 -19 -58 32 -57 32 -3 69 c-3 69 -3 70
30 91 18 11 35 19 38 18 3 -1 17 -9 33 -16z m2084 -2 c34 -21 34 -21 31 -91
l-3 -69 -57 -32 -58 -32 -35 19 c-45 25 -47 58 -5 83 26 15 30 23 30 63 0 38
4 47 28 62 35 21 29 21 69 -3z m-1305 -351 c65 -113 63 -102 26 -168 l-33 -60
-106 0 -107 0 -52 92 -53 93 28 52 27 53 117 0 117 0 36 -62z m767 12 l31 -51
-53 -92 -53 -92 -105 -3 -104 -3 -33 61 -33 60 32 58 c68 120 56 112 179 112
l108 0 31 -50z m-1070 -315 c18 -31 25 -35 61 -35 33 0 42 -4 51 -23 8 -19 6
-31 -11 -60 -22 -37 -22 -37 -89 -37 l-67 0 -32 56 c-37 64 -37 65 -17 104 13
24 22 30 49 30 28 0 38 -6 55 -35z m1166 5 c20 -39 20 -40 -17 -104 l-32 -56
-67 0 c-67 0 -67 0 -89 37 -17 29 -19 41 -11 60 9 19 18 23 51 23 36 0 43 4
61 35 17 29 27 35 55 35 27 0 36 -6 49 -30z"/>
<path d="M1170 2365 c-36 -63 -35 -76 10 -148 l31 -48 71 3 71 3 38 62 38 62
-35 61 -36 60 -78 0 -79 0 -31 -55z"/>
<path d="M1238 2075 c-17 -39 3 -75 42 -75 23 0 33 6 42 25 17 39 -3 75 -42
75 -23 0 -33 -6 -42 -25z"/>
<path d="M1260 1930 c0 -13 7 -20 20 -20 13 0 20 7 20 20 0 13 -7 20 -20 20
-13 0 -20 -7 -20 -20z"/>
<path d="M933 1782 l-83 -47 0 -169 0 -168 32 -58 31 -57 -31 -55 -32 -55 0
-174 0 -174 84 -48 83 -48 82 48 81 47 0 64 0 64 46 -26 47 -26 45 25 c24 14
46 25 48 25 2 0 4 -27 4 -59 0 -67 0 -67 111 -129 l56 -32 82 46 81 46 0 180
0 181 -30 49 -31 49 31 53 30 53 0 176 0 175 -81 46 -82 46 -56 -32 c-110 -62
-111 -63 -111 -125 0 -30 -3 -53 -7 -51 -5 2 -25 12 -47 23 l-38 20 -49 -28
-49 -27 0 63 0 63 -77 45 c-42 24 -79 45 -82 46 -3 2 -43 -18 -88 -45z m152
-19 l65 -38 0 -72 c0 -85 4 -88 80 -43 l50 29 50 -29 c28 -17 55 -30 60 -30 6
0 10 33 10 73 l0 72 70 38 70 38 70 -41 70 -41 0 -156 0 -156 -34 -62 -34 -62
34 -59 33 -59 1 -162 0 -162 -70 -41 -70 -41 -70 38 -70 38 0 78 c0 42 -4 77
-10 77 -5 0 -33 -14 -62 -31 l-53 -31 -56 31 c-31 17 -59 28 -62 24 -4 -3 -7
-38 -7 -77 l0 -71 -67 -39 -66 -38 -36 21 c-20 12 -51 29 -68 38 l-33 17 0
169 0 169 31 57 31 56 -31 53 -31 53 0 167 1 167 62 36 c34 21 66 37 70 38 5
1 37 -16 72 -36z"/>
<path d="M967 1709 l-48 -30 3 -51 c3 -50 5 -53 48 -79 l45 -26 47 26 48 26 0
57 0 56 -46 26 c-26 14 -47 26 -48 26 0 0 -23 -14 -49 -31z"/>
<path d="M1487 1709 l-48 -30 3 -51 c3 -49 4 -52 50 -77 l47 -26 46 24 45 24
0 58 0 57 -46 26 c-26 14 -47 26 -48 26 0 0 -23 -14 -49 -31z"/>
<path d="M1142 1497 l-122 -71 2 -151 3 -150 128 -74 128 -73 92 53 c50 29
109 63 130 76 l37 23 0 149 0 148 -124 72 c-68 39 -130 71 -137 71 -8 -1 -69
-33 -137 -73z"/>
<path d="M963 1004 c-42 -24 -43 -26 -43 -78 l0 -53 50 -27 50 -27 45 26 c45
27 45 27 45 81 0 52 -1 55 -40 79 -49 31 -55 31 -107 -1z"/>
<path d="M1482 1003 c-42 -25 -43 -26 -40 -76 3 -49 5 -53 50 -80 l46 -29 46
27 46 27 0 56 c0 56 -1 57 -40 80 -49 28 -55 27 -108 -5z"/>
<path d="M318 1384 l-58 -35 0 -79 0 -79 61 -34 61 -35 64 37 64 36 0 75 0 76
-63 37 c-35 20 -66 37 -68 36 -2 0 -30 -16 -61 -35z"/>
<path d="M2123 1383 l-63 -35 0 -77 0 -77 59 -34 c33 -18 62 -33 66 -33 4 0
33 15 66 33 l59 34 0 76 c0 75 0 76 -32 94 -18 10 -46 27 -63 37 -30 17 -30
17 -92 -18z"/>
<path d="M612 1317 c-57 -26 -24 -112 35 -91 23 8 28 15 28 43 0 42 -29 64
-63 48z"/>
<path d="M1907 1314 c-60 -32 -14 -114 48 -86 33 15 35 63 2 85 -20 13 -26 13
-50 1z"/>
<path d="M730 1270 c0 -16 5 -21 23 -18 12 2 22 10 22 18 0 8 -10 16 -22 18
-18 3 -23 -2 -23 -18z"/>
<path d="M1792 1273 c4 -22 43 -25 43 -3 0 8 -11 16 -23 18 -19 3 -23 0 -20
-15z"/>
<path d="M1262 638 c2 -13 10 -23 18 -23 8 0 16 10 18 23 3 17 -2 22 -18 22
-16 0 -21 -5 -18 -22z"/>
<path d="M1236 543 c-12 -24 -12 -30 1 -50 10 -15 25 -23 43 -23 18 0 33 8 43
23 22 34 -2 77 -43 77 -22 0 -33 -7 -44 -27z"/>
<path d="M1167 328 l-35 -63 31 -57 32 -58 85 0 85 0 32 58 31 57 -35 63 -35
62 -78 0 -78 0 -35 -62z"/>
</g>
</svg>
