<?xml version="1.0" standalone="no"?>
<!DOCTYPE svg PUBLIC "-//W3C//DTD SVG 20010904//EN"
 "http://www.w3.org/TR/2001/REC-SVG-20010904/DTD/svg10.dtd">
<svg version="1.0" xmlns="http://www.w3.org/2000/svg"
 width="256.000000pt" height="256.000000pt" viewBox="0 0 256.000000 256.000000"
 preserveAspectRatio="xMidYMid meet">
<metadata>
Created by potrace 1.16, written by Peter Selinger 2001-2019
</metadata>
<g transform="translate(0.000000,256.000000) scale(0.100000,-0.100000)"
fill="#e5e5e5" stroke="none">
<path d="M1132 2493 c3 -36 8 -41 86 -87 79 -48 82 -51 82 -86 l0 -37 -150
-87 c-83 -47 -153 -86 -155 -86 -3 0 -5 18 -5 39 0 38 -2 40 -80 85 -43 25
-82 46 -85 46 -3 0 -5 -17 -5 -37 0 -37 3 -39 85 -88 l85 -50 0 -77 0 -78 38
-23 c20 -13 52 -32 70 -41 l32 -17 0 40 c0 39 -2 41 -66 77 -36 20 -62 40 -57
44 9 7 235 141 271 159 16 9 22 21 22 46 0 19 5 35 10 35 6 0 58 -27 115 -61
l105 -61 0 -197 0 -196 -50 -27 -50 -28 0 -80 0 -80 38 -23 c103 -65 89 -63
165 -20 l67 38 -2 84 -3 85 -45 26 -45 26 -5 218 -5 218 -135 78 c-74 43 -141
83 -147 90 -7 6 -13 26 -13 45 0 32 -5 37 -77 80 -43 25 -81 45 -86 45 -4 0
-7 -17 -5 -37z"/>
<path d="M1678 2313 c-75 -45 -78 -48 -78 -85 0 -21 3 -38 6 -38 4 0 42 21 85
47 77 45 79 48 79 85 0 21 -3 38 -7 38 -5 0 -43 -22 -85 -47z"/>
<path d="M590 2151 c0 -56 3 -101 8 -101 4 0 18 -9 31 -19 l24 -18 -141 -82
c-77 -44 -146 -81 -152 -81 -6 0 -22 7 -35 16 -23 15 -28 14 -110 -31 -47 -25
-83 -51 -80 -56 4 -5 18 -15 33 -23 25 -13 32 -11 102 30 83 48 88 49 125 32
l25 -11 0 -180 0 -179 -25 16 c-35 23 -41 21 -129 -30 l-79 -46 33 -21 c36
-23 39 -22 152 46 45 27 48 27 77 13 16 -9 32 -16 36 -16 3 0 5 80 5 178 l0
178 -31 18 -30 18 110 64 c61 35 114 64 117 64 8 0 279 -156 317 -182 24 -17
27 -26 27 -73 l0 -54 62 -37 c33 -21 66 -37 72 -37 6 0 39 17 74 37 l62 37 0
82 0 82 -62 35 c-35 19 -66 36 -69 38 -4 2 -30 -11 -59 -28 l-52 -31 -184 106
-183 107 -3 101 -3 101 -32 19 -33 19 0 -101z"/>
<path d="M1878 2162 c-27 -16 -28 -19 -28 -112 l0 -95 -70 -44 -70 -43 0 -79
c0 -43 2 -79 5 -79 4 0 19 7 35 15 29 15 30 17 30 95 0 58 4 80 13 80 6 -1 77
-39 157 -85 135 -78 147 -83 167 -69 12 8 27 14 33 14 6 0 10 -45 10 -125 l0
-125 -37 -24 c-74 -47 -302 -176 -311 -176 -5 0 -30 12 -56 26 l-46 26 -67
-39 -68 -39 -3 -80 -3 -79 64 -38 c35 -20 70 -37 78 -37 8 0 41 16 74 35 l59
34 37 -21 36 -20 67 38 c36 21 66 42 66 46 0 4 -14 15 -31 23 -29 16 -32 15
-94 -19 -35 -20 -66 -36 -69 -36 -3 0 -6 26 -6 59 l0 58 185 107 185 106 80
-46 c79 -46 101 -50 140 -25 19 13 12 20 -78 70 -70 40 -73 41 -102 26 l-30
-16 0 169 0 168 30 17 30 18 0 100 0 100 -30 -18 c-30 -17 -30 -18 -30 -109 0
-88 -1 -94 -26 -113 -15 -12 -32 -21 -39 -21 -12 0 -281 152 -297 168 -5 5 3
14 21 22 l31 12 0 99 c0 55 -3 99 -7 99 -5 0 -20 -8 -35 -18z"/>
<path d="M1133 1522 l-133 -77 3 -160 2 -159 135 -79 135 -79 50 26 c28 14 90
50 138 79 l89 52 0 160 0 160 -129 77 c-70 42 -135 76 -143 76 -8 0 -75 -34
-147 -76z m217 -115 l55 -33 0 -84 0 -84 -55 -32 c-30 -18 -61 -33 -69 -34 -8
0 -43 16 -78 35 l-63 36 0 79 0 79 63 35 c34 20 69 36 77 36 8 0 40 -15 70
-33z"/>
<path d="M1232 1350 c-30 -18 -33 -24 -30 -61 3 -35 8 -44 39 -62 l36 -21 36
23 c32 20 37 27 37 62 0 34 -5 42 -32 59 -41 25 -45 25 -86 0z"/>
<path d="M780 1489 l-65 -39 -5 -61 -5 -61 -186 -108 -186 -107 -79 44 c-79
45 -100 48 -138 20 -18 -13 -13 -17 65 -61 83 -47 84 -47 116 -32 l33 16 0
-161 0 -160 -29 -17 c-29 -16 -30 -18 -33 -114 -3 -103 0 -110 40 -82 20 14
22 24 22 104 0 87 0 89 30 110 l31 22 132 -75 c73 -42 140 -79 150 -83 24 -9
21 -18 -8 -34 -24 -13 -25 -17 -25 -113 l0 -99 33 19 32 19 3 95 3 94 62 35
62 35 3 83 c2 45 0 82 -4 82 -3 0 -19 -8 -35 -17 -28 -17 -29 -20 -29 -95 0
-43 -3 -78 -6 -78 -3 0 -71 39 -151 86 l-146 86 -34 -16 -34 -16 3 132 3 132
169 97 169 97 53 -29 53 -30 65 38 66 37 0 82 c0 90 3 85 -80 132 l-55 30 -65
-39z"/>
<path d="M577 1456 c-83 -48 -86 -52 -45 -72 35 -16 35 -16 101 22 37 21 67
41 67 45 0 3 -12 12 -27 20 -16 7 -30 14 -33 16 -3 1 -31 -13 -63 -31z"/>
<path d="M2216 1175 c-88 -50 -92 -51 -120 -30 -11 8 -23 15 -28 15 -10 0 -11
-360 0 -360 4 0 18 -9 30 -18 l24 -18 -107 -62 c-59 -34 -112 -62 -118 -62 -7
1 -84 42 -172 93 l-160 93 -5 63 -5 63 -65 38 -64 38 -56 -31 c-89 -49 -90
-51 -90 -133 l0 -72 71 -41 72 -41 51 29 52 29 182 -105 182 -106 0 -96 c0
-96 0 -97 29 -114 16 -9 32 -17 35 -17 3 0 6 43 6 95 0 90 -1 95 -26 111 -14
9 -21 20 -17 25 4 4 68 42 142 84 l133 77 33 -18 33 -18 77 45 c42 24 75 49
75 54 -1 6 -12 17 -25 25 -22 13 -29 12 -67 -7 -24 -12 -61 -33 -84 -47 l-40
-25 -32 19 -32 20 0 170 c0 93 3 170 8 170 4 -1 18 -7 32 -14 22 -13 29 -11
75 14 97 54 115 65 115 70 0 5 -54 40 -62 40 -2 0 -39 -20 -82 -45z"/>
<path d="M918 1069 l-68 -40 0 -72 c0 -40 4 -77 8 -82 4 -6 28 -23 55 -39 l47
-27 -2 -217 -3 -216 -82 -49 c-81 -48 -83 -50 -83 -88 0 -22 2 -39 5 -39 3 0
43 23 90 51 75 45 85 54 85 80 0 16 3 29 8 28 4 0 66 -35 137 -77 130 -77 130
-77 133 -117 3 -39 5 -41 85 -87 l82 -47 3 31 c2 16 1 35 -1 41 -2 7 -39 32
-81 57 -72 43 -76 47 -76 81 0 36 0 36 148 121 l147 85 3 -38 c3 -36 8 -40 81
-83 43 -25 81 -46 84 -46 4 0 7 17 7 38 0 36 -3 39 -80 85 l-80 48 0 79 0 79
-67 40 c-37 22 -70 38 -75 35 -4 -3 -8 -20 -8 -37 0 -30 6 -36 65 -70 36 -21
65 -41 65 -45 0 -4 -17 -16 -38 -28 -20 -11 -85 -49 -144 -84 -103 -60 -108
-64 -108 -96 0 -19 -5 -34 -10 -34 -6 0 -58 27 -115 61 l-105 61 0 202 0 201
50 28 51 29 -3 81 -3 81 -65 38 c-36 21 -67 38 -70 37 -3 0 -35 -18 -72 -40z"/>
</g>
</svg>
