<?xml version="1.0" standalone="no"?>
<!DOCTYPE svg PUBLIC "-//W3C//DTD SVG 20010904//EN"
 "http://www.w3.org/TR/2001/REC-SVG-20010904/DTD/svg10.dtd">
<svg version="1.0" xmlns="http://www.w3.org/2000/svg"
 width="256.000000pt" height="256.000000pt" viewBox="0 0 256.000000 256.000000"
 preserveAspectRatio="xMidYMid meet">
<metadata>
Created by potrace 1.16, written by Peter Selinger 2001-2019
</metadata>
<g transform="translate(0.000000,256.000000) scale(0.100000,-0.100000)"
fill="#e5e5e5" stroke="none">
<path d="M1650 2338 c0 -2 -17 -53 -38 -114 -59 -173 -155 -312 -281 -408 -31
-23 -112 -76 -179 -117 -164 -98 -232 -160 -277 -252 -26 -55 -35 -87 -37
-134 -2 -35 -6 -63 -10 -63 -4 0 -22 18 -39 40 -18 22 -34 38 -37 36 -2 -3 4
-30 13 -61 42 -145 152 -235 288 -236 74 -1 121 16 160 59 l28 30 -65 4 c-104
6 -161 64 -160 163 1 92 56 170 189 265 140 100 228 193 304 318 40 67 95 199
115 277 15 60 35 195 29 195 -2 0 -3 -1 -3 -2z"/>
<path d="M1887 2304 c-11 -68 -56 -195 -98 -278 -54 -108 -115 -191 -226 -307
l-95 -99 28 -10 c16 -5 42 -16 57 -25 16 -8 33 -15 38 -15 15 0 98 135 150
244 82 176 166 447 157 508 -3 17 -5 12 -11 -18z"/>
<path d="M1910 1762 c0 -4 -25 -39 -55 -77 -52 -65 -118 -128 -174 -165 l-24
-16 33 -47 c40 -55 40 -55 110 50 74 111 143 263 119 263 -5 0 -9 -3 -9 -8z"/>
<path d="M930 1630 c0 -5 5 -10 10 -10 6 0 10 5 10 10 0 6 -4 10 -10 10 -5 0
-10 -4 -10 -10z"/>
<path d="M860 1585 c0 -8 7 -15 15 -15 8 0 15 7 15 15 0 8 -7 15 -15 15 -8 0
-15 -7 -15 -15z"/>
<path d="M802 1513 c5 -26 38 -29 38 -4 0 15 -6 21 -21 21 -14 0 -19 -5 -17
-17z"/>
<path d="M1265 1517 c-34 -16 -95 -65 -95 -77 0 -4 26 -8 59 -8 93 1 154 -48
163 -132 12 -102 -45 -193 -182 -290 -173 -123 -272 -238 -355 -411 -24 -52
-55 -137 -68 -189 -24 -94 -44 -220 -33 -209 3 3 17 44 31 92 48 168 149 329
265 424 32 26 118 84 191 128 219 133 311 235 326 363 3 29 9 52 14 52 14 0
47 -64 69 -134 35 -108 14 -214 -66 -336 -9 -14 7 0 35 29 95 102 126 209 98
343 -32 158 -115 275 -237 332 -75 35 -166 45 -215 23z"/>
<path d="M764 1416 c-10 -26 4 -48 28 -44 17 2 23 10 23 28 0 18 -6 26 -23 28
-13 2 -25 -3 -28 -12z"/>
<path d="M1160 1338 c-27 -45 -25 -80 6 -111 52 -52 85 -42 100 31 8 39 -13
75 -56 97 -30 15 -30 15 -50 -17z"/>
<path d="M650 1344 c-32 -38 -6 -123 46 -146 31 -14 39 -6 23 24 -8 12 -16 48
-19 78 -5 59 -25 76 -50 44z"/>
<path d="M1295 1330 c-3 -5 -1 -10 4 -10 6 0 11 5 11 10 0 6 -2 10 -4 10 -3 0
-8 -4 -11 -10z"/>
<path d="M1755 1305 c4 -11 10 -33 12 -50 9 -68 13 -75 38 -75 19 0 25 5 25
20 0 29 -23 70 -56 100 -24 22 -26 22 -19 5z"/>
<path d="M1307 1274 c-8 -8 1 -24 14 -24 5 0 9 7 9 15 0 15 -12 20 -23 9z"/>
<path d="M1275 1201 c-8 -15 3 -31 21 -31 9 0 14 7 12 17 -4 20 -24 28 -33 14z"/>
<path d="M746 1108 c-26 -40 -53 -117 -60 -173 l-7 -50 34 70 c18 39 46 84 60
101 27 31 27 32 8 55 l-18 23 -17 -26z"/>
<path d="M1563 1051 c-18 -36 -35 -83 -39 -103 -11 -67 -56 -122 -151 -186
-48 -33 -99 -72 -113 -88 l-25 -28 25 17 c14 9 66 41 115 71 50 30 109 71 132
91 57 48 104 145 105 213 0 85 -13 88 -49 13z"/>
<path d="M821 992 c-39 -77 -66 -226 -52 -297 l7 -40 7 48 c10 70 60 167 116
230 l49 53 -46 22 c-26 12 -50 22 -54 22 -4 0 -16 -17 -27 -38z"/>
<path d="M960 935 c0 -22 4 -26 23 -23 14 2 22 10 22 23 0 13 -8 21 -22 23
-19 3 -23 -1 -23 -23z"/>
<path d="M1408 886 c-53 -38 -68 -64 -43 -73 29 -9 114 78 103 106 -2 4 -29
-11 -60 -33z"/>
<path d="M894 879 c-10 -17 13 -36 27 -22 12 12 4 33 -11 33 -5 0 -12 -5 -16
-11z"/>
<path d="M855 800 c3 -5 8 -10 11 -10 2 0 4 5 4 10 0 6 -5 10 -11 10 -5 0 -7
-4 -4 -10z"/>
</g>
</svg>
