<?xml version="1.0" standalone="no"?>
<!DOCTYPE svg PUBLIC "-//W3C//DTD SVG 20010904//EN"
 "http://www.w3.org/TR/2001/REC-SVG-20010904/DTD/svg10.dtd">
<svg version="1.0" xmlns="http://www.w3.org/2000/svg"
 width="256.000000pt" height="256.000000pt" viewBox="0 0 256.000000 256.000000"
 preserveAspectRatio="xMidYMid meet">
<metadata>
Created by potrace 1.16, written by Peter Selinger 2001-2019
</metadata>
<g transform="translate(0.000000,256.000000) scale(0.100000,-0.100000)"
fill="#e5e5e5" stroke="none">
<path d="M1206 2008 c-84 -144 -136 -309 -136 -433 0 -89 19 -166 71 -296 75
-189 90 -240 96 -335 8 -130 -17 -211 -91 -291 -32 -35 -75 -68 -105 -83 -67
-31 -54 -42 53 -48 184 -10 347 87 405 241 35 92 32 251 -7 362 l-17 50 -3
-37 c-2 -21 -6 -38 -10 -38 -4 0 -26 37 -50 83 -23 45 -71 134 -107 197 -94
165 -110 223 -109 390 1 105 6 150 22 205 11 38 19 71 17 73 -2 2 -15 -16 -29
-40z"/>
<path d="M984 1495 c21 -93 13 -183 -24 -255 -10 -19 -52 -82 -93 -139 -104
-146 -121 -214 -72 -300 l25 -44 -30 6 c-16 4 -30 2 -30 -2 0 -14 74 -69 114
-86 55 -23 153 -19 201 8 42 24 85 86 85 125 0 26 -7 27 -34 7 -34 -26 -81
-19 -110 15 -43 51 -43 87 -2 210 30 93 36 123 36 198 0 95 -18 181 -50 240
-11 20 -19 28 -16 17z"/>
<path d="M1726 1380 c-35 -34 -78 -82 -95 -108 -56 -88 -64 -122 -70 -322 -6
-170 -9 -190 -32 -240 -33 -69 -67 -111 -124 -147 -25 -15 -45 -31 -45 -34 0
-3 18 -14 40 -24 47 -21 138 -17 187 9 39 20 89 69 110 110 25 44 22 179 -6
349 -20 119 -21 146 -12 203 13 72 49 161 85 208 55 75 46 74 -38 -4z"/>
<path d="M1090 1140 c0 -5 5 -10 10 -10 6 0 10 5 10 10 0 6 -4 10 -10 10 -5 0
-10 -4 -10 -10z"/>
<path d="M1074 1069 c-9 -15 12 -33 30 -26 9 4 16 13 16 22 0 17 -35 21 -46 4z"/>
<path d="M1050 980 c-24 -24 -26 -53 -4 -74 34 -34 84 -11 84 39 0 24 -6 38
-19 45 -28 14 -38 13 -61 -10z"/>
</g>
</svg>
