<?xml version="1.0" standalone="no"?>
<!DOCTYPE svg PUBLIC "-//W3C//DTD SVG 20010904//EN"
 "http://www.w3.org/TR/2001/REC-SVG-20010904/DTD/svg10.dtd">
<svg version="1.0" xmlns="http://www.w3.org/2000/svg"
 width="256.000000pt" height="256.000000pt" viewBox="0 0 256.000000 256.000000"
 preserveAspectRatio="xMidYMid meet">
<metadata>
Created by potrace 1.16, written by Peter Selinger 2001-2019
</metadata>
<g transform="translate(0.000000,256.000000) scale(0.100000,-0.100000)"
fill="#e5e5e5" stroke="none">
<path d="M1267 2058 c52 -55 77 -115 77 -183 0 -110 -51 -175 -245 -311 -125
-88 -185 -149 -220 -222 -48 -99 -34 -223 37 -329 24 -36 44 -68 44 -71 0 -4
-27 0 -86 14 -28 6 -28 5 15 -39 55 -58 164 -112 254 -127 157 -28 339 47 399
164 59 114 -8 276 -113 276 -46 0 -60 -15 -21 -23 32 -7 52 -41 52 -91 0 -38
-29 -80 -70 -101 -114 -59 -279 75 -254 206 12 59 41 104 144 220 130 147 165
214 165 319 0 120 -50 225 -142 295 -58 44 -77 45 -36 3z"/>
<path d="M1517 1219 c35 -22 78 -100 88 -161 10 -51 -17 -136 -59 -184 -20
-23 -68 -58 -116 -84 -95 -51 -154 -104 -181 -163 -20 -45 -25 -113 -9 -137 7
-11 10 -4 10 26 0 82 72 149 221 208 175 69 230 123 237 231 5 74 -9 124 -51
183 -37 51 -110 102 -146 102 -26 0 -26 0 6 -21z"/>
</g>
</svg>
