<?xml version="1.0" standalone="no"?>
<!DOCTYPE svg PUBLIC "-//W3C//DTD SVG 20010904//EN"
 "http://www.w3.org/TR/2001/REC-SVG-20010904/DTD/svg10.dtd">
<svg version="1.0" xmlns="http://www.w3.org/2000/svg"
 width="256.000000pt" height="256.000000pt" viewBox="0 0 256.000000 256.000000"
 preserveAspectRatio="xMidYMid meet">
<metadata>
Created by potrace 1.16, written by Peter Selinger 2001-2019
</metadata>
<g transform="translate(0.000000,256.000000) scale(0.100000,-0.100000)"
fill="#e5e5e5" stroke="none">
<path d="M1056 2258 c29 -100 81 -197 141 -260 50 -51 79 -70 201 -130 224
-110 312 -207 312 -342 0 -90 -48 -157 -100 -141 -22 7 -26 -5 -8 -23 24 -24
67 -13 113 29 57 53 80 112 79 204 -1 85 -22 135 -98 226 -56 68 -135 136
-123 106 4 -9 10 -24 14 -33 5 -14 3 -15 -15 -5 -12 6 -72 31 -133 56 -61 24
-133 59 -160 76 -68 43 -150 137 -194 220 -20 38 -38 69 -40 69 -2 0 3 -24 11
-52z"/>
<path d="M716 2090 c-82 -25 -126 -134 -96 -240 17 -61 66 -127 110 -150 72
-37 121 -36 250 5 116 37 235 56 293 49 18 -2 49 -6 69 -9 64 -9 145 -44 209
-91 l61 -46 -28 37 c-71 94 -235 192 -369 220 -42 9 -125 15 -208 15 -160 0
-202 14 -231 74 -23 49 -20 73 13 106 22 22 25 30 14 34 -20 8 -52 6 -87 -4z"/>
<path d="M502 2063 c-34 -14 -54 -110 -33 -165 11 -28 70 -88 87 -88 9 0 9 12
-2 48 -12 39 -13 59 -3 114 15 84 0 111 -49 91z"/>
<path d="M871 2026 c-21 -25 -4 -58 27 -54 23 2 27 8 27 33 0 23 -5 31 -21 33
-11 2 -26 -4 -33 -12z"/>
<path d="M464 1715 c-27 -180 105 -337 271 -323 57 5 114 30 347 156 115 63
211 87 307 77 75 -7 160 -35 212 -70 50 -32 40 -7 -13 35 -94 76 -225 120
-358 120 -62 0 -95 -7 -190 -41 -223 -78 -234 -81 -305 -82 -110 0 -174 36
-236 131 l-28 44 -7 -47z"/>
<path d="M594 1749 c-10 -17 13 -36 27 -22 12 12 4 33 -11 33 -5 0 -12 -5 -16
-11z"/>
<path d="M1268 1577 c-102 -23 -198 -108 -232 -205 -27 -76 -28 -143 -6 -352
12 -113 21 -243 21 -290 -1 -162 -53 -290 -188 -460 l-28 -34 49 34 c82 59
180 171 220 251 61 123 71 201 56 419 -11 162 -10 194 4 258 31 149 90 236
191 284 95 45 216 38 273 -14 15 -15 20 -28 16 -41 -4 -13 -2 -17 5 -13 6 4
11 20 11 36 0 38 -67 95 -135 116 -71 21 -189 26 -257 11z"/>
<path d="M1036 1483 c-11 -11 -6 -23 9 -23 8 0 15 4 15 9 0 13 -16 22 -24 14z"/>
<path d="M1445 1475 c-96 -34 -159 -163 -141 -289 8 -54 21 -59 30 -13 l7 32
21 -44 c24 -50 83 -96 142 -112 27 -8 86 -9 171 -5 195 10 282 -13 372 -99 51
-49 54 -45 12 18 -75 113 -216 210 -352 242 -91 21 -118 32 -149 62 -62 59
-57 142 9 170 40 16 36 29 -15 43 -47 13 -58 12 -107 -5z"/>
<path d="M964 1429 c-9 -15 12 -33 30 -26 9 4 16 13 16 22 0 17 -35 21 -46 4z"/>
<path d="M892 1378 c-16 -16 -15 -33 4 -52 19 -20 54 -5 54 22 0 20 -18 42
-35 42 -6 0 -16 -5 -23 -12z"/>
</g>
</svg>
