<?xml version="1.0" standalone="no"?>
<!DOCTYPE svg PUBLIC "-//W3C//DTD SVG 20010904//EN"
 "http://www.w3.org/TR/2001/REC-SVG-20010904/DTD/svg10.dtd">
<svg version="1.0" xmlns="http://www.w3.org/2000/svg"
 width="256.000000pt" height="256.000000pt" viewBox="0 0 256.000000 256.000000"
 preserveAspectRatio="xMidYMid meet">
<metadata>
Created by potrace 1.16, written by Peter Selinger 2001-2019
</metadata>
<g transform="translate(0.000000,256.000000) scale(0.100000,-0.100000)"
fill="#e5e5e5" stroke="none">
<path d="M1356 2287 c-19 -19 -40 -46 -46 -61 -15 -41 -12 -113 7 -149 l16
-32 10 25 c27 72 42 96 87 144 51 54 59 73 38 94 -24 24 -75 14 -112 -21z"/>
<path d="M1165 2160 c4 -14 9 -69 12 -122 9 -169 -28 -250 -210 -468 -129
-153 -142 -180 -142 -295 0 -75 4 -96 22 -127 23 -39 17 -46 -19 -27 -37 20
-30 1 18 -52 61 -65 105 -93 180 -115 99 -28 213 -4 271 58 29 31 63 106 63
141 l0 28 -28 -21 c-45 -33 -100 -36 -142 -8 -86 58 -91 151 -18 318 62 141
82 244 75 380 -6 106 -41 253 -73 309 l-15 26 6 -25z"/>
<path d="M1427 2028 c-53 -109 -71 -181 -71 -278 0 -94 6 -118 72 -270 58
-134 72 -189 72 -275 0 -109 -54 -201 -144 -247 l-41 -22 40 -9 c185 -41 382
120 361 296 -7 63 -51 155 -153 324 -45 72 -88 153 -98 180 -24 69 -30 212
-12 298 8 39 13 72 12 73 -2 2 -19 -29 -38 -70z"/>
<path d="M1091 2050 c-41 -137 -113 -230 -268 -348 -220 -168 -273 -238 -281
-372 -5 -93 8 -146 54 -206 19 -25 34 -47 32 -48 -2 -1 -42 -28 -91 -60 -89
-59 -153 -85 -216 -87 l-36 -1 44 -11 c62 -15 141 4 209 49 62 41 121 64 165
64 l31 0 -44 -46 -45 -46 68 35 c56 30 73 34 93 27 35 -14 36 -13 24 11 -6 11
-40 41 -75 66 -87 63 -118 110 -123 191 -4 57 -1 70 34 140 40 81 78 124 266
295 73 66 104 102 127 147 34 69 54 152 49 207 l-3 38 -14 -45z"/>
<path d="M1510 1843 c1 -70 35 -122 159 -243 135 -132 180 -204 188 -299 9
-91 -17 -152 -94 -228 -34 -34 -63 -67 -63 -72 0 -6 19 -1 43 9 80 37 123 27
278 -63 54 -32 119 -43 186 -31 l48 8 -66 7 c-70 7 -121 29 -197 83 -62 44
-106 66 -132 66 -19 0 -18 5 17 44 63 71 79 160 48 263 -22 73 -61 121 -188
227 -137 114 -185 167 -200 224 -14 52 -27 54 -27 5z"/>
<path d="M1290 1681 c0 -6 5 -13 10 -16 6 -3 10 1 10 9 0 9 -4 16 -10 16 -5 0
-10 -4 -10 -9z"/>
<path d="M1283 1578 c2 -7 10 -13 17 -13 7 0 15 6 18 13 2 7 -5 12 -18 12 -13
0 -20 -5 -17 -12z"/>
<path d="M1274 1476 c-10 -26 4 -48 28 -44 17 2 23 10 23 28 0 18 -6 26 -23
28 -13 2 -25 -3 -28 -12z"/>
<path d="M1211 1354 c-24 -31 -25 -38 -9 -67 28 -53 92 -64 133 -22 46 45 21
99 -35 78 -32 -12 -40 -8 -40 19 0 26 -25 22 -49 -8z"/>
<path d="M1765 990 c-4 -7 -3 -16 3 -22 14 -14 45 -2 40 15 -6 16 -34 21 -43
7z"/>
<path d="M1842 988 c6 -18 28 -21 28 -4 0 9 -7 16 -16 16 -9 0 -14 -5 -12 -12z"/>
<path d="M1910 970 c0 -5 5 -10 10 -10 6 0 10 5 10 10 0 6 -4 10 -10 10 -5 0
-10 -4 -10 -10z"/>
<path d="M970 930 c0 -5 5 -10 10 -10 6 0 10 5 10 10 0 6 -4 10 -10 10 -5 0
-10 -4 -10 -10z"/>
<path d="M740 917 c-71 -23 -119 -88 -205 -276 -104 -226 -165 -296 -315 -358
-54 -22 -54 -23 -20 -23 51 0 154 26 215 56 80 37 143 100 210 209 114 186
194 249 315 249 43 0 76 -6 98 -18 19 -9 36 -15 39 -12 3 3 -6 25 -21 50 -63
107 -199 160 -316 123z"/>
<path d="M1659 917 c-64 -24 -109 -58 -134 -101 -34 -58 -32 -73 5 -42 55 46
138 46 216 1 48 -28 66 -51 165 -210 86 -140 144 -202 225 -243 63 -32 172
-62 220 -62 24 1 15 8 -55 45 -138 72 -180 123 -266 320 -99 229 -162 296
-278 302 -35 2 -78 -3 -98 -10z"/>
<path d="M1024 909 c-10 -17 13 -36 27 -22 12 12 4 33 -11 33 -5 0 -12 -5 -16
-11z"/>
<path d="M1192 893 c4 -21 33 -25 33 -3 0 8 -8 16 -18 18 -14 3 -18 -1 -15
-15z"/>
<path d="M1094 865 c-7 -18 12 -45 32 -45 16 0 33 30 27 48 -7 17 -52 15 -59
-3z"/>
<path d="M1263 860 c-78 -17 -143 -105 -143 -193 0 -96 40 -145 177 -222 100
-55 164 -110 188 -162 24 -50 38 -23 25 46 -14 73 -53 144 -120 216 -82 88
-104 137 -84 190 9 23 62 48 90 41 28 -7 30 1 8 32 -28 40 -90 63 -141 52z"/>
<path d="M888 727 c-56 -18 -120 -68 -156 -122 -45 -68 -40 -74 16 -17 55 56
99 85 89 58 -9 -22 10 -20 22 3 18 32 78 54 133 48 43 -5 48 -4 38 8 -11 14
-73 36 -95 34 -5 0 -27 -6 -47 -12z"/>
<path d="M1388 719 c-31 -17 -21 -54 29 -109 54 -60 68 -52 27 17 -15 26 -27
59 -26 75 1 30 -4 33 -30 17z"/>
</g>
</svg>
