<?xml version="1.0" standalone="no"?>
<!DOCTYPE svg PUBLIC "-//W3C//DTD SVG 20010904//EN"
 "http://www.w3.org/TR/2001/REC-SVG-20010904/DTD/svg10.dtd">
<svg version="1.0" xmlns="http://www.w3.org/2000/svg"
 width="256.000000pt" height="256.000000pt" viewBox="0 0 256.000000 256.000000"
 preserveAspectRatio="xMidYMid meet">
<metadata>
Created by potrace 1.16, written by Peter Selinger 2001-2019
</metadata>
<g transform="translate(0.000000,256.000000) scale(0.100000,-0.100000)"
fill="#e5e5e5" stroke="none">
<path d="M1013 2331 c-53 -9 -73 -26 -73 -61 0 -23 -8 -32 -47 -51 l-48 -24
-5 -86 c-5 -83 -18 -119 -43 -119 -6 0 -34 23 -62 50 -41 41 -61 52 -101 60
-27 5 -60 12 -74 15 -50 12 -230 -134 -230 -187 0 -12 -17 -40 -39 -63 -75
-78 -141 -169 -141 -194 0 -13 8 -33 17 -44 17 -18 17 -20 -12 -40 -16 -12
-38 -27 -50 -32 -41 -21 -49 -60 -53 -248 -6 -240 8 -290 85 -322 34 -14 41
-29 22 -40 -5 -4 -14 -18 -20 -32 -13 -35 9 -71 104 -166 224 -223 259 -277
182 -277 -57 0 -134 31 -165 67 -23 26 -30 43 -30 76 0 49 -13 67 -50 67 -45
0 -70 -39 -82 -123 -10 -66 -9 -79 8 -113 24 -50 75 -83 198 -128 126 -48 221
-71 370 -91 185 -26 200 -18 237 115 36 131 89 210 140 210 32 0 39 -14 39
-85 0 -37 6 -60 19 -76 19 -23 24 -24 169 -24 181 0 192 5 192 92 0 66 13 93
45 93 47 0 94 -76 139 -222 37 -121 44 -125 187 -109 151 18 295 52 417 99
185 72 219 110 207 232 -9 90 -33 130 -79 130 -42 0 -54 -15 -53 -66 1 -24 -6
-52 -17 -68 -23 -36 -97 -68 -160 -70 -84 -2 -73 21 94 195 80 84 153 164 162
178 22 32 23 74 3 91 -23 19 -18 28 23 47 67 32 73 58 70 293 -2 158 -6 212
-18 234 -14 28 -54 59 -92 72 -23 8 -23 13 4 41 21 22 21 25 5 57 -9 19 -53
78 -97 131 -53 62 -80 102 -76 111 7 19 -88 122 -152 164 -46 30 -86 38 -97
20 -3 -5 -19 -10 -35 -10 -48 0 -80 -18 -129 -71 l-47 -51 -28 29 c-27 27 -28
31 -23 94 7 78 -5 101 -57 119 -28 9 -35 17 -40 46 -13 65 -28 69 -316 71
-140 1 -274 -2 -297 -6z m510 -20 c69 -7 87 -18 87 -55 0 -16 -5 -17 -32 -12
-120 25 -505 25 -604 0 -17 -4 -24 -2 -24 8 0 32 28 52 81 59 77 9 411 9 492
0z m95 -95 c78 -21 82 -27 82 -112 0 -68 2 -76 31 -109 l31 -35 -49 -57 c-116
-135 -133 -162 -133 -208 0 -26 -6 -47 -15 -55 -30 -25 -18 -65 35 -113 28
-25 50 -52 50 -61 0 -27 55 -47 113 -41 l52 5 -41 -19 c-58 -27 -74 -54 -74
-126 0 -79 15 -104 78 -138 30 -16 51 -31 48 -34 -3 -3 -27 1 -54 7 -68 18
-93 8 -157 -58 -59 -61 -68 -93 -40 -142 8 -14 14 -37 15 -52 0 -40 117 -204
246 -346 37 -41 59 -56 89 -62 22 -5 49 -11 60 -15 15 -4 33 3 60 25 38 30 39
31 47 10 11 -29 31 -34 90 -20 104 24 168 82 168 152 0 50 49 65 76 23 12 -18
17 -49 18 -105 1 -70 -1 -81 -24 -105 -33 -35 -73 -55 -200 -100 -134 -46
-239 -71 -368 -86 -77 -8 -106 -8 -116 0 -8 7 -36 66 -62 133 -57 142 -108
208 -161 208 -43 0 -56 -22 -64 -102 -4 -43 -12 -74 -20 -79 -18 -11 -279 -12
-297 -1 -7 5 -15 39 -19 78 -7 79 -23 104 -66 104 -52 0 -96 -59 -159 -211
l-55 -134 -69 3 c-164 6 -403 68 -554 144 -85 43 -105 79 -95 173 9 80 30 111
68 101 22 -5 27 -12 27 -37 0 -79 48 -129 152 -156 70 -18 97 -14 105 17 7 25
15 25 37 1 27 -30 71 -45 94 -32 12 6 32 11 45 11 30 0 119 92 229 237 84 110
108 152 108 182 0 11 8 33 17 49 23 40 7 76 -69 148 -58 56 -60 57 -106 51
-26 -4 -58 -9 -72 -12 -14 -4 1 8 32 25 72 41 93 80 84 154 -9 66 -27 93 -79
117 l-42 19 61 -5 c51 -5 65 -2 87 15 15 12 27 27 27 34 0 6 20 28 44 49 57
47 65 70 36 109 -15 20 -20 37 -16 54 4 13 1 34 -5 47 -15 28 -91 128 -141
186 l-38 43 30 28 c28 26 30 33 30 103 0 69 2 77 26 96 51 40 146 50 449 46
164 -3 245 -8 283 -19z m-1005 -171 c15 -3 37 -7 50 -10 34 -7 267 -303 267
-340 0 -11 10 -38 22 -61 l21 -41 -22 -31 c-39 -56 -50 -52 -182 55 -67 54
-158 126 -203 161 -101 79 -146 122 -146 140 0 19 69 99 105 122 17 11 37 18
45 15 8 -2 27 -7 43 -10z m1463 -47 c35 -33 64 -69 64 -79 0 -24 -108 -117
-369 -320 -92 -72 -107 -80 -127 -70 -13 5 -31 22 -40 36 -17 25 -16 28 4 71
12 24 22 53 22 64 0 19 115 178 208 288 35 41 51 52 76 53 17 1 42 5 56 9 14
4 29 8 33 9 5 1 38 -27 73 -61z m-1560 -207 c125 -89 356 -290 351 -305 -2 -7
-41 -11 -108 -12 -97 -1 -118 3 -298 53 -107 30 -203 59 -213 64 -10 5 -18 21
-18 34 0 13 -4 27 -10 30 -21 13 -8 46 41 107 77 95 97 111 130 104 16 -3 72
-37 125 -75z m1743 22 c28 -32 63 -74 78 -95 24 -35 25 -40 10 -56 -8 -9 -17
-28 -19 -42 -4 -30 -27 -39 -268 -103 -147 -39 -176 -44 -265 -43 -73 1 -100
4 -100 13 0 12 84 90 225 207 98 81 241 176 266 176 15 0 40 -20 73 -57z
m-1949 -272 c250 -64 344 -93 373 -115 18 -13 51 -33 74 -45 44 -22 57 -45 57
-106 0 -60 -12 -81 -56 -101 -23 -10 -55 -30 -70 -43 -20 -16 -89 -40 -226
-77 -191 -52 -265 -64 -277 -45 -3 5 -19 12 -35 16 -17 4 -35 15 -40 25 -13
24 -13 421 0 454 6 17 17 26 32 26 13 0 32 7 42 15 25 19 35 19 126 -4z m2067
5 c15 -8 36 -17 46 -20 9 -3 22 -17 27 -31 11 -29 12 -396 1 -433 -7 -26 -60
-51 -121 -59 -51 -6 -421 98 -458 129 -15 12 -47 32 -70 42 -35 16 -44 26 -53
59 -16 61 -3 116 33 136 17 9 52 31 79 49 35 23 92 44 202 73 83 23 172 47
197 54 62 17 84 17 117 1z m-1473 -506 c65 -60 73 -81 47 -125 -11 -20 -21
-45 -21 -57 0 -11 -10 -34 -22 -51 -36 -52 -205 -261 -225 -278 -10 -9 -47
-20 -83 -24 l-65 -7 -162 168 c-182 189 -194 205 -171 231 9 10 18 27 20 38 5
27 28 37 223 90 94 26 172 48 173 50 2 2 58 3 124 4 l120 0 42 -39z m1176 -6
c218 -59 248 -70 256 -97 3 -12 13 -30 21 -39 14 -15 13 -21 -5 -50 -31 -50
-211 -244 -278 -300 l-59 -49 -60 6 c-57 6 -62 9 -113 63 -80 85 -212 262
-212 284 0 10 -9 37 -20 59 -12 22 -18 48 -15 59 3 10 28 38 54 64 l49 45 109
0 c96 -1 126 -6 273 -45z"/>
<path d="M1202 2140 c-42 -26 -69 -71 -82 -140 -18 -87 -29 -115 -55 -140 -29
-27 -32 -40 -9 -40 37 0 72 58 94 155 18 77 28 102 54 130 85 90 175 37 210
-124 20 -86 37 -124 68 -145 42 -30 51 -17 15 23 -27 30 -37 52 -46 104 -19
107 -46 154 -108 186 -34 18 -104 13 -141 -9z"/>
<path d="M1270 2020 c0 -16 5 -30 10 -30 6 0 10 14 10 30 0 17 -4 30 -10 30
-5 0 -10 -13 -10 -30z"/>
<path d="M1270 1880 c0 -16 5 -30 10 -30 6 0 10 14 10 30 0 17 -4 30 -10 30
-5 0 -10 -13 -10 -30z"/>
<path d="M1270 1721 c0 -22 5 -43 10 -46 6 -4 10 12 10 39 0 25 -4 46 -10 46
-5 0 -10 -18 -10 -39z"/>
<path d="M1191 1618 c-44 -12 -79 -36 -93 -62 -10 -20 -10 -20 8 -4 38 33 96
50 173 50 88 -1 135 -13 168 -44 12 -12 23 -16 23 -10 0 18 -61 59 -105 71
-48 13 -127 13 -174 -1z"/>
<path d="M1175 1522 c-22 -10 -70 -45 -107 -77 -83 -70 -85 -87 -27 -171 86
-124 157 -176 238 -176 80 0 155 53 236 167 69 96 69 101 -15 174 -95 82 -121
94 -210 98 -58 3 -84 0 -115 -15z m180 -23 c77 -21 128 -91 127 -175 -1 -96
-58 -170 -155 -199 -120 -36 -246 66 -247 198 0 62 20 108 61 140 58 44 137
57 214 36z m-301 -145 c-6 -43 -8 -46 -20 -29 -18 25 -18 44 3 67 22 25 26 18
17 -38z m480 -16 c-9 -17 -17 -28 -18 -26 -2 1 -6 25 -10 52 l-6 50 25 -24
c23 -22 23 -24 9 -52z"/>
<path d="M1203 1400 c-57 -34 -56 -119 1 -176 42 -42 78 -51 122 -30 90 42
100 173 17 215 -34 17 -104 13 -140 -9z m121 -69 c23 -26 13 -56 -23 -71 -23
-9 -33 -9 -50 2 -33 20 -35 41 -6 65 32 28 56 29 79 4z"/>
<path d="M1000 1161 c-12 -17 -20 -39 -18 -49 3 -12 11 -4 27 26 27 52 22 65
-9 23z"/>
<path d="M1530 1185 c0 -14 42 -75 51 -75 12 0 -15 52 -35 69 -9 8 -16 10 -16
6z"/>
<path d="M1277 1023 c-11 -10 -8 -51 3 -58 6 -4 10 8 10 29 0 37 -2 41 -13 29z"/>
<path d="M1193 905 c-47 -20 -66 -56 -61 -114 16 -163 218 -202 288 -55 49
101 -15 185 -142 184 -29 -1 -67 -7 -85 -15z m167 -30 c77 -40 60 -139 -31
-186 -37 -18 -47 -20 -80 -10 -44 13 -84 57 -94 102 -8 36 15 75 56 96 33 17
114 16 149 -2z"/>
<path d="M1270 590 c0 -11 5 -20 10 -20 6 0 10 9 10 20 0 11 -4 20 -10 20 -5
0 -10 -9 -10 -20z"/>
<path d="M1640 589 c0 -5 5 -7 10 -4 6 3 10 8 10 11 0 2 -4 4 -10 4 -5 0 -10
-5 -10 -11z"/>
<path d="M1234 526 c-11 -28 1 -61 28 -75 25 -15 29 -14 52 8 46 43 28 81 -36
81 -24 0 -41 -5 -44 -14z m86 -24 c0 -14 -23 -32 -41 -32 -37 0 -44 40 -9 52
16 6 50 -8 50 -20z"/>
<path d="M823 493 c-17 -6 -16 -28 1 -42 21 -17 45 15 25 33 -8 8 -20 12 -26
9z m22 -23 c-3 -5 -11 -10 -16 -10 -6 0 -7 5 -4 10 3 6 11 10 16 10 6 0 7 -4
4 -10z"/>
<path d="M1716 493 c-14 -15 -5 -43 14 -43 13 0 20 7 20 19 0 19 -23 35 -34
24z m24 -23 c0 -5 -4 -10 -10 -10 -5 0 -10 5 -10 10 0 6 5 10 10 10 6 0 10 -4
10 -10z"/>
<path d="M390 380 c0 -5 5 -10 10 -10 6 0 10 5 10 10 0 6 -4 10 -10 10 -5 0
-10 -4 -10 -10z"/>
<path d="M2155 380 c4 -6 11 -8 16 -5 14 9 11 15 -7 15 -8 0 -12 -5 -9 -10z"/>
<path d="M537 374 c-4 -4 -7 -16 -7 -26 0 -13 7 -18 26 -18 21 0 25 4 22 22
-3 23 -27 35 -41 22z"/>
<path d="M710 360 c-23 -23 -22 -38 3 -54 12 -8 22 -8 35 0 25 16 27 51 3 64
-17 8 -24 7 -41 -10z m40 -19 c0 -14 -18 -23 -30 -16 -6 4 -8 11 -5 16 8 12
35 12 35 0z"/>
<path d="M1806 365 c-31 -31 -9 -70 36 -63 30 4 31 45 2 65 -19 12 -24 12 -38
-2z m42 -27 c-3 -7 -11 -13 -18 -13 -7 0 -15 6 -17 13 -3 7 4 12 17 12 13 0
20 -5 18 -12z"/>
<path d="M1991 366 c-16 -19 -6 -36 20 -36 15 0 20 6 17 22 -4 27 -21 33 -37
14z"/>
<path d="M780 1690 c0 -5 5 -10 10 -10 6 0 10 5 10 10 0 6 -4 10 -10 10 -5 0
-10 -4 -10 -10z"/>
<path d="M840 1655 c-7 -9 -8 -15 -2 -15 5 0 12 7 16 15 3 8 4 15 2 15 -2 0
-9 -7 -16 -15z"/>
<path d="M877 1622 c-20 -22 -22 -33 -4 -26 15 6 40 44 29 44 -5 0 -16 -8 -25
-18z"/>
<path d="M1765 1690 c3 -5 8 -10 11 -10 2 0 4 5 4 10 0 6 -5 10 -11 10 -5 0
-7 -4 -4 -10z"/>
<path d="M1700 1666 c0 -2 8 -10 18 -17 15 -13 16 -12 3 4 -13 16 -21 21 -21
13z"/>
<path d="M1658 1634 c13 -25 42 -50 42 -37 0 5 -12 20 -26 34 -24 21 -26 22
-16 3z"/>
<path d="M312 1737 c-65 -66 -88 -106 -26 -46 36 34 99 109 92 109 -2 0 -32
-28 -66 -63z"/>
<path d="M340 1690 c-17 -22 -28 -40 -23 -40 6 0 24 18 42 40 17 22 28 40 22
40 -5 0 -24 -18 -41 -40z"/>
<path d="M2223 1750 c38 -48 86 -94 93 -88 2 2 -26 33 -63 69 -56 54 -61 57
-30 19z"/>
<path d="M2178 1725 c6 -11 25 -33 43 -50 l32 -30 -20 30 c-12 17 -31 39 -43
50 l-23 20 11 -20z"/>
<path d="M426 1400 c-78 -39 -106 -84 -106 -170 0 -44 5 -56 29 -81 16 -16 36
-29 44 -29 22 0 67 39 67 60 0 20 -27 46 -37 36 -3 -3 -2 -6 4 -6 20 0 24 -33
7 -51 -39 -43 -84 -8 -84 65 0 81 35 127 112 146 69 18 106 -6 133 -85 23 -68
59 -101 99 -91 31 8 56 52 56 101 0 44 -25 48 -33 6 -6 -30 -39 -57 -57 -46
-5 3 -12 22 -16 43 -15 85 -57 122 -136 122 -24 -1 -61 -10 -82 -20z"/>
<path d="M1973 1400 c-23 -14 -35 -31 -43 -62 -19 -68 -29 -88 -44 -88 -18 0
-46 38 -46 63 0 11 -5 17 -12 14 -18 -6 -14 -71 5 -101 9 -13 31 -27 49 -31
27 -6 35 -3 55 20 13 15 29 47 35 71 17 61 47 87 102 87 88 0 151 -66 143
-151 -3 -24 -13 -52 -23 -63 -35 -39 -93 -2 -66 42 11 18 11 20 0 17 -7 -3
-13 -19 -13 -38 0 -27 6 -38 28 -50 24 -13 30 -13 55 0 59 33 62 143 7 216
-52 67 -167 94 -232 54z"/>
<path d="M798 970 c-21 -19 -28 -30 -18 -30 20 0 80 37 80 50 0 19 -30 10 -62
-20z"/>
<path d="M358 929 c-28 -16 -23 -65 7 -85 24 -16 27 -16 45 1 26 23 26 71 1
85 -24 12 -31 12 -53 -1z m50 -43 c4 -21 -14 -37 -34 -29 -16 6 -26 32 -18 44
10 17 49 5 52 -15z"/>
<path d="M613 855 c-19 -16 -23 -24 -13 -25 19 0 60 28 60 41 0 16 -18 10 -47
-16z"/>
<path d="M428 730 c-23 -20 -28 -30 -17 -30 19 0 69 37 69 51 0 17 -19 9 -52
-21z"/>
<path d="M552 707 c-25 -30 -24 -62 4 -90 15 -15 35 -27 45 -27 44 0 68 99 30
120 -27 14 -66 13 -79 -3z m72 -33 c15 -40 -8 -63 -45 -44 -19 10 -26 40 -12
53 12 13 51 7 57 -9z"/>
<path d="M1705 990 c-7 -11 28 -35 65 -45 24 -6 23 -5 -8 24 -34 33 -47 37
-57 21z"/>
<path d="M2147 922 c-22 -25 -21 -55 2 -76 15 -14 24 -15 40 -7 44 24 48 79 5
95 -24 9 -29 8 -47 -12z m60 -28 c4 -11 -1 -22 -12 -31 -16 -11 -21 -11 -33 1
-8 8 -12 22 -9 30 8 21 46 21 54 0z"/>
<path d="M1906 871 c-6 -10 36 -41 55 -41 8 0 8 5 -1 16 -19 22 -48 36 -54 25z"/>
<path d="M2080 751 c0 -14 50 -51 68 -51 11 0 8 9 -13 30 -28 29 -55 39 -55
21z"/>
<path d="M1927 702 c-10 -10 -17 -30 -17 -43 0 -28 33 -69 56 -69 23 0 64 46
64 73 0 50 -70 76 -103 39z m77 -27 c6 -18 -29 -58 -46 -53 -23 8 -33 36 -19
52 17 20 57 21 65 1z"/>
</g>
</svg>
