<?xml version="1.0" standalone="no"?>
<!DOCTYPE svg PUBLIC "-//W3C//DTD SVG 20010904//EN"
 "http://www.w3.org/TR/2001/REC-SVG-20010904/DTD/svg10.dtd">
<svg version="1.0" xmlns="http://www.w3.org/2000/svg"
 width="256.000000pt" height="256.000000pt" viewBox="0 0 256.000000 256.000000"
 preserveAspectRatio="xMidYMid meet">
<metadata>
Created by potrace 1.16, written by Peter Selinger 2001-2019
</metadata>
<g transform="translate(0.000000,256.000000) scale(0.100000,-0.100000)"
fill="#e5e5e5" stroke="none">
<path d="M1214 2264 c-21 -14 -48 -34 -59 -44 -18 -17 -48 -19 -340 -22 -275
-4 -327 -7 -368 -22 -61 -23 -90 -59 -85 -107 3 -36 2 -37 -36 -44 -146 -23
-175 -86 -156 -335 l5 -64 -34 -7 c-18 -4 -45 -16 -60 -27 -23 -17 -26 -27
-28 -80 -2 -82 12 -98 102 -117 52 -11 140 -15 345 -14 298 0 329 5 364 52 18
24 19 30 7 49 -11 18 -11 22 3 30 18 10 21 39 6 54 -6 6 7 39 39 94 69 119 78
130 125 151 36 16 67 19 241 19 262 0 265 -2 346 -145 46 -81 56 -106 52 -132
-4 -24 -1 -34 10 -39 13 -4 14 -10 5 -23 -20 -32 -1 -71 45 -91 38 -18 68 -20
322 -20 154 0 300 5 325 10 25 6 55 12 67 15 42 10 53 32 53 105 0 75 -11 89
-81 108 l-34 8 4 131 c3 118 1 136 -18 175 -24 50 -71 82 -138 93 -41 6 -42 7
-41 48 0 33 -5 46 -30 68 -53 48 -84 52 -426 56 l-320 5 -40 33 c-80 64 -112
69 -172 29z m120 -13 c53 -37 112 -101 134 -147 15 -32 15 -38 2 -62 -8 -15
-39 -39 -69 -54 -91 -46 -225 -33 -293 29 -23 20 -23 71 -1 103 37 56 151 160
175 160 5 0 28 -13 52 -29z m-614 -66 c0 -4 -7 -20 -16 -37 -15 -28 -15 -59 0
-98 5 -13 -16 -15 -161 -14 -114 1 -168 5 -171 13 -6 19 19 81 38 91 28 15 30
13 20 -15 -6 -15 -6 -34 0 -47 8 -20 9 -19 9 13 1 56 27 81 90 87 51 5 53 4
42 -16 -13 -25 -14 -81 -2 -101 6 -8 7 3 4 30 -4 35 0 50 17 72 19 23 28 27
76 27 30 0 54 -2 54 -5z m120 1 c0 -2 -7 -17 -15 -32 -19 -37 -19 -42 4 -87
l19 -37 -58 0 c-34 0 -62 5 -67 13 -17 21 -22 58 -12 86 18 46 39 61 86 61 23
0 43 -2 43 -4z m138 -26 c-23 -31 -30 -92 -12 -110 6 -6 8 5 6 31 -4 35 0 45
29 75 27 28 40 34 76 34 l42 0 -31 -50 c-24 -39 -30 -57 -25 -84 l6 -35 -86 0
c-96 0 -116 7 -138 49 -20 39 -19 62 6 94 18 23 27 26 85 26 l65 0 -23 -30z
m579 8 c32 -36 45 -68 38 -95 -4 -17 -2 -23 6 -18 18 12 4 84 -22 111 l-22 24
62 0 c34 0 71 -4 81 -10 28 -15 40 -61 25 -97 -21 -50 -49 -62 -145 -62 l-86
0 4 35 c3 26 -3 47 -26 85 l-31 49 48 0 c37 0 52 -5 68 -22z m283 -10 c23 -38
25 -66 8 -103 -10 -23 -17 -25 -70 -25 l-59 0 16 30 c19 37 19 80 -1 108 -15
22 -15 22 36 22 46 0 52 -3 70 -32z m120 22 c26 -14 41 -63 30 -100 -5 -17 -5
-28 0 -25 18 11 21 65 6 96 l-16 32 50 -5 c57 -6 86 -27 99 -72 8 -26 9 -27
10 -8 1 13 -4 32 -10 43 -10 19 -9 19 10 9 31 -16 53 -55 49 -86 l-3 -26 -167
-2 c-155 -1 -185 3 -158 19 15 9 12 79 -5 101 -8 10 -15 22 -15 27 0 11 98 9
120 -3z m-1105 -170 c229 -9 230 -9 288 -39 32 -16 78 -33 103 -37 60 -9 142
10 191 43 38 26 38 26 343 35 442 14 541 0 582 -82 19 -37 23 -126 12 -237
l-7 -60 -241 -7 c-220 -7 -308 -14 -391 -31 -29 -6 -31 -4 -78 88 -26 52 -59
106 -72 119 -46 46 -110 58 -304 58 -269 0 -289 -9 -377 -178 -41 -80 -51 -92
-69 -88 -56 16 -173 25 -396 32 l-246 7 -7 108 c-15 237 30 274 334 277 58 0
209 -3 335 -8z m-330 -410 c228 -9 315 -21 336 -46 10 -12 9 -18 -3 -30 -13
-13 -65 -14 -401 -8 l-387 7 0 23 c0 27 23 42 83 54 56 11 112 11 372 0z
m1881 -1 c64 -11 101 -36 91 -62 -4 -11 -77 -15 -391 -21 -213 -4 -391 -4
-396 -1 -22 14 -10 44 23 53 69 21 98 25 277 32 290 11 329 11 396 -1z m-1556
-125 c13 -14 12 -18 -13 -40 -28 -24 -32 -24 -235 -26 -321 -4 -450 1 -484 18
-33 17 -43 36 -34 61 6 15 37 16 379 9 314 -6 374 -9 387 -22z m1636 11 c8
-20 -13 -45 -56 -63 -51 -23 -663 -19 -697 4 -30 19 -30 52 0 59 26 6 177 10
510 13 204 2 238 0 243 -13z"/>
<path d="M1236 2171 c-42 -28 -50 -47 -36 -82 28 -66 171 -53 170 15 -1 25
-16 45 -50 69 -31 22 -48 21 -84 -2z m81 -65 c-2 -6 -18 -12 -35 -14 -37 -4
-44 19 -15 51 17 18 18 18 36 -4 10 -12 16 -27 14 -33z"/>
<path d="M435 1889 c-7 -65 -3 -90 10 -77 12 11 18 148 7 148 -5 0 -13 -32
-17 -71z"/>
<path d="M2105 1913 c3 -27 8 -63 11 -82 4 -27 2 -33 -10 -28 -19 8 -66 -29
-66 -52 0 -26 32 -51 67 -51 55 0 85 66 43 92 -15 10 -20 24 -20 59 0 60 -10
109 -22 109 -5 0 -7 -20 -3 -47z m39 -142 c16 -17 16 -20 1 -35 -9 -9 -30 -16
-46 -16 -40 0 -50 27 -20 52 29 23 44 23 65 -1z"/>
<path d="M718 1927 c-5 -10 -8 -37 -7 -60 0 -38 1 -40 10 -17 6 13 9 40 7 60
-2 27 -5 31 -10 17z"/>
<path d="M1835 1896 c3 -27 9 -55 12 -62 3 -8 -5 -17 -19 -23 -73 -28 -73
-120 0 -141 103 -28 173 103 72 136 -32 11 -36 16 -43 65 -5 30 -13 59 -19 64
-7 7 -8 -6 -3 -39z m83 -119 c23 -19 14 -56 -20 -77 -41 -25 -60 -25 -89 -1
-20 16 -22 23 -14 47 17 48 81 64 123 31z"/>
<path d="M256 1884 c-3 -9 -6 -33 -6 -54 0 -21 -4 -42 -10 -45 -18 -11 -11
-54 11 -65 34 -19 64 -9 67 22 3 22 -2 30 -23 40 -25 11 -27 15 -21 59 6 46
-6 75 -18 43z m49 -134 c0 -23 -49 -20 -53 3 -3 15 2 18 25 15 17 -2 28 -9 28
-18z"/>
<path d="M2291 1849 c3 -46 0 -54 -19 -62 -44 -20 -35 -77 12 -77 12 0 27 5
34 12 15 15 16 54 2 63 -5 3 -10 28 -10 55 0 27 -5 52 -11 55 -7 5 -10 -10 -8
-46z m22 -86 c11 -10 -13 -33 -34 -33 -18 0 -26 20 -12 33 8 9 38 9 46 0z"/>
<path d="M662 1809 c-88 -26 -44 -141 53 -141 70 0 99 64 53 116 -27 30 -61
38 -106 25z m71 -20 c35 -16 49 -51 31 -77 -19 -28 -59 -35 -93 -17 -51 26
-49 74 4 95 27 12 31 12 58 -1z"/>
<path d="M437 1802 c-55 -7 -58 -84 -3 -98 58 -14 94 11 83 58 -7 28 -40 45
-80 40z m47 -25 c30 -22 16 -52 -23 -52 -44 0 -65 29 -37 51 24 17 37 18 60 1z"/>
<path d="M200 1750 c0 -5 5 -10 10 -10 6 0 10 5 10 10 0 6 -4 10 -10 10 -5 0
-10 -4 -10 -10z"/>
<path d="M340 1750 c0 -5 7 -10 15 -10 8 0 15 5 15 10 0 6 -7 10 -15 10 -8 0
-15 -4 -15 -10z"/>
<path d="M546 1751 c-3 -5 1 -11 9 -15 15 -6 29 7 18 18 -9 9 -21 8 -27 -3z"/>
<path d="M1990 1750 c0 -5 7 -10 15 -10 8 0 15 5 15 10 0 6 -7 10 -15 10 -8 0
-15 -4 -15 -10z"/>
<path d="M2200 1750 c0 -5 5 -10 10 -10 6 0 10 5 10 10 0 6 -4 10 -10 10 -5 0
-10 -4 -10 -10z"/>
<path d="M2350 1749 c0 -5 5 -7 10 -4 6 3 10 8 10 11 0 2 -4 4 -10 4 -5 0 -10
-5 -10 -11z"/>
<path d="M850 1730 c-12 -8 -12 -10 3 -16 21 -8 35 2 21 16 -5 5 -15 6 -24 0z"/>
<path d="M1685 1730 c-8 -13 15 -24 27 -12 6 6 4 11 -6 15 -8 3 -18 2 -21 -3z"/>
<path d="M1139 1704 c-13 -14 -41 -33 -62 -41 -34 -14 -42 -26 -103 -152 -76
-158 -210 -464 -219 -503 -7 -27 4 -47 60 -110 14 -17 49 -18 466 -18 l451 0
40 43 c34 36 38 47 34 76 -7 43 -136 344 -224 521 -60 120 -71 136 -99 145
-18 5 -44 22 -58 38 -25 26 -28 27 -144 27 -114 0 -118 -1 -142 -26z m256 -41
c14 -16 40 -33 58 -39 28 -9 39 -25 91 -130 88 -179 218 -485 211 -498 -21
-40 -35 -60 -47 -67 -16 -11 -839 -12 -853 -1 -17 12 -45 60 -45 77 0 32 221
528 262 586 10 15 30 30 45 34 16 3 40 20 55 36 26 28 31 29 112 29 80 0 87
-2 111 -27z"/>
<path d="M1270 1651 c0 -6 0 -14 1 -17 1 -3 -12 -19 -27 -35 -15 -16 -23 -29
-17 -29 5 0 18 9 28 20 10 11 25 18 34 15 23 -7 44 9 39 31 -3 20 -58 34 -58
15z m41 -16 c-1 -15 -24 -12 -29 3 -3 9 2 13 12 10 10 -1 17 -7 17 -13z"/>
<path d="M1251 1534 c-17 -14 -31 -34 -31 -44 0 -17 3 -16 25 5 29 30 68 32
113 5 48 -29 58 -59 37 -104 -21 -45 -54 -70 -164 -127 -163 -86 -207 -190
-109 -262 46 -34 291 -48 321 -18 16 16 -17 37 -68 45 -118 16 -175 41 -175
75 0 24 26 47 118 102 44 26 91 64 110 88 27 36 32 51 32 97 0 30 -6 70 -14
89 -31 73 -136 99 -195 49z"/>
<path d="M1040 1410 c-28 -28 -36 -69 -19 -99 13 -23 12 -30 -3 -60 -27 -53
-21 -72 7 -25 21 36 30 42 67 47 79 11 111 84 61 139 -22 25 -87 24 -113 -2z
m100 -25 c27 -33 -27 -93 -75 -81 -27 7 -34 41 -15 77 13 23 72 26 90 4z"/>
<path d="M1473 1200 c-56 -23 -45 -91 16 -100 22 -3 37 -12 42 -25 8 -18 9
-17 7 5 -1 14 5 37 12 52 11 23 10 31 -4 53 -17 26 -36 30 -73 15z m57 -39 c0
-4 -9 -16 -20 -26 -19 -17 -22 -18 -37 -2 -16 15 -15 18 1 36 14 16 23 18 37
10 11 -5 19 -13 19 -18z"/>
<path d="M933 1052 c-12 -8 -16 -24 -14 -63 1 -25 3 -26 39 -19 67 12 79 33
42 70 -21 21 -46 25 -67 12z m57 -27 c10 -12 10 -18 0 -30 -17 -21 -54 -15
-58 9 -7 32 36 48 58 21z"/>
<path d="M192 1210 c-40 -5 -79 -13 -87 -20 -22 -19 -19 -109 7 -177 12 -34
37 -74 60 -97 22 -23 38 -48 38 -62 0 -26 54 -94 75 -94 7 0 15 -12 18 -27 4
-19 35 -53 92 -103 138 -119 266 -196 425 -255 41 -15 98 -38 125 -51 75 -36
189 -54 340 -54 142 0 262 17 317 46 18 10 76 34 128 53 52 20 135 58 183 84
145 79 342 237 353 283 3 13 14 26 25 29 28 9 59 54 59 85 0 19 8 33 26 45 31
20 80 120 95 195 14 73 2 105 -43 114 -59 10 -421 17 -488 9 l-65 -8 1 -38 c1
-36 74 -200 113 -256 17 -24 18 -29 4 -55 -8 -16 -13 -41 -11 -56 l4 -29 -80
-6 c-88 -7 -200 -2 -286 13 -80 14 -699 9 -727 -6 -23 -13 -173 -16 -261 -5
-44 5 -52 9 -47 23 3 10 -1 36 -10 57 l-16 40 42 74 c56 97 88 176 89 215 l0
31 -67 6 c-88 9 -337 6 -431 -3z m95 -39 c19 -39 -4 -83 -53 -100 -34 -12 -44
-11 -77 2 -37 16 -38 17 -35 64 l3 48 40 0 c36 0 40 -3 40 -24 0 -19 -8 -27
-35 -37 -33 -12 -33 -13 -8 -13 38 -1 61 25 54 61 -5 28 -4 29 26 26 23 -2 36
-11 45 -27z m101 4 c20 -43 14 -91 -13 -124 -41 -48 -105 -60 -192 -36 -10 3
-4 -1 12 -9 37 -19 112 -20 145 -3 42 21 72 76 67 122 -2 22 -7 48 -11 58 -7
15 -2 17 38 17 41 0 48 -3 66 -32 11 -18 20 -50 20 -71 0 -89 -60 -146 -175
-166 -33 -6 -71 -13 -85 -15 -14 -3 9 -3 50 -1 41 2 94 11 118 20 95 38 130
134 87 238 -6 15 -1 17 34 17 38 0 42 -2 48 -30 3 -16 9 -30 14 -30 4 0 4 14
-1 30 -8 28 -7 30 21 30 22 0 29 -5 29 -18 0 -11 -29 -78 -65 -150 l-64 -131
-46 -7 c-61 -9 -261 11 -282 28 -18 14 -73 125 -73 146 0 9 5 10 19 2 80 -42
175 33 147 118 -7 21 -5 22 37 22 37 0 46 -4 55 -25z m1656 -13 c-21 -40 -18
-108 7 -152 33 -58 101 -91 197 -96 l77 -4 -80 14 c-88 14 -116 26 -157 64
-53 49 -60 131 -17 186 16 20 29 26 61 26 34 0 39 -3 33 -17 -14 -37 -16 -69
-7 -93 9 -22 10 -19 9 20 0 71 15 90 70 90 37 0 44 -3 35 -12 -7 -7 -12 -26
-11 -42 l1 -31 8 33 c10 45 23 56 55 48 19 -5 25 -11 21 -23 -11 -28 21 -63
57 -62 l32 1 -31 9 c-43 12 -61 34 -44 54 13 16 38 19 64 9 11 -4 16 -19 16
-51 0 -41 -2 -45 -36 -59 -43 -18 -79 -12 -113 19 -24 22 -24 22 -13 1 21 -40
88 -54 146 -29 16 7 17 5 11 -16 -4 -13 -18 -48 -31 -77 -32 -72 -60 -83 -224
-85 -92 -2 -131 2 -143 11 -22 19 -139 263 -133 279 3 7 16 13 30 13 23 0 24
-3 20 -37 l-5 -38 13 35 c11 29 19 36 48 41 47 7 51 3 34 -29z m-1506 -315 c7
-6 12 -22 10 -36 -4 -31 -28 -38 -133 -40 -113 -2 -175 27 -175 80 0 15 15 16
143 11 78 -2 148 -9 155 -15z m1784 -7 c-7 -55 -73 -76 -209 -68 -88 6 -113
22 -95 62 11 25 14 25 134 29 183 5 173 6 170 -23z m-654 -97 c34 -26 45 -77
38 -179 -10 -161 -69 -231 -221 -265 -78 -17 -320 -17 -410 0 -113 21 -188 83
-209 174 -14 59 -9 213 8 245 25 47 26 48 465 46 284 -2 305 -3 329 -21z
m-960 -3 c143 0 154 -1 147 -17 -17 -40 -17 -188 -1 -252 9 -35 14 -66 12 -69
-10 -9 -164 60 -265 118 -178 103 -284 191 -265 222 5 7 39 9 112 4 58 -3 175
-6 260 -6z m1522 -8 c0 -27 -73 -92 -180 -162 -105 -69 -278 -156 -327 -166
l-32 -6 15 48 c17 56 22 176 11 246 l-8 48 188 3 c103 1 221 3 261 5 63 2 72
0 72 -16z"/>
<path d="M2176 1046 c19 -49 127 -72 199 -42 51 22 43 25 -19 8 -66 -18 -114
-10 -156 24 -19 16 -28 20 -24 10z"/>
<path d="M1194 701 c-92 -53 -154 -151 -140 -224 8 -41 60 -94 107 -107 46
-13 194 -13 244 1 21 6 54 26 72 44 27 27 33 41 33 74 0 23 -6 57 -14 75 -34
80 -146 166 -218 166 -18 0 -56 -13 -84 -29z m175 -23 c71 -43 112 -102 119
-167 4 -47 2 -53 -29 -84 -95 -95 -360 -65 -384 42 -15 71 46 170 134 216 63
33 97 31 160 -7z"/>
<path d="M1225 589 c-85 -75 -3 -172 109 -129 40 15 52 50 32 92 -16 34 -61
68 -90 68 -8 0 -31 -14 -51 -31z m93 -41 c22 -22 14 -46 -18 -53 -59 -13 -89
15 -54 49 18 19 55 21 72 4z"/>
</g>
</svg>
