<?xml version="1.0" standalone="no"?>
<!DOCTYPE svg PUBLIC "-//W3C//DTD SVG 20010904//EN"
 "http://www.w3.org/TR/2001/REC-SVG-20010904/DTD/svg10.dtd">
<svg version="1.0" xmlns="http://www.w3.org/2000/svg"
 width="256.000000pt" height="256.000000pt" viewBox="0 0 256.000000 256.000000"
 preserveAspectRatio="xMidYMid meet">
<metadata>
Created by potrace 1.16, written by Peter Selinger 2001-2019
</metadata>
<g transform="translate(0.000000,256.000000) scale(0.100000,-0.100000)"
fill="#e5e5e5" stroke="none">
<path d="M1035 2220 c-55 -4 -112 -12 -126 -18 -29 -12 -59 -48 -59 -70 0 -8
-12 -28 -26 -45 -30 -36 -65 -38 -100 -6 -11 10 -33 19 -48 19 -37 0 -125 -48
-208 -113 -37 -28 -120 -93 -185 -144 -230 -178 -251 -203 -228 -269 8 -21 14
-54 15 -73 0 -48 53 -95 234 -206 l146 -90 -6 -200 c-7 -192 -6 -202 15 -242
14 -28 37 -51 66 -69 l46 -26 -23 -16 c-43 -29 -50 -62 -22 -94 16 -16 16 -18
0 -24 -9 -3 -16 -17 -16 -29 0 -27 43 -57 107 -74 37 -10 42 -15 45 -43 4 -47
36 -60 126 -54 75 5 122 24 122 51 0 12 20 15 115 15 107 0 115 -1 115 -19 0
-41 25 -51 133 -51 110 0 147 13 147 51 0 18 8 19 114 19 111 0 115 -1 118
-22 4 -27 58 -46 136 -47 75 -1 112 20 112 66 0 17 11 25 49 38 88 29 127 78
84 105 -17 10 -17 10 0 20 25 16 21 57 -10 86 -14 13 -24 25 -22 27 55 38 83
66 100 100 21 40 21 50 15 238 l-7 197 88 53 c138 82 260 168 277 194 9 13 16
37 16 53 0 16 6 47 14 68 8 23 10 48 6 60 -10 26 -100 108 -220 199 -52 40
-126 98 -165 130 -96 77 -195 135 -232 135 -17 0 -41 -9 -54 -19 -41 -32 -73
-30 -103 6 -14 17 -26 36 -26 41 0 25 -24 61 -49 72 -54 25 -397 36 -626 20z
m534 -39 c78 -9 101 -24 101 -64 0 -10 11 -32 24 -48 30 -36 30 -40 -70 -332
-76 -226 -87 -250 -126 -287 -13 -12 -37 -44 -54 -73 -38 -66 -68 -81 -165
-81 -101 0 -134 15 -164 73 -13 25 -37 60 -55 76 -17 17 -38 41 -45 55 -19 37
-175 512 -175 533 0 11 11 32 25 49 14 16 25 40 25 53 0 28 18 37 95 45 89 10
499 10 584 1z m-869 -131 c11 -11 30 -20 43 -20 44 0 59 -24 107 -175 18 -55
53 -154 77 -220 44 -117 45 -123 48 -255 l3 -135 -48 -46 c-26 -26 -68 -59
-93 -73 l-46 -27 -64 25 c-35 14 -77 26 -94 26 -45 0 -494 274 -528 323 -8 12
-15 38 -15 59 0 20 -5 49 -12 63 -15 34 -8 41 227 229 205 165 262 206 316
229 46 21 56 20 79 -3z m1275 -17 c77 -47 492 -378 505 -404 7 -13 7 -25 0
-38 -5 -11 -10 -38 -10 -61 0 -51 -15 -66 -170 -168 -249 -163 -321 -204 -374
-212 -28 -4 -72 -17 -98 -29 -56 -26 -74 -21 -159 45 -87 66 -87 68 -85 219
l2 130 78 227 c90 261 104 288 144 288 16 0 37 9 47 20 26 29 51 25 120 -17z
m-895 -674 c42 -81 118 -109 251 -94 73 9 116 36 149 97 28 51 58 88 73 88 5
0 6 -40 2 -102 -7 -125 0 -141 101 -217 85 -65 116 -71 190 -37 31 14 71 26
88 26 19 0 56 14 88 34 l56 33 7 -152 c4 -83 4 -172 0 -196 -9 -56 -44 -110
-88 -138 -31 -19 -41 -20 -79 -11 -23 5 -77 9 -118 8 l-75 -1 65 -7 c127 -16
201 -40 230 -75 11 -14 10 -19 -7 -36 -19 -20 -23 -20 -94 -5 -41 8 -116 18
-166 22 l-93 7 0 44 c0 33 -14 73 -53 156 -29 62 -63 139 -76 173 -18 50 -34
71 -91 121 -59 52 -77 62 -120 68 -84 11 -136 -7 -206 -74 -49 -47 -67 -74
-93 -137 -18 -44 -53 -123 -77 -177 -25 -54 -46 -116 -47 -137 l-1 -38 -91 -7
c-49 -3 -121 -13 -159 -21 -62 -12 -73 -12 -93 1 -29 19 -29 26 0 52 26 25
104 49 202 62 l70 10 -95 -4 c-52 -2 -104 -6 -115 -10 -14 -4 -32 4 -63 30
-74 64 -77 76 -76 277 0 98 3 180 6 183 3 3 27 -8 54 -24 27 -18 61 -31 80
-31 17 0 58 -12 90 -26 75 -33 103 -28 196 40 104 77 112 94 103 220 l-7 101
32 -30 c18 -16 40 -46 50 -66z m339 -287 c51 -51 66 -74 104 -168 25 -60 59
-138 76 -174 31 -65 40 -123 21 -135 -5 -3 -10 -15 -10 -25 0 -40 -31 -44
-330 -45 -191 0 -291 4 -304 11 -21 12 -46 75 -46 115 0 14 17 61 38 105 21
43 53 117 72 164 27 69 44 97 94 148 l60 62 83 0 83 0 59 -58z m-491 -524 c14
-55 45 -60 367 -56 246 3 284 5 307 20 15 10 28 28 30 40 3 22 6 23 98 20 102
-4 207 -22 266 -47 36 -15 36 -16 19 -35 -22 -24 -90 -47 -180 -60 -39 -5
-286 -10 -555 -10 -480 0 -580 6 -671 36 -56 18 -86 46 -67 62 30 24 210 57
330 61 45 1 48 0 56 -31z m942 -173 c-23 -28 -200 -13 -200 16 0 5 24 9 53 10
28 0 75 4 102 7 53 7 69 -4 45 -33z m-981 19 c28 -25 -165 -48 -194 -24 -8 7
-15 19 -15 27 0 12 16 13 103 8 56 -4 104 -9 106 -11z m509 -11 c-4 -22 -38
-31 -118 -31 -80 0 -114 9 -118 31 -3 15 9 17 118 17 109 0 121 -2 118 -17z"/>
<path d="M922 2070 c-27 -48 -10 -54 18 -7 21 34 25 47 13 47 -5 0 -18 -18
-31 -40z"/>
<path d="M1605 2088 c8 -26 42 -65 50 -56 3 3 -4 16 -15 31 -11 14 -20 30 -20
36 0 6 -5 11 -11 11 -6 0 -8 -9 -4 -22z"/>
<path d="M1020 2073 c-26 -10 -50 -36 -50 -54 0 -40 179 -552 201 -576 22 -22
29 -24 113 -21 l91 3 22 40 c12 22 46 117 76 210 31 94 69 207 86 253 29 77
30 85 16 111 -8 16 -25 31 -37 35 -28 7 -497 7 -518 -1z m532 -30 c10 -9 18
-22 18 -29 0 -29 -179 -546 -195 -564 -15 -17 -31 -20 -95 -20 -110 0 -108 -3
-195 270 -25 80 -56 174 -69 210 -39 104 -39 107 -17 129 20 20 32 21 278 21
225 0 259 -2 275 -17z"/>
<path d="M1138 1979 c-33 -18 -20 -104 51 -349 38 -133 71 -165 128 -125 24
17 46 80 94 275 35 138 37 185 10 200 -25 13 -260 13 -283 -1z m266 -15 c9 -3
16 -17 16 -29 0 -51 -83 -365 -106 -402 -9 -14 -24 -23 -38 -23 -30 0 -41 27
-96 240 -39 152 -47 200 -33 213 8 9 236 9 257 1z"/>
<path d="M1230 1912 c-28 -22 -37 -89 -17 -117 23 -30 102 -28 128 4 41 51 7
131 -56 131 -18 0 -43 -8 -55 -18z m92 -35 c21 -32 -7 -70 -47 -65 -41 4 -60
53 -30 74 22 16 65 11 77 -9z"/>
<path d="M1230 1726 c0 -14 44 -116 50 -116 4 0 16 25 28 55 14 38 16 52 6 44
-7 -6 -16 -19 -19 -30 -9 -27 -21 -24 -35 11 -11 27 -30 50 -30 36z"/>
<path d="M650 2010 c0 -11 59 -50 75 -50 11 1 -56 59 -67 60 -5 0 -8 -5 -8
-10z"/>
<path d="M513 1858 c-282 -214 -313 -242 -313 -278 0 -36 14 -51 95 -101 39
-24 134 -87 211 -140 163 -112 193 -129 229 -129 35 0 143 85 152 118 4 16 -4
54 -20 101 -136 402 -168 487 -183 498 -34 25 -63 13 -171 -69z m175 50 c5 -7
25 -62 45 -123 19 -60 58 -173 87 -250 61 -166 65 -209 24 -242 -84 -68 -101
-76 -137 -64 -18 6 -110 64 -205 129 -94 64 -196 132 -226 151 -30 19 -57 42
-59 52 -11 40 5 55 326 299 80 61 123 75 145 48z"/>
<path d="M610 1843 c8 -3 29 -12 45 -20 l30 -14 -24 21 c-13 11 -33 20 -45 19
-14 0 -16 -2 -6 -6z"/>
<path d="M528 1794 c-15 -14 -8 -19 31 -20 51 -2 106 -36 132 -82 14 -27 18
-30 13 -12 -7 32 -34 69 -65 92 -27 19 -100 34 -111 22z"/>
<path d="M480 1692 c-46 -23 -62 -55 -57 -120 5 -65 41 -121 109 -167 65 -45
108 -52 164 -25 77 38 100 4 39 -57 -20 -20 -33 -38 -30 -42 10 -9 78 34 99
63 25 32 14 69 -27 100 -27 20 -29 20 -76 3 -69 -24 -89 -22 -153 18 -68 43
-93 91 -77 150 18 66 103 81 142 24 21 -29 11 -49 -24 -49 -33 0 -39 -16 -9
-25 28 -9 58 3 71 27 17 32 -6 74 -55 98 -52 25 -71 25 -116 2z"/>
<path d="M711 1634 c0 -11 3 -14 6 -6 3 7 2 16 -1 19 -3 4 -6 -2 -5 -13z"/>
<path d="M330 1608 c1 -18 7 -46 15 -63 l14 -30 -7 35 c-4 19 -7 47 -7 63 0
15 -3 27 -7 27 -5 0 -8 -15 -8 -32z"/>
<path d="M129 1570 c9 -27 20 -50 25 -50 12 0 0 68 -15 86 -22 27 -25 14 -10
-36z"/>
<path d="M1860 1990 l-35 -30 30 10 c34 13 55 28 55 41 0 15 -14 9 -50 -21z"/>
<path d="M1868 1929 c-10 -5 -29 -47 -44 -97 -15 -48 -55 -167 -90 -265 -37
-103 -64 -195 -64 -217 0 -36 6 -44 62 -91 56 -47 65 -51 101 -46 26 4 69 26
126 65 47 33 138 94 201 135 205 136 190 123 190 162 0 44 -4 48 -220 215
-207 160 -218 165 -262 139z m237 -140 c94 -72 185 -145 203 -162 46 -44 41
-73 -21 -112 -27 -16 -130 -86 -229 -154 -99 -68 -194 -127 -210 -132 -36 -10
-63 2 -125 56 -53 45 -54 67 -12 185 17 47 58 164 91 260 33 96 62 178 64 182
3 5 20 8 37 8 26 0 66 -27 202 -131z"/>
<path d="M1899 1830 l-24 -21 30 14 c17 8 37 17 45 20 10 4 8 6 -6 6 -12 1
-32 -8 -45 -19z"/>
<path d="M1954 1789 c-31 -9 -94 -69 -94 -90 0 -6 15 5 33 24 33 36 101 62
131 51 11 -4 16 -1 16 10 0 18 -35 20 -86 5z"/>
<path d="M1970 1688 c-48 -25 -75 -66 -65 -98 8 -26 47 -35 77 -18 l23 13 -30
3 c-16 2 -34 7 -38 12 -14 13 12 51 46 65 62 26 107 -14 107 -95 0 -33 -6 -44
-46 -79 -65 -57 -111 -70 -172 -48 -26 10 -52 17 -59 17 -23 0 -73 -52 -73
-76 0 -26 51 -90 81 -99 38 -12 40 7 4 46 -19 21 -35 46 -35 54 0 19 29 19 55
1 38 -26 81 -29 128 -8 137 61 210 214 140 292 -38 42 -85 48 -143 18z"/>
<path d="M1842 1630 c0 -14 2 -19 5 -12 2 6 2 18 0 25 -3 6 -5 1 -5 -13z"/>
<path d="M2214 1608 c0 -18 -3 -46 -7 -63 l-6 -30 14 30 c15 33 20 95 7 95 -4
0 -8 -15 -8 -32z"/>
<path d="M2415 1590 c-17 -33 -20 -70 -5 -70 6 0 10 10 10 23 0 12 7 34 14 50
8 15 11 27 6 27 -5 0 -16 -13 -25 -30z"/>
<path d="M873 1053 c-21 -8 -16 -61 7 -73 28 -15 60 4 60 35 0 32 -34 52 -67
38z m52 -44 c-9 -14 -42 -11 -48 5 -3 8 -1 17 6 19 17 6 49 -12 42 -24z"/>
<path d="M1636 1045 c-36 -37 -6 -87 40 -66 21 9 25 17 22 44 -4 37 -35 49
-62 22z m47 -31 c-5 -14 -35 -19 -46 -7 -4 3 -2 12 3 19 14 16 50 6 43 -12z"/>
<path d="M650 979 c-42 -17 -60 -40 -60 -76 0 -109 116 -159 192 -83 79 79
-25 204 -132 159z m117 -41 c33 -30 31 -80 -3 -107 -55 -43 -138 -13 -149 54
-12 72 93 109 152 53z"/>
<path d="M1803 971 c-81 -51 -70 -146 21 -181 65 -24 135 25 143 102 4 36 1
47 -19 65 -35 33 -104 40 -145 14z m92 -15 c48 -20 62 -54 40 -95 -20 -40 -53
-55 -99 -47 -77 15 -92 111 -22 142 39 17 40 17 81 0z"/>
<path d="M1275 1067 c-4 -15 -3 -44 2 -64 l9 -38 8 54 c8 58 -7 96 -19 48z"/>
<path d="M1255 923 c-124 -32 -143 -211 -27 -260 73 -31 159 14 182 95 8 31 6
44 -13 81 -32 65 -88 98 -142 84z m81 -59 c26 -18 54 -63 54 -88 0 -8 -12 -28
-26 -45 -22 -27 -32 -31 -75 -31 -86 0 -137 57 -105 118 31 60 99 80 152 46z"/>
<path d="M1230 821 c-38 -71 60 -130 99 -60 13 24 13 29 -2 53 -22 33 -80 37
-97 7z"/>
<path d="M1450 676 c0 -7 83 -66 92 -66 22 0 3 29 -31 48 -36 20 -61 28 -61
18z"/>
<path d="M1037 633 c-26 -18 -35 -29 -27 -37 7 -7 21 1 48 27 43 43 34 47 -21
10z"/>
<path d="M1276 584 c-7 -28 0 -47 15 -39 12 8 12 52 0 59 -5 3 -12 -6 -15 -20z"/>
</g>
</svg>
