<?xml version="1.0" standalone="no"?>
<!DOCTYPE svg PUBLIC "-//W3C//DTD SVG 20010904//EN"
 "http://www.w3.org/TR/2001/REC-SVG-20010904/DTD/svg10.dtd">
<svg version="1.0" xmlns="http://www.w3.org/2000/svg"
 width="256.000000pt" height="256.000000pt" viewBox="0 0 256.000000 256.000000"
 preserveAspectRatio="xMidYMid meet">
<metadata>
Created by potrace 1.16, written by Peter Selinger 2001-2019
</metadata>
<g transform="translate(0.000000,256.000000) scale(0.100000,-0.100000)"
fill="#e5e5e5" stroke="none">
<path d="M1060 2269 c-117 -22 -169 -49 -189 -97 -12 -28 -17 -30 -84 -37 -39
-3 -80 -11 -90 -17 -28 -15 -45 -66 -51 -154 l-5 -79 14 88 c8 48 19 96 25
107 10 20 49 33 128 44 42 6 43 6 36 -16 -9 -32 -39 -89 -59 -113 -16 -19 -16
-18 -10 18 3 21 9 46 12 55 4 15 3 15 -6 2 -6 -8 -13 -35 -17 -60 -6 -41 -25
-69 -48 -70 -5 0 -6 28 -3 63 3 36 1 54 -3 42 -5 -11 -9 -42 -9 -69 -1 -46 -5
-53 -60 -110 -77 -80 -105 -139 -142 -293 -18 -78 -42 -149 -61 -183 -55 -99
-140 -230 -149 -230 -17 0 -47 43 -59 86 -19 68 -7 164 38 306 71 218 75 304
19 343 -28 20 -77 19 -105 -1 -19 -13 -23 -24 -20 -53 4 -44 -16 -48 -45 -9
-14 19 -21 47 -24 100 -6 98 3 110 93 119 38 4 101 13 141 20 57 10 79 10 112
0 59 -17 75 -47 82 -155 l6 -91 1 88 c3 146 -33 184 -167 174 -129 -10 -235
-27 -260 -44 -22 -14 -23 -19 -19 -104 5 -100 26 -144 69 -144 21 0 24 5 27
42 3 34 8 43 32 53 36 15 66 6 87 -26 20 -31 14 -106 -17 -221 l-22 -82 -76 5
c-106 7 -126 -4 -130 -74 -3 -59 12 -74 53 -52 59 31 71 -47 34 -214 -26 -118
-16 -187 32 -236 17 -16 35 -30 40 -30 6 0 7 -5 4 -10 -4 -6 -2 -17 4 -24 8
-10 2 -19 -27 -37 -95 -61 -80 -236 23 -265 38 -10 39 -13 55 -78 17 -70 39
-107 81 -138 35 -26 172 -58 256 -61 94 -3 115 15 119 100 3 56 3 56 -6 16
-20 -95 -46 -109 -166 -93 -173 23 -233 56 -259 143 -24 81 -21 103 16 111 67
13 91 7 123 -29 46 -52 105 -62 389 -68 131 -3 241 -7 243 -10 3 -3 -1 -20 -8
-38 -8 -19 -15 -54 -17 -79 -2 -25 -4 -47 -6 -49 -2 -2 -16 0 -30 3 -17 4 -31
19 -40 39 -9 19 -14 25 -15 14 0 -23 44 -67 67 -67 10 0 23 -10 28 -22 30 -68
407 -77 472 -12 13 13 37 31 54 39 16 9 34 27 39 41 15 39 11 53 -4 18 -15
-34 -56 -68 -67 -56 -4 4 -9 27 -10 52 -2 25 -9 60 -17 79 -7 18 -11 35 -9 38
3 2 108 6 233 9 126 3 256 9 289 15 69 12 120 40 128 69 4 16 14 20 49 20 75
0 90 -8 83 -44 -25 -134 -53 -166 -170 -196 -101 -26 -218 -31 -239 -10 -8 8
-22 42 -30 75 l-15 60 4 -50 c8 -111 44 -133 180 -114 201 28 263 74 283 211
7 52 8 53 48 61 23 4 52 19 65 33 20 22 24 35 24 92 -1 79 -21 124 -65 144
-18 8 -28 18 -25 26 3 8 5 20 5 28 0 7 13 20 29 28 57 30 76 139 45 260 -9 33
-17 91 -18 129 -1 51 -3 62 -11 46 -6 -15 -3 -55 10 -128 33 -192 32 -219 -11
-271 -35 -41 -48 -38 -64 13 -7 23 -20 58 -30 77 l-18 35 28 34 c55 65 63 185
22 319 l-20 62 78 0 c91 0 110 -5 110 -31 0 -10 5 -19 11 -19 6 0 8 7 5 16 -3
9 -6 19 -6 24 0 18 -63 32 -132 29 l-72 -4 -14 45 c-24 82 -42 189 -35 220 8
41 49 73 83 65 39 -10 50 -24 50 -67 0 -37 2 -39 27 -36 39 4 62 50 69 139 6
69 5 77 -17 101 -20 23 -38 29 -114 39 -142 19 -224 22 -255 9 -47 -20 -70
-80 -70 -185 0 -111 11 -105 15 9 3 106 22 144 83 166 35 12 52 12 114 1 40
-7 103 -16 140 -20 37 -4 73 -12 80 -19 16 -16 15 -126 -2 -176 -11 -35 -41
-62 -54 -49 -3 3 -6 21 -6 39 0 73 -110 91 -145 23 -28 -54 -15 -141 52 -344
47 -143 51 -245 13 -314 -14 -25 -30 -46 -37 -48 -6 -2 -33 29 -59 69 -80 123
-131 229 -149 314 -28 131 -54 201 -100 262 -40 55 -43 65 -54 158 -17 141
-32 158 -143 170 -60 6 -66 9 -82 39 -26 48 -84 75 -205 96 -137 24 -295 23
-431 -2z m438 -20 c154 -27 160 -31 230 -190 18 -39 45 -80 67 -100 191 -171
217 -211 254 -384 26 -119 48 -169 134 -306 76 -122 106 -180 137 -267 28 -77
19 -94 -44 -84 -37 7 -41 11 -66 72 -15 36 -61 144 -102 240 -41 96 -96 231
-123 300 -97 257 -121 295 -228 365 -16 10 -55 58 -87 106 -71 105 -94 124
-168 141 -76 16 -360 17 -434 0 -74 -17 -97 -36 -168 -142 -32 -48 -65 -90
-72 -92 -7 -3 -38 -26 -69 -51 -66 -54 -73 -67 -204 -392 -51 -126 -117 -286
-147 -355 -31 -69 -60 -138 -65 -155 -8 -25 -16 -31 -50 -35 -48 -7 -63 -3
-63 15 0 41 69 193 131 290 98 154 136 235 160 345 36 172 61 209 257 391 40
37 55 61 82 133 44 115 64 129 221 156 186 31 237 31 417 -1z m19 -139 c47
-14 71 -37 139 -136 30 -44 74 -90 113 -120 35 -27 73 -61 83 -75 10 -13 72
-157 137 -319 65 -162 139 -340 164 -395 50 -112 77 -198 77 -243 0 -24 -12
-42 -50 -80 -38 -37 -50 -57 -50 -79 0 -17 -9 -42 -20 -56 -35 -44 -101 -52
-415 -50 -154 2 -336 3 -405 3 -69 1 -228 -2 -355 -5 -338 -10 -477 11 -490
72 -4 15 -9 39 -11 52 -3 14 -25 43 -50 65 -35 31 -44 46 -44 72 0 37 37 153
78 244 41 92 131 309 198 480 89 229 110 261 208 328 22 15 64 64 97 114 68
101 89 117 173 135 74 15 360 10 423 -7z m298 5 c68 -11 79 -32 100 -189 l7
-50 -41 35 c-22 18 -56 47 -75 62 -32 25 -86 119 -86 147 0 7 11 10 28 6 15
-2 45 -8 67 -11z m-1571 -587 c-53 -167 -44 -311 24 -372 21 -18 21 -19 3 -55
-10 -20 -24 -54 -31 -76 -17 -55 -19 -56 -41 -44 -58 31 -73 121 -44 261 23
106 23 173 0 198 -20 22 -61 27 -68 8 -9 -21 -27 13 -27 49 0 43 19 52 113 53
77 0 78 0 71 -22z m70 -683 l-7 -65 52 -47 c28 -25 51 -52 51 -59 0 -22 -168
-42 -211 -24 -36 15 -49 44 -49 110 0 64 34 104 110 130 30 11 56 19 58 20 1
0 0 -29 -4 -65z m2034 34 c53 -23 76 -70 69 -142 -6 -67 -29 -88 -98 -90 -70
-1 -159 13 -159 25 0 6 23 32 51 59 51 49 52 51 46 97 -3 26 -9 55 -12 64 -6
16 -3 17 26 12 19 -4 53 -15 77 -25z m-1142 -355 c-18 -72 -18 -82 3 -103 17
-17 33 -21 81 -21 52 0 62 3 75 24 13 19 14 32 6 67 -14 60 -14 61 12 57 52
-7 77 -134 35 -183 -50 -56 -206 -59 -261 -4 -27 27 -29 35 -25 84 5 62 30
105 59 105 18 0 20 -4 15 -26z m54 -4 c0 -16 4 -30 8 -30 5 0 7 14 4 30 -3 23
-1 30 13 30 14 0 16 -7 13 -30 -3 -16 -1 -30 4 -30 4 0 8 14 8 30 0 20 5 30
15 30 37 0 50 -111 16 -130 -25 -13 -87 -13 -112 0 -34 19 -21 130 16 130 10
0 15 -10 15 -30z m-126 -15 c-19 -46 -18 -115 2 -144 24 -34 74 -51 149 -51
75 0 125 17 149 51 20 29 21 98 2 144 -13 31 -13 35 0 35 31 0 61 -45 73 -112
14 -73 9 -103 -19 -118 -10 -5 -59 -17 -109 -25 -74 -13 -105 -14 -173 -5
-154 21 -173 42 -144 158 16 65 42 102 72 102 11 0 10 -6 -2 -35z"/>
<path d="M1270 2240 c0 -5 7 -10 15 -10 8 0 15 5 15 10 0 6 -7 10 -15 10 -8 0
-15 -4 -15 -10z"/>
<path d="M1170 2230 c0 -5 5 -10 10 -10 6 0 10 5 10 10 0 6 -4 10 -10 10 -5 0
-10 -4 -10 -10z"/>
<path d="M1370 2236 c0 -2 7 -6 15 -10 8 -3 15 -1 15 4 0 6 -7 10 -15 10 -8 0
-15 -2 -15 -4z"/>
<path d="M1068 2213 c7 -3 16 -2 19 1 4 3 -2 6 -13 5 -11 0 -14 -3 -6 -6z"/>
<path d="M1488 2213 c7 -3 16 -2 19 1 4 3 -2 6 -13 5 -11 0 -14 -3 -6 -6z"/>
<path d="M925 2160 c-3 -5 -2 -10 4 -10 5 0 13 5 16 10 3 6 2 10 -4 10 -5 0
-13 -4 -16 -10z"/>
<path d="M1625 2160 c3 -5 11 -10 16 -10 6 0 7 5 4 10 -3 6 -11 10 -16 10 -6
0 -7 -4 -4 -10z"/>
<path d="M715 1870 c-3 -5 -2 -10 4 -10 5 0 13 5 16 10 3 6 2 10 -4 10 -5 0
-13 -4 -16 -10z"/>
<path d="M1830 1876 c0 -2 7 -7 16 -10 8 -3 12 -2 9 4 -6 10 -25 14 -25 6z"/>
<path d="M645 1790 c-3 -5 -1 -10 4 -10 6 0 11 5 11 10 0 6 -2 10 -4 10 -3 0
-8 -4 -11 -10z"/>
<path d="M477 1373 c-4 -3 -7 -13 -7 -22 1 -13 3 -13 11 2 11 19 8 33 -4 20z"/>
<path d="M2080 1371 c0 -5 5 -13 10 -16 6 -3 10 -2 10 4 0 5 -4 13 -10 16 -5
3 -10 2 -10 -4z"/>
<path d="M425 1279 c-11 -17 1 -21 15 -4 8 9 8 15 2 15 -6 0 -14 -5 -17 -11z"/>
<path d="M2130 1275 c7 -9 15 -13 17 -11 7 7 -7 26 -19 26 -6 0 -6 -6 2 -15z"/>
<path d="M381 1192 c-7 -13 -11 -26 -8 -28 8 -8 29 25 25 38 -3 8 -9 4 -17
-10z"/>
<path d="M2170 1204 c0 -5 7 -19 15 -30 8 -10 15 -14 15 -8 0 5 -7 19 -15 30
-8 10 -15 14 -15 8z"/>
<path d="M337 1104 c-4 -4 -7 -17 -7 -28 1 -19 1 -20 11 -3 11 19 8 43 -4 31z"/>
<path d="M2220 1098 c0 -7 5 -20 10 -28 8 -12 10 -11 10 7 0 12 -4 25 -10 28
-5 3 -10 0 -10 -7z"/>
<path d="M294 986 c-8 -35 1 -44 16 -16 8 15 9 25 1 33 -7 7 -12 2 -17 -17z"/>
<path d="M2250 999 c0 -8 7 -24 15 -35 11 -15 14 -16 15 -3 0 8 -7 24 -15 35
-11 15 -14 16 -15 3z"/>
<path d="M1111 2080 c0 -8 6 -28 14 -45 l14 -30 -6 30 c-7 38 -22 68 -22 45z"/>
<path d="M1442 2061 c-7 -19 -12 -41 -11 -50 0 -9 7 2 15 23 8 22 13 45 11 50
-2 6 -9 -5 -15 -23z"/>
<path d="M1027 2015 c15 -30 29 -53 31 -51 4 5 -46 106 -53 106 -3 0 7 -25 22
-55z"/>
<path d="M1547 2047 c-18 -28 -48 -97 -42 -97 3 0 18 27 35 60 31 62 34 78 7
37z"/>
<path d="M1111 1927 c-44 -14 -97 -69 -131 -137 -15 -30 -59 -138 -99 -240
-91 -233 -180 -460 -226 -572 -19 -48 -35 -103 -35 -121 0 -45 53 -96 112
-108 51 -10 1033 -12 1103 -3 59 9 115 60 115 107 0 17 -42 137 -94 266 -52
130 -124 315 -161 411 -117 306 -160 374 -252 399 -49 14 -287 12 -332 -2z
m370 -60 c48 -32 81 -92 148 -267 100 -265 171 -441 226 -560 73 -158 79 -183
52 -216 -42 -54 -42 -54 -622 -54 -570 0 -576 0 -619 48 -26 30 -18 69 43 203
54 117 164 387 237 581 59 158 85 207 133 251 l41 37 164 0 c153 0 165 -1 197
-23z"/>
<path d="M1146 1814 c-3 -9 -6 -17 -6 -19 0 -2 20 -15 45 -30 188 -109 368
-405 352 -577 -3 -33 -16 -82 -31 -111 -45 -93 -168 -165 -257 -151 -43 7 -89
46 -89 76 0 29 46 71 70 63 24 -8 28 20 4 29 -58 22 -114 -18 -114 -83 0 -31
7 -49 31 -76 43 -49 78 -65 142 -65 165 0 295 127 326 319 11 71 -1 226 -25
315 -25 90 -88 209 -138 262 -67 69 -91 39 -37 -45 32 -50 85 -161 96 -201 4
-14 -13 4 -36 40 -56 84 -149 177 -229 229 -68 44 -94 50 -104 25z"/>
<path d="M1023 1636 c3 -8 -4 -18 -18 -24 -41 -19 -25 -46 31 -54 155 -23 256
-88 392 -253 l33 -40 -6 35 c-18 95 -162 263 -274 318 -70 35 -169 46 -158 18z"/>
<path d="M1050 1476 c0 -2 9 -23 20 -47 41 -91 19 -158 -93 -278 -50 -53 -80
-94 -90 -125 -9 -25 -14 -46 -12 -46 2 0 14 17 26 38 13 20 62 78 110 127 109
114 129 152 128 242 -1 58 -2 63 -9 30 -9 -49 -16 -54 -23 -17 -7 34 -35 80
-48 80 -5 0 -9 -2 -9 -4z"/>
<path d="M1693 1193 c8 -15 20 -54 26 -85 14 -76 -4 -134 -60 -200 -46 -54
-25 -51 30 4 52 53 64 83 59 157 -4 68 -32 141 -56 149 -11 3 -11 -2 1 -25z"/>
<path d="M1660 1137 c0 -4 7 -22 16 -39 12 -23 15 -47 11 -87 -5 -53 -4 -55 9
-26 21 49 17 100 -11 132 -13 15 -25 24 -25 20z"/>
<path d="M790 1803 c0 -9 95 -73 107 -73 3 0 -18 18 -47 40 -57 43 -60 44 -60
33z"/>
<path d="M1722 1773 c-28 -21 -49 -39 -47 -41 5 -6 105 62 105 70 0 12 -5 10
-58 -29z"/>
<path d="M711 1695 c9 -9 142 -56 146 -52 5 5 -122 57 -139 57 -6 0 -9 -2 -7
-5z"/>
<path d="M1777 1676 c-62 -26 -89 -44 -47 -31 48 14 130 46 130 51 0 9 -28 2
-83 -20z"/>
<path d="M460 878 c-86 -10 -98 -13 -87 -24 9 -9 177 17 177 27 0 5 -1 8 -2 8
-2 -1 -41 -6 -88 -11z"/>
<path d="M2027 879 c8 -7 127 -29 158 -29 12 0 15 3 10 9 -6 6 -47 14 -93 18
-45 5 -79 6 -75 2z"/>
<path d="M551 730 c-58 -49 -76 -68 -70 -75 2 -2 36 26 74 61 83 76 81 85 -4
14z"/>
<path d="M2015 718 c39 -36 72 -64 75 -61 6 6 -95 98 -125 115 -11 6 12 -18
50 -54z"/>
<path d="M855 629 c-9 -28 -14 -53 -11 -56 6 -7 20 27 31 75 10 49 -1 38 -20
-19z"/>
<path d="M1696 650 c6 -35 33 -94 34 -75 0 6 -9 33 -20 60 -17 42 -19 44 -14
15z"/>
<path d="M963 615 c0 -27 2 -38 4 -22 2 15 2 37 0 50 -2 12 -4 0 -4 -28z"/>
<path d="M1603 615 c0 -27 2 -38 4 -22 2 15 2 37 0 50 -2 12 -4 0 -4 -28z"/>
<path d="M1782 2060 c0 -8 4 -26 8 -40 6 -20 8 -21 8 -5 0 11 -3 29 -8 40 -5
12 -8 14 -8 5z"/>
<path d="M1851 2024 c0 -11 3 -14 6 -6 3 7 2 16 -1 19 -3 4 -6 -2 -5 -13z"/>
<path d="M1862 1970 c0 -14 2 -19 5 -12 2 6 2 18 0 25 -3 6 -5 1 -5 -13z"/>
<path d="M2215 1980 c-3 -5 -2 -10 4 -10 5 0 13 5 16 10 3 6 2 10 -4 10 -5 0
-13 -4 -16 -10z"/>
<path d="M390 1900 c0 -19 3 -21 12 -12 9 9 9 15 0 24 -9 9 -12 7 -12 -12z"/>
<path d="M2162 1900 c0 -14 2 -19 5 -12 2 6 2 18 0 25 -3 6 -5 1 -5 -13z"/>
<path d="M387 1760 c-3 -11 -1 -20 4 -20 5 0 9 9 9 20 0 11 -2 20 -4 20 -2 0
-6 -9 -9 -20z"/>
<path d="M2160 1773 c0 -4 5 -15 10 -23 8 -13 10 -13 10 2 0 9 -4 20 -10 23
-5 3 -10 3 -10 -2z"/>
<path d="M2190 1639 c0 -8 7 -24 15 -35 18 -24 19 -7 0 26 -9 16 -14 19 -15 9z"/>
<path d="M357 1627 c-11 -29 -9 -43 4 -30 6 6 9 19 7 29 -3 18 -4 18 -11 1z"/>
<path d="M322 1470 c0 -14 2 -19 5 -12 2 6 2 18 0 25 -3 6 -5 1 -5 -13z"/>
<path d="M2231 1483 c0 -4 4 -17 9 -28 8 -19 9 -19 9 2 1 12 -3 25 -9 28 -5 3
-10 3 -9 -2z"/>
<path d="M2500 1460 c0 -21 -15 -27 -25 -10 -8 13 -52 13 -60 0 -4 -7 2 -9 18
-5 14 4 28 2 31 -4 11 -16 43 -13 50 5 9 23 7 34 -4 34 -5 0 -10 -9 -10 -20z"/>
<path d="M2236 1323 c-6 -14 -5 -15 5 -6 7 7 10 15 7 18 -3 3 -9 -2 -12 -12z"/>
<path d="M766 451 c5 -6 47 -10 94 -11 129 -2 164 2 80 10 -115 11 -185 11
-174 1z"/>
<path d="M1620 450 c-68 -6 -63 -7 53 -8 79 -1 127 2 127 8 0 11 -56 11 -180
0z"/>
</g>
</svg>
