<?xml version="1.0" standalone="no"?>
<!DOCTYPE svg PUBLIC "-//W3C//DTD SVG 20010904//EN"
 "http://www.w3.org/TR/2001/REC-SVG-20010904/DTD/svg10.dtd">
<svg version="1.0" xmlns="http://www.w3.org/2000/svg"
 width="256.000000pt" height="256.000000pt" viewBox="0 0 256.000000 256.000000"
 preserveAspectRatio="xMidYMid meet">
<metadata>
Created by potrace 1.16, written by Peter Selinger 2001-2019
</metadata>
<g transform="translate(0.000000,256.000000) scale(0.100000,-0.100000)"
fill="#e5e5e5" stroke="none">
<path d="M1035 2160 c-140 -29 -222 -58 -262 -93 -39 -34 -85 -125 -107 -209
-13 -50 -15 -53 -105 -109 -148 -93 -301 -227 -301 -263 0 -7 -11 -18 -24 -24
-29 -13 -56 -51 -60 -84 -2 -12 -19 -40 -38 -60 -51 -53 -90 -159 -86 -235 3
-58 3 -58 40 -67 23 -6 38 -16 42 -28 2 -11 14 -22 25 -25 19 -5 20 -7 5 -35
-8 -16 -21 -31 -29 -35 -21 -8 -55 -67 -55 -95 0 -27 28 -58 52 -58 8 0 37 11
64 25 27 14 76 37 109 51 69 28 110 64 125 110 6 17 20 34 30 37 11 3 20 12
20 21 0 11 9 16 30 16 20 0 30 -5 30 -15 0 -8 9 -20 20 -27 11 -7 20 -23 20
-35 0 -12 9 -28 21 -36 20 -14 20 -16 4 -46 -8 -17 -47 -66 -85 -108 -89 -97
-115 -149 -115 -230 0 -78 24 -117 78 -121 33 -3 39 1 87 62 39 50 79 84 166
142 125 83 180 139 190 191 l6 34 57 -6 c36 -5 70 -16 95 -33 85 -58 107 -66
191 -67 67 0 89 4 135 27 30 15 66 36 80 47 14 11 49 22 82 26 l56 6 7 -30
c12 -55 61 -106 171 -181 124 -83 164 -117 205 -177 25 -36 35 -43 63 -43 63
0 102 73 86 161 -13 69 -39 114 -114 197 -36 40 -73 86 -82 104 -15 29 -15 32
0 43 9 7 16 24 16 37 0 17 7 27 20 31 12 3 20 14 20 26 0 54 91 2 119 -67 12
-30 67 -82 85 -82 4 0 50 -21 103 -46 108 -51 135 -52 152 -4 14 40 2 68 -48
118 -46 45 -50 58 -21 67 11 3 20 15 20 26 0 13 7 19 21 19 47 0 59 17 59 85
0 83 -30 164 -80 216 -22 23 -41 55 -44 74 -6 31 -54 85 -77 85 -5 0 -9 9 -9
19 0 39 -209 214 -345 290 -37 20 -42 28 -58 89 -24 92 -65 169 -108 204 -41
33 -156 70 -288 93 -118 21 -351 18 -466 -5z m557 -59 c101 -23 134 -39 189
-88 64 -58 87 -119 104 -273 7 -67 -8 -193 -30 -248 -13 -33 -24 -44 -53 -53
-63 -20 -185 -96 -227 -140 l-40 -43 46 40 c110 93 229 143 286 119 34 -14 60
-67 73 -153 10 -59 -12 -168 -49 -240 -42 -83 -130 -131 -275 -151 -127 -18
-116 -27 -116 97 0 95 9 180 25 245 2 12 -1 9 -9 -8 -8 -16 -19 -66 -25 -110
-36 -249 -60 -316 -120 -333 -53 -16 -119 -15 -173 3 -65 23 -80 63 -123 330
-27 173 -67 223 -250 315 l-105 53 -22 70 c-18 59 -20 86 -15 181 7 159 32
230 100 292 75 68 99 77 317 118 14 2 111 3 215 1 145 -3 210 -8 277 -24z
m-937 -443 c4 -57 13 -120 20 -140 l13 -38 -194 0 c-225 0 -229 2 -146 82 47
46 267 194 293 197 4 1 10 -45 14 -101z m1383 30 c117 -71 222 -160 222 -189
0 -18 -9 -19 -191 -19 -183 0 -190 1 -184 19 12 39 25 138 25 194 0 38 4 57
12 57 7 0 59 -28 116 -62z m-1368 -226 c0 -5 -11 -19 -24 -31 -14 -13 -30 -36
-37 -53 l-12 -29 -193 3 c-106 2 -195 6 -199 9 -14 15 9 61 39 77 24 13 67 18
201 23 94 3 182 6 198 7 15 1 27 -2 27 -6z m1597 -8 c49 -6 80 -29 88 -65 9
-36 -6 -39 -211 -39 l-172 0 -12 29 c-6 16 -22 39 -36 52 -13 12 -24 25 -24
29 0 7 304 2 367 -6z m-1424 -66 c94 -47 156 -99 182 -152 27 -57 45 -175 45
-299 l0 -79 -67 7 c-204 22 -309 87 -352 216 -29 89 -36 154 -22 221 13 61 41
105 74 117 26 10 86 -3 140 -31z m-257 -64 c-3 -9 -6 -24 -6 -33 0 -15 -11
-19 -70 -23 -55 -4 -81 -12 -117 -34 -46 -29 -113 -104 -113 -127 0 -7 11 6
25 29 42 70 137 123 223 124 40 0 42 -1 42 -29 0 -22 -6 -30 -24 -35 -48 -12
-116 -88 -116 -128 0 -7 9 5 19 28 19 41 57 75 98 88 19 6 23 2 28 -27 5 -27
1 -42 -19 -72 -14 -21 -26 -44 -26 -51 0 -22 -362 -20 -384 2 -10 9 -16 11
-16 4 0 -6 -10 -10 -22 -8 -21 3 -23 8 -23 73 0 56 6 83 29 133 43 94 57 99
305 100 153 1 172 0 167 -14z m1773 2 c42 -10 47 -15 79 -80 28 -54 36 -84 40
-141 l4 -72 -47 -6 c-26 -4 -128 -7 -226 -7 l-179 0 0 24 c0 14 -11 37 -24 53
-17 21 -22 36 -19 61 6 36 12 38 51 18 39 -20 71 -58 88 -103 l15 -38 -6 34
c-7 47 -46 94 -96 119 -31 16 -43 28 -45 47 -2 23 1 25 36 25 92 0 211 -69
240 -140 7 -17 15 -28 18 -26 11 12 -52 98 -91 124 -55 38 -99 52 -158 52 -33
0 -49 4 -49 13 0 6 -3 22 -6 34 l-6 23 168 -1 c93 -1 189 -7 213 -13z m-1765
-250 c3 -13 9 -31 12 -40 5 -13 -1 -16 -30 -16 -41 0 -41 0 -20 46 19 40 30
43 38 10z m1410 2 c28 -39 21 -58 -20 -58 -29 0 -35 3 -30 16 3 9 9 27 12 40
8 30 18 30 38 2z m-1534 -87 c0 -17 -33 -21 -155 -21 -117 0 -182 10 -172 27
7 11 327 4 327 -6z m1950 5 c0 -7 -10 -16 -22 -20 -30 -8 -262 -8 -282 0 -42
16 -3 24 137 27 83 1 155 4 160 5 4 1 7 -4 7 -12z m-1790 0 c0 -2 3 -11 6 -20
10 -26 -62 -22 -76 4 -10 18 -8 20 30 20 22 0 40 -2 40 -4z m1378 -13 c-2 -13
-15 -19 -46 -21 -44 -3 -45 -3 -36 22 4 11 19 16 46 16 32 0 39 -3 36 -17z
m-1661 -33 c65 0 72 -2 65 -18 -18 -44 -46 -65 -161 -118 -99 -45 -124 -54
-136 -44 -27 23 -17 58 35 115 28 30 50 60 50 66 0 8 13 10 38 5 20 -3 69 -6
109 -6z m2022 -12 c5 -13 23 -36 41 -53 54 -51 70 -105 35 -119 -8 -3 -70 21
-137 53 -95 45 -127 66 -140 89 -10 16 -18 33 -18 36 0 3 39 7 88 9 48 1 95 4
105 5 10 1 21 -7 26 -20z m-1687 -15 l22 -23 -51 0 c-42 0 -52 3 -56 19 -6 25
-5 26 32 26 18 0 39 -9 53 -22z m1269 17 c12 0 19 -7 19 -20 0 -18 -7 -20 -57
-20 l-56 0 23 25 c13 14 30 23 38 20 7 -3 22 -5 33 -5z m-1173 -80 c23 -11 57
-23 75 -27 58 -11 67 -19 56 -55 -13 -46 -70 -101 -181 -175 -60 -39 -122 -91
-160 -133 -73 -81 -97 -88 -128 -37 -45 73 -13 168 96 288 39 42 78 95 88 118
18 40 21 41 66 41 26 0 64 -9 88 -20z m1161 -24 c12 -24 53 -78 91 -120 72
-79 103 -128 115 -184 21 -100 -66 -177 -114 -99 -31 49 -97 109 -196 176
-111 74 -127 88 -159 136 -41 59 -36 70 42 94 37 11 74 25 82 31 8 5 38 10 67
10 51 0 51 0 72 -44z"/>
<path d="M1217 2024 c-15 -8 -25 -19 -23 -23 14 -23 176 -23 176 0 0 15 -58
39 -92 39 -18 -1 -46 -8 -61 -16z"/>
<path d="M1160 1936 c-67 -19 -120 -49 -180 -103 -48 -43 -110 -125 -110 -145
0 -4 39 23 88 61 106 83 191 127 268 139 71 11 173 1 233 -21 52 -20 51 -20
51 -4 0 23 -57 57 -122 72 -75 18 -166 18 -228 1z"/>
<path d="M1620 1751 c0 -5 19 -24 41 -42 38 -30 41 -31 29 -8 -7 13 -19 32
-28 42 -16 18 -42 23 -42 8z"/>
<path d="M790 1628 c-11 -18 -20 -41 -20 -51 0 -17 2 -17 30 3 34 24 49 49 43
68 -8 22 -33 13 -53 -20z"/>
<path d="M1720 1645 c0 -16 69 -89 77 -82 11 12 -50 97 -69 97 -4 0 -8 -7 -8
-15z"/>
<path d="M875 1618 c-19 -28 -49 -127 -41 -135 17 -18 117 108 109 137 -7 27
-48 26 -68 -2z"/>
<path d="M1620 1622 c0 -23 103 -149 108 -133 6 17 -25 94 -49 125 -24 30 -59
35 -59 8z"/>
<path d="M1224 1591 c-55 -24 -81 -104 -52 -166 13 -29 32 -34 23 -6 -9 30 12
104 36 124 12 9 38 17 59 17 52 0 73 -26 78 -100 2 -33 8 -60 13 -60 12 0 31
79 25 104 -3 11 -18 36 -33 55 -24 28 -36 34 -78 37 -28 2 -60 0 -71 -5z"/>
<path d="M950 1542 c0 -22 29 -32 96 -32 82 0 103 14 47 29 -45 13 -143 15
-143 3z"/>
<path d="M1456 1538 c-44 -16 -13 -28 77 -28 70 0 77 2 77 20 0 18 -6 20 -62
19 -35 0 -76 -5 -92 -11z"/>
<path d="M1825 1349 c-10 -15 3 -25 16 -12 7 7 7 13 1 17 -6 3 -14 1 -17 -5z"/>
<path d="M1720 1276 c0 -18 59 -36 115 -35 l40 0 -50 18 c-84 30 -105 33 -105
17z"/>
<path d="M1247 1199 c-52 -20 -48 -90 8 -116 31 -15 35 -15 63 5 36 26 48 70
24 94 -23 22 -61 29 -95 17z m64 -19 c12 -7 19 -21 19 -41 0 -39 -41 -58 -76
-34 -28 18 -31 41 -7 67 18 20 36 23 64 8z"/>
<path d="M1660 1190 c0 -21 132 -82 146 -68 2 2 -30 21 -71 41 -41 20 -75 32
-75 27z"/>
<path d="M1570 1142 c0 -20 61 -100 101 -133 74 -60 77 -56 11 16 -35 39 -71
82 -80 98 -16 26 -32 36 -32 19z"/>
<path d="M1210 963 c-45 -57 -1 -153 70 -153 65 0 115 82 85 139 -17 34 -33
41 -90 41 -36 0 -48 -5 -65 -27z m128 -21 c17 -22 7 -61 -23 -91 -22 -22 -27
-23 -49 -12 -25 14 -46 50 -46 81 0 47 87 63 118 22z"/>
<path d="M1568 978 c-9 -23 3 -38 29 -38 20 0 24 4 21 23 -3 25 -42 37 -50 15z
m42 -13 c0 -8 -7 -15 -15 -15 -8 0 -15 7 -15 15 0 8 7 15 15 15 8 0 15 -7 15
-15z"/>
<path d="M575 1589 c-4 -6 -5 -13 -2 -16 7 -7 27 6 27 18 0 12 -17 12 -25 -2z"/>
<path d="M485 1570 c3 -5 8 -10 11 -10 2 0 4 5 4 10 0 6 -5 10 -11 10 -5 0 -7
-4 -4 -10z"/>
<path d="M1970 1585 c0 -9 5 -15 11 -13 6 2 11 8 11 13 0 5 -5 11 -11 13 -6 2
-11 -4 -11 -13z"/>
<path d="M2065 1570 c3 -5 8 -10 11 -10 2 0 4 5 4 10 0 6 -5 10 -11 10 -5 0
-7 -4 -4 -10z"/>
<path d="M726 1353 c-11 -11 -6 -23 9 -23 8 0 15 4 15 9 0 13 -16 22 -24 14z"/>
<path d="M771 1270 c-78 -23 -86 -30 -35 -29 48 0 106 20 112 37 5 15 1 15
-77 -8z"/>
<path d="M825 1159 c-46 -26 -60 -37 -40 -33 40 9 98 39 114 58 20 23 4 18
-74 -25z"/>
<path d="M970 1130 c-7 -14 -40 -56 -74 -95 -61 -70 -54 -72 17 -6 45 42 80
96 75 113 -3 8 -10 3 -18 -12z"/>
<path d="M944 975 c-4 -9 -2 -21 4 -27 16 -16 47 -5 47 17 0 26 -42 34 -51 10z
m41 -6 c10 -15 -1 -23 -20 -15 -9 3 -13 10 -10 16 8 13 22 13 30 -1z"/>
<path d="M300 1310 c-19 -10 -51 -36 -70 -57 l-35 -38 40 36 c22 20 58 46 80
57 22 12 36 21 30 21 -5 0 -26 -8 -45 -19z"/>
<path d="M175 1179 c-9 -17 -15 -33 -13 -35 3 -2 12 12 21 31 21 43 13 47 -8
4z"/>
<path d="M141 1084 c0 -11 3 -14 6 -6 3 7 2 16 -1 19 -3 4 -6 -2 -5 -13z"/>
<path d="M2249 1308 c56 -27 104 -76 135 -136 14 -26 25 -43 26 -39 0 16 -41
88 -72 122 -31 36 -95 75 -120 75 -7 -1 7 -11 31 -22z"/>
<path d="M2421 1064 c0 -11 3 -14 6 -6 3 7 2 16 -1 19 -3 4 -6 -2 -5 -13z"/>
<path d="M285 920 c-3 -5 -1 -10 4 -10 6 0 11 5 11 10 0 6 -2 10 -4 10 -3 0
-8 -4 -11 -10z"/>
<path d="M230 880 c0 -5 4 -10 9 -10 6 0 13 5 16 10 3 6 -1 10 -9 10 -9 0 -16
-4 -16 -10z"/>
<path d="M170 849 c0 -5 5 -7 10 -4 6 3 10 8 10 11 0 2 -4 4 -10 4 -5 0 -10
-5 -10 -11z"/>
<path d="M127 803 c-4 -3 -7 -11 -7 -17 0 -6 5 -5 12 2 6 6 9 14 7 17 -3 3 -9
2 -12 -2z"/>
<path d="M2265 920 c3 -5 8 -10 11 -10 2 0 4 5 4 10 0 6 -5 10 -11 10 -5 0 -7
-4 -4 -10z"/>
<path d="M2315 880 c3 -5 11 -10 16 -10 6 0 7 5 4 10 -3 6 -11 10 -16 10 -6 0
-7 -4 -4 -10z"/>
<path d="M2375 850 c3 -5 11 -10 16 -10 6 0 7 5 4 10 -3 6 -11 10 -16 10 -6 0
-7 -4 -4 -10z"/>
<path d="M2426 795 c4 -8 10 -15 15 -15 4 0 6 7 3 15 -4 8 -10 15 -15 15 -4 0
-6 -7 -3 -15z"/>
<path d="M752 810 c0 -14 2 -19 5 -12 2 6 2 18 0 25 -3 6 -5 1 -5 -13z"/>
<path d="M707 723 c-4 -3 -7 -11 -7 -17 0 -6 5 -5 12 2 6 6 9 14 7 17 -3 3 -9
2 -12 -2z"/>
<path d="M655 660 c-3 -5 -1 -10 4 -10 6 0 11 5 11 10 0 6 -2 10 -4 10 -3 0
-8 -4 -11 -10z"/>
<path d="M580 600 c-8 -5 -12 -12 -9 -15 4 -3 12 1 19 10 14 17 11 19 -10 5z"/>
<path d="M505 529 c-4 -6 -5 -12 -2 -15 2 -3 7 2 10 11 7 17 1 20 -8 4z"/>
<path d="M481 434 c0 -11 3 -14 6 -6 3 7 2 16 -1 19 -3 4 -6 -2 -5 -13z"/>
<path d="M1800 816 c0 -8 5 -18 10 -21 6 -3 10 1 10 9 0 8 -4 18 -10 21 -5 3
-10 -1 -10 -9z"/>
<path d="M1840 735 c0 -15 18 -40 24 -34 3 3 -1 14 -9 25 -8 10 -14 15 -15 9z"/>
<path d="M1895 660 c3 -5 8 -10 11 -10 2 0 4 5 4 10 0 6 -5 10 -11 10 -5 0 -7
-4 -4 -10z"/>
<path d="M1970 595 c7 -8 17 -15 22 -15 6 0 5 7 -2 15 -7 8 -17 15 -22 15 -6
0 -5 -7 2 -15z"/>
<path d="M2040 536 c0 -2 7 -9 15 -16 13 -11 14 -10 9 4 -5 14 -24 23 -24 12z"/>
<path d="M2082 440 c0 -14 2 -19 5 -12 2 6 2 18 0 25 -3 6 -5 1 -5 -13z"/>
</g>
</svg>
