<?xml version="1.0" standalone="no"?>
<!DOCTYPE svg PUBLIC "-//W3C//DTD SVG 20010904//EN"
 "http://www.w3.org/TR/2001/REC-SVG-20010904/DTD/svg10.dtd">
<svg version="1.0" xmlns="http://www.w3.org/2000/svg"
 width="256.000000pt" height="256.000000pt" viewBox="0 0 256.000000 256.000000"
 preserveAspectRatio="xMidYMid meet">
<metadata>
Created by potrace 1.16, written by Peter Selinger 2001-2019
</metadata>
<g transform="translate(0.000000,256.000000) scale(0.100000,-0.100000)"
fill="#e5e5e5" stroke="none">
<path d="M760 2465 c67 -97 77 -169 36 -240 -25 -41 -67 -77 -201 -170 -130
-90 -198 -149 -257 -223 -111 -140 -152 -259 -151 -437 0 -103 2 -116 37 -204
36 -92 40 -119 21 -166 -8 -20 -8 -20 14 0 55 48 65 113 27 170 -48 70 -45
172 6 230 24 28 27 38 19 54 -17 31 -13 62 18 126 29 62 107 145 136 145 9 0
24 -4 34 -10 17 -8 18 -5 13 35 -4 39 -1 47 27 75 28 29 36 31 90 29 78 -3
111 17 111 67 0 52 48 99 95 91 32 -5 35 -3 76 61 38 58 44 75 47 133 3 55 0
74 -21 115 -38 74 -143 164 -192 164 -12 0 -9 -10 15 -45z m136 -171 c5 -34 1
-54 -19 -99 -31 -67 -90 -127 -257 -262 -220 -177 -310 -289 -356 -443 -41
-135 -45 -142 -38 -75 23 244 151 455 347 569 89 52 235 190 271 256 23 42 27
60 23 94 -5 37 -4 39 8 22 8 -10 17 -38 21 -62z"/>
<path d="M1753 2489 c-51 -25 -118 -96 -144 -152 -25 -55 -24 -131 1 -182 53
-104 73 -126 111 -118 23 4 35 -1 65 -31 30 -30 35 -40 29 -64 -9 -43 31 -66
107 -63 53 2 61 0 89 -29 27 -27 31 -36 27 -75 -3 -47 0 -53 19 -34 32 32 127
-44 169 -134 26 -56 31 -116 13 -134 -9 -9 -4 -21 19 -47 17 -20 34 -52 38
-72 9 -50 -2 -121 -26 -159 -31 -50 -27 -117 8 -156 l28 -32 -4 59 c-3 50 1
71 28 133 81 189 34 448 -116 633 -64 79 -140 144 -268 230 -229 154 -263 234
-166 383 41 62 42 65 28 65 -7 0 -32 -9 -55 -21z m-69 -154 c-16 -87 129 -253
323 -369 90 -54 182 -158 237 -269 46 -93 86 -233 85 -297 0 -26 -8 -8 -33 72
-54 175 -131 273 -371 469 -170 139 -190 158 -230 218 -29 44 -35 62 -35 107
0 46 15 104 27 104 2 0 1 -16 -3 -35z"/>
<path d="M610 2474 c24 -62 7 -141 -45 -202 -50 -60 -67 -57 -29 5 30 51 58
122 51 130 -2 1 -31 -30 -66 -69 -35 -39 -83 -85 -107 -101 -24 -16 -46 -32
-49 -36 -2 -4 1 -25 6 -46 23 -81 -32 -175 -102 -175 -20 0 -42 7 -49 15 -21
25 -30 18 -65 -57 -44 -93 -64 -172 -71 -273 l-5 -80 19 55 c18 52 71 162 72
149 0 -4 -12 -38 -27 -75 -22 -57 -27 -90 -31 -193 -3 -90 -1 -122 7 -117 6 4
11 22 11 41 0 51 55 258 85 317 55 110 139 197 294 306 36 25 90 64 120 86 91
69 111 148 61 246 -37 73 -102 134 -80 74z"/>
<path d="M1894 2449 c-46 -64 -68 -138 -54 -189 13 -48 49 -83 183 -178 148
-104 216 -168 277 -258 55 -83 80 -155 112 -317 18 -89 24 -105 31 -85 5 12 6
63 3 111 -5 79 -13 112 -61 242 -4 11 5 0 21 -24 15 -25 35 -70 45 -100 l18
-56 0 55 c0 30 -6 87 -14 125 -15 72 -87 235 -103 235 -5 0 -15 -7 -22 -15
-16 -20 -70 -19 -98 1 -39 27 -54 70 -50 141 l3 65 -54 42 c-30 23 -80 70
-110 106 l-54 64 6 -38 c3 -21 23 -66 43 -100 35 -59 35 -60 8 -36 -86 77
-113 159 -79 243 14 35 -14 16 -51 -34z"/>
<path d="M1022 2388 c-18 -18 -15 -38 13 -87 16 -27 25 -59 25 -84 l0 -42 26
26 c44 45 49 135 9 179 -20 22 -55 26 -73 8z"/>
<path d="M1472 2394 c-20 -9 -42 -60 -42 -99 0 -39 19 -83 44 -104 14 -12 16
-9 16 23 0 20 12 59 26 86 31 60 29 94 -6 97 -14 1 -31 -1 -38 -3z"/>
<path d="M365 2320 c-18 -20 -15 -50 5 -50 26 0 50 22 50 45 0 31 -29 34 -55
5z"/>
<path d="M2133 2325 c-7 -20 24 -55 49 -55 24 0 24 32 0 53 -23 21 -41 22 -49
2z"/>
<path d="M255 2180 c-25 -27 -24 -118 1 -137 26 -19 32 -17 54 20 22 36 27
106 8 125 -18 18 -43 15 -63 -8z m49 -16 c6 -17 -27 -68 -38 -57 -10 11 -7 48
6 61 16 16 25 15 32 -4z"/>
<path d="M2229 2179 c-20 -38 11 -149 41 -149 6 0 19 9 30 20 24 24 26 67 6
115 -18 42 -58 49 -77 14z m55 -15 c9 -23 7 -64 -2 -64 -14 0 -35 48 -29 64 8
20 23 20 31 0z"/>
<path d="M1057 2118 c-26 -20 -37 -61 -24 -88 7 -13 52 -57 101 -99 49 -41
101 -92 116 -113 l28 -38 28 41 c15 23 67 72 114 109 98 80 114 100 105 141
-9 40 -45 63 -86 54 -44 -10 -112 -81 -134 -141 -25 -68 -31 -71 -45 -27 -25
76 -80 142 -133 162 -37 14 -50 14 -70 -1z m89 -55 c28 -30 47 -63 59 -101 6
-21 -2 -17 -59 25 -36 26 -68 56 -71 65 -16 45 33 51 71 11z m332 1 c2 -15 -7
-29 -30 -44 -18 -13 -50 -39 -70 -59 -43 -40 -48 -30 -17 32 43 86 109 126
117 71z"/>
<path d="M919 2079 c-15 -29 12 -60 39 -43 18 12 17 44 -1 56 -19 12 -26 9
-38 -13z"/>
<path d="M1592 2088 c-17 -17 -15 -47 4 -55 23 -9 51 23 38 44 -14 22 -27 26
-42 11z"/>
<path d="M124 2079 c-9 -16 18 -30 33 -17 7 6 10 14 7 19 -7 13 -31 11 -40 -2z"/>
<path d="M2392 2073 c4 -21 33 -25 33 -3 0 8 -8 16 -18 18 -14 3 -18 -1 -15
-15z"/>
<path d="M775 1995 c-30 -29 -31 -41 -5 -55 16 -8 25 -5 51 18 22 19 30 34 26
45 -9 25 -44 21 -72 -8z"/>
<path d="M1705 2010 c-9 -14 10 -45 40 -64 21 -14 29 -15 41 -5 20 16 18 32
-9 57 -24 23 -61 29 -72 12z"/>
<path d="M869 1921 c-64 -65 -22 -136 111 -186 41 -15 91 -36 110 -45 40 -20
150 -108 150 -121 0 -4 -26 6 -57 22 -32 16 -95 38 -141 49 -115 29 -129 35
-152 72 -15 25 -20 29 -25 16 -4 -9 -5 -29 -3 -44 4 -37 40 -57 158 -88 92
-25 97 -27 156 -89 62 -65 93 -127 95 -191 0 -23 4 -17 13 24 16 73 38 113 98
176 46 48 55 54 147 79 131 36 161 54 161 99 0 19 -4 38 -10 41 -5 3 -10 0
-10 -8 0 -31 -49 -58 -160 -88 -63 -16 -134 -41 -159 -55 l-46 -27 35 38 c53
57 125 101 212 131 148 52 197 126 129 195 -26 25 -37 29 -86 29 -70 0 -112
-17 -169 -70 -45 -42 -117 -146 -137 -198 -10 -26 -11 -26 -43 35 -90 168
-171 233 -292 233 -48 0 -60 -4 -85 -29z m62 -27 c7 -9 45 -38 84 -64 38 -26
91 -70 118 -98 48 -52 65 -81 26 -46 -11 10 -75 46 -142 79 -66 33 -125 68
-131 77 -7 11 -6 25 2 42 13 30 24 32 43 10z m727 4 c19 -19 14 -53 -10 -75
-13 -12 -58 -35 -101 -53 -43 -18 -101 -48 -129 -67 l-51 -35 22 30 c30 43
105 107 172 148 31 19 60 41 63 49 7 18 18 19 34 3z"/>
<path d="M575 1848 c-27 -15 -35 -28 -35 -59 0 -63 85 -113 214 -127 42 -5 76
-6 76 -3 -1 19 -22 30 -72 40 -72 13 -115 35 -123 62 -12 38 44 52 98 25 15
-8 27 -11 27 -7 0 13 -54 59 -83 70 -36 14 -77 13 -102 -1z m68 -14 c3 -4 -5
-15 -18 -26 -14 -11 -25 -29 -25 -40 0 -20 -1 -21 -20 -3 -11 10 -20 24 -20
31 0 26 65 56 83 38z"/>
<path d="M1863 1844 c-36 -18 -69 -51 -60 -60 3 -3 15 0 27 6 30 16 84 9 88
-12 6 -33 -40 -65 -116 -78 -45 -8 -73 -19 -77 -28 -5 -13 5 -14 67 -9 93 7
158 30 193 67 32 33 38 82 13 107 -23 23 -97 27 -135 7z m111 -20 c19 -18 21
-45 4 -62 -18 -18 -25 -15 -31 17 -4 18 -14 32 -28 36 -17 6 -19 9 -8 16 21
13 46 11 63 -7z"/>
<path d="M418 1683 c-68 -72 -99 -173 -63 -203 36 -30 113 49 141 147 28 97
-11 125 -78 56z m6 -154 c-32 -35 -87 -16 -63 22 7 11 11 11 17 1 6 -9 15 -6
33 14 24 26 24 26 27 4 2 -12 -4 -30 -14 -41z"/>
<path d="M2057 1713 c-4 -3 -7 -25 -7 -47 0 -59 55 -155 104 -181 37 -20 37
-20 52 0 47 63 -96 282 -149 228z m90 -155 c19 -18 26 -20 32 -9 11 17 25 -4
17 -24 -14 -36 -86 -1 -86 42 0 19 10 16 37 -9z"/>
<path d="M638 1589 c-52 -12 -149 -62 -173 -89 l-20 -23 22 12 c12 6 39 11 60
11 l38 0 -30 -18 c-45 -28 -101 -94 -115 -137 -19 -57 -9 -156 20 -199 48 -69
145 -137 259 -178 119 -43 168 -72 205 -121 34 -45 34 -68 -1 -36 l-26 24 26
-45 c42 -72 75 -109 117 -130 54 -28 60 -26 60 19 0 47 26 77 34 39 3 -12 7
-43 8 -68 3 -39 6 -46 28 -50 14 -3 44 -15 68 -28 l42 -23 9 23 8 23 7 -22 7
-22 52 24 c29 13 60 26 70 29 13 4 17 17 18 58 0 29 4 62 8 73 8 19 8 19 19
-2 7 -12 12 -38 12 -57 0 -43 12 -45 71 -16 28 15 52 41 84 90 51 80 56 94 20
60 -30 -29 -32 -19 -4 26 31 51 92 89 207 130 216 77 327 196 308 328 -10 64
-60 143 -113 177 l-47 29 33 0 c18 0 41 -5 52 -10 30 -17 23 6 -10 30 -17 11
-56 33 -88 48 -53 24 -68 27 -163 25 -69 -1 -131 -8 -180 -21 -214 -57 -276
-106 -330 -260 -15 -40 -30 -73 -35 -73 -5 0 -16 25 -26 55 -42 139 -112 207
-256 254 -145 47 -269 62 -355 41z m292 -95 c29 -16 78 -51 108 -79 49 -44 55
-47 50 -25 -3 14 -9 34 -13 45 l-8 20 20 -20 c32 -31 63 -130 70 -218 8 -101
-9 -101 -46 -2 -18 47 -41 84 -74 119 -48 50 -48 51 -26 12 l22 -39 -24 16
c-36 23 -95 31 -128 17 -35 -14 -54 -54 -50 -109 4 -50 -3 -57 -40 -41 -40 16
-61 51 -61 99 0 33 7 47 35 76 39 38 34 43 -20 21 -62 -26 -95 -119 -64 -179
39 -76 137 -126 209 -107 59 16 100 72 100 136 l0 37 25 -23 c30 -28 55 -105
55 -168 l0 -45 -22 19 -21 19 6 -32 c6 -30 4 -33 -17 -33 -13 0 -43 9 -67 20
-24 11 -55 19 -69 19 -24 0 -24 -1 -3 -9 12 -5 27 -19 33 -31 12 -21 11 -22
-24 -16 -135 22 -286 162 -286 265 0 18 -5 32 -11 32 -19 0 -2 -99 27 -155
l26 -50 -31 29 c-42 40 -66 108 -65 184 0 62 -9 81 -19 40 -4 -12 -9 -19 -12
-16 -10 10 21 72 49 98 26 23 34 25 134 25 59 0 123 -4 142 -9 l35 -8 -20 22
c-21 23 -58 46 -110 67 -27 12 -22 13 50 10 67 -3 90 -9 135 -33z m874 20
c-50 -18 -136 -90 -94 -79 52 15 230 18 260 5 35 -15 66 -54 75 -96 l6 -29
-15 25 -15 25 -1 -25 c-5 -102 -26 -172 -66 -217 l-34 -38 24 55 c26 61 40
130 25 130 -5 0 -9 -12 -9 -26 0 -70 -86 -164 -202 -219 -81 -39 -121 -45
-116 -18 2 10 14 23 28 30 l25 13 -25 0 c-14 0 -45 -9 -69 -20 -65 -30 -82
-27 -74 13 l6 32 -21 -19 c-20 -17 -22 -17 -28 -2 -15 40 24 175 59 204 19 16
39 8 31 -12 -9 -23 14 -91 39 -114 38 -36 84 -44 143 -27 162 47 179 261 24
290 l-35 6 29 -20 c62 -42 74 -111 29 -160 -16 -16 -39 -33 -52 -36 -23 -7
-23 -6 -17 31 5 26 3 48 -9 75 -26 58 -81 74 -152 44 -47 -20 -48 -20 -22 18
19 28 16 26 -24 -12 -34 -32 -55 -65 -78 -123 -17 -43 -35 -81 -39 -83 -13 -8
-22 50 -15 102 10 72 46 170 72 195 l24 22 -15 -42 c-8 -23 -14 -42 -12 -42 1
0 25 20 52 45 27 25 80 61 118 80 60 31 78 35 140 34 l71 -1 -41 -14z m-876
-221 c1 -10 4 -34 8 -54 8 -46 -17 -96 -52 -105 -31 -8 -41 1 -24 21 8 9 10
27 6 49 -9 45 16 106 41 106 10 0 20 -8 21 -17z m743 0 c8 -9 14 -41 15 -76 0
-38 5 -62 12 -65 22 -7 13 -22 -13 -22 -52 0 -88 74 -66 133 6 16 9 33 5 38
-10 16 33 9 47 -8z m-233 -351 c15 -23 14 -25 -47 -85 l-63 -62 6 55 7 55 -22
-35 c-12 -19 -26 -47 -31 -63 -10 -27 -10 -27 -39 33 -15 33 -30 60 -33 60 -3
0 -2 -23 1 -50 l6 -51 -63 61 c-57 55 -61 62 -48 78 8 9 48 55 89 101 l74 83
73 -78 c41 -44 81 -89 90 -102z"/>
<path d="M319 1412 c-31 -27 -34 -35 -32 -81 2 -79 58 -180 85 -153 7 7 6 24
-6 58 -13 39 -14 58 -4 116 14 88 4 102 -43 60z"/>
<path d="M2184 1425 c-3 -8 -1 -29 5 -46 16 -45 14 -102 -5 -149 -12 -30 -14
-44 -6 -52 25 -25 79 61 89 141 5 43 2 51 -27 84 -35 40 -48 45 -56 22z"/>
<path d="M344 1115 c-20 -20 -24 -34 -24 -88 0 -130 61 -193 133 -137 37 29
43 74 18 141 -34 91 -86 125 -127 84z m66 -45 c0 -5 -9 -24 -20 -43 -19 -32
-19 -38 -7 -75 10 -27 10 -39 3 -36 -20 8 -37 45 -43 95 -5 39 -2 53 12 69 13
15 22 17 36 9 11 -5 19 -14 19 -19z"/>
<path d="M2164 1130 c-33 -13 -72 -67 -88 -121 -13 -44 -14 -55 -2 -84 39 -93
142 -62 167 51 11 47 10 63 -2 97 -17 47 -45 69 -75 57z m40 -46 c32 -31 8
-159 -32 -172 -11 -3 -10 3 2 26 21 41 20 64 -4 95 -25 31 -25 43 -2 56 9 6
18 11 19 11 1 0 9 -7 17 -16z"/>
<path d="M551 914 c-42 -53 -26 -179 21 -172 71 11 94 198 24 198 -15 0 -33
-11 -45 -26z"/>
<path d="M1920 910 c-24 -58 9 -159 54 -168 48 -10 70 78 38 152 -18 40 -25
46 -50 46 -23 0 -32 -6 -42 -30z"/>
<path d="M253 894 c-9 -25 23 -84 47 -84 25 0 27 28 5 70 -17 33 -42 39 -52
14z"/>
<path d="M2261 884 c-25 -32 -27 -62 -4 -71 22 -9 55 33 51 65 -4 35 -22 38
-47 6z"/>
<path d="M20 875 c0 -3 9 -18 20 -33 12 -16 29 -70 41 -127 12 -62 30 -114 45
-137 24 -37 89 -78 147 -92 l28 -7 -16 30 c-23 45 -19 45 21 2 26 -30 50 -44
92 -56 96 -27 132 -44 221 -104 l86 -58 188 -38 c137 -27 200 -35 232 -30 25
3 47 10 49 14 3 4 -39 18 -92 30 -213 51 -445 150 -530 226 -26 23 -61 46 -79
49 -18 4 -48 18 -68 31 -42 29 -44 24 -9 -22 34 -45 13 -42 -35 6 -42 42 -116
181 -127 237 -9 49 -21 51 -34 4 -6 -22 -13 -40 -15 -40 -3 0 -14 18 -25 40
-23 46 -71 80 -112 80 -16 0 -28 -2 -28 -5z m84 -50 c29 -44 73 -169 79 -224
l6 -54 -23 23 c-31 28 -43 58 -65 161 -10 46 -21 92 -25 102 -12 26 9 21 28
-8z"/>
<path d="M2460 862 c-22 -11 -42 -32 -55 -59 -11 -23 -23 -42 -26 -43 -3 0
-11 19 -18 42 l-13 42 -32 -86 c-37 -97 -84 -176 -128 -213 -37 -31 -58 -33
-32 -2 49 55 48 58 -11 27 -31 -16 -64 -30 -72 -30 -9 0 -33 -18 -55 -39 -89
-90 -386 -204 -680 -262 -92 -18 -165 -35 -163 -37 2 -2 22 -8 44 -13 33 -7
86 1 304 45 145 30 277 54 293 54 35 -1 61 12 129 63 60 45 140 83 210 100 35
8 63 24 94 53 40 37 43 36 25 -9 -5 -11 0 -13 24 -6 100 29 155 83 173 170 26
133 33 154 55 180 13 16 21 31 17 35 -11 11 -47 6 -83 -12z m31 -26 c-7 -8
-21 -58 -31 -111 -22 -108 -27 -120 -66 -155 -22 -20 -26 -21 -21 -7 4 10 10
37 13 60 13 90 91 253 112 233 3 -3 -1 -12 -7 -20z"/>
<path d="M690 840 c-10 -23 -10 -37 -2 -55 23 -50 66 -15 60 48 -4 46 -40 50
-58 7z"/>
<path d="M1805 848 c-9 -37 8 -83 33 -86 26 -4 40 37 26 77 -13 35 -51 41 -59
9z"/>
<path d="M804 815 c5 -11 10 -42 13 -70 3 -38 -1 -56 -15 -74 l-19 -24 5 53
c3 38 2 51 -7 46 -6 -4 -11 -13 -11 -21 0 -7 -11 -22 -25 -33 -18 -14 -25 -30
-25 -54 0 -78 65 -104 121 -49 25 25 29 37 29 83 0 57 -25 124 -55 148 -17 14
-18 13 -11 -5z"/>
<path d="M1713 789 c-24 -36 -28 -53 -28 -110 0 -81 19 -107 83 -116 35 -5 42
-2 57 21 22 33 14 80 -18 111 -12 11 -28 30 -35 41 -11 16 -12 11 -8 -36 5
-51 4 -53 -10 -35 -23 31 -27 61 -15 111 7 26 10 49 7 51 -2 3 -17 -14 -33
-38z"/>
<path d="M356 798 c-31 -50 12 -128 70 -128 59 0 86 86 41 128 -32 30 -91 30
-111 0z"/>
<path d="M2095 795 c-32 -31 -33 -74 -2 -103 71 -66 170 44 101 112 -23 24
-71 20 -99 -9z"/>
<path d="M625 668 c-13 -33 -6 -68 15 -68 16 0 40 44 40 72 0 41 -37 38 -55
-4z"/>
<path d="M1880 671 c0 -16 8 -39 19 -52 16 -20 21 -21 35 -10 20 17 20 40 0
69 -23 33 -54 29 -54 -7z"/>
<path d="M507 643 c-12 -11 -7 -48 9 -71 28 -40 91 -18 76 28 -13 39 -64 65
-85 43z"/>
<path d="M1990 630 c-30 -30 -24 -74 11 -78 36 -4 61 23 57 62 -4 39 -37 47
-68 16z"/>
<path d="M940 590 c-22 -22 -26 -70 -10 -101 6 -10 24 -26 41 -35 26 -13 36
-13 60 -3 60 24 66 82 14 128 -41 36 -76 40 -105 11z"/>
<path d="M1544 600 c-29 -11 -64 -58 -64 -84 1 -28 21 -53 53 -65 48 -19 101
17 113 76 5 26 1 37 -19 57 -27 27 -47 31 -83 16z"/>
<path d="M650 545 c-11 -13 -11 -22 3 -51 29 -61 106 -75 93 -16 -16 64 -68
101 -96 67z"/>
<path d="M1840 528 c-27 -45 -27 -88 1 -88 50 0 104 98 63 114 -30 12 -44 6
-64 -26z"/>
<path d="M812 514 c-26 -18 -29 -59 -7 -92 35 -49 163 -100 181 -71 5 8 -8 27
-38 53 -25 23 -53 57 -63 76 -27 53 -39 58 -73 34z"/>
<path d="M1156 521 c-8 -12 3 -41 15 -41 5 0 15 -16 23 -35 19 -44 59 -85 84
-85 30 0 70 37 77 73 4 17 16 39 28 48 13 11 18 23 14 33 -11 28 -49 15 -76
-26 -16 -25 -32 -38 -46 -38 -14 0 -30 13 -46 38 -23 36 -61 53 -73 33z"/>
<path d="M1697 512 c-10 -10 -17 -25 -17 -32 0 -8 -25 -37 -56 -66 -80 -73
-53 -99 52 -50 87 40 122 115 72 150 -28 20 -31 20 -51 -2z"/>
<path d="M290 430 c41 -36 115 -69 216 -96 53 -14 98 -24 100 -21 2 2 -16 18
-41 36 -49 35 -126 65 -208 80 -28 5 -61 12 -72 16 -17 6 -16 3 5 -15z"/>
<path d="M2202 429 c-92 -20 -168 -52 -222 -94 l-35 -26 40 6 c105 18 278 90
300 125 3 5 5 9 3 9 -2 -1 -40 -10 -86 -20z"/>
<path d="M1057 413 c-4 -3 -7 -21 -7 -39 0 -61 99 -119 164 -94 39 15 35 47
-8 56 -22 4 -48 20 -71 45 -33 36 -62 48 -78 32z"/>
<path d="M1427 382 c-21 -22 -53 -44 -70 -49 -47 -13 -47 -39 1 -54 34 -10 45
-9 85 9 76 34 103 121 41 130 -12 2 -34 -13 -57 -36z"/>
<path d="M824 221 c3 -5 57 -29 120 -55 63 -25 160 -66 215 -91 56 -25 108
-45 117 -45 8 0 75 26 147 58 73 32 171 74 219 93 49 19 88 37 88 42 0 29
-219 -22 -349 -81 l-108 -49 -48 24 c-92 47 -197 84 -278 99 -94 16 -131 18
-123 5z"/>
</g>
</svg>
