<?xml version="1.0" standalone="no"?>
<!DOCTYPE svg PUBLIC "-//W3C//DTD SVG 20010904//EN"
 "http://www.w3.org/TR/2001/REC-SVG-20010904/DTD/svg10.dtd">
<svg version="1.0" xmlns="http://www.w3.org/2000/svg"
 width="256.000000pt" height="256.000000pt" viewBox="0 0 256.000000 256.000000"
 preserveAspectRatio="xMidYMid meet">
<metadata>
Created by potrace 1.16, written by Peter Selinger 2001-2019
</metadata>
<g transform="translate(0.000000,256.000000) scale(0.100000,-0.100000)"
fill="#e5e5e5" stroke="none">
<path d="M1223 2525 c-12 -8 -31 -31 -44 -51 -19 -32 -20 -37 -6 -51 14 -14
18 -13 41 11 14 14 33 35 41 46 24 32 31 29 99 -51 8 -10 22 -16 30 -13 11 4
13 0 9 -17 -4 -13 -8 -18 -11 -11 -8 26 -17 10 -17 -33 0 -45 12 -57 33 -32
22 27 23 63 2 112 -32 75 -65 105 -115 105 -22 0 -50 -7 -62 -15z m-13 -74
c-10 -20 -30 -29 -30 -14 0 10 33 44 37 39 3 -2 0 -14 -7 -25z m158 17 c14
-14 16 -42 2 -33 -14 9 -32 45 -22 45 4 0 13 -5 20 -12z"/>
<path d="M1263 2468 c-10 -11 -43 -85 -43 -94 0 -12 29 12 38 32 15 32 33 30
54 -6 28 -50 38 -34 14 23 -24 53 -45 68 -63 45z"/>
<path d="M1050 2463 c-101 -15 -158 -52 -145 -92 9 -29 25 -26 25 4 0 29 42
59 98 70 27 5 41 2 63 -14 l28 -21 11 20 c20 37 -2 46 -80 33z"/>
<path d="M1426 2461 c-4 -6 -2 -20 4 -32 10 -18 13 -19 28 -6 27 23 58 29 100
18 44 -12 72 -39 75 -70 2 -27 21 -22 25 7 4 28 -28 59 -75 71 -66 18 -150 24
-157 12z"/>
<path d="M809 2408 c-54 -39 -55 -40 -129 -161 -102 -166 -214 -425 -298 -688
-65 -205 -84 -305 -86 -464 -2 -135 -4 -142 -34 -207 l-33 -67 21 -63 c12 -35
33 -82 47 -106 46 -80 16 -54 -38 32 -30 47 -57 86 -61 86 -21 0 -3 -64 38
-137 114 -201 311 -348 622 -462 l82 -31 20 33 c11 17 20 46 20 62 1 17 7 41
15 55 l14 25 1 -36 c0 -53 27 -134 56 -168 41 -50 136 -91 209 -91 162 0 274
102 275 249 1 42 2 44 15 28 7 -11 16 -38 20 -60 8 -57 25 -87 47 -87 64 0
363 144 478 231 126 95 282 315 262 369 -8 21 -14 15 -65 -63 -31 -48 -59 -87
-62 -87 -3 0 9 28 26 63 18 34 39 84 49 111 16 49 16 51 -7 90 -36 63 -44 106
-47 259 -3 118 -9 162 -34 262 -55 216 -163 507 -258 696 -105 211 -172 307
-234 339 -53 27 -71 25 -29 -3 46 -31 47 -73 4 -99 -81 -47 -333 -73 -567 -58
-157 11 -227 23 -285 51 -65 31 -67 80 -5 113 17 10 21 15 11 16 -9 0 -36 -14
-60 -32z m151 -163 c106 -22 410 -31 540 -16 108 13 242 51 272 78 15 13 19
10 47 -39 176 -303 242 -517 242 -783 1 -175 -21 -227 -102 -240 -39 -7 -39
-7 -39 -54 0 -26 -5 -73 -10 -104 l-11 -57 41 -38 c34 -33 40 -45 40 -79 0
-80 -88 -288 -135 -319 -37 -24 -155 -44 -267 -44 -96 0 -108 -2 -118 -19 -5
-11 -10 -23 -10 -28 0 -12 67 -53 88 -53 20 0 86 -65 124 -123 l25 -38 99 52
c125 66 174 99 247 168 53 50 157 179 157 195 0 20 -35 -1 -72 -45 -73 -85
-294 -236 -396 -270 -33 -11 -36 -10 -81 34 -25 26 -67 55 -93 67 -76 33 -61
42 66 34 76 -5 124 -3 146 5 47 16 51 4 10 -30 l-35 -29 29 10 c17 6 68 34
115 62 101 60 281 234 321 311 14 26 27 47 30 47 3 0 18 -24 34 -53 l28 -53
-22 -45 c-88 -172 -205 -279 -482 -442 -130 -77 -122 -75 -147 -25 -18 36 -93
128 -105 128 -2 0 -7 -21 -11 -48 l-7 -47 -18 46 c-15 40 -50 103 -50 89 0 -3
7 -23 15 -45 28 -79 16 -195 -27 -257 -10 -14 -18 -34 -18 -45 1 -14 9 -9 35
21 19 22 35 34 35 27 0 -7 -17 -29 -37 -50 l-36 -36 -9 30 c-6 23 -3 39 12 67
40 73 34 219 -11 270 l-21 23 5 -22 c6 -26 -7 -29 -43 -8 -33 19 -92 19 -137
0 -45 -19 -46 -19 -40 5 8 31 -11 23 -30 -12 -10 -21 -18 -65 -21 -119 -4 -72
-1 -92 17 -126 16 -33 25 -103 13 -103 -15 0 -44 26 -61 54 -32 51 -25 55 10
6 27 -37 33 -41 41 -26 7 12 3 24 -15 46 -49 58 -60 196 -21 273 15 30 15 31
0 16 -9 -8 -28 -42 -41 -75 -24 -57 -25 -58 -25 -24 -2 75 -11 76 -68 10 -29
-34 -55 -73 -58 -86 -3 -13 -11 -24 -16 -24 -12 0 -171 92 -283 165 -143 92
-252 209 -319 342 l-26 52 32 50 31 51 36 -54 c55 -83 165 -201 234 -250 60
-43 204 -126 219 -126 4 0 -9 16 -30 36 -22 21 -29 33 -17 28 11 -5 79 -9 150
-9 79 0 130 -4 131 -10 1 -5 -19 -18 -44 -27 -25 -10 -67 -39 -93 -64 l-48
-47 -43 17 c-104 42 -253 141 -342 229 -114 111 -142 112 -58 1 99 -130 189
-202 368 -292 l82 -41 26 40 c48 71 97 119 123 119 13 0 39 12 58 27 28 23 32
30 23 48 -10 21 -18 23 -152 27 -102 4 -156 10 -196 24 l-55 19 -51 101 c-28
56 -57 129 -64 164 -12 58 -12 66 6 98 16 30 28 41 62 59 2 1 -2 50 -9 110
l-12 108 -46 15 c-38 13 -50 22 -69 60 -23 43 -23 52 -18 205 5 168 22 265 69
400 34 97 41 112 125 265 l73 136 57 -28 c31 -16 91 -35 132 -43z m1216 -895
c16 -90 21 -258 9 -325 -17 -101 -69 -210 -125 -260 l-21 -19 20 47 c11 26 25
65 31 87 6 23 14 49 16 58 3 9 -12 -15 -34 -55 -46 -81 -118 -188 -107 -158
73 198 94 281 123 485 l9 65 3 -60 c2 -58 2 -59 12 -25 5 19 10 107 11 194 l1
159 18 -54 c10 -30 25 -92 34 -139z m-1723 -177 c4 -3 7 16 7 43 0 35 3 45 10
34 5 -8 10 -29 10 -46 0 -93 59 -341 105 -441 13 -29 22 -53 20 -53 -8 0 -68
93 -111 173 -24 45 -44 80 -44 77 0 -10 52 -165 62 -183 5 -10 7 -21 5 -24
-11 -11 -101 133 -119 190 -40 128 -34 337 15 512 l22 80 6 -177 c3 -98 9
-181 12 -185z m89 57 c18 -11 43 -20 56 -20 19 0 22 -5 22 -37 0 -21 3 -62 6
-90 5 -36 3 -53 -4 -53 -30 0 -94 104 -111 179 -5 23 -7 41 -5 41 2 0 18 -9
36 -20z m1513 -12 c-16 -77 -81 -188 -110 -188 -11 0 -12 16 -8 78 6 100 5 98
46 106 19 4 40 13 47 21 21 25 32 17 25 -17z m-704 -831 c45 -30 59 -60 59
-129 0 -52 -4 -62 -35 -96 -24 -27 -34 -47 -32 -67 2 -24 -3 -29 -30 -37 -19
-5 -47 -5 -65 0 -29 8 -33 13 -30 37 2 19 -5 36 -21 54 -36 38 -47 65 -47 113
0 117 111 186 201 125z"/>
<path d="M858 2223 c-42 -47 -29 -158 24 -219 37 -42 60 -55 113 -65 70 -13
175 25 175 64 0 5 -18 29 -39 52 -22 24 -48 66 -57 94 -10 28 -25 53 -34 56
-11 5 -157 35 -166 35 0 0 -8 -8 -16 -17z m82 -22 c23 -6 25 -12 25 -64 0 -48
-2 -55 -12 -40 -7 9 -15 14 -18 11 -11 -10 25 -82 58 -117 l32 -34 -29 7 c-76
18 -125 90 -126 182 0 67 7 73 70 55z"/>
<path d="M1591 2222 c-42 -10 -77 -23 -81 -32 -5 -8 -16 -35 -26 -60 -11 -25
-37 -62 -58 -84 -44 -44 -42 -57 14 -90 46 -27 132 -26 187 3 25 12 55 39 70
63 24 36 28 52 28 116 0 61 -3 76 -19 88 -23 17 -21 17 -115 -4z m97 -86 c-2
-56 -9 -82 -24 -102 -27 -37 -62 -62 -99 -70 l-30 -7 36 39 c44 46 59 75 59
106 l-1 23 -14 -25 c-14 -24 -14 -24 -16 23 -1 26 -2 53 -3 59 -1 12 35 24 78
27 16 1 18 -6 14 -73z"/>
<path d="M1100 2184 c0 -56 66 -129 135 -149 48 -14 57 -14 106 2 45 15 59 26
87 67 17 26 32 58 32 70 0 21 -3 21 -180 21 -135 1 -180 -2 -180 -11z m227
-42 c-8 -9 -22 -30 -30 -46 l-15 -28 -12 23 c-7 13 -22 34 -33 47 l-20 22 63
0 c59 0 62 -1 47 -18z"/>
<path d="M703 2078 c-32 -64 -37 -82 -38 -145 0 -77 13 -106 69 -147 59 -44
199 -14 242 52 13 20 14 26 3 33 -8 5 -19 9 -26 9 -6 0 -39 26 -73 57 -61 57
-101 120 -115 181 -3 17 -11 32 -16 32 -5 0 -25 -33 -46 -72z m30 -108 c3 -25
9 -55 13 -65 7 -18 6 -18 -9 -6 -13 10 -17 10 -17 1 0 -19 39 -78 58 -90 16
-9 15 -9 -1 -10 -10 0 -31 13 -47 28 -35 36 -46 95 -30 164 14 57 24 50 33
-22z"/>
<path d="M1800 2127 c0 -45 -58 -143 -114 -191 -29 -25 -65 -51 -80 -57 -35
-16 -33 -32 11 -68 64 -53 162 -60 228 -17 34 22 55 77 55 144 0 49 -7 72 -37
133 -40 77 -63 98 -63 56z m67 -172 c7 -63 -8 -106 -45 -135 -41 -33 -53 -23
-16 14 19 19 34 44 34 57 0 22 0 22 -16 3 -15 -19 -16 -19 -9 1 4 11 12 49 18
83 12 74 25 65 34 -23z"/>
<path d="M1162 1957 c-22 -19 -54 -40 -71 -47 -39 -16 -39 -33 2 -100 44 -73
95 -100 191 -100 89 0 137 25 184 94 42 64 42 92 -1 110 -19 7 -49 28 -69 45
-34 29 -40 31 -116 31 -76 0 -82 -2 -120 -33z m-2 -83 c0 -21 -4 -33 -10 -29
-14 9 -12 -16 4 -48 14 -25 14 -26 -3 -17 -10 5 -26 26 -36 47 l-18 37 27 23
c15 13 29 23 32 23 2 0 4 -16 4 -36z m279 16 c28 -24 23 -55 -15 -97 -20 -22
-24 -23 -19 -8 16 42 18 68 6 61 -7 -5 -11 4 -11 28 0 41 6 43 39 16z"/>
<path d="M595 1828 c-22 -56 -32 -188 -16 -226 18 -44 63 -65 119 -57 40 6 55
15 105 66 31 33 57 66 57 74 0 7 -17 16 -37 20 -80 15 -164 75 -185 130 -6 19
-15 35 -19 35 -4 0 -15 -19 -24 -42z m39 -177 c4 -6 2 -11 -3 -11 -20 0 -11
-22 20 -51 23 -21 27 -29 15 -29 -9 0 -28 11 -41 25 -22 21 -25 32 -24 97 l1
73 13 -46 c7 -26 15 -52 19 -58z"/>
<path d="M1935 1849 c-13 -39 -70 -92 -130 -121 -33 -15 -68 -28 -77 -28 -31
0 -28 -18 13 -70 42 -53 102 -89 149 -90 40 0 87 35 100 75 13 41 7 117 -16
196 -17 55 -30 68 -39 38z m31 -203 c-5 -32 -15 -52 -33 -66 -38 -30 -51 -24
-20 8 15 16 26 37 25 48 -1 10 2 42 7 69 l9 50 9 -32 c5 -17 6 -52 3 -77z"/>
<path d="M985 1794 c-22 -19 -55 -39 -72 -46 -35 -13 -40 -29 -19 -66 41 -74
180 -84 235 -18 11 13 6 24 -38 72 -28 30 -51 62 -51 69 0 26 -15 23 -55 -11z
m-34 -88 c-18 -35 -20 -36 -30 -17 -6 11 -11 22 -11 25 0 6 54 36 57 32 2 -1
-6 -19 -16 -40z"/>
<path d="M1517 1795 c-9 -19 -32 -52 -52 -73 -19 -22 -35 -44 -35 -50 0 -6 15
-20 34 -31 62 -38 163 -23 200 31 27 39 20 63 -23 83 -22 9 -52 30 -67 46 -15
16 -31 29 -34 29 -3 0 -14 -16 -23 -35z m125 -65 c13 0 6 -42 -8 -47 -6 -2
-14 4 -18 14 -3 10 -9 24 -12 32 -5 10 -2 12 10 8 10 -4 22 -7 28 -7z"/>
<path d="M1165 1639 c4 -24 13 -56 21 -70 17 -34 70 -79 92 -79 54 0 122 89
122 159 0 29 -2 31 -21 21 -23 -13 -173 -9 -203 4 -17 8 -18 6 -11 -35z m105
-84 c18 -4 34 0 53 15 22 18 27 19 27 6 0 -24 -37 -56 -64 -56 -29 0 -76 36
-76 57 0 15 2 15 18 0 9 -8 28 -18 42 -22z"/>
<path d="M817 1581 c-33 -37 -62 -100 -55 -121 2 -5 27 29 55 75 57 91 57 109
0 46z"/>
<path d="M1700 1617 c0 -3 21 -41 48 -83 28 -47 48 -71 50 -61 5 25 -25 80
-63 117 -19 19 -35 31 -35 27z"/>
<path d="M890 1585 c-27 -29 -21 -55 15 -55 13 0 60 -18 102 -40 l78 -40 -86
0 c-92 0 -176 -20 -222 -52 -40 -29 -64 -84 -72 -164 -6 -61 -4 -76 14 -112
22 -42 54 -68 71 -57 6 4 0 19 -15 37 -14 16 -25 34 -25 40 0 5 12 -4 26 -21
23 -28 30 -30 64 -25 34 6 43 3 70 -24 16 -17 30 -39 30 -50 0 -11 7 -25 15
-32 20 -17 19 -24 -7 -35 -13 -6 -24 -17 -25 -25 -3 -20 53 -84 66 -76 6 4 11
29 11 57 0 27 3 49 8 49 4 0 29 -16 56 -35 27 -19 55 -35 63 -35 29 0 1 -72
-50 -128 -16 -17 -18 -25 -9 -34 18 -18 14 -45 -10 -62 -18 -13 -19 -18 -8
-31 18 -22 26 -19 40 15 21 50 31 46 24 -8 -6 -45 -4 -51 16 -62 27 -14 50 -6
50 17 0 26 21 96 26 90 3 -3 9 -36 12 -74 l7 -68 55 0 55 0 10 67 c13 84 22
93 30 31 9 -67 12 -73 33 -73 30 0 42 21 43 75 l1 50 15 -35 c20 -47 22 -48
39 -26 12 18 11 22 -8 43 -19 20 -20 27 -10 44 11 17 9 24 -12 52 -27 37 -56
91 -56 107 0 5 7 10 16 10 9 0 38 16 64 35 26 19 50 35 54 35 3 0 6 -22 6 -49
0 -66 16 -73 56 -25 30 36 32 40 17 56 -9 10 -22 18 -30 18 -7 0 -13 5 -13 10
0 6 3 10 8 10 4 0 17 22 29 49 25 53 64 78 103 66 16 -5 29 0 51 21 16 15 29
23 29 17 0 -5 -9 -18 -20 -28 -22 -20 -27 -45 -9 -45 22 0 67 61 74 101 10 60
-4 154 -29 191 -47 70 -124 98 -267 98 l-81 0 76 40 c41 22 87 40 101 40 35 0
42 26 15 55 -16 17 -27 22 -35 15 -7 -6 -30 -11 -52 -13 -22 -1 -48 -9 -57
-16 -9 -7 -16 -10 -16 -5 0 5 -9 -2 -19 -16 -16 -19 -22 -22 -34 -12 -11 10
-17 9 -27 -3 -7 -9 -17 -14 -22 -13 -6 2 -25 -11 -45 -29 -19 -18 -46 -36 -59
-39 -32 -8 -99 21 -119 53 -9 13 -20 21 -26 17 -6 -3 -16 2 -24 12 -11 16 -15
16 -30 4 -15 -12 -19 -11 -36 10 -10 14 -19 21 -19 16 0 -5 -7 -2 -16 5 -9 7
-35 15 -57 16 -22 2 -45 7 -52 13 -8 7 -19 2 -35 -15z m273 -285 c34 -32 35
-52 11 -167 -6 -29 -52 -83 -71 -83 -11 0 -13 3 -5 13 8 9 -6 12 -64 13 -93 2
-146 29 -189 96 -16 26 -37 46 -45 45 -9 -1 -15 6 -15 18 0 18 9 21 75 27 89
9 195 39 165 46 -16 4 -11 8 20 18 51 15 83 9 118 -26z m362 24 c25 -6 27 -8
10 -14 -29 -10 81 -41 173 -47 67 -6 73 -8 70 -27 -2 -14 -9 -20 -21 -18 -9 2
-20 -5 -24 -15 -13 -37 -56 -84 -96 -105 -32 -17 -60 -22 -114 -23 -56 0 -69
-3 -61 -12 15 -18 -3 -16 -30 3 -29 20 -52 66 -52 104 0 17 -4 39 -10 49 -21
41 63 130 110 116 8 -2 28 -7 45 -11z m-149 -462 c7 -38 -1 -50 -36 -54 -20
-2 -28 4 -42 31 -15 30 -18 32 -24 15 -13 -35 -34 -51 -59 -47 -13 3 -26 11
-29 19 -8 21 19 95 61 166 l36 61 43 -79 c24 -43 47 -94 50 -112z"/>
<path d="M535 1506 c-13 -102 13 -185 63 -198 11 -3 33 1 51 8 36 15 55 52 65
127 l7 47 -41 0 c-51 0 -103 21 -123 50 -15 21 -16 20 -22 -34z m86 -153 l24
-12 -24 0 c-36 -1 -61 26 -61 68 l0 36 19 -40 c10 -22 29 -46 42 -52z"/>
<path d="M1999 1534 c-23 -28 -70 -46 -111 -42 l-40 4 4 -58 c7 -92 59 -147
120 -126 41 14 58 60 58 152 0 77 -8 97 -31 70z m-4 -163 c-11 -23 -23 -31
-42 -31 l-26 0 25 20 c14 10 32 34 39 52 12 29 14 30 17 11 2 -12 -4 -35 -13
-52z"/>
<path d="M832 1069 c-25 -9 -42 -44 -34 -71 5 -22 49 -35 71 -21 25 16 19 38
-9 38 -29 0 -35 28 -7 33 25 5 47 -16 47 -43 0 -27 -15 -41 -55 -50 -79 -18
-105 -38 -105 -87 -1 -22 -2 -22 -29 9 -16 17 -32 29 -35 26 -3 -4 -6 -2 -6 2
0 5 14 24 32 42 35 36 27 41 -29 18 -34 -15 -35 -16 -30 -57 18 -134 188 -215
338 -163 44 16 129 89 129 110 0 7 -19 27 -42 45 -40 32 -41 33 -35 9 9 -30
18 -111 11 -86 -5 16 -7 16 -31 -3 -61 -47 -151 -44 -199 7 -41 44 -31 69 36
92 74 25 98 75 60 123 -23 30 -47 38 -78 27z"/>
<path d="M1682 1069 c-25 -10 -53 -64 -44 -88 10 -31 35 -50 83 -66 39 -13 49
-21 49 -39 0 -34 -26 -63 -74 -81 -38 -15 -50 -15 -83 -5 -21 7 -51 22 -67 33
-29 20 -29 20 -22 1 5 -14 4 -16 -4 -7 -9 8 -8 23 3 62 8 28 12 51 8 51 -4 0
-24 -17 -44 -38 l-37 -38 32 -38 c82 -100 269 -117 364 -34 41 36 65 78 74
131 7 36 6 38 -27 52 -50 21 -60 19 -36 -7 34 -38 34 -45 4 -77 -35 -38 -38
-38 -38 -4 0 32 -44 73 -78 73 -62 0 -98 38 -75 80 11 21 54 28 65 9 9 -14 0
-21 -27 -23 -16 -1 -23 -7 -23 -21 0 -16 7 -20 34 -20 45 0 62 25 41 62 -18
31 -47 43 -78 32z"/>
<path d="M730 717 c0 -8 6 -18 13 -21 6 -3 2 -3 -9 -1 -31 8 -39 -21 -12 -39
12 -9 45 -21 74 -27 44 -10 64 -9 119 4 89 22 135 45 135 68 0 30 -18 31 -85
4 -53 -21 -78 -25 -133 -22 l-67 3 72 2 c40 1 75 7 79 13 4 8 -2 9 -22 5 -27
-6 -108 5 -146 19 -12 5 -18 2 -18 -8z"/>
<path d="M1513 713 c-23 -61 216 -114 310 -69 41 20 45 31 19 64 -16 21 -21
22 -47 12 -17 -7 -58 -13 -92 -13 -80 -2 -70 -10 20 -18 l72 -6 -70 -1 c-54
-1 -84 4 -130 23 -71 30 -74 30 -82 8z"/>
<path d="M921 501 c-8 -5 -11 -16 -8 -25 6 -15 11 -14 49 5 24 12 45 23 47 25
9 8 -75 3 -88 -5z"/>
<path d="M1596 485 c27 -14 50 -25 50 -25 1 0 4 9 7 19 6 24 -10 31 -66 31
l-40 0 49 -25z"/>
<path d="M1250 370 c-12 -7 -12 -12 -2 -22 6 -6 12 -17 12 -22 -1 -6 -9 -1
-19 11 -16 20 -21 21 -31 8 -9 -11 -9 -19 -2 -28 7 -8 6 -19 -3 -37 -19 -33
-19 -71 0 -96 14 -18 14 -17 16 16 l1 35 8 -32 c20 -87 92 -82 102 7 l4 35 9
-33 c4 -18 11 -30 15 -25 13 14 21 123 9 123 -6 0 -8 -9 -4 -22 5 -20 5 -21
-5 -5 -8 13 -8 22 -1 31 8 9 7 18 -3 32 -14 18 -14 18 -33 -2 -10 -11 -14 -14
-9 -7 21 32 -26 57 -64 33z"/>
<path d="M1187 304 c-4 -4 -7 -14 -7 -23 0 -11 3 -12 11 -4 6 6 10 16 7 23 -2
6 -7 8 -11 4z"/>
<path d="M980 2400 c-21 -21 -28 -46 -10 -35 6 3 10 -3 10 -14 0 -12 7 -21 15
-21 8 0 15 7 15 16 0 8 13 29 29 45 l29 29 -34 0 c-21 0 -42 -8 -54 -20z"/>
<path d="M1150 2384 c0 -43 15 -74 36 -74 12 0 15 6 10 25 -4 14 -2 34 4 45 8
16 8 20 -4 20 -8 0 -17 -8 -19 -17 -3 -11 -5 -7 -6 10 -2 40 -21 33 -21 -9z"/>
<path d="M1517 2402 c12 -9 27 -30 33 -45 10 -28 38 -33 32 -7 -2 7 3 17 10
22 20 13 -28 48 -66 48 l-31 0 22 -18z"/>
<path d="M1044 2375 c-32 -32 -27 -49 14 -53 27 -3 31 -1 25 15 -5 14 -1 13
20 -6 15 -14 29 -22 32 -19 10 9 -17 68 -35 78 -26 14 -28 13 -56 -15z"/>
<path d="M1270 2390 c0 -5 5 -10 10 -10 6 0 10 5 10 10 0 6 -4 10 -10 10 -5 0
-10 -4 -10 -10z"/>
<path d="M1457 2382 c-23 -25 -39 -72 -25 -72 6 0 17 8 25 18 10 12 16 14 19
5 3 -7 19 -13 35 -13 38 0 39 30 3 59 -32 25 -37 26 -57 3z"/>
<path d="M1227 2353 c-12 -12 -7 -43 7 -43 9 0 12 8 8 25 -5 27 -6 28 -15 18z"/>
<path d="M1254 2346 c-9 -22 4 -36 32 -36 21 0 25 4 22 23 -4 26 -45 37 -54
13z"/>
<path d="M1327 2354 c-10 -10 -9 -44 2 -44 13 0 23 32 13 42 -5 5 -11 5 -15 2z"/>
</g>
</svg>
