<?xml version="1.0" standalone="no"?>
<!DOCTYPE svg PUBLIC "-//W3C//DTD SVG 20010904//EN"
 "http://www.w3.org/TR/2001/REC-SVG-20010904/DTD/svg10.dtd">
<svg version="1.0" xmlns="http://www.w3.org/2000/svg"
 width="256.000000pt" height="256.000000pt" viewBox="0 0 256.000000 256.000000"
 preserveAspectRatio="xMidYMid meet">
<metadata>
Created by potrace 1.16, written by Peter Selinger 2001-2019
</metadata>
<g transform="translate(0.000000,256.000000) scale(0.100000,-0.100000)"
fill="#e5e5e5" stroke="none">
<path d="M1064 2519 c-17 -5 -39 -18 -50 -30 -18 -20 -18 -21 1 -36 24 -18 94
-12 170 13 65 22 79 32 64 50 -13 16 -134 18 -185 3z"/>
<path d="M1323 2524 c-43 -19 42 -66 145 -80 85 -11 123 29 60 63 -33 16 -179
29 -205 17z"/>
<path d="M865 2468 c-44 -16 -105 -59 -129 -91 -18 -24 -18 -29 -6 -37 22 -14
55 -4 150 44 91 47 115 70 90 86 -19 12 -67 11 -105 -2z"/>
<path d="M1589 2464 c-11 -14 -9 -19 11 -34 45 -34 165 -89 200 -92 48 -4 49
19 4 65 -62 61 -185 97 -215 61z"/>
<path d="M1210 2442 c-24 -11 -43 -32 -59 -66 -22 -44 -23 -53 -13 -93 17 -63
37 -89 88 -113 131 -64 261 108 174 231 -41 57 -123 75 -190 41z"/>
<path d="M990 2411 c-45 -15 -125 -58 -143 -79 -28 -30 -19 -66 18 -72 66 -12
185 22 229 65 20 20 21 59 2 74 -19 16 -75 22 -106 12z"/>
<path d="M1478 2405 c-94 -53 52 -152 214 -146 44 2 53 33 22 71 -56 66 -182
106 -236 75z"/>
<path d="M608 2385 c-2 -3 -49 -9 -103 -15 -63 -6 -116 -18 -143 -31 -77 -38
-120 -120 -140 -266 -5 -35 -8 -63 -6 -63 1 0 25 11 52 25 l49 25 7 70 c10
107 31 148 85 165 21 6 19 3 -10 -23 -19 -17 -32 -33 -29 -35 3 -3 30 3 60 13
30 11 66 19 80 20 18 0 44 19 85 60 47 48 55 60 39 60 -11 0 -23 -2 -26 -5z"/>
<path d="M1967 2331 c39 -39 69 -61 85 -61 12 -1 48 -9 78 -20 30 -10 57 -17
59 -14 3 2 -9 18 -25 35 -28 29 -28 30 -4 21 47 -18 64 -57 85 -203 5 -31 11
-39 48 -54 23 -10 45 -20 49 -22 18 -11 -20 173 -47 227 -44 86 -95 115 -232
130 -49 5 -104 12 -123 15 l-35 7 62 -61z"/>
<path d="M625 2276 c-41 -39 -46 -48 -43 -81 2 -23 10 -42 21 -49 48 -30 155
92 129 149 -18 39 -54 32 -107 -19z"/>
<path d="M772 2297 c-20 -21 -29 -47 -18 -47 24 0 54 23 58 44 7 33 -11 34
-40 3z"/>
<path d="M1748 2294 c4 -21 34 -44 58 -44 12 0 1 29 -19 48 -31 29 -45 28 -39
-4z"/>
<path d="M1837 2313 c-13 -13 -7 -64 12 -101 24 -47 83 -82 109 -66 23 15 27
63 8 99 -28 51 -106 92 -129 68z"/>
<path d="M1010 2251 c-104 -32 -139 -93 -85 -147 23 -22 31 -25 68 -19 60 10
122 42 137 70 18 33 5 72 -30 90 -31 16 -51 18 -90 6z"/>
<path d="M1459 2245 c-15 -8 -30 -27 -33 -41 -13 -52 48 -103 141 -119 37 -6
45 -3 68 19 52 52 24 109 -68 140 -58 19 -74 19 -108 1z"/>
<path d="M754 2221 c-68 -42 -82 -142 -20 -149 62 -7 146 60 146 118 0 50 -67
67 -126 31z"/>
<path d="M1698 2229 c-33 -19 -23 -68 22 -110 64 -61 141 -65 148 -6 10 79
-103 156 -170 116z"/>
<path d="M528 2143 c-23 -27 -38 -59 -38 -82 0 -33 37 -26 60 12 36 59 18 116
-22 70z"/>
<path d="M1990 2141 c0 -46 37 -101 67 -101 20 0 12 56 -12 94 -21 31 -55 35
-55 7z"/>
<path d="M1142 2102 c-32 -26 -33 -28 -15 -44 40 -34 69 -42 153 -42 68 0 93
4 128 22 23 12 42 26 42 31 0 5 -14 20 -31 34 -29 22 -34 23 -67 11 -49 -18
-95 -17 -139 1 -19 8 -36 15 -37 15 0 0 -16 -13 -34 -28z"/>
<path d="M634 2110 c-37 -14 -75 -70 -72 -104 4 -46 37 -46 76 -1 18 19 35 47
38 61 8 33 -13 55 -42 44z"/>
<path d="M1890 2105 c-27 -32 44 -142 87 -133 43 8 18 99 -37 131 -34 21 -35
21 -50 2z"/>
<path d="M831 2080 c-39 -25 -42 -28 -23 -34 25 -8 57 10 71 41 13 29 6 28
-48 -7z"/>
<path d="M1681 2095 c6 -29 53 -59 74 -47 17 9 16 11 -6 22 -13 7 -35 20 -48
28 -21 15 -23 14 -20 -3z"/>
<path d="M352 2038 c-191 -70 -282 -229 -252 -437 12 -80 91 -328 142 -446 56
-128 139 -288 175 -337 56 -77 166 -127 277 -128 51 0 41 9 -21 20 l-48 8 50
1 c89 2 128 -26 256 -183 224 -273 271 -332 307 -388 20 -31 39 -57 42 -57 3
-1 18 20 35 46 32 51 136 182 318 402 133 159 164 181 252 180 l50 -1 -48 -8
c-27 -5 -52 -12 -55 -16 -9 -9 114 3 160 16 58 17 129 71 170 130 87 127 257
549 294 730 18 91 14 171 -13 255 -12 37 -33 67 -82 116 -58 58 -77 69 -154
97 -48 18 -92 32 -96 32 -5 0 4 -30 19 -67 23 -58 33 -72 71 -93 53 -31 104
-104 115 -162 l7 -43 9 35 c7 33 4 79 -9 125 -3 13 -2 17 5 10 5 -5 15 -34 21
-63 15 -74 -5 -193 -71 -417 -57 -195 -195 -363 -370 -451 -107 -54 -164 -65
-314 -62 l-131 2 -34 -38 c-19 -21 -45 -54 -58 -73 -25 -34 -25 -34 -5 -54 20
-19 20 -19 59 37 48 69 90 103 106 87 8 -8 5 -13 -11 -18 -16 -5 -19 -10 -10
-20 14 -16 14 -16 -63 -119 -32 -44 -67 -97 -78 -117 l-19 -38 22 -16 c27 -18
30 -16 110 115 78 129 105 160 136 159 26 0 26 -1 5 -9 -27 -11 -28 -18 -7
-42 16 -17 18 -17 50 3 19 11 40 19 47 16 7 -2 0 -10 -16 -18 -15 -7 -51 -44
-79 -83 -28 -39 -74 -100 -103 -136 -29 -36 -92 -119 -140 -185 -48 -66 -91
-120 -95 -120 -4 0 -45 52 -90 115 -45 63 -108 147 -139 185 -31 39 -79 101
-105 138 -26 38 -62 77 -80 88 -17 10 -24 19 -16 19 8 0 30 -9 49 -21 32 -19
34 -19 47 -2 18 24 17 30 -3 42 -16 9 -16 10 3 11 28 0 50 -26 125 -145 34
-55 70 -110 79 -122 17 -22 18 -23 40 -5 l23 19 -28 46 c-15 26 -53 82 -86
124 -48 63 -56 79 -48 95 9 16 7 20 -10 25 -20 5 -20 23 -1 23 17 0 79 -61
107 -105 15 -25 31 -45 34 -45 3 0 12 11 19 25 12 22 10 28 -26 71 -21 25 -47
56 -56 68 -16 19 -24 20 -145 18 -149 -4 -196 5 -308 59 -186 89 -318 245
-379 449 -74 249 -94 392 -62 465 11 27 12 21 9 -60 l-3 -90 19 58 c25 75 62
123 117 150 24 11 44 26 44 31 0 6 11 37 24 69 15 35 19 57 12 56 -6 0 -48
-14 -94 -31z m-32 -827 c90 -138 271 -296 429 -376 47 -23 52 -29 37 -37 -33
-19 -108 -13 -156 12 -50 25 -166 141 -237 235 -51 68 -144 245 -129 245 2 0
27 -36 56 -79z m1935 -23 c-26 -51 -65 -117 -88 -147 -67 -87 -199 -216 -242
-237 -43 -20 -121 -23 -151 -6 -15 8 -8 15 47 42 166 84 330 226 414 360 32
50 59 89 62 86 2 -2 -16 -46 -42 -98z"/>
<path d="M524 949 c14 -22 66 -57 66 -45 0 3 -19 19 -42 37 -38 30 -40 31 -24
8z"/>
<path d="M2005 934 c-39 -34 -39 -35 -8 -20 18 9 37 25 43 36 14 26 12 25 -35
-16z"/>
<path d="M699 2027 c-39 -26 -81 -84 -77 -106 5 -26 59 -25 98 1 44 29 73 84
59 110 -13 24 -39 23 -80 -5z"/>
<path d="M1787 2043 c-12 -12 -7 -53 9 -78 37 -57 144 -90 144 -45 0 60 -120
157 -153 123z"/>
<path d="M483 2012 c-18 -12 -50 -91 -58 -143 -9 -64 6 -91 48 -87 26 2 36 10
51 43 47 95 18 225 -41 187z"/>
<path d="M2029 2004 c-20 -25 -17 -123 5 -172 31 -69 98 -70 104 -3 5 47 -34
168 -58 181 -26 14 -35 13 -51 -6z"/>
<path d="M940 1994 c-53 -10 -96 -27 -125 -49 -40 -29 -76 -104 -78 -160 -2
-52 -8 -56 -27 -17 -11 23 -14 24 -18 9 -19 -87 113 -227 214 -227 48 0 142
18 148 28 2 4 -20 7 -50 8 -52 1 -101 25 -89 44 3 4 -2 14 -11 21 -8 7 -24 30
-35 51 -11 21 -26 38 -34 38 -41 0 -37 86 6 107 34 18 165 16 227 -2 60 -18
132 -70 150 -109 17 -33 8 -47 -13 -20 -13 17 -14 15 -15 -30 0 -101 -69 -165
-176 -167 l-59 0 44 -14 c24 -8 58 -28 76 -45 l33 -32 16 23 c19 27 21 12 4
-26 -15 -34 -25 -32 -65 14 -27 32 -43 41 -79 47 -62 9 -72 -4 -40 -51 29 -42
27 -58 -4 -30 -30 27 -35 12 -7 -21 l25 -28 40 18 c23 10 48 16 56 13 20 -8
21 -56 2 -118 -11 -36 -12 -51 -3 -69 18 -35 34 -35 54 2 l18 33 3 -55 c5 -82
33 -93 72 -27 l25 42 3 -58 3 -58 47 3 47 3 5 55 5 55 22 -35 c13 -19 24 -39
26 -44 2 -5 13 -6 25 -2 19 7 22 15 23 69 l0 62 20 -45 20 -45 20 24 c23 28
24 59 4 124 -23 77 4 107 65 72 34 -20 46 -18 70 7 28 30 25 42 -5 22 -35 -23
-41 -12 -16 29 32 53 28 61 -26 54 -39 -5 -55 -14 -84 -47 -20 -22 -41 -40
-46 -40 -10 0 -33 43 -33 63 0 6 7 1 16 -11 l15 -22 42 34 c23 19 56 38 72 42
26 8 22 9 -33 15 -97 9 -151 60 -160 148 -2 28 -8 51 -13 51 -5 0 -9 -4 -9
-10 0 -5 -4 -10 -9 -10 -20 0 4 52 37 81 61 54 116 72 224 77 121 5 148 -7
148 -67 0 -24 -6 -44 -17 -52 -9 -8 -17 -12 -19 -9 -2 3 -17 -16 -34 -42 -18
-27 -37 -48 -43 -49 -7 0 -3 -4 8 -8 35 -14 -29 -46 -91 -46 -64 0 -61 -10 7
-24 110 -24 156 -12 236 62 55 50 73 84 73 134 l-1 38 -15 -27 c-21 -40 -29
-35 -31 21 -3 87 -56 160 -136 188 -66 22 -204 22 -300 -1 -83 -20 -133 -20
-212 -1 -66 16 -196 26 -235 19z m376 -504 c26 -48 44 -63 44 -37 0 6 5 4 11
-6 15 -26 1 -74 -29 -97 -34 -27 -55 -22 -63 15 l-7 30 -1 -32 c-1 -25 -6 -33
-19 -33 -41 0 -78 73 -60 118 11 26 11 27 17 4 5 -19 10 -15 35 33 16 30 32
55 37 55 4 0 20 -22 35 -50z"/>
<path d="M574 1884 c-29 -29 -50 -100 -35 -118 35 -42 101 73 68 118 -14 19
-14 19 -33 0z"/>
<path d="M1956 1892 c-11 -11 -6 -73 9 -101 18 -35 40 -45 56 -25 26 32 -37
154 -65 126z"/>
<path d="M398 1850 c-11 -38 -10 -56 3 -43 6 6 9 23 7 39 l-3 29 -7 -25z"/>
<path d="M2151 1855 c0 -11 4 -29 9 -40 8 -18 9 -18 9 5 0 14 -4 32 -9 40 -8
12 -10 12 -9 -5z"/>
<path d="M468 1754 c-31 -16 -66 -83 -74 -145 -5 -39 -3 -49 19 -74 24 -28 25
-29 50 -12 50 33 87 143 67 202 -13 40 -28 47 -62 29z"/>
<path d="M2047 1752 c-36 -39 -10 -183 40 -222 32 -25 37 -25 64 3 17 18 20
30 16 73 -6 60 -37 126 -69 148 -28 20 -31 20 -51 -2z"/>
<path d="M1930 1747 c0 -40 -75 -162 -155 -251 -48 -55 -94 -115 -103 -135 -8
-20 -18 -75 -22 -122 -4 -57 -12 -96 -24 -114 -24 -37 -30 -26 -11 20 9 20 14
40 10 43 -3 3 -27 -15 -53 -40 -82 -80 -265 -218 -290 -218 -25 0 -186 118
-283 208 -31 28 -59 52 -63 52 -3 0 3 -23 13 -50 11 -28 18 -50 16 -50 -2 0
-14 14 -26 32 -19 26 -24 47 -25 109 -2 105 -30 161 -133 273 -76 82 -141 184
-141 220 0 8 -5 18 -11 22 -17 10 -2 -98 23 -163 10 -29 50 -96 88 -149 53
-74 72 -110 81 -153 17 -87 25 -107 64 -166 87 -130 179 -200 319 -240 74 -22
125 -16 231 27 66 27 92 45 150 103 86 87 132 163 150 248 16 78 33 112 94
192 62 81 100 169 108 249 3 37 3 66 -1 66 -3 0 -6 -6 -6 -13z"/>
<path d="M369 1718 c-16 -30 -25 -168 -11 -168 5 0 12 19 16 43 21 152 20 172
-5 125z"/>
<path d="M2173 1703 c4 -21 9 -64 13 -95 4 -32 10 -58 14 -58 15 0 20 49 10
99 -15 81 -49 130 -37 54z"/>
<path d="M566 1708 c-23 -32 -20 -61 9 -88 14 -13 26 -22 28 -19 7 10 -6 129
-13 129 -5 0 -16 -10 -24 -22z"/>
<path d="M1958 1665 c-1 -36 0 -65 5 -65 16 0 47 41 47 63 0 24 -25 67 -40 67
-4 0 -10 -29 -12 -65z"/>
<path d="M523 1565 c-24 -17 -63 -111 -63 -151 0 -69 52 -86 93 -31 57 76 71
133 41 175 -18 26 -41 28 -71 7z"/>
<path d="M1972 1567 c-33 -39 -22 -106 29 -176 52 -72 108 -46 95 46 -13 100
-86 176 -124 130z"/>
<path d="M356 1508 c-11 -16 -16 -46 -16 -98 0 -52 5 -82 16 -98 21 -30 31
-28 54 11 28 46 28 159 0 187 -26 26 -35 25 -54 -2z"/>
<path d="M2164 1522 c-37 -24 -46 -133 -16 -191 19 -38 30 -45 50 -32 35 22
38 176 4 214 -17 19 -22 20 -38 9z"/>
<path d="M626 1494 c-10 -26 20 -64 50 -64 l26 0 -26 31 c-14 17 -26 35 -26
40 0 15 -17 10 -24 -7z"/>
<path d="M1897 1476 c-34 -43 -34 -48 0 -44 20 2 30 11 37 31 16 46 -6 54 -37
13z"/>
<path d="M581 1384 c-27 -34 -47 -127 -35 -162 11 -31 49 -48 87 -38 51 13 91
117 67 176 -23 55 -84 68 -119 24z"/>
<path d="M720 1392 c0 -44 40 -96 58 -77 7 7 -26 71 -45 86 -10 9 -13 7 -13
-9z"/>
<path d="M1805 1373 c-39 -58 -29 -87 15 -43 17 17 29 80 15 80 -2 0 -16 -17
-30 -37z"/>
<path d="M1883 1388 c-45 -49 -41 -117 9 -173 33 -39 69 -45 106 -19 26 18 29
76 8 137 -28 77 -81 100 -123 55z"/>
<path d="M463 1320 c-28 -12 -63 -67 -63 -100 0 -29 57 -103 72 -94 19 12 48
89 48 131 0 25 -6 48 -16 57 -8 9 -16 16 -17 15 -1 0 -12 -4 -24 -9z"/>
<path d="M2054 1313 c-13 -13 -15 -28 -11 -66 7 -51 35 -119 52 -124 6 -2 25
19 43 46 32 47 33 50 19 82 -25 59 -75 89 -103 62z"/>
<path d="M710 1243 c-32 -41 -25 -126 14 -160 34 -29 50 -29 77 -2 19 19 21
29 16 77 -10 97 -64 140 -107 85z"/>
<path d="M1781 1257 c-18 -22 -41 -85 -41 -111 0 -60 39 -98 80 -76 51 27 68
106 36 168 -18 34 -54 44 -75 19z"/>
<path d="M155 1140 c-28 -31 -32 -133 -8 -180 41 -79 93 -33 93 82 0 101 -40
147 -85 98z"/>
<path d="M2333 1123 c-31 -75 -4 -203 44 -203 26 0 53 62 53 123 0 73 -21 117
-56 117 -19 0 -28 -8 -41 -37z"/>
<path d="M538 1135 c-45 -25 -46 -53 -2 -91 50 -42 131 -87 144 -79 15 10 12
93 -5 130 -25 52 -83 69 -137 40z"/>
<path d="M1908 1121 c-27 -24 -32 -36 -36 -89 -3 -49 -1 -63 11 -68 17 -6 78
29 144 83 36 29 41 37 33 54 -13 24 -61 49 -94 49 -14 0 -40 -13 -58 -29z"/>
<path d="M1686 1088 c-31 -41 -33 -52 -7 -38 11 5 29 10 40 10 24 0 25 6 7 39
l-13 24 -27 -35z"/>
<path d="M830 1090 c-9 -17 -8 -21 7 -26 10 -3 28 -10 41 -15 28 -11 28 1 1
35 -25 31 -35 33 -49 6z"/>
<path d="M257 1025 c-8 -18 8 -55 23 -55 14 0 12 20 -4 49 -11 20 -14 21 -19
6z"/>
<path d="M753 1020 c-33 -19 -53 -64 -37 -80 14 -13 114 -40 150 -40 34 0 44
13 44 60 0 37 -50 80 -93 80 -18 0 -47 -9 -64 -20z"/>
<path d="M1679 1011 c-47 -48 -38 -111 16 -111 37 0 165 37 165 48 0 4 -9 22
-20 40 -36 59 -113 70 -161 23z"/>
<path d="M2280 1010 c-7 -17 -10 -33 -7 -37 10 -10 37 18 37 38 0 31 -17 30
-30 -1z"/>
<path d="M69 939 c-24 -46 21 -189 60 -189 47 0 68 98 33 153 -21 31 -51 56
-69 57 -7 0 -17 -10 -24 -21z"/>
<path d="M2428 933 c-51 -55 -63 -117 -32 -161 37 -53 91 7 102 110 7 77 -24
100 -70 51z"/>
<path d="M237 921 c-33 -56 -10 -181 35 -189 47 -9 79 143 42 196 -22 31 -56
28 -77 -7z"/>
<path d="M940 941 c0 -5 -3 -16 -6 -25 -5 -13 2 -16 35 -16 45 0 51 8 23 33
-20 18 -52 23 -52 8z"/>
<path d="M1572 934 c-29 -20 -20 -34 24 -34 34 0 39 5 28 34 -8 20 -23 20 -52
0z"/>
<path d="M2249 934 c-21 -26 -23 -124 -2 -164 24 -47 47 -50 73 -8 39 65 17
188 -34 188 -13 0 -29 -7 -37 -16z"/>
<path d="M356 831 c-16 -26 17 -72 62 -85 31 -10 27 2 -17 53 -24 27 -41 39
-45 32z"/>
<path d="M2157 793 c-20 -25 -36 -48 -34 -50 9 -8 68 21 77 37 12 22 13 60 3
60 -5 0 -25 -21 -46 -47z"/>
<path d="M175 751 c-3 -10 -12 -22 -20 -25 -8 -3 -15 -14 -15 -24 0 -21 69
-132 82 -132 13 0 28 48 28 88 0 71 -58 144 -75 93z"/>
<path d="M2336 745 c-31 -47 -30 -162 1 -172 13 -5 83 104 83 127 -1 17 -44
70 -58 70 -6 0 -17 -11 -26 -25z"/>
<path d="M317 732 c-53 -58 -29 -182 34 -182 26 0 53 62 46 107 -8 46 -29 87
-48 91 -8 1 -23 -6 -32 -16z"/>
<path d="M2184 718 c-20 -37 -22 -114 -5 -146 7 -13 21 -22 36 -22 58 0 83
124 35 175 -31 33 -46 32 -66 -7z"/>
<path d="M446 714 c-22 -21 -21 -116 0 -149 28 -43 78 -31 93 23 13 43 -3 96
-36 122 -31 24 -37 25 -57 4z"/>
<path d="M2049 701 c-24 -25 -29 -38 -29 -79 0 -106 90 -113 114 -9 8 36 -10
103 -30 111 -23 9 -23 9 -55 -23z"/>
<path d="M560 665 c0 -20 23 -29 56 -21 32 8 22 21 -23 31 -27 5 -33 3 -33
-10z"/>
<path d="M1955 673 c-35 -9 -39 -22 -10 -29 28 -7 62 6 58 22 -2 11 -21 14
-48 7z"/>
<path d="M624 615 c-20 -31 -12 -91 20 -137 56 -84 124 -4 82 96 -14 34 -50
66 -73 66 -7 0 -20 -11 -29 -25z"/>
<path d="M757 633 c-21 -20 -2 -94 32 -130 28 -29 47 -29 66 1 14 21 14 28 2
58 -22 51 -79 92 -100 71z"/>
<path d="M1734 606 c-26 -26 -34 -43 -34 -69 0 -40 20 -61 49 -52 39 12 79
102 60 136 -14 28 -37 23 -75 -15z"/>
<path d="M1873 625 c-46 -32 -64 -133 -31 -172 49 -59 138 95 94 162 -19 29
-33 31 -63 10z"/>
<path d="M255 559 c-5 -16 2 -30 31 -60 44 -45 50 -47 57 -17 5 16 -4 31 -34
60 -21 21 -41 38 -43 38 -3 0 -8 -9 -11 -21z"/>
<path d="M2253 545 c-30 -31 -46 -85 -25 -85 17 0 84 79 80 96 -5 28 -21 25
-55 -11z"/>
<path d="M530 528 c-25 -41 -27 -124 -4 -156 52 -75 111 54 70 153 -19 44 -41
44 -66 3z"/>
<path d="M1969 539 c-6 -12 -13 -47 -16 -78 -5 -51 -3 -60 20 -87 21 -24 29
-27 44 -18 10 6 24 28 31 49 27 82 -42 202 -79 134z"/>
<path d="M374 513 c-21 -48 -5 -108 32 -125 60 -27 95 82 45 136 -35 37 -59
33 -77 -11z"/>
<path d="M2110 526 c-31 -35 -33 -98 -2 -128 21 -21 24 -22 50 -8 38 22 51 78
29 125 -20 42 -44 45 -77 11z"/>
<path d="M880 516 c0 -16 24 -38 33 -30 8 9 -11 44 -23 44 -6 0 -10 -6 -10
-14z"/>
<path d="M1653 511 c-13 -21 -8 -32 13 -24 14 5 20 43 6 43 -4 0 -13 -9 -19
-19z"/>
<path d="M1243 457 l-32 -42 32 -57 c17 -32 34 -58 37 -58 13 0 69 113 62 124
-9 17 -60 76 -64 76 -2 -1 -17 -20 -35 -43z"/>
<path d="M893 448 c-47 -52 -58 -121 -24 -152 29 -26 52 -16 78 33 50 95 8
187 -54 119z"/>
<path d="M1602 458 c-19 -19 -14 -70 14 -126 20 -41 31 -52 50 -52 29 0 44 26
44 79 0 31 -7 49 -31 76 -32 36 -56 44 -77 23z"/>
<path d="M760 440 c-44 -44 -55 -134 -20 -165 18 -16 22 -16 43 -2 38 25 60
124 37 168 -14 25 -35 24 -60 -1z"/>
<path d="M1752 452 c-36 -24 -16 -159 28 -182 24 -13 26 -13 44 6 34 34 12
149 -33 174 -23 12 -23 12 -39 2z"/>
<path d="M623 376 c-28 -35 -46 -83 -39 -101 3 -8 20 -24 38 -35 l33 -20 17
20 c24 29 32 93 16 127 -17 37 -41 40 -65 9z"/>
<path d="M986 382 c-10 -29 3 -52 30 -52 31 0 31 20 0 49 -23 22 -24 22 -30 3z"/>
<path d="M1880 384 c-18 -21 -15 -110 5 -140 l16 -25 39 22 c44 25 48 40 26
92 -25 61 -61 82 -86 51z"/>
<path d="M1536 365 c-21 -32 -20 -35 8 -35 25 0 43 30 31 50 -10 16 -22 12
-39 -15z"/>
<path d="M1055 299 c-21 -34 39 -99 67 -71 8 8 4 20 -16 47 -28 36 -40 42 -51
24z"/>
<path d="M1455 275 c-21 -28 -24 -40 -16 -48 20 -20 66 13 66 48 0 41 -18 41
-50 0z"/>
<path d="M958 283 c-28 -32 -38 -61 -38 -107 0 -36 5 -48 26 -65 20 -16 31
-18 45 -10 47 25 68 149 31 182 -24 22 -45 21 -64 0z"/>
<path d="M1536 278 c-32 -45 -11 -154 33 -178 24 -12 55 0 65 26 34 89 -50
221 -98 152z"/>
<path d="M810 251 c-24 -46 -3 -121 34 -121 34 0 63 71 46 114 -12 33 -63 37
-80 7z"/>
<path d="M1682 258 c-17 -17 -15 -79 4 -106 17 -24 43 -29 62 -10 15 15 16 82
2 109 -12 21 -50 25 -68 7z"/>
<path d="M1072 194 c-49 -34 -4 -129 73 -154 97 -32 109 60 19 140 -39 34 -60
37 -92 14z"/>
<path d="M1400 184 c-39 -33 -73 -99 -65 -125 15 -46 93 -31 145 28 37 41 40
85 8 107 -32 22 -52 20 -88 -10z"/>
</g>
</svg>
