<?xml version="1.0" standalone="no"?>
<!DOCTYPE svg PUBLIC "-//W3C//DTD SVG 20010904//EN"
 "http://www.w3.org/TR/2001/REC-SVG-20010904/DTD/svg10.dtd">
<svg version="1.0" xmlns="http://www.w3.org/2000/svg"
 width="256.000000pt" height="256.000000pt" viewBox="0 0 256.000000 256.000000"
 preserveAspectRatio="xMidYMid meet">
<metadata>
Created by potrace 1.16, written by Peter Selinger 2001-2019
</metadata>
<g transform="translate(0.000000,256.000000) scale(0.100000,-0.100000)"
fill="#e5e5e5" stroke="none">
<path d="M1250 2453 c-20 -90 -66 -207 -131 -333 -192 -371 -533 -658 -956
-806 -46 -16 -83 -31 -83 -34 0 -3 37 -18 83 -34 423 -148 764 -435 956 -806
65 -126 111 -243 131 -332 13 -57 30 -78 30 -37 0 36 68 229 115 326 116 240
330 486 550 633 126 83 303 173 429 215 47 17 86 32 86 35 0 3 -39 18 -86 35
-422 143 -792 464 -979 848 -47 97 -115 290 -115 326 0 41 -17 20 -30 -36z
m65 -560 c55 -120 142 -238 251 -342 92 -88 244 -198 337 -242 26 -13 47 -26
47 -29 0 -3 -21 -16 -47 -29 -93 -44 -245 -154 -337 -242 -109 -104 -196 -222
-251 -342 -22 -47 -42 -86 -45 -87 -3 0 -19 30 -35 67 -99 229 -354 486 -593
599 -34 16 -61 31 -61 34 0 3 27 18 61 34 239 113 494 370 593 599 16 37 32
67 35 67 3 -1 23 -40 45 -87z"/>
<path d="M1260 1523 c0 -32 -58 -119 -105 -161 -25 -22 -66 -49 -90 -59 -25
-10 -45 -20 -45 -23 0 -3 20 -13 45 -23 81 -34 161 -119 190 -205 l12 -35 28
62 c33 72 110 149 179 177 25 11 46 21 46 24 0 3 -21 13 -46 24 -68 28 -146
105 -178 176 -28 63 -36 72 -36 43z"/>
</g>
</svg>
