<?xml version="1.0" standalone="no"?>
<!DOCTYPE svg PUBLIC "-//W3C//DTD SVG 20010904//EN"
 "http://www.w3.org/TR/2001/REC-SVG-20010904/DTD/svg10.dtd">
<svg version="1.0" xmlns="http://www.w3.org/2000/svg"
 width="256.000000pt" height="256.000000pt" viewBox="0 0 256.000000 256.000000"
 preserveAspectRatio="xMidYMid meet">
<metadata>
Created by potrace 1.16, written by Peter Selinger 2001-2019
</metadata>
<g transform="translate(0.000000,256.000000) scale(0.100000,-0.100000)"
fill="#e5e5e5" stroke="none">
<path d="M1195 2486 c-211 -142 -363 -312 -469 -523 -92 -183 -131 -343 -131
-548 0 -257 68 -474 214 -692 93 -137 236 -282 361 -364 l24 -16 -19 -39 c-25
-53 -24 -128 3 -180 20 -40 83 -104 102 -104 19 0 82 64 102 104 27 52 28 127
3 180 l-19 39 24 16 c175 115 361 329 454 524 139 291 160 614 60 917 -91 271
-281 513 -540 686 -45 30 -83 54 -85 54 -2 0 -40 -25 -84 -54z m182 -37 c99
-66 285 -252 350 -349 376 -562 244 -1282 -311 -1692 -45 -33 -83 -62 -84 -63
-2 -2 6 -16 17 -32 26 -34 36 -88 27 -138 -8 -41 -69 -115 -96 -115 -27 0 -88
74 -96 115 -9 50 1 104 27 138 11 16 19 30 17 32 -1 1 -39 30 -84 63 -446 330
-632 883 -464 1384 64 191 156 336 314 494 110 110 269 229 293 219 7 -2 48
-28 90 -56z"/>
<path d="M1200 2418 c-108 -73 -293 -264 -358 -371 -121 -194 -172 -364 -179
-592 -9 -275 53 -489 208 -715 83 -122 231 -265 357 -347 l52 -34 53 34 c177
115 353 311 446 495 43 85 86 218 106 327 25 133 17 356 -18 488 -33 124 -80
234 -149 344 -66 109 -252 300 -360 372 -42 28 -78 51 -80 50 -2 0 -37 -23
-78 -51z m156 -30 c216 -148 381 -367 463 -614 116 -346 64 -701 -152 -1024
-62 -93 -219 -249 -315 -313 l-72 -48 -72 48 c-96 64 -253 220 -315 313 -216
323 -268 678 -152 1024 82 245 241 458 457 611 42 30 79 55 80 55 2 0 37 -23
78 -52z"/>
<path d="M1190 2306 c-246 -183 -404 -439 -450 -728 -18 -111 -8 -320 20 -428
69 -263 226 -489 443 -638 l77 -53 74 51 c90 62 236 211 294 300 123 186 182
384 182 605 0 298 -117 573 -332 781 -68 66 -205 174 -219 174 -2 0 -42 -29
-89 -64z m172 -165 c120 -97 212 -222 273 -374 53 -131 68 -226 63 -391 -2
-78 -8 -147 -12 -155 -6 -8 -16 5 -33 41 -13 29 -42 76 -63 104 -21 28 -53 82
-72 119 -36 75 -117 169 -184 215 l-42 29 -46 -30 c-105 -70 -190 -198 -222
-334 -9 -38 -27 -92 -40 -120 -13 -27 -29 -71 -35 -96 -12 -45 -11 -48 35
-144 26 -53 49 -95 52 -93 2 3 0 28 -6 56 -12 66 3 150 38 215 37 69 44 73 96
47 60 -28 119 -88 153 -152 25 -48 28 -63 28 -153 0 -86 -3 -106 -24 -145 -24
-47 -78 -110 -94 -110 -21 0 -120 95 -177 171 -70 93 -130 212 -160 319 -31
107 -39 326 -16 440 44 213 161 410 324 541 40 32 77 59 82 59 5 0 42 -27 82
-59z m-9 -610 c55 -50 55 -56 -12 -126 -34 -35 -61 -68 -61 -73 0 -5 16 -21
34 -36 l35 -26 46 45 c53 51 60 50 118 -14 61 -68 80 -115 85 -214 4 -82 3
-91 -27 -150 -28 -57 -148 -213 -157 -205 -2 2 4 26 12 53 22 72 20 196 -4
272 -38 120 -130 228 -240 281 -58 29 -59 35 -16 107 28 48 48 71 93 108 36
30 36 30 94 -22z"/>
<path d="M1213 2101 c-166 -138 -283 -356 -314 -585 -13 -100 0 -296 20 -296
13 0 59 113 70 171 16 78 60 164 117 232 54 63 159 147 185 147 25 0 128 -80
182 -141 27 -30 64 -88 84 -129 35 -72 90 -149 106 -150 10 0 9 86 -4 177 -22
165 -103 346 -210 474 -44 53 -153 149 -169 149 -5 0 -35 -22 -67 -49z m171
-63 c149 -150 239 -346 261 -568 7 -74 7 -75 -12 -57 -11 9 -39 55 -62 102
-46 92 -138 196 -225 253 l-48 31 -42 -21 c-22 -11 -79 -59 -126 -107 -95 -95
-143 -178 -162 -278 -13 -69 -28 -113 -38 -113 -15 0 -21 147 -10 231 14 108
65 256 121 355 52 92 204 254 239 254 14 0 51 -30 104 -82z"/>
<path d="M1257 2012 c-24 -26 -22 -85 3 -107 19 -17 21 -17 40 0 26 24 27 86
2 108 -23 21 -25 21 -45 -1z"/>
<path d="M1070 1820 c-11 -21 2 -60 20 -60 18 0 31 39 20 60 -6 11 -15 20 -20
20 -5 0 -14 -9 -20 -20z"/>
<path d="M1450 1820 c-11 -21 2 -60 20 -60 18 0 31 39 20 60 -6 11 -15 20 -20
20 -5 0 -14 -9 -20 -20z"/>
<path d="M1096 1148 c-37 -78 -41 -131 -17 -209 28 -89 118 -189 170 -189 13
0 48 76 60 130 13 57 -4 138 -43 204 -26 44 -107 115 -133 116 -6 0 -23 -24
-37 -52z m103 -15 l41 -38 -15 -55 c-9 -30 -18 -94 -22 -142 -7 -103 -17 -110
-62 -41 -41 62 -65 144 -56 191 10 55 42 122 58 122 8 0 33 -17 56 -37z m85
-146 c12 -45 13 -70 5 -106 -12 -55 -45 -115 -59 -106 -13 8 -13 116 1 191 20
114 28 117 53 21z"/>
<path d="M1253 1498 c-30 -34 -63 -85 -63 -97 0 -6 11 -18 25 -27 26 -17 26
-16 75 37 27 30 49 59 50 65 0 15 -33 44 -52 44 -8 0 -24 -10 -35 -22z m55
-10 c15 -19 -67 -111 -87 -99 -12 8 -12 14 4 38 22 35 56 73 66 73 3 0 11 -6
17 -12z"/>
<path d="M1411 1275 c-17 -20 -31 -38 -31 -40 0 -2 14 -26 30 -52 44 -69 70
-162 70 -252 l1 -76 34 54 c79 125 62 274 -43 374 l-29 28 -32 -36z m80 -42
c27 -43 30 -54 25 -100 -3 -28 -10 -61 -14 -74 -8 -20 -11 -16 -26 33 -10 31
-31 75 -47 99 l-28 43 21 23 c12 13 25 23 30 23 5 0 22 -21 39 -47z m55 -186
c-4 -23 -15 -60 -26 -82 -16 -34 -18 -36 -19 -16 -2 45 33 171 43 154 4 -8 5
-34 2 -56z"/>
<path d="M1246 289 c-32 -38 -35 -99 -6 -147 26 -42 54 -42 80 1 29 47 26 108
-6 146 -14 17 -29 31 -34 31 -5 0 -20 -14 -34 -31z"/>
</g>
</svg>
