<?xml version="1.0" standalone="no"?>
<!DOCTYPE svg PUBLIC "-//W3C//DTD SVG 20010904//EN"
 "http://www.w3.org/TR/2001/REC-SVG-20010904/DTD/svg10.dtd">
<svg version="1.0" xmlns="http://www.w3.org/2000/svg"
 width="256.000000pt" height="256.000000pt" viewBox="0 0 256.000000 256.000000"
 preserveAspectRatio="xMidYMid meet">
<metadata>
Created by potrace 1.16, written by Peter Selinger 2001-2019
</metadata>
<g transform="translate(0.000000,256.000000) scale(0.100000,-0.100000)"
fill="#e5e5e5" stroke="none">
<path d="M2095 2528 c-133 -72 -215 -210 -215 -360 0 -69 17 -138 37 -145 19
-8 95 41 137 88 64 70 99 159 104 259 2 56 -1 98 -11 124 -15 45 -23 50 -52
34z m32 -78 c38 -112 -21 -276 -127 -353 -58 -41 -72 -39 -87 13 -36 117 22
273 130 351 50 36 68 34 84 -11z"/>
<path d="M2021 2404 c-23 -20 -51 -54 -62 -77 -27 -52 -36 -142 -18 -185 l14
-33 40 26 c89 58 139 191 105 279 -13 35 -29 33 -79 -10z"/>
<path d="M1695 2299 c-39 -28 -144 -126 -235 -217 l-165 -167 -85 -31 c-331
-119 -572 -399 -656 -762 -23 -98 -34 -254 -20 -271 18 -23 163 -87 256 -114
l85 -25 11 -103 c13 -109 31 -198 45 -213 13 -15 138 82 254 198 105 104 113
110 177 127 183 49 348 148 480 288 172 183 271 417 285 671 l6 106 -89 41
c-49 22 -119 50 -155 62 l-66 22 -6 142 c-6 131 -27 271 -45 289 -4 4 -39 -16
-77 -43z m74 -26 c21 -80 32 -182 30 -277 l-3 -98 90 -29 c49 -16 118 -44 154
-62 l65 -32 -2 -100 c-2 -168 -67 -366 -170 -522 -51 -78 -174 -206 -249 -259
-84 -60 -233 -130 -323 -151 -74 -17 -75 -18 -180 -123 -58 -58 -135 -128
-171 -154 l-65 -48 -12 43 c-7 24 -19 95 -26 158 l-12 114 -55 13 c-74 19
-131 40 -218 82 l-72 35 0 52 c0 123 54 333 117 460 77 151 235 321 381 409
45 26 124 63 176 81 90 31 97 35 154 101 113 130 344 342 374 344 4 0 12 -17
17 -37z"/>
<path d="M1634 2181 c-97 -86 -179 -169 -260 -263 -34 -39 -52 -50 -119 -73
-377 -126 -648 -479 -672 -875 l-6 -96 29 -13 c89 -42 178 -74 244 -90 74 -18
75 -18 78 -52 5 -78 22 -218 28 -233 8 -21 48 11 200 157 113 108 114 109 191
128 111 28 283 116 370 189 179 150 302 363 348 603 8 43 15 105 15 137 l0 57
-77 35 c-78 36 -113 48 -189 67 l-41 11 -7 168 c-6 170 -13 232 -25 232 -4 0
-52 -40 -107 -89z m-34 -409 c-44 -351 -203 -688 -446 -942 -43 -44 -79 -79
-81 -77 -9 9 32 244 63 366 76 296 216 563 398 758 l71 76 3 -44 c2 -24 -2
-86 -8 -137z m298 -44 c41 -17 76 -37 79 -45 11 -28 -41 -269 -63 -292 -1 -2
-25 12 -51 31 -26 19 -72 48 -101 64 -47 25 -52 32 -48 54 3 14 14 71 23 128
l18 103 35 -6 c19 -4 68 -20 108 -37z m-726 -80 c-56 -86 -117 -209 -143 -285
-11 -35 -27 -63 -34 -63 -19 0 -155 92 -155 105 0 17 103 136 156 180 55 45
205 137 212 130 3 -2 -14 -33 -36 -67z m623 -392 l35 -31 -54 -65 c-69 -82
-159 -156 -256 -209 -41 -22 -78 -41 -82 -41 -5 0 8 21 27 46 70 91 137 222
188 367 6 17 10 16 57 -9 28 -15 66 -41 85 -58z m-982 -53 c29 -21 77 -49 106
-63 43 -20 51 -28 47 -45 -3 -11 -11 -68 -18 -127 -10 -90 -15 -108 -29 -108
-36 0 -210 62 -237 85 -14 12 52 295 69 295 4 0 32 -17 62 -37z"/>
<path d="M1537 1850 c-71 -79 -176 -240 -234 -360 -87 -178 -173 -457 -197
-640 l-6 -45 50 55 c120 132 255 350 320 515 70 181 127 422 118 501 -3 28 -3
27 -51 -26z m23 -81 c-44 -287 -168 -570 -363 -822 -33 -42 -62 -75 -65 -73
-9 9 41 214 84 346 54 163 132 329 217 459 63 96 126 175 134 168 2 -2 -1 -38
-7 -78z"/>
<path d="M1780 1693 c-1 -16 -7 -55 -15 -88 -8 -32 -13 -60 -12 -61 17 -13
136 -84 140 -84 8 0 37 134 37 173 0 32 -3 36 -61 61 -77 33 -89 33 -89 -1z
m96 -19 c18 -8 35 -17 37 -22 6 -9 -17 -149 -26 -158 -4 -5 -94 43 -115 61 -2
1 2 22 7 46 5 24 13 57 16 72 6 30 10 30 81 1z"/>
<path d="M1034 1562 c-43 -32 -144 -138 -144 -153 0 -15 80 -63 89 -53 5 5 21
38 36 74 15 36 38 86 51 113 14 26 20 47 16 47 -5 0 -27 -13 -48 -28z m-26
-89 c-22 -43 -44 -80 -49 -81 -11 -4 -39 16 -39 28 0 7 118 130 125 130 2 0
-15 -35 -37 -77z"/>
<path d="M1673 1263 c-3 -10 -28 -64 -54 -120 -26 -57 -44 -103 -40 -103 20 0
146 112 182 162 l20 27 -38 25 c-44 30 -61 32 -70 9z m71 -41 c3 -5 -25 -37
-61 -73 -36 -35 -64 -59 -62 -54 2 6 21 43 42 83 33 64 40 71 57 62 10 -5 21
-14 24 -18z"/>
<path d="M766 1172 c-7 -11 -36 -159 -36 -182 0 -16 13 -27 53 -45 28 -13 67
-26 85 -30 30 -6 32 -5 32 23 0 16 5 55 12 87 10 53 10 60 -6 69 -10 6 -45 28
-77 48 -32 20 -60 34 -63 30z m133 -98 c1 -1 -2 -35 -9 -74 -8 -45 -16 -70
-24 -67 -6 2 -35 12 -65 23 l-53 19 5 60 c3 33 10 73 16 88 l11 27 57 -36 c32
-21 60 -38 62 -40z"/>
<path d="M1313 2130 c-34 -20 -63 -66 -63 -100 0 -48 92 -4 125 61 8 15 15 35
15 44 0 21 -38 19 -77 -5z"/>
<path d="M2160 2048 c-33 -31 -60 -97 -60 -150 0 -56 11 -60 49 -19 31 33 51
90 51 144 0 45 -11 52 -40 25z"/>
<path d="M514 686 c-65 -28 -134 -111 -134 -159 0 -20 44 -9 97 24 57 36 119
150 81 149 -7 -1 -27 -7 -44 -14z"/>
<path d="M763 636 c-127 -73 -216 -195 -254 -346 -18 -74 -16 -195 5 -243 l16
-38 60 32 c110 58 210 192 245 324 26 101 14 295 -19 295 -6 0 -30 -11 -53
-24z m53 -68 c32 -187 -72 -413 -227 -493 -39 -21 -46 -14 -59 54 -30 160 78
386 220 462 50 26 57 24 66 -23z"/>
<path d="M745 541 c-53 -32 -121 -118 -149 -186 -41 -103 -48 -235 -12 -235
28 0 114 90 148 157 50 94 71 211 50 265 -7 17 -9 17 -37 -1z"/>
<path d="M1351 627 c-36 -44 -56 -157 -27 -157 29 0 66 94 58 148 -4 25 -14
28 -31 9z"/>
</g>
</svg>
