<?xml version="1.0" standalone="no"?>
<!DOCTYPE svg PUBLIC "-//W3C//DTD SVG 20010904//EN"
 "http://www.w3.org/TR/2001/REC-SVG-20010904/DTD/svg10.dtd">
<svg version="1.0" xmlns="http://www.w3.org/2000/svg"
 width="256.000000pt" height="256.000000pt" viewBox="0 0 256.000000 256.000000"
 preserveAspectRatio="xMidYMid meet">
<metadata>
Created by potrace 1.16, written by Peter Selinger 2001-2019
</metadata>
<g transform="translate(0.000000,256.000000) scale(0.100000,-0.100000)"
fill="#e5e5e5" stroke="none">
<path d="M1861 2433 c-205 -185 -365 -309 -421 -328 -92 -30 -260 -103 -350
-152 -438 -237 -706 -577 -775 -983 -10 -56 -34 -140 -60 -205 -75 -188 -105
-279 -94 -286 7 -4 -3 -33 -24 -75 -41 -82 -92 -222 -102 -281 l-7 -43 34 6
c29 6 174 51 220 69 16 6 16 3 -2 -47 -10 -29 -17 -55 -15 -57 5 -4 49 22 232
141 217 141 351 199 541 233 217 40 357 101 532 233 203 154 410 375 576 617
55 79 88 115 165 177 108 86 168 165 197 257 22 71 22 351 1 420 l-14 44 -89
-73 -89 -74 7 45 c36 221 46 361 30 403 -9 24 -116 -35 -241 -133 l-101 -79
-12 71 c-13 78 -40 177 -49 177 -3 0 -44 -35 -90 -77z m111 -78 c18 -85 22
-132 22 -317 1 -120 2 -218 2 -218 1 0 25 16 53 35 29 19 89 48 134 65 69 26
100 47 187 121 57 49 107 89 111 89 20 0 35 -247 20 -334 -20 -115 -47 -171
-117 -245 -82 -87 -148 -122 -304 -160 -69 -17 -150 -43 -180 -58 l-55 -28
-16 -100 c-36 -223 -90 -336 -228 -478 -141 -146 -305 -227 -561 -277 -219
-43 -354 -102 -579 -255 -77 -52 -145 -95 -151 -95 -10 0 0 29 71 200 21 52
47 140 58 195 10 55 30 129 44 163 14 34 23 62 20 62 -2 0 -41 -27 -86 -59
-94 -68 -217 -144 -223 -138 -6 5 25 90 79 222 25 61 51 142 57 180 38 228
110 400 239 570 68 91 216 232 322 308 107 76 390 221 523 267 79 27 101 41
215 134 69 58 167 140 216 184 50 44 93 77 97 73 4 -4 17 -51 30 -106z m338
-194 c-12 -74 -26 -144 -30 -156 -5 -14 -29 -30 -67 -45 -32 -13 -88 -38 -126
-57 l-67 -33 2 182 3 183 90 72 c50 40 117 88 150 108 l60 35 3 -77 c2 -46 -6
-133 -18 -212z m-125 -793 c-14 -18 -66 -89 -114 -156 -97 -136 -267 -332
-333 -384 l-43 -33 21 30 c66 94 127 265 140 393 l7 71 46 23 c36 18 246 80
294 87 5 0 -3 -14 -18 -31z m-1745 -759 c-6 -19 -17 -72 -26 -119 -22 -120
-89 -277 -127 -300 -37 -23 -217 -83 -225 -76 -9 9 52 182 100 286 44 94 46
97 114 137 38 23 91 57 118 77 28 19 51 34 53 33 1 -2 -2 -19 -7 -38z"/>
<path d="M1867 2361 c-23 -21 -109 -95 -192 -164 -143 -120 -155 -127 -251
-162 -141 -51 -351 -154 -464 -230 -333 -221 -534 -517 -594 -872 -10 -59 -33
-136 -64 -213 -27 -66 -46 -120 -42 -120 4 0 52 31 108 70 118 82 203 133 209
126 3 -2 -3 -15 -11 -29 -29 -43 -75 -183 -96 -292 -12 -58 -35 -138 -52 -178
-49 -119 -49 -119 -35 -111 6 4 53 35 103 70 173 120 324 182 549 229 261 54
411 129 550 277 39 41 85 100 104 132 48 81 98 235 112 345 l12 94 71 32 c39
18 116 43 171 55 223 50 346 147 397 314 23 76 30 202 15 289 l-8 47 -87 -74
c-66 -55 -107 -81 -167 -105 -90 -36 -150 -69 -214 -118 -24 -18 -46 -31 -48
-29 -2 2 2 35 9 72 20 104 16 368 -6 487 -10 53 -22 97 -27 97 -5 0 -28 -18
-52 -39z m-81 -353 c-3 -13 -8 -49 -11 -80 -17 -156 -100 -367 -190 -480 -112
-143 -354 -259 -660 -318 -60 -12 -161 -38 -222 -58 -62 -21 -113 -37 -113
-36 0 1 16 39 35 84 66 158 168 304 273 393 164 139 417 277 652 356 50 16 84
38 145 91 44 38 83 69 88 69 4 1 5 -9 3 -21z m553 -210 c-22 -100 -106 -186
-207 -213 -58 -15 -123 -36 -155 -50 -17 -7 -16 -2 7 42 33 66 99 123 199 172
45 21 98 51 117 65 19 14 38 25 41 26 4 0 3 -19 -2 -42z m-764 -680 c-44 -132
-115 -241 -199 -300 -114 -81 -226 -125 -415 -164 -68 -14 -155 -37 -194 -51
-38 -13 -71 -22 -73 -20 -10 10 48 133 100 210 85 128 90 131 241 162 210 43
380 107 501 189 27 19 51 32 53 31 1 -2 -5 -28 -14 -57z"/>
<path d="M1690 1910 c-43 -39 -75 -56 -150 -82 -198 -69 -473 -220 -617 -340
-71 -58 -150 -160 -211 -271 -75 -135 -75 -129 8 -101 40 13 131 35 202 49
233 46 392 109 536 212 127 90 228 276 277 508 8 38 13 70 12 71 -1 1 -27 -20
-57 -46z m0 -106 c-51 -186 -150 -346 -259 -418 -38 -25 -71 -46 -75 -46 -6 0
173 301 235 393 70 103 111 158 116 153 3 -2 -5 -40 -17 -82z m-76 14 c-4 -7
-28 -44 -54 -83 -25 -38 -95 -150 -154 -248 -102 -168 -135 -207 -175 -207
-11 0 144 259 251 418 49 73 79 108 101 117 40 18 40 18 31 3z m-191 -160
c-44 -68 -115 -181 -158 -253 -43 -71 -83 -136 -90 -143 -14 -16 -120 -46
-275 -77 -69 -14 -140 -31 -158 -36 -18 -6 -36 -9 -39 -6 -6 7 55 113 112 193
102 143 299 282 574 405 58 26 108 46 110 43 2 -2 -32 -59 -76 -126z"/>
<path d="M2195 1715 c-49 -24 -108 -60 -129 -79 -57 -53 -51 -54 82 -9 23 8
56 26 72 40 31 26 75 82 69 88 -2 1 -44 -17 -94 -40z"/>
<path d="M1515 1091 c-6 -5 -46 -27 -90 -49 -96 -48 -241 -93 -390 -122 -92
-18 -115 -26 -140 -50 -33 -32 -129 -182 -140 -217 -6 -22 -5 -22 27 -9 18 8
90 26 159 40 152 31 214 52 321 108 101 52 179 126 231 222 35 65 45 100 22
77z m-45 -68 c0 -17 -67 -107 -102 -137 -49 -43 -150 -96 -245 -130 -71 -25
-264 -68 -272 -61 -2 2 38 49 88 103 l91 99 68 12 c91 16 217 55 294 90 67 32
78 35 78 24z m-518 -168 c-39 -50 -133 -147 -138 -143 -6 7 93 145 113 157 34
20 46 13 25 -14z"/>
<path d="M2214 2307 c-63 -63 -74 -84 -74 -136 l0 -39 60 40 c70 47 90 71 90
113 0 36 -10 75 -19 75 -3 -1 -29 -24 -57 -53z"/>
<path d="M2035 1307 c-76 -14 -95 -24 -111 -63 -8 -20 -13 -38 -11 -41 9 -8
112 30 135 51 23 21 47 56 40 60 -2 1 -25 -2 -53 -7z"/>
<path d="M311 495 c-83 -41 -101 -64 -101 -126 0 -50 8 -60 30 -34 6 8 31 25
54 39 24 14 51 38 61 53 18 28 38 104 26 101 -3 0 -35 -15 -70 -33z"/>
</g>
</svg>
