<?xml version="1.0" standalone="no"?>
<!DOCTYPE svg PUBLIC "-//W3C//DTD SVG 20010904//EN"
 "http://www.w3.org/TR/2001/REC-SVG-20010904/DTD/svg10.dtd">
<svg version="1.0" xmlns="http://www.w3.org/2000/svg"
 width="256.000000pt" height="256.000000pt" viewBox="0 0 256.000000 256.000000"
 preserveAspectRatio="xMidYMid meet">
<metadata>
Created by potrace 1.16, written by Peter Selinger 2001-2019
</metadata>
<g transform="translate(0.000000,256.000000) scale(0.100000,-0.100000)"
fill="#e5e5e5" stroke="none">
<path d="M1192 2510 c-254 -118 -488 -357 -603 -619 -91 -206 -124 -398 -116
-666 6 -199 25 -311 78 -462 109 -308 324 -554 611 -699 48 -24 96 -44 107
-44 33 0 192 87 282 155 203 152 359 368 439 605 99 294 102 673 8 970 -104
327 -335 600 -632 746 -49 24 -94 44 -100 44 -6 -1 -39 -14 -74 -30z m176 -34
c162 -81 336 -233 444 -386 99 -140 181 -346 214 -535 21 -122 24 -403 6 -520
-58 -361 -230 -654 -500 -853 -90 -66 -232 -142 -266 -142 -12 0 -57 18 -101
41 -240 122 -455 351 -560 596 -80 186 -115 368 -115 605 0 477 181 858 524
1103 73 52 228 135 252 135 8 0 54 -20 102 -44z"/>
<path d="M1192 2470 c-215 -101 -409 -286 -524 -498 -48 -88 -108 -231 -108
-254 1 -7 14 21 29 62 90 241 226 425 419 568 81 60 231 142 259 142 24 0 190
-89 256 -138 192 -141 336 -337 423 -575 18 -51 33 -87 34 -80 1 24 -53 160
-98 248 -82 159 -211 308 -362 419 -65 48 -228 136 -252 136 -7 0 -41 -13 -76
-30z"/>
<path d="M1285 2450 c10 -11 20 -20 23 -20 3 0 -3 9 -13 20 -10 11 -20 20 -23
20 -3 0 3 -9 13 -20z"/>
<path d="M1352 2415 c23 -24 30 -27 40 -16 11 11 10 13 0 6 -8 -4 -24 2 -40
16 l-27 23 27 -29z"/>
<path d="M1431 2372 c-1 -28 27 -79 47 -87 16 -6 52 12 52 26 0 6 -7 3 -16 -5
-8 -9 -19 -16 -23 -16 -15 0 -43 40 -51 72 -6 25 -8 28 -9 10z"/>
<path d="M1352 2347 c-12 -13 -22 -27 -22 -31 0 -4 11 6 25 21 l25 28 25 -28
c14 -15 25 -24 25 -19 0 9 -42 52 -51 52 -3 0 -15 -10 -27 -23z"/>
<path d="M1284 2298 l-19 -23 23 19 c21 18 27 26 19 26 -2 0 -12 -10 -23 -22z"/>
<path d="M1322 2270 c0 -19 2 -27 5 -17 2 9 2 25 0 35 -3 9 -5 1 -5 -18z"/>
<path d="M1432 2270 c0 -19 2 -27 5 -17 2 9 2 25 0 35 -3 9 -5 1 -5 -18z"/>
<path d="M1545 2290 c-8 -13 3 -68 15 -75 5 -3 4 8 -1 25 -6 17 -8 37 -5 45 6
17 0 20 -9 5z"/>
<path d="M1286 2230 c12 -14 24 -32 27 -40 5 -13 6 -13 6 1 1 8 -11 26 -26 40
l-28 24 21 -25z"/>
<path d="M1472 2243 c-19 -7 -42 -58 -42 -92 0 -40 47 -95 73 -85 23 8 47 55
47 91 0 33 -34 93 -52 92 -7 0 -19 -3 -26 -6z m53 -33 c18 -35 19 -70 4 -104
-17 -38 -40 -41 -66 -11 -25 29 -30 74 -12 108 24 46 53 49 74 7z"/>
<path d="M1330 2222 c0 -5 11 -19 25 -32 l25 -23 25 23 c14 13 25 27 25 32 0
5 -11 -4 -25 -19 l-25 -28 -25 28 c-14 15 -25 24 -25 19z"/>
<path d="M1625 2200 c-14 -15 -22 -17 -39 -9 -20 10 -20 9 -2 -5 14 -12 22
-12 37 -3 10 6 21 17 23 24 7 18 2 16 -19 -7z"/>
<path d="M1661 2162 c-1 -39 21 -87 45 -96 12 -4 25 1 38 16 l21 22 -21 -17
c-37 -30 -67 0 -77 78 l-4 30 -2 -33z"/>
<path d="M1220 2122 c-60 -80 -137 -245 -161 -345 -19 -79 -23 -124 -25 -322
-2 -126 2 -257 7 -290 26 -154 181 -342 265 -321 40 10 158 134 187 197 36 78
46 129 47 235 0 178 -74 323 -211 409 -36 24 -41 24 -67 11 -16 -8 -52 -36
-82 -63 l-53 -48 7 62 c4 34 16 94 27 134 20 72 84 215 101 225 22 14 139 -91
203 -181 131 -184 187 -404 164 -645 -20 -218 -119 -426 -265 -560 -87 -78
-93 -80 -154 -35 -106 78 -209 229 -259 380 -44 133 -54 209 -48 359 6 151 32
259 97 391 22 44 53 117 69 162 26 72 65 148 116 227 10 14 13 26 7 26 -19 0
-173 -152 -218 -216 -62 -86 -130 -235 -161 -351 -24 -89 -27 -115 -27 -283 0
-168 3 -194 27 -282 53 -199 125 -326 262 -463 55 -55 121 -111 146 -125 l47
-24 57 35 c75 44 190 156 245 238 279 415 233 1022 -104 1366 -58 60 -177 145
-200 145 -6 -1 -27 -22 -46 -48z m151 -540 c86 -88 111 -148 117 -288 3 -75 0
-116 -12 -158 -19 -66 -29 -69 -102 -27 -105 61 -207 204 -233 329 -11 51 -10
55 19 97 34 49 108 115 130 115 8 0 44 -31 81 -68z m-196 -411 c19 -24 35 -47
35 -51 0 -4 -18 -15 -40 -25 -29 -13 -44 -15 -51 -8 -17 17 -39 121 -39 183
l0 55 30 -54 c17 -30 46 -75 65 -100z m173 -144 c28 -15 52 -31 52 -36 0 -11
-70 -75 -98 -90 -16 -9 -27 -5 -58 20 -22 17 -46 40 -56 52 -16 21 -15 22 40
53 32 18 59 32 62 31 3 -1 29 -15 58 -30z"/>
<path d="M1243 1596 c-21 -19 -51 -52 -66 -73 l-27 -39 16 -59 c31 -123 131
-252 232 -304 l42 -22 12 28 c8 17 13 76 13 148 0 109 -2 125 -27 177 -25 55
-104 150 -139 168 -12 7 -27 0 -56 -24z m103 -31 c67 -67 105 -156 111 -259 6
-91 -10 -186 -32 -186 -7 0 -40 20 -72 44 -67 49 -130 136 -162 222 -33 86
-29 107 30 170 29 30 58 54 66 54 7 0 34 -20 59 -45z"/>
<path d="M1106 1200 c9 -53 25 -100 33 -100 4 0 16 6 26 14 18 13 17 15 -15
57 -50 66 -51 66 -44 29z m54 -71 c0 -5 -5 -9 -10 -9 -10 0 -30 41 -30 58 1
10 40 -39 40 -49z"/>
<path d="M1243 1013 c-18 -9 -33 -21 -33 -27 0 -6 16 -24 36 -40 32 -25 39
-27 60 -16 13 7 33 23 44 35 l21 22 -36 22 c-42 25 -49 25 -92 4z m79 -11 l28
-18 -29 -28 -30 -28 -30 21 c-38 27 -39 36 -3 55 34 19 32 19 64 -2z"/>
<path d="M1398 2122 c15 -15 29 -26 31 -25 6 4 -41 53 -50 53 -4 0 4 -13 19
-28z"/>
<path d="M1582 2134 c-12 -8 -27 -32 -33 -53 -9 -32 -8 -44 6 -75 26 -54 46
-61 79 -27 17 18 26 36 23 48 -4 16 -5 15 -6 -3 0 -11 -12 -31 -25 -43 l-24
-22 -20 21 c-28 30 -35 66 -22 106 16 48 43 60 70 32 11 -12 20 -28 20 -37 0
-8 3 -11 7 -8 9 9 -17 56 -38 67 -10 6 -23 4 -37 -6z"/>
<path d="M1771 2052 c-1 -32 25 -79 52 -93 19 -10 18 -8 -5 14 -15 14 -30 38
-33 54 -10 44 -13 50 -14 25z"/>
<path d="M1681 2004 c-35 -45 -20 -141 25 -158 27 -10 64 33 69 80 l5 39 -11
-41 c-24 -101 -99 -85 -99 20 0 69 61 99 88 43 6 -12 11 -16 11 -9 1 16 -35
52 -53 52 -8 0 -24 -12 -35 -26z"/>
<path d="M1231 1923 c-46 -94 -69 -163 -77 -236 l-7 -62 41 37 c22 20 55 44
72 53 30 15 32 15 85 -21 207 -137 277 -433 158 -668 -30 -59 -127 -163 -177
-190 -31 -17 -39 -17 -68 -5 -58 24 -154 129 -193 210 -52 110 -63 212 -39
354 4 25 3 27 -6 12 -18 -29 -24 -156 -11 -234 23 -135 102 -258 211 -331 l62
-42 40 21 c95 49 192 171 228 287 25 81 27 234 4 313 -37 125 -130 247 -228
300 l-45 23 -61 -41 -60 -42 6 27 c24 110 87 272 106 272 19 0 111 -86 155
-145 58 -76 117 -198 145 -300 18 -67 22 -106 22 -240 -1 -145 -3 -168 -27
-248 -51 -165 -136 -303 -243 -391 l-56 -46 -27 19 c-44 32 -137 134 -175 194
-89 139 -130 290 -130 477 0 145 13 220 60 336 14 35 24 72 22 82 -5 27 -65
-134 -83 -227 -24 -117 -16 -344 15 -451 30 -103 91 -223 153 -299 52 -65 148
-151 168 -151 6 0 52 42 103 93 80 80 99 106 144 197 72 147 96 249 96 420 0
171 -24 273 -96 420 -45 91 -64 117 -144 198 -51 50 -96 92 -101 92 -5 0 -24
-30 -42 -67z"/>
<path d="M1600 1926 c0 -3 9 -10 20 -16 11 -6 20 -8 20 -6 0 3 -9 10 -20 16
-11 6 -20 8 -20 6z"/>
<path d="M1808 1913 c-43 -49 -48 -91 -18 -140 24 -40 51 -42 79 -7 30 38 28
94 -5 133 -30 36 -35 37 -56 14z m51 -19 c38 -49 19 -144 -29 -144 -22 0 -50
46 -50 82 0 26 35 88 49 88 5 0 19 -12 30 -26z"/>
<path d="M1647 1869 c4 -13 8 -18 11 -10 2 7 -1 18 -6 23 -8 8 -9 4 -5 -13z"/>
<path d="M1684 1788 c-19 -23 -19 -23 2 -5 29 24 51 21 68 -10 8 -16 15 -23
16 -18 0 20 -31 55 -49 55 -10 0 -26 -10 -37 -22z"/>
<path d="M1900 1769 c-6 -11 -10 -25 -8 -30 2 -5 8 4 15 21 13 34 9 40 -7 9z"/>
<path d="M1767 1704 c-3 -20 -14 -46 -24 -58 l-18 -21 22 19 c21 17 42 81 31
92 -3 2 -8 -12 -11 -32z"/>
<path d="M1804 1688 l-19 -23 23 20 24 20 24 -28 c16 -19 24 -40 24 -65 0 -73
-55 -109 -84 -54 -8 15 -15 22 -16 17 0 -20 31 -55 50 -55 10 0 28 12 39 26
34 43 25 118 -18 151 -22 17 -25 16 -47 -9z"/>
<path d="M1891 1692 c-1 -23 39 -72 58 -72 5 0 13 5 17 12 4 7 3 8 -4 4 -19
-12 -51 13 -61 47 -7 25 -9 27 -10 9z"/>
<path d="M536 1630 c-9 -39 -18 -99 -21 -133 -4 -53 -3 -50 10 25 8 48 19 106
25 129 6 22 9 43 7 46 -3 2 -12 -28 -21 -67z"/>
<path d="M1981 1664 c0 -11 3 -14 6 -6 3 7 2 16 -1 19 -3 4 -6 -2 -5 -13z"/>
<path d="M1776 1645 c-3 -9 -6 -26 -5 -38 1 -14 4 -9 9 13 9 37 7 52 -4 25z"/>
<path d="M1992 1625 c0 -11 4 -33 8 -50 7 -27 8 -27 8 -5 0 14 -4 36 -8 50 -6
20 -8 21 -8 5z"/>
<path d="M1916 1569 c-14 -17 -26 -38 -26 -47 1 -9 7 -2 15 16 18 41 40 50 66
26 14 -13 18 -14 14 -3 -3 8 -14 20 -25 26 -16 11 -22 8 -44 -18z"/>
<path d="M1756 1548 c11 -20 14 -43 10 -67 -4 -25 -2 -31 4 -21 14 22 12 57
-5 90 -9 17 -18 30 -21 30 -2 0 3 -14 12 -32z"/>
<path d="M2017 1455 c3 -49 7 -92 9 -94 7 -8 3 94 -6 139 -6 32 -7 18 -3 -45z"/>
<path d="M1801 1466 c-12 -13 -24 -41 -26 -62 l-5 -39 11 41 c11 47 39 77 61
69 36 -14 50 -103 22 -143 -20 -29 -38 -28 -63 4 -12 15 -21 22 -21 17 0 -15
39 -53 55 -53 23 0 55 50 55 87 0 40 -23 88 -45 97 -22 8 -18 9 -44 -18z"/>
<path d="M1891 1477 c-1 -22 25 -63 46 -72 9 -3 5 6 -10 20 -14 15 -28 36 -30
48 -3 16 -5 17 -6 4z"/>
<path d="M1977 1437 l-17 -32 20 24 c17 20 26 41 18 41 -2 0 -11 -15 -21 -33z"/>
<path d="M504 1280 c0 -85 2 -120 3 -77 2 42 2 112 0 155 -1 42 -3 7 -3 -78z"/>
<path d="M2002 1385 c0 -16 2 -22 5 -12 2 9 2 23 0 30 -3 6 -5 -1 -5 -18z"/>
<path d="M1919 1352 l-24 -27 26 23 27 23 21 -22 c12 -13 21 -29 21 -38 0 -8
3 -11 7 -8 9 9 -17 57 -38 67 -12 7 -22 2 -40 -18z"/>
<path d="M1891 1304 c0 -11 3 -14 6 -6 3 7 2 16 -1 19 -3 4 -6 -2 -5 -13z"/>
<path d="M2033 1275 c0 -27 2 -38 4 -22 2 15 2 37 0 50 -2 12 -4 0 -4 -28z"/>
<path d="M1801 1246 c-12 -13 -24 -41 -26 -62 l-5 -39 10 39 c10 39 35 76 51
76 5 0 18 -10 29 -22 16 -18 20 -19 14 -5 -5 15 -33 37 -47 37 -2 0 -13 -11
-26 -24z"/>
<path d="M1891 1254 c-1 -12 10 -33 24 -48 20 -22 28 -25 45 -16 21 11 40 41
40 62 -1 7 -7 -1 -14 -18 -8 -17 -21 -34 -30 -37 -19 -7 -47 21 -58 56 -6 21
-6 21 -7 1z"/>
<path d="M1882 1175 c-2 -44 -25 -85 -47 -85 -7 0 -23 12 -34 26 -12 15 -21
22 -21 17 0 -17 42 -54 57 -51 30 6 55 52 50 94 l-4 39 -1 -40z"/>
<path d="M2002 1175 c0 -16 2 -22 5 -12 2 9 2 23 0 30 -3 6 -5 -1 -5 -18z"/>
<path d="M2023 1140 c0 -30 2 -43 4 -27 2 15 2 39 0 55 -2 15 -4 2 -4 -28z"/>
<path d="M1919 1132 l-24 -27 27 23 26 24 21 -21 c12 -12 21 -26 21 -33 0 -6
3 -9 6 -6 9 9 -14 46 -35 57 -14 8 -23 5 -42 -17z"/>
<path d="M515 1058 c8 -99 85 -381 101 -366 2 2 -5 28 -16 57 -30 79 -59 187
-75 287 -14 84 -14 85 -10 22z"/>
<path d="M1766 1079 c4 -24 1 -47 -10 -67 -9 -18 -14 -32 -12 -32 3 0 12 13
21 30 17 33 19 68 5 90 -6 10 -8 4 -4 -21z"/>
<path d="M1891 1084 c0 -11 3 -14 6 -6 3 7 2 16 -1 19 -3 4 -6 -2 -5 -13z"/>
<path d="M2012 1050 c0 -19 2 -27 5 -17 2 9 2 25 0 35 -3 9 -5 1 -5 -18z"/>
<path d="M1799 1024 c-18 -19 -24 -37 -24 -69 0 -32 6 -50 24 -69 31 -33 44
-33 70 0 14 18 21 40 20 68 l-2 41 -6 -48 c-8 -57 -33 -87 -59 -71 -49 31 -52
117 -5 154 14 11 21 20 16 20 -5 0 -20 -12 -34 -26z"/>
<path d="M1891 1034 c0 -11 3 -14 6 -6 3 7 2 16 -1 19 -3 4 -6 -2 -5 -13z"/>
<path d="M1860 1020 c6 -11 13 -20 16 -20 2 0 0 9 -6 20 -6 11 -13 20 -16 20
-2 0 0 -9 6 -20z"/>
<path d="M1905 1000 c11 -29 41 -40 61 -24 18 15 18 15 -1 5 -16 -8 -25 -5
-43 12 -14 13 -21 16 -17 7z"/>
<path d="M1988 932 c-10 -42 -20 -88 -23 -102 -3 -14 1 -8 9 13 17 42 41 155
35 162 -3 2 -12 -31 -21 -73z"/>
<path d="M1914 913 c-13 -14 -24 -35 -23 -47 1 -20 1 -20 7 1 10 34 39 63 57
57 8 -4 15 -4 15 -1 0 3 -7 8 -16 11 -9 3 -25 -4 -40 -21z"/>
<path d="M1750 898 c24 -39 25 -69 5 -108 -20 -38 -35 -42 -65 -16 l-25 21 24
-27 c19 -22 28 -25 42 -17 23 12 49 60 49 91 0 22 -34 88 -45 88 -2 0 4 -15
15 -32z"/>
<path d="M1799 804 c-18 -19 -24 -37 -24 -69 0 -32 6 -50 24 -69 28 -30 43
-32 62 -9 13 15 12 15 -8 3 -19 -12 -24 -12 -42 4 -41 37 -35 121 11 150 26
16 51 -14 59 -71 l6 -48 2 41 c1 28 -6 50 -20 68 -26 33 -39 33 -70 0z"/>
<path d="M1891 814 c0 -11 3 -14 6 -6 3 7 2 16 -1 19 -3 4 -6 -2 -5 -13z"/>
<path d="M1940 763 c-19 -58 -96 -207 -142 -276 -58 -86 -218 -244 -311 -306
-88 -59 -192 -111 -222 -111 -27 0 -136 56 -221 113 -150 100 -277 240 -374
412 -27 50 -50 85 -50 80 0 -20 90 -169 146 -241 65 -86 166 -183 256 -247 79
-56 215 -127 244 -127 34 0 176 76 261 139 93 69 223 203 282 290 67 98 161
295 147 308 -2 2 -10 -13 -16 -34z"/>
<path d="M1651 707 c-1 -10 -13 -29 -27 -43 -14 -15 -20 -24 -13 -22 20 7 52
55 46 69 -4 10 -6 8 -6 -4z"/>
<path d="M1686 689 c-33 -39 -35 -95 -5 -133 28 -35 55 -33 80 7 25 40 20 99
-12 133 -29 31 -32 30 -63 -7z m58 2 c39 -44 23 -151 -24 -151 -48 0 -67 95
-29 144 24 31 31 32 53 7z"/>
<path d="M1574 588 l-19 -23 22 19 c28 23 50 15 68 -26 8 -18 14 -26 15 -17 0
21 -38 69 -54 69 -7 0 -21 -10 -32 -22z"/>
<path d="M1802 587 c-12 -13 -22 -27 -22 -32 0 -5 7 1 16 13 9 13 26 27 38 32
14 6 16 9 5 9 -8 1 -25 -9 -37 -22z"/>
<path d="M1514 548 l-19 -23 23 19 c21 18 27 26 19 26 -2 0 -12 -10 -23 -22z"/>
<path d="M1772 515 c0 -16 2 -22 5 -12 2 9 2 23 0 30 -3 6 -5 -1 -5 -18z"/>
<path d="M1546 505 c7 -37 30 -74 51 -82 19 -7 63 39 63 65 -1 9 -7 2 -15 -16
-27 -61 -61 -52 -90 23 -12 31 -14 33 -9 10z"/>
<path d="M1462 477 c-12 -13 -22 -27 -22 -31 0 -4 11 6 24 21 l25 28 22 -22
c13 -12 26 -41 30 -65 l6 -43 2 37 c1 26 -6 45 -25 67 -31 37 -34 38 -62 8z"/>
<path d="M1686 469 c-20 -23 -26 -41 -25 -72 l2 -42 6 48 c4 28 16 56 29 69
21 22 21 22 44 2 l23 -19 -19 23 c-25 29 -29 28 -60 -9z"/>
<path d="M1391 440 c-13 -11 -19 -20 -14 -20 6 0 18 9 28 20 23 25 17 25 -14
0z"/>
<path d="M1431 405 c-1 -38 33 -95 57 -95 19 0 52 29 52 46 0 4 -7 -2 -16 -14
-31 -45 -69 -20 -85 58 -7 34 -7 34 -8 5z"/>
<path d="M1340 358 c-29 -48 -26 -91 10 -130 l30 -33 30 33 c20 22 30 43 30
65 0 42 -34 97 -60 97 -12 0 -28 -13 -40 -32z m75 -8 c22 -43 19 -85 -10 -117
l-25 -28 -25 28 c-15 17 -25 40 -25 58 0 42 26 89 50 89 11 0 26 -12 35 -30z"/>
<path d="M1574 368 c-19 -23 -19 -23 2 -5 27 23 40 22 58 -5 9 -12 16 -18 16
-12 0 13 -33 44 -47 44 -5 0 -18 -10 -29 -22z"/>
<path d="M1311 371 c-1 -8 -11 -26 -23 -40 l-22 -26 28 26 c16 15 26 33 23 40
-4 11 -6 11 -6 0z"/>
<path d="M1541 300 c0 -8 4 -22 9 -30 12 -18 12 -2 0 25 -6 13 -9 15 -9 5z"/>
<path d="M1286 260 c6 -8 16 -24 22 -35 6 -11 12 -15 12 -8 0 7 -10 22 -22 35
-13 13 -18 17 -12 8z"/>
<path d="M1462 257 c-12 -13 -22 -27 -22 -31 0 -4 11 5 24 21 l24 28 24 -20
23 -20 -19 23 c-24 27 -27 27 -54 -1z"/>
<path d="M1432 190 c0 -14 2 -19 5 -12 2 6 2 18 0 25 -3 6 -5 1 -5 -13z"/>
<path d="M1353 158 c-19 -25 -24 -43 -6 -21 10 11 27 23 38 26 19 4 19 5 -1 6
-12 0 -26 -5 -31 -11z"/>
<path d="M1311 151 c-1 -8 -11 -26 -23 -40 l-22 -26 28 26 c16 15 26 33 23 40
-4 11 -6 11 -6 0z"/>
</g>
</svg>
