<?xml version="1.0" standalone="no"?>
<!DOCTYPE svg PUBLIC "-//W3C//DTD SVG 20010904//EN"
 "http://www.w3.org/TR/2001/REC-SVG-20010904/DTD/svg10.dtd">
<svg version="1.0" xmlns="http://www.w3.org/2000/svg"
 width="256.000000pt" height="256.000000pt" viewBox="0 0 256.000000 256.000000"
 preserveAspectRatio="xMidYMid meet">
<metadata>
Created by potrace 1.16, written by Peter Selinger 2001-2019
</metadata>
<g transform="translate(0.000000,256.000000) scale(0.100000,-0.100000)"
fill="#e5e5e5" stroke="none">
<path d="M1251 2524 c-56 -40 -78 -152 -40 -206 12 -16 18 -33 13 -37 -5 -4
-35 -26 -66 -50 -167 -126 -293 -320 -332 -513 -20 -99 -20 -277 0 -376 34
-167 104 -336 198 -476 25 -38 46 -77 46 -86 0 -32 -73 -128 -129 -170 -29
-22 -57 -40 -61 -40 -4 0 -15 17 -23 39 -26 65 -124 99 -204 70 -28 -9 -30
-13 -23 -44 19 -85 99 -153 165 -141 32 6 35 5 40 -21 38 -187 148 -321 343
-415 l102 -49 103 49 c194 94 304 228 342 415 5 26 8 27 40 21 66 -12 146 56
165 141 7 31 5 35 -23 44 -80 29 -178 -5 -204 -70 -8 -22 -19 -39 -23 -39 -4
0 -32 18 -61 40 -56 42 -129 138 -129 170 0 9 21 48 46 86 94 140 164 309 198
476 20 99 20 277 0 376 -39 193 -165 387 -332 513 -31 24 -61 46 -66 50 -5 4
1 21 13 37 26 37 27 93 2 148 -16 36 -53 74 -71 74 -3 0 -16 -7 -29 -16z m57
-26 c45 -49 56 -135 22 -178 -11 -14 -20 -29 -20 -35 0 -5 24 -26 52 -45 165
-112 299 -302 349 -498 24 -96 26 -299 3 -408 -32 -156 -109 -337 -199 -468
-54 -79 -54 -91 1 -174 33 -50 142 -142 169 -142 7 0 20 18 29 40 8 21 27 47
42 56 32 21 128 31 148 15 22 -19 6 -62 -42 -109 -43 -44 -45 -44 -97 -39
l-53 5 -5 -42 c-16 -117 -94 -241 -200 -322 -73 -55 -190 -114 -227 -114 -37
0 -154 59 -227 114 -106 81 -184 205 -200 322 l-5 42 -53 -5 c-52 -5 -54 -5
-97 39 -48 47 -64 90 -42 109 20 16 116 6 148 -15 15 -9 34 -35 42 -56 9 -22
22 -40 29 -40 27 0 136 92 169 142 55 83 55 95 1 174 -90 131 -167 312 -199
468 -23 109 -21 312 3 408 50 196 184 386 349 498 28 19 52 40 52 45 0 6 -9
21 -20 35 -22 28 -26 83 -9 127 10 28 47 73 59 73 4 0 16 -10 28 -22z"/>
<path d="M1255 2451 c-22 -43 -22 -83 1 -114 10 -14 21 -26 24 -26 15 0 44 57
42 82 -3 34 -28 87 -42 87 -5 0 -16 -13 -25 -29z"/>
<path d="M1204 2207 c-75 -56 -189 -178 -233 -250 -102 -172 -141 -373 -107
-567 31 -175 104 -353 207 -507 27 -40 49 -82 49 -94 0 -64 -99 -192 -190
-244 l-51 -30 5 -45 c16 -127 144 -284 295 -358 46 -23 91 -42 101 -42 10 0
55 19 101 42 151 74 279 231 295 358 l5 45 -51 30 c-91 52 -190 180 -190 244
0 12 22 54 49 94 103 154 176 332 207 507 34 194 -5 395 -107 567 -66 108
-260 293 -309 293 -10 0 -44 -19 -76 -43z m186 -154 c83 -78 88 -95 72 -241
-16 -140 -23 -150 -57 -82 -41 82 -73 172 -101 284 -13 56 -24 107 -24 114 0
21 33 -2 110 -75z m-226 -65 c18 -111 109 -336 177 -435 16 -23 29 -48 29 -56
0 -39 -141 -241 -253 -362 -45 -48 -47 -49 -62 -31 -21 28 -53 116 -81 225
-46 181 -28 374 49 528 36 70 110 173 126 173 5 0 11 -19 15 -42z m443 -488
c-3 -96 -10 -146 -31 -215 -32 -111 -120 -290 -181 -370 -38 -50 -45 -67 -45
-105 0 -87 88 -224 189 -294 36 -25 39 -31 34 -60 -10 -55 -50 -133 -93 -180
-42 -45 -164 -116 -200 -116 -36 0 -158 71 -200 116 -43 47 -83 125 -93 180
-5 29 -2 35 34 60 102 70 189 207 189 295 0 38 -6 54 -35 90 -41 52 -43 62
-10 83 42 27 175 186 243 290 71 108 130 233 157 336 25 97 27 99 37 55 5 -22
8 -96 5 -165z"/>
<path d="M1330 2041 c0 -27 37 -146 68 -215 31 -71 40 -59 41 55 1 73 0 77
-35 117 -46 54 -74 70 -74 43z m60 -53 c26 -30 29 -40 29 -98 l0 -65 -20 43
c-20 45 -50 152 -43 152 2 0 18 -15 34 -32z"/>
<path d="M1102 1927 c-122 -176 -156 -386 -99 -597 14 -53 35 -117 47 -144
l21 -49 30 29 c58 54 182 222 222 301 17 31 16 33 -9 70 -57 83 -133 261 -167
388 l-13 50 -32 -48z m136 -292 c17 -33 42 -79 56 -101 l26 -42 -58 -90 c-58
-92 -167 -232 -181 -232 -10 0 -47 108 -71 210 -41 175 -13 338 87 509 l26 44
42 -119 c23 -65 56 -146 73 -179z"/>
<path d="M1255 1501 c-7 -12 12 -24 25 -16 11 7 4 25 -10 25 -5 0 -11 -4 -15
-9z"/>
<path d="M1084 1246 c-8 -22 3 -33 18 -18 9 9 9 15 0 24 -9 9 -13 7 -18 -6z"/>
<path d="M1556 1488 c-46 -134 -166 -316 -303 -458 l-76 -80 33 -41 c31 -39
32 -44 28 -108 -7 -94 -50 -171 -145 -262 -70 -66 -75 -73 -69 -104 9 -48 76
-146 122 -177 21 -15 60 -36 87 -48 l47 -21 48 21 c26 12 65 33 86 48 46 31
113 129 122 177 6 31 1 38 -69 104 -95 91 -138 168 -145 261 -4 67 -4 68 37
120 89 113 163 268 199 420 23 98 36 200 24 200 -4 0 -16 -24 -26 -52z m-16
-149 c-40 -154 -113 -308 -201 -419 l-42 -53 7 -70 c9 -95 50 -172 143 -264
40 -40 73 -79 73 -88 0 -26 -39 -95 -80 -139 -21 -23 -66 -55 -99 -71 l-61
-29 -61 29 c-33 16 -78 48 -99 71 -41 44 -80 113 -80 139 0 9 33 48 73 88 93
92 134 169 143 264 7 69 6 72 -26 112 l-33 40 92 97 c92 97 181 220 236 326
16 31 31 55 33 54 2 -2 -7 -41 -18 -87z"/>
<path d="M1265 951 c-7 -12 12 -24 25 -16 11 7 4 25 -10 25 -5 0 -11 -4 -15
-9z"/>
<path d="M1265 901 c-7 -12 12 -24 25 -16 11 7 4 25 -10 25 -5 0 -11 -4 -15
-9z"/>
<path d="M1239 614 c-18 -20 -53 -49 -76 -65 -39 -27 -43 -34 -43 -72 0 -83
78 -162 160 -162 82 0 160 79 160 162 0 38 -4 45 -42 72 -24 16 -59 45 -77 65
-19 20 -38 36 -41 36 -3 0 -22 -16 -41 -36z m66 -14 c9 -10 42 -36 71 -56 60
-42 64 -55 35 -120 -54 -119 -208 -119 -262 0 -29 65 -25 78 35 120 29 20 62
46 71 56 22 25 28 25 50 0z"/>
<path d="M1244 552 c-17 -15 -43 -36 -59 -48 -28 -19 -28 -22 -16 -52 19 -45
75 -92 111 -92 36 0 92 47 111 91 12 30 11 33 -12 51 -13 10 -41 32 -61 48
-20 17 -38 30 -40 30 -2 0 -17 -13 -34 -28z m67 -68 c17 -21 0 -49 -31 -49
-31 0 -48 28 -31 49 8 9 21 16 31 16 10 0 23 -7 31 -16z"/>
<path d="M1265 471 c-7 -12 12 -24 25 -16 11 7 4 25 -10 25 -5 0 -11 -4 -15
-9z"/>
<path d="M1263 258 c2 -7 10 -13 17 -13 7 0 15 6 18 13 2 7 -5 12 -18 12 -13
0 -20 -5 -17 -12z"/>
<path d="M680 626 c0 -8 15 -31 34 -50 33 -36 74 -47 103 -28 18 12 -12 70
-42 82 -40 15 -95 13 -95 -4z"/>
<path d="M1782 630 c-28 -12 -56 -71 -39 -82 29 -19 70 -8 103 28 45 47 44 64
-3 63 -21 0 -48 -4 -61 -9z"/>
<path d="M975 2299 c-10 -15 1 -23 20 -15 9 3 13 10 10 16 -8 13 -22 13 -30
-1z"/>
<path d="M1160 2296 c0 -9 7 -16 16 -16 17 0 14 22 -4 28 -7 2 -12 -3 -12 -12z"/>
<path d="M1377 2303 c-12 -11 -8 -23 8 -23 8 0 15 7 15 15 0 16 -12 20 -23 8z"/>
<path d="M1555 2300 c-3 -6 1 -13 10 -16 19 -8 30 0 20 15 -8 14 -22 14 -30 1z"/>
<path d="M1020 2190 c-12 -7 -12 -12 -2 -22 9 -9 15 -9 24 0 16 16 -2 34 -22
22z"/>
<path d="M1514 2189 c-8 -14 11 -33 25 -25 6 4 11 11 11 16 0 13 -29 20 -36 9z"/>
<path d="M780 945 c0 -8 7 -15 15 -15 8 0 15 7 15 15 0 8 -7 15 -15 15 -8 0
-15 -7 -15 -15z"/>
<path d="M1750 945 c0 -8 7 -15 15 -15 8 0 15 7 15 15 0 8 -7 15 -15 15 -8 0
-15 -7 -15 -15z"/>
<path d="M972 818 c5 -15 28 -18 29 -3 0 6 -7 12 -17 13 -10 3 -15 -1 -12 -10z"/>
<path d="M1555 821 c-3 -5 -1 -12 5 -16 12 -7 30 2 30 16 0 12 -27 12 -35 0z"/>
<path d="M885 789 c-10 -15 1 -23 20 -15 9 3 13 10 10 16 -8 13 -22 13 -30 -1z"/>
<path d="M1005 791 c-7 -12 12 -24 25 -16 11 7 4 25 -10 25 -5 0 -11 -4 -15
-9z"/>
<path d="M1525 791 c-7 -12 12 -24 25 -16 11 7 4 25 -10 25 -5 0 -11 -4 -15
-9z"/>
<path d="M1645 790 c-3 -6 1 -13 10 -16 19 -8 30 0 20 15 -8 14 -22 14 -30 1z"/>
<path d="M975 760 c-11 -17 5 -32 21 -19 7 6 11 15 8 20 -7 12 -21 11 -29 -1z"/>
<path d="M1556 761 c-3 -5 1 -14 8 -20 16 -13 32 2 21 19 -8 12 -22 13 -29 1z"/>
<path d="M885 639 c-10 -15 1 -23 20 -15 9 3 13 10 10 16 -8 13 -22 13 -30 -1z"/>
<path d="M1645 640 c-3 -6 1 -13 10 -16 19 -8 30 0 20 15 -8 14 -22 14 -30 1z"/>
<path d="M1015 81 c-3 -5 -1 -12 5 -16 12 -7 30 2 30 16 0 12 -27 12 -35 0z"/>
<path d="M1512 78 c5 -15 28 -18 29 -3 0 6 -7 12 -17 13 -10 3 -15 -1 -12 -10z"/>
</g>
</svg>
