<?xml version="1.0" standalone="no"?>
<!DOCTYPE svg PUBLIC "-//W3C//DTD SVG 20010904//EN"
 "http://www.w3.org/TR/2001/REC-SVG-20010904/DTD/svg10.dtd">
<svg version="1.0" xmlns="http://www.w3.org/2000/svg"
 width="256.000000pt" height="256.000000pt" viewBox="0 0 256.000000 256.000000"
 preserveAspectRatio="xMidYMid meet">
<metadata>
Created by potrace 1.16, written by Peter Selinger 2001-2019
</metadata>
<g transform="translate(0.000000,256.000000) scale(0.100000,-0.100000)"
fill="#e5e5e5" stroke="none">
<path d="M859 1909 l-421 -631 419 -627 c230 -344 423 -626 428 -626 6 0 198
282 428 626 l419 627 -421 631 c-232 347 -424 631 -426 631 -2 0 -194 -284
-426 -631z m836 -34 l396 -590 -311 -3 c-304 -2 -310 -3 -310 -23 0 -11 -7
-34 -16 -52 -50 -99 -160 -139 -255 -91 -36 18 -87 79 -95 112 -3 15 -7 33 -9
39 -3 10 -78 13 -310 15 l-306 3 402 598 c225 336 405 595 410 590 5 -5 186
-274 404 -598z m-657 -734 c-8 -21 -124 -191 -130 -191 -4 0 -12 9 -18 20 -9
16 -4 29 25 72 l35 53 -76 3 c-42 2 -78 1 -81 -2 -2 -2 20 -41 50 -86 47 -70
54 -85 44 -101 -7 -11 -15 -19 -19 -19 -10 0 -168 236 -168 250 0 6 60 10 171
10 94 0 169 -4 167 -9z m832 2 c0 -13 -122 -193 -131 -193 -5 0 -13 9 -19 20
-9 18 -5 29 24 70 20 28 36 52 36 55 0 3 -36 5 -80 5 -44 0 -80 -2 -80 -5 0
-3 25 -42 54 -87 44 -65 53 -85 45 -100 -5 -10 -13 -18 -18 -18 -8 0 -171 240
-171 253 0 4 77 7 170 7 94 0 170 -3 170 -7z m-420 -299 c0 -4 -28 -49 -62
-100 -48 -70 -66 -90 -75 -82 -17 14 -16 39 0 63 8 11 22 32 32 48 l17 27 -81
0 -81 0 56 -84 c48 -72 54 -87 45 -105 -7 -12 -14 -21 -16 -21 -4 0 -144 206
-169 248 -6 9 30 12 163 12 94 0 171 -3 171 -6z"/>
<path d="M1272 1938 c-19 -19 -15 -28 38 -108 27 -41 50 -78 50 -82 0 -5 -36
-8 -80 -8 l-81 0 36 52 c39 58 42 70 21 87 -12 10 -26 -4 -80 -86 l-66 -98 84
-3 c47 -1 126 -1 176 0 l90 3 -85 128 c-47 70 -87 127 -88 127 -2 0 -8 -5 -15
-12z"/>
<path d="M852 1639 c-12 -19 -8 -29 42 -105 l56 -84 -81 0 c-61 0 -78 3 -73
13 4 6 20 30 35 53 26 38 27 43 12 63 -15 22 -16 21 -80 -74 -35 -53 -63 -99
-60 -101 2 -3 79 -3 171 -2 l166 3 -85 128 c-47 70 -86 127 -88 127 -1 0 -8
-9 -15 -21z"/>
<path d="M1682 1639 c-12 -19 -8 -29 42 -105 l56 -84 -81 0 c-61 0 -78 3 -73
13 4 6 20 30 35 53 26 38 27 43 12 63 -15 22 -16 21 -79 -73 -35 -53 -64 -98
-64 -101 0 -3 77 -5 171 -5 94 0 169 4 167 9 -6 17 -163 251 -168 251 -3 0
-11 -9 -18 -21z"/>
</g>
</svg>
