<?xml version="1.0" standalone="no"?>
<!DOCTYPE svg PUBLIC "-//W3C//DTD SVG 20010904//EN"
 "http://www.w3.org/TR/2001/REC-SVG-20010904/DTD/svg10.dtd">
<svg version="1.0" xmlns="http://www.w3.org/2000/svg"
 width="256.000000pt" height="256.000000pt" viewBox="0 0 256.000000 256.000000"
 preserveAspectRatio="xMidYMid meet">
<metadata>
Created by potrace 1.16, written by Peter Selinger 2001-2019
</metadata>
<g transform="translate(0.000000,256.000000) scale(0.100000,-0.100000)"
fill="#e5e5e5" stroke="none">
<path d="M16 1868 c4 -7 183 -277 397 -600 l389 -588 119 0 c66 0 119 2 119 5
0 3 -178 273 -397 600 l-396 595 -119 0 c-93 0 -118 -3 -112 -12z"/>
<path d="M350 1874 c0 -4 178 -274 395 -600 l394 -594 143 0 143 0 388 587
c214 322 391 592 394 599 4 11 -17 14 -111 14 l-116 0 -250 -375 c-137 -206
-250 -377 -250 -380 0 -3 5 -5 11 -5 6 0 26 -7 44 -15 108 -52 40 -214 -74
-174 -18 6 -41 25 -50 41 l-18 29 -53 -81 c-29 -44 -55 -80 -59 -80 -3 0 -161
234 -351 520 l-345 519 -117 1 c-65 0 -118 -3 -118 -6z"/>
<path d="M646 1853 c155 -239 629 -943 634 -943 4 0 31 36 59 79 l52 79 -205
309 -206 308 296 3 c164 1 299 0 301 -2 3 -2 -54 -92 -126 -200 l-131 -196 52
-80 c29 -44 55 -80 58 -80 4 1 403 595 483 721 l19 29 -652 0 -652 0 18 -27z"/>
<path d="M1917 1285 c-219 -327 -397 -597 -397 -600 0 -3 53 -5 119 -5 l119 0
389 588 c214 323 393 593 397 600 6 9 -19 12 -112 12 l-119 0 -396 -595z"/>
<path d="M1450 1070 c-25 -25 -26 -72 -2 -93 27 -25 78 -22 96 5 22 32 20 55
-9 83 -29 30 -58 32 -85 5z m65 -26 c18 -18 16 -33 -7 -47 -35 -22 -66 21 -36
51 16 16 23 15 43 -4z"/>
</g>
</svg>
