<?xml version="1.0" standalone="no"?>
<!DOCTYPE svg PUBLIC "-//W3C//DTD SVG 20010904//EN"
 "http://www.w3.org/TR/2001/REC-SVG-20010904/DTD/svg10.dtd">
<svg version="1.0" xmlns="http://www.w3.org/2000/svg"
 width="256.000000pt" height="256.000000pt" viewBox="0 0 256.000000 256.000000"
 preserveAspectRatio="xMidYMid meet">
<metadata>
Created by potrace 1.16, written by Peter Selinger 2001-2019
</metadata>
<g transform="translate(0.000000,256.000000) scale(0.100000,-0.100000)"
fill="#e5e5e5" stroke="none">
<path d="M150 2011 c0 -13 93 -160 101 -161 7 0 109 152 109 163 0 4 -47 7
-105 7 -58 0 -105 -4 -105 -9z m190 -8 c0 -10 -82 -133 -89 -133 -3 0 -16 17
-28 38 -12 20 -32 52 -44 70 l-21 32 91 0 c50 0 91 -3 91 -7z"/>
<path d="M402 2011 c9 -24 104 -160 110 -158 7 2 108 154 108 162 0 3 -50 5
-111 5 -61 0 -109 -4 -107 -9z m196 -9 c-7 -18 -83 -132 -88 -132 -5 0 -81
114 -88 132 -2 4 38 8 88 8 50 0 90 -4 88 -8z"/>
<path d="M660 2015 c0 -9 102 -165 109 -165 8 0 101 148 101 160 0 6 -45 10
-105 10 -58 0 -105 -2 -105 -5z m181 -37 c-12 -18 -31 -50 -43 -70 -12 -21
-25 -38 -29 -38 -7 0 -89 124 -89 135 0 3 41 5 91 5 l91 0 -21 -32z"/>
<path d="M923 2006 c8 -21 96 -156 102 -156 7 0 105 152 105 163 0 4 -48 7
-106 7 -85 0 -105 -3 -101 -14z m187 -4 c0 -11 -78 -132 -84 -132 -6 0 -75
106 -83 127 -4 10 13 13 81 13 47 0 86 -4 86 -8z"/>
<path d="M1436 2008 c28 -51 100 -157 106 -155 7 2 108 154 108 162 0 3 -50 5
-111 5 -85 0 -109 -3 -103 -12z m192 -6 c-9 -22 -82 -132 -87 -132 -5 0 -82
112 -89 132 -2 4 38 8 88 8 50 0 90 -3 88 -8z"/>
<path d="M1690 2015 c0 -9 102 -165 109 -165 8 0 101 148 101 160 0 6 -45 10
-105 10 -58 0 -105 -2 -105 -5z m188 -27 c-8 -13 -27 -44 -44 -70 -16 -27 -32
-48 -35 -48 -6 0 -89 126 -89 136 0 2 41 4 91 4 l91 0 -14 -22z"/>
<path d="M1953 2007 c7 -20 97 -157 103 -157 6 0 104 151 104 161 0 5 -48 9
-106 9 -83 0 -105 -3 -101 -13z m187 -5 c0 -11 -78 -132 -84 -132 -6 0 -75
106 -83 127 -4 10 13 13 81 13 47 0 86 -4 86 -8z"/>
<path d="M2210 2010 c0 -12 93 -159 101 -159 7 -1 109 151 109 162 0 4 -47 7
-105 7 -60 0 -105 -4 -105 -10z m190 -7 c0 -8 -81 -133 -86 -133 -7 0 -84 119
-84 129 0 7 32 11 85 11 47 0 85 -3 85 -7z"/>
<path d="M326 1929 l-54 -84 105 -3 c58 -1 108 -1 110 2 3 3 -88 150 -102 165
-2 2 -29 -34 -59 -80z m141 -75 c-2 -3 -43 -4 -90 -2 l-85 3 45 69 44 69 46
-68 c24 -36 43 -69 40 -71z"/>
<path d="M583 1927 l-52 -82 55 -3 c30 -2 78 -2 108 0 l55 3 -52 82 c-29 46
-54 83 -57 83 -3 0 -28 -37 -57 -83z m104 -5 l42 -67 -45 -3 c-24 -2 -64 -2
-89 0 l-44 3 42 68 c23 37 44 67 47 67 3 0 24 -31 47 -68z"/>
<path d="M841 1929 c-28 -44 -51 -82 -51 -85 0 -2 49 -4 110 -4 l110 0 -51 80
c-28 44 -55 82 -59 85 -4 2 -31 -32 -59 -76z m113 -21 l37 -58 -92 0 c-50 0
-89 3 -87 8 2 4 21 36 42 70 45 71 42 72 100 -20z"/>
<path d="M1101 1932 c-28 -43 -51 -81 -51 -85 0 -4 47 -7 105 -7 58 0 105 3
105 7 0 7 -100 163 -105 163 -1 0 -26 -35 -54 -78z m98 -5 c22 -35 41 -66 41
-70 0 -4 -38 -7 -85 -7 -47 0 -85 3 -85 7 0 7 80 133 85 133 1 0 21 -28 44
-63z"/>
<path d="M1356 1929 l-54 -84 105 -3 c58 -1 108 -1 110 2 3 3 -88 150 -102
165 -2 2 -29 -34 -59 -80z m104 -8 c23 -35 39 -65 37 -68 -3 -2 -43 -3 -90 -1
l-85 3 45 69 c24 37 46 66 48 64 3 -2 23 -33 45 -67z"/>
<path d="M1613 1927 l-52 -82 55 -3 c30 -2 78 -2 108 0 l55 3 -52 82 c-29 46
-54 83 -57 83 -3 0 -28 -37 -57 -83z m104 -5 l42 -67 -45 -3 c-24 -2 -64 -2
-88 0 l-45 3 42 67 c23 37 44 68 47 68 3 0 24 -31 47 -68z"/>
<path d="M1875 1934 c-28 -43 -51 -82 -53 -86 -2 -4 46 -8 107 -8 l111 0 -37
60 c-21 33 -47 72 -58 86 l-20 26 -50 -78z m109 -26 l37 -58 -92 0 c-50 0 -89
4 -87 8 2 5 21 36 43 70 45 69 42 70 99 -20z"/>
<path d="M2131 1932 c-28 -43 -51 -81 -51 -85 0 -4 47 -7 105 -7 58 0 105 3
105 7 0 7 -100 163 -105 163 -1 0 -26 -35 -54 -78z m98 -5 c22 -35 41 -66 41
-70 0 -4 -38 -7 -85 -7 -47 0 -85 3 -85 7 0 7 80 133 85 133 1 0 21 -28 44
-63z"/>
<path d="M20 1821 c0 -10 98 -161 104 -161 6 0 96 137 103 157 4 10 -18 13
-101 13 -58 0 -106 -4 -106 -9z m190 -8 c0 -8 -81 -133 -86 -133 -7 0 -84 122
-84 132 0 4 38 8 85 8 47 0 85 -3 85 -7z"/>
<path d="M280 1820 c0 -12 93 -160 101 -160 7 0 109 156 109 165 0 3 -47 5
-105 5 -60 0 -105 -4 -105 -10z m190 -4 c0 -10 -83 -136 -89 -136 -3 0 -19 21
-35 48 -17 26 -36 57 -44 70 l-14 22 91 0 c50 0 91 -2 91 -4z"/>
<path d="M530 1825 c0 -8 101 -160 108 -162 6 -2 30 32 100 145 l14 22 -111 0
c-61 0 -111 -2 -111 -5z m183 -37 c-37 -62 -68 -108 -74 -108 -5 0 -78 109
-87 132 -2 5 38 8 88 8 l92 0 -19 -32z"/>
<path d="M790 1823 c0 -8 101 -163 106 -163 7 0 104 149 104 160 0 6 -39 10
-105 10 -58 0 -105 -3 -105 -7z m190 -14 c0 -10 -77 -129 -84 -129 -5 0 -86
125 -86 133 0 4 38 7 85 7 53 0 85 -4 85 -11z"/>
<path d="M1050 1823 c0 -10 98 -163 104 -163 6 0 95 137 103 157 4 10 -18 13
-101 13 -58 0 -106 -3 -106 -7z m187 -16 c-8 -21 -77 -127 -83 -127 -6 0 -84
121 -84 132 0 4 39 8 86 8 68 0 85 -3 81 -13z"/>
<path d="M1310 1821 c0 -13 93 -161 101 -161 7 0 109 156 109 165 0 3 -47 5
-105 5 -58 0 -105 -4 -105 -9z m190 -6 c0 -11 -82 -135 -89 -135 -4 0 -17 17
-29 38 -12 20 -31 52 -43 70 l-21 32 91 0 c50 0 91 -2 91 -5z"/>
<path d="M1560 1825 c0 -8 101 -160 108 -162 6 -2 78 104 106 155 6 9 -18 12
-103 12 -61 0 -111 -2 -111 -5z m198 -13 c-7 -20 -84 -132 -89 -132 -5 0 -78
110 -87 132 -2 5 38 8 88 8 50 0 90 -4 88 -8z"/>
<path d="M1820 1823 c0 -11 102 -163 109 -162 8 0 101 147 101 159 0 6 -45 10
-105 10 -58 0 -105 -3 -105 -7z m181 -35 c-12 -18 -32 -50 -44 -70 -12 -21
-25 -38 -28 -38 -7 0 -89 123 -89 133 0 4 41 7 91 7 l91 0 -21 -32z"/>
<path d="M2080 1823 c0 -11 98 -163 105 -163 6 0 94 135 102 156 4 11 -16 14
-101 14 -58 0 -106 -3 -106 -7z m187 -16 c-8 -21 -77 -127 -83 -127 -6 0 -84
121 -84 132 0 4 39 8 86 8 68 0 85 -3 81 -13z"/>
<path d="M2340 1821 c0 -13 93 -161 102 -161 6 0 108 154 108 164 0 4 -47 6
-105 6 -58 0 -105 -4 -105 -9z m190 -6 c0 -11 -82 -135 -89 -135 -4 0 -17 17
-29 38 -12 20 -31 52 -43 70 l-21 32 91 0 c50 0 91 -2 91 -5z"/>
<path d="M200 1743 c-28 -43 -50 -81 -50 -85 0 -5 47 -8 105 -8 58 0 105 2
105 5 0 7 -102 165 -106 165 -3 0 -27 -35 -54 -77z m100 -9 c23 -36 39 -68 37
-70 -2 -3 -43 -4 -89 -2 l-85 3 44 68 c23 37 45 67 47 67 2 0 23 -30 46 -66z"/>
<path d="M453 1737 l-52 -82 55 -3 c30 -2 79 -2 110 0 l55 3 -53 82 c-29 46
-55 83 -58 83 -3 0 -28 -37 -57 -83z m105 -4 l43 -68 -46 -3 c-25 -2 -65 -2
-89 0 l-45 3 42 67 c23 37 44 67 47 68 3 0 24 -30 48 -67z"/>
<path d="M712 1739 c-29 -45 -51 -83 -49 -85 2 -3 52 -3 110 -2 l106 3 -52 82
c-29 45 -54 82 -57 82 -3 0 -29 -36 -58 -80z m105 -7 l42 -67 -86 -3 c-47 -2
-88 -1 -90 2 -5 5 79 136 87 135 3 0 24 -30 47 -67z"/>
<path d="M971 1741 c-28 -44 -51 -82 -51 -85 0 -4 48 -6 106 -6 83 0 105 3
101 13 -6 17 -97 157 -102 157 -1 0 -26 -36 -54 -79z m95 2 c56 -87 58 -83
-40 -83 -47 0 -86 2 -86 5 0 8 81 135 86 135 2 0 20 -26 40 -57z"/>
<path d="M1234 1749 c-68 -106 -72 -99 50 -99 58 0 106 2 106 5 0 7 -101 165
-106 165 -2 0 -25 -32 -50 -71z m96 -15 c23 -36 39 -68 37 -70 -2 -3 -43 -4
-89 -2 l-85 3 44 68 c23 37 45 67 47 67 2 0 23 -30 46 -66z"/>
<path d="M1483 1737 l-52 -82 54 -3 c30 -2 80 -2 111 0 l55 3 -53 82 c-29 46
-55 83 -58 82 -3 0 -28 -37 -57 -82z m105 -3 c24 -36 41 -68 39 -70 -2 -3 -43
-4 -90 -2 l-86 3 42 67 c23 37 44 67 47 67 3 0 24 -29 48 -65z"/>
<path d="M1742 1737 l-53 -82 55 -3 c31 -2 81 -2 111 0 l54 3 -52 82 c-29 45
-54 82 -57 82 -3 1 -29 -36 -58 -82z m105 -5 l42 -67 -86 -3 c-47 -2 -88 -1
-90 2 -5 5 79 136 87 135 3 0 24 -30 47 -67z"/>
<path d="M2001 1740 c-28 -45 -51 -83 -51 -85 0 -3 48 -5 106 -5 85 0 105 3
101 14 -7 18 -96 156 -101 156 -2 0 -27 -36 -55 -80z m107 -15 l41 -65 -89 0
c-50 0 -90 2 -90 5 0 14 83 134 90 130 4 -2 26 -34 48 -70z"/>
<path d="M2264 1748 c-25 -40 -48 -78 -51 -85 -4 -10 18 -13 101 -13 58 0 106
2 106 6 0 7 -101 164 -105 164 -2 0 -25 -32 -51 -72z m95 -13 c23 -35 41 -67
41 -70 0 -3 -39 -5 -86 -5 -68 0 -85 3 -81 13 7 18 77 127 81 127 2 0 23 -29
45 -65z"/>
<path d="M150 1630 c0 -12 93 -159 102 -159 6 -1 108 153 108 163 0 4 -47 6
-105 6 -60 0 -105 -4 -105 -10z m190 -7 c0 -10 -82 -133 -89 -133 -3 0 -16 17
-28 38 -12 20 -32 52 -44 70 l-21 32 91 0 c50 0 91 -3 91 -7z"/>
<path d="M406 1628 c21 -38 100 -158 104 -158 5 0 102 144 108 161 2 5 -46 9
-108 9 -86 0 -110 -3 -104 -12z m192 -6 c-7 -18 -83 -132 -88 -132 -5 0 -38
49 -73 108 l-19 32 92 0 c50 0 90 -4 88 -8z"/>
<path d="M673 1626 c16 -40 610 -917 617 -910 4 5 28 40 53 78 l45 69 -199
298 -199 299 290 0 c159 0 290 -2 290 -5 0 -3 -55 -87 -122 -187 -67 -101
-121 -187 -121 -193 0 -18 96 -156 103 -148 13 14 470 703 470 708 0 3 -277 5
-616 5 -526 0 -615 -2 -611 -14z"/>
<path d="M1953 1627 c8 -20 97 -157 103 -157 6 0 104 153 104 163 0 4 -48 7
-106 7 -83 0 -105 -3 -101 -13z m187 -5 c0 -10 -77 -132 -84 -132 -5 0 -86
125 -86 133 0 4 38 7 85 7 47 0 85 -4 85 -8z"/>
<path d="M2210 1631 c0 -9 97 -161 104 -161 5 0 106 155 106 163 0 4 -47 7
-105 7 -58 0 -105 -4 -105 -9z m190 -8 c0 -8 -81 -133 -86 -133 -7 0 -84 119
-84 129 0 7 32 11 85 11 47 0 85 -3 85 -7z"/>
<path d="M326 1548 l-56 -83 106 -3 c59 -1 109 -1 111 2 3 3 -88 150 -102 164
-2 2 -29 -34 -59 -80z m104 -7 c23 -35 39 -65 37 -68 -3 -2 -43 -3 -91 -1
l-86 3 46 68 c25 38 47 67 50 65 2 -2 22 -33 44 -67z"/>
<path d="M583 1548 l-53 -83 55 -3 c30 -2 79 -2 109 0 l55 3 -52 82 c-29 46
-54 83 -57 83 -3 0 -29 -37 -57 -82z m104 -5 l42 -68 -44 -3 c-25 -2 -65 -2
-90 0 l-44 3 42 68 c23 37 44 67 47 67 3 0 24 -30 47 -67z"/>
<path d="M1872 1550 c-29 -45 -52 -83 -52 -86 0 -2 50 -4 110 -4 l110 0 -37
60 c-21 33 -47 72 -58 86 l-21 26 -52 -82z m103 -7 l45 -68 -86 -3 c-48 -2
-88 -1 -91 1 -4 4 77 137 84 137 1 0 23 -30 48 -67z"/>
<path d="M2131 1552 c-28 -43 -51 -81 -51 -85 0 -4 48 -7 106 -7 83 0 105 3
101 13 -6 17 -97 157 -101 157 -2 0 -27 -35 -55 -78z m98 -5 c22 -35 41 -66
41 -70 0 -4 -38 -7 -85 -7 -47 0 -85 3 -85 7 0 7 80 133 85 133 1 0 21 -28 44
-63z"/>
<path d="M282 1428 c8 -13 33 -51 54 -85 21 -35 42 -63 45 -63 6 0 109 157
109 166 0 2 -50 4 -111 4 l-111 0 14 -22z m186 4 c-10 -24 -82 -132 -88 -132
-3 0 -16 17 -28 38 -12 20 -31 52 -43 70 l-21 32 92 0 c50 0 90 -3 88 -8z"/>
<path d="M530 1445 c0 -8 101 -160 108 -162 6 -2 30 32 100 145 l14 22 -111 0
c-61 0 -111 -2 -111 -5z m188 -27 c-8 -13 -27 -44 -44 -70 -16 -27 -31 -48
-34 -48 -5 0 -81 114 -88 132 -2 4 38 8 88 8 l92 0 -14 -22z"/>
<path d="M1820 1444 c0 -7 101 -164 106 -164 7 0 104 149 104 160 0 6 -39 10
-105 10 -58 0 -105 -2 -105 -6z m194 -16 c-19 -32 -85 -128 -88 -128 -5 0 -86
127 -86 135 0 3 41 5 91 5 69 0 88 -3 83 -12z"/>
<path d="M2083 1436 c8 -20 96 -156 101 -156 6 0 96 137 103 157 4 10 -18 13
-102 13 -86 0 -106 -3 -102 -14z m184 -9 c-13 -35 -79 -127 -87 -122 -10 6
-80 119 -80 129 0 3 39 6 86 6 68 0 85 -3 81 -13z"/>
<path d="M453 1357 l-52 -82 106 -3 c58 -1 108 -1 110 2 5 5 -99 166 -107 166
-3 0 -28 -37 -57 -83z m105 -3 c24 -36 41 -68 39 -70 -2 -3 -43 -4 -90 -2
l-85 3 41 67 c23 37 44 68 47 68 3 0 24 -30 48 -66z"/>
<path d="M712 1359 c-29 -45 -51 -83 -49 -85 2 -3 52 -3 110 -2 l106 3 -52 82
c-29 46 -54 83 -57 83 -3 0 -29 -37 -58 -81z m105 -7 l42 -67 -86 -3 c-47 -2
-88 -1 -90 2 -5 5 79 136 87 135 3 0 24 -30 47 -67z"/>
<path d="M1742 1359 c-29 -45 -51 -83 -49 -85 2 -3 52 -3 110 -2 l106 3 -52
82 c-29 46 -54 83 -57 83 -3 0 -29 -37 -58 -81z m105 -7 l41 -67 -85 -3 c-47
-2 -88 -1 -90 2 -5 5 79 136 87 136 3 0 24 -31 47 -68z"/>
<path d="M2001 1361 c-28 -44 -51 -82 -51 -85 0 -4 47 -6 105 -6 58 0 105 3
105 8 0 9 -98 162 -104 162 -2 0 -27 -36 -55 -79z m107 -16 l41 -65 -89 0
c-50 0 -90 2 -90 5 0 14 83 134 90 130 4 -2 26 -34 48 -70z"/>
<path d="M660 1256 c0 -9 103 -166 109 -166 3 0 21 24 38 53 18 29 42 67 54
85 l21 32 -111 0 c-61 0 -111 -2 -111 -4z m181 -38 c-12 -18 -32 -50 -44 -70
-12 -21 -25 -38 -28 -38 -6 0 -89 126 -89 136 0 2 41 4 91 4 l91 0 -21 -32z"/>
<path d="M1690 1256 c0 -9 103 -166 109 -166 3 0 21 24 38 53 18 28 42 67 54
85 l21 32 -111 0 c-61 0 -111 -2 -111 -4z m181 -38 c-12 -18 -32 -50 -44 -70
-12 -21 -25 -38 -28 -38 -5 0 -78 110 -87 132 -2 5 38 8 88 8 l92 0 -21 -32z"/>
<path d="M582 1167 l-53 -82 55 -3 c31 -2 81 -2 111 0 l55 3 -53 83 c-28 45
-54 82 -57 82 -3 0 -29 -37 -58 -83z m105 -4 l42 -68 -44 -3 c-25 -2 -65 -2
-90 0 l-46 3 43 68 c24 37 45 67 48 67 3 0 24 -30 47 -67z"/>
<path d="M841 1170 c-28 -45 -51 -83 -51 -85 0 -3 47 -5 105 -5 66 0 105 4
105 10 0 11 -97 160 -104 160 -2 0 -27 -36 -55 -80z m104 -7 l45 -68 -86 -3
c-48 -2 -88 -1 -91 1 -4 5 76 137 83 137 2 0 24 -30 49 -67z"/>
<path d="M1613 1168 l-53 -83 55 -3 c30 -2 80 -2 110 0 l55 3 -53 83 c-28 45
-54 82 -57 82 -3 0 -29 -37 -57 -82z m105 -5 l43 -68 -46 -3 c-25 -2 -65 -2
-90 0 l-46 3 43 68 c24 37 45 67 48 67 3 0 24 -30 48 -67z"/>
<path d="M1871 1169 c-28 -45 -50 -83 -48 -86 3 -2 52 -2 110 -1 l106 3 -52
82 c-29 45 -55 82 -58 82 -4 1 -30 -36 -58 -80z m104 -6 l45 -68 -86 -3 c-48
-2 -88 -1 -91 1 -4 5 76 137 83 137 2 0 24 -30 49 -67z"/>
<path d="M790 1064 c0 -7 101 -164 106 -164 7 0 104 151 104 161 0 5 -47 9
-105 9 -58 0 -105 -2 -105 -6z m164 -61 c-59 -94 -56 -93 -103 -19 -22 36 -41
68 -41 71 0 3 41 5 90 5 l91 0 -37 -57z"/>
<path d="M1566 1058 c20 -38 100 -158 104 -158 3 0 23 28 44 63 21 34 46 72
54 85 l14 22 -111 0 c-87 0 -111 -3 -105 -12z m182 -20 c-8 -13 -27 -44 -44
-70 -16 -27 -31 -48 -34 -48 -5 0 -81 114 -88 132 -2 4 38 8 88 8 l92 0 -14
-22z"/>
<path d="M712 979 c-29 -45 -51 -83 -49 -86 3 -2 52 -2 110 -1 l106 3 -52 82
c-29 46 -54 83 -57 83 -3 0 -29 -37 -58 -81z m105 -7 l41 -67 -85 -3 c-47 -2
-87 -1 -90 1 -5 5 78 137 86 137 3 0 25 -31 48 -68z"/>
<path d="M971 982 c-28 -43 -51 -81 -51 -85 0 -4 47 -7 105 -7 58 0 105 3 105
8 0 9 -98 162 -103 162 -3 0 -28 -35 -56 -78z m99 -4 c22 -33 40 -65 40 -70 0
-4 -38 -8 -85 -8 -47 0 -85 3 -85 7 0 8 81 133 86 133 3 0 22 -28 44 -62z"/>
<path d="M1483 977 l-52 -82 106 -3 c58 -1 108 -1 110 2 5 4 -95 160 -105 163
-4 2 -30 -34 -59 -80z m105 -3 c24 -36 41 -68 39 -70 -2 -3 -43 -4 -90 -2
l-85 3 41 67 c23 37 44 68 47 68 3 0 24 -30 48 -66z"/>
<path d="M1742 979 c-29 -45 -51 -83 -49 -86 3 -2 52 -2 110 -1 l106 3 -52 82
c-29 46 -54 83 -57 83 -3 0 -29 -37 -58 -81z m105 -7 l41 -67 -85 -3 c-47 -2
-88 -1 -90 2 -5 5 79 136 87 136 3 0 24 -31 47 -68z"/>
<path d="M660 876 c0 -9 103 -166 109 -166 3 0 21 24 38 53 18 29 42 67 54 85
l21 32 -111 0 c-61 0 -111 -2 -111 -4z m194 -18 c-26 -44 -86 -129 -90 -126
-8 8 -84 129 -84 133 0 3 41 5 91 5 69 0 88 -3 83 -12z"/>
<path d="M920 873 c0 -8 101 -163 106 -163 4 0 95 140 101 157 4 10 -18 13
-101 13 -58 0 -106 -3 -106 -7z m187 -16 c-7 -18 -77 -127 -81 -127 -5 0 -86
125 -86 133 0 4 39 7 86 7 68 0 85 -3 81 -13z"/>
<path d="M1442 858 c8 -13 33 -51 54 -85 21 -35 41 -63 44 -63 4 0 84 120 104
158 6 9 -18 12 -105 12 l-111 0 14 -22z m186 4 c-7 -19 -83 -132 -89 -132 -3
0 -15 17 -27 38 -12 20 -31 52 -43 70 l-21 32 92 0 c50 0 90 -4 88 -8z"/>
<path d="M1690 875 c0 -8 101 -160 108 -162 4 -1 22 21 39 50 18 29 42 67 54
85 l21 32 -111 0 c-61 0 -111 -2 -111 -5z m181 -37 c-12 -18 -32 -50 -44 -70
-12 -21 -25 -38 -28 -38 -5 0 -78 110 -87 132 -2 5 38 8 88 8 l92 0 -21 -32z"/>
<path d="M841 790 c-28 -45 -51 -83 -51 -85 0 -3 47 -5 105 -5 60 0 105 4 105
10 0 12 -93 159 -101 159 -4 1 -30 -35 -58 -79z m104 -7 l45 -68 -86 -3 c-48
-2 -89 -1 -91 2 -5 4 75 136 83 136 2 0 24 -30 49 -67z"/>
<path d="M1104 799 c-68 -107 -72 -99 51 -99 84 0 106 3 102 13 -7 20 -97 157
-103 157 -2 0 -25 -32 -50 -71z m92 -6 c56 -87 58 -83 -41 -83 -68 0 -86 3
-82 13 7 20 77 127 82 127 2 0 21 -26 41 -57z"/>
<path d="M1358 794 c-27 -41 -48 -79 -48 -84 0 -6 45 -10 105 -10 58 0 105 2
105 5 0 10 -102 165 -109 164 -3 0 -27 -34 -53 -75z m102 -10 c23 -36 39 -68
37 -70 -2 -3 -43 -4 -90 -2 l-86 3 42 67 c23 37 45 67 49 68 3 0 25 -30 48
-66z"/>
<path d="M1612 787 l-53 -82 55 -3 c31 -2 81 -2 112 0 l55 3 -53 82 c-29 46
-55 83 -58 83 -3 0 -29 -37 -58 -83z m103 1 c22 -34 42 -65 43 -70 2 -4 -38
-8 -88 -8 -50 0 -90 4 -88 8 7 18 83 132 88 132 3 0 23 -28 45 -62z"/>
<path d="M790 685 c0 -7 102 -165 106 -165 6 0 104 153 104 163 0 4 -47 7
-105 7 -58 0 -105 -2 -105 -5z m164 -62 c-59 -94 -56 -93 -103 -19 -22 36 -41
68 -41 71 0 3 41 5 90 5 l91 0 -37 -57z"/>
<path d="M1053 677 c6 -17 97 -157 101 -157 5 0 106 155 106 163 0 4 -48 7
-106 7 -83 0 -105 -3 -101 -13z m187 -4 c0 -8 -81 -133 -86 -133 -4 0 -74 109
-81 127 -4 10 13 13 81 13 47 0 86 -3 86 -7z"/>
<path d="M1319 658 c12 -18 36 -56 54 -85 17 -29 35 -51 39 -50 7 2 108 154
108 162 0 3 -50 5 -111 5 l-111 0 21 -32z m181 17 c0 -4 -76 -125 -84 -133 -4
-3 -64 82 -90 126 -5 9 14 12 83 12 50 0 91 -2 91 -5z"/>
<path d="M1572 668 c65 -105 94 -148 98 -148 3 0 23 28 44 63 21 34 46 72 54
85 l14 22 -112 0 -112 0 14 -22z m169 -20 c-12 -18 -31 -50 -43 -70 -12 -21
-24 -38 -27 -38 -6 0 -38 47 -74 108 l-19 32 92 0 92 0 -21 -32z"/>
<path d="M971 602 c-28 -43 -51 -81 -51 -85 0 -4 47 -7 105 -7 58 0 105 4 105
9 0 9 -97 161 -104 161 -2 0 -27 -35 -55 -78z m99 -4 c22 -33 40 -65 40 -70 0
-4 -38 -8 -85 -8 -47 0 -85 3 -85 7 0 8 81 133 86 133 3 0 22 -28 44 -62z"/>
<path d="M1230 604 c-28 -42 -50 -80 -50 -85 0 -5 47 -9 105 -9 58 0 105 3
105 7 0 8 -101 163 -106 163 -3 0 -27 -34 -54 -76z m99 -7 c22 -35 41 -66 41
-70 0 -4 -38 -7 -85 -7 -47 0 -85 4 -85 8 0 10 77 132 84 132 2 0 22 -28 45
-63z"/>
<path d="M1483 597 l-52 -82 106 -3 c58 -1 107 -1 110 1 5 5 -98 167 -106 167
-3 0 -29 -37 -58 -83z m106 -3 c23 -37 40 -68 38 -71 -3 -2 -43 -3 -90 -1
l-86 3 42 68 c23 37 44 67 48 67 3 0 24 -30 48 -66z"/>
<path d="M920 493 c0 -8 101 -163 106 -163 4 0 95 140 101 157 4 10 -18 13
-101 13 -58 0 -106 -3 -106 -7z m190 -10 c0 -7 -80 -133 -85 -133 -5 0 -85
126 -85 133 0 4 38 7 85 7 47 0 85 -3 85 -7z"/>
<path d="M1449 468 c12 -18 36 -57 54 -85 17 -29 34 -53 37 -53 4 0 32 42 98
148 l14 22 -112 0 -112 0 21 -32z m164 -10 c-36 -61 -68 -108 -74 -108 -3 0
-15 17 -27 38 -12 20 -31 52 -43 70 l-21 32 92 0 92 0 -19 -32z"/>
</g>
</svg>
