<?xml version="1.0" standalone="no"?>
<!DOCTYPE svg PUBLIC "-//W3C//DTD SVG 20010904//EN"
 "http://www.w3.org/TR/2001/REC-SVG-20010904/DTD/svg10.dtd">
<svg version="1.0" xmlns="http://www.w3.org/2000/svg"
 width="256.000000pt" height="256.000000pt" viewBox="0 0 256.000000 256.000000"
 preserveAspectRatio="xMidYMid meet">
<metadata>
Created by potrace 1.16, written by Peter Selinger 2001-2019
</metadata>
<g transform="translate(0.000000,256.000000) scale(0.100000,-0.100000)"
fill="#e5e5e5" stroke="none">
<path d="M861 1911 l-420 -633 67 -101 c480 -726 768 -1157 773 -1157 7 0 839
1247 839 1257 0 5 -189 291 -419 637 l-420 629 -420 -632z m805 -67 l375 -566
-377 -569 c-207 -313 -378 -569 -380 -569 -2 0 -175 256 -383 569 l-379 568
376 566 c207 312 381 567 385 567 4 0 177 -255 383 -566z"/>
<path d="M1269 2283 c-12 -16 -12 -17 2 -6 9 7 20 9 24 5 5 -4 5 -1 1 6 -9 16
-11 15 -27 -5z"/>
<path d="M1327 2219 c4 -13 8 -18 11 -10 2 7 -1 18 -6 23 -8 8 -9 4 -5 -13z"/>
<path d="M1225 2219 c-4 -6 -5 -12 -2 -15 2 -3 7 2 10 11 7 17 1 20 -8 4z"/>
<path d="M1195 2179 c-3 -4 2 -6 10 -5 21 3 28 13 10 13 -9 0 -18 -4 -20 -8z"/>
<path d="M1328 2179 c-4 -11 1 -15 22 -14 18 0 26 4 23 13 -4 9 -9 10 -18 2
-9 -8 -14 -7 -17 2 -3 8 -6 8 -10 -3z"/>
<path d="M1226 2161 c-4 -5 -2 -12 3 -15 5 -4 12 -2 15 3 4 5 2 12 -3 15 -5 4
-12 2 -15 -3z"/>
<path d="M1316 2138 c3 -5 10 -6 15 -3 13 9 11 12 -6 12 -8 0 -12 -4 -9 -9z"/>
<path d="M1246 2132 c-3 -5 1 -9 9 -9 8 0 12 4 9 9 -3 4 -7 8 -9 8 -2 0 -6 -4
-9 -8z"/>
<path d="M1286 2114 c-10 -7 -24 -11 -30 -7 -6 3 -7 2 -3 -2 12 -14 37 -15 37
-2 0 8 3 7 9 -1 7 -11 9 -11 14 2 9 22 -5 27 -27 10z"/>
<path d="M1406 2107 c3 -10 9 -15 12 -12 3 3 0 11 -7 18 -10 9 -11 8 -5 -6z"/>
<path d="M1274 2066 c20 -16 37 -13 35 7 0 9 -2 9 -6 0 -3 -10 -10 -10 -26 -2
-21 10 -21 9 -3 -5z"/>
<path d="M1411 2073 c-1 -18 13 -23 29 -11 12 8 12 9 -2 5 -9 -3 -19 -1 -22 6
-3 9 -5 9 -5 0z"/>
<path d="M1115 2060 c-4 -6 -3 -10 2 -9 4 1 10 0 13 -1 16 -6 41 -7 35 -2 -4
4 -10 7 -13 7 -4 0 -12 4 -19 8 -6 4 -15 3 -18 -3z"/>
<path d="M1246 2052 c-3 -5 1 -9 9 -9 8 0 12 4 9 9 -3 4 -7 8 -9 8 -2 0 -6 -4
-9 -8z"/>
<path d="M1306 2041 c-4 -5 -2 -12 3 -15 5 -4 12 -2 15 3 4 5 2 12 -3 15 -5 4
-12 2 -15 -3z"/>
<path d="M1396 2041 c-4 -5 -2 -12 3 -15 5 -4 12 -2 15 3 4 5 2 12 -3 15 -5 4
-12 2 -15 -3z"/>
<path d="M1156 2018 c3 -5 10 -6 15 -3 13 9 11 12 -6 12 -8 0 -12 -4 -9 -9z"/>
<path d="M1225 2019 c-3 -4 2 -6 10 -5 21 3 28 13 10 13 -9 0 -18 -4 -20 -8z"/>
<path d="M1327 2013 c-2 -5 -1 -17 3 -27 6 -19 7 -19 12 2 6 21 -6 40 -15 25z"/>
<path d="M1376 2012 c-3 -5 1 -9 9 -9 8 0 12 4 9 9 -3 4 -7 8 -9 8 -2 0 -6 -4
-9 -8z"/>
<path d="M1177 2003 c-3 -5 -2 -15 4 -23 6 -10 9 -11 9 -2 0 13 21 12 31 -1 3
-5 9 -2 12 6 4 10 0 14 -11 12 -9 -1 -22 2 -29 7 -6 5 -14 5 -16 1z"/>
<path d="M1030 1936 c-12 -19 -11 -20 2 -8 9 7 20 11 24 10 5 -2 11 1 14 6 11
20 -27 12 -40 -8z"/>
<path d="M1186 1949 c4 -8 30 -6 38 2 3 3 -5 5 -19 5 -13 0 -22 -3 -19 -7z"/>
<path d="M1328 1949 c-4 -11 3 -14 32 -14 27 0 36 3 32 13 -4 11 -6 11 -13 0
-7 -11 -9 -11 -9 1 0 10 -3 11 -14 2 -11 -9 -15 -9 -18 1 -3 9 -6 8 -10 -3z"/>
<path d="M1226 1931 c-4 -5 -2 -12 3 -15 5 -4 12 -2 15 3 4 5 2 12 -3 15 -5 4
-12 2 -15 -3z"/>
<path d="M1475 1929 c-3 -4 2 -6 10 -5 21 3 28 13 10 13 -9 0 -18 -4 -20 -8z"/>
<path d="M1076 1921 c-4 -5 -2 -12 3 -15 5 -4 12 -2 15 3 4 5 2 12 -3 15 -5 4
-12 2 -15 -3z"/>
<path d="M1166 1918 c3 -5 10 -6 15 -3 13 9 11 12 -6 12 -8 0 -12 -4 -9 -9z"/>
<path d="M1316 1908 c3 -5 10 -6 15 -3 13 9 11 12 -6 12 -8 0 -12 -4 -9 -9z"/>
<path d="M1384 1912 c4 -3 14 -7 22 -8 9 -1 13 0 10 4 -4 3 -14 7 -22 8 -9 1
-13 0 -10 -4z"/>
<path d="M1146 1901 c-4 -5 -2 -12 3 -15 5 -4 12 -2 15 3 4 5 2 12 -3 15 -5 4
-12 2 -15 -3z"/>
<path d="M1246 1902 c-3 -5 1 -9 9 -9 8 0 12 4 9 9 -3 4 -7 8 -9 8 -2 0 -6 -4
-9 -8z"/>
<path d="M1455 1899 c-3 -4 2 -6 10 -5 21 3 28 13 10 13 -9 0 -18 -4 -20 -8z"/>
<path d="M1094 1888 c-4 -7 -3 -8 5 -4 6 4 14 1 17 -7 2 -7 11 -14 19 -14 20
0 19 2 -9 21 -18 11 -27 13 -32 4z"/>
<path d="M995 1879 c-4 -6 -5 -12 -2 -15 2 -3 7 2 10 11 7 17 1 20 -8 4z"/>
<path d="M1272 1873 c-15 -13 -15 -13 5 -4 16 8 22 8 25 -1 3 -8 6 -7 10 3 8
20 -17 21 -40 2z"/>
<path d="M1407 1873 c4 -9 8 -11 12 -4 4 6 12 7 21 1 19 -12 30 -13 30 -2 0 5
-6 9 -12 10 -7 0 -23 3 -35 6 -17 3 -20 1 -16 -11z"/>
<path d="M990 1842 c0 -6 -8 -9 -17 -6 -15 5 -16 4 -3 -5 16 -11 40 3 27 16
-4 3 -7 1 -7 -5z"/>
<path d="M1097 1838 c-4 -13 -1 -16 15 -13 12 3 26 10 32 16 8 9 6 9 -11 0
-16 -8 -22 -8 -25 1 -3 8 -7 6 -11 -4z"/>
<path d="M1263 1839 c31 -18 57 -19 50 -2 -4 9 -8 11 -12 4 -4 -6 -12 -7 -21
-1 -8 6 -19 10 -25 10 -5 -1 -2 -5 8 -11z"/>
<path d="M1410 1843 c0 -19 14 -22 40 -7 14 7 21 13 15 13 -5 1 -17 -3 -25 -9
-9 -6 -17 -5 -22 3 -6 9 -8 9 -8 0z"/>
<path d="M1585 1830 c-4 -6 -10 -8 -15 -5 -5 3 -11 1 -14 -4 -7 -10 20 -9 30
2 4 4 14 1 23 -6 14 -11 14 -10 2 6 -16 20 -18 20 -26 7z"/>
<path d="M1146 1822 c-3 -5 1 -9 9 -9 8 0 12 4 9 9 -3 4 -7 8 -9 8 -2 0 -6 -4
-9 -8z"/>
<path d="M1246 1822 c-3 -5 1 -9 9 -9 8 0 12 4 9 9 -3 4 -7 8 -9 8 -2 0 -6 -4
-9 -8z"/>
<path d="M1456 1821 c-4 -5 -2 -12 3 -15 5 -4 12 -2 15 3 4 5 2 12 -3 15 -5 4
-12 2 -15 -3z"/>
<path d="M996 1812 c-3 -5 1 -9 9 -9 8 0 12 4 9 9 -3 4 -7 8 -9 8 -2 0 -6 -4
-9 -8z"/>
<path d="M1396 1811 c-4 -5 -2 -12 3 -15 5 -4 12 -2 15 3 4 5 2 12 -3 15 -5 4
-12 2 -15 -3z"/>
<path d="M1075 1799 c-3 -4 2 -6 10 -5 21 3 28 13 10 13 -9 0 -18 -4 -20 -8z"/>
<path d="M1306 1798 c3 -5 10 -6 15 -3 13 9 11 12 -6 12 -8 0 -12 -4 -9 -9z"/>
<path d="M1154 1792 c4 -3 14 -7 22 -8 9 -1 13 0 10 4 -4 3 -14 7 -22 8 -9 1
-13 0 -10 -4z"/>
<path d="M1225 1789 c-3 -4 2 -6 10 -5 21 3 28 13 10 13 -9 0 -18 -4 -20 -8z"/>
<path d="M1476 1791 c-4 -5 -2 -12 3 -15 5 -4 12 -2 15 3 4 5 2 12 -3 15 -5 4
-12 2 -15 -3z"/>
<path d="M1546 1788 c3 -5 10 -6 15 -3 13 9 11 12 -6 12 -8 0 -12 -4 -9 -9z"/>
<path d="M1004 1782 c4 -3 14 -7 22 -8 9 -1 13 0 10 4 -4 3 -14 7 -22 8 -9 1
-13 0 -10 -4z"/>
<path d="M1327 1783 c-2 -5 -1 -17 3 -27 6 -19 7 -19 12 2 6 21 -6 40 -15 25z"/>
<path d="M1376 1782 c-3 -5 1 -9 9 -9 8 0 12 4 9 9 -3 4 -7 8 -9 8 -2 0 -6 -4
-9 -8z"/>
<path d="M1066 1768 c3 -5 10 -6 15 -3 13 9 11 12 -6 12 -8 0 -12 -4 -9 -9z"/>
<path d="M1526 1772 c-4 -4 -13 -7 -18 -7 -6 0 -13 -7 -15 -15 -4 -12 -3 -12
5 -2 11 17 22 17 32 2 5 -8 9 -7 13 4 7 17 -6 30 -17 18z"/>
<path d="M1178 1752 c3 -10 7 -11 12 -2 4 6 11 12 15 12 4 0 11 -6 15 -12 5
-9 9 -8 12 2 4 10 -3 14 -27 14 -24 0 -31 -4 -27 -14z"/>
<path d="M1051 1714 c6 -7 16 -11 21 -8 11 7 3 17 -18 20 -12 2 -13 -1 -3 -12z"/>
<path d="M1175 1720 c-5 -8 42 -7 49 1 3 3 -6 5 -20 5 -14 0 -27 -3 -29 -6z"/>
<path d="M1327 1717 c-7 -18 17 -17 35 1 9 9 9 12 0 12 -7 0 -12 -6 -12 -12 0
-10 -2 -10 -9 0 -7 11 -9 11 -14 -1z"/>
<path d="M1377 1716 c-3 -8 -2 -18 3 -21 13 -8 20 9 11 24 -6 10 -10 9 -14 -3z"/>
<path d="M1514 1722 c4 -3 14 -7 22 -8 9 -1 13 0 10 4 -4 3 -14 7 -22 8 -9 1
-13 0 -10 -4z"/>
<path d="M1644 1719 c-8 -14 14 -19 25 -6 8 10 7 14 -5 14 -8 0 -17 -4 -20 -8z"/>
<path d="M904 1702 c4 -3 14 -7 22 -8 9 -1 13 0 10 4 -4 3 -14 7 -22 8 -9 1
-13 0 -10 -4z"/>
<path d="M1016 1698 c3 -5 10 -6 15 -3 13 9 11 12 -6 12 -8 0 -12 -4 -9 -9z"/>
<path d="M1226 1701 c-4 -5 -2 -12 3 -15 5 -4 12 -2 15 3 4 5 2 12 -3 15 -5 4
-12 2 -15 -3z"/>
<path d="M1476 1702 c-3 -5 1 -9 9 -9 8 0 12 4 9 9 -3 4 -7 8 -9 8 -2 0 -6 -4
-9 -8z"/>
<path d="M1076 1691 c-4 -5 -2 -12 3 -15 5 -4 12 -2 15 3 4 5 2 12 -3 15 -5 4
-12 2 -15 -3z"/>
<path d="M1166 1688 c3 -5 10 -6 15 -3 13 9 11 12 -6 12 -8 0 -12 -4 -9 -9z"/>
<path d="M1534 1692 c4 -3 14 -7 22 -8 9 -1 13 0 10 4 -4 3 -14 7 -22 8 -9 1
-13 0 -10 -4z"/>
<path d="M1626 1692 c-3 -5 1 -9 9 -9 8 0 12 4 9 9 -3 4 -7 8 -9 8 -2 0 -6 -4
-9 -8z"/>
<path d="M996 1682 c-3 -5 1 -9 9 -9 8 0 12 4 9 9 -3 4 -7 8 -9 8 -2 0 -6 -4
-9 -8z"/>
<path d="M1305 1679 c-3 -4 2 -6 10 -5 21 3 28 13 10 13 -9 0 -18 -4 -20 -8z"/>
<path d="M1396 1682 c-3 -5 1 -9 9 -9 8 0 12 4 9 9 -3 4 -7 8 -9 8 -2 0 -6 -4
-9 -8z"/>
<path d="M926 1668 c3 -5 10 -6 15 -3 13 9 11 12 -6 12 -8 0 -12 -4 -9 -9z"/>
<path d="M1146 1671 c-4 -5 -2 -12 3 -15 5 -4 12 -2 15 3 4 5 2 12 -3 15 -5 4
-12 2 -15 -3z"/>
<path d="M1246 1671 c-4 -5 -2 -12 3 -15 5 -4 12 -2 15 3 4 5 2 12 -3 15 -5 4
-12 2 -15 -3z"/>
<path d="M1455 1669 c-3 -4 2 -6 10 -5 21 3 28 13 10 13 -9 0 -18 -4 -20 -8z"/>
<path d="M1096 1662 c-2 -4 -1 -14 5 -22 7 -13 9 -13 9 0 0 9 3 11 8 5 7 -10
32 -19 32 -11 0 9 -49 35 -54 28z"/>
<path d="M1556 1658 c3 -5 10 -6 15 -3 13 9 11 12 -6 12 -8 0 -12 -4 -9 -9z"/>
<path d="M1591 1651 c-16 -13 -19 -18 -7 -18 8 0 18 7 20 14 3 8 11 11 17 7 8
-4 9 -3 5 4 -9 15 -6 15 -35 -7z"/>
<path d="M944 1648 c-10 -16 3 -20 24 -9 14 7 22 7 25 1 3 -6 4 -5 3 1 -3 15
-44 20 -52 7z"/>
<path d="M1272 1643 c-15 -13 -15 -13 5 -4 16 8 22 8 25 -1 3 -8 6 -7 10 3 8
20 -17 21 -40 2z"/>
<path d="M1407 1643 c4 -9 8 -11 12 -4 4 6 12 7 21 1 19 -12 30 -13 30 -2 0 5
-6 9 -12 10 -7 0 -23 3 -35 6 -17 3 -20 1 -16 -11z"/>
<path d="M1720 1640 c0 -5 5 -10 11 -10 5 0 7 5 4 10 -3 6 -8 10 -11 10 -2 0
-4 -4 -4 -10z"/>
<path d="M830 1612 c0 -7 -4 -11 -9 -8 -5 3 -15 -2 -22 -12 -12 -15 -12 -16 2
-5 11 9 19 9 26 2 14 -14 24 3 12 21 -6 11 -9 12 -9 2z"/>
<path d="M940 1612 c0 -5 6 -9 13 -9 6 0 18 -2 26 -4 7 -2 16 3 18 11 3 10 2
11 -4 3 -6 -8 -14 -9 -23 -3 -19 12 -30 13 -30 2z"/>
<path d="M1097 1608 c-4 -13 -1 -16 15 -13 12 3 26 10 32 16 8 9 6 9 -11 0
-16 -8 -22 -8 -25 1 -3 8 -7 6 -11 -4z"/>
<path d="M1300 1611 c0 -6 4 -13 10 -16 6 -3 7 1 4 9 -7 18 -14 21 -14 7z"/>
<path d="M1410 1613 c0 -19 14 -22 40 -7 14 7 21 13 15 13 -5 1 -17 -3 -25 -9
-9 -6 -17 -5 -22 3 -6 9 -8 9 -8 0z"/>
<path d="M1610 1612 c0 -7 -4 -11 -9 -7 -5 3 -12 1 -16 -5 -4 -6 -10 -8 -15
-5 -5 3 -11 1 -14 -4 -7 -10 20 -9 30 2 4 4 13 2 20 -4 16 -13 26 2 13 21 -6
11 -9 12 -9 2z"/>
<path d="M1720 1608 c0 -6 3 -8 6 -5 4 3 16 2 28 -4 20 -10 20 -10 2 5 -24 19
-36 20 -36 4z"/>
<path d="M1146 1592 c-3 -5 1 -9 9 -9 8 0 12 4 9 9 -3 4 -7 8 -9 8 -2 0 -6 -4
-9 -8z"/>
<path d="M1456 1591 c-4 -5 -2 -12 3 -15 5 -4 12 -2 15 3 4 5 2 12 -3 15 -5 4
-12 2 -15 -3z"/>
<path d="M925 1579 c-3 -4 2 -6 10 -5 21 3 28 13 10 13 -9 0 -18 -4 -20 -8z"/>
<path d="M996 1581 c-4 -5 -2 -12 3 -15 5 -4 12 -2 15 3 4 5 2 12 -3 15 -5 4
-12 2 -15 -3z"/>
<path d="M1265 1566 c-18 -26 -17 -27 49 -126 l66 -100 -95 0 c-52 0 -95 2
-95 6 0 3 18 32 40 64 40 58 40 60 24 85 -9 14 -20 22 -24 18 -21 -24 -151
-225 -147 -229 2 -2 95 -3 206 -2 l201 3 -96 145 c-53 80 -100 149 -104 154
-5 4 -16 -4 -25 -18z"/>
<path d="M1705 1579 c-3 -4 2 -6 10 -5 21 3 28 13 10 13 -9 0 -18 -4 -20 -8z"/>
<path d="M846 1571 c-4 -5 -2 -12 3 -15 5 -4 12 -2 15 3 4 5 2 12 -3 15 -5 4
-12 2 -15 -3z"/>
<path d="M1075 1569 c-3 -4 2 -6 10 -5 21 3 28 13 10 13 -9 0 -18 -4 -20 -8z"/>
<path d="M1396 1568 c3 -5 10 -6 15 -3 13 9 11 12 -6 12 -8 0 -12 -4 -9 -9z"/>
<path d="M1626 1571 c-4 -5 -2 -12 3 -15 5 -4 12 -2 15 3 4 5 2 12 -3 15 -5 4
-12 2 -15 -3z"/>
<path d="M1154 1562 c4 -3 14 -7 22 -8 9 -1 13 0 10 4 -4 3 -14 7 -22 8 -9 1
-13 0 -10 -4z"/>
<path d="M1476 1561 c-4 -5 -2 -12 3 -15 5 -4 12 -2 15 3 4 5 2 12 -3 15 -5 4
-12 2 -15 -3z"/>
<path d="M1546 1558 c3 -5 10 -6 15 -3 13 9 11 12 -6 12 -8 0 -12 -4 -9 -9z"/>
<path d="M916 1548 c3 -5 10 -6 15 -3 13 9 11 12 -6 12 -8 0 -12 -4 -9 -9z"/>
<path d="M1016 1552 c-3 -5 1 -9 9 -9 8 0 12 4 9 9 -3 4 -7 8 -9 8 -2 0 -6 -4
-9 -8z"/>
<path d="M1376 1552 c-3 -5 1 -9 9 -9 8 0 12 4 9 9 -3 4 -7 8 -9 8 -2 0 -6 -4
-9 -8z"/>
<path d="M1685 1549 c-3 -4 2 -6 10 -5 21 3 28 13 10 13 -9 0 -18 -4 -20 -8z"/>
<path d="M866 1542 c-2 -4 -1 -14 5 -22 6 -11 9 -12 9 -2 0 8 5 10 13 6 8 -5
8 -2 -2 9 -15 19 -18 20 -25 9z"/>
<path d="M1049 1533 c-8 -9 -8 -13 0 -13 6 0 11 5 11 11 0 5 4 8 9 4 5 -3 12
-2 15 3 9 14 -23 10 -35 -5z"/>
<path d="M1526 1542 c-4 -4 -13 -7 -18 -7 -6 0 -13 -7 -15 -15 -4 -12 -3 -12
5 -2 11 17 22 17 32 2 5 -8 9 -7 13 4 7 17 -6 30 -17 18z"/>
<path d="M1646 1542 c-2 -4 -1 -14 5 -22 6 -11 9 -12 9 -2 0 8 5 10 13 6 8 -5
8 -2 -2 9 -15 19 -18 20 -25 9z"/>
<path d="M755 1529 c-4 -6 -5 -12 -2 -15 2 -3 7 2 10 11 7 17 1 20 -8 4z"/>
<path d="M1178 1521 c4 -10 7 -11 10 -3 2 7 8 10 12 7 5 -3 11 -2 14 3 2 4 -6
8 -19 8 -16 0 -21 -4 -17 -15z"/>
<path d="M741 1484 c6 -7 16 -11 21 -8 11 7 3 17 -18 20 -12 2 -13 -1 -3 -12z"/>
<path d="M864 1489 c-8 -14 14 -19 25 -6 8 10 7 14 -5 14 -8 0 -17 -4 -20 -8z"/>
<path d="M1050 1485 c7 -8 16 -12 21 -9 13 8 1 24 -18 24 -13 0 -13 -3 -3 -15z"/>
<path d="M1380 1491 c0 -6 4 -13 10 -16 6 -3 7 1 4 9 -7 18 -14 21 -14 7z"/>
<path d="M1495 1491 c3 -3 17 -6 31 -7 13 0 22 2 19 5 -3 3 -17 6 -31 7 -13 0
-22 -2 -19 -5z"/>
<path d="M1644 1489 c-8 -14 14 -19 25 -6 8 10 7 14 -5 14 -8 0 -17 -4 -20 -8z"/>
<path d="M1820 1496 c0 -2 8 -10 18 -17 15 -13 16 -12 3 4 -13 16 -21 21 -21
13z"/>
<path d="M904 1472 c4 -3 14 -7 22 -8 9 -1 13 0 10 4 -4 3 -14 7 -22 8 -9 1
-13 0 -10 -4z"/>
<path d="M1016 1468 c3 -5 10 -6 15 -3 13 9 11 12 -6 12 -8 0 -12 -4 -9 -9z"/>
<path d="M1476 1472 c-3 -5 1 -9 9 -9 8 0 12 4 9 9 -3 4 -7 8 -9 8 -2 0 -6 -4
-9 -8z"/>
<path d="M1686 1468 c3 -5 10 -6 15 -3 13 9 11 12 -6 12 -8 0 -12 -4 -9 -9z"/>
<path d="M1785 1469 c-3 -4 2 -6 10 -5 21 3 28 13 10 13 -9 0 -18 -4 -20 -8z"/>
<path d="M766 1462 c-3 -5 1 -9 9 -9 8 0 12 4 9 9 -3 4 -7 8 -9 8 -2 0 -6 -4
-9 -8z"/>
<path d="M846 1462 c-3 -5 1 -9 9 -9 8 0 12 4 9 9 -3 4 -7 8 -9 8 -2 0 -6 -4
-9 -8z"/>
<path d="M1150 1450 c-6 -11 -8 -20 -6 -20 3 0 10 9 16 20 6 11 8 20 6 20 -3
0 -10 -9 -16 -20z"/>
<path d="M1534 1462 c4 -3 14 -7 22 -8 9 -1 13 0 10 4 -4 3 -14 7 -22 8 -9 1
-13 0 -10 -4z"/>
<path d="M1626 1461 c-4 -5 -2 -12 3 -15 5 -4 12 -2 15 3 4 5 2 12 -3 15 -5 4
-12 2 -15 -3z"/>
<path d="M996 1451 c-4 -5 -2 -12 3 -15 5 -4 12 -2 15 3 4 5 2 12 -3 15 -5 4
-12 2 -15 -3z"/>
<path d="M1076 1448 c3 -5 10 -6 15 -3 13 9 11 12 -6 12 -8 0 -12 -4 -9 -9z"/>
<path d="M1706 1451 c-4 -5 -2 -12 3 -15 5 -4 12 -2 15 3 4 5 2 12 -3 15 -5 4
-12 2 -15 -3z"/>
<path d="M926 1438 c3 -5 10 -6 15 -3 13 9 11 12 -6 12 -8 0 -12 -4 -9 -9z"/>
<path d="M1455 1439 c-3 -4 2 -6 10 -5 21 3 28 13 10 13 -9 0 -18 -4 -20 -8z"/>
<path d="M1776 1438 c3 -5 10 -6 15 -3 13 9 11 12 -6 12 -8 0 -12 -4 -9 -9z"/>
<path d="M776 1429 c3 -5 9 -7 14 -4 5 3 13 -2 18 -11 8 -15 10 -15 15 1 4 9
11 14 16 10 5 -3 12 -1 15 4 7 10 -20 9 -30 -2 -4 -3 -12 -3 -18 0 -17 11 -37
12 -30 2z"/>
<path d="M1097 1433 c-3 -5 -2 -15 4 -23 5 -10 9 -11 9 -3 0 7 7 10 18 6 18
-7 17 -5 -10 15 -9 7 -19 9 -21 5z"/>
<path d="M1556 1428 c3 -5 10 -6 15 -3 13 9 11 12 -6 12 -8 0 -12 -4 -9 -9z"/>
<path d="M1599 1423 c-12 -16 -12 -17 2 -6 9 7 20 9 24 5 5 -4 5 -1 1 6 -9 16
-11 15 -27 -5z"/>
<path d="M970 1420 c-8 -5 -18 -6 -22 -4 -4 3 -8 0 -8 -5 0 -13 10 -14 30 -1
9 6 17 5 22 -3 6 -9 8 -9 8 0 0 17 -14 23 -30 13z"/>
<path d="M1434 1416 c24 -19 36 -20 36 -4 0 6 -3 8 -6 5 -4 -3 -16 -2 -28 4
-20 10 -20 10 -2 -5z"/>
<path d="M1724 1418 c-10 -16 3 -20 24 -9 14 7 22 7 25 1 3 -6 4 -5 3 1 -3 15
-44 20 -52 7z"/>
<path d="M675 1410 c-3 -5 -1 -10 4 -10 6 0 11 5 11 10 0 6 -2 10 -4 10 -3 0
-8 -4 -11 -10z"/>
<path d="M654 1374 c-18 -15 -18 -15 2 -5 12 6 24 7 28 4 3 -3 6 -1 6 5 0 16
-12 15 -36 -4z"/>
<path d="M940 1382 c0 -5 6 -9 13 -9 6 0 18 -2 26 -4 7 -2 16 3 18 11 3 10 2
11 -4 3 -6 -8 -14 -9 -23 -3 -19 12 -30 13 -30 2z"/>
<path d="M1096 1373 c-6 -14 -5 -15 5 -6 7 7 10 15 7 18 -3 3 -9 -2 -12 -12z"/>
<path d="M1610 1382 c0 -7 -4 -11 -9 -7 -5 3 -12 1 -16 -5 -4 -6 -10 -8 -15
-5 -5 3 -11 1 -14 -4 -7 -10 20 -9 30 2 4 4 13 2 20 -4 16 -13 26 2 13 21 -6
11 -9 12 -9 2z"/>
<path d="M1720 1380 c0 -4 6 -7 13 -7 6 0 18 -2 26 -4 7 -2 15 1 18 7 2 6 -9
11 -27 11 -16 0 -30 -3 -30 -7z"/>
<path d="M805 1370 c-3 -6 -10 -8 -15 -5 -5 3 -11 1 -14 -4 -7 -10 20 -9 30 2
4 4 13 2 20 -4 9 -7 14 -6 20 3 4 7 4 10 -1 6 -4 -4 -14 -3 -21 3 -8 7 -14 7
-19 -1z"/>
<path d="M1895 1370 c-4 -6 -11 -7 -17 -4 -7 4 -8 2 -4 -5 6 -8 12 -9 20 -2 9
7 17 7 26 -2 12 -10 12 -9 1 6 -16 20 -18 20 -26 7z"/>
<path d="M674 1352 c4 -3 14 -7 22 -8 9 -1 13 0 10 4 -4 3 -14 7 -22 8 -9 1
-13 0 -10 -4z"/>
<path d="M925 1349 c-3 -4 2 -6 10 -5 21 3 28 13 10 13 -9 0 -18 -4 -20 -8z"/>
<path d="M996 1351 c-4 -5 -2 -12 3 -15 5 -4 12 -2 15 3 4 5 2 12 -3 15 -5 4
-12 2 -15 -3z"/>
<path d="M1706 1352 c-3 -5 1 -9 9 -9 8 0 12 4 9 9 -3 4 -7 8 -9 8 -2 0 -6 -4
-9 -8z"/>
<path d="M1776 1352 c-3 -5 1 -9 9 -9 8 0 12 4 9 9 -3 4 -7 8 -9 8 -2 0 -6 -4
-9 -8z"/>
<path d="M846 1341 c-4 -5 -2 -12 3 -15 5 -4 12 -2 15 3 4 5 2 12 -3 15 -5 4
-12 2 -15 -3z"/>
<path d="M1626 1341 c-4 -5 -2 -12 3 -15 5 -4 12 -2 15 3 4 5 2 12 -3 15 -5 4
-12 2 -15 -3z"/>
<path d="M1856 1342 c-3 -5 1 -9 9 -9 8 0 12 4 9 9 -3 4 -7 8 -9 8 -2 0 -6 -4
-9 -8z"/>
<path d="M766 1328 c3 -5 10 -6 15 -3 13 9 11 12 -6 12 -8 0 -12 -4 -9 -9z"/>
<path d="M1535 1329 c-3 -4 2 -6 10 -5 21 3 28 13 10 13 -9 0 -18 -4 -20 -8z"/>
<path d="M696 1318 c3 -5 10 -6 15 -3 13 9 11 12 -6 12 -8 0 -12 -4 -9 -9z"/>
<path d="M905 1319 c-3 -4 2 -6 10 -5 21 3 28 13 10 13 -9 0 -18 -4 -20 -8z"/>
<path d="M1016 1322 c-3 -5 1 -9 9 -9 8 0 12 4 9 9 -3 4 -7 8 -9 8 -2 0 -6 -4
-9 -8z"/>
<path d="M1685 1319 c-3 -4 2 -6 10 -5 21 3 28 13 10 13 -9 0 -18 -4 -20 -8z"/>
<path d="M1784 1322 c4 -3 14 -7 22 -8 9 -1 13 0 10 4 -4 3 -14 7 -22 8 -9 1
-13 0 -10 -4z"/>
<path d="M746 1312 c-4 -4 -13 -7 -18 -7 -6 0 -13 -7 -15 -15 -3 -9 -1 -11 4
-5 11 13 33 17 33 6 0 -5 -5 -11 -11 -13 -11 -4 109 -197 122 -198 7 0 129
182 129 193 0 4 -15 7 -34 7 -19 0 -37 6 -39 13 -4 10 -6 10 -6 0 -1 -16 -31
-17 -31 -2 0 5 6 7 13 3 8 -5 8 -3 -2 9 -15 19 -33 13 -24 -8 4 -12 -6 -15
-52 -15 -46 0 -56 3 -52 15 7 16 -6 29 -17 17z m204 -59 c0 -12 -82 -133 -90
-133 -8 0 -90 121 -90 133 0 4 41 7 90 7 50 0 90 -3 90 -7z"/>
<path d="M1049 1303 c-13 -16 -12 -17 4 -4 9 7 17 15 17 17 0 8 -8 3 -21 -13z"/>
<path d="M1647 1314 c-3 -3 -3 -12 0 -19 3 -10 -7 -15 -36 -17 l-41 -3 65 -97
c36 -54 67 -98 70 -98 3 0 34 44 70 97 42 63 61 99 53 102 -7 2 -16 9 -20 15
-5 8 -8 7 -8 -1 0 -9 -17 -13 -49 -13 -30 0 -51 5 -54 13 -4 10 -6 10 -6 0 -1
-16 -31 -17 -31 -2 0 5 6 7 13 3 8 -5 8 -2 -2 9 -15 19 -15 19 -24 11z m153
-59 c0 -6 -91 -135 -95 -135 -4 0 -70 95 -89 128 -6 9 15 12 88 12 53 0 96 -2
96 -5z"/>
<path d="M1829 1304 c-7 -9 -6 -12 6 -10 22 3 40 23 20 23 -8 0 -20 -6 -26
-13z"/>
<path d="M1506 1299 c4 -8 30 -6 38 2 3 3 -5 5 -19 5 -13 0 -22 -3 -19 -7z"/>
<path d="M1956 1296 c5 -12 0 -16 -17 -16 -20 0 -42 -28 -123 -151 -55 -82
-103 -152 -107 -155 -5 -3 -53 63 -109 146 -55 82 -102 150 -105 150 -2 0 -12
-11 -20 -24 -16 -24 -14 -28 49 -123 l66 -98 -91 -3 c-50 -1 -94 -1 -96 2 -3
2 14 32 37 66 41 60 41 62 25 87 -9 14 -20 21 -25 17 -13 -15 -150 -223 -150
-228 0 -3 92 -7 205 -8 l205 -3 -209 -314 -209 -313 -211 316 -211 316 210 2
210 3 -100 150 c-55 82 -104 151 -108 153 -5 1 -14 -9 -22 -23 -12 -23 -9 -31
53 -125 l67 -100 -100 0 -100 0 44 66 c42 63 44 68 29 90 -8 13 -18 22 -22 19
-4 -2 -41 -54 -81 -115 -40 -60 -76 -110 -80 -110 -4 0 -53 70 -110 155 -68
103 -109 155 -121 155 -9 0 -20 6 -22 13 -3 6 -6 3 -6 -8 -1 -20 667 -1034
681 -1035 11 0 688 1017 688 1034 0 8 -4 18 -10 21 -6 3 -7 -1 -4 -9z"/>
<path d="M1117 903 c-12 -12 -7 -22 8 -17 8 4 15 10 15 15 0 11 -14 12 -23 2z"/>
<path d="M1270 902 c0 -5 7 -13 16 -16 10 -4 14 -1 12 6 -5 15 -28 23 -28 10z"/>
<path d="M1427 903 c-12 -12 -7 -22 8 -17 8 4 15 10 15 15 0 11 -14 12 -23 2z"/>
<path d="M1000 889 c0 -17 46 -79 54 -72 10 11 37 12 30 2 -3 -5 -10 -7 -15
-4 -19 12 -21 -26 -3 -40 11 -8 15 -15 11 -15 -5 0 10 -18 33 -40 24 -23 39
-40 34 -38 -5 2 -9 -2 -9 -7 0 -5 3 -9 7 -8 4 2 5 -3 2 -11 -6 -16 52 -80 65
-72 5 4 12 2 16 -3 3 -6 -4 -8 -15 -6 -23 4 -24 6 33 -78 l39 -59 43 64 c28
42 39 65 31 70 -7 5 -5 8 6 8 9 0 20 5 24 12 5 7 2 9 -7 4 -8 -4 -4 1 7 11 32
27 57 70 49 84 -6 8 -9 8 -15 -1 -5 -8 -9 -8 -13 3 -4 11 0 15 14 12 11 -2 31
7 47 22 15 15 20 23 12 18 -8 -5 -2 4 13 18 15 15 25 32 21 38 -4 8 -9 7 -16
-2 -8 -11 -9 -11 -5 1 2 8 10 14 16 13 9 -3 61 67 61 82 0 10 -91 5 -111 -6
-34 -18 -59 -19 -52 -3 4 11 -6 14 -47 14 -41 0 -51 -3 -47 -14 7 -17 -29 -14
-47 4 -5 5 -33 10 -61 10 -28 0 -56 -5 -61 -10 -18 -18 -54 -21 -47 -4 4 11
-6 14 -46 14 -29 0 -51 -5 -51 -11z m164 -17 c3 -5 -1 -9 -9 -9 -8 0 -12 4 -9
9 3 4 7 8 9 8 2 0 6 -4 9 -8z m100 -13 c-3 -5 -10 -7 -15 -3 -5 3 -7 10 -3 15
3 5 10 7 15 3 5 -3 7 -10 3 -15z m216 5 c0 -8 -19 -13 -24 -6 -3 5 1 9 9 9 8
0 15 -2 15 -3z m-375 -13 c-9 -8 -36 -10 -30 -2 2 4 11 8 20 8 8 0 13 -3 10
-6z m225 3 c0 -8 -19 -13 -24 -6 -3 5 1 9 9 9 8 0 15 -2 15 -3z m90 0 c0 -8
-19 -13 -24 -6 -3 5 1 9 9 9 8 0 15 -2 15 -3z m-234 -16 c3 -4 -1 -5 -10 -4
-8 1 -18 5 -22 8 -3 4 1 5 10 4 8 -1 18 -5 22 -8z m58 4 c3 -5 -1 -9 -9 -9 -8
0 -12 4 -9 9 3 4 7 8 9 8 2 0 6 -4 9 -8z m250 -13 c-3 -5 -10 -7 -15 -3 -5 3
-7 10 -3 15 3 5 10 7 15 3 5 -3 7 -10 3 -15z m-151 -15 c-4 -12 -8 -13 -14 -3
-9 15 -2 32 11 24 5 -3 6 -13 3 -21z m51 18 c3 -5 -1 -9 -9 -9 -8 0 -12 4 -9
9 3 4 7 8 9 8 2 0 6 -4 9 -8z m-162 -30 c-3 -10 -7 -11 -12 -2 -4 6 -11 12
-15 12 -4 0 -11 -6 -15 -12 -5 -9 -9 -8 -12 2 -4 10 3 14 27 14 24 0 31 -4 27
-14z m-8 -31 c-7 -8 -54 -9 -49 -1 2 3 15 6 29 6 14 0 23 -2 20 -5z m126 -3
c0 6 5 12 12 12 9 0 9 -3 0 -12 -18 -18 -42 -19 -35 -1 5 12 7 12 14 1 7 -10
9 -10 9 0z m44 -20 c-9 -14 -23 2 -17 18 4 12 8 13 14 3 4 -7 5 -17 3 -21z
m-150 -9 c-3 -5 -10 -7 -15 -3 -5 3 -7 10 -3 15 3 5 10 7 15 3 5 -3 7 -10 3
-15z m-59 2 c-9 -8 -36 -10 -30 -2 2 4 11 8 20 8 8 0 13 -3 10 -6z m150 -10
c-9 -8 -36 -10 -30 -2 2 4 11 8 20 8 8 0 13 -3 10 -6z m79 1 c3 -5 -1 -9 -9
-9 -8 0 -12 4 -9 9 3 4 7 8 9 8 2 0 6 -4 9 -8z m-150 -23 c-3 -5 -10 -7 -15
-3 -5 3 -7 10 -3 15 3 5 10 7 15 3 5 -3 7 -10 3 -15z m-94 5 c0 -8 -19 -13
-24 -6 -3 5 1 9 9 9 8 0 15 -2 15 -3z m142 -23 c-4 -10 -7 -11 -10 -3 -3 9 -9
9 -25 1 -20 -9 -20 -9 -5 4 23 19 48 18 40 -2z m-10 -29 c3 8 7 6 11 -4 4 -13
1 -16 -15 -13 -12 3 -26 10 -32 16 -8 9 -6 9 11 0 16 -8 22 -8 25 1z m109 -15
c-10 -9 -11 -8 -5 6 3 10 9 15 12 12 3 -3 0 -11 -7 -18z m-147 -18 c-3 -5 -10
-7 -15 -3 -5 3 -7 10 -3 15 3 5 10 7 15 3 5 -3 7 -10 3 -15z m72 -11 c3 -4 -1
-5 -10 -4 -8 1 -18 5 -22 8 -3 4 1 5 10 4 8 -1 18 -5 22 -8z m-92 -6 c3 -5 -1
-9 -9 -9 -8 0 -12 4 -9 9 3 4 7 8 9 8 2 0 6 -4 9 -8z m99 -29 c-3 -7 -6 -13
-8 -13 -2 0 -5 6 -8 13 -3 8 1 14 8 14 7 0 11 -6 8 -14z m-12 -56 c-10 -9 -11
-8 -5 6 3 10 9 15 12 12 3 -3 0 -11 -7 -18z m-36 -57 c-3 -5 -12 -10 -18 -10
-7 0 -6 4 3 10 19 12 23 12 15 0z"/>
</g>
</svg>
