<?xml version="1.0" standalone="no"?>
<!DOCTYPE svg PUBLIC "-//W3C//DTD SVG 20010904//EN"
 "http://www.w3.org/TR/2001/REC-SVG-20010904/DTD/svg10.dtd">
<svg version="1.0" xmlns="http://www.w3.org/2000/svg"
 width="256.000000pt" height="256.000000pt" viewBox="0 0 256.000000 256.000000"
 preserveAspectRatio="xMidYMid meet">
<metadata>
Created by potrace 1.16, written by Peter Selinger 2001-2019
</metadata>
<g transform="translate(0.000000,256.000000) scale(0.100000,-0.100000)"
fill="#e5e5e5" stroke="none">
<path d="M1095 2278 c-94 -144 -171 -265 -173 -270 -2 -4 38 -8 90 -8 l93 0
79 120 c43 66 82 120 85 120 6 0 608 -915 624 -949 7 -14 -59 -121 -275 -452
-156 -239 -297 -455 -313 -481 -17 -27 -33 -48 -36 -48 -3 0 -75 107 -161 238
-280 427 -410 626 -444 678 l-33 52 215 328 c118 180 217 331 220 336 3 4 -37
8 -89 8 l-95 0 -221 -336 -220 -335 17 -27 c133 -210 806 -1232 810 -1232 2 0
110 162 420 635 233 354 402 617 402 624 0 4 -78 125 -172 269 -95 144 -279
424 -408 623 -129 198 -237 362 -240 364 -3 2 -82 -114 -175 -257z"/>
<path d="M1221 2077 c-22 -35 -41 -69 -41 -75 0 -7 79 -131 175 -277 l174
-265 -259 0 c-143 0 -260 3 -260 6 0 3 44 72 98 153 139 205 131 181 82 257
-23 35 -46 64 -51 64 -8 0 -429 -623 -429 -635 0 -3 250 -5 556 -5 475 0 555
2 551 14 -7 18 -546 826 -551 826 -2 0 -22 -28 -45 -63z"/>
<path d="M1013 1086 c3 -8 83 -130 177 -271 157 -235 173 -255 185 -238 8 10
15 21 15 26 0 4 -21 38 -46 76 l-46 69 111 166 c61 91 111 170 111 176 0 6
-88 10 -256 10 -217 0 -255 -2 -251 -14z"/>
</g>
</svg>
