<?xml version="1.0" standalone="no"?>
<!DOCTYPE svg PUBLIC "-//W3C//DTD SVG 20010904//EN"
 "http://www.w3.org/TR/2001/REC-SVG-20010904/DTD/svg10.dtd">
<svg version="1.0" xmlns="http://www.w3.org/2000/svg"
 width="256.000000pt" height="256.000000pt" viewBox="0 0 256.000000 256.000000"
 preserveAspectRatio="xMidYMid meet">
<metadata>
Created by potrace 1.16, written by Peter Selinger 2001-2019
</metadata>
<g transform="translate(0.000000,256.000000) scale(0.100000,-0.100000)"
fill="#e5e5e5" stroke="none">
<path d="M975 2398 c-69 -38 -86 -98 -40 -143 13 -14 31 -25 39 -25 13 0 13 4
-1 28 -46 80 59 138 117 65 24 -31 27 -116 6 -166 -7 -18 -45 -62 -85 -99 -40
-37 -81 -84 -91 -105 l-18 -38 -7 28 c-4 15 -4 42 -1 61 6 34 6 35 -54 64 -74
37 -189 64 -256 60 l-49 -3 55 -29 c85 -44 210 -135 270 -196 41 -40 72 -88
119 -178 l63 -124 -26 -61 c-14 -34 -26 -66 -26 -71 0 -5 22 -32 49 -61 78
-82 113 -226 65 -266 -13 -11 -11 -16 15 -43 17 -17 39 -52 50 -77 20 -45 83
-290 77 -296 -2 -2 -25 46 -51 107 -26 61 -52 113 -57 117 -6 3 -33 -18 -62
-46 l-51 -51 49 -42 c60 -52 135 -164 172 -258 15 -39 30 -67 34 -63 3 4 19
39 35 77 42 101 117 211 170 248 l45 32 -52 53 c-29 29 -55 53 -59 53 -4 0
-29 -50 -56 -112 -26 -61 -49 -104 -51 -96 -4 22 45 214 69 268 11 25 34 62
50 83 30 36 30 39 14 57 -42 47 -1 188 76 261 l49 47 -25 53 c-14 30 -25 67
-25 83 0 31 81 191 134 265 33 46 187 165 296 228 l64 38 -38 3 c-64 5 -171
-18 -244 -53 -79 -37 -87 -46 -72 -75 11 -20 4 -70 -10 -70 -4 0 -13 13 -20
30 -7 16 -45 59 -85 95 -87 78 -111 126 -102 206 7 58 16 72 55 88 37 15 78 0
94 -34 10 -22 8 -30 -11 -55 -23 -32 -17 -37 23 -19 38 17 51 58 32 102 -41
99 -188 80 -242 -30 -23 -48 -30 -149 -14 -200 7 -21 40 -87 74 -148 86 -154
87 -143 -52 -528 -62 -170 -115 -313 -118 -319 -4 -7 -10 -5 -15 5 -14 25
-226 620 -231 650 -9 47 8 97 66 197 89 156 104 246 56 340 -41 80 -126 121
-185 88z"/>
<path d="M760 2265 c-31 -38 20 -97 66 -76 27 12 33 58 12 79 -17 17 -63 15
-78 -3z"/>
<path d="M1716 2265 c-20 -21 -21 -49 0 -69 34 -35 88 -2 82 51 -2 23 -8 29
-34 31 -19 2 -38 -3 -48 -13z"/>
<path d="M1219 1909 l-53 -81 19 -46 c10 -26 35 -103 55 -172 l38 -125 11 45
c28 105 65 218 83 254 l20 38 -58 84 c-32 46 -58 84 -60 84 -1 0 -25 -36 -55
-81z"/>
<path d="M635 1939 c4 -13 22 -45 40 -70 44 -62 65 -103 65 -129 0 -24 -13
-26 -31 -3 -16 18 -179 150 -220 177 -24 15 -33 15 -115 1 -138 -23 -263 -24
-298 -2 -47 31 -41 11 11 -40 62 -60 142 -99 313 -153 177 -56 259 -99 341
-180 68 -67 103 -124 134 -220 10 -30 28 -70 42 -87 15 -20 18 -31 9 -27 -8 3
-45 56 -82 117 -80 131 -173 231 -254 270 -30 15 -118 40 -195 57 -159 34
-219 52 -288 87 -27 13 -51 23 -53 21 -2 -2 13 -37 34 -78 25 -51 59 -98 107
-148 l71 -72 130 6 c119 6 132 5 171 -14 102 -53 112 -142 14 -142 -40 0 -61
9 -61 27 0 11 7 13 25 9 22 -6 25 -3 25 18 0 44 -78 48 -100 6 -14 -25 -5 -54
23 -80 34 -33 81 -40 170 -28 59 8 90 7 118 -1 55 -17 48 -31 -13 -31 -48 -1
-51 -2 -34 -15 35 -26 181 -99 244 -121 35 -12 65 -24 68 -27 3 -3 -12 -18
-35 -32 -36 -25 -43 -26 -76 -15 -41 13 -65 8 -65 -15 0 -9 -6 -28 -14 -44
-12 -23 -39 -36 -160 -82 -80 -30 -142 -57 -138 -60 4 -4 25 -12 47 -19 121
-38 328 -175 441 -292 100 -103 159 -189 201 -293 18 -44 34 -73 37 -65 55
156 115 251 230 366 117 117 393 294 458 294 49 0 14 22 -102 65 -71 26 -138
54 -149 62 -11 7 -26 32 -32 53 -13 44 -16 45 -72 29 -35 -9 -43 -8 -79 16
-45 30 -42 36 22 54 52 15 213 93 250 121 l25 20 -47 0 c-55 0 -62 12 -18 30
23 10 52 10 120 3 108 -12 132 -9 170 27 36 34 39 72 8 94 -41 29 -88 15 -88
-26 0 -14 6 -16 30 -12 19 4 30 2 30 -4 0 -28 -82 -43 -121 -22 -47 26 -2 106
77 136 36 14 64 16 151 11 127 -7 136 -4 219 85 50 54 141 204 130 215 -2 2
-37 -12 -77 -32 -44 -21 -147 -53 -250 -79 -96 -24 -189 -51 -205 -59 -93 -48
-194 -158 -254 -277 -15 -30 -40 -66 -55 -80 l-27 -25 20 35 c11 19 30 66 42
105 28 95 59 143 130 207 83 75 135 101 347 173 195 67 268 106 319 172 l26
35 -33 -18 c-45 -24 -192 -24 -306 0 -46 9 -88 14 -95 10 -36 -21 -197 -146
-222 -173 -68 -71 -62 -7 9 100 30 46 55 87 55 92 0 15 -162 -136 -203 -189
-87 -114 -110 -214 -67 -299 11 -21 19 -39 17 -40 -1 -1 -12 -8 -24 -14 -13
-6 -34 -36 -49 -66 -16 -34 -45 -72 -75 -98 -27 -23 -49 -48 -49 -55 0 -8 9
-25 20 -39 l20 -25 -40 -39 c-22 -22 -40 -42 -40 -46 1 -13 173 -134 267 -188
47 -28 88 -55 90 -61 2 -6 -8 -16 -22 -22 -34 -16 -40 -15 -26 2 10 12 8 17
-9 26 -18 10 -29 6 -78 -31 -136 -102 -280 -262 -342 -381 l-38 -71 -11 36
c-30 90 -203 293 -347 408 -56 44 -65 48 -89 39 -23 -9 -25 -13 -15 -25 16
-20 0 -19 -28 1 -12 8 -20 19 -17 24 3 5 43 29 90 54 89 47 265 173 265 189 0
5 -16 25 -36 45 l-37 37 21 35 20 35 -58 56 c-41 38 -62 68 -71 98 -8 26 -23
49 -38 59 -14 9 -28 17 -30 19 -2 1 5 19 15 40 42 87 19 182 -75 306 -53 70
-206 200 -196 166z"/>
<path d="M237 1293 c-14 -13 -6 -33 13 -33 13 0 20 7 20 20 0 19 -20 27 -33
13z"/>
<path d="M2277 1286 c-7 -18 1 -26 25 -26 13 0 18 6 16 17 -4 22 -34 29 -41 9z"/>
<path d="M392 1198 c-17 -17 -15 -53 4 -72 20 -20 27 -20 55 3 20 16 22 23 14
47 -11 32 -51 44 -73 22z"/>
<path d="M2092 1198 c-19 -19 -14 -55 10 -72 12 -9 26 -16 30 -16 14 0 38 32
38 50 0 39 -52 64 -78 38z"/>
<path d="M587 1129 c-24 -14 -49 -67 -42 -90 14 -44 83 -49 105 -8 16 29 5 52
-21 44 -15 -5 -20 -3 -17 6 3 8 16 15 31 17 63 8 97 -50 56 -94 -12 -13 -18
-24 -11 -24 17 0 52 50 52 76 0 12 -12 36 -26 53 -21 26 -33 31 -67 31 -23 0
-50 -5 -60 -11z"/>
<path d="M1852 1133 c-16 -6 -42 -56 -42 -82 0 -21 49 -85 50 -65 0 6 -7 17
-15 24 -37 31 3 93 57 88 17 -2 33 -9 36 -17 3 -9 -1 -11 -16 -7 -24 8 -36 -7
-27 -34 15 -46 82 -50 102 -7 13 29 -6 80 -36 96 -20 11 -86 14 -109 4z"/>
</g>
</svg>
