<?xml version="1.0" standalone="no"?>
<!DOCTYPE svg PUBLIC "-//W3C//DTD SVG 20010904//EN"
 "http://www.w3.org/TR/2001/REC-SVG-20010904/DTD/svg10.dtd">
<svg version="1.0" xmlns="http://www.w3.org/2000/svg"
 width="256.000000pt" height="256.000000pt" viewBox="0 0 256.000000 256.000000"
 preserveAspectRatio="xMidYMid meet">
<metadata>
Created by potrace 1.16, written by Peter Selinger 2001-2019
</metadata>
<g transform="translate(0.000000,256.000000) scale(0.100000,-0.100000)"
fill="#e5e5e5" stroke="none">
<path d="M1101 2499 c-40 -33 -161 -79 -274 -104 -71 -16 -80 -20 -101 -54
-30 -49 -113 -209 -126 -243 -5 -16 -14 -28 -20 -28 -20 0 -22 52 -4 144 16
87 14 142 -5 120 -4 -5 -19 -36 -34 -69 -35 -82 -57 -218 -67 -420 -7 -161
-10 -175 -45 -270 -79 -214 -87 -242 -92 -295 -7 -78 22 -143 96 -213 73 -70
115 -91 245 -122 122 -28 190 -60 242 -111 63 -64 83 -145 44 -184 -26 -26
-98 -27 -173 -1 -32 11 -57 16 -57 11 0 -5 4 -12 10 -15 12 -8 300 -329 394
-439 37 -45 84 -105 104 -133 19 -29 38 -53 41 -53 4 0 26 26 48 58 51 73 131
166 341 400 89 100 156 182 148 182 -7 0 -33 -7 -56 -15 -62 -22 -135 -20
-160 5 -42 42 -18 121 59 193 51 48 109 73 243 107 134 35 254 116 301 205 17
31 21 56 21 115 -1 67 -8 93 -64 240 l-63 165 -8 171 c-11 244 -23 306 -79
428 -35 74 -39 79 -45 54 -4 -14 1 -63 10 -107 19 -92 17 -146 -4 -146 -8 0
-18 11 -21 25 -9 31 -126 251 -143 266 -7 7 -59 23 -117 38 -60 14 -143 44
-193 69 -77 38 -86 41 -81 23 19 -63 67 -129 153 -211 246 -233 277 -267 314
-345 40 -83 60 -161 55 -212 -3 -31 -4 -29 -25 30 -55 158 -140 264 -324 402
-63 48 -143 118 -178 156 l-63 69 8 -85 c8 -100 22 -154 58 -215 30 -51 76
-81 180 -116 84 -29 136 -73 136 -115 0 -35 -8 -47 -38 -63 -29 -16 -20 -28
58 -81 83 -56 120 -102 120 -148 0 -21 -5 -43 -11 -49 -9 -9 -1 -14 27 -22 51
-14 98 -49 136 -101 17 -22 32 -39 34 -38 2 2 -3 33 -10 68 -8 36 -12 67 -10
69 6 6 44 -64 60 -113 29 -86 1 -220 -59 -284 -36 -39 -112 -71 -229 -98 -61
-14 -123 -31 -138 -39 -68 -35 -168 -188 -221 -338 -13 -37 -12 -39 11 -58 22
-17 35 -19 98 -15 84 7 92 -3 36 -48 -32 -25 -35 -26 -24 -6 14 27 12 30 -20
23 -28 -5 -86 -81 -201 -262 -35 -56 -66 -101 -69 -101 -3 0 -51 71 -108 158
-122 187 -129 197 -166 206 -23 6 -27 4 -22 -8 18 -45 14 -48 -18 -12 -20 22
-36 43 -36 48 0 4 33 5 73 2 63 -6 75 -4 97 14 24 19 24 22 11 59 -50 145
-153 303 -220 338 -15 7 -76 25 -136 38 -130 30 -173 47 -218 87 -82 72 -107
228 -55 341 24 53 61 98 44 53 -4 -10 -10 -41 -13 -68 l-6 -48 59 60 c42 43
71 63 101 71 40 11 41 12 31 39 -22 57 14 115 111 181 83 56 87 63 51 90 -68
50 -18 131 107 171 133 43 184 91 218 203 14 48 29 207 19 207 -4 0 -34 -29
-67 -66 -33 -36 -113 -105 -178 -155 -133 -101 -218 -189 -253 -257 -13 -26
-38 -90 -57 -142 -33 -92 -34 -94 -37 -55 -5 63 16 154 56 235 38 78 78 122
310 341 82 78 107 108 133 162 17 37 29 71 27 76 -1 5 -18 -4 -37 -20z"/>
<path d="M1257 2057 c-13 -20 -169 -198 -358 -409 -38 -42 -65 -79 -60 -82 12
-8 101 5 101 14 0 4 -8 11 -17 14 -14 6 -15 9 -4 16 21 12 33 6 198 -112 84
-59 158 -108 164 -108 7 0 81 50 166 110 107 76 162 110 181 110 26 -1 26 -1
8 -15 -11 -8 -18 -17 -15 -19 7 -7 109 -18 109 -12 0 6 -138 164 -315 362 -45
49 -92 104 -105 122 -28 38 -33 39 -53 9z m152 -272 c66 -68 121 -128 121
-132 0 -8 -171 -144 -222 -178 -27 -17 -29 -17 -55 0 -52 34 -223 170 -223
178 0 10 240 257 250 257 4 0 62 -56 129 -125z"/>
<path d="M1220 1714 c-30 -25 -56 -47 -58 -49 -2 -2 24 -22 57 -44 l61 -42 62
42 c50 34 59 44 47 53 -9 6 -36 28 -61 49 -25 20 -47 37 -49 37 -2 0 -29 -21
-59 -46z"/>
<path d="M1010 1446 l23 -38 -20 -42 c-49 -99 -145 -201 -219 -232 -32 -14
-38 -13 -60 1 -32 21 -47 61 -39 105 10 55 32 82 63 78 29 -3 45 -38 17 -38
-21 0 -30 -27 -15 -45 16 -20 54 -19 74 1 36 36 32 99 -9 140 -29 29 -98 33
-133 8 -34 -24 -62 -87 -62 -141 0 -90 71 -183 138 -183 15 0 63 26 113 59 96
65 117 75 137 62 9 -5 -4 -19 -43 -44 -30 -21 -55 -40 -55 -43 0 -3 18 -27 41
-52 81 -93 169 -279 259 -552 32 -96 61 -168 64 -160 3 8 22 67 42 130 49 154
135 366 184 456 22 40 61 95 85 122 25 28 45 52 45 54 0 3 -25 22 -55 42 -53
37 -62 56 -26 56 10 0 57 -27 105 -61 103 -72 137 -80 186 -47 73 49 100 149
64 238 -38 95 -156 113 -199 30 -23 -45 -15 -100 19 -122 23 -16 65 -8 71 12
8 24 -1 40 -21 40 -9 0 -14 7 -12 18 2 12 13 17 33 17 24 0 33 -7 47 -35 27
-54 23 -96 -12 -131 -35 -36 -51 -34 -123 15 -57 39 -126 120 -164 192 l-27
51 24 33 c16 22 19 32 9 28 -24 -9 -149 -99 -149 -107 0 -4 5 -12 12 -19 10
-10 -4 -29 -65 -90 l-77 -77 -77 77 c-61 61 -75 80 -65 90 7 7 12 15 12 19 0
6 -109 90 -149 114 -9 5 -5 -7 9 -29z m208 -284 l63 -40 86 54 c108 68 136 71
84 11 -15 -18 -13 -21 22 -53 20 -19 37 -38 37 -42 1 -14 -225 -602 -231 -602
-6 0 -229 587 -229 602 0 4 17 23 37 42 36 33 37 35 20 53 -9 11 -17 25 -17
31 0 17 49 -5 128 -56z"/>
<path d="M1213 1018 c2 -7 17 -52 33 -100 15 -49 31 -88 35 -88 7 0 69 175 69
193 0 4 -32 7 -71 7 -53 0 -70 -3 -66 -12z"/>
<path d="M424 966 c-10 -26 4 -48 28 -44 17 2 23 10 23 28 0 18 -6 26 -23 28
-13 2 -25 -3 -28 -12z"/>
<path d="M2084 966 c-10 -26 4 -48 28 -44 17 2 23 10 23 28 0 18 -6 26 -23 28
-13 2 -25 -3 -28 -12z"/>
<path d="M582 884 c-29 -20 -28 -50 3 -70 55 -36 106 33 53 70 -12 9 -25 16
-28 16 -3 0 -16 -7 -28 -16z"/>
<path d="M1922 884 c-53 -37 -2 -106 53 -70 31 20 32 50 3 70 -12 9 -25 16
-28 16 -3 0 -16 -7 -28 -16z"/>
<path d="M742 828 c-19 -19 -14 -56 9 -68 29 -16 52 -5 44 21 -8 25 12 23 29
-4 8 -12 5 -21 -9 -36 -23 -26 -14 -36 22 -24 65 22 25 123 -50 123 -18 0 -38
-5 -45 -12z"/>
<path d="M1714 815 c-35 -35 -31 -85 9 -98 36 -12 45 -2 22 24 -14 15 -17 24
-9 36 17 27 37 29 29 4 -8 -26 15 -37 44 -21 23 12 28 49 9 68 -21 21 -77 14
-104 -13z"/>
</g>
</svg>
