<?xml version="1.0" standalone="no"?>
<!DOCTYPE svg PUBLIC "-//W3C//DTD SVG 20010904//EN"
 "http://www.w3.org/TR/2001/REC-SVG-20010904/DTD/svg10.dtd">
<svg version="1.0" xmlns="http://www.w3.org/2000/svg"
 width="256.000000pt" height="256.000000pt" viewBox="0 0 256.000000 256.000000"
 preserveAspectRatio="xMidYMid meet">
<metadata>
Created by potrace 1.16, written by Peter Selinger 2001-2019
</metadata>
<g transform="translate(0.000000,256.000000) scale(0.100000,-0.100000)"
fill="#e5e5e5" stroke="none">
<path d="M1474 2526 c-178 -95 -394 -279 -490 -417 l-27 -39 55 -82 c86 -129
97 -181 49 -229 -87 -86 -279 29 -337 203 -9 27 -20 46 -24 41 -4 -4 -33 -80
-65 -168 -46 -128 -58 -176 -62 -241 -9 -128 8 -166 132 -294 125 -130 166
-180 249 -304 70 -105 101 -176 112 -254 12 -89 -38 -152 -121 -152 -19 0 -35
-2 -35 -5 0 -3 40 -59 89 -123 49 -65 98 -136 109 -158 22 -43 39 -114 27
-114 -14 0 -233 177 -308 250 -81 77 -120 137 -132 203 -4 21 -11 40 -17 43
-5 3 -7 -5 -4 -18 3 -12 7 -53 11 -89 5 -57 21 -120 50 -191 6 -16 4 -17 -26
-6 -122 42 -189 135 -197 274 -6 117 30 225 110 326 16 21 25 38 20 38 -18 0
-87 -62 -125 -113 -47 -61 -67 -106 -76 -166 l-6 -44 -25 39 c-23 35 -105 93
-116 81 -3 -2 9 -27 26 -54 17 -27 51 -107 75 -178 75 -216 107 -245 370 -331
210 -69 271 -100 357 -187 l68 -67 62 63 c101 101 127 110 358 118 199 7 225
11 296 47 59 30 97 79 159 201 57 115 110 174 166 186 39 9 37 25 -3 25 -98 0
-186 -53 -245 -149 l-41 -66 5 61 c5 57 2 68 -37 155 -46 98 -60 172 -41 208
15 28 0 27 -26 -2 -59 -64 -69 -153 -29 -267 39 -109 38 -149 -5 -213 -36 -55
-91 -84 -174 -92 -66 -6 -66 -6 24 48 36 21 61 45 74 69 26 52 18 63 -26 33
-45 -31 -99 -51 -191 -71 -94 -20 -146 -44 -202 -96 l-47 -43 7 44 c12 80 44
134 121 211 41 41 75 78 75 81 0 4 -9 5 -19 2 -49 -13 -98 59 -86 126 9 49 39
105 83 153 55 61 196 167 333 250 140 84 230 163 276 239 18 30 53 118 78 196
25 78 50 145 55 148 25 16 6 24 -22 9 -47 -24 -119 -95 -231 -227 -104 -123
-149 -157 -210 -157 -47 0 -70 20 -69 59 1 42 25 81 120 199 105 131 137 179
182 275 66 142 90 278 71 393 -11 65 -79 324 -87 333 -8 8 -82 -66 -137 -137
-102 -132 -217 -342 -306 -555 -82 -198 -258 -817 -296 -1043 -14 -81 -28
-150 -31 -153 -3 -3 -3 28 0 69 3 41 8 156 11 255 16 530 60 834 172 1179 43
133 86 229 143 319 23 37 41 70 38 72 -2 2 -31 -11 -64 -29z"/>
<path d="M1497 752 c-45 -49 8 -118 68 -90 33 15 42 51 21 83 -20 30 -65 34
-89 7z"/>
</g>
</svg>
