<?xml version="1.0" standalone="no"?>
<!DOCTYPE svg PUBLIC "-//W3C//DTD SVG 20010904//EN"
 "http://www.w3.org/TR/2001/REC-SVG-20010904/DTD/svg10.dtd">
<svg version="1.0" xmlns="http://www.w3.org/2000/svg"
 width="256.000000pt" height="256.000000pt" viewBox="0 0 256.000000 256.000000"
 preserveAspectRatio="xMidYMid meet">
<metadata>
Created by potrace 1.16, written by Peter Selinger 2001-2019
</metadata>
<g transform="translate(0.000000,256.000000) scale(0.100000,-0.100000)"
fill="#e5e5e5" stroke="none">
<path d="M2035 2522 c-161 -67 -298 -167 -370 -272 -28 -41 -29 -43 -26 -173
3 -195 -18 -267 -80 -267 -30 0 -65 36 -75 77 -4 12 -9 23 -13 23 -4 0 -26
-39 -50 -87 -51 -104 -150 -259 -186 -293 -20 -18 -14 -4 25 66 99 176 141
343 120 475 -20 135 -68 235 -152 317 -54 54 -100 75 -174 80 -70 5 -118 -15
-171 -70 -56 -58 -77 -120 -78 -228 0 -82 3 -102 25 -145 64 -129 213 -129
271 0 21 45 24 100 8 142 -35 94 -129 99 -129 7 0 -23 3 -26 25 -21 32 6 45
-16 45 -77 0 -55 -25 -86 -69 -86 -82 0 -122 183 -61 274 53 76 152 99 223 50
45 -30 112 -129 129 -188 6 -23 11 -86 12 -141 1 -183 -59 -319 -239 -545 -98
-123 -157 -218 -191 -305 -20 -52 -14 43 12 167 56 282 7 490 -156 658 -111
114 -290 170 -404 126 -80 -30 -156 -134 -172 -233 -14 -90 50 -215 136 -262
105 -58 227 -8 212 87 -4 25 -42 45 -67 36 -19 -8 -19 -14 2 -30 17 -13 17
-15 -1 -29 -25 -19 -47 -19 -90 -1 -108 45 -101 201 13 280 84 59 188 53 290
-15 81 -54 92 -72 24 -37 -64 32 -127 37 -179 12 -19 -9 -36 -19 -38 -23 -2
-3 28 -6 67 -7 90 -1 138 -24 213 -102 75 -78 106 -144 111 -235 l4 -72 -23
58 c-36 90 -104 161 -175 182 l-22 6 25 -55 c14 -30 30 -92 36 -141 11 -79 9
-100 -17 -266 -27 -165 -28 -186 -17 -267 6 -48 14 -98 17 -112 6 -25 6 -25
-10 -5 -45 53 -65 118 -65 209 0 72 -4 95 -21 122 -43 70 -109 94 -202 74 -77
-16 -92 -36 -24 -32 61 3 107 -20 132 -68 9 -18 20 -78 26 -148 15 -186 47
-390 69 -439 26 -60 112 -166 168 -209 25 -19 111 -68 192 -109 164 -83 259
-149 297 -206 14 -22 28 -39 30 -39 3 0 17 10 32 23 15 12 63 41 107 65 152
82 228 156 294 290 47 94 65 195 51 290 -15 101 -48 165 -121 239 -76 76 -142
112 -222 122 l-63 7 36 11 c20 6 60 27 88 47 52 35 134 66 175 66 35 -1 100
-36 129 -69 45 -53 29 -121 -27 -121 -30 0 -48 22 -44 54 4 34 -13 37 -31 4
-14 -25 -14 -29 5 -55 16 -21 31 -29 62 -31 58 -4 92 29 92 91 0 61 -32 105
-101 140 -132 66 -293 40 -441 -72 -29 -22 -101 -62 -160 -91 -121 -57 -183
-111 -225 -194 -46 -90 -42 -275 8 -336 l20 -25 -8 25 c-4 14 -8 61 -8 105 0
71 4 89 33 147 39 80 101 138 181 170 47 19 73 23 166 22 133 -1 205 -24 256
-82 128 -145 116 -375 -29 -558 -39 -50 -214 -179 -226 -167 -3 3 -6 35 -6 70
0 105 38 165 162 249 111 77 129 233 38 324 -63 63 -145 74 -220 29 -41 -25
-36 -30 16 -16 126 33 241 -121 174 -231 -11 -18 -41 -45 -67 -60 -25 -15 -67
-41 -92 -57 l-46 -30 -54 32 c-30 18 -65 42 -78 54 -27 26 -45 83 -37 116 8
32 -3 29 -21 -7 -17 -34 -19 -87 -5 -126 6 -15 39 -58 74 -94 42 -45 69 -84
80 -115 l16 -48 -23 21 c-13 13 -64 38 -113 58 -139 55 -170 71 -213 110 -152
136 -137 447 27 595 63 56 267 196 341 234 132 66 319 100 462 83 118 -14 115
-14 225 20 151 48 250 109 374 230 l105 103 -41 -4 c-27 -3 -76 -25 -139 -63
-123 -73 -215 -99 -215 -60 0 7 16 25 37 39 48 34 302 316 309 343 3 11 -2 68
-10 126 -24 161 -21 300 10 448 l7 34 -43 -34 c-98 -78 -171 -202 -275 -470
-79 -202 -135 -305 -215 -398 -116 -134 -200 -188 -393 -253 -51 -17 -121 -46
-156 -65 -36 -18 -66 -32 -68 -30 -2 2 7 17 21 33 15 18 80 57 163 98 241 120
307 172 404 323 56 88 95 184 173 432 44 137 69 197 116 278 33 57 60 105 60
108 0 8 -16 3 -105 -34z"/>
<path d="M998 1783 c-44 -51 -24 -113 37 -113 58 0 87 68 45 110 -25 25 -62
26 -82 3z"/>
<path d="M1882 1234 c-24 -17 -30 -62 -10 -82 18 -18 73 -14 91 6 50 55 -19
120 -81 76z"/>
<path d="M1784 855 c-9 -23 3 -45 26 -45 25 0 37 25 20 45 -16 19 -39 19 -46
0z"/>
<path d="M1185 654 l-40 -36 45 -38 c25 -22 47 -39 50 -39 3 0 25 17 50 39
l45 38 -40 36 c-22 19 -47 35 -55 35 -8 0 -33 -16 -55 -35z"/>
</g>
</svg>
