<?xml version="1.0" standalone="no"?>
<!DOCTYPE svg PUBLIC "-//W3C//DTD SVG 20010904//EN"
 "http://www.w3.org/TR/2001/REC-SVG-20010904/DTD/svg10.dtd">
<svg version="1.0" xmlns="http://www.w3.org/2000/svg"
 width="256.000000pt" height="256.000000pt" viewBox="0 0 256.000000 256.000000"
 preserveAspectRatio="xMidYMid meet">
<metadata>
Created by potrace 1.16, written by Peter Selinger 2001-2019
</metadata>
<g transform="translate(0.000000,256.000000) scale(0.100000,-0.100000)"
fill="#e5e5e5" stroke="none">
<path d="M1555 2523 c-43 -22 -81 -60 -116 -115 -31 -47 -73 -147 -66 -154 2
-2 20 20 40 48 20 29 57 73 83 98 40 39 46 41 39 20 -4 -14 -19 -92 -32 -175
-33 -199 -46 -243 -88 -298 -26 -34 -55 -56 -112 -84 -74 -36 -81 -38 -178
-38 -80 0 -107 4 -128 18 -32 21 -35 10 -6 -27 11 -14 17 -26 12 -26 -17 0
-72 40 -83 60 -41 77 170 179 308 149 65 -13 82 -32 50 -53 -41 -26 -89 -29
-131 -7 -42 21 -83 17 -101 -12 -19 -29 8 -42 87 -41 102 1 185 27 198 62 18
45 -8 104 -51 119 -48 16 -143 16 -218 -2 -137 -32 -222 -101 -222 -179 0 -87
70 -130 208 -129 45 1 82 -2 82 -6 0 -14 -45 -50 -80 -65 -55 -22 -229 -37
-323 -26 -55 6 -59 5 -78 -21 -25 -36 -24 -39 14 -40 27 -1 20 -5 -38 -24 -38
-13 -71 -19 -73 -15 -3 7 43 136 137 388 17 45 28 82 26 82 -3 0 -29 -48 -59
-107 -112 -224 -220 -322 -422 -382 -129 -38 -126 -76 6 -102 88 -18 110 -33
110 -76 0 -13 -11 -29 -26 -39 -24 -16 -30 -16 -99 0 -63 15 -78 16 -101 4
-72 -35 -94 -127 -93 -388 1 -102 4 -210 8 -240 l7 -55 13 40 c22 64 90 194
144 275 102 154 402 422 632 565 71 44 235 118 244 110 2 -2 -10 -20 -26 -38
-17 -19 -47 -61 -67 -94 -31 -50 -46 -63 -103 -92 -218 -107 -535 -457 -660
-728 -59 -129 -66 -234 -7 -116 78 156 160 223 305 249 167 30 187 35 204 54
15 16 16 26 8 58 -17 65 36 192 91 222 35 18 33 27 -11 52 -39 24 -31 34 21
24 64 -12 95 -77 96 -198 0 -88 -29 -159 -138 -342 -128 -213 -145 -255 -146
-366 -1 -69 4 -95 23 -137 75 -167 276 -214 404 -94 29 27 62 79 54 87 -2 3
-28 -12 -58 -32 -29 -19 -55 -31 -57 -26 -2 6 8 33 22 60 36 71 65 183 72 277
8 111 7 110 54 79 144 -96 429 -58 521 69 65 90 12 151 -131 151 -131 -1 -235
-45 -228 -97 7 -49 142 -56 167 -8 13 23 5 31 -31 31 -15 0 -28 4 -28 9 0 14
75 24 129 16 90 -12 101 -42 32 -89 -60 -42 -134 -59 -227 -53 -95 5 -124 18
-124 52 0 14 -4 25 -8 25 -13 0 -32 -48 -26 -65 11 -27 -5 -16 -21 15 -20 39
-20 44 15 84 41 46 260 193 307 205 60 16 252 30 319 24 56 -5 62 -4 78 18 16
24 16 24 -14 27 -16 2 -30 7 -30 11 0 7 142 52 148 47 1 -2 -13 -48 -32 -102
-42 -119 -79 -245 -74 -250 2 -2 32 36 66 84 98 139 183 217 303 276 113 56
136 78 105 102 -11 8 -38 14 -60 14 -59 0 -106 31 -106 70 0 21 8 35 26 46 24
16 30 16 92 0 112 -29 149 -2 183 134 16 63 17 517 2 559 -8 20 -13 12 -38
-64 -62 -192 -182 -378 -364 -567 -186 -193 -284 -257 -505 -327 -71 -23 -131
-40 -133 -38 -3 4 205 173 283 229 60 44 243 231 331 339 65 80 195 275 233
349 31 61 60 148 60 179 -1 19 -10 7 -38 -49 -69 -141 -175 -218 -364 -265
-59 -15 -114 -32 -122 -39 -9 -6 -20 -42 -26 -81 -13 -84 -53 -162 -97 -190
-18 -11 -31 -24 -30 -30 2 -5 23 -20 48 -32 l44 -21 -29 -7 c-119 -31 -188
185 -111 353 14 31 62 116 106 189 116 192 141 251 147 340 7 108 -17 189 -76
255 -26 28 -61 57 -79 64 -44 19 -160 17 -198 -3z m199 -88 c114 -75 72 -286
-92 -466 -81 -89 -117 -140 -162 -229 -49 -96 -47 -149 9 -267 25 -51 42 -95
39 -99 -12 -11 -66 26 -116 80 -55 61 -112 164 -112 204 0 16 21 47 64 93 90
95 110 133 156 309 50 188 93 295 127 317 24 16 28 16 54 0 22 -12 29 -13 29
-3 0 35 -73 69 -120 56 -20 -6 -28 -5 -24 1 20 32 102 34 148 4z m-528 -842
c-10 -39 -69 -126 -118 -174 -46 -45 -98 -76 -98 -59 0 19 58 126 86 159 22
27 120 101 132 101 2 0 1 -12 -2 -27z m128 -150 c21 -24 61 -60 88 -79 26 -20
48 -39 48 -43 0 -5 -41 -59 -91 -121 -50 -62 -95 -123 -101 -136 -15 -32 -24
-30 -43 5 -8 17 -51 75 -95 130 l-80 101 68 67 c38 38 82 92 98 121 l29 53 20
-27 c11 -16 38 -47 59 -71z m206 -252 c-17 -65 -89 -161 -166 -220 -50 -39
-70 -49 -72 -38 -7 35 105 219 191 314 l52 57 3 -37 c2 -19 -2 -54 -8 -76z
m-477 11 c75 -91 122 -170 148 -251 12 -36 24 -71 26 -77 2 -6 -35 -55 -82
-109 -102 -116 -124 -156 -181 -334 -53 -162 -83 -218 -130 -237 -19 -8 -39
-12 -44 -9 -6 4 -10 -1 -10 -9 0 -26 42 -46 95 -46 48 -1 49 -1 25 -15 -63
-36 -139 -2 -179 79 -22 45 -23 53 -13 108 22 117 100 241 259 410 29 31 57
68 63 83 19 49 8 154 -40 404 -18 94 -11 94 63 3z"/>
<path d="M1237 1329 l-38 -31 21 -23 c11 -12 32 -28 45 -35 23 -13 28 -11 60
20 l35 34 -32 33 c-18 18 -37 33 -43 33 -6 0 -27 -14 -48 -31z"/>
<path d="M1878 1885 c-9 -21 -8 -28 7 -45 10 -11 26 -20 35 -20 9 0 25 9 35
20 27 30 7 70 -35 70 -23 0 -33 -6 -42 -25z"/>
<path d="M552 738 c-29 -29 -3 -72 40 -66 19 2 23 9 23 38 0 30 -4 35 -25 38
-14 2 -31 -3 -38 -10z"/>
<path d="M1209 394 c-15 -18 -2 -47 24 -52 25 -5 40 33 21 52 -19 20 -28 20
-45 0z"/>
</g>
</svg>
