<?xml version="1.0" standalone="no"?>
<!DOCTYPE svg PUBLIC "-//W3C//DTD SVG 20010904//EN"
 "http://www.w3.org/TR/2001/REC-SVG-20010904/DTD/svg10.dtd">
<svg version="1.0" xmlns="http://www.w3.org/2000/svg"
 width="256.000000pt" height="256.000000pt" viewBox="0 0 256.000000 256.000000"
 preserveAspectRatio="xMidYMid meet">
<metadata>
Created by potrace 1.16, written by Peter Selinger 2001-2019
</metadata>
<g transform="translate(0.000000,256.000000) scale(0.100000,-0.100000)"
fill="#e5e5e5" stroke="none">
<path d="M2300 2334 c-100 -108 -136 -153 -138 -174 -3 -31 -18 -41 -24 -16
-2 8 -62 -50 -140 -136 -103 -111 -138 -156 -139 -176 0 -15 -3 -21 -6 -14 -2
6 -8 12 -12 12 -10 0 -206 -219 -207 -233 -1 -7 -2 -16 -3 -22 -1 -5 -5 -4 -9
3 -6 9 -34 -16 -93 -84 -46 -53 -83 -103 -83 -110 1 -8 -4 -14 -11 -14 -18 0
-135 -143 -135 -164 0 -9 -6 -16 -12 -16 -14 -1 -108 -122 -108 -139 0 -5 -4
-11 -8 -13 -15 -6 -114 -159 -138 -214 -26 -58 -32 -114 -12 -114 6 0 9 -3 6
-6 -4 -3 0 -20 7 -37 15 -36 21 -85 13 -107 -3 -8 -14 -37 -23 -65 -10 -27
-33 -72 -51 -100 -34 -51 -37 -69 -7 -43 10 9 28 19 40 22 11 4 24 14 27 22 3
8 10 13 15 10 4 -3 16 3 26 14 15 16 21 18 34 7 14 -11 14 -10 2 5 -7 10 -12
18 -10 19 51 10 52 10 38 -8 -13 -16 -12 -17 3 -4 10 7 16 17 13 21 -3 5 12
22 32 39 21 17 33 31 27 31 -7 0 -17 -7 -24 -15 -7 -9 -27 -26 -44 -38 -17
-12 5 18 49 66 88 96 97 103 234 174 52 26 124 64 160 84 36 20 91 48 121 63
30 15 65 37 77 48 13 12 23 18 23 15 0 -12 121 53 127 68 3 8 9 12 14 10 11
-7 159 74 159 86 0 6 8 9 17 7 14 -2 22 18 44 117 15 66 28 123 28 128 1 4
-15 -3 -34 -15 -20 -14 -35 -31 -35 -43 0 -14 -3 -16 -8 -7 -7 9 -31 -2 -95
-45 -47 -32 -86 -64 -87 -71 0 -8 -6 -12 -12 -9 -16 5 -158 -89 -158 -105 0
-6 -3 -9 -6 -5 -6 6 -348 -219 -378 -248 -8 -8 -17 -15 -20 -15 -4 0 -24 -11
-46 -25 -91 -57 -26 -8 195 149 129 92 235 172 235 177 0 5 5 9 11 9 19 0 159
104 159 118 0 7 5 10 11 7 6 -4 20 2 32 12 12 11 52 41 90 67 47 34 67 54 67
69 0 18 2 19 10 7 7 -12 15 -9 46 16 34 27 40 39 61 130 32 140 30 145 -39 87
-39 -32 -58 -55 -58 -70 0 -24 -15 -32 -22 -12 -5 15 -198 -149 -198 -167 0
-8 -6 -14 -14 -12 -18 4 -178 -131 -170 -144 3 -5 0 -8 -8 -6 -16 4 -148 -102
-148 -118 0 -7 -10 -15 -22 -18 -13 -3 -50 -31 -82 -61 -33 -30 -62 -55 -65
-55 -3 0 -26 -18 -50 -41 -24 -22 -46 -37 -50 -34 -3 4 28 37 69 73 41 36 99
90 129 119 30 29 56 53 59 53 13 0 142 124 142 137 0 8 5 11 10 8 14 -9 174
134 178 158 3 13 6 16 11 9 10 -17 221 174 221 201 0 17 2 19 9 8 7 -12 24 -2
78 46 l68 61 34 163 c19 90 37 171 39 179 3 8 -43 -32 -102 -90 -73 -72 -106
-112 -106 -127 0 -13 -5 -23 -11 -23 -5 0 -7 5 -4 10 21 34 -25 -5 -128 -108
-83 -83 -117 -124 -117 -141 0 -18 -3 -21 -13 -13 -10 9 -34 -10 -106 -82 -51
-51 -91 -99 -89 -107 2 -8 -4 -13 -13 -12 -16 3 -159 -147 -159 -167 0 -6 -4
-9 -9 -6 -5 3 -36 -24 -69 -62 -33 -37 -86 -94 -116 -127 -31 -33 -56 -66 -56
-72 0 -7 -5 -13 -12 -13 -6 0 -27 -19 -47 -42 -34 -40 -35 -43 -32 -113 4
-116 -58 -275 -144 -370 l-37 -40 30 40 c47 65 83 135 107 210 25 80 33 194
14 206 -13 7 46 77 250 298 53 57 97 107 99 112 2 4 41 45 88 90 50 49 84 91
84 102 0 11 3 17 7 13 10 -10 203 185 203 206 0 10 5 15 13 12 20 -7 257 238
257 267 0 19 2 21 10 9 8 -12 30 5 115 90 l105 105 36 163 c19 90 34 167 32
172 -2 5 -64 -57 -138 -136z m-1143 -1801 c-19 -26 -48 -59 -63 -73 -15 -14
-6 1 19 32 25 32 51 67 57 79 7 11 14 18 17 15 3 -3 -10 -27 -30 -53z"/>
<path d="M909 313 c-13 -16 -12 -17 4 -4 9 7 17 15 17 17 0 8 -8 3 -21 -13z"/>
<path d="M765 230 c-62 -29 -219 -57 -329 -59 -55 -1 -113 -8 -130 -15 -17 -7
-67 -19 -111 -26 -72 -12 -77 -14 -50 -23 17 -5 95 -9 175 -10 117 0 160 4
222 21 93 25 180 61 173 72 -3 5 4 6 15 3 12 -3 22 1 26 11 3 9 11 16 18 16 6
0 20 7 30 15 26 20 10 18 -39 -5z m-128 -66 c-3 -3 -12 -4 -19 -1 -8 3 -5 6 6
6 11 1 17 -2 13 -5z m-50 -10 c-3 -3 -12 -4 -19 -1 -8 3 -5 6 6 6 11 1 17 -2
13 -5z m-64 -11 c-7 -2 -21 -2 -30 0 -10 3 -4 5 12 5 17 0 24 -2 18 -5z m-115
-10 c-21 -2 -55 -2 -75 0 -21 2 -4 4 37 4 41 0 58 -2 38 -4z"/>
</g>
</svg>
