<?xml version="1.0" standalone="no"?>
<!DOCTYPE svg PUBLIC "-//W3C//DTD SVG 20010904//EN"
 "http://www.w3.org/TR/2001/REC-SVG-20010904/DTD/svg10.dtd">
<svg version="1.0" xmlns="http://www.w3.org/2000/svg"
 width="256.000000pt" height="256.000000pt" viewBox="0 0 256.000000 256.000000"
 preserveAspectRatio="xMidYMid meet">
<metadata>
Created by potrace 1.16, written by Peter Selinger 2001-2019
</metadata>
<g transform="translate(0.000000,256.000000) scale(0.100000,-0.100000)"
fill="#e5e5e5" stroke="none">
<path d="M2501 2424 c0 -11 3 -14 6 -6 3 7 2 16 -1 19 -3 4 -6 -2 -5 -13z"/>
<path d="M2447 2356 c-16 -35 -41 -76 -56 -92 -32 -33 -104 -74 -129 -74 -10
0 -29 -6 -43 -14 -14 -7 -42 -16 -61 -20 -20 -4 -47 -15 -61 -26 -13 -11 -27
-17 -29 -14 -8 8 -98 -39 -92 -48 3 -4 -5 -8 -18 -8 -30 0 -104 -43 -100 -58
1 -7 -8 -12 -20 -12 -28 0 -118 -58 -118 -76 0 -8 -9 -14 -19 -14 -11 0 -50
-25 -86 -55 -37 -30 -62 -55 -56 -55 7 0 9 -4 6 -10 -3 -5 -14 -10 -23 -10
-23 0 -116 -95 -108 -109 4 -7 -1 -11 -13 -11 -11 0 -44 -27 -80 -67 -51 -57
-58 -69 -44 -74 16 -6 16 -7 -2 -14 -40 -13 -50 -23 -117 -116 -97 -134 -96
-129 -54 -129 25 0 42 8 58 25 21 22 35 26 153 36 72 7 140 16 151 20 12 4 36
32 53 61 46 77 53 87 84 122 16 17 41 46 55 65 64 83 288 289 396 365 23 16
45 35 49 42 4 8 14 14 20 14 7 0 28 13 47 30 19 16 40 29 46 30 11 0 54 31
123 87 19 16 46 55 62 88 28 63 64 174 57 180 -2 2 -16 -24 -31 -59z"/>
<path d="M2471 2327 c-13 -39 -35 -94 -48 -121 -24 -47 -98 -126 -118 -126 -6
0 -22 -11 -37 -25 -15 -14 -31 -25 -35 -25 -5 0 -23 -13 -40 -29 -18 -16 -36
-31 -42 -33 -15 -5 -92 -70 -138 -115 -23 -24 -46 -43 -49 -43 -12 0 -79 -63
-86 -82 -4 -10 -14 -18 -22 -18 -16 0 -81 -75 -81 -93 0 -5 -8 -13 -18 -16
-28 -10 -98 -104 -84 -113 7 -4 2 -10 -14 -17 -28 -10 -114 -134 -105 -150 4
-6 -2 -14 -12 -20 -27 -15 -98 -171 -82 -181 9 -6 7 -11 -8 -19 -15 -8 -29
-37 -47 -94 -28 -94 -30 -113 -12 -120 8 -3 6 -9 -7 -19 -11 -9 -22 -35 -27
-64 -11 -67 -11 -164 0 -164 13 0 127 85 203 152 77 68 106 120 113 204 14
180 85 384 184 528 17 24 31 47 31 51 0 7 69 98 117 153 21 24 39 48 41 52 6
15 167 174 248 245 101 87 128 119 158 187 23 49 52 175 44 184 -3 2 -15 -29
-27 -69z"/>
<path d="M1120 1846 c-164 -123 -232 -217 -216 -297 3 -16 2 -31 -3 -33 -8 -5
-26 -121 -22 -140 1 -4 -2 -13 -7 -20 -12 -15 -47 -119 -44 -130 2 -5 -4 -16
-11 -25 -21 -23 -57 -97 -57 -116 0 -8 -4 -15 -8 -15 -8 0 -72 -92 -72 -103 0
-3 -13 -20 -29 -37 -16 -18 -34 -43 -41 -56 -26 -48 -281 -313 -355 -369 -91
-68 -141 -149 -169 -272 -26 -117 -18 -116 22 4 42 121 71 172 114 198 15 9
28 20 28 26 0 5 6 9 14 9 7 0 25 11 40 25 15 14 30 25 33 25 11 0 153 113 153
121 0 5 5 9 11 9 16 0 89 63 89 78 0 6 5 12 11 12 19 0 100 71 93 81 -3 5 3
12 13 15 30 11 102 85 96 100 -3 8 1 14 10 14 23 0 98 95 91 114 -4 11 0 16
12 16 23 0 108 125 100 146 -3 7 3 18 14 24 25 14 101 173 87 182 -7 4 -3 13
11 25 13 11 31 51 47 107 30 105 29 96 8 96 -14 0 -13 4 7 25 20 21 24 37 28
125 3 55 1 100 -4 100 -5 0 -47 -29 -94 -64z"/>
<path d="M1390 1275 c-23 -22 -39 -26 -170 -38 -115 -12 -146 -18 -155 -32 -5
-9 -25 -39 -42 -67 -18 -27 -33 -53 -33 -57 0 -3 -27 -35 -60 -71 -33 -36 -60
-70 -60 -77 0 -7 -7 -13 -15 -13 -8 0 -15 -3 -15 -7 0 -11 -198 -203 -209
-203 -3 0 -28 -20 -55 -45 -26 -25 -52 -45 -55 -45 -4 0 -26 -16 -48 -35 -23
-19 -44 -35 -47 -35 -11 0 -146 -94 -146 -102 0 -4 -6 -8 -13 -8 -21 0 -84
-63 -105 -106 -19 -37 -52 -133 -67 -194 -3 -14 12 11 33 55 22 44 50 89 63
101 33 28 97 64 116 64 8 0 29 6 46 14 18 8 53 19 79 26 26 7 49 19 52 27 3 8
10 12 15 9 14 -9 103 32 96 44 -3 6 4 10 18 10 30 0 119 48 111 61 -3 5 4 9
16 9 28 0 121 62 115 78 -3 7 4 12 17 12 28 0 148 98 141 116 -3 9 2 14 15 14
11 0 45 22 74 50 44 41 50 51 38 60 -12 8 -10 10 10 10 19 0 40 18 83 67 32
37 53 69 47 71 -18 6 -10 22 11 22 12 0 28 8 36 18 30 38 153 213 153 217 0 3
-15 5 -33 5 -21 0 -41 -9 -57 -25z"/>
</g>
</svg>
