<?xml version="1.0" standalone="no"?>
<!DOCTYPE svg PUBLIC "-//W3C//DTD SVG 20010904//EN"
 "http://www.w3.org/TR/2001/REC-SVG-20010904/DTD/svg10.dtd">
<svg version="1.0" xmlns="http://www.w3.org/2000/svg"
 width="256.000000pt" height="256.000000pt" viewBox="0 0 256.000000 256.000000"
 preserveAspectRatio="xMidYMid meet">
<metadata>
Created by potrace 1.16, written by Peter Selinger 2001-2019
</metadata>
<g transform="translate(0.000000,256.000000) scale(0.100000,-0.100000)"
fill="#e5e5e5" stroke="none">
<path d="M1993 2375 c-93 -44 -153 -79 -153 -88 0 -8 -7 -20 -16 -28 -13 -10
-17 -10 -24 1 -18 29 -330 -207 -330 -250 0 -23 -26 -46 -33 -28 -16 45 -307
-339 -307 -405 0 -9 -6 -20 -14 -24 -21 -12 -92 -183 -127 -308 -8 -28 -7 -29
6 -11 8 11 15 24 15 29 0 4 34 53 75 108 42 55 73 104 70 109 -4 6 4 14 18 19
13 5 48 31 78 58 30 28 83 71 119 97 36 27 68 57 73 68 4 12 13 18 21 15 17
-7 159 70 200 108 20 19 31 23 36 15 5 -8 23 -5 65 12 l57 23 105 165 c130
207 233 376 233 384 0 11 -15 5 -167 -69z"/>
<path d="M975 2076 c-31 -67 -46 -112 -42 -126 7 -28 -1 -50 -17 -44 -35 13
-120 -450 -87 -470 6 -4 11 -14 11 -22 0 -8 -4 -12 -10 -9 -15 9 -12 -110 5
-237 16 -125 32 -188 46 -188 6 0 8 -9 4 -20 -8 -24 33 -170 48 -170 6 0 6 29
2 78 -5 42 -8 84 -7 92 8 80 25 199 37 259 11 55 12 77 4 87 -10 13 -6 18 13
15 4 0 14 23 24 52 9 28 30 86 47 127 17 41 31 89 31 105 1 21 6 29 16 28 10
-2 26 16 43 50 15 28 37 68 49 88 l22 36 -89 186 c-48 103 -91 187 -95 187 -4
0 -29 -47 -55 -104z"/>
<path d="M1418 1380 c-73 -13 -140 -38 -192 -70 -25 -16 -46 -32 -46 -34 0 -3
26 7 58 22 164 76 391 12 495 -140 55 -81 70 -130 70 -233 1 -141 -46 -238
-160 -331 -74 -60 -148 -85 -254 -85 -148 0 -256 54 -330 164 -47 71 -49 67
-8 -15 110 -218 396 -330 633 -248 247 85 387 351 318 601 -33 117 -112 225
-213 290 -97 62 -266 98 -371 79z"/>
<path d="M409 1234 c54 -135 64 -153 84 -156 11 -2 22 -9 25 -16 2 -7 -2 -10
-12 -6 -24 9 -20 -6 20 -72 55 -92 115 -164 135 -164 10 0 21 -4 24 -10 3 -5
-1 -10 -10 -10 -20 0 8 -37 101 -138 51 -55 70 -67 106 -71 4 -1 5 -7 3 -14
-7 -16 101 -107 126 -107 10 0 16 -5 14 -12 -3 -7 21 -32 53 -54 73 -53 172
-109 172 -97 0 5 -40 49 -90 97 -49 48 -92 96 -95 105 -3 10 -21 34 -40 55
-19 21 -35 43 -35 47 0 24 -82 169 -95 169 -17 0 -21 16 -5 22 5 2 -2 39 -16
85 -20 62 -31 83 -47 88 -19 6 -20 8 -4 12 20 5 21 15 5 81 l-11 50 -196 76
c-108 41 -204 78 -214 82 -17 6 -16 3 2 -42z"/>
<path d="M936 757 c3 -10 9 -15 12 -12 3 3 0 11 -7 18 -10 9 -11 8 -5 -6z"/>
<path d="M555 623 c-33 -2 -71 -6 -84 -9 -23 -5 -23 -5 10 -30 18 -13 45 -24
60 -24 15 0 31 -4 34 -10 3 -5 0 -10 -7 -10 -22 0 12 -25 107 -79 59 -34 101
-51 123 -51 27 0 32 -3 23 -13 -8 -11 10 -22 90 -56 164 -69 232 -93 253 -87
11 3 24 -1 30 -9 11 -13 162 -55 200 -55 13 0 17 -3 10 -10 -7 -7 -20 -7 -40
0 -48 16 -225 41 -245 35 -11 -4 -26 0 -35 9 -8 9 -21 16 -27 16 -7 0 -70 -22
-141 -49 -132 -49 -139 -58 -51 -62 22 -1 51 1 64 5 16 6 26 4 32 -5 6 -10 51
-14 178 -17 144 -4 175 -2 195 12 17 11 26 12 28 4 3 -9 33 -8 120 1 110 13
178 31 115 31 -34 0 -177 47 -271 90 -37 16 -79 30 -93 30 -13 0 -22 4 -19 9
3 4 -14 17 -37 27 -23 10 -76 41 -117 68 -41 27 -84 50 -95 52 -11 1 -23 3
-27 3 -4 1 -5 7 -3 14 5 14 -107 98 -147 110 -16 4 -28 13 -28 21 0 7 -8 20
-18 29 -19 17 -36 18 -187 10z m898 -450 c-7 -2 -19 -2 -25 0 -7 3 -2 5 12 5
14 0 19 -2 13 -5z"/>
</g>
</svg>
