<?xml version="1.0" standalone="no"?>
<!DOCTYPE svg PUBLIC "-//W3C//DTD SVG 20010904//EN"
 "http://www.w3.org/TR/2001/REC-SVG-20010904/DTD/svg10.dtd">
<svg version="1.0" xmlns="http://www.w3.org/2000/svg"
 width="256.000000pt" height="256.000000pt" viewBox="0 0 256.000000 256.000000"
 preserveAspectRatio="xMidYMid meet">
<metadata>
Created by potrace 1.16, written by Peter Selinger 2001-2019
</metadata>
<g transform="translate(0.000000,256.000000) scale(0.100000,-0.100000)"
fill="#e5e5e5" stroke="none">
<path d="M906 2532 c-21 -35 -58 -231 -62 -332 -7 -154 4 -176 96 -204 36 -10
102 -36 148 -58 46 -21 85 -38 88 -38 2 0 41 -24 87 -54 127 -82 232 -191 278
-287 47 -97 52 -117 47 -182 -9 -103 -72 -191 -191 -269 -26 -17 -46 -32 -45
-34 3 -3 101 23 251 67 37 11 65 24 62 29 -3 5 16 20 42 34 32 17 41 25 28 26
l-20 1 20 14 c11 8 40 30 65 48 48 34 280 264 280 277 0 4 -34 -6 -76 -24 -64
-26 -81 -38 -107 -76 -35 -51 -166 -190 -179 -190 -5 0 7 14 27 31 41 37 155
176 155 190 0 5 8 19 19 30 36 39 62 129 68 237 4 69 3 102 -5 102 -5 0 -8 9
-5 19 7 26 -25 123 -45 138 -9 7 -13 16 -9 19 8 8 -43 106 -76 148 l-23 29
-92 -127 c-51 -69 -92 -128 -92 -131 0 -3 11 -22 23 -43 54 -84 61 -97 63
-107 1 -5 11 -35 21 -65 11 -30 21 -80 22 -110 2 -30 4 -57 6 -60 2 -3 -1 -28
-6 -55 -5 -28 -11 -57 -12 -65 -2 -8 -13 -31 -25 -50 -12 -19 -22 -39 -22 -43
0 -4 -12 -20 -27 -35 l-26 -27 22 35 c12 19 27 46 33 60 6 14 15 34 20 45 25
56 25 204 0 213 -6 2 -8 10 -5 18 9 23 -26 104 -42 98 -9 -4 -12 0 -8 14 5 21
-3 40 -45 106 -19 30 -26 36 -34 25 -7 -11 -8 -9 -5 6 4 20 -24 66 -71 117
-20 22 -28 25 -39 16 -12 -9 -13 -7 -8 13 5 21 -5 35 -65 93 -67 65 -72 68
-86 50 -14 -18 -15 -17 -11 9 4 26 -4 36 -82 98 -87 69 -111 81 -111 54 0 -8
-5 -15 -11 -15 -6 0 -8 11 -5 28 6 25 0 31 -85 87 -106 69 -105 69 -113 57z
m748 -1245 c-2 -7 -14 -19 -27 -26 -21 -13 -21 -12 2 13 27 29 33 32 25 13z"/>
<path d="M1073 1445 c-136 -35 -177 -50 -169 -64 3 -4 -16 -18 -42 -31 -34
-17 -42 -25 -29 -28 19 -4 12 -12 -69 -67 -36 -24 -276 -266 -270 -272 2 -3
37 9 78 26 62 26 79 39 113 85 47 64 165 189 172 182 3 -3 -11 -19 -31 -36
-48 -43 -156 -178 -156 -196 0 -8 -4 -14 -9 -14 -13 0 -64 -121 -66 -158 -1
-18 -5 -36 -9 -39 -10 -11 -7 -131 4 -138 6 -4 8 -15 5 -25 -8 -24 35 -150 50
-150 8 0 11 -8 9 -17 -5 -19 73 -154 92 -160 11 -4 184 229 184 247 0 5 -17
38 -38 72 -21 35 -47 88 -57 118 -10 30 -20 59 -22 63 -4 7 -13 86 -16 142 -1
28 27 125 49 170 13 27 45 73 70 100 l45 50 -36 -49 c-38 -51 -79 -126 -70
-126 3 0 -3 -12 -12 -27 -22 -34 -26 -204 -5 -211 6 -2 10 -7 7 -12 -8 -13 28
-100 41 -100 7 0 10 -8 8 -17 -6 -26 59 -129 79 -125 12 2 15 -2 11 -13 -7
-17 31 -77 72 -116 20 -18 27 -21 33 -10 5 7 11 9 14 4 3 -5 2 -15 -3 -23 -7
-11 8 -32 58 -82 62 -63 92 -82 92 -58 0 6 5 10 10 10 6 0 8 -10 4 -24 -5 -20
6 -33 81 -92 97 -77 105 -82 105 -60 0 27 19 17 22 -12 2 -22 21 -39 98 -91
l95 -63 13 43 c57 190 73 396 37 458 -17 28 -31 37 -85 53 -36 10 -74 23 -85
28 -11 5 -50 22 -87 39 -36 16 -98 50 -138 75 -39 25 -75 46 -80 46 -6 0 -10
4 -10 8 0 5 -22 26 -50 48 -27 21 -49 44 -50 49 0 6 -18 29 -40 53 -21 23 -37
42 -34 42 2 0 -7 18 -21 40 -14 22 -25 45 -25 52 0 7 -7 27 -16 43 -26 49 -13
142 29 208 41 63 96 119 155 153 71 43 68 43 -105 -1z"/>
</g>
</svg>
