<?xml version="1.0" standalone="no"?>
<!DOCTYPE svg PUBLIC "-//W3C//DTD SVG 20010904//EN"
 "http://www.w3.org/TR/2001/REC-SVG-20010904/DTD/svg10.dtd">
<svg version="1.0" xmlns="http://www.w3.org/2000/svg"
 width="256.000000pt" height="256.000000pt" viewBox="0 0 256.000000 256.000000"
 preserveAspectRatio="xMidYMid meet">
<metadata>
Created by potrace 1.16, written by Peter Selinger 2001-2019
</metadata>
<g transform="translate(0.000000,256.000000) scale(0.100000,-0.100000)"
fill="#e5e5e5" stroke="none">
<path d="M1125 2326 c-77 -38 -121 -65 -107 -65 39 -2 24 -17 -40 -40 -35 -12
-106 -44 -158 -71 l-95 -49 53 0 c39 -1 68 7 112 29 65 33 70 34 70 21 0 -5
-55 -40 -122 -78 -128 -73 -289 -171 -323 -197 -19 -15 -18 -15 20 -16 74 0
209 29 240 52 165 122 238 169 247 160 7 -7 -10 -24 -54 -53 -104 -70 -189
-142 -184 -156 3 -8 -2 -13 -14 -13 -11 0 -53 -30 -94 -67 -67 -61 -72 -69
-53 -74 18 -5 16 -7 -15 -14 -31 -6 -63 -33 -185 -158 -136 -140 -145 -152
-123 -157 23 -5 22 -7 -16 -22 -30 -12 -58 -38 -103 -93 -88 -109 -148 -200
-127 -192 9 4 154 71 322 149 l306 143 31 60 c18 33 33 63 35 66 1 4 -10 4
-25 2 -27 -5 -27 -5 -8 11 11 8 26 16 33 16 7 0 29 26 49 58 20 31 54 80 75
109 32 44 35 52 20 56 -13 3 -9 7 14 18 17 8 59 45 93 84 33 38 68 73 77 78
34 19 24 -5 -29 -70 -46 -57 -53 -69 -39 -75 14 -5 11 -8 -13 -17 -22 -8 -47
-37 -93 -109 -53 -83 -59 -98 -44 -103 14 -6 13 -9 -11 -19 -20 -10 -43 -45
-92 -141 -36 -70 -65 -130 -65 -133 0 -3 8 -6 18 -6 13 0 9 -7 -15 -28 -18
-15 -43 -52 -57 -83 -30 -69 -116 -305 -116 -319 0 -11 49 15 132 71 32 22 58
37 58 35 0 -3 -33 -28 -72 -55 -141 -97 -142 -99 -202 -336 -28 -110 -46 -161
-99 -277 -20 -43 -34 -78 -33 -78 20 0 339 181 365 206 48 49 68 46 32 -4 -24
-36 -92 -182 -83 -182 4 0 123 97 264 215 222 185 258 219 262 247 3 18 13
125 22 238 15 195 17 207 42 240 l27 35 19 515 c10 283 20 517 22 519 2 2 6 2
8 0 2 -2 12 -236 22 -519 l19 -515 27 -35 c25 -33 27 -45 42 -240 9 -113 19
-220 22 -238 4 -28 40 -62 262 -247 141 -118 260 -215 264 -215 9 0 -59 146
-83 182 -36 50 -16 53 32 4 26 -25 345 -206 365 -206 1 0 -13 35 -33 78 -53
116 -71 167 -99 277 -60 237 -61 239 -201 336 -40 27 -73 52 -73 55 0 2 26
-13 58 -35 83 -56 132 -82 132 -71 0 14 -86 250 -116 319 -14 31 -39 68 -57
83 -24 21 -28 28 -14 28 9 0 17 3 17 6 0 3 -29 63 -65 133 -49 96 -72 131 -92
141 -24 10 -25 13 -11 19 15 5 9 20 -44 103 -46 72 -71 101 -93 109 -24 9 -27
12 -13 17 14 6 7 18 -39 75 -53 65 -63 89 -29 70 9 -5 44 -40 77 -78 34 -39
76 -76 93 -84 23 -11 27 -15 14 -18 -15 -4 -12 -12 20 -56 21 -29 55 -78 75
-109 20 -32 42 -58 49 -58 7 0 22 -8 33 -16 19 -16 19 -16 -8 -11 -15 2 -26 2
-25 -2 2 -3 17 -33 35 -66 l31 -60 306 -143 c168 -78 313 -145 322 -149 21 -8
-39 83 -127 192 -45 55 -73 81 -103 93 -38 15 -39 17 -16 22 22 5 13 17 -123
157 -122 125 -154 152 -185 158 -31 7 -33 9 -15 14 19 5 14 13 -53 74 -41 37
-83 67 -94 67 -12 0 -17 5 -14 13 5 14 -80 86 -184 156 -44 29 -61 46 -54 53
9 9 82 -38 247 -160 31 -23 166 -52 240 -52 38 1 39 1 20 16 -34 26 -195 124
-322 197 -68 38 -123 73 -123 78 0 13 5 12 70 -21 44 -22 73 -30 112 -29 l53
0 -95 49 c-52 27 -123 59 -157 71 -65 23 -80 38 -40 40 30 1 -231 129 -263
129 -14 0 -83 -29 -155 -64z m-620 -896 c-11 -5 -27 -9 -35 -9 -9 0 -8 4 5 9
11 5 27 9 35 9 9 0 8 -4 -5 -9z m1580 0 c13 -5 14 -9 5 -9 -8 0 -24 4 -35 9
-13 5 -14 9 -5 9 8 0 24 -4 35 -9z m-1695 -35 c-19 -7 -42 -13 -50 -13 -8 0 1
6 20 13 19 7 42 13 50 13 8 0 -1 -6 -20 -13z m1810 0 c19 -7 28 -13 20 -13 -8
0 -31 6 -50 13 -19 7 -28 13 -20 13 8 0 31 -6 50 -13z m-1460 -939 c0 -2 -8
-10 -17 -17 -16 -13 -17 -12 -4 4 13 16 21 21 21 13z m1101 -13 c13 -16 12
-17 -3 -4 -17 13 -22 21 -14 21 2 0 10 -8 17 -17z"/>
</g>
</svg>
