<?xml version="1.0" standalone="no"?>
<!DOCTYPE svg PUBLIC "-//W3C//DTD SVG 20010904//EN"
 "http://www.w3.org/TR/2001/REC-SVG-20010904/DTD/svg10.dtd">
<svg version="1.0" xmlns="http://www.w3.org/2000/svg"
 width="256.000000pt" height="256.000000pt" viewBox="0 0 256.000000 256.000000"
 preserveAspectRatio="xMidYMid meet">
<metadata>
Created by potrace 1.16, written by Peter Selinger 2001-2019
</metadata>
<g transform="translate(0.000000,256.000000) scale(0.100000,-0.100000)"
fill="#e5e5e5" stroke="none">
<path d="M1250 2060 l0 -220 -64 39 c-35 22 -67 37 -70 34 -8 -8 -7 -1138 0
-1146 4 -3 80 43 170 103 l163 110 0 357 c-1 197 -4 409 -7 471 l-7 113 -62
-40 -63 -41 0 220 0 220 -30 0 -30 0 0 -220z"/>
<path d="M780 1904 c-107 -58 -205 -112 -218 -120 -22 -14 -22 -18 -20 -162
l3 -147 82 -56 c45 -31 90 -65 100 -77 17 -20 316 -216 347 -228 13 -5 16 4
16 54 l0 60 -50 32 -50 32 0 359 c0 197 -3 359 -7 358 -5 0 -96 -48 -203 -105z"/>
<path d="M1570 1651 l0 -359 -50 -32 -50 -32 0 -59 c0 -32 3 -59 6 -59 3 0 25
12 50 26 l44 26 0 -51 c0 -28 2 -51 5 -51 7 0 407 260 428 278 15 13 17 37 17
222 0 154 -3 210 -12 218 -15 11 -426 232 -433 232 -3 0 -5 -162 -5 -359z"/>
<path d="M546 1383 c-14 -14 -6 -90 12 -105 21 -19 419 -278 427 -278 3 0 5
20 5 44 0 53 19 36 -251 219 -103 69 -189 123 -193 120z"/>
<path d="M700 1110 c0 -29 -2 -32 -24 -26 -13 3 -31 9 -40 12 -11 4 -16 0 -16
-13 0 -15 47 -50 177 -134 97 -63 180 -115 185 -117 4 -2 8 24 8 57 l0 61
-132 88 c-73 49 -139 92 -145 96 -9 5 -13 -2 -13 -24z"/>
<path d="M1713 1045 l-143 -95 0 -61 c0 -33 4 -59 8 -57 5 2 88 54 185 117
130 84 177 119 177 134 0 13 -5 17 -16 13 -54 -21 -62 -19 -66 13 l-3 31 -142
-95z"/>
<path d="M1285 724 c-77 -52 -148 -101 -157 -109 -14 -12 -17 -32 -17 -112 0
-54 3 -103 7 -109 8 -12 124 -92 147 -100 12 -5 15 4 15 47 l1 54 82 55 82 55
3 65 c4 79 -7 250 -16 249 -4 0 -70 -43 -147 -95z"/>
</g>
</svg>
