<?xml version="1.0" standalone="no"?>
<!DOCTYPE svg PUBLIC "-//W3C//DTD SVG 20010904//EN"
 "http://www.w3.org/TR/2001/REC-SVG-20010904/DTD/svg10.dtd">
<svg version="1.0" xmlns="http://www.w3.org/2000/svg"
 width="256.000000pt" height="256.000000pt" viewBox="0 0 256.000000 256.000000"
 preserveAspectRatio="xMidYMid meet">
<metadata>
Created by potrace 1.16, written by Peter Selinger 2001-2019
</metadata>
<g transform="translate(0.000000,256.000000) scale(0.100000,-0.100000)"
fill="#e5e5e5" stroke="none">
<path d="M1618 2080 l-298 -201 0 -85 0 -85 260 175 260 176 0 -408 -1 -407
-259 -174 c-256 -172 -260 -175 -260 -209 l0 -34 28 18 c15 10 144 94 287 187
143 93 266 174 273 181 9 9 12 126 10 539 l-3 527 -297 -200z"/>
<path d="M1163 2095 c-56 -36 -107 -65 -114 -65 -6 0 -55 27 -108 60 -54 33
-101 60 -104 60 -4 0 -7 -250 -7 -555 0 -305 2 -555 5 -555 3 0 66 41 140 90
74 50 137 90 140 90 3 0 5 -13 5 -28 0 -26 -19 -42 -220 -175 -121 -81 -222
-147 -225 -147 -3 0 -5 135 -5 300 0 165 -2 300 -5 300 -3 0 -46 -27 -95 -60
l-90 -61 0 -407 1 -407 172 -112 c95 -61 180 -115 190 -118 16 -7 17 8 17 222
l0 229 205 139 205 139 0 563 c0 310 -1 563 -2 563 -2 0 -49 -30 -105 -65z"/>
<path d="M1533 877 l-212 -142 -1 -67 c0 -38 3 -68 8 -67 4 0 102 62 217 137
l210 138 3 72 c2 40 -1 72 -5 71 -4 0 -104 -64 -220 -142z"/>
<path d="M1618 687 l-298 -201 0 -98 c0 -54 3 -98 6 -98 4 0 175 109 380 241
l374 241 0 39 c0 22 -2 39 -5 39 -2 0 -34 -11 -71 -25 -36 -14 -70 -25 -75
-25 -4 0 -9 20 -11 44 l-3 44 -297 -201z"/>
</g>
</svg>
