<?xml version="1.0" standalone="no"?>
<!DOCTYPE svg PUBLIC "-//W3C//DTD SVG 20010904//EN"
 "http://www.w3.org/TR/2001/REC-SVG-20010904/DTD/svg10.dtd">
<svg version="1.0" xmlns="http://www.w3.org/2000/svg"
 width="256.000000pt" height="256.000000pt" viewBox="0 0 256.000000 256.000000"
 preserveAspectRatio="xMidYMid meet">
<metadata>
Created by potrace 1.16, written by Peter Selinger 2001-2019
</metadata>
<g transform="translate(0.000000,256.000000) scale(0.100000,-0.100000)"
fill="#e5e5e5" stroke="none">
<path d="M1248 2169 l-148 -99 0 -104 0 -104 133 -86 132 -86 5 52 5 53 77 53
78 53 -55 109 c-52 104 -55 114 -55 185 0 54 -4 75 -12 74 -7 0 -79 -45 -160
-100z"/>
<path d="M1745 1942 c-226 -145 -260 -171 -263 -195 -4 -31 5 -33 55 -12 19 8
39 15 44 15 5 0 9 -23 9 -51 l0 -50 210 142 210 142 0 89 c0 48 -1 88 -3 88
-1 0 -120 -75 -262 -168z"/>
<path d="M1793 1658 l-203 -132 0 -459 0 -459 29 19 c16 10 110 72 210 138
l181 120 0 453 c0 248 -3 452 -7 452 -5 0 -99 -60 -210 -132z"/>
<path d="M990 1693 l0 -89 203 -137 c111 -75 205 -137 210 -137 4 0 7 20 7 45
0 25 4 45 9 45 5 0 28 -7 51 -15 54 -19 50 -20 49 13 0 24 -25 43 -256 192
-141 91 -260 167 -265 168 -4 2 -8 -36 -8 -85z"/>
<path d="M698 1649 l-148 -99 0 -310 c0 -171 3 -310 7 -310 3 0 39 20 79 45
l73 46 68 -42 c37 -23 71 -43 76 -46 4 -2 7 181 7 406 0 226 -3 411 -7 410 -5
0 -74 -45 -155 -100z"/>
<path d="M990 1475 l0 -45 196 -130 c107 -72 202 -134 210 -137 22 -8 19 79
-3 99 -22 19 -390 258 -398 258 -3 0 -5 -20 -5 -45z"/>
<path d="M992 953 l3 -396 195 -133 c107 -73 201 -133 208 -134 9 0 12 84 12
388 0 358 -1 390 -17 404 -10 9 -105 72 -211 141 l-192 126 2 -396z"/>
</g>
</svg>
