<?xml version="1.0" standalone="no"?>
<!DOCTYPE svg PUBLIC "-//W3C//DTD SVG 20010904//EN"
 "http://www.w3.org/TR/2001/REC-SVG-20010904/DTD/svg10.dtd">
<svg version="1.0" xmlns="http://www.w3.org/2000/svg"
 width="256.000000pt" height="256.000000pt" viewBox="0 0 256.000000 256.000000"
 preserveAspectRatio="xMidYMid meet">
<metadata>
Created by potrace 1.16, written by Peter Selinger 2001-2019
</metadata>
<g transform="translate(0.000000,256.000000) scale(0.100000,-0.100000)"
fill="#e5e5e5" stroke="none">
<path d="M1197 2209 c-59 -38 -107 -73 -107 -78 0 -25 33 -12 119 45 l94 63
41 -26 c22 -14 66 -43 96 -63 51 -34 80 -41 80 -19 0 7 -121 90 -205 141 -6 4
-59 -25 -118 -63z"/>
<path d="M512 1428 c2 -526 6 -672 16 -676 9 -3 12 133 12 656 0 363 -3 667
-6 676 -3 9 -10 16 -15 16 -5 0 -8 -278 -7 -672z"/>
<path d="M943 2036 c-51 -34 -93 -64 -93 -67 0 -4 43 -35 95 -69 69 -46 99
-60 107 -52 8 8 -12 25 -71 62 -44 29 -81 55 -81 59 0 3 36 29 80 56 44 28 80
53 80 56 0 23 -37 8 -117 -45z"/>
<path d="M1559 2089 c-10 -6 -11 -11 -3 -16 7 -5 44 -28 83 -53 39 -24 71 -47
71 -51 0 -3 -37 -30 -81 -58 -60 -38 -79 -55 -71 -63 8 -8 37 6 107 52 52 34
95 65 95 69 0 3 -42 34 -94 68 -66 43 -97 58 -107 52z"/>
<path d="M2083 2089 c-17 -17 -19 -784 -3 -794 6 -3 12 0 15 7 3 7 4 190 3
406 -2 314 -5 391 -15 381z"/>
<path d="M1121 2066 c-9 -11 0 -21 49 -52 33 -22 60 -42 60 -46 0 -3 -20 -19
-45 -35 -25 -15 -45 -30 -45 -33 1 -9 161 -111 169 -108 17 7 161 103 161 108
0 3 -20 18 -45 33 -25 16 -45 32 -45 35 0 4 27 24 60 46 49 31 58 41 49 52 -6
8 -18 14 -25 14 -17 0 -143 -82 -144 -92 0 -4 16 -18 35 -30 19 -13 35 -26 35
-30 0 -4 -19 -19 -41 -34 -41 -26 -42 -26 -76 -7 -34 18 -59 41 -52 47 2 1 21
14 42 28 l37 25 -70 46 c-74 50 -91 55 -109 33z"/>
<path d="M600 1374 c0 -668 1 -694 32 -694 4 0 8 299 8 663 0 651 0 664 -20
682 -20 18 -20 17 -20 -651z"/>
<path d="M1987 2020 c-16 -23 -17 -57 -17 -407 1 -211 4 -383 8 -383 31 1 32
16 30 416 -3 385 -4 398 -21 374z"/>
<path d="M980 1971 c0 -12 122 -91 132 -85 16 10 7 22 -47 58 -53 35 -85 45
-85 27z"/>
<path d="M1545 1944 c-47 -32 -67 -62 -37 -56 20 4 122 74 122 83 0 18 -37 7
-85 -27z"/>
<path d="M690 1304 c0 -623 1 -668 18 -680 9 -7 20 -14 25 -14 4 0 7 299 7
663 0 630 -1 665 -18 680 -10 10 -22 17 -25 17 -4 0 -7 -300 -7 -666z"/>
<path d="M1898 1956 c-17 -12 -18 -44 -18 -405 l0 -391 25 16 25 16 0 389 c0
214 -3 389 -7 389 -5 0 -16 -7 -25 -14z"/>
<path d="M770 1246 l0 -665 29 -20 c16 -12 32 -21 35 -21 3 0 6 299 6 664 l0
665 -29 20 c-16 12 -32 21 -35 21 -3 0 -6 -299 -6 -664z"/>
<path d="M1802 1887 c-22 -23 -22 -27 -22 -406 l0 -382 30 18 30 17 0 388 c0
213 -4 388 -8 388 -5 0 -18 -10 -30 -23z"/>
<path d="M860 1186 l0 -665 33 -25 c19 -15 37 -26 40 -26 4 0 8 282 10 628 l2
627 3 -636 2 -636 40 -27 c22 -14 42 -26 45 -26 3 0 5 297 5 660 0 648 0 660
-20 678 -11 10 -32 25 -47 33 -15 8 -38 25 -52 37 -15 13 -34 28 -43 33 -17 9
-18 -25 -18 -655z"/>
<path d="M1712 1824 l-32 -25 0 -380 c0 -208 3 -379 6 -379 3 0 19 8 35 17
l29 17 0 261 c1 143 3 315 6 381 3 67 2 124 -3 127 -5 3 -23 -6 -41 -19z"/>
<path d="M1623 1758 l-43 -29 0 -380 0 -380 31 18 c62 37 59 15 57 425 l-3
376 -42 -30z"/>
<path d="M1130 1040 c0 -352 3 -640 8 -640 4 0 24 11 44 25 20 14 39 25 42 25
4 0 6 -27 6 -59 0 -55 2 -61 31 -82 26 -18 33 -19 40 -8 5 8 9 19 9 26 0 6 16
21 35 33 l35 22 0 84 c0 46 -2 84 -6 84 -3 0 -31 -17 -62 -38 -31 -21 -63 -42
-69 -46 -10 -6 -13 87 -13 451 l0 458 73 47 72 48 5 -455 5 -454 48 30 47 31
0 529 c0 291 -2 529 -5 529 -2 0 -41 -24 -87 -54 l-82 -53 -83 53 c-45 30 -85
54 -88 54 -3 0 -5 -288 -5 -640z"/>
<path d="M2077 1143 c-4 -3 -7 -26 -7 -50 0 -61 24 -52 28 10 3 43 -5 57 -21
40z"/>
<path d="M1980 1076 c-10 -14 -12 -69 -2 -89 10 -21 32 20 32 59 0 46 -9 54
-30 30z"/>
<path d="M1897 1026 c-14 -11 -17 -25 -15 -60 3 -46 3 -46 26 -31 17 13 22 26
22 61 0 47 -5 51 -33 30z"/>
<path d="M2077 983 c-12 -11 -8 -23 8 -23 8 0 15 7 15 15 0 16 -12 20 -23 8z"/>
<path d="M1803 963 c-18 -12 -23 -25 -23 -59 0 -48 5 -52 38 -28 17 12 22 25
22 60 0 48 -4 51 -37 27z"/>
<path d="M302 933 c2 -20 18 -38 57 -65 30 -21 58 -38 63 -38 4 0 8 29 8 65
l0 65 -66 0 c-65 0 -65 0 -62 -27z"/>
<path d="M2162 944 c-18 -12 -22 -25 -22 -65 0 -27 2 -49 5 -49 3 0 30 16 60
36 45 30 55 42 55 65 0 27 -3 29 -38 29 -21 0 -48 -7 -60 -16z"/>
<path d="M1987 922 c-10 -11 -14 -23 -9 -26 12 -7 35 19 30 34 -2 7 -11 3 -21
-8z"/>
<path d="M1708 902 c-24 -14 -28 -23 -28 -65 l0 -49 33 21 c27 17 32 27 35 66
3 50 0 52 -40 27z"/>
<path d="M2076 884 c-3 -9 -6 -31 -6 -51 0 -53 24 -36 28 20 3 46 -10 63 -22
31z"/>
<path d="M1898 866 c-19 -14 -24 -36 -10 -36 10 0 42 33 42 43 0 11 -13 8 -32
-7z"/>
<path d="M1618 842 c-34 -22 -38 -29 -38 -68 0 -24 3 -44 8 -44 11 0 55 30 70
48 13 17 17 78 5 85 -5 3 -25 -7 -45 -21z"/>
<path d="M1981 826 c-18 -21 -11 -87 9 -84 10 2 16 17 18 51 3 47 -6 59 -27
33z"/>
<path d="M1802 804 c-12 -8 -22 -22 -22 -30 0 -12 6 -11 30 6 28 20 39 40 22
40 -4 0 -18 -7 -30 -16z"/>
<path d="M1902 774 c-19 -16 -23 -27 -20 -63 l3 -43 23 18 c19 16 23 27 20 63
l-3 43 -23 -18z"/>
<path d="M1713 746 c-18 -11 -33 -27 -33 -33 0 -19 11 -16 44 10 39 32 30 50
-11 23z"/>
<path d="M1803 713 c-19 -12 -23 -25 -23 -65 l0 -49 30 21 c26 18 30 28 30 66
0 48 -4 51 -37 27z"/>
<path d="M1618 684 c-51 -33 -53 -62 -2 -32 32 19 52 43 43 52 -2 2 -21 -7
-41 -20z"/>
<path d="M1708 649 c-23 -17 -28 -28 -28 -65 0 -24 3 -44 6 -44 3 0 19 9 35
21 25 17 29 27 29 65 0 50 -4 52 -42 23z"/>
<path d="M1618 592 c-35 -23 -38 -28 -38 -74 l0 -49 31 18 c45 26 50 37 47 86
l-3 44 -37 -25z"/>
</g>
</svg>
