<?xml version="1.0" standalone="no"?>
<!DOCTYPE svg PUBLIC "-//W3C//DTD SVG 20010904//EN"
 "http://www.w3.org/TR/2001/REC-SVG-20010904/DTD/svg10.dtd">
<svg version="1.0" xmlns="http://www.w3.org/2000/svg"
 width="256.000000pt" height="256.000000pt" viewBox="0 0 256.000000 256.000000"
 preserveAspectRatio="xMidYMid meet">
<metadata>
Created by potrace 1.16, written by Peter Selinger 2001-2019
</metadata>
<g transform="translate(0.000000,256.000000) scale(0.100000,-0.100000)"
fill="#e5e5e5" stroke="none">
<path d="M1634 2035 c-191 -129 -354 -235 -361 -235 -7 0 -42 18 -78 40 -36
22 -68 40 -70 40 -3 0 -5 -43 -5 -95 l0 -94 -59 -41 c-33 -22 -62 -40 -65 -40
-4 0 -6 82 -6 183 l0 183 -206 139 c-114 77 -211 142 -215 143 -5 2 -9 -180
-9 -405 l0 -408 55 -35 c51 -32 55 -38 55 -73 l0 -39 -37 23 c-21 12 -42 26
-48 31 -19 17 -25 7 -25 -42 0 -49 1 -50 55 -86 49 -33 55 -41 55 -71 0 -38 2
-38 -67 9 l-43 29 0 -51 c0 -27 -4 -50 -9 -50 -5 0 -28 7 -51 15 -57 20 -62
19 -58 -11 2 -22 24 -40 115 -98 l112 -71 1 -226 c0 -124 3 -228 6 -231 3 -4
72 37 152 89 257 168 397 256 407 256 14 0 95 -54 95 -63 0 -4 -47 -38 -105
-76 l-105 -69 0 -112 0 -112 73 -45 c41 -25 77 -46 80 -46 4 0 7 22 7 50 l0
50 80 52 80 53 0 93 c0 50 2 92 5 92 2 0 123 -78 267 -173 145 -95 269 -176
276 -181 9 -5 12 5 12 42 l0 50 -337 222 c-186 123 -340 225 -343 227 -6 5 34
36 77 59 l31 18 274 -179 c150 -98 279 -183 286 -188 9 -7 12 3 12 42 l0 52
-120 77 c-66 42 -119 81 -117 85 1 5 81 60 177 122 145 94 176 117 178 139 4
30 -1 31 -58 11 -23 -8 -46 -15 -51 -15 -5 0 -9 23 -9 50 l0 50 -196 -130
-195 -131 -50 32 c-34 21 -47 35 -40 42 5 5 115 78 243 161 l233 152 3 477 c1
262 -2 477 -6 477 -5 0 -166 -106 -358 -235z m336 -258 l0 -442 -233 -152
c-128 -84 -240 -155 -250 -159 -9 -3 -24 -1 -32 6 -13 11 -15 72 -15 426 l0
413 258 175 c141 95 260 174 265 175 4 1 7 -198 7 -442z m-854 -515 c-3 -2
-32 13 -66 34 l-60 39 0 116 0 116 63 41 62 42 3 -192 c1 -105 0 -193 -2 -196z
m191 -171 c365 -240 663 -442 663 -449 0 -8 -4 -12 -9 -10 -5 2 -315 203 -690
448 -495 324 -681 450 -681 464 0 18 1 18 28 1 15 -10 325 -214 689 -454z
m-454 162 c70 -46 130 -83 133 -83 2 0 4 11 4 25 0 14 3 25 7 25 3 0 33 -17
65 -37 l58 -38 0 -73 0 -72 -59 37 c-32 21 -127 83 -210 138 -150 100 -151
100 -151 138 0 28 3 36 13 31 6 -4 70 -45 140 -91z m456 -413 c363 -239 661
-441 661 -448 0 -8 -4 -12 -9 -10 -5 2 -316 203 -690 448 -494 323 -681 450
-681 463 0 18 1 18 29 0 16 -10 326 -214 690 -453z m-392 188 l203 -133 0 -56
0 -57 -201 -131 c-110 -72 -204 -131 -210 -131 -5 0 -9 75 -9 185 0 122 4 185
10 185 6 0 62 -34 125 -75 173 -112 155 -112 155 -3 l-1 93 -142 95 c-130 87
-142 98 -145 128 -2 17 0 32 4 32 4 0 99 -60 211 -132z"/>
</g>
</svg>
