<?xml version="1.0" standalone="no"?>
<!DOCTYPE svg PUBLIC "-//W3C//DTD SVG 20010904//EN"
 "http://www.w3.org/TR/2001/REC-SVG-20010904/DTD/svg10.dtd">
<svg version="1.0" xmlns="http://www.w3.org/2000/svg"
 width="256.000000pt" height="256.000000pt" viewBox="0 0 256.000000 256.000000"
 preserveAspectRatio="xMidYMid meet">
<metadata>
Created by potrace 1.16, written by Peter Selinger 2001-2019
</metadata>
<g transform="translate(0.000000,256.000000) scale(0.100000,-0.100000)"
fill="#e5e5e5" stroke="none">
<path d="M1065 2440 c-230 -36 -454 -155 -630 -334 -148 -152 -239 -311 -297
-523 -18 -67 -21 -106 -22 -278 -1 -189 1 -205 27 -299 44 -160 135 -335 229
-442 l31 -35 -141 -142 c-98 -98 -142 -149 -142 -165 0 -14 6 -22 17 -22 10 0
93 75 185 167 l167 166 -46 51 c-128 142 -206 305 -253 524 -55 258 6 556 162
792 193 294 514 474 870 487 105 4 143 2 230 -17 219 -47 382 -125 524 -253
l50 -45 167 166 c163 162 192 202 145 202 -16 0 -67 -44 -165 -142 l-142 -141
-35 31 c-106 93 -282 185 -436 227 -81 23 -120 27 -265 30 -93 2 -197 0 -230
-5z"/>
<path d="M2140 2085 l-264 -265 36 -37 c126 -132 207 -365 195 -563 -22 -362
-252 -644 -607 -746 -99 -28 -300 -26 -404 4 -106 31 -211 83 -285 143 -34 27
-67 49 -74 49 -7 0 -128 -116 -270 -258 -257 -257 -284 -292 -241 -309 11 -4
59 37 164 142 l148 147 55 -45 c104 -85 268 -166 417 -208 77 -21 105 -24 295
-24 200 0 214 2 305 28 118 34 293 120 381 186 79 60 183 165 244 246 62 82
149 261 182 375 26 91 28 105 28 305 0 190 -3 218 -24 295 -44 155 -121 310
-208 417 l-45 55 147 148 c105 105 146 153 142 164 -17 44 -51 17 -317 -249z"/>
<path d="M1127 2100 c-449 -81 -750 -513 -661 -948 28 -138 104 -292 188 -385
29 -32 33 -32 57 -11 17 15 16 19 -32 78 -61 75 -122 198 -144 291 -24 98 -22
266 4 368 34 130 92 229 196 332 103 104 203 162 331 195 98 25 278 27 373 4
89 -21 213 -83 287 -143 l62 -50 21 23 21 22 -72 57 c-85 66 -185 117 -289
147 -83 24 -263 35 -342 20z"/>
<path d="M1721 1666 l-104 -104 32 -40 c17 -22 44 -67 59 -99 24 -53 27 -69
27 -173 0 -109 -2 -119 -32 -182 -44 -94 -109 -160 -202 -206 -74 -36 -77 -37
-191 -37 -104 0 -120 3 -173 27 -32 15 -77 42 -99 59 l-40 32 -104 -104 c-57
-57 -104 -109 -104 -115 0 -19 115 -101 194 -138 104 -49 184 -66 318 -66 141
0 235 22 351 82 114 59 246 190 304 303 67 131 87 210 87 350 1 135 -14 202
-70 321 -37 78 -119 194 -138 194 -6 0 -58 -47 -115 -104z"/>
<path d="M1158 1720 c-123 -31 -230 -121 -287 -240 -34 -71 -36 -81 -36 -175
1 -114 20 -175 81 -259 l36 -49 100 100 100 100 -16 31 c-20 39 -21 104 -1
143 33 63 128 89 197 53 l31 -16 100 100 100 100 -49 36 c-73 53 -146 78 -239
82 -44 2 -97 -1 -117 -6z"/>
<path d="M1306 1251 l-99 -99 34 -21 c118 -72 261 69 189 187 -11 17 -21 32
-23 32 -1 0 -47 -45 -101 -99z"/>
</g>
</svg>
