<?xml version="1.0" standalone="no"?>
<!DOCTYPE svg PUBLIC "-//W3C//DTD SVG 20010904//EN"
 "http://www.w3.org/TR/2001/REC-SVG-20010904/DTD/svg10.dtd">
<svg version="1.0" xmlns="http://www.w3.org/2000/svg"
 width="256.000000pt" height="256.000000pt" viewBox="0 0 256.000000 256.000000"
 preserveAspectRatio="xMidYMid meet">
<metadata>
Created by potrace 1.16, written by Peter Selinger 2001-2019
</metadata>
<g transform="translate(0.000000,256.000000) scale(0.100000,-0.100000)"
fill="#e5e5e5" stroke="none">
<path d="M2180 1925 l-275 -275 40 0 c39 0 47 7 298 258 141 141 257 265 257
275 0 11 -8 17 -23 17 -16 0 -100 -77 -297 -275z"/>
<path d="M1550 1499 l-515 -511 39 -34 c82 -71 223 -101 332 -69 113 32 204
109 253 214 23 49 26 69 26 156 0 93 -2 105 -32 165 l-33 65 245 245 c138 137
245 252 245 262 0 56 -51 11 -560 -493z"/>
<path d="M1139 1672 c-106 -35 -191 -110 -238 -212 -23 -48 -26 -68 -26 -155
0 -93 2 -105 32 -165 l33 -65 -245 -245 c-138 -137 -245 -252 -245 -262 0 -56
51 -11 560 493 l515 511 -39 34 c-85 73 -236 102 -347 66z"/>
<path d="M1937 1482 c-86 -86 -157 -165 -157 -175 0 -12 8 -17 28 -17 22 0 60
33 202 175 l175 175 -45 0 c-45 0 -46 -1 -203 -158z"/>
<path d="M550 1095 l-175 -175 45 0 c45 0 46 1 203 158 86 86 157 165 157 175
0 12 -8 17 -28 17 -22 0 -60 -33 -202 -175z"/>
<path d="M317 652 c-141 -141 -257 -265 -257 -275 0 -11 8 -17 23 -17 16 0
100 77 297 275 l275 275 -40 0 c-39 0 -47 -7 -298 -258z"/>
</g>
</svg>
