<?xml version="1.0" standalone="no"?>
<!DOCTYPE svg PUBLIC "-//W3C//DTD SVG 20010904//EN"
 "http://www.w3.org/TR/2001/REC-SVG-20010904/DTD/svg10.dtd">
<svg version="1.0" xmlns="http://www.w3.org/2000/svg"
 width="256.000000pt" height="256.000000pt" viewBox="0 0 256.000000 256.000000"
 preserveAspectRatio="xMidYMid meet">
<metadata>
Created by potrace 1.16, written by Peter Selinger 2001-2019
</metadata>
<g transform="translate(0.000000,256.000000) scale(0.100000,-0.100000)"
fill="#e5e5e5" stroke="none">
<path d="M2026 2051 l-469 -469 -54 44 c-126 103 -285 158 -458 157 -210 -1
-370 -67 -515 -213 -149 -149 -209 -287 -218 -496 -3 -100 -1 -135 16 -202 27
-104 70 -195 132 -276 l48 -63 -239 -239 c-131 -131 -239 -242 -239 -246 0
-33 66 23 269 226 l234 234 61 -45 c153 -113 301 -158 486 -150 127 6 190 22
294 73 193 97 332 269 386 479 25 96 27 260 4 355 -19 83 -81 212 -134 278
-22 28 -40 55 -40 59 0 5 211 220 470 478 259 258 470 473 470 477 0 35 -94
-51 -504 -461z m-848 -327 c96 -20 159 -46 242 -100 114 -75 110 -69 68 -110
l-36 -37 -48 37 c-107 82 -227 120 -369 119 -216 -2 -408 -119 -508 -310 -49
-93 -67 -169 -67 -278 0 -135 37 -248 113 -348 21 -26 37 -51 37 -55 0 -4 -15
-23 -34 -41 l-34 -33 -48 63 c-94 127 -137 258 -138 414 0 121 19 198 76 315
33 68 58 102 127 171 72 72 102 94 181 132 151 74 286 92 438 61z m-17 -128
c74 -16 174 -63 232 -109 l39 -30 -61 -61 c-57 -57 -64 -61 -100 -58 -54 5
-84 -24 -80 -78 2 -21 -3 -45 -10 -54 -12 -14 -17 -14 -52 4 -69 36 -171 19
-221 -37 -49 -53 -61 -144 -28 -208 l20 -39 -27 -28 c-15 -15 -30 -28 -34 -28
-4 0 -20 26 -36 58 -103 210 95 447 319 380 41 -12 57 -4 58 29 0 20 -80 35
-160 31 -121 -7 -215 -69 -267 -176 -24 -50 -28 -69 -28 -147 0 -92 17 -146
63 -198 11 -12 12 -21 5 -28 -15 -15 -59 46 -84 117 -41 114 -10 258 75 351
19 22 64 55 98 74 60 32 68 34 163 34 76 0 108 -4 131 -17 24 -13 42 -16 75
-10 l44 8 -70 34 c-67 34 -74 35 -180 35 -99 0 -116 -3 -168 -27 -81 -38 -161
-117 -199 -197 -25 -53 -33 -83 -36 -147 -5 -97 11 -163 63 -248 l36 -60 -54
-54 -54 -54 -50 74 c-189 283 -96 653 205 812 119 62 243 79 373 52z m492
-223 c122 -234 111 -487 -32 -705 -175 -268 -509 -379 -812 -268 -82 30 -216
111 -226 137 -8 22 53 81 70 68 69 -52 150 -98 205 -117 56 -19 88 -23 187
-23 146 0 218 21 331 97 164 110 254 281 254 485 0 137 -38 256 -116 358 l-36
47 33 35 34 35 36 -41 c20 -22 52 -71 72 -108z m-143 -14 c84 -130 114 -272
87 -410 -30 -152 -108 -274 -230 -360 -188 -131 -440 -134 -634 -6 -35 23 -63
46 -63 52 0 6 22 33 49 59 l49 49 31 -22 c16 -12 56 -34 88 -49 51 -23 70 -27
158 -27 91 0 106 3 166 31 163 77 246 215 237 394 -3 75 -9 98 -38 156 l-34
69 -7 -40 c-5 -28 -1 -57 12 -97 63 -190 -40 -389 -233 -450 -76 -23 -131 -23
-207 1 -69 21 -138 68 -123 83 6 6 23 0 47 -17 160 -108 389 -44 476 133 19
38 23 63 24 137 0 50 -6 102 -12 117 -11 25 -15 27 -36 17 -24 -11 -24 -12
-10 -58 68 -220 -171 -420 -381 -317 -31 15 -56 31 -56 35 0 4 13 20 29 35 28
27 30 27 54 12 13 -9 47 -19 75 -23 103 -12 191 63 200 171 3 40 -1 62 -16 93
-25 49 -16 63 42 63 55 0 86 30 86 84 0 35 7 47 52 93 29 29 58 53 65 53 8 0
31 -27 53 -61z m-216 -68 c23 -25 6 -61 -28 -61 -37 0 -52 25 -32 55 20 30 37
32 60 6z m-186 -112 c12 -5 22 -12 22 -16 0 -11 -198 -208 -203 -202 -45 50
-33 143 25 196 42 39 92 46 156 22z m72 -75 c36 -93 -33 -204 -126 -204 -34 0
-94 18 -94 28 0 10 193 202 203 202 4 0 12 -12 17 -26z"/>
</g>
</svg>
