<?xml version="1.0" standalone="no"?>
<!DOCTYPE svg PUBLIC "-//W3C//DTD SVG 20010904//EN"
 "http://www.w3.org/TR/2001/REC-SVG-20010904/DTD/svg10.dtd">
<svg version="1.0" xmlns="http://www.w3.org/2000/svg"
 width="256.000000pt" height="256.000000pt" viewBox="0 0 256.000000 256.000000"
 preserveAspectRatio="xMidYMid meet">
<metadata>
Created by potrace 1.16, written by Peter Selinger 2001-2019
</metadata>
<g transform="translate(0.000000,256.000000) scale(0.100000,-0.100000)"
fill="#e5e5e5" stroke="none">
<path d="M1150 2533 c-482 -52 -907 -393 -1060 -851 -49 -150 -63 -233 -63
-397 -1 -170 15 -273 64 -413 150 -425 499 -733 941 -828 116 -26 381 -26 495
-1 521 112 915 518 998 1027 53 328 -26 671 -216 940 -108 154 -295 313 -468
400 -194 97 -472 147 -691 123z m400 -57 c118 -27 234 -70 329 -123 71 -41
205 -138 238 -174 l22 -25 -868 -868 -869 -869 -58 72 c-534 649 -292 1618
482 1928 232 94 482 114 724 59z m400 -1096 c37 -58 62 -154 58 -227 -3 -56
-4 -57 -38 -66 -48 -12 -155 5 -221 37 -37 17 -86 58 -159 131 l-105 105 125
125 125 125 93 -93 c51 -50 106 -112 122 -137z m-638 -407 c127 -130 168 -214
168 -345 0 -73 -15 -83 -109 -75 -125 10 -172 36 -301 163 l-115 114 120 120
c66 66 125 120 130 120 6 0 54 -44 107 -97z m549 -20 c64 -66 114 -127 127
-155 28 -61 47 -172 38 -222 l-7 -38 -92 4 c-135 6 -184 31 -320 166 l-107
107 122 122 c68 68 125 123 129 123 3 0 53 -48 110 -107z"/>
<path d="M557 2013 c-26 -44 -10 -177 29 -258 17 -34 63 -89 130 -156 l104
-104 125 125 125 125 -93 93 c-108 109 -161 145 -242 167 -62 16 -171 21 -178
8z"/>
<path d="M1094 1974 c-11 -41 3 -145 27 -210 19 -49 41 -78 133 -172 l111
-113 125 126 125 125 -90 90 c-139 140 -218 180 -357 180 -65 0 -68 -1 -74
-26z"/>
<path d="M568 1464 c-13 -12 -9 -125 6 -182 21 -79 55 -127 163 -234 l98 -98
125 125 125 126 -102 100 c-130 127 -196 161 -323 167 -47 2 -88 1 -92 -4z"/>
</g>
</svg>
