<?xml version="1.0" standalone="no"?>
<!DOCTYPE svg PUBLIC "-//W3C//DTD SVG 20010904//EN"
 "http://www.w3.org/TR/2001/REC-SVG-20010904/DTD/svg10.dtd">
<svg version="1.0" xmlns="http://www.w3.org/2000/svg"
 width="256.000000pt" height="256.000000pt" viewBox="0 0 256.000000 256.000000"
 preserveAspectRatio="xMidYMid meet">
<metadata>
Created by potrace 1.16, written by Peter Selinger 2001-2019
</metadata>
<g transform="translate(0.000000,256.000000) scale(0.100000,-0.100000)"
fill="#e5e5e5" stroke="none">
<path d="M1176 2498 c-552 -41 -1018 -477 -1106 -1033 -6 -38 -11 -126 -11
-195 0 -580 406 -1074 981 -1195 457 -97 946 93 1231 477 317 428 315 1032 -5
1459 -257 342 -655 520 -1090 487z m344 -32 c499 -107 862 -480 956 -981 25
-135 16 -375 -20 -507 -116 -434 -440 -758 -874 -874 -132 -36 -372 -45 -507
-20 -509 96 -886 470 -986 981 -20 102 -18 340 4 445 79 372 306 674 633 842
132 68 259 107 429 132 61 9 292 -3 365 -18z"/>
<path d="M1040 2429 c-456 -96 -817 -458 -909 -916 -26 -126 -28 -332 -5 -453
74 -392 350 -728 718 -875 154 -61 247 -78 426 -79 126 -1 185 4 250 18 464
101 815 452 916 916 14 65 19 124 18 250 -1 179 -18 272 -79 426 -147 368
-483 644 -875 718 -118 23 -339 20 -460 -5z m480 -48 c107 -24 204 -60 300
-112 80 -43 190 -122 227 -161 l22 -24 -157 -156 -157 -157 -46 11 c-38 9 -52
8 -83 -7 -21 -10 -47 -32 -57 -49 -20 -33 -25 -96 -9 -125 7 -14 4 -23 -14
-40 l-24 -22 -53 29 c-141 78 -305 58 -417 -51 -114 -110 -138 -273 -61 -418
l33 -60 -274 -274 c-315 -315 -272 -296 -369 -165 -100 134 -171 291 -207 460
-22 103 -25 325 -5 415 102 461 393 774 832 895 42 11 102 25 135 30 85 13
285 3 384 -19z m611 -357 c11 -13 -8 -35 -134 -162 -81 -81 -147 -152 -147
-157 0 -5 67 57 149 139 129 129 152 148 165 137 9 -8 16 -19 16 -25 0 -6 -74
-85 -165 -176 -91 -91 -165 -169 -165 -175 0 -5 78 69 174 164 l175 175 12
-28 c13 -27 10 -30 -177 -217 -172 -172 -190 -188 -203 -172 -12 16 -12 16 -6
-7 4 -14 11 -32 16 -40 7 -13 8 -13 9 0 0 8 87 103 194 209 l195 195 12 -28
c13 -27 10 -30 -184 -224 -162 -162 -199 -194 -208 -182 -9 12 -10 12 -5 -3 3
-10 6 -24 6 -31 0 -7 92 80 205 194 196 195 206 204 221 185 14 -18 3 -31
-193 -227 -166 -166 -209 -204 -215 -190 -5 13 -7 11 -7 -10 -1 -15 3 -29 7
-32 5 -3 102 89 217 204 200 201 210 209 222 187 11 -21 -2 -36 -214 -248
-124 -125 -224 -232 -222 -238 2 -6 105 90 229 214 217 218 239 235 240 185 0
-8 -106 -121 -235 -250 -197 -197 -235 -231 -236 -210 0 14 -9 -8 -19 -48 -58
-222 -210 -374 -432 -432 -40 -10 -62 -19 -48 -19 21 -1 -13 -39 -210 -236
-129 -129 -242 -235 -250 -235 -50 1 -33 23 185 240 124 124 220 227 214 229
-6 2 -113 -98 -238 -222 -212 -212 -227 -225 -248 -214 -22 12 -14 22 187 222
115 115 207 212 204 217 -3 4 -17 8 -32 7 -21 0 -23 -2 -10 -7 14 -6 -24 -49
-190 -215 -196 -196 -209 -207 -227 -193 -19 15 -10 25 185 221 114 113 201
205 194 205 -7 0 -21 3 -31 6 -15 5 -15 4 -3 -5 12 -9 -20 -46 -182 -208 -194
-194 -197 -197 -224 -184 l-28 12 195 195 c106 107 201 194 209 195 8 0 -8 11
-37 24 -64 29 -143 82 -143 97 0 5 7 8 14 5 9 -4 13 -1 10 6 -2 7 29 45 70 86
l74 74 29 -21 c91 -65 234 -78 334 -31 76 36 129 86 170 161 31 58 34 70 34
154 0 86 -2 96 -37 164 l-37 72 22 19 c12 10 29 16 37 14 60 -16 72 -16 112 4
24 11 51 34 61 50 18 32 22 97 7 121 -7 12 25 49 148 173 86 86 160 157 163
157 4 0 12 -7 20 -16z m241 -448 c4 -21 -35 -64 -269 -298 -150 -150 -273
-271 -273 -268 0 3 9 30 21 60 18 49 48 83 261 297 133 133 245 240 249 238 3
-3 9 -16 11 -29z m18 -84 c0 -22 -112 -139 -647 -674 -537 -537 -653 -648
-675 -648 -15 0 -29 4 -32 8 -3 5 140 151 317 325 389 383 321 315 704 704
174 177 320 320 325 317 4 -3 8 -17 8 -32z m-852 3 c2 -15 -62 -85 -232 -254
-201 -200 -238 -232 -251 -221 -8 7 -15 17 -15 23 0 19 464 478 480 475 8 -2
16 -12 18 -23z m255 -727 c-614 -614 -619 -618 -652 -612 l-33 7 643 643 644
644 8 -32 c8 -31 5 -35 -610 -650z m50 -50 c-561 -561 -568 -568 -608 -568
l-40 0 605 605 605 605 3 -37 c3 -36 -2 -42 -565 -605z m50 -50 c-511 -511
-518 -518 -558 -518 l-40 0 555 555 555 555 3 -37 c3 -36 -2 -42 -515 -555z
m507 441 c-7 -38 -45 -79 -458 -491 -412 -413 -453 -451 -491 -458 -22 -4 -41
-5 -41 -1 0 8 983 991 991 991 4 0 3 -19 -1 -41z m-29 -132 c-11 -38 -57 -88
-379 -409 -358 -357 -394 -388 -451 -388 -9 0 175 191 409 425 233 233 426
422 428 420 3 -2 -1 -24 -7 -48z m-51 -143 c-31 -73 -512 -556 -588 -590 -29
-13 -56 -24 -60 -24 -4 0 144 151 328 335 184 184 336 333 337 331 2 -2 -6
-25 -17 -52z m-1409 -30 c11 -13 -13 -40 -174 -202 -178 -177 -188 -186 -204
-169 -17 16 -8 26 167 202 102 102 188 185 191 185 4 0 12 -7 20 -16z m55 -38
c18 -14 9 -25 -166 -200 -102 -103 -190 -186 -196 -186 -6 0 -17 7 -25 16 -11
13 13 40 172 200 101 101 186 184 189 184 4 0 15 -7 26 -14z m67 -38 c15 -12
-4 -34 -172 -202 -187 -187 -190 -190 -217 -177 l-28 12 190 190 c104 104 194
189 199 189 6 0 19 -6 28 -12z m249 -271 c-234 -234 -277 -273 -298 -269 -13
2 -26 8 -29 11 -2 4 105 116 238 249 201 200 250 244 292 260 28 11 54 20 60
21 5 1 -113 -122 -263 -272z m951 212 c-42 -73 -154 -199 -230 -259 -159 -128
-146 -100 47 94 107 108 196 196 198 196 2 0 -5 -14 -15 -31z"/>
<path d="M1218 1863 c12 -2 30 -2 40 0 9 3 -1 5 -23 4 -22 0 -30 -2 -17 -4z"/>
<path d="M1328 1863 c12 -2 30 -2 40 0 9 3 -1 5 -23 4 -22 0 -30 -2 -17 -4z"/>
<path d="M1158 1853 c7 -3 16 -2 19 1 4 3 -2 6 -13 5 -11 0 -14 -3 -6 -6z"/>
<path d="M1398 1853 c6 -2 18 -2 25 0 6 3 1 5 -13 5 -14 0 -19 -2 -12 -5z"/>
<path d="M1085 1835 c-39 -17 -21 -18 25 0 19 7 28 14 20 14 -8 0 -28 -6 -45
-14z"/>
<path d="M1213 1833 c9 -2 23 -2 30 0 6 3 -1 5 -18 5 -16 0 -22 -2 -12 -5z"/>
<path d="M1333 1833 c9 -2 23 -2 30 0 6 3 -1 5 -18 5 -16 0 -22 -2 -12 -5z"/>
<path d="M1158 1823 c7 -3 16 -2 19 1 4 3 -2 6 -13 5 -11 0 -14 -3 -6 -6z"/>
<path d="M1398 1823 c7 -3 16 -2 19 1 4 3 -2 6 -13 5 -11 0 -14 -3 -6 -6z"/>
<path d="M1520 1815 c14 -8 30 -14 35 -14 6 0 -1 6 -15 14 -14 8 -29 14 -35
14 -5 0 1 -6 15 -14z"/>
<path d="M1008 1804 c-39 -21 -35 -28 5 -8 37 19 44 24 31 24 -5 -1 -21 -8
-36 -16z"/>
<path d="M1050 1790 c-8 -5 -10 -10 -5 -10 6 0 17 5 25 10 8 5 11 10 5 10 -5
0 -17 -5 -25 -10z"/>
<path d="M1004 1764 c-18 -14 -18 -15 4 -4 12 6 22 13 22 15 0 8 -5 6 -26 -11z"/>
<path d="M914 1738 l-19 -23 23 19 c21 18 27 26 19 26 -2 0 -12 -10 -23 -22z"/>
<path d="M924 1708 l-19 -23 23 19 c12 11 22 21 22 23 0 8 -8 2 -26 -19z"/>
<path d="M859 1693 l-24 -28 28 24 c25 23 32 31 24 31 -2 0 -14 -12 -28 -27z"/>
<path d="M814 1638 l-19 -23 23 19 c21 18 27 26 19 26 -2 0 -12 -10 -23 -22z"/>
<path d="M844 1628 l-19 -23 23 19 c21 18 27 26 19 26 -2 0 -12 -10 -23 -22z"/>
<path d="M755 1549 c-9 -17 -15 -33 -13 -35 3 -2 12 12 21 31 21 43 13 47 -8
4z"/>
<path d="M790 1550 c-6 -11 -8 -20 -6 -20 3 0 10 9 16 20 6 11 8 20 6 20 -3 0
-10 -9 -16 -20z"/>
<path d="M766 1505 c-9 -26 -7 -32 5 -12 6 10 9 21 6 23 -2 3 -7 -2 -11 -11z"/>
<path d="M721 1469 c-6 -18 -11 -37 -10 -43 0 -6 7 7 15 28 8 22 12 41 10 43
-2 2 -9 -10 -15 -28z"/>
<path d="M701 1394 c0 -11 3 -14 6 -6 3 7 2 16 -1 19 -3 4 -6 -2 -5 -13z"/>
<path d="M731 1394 c0 -11 3 -14 6 -6 3 7 2 16 -1 19 -3 4 -6 -2 -5 -13z"/>
<path d="M693 1325 c0 -22 2 -30 4 -17 2 12 2 30 0 40 -3 9 -5 -1 -4 -23z"/>
<path d="M722 1335 c0 -16 2 -22 5 -12 2 9 2 23 0 30 -3 6 -5 -1 -5 -18z"/>
<path d="M693 1215 c0 -22 2 -30 4 -17 2 12 2 30 0 40 -3 9 -5 -1 -4 -23z"/>
<path d="M722 1215 c0 -16 2 -22 5 -12 2 9 2 23 0 30 -3 6 -5 -1 -5 -18z"/>
<path d="M702 1150 c0 -14 2 -19 5 -12 2 6 2 18 0 25 -3 6 -5 1 -5 -13z"/>
<path d="M731 1154 c0 -11 3 -14 6 -6 3 7 2 16 -1 19 -3 4 -6 -2 -5 -13z"/>
<path d="M730 1056 c0 -11 50 -106 55 -106 3 0 -7 24 -21 53 -28 55 -34 65
-34 53z"/>
<path d="M810 910 c11 -16 26 -33 32 -36 7 -4 -1 9 -16 29 -34 44 -46 50 -16
7z"/>
<path d="M1801 1500 c14 -31 19 -36 19 -24 0 6 -7 19 -16 30 -14 18 -14 18 -3
-6z"/>
<path d="M1831 1414 c0 -11 3 -14 6 -6 3 7 2 16 -1 19 -3 4 -6 -2 -5 -13z"/>
<path d="M1842 1370 c0 -14 2 -19 5 -12 2 6 2 18 0 25 -3 6 -5 1 -5 -13z"/>
<path d="M1842 1180 c0 -14 2 -19 5 -12 2 6 2 18 0 25 -3 6 -5 1 -5 -13z"/>
<path d="M1724 918 l-19 -23 23 19 c21 18 27 26 19 26 -2 0 -12 -10 -23 -22z"/>
<path d="M1634 828 l-19 -23 23 19 c12 11 22 21 22 23 0 8 -8 2 -26 -19z"/>
<path d="M940 826 c0 -2 8 -10 18 -17 15 -13 16 -12 3 4 -13 16 -21 21 -21 13z"/>
<path d="M980 796 c0 -3 9 -10 20 -16 11 -6 20 -8 20 -6 0 3 -9 10 -20 16 -11
6 -20 8 -20 6z"/>
<path d="M1060 750 c8 -5 20 -10 25 -10 6 0 3 5 -5 10 -8 5 -19 10 -25 10 -5
0 -3 -5 5 -10z"/>
<path d="M1138 723 c7 -3 16 -2 19 1 4 3 -2 6 -13 5 -11 0 -14 -3 -6 -6z"/>
<path d="M1178 713 c6 -2 18 -2 25 0 6 3 1 5 -13 5 -14 0 -19 -2 -12 -5z"/>
<path d="M1368 713 c6 -2 18 -2 25 0 6 3 1 5 -13 5 -14 0 -19 -2 -12 -5z"/>
</g>
</svg>
