<?xml version="1.0" standalone="no"?>
<!DOCTYPE svg PUBLIC "-//W3C//DTD SVG 20010904//EN"
 "http://www.w3.org/TR/2001/REC-SVG-20010904/DTD/svg10.dtd">
<svg version="1.0" xmlns="http://www.w3.org/2000/svg"
 width="256.000000pt" height="256.000000pt" viewBox="0 0 256.000000 256.000000"
 preserveAspectRatio="xMidYMid meet">
<metadata>
Created by potrace 1.16, written by Peter Selinger 2001-2019
</metadata>
<g transform="translate(0.000000,256.000000) scale(0.100000,-0.100000)"
fill="#e5e5e5" stroke="none">
<path d="M1355 1990 c12 -106 16 -111 71 -90 l27 11 -30 32 c-17 18 -41 48
-53 67 l-22 35 7 -55z"/>
<path d="M1190 2009 c-7 -11 -27 -38 -46 -59 -37 -41 -36 -44 13 -54 34 -8 33
-10 48 92 7 46 2 54 -15 21z"/>
<path d="M720 1919 c200 -55 339 -117 419 -186 23 -20 46 -32 50 -27 5 5 14
31 20 58 10 40 10 51 -1 58 -48 31 -299 86 -468 102 -48 4 -50 4 -20 -5z"/>
<path d="M1695 1909 c-117 -17 -252 -49 -327 -78 -32 -12 -33 -19 -13 -89 l16
-52 55 45 c89 73 214 130 369 170 109 28 75 30 -100 4z"/>
<path d="M2000 1908 c-99 -20 -250 -72 -339 -115 l-93 -46 6 -44 c9 -64 14
-68 50 -35 88 83 209 155 354 213 98 39 103 44 22 27z"/>
<path d="M596 1877 c103 -42 216 -107 289 -166 98 -78 92 -78 101 -10 l6 44
-73 37 c-100 50 -167 75 -274 104 -125 33 -145 30 -49 -9z"/>
<path d="M1262 1841 c-6 -38 -22 -102 -35 -143 l-24 -75 24 -29 c19 -24 25
-27 33 -14 5 8 10 21 10 28 0 6 5 12 10 12 6 0 10 -6 10 -12 0 -7 5 -20 10
-28 8 -13 14 -10 33 14 l24 29 -24 75 c-13 41 -29 105 -35 143 -7 38 -15 69
-18 69 -3 0 -11 -31 -18 -69z"/>
<path d="M220 1847 c0 -3 35 -17 78 -32 118 -41 317 -148 417 -222 50 -37 133
-111 186 -165 l96 -97 20 22 c54 60 55 66 20 115 -78 108 -226 203 -447 285
-118 44 -370 108 -370 94z"/>
<path d="M2175 1815 c-199 -51 -312 -95 -462 -179 -86 -49 -122 -81 -185 -164
l-40 -52 36 -45 c21 -25 40 -45 44 -44 4 0 27 25 52 55 136 164 380 328 635
425 123 47 92 49 -80 4z"/>
<path d="M1020 1729 c0 -11 -8 -49 -17 -85 l-17 -64 29 -30 c16 -16 33 -30 37
-30 13 0 79 150 72 161 -8 14 -85 69 -96 69 -4 0 -8 -9 -8 -21z"/>
<path d="M1477 1718 c-26 -18 -47 -37 -47 -41 0 -10 72 -167 76 -167 2 0 19
16 37 37 l34 36 -19 60 c-10 32 -18 70 -18 83 0 31 -7 30 -63 -8z"/>
<path d="M1115 1567 l-26 -55 36 -57 c52 -81 109 -202 131 -279 10 -36 21 -66
24 -66 3 0 14 30 24 66 22 77 79 198 131 279 l36 57 -26 55 -27 55 -37 -36
c-20 -20 -50 -58 -66 -86 -17 -27 -32 -50 -35 -50 -3 0 -18 23 -35 50 -16 28
-46 66 -66 86 l-37 36 -27 -55z"/>
<path d="M825 1364 c-67 -61 -152 -119 -226 -154 l-61 -29 73 -37 c225 -112
425 -301 561 -528 54 -89 60 -88 22 5 -87 214 -230 396 -398 510 -36 24 -66
47 -66 50 0 3 10 11 23 16 32 15 177 132 177 144 0 5 -12 22 -27 38 l-28 30
-50 -45z"/>
<path d="M1076 1371 c-40 -57 -125 -135 -177 -161 -40 -21 -42 -24 -25 -34 96
-57 182 -142 244 -241 40 -63 41 -52 3 23 -35 70 -112 174 -149 201 l-27 20
50 43 c64 54 135 130 135 144 0 5 -6 18 -13 28 -12 16 -15 15 -41 -23z"/>
<path d="M1440 1388 c-11 -24 -9 -30 20 -66 18 -23 59 -62 91 -88 33 -26 59
-48 59 -49 0 -2 -26 -30 -59 -64 -34 -36 -76 -94 -100 -140 -49 -94 -53 -116
-9 -46 63 102 102 140 246 241 14 10 10 15 -28 34 -43 22 -147 119 -186 175
l-22 30 -12 -27z"/>
<path d="M1656 1379 c-14 -17 -26 -34 -26 -39 0 -11 146 -129 177 -143 13 -5
23 -13 23 -16 0 -3 -30 -26 -66 -50 -168 -114 -311 -296 -398 -510 -38 -93
-32 -94 22 -5 136 227 336 416 561 528 l73 37 -61 29 c-77 37 -139 78 -218
147 l-61 53 -26 -31z"/>
<path d="M1097 1272 c-33 -34 -33 -42 -3 -90 46 -74 110 -208 142 -302 37
-107 41 -102 19 26 -26 149 -103 394 -124 394 -4 0 -19 -13 -34 -28z"/>
<path d="M1410 1273 c-45 -98 -101 -312 -115 -438 l-6 -60 35 102 c34 98 99
236 150 318 l25 40 -32 33 c-17 17 -34 32 -37 32 -4 0 -13 -12 -20 -27z"/>
</g>
</svg>
