<?xml version="1.0" standalone="no"?>
<!DOCTYPE svg PUBLIC "-//W3C//DTD SVG 20010904//EN"
 "http://www.w3.org/TR/2001/REC-SVG-20010904/DTD/svg10.dtd">
<svg version="1.0" xmlns="http://www.w3.org/2000/svg"
 width="256.000000pt" height="256.000000pt" viewBox="0 0 256.000000 256.000000"
 preserveAspectRatio="xMidYMid meet">
<metadata>
Created by potrace 1.16, written by Peter Selinger 2001-2019
</metadata>
<g transform="translate(0.000000,256.000000) scale(0.100000,-0.100000)"
fill="#e5e5e5" stroke="none">
<path d="M525 1840 c11 -5 62 -27 112 -48 256 -110 471 -323 579 -571 19 -43
39 -102 46 -130 6 -28 14 -51 18 -51 4 0 12 23 18 51 29 126 136 317 241 431
107 117 272 229 425 288 47 18 84 35 82 37 -2 3 -42 -5 -87 -16 -296 -70 -547
-227 -655 -410 -10 -17 -21 -31 -24 -31 -3 0 -14 14 -24 31 -107 182 -357 339
-651 410 -85 20 -113 23 -80 9z"/>
<path d="M1262 1783 c-6 -38 -22 -105 -35 -149 l-23 -81 24 -28 c19 -23 26
-25 33 -14 5 8 9 20 9 27 0 6 5 12 10 12 6 0 10 -6 10 -12 0 -7 4 -19 9 -27 7
-11 14 -9 33 14 l24 28 -23 81 c-13 44 -29 111 -35 149 -7 37 -15 67 -18 67
-3 0 -11 -30 -18 -67z"/>
<path d="M306 1747 c226 -84 451 -231 606 -396 94 -100 85 -99 136 -24 l22 31
-55 70 c-57 73 -119 118 -250 185 -139 69 -376 146 -500 161 -46 6 -43 4 41
-27z"/>
<path d="M2213 1760 c-112 -26 -279 -83 -382 -131 -149 -70 -225 -123 -286
-201 l-55 -70 22 -31 c51 -75 42 -76 136 24 156 165 384 314 606 395 101 37
84 42 -41 14z"/>
<path d="M1061 1285 c-42 -56 -120 -124 -173 -151 l-29 -15 60 -40 c72 -48
161 -142 201 -212 33 -58 38 -58 14 -1 -25 60 -81 142 -137 201 l-51 54 25 16
c49 34 159 147 159 163 0 10 -6 23 -14 29 -11 9 -22 0 -55 -44z"/>
<path d="M1443 1329 c-7 -7 -13 -20 -13 -29 0 -16 111 -130 159 -163 l25 -16
-51 -54 c-56 -59 -112 -141 -137 -201 -24 -57 -19 -57 14 1 40 70 129 164 200
211 l58 39 -64 42 c-56 37 -99 79 -161 159 -14 18 -20 21 -30 11z"/>
<path d="M1094 1199 l-31 -31 40 -67 c53 -86 101 -190 137 -299 30 -87 30 -87
24 -32 -8 76 -41 227 -65 303 -27 80 -60 157 -68 157 -3 0 -20 -14 -37 -31z"/>
<path d="M1402 1183 c-46 -110 -93 -289 -106 -413 -6 -55 -6 -55 24 32 36 109
84 213 137 300 l41 66 -32 31 c-18 17 -35 31 -38 31 -3 0 -15 -21 -26 -47z"/>
</g>
</svg>
