<?xml version="1.0" standalone="no"?>
<!DOCTYPE svg PUBLIC "-//W3C//DTD SVG 20010904//EN"
 "http://www.w3.org/TR/2001/REC-SVG-20010904/DTD/svg10.dtd">
<svg version="1.0" xmlns="http://www.w3.org/2000/svg"
 width="256.000000pt" height="256.000000pt" viewBox="0 0 256.000000 256.000000"
 preserveAspectRatio="xMidYMid meet">
<metadata>
Created by potrace 1.16, written by Peter Selinger 2001-2019
</metadata>
<g transform="translate(0.000000,256.000000) scale(0.100000,-0.100000)"
fill="#e5e5e5" stroke="none">
<path d="M500 2482 c-183 -123 -185 -125 -216 -205 -15 -40 -40 -99 -56 -132
-50 -107 -36 -245 38 -352 49 -71 45 -110 -21 -213 -63 -97 -130 -239 -152
-321 -12 -45 -17 -101 -17 -189 0 -110 3 -134 27 -203 32 -93 33 -120 7 -215
-19 -67 -19 -75 -4 -103 61 -120 262 -239 476 -284 188 -40 340 -28 546 41
133 45 210 56 259 37 12 -4 50 -35 85 -68 161 -155 204 -175 376 -175 106 0
121 -2 152 -23 72 -48 138 -59 193 -31 48 25 202 130 242 165 24 21 40 48 50
84 18 61 24 29 -76 430 -34 138 -72 273 -84 301 -16 36 -64 94 -170 204 l-147
154 6 60 c25 252 20 297 -47 431 -80 161 -165 253 -280 303 -26 12 -96 33
-155 48 -95 24 -119 26 -210 20 -120 -7 -122 -6 -208 73 -33 31 -86 69 -118
85 -31 15 -78 46 -103 67 -74 65 -132 89 -210 89 l-68 0 -115 -78z m210 -27
c15 -16 33 -25 46 -23 16 2 43 -16 94 -65 58 -55 76 -67 104 -67 29 0 44 -12
122 -94 82 -87 90 -93 114 -84 14 6 77 13 140 15 97 5 129 2 205 -17 106 -26
134 -39 197 -92 46 -38 120 -133 151 -194 47 -91 52 -260 12 -394 -30 -102
-29 -100 -8 -100 23 0 133 -109 133 -132 0 -10 5 -18 12 -18 17 0 118 -101
118 -117 0 -7 6 -13 13 -13 7 0 26 -14 42 -30 26 -27 38 -68 112 -363 45 -182
82 -337 83 -343 0 -17 -255 -204 -278 -204 -5 0 -42 30 -81 66 l-71 66 -36
-27 c-35 -27 -39 -28 -130 -22 -85 5 -98 8 -129 34 -18 15 -34 34 -34 41 -1 6
-9 12 -18 12 -23 0 -83 59 -83 82 0 10 -7 18 -17 18 -19 1 -153 122 -153 138
0 6 -12 13 -26 16 -14 4 -54 30 -90 58 l-65 51 -67 -31 c-128 -57 -221 -76
-382 -76 -135 0 -150 2 -209 27 -131 55 -192 106 -273 225 -75 111 -98 220
-78 361 14 92 31 143 84 241 46 86 146 239 169 258 14 12 13 17 -7 47 -15 22
-22 43 -19 59 4 19 -6 36 -43 76 -26 28 -48 61 -49 73 -2 12 -5 58 -9 102 l-6
80 41 28 c39 27 40 29 38 81 -1 29 1 58 5 64 13 21 279 211 297 212 3 0 16
-11 29 -25z m-430 -1809 c0 -3 -9 -6 -19 -6 -10 0 -22 -7 -25 -16 -6 -15 -8
-15 -26 1 -25 23 -25 26 1 59 l20 26 25 -29 c13 -16 24 -32 24 -35z m90 -52
c30 -21 57 -38 59 -40 2 -2 -16 -36 -39 -76 -24 -40 -45 -67 -47 -61 -3 7 7
32 22 57 l26 45 -55 37 c-31 20 -56 38 -56 40 0 13 14 34 24 34 6 0 36 -16 66
-36z m-160 4 c0 -7 -9 -24 -20 -38 -14 -19 -22 -22 -31 -13 -8 8 -7 17 7 37
20 27 44 34 44 14z m1015 -38 c0 -20 -6 -26 -28 -28 -18 -2 -29 2 -33 12 -11
28 4 48 33 44 22 -2 28 -8 28 -28z m-935 0 c13 -8 13 -14 -3 -42 l-18 -32 25
-19 c14 -10 26 -23 26 -28 0 -10 -38 9 -80 41 l-23 17 22 37 c24 39 28 41 51
26z m836 -51 c-2 -36 -16 -58 -38 -59 -14 0 -8 55 8 78 23 33 32 27 30 -19z
m-626 -54 c0 -24 -7 -39 -26 -54 -45 -35 -114 -22 -83 15 12 14 14 14 25 -1
25 -34 74 19 59 65 -4 11 -11 18 -16 15 -18 -12 -29 6 -18 28 12 21 12 21 35
-7 15 -17 24 -40 24 -61z m555 56 c3 -5 1 -12 -5 -16 -5 -3 -10 -19 -10 -36 0
-16 -4 -29 -9 -29 -5 0 -16 -2 -23 -5 -10 -4 -18 6 -26 30 -10 36 -10 37 21
50 39 17 44 18 52 6z m-471 -21 c30 -11 34 -26 8 -32 -23 -6 -45 -78 -36 -114
6 -24 5 -26 -12 -20 -10 5 -27 11 -36 13 -23 7 -23 12 4 95 23 70 29 75 72 58z
m334 -36 c2 -17 -4 -23 -28 -27 -17 -4 -32 -12 -35 -19 -21 -60 -27 -70 -35
-62 -5 5 -10 34 -12 64 l-3 55 40 6 c58 9 70 6 73 -17z m48 -51 c4 -38 8 -72
9 -78 0 -9 -145 -37 -154 -30 -12 11 17 23 70 29 l61 7 -7 76 c-9 95 9 92 21
-4z m-199 39 c-19 -21 -24 -122 -7 -122 6 0 10 -7 10 -15 0 -13 -7 -15 -37 -9
-21 4 -39 7 -40 8 -1 1 1 27 4 58 6 62 30 98 65 98 20 0 20 -1 5 -18z m383 -2
c0 -6 12 -15 27 -21 38 -14 15 -33 -30 -25 -46 9 -65 30 -40 45 23 13 43 14
43 1z m-93 -39 c3 -11 13 -21 24 -24 26 -7 24 -24 -5 -31 -13 -3 -31 -8 -39
-12 -10 -3 -18 5 -26 27 -15 42 -14 47 7 52 31 8 34 7 39 -12z"/>
<path d="M560 2358 c-149 -103 -150 -104 -150 -150 0 -21 3 -38 6 -38 8 0 204
135 243 168 31 26 33 31 25 64 l-9 35 -115 -79z"/>
<path d="M700 2390 c0 -5 7 -10 15 -10 8 0 15 5 15 10 0 6 -7 10 -15 10 -8 0
-15 -4 -15 -10z"/>
<path d="M772 2365 c0 -22 3 -49 8 -60 l9 -20 0 20 c0 11 -4 38 -8 60 l-9 40
0 -40z"/>
<path d="M804 2311 c6 -54 12 -70 34 -90 15 -14 50 -46 79 -73 60 -56 97 -64
87 -20 -24 107 -35 132 -58 132 -14 0 -47 23 -86 59 l-63 59 7 -67z"/>
<path d="M703 2346 c-15 -13 -86 -63 -158 -112 -72 -49 -145 -101 -163 -114
l-34 -25 7 -70 c4 -38 8 -71 10 -73 1 -2 89 54 194 124 106 69 194 124 196
122 3 -2 -85 -64 -195 -138 l-199 -133 24 -29 c14 -16 22 -35 19 -41 -5 -8 -4
-9 4 -2 6 6 12 21 14 35 2 19 29 41 120 100 64 41 148 96 186 123 38 26 74 47
79 47 5 0 34 -29 64 -64 30 -36 60 -65 67 -65 6 -1 12 -5 12 -10 0 -5 -6 -11
-12 -14 -7 -2 -10 -7 -6 -11 7 -9 49 11 60 28 4 6 13 11 20 12 37 3 38 4 21
24 -20 23 -65 28 -57 6 3 -8 1 -17 -5 -21 -7 -3 -11 2 -11 14 0 12 -7 21 -16
21 -8 0 -22 6 -30 14 -7 8 -26 24 -40 35 -14 11 -24 25 -22 30 1 6 22 -7 46
-29 24 -22 46 -40 50 -40 7 0 -58 64 -113 110 l-30 25 24 -27 c24 -28 24 -28
3 -28 -12 0 -22 6 -22 14 0 7 -6 19 -14 25 -7 6 -19 45 -27 86 -8 45 -18 75
-25 75 -7 0 -25 -11 -41 -24z"/>
<path d="M791 2244 c0 -11 3 -14 6 -6 3 7 2 16 -1 19 -3 4 -6 -2 -5 -13z"/>
<path d="M1000 2217 c0 -24 21 -77 31 -77 5 0 7 -10 4 -23 -8 -29 26 -63 52
-52 10 4 26 9 35 10 25 2 35 15 14 15 -12 0 -16 5 -12 15 4 10 -1 15 -14 15
-14 0 -20 7 -20 21 0 16 -4 19 -21 14 -16 -5 -20 -3 -17 12 2 12 -3 18 -14 17
-11 -1 -18 5 -18 17 0 10 -4 21 -10 24 -5 3 -10 0 -10 -8z m80 -116 c0 -6 -4
-13 -10 -16 -5 -3 -10 1 -10 9 0 9 5 16 10 16 6 0 10 -4 10 -9z"/>
<path d="M760 2115 c-7 -8 -83 -60 -170 -115 l-157 -100 7 -38 c5 -20 17 -86
29 -146 11 -60 23 -111 25 -114 3 -2 8 8 12 23 4 18 -3 70 -20 143 -15 63 -25
117 -22 120 3 3 6 3 6 0 0 -3 13 -56 30 -119 28 -109 30 -148 7 -176 -9 -12 1
-23 195 -202 34 -31 53 -41 65 -36 15 6 11 12 -27 43 -91 75 -109 96 -112 130
-3 33 0 35 117 107 66 41 123 75 126 75 4 0 45 -36 93 -80 47 -44 89 -80 93
-80 15 1 45 29 40 37 -3 5 -37 42 -75 83 -38 41 -82 90 -99 109 l-29 34 -130
-78 c-71 -43 -149 -92 -174 -109 -62 -44 -81 -53 -45 -21 17 14 80 58 140 96
61 39 130 85 155 103 l46 32 -28 94 c-16 52 -36 119 -44 148 -16 53 -32 64
-54 37z m35 -145 c24 -98 30 -110 54 -119 l26 -9 -27 -1 c-34 -1 -41 11 -66
119 -11 47 -24 93 -27 103 -4 9 -3 17 3 17 5 0 22 -49 37 -110z"/>
<path d="M841 2068 c5 -18 9 -34 9 -35 0 -2 7 -3 15 -3 17 0 20 -11 5 -26 -6
-6 -4 -20 6 -39 8 -17 15 -31 15 -32 -6 -22 4 -57 21 -73 12 -11 16 -20 10
-20 -27 0 -8 -32 60 -102 39 -40 76 -73 82 -73 6 0 10 -8 8 -18 -2 -11 4 -17
18 -17 36 0 21 27 -50 92 -38 35 -70 69 -70 76 0 6 -7 12 -15 12 -18 0 -20 17
-4 22 9 3 8 10 -1 28 -7 13 -14 41 -15 61 -4 43 -12 62 -25 54 -5 -3 -11 -1
-15 5 -3 5 -1 10 4 10 6 0 11 7 11 15 0 23 -30 65 -46 65 -8 0 -14 7 -14 15 0
8 -4 15 -9 15 -6 0 -6 -12 0 -32z m79 -147 c0 -6 -4 -13 -10 -16 -5 -3 -10 1
-10 9 0 9 5 16 10 16 6 0 10 -4 10 -9z"/>
<path d="M1250 2086 c-89 -19 -147 -35 -168 -45 -9 -5 -33 -16 -52 -25 -68
-32 -85 -46 -82 -63 1 -10 10 -48 18 -85 16 -67 29 -83 41 -52 3 8 12 13 19
10 16 -6 84 20 84 33 0 4 12 8 28 9 39 0 143 26 142 35 0 4 3 7 8 6 4 -1 6 -5
5 -10 -3 -8 48 -14 90 -10 9 1 17 -2 17 -7 0 -6 -44 -12 -97 -14 -96 -4 -100
-5 -170 -48 -40 -25 -73 -50 -73 -57 0 -15 47 -52 76 -59 13 -3 52 4 86 15 98
34 162 37 232 12 33 -11 70 -31 83 -43 l23 -22 -6 35 c-13 75 -29 106 -77 152
-52 49 -84 64 -114 53 -9 -4 -20 -1 -24 6 -14 22 -96 16 -113 -7 -9 -11 -16
-14 -16 -7 0 14 -50 17 -50 2 0 -5 -13 -7 -29 -4 -16 4 -32 1 -35 -5 -4 -6
-16 -11 -26 -11 -13 0 -17 -5 -14 -15 8 -19 -3 -19 -21 -1 -11 11 -8 16 22 30
57 27 231 59 283 51 97 -15 164 -64 206 -153 22 -46 26 -69 26 -131 -1 -63 -6
-85 -36 -148 -131 -276 -495 -545 -815 -603 -163 -29 -304 64 -333 218 -14 74
-1 142 42 230 28 55 90 128 90 105 0 -6 -7 -16 -14 -23 -29 -23 -81 -113 -68
-118 7 -2 12 -8 12 -14 0 -6 -7 -8 -15 -4 -11 4 -15 -1 -15 -19 0 -13 -4 -27
-10 -30 -16 -10 -12 -45 6 -45 8 0 12 -5 9 -10 -4 -6 -11 -8 -16 -5 -5 4 -9
-5 -9 -19 0 -16 6 -26 15 -26 17 0 19 -12 5 -26 -16 -16 16 -85 35 -78 10 4
15 0 15 -15 0 -15 5 -21 17 -19 12 2 17 -3 15 -14 -2 -12 4 -18 17 -18 11 0
21 -5 23 -11 2 -6 18 -17 34 -24 l31 -13 5 103 c6 106 21 157 70 229 29 43 30
81 2 81 -12 0 -19 7 -19 20 0 12 -6 19 -14 17 -8 -2 -18 3 -23 10 -6 10 -22
-1 -59 -42 -28 -30 -57 -68 -66 -84 -21 -41 -28 -107 -11 -118 10 -8 10 -11 1
-15 -15 -5 -18 -53 -4 -53 5 0 9 -11 8 -25 0 -13 -3 -22 -8 -19 -5 3 -9 12 -9
20 0 8 -9 22 -19 31 -15 13 -17 20 -8 34 8 13 7 21 -3 34 -10 12 -10 19 -2 27
18 18 14 46 -6 51 -14 4 -14 6 6 12 12 4 22 14 22 22 0 20 88 153 106 160 17
6 19 26 2 21 -7 -3 -17 4 -23 15 -19 37 -42 44 -68 19 -15 -14 -36 -22 -60
-22 -42 0 -43 -2 -21 -35 14 -22 14 -26 -10 -63 -17 -27 -37 -44 -62 -52 l-37
-13 27 -14 c20 -10 26 -19 21 -31 -31 -73 -29 -176 4 -241 57 -110 131 -151
291 -160 l105 -6 -2 -39 -3 -38 47 7 c25 4 73 16 107 28 59 21 61 23 66 62 5
38 8 41 100 92 151 85 139 81 160 53 l18 -24 39 26 c70 46 163 129 163 146 0
8 -7 23 -16 33 -15 17 -14 21 23 66 95 115 176 261 199 358 36 155 -24 304
-143 355 -32 14 -43 25 -48 49 -8 38 -14 39 -45 1 -20 -24 -33 -30 -63 -30
-23 0 -36 4 -32 10 3 6 1 10 -4 10 -6 0 -11 9 -11 20 0 27 -10 25 -35 -5 -15
-19 -39 -29 -95 -40 -41 -9 -99 -27 -128 -40 -29 -13 -50 -19 -46 -13 10 16
109 57 177 73 38 9 70 24 88 41 l29 27 24 -26 c30 -32 56 -34 82 -6 38 42 52
43 71 4 10 -21 34 -45 59 -60 145 -85 189 -292 104 -490 -22 -52 -130 -217
-169 -258 -24 -26 -25 -29 -8 -38 9 -6 17 -22 17 -36 0 -29 -43 -73 -141 -144
-79 -58 -94 -63 -117 -39 -19 20 -20 20 -118 -31 -54 -29 -100 -53 -100 -53
-1 -1 -4 -17 -7 -37 -2 -20 -8 -42 -11 -48 -4 -6 -51 -24 -105 -41 -133 -41
-157 -35 -151 38 1 21 -2 22 -72 22 -179 0 -297 81 -335 229 -15 56 -11 148 8
182 6 12 2 19 -16 27 -34 16 -31 29 10 49 19 9 44 32 55 50 18 31 18 34 2 63
-15 27 -15 32 -2 40 8 5 27 10 43 11 43 2 44 3 68 32 14 19 18 31 11 36 -6 3
-13 18 -17 33 -4 16 -12 25 -20 22 -18 -7 -125 -165 -163 -239 -52 -105 -72
-179 -72 -275 0 -77 4 -94 30 -146 35 -69 35 -71 14 -53 -39 33 45 -91 92
-136 71 -66 76 -70 112 -89 82 -42 304 -73 315 -43 4 9 7 9 18 0 16 -16 49
-17 49 -2 0 6 9 8 21 4 12 -4 31 -3 43 3 11 5 40 15 64 21 23 7 42 16 42 20 0
5 12 9 26 9 14 0 39 9 54 21 16 11 34 21 40 21 5 0 10 7 10 15 0 16 16 21 22
6 5 -14 108 59 108 76 0 9 6 12 18 9 22 -7 112 49 112 70 0 8 7 14 15 14 8 0
15 7 15 15 0 8 7 15 16 15 23 0 93 51 145 106 77 83 170 216 163 236 -3 12 0
18 10 18 9 0 16 9 16 20 0 11 4 20 9 20 17 0 34 69 22 84 -9 10 -7 15 7 18 22
6 41 80 23 86 -16 5 -14 22 3 22 16 0 26 48 20 105 -2 22 -5 47 -5 55 -3 37
-23 90 -35 90 -8 0 -11 6 -8 15 5 12 -50 115 -61 115 -6 0 23 -72 31 -79 5 -3
10 -19 10 -36 1 -16 4 -67 8 -113 4 -56 3 -81 -4 -77 -5 3 -10 21 -10 38 0 56
-28 183 -53 239 -28 64 -77 123 -121 145 -85 44 -264 62 -376 39z m411 -108
c16 -29 2 -21 -22 15 -17 23 -18 28 -6 18 10 -8 23 -23 28 -33z m189 -238 c0
-5 -4 -10 -10 -10 -5 0 -10 5 -10 10 0 6 5 10 10 10 6 0 10 -4 10 -10z m5 -70
c-3 -5 -10 -10 -16 -10 -5 0 -9 5 -9 10 0 6 7 10 16 10 8 0 12 -4 9 -10z m0
-59 c3 -5 1 -12 -5 -16 -5 -3 -10 1 -10 9 0 18 6 21 15 7z m-25 -39 c3 -2 -1
-7 -7 -9 -15 -5 -18 -53 -3 -53 6 0 10 -4 10 -10 0 -5 -6 -10 -13 -10 -7 0
-18 -17 -23 -39 -9 -31 -8 -40 5 -50 14 -10 13 -11 -6 -7 -19 3 -23 0 -23 -19
0 -13 -7 -25 -15 -29 -8 -3 -15 -12 -15 -21 0 -20 -49 -20 -57 1 -3 8 13 62
36 119 22 57 41 108 41 112 0 27 48 37 70 15z m-1360 -21 c0 -6 -4 -13 -10
-16 -5 -3 -10 1 -10 9 0 9 5 16 10 16 6 0 10 -4 10 -9z m74 -142 c-3 -5 -10
-7 -15 -3 -5 3 -7 10 -3 15 3 5 10 7 15 3 5 -3 7 -10 3 -15z m-34 -29 c0 -5
-4 -10 -10 -10 -5 0 -10 5 -10 10 0 6 5 10 10 10 6 0 10 -4 10 -10z m110 -30
c0 -5 -4 -10 -10 -10 -5 0 -10 5 -10 10 0 6 5 10 10 10 6 0 10 -4 10 -10z
m-140 -10 c0 -5 -4 -10 -10 -10 -5 0 -10 5 -10 10 0 6 5 10 10 10 6 0 10 -4
10 -10z m104 -31 c-3 -5 -10 -7 -15 -3 -5 3 -7 10 -3 15 3 5 10 7 15 3 5 -3 7
-10 3 -15z m71 11 c-3 -5 -10 -10 -16 -10 -5 0 -9 5 -9 10 0 6 7 10 16 10 8 0
12 -4 9 -10z m-95 -40 c0 -5 -7 -10 -15 -10 -8 0 -15 5 -15 10 0 6 7 10 15 10
8 0 15 -4 15 -10z m1098 4 c30 -8 29 -40 -4 -87 -29 -43 -48 -44 -72 -5 -15
25 -14 28 12 62 29 39 29 39 64 30z m92 -24 c0 -5 -7 -10 -16 -10 -8 0 -12 5
-9 10 3 6 10 10 16 10 5 0 9 -4 9 -10z m-1225 -20 c-3 -5 -10 -10 -16 -10 -5
0 -9 5 -9 10 0 6 7 10 16 10 8 0 12 -4 9 -10z m1190 -20 c-3 -5 -10 -10 -16
-10 -5 0 -9 5 -9 10 0 6 7 10 16 10 8 0 12 -4 9 -10z m-35 -36 c0 -8 -5 -12
-10 -9 -6 4 -8 11 -5 16 9 14 15 11 15 -7z m-1155 -3 c3 -5 1 -12 -5 -16 -5
-3 -10 1 -10 9 0 18 6 21 15 7z m1055 -32 c0 -6 -13 -22 -30 -36 -16 -13 -30
-31 -30 -39 0 -8 -9 -14 -20 -14 -14 0 -20 -6 -18 -17 2 -12 -3 -17 -14 -15
-9 1 -19 -2 -23 -8 -3 -5 -1 -10 4 -10 6 0 11 -5 11 -11 0 -6 -7 -8 -16 -5
-15 6 -101 -46 -117 -71 -4 -7 -15 -13 -24 -13 -9 0 -13 -6 -9 -15 3 -9 0 -15
-8 -15 -8 0 -23 -3 -33 -6 -27 -9 30 43 107 98 36 25 97 77 135 115 72 71 85
81 85 62z m70 1 c0 -5 -4 -10 -10 -10 -5 0 -10 5 -10 10 0 6 5 10 10 10 6 0
10 -4 10 -10z m-30 -40 c0 -5 -4 -10 -10 -10 -5 0 -10 5 -10 10 0 6 5 10 10
10 6 0 10 -4 10 -10z m-30 -29 c0 -6 -4 -13 -10 -16 -5 -3 -10 1 -10 9 0 9 5
16 10 16 6 0 10 -4 10 -9z m-30 -41 c0 -5 -4 -10 -10 -10 -5 0 -10 5 -10 10 0
6 5 10 10 10 6 0 10 -4 10 -10z m-36 -41 c-3 -5 -10 -7 -15 -3 -5 3 -7 10 -3
15 3 5 10 7 15 3 5 -3 7 -10 3 -15z m-100 -40 c-3 -5 -10 -7 -15 -3 -5 3 -7
10 -3 15 3 5 10 7 15 3 5 -3 7 -10 3 -15z m66 11 c0 -5 -4 -10 -10 -10 -5 0
-10 5 -10 10 0 6 5 10 10 10 6 0 10 -4 10 -10z m-95 -40 c3 -5 -1 -10 -9 -10
-9 0 -16 5 -16 10 0 6 4 10 9 10 6 0 13 -4 16 -10z m-35 -40 c0 -5 -4 -10 -10
-10 -5 0 -10 5 -10 10 0 6 5 10 10 10 6 0 10 -4 10 -10z m-965 -70 c72 -48 92
-78 65 -95 -23 -14 -160 97 -160 130 0 24 16 18 95 -35z m809 26 c29 -26 34
-46 11 -46 -8 0 -15 -7 -15 -16 0 -11 -5 -14 -16 -10 -9 4 -22 1 -30 -5 -31
-25 -91 29 -62 57 14 14 68 44 80 44 4 0 18 -11 32 -24z m126 8 c0 -8 -4 -12
-10 -9 -5 3 -10 10 -10 16 0 5 5 9 10 9 6 0 10 -7 10 -16z m-70 -4 c0 -5 -5
-10 -11 -10 -5 0 -7 5 -4 10 3 6 8 10 11 10 2 0 4 -4 4 -10z m-195 -80 c-3 -5
-13 -10 -22 -10 -9 0 -13 -6 -10 -15 8 -18 -13 -32 -23 -16 -5 9 -16 8 -43 -5
-20 -10 -34 -21 -31 -25 2 -4 -1 -11 -7 -15 -6 -3 -15 0 -20 7 -7 11 -12 12
-29 1 -11 -7 -31 -10 -45 -6 -13 3 -29 3 -36 -2 -20 -12 -83 -10 -109 4 -24
13 -23 13 15 8 53 -7 168 8 173 22 2 7 13 10 25 7 12 -2 49 8 82 24 63 31 90
38 80 21z m-450 -26 c33 -22 31 -45 -4 -66 -25 -14 -30 -14 -35 -2 -3 8 -11
14 -18 14 -17 1 -58 35 -58 48 0 24 82 28 115 6z m485 -4 c0 -5 -4 -10 -10
-10 -5 0 -10 5 -10 10 0 6 5 10 10 10 6 0 10 -4 10 -10z m-610 -40 c0 -5 -4
-10 -10 -10 -5 0 -10 5 -10 10 0 6 5 10 10 10 6 0 10 -4 10 -10z m510 0 c0 -5
-4 -10 -10 -10 -5 0 -10 5 -10 10 0 6 5 10 10 10 6 0 10 -4 10 -10z m70 0 c0
-5 -4 -10 -10 -10 -5 0 -10 5 -10 10 0 6 5 10 10 10 6 0 10 -4 10 -10z m-406
-31 c-3 -5 -10 -7 -15 -3 -5 3 -7 10 -3 15 3 5 10 7 15 3 5 -3 7 -10 3 -15z
m-134 1 c0 -5 -4 -10 -10 -10 -5 0 -10 5 -10 10 0 6 5 10 10 10 6 0 10 -4 10
-10z m370 -10 c0 -5 -4 -10 -10 -10 -5 0 -10 5 -10 10 0 6 5 10 10 10 6 0 10
-4 10 -10z m70 0 c0 -5 -4 -10 -10 -10 -5 0 -10 5 -10 10 0 6 5 10 10 10 6 0
10 -4 10 -10z m-200 -10 c0 -5 -4 -10 -10 -10 -5 0 -10 5 -10 10 0 6 5 10 10
10 6 0 10 -4 10 -10z m70 6 c0 -11 -19 -15 -25 -6 -3 5 1 10 9 10 9 0 16 -2
16 -4z m-210 -16 c0 -5 -2 -10 -4 -10 -3 0 -8 5 -11 10 -3 6 -1 10 4 10 6 0
11 -4 11 -10z m70 0 c0 -5 -4 -10 -10 -10 -5 0 -10 5 -10 10 0 6 5 10 10 10 6
0 10 -4 10 -10z"/>
<path d="M1770 1523 c-24 -94 -43 -148 -56 -164 -18 -20 -18 -40 0 -33 35 13
108 244 77 244 -4 0 -14 -21 -21 -47z"/>
<path d="M1628 1245 c2 -14 -1 -32 -8 -40 -7 -9 -10 -18 -8 -21 8 -7 48 51 48
70 0 9 -8 16 -19 16 -14 0 -17 -6 -13 -25z"/>
<path d="M1601 1236 c-8 -9 -11 -19 -7 -23 9 -9 29 13 24 27 -2 8 -8 7 -17 -4z"/>
<path d="M320 846 c0 -13 56 -69 82 -82 31 -16 62 -19 53 -4 -3 6 -13 10 -22
10 -8 0 -37 18 -64 41 -27 22 -49 38 -49 35z"/>
<path d="M1153 843 c-7 -2 -13 -9 -13 -15 0 -12 41 -6 41 7 1 12 -11 15 -28 8z"/>
<path d="M1110 820 c-11 -7 -11 -11 -1 -24 18 -22 44 -20 72 5 23 19 23 20 2
10 -28 -14 -29 -14 -46 3 -8 9 -19 11 -27 6z"/>
<path d="M530 730 c0 -13 48 -32 69 -27 13 3 12 5 -4 11 -11 4 -28 12 -37 17
-23 12 -28 11 -28 -1z"/>
<path d="M331 2028 c0 -32 2 -58 7 -58 4 0 6 19 4 43 -5 70 -10 76 -11 15z"/>
<path d="M350 1901 c0 -5 7 -12 16 -15 14 -5 15 -4 4 9 -14 17 -20 19 -20 6z"/>
<path d="M1367 1677 c28 -36 137 -147 144 -147 7 0 29 46 29 61 0 16 -77 88
-105 99 -15 6 -40 10 -56 10 -30 0 -30 0 -12 -23z m43 3 c0 -5 -4 -10 -10 -10
-5 0 -10 5 -10 10 0 6 5 10 10 10 6 0 10 -4 10 -10z m35 -29 c3 -5 1 -12 -5
-16 -5 -3 -10 1 -10 9 0 18 6 21 15 7z m39 -42 c-3 -5 -10 -7 -15 -3 -5 3 -7
10 -3 15 3 5 10 7 15 3 5 -3 7 -10 3 -15z m36 -29 c0 -5 -4 -10 -10 -10 -5 0
-10 5 -10 10 0 6 5 10 10 10 6 0 10 -4 10 -10z"/>
<path d="M753 1622 c-110 -68 -121 -78 -106 -93 8 -8 24 -3 60 17 93 54 163
105 163 119 0 24 -20 17 -117 -43z"/>
<path d="M890 1653 c12 -29 86 -111 133 -144 23 -18 27 -18 27 -4 0 18 -75
102 -132 147 l-38 30 10 -29z"/>
<path d="M1274 1639 c-16 -17 -16 -22 -4 -30 12 -7 13 -11 2 -18 -8 -4 -13
-11 -13 -15 3 -19 -2 -26 -39 -51 -30 -21 -40 -35 -40 -55 0 -21 -12 -35 -60
-70 -33 -24 -60 -47 -60 -52 0 -4 -5 -8 -12 -8 -18 0 -98 -41 -98 -50 0 -4 7
-13 15 -20 12 -10 15 -9 15 4 0 10 5 14 10 11 8 -5 7 -11 -1 -21 -9 -11 -8
-19 7 -35 13 -15 14 -18 3 -14 -8 3 -35 28 -59 56 -23 27 -45 47 -48 45 -3 -3
36 -49 87 -101 51 -54 91 -104 91 -115 0 -11 3 -20 6 -20 3 0 40 24 82 52 76
52 228 197 273 260 l24 32 -40 -23 c-22 -14 -89 -58 -150 -98 -132 -89 -97
-57 77 69 70 51 127 99 128 106 0 6 5 12 10 12 21 0 9 23 -36 68 -27 27 -40
36 -32 22 16 -26 14 -50 -4 -50 -6 0 -7 7 -4 16 9 23 -3 37 -19 24 -9 -8 -15
-8 -20 0 -3 5 1 10 10 10 12 0 8 10 -16 40 -36 45 -57 50 -85 19z m36 -5 c0
-8 -5 -12 -10 -9 -6 4 -8 11 -5 16 9 14 15 11 15 -7z m35 -23 c3 -5 1 -12 -5
-16 -5 -3 -10 1 -10 9 0 18 6 21 15 7z m-25 -41 c0 -5 -4 -10 -10 -10 -5 0
-10 5 -10 10 0 6 5 10 10 10 6 0 10 -4 10 -10z m30 -30 c0 -5 -4 -10 -10 -10
-5 0 -10 5 -10 10 0 6 5 10 10 10 6 0 10 -4 10 -10z m-60 -4 c0 -11 -19 -15
-25 -6 -3 5 1 10 9 10 9 0 16 -2 16 -4z m100 -25 c0 -6 -4 -13 -10 -16 -5 -3
-10 1 -10 9 0 9 5 16 10 16 6 0 10 -4 10 -9z m70 -1 c0 -5 -4 -10 -10 -10 -5
0 -10 5 -10 10 0 6 5 10 10 10 6 0 10 -4 10 -10z m-206 -21 c-3 -5 -10 -7 -15
-3 -5 3 -7 10 -3 15 3 5 10 7 15 3 5 -3 7 -10 3 -15z m66 11 c0 -5 -4 -10 -10
-10 -5 0 -10 5 -10 10 0 6 5 10 10 10 6 0 10 -4 10 -10z m-30 -30 c0 -5 -5
-10 -11 -10 -5 0 -7 5 -4 10 3 6 8 10 11 10 2 0 4 -4 4 -10z m70 0 c0 -5 -4
-10 -10 -10 -5 0 -10 5 -10 10 0 6 5 10 10 10 6 0 10 -4 10 -10z m70 6 c0 -11
-19 -15 -25 -6 -3 5 1 10 9 10 9 0 16 -2 16 -4z m-210 -16 c0 -5 -4 -10 -10
-10 -5 0 -10 5 -10 10 0 6 5 10 10 10 6 0 10 -4 10 -10z m175 -20 c3 -5 -1
-10 -9 -10 -9 0 -16 5 -16 10 0 6 4 10 9 10 6 0 13 -4 16 -10z m-135 -10 c0
-5 -4 -10 -10 -10 -5 0 -10 5 -10 10 0 6 5 10 10 10 6 0 10 -4 10 -10z m70 6
c0 -11 -19 -15 -25 -6 -3 5 1 10 9 10 9 0 16 -2 16 -4z m-140 -16 c0 -5 -4
-10 -10 -10 -5 0 -10 5 -10 10 0 6 5 10 10 10 6 0 10 -4 10 -10z m105 -20 c3
-5 -1 -10 -10 -10 -9 0 -13 5 -10 10 3 6 8 10 10 10 2 0 7 -4 10 -10z m-135
-10 c0 -5 -4 -10 -10 -10 -5 0 -10 5 -10 10 0 6 5 10 10 10 6 0 10 -4 10 -10z
m70 6 c0 -3 -4 -8 -10 -11 -5 -3 -10 -1 -10 4 0 6 5 11 10 11 6 0 10 -2 10 -4z
m-36 -47 c-3 -5 -10 -7 -15 -3 -5 3 -7 10 -3 15 3 5 10 7 15 3 5 -3 7 -10 3
-15z m-64 1 c0 -5 -4 -10 -10 -10 -5 0 -10 5 -10 10 0 6 5 10 10 10 6 0 10 -4
10 -10z m-36 -41 c-3 -5 -10 -7 -15 -3 -5 3 -7 10 -3 15 3 5 10 7 15 3 5 -3 7
-10 3 -15z m66 11 c0 -5 -4 -10 -10 -10 -5 0 -10 5 -10 10 0 6 5 10 10 10 6 0
10 -4 10 -10z m-130 -10 c0 -5 -4 -10 -10 -10 -5 0 -10 5 -10 10 0 6 5 10 10
10 6 0 10 -4 10 -10z"/>
<path d="M770 1565 c-58 -35 -105 -68 -105 -73 0 -5 29 -33 65 -62 36 -29 73
-60 84 -69 17 -15 18 -14 15 3 -5 27 157 122 178 105 7 -7 17 -9 20 -5 4 4
-29 42 -72 86 l-80 78 -105 -63z m200 -75 c0 -5 -4 -10 -10 -10 -5 0 -10 5
-10 10 0 6 5 10 10 10 6 0 10 -4 10 -10z"/>
<path d="M1105 1610 c-3 -5 -1 -10 4 -10 6 0 11 5 11 10 0 6 -2 10 -4 10 -3 0
-8 -4 -11 -10z"/>
<path d="M910 1414 c-41 -24 -69 -44 -61 -44 19 0 151 71 151 81 0 14 -10 10
-90 -37z"/>
<path d="M920 1321 c0 -5 5 -13 10 -16 6 -3 10 -2 10 4 0 5 -4 13 -10 16 -5 3
-10 2 -10 -4z"/>
<path d="M789 1307 c-14 -7 -34 -18 -43 -26 -56 -47 -117 -263 -87 -309 14
-23 188 16 302 67 35 16 48 27 52 48 4 24 -8 41 -90 130 -53 57 -98 103 -102
102 -3 0 -18 -6 -32 -12z"/>
<path d="M1821 1258 c-12 -33 4 -88 25 -88 12 0 12 -4 2 -20 -10 -15 -10 -22
0 -32 6 -6 12 -20 12 -29 0 -9 6 -19 14 -22 15 -6 15 -6 -5 96 -7 37 -16 57
-25 57 -16 0 -18 12 -4 26 5 5 6 15 0 24 -7 11 -11 9 -19 -12z"/>
<path d="M1914 1267 c3 -10 6 -27 6 -38 0 -13 7 -19 23 -19 19 -1 20 -2 7 -13
-17 -13 -15 -47 2 -47 5 0 7 -7 4 -16 -10 -25 14 -93 30 -87 17 6 18 -9 3 -24
-15 -15 3 -75 30 -102 25 -25 31 -26 31 -6 0 8 -7 15 -15 15 -8 0 -15 5 -15
10 0 6 5 10 10 10 15 0 12 26 -5 40 -10 9 -12 17 -6 23 5 5 6 19 2 31 -5 11
-11 42 -15 69 -5 31 -12 47 -22 47 -8 0 -14 5 -14 10 0 6 5 10 10 10 21 0 8
28 -31 65 -25 24 -39 32 -35 22z m80 -168 c-3 -5 -10 -7 -15 -3 -5 3 -7 10 -3
15 3 5 10 7 15 3 5 -3 7 -10 3 -15z"/>
<path d="M1791 1183 c0 -4 4 -17 9 -28 8 -19 9 -19 9 2 1 12 -3 25 -9 28 -5 3
-10 3 -9 -2z"/>
<path d="M2056 1102 c6 -67 26 -138 42 -150 15 -11 15 -14 2 -22 -12 -8 -13
-13 -2 -30 6 -11 12 -32 12 -48 0 -18 10 -37 31 -55 38 -34 40 -33 29 1 -5 15
-11 44 -15 65 -4 23 -11 37 -20 37 -8 0 -15 5 -15 10 0 6 5 10 10 10 13 0 13
37 -1 45 -6 4 -8 14 -5 22 9 22 -15 83 -32 83 -8 0 -12 6 -9 14 3 8 -2 21 -12
30 -16 14 -17 14 -15 -12z m44 -92 c0 -5 -4 -10 -10 -10 -5 0 -10 5 -10 10 0
6 5 10 10 10 6 0 10 -4 10 -10z m50 -170 c0 -5 -4 -10 -10 -10 -5 0 -10 5 -10
10 0 6 5 10 10 10 6 0 10 -4 10 -10z"/>
<path d="M1772 1068 c-17 -24 -62 -76 -101 -116 -39 -40 -71 -77 -71 -82 0 -6
-7 -10 -15 -10 -8 0 -15 -7 -15 -15 0 -8 -7 -15 -16 -15 -16 0 -106 -58 -112
-72 -2 -4 -10 -8 -17 -8 -7 0 -15 -9 -18 -20 -3 -12 -11 -18 -20 -15 -15 6
-87 -31 -87 -45 0 -13 84 -20 93 -7 7 9 10 9 14 0 8 -21 29 -15 63 17 18 17
36 30 40 30 4 0 10 9 13 21 3 12 10 18 17 14 11 -7 58 20 104 60 16 14 33 25
38 25 4 0 7 6 5 13 -1 6 7 12 18 12 14 0 19 6 17 19 -3 14 1 17 12 13 12 -5
16 0 16 18 0 14 4 25 9 25 14 0 61 108 55 125 -4 8 -1 15 5 15 6 0 11 9 11 20
0 33 -24 23 -58 -22z m28 -42 c0 -11 -19 -15 -25 -6 -3 5 1 10 9 10 9 0 16 -2
16 -4z m-36 -47 c-3 -5 -10 -7 -15 -3 -5 3 -7 10 -3 15 3 5 10 7 15 3 5 -3 7
-10 3 -15z m-34 -29 c0 -5 -4 -10 -10 -10 -5 0 -10 5 -10 10 0 6 5 10 10 10 6
0 10 -4 10 -10z m-34 -47 c-10 -10 -19 5 -10 18 6 11 8 11 12 0 2 -7 1 -15 -2
-18z m-26 -23 c0 -5 -4 -10 -10 -10 -5 0 -10 5 -10 10 0 6 5 10 10 10 6 0 10
-4 10 -10z m-30 -40 c0 -5 -4 -10 -10 -10 -5 0 -10 5 -10 10 0 6 5 10 10 10 6
0 10 -4 10 -10z m-36 -41 c-3 -5 -10 -7 -15 -3 -5 3 -7 10 -3 15 3 5 10 7 15
3 5 -3 7 -10 3 -15z m-64 1 c0 -5 -4 -10 -10 -10 -5 0 -10 5 -10 10 0 6 5 10
10 10 6 0 10 -4 10 -10z m-35 -29 c3 -5 1 -12 -5 -16 -5 -3 -10 1 -10 9 0 18
6 21 15 7z m70 -1 c-3 -5 -10 -10 -16 -10 -5 0 -9 5 -9 10 0 6 7 10 16 10 8 0
12 -4 9 -10z m-95 -40 c0 -5 -7 -10 -16 -10 -8 0 -12 5 -9 10 3 6 10 10 16 10
5 0 9 -4 9 -10z m-39 -43 c-13 -13 -26 -3 -16 12 3 6 11 8 17 5 6 -4 6 -10 -1
-17z m-61 3 c0 -5 -4 -10 -10 -10 -5 0 -10 5 -10 10 0 6 5 10 10 10 6 0 10 -4
10 -10z"/>
<path d="M1810 975 c-40 -87 -43 -118 -15 -129 8 -3 15 -12 15 -20 0 -7 9 -16
19 -19 16 -4 25 8 51 67 40 88 41 120 1 160 l-30 30 -41 -89z"/>
<path d="M2164 978 c4 -13 8 -32 10 -43 9 -63 18 -84 32 -78 19 7 18 32 -1 39
-10 4 -13 13 -9 26 7 22 -13 78 -28 78 -6 0 -7 -10 -4 -22z"/>
<path d="M1947 827 c-20 -50 -37 -98 -37 -104 0 -7 -4 -12 -9 -10 -14 4 -311
-206 -311 -220 0 -15 -16 -18 -24 -4 -3 4 -36 9 -73 10 l-68 2 39 -33 c51 -43
61 -46 125 -47 46 -1 52 1 41 14 -17 20 7 21 29 1 14 -12 35 -1 166 90 122 85
149 108 147 125 -2 13 0 19 7 14 7 -4 19 12 31 39 11 25 29 66 40 91 l20 45
-36 40 c-20 22 -39 40 -43 40 -3 0 -23 -42 -44 -93z m8 -155 c-11 -12 -38 27
-31 44 6 15 9 14 22 -11 8 -15 12 -30 9 -33z"/>
<path d="M1614 758 c-76 -55 -148 -106 -158 -114 -19 -13 -19 -14 -1 -34 10
-11 13 -20 7 -20 -7 0 -12 4 -12 8 0 16 -53 33 -119 38 l-66 6 33 -31 c26 -25
42 -31 80 -32 26 -1 72 -3 102 -4 55 -2 56 -2 200 98 80 55 147 102 149 104 8
6 -42 52 -50 47 -5 -3 -9 2 -9 10 0 8 -4 17 -8 20 -4 3 -71 -40 -148 -96z"/>
<path d="M2213 843 c-14 -5 -18 -53 -5 -53 5 0 9 -14 9 -31 0 -18 9 -39 21
-52 l22 -21 0 22 c0 12 -7 25 -15 28 -9 4 -12 11 -7 18 12 16 -10 94 -25 89z"/>
<path d="M2077 708 c-35 -79 -47 -125 -29 -114 5 3 15 -6 22 -19 20 -38 36
-30 63 29 54 117 54 122 22 156 -16 16 -32 30 -35 30 -4 0 -23 -37 -43 -82z"/>
<path d="M2206 692 c-3 -5 -21 -46 -40 -91 -31 -70 -33 -82 -21 -95 17 -17 20
-36 5 -36 -5 0 -10 6 -10 14 0 8 -6 16 -14 19 -14 5 -298 -185 -304 -204 -4
-11 49 -60 61 -56 4 1 70 45 147 97 88 60 139 101 140 113 0 9 6 17 14 17 7 0
30 38 52 86 l38 85 -31 31 c-17 17 -33 26 -37 20z"/>
<path d="M1245 680 c3 -5 15 -10 26 -10 11 0 17 5 14 10 -3 6 -15 10 -26 10
-11 0 -17 -4 -14 -10z"/>
<path d="M1870 499 c-80 -55 -146 -106 -148 -114 -2 -8 -11 -14 -20 -13 -9 1
-39 0 -66 0 l-49 -2 23 -25 c20 -21 33 -25 82 -25 61 0 69 5 41 26 -15 11 -15
13 -3 14 9 0 23 -9 33 -20 17 -20 18 -20 120 51 56 39 126 87 155 107 41 28
50 38 41 48 -6 8 -17 14 -24 14 -7 0 -15 9 -18 20 -3 11 -9 20 -14 20 -4 -1
-73 -46 -153 -101z"/>
<path d="M2296 498 c-14 -41 -15 -48 -6 -53 4 -3 11 1 14 7 3 7 4 4 1 -8 -3
-12 1 -27 10 -34 19 -16 20 -1 1 60 -10 32 -16 40 -20 28z"/>
<path d="M2197 370 c-26 -16 -47 -34 -47 -40 0 -5 -9 -10 -21 -10 -14 0 -19
-5 -16 -15 7 -17 -9 -30 -18 -15 -4 6 -18 2 -36 -11 l-30 -21 27 -29 c29 -31
51 -33 46 -5 -2 9 2 16 8 16 5 0 10 -5 10 -10 0 -6 12 -15 26 -20 23 -9 34 -4
90 37 35 26 64 53 64 60 0 7 7 13 15 13 8 0 15 5 15 10 0 17 -28 11 -39 -7 -9
-16 -12 -16 -21 -3 -16 24 -12 30 18 30 l27 0 -30 25 c-16 13 -32 24 -36 25
-3 0 -26 -13 -52 -30z m53 6 c0 -3 -4 -8 -10 -11 -5 -3 -10 -1 -10 4 0 6 5 11
10 11 6 0 10 -2 10 -4z m-30 -36 c0 -5 -7 -10 -16 -10 -8 0 -12 5 -9 10 3 6
10 10 16 10 5 0 9 -4 9 -10z m30 -36 c0 -8 -4 -12 -10 -9 -5 3 -10 10 -10 16
0 5 5 9 10 9 6 0 10 -7 10 -16z m-65 -4 c-3 -5 -10 -10 -16 -10 -5 0 -9 5 -9
10 0 6 7 10 16 10 8 0 12 -4 9 -10z m-35 -36 c0 -8 -5 -12 -10 -9 -6 4 -8 11
-5 16 9 14 15 11 15 -7z m70 6 c0 -5 -4 -10 -10 -10 -5 0 -10 5 -10 10 0 6 5
10 10 10 6 0 10 -4 10 -10z m-135 -10 c-3 -5 -10 -10 -16 -10 -5 0 -9 5 -9 10
0 6 7 10 16 10 8 0 12 -4 9 -10z m105 -24 c0 -3 -4 -8 -10 -11 -5 -3 -10 -1
-10 4 0 6 5 11 10 11 6 0 10 -2 10 -4z"/>
<path d="M1715 282 l-29 -7 27 -18 c20 -13 42 -17 77 -15 45 3 47 4 35 21 -15
20 -65 29 -110 19z"/>
<path d="M2100 191 c0 -11 31 -24 39 -16 3 3 -1 10 -9 15 -19 12 -30 12 -30 1z"/>
<path d="M1180 560 c0 -5 7 -10 15 -10 8 0 15 5 15 10 0 6 -7 10 -15 10 -8 0
-15 -4 -15 -10z"/>
</g>
</svg>
