<?xml version="1.0" standalone="no"?>
<!DOCTYPE svg PUBLIC "-//W3C//DTD SVG 20010904//EN"
 "http://www.w3.org/TR/2001/REC-SVG-20010904/DTD/svg10.dtd">
<svg version="1.0" xmlns="http://www.w3.org/2000/svg"
 width="256.000000pt" height="256.000000pt" viewBox="0 0 256.000000 256.000000"
 preserveAspectRatio="xMidYMid meet">
<metadata>
Created by potrace 1.16, written by Peter Selinger 2001-2019
</metadata>
<g transform="translate(0.000000,256.000000) scale(0.100000,-0.100000)"
fill="#e5e5e5" stroke="none">
<path d="M1581 2350 c-147 -39 -277 -121 -365 -230 -105 -130 -104 -130 -150
-130 -40 0 -49 6 -112 65 -88 84 -153 117 -248 123 -101 6 -137 -8 -211 -84
-120 -123 -165 -253 -170 -489 -1 -84 -7 -140 -15 -155 -7 -14 -55 -68 -106
-122 -137 -142 -139 -149 -139 -343 1 -255 30 -356 135 -468 103 -111 232
-187 430 -253 l115 -39 225 0 225 0 147 42 c80 24 184 61 231 83 73 35 98 54
184 143 73 75 108 120 131 168 33 69 82 242 82 289 0 69 39 113 150 171 96 50
181 117 243 194 155 192 175 401 76 770 -13 49 -149 186 -224 227 -77 41 -191
58 -389 57 -135 0 -186 -4 -245 -19z m467 -96 c115 -23 157 -45 173 -88 8 -23
19 -36 31 -36 22 0 98 -67 98 -87 0 -8 -6 -26 -14 -41 -13 -25 -12 -29 8 -49
31 -30 46 -84 53 -185 9 -144 -18 -241 -102 -367 -69 -102 -189 -182 -348
-232 l-77 -24 0 -82 0 -83 -46 0 c-27 0 -43 4 -39 10 3 6 13 10 21 10 11 0 14
16 14 75 0 68 -2 75 -20 75 -15 0 -20 -7 -20 -27 -1 -16 -7 -39 -14 -52 -8
-14 -11 -32 -8 -40 3 -9 1 -12 -6 -7 -6 3 -15 -2 -21 -11 -9 -14 -10 -11 -8
19 1 21 5 38 9 38 3 0 4 9 1 20 -3 11 -9 17 -14 14 -5 -3 -9 -1 -9 4 0 6 7 12
15 16 17 6 21 36 5 36 -5 0 -10 -6 -10 -12 0 -8 -3 -9 -8 -3 -11 16 -62 36
-62 25 0 -6 4 -10 8 -10 4 0 8 -9 9 -20 1 -11 -3 -20 -8 -20 -6 0 -8 -4 -5 -9
10 -15 -5 -41 -23 -41 -9 0 -22 -4 -30 -9 -11 -7 -11 -13 3 -32 9 -13 16 -28
16 -34 0 -5 -11 6 -24 26 -49 72 -147 84 -258 32 -36 -17 -101 -55 -144 -84
-104 -71 -113 -76 -87 -47 l23 24 -63 1 c-65 0 -191 23 -170 30 8 3 -6 24 -35
53 -76 78 -74 70 -25 117 28 27 40 44 32 49 -8 4 -4 11 12 20 20 10 27 10 41
-2 19 -18 29 -7 26 32 -5 57 -188 144 -304 144 -69 0 -149 -17 -165 -36 -10
-12 -5 -14 27 -15 39 -1 39 -1 -9 -9 -27 -5 -50 -10 -52 -12 -2 -2 33 -3 78
-4 60 0 97 -7 137 -23 68 -26 136 -74 132 -91 -1 -7 4 -23 12 -35 13 -20 13
-25 2 -35 -11 -9 -17 -2 -28 32 -17 52 -53 78 -145 109 -45 15 -90 22 -142 22
-91 0 -136 -20 -207 -88 -25 -25 -49 -45 -54 -45 -4 0 -13 -34 -20 -75 -21
-120 2 -295 50 -387 28 -55 62 -97 78 -97 6 -1 12 -7 12 -14 0 -14 37 -40 43
-29 2 4 2 2 1 -5 -2 -7 24 -28 56 -48 33 -20 60 -43 60 -51 0 -10 6 -13 18
-10 25 8 92 -21 92 -39 0 -8 5 -15 10 -15 6 0 10 5 10 10 0 12 36 5 87 -16 22
-9 31 -18 27 -27 -4 -13 -18 -11 -87 10 -226 68 -411 198 -456 319 -52 137
-68 378 -30 448 27 51 116 142 159 164 24 11 42 32 56 62 12 25 30 53 41 62
19 17 19 19 2 85 -22 85 -23 107 -3 224 19 117 65 217 136 295 l52 56 62 -5
c172 -13 321 -197 273 -335 -7 -21 -7 -37 0 -50 9 -17 19 -19 83 -14 40 2 89
0 109 -6 l36 -10 5 102 c4 81 11 114 32 166 69 162 202 267 411 325 72 20 315
19 413 -1z m-1655 -1119 c61 -13 168 -63 182 -84 2 -5 -36 6 -85 25 -49 19
-116 36 -147 39 l-58 5 40 -14 c22 -8 57 -17 79 -21 49 -8 41 -15 -26 -24
l-53 -6 2 -55 c2 -30 8 -67 14 -82 19 -46 48 -36 149 51 l65 56 -34 -44 c-45
-57 -107 -101 -142 -101 -55 0 -149 128 -149 201 0 10 4 29 10 43 11 31 47 34
153 11z m381 -40 c-4 -8 -10 -12 -15 -9 -14 8 -10 24 6 24 9 0 12 -6 9 -15z
m-25 -11 c18 -13 20 -18 10 -25 -21 -13 -29 -11 -29 10 0 11 -6 22 -12 24 -7
3 -8 6 -3 6 6 1 21 -6 34 -15z m-82 -54 c-22 -9 -35 -20 -32 -28 3 -9 0 -10
-15 -2 -31 17 -32 29 -3 35 15 4 37 10 48 14 11 5 24 6 30 3 5 -4 -7 -13 -28
-22z m-57 -35 c12 -15 8 -19 -20 -16 -9 1 -24 -13 -34 -30 -20 -34 -128 -109
-158 -109 -10 0 -18 -4 -18 -10 0 -5 6 -10 14 -10 8 0 13 -8 12 -17 0 -10 5
-17 12 -16 6 2 12 -4 12 -12 0 -8 11 -17 25 -21 14 -3 25 -10 25 -14 0 -17 99
-20 195 -6 239 36 366 75 607 188 170 79 214 74 224 -24 4 -37 3 -40 -6 -18
-16 35 -40 60 -60 60 -15 0 -17 -10 -14 -77 l3 -78 -13 55 c-27 109 -37 114
-62 34 -43 -138 -203 -265 -390 -310 -45 -11 -113 -17 -194 -17 -111 -1 -134
2 -203 26 -43 15 -99 39 -125 53 -26 14 -38 22 -27 18 11 -3 39 -12 63 -20
l42 -13 0 32 c0 45 -25 77 -60 77 -15 0 -52 11 -82 25 -51 24 -47 35 6 15 17
-6 26 -6 26 0 0 6 -4 10 -8 10 -16 0 -124 115 -143 152 -27 52 -23 71 5 25 53
-87 77 -98 148 -73 33 12 157 108 166 129 6 11 18 8 32 -8z m1256 -42 c-3 -10
-10 -39 -15 -64 -6 -26 -15 -58 -21 -73 -9 -26 -11 -26 -39 -11 -31 16 -53 39
-27 29 10 -4 16 5 22 28 4 18 7 39 5 46 -1 6 2 12 7 12 5 0 9 7 9 15 0 8 -4
15 -9 15 -5 0 -6 5 -3 10 3 6 22 10 41 10 29 0 34 -3 30 -17z m-81 -163 c17
-8 31 -15 33 -16 8 -5 -61 -134 -72 -134 -17 0 -71 58 -63 67 4 3 7 2 7 -3 0
-5 9 -10 20 -10 15 0 22 9 26 33 3 18 11 33 18 33 7 0 7 3 1 8 -11 8 -17 45
-6 40 3 -2 20 -10 36 -18z m-55 -34 c0 -3 -4 -8 -10 -11 -5 -3 -10 -1 -10 4 0
6 5 11 10 11 6 0 10 -2 10 -4z m1 -144 c-6 -2 -25 -18 -43 -35 -18 -18 -47
-44 -64 -58 -17 -14 -33 -31 -36 -39 -3 -9 -12 -1 -26 22 -25 40 -30 75 -7 44
8 -11 15 -14 15 -8 0 7 7 12 15 12 8 0 15 5 15 10 0 6 7 10 15 10 8 0 15 7 15
15 0 8 6 15 14 15 16 0 26 21 26 58 l0 26 35 -34 c20 -19 31 -36 26 -38z
m-1083 -130 c-28 -5 -71 15 -102 46 -25 27 -24 27 48 -8 50 -24 67 -36 54 -38z
m908 4 c12 -22 13 -27 2 -24 -14 6 -109 -38 -120 -56 -10 -13 -28 10 -28 36 0
26 12 51 19 39 9 -14 51 -2 51 15 0 7 6 11 14 8 8 -3 16 4 20 18 7 25 11 21
42 -36z m-355 -5 c-11 -15 -32 -36 -46 -45 -14 -9 -23 -22 -19 -28 4 -7 3 -8
-4 -4 -15 9 -100 -46 -95 -61 7 -18 23 -16 23 3 0 9 9 18 20 21 11 3 20 9 20
13 0 11 54 -1 62 -14 4 -6 10 -7 14 -3 4 4 2 13 -4 19 -14 14 -16 32 -2 23 10
-6 114 43 165 78 l30 21 -22 -25 c-30 -33 -29 -47 2 -41 14 2 22 8 19 13 -3 5
1 9 9 9 13 0 27 -28 27 -56 0 -6 -17 -14 -38 -18 -21 -3 -83 -19 -136 -36 -88
-27 -112 -30 -231 -30 -175 0 -225 7 -225 31 0 17 9 19 95 18 99 -1 175 17
225 51 14 10 34 20 46 24 11 3 33 20 49 36 36 38 42 38 16 1z m269 25 c0 -3
-4 -8 -10 -11 -5 -3 -10 -1 -10 4 0 6 5 11 10 11 6 0 10 -2 10 -4z"/>
<path d="M1665 2224 c-101 -22 -239 -92 -301 -153 -87 -87 -134 -201 -134
-326 0 -118 44 -187 134 -209 27 -7 28 -6 21 21 -4 15 -9 39 -12 53 -2 13 -10
28 -16 32 -9 6 -9 8 1 8 13 0 9 49 -5 59 -12 9 -14 31 -4 31 6 0 13 -4 16 -10
3 -5 11 -10 18 -10 6 0 1 7 -12 16 -16 11 -19 19 -11 24 6 4 15 38 20 75 7 54
13 73 31 86 13 10 27 15 31 13 4 -3 8 0 8 5 0 6 4 11 9 11 5 0 34 16 66 35 32
19 62 36 69 39 8 3 7 7 -2 14 -11 7 -11 10 3 15 9 4 13 3 10 -3 -3 -6 -2 -10
2 -10 5 0 17 -6 27 -13 17 -13 17 -14 0 -28 -16 -13 -17 -12 -11 6 l7 20 -16
-20 c-8 -11 -20 -19 -25 -17 -12 3 -92 -38 -86 -44 3 -3 31 1 63 9 33 8 102
22 154 32 52 9 106 21 120 27 14 7 29 11 33 10 4 -1 3 7 -3 18 -6 11 -13 20
-16 20 -3 0 -2 -5 1 -11 8 -12 -25 -40 -38 -32 -17 10 -130 3 -146 -9 -9 -7
-13 -8 -8 -3 4 4 -4 16 -19 25 -21 14 -23 18 -9 24 9 3 13 2 10 -4 -10 -17 7
-11 22 8 12 14 14 14 10 1 -5 -14 5 -15 71 -12 43 3 84 7 92 10 8 4 21 5 28 4
8 -1 21 4 30 11 11 8 10 5 -3 -11 -11 -14 -14 -21 -7 -17 7 4 18 3 25 -2 16
-13 117 -3 117 12 0 20 52 64 103 85 27 12 45 25 42 31 -36 58 -338 90 -510
54z"/>
<path d="M2120 2113 c-76 -39 -73 -53 5 -29 48 15 65 25 65 38 0 24 -7 23 -70
-9z"/>
<path d="M2170 2083 c-49 -17 -130 -57 -130 -63 0 -12 26 -30 33 -23 4 3 7
-10 7 -30 0 -29 -4 -35 -19 -34 -11 0 -17 5 -15 9 3 5 10 6 15 3 5 -3 6 1 3
10 -6 14 -9 14 -28 2 -24 -16 -41 -47 -51 -94 -5 -26 -3 -34 15 -43 18 -10 29
-8 56 6 28 15 37 16 52 6 25 -18 42 -25 47 -20 9 9 -26 107 -41 116 -8 4 -17
26 -19 48 -3 21 -3 33 1 26 3 -6 10 -10 15 -6 8 5 13 -9 10 -29 -1 -4 11 -26
25 -49 23 -37 31 -63 33 -117 1 -9 9 -11 29 -7 24 6 25 5 10 -7 -14 -11 -15
-16 -5 -27 7 -7 -6 -3 -28 9 -22 12 -31 15 -19 6 20 -15 21 -18 7 -78 -8 -34
-28 -86 -44 -114 -19 -34 -25 -53 -17 -53 7 -1 2 -7 -11 -14 -23 -13 -23 -14
-5 -19 15 -4 15 -5 2 -6 -9 0 -20 -11 -23 -22 -5 -16 -9 -18 -15 -9 -4 7 -13
9 -19 6 -6 -4 -8 -12 -5 -18 5 -7 2 -8 -5 -4 -8 5 -14 0 -18 -13 -3 -11 -9
-18 -14 -15 -5 3 -12 -2 -15 -10 -3 -9 -12 -16 -19 -16 -7 0 -15 -3 -17 -7 -1
-5 -17 -15 -34 -24 -37 -20 -80 -5 -64 21 9 13 11 13 20 0 7 -11 10 -11 10 -2
0 7 4 10 10 7 14 -8 70 26 63 38 -3 6 -1 7 5 3 15 -9 77 57 79 84 2 26 6 31
26 34 8 1 22 8 31 15 17 15 50 97 60 154 6 32 4 37 -12 37 -30 0 -49 -22 -61
-72 -8 -36 -8 -52 0 -67 7 -10 9 -26 5 -36 -5 -14 -15 -17 -51 -13 -33 4 -45
2 -45 -8 0 -14 -11 -19 -90 -33 -84 -16 -371 -79 -375 -83 -8 -7 67 -78 76
-72 6 3 10 0 8 -7 -1 -8 -1 -23 1 -34 l1 -20 9 20 c5 11 9 14 9 8 1 -21 21
-14 21 7 0 11 4 20 9 20 5 0 7 -8 4 -19 -4 -16 0 -18 33 -14 21 2 42 9 46 16
4 7 8 8 8 2 0 -7 15 -9 35 -7 31 4 34 6 23 19 -8 10 8 5 40 -11 48 -24 73 -46
36 -32 -9 4 -23 1 -30 -5 -12 -9 -13 -9 -8 4 5 14 1 15 -28 6 -18 -6 -61 -11
-95 -10 -44 1 -63 -3 -63 -12 0 -8 -4 -7 -10 3 -8 13 -11 13 -19 1 -14 -22 11
-97 30 -86 5 4 9 0 9 -8 0 -36 110 -45 215 -17 44 11 82 25 83 30 2 6 12 10
21 10 10 0 51 16 91 36 181 91 286 268 283 479 -1 123 -18 175 -65 198 -20 10
-60 21 -89 24 l-52 6 32 29 c17 15 52 34 76 40 42 11 44 13 28 30 -16 18 -87
24 -123 11z"/>
<path d="M634 2036 c-64 -28 -135 -143 -159 -255 -17 -84 -20 -201 -5 -201 6
0 10 -6 9 -12 -4 -33 2 -59 12 -53 6 4 10 1 8 -6 -3 -29 2 -37 21 -32 11 3 20
13 21 22 0 10 2 11 6 4 8 -20 23 -15 23 8 0 11 -4 18 -8 15 -4 -2 -8 7 -8 22
0 50 -15 133 -23 128 -4 -3 -8 8 -8 25 l0 30 26 -25 c21 -21 25 -34 22 -71 -1
-27 2 -45 8 -45 6 0 11 -18 11 -39 0 -44 17 -63 34 -39 8 11 18 13 34 7 24 -9
49 -3 70 17 14 15 16 28 2 19 -5 -3 -10 -1 -10 4 0 6 4 11 10 11 5 0 6 7 3 17
-4 11 -3 14 5 9 8 -5 12 1 12 18 0 13 -6 27 -12 29 -9 4 -7 6 3 6 9 1 16 8 16
16 0 8 -4 12 -8 9 -4 -2 -10 0 -14 6 -3 6 1 13 10 16 12 5 13 9 5 14 -7 5 -8
10 -3 13 6 4 21 -5 34 -20 13 -14 19 -23 13 -20 -12 7 -24 -34 -24 -80 0 -25
1 -25 25 -9 13 9 33 16 44 16 11 0 25 8 30 18 6 9 11 11 11 5 0 -7 4 -13 9
-13 4 0 11 22 14 50 3 27 14 72 23 98 17 47 17 52 1 94 -46 120 -204 214 -293
174z m112 -97 c31 -15 43 -26 40 -36 -5 -12 7 -47 21 -63 2 -2 15 9 28 25 24
28 23 26 -5 -35 -30 -63 -30 -65 -11 -78 18 -13 18 -15 3 -31 -16 -17 -18 -17
-38 1 -20 18 -21 22 -9 45 7 14 12 31 10 37 -2 6 -6 23 -9 38 -3 15 -15 29
-25 33 -10 3 -22 17 -25 30 -12 47 -88 45 -91 -3 -1 -12 -5 -25 -10 -29 -4 -5
-5 -1 -3 7 3 8 -1 28 -9 44 -8 15 -11 26 -6 23 5 -3 15 -2 23 4 24 15 68 10
116 -12z m-153 -86 c-24 -51 -33 -115 -18 -148 8 -20 8 -20 -13 -1 -26 22 -23
60 9 135 10 24 17 47 14 51 -3 5 1 11 7 13 7 3 4 6 -7 6 -17 1 -17 3 -5 11 11
7 18 5 26 -5 8 -11 5 -26 -13 -62z m207 -237 c0 -3 -4 -8 -10 -11 -5 -3 -10
-1 -10 4 0 6 5 11 10 11 6 0 10 -2 10 -4z m-180 -90 c0 -3 -4 -8 -10 -11 -5
-3 -10 -1 -10 4 0 6 5 11 10 11 6 0 10 -2 10 -4z"/>
<path d="M751 1914 c0 -11 3 -14 6 -6 3 7 2 16 -1 19 -3 4 -6 -2 -5 -13z"/>
<path d="M2271 2028 c-19 -5 -43 -16 -54 -23 -18 -13 -17 -14 19 -24 53 -15
51 -15 69 19 23 45 23 45 -34 28z"/>
<path d="M1949 2017 l-47 -9 -26 -97 c-14 -54 -26 -102 -26 -108 0 -8 13 -8
43 -1 52 11 68 26 45 39 -15 8 -15 14 -1 67 9 33 26 67 40 80 34 31 26 39 -28
29z"/>
<path d="M1850 2000 c-13 -9 -13 -11 0 -20 22 -15 30 -12 30 10 0 22 -8 25
-30 10z"/>
<path d="M1776 1964 c-3 -9 -6 -23 -6 -31 0 -14 3 -14 19 1 11 10 25 15 30 11
36 -22 -20 -143 -60 -130 -14 5 -21 0 -28 -17 -12 -31 2 -34 44 -8 40 25 85
95 85 132 0 46 -69 81 -84 42z"/>
<path d="M1628 1950 c-102 -23 -105 -24 -110 -54 -6 -31 -9 -31 105 -7 97 20
95 22 72 -53 -17 -56 -19 -76 -6 -76 8 0 61 172 61 198 0 15 -27 14 -122 -8z"/>
<path d="M1454 1911 c-48 -12 -54 -19 -54 -63 0 -39 1 -40 27 -33 31 7 43 21
43 48 0 10 6 20 14 23 19 7 29 34 13 33 -7 -1 -26 -4 -43 -8z"/>
<path d="M1535 1841 c-25 -5 -33 -14 -47 -56 -25 -77 -27 -75 62 -56 44 10 83
21 87 24 13 14 -6 17 -46 8 -46 -10 -45 -11 -30 42 6 22 9 40 7 41 -2 1 -16 0
-33 -3z"/>
<path d="M1627 1833 c-4 -3 -7 -15 -7 -25 0 -30 47 -24 52 7 4 21 1 25 -17 25
-12 0 -25 -3 -28 -7z"/>
<path d="M2039 1796 c-37 -25 -75 -74 -65 -83 14 -14 58 10 68 38 5 16 19 34
29 40 19 10 26 29 11 29 -4 0 -23 -11 -43 -24z"/>
<path d="M1434 1792 c-17 -11 -25 -92 -9 -92 18 0 23 9 31 58 6 41 1 50 -22
34z"/>
<path d="M1942 1790 c-42 -10 -48 -16 -60 -62 -9 -34 -8 -38 8 -38 29 0 50 11
50 26 0 8 14 28 30 46 17 17 30 33 30 34 0 5 -19 3 -58 -6z"/>
<path d="M1847 1763 c-3 -5 -15 -46 -28 -93 -12 -47 -26 -88 -31 -91 -5 -3
-51 -14 -103 -24 -56 -11 -95 -24 -95 -31 0 -8 26 -6 93 7 135 27 130 24 157
125 12 49 25 95 28 102 4 13 -14 17 -21 5z"/>
<path d="M1713 1743 l-71 -15 -21 -76 c-11 -42 -18 -78 -15 -81 6 -6 44 34 79
82 15 20 35 31 68 39 26 5 47 13 47 16 0 4 3 17 6 30 7 26 7 26 -93 5z"/>
<path d="M1574 1701 c-18 -11 -43 -34 -57 -53 -24 -32 -63 -145 -53 -155 8 -8
85 8 92 19 4 6 0 14 -7 19 -12 7 -11 19 4 76 10 37 21 69 25 71 21 7 34 21 31
31 -3 7 -15 4 -35 -8z"/>
<path d="M1393 1650 c12 -99 26 -140 47 -140 5 0 11 18 15 39 4 22 15 56 24
75 l18 35 -29 -6 c-22 -4 -35 0 -55 18 l-25 24 5 -45z"/>
<path d="M1967 1683 c-4 -3 -7 -17 -7 -29 0 -25 26 -44 59 -44 23 0 28 18 7
26 -8 3 -11 15 -8 30 4 20 0 24 -20 24 -14 0 -28 -3 -31 -7z"/>
<path d="M1878 1663 c-9 -2 -19 -16 -23 -31 -3 -15 -8 -36 -12 -46 -5 -17 -1
-18 38 -12 53 8 67 20 50 40 -7 8 -10 24 -6 36 6 20 -6 24 -47 13z"/>
<path d="M990 1633 c-14 -2 -76 -29 -138 -58 -123 -59 -135 -76 -77 -104 25
-12 41 -12 124 4 114 21 212 34 341 43 l95 7 -44 20 c-24 11 -57 33 -72 50
-28 29 -29 29 -43 10 -15 -19 -15 -19 -16 8 l0 27 -72 -1 c-40 -1 -84 -4 -98
-6z"/>
<path d="M1749 1628 c-8 -7 -22 -22 -29 -32 -14 -18 -13 -19 20 -13 18 4 38
13 42 20 12 19 9 37 -5 37 -7 0 -20 -6 -28 -12z"/>
<path d="M1386 1511 c-15 -6 -12 -9 18 -18 20 -6 36 -9 36 -6 0 5 -27 33 -32
32 -2 0 -11 -4 -22 -8z"/>
<path d="M2062 1495 c0 -16 2 -22 5 -12 2 9 2 23 0 30 -3 6 -5 -1 -5 -18z"/>
<path d="M1117 1476 c-33 -14 -61 -27 -65 -30 -12 -13 21 -5 58 14 22 11 57
24 77 29 28 7 32 9 13 10 -14 0 -51 -10 -83 -23z"/>
<path d="M630 1470 c-7 -13 -7 -20 -1 -20 6 0 15 9 21 20 7 13 7 20 1 20 -6 0
-15 -9 -21 -20z"/>
<path d="M1024 1465 c-24 -18 -7 -19 26 0 16 9 19 14 9 15 -8 0 -24 -7 -35
-15z"/>
<path d="M1380 1470 c8 -5 22 -9 30 -9 10 0 8 3 -5 9 -27 12 -43 12 -25 0z"/>
<path d="M512 1429 c-45 -22 -82 -62 -82 -86 0 -10 12 -5 35 16 20 17 42 31
50 31 15 0 51 47 43 55 -2 2 -23 -5 -46 -16z"/>
<path d="M710 1446 c0 -2 7 -6 15 -10 8 -3 15 -1 15 4 0 6 -7 10 -15 10 -8 0
-15 -2 -15 -4z"/>
<path d="M1475 1426 c17 -14 33 -25 36 -26 11 0 60 -81 54 -89 -2 -5 3 -17 13
-28 9 -10 14 -14 10 -9 -11 14 -10 28 2 21 16 -10 12 4 -12 38 -35 51 -71 88
-103 104 l-30 15 30 -26z"/>
<path d="M955 1430 c-3 -5 1 -10 9 -10 9 0 16 5 16 10 0 6 -4 10 -9 10 -6 0
-13 -4 -16 -10z"/>
<path d="M1355 1423 c28 -10 65 -29 83 -41 17 -13 32 -19 32 -13 0 20 -78 63
-122 67 l-43 5 50 -18z"/>
<path d="M665 1420 c-3 -5 3 -10 15 -10 12 0 18 5 15 10 -3 6 -10 10 -15 10
-5 0 -12 -4 -15 -10z"/>
<path d="M1055 1381 c-20 -27 -48 -54 -63 -60 -22 -8 -23 -10 -6 -10 11 -1 27
5 36 12 26 19 89 107 78 107 -6 0 -26 -22 -45 -49z"/>
<path d="M1250 1400 c0 -4 21 -15 47 -24 37 -13 44 -13 33 -3 -19 18 -80 39
-80 27z"/>
<path d="M1120 1378 c-18 -13 -40 -34 -49 -48 l-15 -25 29 25 c23 20 22 16 -8
-18 -20 -23 -37 -47 -37 -54 0 -6 -3 -9 -6 -6 -3 4 0 16 6 28 11 20 10 21 -9
11 -45 -24 -38 -97 15 -167 20 -25 30 -43 22 -39 -9 6 -10 5 -3 -3 6 -6 30
-15 54 -21 106 -23 211 55 211 159 0 37 -33 112 -60 138 -12 11 -37 23 -57 27
-19 3 -40 8 -47 11 -7 3 -27 -6 -46 -18z m-12 -98 c-22 -30 -35 -41 -22 -17 9
16 36 47 41 47 2 0 -6 -13 -19 -30z m202 -101 c0 -5 -4 -7 -10 -4 -5 3 -22 -6
-36 -22 l-25 -28 22 33 c22 31 49 43 49 21z m-20 -39 c-6 -11 -13 -20 -16 -20
-2 0 0 9 6 20 6 11 13 20 16 20 2 0 0 -9 -6 -20z"/>
<path d="M1460 1305 c13 -14 26 -25 28 -25 3 0 -5 11 -18 25 -13 14 -26 25
-28 25 -3 0 5 -11 18 -25z"/>
<path d="M1508 1303 c7 -3 16 -2 19 1 4 3 -2 6 -13 5 -11 0 -14 -3 -6 -6z"/>
<path d="M1506 1283 c-4 -5 -31 -8 -59 -8 l-51 0 -2 -37 c-2 -20 -9 -49 -17
-64 -14 -26 -14 -25 -9 24 3 35 1 52 -7 52 -6 0 -11 -13 -11 -29 0 -93 -53
-152 -169 -187 -77 -23 -125 -19 -164 16 -19 17 -37 39 -40 50 -4 17 2 14 33
-14 38 -34 77 -53 87 -42 4 3 0 6 -9 6 -26 0 -94 56 -108 89 -8 20 -19 31 -33
31 -11 0 -32 10 -46 22 -23 20 -23 19 2 -8 l28 -32 -30 4 c-34 4 -40 -6 -16
-26 24 -20 17 -33 -7 -16 -52 37 -52 -6 0 -56 50 -49 95 -69 162 -75 83 -8
147 10 239 66 96 58 139 68 227 50 77 -15 117 -6 122 30 2 13 -4 29 -15 38
-10 8 -12 11 -5 8 10 -5 13 2 10 31 -2 22 -9 40 -15 40 -7 1 -17 2 -21 3 -5 0
-19 10 -32 21 -25 22 -33 24 -44 13z m-101 -143 c-3 -5 -14 -10 -23 -10 -15 0
-15 2 -2 10 20 13 33 13 25 0z"/>
<path d="M1297 865 c-21 -24 -58 -56 -82 -71 -25 -14 -45 -32 -45 -39 0 -23
-59 -74 -94 -81 -19 -3 -42 -1 -53 4 -13 7 -38 3 -93 -15 -83 -28 -234 -36
-280 -15 -20 9 -11 10 48 5 46 -4 72 -2 72 4 0 6 18 9 43 7 23 -3 71 4 107 14
64 17 65 18 68 55 2 20 0 37 -5 37 -4 0 -37 -9 -73 -21 -68 -21 -217 -49 -307
-56 l-53 -5 0 -43 0 -43 87 -12 c232 -33 451 26 595 159 51 47 117 145 106
157 -2 2 -21 -17 -41 -41z"/>
<path d="M1238 868 c-32 -15 -48 -28 -51 -44 -6 -34 4 -30 60 21 26 24 46 44
43 44 -3 -1 -26 -10 -52 -21z"/>
<path d="M1119 803 c-6 -16 -12 -41 -14 -57 -2 -20 -10 -32 -25 -38 -32 -12
-45 3 -32 39 10 28 10 28 12 3 1 -22 4 -20 19 15 10 22 17 41 16 43 -2 2 -19
-4 -38 -12 -29 -12 -37 -21 -43 -51 -10 -55 26 -71 86 -40 32 17 49 43 61 92
6 28 4 33 -12 33 -12 0 -24 -11 -30 -27z"/>
<path d="M1285 430 c-3 -5 1 -10 10 -10 9 0 13 5 10 10 -3 6 -8 10 -10 10 -2
0 -7 -4 -10 -10z"/>
</g>
</svg>
