<?xml version="1.0" standalone="no"?>
<!DOCTYPE svg PUBLIC "-//W3C//DTD SVG 20010904//EN"
 "http://www.w3.org/TR/2001/REC-SVG-20010904/DTD/svg10.dtd">
<svg version="1.0" xmlns="http://www.w3.org/2000/svg"
 width="256.000000pt" height="256.000000pt" viewBox="0 0 256.000000 256.000000"
 preserveAspectRatio="xMidYMid meet">
<metadata>
Created by potrace 1.16, written by Peter Selinger 2001-2019
</metadata>
<g transform="translate(0.000000,256.000000) scale(0.100000,-0.100000)"
fill="#e5e5e5" stroke="none">
<path d="M854 2488 c-37 -26 -74 -77 -74 -101 0 -9 14 -53 30 -99 36 -97 38
-149 9 -189 -50 -70 -110 -74 -268 -19 -219 78 -328 74 -409 -14 -85 -92 -61
-173 103 -356 79 -88 100 -126 126 -228 10 -42 35 -111 54 -153 49 -106 62
-179 47 -276 -7 -43 -16 -81 -20 -85 -4 -4 -81 -23 -172 -43 -218 -49 -229
-55 -251 -137 -11 -41 -10 -56 9 -130 32 -118 73 -196 143 -269 61 -65 98
-126 99 -165 0 -12 9 -51 20 -86 36 -119 66 -121 450 -39 306 66 466 107 515
133 30 15 50 19 83 14 53 -7 268 19 334 40 25 8 91 46 146 84 54 38 142 89
194 114 71 34 114 63 170 115 84 78 121 140 162 270 15 46 41 112 58 145 57
112 96 212 113 289 15 69 15 82 1 164 -9 48 -24 108 -33 133 -28 77 -96 171
-194 266 -100 97 -160 134 -284 174 -110 35 -161 59 -294 133 -155 87 -583
288 -675 316 -90 28 -152 27 -192 -1z m150 -67 c66 -20 133 -51 321 -152 50
-26 113 -57 141 -68 28 -11 89 -41 135 -67 179 -101 346 -178 419 -194 123
-28 210 -91 254 -185 11 -22 35 -44 72 -66 31 -17 57 -36 60 -43 2 -6 6 -38 8
-71 2 -33 13 -80 24 -104 25 -55 21 -109 -13 -195 -24 -59 -33 -93 -34 -128
-1 -10 -15 -33 -31 -51 -17 -19 -30 -42 -30 -50 0 -9 -6 -20 -13 -24 -23 -14
-74 -131 -65 -148 11 -18 3 -94 -10 -107 -6 -6 -17 -6 -30 1 -19 10 -23 7 -41
-34 -38 -86 -86 -133 -173 -170 l-38 -15 -40 36 -41 37 7 -39 c4 -30 2 -43
-10 -54 -15 -11 -21 -10 -47 9 -16 12 -33 20 -37 17 -13 -8 -40 -71 -47 -108
-4 -24 -16 -46 -36 -62 -33 -28 -59 -32 -91 -15 -17 9 -31 7 -72 -14 -64 -32
-184 -52 -206 -34 -13 11 -32 12 -106 8 -7 -1 -14 -10 -17 -21 -6 -23 -27 -25
-82 -5 -54 20 -58 19 -51 -10 7 -29 -6 -38 -82 -54 -37 -8 -59 -8 -73 -1 -15
8 -19 7 -19 -4 0 -17 5 -16 -178 -56 -109 -24 -146 -29 -157 -20 -10 8 -15 8
-22 -3 -9 -15 -86 -37 -131 -37 -15 0 -38 9 -50 20 -36 34 -30 201 12 300 5
12 -2 15 -34 15 -23 0 -42 -5 -44 -12 -6 -15 -66 -18 -66 -3 0 6 -6 10 -14 10
-17 0 -23 16 -32 82 -5 38 -14 59 -34 77 -21 21 -30 42 -39 100 -7 47 -8 78
-2 84 7 7 256 71 398 102 20 5 22 10 20 56 -4 64 26 132 83 188 l42 41 -38 41
c-22 23 -62 66 -91 95 -56 56 -76 107 -71 172 3 34 6 37 36 40 18 2 62 -6 98
-18 36 -12 67 -20 70 -18 10 10 -26 43 -48 43 -18 0 -24 6 -26 28 -4 32 -21
42 -82 50 -34 4 -52 14 -75 39 -17 18 -43 41 -58 51 -15 9 -27 23 -27 31 0 13
-74 84 -124 119 -15 10 -26 28 -26 40 0 13 -9 30 -20 40 -11 9 -20 24 -20 33
0 24 19 54 34 54 8 0 16 6 19 13 3 9 30 16 73 20 61 6 71 4 91 -15 19 -17 30
-20 68 -15 40 6 49 4 68 -17 12 -13 38 -27 57 -31 19 -4 47 -16 61 -26 15 -10
69 -28 120 -40 52 -12 110 -27 129 -34 70 -25 245 -53 310 -49 94 6 113 5 124
-6 6 -6 15 -10 20 -10 6 0 -21 32 -59 71 -51 52 -90 80 -144 107 -92 44 -155
104 -171 164 -7 23 -19 60 -26 81 -8 20 -14 49 -14 62 0 14 -5 25 -10 25 -15
0 -60 47 -60 62 0 22 51 70 69 64 9 -3 47 -14 85 -25z"/>
<path d="M897 2399 c-4 -13 -10 -18 -18 -14 -7 5 -10 3 -7 -5 2 -7 33 -31 68
-53 47 -28 57 -38 38 -35 -25 5 -28 2 -28 -21 0 -15 7 -36 15 -47 8 -12 11
-24 8 -28 -4 -4 3 -9 15 -13 25 -6 30 -23 7 -23 -21 0 -6 -28 43 -82 33 -37
39 -39 74 -34 36 6 51 -5 27 -20 -19 -11 85 -61 118 -57 22 4 32 0 37 -13 3
-9 4 -19 1 -22 -3 -3 -5 0 -5 6 0 7 -7 12 -15 12 -27 0 -16 -25 31 -70 25 -25
53 -59 62 -76 9 -18 43 -59 74 -93 l58 -62 41 24 42 25 -30 16 c-17 8 -33 12
-37 9 -4 -4 -6 7 -4 25 1 18 8 32 15 32 7 0 12 -6 10 -12 -1 -7 6 -13 15 -13
9 0 20 -4 24 -8 13 -12 36 -8 50 11 13 16 13 16 14 -2 0 -15 3 -16 15 -6 8 7
15 16 15 20 0 13 -88 43 -106 36 -9 -4 -21 0 -28 8 -14 18 -76 32 -76 17 0 -6
-4 -11 -10 -11 -16 0 -12 18 10 40 23 23 34 26 27 6 -8 -19 72 -32 85 -14 8
10 11 10 15 1 2 -7 16 -13 30 -13 41 0 24 32 -25 46 -35 11 -42 11 -42 -2 0
-8 -5 -14 -11 -14 -6 0 -8 7 -5 16 4 10 0 15 -12 13 -30 -3 -43 1 -37 10 3 5
20 7 39 4 25 -4 35 -1 40 12 5 14 2 16 -14 12 -13 -3 -23 0 -27 9 -3 8 -13 14
-22 14 -9 0 -22 5 -28 11 -6 6 -30 12 -52 13 -23 0 -41 4 -41 9 0 12 78 2 133
-18 26 -10 50 -15 53 -12 8 7 -97 57 -120 57 -12 0 -43 7 -70 15 -26 8 -52 12
-58 9 -5 -3 -14 -1 -21 4 -21 16 -68 23 -82 12 -10 -9 -16 -7 -23 7 -9 16 -5
18 36 18 26 0 49 -3 52 -6 8 -10 90 -27 90 -19 0 13 -164 83 -168 71 -6 -18
-23 -13 -20 7 2 11 -3 16 -15 14 -9 -2 -20 4 -23 13 -3 8 -13 15 -20 15 -23 0
-65 31 -58 42 4 7 9 7 13 0 5 -8 154 -82 166 -82 3 0 5 5 5 10 0 6 -9 10 -20
10 -11 0 -20 4 -20 10 0 5 -16 17 -35 26 -58 27 -32 27 30 -1 41 -18 54 -21
44 -9 -17 21 -119 66 -135 60 -17 -7 -26 5 -14 19 6 8 -2 23 -26 48 -20 20
-32 37 -27 37 5 0 20 -12 34 -26 24 -27 61 -46 91 -49 9 -1 31 -16 48 -34 17
-17 36 -32 41 -32 5 -1 14 -3 19 -4 6 -1 17 -3 26 -4 8 0 12 -6 9 -11 -4 -6
-11 -7 -17 -4 -7 4 -8 2 -4 -5 4 -6 12 -9 17 -6 5 4 20 -5 33 -20 16 -17 29
-23 42 -19 11 4 16 3 12 -1 -12 -13 22 -32 70 -40 23 -4 48 -12 55 -18 42 -39
60 -48 113 -58 51 -9 65 -17 106 -61 53 -54 58 -64 27 -48 -11 7 -23 9 -26 6
-3 -3 3 -9 13 -12 10 -4 41 -16 68 -26 56 -21 76 -17 23 5 -19 8 -38 20 -42
27 -5 8 -2 9 11 1 11 -6 44 -17 74 -26 44 -12 60 -23 80 -51 13 -20 44 -57 67
-81 24 -24 43 -50 43 -58 0 -8 15 -32 34 -53 36 -39 57 -92 37 -92 -6 0 -8
-12 -4 -32 7 -41 12 -46 24 -28 7 11 8 8 4 -11 -5 -20 -1 -32 17 -48 18 -18
24 -36 29 -94 3 -40 2 -79 -2 -87 -8 -14 -15 48 -10 94 1 21 -20 76 -30 76 -6
0 -19 -35 -19 -52 0 -4 8 -5 18 -2 14 5 14 3 -3 -11 -16 -13 -20 -28 -20 -75
0 -36 5 -64 13 -72 7 -7 12 -8 11 -3 -1 6 1 22 5 38 5 17 4 32 -3 41 -8 9 -8
16 -2 20 14 9 21 -6 22 -58 2 -37 5 -44 16 -35 10 9 13 8 13 -4 0 -17 33 -41
42 -31 3 3 8 -10 12 -29 3 -18 12 -42 20 -52 12 -17 15 -15 39 26 27 45 27 72
0 31 -9 -12 -22 -22 -29 -22 -21 0 -17 17 6 23 13 3 18 10 14 21 -4 11 -1 16
10 16 9 0 16 7 16 16 0 9 8 23 18 31 16 14 16 14 -1 9 -16 -5 -16 -4 0 22 22
36 28 41 20 19 -4 -11 -3 -16 4 -12 5 4 7 16 3 27 -4 13 -2 18 4 14 7 -4 8 3
2 24 -8 28 -6 34 13 31 4 0 7 16 7 36 0 29 -3 34 -12 25 -20 -20 -28 -13 -21
19 4 21 1 34 -8 40 -11 7 -11 11 -1 17 13 9 7 42 -8 42 -4 0 -6 19 -3 43 4 39
2 43 -31 65 -20 12 -41 22 -48 22 -15 0 -33 26 -64 91 -30 64 -85 105 -177
134 -43 14 -84 25 -92 25 -8 0 -49 16 -92 36 -43 20 -87 38 -98 39 -11 2 -50
22 -86 47 -71 46 -108 65 -404 209 -160 77 -353 159 -376 159 -4 0 -9 -9 -12
-21z m343 -299 c0 -5 -4 -10 -10 -10 -5 0 -10 5 -10 10 0 6 5 10 10 10 6 0 10
-4 10 -10z m-70 -10 c0 -5 -2 -10 -4 -10 -3 0 -8 5 -11 10 -3 6 -1 10 4 10 6
0 11 -4 11 -10z m190 -70 c0 -5 -4 -10 -10 -10 -5 0 -10 5 -10 10 0 6 5 10 10
10 6 0 10 -4 10 -10z m-30 -40 c0 -5 -4 -10 -10 -10 -5 0 -10 5 -10 10 0 6 5
10 10 10 6 0 10 -4 10 -10z m110 -14 c0 -3 -4 -8 -10 -11 -5 -3 -10 -1 -10 4
0 6 5 11 10 11 6 0 10 -2 10 -4z m-70 -10 c0 -3 -4 -8 -10 -11 -5 -3 -10 -1
-10 4 0 6 5 11 10 11 6 0 10 -2 10 -4z m98 -30 c-8 -6 -18 -20 -22 -31 -5 -12
-10 -15 -13 -8 -6 17 27 64 40 56 6 -4 5 -10 -5 -17z m-58 -5 c0 -13 -27 -21
-68 -20 l-37 1 45 12 c59 17 60 17 60 7z m10 -61 c0 -5 -4 -10 -10 -10 -5 0
-10 5 -10 10 0 6 5 10 10 10 6 0 10 -4 10 -10z m80 -60 c0 -5 -4 -10 -10 -10
-5 0 -10 5 -10 10 0 6 5 10 10 10 6 0 10 -4 10 -10z m100 -20 c0 -5 -4 -10
-10 -10 -5 0 -10 5 -10 10 0 6 5 10 10 10 6 0 10 -4 10 -10z m680 -130 c0 -5
-5 -10 -11 -10 -5 0 -7 5 -4 10 3 6 8 10 11 10 2 0 4 -4 4 -10z m40 -24 c0
-11 -19 -15 -25 -6 -3 5 1 10 9 10 9 0 16 -2 16 -4z m-153 -108 c-3 -8 -6 -5
-6 6 -1 11 2 17 5 13 3 -3 4 -12 1 -19z m203 8 c0 -3 -4 -8 -10 -11 -5 -3 -10
-1 -10 4 0 6 5 11 10 11 6 0 10 -2 10 -4z m10 -66 c0 -5 -4 -10 -10 -10 -5 0
-10 5 -10 10 0 6 5 10 10 10 6 0 10 -4 10 -10z m10 -64 c0 -11 -19 -15 -25 -6
-3 5 1 10 9 10 9 0 16 -2 16 -4z m-30 -40 c0 -3 -4 -8 -10 -11 -5 -3 -10 -1
-10 4 0 6 5 11 10 11 6 0 10 -2 10 -4z m34 -37 c-3 -5 -10 -7 -15 -3 -5 3 -7
10 -3 15 3 5 10 7 15 3 5 -3 7 -10 3 -15z m-64 -9 c0 -5 -4 -10 -10 -10 -5 0
-10 5 -10 10 0 6 5 10 10 10 6 0 10 -4 10 -10z m40 -18 c0 -4 -7 -18 -16 -30
-16 -23 -34 -29 -34 -12 0 6 7 10 15 10 8 0 15 9 15 20 0 11 5 20 10 20 6 0
10 -3 10 -8z m-70 -18 c0 -8 -4 -12 -10 -9 -5 3 -10 10 -10 16 0 5 5 9 10 9 6
0 10 -7 10 -16z m10 -64 c0 -5 -4 -10 -10 -10 -5 0 -10 5 -10 10 0 6 5 10 10
10 6 0 10 -4 10 -10z"/>
<path d="M1160 2250 c17 -11 47 -14 36 -3 -3 4 -17 8 -29 10 -17 2 -19 1 -7
-7z"/>
<path d="M1277 2129 c7 -7 15 -10 18 -7 3 3 -2 9 -12 12 -14 6 -15 5 -6 -5z"/>
<path d="M1310 2116 c0 -3 9 -10 20 -16 11 -6 20 -8 20 -6 0 3 -9 10 -20 16
-11 6 -20 8 -20 6z"/>
<path d="M1460 2071 c0 -6 12 -13 28 -17 15 -3 43 -19 62 -34 53 -41 80 -52
107 -45 16 4 22 2 18 -5 -3 -5 6 -15 20 -20 36 -14 38 -13 20 14 -17 26 -63
40 -81 25 -8 -6 -14 -4 -18 6 -3 8 -10 15 -17 15 -6 0 -29 13 -52 29 -48 33
-87 48 -87 32z"/>
<path d="M273 2033 c-36 -4 -44 -8 -49 -30 -5 -16 -9 -21 -14 -13 -9 15 -30 4
-30 -15 0 -7 12 -23 28 -35 17 -14 23 -23 15 -26 -17 -7 0 -40 28 -55 17 -9
20 -8 17 3 -3 7 -10 13 -15 13 -6 0 -15 3 -19 8 -4 4 5 7 19 7 35 0 34 7 -5
42 -23 20 -26 26 -10 18 14 -7 22 -7 22 -1 0 13 28 3 59 -21 29 -22 42 -23 34
-2 -4 12 -1 15 12 13 10 -2 20 -10 23 -18 3 -8 0 -11 -7 -7 -6 4 -11 2 -11 -4
0 -7 16 -9 48 -4 47 6 48 5 102 -48 30 -30 75 -64 100 -76 25 -12 60 -35 78
-52 56 -51 48 -33 -14 32 -32 35 -77 71 -99 81 -21 10 -65 46 -97 80 -52 54
-61 60 -78 49 -33 -20 -88 -15 -113 11 -12 13 -29 27 -37 30 -11 4 -10 6 4 6
10 1 29 -10 41 -23 13 -14 31 -23 41 -21 83 17 81 13 27 40 -26 14 -50 24 -53
23 -3 -1 -24 -3 -47 -5z"/>
<path d="M1110 2030 c-8 -5 -10 -10 -5 -10 6 0 17 5 25 10 8 5 11 10 5 10 -5
0 -17 -5 -25 -10z"/>
<path d="M453 2003 c-18 -7 7 -43 30 -43 10 0 16 -4 13 -9 -7 -11 52 -65 100
-89 52 -27 205 -182 180 -182 -12 0 -16 -5 -12 -16 3 -9 6 -19 6 -22 0 -4 5 0
11 8 9 12 10 11 5 -4 -5 -15 4 -29 35 -56 37 -32 41 -38 30 -57 -7 -14 -8 -24
-1 -28 16 -10 11 -26 -7 -23 -13 2 -17 -3 -15 -16 2 -12 -1 -16 -10 -11 -7 3
-4 -1 7 -9 11 -9 25 -14 32 -12 6 3 14 0 16 -7 2 -7 8 -9 12 -5 4 4 4 15 0 25
-15 33 -17 76 -4 100 13 24 14 22 -60 80 -12 9 -12 12 -3 13 22 0 125 -55 177
-95 56 -42 91 -60 150 -75 23 -5 60 -24 83 -42 41 -31 42 -34 24 -48 -20 -17
-18 -40 4 -40 8 0 11 6 8 15 -4 9 0 15 9 15 14 0 27 20 27 41 0 5 -6 9 -14 9
-7 0 -20 8 -27 17 -15 17 -14 17 38 -4 7 -3 15 7 18 24 19 93 51 153 81 153 8
0 12 5 9 10 -3 6 -15 10 -26 10 -16 0 -18 5 -13 27 6 22 4 25 -10 20 -12 -5
-16 0 -16 19 0 13 -7 27 -15 30 -10 4 -13 13 -10 25 4 11 -2 26 -15 39 -19 19
-28 21 -68 15 -66 -11 -110 -7 -194 15 -82 22 -123 26 -98 10 29 -19 -10 -11
-51 11 -22 11 -81 29 -131 39 -50 11 -107 29 -125 40 -19 11 -38 18 -43 15 -4
-3 -13 2 -20 10 -7 8 -20 15 -29 15 -10 0 -28 11 -41 25 -24 26 -27 27 -47 18z
m244 -165 c-3 -8 -6 -5 -6 6 -1 11 2 17 5 13 3 -3 4 -12 1 -19z m70 -11 c4 -6
-2 -8 -15 -5 -13 4 -22 1 -22 -5 0 -7 -4 -6 -9 3 -6 8 -8 17 -5 21 5 9 43 -1
51 -14z m236 -34 c-7 -2 -21 -2 -30 0 -10 3 -4 5 12 5 17 0 24 -2 18 -5z m40
-20 c-7 -2 -21 -2 -30 0 -10 3 -4 5 12 5 17 0 24 -2 18 -5z m191 -18 c-6 -16
-24 -21 -24 -7 0 11 11 22 21 22 5 0 6 -7 3 -15z m76 -49 c0 -3 -4 -8 -10 -11
-5 -3 -10 -1 -10 4 0 6 5 11 10 11 6 0 10 -2 10 -4z m-381 -60 c24 -4 53 -12
65 -19 11 -6 30 -12 40 -12 11 0 21 -5 23 -11 4 -12 -55 -7 -72 6 -5 5 -28 11
-50 15 -49 9 -71 20 -104 52 l-26 25 40 -25 c22 -14 60 -28 84 -31z m386 -5
c3 -5 1 -12 -5 -16 -5 -3 -10 1 -10 9 0 18 6 21 15 7z m45 -26 c0 -11 -32 -55
-40 -55 -4 0 -7 11 -6 24 0 13 4 22 8 20 4 -2 9 0 13 6 6 10 25 14 25 5z m-60
-20 c0 -9 -6 -12 -15 -9 -8 4 -12 10 -9 15 8 14 24 10 24 -6z m-105 -49 c-4
-25 -11 -46 -16 -46 -12 0 -11 16 2 63 14 51 22 41 14 -17z m-88 8 c2 -7 -6
-10 -21 -7 -14 3 -23 10 -20 15 8 12 36 6 41 -8z m32 -28 c10 -12 8 -13 -8 -9
-12 3 -18 9 -15 14 7 12 10 11 23 -5z m161 4 c0 -5 -4 -10 -10 -10 -5 0 -10 5
-10 10 0 6 5 10 10 10 6 0 10 -4 10 -10z m-93 -32 c-3 -8 -6 -5 -6 6 -1 11 2
17 5 13 3 -3 4 -12 1 -19z m103 -32 c0 -3 -4 -8 -10 -11 -5 -3 -10 -1 -10 4 0
6 5 11 10 11 6 0 10 -2 10 -4z"/>
<path d="M1580 1920 c0 -5 12 -10 28 -10 21 0 24 2 12 10 -20 13 -40 13 -40 0z"/>
<path d="M292 1904 c4 -4 3 -13 -3 -21 -9 -11 -1 -13 42 -14 73 0 133 -12 128
-24 -2 -5 -11 -9 -19 -8 -8 1 -35 5 -60 9 -41 6 -44 5 -31 -9 7 -9 20 -16 29
-15 50 4 122 -3 122 -12 0 -5 -25 -10 -55 -10 -44 0 -53 -3 -49 -15 4 -8 10
-12 16 -9 15 9 118 21 118 14 0 -4 -25 -12 -55 -19 -30 -7 -55 -17 -55 -22 0
-11 53 -12 64 -1 10 9 56 10 56 1 0 -4 -14 -10 -31 -14 -21 -5 -28 -10 -21
-17 6 -6 18 -7 29 -3 10 5 25 10 33 11 8 1 27 5 43 9 16 4 27 3 27 -3 0 -6
-25 -16 -55 -23 -44 -10 -53 -15 -44 -26 15 -17 38 -17 45 2 4 9 14 13 28 9
15 -3 28 2 43 20 30 34 10 51 -50 42 -34 -6 -40 -5 -29 6 10 10 5 20 -25 50
-20 21 -41 38 -46 38 -5 0 -15 7 -23 15 -9 8 -26 15 -38 15 -13 0 -36 4 -52 9
-48 15 -89 23 -82 15z"/>
<path d="M1900 1855 c0 -11 5 -15 15 -12 8 4 17 2 20 -3 3 -4 -1 -10 -7 -13
-9 -3 -1 -17 22 -42 39 -41 96 -76 87 -53 -2 7 -9 12 -15 11 -14 -3 -36 24
-64 77 -24 46 -58 66 -58 35z"/>
<path d="M290 1835 c0 -8 5 -15 11 -15 12 0 64 -59 64 -74 0 -6 12 -16 26 -23
15 -7 45 -31 67 -53 30 -30 48 -40 71 -40 42 0 70 -16 81 -46 6 -14 17 -24 30
-24 12 0 25 -10 32 -26 10 -22 79 -64 105 -64 15 0 -32 39 -50 42 -11 2 -23
10 -27 18 -4 8 -12 25 -19 38 -9 18 -8 22 3 22 37 0 66 23 66 52 0 16 -6 31
-15 34 -17 7 -65 -21 -65 -36 0 -15 21 -12 42 7 25 23 23 -2 -2 -27 -12 -12
-25 -18 -30 -15 -4 3 -10 -1 -13 -7 -3 -10 -8 -10 -18 1 -11 10 -11 15 -1 18
6 3 10 9 7 13 -3 5 -17 5 -32 -1 -20 -8 -33 -5 -67 15 -22 13 -52 36 -65 50
-14 14 -31 26 -39 26 -8 0 -42 29 -76 65 -61 64 -86 79 -86 50z"/>
<path d="M1879 1826 c29 -31 35 -33 22 -7 -6 10 -18 22 -28 25 -13 5 -11 1 6
-18z"/>
<path d="M1682 1755 c-34 -30 -92 -71 -127 -90 -36 -20 -80 -54 -98 -76 -39
-45 -43 -46 -50 -19 -8 30 -25 24 -42 -12 -28 -62 -103 -368 -106 -428 -2 -62
0 -72 16 -67 8 4 17 2 19 -2 9 -14 -18 -61 -34 -58 -10 1 -14 -5 -13 -21 2
-17 -2 -22 -15 -20 -12 2 -16 -3 -15 -17 1 -11 -5 -24 -13 -28 -8 -5 -12 -12
-9 -17 3 -5 1 -11 -5 -15 -16 -10 -12 -36 8 -51 16 -13 16 -13 -2 -14 -16 0
-18 -6 -13 -47 3 -32 12 -51 27 -63 13 -10 18 -20 13 -23 -12 -7 -5 -57 7 -57
12 0 -17 -54 -40 -75 -20 -18 -27 -45 -11 -45 5 0 14 7 21 15 7 8 27 15 45 15
27 0 34 5 39 25 3 13 19 39 35 57 15 18 33 43 40 55 13 26 15 63 2 63 -5 0 -7
-9 -4 -20 3 -11 0 -20 -6 -20 -6 0 -20 -19 -32 -42 -34 -68 -69 -100 -69 -63
0 8 5 15 11 15 15 0 63 114 50 118 -16 5 -14 22 3 22 17 0 32 83 16 88 -15 5
-12 22 4 22 17 0 27 77 11 85 -6 3 -5 7 3 11 17 8 17 160 0 167 -10 4 -10 8 1
15 7 5 14 31 16 58 2 27 10 68 19 92 8 23 11 42 6 42 -6 0 -10 5 -10 11 0 6 7
9 15 5 10 -4 15 1 15 14 0 22 31 62 103 132 60 58 111 88 209 123 43 15 83 34
90 43 11 12 7 12 -20 -2 -18 -9 -41 -16 -50 -14 -13 3 -9 8 15 21 31 16 83 75
83 93 0 4 -14 -7 -31 -26 -17 -20 -24 -24 -15 -10 9 13 16 32 16 42 0 17 -35
48 -55 48 -5 0 -38 -25 -73 -55z m-323 -309 c-12 -31 -25 -54 -27 -51 -3 2 6
29 18 60 12 31 25 54 27 51 3 -3 -5 -30 -18 -60z m-103 -553 c-10 -10 -19 5
-10 18 6 11 8 11 12 0 2 -7 1 -15 -2 -18z m44 -13 c0 -5 -4 -10 -10 -10 -5 0
-10 5 -10 10 0 6 5 10 10 10 6 0 10 -4 10 -10z m-70 -16 c0 -8 -4 -12 -10 -9
-5 3 -10 10 -10 16 0 5 5 9 10 9 6 0 10 -7 10 -16z m40 -24 c0 -5 -4 -10 -10
-10 -5 0 -10 5 -10 10 0 6 5 10 10 10 6 0 10 -4 10 -10z m40 -30 c0 -5 -4 -10
-10 -10 -5 0 -10 5 -10 10 0 6 5 10 10 10 6 0 10 -4 10 -10z m-70 -10 c0 -5
-4 -10 -10 -10 -5 0 -10 5 -10 10 0 6 5 10 10 10 6 0 10 -4 10 -10z m40 -30
c0 -5 -4 -10 -10 -10 -5 0 -10 5 -10 10 0 6 5 10 10 10 6 0 10 -4 10 -10z
m-65 -10 c-3 -5 -10 -10 -16 -10 -5 0 -9 5 -9 10 0 6 7 10 16 10 8 0 12 -4 9
-10z m40 -30 c-3 -5 -10 -10 -16 -10 -5 0 -9 5 -9 10 0 6 7 10 16 10 8 0 12
-4 9 -10z m31 -37 c-10 -10 -19 5 -10 18 6 11 8 11 12 0 2 -7 1 -15 -2 -18z
m-22 -34 c-3 -5 -10 -7 -15 -3 -5 3 -7 10 -3 15 3 5 10 7 15 3 5 -3 7 -10 3
-15z m-14 -99 c0 -5 -4 -10 -10 -10 -5 0 -10 5 -10 10 0 6 5 10 10 10 6 0 10
-4 10 -10z"/>
<path d="M1360 1744 c0 -12 7 -27 15 -34 8 -7 15 -20 15 -29 0 -25 44 -63 63
-55 26 9 21 18 -38 81 -44 47 -54 54 -55 37z"/>
<path d="M660 1705 c0 -9 -6 -18 -14 -21 -8 -3 -17 -12 -20 -20 -5 -12 -1 -14
15 -9 28 9 61 43 54 55 -10 16 -35 12 -35 -5z"/>
<path d="M2060 1679 c7 -11 14 -19 16 -16 7 7 -7 37 -17 37 -6 0 -5 -9 1 -21z"/>
<path d="M576 1661 c-3 -5 1 -12 10 -15 20 -8 29 -1 19 13 -8 13 -22 14 -29 2z"/>
<path d="M1868 1635 c-6 -30 -3 -43 8 -33 3 4 4 19 2 35 l-3 28 -7 -30z"/>
<path d="M2091 1635 c0 -6 9 -28 20 -50 l19 -40 -5 35 c-5 30 -36 81 -34 55z"/>
<path d="M743 1591 c-3 -12 -11 -17 -19 -14 -17 6 -31 -24 -17 -38 6 -6 16 -2
28 11 22 24 45 26 45 4 0 -8 -4 -13 -9 -9 -11 6 -26 -13 -17 -22 3 -4 15 2 26
12 20 18 21 18 34 0 9 -12 15 -14 20 -7 9 15 -11 52 -28 52 -8 0 -16 7 -20 15
-8 21 -37 19 -43 -4z"/>
<path d="M1818 1494 l-36 -74 26 1 c15 0 21 3 15 6 -7 2 -13 9 -13 15 0 6 7 8
15 4 11 -4 15 1 15 17 0 13 4 27 9 33 12 13 24 74 14 73 -4 0 -24 -34 -45 -75z"/>
<path d="M1723 1552 c-21 -2 -37 -12 -48 -29 -10 -14 -12 -23 -7 -19 18 11 26
-16 9 -29 -10 -7 -17 -17 -17 -23 0 -6 -8 -15 -17 -21 -16 -8 -13 -13 20 -45
21 -20 40 -36 41 -36 1 0 1 14 -2 30 -2 17 -10 30 -18 30 -8 0 -14 5 -14 10 0
6 9 10 21 10 16 0 19 4 14 20 -5 14 -2 20 9 20 9 0 16 9 16 20 0 11 4 20 9 20
9 0 27 39 19 43 -1 1 -17 1 -35 -1z m-13 -27 c0 -8 -7 -15 -16 -15 -14 0 -14
3 -4 15 7 8 14 15 16 15 2 0 4 -7 4 -15z"/>
<path d="M891 1519 c-13 -38 -13 -39 -2 -39 9 0 24 60 17 67 -2 2 -9 -10 -15
-28z"/>
<path d="M1965 1537 c-4 -10 -5 -21 -1 -24 10 -10 18 4 13 24 -4 17 -4 17 -12
0z"/>
<path d="M2054 1530 c3 -14 9 -65 13 -115 6 -77 8 -85 15 -55 8 37 -7 153 -24
180 -7 11 -8 8 -4 -10z"/>
<path d="M915 1484 c-9 -55 -35 -133 -46 -139 -11 -7 -12 -47 -1 -61 4 -5 -1
-1 -10 9 -12 12 -18 15 -18 6 0 -7 8 -21 18 -32 16 -19 16 -20 -4 -9 -18 9
-23 7 -38 -19 -9 -16 -31 -36 -47 -45 -27 -14 -30 -19 -27 -57 2 -26 -1 -41
-8 -40 -7 1 -10 -14 -9 -40 4 -84 5 -93 14 -79 6 10 10 10 20 -2 7 -8 10 -20
6 -27 -6 -8 -10 -7 -16 2 -6 9 -9 10 -9 2 0 -20 12 -43 22 -43 6 0 17 -8 24
-17 11 -16 12 -13 8 18 -3 27 0 38 12 43 11 4 14 12 9 24 -4 9 -9 30 -12 47
-3 16 -11 34 -18 40 -20 16 -2 51 42 78 41 27 77 63 111 114 24 34 28 48 12
38 -5 -3 -10 -1 -10 5 0 7 7 10 15 7 20 -8 29 11 15 28 -10 12 -9 15 10 15 18
0 20 3 11 14 -9 11 -8 17 7 28 10 7 21 21 25 31 5 13 1 17 -18 17 -14 0 -25 6
-25 13 0 7 -13 26 -29 41 l-30 28 -6 -38z m15 -219 c0 -8 -4 -15 -10 -15 -5 0
-10 7 -10 15 0 8 5 15 10 15 6 0 10 -7 10 -15z m-30 -41 c0 -8 -4 -12 -10 -9
-5 3 -10 10 -10 16 0 5 5 9 10 9 6 0 10 -7 10 -16z"/>
<path d="M480 1481 c0 -51 18 -80 107 -177 85 -93 123 -115 123 -74 0 21 7 25
27 12 9 -6 -10 -31 -63 -83 -103 -101 -127 -153 -108 -226 10 -37 27 -27 20
12 -12 65 7 105 89 180 41 39 75 76 75 83 0 7 4 11 9 8 4 -3 17 2 27 10 10 9
14 13 7 10 -18 -10 -62 15 -56 31 3 8 12 12 21 8 17 -6 52 21 52 41 0 16 -50
55 -114 89 -38 20 -51 23 -63 14 -10 -9 -17 -9 -25 -1 -9 9 -6 12 13 13 23 1
23 1 -6 14 -37 17 -98 20 -75 4 12 -9 12 -10 -3 -5 -10 3 -22 6 -26 6 -4 0 -7
9 -7 19 0 15 4 17 17 10 10 -5 29 -9 43 -9 38 0 101 -28 189 -83 76 -46 107
-54 107 -24 0 27 -47 58 -101 66 -30 5 -75 19 -101 30 -44 19 -78 29 -150 45
-26 6 -28 4 -28 -23z m113 -78 c-7 -2 -19 -2 -25 0 -7 3 -2 5 12 5 14 0 19 -2
13 -5z m75 -4 c-2 -6 -7 -10 -11 -10 -4 1 -17 1 -29 2 -22 1 -22 1 2 9 36 11
42 11 38 -1z m40 -31 c-5 -16 -88 -24 -88 -9 0 6 12 8 29 5 16 -4 32 -1 35 5
10 15 29 14 24 -1z m-111 -4 c-3 -3 -12 -4 -19 -1 -8 3 -5 6 6 6 11 1 17 -2
13 -5z m153 -24 c0 -5 -7 -10 -16 -10 -8 0 -12 5 -9 10 3 6 10 10 16 10 5 0 9
-4 9 -10z m-60 -10 c12 -8 9 -10 -13 -10 -16 0 -26 4 -22 10 8 12 16 12 35 0z
m95 -20 c-3 -5 -10 -10 -16 -10 -5 0 -9 5 -9 10 0 6 7 10 16 10 8 0 12 -4 9
-10z m-46 -11 c-18 -11 -52 -11 -45 0 3 5 17 9 32 9 18 0 22 -3 13 -9z m-66
-16 c-7 -2 -19 -2 -25 0 -7 3 -2 5 12 5 14 0 19 -2 13 -5z"/>
<path d="M790 1495 c0 -8 4 -15 9 -15 5 0 11 7 15 15 3 9 0 15 -9 15 -8 0 -15
-7 -15 -15z"/>
<path d="M1556 1495 c-17 -13 -17 -15 9 -39 37 -35 48 -33 40 7 -12 52 -17 56
-49 32z"/>
<path d="M1960 1466 c0 -13 -3 -33 -6 -43 -5 -13 -4 -15 4 -8 17 15 27 75 13
75 -6 0 -11 -11 -11 -24z"/>
<path d="M2120 1454 c0 -21 5 -46 11 -54 7 -11 8 -1 3 35 -8 62 -14 70 -14 19z"/>
<path d="M1478 1438 c-23 -30 -48 -72 -48 -80 0 -2 18 -4 40 -5 22 -2 40 2 40
7 0 6 12 10 28 10 l27 1 -33 27 c-33 27 -40 42 -22 42 6 0 10 -7 10 -15 0 -8
9 -15 19 -15 11 0 21 -6 23 -12 3 -7 17 -13 33 -13 l28 -1 -22 16 c-12 8 -37
27 -56 43 -18 15 -35 27 -38 27 -2 0 -16 -15 -29 -32z m12 -48 c0 -5 -4 -10
-10 -10 -5 0 -10 5 -10 10 0 6 5 10 10 10 6 0 10 -4 10 -10z"/>
<path d="M1856 1433 c-6 -14 -5 -15 5 -6 7 7 10 15 7 18 -3 3 -9 -2 -12 -12z"/>
<path d="M1130 1431 c0 -5 5 -13 10 -16 6 -3 10 -2 10 4 0 5 -4 13 -10 16 -5
3 -10 2 -10 -4z"/>
<path d="M1055 1420 c-3 -5 -1 -10 4 -10 6 0 11 5 11 10 0 6 -2 10 -4 10 -3 0
-8 -4 -11 -10z"/>
<path d="M1175 1408 c19 -63 19 -68 -8 -68 -37 0 -77 17 -99 42 -22 26 -23 21
-3 -19 16 -33 8 -30 175 -48 l45 -4 -40 13 c-27 9 -39 18 -37 29 3 17 -24 77
-34 77 -4 0 -3 -10 1 -22z"/>
<path d="M1100 1396 c0 -22 3 -27 11 -19 8 8 8 16 0 30 -9 16 -10 14 -11 -11z"/>
<path d="M1220 1411 c0 -5 5 -13 10 -16 6 -3 10 -2 10 4 0 5 -4 13 -10 16 -5
3 -10 2 -10 -4z"/>
<path d="M1746 1372 l-26 -36 28 -12 c30 -13 42 -10 42 12 0 8 5 14 10 14 6 0
10 -7 10 -15 0 -23 17 -18 24 8 12 46 2 49 -42 12 -25 -21 -31 -23 -36 -9 -9
23 -8 27 8 21 21 -8 37 15 21 30 -10 9 -18 4 -39 -25z"/>
<path d="M1139 1384 c-10 -13 -10 -17 1 -24 20 -12 29 -4 23 20 -6 24 -7 24
-24 4z"/>
<path d="M1025 1380 c-3 -5 -1 -10 4 -10 6 0 11 5 11 10 0 6 -2 10 -4 10 -3 0
-8 -4 -11 -10z"/>
<path d="M1860 1375 c7 -8 18 -15 25 -15 7 0 29 -11 50 -25 20 -14 35 -20 33
-14 -2 7 -13 17 -24 23 -10 6 -21 13 -24 16 -6 7 -59 30 -67 30 -3 0 0 -7 7
-15z"/>
<path d="M1639 1375 c-4 -5 -5 -26 -2 -45 2 -19 5 -50 6 -69 1 -19 8 -36 15
-39 9 -3 11 6 6 35 -3 21 -9 58 -13 83 -3 25 -9 41 -12 35z"/>
<path d="M1660 1354 c0 -4 5 -24 12 -45 11 -39 21 -48 33 -29 3 6 2 10 -3 10
-5 0 -12 9 -15 20 -6 24 1 25 24 4 10 -9 15 -22 12 -30 -8 -20 6 -66 17 -59
24 15 10 63 -30 99 -40 36 -50 42 -50 30z"/>
<path d="M1420 1328 c0 -10 57 -11 63 0 3 4 -10 7 -29 8 -19 0 -34 -3 -34 -8z"/>
<path d="M1546 1318 c-22 -11 -60 -23 -85 -27 -42 -6 -46 -9 -57 -46 -8 -25
-13 -109 -13 -220 0 -100 -4 -193 -10 -208 -8 -19 -7 -34 1 -53 11 -24 12 -23
35 38 25 69 30 109 18 150 -5 20 -2 31 13 46 11 11 25 28 31 38 10 16 10 14 6
-11 -5 -28 -5 -29 5 -6 6 14 9 30 6 37 -3 7 8 30 23 51 l28 38 -31 38 c-38 48
-25 60 51 52 l51 -6 -13 43 c-7 24 -13 47 -13 51 -1 16 -7 15 -46 -5z"/>
<path d="M1837 1312 c-15 -16 -14 -18 9 -29 23 -10 24 -10 18 15 -9 35 -8 35
-27 14z"/>
<path d="M994 1287 l-16 -34 46 -67 c48 -71 52 -81 36 -91 -6 -3 -14 5 -20 19
-11 31 -25 35 -17 6 7 -26 1 -25 -14 1 -8 16 -8 23 0 28 7 5 0 19 -19 42 l-29
34 -25 -30 c-14 -16 -26 -39 -26 -50 -1 -11 -4 -14 -7 -7 -2 6 -9 12 -14 12
-12 0 -11 -77 1 -85 6 -4 8 -11 5 -16 -11 -18 6 -31 23 -17 13 11 15 10 10 -9
-6 -23 17 -42 25 -20 2 8 9 6 21 -6 20 -19 67 -22 98 -6 15 8 17 13 8 19 -9 6
-6 10 9 15 26 8 25 37 -1 41 -12 1 -18 -4 -18 -17 0 -10 -5 -19 -11 -19 -15 0
-2 51 17 65 14 10 14 18 0 79 -17 70 -41 132 -57 142 -5 3 -16 -10 -25 -29z
m-41 -156 c5 -38 4 -41 -8 -24 -7 10 -11 31 -8 46 7 35 9 32 16 -22z m27 33
c0 -8 -4 -12 -10 -9 -5 3 -10 10 -10 16 0 5 5 9 10 9 6 0 10 -7 10 -16z m20
-53 c0 -12 -20 -25 -27 -18 -7 7 6 27 18 27 5 0 9 -4 9 -9z m-76 -36 c7 -30 7
-30 -9 -7 -9 12 -13 27 -10 33 9 13 11 11 19 -26z m122 3 c4 -6 3 -8 -4 -4 -6
3 -13 2 -17 -4 -7 -12 -25 -4 -25 11 0 13 37 11 46 -3z m-76 -13 c0 -8 7 -15
15 -15 8 0 15 -7 15 -15 0 -8 -4 -15 -9 -15 -5 0 -11 7 -15 15 -3 8 -12 15
-21 15 -16 0 -20 12 -8 23 11 12 23 8 23 -8z m73 -60 c-3 -8 -9 -15 -14 -15
-10 0 -12 24 -3 33 11 11 24 -3 17 -18z"/>
<path d="M1937 1304 c3 -7 14 -16 25 -20 32 -10 32 3 -1 19 -23 12 -28 12 -24
1z"/>
<path d="M1757 1288 c4 -13 12 -32 19 -42 11 -17 10 -23 -12 -49 -13 -16 -22
-37 -20 -46 3 -9 8 -28 12 -43 3 -16 10 -25 15 -22 15 9 10 54 -6 60 -22 9
-19 19 17 60 29 32 30 37 15 46 -10 5 -15 14 -11 19 4 6 15 2 29 -11 19 -18
23 -19 28 -6 7 18 -2 25 -37 28 -14 1 -28 8 -30 15 -9 22 -24 14 -19 -9z"/>
<path d="M1079 1277 c5 -14 13 -45 16 -68 3 -24 13 -66 21 -93 15 -54 18 -104
6 -122 -12 -18 -69 -44 -99 -45 -18 -1 -9 -5 27 -13 30 -7 65 -18 77 -24 30
-16 31 -16 38 17 3 17 20 48 36 70 25 36 29 50 29 108 0 38 7 89 14 115 l14
46 -41 10 c-23 6 -66 14 -95 18 l-53 7 10 -26z"/>
<path d="M1889 1270 c-5 -48 -3 -55 21 -58 20 -2 22 -1 10 7 -12 9 -11 11 7
11 36 0 53 -11 53 -36 0 -13 -4 -24 -10 -24 -5 0 -7 6 -4 14 4 11 0 13 -16 9
-13 -4 -19 -11 -16 -20 3 -8 6 -19 6 -24 0 -5 7 -9 15 -9 16 0 62 87 51 97 -3
4 -30 8 -60 11 -41 3 -53 8 -49 18 3 8 2 14 -1 14 -3 0 -6 -4 -7 -10z"/>
<path d="M795 1260 c-3 -5 -2 -10 4 -10 5 0 13 5 16 10 3 6 2 10 -4 10 -5 0
-13 -4 -16 -10z"/>
<path d="M1816 1222 c-3 -6 -1 -14 5 -17 15 -10 25 3 12 16 -7 7 -13 7 -17 1z"/>
<path d="M1522 1194 c15 -15 31 -25 34 -21 4 4 -1 14 -12 22 -17 13 -16 14 14
5 19 -5 40 -14 47 -20 10 -8 15 -8 20 0 13 20 -13 33 -72 38 l-58 4 27 -28z"/>
<path d="M1647 1181 c-19 -21 -38 -45 -43 -53 -5 -8 -22 -18 -39 -22 l-30 -8
28 26 c27 25 35 46 17 46 -5 0 -10 -6 -10 -13 0 -8 -12 -24 -26 -38 -30 -28
-54 -66 -33 -54 9 6 11 3 6 -9 -20 -52 -20 -66 2 -66 16 0 21 6 21 28 0 15 9
38 20 52 l20 25 -15 -37 c-8 -21 -14 -54 -14 -75 l1 -38 8 46 c4 25 20 70 35
100 23 44 29 51 35 35 6 -17 7 -17 13 -3 3 8 1 17 -5 19 -6 2 -3 9 6 17 14 12
16 11 16 -8 0 -12 4 -19 10 -16 7 4 6 13 -1 27 -7 13 -7 24 -1 30 7 7 12 3 17
-11 3 -12 13 -21 21 -21 12 0 12 4 4 20 -6 11 -15 20 -21 20 -6 0 -7 5 -4 10
13 22 -4 8 -38 -29z m-115 -103 c-7 -7 -12 -8 -12 -2 0 14 12 26 19 19 2 -3
-1 -11 -7 -17z"/>
<path d="M1803 1174 c-5 -13 -7 -13 -14 -2 -7 10 -9 9 -9 -4 0 -24 19 -32 27
-11 4 10 11 21 17 25 7 5 7 8 -2 8 -7 0 -15 -7 -19 -16z"/>
<path d="M2163 1176 c4 -10 7 -22 7 -26 0 -5 9 -18 21 -28 l20 -19 -20 -56
c-34 -99 -55 -115 -67 -50 -8 40 -16 48 -31 28 -17 -24 -17 -35 2 -35 18 0 20
-16 3 -23 -17 -7 12 -29 30 -22 16 6 15 -10 -2 -24 -11 -9 -15 -9 -19 1 -6 17
-41 -2 -45 -26 -5 -24 17 -20 27 6 5 15 10 18 15 9 4 -6 2 -20 -6 -29 -12 -16
-11 -16 6 -2 18 14 19 13 13 -3 -5 -14 -3 -16 12 -8 13 8 23 6 37 -5 17 -14
17 -15 2 -10 -10 3 -18 3 -18 -1 0 -3 8 -12 18 -20 16 -13 16 -14 -3 -9 -27 8
-54 -46 -35 -70 16 -18 25 -10 25 24 0 16 5 26 13 25 6 -2 12 2 12 8 0 7 7 8
18 4 47 -19 47 -19 28 3 -10 12 -23 20 -29 19 -6 -1 -11 5 -12 13 0 8 -15 22
-32 31 -18 9 -30 19 -26 22 8 9 43 -11 81 -46 29 -28 32 -29 32 -10 0 25 -14
37 -62 52 -21 7 -38 15 -38 18 0 3 9 21 21 39 38 62 70 156 58 171 -6 7 -8 13
-3 13 5 0 2 5 -6 10 -8 5 -10 10 -4 10 10 0 47 -37 74 -75 14 -19 14 -19 -6
-2 -26 22 -31 21 -37 -2 -4 -15 2 -20 30 -26 19 -3 37 -4 39 -2 2 2 -5 25 -16
51 -23 51 -49 72 -100 82 -29 6 -32 5 -27 -10z"/>
<path d="M2095 1166 c-11 -7 -32 -16 -48 -20 -27 -6 -27 -7 -10 -31 21 -28 33
-32 33 -10 0 8 -6 15 -12 15 -7 0 -2 6 12 13 34 18 42 14 63 -35 l17 -41 -25
23 c-13 12 -22 27 -19 31 3 5 3 9 0 9 -3 0 -10 -9 -16 -20 -9 -17 -6 -22 25
-37 19 -9 37 -14 40 -11 6 6 -23 107 -34 120 -4 4 -16 2 -26 -6z"/>
<path d="M1820 1159 c0 -5 5 -7 10 -4 6 3 10 8 10 11 0 2 -4 4 -10 4 -5 0 -10
-5 -10 -11z"/>
<path d="M1694 1135 c-17 -13 -17 -14 -2 -15 9 0 20 5 23 11 11 17 0 20 -21 4z"/>
<path d="M844 1125 c-18 -14 -18 -16 -1 -26 9 -5 17 -17 17 -24 0 -8 4 -15 9
-15 6 0 6 12 1 31 -5 18 -7 36 -4 40 8 13 0 11 -22 -6z"/>
<path d="M1884 1106 c14 -19 26 -41 26 -48 0 -8 -5 -6 -11 5 -6 9 -15 15 -20
11 -6 -4 -4 -13 7 -25 21 -23 34 -24 34 -4 0 18 9 19 33 1 16 -13 15 -16 -22
-45 -21 -17 -41 -31 -44 -31 -3 0 -7 12 -9 28 -2 22 -9 28 -33 30 -27 3 -28 2
-13 -10 21 -16 40 -66 32 -81 -4 -7 9 3 29 22 l35 33 22 -20 c12 -11 29 -19
38 -18 25 4 62 -36 49 -52 -9 -11 -13 -11 -19 5 -7 15 -8 14 -4 -5 3 -16 -3
-27 -20 -39 -14 -8 -22 -18 -20 -20 7 -8 65 36 76 57 8 15 5 24 -15 44 -19 19
-22 26 -11 35 7 6 15 8 18 6 3 -3 12 5 21 19 14 21 14 25 2 30 -9 3 -20 -5
-29 -23 -8 -15 -21 -33 -29 -40 -12 -9 -15 -8 -13 5 0 11 -8 20 -22 23 l-24 6
21 19 c27 24 26 32 -1 41 -20 6 -21 8 -5 12 24 6 52 -16 37 -31 -15 -15 -12
-26 6 -26 12 0 15 8 11 36 -7 50 -19 59 -54 40 -29 -15 -31 -14 -58 14 -39 41
-53 38 -21 -4z m167 -103 c-12 -20 -14 -14 -5 12 4 9 9 14 11 11 3 -2 0 -13
-6 -23z"/>
<path d="M1646 1101 c-4 -6 -15 -11 -25 -11 -10 0 -23 -12 -30 -26 -12 -26
-11 -27 18 -21 17 4 40 16 51 27 11 11 26 20 34 20 8 0 18 4 21 10 4 6 -4 6
-21 0 -20 -8 -29 -8 -34 1 -6 8 -9 8 -14 0z m14 -15 c0 -2 -7 -9 -15 -16 -13
-11 -14 -10 -9 4 5 14 24 23 24 12z"/>
<path d="M1841 1094 c14 -17 32 -19 27 -2 -2 6 -12 12 -22 14 -14 2 -15 0 -5
-12z"/>
<path d="M663 1076 c-37 -31 -55 -73 -51 -117 3 -34 4 -34 56 -37 48 -3 53 -1
48 15 -3 10 -7 32 -9 49 -2 17 -9 39 -15 49 -7 13 -7 26 0 38 15 29 3 30 -29
3z"/>
<path d="M1692 1073 c-6 -2 -10 -9 -6 -14 3 -5 -3 -9 -13 -9 -15 0 -14 -3 6
-16 17 -12 26 -13 34 -5 8 8 7 11 -6 11 -11 0 -14 5 -10 16 3 8 12 13 20 10 8
-3 11 -1 8 4 -7 11 -13 11 -33 3z"/>
<path d="M826 1061 c-10 -15 1 -78 15 -86 5 -4 23 -3 40 0 l30 7 -25 26 c-15
15 -32 36 -40 46 -9 14 -15 16 -20 7z"/>
<path d="M2225 1040 c3 -5 8 -10 11 -10 2 0 4 5 4 10 0 6 -5 10 -11 10 -5 0
-7 -4 -4 -10z"/>
<path d="M1784 1025 c-3 -8 -2 -20 2 -27 5 -7 8 -22 7 -33 -1 -16 -1 -16 3 -2
3 9 10 17 15 17 5 0 9 7 9 15 0 8 -7 15 -15 15 -18 0 -20 16 -2 23 9 4 9 6 -1
6 -7 1 -15 -6 -18 -14z"/>
<path d="M2266 1031 c-4 -7 -5 -15 -2 -18 9 -9 19 4 14 18 -4 11 -6 11 -12 0z"/>
<path d="M1576 1022 c-6 -9 4 -21 31 -36 9 -5 11 -2 6 10 -5 14 -2 16 18 10
41 -12 54 -12 54 4 0 11 -14 16 -52 18 -28 2 -54 -1 -57 -6z"/>
<path d="M2206 969 c-17 -38 -20 -56 -12 -61 20 -14 33 -8 44 17 17 37 14 45
-4 13 -14 -28 -34 -38 -34 -18 0 6 4 10 8 10 11 0 36 80 28 88 -3 3 -17 -19
-30 -49z"/>
<path d="M1726 1002 c-3 -5 -2 -22 3 -38 10 -40 45 -40 49 0 3 27 2 28 -24 22
-24 -6 -26 -5 -15 8 8 10 9 16 3 16 -6 0 -13 -4 -16 -8z"/>
<path d="M1450 975 c0 -51 55 -96 68 -56 2 7 -2 11 -10 9 -7 -2 -14 1 -15 6
-1 5 -7 13 -15 18 -8 5 1 6 25 2 31 -5 37 -3 37 11 0 12 -6 16 -18 13 -10 -3
-27 1 -37 8 -27 20 -35 17 -35 -11z"/>
<path d="M1802 932 c-17 -39 -34 -82 -38 -96 -3 -14 -9 -24 -13 -23 -3 1 -17
-6 -31 -16 -13 -9 -19 -17 -12 -17 7 0 10 -4 7 -10 -3 -5 -4 -10 -1 -10 3 0
12 12 21 28 15 27 15 26 11 -23 -3 -27 -3 -41 0 -30 19 73 57 179 75 209 11
20 19 41 17 47 -2 7 -18 -20 -36 -59z"/>
<path d="M1626 964 c-3 -9 -11 -12 -18 -8 -7 4 -10 4 -6 0 3 -4 -17 -37 -44
-74 -44 -58 -88 -139 -88 -160 0 -4 18 25 39 63 52 93 107 156 129 149 12 -4
13 -3 4 3 -7 5 -10 17 -6 26 3 9 4 17 1 17 -3 0 -8 -7 -11 -16z"/>
<path d="M1696 971 c-4 -7 -5 -15 -2 -18 9 -9 19 4 14 18 -4 11 -6 11 -12 0z"/>
<path d="M885 946 l-50 -11 -3 -158 c-3 -178 -9 -167 83 -144 57 15 73 42 31
53 -26 6 -26 7 -26 106 0 95 1 101 25 120 29 23 33 48 8 47 -10 0 -40 -6 -68
-13z"/>
<path d="M1836 944 c-4 -9 -4 -19 -1 -22 2 -3 7 3 11 12 4 9 4 19 1 22 -2 3
-7 -3 -11 -12z"/>
<path d="M1883 925 c-19 -21 -16 -27 7 -15 11 6 20 15 20 20 0 14 -13 12 -27
-5z"/>
<path d="M1708 923 c7 -3 16 -2 19 1 4 3 -2 6 -13 5 -11 0 -14 -3 -6 -6z"/>
<path d="M1981 921 c-9 -6 -10 -11 -2 -15 23 -15 9 -26 -31 -27 -39 0 -41 -2
-20 -11 33 -17 70 3 68 36 0 14 -1 26 -1 26 0 0 -6 -4 -14 -9z"/>
<path d="M1530 905 c0 -16 16 -20 24 -6 3 5 -1 11 -9 15 -9 3 -15 0 -15 -9z"/>
<path d="M1020 902 c0 -12 78 -33 85 -22 7 12 -3 17 -48 25 -22 4 -37 3 -37
-3z"/>
<path d="M1616 876 c5 -33 11 -43 20 -33 4 4 2 12 -3 19 -6 7 -13 20 -16 28
-2 8 -3 2 -1 -14z"/>
<path d="M1631 894 c0 -11 3 -14 6 -6 3 7 2 16 -1 19 -3 4 -6 -2 -5 -13z"/>
<path d="M1664 896 c-3 -8 -4 -20 -2 -28 4 -17 -116 -130 -127 -120 -5 4 -5 2
-1 -5 4 -7 -7 -39 -24 -72 -43 -86 -37 -89 9 -6 22 39 62 92 90 119 49 49 51
49 71 31 15 -14 23 -15 34 -6 20 17 28 58 16 81 -12 23 -58 27 -66 6z m54 -35
c2 -13 -2 -28 -8 -35 -9 -8 -10 -4 -5 19 5 28 5 28 -6 8 -7 -13 -16 -23 -22
-23 -5 0 -4 6 2 14 9 11 9 15 0 18 -18 6 0 30 19 26 10 -2 19 -14 20 -27z"/>
<path d="M1750 895 c0 -8 2 -15 4 -15 2 0 6 7 10 15 3 8 1 15 -4 15 -6 0 -10
-7 -10 -15z"/>
<path d="M1913 900 c-17 -4 -48 -17 -67 -28 l-36 -21 5 27 c5 26 5 26 -5 3 -6
-13 -8 -26 -5 -29 3 -3 -3 -14 -12 -26 -10 -11 4 -3 31 17 26 20 65 39 85 43
53 8 56 10 46 16 -6 2 -24 2 -42 -2z"/>
<path d="M1467 868 c-43 -58 -60 -123 -61 -240 -1 -62 -5 -104 -10 -100 -5 3
-7 -2 -3 -11 4 -12 1 -17 -9 -17 -10 0 -14 6 -11 15 4 8 2 17 -3 20 -6 4 -10
-2 -10 -12 0 -16 -1 -16 -16 -1 -21 21 -10 38 24 39 17 1 21 3 10 6 -10 2 -18
13 -18 24 0 22 -4 23 -31 9 -10 -6 -19 -17 -19 -25 0 -8 -5 -15 -10 -15 -25 0
-1 -37 40 -62 24 -15 50 -35 57 -44 10 -14 16 -15 25 -6 8 8 8 15 0 25 -16 19
-3 30 16 14 11 -9 10 -3 -4 23 -15 28 -18 53 -16 122 2 95 20 160 59 220 32
48 24 61 -10 16z"/>
<path d="M555 874 c-33 -8 -102 -24 -152 -35 l-93 -21 0 -44 c0 -24 4 -44 9
-44 9 0 226 48 254 56 15 5 17 -5 17 -109 0 -110 1 -115 20 -110 19 5 20 14
20 159 0 84 -3 155 -7 157 -5 2 -35 -2 -68 -9z"/>
<path d="M660 850 c0 -45 21 -55 40 -20 25 46 78 -30 67 -95 -8 -46 -46 -100
-60 -86 -6 6 -19 11 -29 11 -14 0 -18 -8 -18 -40 0 -54 20 -53 80 8 58 57 78
115 61 173 -15 49 -62 89 -107 89 -33 0 -34 -1 -34 -40z"/>
<path d="M1510 870 c0 -5 5 -10 11 -10 5 0 7 5 4 10 -3 6 -8 10 -11 10 -2 0
-4 -4 -4 -10z"/>
<path d="M1016 853 c-3 -3 -1 -13 3 -22 10 -19 77 -91 84 -91 3 0 12 20 20 44
l15 45 -31 10 c-45 14 -84 20 -91 14z"/>
<path d="M1471 811 c-24 -56 -25 -65 -11 -56 19 12 52 87 42 97 -6 6 -17 -10
-31 -41z"/>
<path d="M1886 844 c-10 -25 1 -29 14 -5 6 12 7 21 1 21 -5 0 -12 -7 -15 -16z"/>
<path d="M970 831 c0 -12 -4 -21 -10 -21 -20 0 -10 -38 13 -44 l22 -6 -22 -19
-23 -19 24 -16 c14 -8 27 -25 31 -36 6 -20 7 -21 20 -3 7 10 11 21 8 26 -2 4
1 14 7 22 6 8 10 22 7 32 -3 15 -6 13 -15 -9 -12 -29 -26 -36 -37 -17 -4 6 1
16 10 23 14 10 15 17 7 32 -6 10 -14 19 -19 19 -4 0 -6 10 -5 22 2 11 -2 24
-7 28 -7 3 -11 -2 -11 -14z"/>
<path d="M2055 840 c-61 -7 -181 -46 -191 -61 -12 -19 -24 -7 -24 24 l-1 32
-14 -25 c-19 -33 -18 -40 2 -40 14 0 14 -2 -2 -20 l-19 -21 -15 28 -16 28 -3
-29 c-5 -44 16 -48 64 -11 54 41 136 73 212 81 31 4 64 10 72 15 8 5 11 8 5 7
-5 0 -37 -4 -70 -8z"/>
<path d="M1568 823 c-20 -5 -33 -33 -14 -33 13 0 42 28 35 33 -2 2 -11 2 -21
0z"/>
<path d="M2068 807 c7 -8 8 -24 3 -42 -6 -24 -9 -27 -17 -14 -14 24 -48 39
-86 38 l-33 -1 40 -9 c42 -10 85 -44 85 -67 0 -11 -3 -12 -14 -3 -25 21 -67
-14 -49 -41 3 -7 1 -8 -5 -4 -7 4 -12 3 -12 -3 0 -17 19 -22 41 -10 12 6 35
15 51 20 24 7 29 5 24 -6 -9 -26 4 -16 23 16 17 28 18 34 5 46 -7 8 -18 11
-24 8 -15 -9 -12 -25 5 -25 16 0 20 -16 6 -24 -5 -3 -17 6 -26 20 -12 19 -14
29 -6 34 7 4 9 15 4 26 -6 17 -5 18 12 4 18 -15 18 -14 0 18 -11 17 -23 32
-28 32 -5 0 -5 -6 1 -13z"/>
<path d="M210 792 c-36 -8 -66 -15 -67 -16 -3 -3 18 -130 22 -134 2 -2 22 2
45 8 41 11 42 12 37 48 -3 27 1 43 15 59 11 11 18 27 16 35 -2 11 -13 11 -68
0z"/>
<path d="M1640 801 c0 -10 30 -24 37 -17 3 3 2 9 -2 15 -8 13 -35 15 -35 2z"/>
<path d="M661 738 c-1 -47 0 -48 29 -48 32 0 50 26 50 73 0 16 -3 18 -12 9
-16 -16 -55 -15 -61 1 -3 6 -6 -9 -6 -35z"/>
<path d="M1620 769 c0 -17 20 -49 30 -49 6 0 9 3 9 8 -5 30 3 33 36 12 19 -12
35 -18 35 -13 0 10 -79 53 -97 53 -7 0 -13 -5 -13 -11z"/>
<path d="M1895 765 c-19 -15 -19 -15 -1 -26 10 -6 27 -20 37 -30 11 -11 25
-19 32 -20 6 0 1 -6 -13 -12 -49 -23 -51 -32 -15 -67 32 -31 36 -32 65 -20 18
8 29 18 26 26 -3 7 0 15 7 18 7 3 1 3 -13 0 -32 -6 -67 17 -54 37 9 15 11 20
13 44 0 9 11 20 24 24 24 10 16 15 -33 24 -14 2 -32 7 -40 11 -9 4 -24 0 -35
-9z m63 -123 c2 -7 -3 -12 -12 -12 -9 0 -16 7 -16 16 0 17 22 14 28 -4z m56
-34 c-7 -12 -44 -10 -44 2 0 5 11 9 24 8 14 -1 22 -6 20 -10z"/>
<path d="M1151 733 c-1 -40 1 -43 26 -43 24 0 25 1 10 13 -10 6 -21 26 -26 42
-9 29 -9 29 -10 -12z"/>
<path d="M1595 750 c-3 -5 -1 -10 4 -10 6 0 11 5 11 10 0 6 -2 10 -4 10 -3 0
-8 -4 -11 -10z"/>
<path d="M1857 743 c-14 -13 -6 -33 13 -33 11 0 20 4 20 9 0 13 -26 32 -33 24z"/>
<path d="M1498 735 c-3 -5 -9 -26 -12 -45 l-7 -35 16 28 c15 26 18 76 3 52z"/>
<path d="M483 708 l-43 -9 0 -50 c0 -54 -1 -53 70 -38 l50 11 0 49 c0 54 0 55
-77 37z"/>
<path d="M1637 691 c-92 -54 -121 -101 -130 -208 -4 -52 -3 -53 28 -63 72 -24
158 23 221 122 56 86 51 102 -5 19 -51 -75 -95 -109 -155 -120 -40 -7 -46 -6
-41 6 4 12 0 14 -15 10 -36 -9 -21 15 53 90 41 40 70 73 66 73 -4 0 -9 10 -11
22 -3 21 -4 21 -40 -11 -21 -18 -38 -39 -38 -47 0 -20 10 -17 42 13 15 14 29
25 31 22 2 -2 -25 -33 -61 -69 l-64 -65 7 40 c12 64 40 100 115 145 39 23 70
44 70 46 0 11 -30 0 -73 -25z"/>
<path d="M1557 703 c-8 -8 -9 -43 -1 -43 3 0 22 11 42 25 l37 25 -36 0 c-20 0
-39 -3 -42 -7z"/>
<path d="M353 688 l-43 -9 0 -90 c0 -81 2 -90 18 -85 9 2 61 14 115 26 78 18
97 25 97 40 0 16 -4 16 -57 4 -32 -8 -61 -14 -65 -14 -5 0 -8 32 -8 70 0 39
-3 70 -7 69 -5 -1 -27 -5 -50 -11z"/>
<path d="M1087 676 c5 -26 27 -26 37 0 3 8 2 12 -3 9 -5 -3 -12 -1 -16 5 -12
19 -22 10 -18 -14z"/>
<path d="M1895 690 c-17 -7 -14 -9 13 -9 20 -1 31 3 27 9 -7 12 -13 12 -40 0z"/>
<path d="M1050 675 c-10 -12 -10 -15 4 -15 9 0 16 7 16 15 0 8 -2 15 -4 15 -2
0 -9 -7 -16 -15z"/>
<path d="M1816 669 c5 -9 74 -17 74 -8 0 4 -18 9 -39 11 -22 2 -37 0 -35 -3z"/>
<path d="M1451 654 c0 -11 3 -14 6 -6 3 7 2 16 -1 19 -3 4 -6 -2 -5 -13z"/>
<path d="M1690 666 c0 -2 7 -6 15 -10 8 -3 15 -1 15 4 0 6 -7 10 -15 10 -8 0
-15 -2 -15 -4z"/>
<path d="M1123 631 c-22 -16 -50 -49 -62 -73 -28 -60 -27 -70 7 -62 66 16 72
21 72 63 0 30 5 42 25 55 27 18 34 46 12 46 -8 0 -32 -13 -54 -29z"/>
<path d="M1665 650 c-3 -5 -1 -10 4 -10 6 0 11 5 11 10 0 6 -2 10 -4 10 -3 0
-8 -4 -11 -10z"/>
<path d="M1803 640 c35 -28 51 -57 31 -57 -7 0 -14 5 -14 11 0 6 -5 4 -12 -3
-11 -10 -8 -16 11 -32 35 -29 51 -24 51 14 -1 41 -27 74 -65 82 l-30 6 28 -21z"/>
<path d="M1507 620 c-8 -19 -13 -39 -10 -44 8 -13 35 42 30 62 -3 12 -8 7 -20
-18z"/>
<path d="M975 612 l-60 -17 -3 -68 -3 -69 43 7 c49 8 59 19 56 57 -2 18 6 37
26 57 15 16 25 34 22 40 -9 13 -7 13 -81 -7z"/>
<path d="M1440 601 c0 -17 4 -32 8 -35 4 -2 6 11 4 30 -5 42 -12 45 -12 5z"/>
<path d="M216 611 c-9 -14 15 -131 28 -131 37 1 43 40 20 123 -5 18 -39 24
-48 8z"/>
<path d="M1741 594 c0 -11 3 -14 6 -6 3 7 2 16 -1 19 -3 4 -6 -2 -5 -13z"/>
<path d="M1670 591 c0 -7 -4 -10 -8 -7 -11 7 -98 -82 -89 -91 4 -3 13 -1 19 5
19 19 32 14 17 -5 -11 -16 -11 -16 1 -5 8 7 15 16 15 20 0 4 10 21 23 37 19
23 25 26 32 15 7 -12 12 -11 29 4 12 11 21 24 21 30 0 6 -8 2 -16 -9 -15 -20
-15 -20 -30 -1 -8 11 -14 14 -14 7z"/>
<path d="M853 583 c-10 -3 -13 -41 -13 -143 l0 -139 -36 -10 c-20 -6 -83 -20
-140 -32 -87 -19 -104 -25 -104 -41 0 -14 5 -17 23 -13 64 15 290 65 293 65 8
0 4 309 -3 313 -5 2 -14 2 -20 0z"/>
<path d="M765 565 c-5 -2 -54 -14 -107 -26 l-98 -21 0 -114 c0 -142 12 -149
70 -35 36 72 43 81 77 90 21 6 45 11 54 11 25 0 41 25 37 61 -3 31 -12 41 -33
34z"/>
<path d="M1541 544 c0 -11 3 -14 6 -6 3 7 2 16 -1 19 -3 4 -6 -2 -5 -13z"/>
<path d="M1695 542 c-11 -2 -31 -16 -45 -31 -14 -15 -35 -33 -45 -39 -11 -6
-17 -13 -14 -17 12 -12 58 7 95 39 39 34 43 54 9 48z"/>
<path d="M472 489 c-18 -12 -45 -42 -60 -67 -23 -41 -27 -60 -30 -149 -5 -118
-9 -113 93 -89 55 12 65 33 27 52 -23 11 -24 17 -24 109 0 93 2 99 26 122 15
13 24 28 21 34 -9 13 -16 11 -53 -12z"/>
<path d="M1195 458 c-27 -30 -30 -38 -15 -38 6 0 16 11 22 25 16 37 30 31 22
-10 -7 -38 14 -52 23 -15 3 11 12 20 20 20 9 0 13 6 10 15 -4 8 -2 17 4 20 18
12 21 -25 4 -51 -9 -14 -14 -32 -11 -40 5 -13 10 -13 36 1 19 10 30 11 30 5 0
-6 4 -9 10 -5 5 3 6 13 3 21 -5 13 -1 15 15 10 25 -8 38 9 21 27 -10 10 -16 9
-35 -8 -54 -49 -64 -54 -64 -31 0 8 12 24 27 36 35 28 19 44 -47 45 -43 1 -54
-3 -75 -27z"/>
<path d="M1070 461 c-52 -15 -9 -92 62 -112 21 -5 43 -7 48 -4 19 12 10 35
-15 41 -21 5 -25 12 -25 45 0 34 -3 39 -22 38 -13 -1 -34 -4 -48 -8z"/>
<path d="M1454 448 l-19 -21 28 18 c28 18 33 25 19 25 -5 0 -17 -10 -28 -22z"/>
<path d="M1665 424 c-30 -17 -35 -24 -20 -24 11 0 32 7 45 16 18 11 16 8 -5
-10 -16 -14 -25 -26 -19 -26 19 0 53 40 48 55 -4 8 -7 15 -8 14 0 0 -19 -12
-41 -25z"/>
<path d="M948 428 l-38 -10 0 -69 c0 -38 3 -69 8 -69 16 1 121 28 131 35 18
11 13 23 -16 37 -21 10 -27 20 -28 47 0 39 -6 42 -57 29z"/>
<path d="M765 415 c-5 -2 -22 -6 -37 -9 -21 -5 -35 -20 -54 -57 -14 -28 -23
-53 -20 -56 2 -3 39 3 80 12 l76 17 0 49 c0 49 -8 57 -45 44z"/>
<path d="M1407 403 c-4 -3 -7 -13 -7 -21 0 -12 3 -12 15 -2 8 7 15 16 15 21 0
11 -14 12 -23 2z"/>
<path d="M1440 385 c-13 -14 -19 -25 -13 -25 12 0 48 38 41 45 -2 3 -15 -6
-28 -20z"/>
<path d="M508 390 c-8 -24 5 -130 15 -130 8 0 11 22 9 70 -3 62 -14 89 -24 60z"/>
<path d="M1486 392 c-9 -14 10 -33 27 -26 21 8 22 20 1 28 -20 8 -22 8 -28 -2z"/>
</g>
</svg>
