<?xml version="1.0" standalone="no"?>
<!DOCTYPE svg PUBLIC "-//W3C//DTD SVG 20010904//EN"
 "http://www.w3.org/TR/2001/REC-SVG-20010904/DTD/svg10.dtd">
<svg version="1.0" xmlns="http://www.w3.org/2000/svg"
 width="256.000000pt" height="256.000000pt" viewBox="0 0 256.000000 256.000000"
 preserveAspectRatio="xMidYMid meet">
<metadata>
Created by potrace 1.16, written by Peter Selinger 2001-2019
</metadata>
<g transform="translate(0.000000,256.000000) scale(0.100000,-0.100000)"
fill="#e5e5e5" stroke="none">
<path d="M735 2530 c-195 -51 -456 -196 -526 -293 -42 -58 -37 -108 19 -202
62 -102 56 -138 -44 -255 -69 -81 -127 -195 -151 -297 -25 -109 -26 -429 0
-521 45 -165 130 -313 256 -445 155 -162 346 -251 566 -263 50 -3 105 -7 123
-10 51 -8 100 -57 118 -119 18 -64 78 -125 122 -125 50 0 207 29 297 55 205
60 306 122 320 199 5 22 -2 79 -19 159 -14 68 -26 147 -26 175 0 45 4 55 35
86 22 22 48 37 72 41 126 21 156 55 168 190 16 175 45 275 98 334 12 13 56 46
97 72 130 84 151 100 181 142 35 49 64 136 49 151 -7 7 -10 6 -10 -2 0 -7 -5
-12 -11 -12 -8 0 -7 5 1 15 7 9 19 14 26 11 19 -7 39 20 22 30 -29 18 -47 12
-73 -24 -16 -20 -35 -43 -44 -50 -14 -11 -14 -14 -1 -22 11 -7 7 -10 -18 -10
-23 0 -32 -4 -29 -12 2 -7 16 -13 31 -13 25 1 25 0 9 -17 -33 -32 -134 -86
-228 -123 -51 -20 -99 -43 -106 -51 -10 -13 -14 -12 -25 5 -9 12 -21 17 -34
14 -22 -6 -27 -29 -9 -35 37 -12 -66 -158 -111 -158 -21 0 -22 -3 -16 -47 3
-25 18 -71 33 -102 l27 -56 6 60 c9 78 26 138 56 197 24 47 50 76 37 41 -6
-16 -5 -16 11 -4 9 8 14 21 11 30 -3 8 -3 12 1 8 4 -4 27 11 50 33 64 58 74
49 14 -12 -29 -29 -60 -69 -70 -88 -30 -60 -51 -167 -52 -261 0 -124 0 -124
-160 -119 -75 2 -77 1 -91 -27 -8 -15 -17 -41 -21 -57 -4 -17 -16 -42 -27 -57
-17 -25 -18 -30 -4 -68 23 -66 75 -289 75 -322 0 -24 -105 -74 -260 -123 -108
-34 -293 -71 -309 -62 -4 3 -11 43 -15 88 -4 46 -9 100 -13 120 -5 34 -3 38
28 53 l34 15 -35 -6 c-19 -4 -46 -8 -60 -9 -14 -2 -36 -7 -50 -13 -36 -13
-187 -14 -267 -2 -99 16 -237 65 -318 112 -160 95 -316 311 -372 518 -28 103
-24 359 6 465 53 184 176 349 293 393 66 26 137 61 122 62 -6 0 -29 -7 -50
-16 -39 -16 -39 -16 -59 11 -11 16 -34 47 -52 69 -17 23 -53 71 -79 109 -55
78 -64 61 81 159 137 91 285 162 409 194 59 15 60 15 79 -8 18 -23 18 -23 7 0
-6 12 -7 22 -2 22 19 0 147 -180 218 -306 30 -53 39 -63 70 -69 33 -6 38 -3
74 37 51 58 120 95 197 103 54 7 68 4 120 -19 32 -15 81 -50 110 -78 48 -47
52 -49 62 -30 6 11 23 24 39 30 33 11 118 0 135 -17 9 -10 4 -11 -25 -6 -64
12 -105 9 -132 -8 l-26 -18 22 -29 c27 -37 44 -37 118 0 33 17 64 30 70 30 26
0 4 -18 -60 -50 -38 -19 -70 -40 -70 -47 0 -6 25 2 58 18 31 17 46 22 33 12
-49 -35 -66 -51 -61 -56 3 -2 48 -1 100 2 52 4 97 4 100 0 3 -3 29 -14 59 -24
43 -14 60 -15 90 -7 20 6 47 14 61 17 24 6 24 5 6 -9 -11 -9 -39 -23 -63 -32
-44 -17 -89 -13 -158 12 -19 7 -19 7 -2 -13 9 -11 14 -23 10 -26 -11 -12 -23
-8 -23 9 0 11 -6 14 -20 9 -12 -4 -20 -2 -20 5 0 6 -12 15 -26 20 -20 8 -33 6
-55 -7 -36 -21 -37 -33 -3 -33 22 0 25 2 14 15 -10 12 -10 15 3 15 8 0 20 -7
27 -15 7 -8 19 -15 27 -15 10 0 13 -6 9 -16 -4 -12 -1 -14 13 -9 11 3 22 1 26
-5 14 -22 144 2 217 41 48 26 132 93 120 97 -25 8 -11 20 23 19 19 -1 35 -1
35 -2 0 0 -28 -21 -61 -45 -34 -25 -70 -53 -80 -62 -11 -10 -23 -18 -28 -18
-11 0 -91 -77 -85 -83 3 -2 -2 -10 -11 -17 -8 -7 -15 -19 -15 -26 0 -8 -6 -14
-12 -14 -7 0 -5 -5 5 -11 9 -5 17 -17 17 -24 0 -19 3 -19 42 5 18 11 37 20 42
20 4 0 -43 -34 -105 -76 -63 -42 -124 -85 -136 -97 -13 -11 -25 -18 -28 -15
-3 3 16 25 43 49 36 32 51 54 56 80 4 21 18 54 32 74 14 21 23 39 22 41 -6 5
-232 -145 -245 -163 -18 -24 -16 -67 5 -86 11 -10 35 -15 72 -15 31 0 70 -3
88 -6 26 -6 32 -4 32 9 0 8 -7 18 -15 21 -27 11 13 52 116 120 96 63 172 103
94 49 -22 -15 -54 -39 -72 -52 l-32 -23 26 -63 c15 -34 30 -66 34 -71 19 -22
209 94 245 150 17 25 16 26 -24 67 -54 55 -55 85 -2 181 35 64 40 81 40 137 0
79 -23 132 -75 178 -56 49 -93 61 -190 61 -82 0 -86 1 -122 33 -155 138 -383
223 -623 234 -143 6 -243 -5 -377 -43 l-93 -26 -32 27 c-39 33 -88 55 -120 54
-13 0 -54 -8 -93 -19z m609 -57 c3 -10 8 -40 12 -68 6 -49 23 -95 24 -66 0 9
7 11 22 8 14 -4 29 0 40 10 35 31 12 97 -30 86 -18 -4 -22 -1 -22 16 0 29 34
27 65 -4 25 -24 32 -65 19 -100 -9 -21 -56 -45 -92 -45 -27 0 -30 4 -36 38 -4
20 -9 49 -12 63 l-5 26 -72 -13 c-54 -9 -74 -9 -79 0 -19 27 -2 41 62 52 92
16 98 16 104 -3z m255 -18 c3 -4 -4 -14 -16 -23 -26 -21 -43 -110 -23 -122 26
-16 1 -29 -38 -18 -20 5 -38 11 -39 12 -2 2 13 74 28 130 10 37 12 38 46 33
19 -4 38 -9 42 -12z m-469 -23 c0 -4 -5 -13 -11 -19 -8 -8 -8 -17 0 -31 9 -17
7 -21 -12 -26 -12 -3 -25 -6 -29 -6 -13 0 -40 62 -31 70 16 16 83 25 83 12z
m110 -64 c0 -39 15 -52 50 -45 23 5 30 3 27 -6 -4 -12 -104 -33 -114 -23 -8 8
-21 85 -15 91 3 3 16 5 29 5 17 0 23 -6 23 -22z m580 12 c0 -5 -9 -10 -20 -10
-26 0 -63 -83 -55 -122 l7 -28 -39 16 c-21 9 -39 17 -41 19 -7 6 50 115 65
124 23 13 83 14 83 1z m106 -50 c47 -33 49 -37 34 -60 -8 -13 -13 -13 -40 2
-30 17 -33 17 -70 -2 -45 -23 -50 -24 -50 -9 0 16 60 99 71 99 6 0 30 -14 55
-30z m-771 -20 c18 -36 19 -37 0 -44 -14 -5 -45 38 -45 64 0 22 30 9 45 -20z
m851 -45 c-11 -29 -87 -135 -96 -135 -14 0 -140 83 -140 93 0 16 28 4 79 -33
30 -21 58 -37 62 -35 3 3 24 32 45 65 36 55 64 80 50 45z m88 -66 c26 -31 27
-53 1 -43 -7 3 -23 0 -35 -6 -18 -9 -25 -8 -41 6 -19 17 -19 18 8 46 15 15 30
28 34 28 4 0 19 -14 33 -31z m160 -9 c-35 -14 -117 -16 -122 -2 -3 9 16 12 70
11 50 0 67 -3 52 -9z m-244 -45 c11 -13 11 -20 0 -40 -7 -13 -10 -31 -7 -39
10 -26 -17 -18 -48 14 l-29 30 24 25 c27 29 42 31 60 10z m330 -9 c0 -9 -121
-78 -127 -72 -8 8 -7 9 62 44 66 34 65 34 65 28z m-179 -41 c32 -17 32 -36 -1
-28 -11 3 -26 0 -33 -6 -11 -8 -19 -5 -35 12 -12 13 -19 27 -15 30 11 12 53 8
84 -8z m188 -67 c-73 -85 -89 -96 -70 -46 8 21 103 108 118 108 3 0 -19 -28
-48 -62z m-274 32 c17 -19 17 -21 0 -40 -9 -10 -15 -26 -12 -34 9 -23 -11 -29
-22 -7 -17 32 -11 101 9 101 4 0 15 -9 25 -20z m320 -30 c3 -6 -1 -7 -9 -4
-18 7 -21 14 -7 14 6 0 13 -4 16 -10z m-265 -14 c0 -3 -4 -8 -10 -11 -5 -3
-10 -1 -10 4 0 6 5 11 10 11 6 0 10 -2 10 -4z m125 -17 c14 -42 -45 -66 -61
-24 -10 25 4 45 30 45 16 0 27 -7 31 -21z m200 -418 c3 -5 1 -12 -4 -15 -5 -3
-11 1 -15 9 -6 16 9 21 19 6z"/>
<path d="M2212 1989 c2 -6 8 -10 13 -10 5 0 11 4 13 10 2 6 -4 11 -13 11 -9 0
-15 -5 -13 -11z"/>
<path d="M1435 2170 c4 -6 10 -8 15 -5 14 9 157 -91 153 -106 -2 -4 4 -6 12
-3 9 4 22 0 31 -7 13 -10 17 -10 25 2 15 24 10 31 -17 25 -20 -5 -24 -3 -22
11 2 13 -3 17 -19 16 -15 -2 -23 3 -23 12 0 8 -9 15 -19 15 -10 0 -22 7 -25
16 -3 8 -10 13 -15 10 -5 -3 -11 1 -15 9 -3 10 -19 15 -46 15 -25 0 -39 -4
-35 -10z"/>
<path d="M1367 2159 c-24 -14 -66 -57 -60 -62 2 -3 0 -8 -6 -12 -6 -3 -11 -1
-11 4 0 18 -14 12 -29 -11 -13 -21 -13 -22 2 -10 9 8 21 11 27 7 14 -8 42 14
34 27 -3 5 0 8 7 7 8 -1 25 2 38 8 22 9 22 10 6 17 -17 6 -17 7 1 21 22 17 17
19 -9 4z"/>
<path d="M1409 2160 c-1 -6 -2 -15 -3 -21 -1 -6 18 -13 42 -15 23 -2 42 -2 42
0 0 9 -80 45 -81 36z"/>
<path d="M1560 2156 c0 -2 7 -7 16 -10 8 -3 12 -2 9 4 -6 10 -25 14 -25 6z"/>
<path d="M960 2110 c0 -5 0 -13 0 -17 0 -5 11 -8 25 -8 30 -1 32 10 6 25 -25
13 -31 13 -31 0z"/>
<path d="M1500 2112 c0 -12 19 -26 26 -19 2 2 -2 10 -11 17 -9 8 -15 8 -15 2z"/>
<path d="M914 2100 c-12 -5 -31 -22 -43 -39 l-22 -30 26 -17 c30 -20 47 -10
19 11 -13 10 -15 14 -5 15 8 0 12 3 8 6 -12 12 21 34 40 27 15 -6 16 -4 6 9
-7 8 -10 18 -6 21 8 9 4 8 -23 -3z"/>
<path d="M710 2072 c0 -10 12 -25 28 -32 15 -8 48 -29 73 -47 51 -36 71 -40
88 -19 15 17 -11 30 -27 14 -8 -8 -13 -7 -18 5 -3 9 -12 17 -19 17 -7 0 -15 7
-19 15 -3 8 -12 15 -21 15 -13 0 -19 11 -17 31 1 4 -7 5 -17 2 -10 -3 -22 0
-25 6 -11 17 -26 13 -26 -7z"/>
<path d="M1338 2055 c-21 -28 -26 -77 -6 -57 17 17 29 15 26 -4 -2 -10 2 -19
8 -21 17 -6 4 48 -13 54 -12 5 -12 7 -1 14 22 15 38 10 38 -11 0 -13 9 -22 28
-26 15 -3 33 -7 40 -10 26 -8 10 26 -20 43 -26 13 -29 18 -15 21 9 2 15 8 11
13 -4 6 -11 6 -19 -1 -10 -8 -19 -8 -34 -1 -25 14 -23 15 -43 -14z"/>
<path d="M655 2050 c-3 -5 -1 -10 4 -10 6 0 11 -7 11 -15 0 -8 9 -15 20 -15
26 0 26 26 1 40 -24 12 -28 13 -36 0z"/>
<path d="M1450 2051 c0 -5 14 -16 31 -25 28 -14 30 -14 18 0 -17 21 -49 37
-49 25z"/>
<path d="M1033 2043 c-15 -3 -23 -12 -23 -24 0 -10 -5 -19 -11 -19 -6 0 -9 7
-5 15 3 10 -1 15 -12 15 -23 0 -42 -19 -42 -43 0 -25 -61 -80 -74 -67 -6 6
-17 10 -25 10 -8 0 -25 9 -37 21 -18 16 -26 19 -41 10 -17 -10 -17 -10 0 -11
30 0 19 -36 -23 -74 -47 -42 -50 -68 -12 -101 27 -23 25 -49 -2 -26 -8 7 -32
11 -53 9 -38 -3 -38 -3 -35 -43 2 -22 8 -46 14 -52 8 -10 6 -13 -5 -13 -21 0
-40 27 -34 49 5 21 -37 70 -50 58 -3 -4 0 -13 9 -20 20 -15 31 -47 17 -47 -7
0 -9 -10 -4 -27 6 -24 5 -25 -10 -13 -11 9 -14 22 -10 38 4 16 1 28 -11 36
-23 17 -11 47 26 69 16 10 30 22 30 28 0 15 -19 10 -38 -9 -10 -10 -23 -17
-29 -15 -5 2 -21 -5 -34 -16 -13 -11 -18 -20 -11 -21 17 0 15 -39 -3 -46 -8
-4 -15 -13 -15 -21 0 -10 -6 -13 -16 -9 -26 10 -89 -30 -132 -84 -31 -38 -41
-46 -46 -34 -4 10 -14 14 -26 11 -19 -5 -19 -4 2 25 13 16 30 40 39 53 18 28
63 65 78 65 14 0 14 13 0 27 -8 8 -7 17 2 34 12 24 12 24 -10 5 -11 -11 -21
-25 -21 -33 0 -8 -24 -44 -54 -81 -64 -79 -86 -122 -116 -222 -12 -41 -27 -78
-33 -82 -6 -4 2 -10 19 -13 52 -12 61 -19 27 -23 -25 -2 -33 -8 -33 -23 0 -11
-4 -18 -9 -15 -10 6 -5 -83 10 -211 16 -135 87 -298 167 -382 23 -25 42 -53
42 -62 0 -18 63 -79 81 -79 10 0 13 -2 70 -49 20 -17 38 -28 41 -26 3 3 35 -9
72 -26 46 -22 74 -29 92 -25 15 4 23 3 20 -3 -3 -5 2 -12 12 -16 33 -13 157
-17 212 -7 40 7 57 7 63 -1 5 -7 6 0 3 15 -5 21 -3 28 9 28 9 0 13 -4 10 -10
-4 -6 6 -10 24 -10 23 0 29 4 25 15 -4 8 -1 15 5 15 6 0 11 -4 11 -10 0 -16
18 -12 81 16 33 15 59 33 59 41 0 9 6 13 15 9 9 -3 31 2 49 11 32 15 36 15 51
-1 9 -9 24 -16 32 -16 14 0 14 3 -2 20 -10 11 -24 20 -32 20 -10 0 -12 6 -8
21 5 16 4 20 -6 15 -8 -3 -22 -9 -31 -12 -10 -4 -18 -13 -18 -21 0 -8 -6 -13
-12 -10 -16 5 -70 -21 -81 -40 -6 -9 -13 -11 -20 -5 -15 11 -142 23 -162 16
-8 -4 -12 -10 -9 -15 6 -10 -9 -12 -19 -2 -4 3 3 13 15 21 20 15 20 16 2 30
-18 14 -18 14 1 8 24 -9 23 -9 60 -7 27 2 28 3 12 15 -16 12 -15 14 14 20 17
3 44 6 58 6 15 0 36 6 46 14 18 13 18 15 1 50 -10 21 -16 39 -14 41 1 1 19 -8
38 -21 19 -13 29 -24 22 -24 -18 0 -14 -41 6 -56 16 -12 15 -13 -4 -8 -12 3
-27 -1 -35 -8 -9 -10 -29 -13 -64 -11 -47 4 -49 3 -31 -11 23 -19 67 -21 84
-4 7 7 12 9 12 4 0 -4 22 5 50 20 27 15 47 31 44 36 -3 5 -12 7 -20 4 -13 -5
-38 26 -29 36 3 3 -4 13 -15 23 -11 10 -20 27 -20 38 0 19 2 18 29 -7 l30 -29
33 20 c18 10 34 26 35 34 11 87 16 112 20 102 7 -20 23 -15 23 6 0 32 19 34
26 4 14 -63 15 -65 30 -52 10 8 14 8 14 0 0 -8 10 -6 30 4 33 17 61 9 78 -22
6 -10 16 -14 26 -10 19 7 22 39 3 35 -7 -2 -12 2 -12 7 0 6 4 8 10 6 25 -9 40
-5 43 12 3 15 0 18 -18 12 -17 -5 -21 -4 -17 6 5 14 10 15 38 4 24 -9 66 60
49 79 -9 12 -7 13 8 9 20 -5 39 22 22 32 -6 4 -10 1 -10 -4 0 -6 -4 -11 -10
-11 -21 0 -9 19 18 28 18 7 21 11 9 11 -10 1 -16 5 -12 11 3 5 13 6 22 3 13
-5 15 -2 10 20 -5 16 -3 27 5 29 7 3 13 24 13 49 1 25 4 50 9 57 9 15 5 182
-6 188 -4 3 -15 31 -24 62 -9 31 -20 62 -24 67 -5 6 -13 46 -20 90 -10 64 -18
86 -41 113 -16 18 -29 40 -29 49 0 13 -3 13 -15 3 -12 -10 -15 -10 -15 3 0 8
5 17 12 19 6 2 -4 15 -23 27 -39 28 -119 109 -119 123 0 5 -8 8 -17 6 -12 -2
-17 3 -15 14 4 23 -13 31 -28 13 -9 -11 0 -25 51 -74 34 -34 66 -61 70 -61 3
0 9 -9 12 -20 4 -14 10 -18 23 -13 13 5 16 3 12 -8 -7 -18 63 -117 80 -111 6
2 12 -1 12 -6 0 -6 -4 -12 -10 -14 -6 -2 -4 -14 4 -30 8 -15 12 -36 9 -46 -2
-11 0 -23 6 -26 6 -4 8 -20 5 -35 -3 -16 -1 -32 5 -35 6 -4 8 -20 4 -37 -4
-21 -1 -34 8 -40 12 -8 12 -10 0 -18 -11 -7 -11 -13 3 -32 9 -14 15 -41 15
-64 -1 -22 -4 -30 -6 -18 -7 37 -29 47 -47 21 -10 -13 -12 -24 -6 -26 19 -7
10 -24 -10 -19 -18 5 -19 3 -4 -24 8 -16 18 -29 22 -29 6 0 11 -31 12 -89 0
-13 4 -29 10 -35 6 -8 4 -27 -6 -55 -8 -24 -12 -51 -9 -62 5 -16 2 -17 -29
-12 -24 4 -36 2 -36 -6 0 -6 -5 -11 -10 -11 -6 0 -10 8 -8 18 2 12 -3 16 -19
15 -13 -2 -23 2 -23 7 0 6 5 10 11 10 8 0 8 5 -1 15 -14 17 -35 21 -25 5 3 -6
-1 -10 -9 -10 -9 0 -16 5 -16 10 0 7 -6 7 -19 0 -30 -16 -36 -12 -16 10 10 11
24 20 30 20 17 0 25 23 25 69 0 49 -8 56 -32 26 -14 -17 -29 -25 -51 -25 -30
1 -31 2 -13 15 10 8 24 16 30 18 6 3 3 11 -9 20 -19 14 -19 15 8 10 20 -4 27
-1 27 11 0 9 -4 16 -10 16 -5 0 -10 15 -10 34 0 76 -43 116 -70 65 -7 -11 -14
-18 -17 -16 -9 10 17 46 37 51 11 3 28 8 38 11 15 4 19 0 19 -25 0 -21 10 -41
33 -65 19 -19 35 -33 37 -32 2 3 -29 65 -92 188 -5 10 -17 19 -25 19 -8 0 -22
4 -29 9 -25 16 31 36 58 22 19 -11 21 -9 21 17 0 16 -9 37 -20 47 -11 10 -20
30 -21 44 l-1 26 -11 -28 c-6 -15 -21 -30 -34 -33 -26 -7 -87 11 -103 32 -24
28 -30 13 -25 -58 5 -71 4 -72 -8 -31 -6 23 -21 49 -32 58 -16 12 -16 14 -2 9
9 -3 17 -3 17 1 0 13 -23 50 -39 62 -10 7 -11 12 -4 13 8 0 9 9 3 31 l-9 30
54 -30 c71 -40 78 -39 29 4 -63 57 -111 42 -99 -32 6 -36 5 -37 -9 -19 -23 29
-20 72 6 90 37 26 74 20 120 -21 42 -38 42 -35 1 26 -24 36 -30 89 -13 121 7
13 18 17 40 14 17 -3 30 -1 30 5 0 6 5 11 10 11 6 0 10 -8 8 -17 -2 -13 3 -17
20 -16 12 2 22 -2 22 -7 0 -6 -4 -10 -9 -10 -5 0 0 -18 12 -39 12 -22 24 -39
27 -39 17 1 21 -4 12 -15 -14 -17 20 -77 44 -77 10 0 14 -5 10 -15 -3 -9 0
-15 9 -15 17 0 20 36 4 45 -6 4 -8 14 -5 22 7 18 -18 69 -38 76 -9 4 -13 13
-10 21 6 17 -12 31 -21 16 -4 -6 -11 -7 -17 -4 -6 4 -5 9 3 15 18 11 -52 85
-99 106 -30 12 -33 17 -27 41 l7 27 -24 -22 c-14 -13 -34 -23 -46 -23 -34 0
-93 -27 -90 -42 2 -6 -4 -12 -12 -13 -8 0 -25 -6 -36 -12 -21 -12 -34 -8 -34
10 0 5 6 7 13 4 6 -2 28 9 46 26 19 16 59 40 88 53 57 26 65 43 35 81 -21 27
-111 58 -125 44 -6 -6 -15 -7 -21 -2 -15 12 -66 19 -93 14z m-53 -69 c0 -8 -5
-12 -10 -9 -6 4 -8 11 -5 16 9 14 15 11 15 -7z m280 -24 c0 -5 -4 -10 -10 -10
-5 0 -10 5 -10 10 0 6 5 10 10 10 6 0 10 -4 10 -10z m-306 -21 c-3 -5 -10 -7
-15 -3 -5 3 -7 10 -3 15 3 5 10 7 15 3 5 -3 7 -10 3 -15z m-134 -15 c0 -8 -4
-12 -10 -9 -5 3 -10 10 -10 16 0 5 5 9 10 9 6 0 10 -7 10 -16z m40 -24 c0 -5
-4 -10 -10 -10 -5 0 -10 5 -10 10 0 6 5 10 10 10 6 0 10 -4 10 -10z m-70 -10
c0 -5 -4 -10 -10 -10 -5 0 -10 5 -10 10 0 6 5 10 10 10 6 0 10 -4 10 -10z
m350 -20 c0 -5 -4 -10 -10 -10 -5 0 -10 5 -10 10 0 6 5 10 10 10 6 0 10 -4 10
-10z m170 -6 c0 -8 -4 -12 -10 -9 -5 3 -10 10 -10 16 0 5 5 9 10 9 6 0 10 -7
10 -16z m-66 -15 c-3 -5 -10 -7 -15 -3 -5 3 -7 10 -3 15 3 5 10 7 15 3 5 -3 7
-10 3 -15z m106 -9 c0 -5 -4 -10 -10 -10 -5 0 -10 5 -10 10 0 6 5 10 10 10 6
0 10 -4 10 -10z m-815 -60 c3 -5 -1 -10 -10 -10 -9 0 -13 5 -10 10 3 6 8 10
10 10 2 0 7 -4 10 -10z m985 -120 c0 -5 -7 -10 -16 -10 -8 0 -12 5 -9 10 3 6
10 10 16 10 5 0 9 -4 9 -10z m-666 -21 c85 -24 154 -94 142 -145 -5 -20 3 -34
49 -79 98 -98 141 -218 133 -364 -12 -199 -167 -365 -382 -407 l-71 -14 65 5
c36 2 74 6 85 10 11 3 5 -2 -13 -10 -18 -8 -50 -16 -72 -17 -22 -1 -40 -3 -40
-6 0 -2 16 -22 35 -43 36 -41 37 -63 3 -72 -11 -3 -17 -10 -14 -16 4 -5 2 -12
-3 -15 -5 -4 -12 -2 -16 4 -10 16 -36 12 -52 -7 -13 -17 -13 -17 -11 3 2 16
-11 33 -49 63 -29 22 -64 60 -78 85 -15 25 -38 49 -55 56 -16 7 -35 19 -42 28
-9 10 1 8 31 -7 62 -32 62 -19 -1 16 -164 93 -252 308 -203 496 21 83 50 133
111 197 82 87 196 140 300 140 41 0 42 1 54 45 11 39 30 64 50 65 3 0 23 -5
44 -11z m-404 -162 c0 -2 -12 -14 -27 -28 l-28 -24 24 28 c23 25 31 32 31 24z
m935 -76 c3 -5 1 -12 -5 -16 -5 -3 -10 1 -10 9 0 18 6 21 15 7z m385 -46 c0
-8 -4 -15 -10 -15 -5 0 -10 7 -10 15 0 8 5 15 10 15 6 0 10 -7 10 -15z m-370
-25 c0 -5 -4 -10 -10 -10 -5 0 -10 5 -10 10 0 6 5 10 10 10 6 0 10 -4 10 -10z
m380 -40 c0 -5 -4 -10 -10 -10 -5 0 -10 5 -10 10 0 6 5 10 10 10 6 0 10 -4 10
-10z m10 -70 c0 -5 -4 -10 -10 -10 -5 0 -10 5 -10 10 0 6 5 10 10 10 6 0 10
-4 10 -10z m-70 -10 c0 -5 -4 -10 -10 -10 -5 0 -10 5 -10 10 0 6 5 10 10 10 6
0 10 -4 10 -10z m-523 -32 c-3 -8 -6 -5 -6 6 -1 11 2 17 5 13 3 -3 4 -12 1
-19z m563 2 c0 -5 -4 -10 -10 -10 -5 0 -10 5 -10 10 0 6 5 10 10 10 6 0 10 -4
10 -10z m-553 -157 c-2 -27 -3 -5 -3 47 0 52 1 74 3 48 2 -27 2 -69 0 -95z
m533 123 c0 -11 -19 -15 -25 -6 -3 5 1 10 9 10 9 0 16 -2 16 -4z m30 -32 c0
-8 -5 -12 -10 -9 -6 4 -8 11 -5 16 9 14 15 11 15 -7z m-26 -45 c-3 -5 -10 -7
-15 -3 -5 3 -7 10 -3 15 3 5 10 7 15 3 5 -3 7 -10 3 -15z m-179 -159 c-3 -5
-10 -10 -16 -10 -5 0 -9 5 -9 10 0 6 7 10 16 10 8 0 12 -4 9 -10z m119 -9 c3
-5 -1 -12 -10 -15 -20 -8 -29 -1 -19 13 8 13 22 14 29 2z m-79 -21 c-3 -5 -10
-10 -16 -10 -5 0 -9 5 -9 10 0 6 7 10 16 10 8 0 12 -4 9 -10z m-25 -34 c0 -11
-19 -15 -25 -6 -3 5 1 10 9 10 9 0 16 -2 16 -4z m-70 -16 c0 -5 -4 -10 -10
-10 -5 0 -10 5 -10 10 0 6 5 10 10 10 6 0 10 -4 10 -10z m-360 -330 c0 -5 -4
-10 -10 -10 -5 0 -10 5 -10 10 0 6 5 10 10 10 6 0 10 -4 10 -10z m-480 -10 c0
-5 -4 -10 -10 -10 -5 0 -10 5 -10 10 0 6 5 10 10 10 6 0 10 -4 10 -10z m410 0
c0 -5 -4 -10 -10 -10 -5 0 -10 5 -10 10 0 6 5 10 10 10 6 0 10 -4 10 -10z
m-200 -30 c0 -5 -4 -10 -10 -10 -5 0 -10 5 -10 10 0 6 5 10 10 10 6 0 10 -4
10 -10z m-70 -10 c0 -5 -4 -10 -10 -10 -5 0 -10 5 -10 10 0 6 5 10 10 10 6 0
10 -4 10 -10z m180 -10 c0 -5 -4 -10 -10 -10 -5 0 -10 5 -10 10 0 6 5 10 10
10 6 0 10 -4 10 -10z m-70 -10 c0 -5 -4 -10 -10 -10 -5 0 -10 5 -10 10 0 6 5
10 10 10 6 0 10 -4 10 -10z"/>
<path d="M791 1607 c-23 -28 -42 -148 -39 -248 l3 -99 44 55 c24 31 75 80 113
111 79 64 84 84 36 132 -55 52 -133 77 -157 49z"/>
<path d="M696 1480 l5 -35 -15 30 -15 30 5 -30 5 -30 -16 30 -15 30 5 -30 5
-30 -15 25 -16 25 6 -30 c4 -22 3 -26 -5 -15 -7 12 -10 12 -10 1 0 -8 -8 -4
-20 10 -21 24 -21 23 0 -19 29 -59 21 -63 -10 -5 -13 25 -26 40 -28 34 -2 -6
-8 -9 -13 -5 -5 3 -9 0 -9 -6 0 -6 -4 -8 -10 -5 -5 3 -10 1 -10 -5 0 -6 -5 -8
-11 -4 -8 5 -8 1 0 -14 12 -23 31 -38 31 -25 0 5 -6 15 -12 22 -10 11 -10 13
0 7 6 -4 12 -2 12 4 0 6 5 8 10 5 6 -3 10 -1 10 5 0 6 5 8 10 5 6 -3 10 -11
10 -16 0 -6 -5 -7 -12 -3 -8 5 -9 2 -5 -10 5 -11 3 -15 -5 -10 -7 5 -9 2 -5
-8 8 -21 -16 -17 -42 6 -22 20 -43 14 -34 -10 5 -14 3 -15 -17 -4 -12 7 -20 7
-16 2 3 -6 1 -12 -6 -14 -7 -3 -5 -7 6 -11 9 -4 15 -3 11 3 -12 20 37 4 58
-19 12 -14 14 -19 5 -12 -10 7 -18 10 -18 5 0 -4 -5 -3 -12 4 -24 24 -31 11
-7 -15 l24 -28 -25 21 c-35 30 -55 40 -45 24 6 -9 2 -10 -16 -5 -23 7 -24 7
-4 -9 24 -18 39 -21 29 -4 -5 7 -3 8 5 4 7 -5 10 -11 7 -14 -3 -3 0 -12 6 -21
10 -13 10 -14 -2 -3 -17 14 -34 16 -25 2 4 -6 -1 -7 -11 -3 -12 4 -15 3 -10
-5 5 -9 0 -9 -20 -2 -15 6 -29 8 -32 5 -3 -3 1 -5 9 -6 9 0 6 -4 -6 -10 -16
-7 -14 -8 10 -4 20 4 25 3 16 -3 -11 -8 -11 -10 0 -15 8 -4 1 -4 -16 -1 -23 4
-27 3 -15 -5 13 -9 12 -11 -5 -12 l-20 0 20 -9 20 -9 -20 -1 -20 -1 20 -9 c18
-8 18 -9 -5 -10 l-25 -2 25 -8 25 -8 -25 -2 -25 -2 25 -8 c25 -8 25 -8 -5 -10
l-30 -3 35 -7 35 -7 -40 -2 c-32 -2 -36 -4 -20 -11 l20 -9 -20 -1 -20 -1 20
-9 20 -9 -20 0 c-17 -1 -17 -3 -5 -11 12 -8 12 -10 -5 -11 l-20 0 20 -9 c14
-6 16 -9 5 -10 -8 -1 -1 -8 15 -16 l30 -15 -30 6 c-20 4 -25 2 -16 -3 11 -8
11 -10 0 -15 -11 -4 -11 -6 -1 -6 7 -1 10 -6 6 -13 -5 -8 -2 -9 10 -5 11 4 15
3 10 -4 -4 -8 1 -9 17 -4 13 3 20 3 14 -2 -16 -13 -17 -36 -1 -30 12 5 15 -9
6 -33 -1 -3 -2 -8 -1 -13 0 -4 -4 -6 -10 -5 -6 2 -13 -5 -14 -15 -3 -15 -1
-15 25 3 l29 20 -5 -26 c-5 -25 -3 -26 13 -13 16 13 17 12 4 -3 -7 -10 -17
-16 -21 -13 -5 3 -12 0 -16 -6 -5 -8 -3 -9 6 -4 10 6 12 4 6 -10 -7 -18 -6
-18 14 0 11 10 20 15 20 10 0 -4 8 -1 18 6 14 11 14 10 -2 -8 -10 -13 -22 -20
-26 -18 -4 3 -10 -2 -14 -10 -3 -8 -2 -14 2 -14 21 3 32 -2 26 -13 -5 -7 -3
-8 6 -3 10 6 12 4 7 -9 -4 -10 -3 -15 3 -11 6 3 10 1 10 -5 0 -6 4 -9 9 -5 5
3 12 -4 16 -15 4 -11 11 -18 16 -15 5 4 9 2 9 -4 0 -6 11 -13 25 -17 14 -3 25
-10 25 -16 0 -5 5 -6 10 -3 6 3 10 2 10 -2 0 -18 40 -11 64 12 19 18 26 20 26
9 0 -8 5 -12 10 -9 6 3 10 -2 10 -12 0 -15 2 -16 10 -3 6 9 10 10 10 3 0 -6
-5 -15 -10 -18 -22 -14 4 -25 55 -25 61 0 160 33 175 58 5 9 10 14 10 10 0 -7
8 -2 62 45 12 9 26 17 32 17 6 0 4 5 -4 10 -20 13 -33 12 -24 -1 5 -8 2 -9
-11 -1 -23 13 -30 43 -7 35 9 -4 13 -2 9 4 -5 8 2 8 23 0 26 -10 28 -13 13
-19 -10 -3 -13 -7 -6 -7 6 -1 19 2 28 6 15 5 14 8 -6 20 -24 14 -24 14 6 8 20
-4 25 -3 16 4 -12 8 -12 10 0 13 8 3 1 3 -16 1 -24 -2 -26 -1 -10 6 l20 8 -20
6 c-11 3 -2 4 20 1 30 -3 35 -2 20 5 -19 9 -18 10 5 11 l25 2 -25 8 c-23 7
-23 8 10 10 l35 3 -35 7 -35 7 35 3 35 2 -30 8 -30 8 30 2 30 2 -30 8 -30 8
30 2 c28 3 27 3 -10 10 l-40 7 35 2 c19 1 42 6 50 12 12 9 11 10 -7 6 -13 -3
-23 -1 -23 3 0 5 10 11 23 13 21 4 21 4 -3 6 -23 2 -24 3 -5 11 18 8 18 9 -5
10 -23 1 -23 2 -5 10 l20 9 -20 1 c-16 1 -14 4 10 15 l30 15 -35 -5 -35 -6 33
15 c17 8 32 18 32 21 0 3 -9 1 -19 -5 -36 -19 -46 -9 -11 11 32 19 29 19 -17
3 -10 -3 -4 3 12 15 34 24 23 28 -15 6 -44 -25 -47 -16 -2 11 44 26 55 38 25
27 -16 -6 -17 -5 -3 12 14 17 14 18 -17 1 -38 -19 -43 -31 -10 -20 26 8 22 2
-12 -16 -18 -9 -22 -9 -16 0 5 9 1 10 -16 6 -21 -6 -21 -5 4 9 30 17 37 31 11
21 -14 -5 -15 -4 -4 9 15 18 0 20 -20 3 -8 -7 -6 -3 4 10 23 26 11 29 -18 5
-20 -17 -20 -17 -6 1 8 10 15 25 16 33 2 8 10 23 18 32 30 33 16 31 -16 -2
-18 -18 -30 -28 -25 -23 19 26 3 27 -25 0 l-33 -29 28 31 c35 39 35 55 0 23
-20 -17 -23 -18 -10 -3 21 25 23 41 2 24 -8 -7 -4 9 11 36 23 45 16 41 -21
-11 -14 -19 -14 -19 -8 -1 4 13 3 17 -5 12 -7 -4 -6 6 3 28 23 54 17 56 -11 4
-13 -27 -27 -48 -29 -48 -3 0 1 13 10 30 19 37 19 64 0 30 -9 -15 -15 -19 -15
-10 0 10 -5 7 -13 -8 -7 -12 -16 -20 -20 -16 -3 4 -12 -5 -18 -19 -10 -21 -9
-30 2 -44 9 -11 10 -14 2 -9 -29 17 -10 -13 37 -59 27 -27 47 -51 45 -53 -3
-3 0 -11 6 -19 6 -7 8 -13 4 -13 -5 0 0 -9 10 -20 10 -11 14 -20 8 -20 -6 0
-8 -11 -5 -25 2 -14 9 -25 14 -25 7 0 6 -5 -1 -13 -6 -8 -8 -17 -4 -20 3 -4 0
-13 -7 -22 -7 -9 -8 -15 -2 -15 15 0 9 -26 -13 -50 -10 -11 -14 -20 -10 -20 5
0 -2 -12 -16 -26 -13 -14 -23 -27 -21 -30 5 -9 -7 -9 -15 0 -5 6 -2 6 7 1 8
-5 12 -4 7 0 -4 5 3 20 15 34 13 14 1 6 -25 -19 -26 -24 -47 -45 -47 -45 0 -1
7 -2 15 -2 8 0 11 5 8 11 -3 6 -2 7 2 3 14 -12 15 -38 2 -30 -25 15 -47 12
-63 -10 -13 -18 -15 -18 -10 -3 5 16 4 17 -9 6 -8 -7 -21 -10 -29 -7 -8 3 -17
3 -20 0 -3 -3 -19 -7 -36 -8 -23 -2 -30 1 -26 11 4 11 1 12 -14 4 -13 -7 -21
-7 -25 1 -4 6 -13 8 -20 5 -7 -2 -21 4 -31 15 -19 21 -39 26 -28 7 4 -7 -11 4
-33 25 -21 20 -43 34 -48 30 -4 -5 -5 -3 -1 4 3 6 2 14 -4 18 -6 4 -8 11 -5
16 4 5 3 15 -2 22 -7 12 -12 29 -17 57 -1 9 -4 20 -7 25 -7 13 -4 86 4 105 4
8 8 25 10 38 2 12 20 39 40 60 21 21 34 41 30 45 -4 4 -8 14 -9 23 -2 12 1 13
12 3 7 -6 11 -15 8 -20 -9 -15 8 -10 29 9 11 9 17 11 13 5 -5 -9 -2 -11 8 -7
8 3 17 12 20 19 3 8 13 11 25 8 16 -4 21 0 22 13 0 18 1 18 9 -1 5 -11 9 -14
9 -7 1 6 8 12 17 12 8 0 12 -4 9 -10 -3 -5 -1 -10 4 -10 6 0 11 18 11 41 0 22
5 49 10 60 7 12 7 30 1 51 -8 30 -9 30 -11 8 -1 -25 -1 -25 -15 5 l-14 30 5
-35z m11 -72 c-3 -8 -6 -5 -6 6 -1 11 2 17 5 13 3 -3 4 -12 1 -19z m-197 -13
c13 -14 21 -25 18 -25 -2 0 -15 11 -28 25 -13 14 -21 25 -18 25 2 0 15 -11 28
-25z m440 -79 c0 -2 -6 -9 -14 -15 -11 -9 -16 -9 -22 0 -4 7 -3 9 4 5 6 -3 13
-2 17 4 6 10 15 14 15 6z m-45 -51 c6 0 17 4 25 9 10 6 10 3 -2 -10 -16 -17
-16 -19 -1 -36 9 -10 14 -18 12 -18 -3 0 -21 17 -40 37 -18 20 -27 33 -19 27
8 -6 20 -10 25 -9z m61 -49 c0 -14 -3 -23 -7 -20 -6 3 -6 22 0 42 3 10 7 -2 7
-22z m-593 -133 c-7 -2 -19 -2 -25 0 -7 3 -2 5 12 5 14 0 19 -2 13 -5z m714
-19 c-3 -3 -12 -4 -19 -1 -8 3 -5 6 6 6 11 1 17 -2 13 -5z m-730 -40 c-3 -3
-12 -4 -19 -1 -8 3 -5 6 6 6 11 1 17 -2 13 -5z m670 0 c-3 -3 -12 -4 -19 -1
-8 3 -5 6 6 6 11 1 17 -2 13 -5z m46 -1 c-7 -2 -19 -2 -25 0 -7 3 -2 5 12 5
14 0 19 -2 13 -5z m-603 -199 c0 -8 -19 -13 -24 -6 -3 5 1 9 9 9 8 0 15 -2 15
-3z m465 -42 c-3 -3 1 -12 8 -21 11 -14 10 -14 -6 -2 -9 8 -15 16 -12 19 3 3
-1 12 -8 21 -11 14 -10 14 6 2 9 -8 15 -16 12 -19z m31 -8 c1 -9 0 -13 -4 -10
-3 4 -7 14 -8 22 -1 9 0 13 4 10 3 -4 7 -14 8 -22z m-53 -19 c4 0 7 -4 8 -8 2
-18 -9 -16 -27 5 -11 13 -13 18 -4 12 8 -5 18 -9 23 -9z m-22 -22 c12 -16 12
-17 -2 -6 -9 7 -20 9 -24 5 -5 -4 -5 -1 -1 6 9 16 11 15 27 -5z m-35 -15 c3
-4 -1 -5 -10 -4 -8 1 -18 5 -22 8 -3 4 1 5 10 4 8 -1 18 -5 22 -8z m-65 -7 c7
11 9 11 9 1 0 -7 4 -11 9 -7 5 3 12 1 16 -4 3 -6 -3 -8 -15 -6 -11 2 -20 -2
-20 -8 0 -7 -4 -6 -10 3 -8 12 -10 12 -10 1 0 -8 -2 -12 -5 -9 -3 3 -2 13 2
24 4 12 8 14 11 5 4 -11 6 -11 13 0z"/>
<path d="M606 1477 c3 -10 9 -15 12 -12 3 3 0 11 -7 18 -10 9 -11 8 -5 -6z"/>
<path d="M972 1395 c-17 -37 -14 -45 4 -12 9 16 14 31 11 33 -2 2 -9 -7 -15
-21z"/>
<path d="M1002 1360 c-14 -23 -16 -33 -3 -25 5 3 12 -4 16 -15 7 -23 20 -19
36 13 l12 22 -23 -20 -23 -20 13 25 c13 24 12 24 -5 10 -16 -14 -17 -13 -11 8
9 27 5 28 -12 2z"/>
<path d="M400 1330 c12 -8 12 -10 1 -10 -8 0 -12 -2 -9 -5 3 -3 13 -2 22 1 14
5 15 9 4 15 -7 5 -17 9 -23 9 -5 0 -3 -5 5 -10z"/>
<path d="M830 1310 c0 -5 5 -10 11 -10 5 0 7 5 4 10 -3 6 -8 10 -11 10 -2 0
-4 -4 -4 -10z"/>
<path d="M1054 1278 l-19 -23 23 19 c21 18 27 26 19 26 -2 0 -12 -10 -23 -22z"/>
<path d="M1074 1268 c-19 -21 -19 -21 0 -14 16 5 17 4 6 -9 -7 -8 -8 -15 -2
-15 5 0 15 7 22 15 10 12 10 15 0 15 -7 0 -10 7 -6 15 8 21 2 19 -20 -7z"/>
<path d="M1090 1225 c-7 -8 -8 -15 -2 -15 5 0 15 7 22 15 7 8 8 15 2 15 -5 0
-15 -7 -22 -15z"/>
<path d="M479 1203 c-13 -16 -12 -17 4 -4 9 7 17 15 17 17 0 8 -8 3 -21 -13z"/>
<path d="M569 1191 c-16 -16 -29 -39 -29 -51 0 -18 5 -16 38 17 20 21 46 43
57 50 19 11 18 12 -8 12 -19 1 -39 -9 -58 -28z"/>
<path d="M520 1095 c0 -8 4 -15 10 -15 5 0 7 7 4 15 -4 8 -8 15 -10 15 -2 0
-4 -7 -4 -15z"/>
<path d="M530 1040 c6 -11 15 -20 20 -20 6 0 5 9 -2 20 -7 11 -16 20 -21 20
-4 0 -3 -9 3 -20z"/>
<path d="M326 982 c6 -4 10 -15 9 -24 -2 -12 2 -15 13 -10 15 5 15 4 2 -13
-14 -17 -14 -17 7 -4 l23 14 -23 12 c-14 8 -17 12 -7 13 13 0 13 1 0 10 -8 5
-19 10 -25 10 -6 0 -5 -3 1 -8z"/>
<path d="M945 960 c-3 -6 1 -7 9 -4 18 7 21 14 7 14 -6 0 -13 -4 -16 -10z"/>
<path d="M830 949 c-14 -6 -60 -9 -102 -7 -62 2 -74 1 -65 -10 16 -20 63 -42
87 -42 31 0 89 29 101 51 5 11 8 19 7 18 -2 0 -14 -5 -28 -10z"/>
<path d="M515 890 c21 -22 41 -40 44 -40 3 0 -13 18 -34 40 -21 22 -41 40 -44
40 -3 0 13 -18 34 -40z"/>
<path d="M374 878 l-19 -23 23 19 c21 18 27 26 19 26 -2 0 -12 -10 -23 -22z"/>
<path d="M990 810 c-8 -5 -10 -10 -5 -10 6 0 17 5 25 10 8 5 11 10 5 10 -5 0
-17 -5 -25 -10z"/>
<path d="M618 656 c-21 -12 -38 -26 -38 -32 0 -15 78 -98 113 -119 23 -15 32
-15 57 -5 17 7 30 17 30 23 0 5 -21 33 -48 61 -26 28 -54 60 -62 72 l-15 21
-37 -21z"/>
<path d="M1540 2004 c46 -67 117 -92 75 -27 -31 49 -58 73 -82 73 l-24 0 31
-46z"/>
<path d="M1677 2039 c-10 -6 -27 -8 -40 -5 -12 3 -16 3 -9 0 6 -3 12 -12 12
-20 0 -7 17 -22 38 -33 21 -11 44 -27 51 -35 8 -9 19 -16 26 -16 8 0 15 -5 17
-11 2 -6 12 -10 21 -8 30 6 -39 89 -74 89 -15 0 -32 6 -38 14 -10 12 -8 13 8
9 12 -3 21 -1 21 5 0 17 -14 21 -33 11z"/>
<path d="M720 2020 c0 -5 7 -10 16 -10 8 0 12 5 9 10 -3 6 -10 10 -16 10 -5 0
-9 -4 -9 -10z"/>
<path d="M625 2010 c-3 -5 -1 -10 4 -10 6 0 11 -7 11 -15 0 -18 20 -20 20 -2
1 7 6 5 14 -6 10 -12 16 -15 21 -7 4 6 5 13 4 14 -22 16 -55 36 -61 36 -4 0
-10 -4 -13 -10z"/>
<path d="M1490 1985 c0 -14 85 -85 102 -85 5 0 6 -5 2 -12 -4 -7 -3 -8 4 -4
19 11 96 -40 111 -74 15 -36 26 -33 17 4 -9 34 -56 88 -72 82 -8 -3 -14 1 -14
9 0 7 -13 16 -29 20 -16 3 -41 17 -56 31 -14 13 -30 24 -36 24 -5 0 -9 5 -9
10 0 6 -4 10 -10 10 -5 0 -10 -7 -10 -15z"/>
<path d="M1330 1965 c0 -9 7 -18 15 -21 8 -4 15 -15 15 -25 0 -12 7 -19 19
-19 11 0 23 -5 27 -12 5 -8 2 -9 -9 -5 -10 3 -17 3 -17 -1 0 -11 57 -62 69
-62 6 0 11 -6 11 -13 0 -7 20 -23 45 -37 24 -13 43 -26 40 -28 -2 -2 -13 2
-25 8 -12 7 -21 8 -18 3 18 -39 47 -71 80 -89 48 -24 52 -37 14 -44 l-29 -5
41 -22 c48 -28 55 -28 43 -5 -6 9 -12 29 -15 43 -6 28 -53 84 -70 84 -6 0 -11
8 -11 17 0 19 -52 77 -105 117 -19 15 -36 33 -38 41 -9 42 -82 108 -82 75z"/>
<path d="M610 1950 c0 -13 7 -20 20 -20 10 0 24 -8 29 -17 6 -10 11 -14 11 -9
0 5 6 4 13 -2 6 -5 21 -6 31 -3 16 6 9 13 -37 39 -67 38 -67 38 -67 12z"/>
<path d="M1760 1890 c6 -11 15 -20 20 -20 6 0 9 -15 8 -32 -3 -31 -1 -33 32
-33 42 0 49 25 10 36 -22 5 -23 7 -7 14 16 6 13 11 -20 31 -47 29 -57 30 -43
4z"/>
<path d="M620 1885 c0 -8 9 -15 20 -15 12 0 20 -7 20 -17 1 -16 2 -16 12 1 9
15 7 22 -8 33 -24 17 -44 17 -44 -2z"/>
<path d="M1559 1873 c12 -18 24 -33 27 -33 9 0 -15 37 -33 51 -12 10 -11 5 6
-18z"/>
<path d="M1820 1890 c0 -5 5 -10 11 -10 5 0 7 5 4 10 -3 6 -8 10 -11 10 -2 0
-4 -4 -4 -10z"/>
<path d="M542 1865 c-13 -16 -5 -19 22 -9 9 3 16 10 16 15 0 14 -24 10 -38 -6z"/>
<path d="M1610 1863 c0 -5 17 -24 38 -44 21 -19 36 -41 34 -47 -2 -7 1 -12 6
-12 30 0 -41 109 -70 110 -5 0 -8 -3 -8 -7z"/>
<path d="M467 1818 c-15 -11 -25 -24 -21 -29 3 -5 -3 -9 -13 -9 -10 0 -25 -4
-33 -10 -12 -7 -11 -10 5 -16 11 -5 26 -14 33 -21 10 -9 19 -10 33 -3 24 13
25 24 1 18 -10 -3 -23 1 -30 8 -9 10 -7 14 8 19 11 4 20 10 20 15 0 5 7 16 16
25 24 24 13 26 -19 3z"/>
<path d="M639 1814 c-11 -14 -10 -16 9 -12 13 1 23 7 23 13 1 17 -17 16 -32
-1z"/>
<path d="M1880 1790 c-14 -11 -42 -23 -63 -26 -21 -4 -41 -13 -44 -21 -6 -16
16 -73 29 -73 7 0 113 85 158 126 24 23 -50 17 -80 -6z"/>
<path d="M2004 1788 c-2 -4 0 -9 6 -13 12 -8 50 3 50 15 0 9 -50 8 -56 -2z"/>
<path d="M600 1780 c-8 -5 -12 -12 -9 -15 4 -3 12 1 19 10 14 17 11 19 -10 5z"/>
<path d="M1969 1764 c-8 -11 -22 -23 -31 -27 -20 -7 -24 -22 -9 -32 5 -3 16 3
23 14 7 10 20 20 29 22 11 3 14 10 9 23 -6 19 -7 19 -21 0z"/>
<path d="M1325 1760 c3 -5 1 -10 -4 -10 -6 0 -11 -11 -11 -25 0 -14 4 -25 8
-25 4 0 13 -13 19 -30 6 -16 19 -30 28 -30 10 0 15 -7 13 -17 -2 -12 4 -19 20
-21 12 -2 22 0 22 3 0 7 -78 105 -92 115 -4 3 -3 12 2 20 13 20 12 30 -1 30
-5 0 -7 -4 -4 -10z"/>
<path d="M1357 1754 c-8 -8 1 -24 14 -24 5 0 9 7 9 15 0 15 -12 20 -23 9z"/>
<path d="M1702 1740 c-6 -11 -12 -24 -12 -30 0 -14 28 -1 35 17 9 25 -9 35
-23 13z"/>
<path d="M400 1710 c-13 -8 -12 -10 3 -10 9 0 17 5 17 10 0 12 -1 12 -20 0z"/>
<path d="M1741 1693 c13 -15 12 -15 -7 -5 -19 10 -21 9 -17 -12 4 -18 10 -23
26 -19 21 4 21 4 4 -11 -20 -15 -15 -62 4 -50 6 3 13 -4 16 -15 7 -27 27 -22
31 7 2 16 -1 20 -11 16 -7 -2 -20 3 -28 12 -8 10 -9 15 -2 11 6 -4 14 -3 18 2
8 14 -21 81 -36 81 -8 0 -7 -5 2 -17z"/>
<path d="M2086 1694 c-9 -22 -8 -24 9 -24 8 0 15 9 15 20 0 24 -15 27 -24 4z"/>
<path d="M1400 1695 c0 -14 31 -65 41 -65 11 0 -15 55 -31 65 -5 3 -10 3 -10
0z"/>
<path d="M1880 1690 c0 -5 6 -10 14 -10 8 0 18 5 21 10 3 6 -3 10 -14 10 -12
0 -21 -4 -21 -10z"/>
<path d="M355 1679 c-11 -17 1 -21 15 -4 8 9 8 15 2 15 -6 0 -14 -5 -17 -11z"/>
<path d="M1555 1660 c-3 -6 -1 -10 5 -10 6 0 8 -4 5 -10 -3 -5 3 -10 14 -10
26 0 27 12 1 27 -12 8 -21 9 -25 3z"/>
<path d="M1840 1660 c-8 -5 -12 -12 -9 -15 8 -8 39 5 39 16 0 11 -11 11 -30
-1z"/>
<path d="M317 1654 c-3 -3 -3 -13 0 -21 5 -12 7 -12 14 -1 15 23 4 40 -14 22z"/>
<path d="M2070 1649 c0 -5 5 -7 10 -4 6 3 10 8 10 11 0 2 -4 4 -10 4 -5 0 -10
-5 -10 -11z"/>
<path d="M1820 1619 c0 -5 5 -7 10 -4 6 3 10 8 10 11 0 2 -4 4 -10 4 -5 0 -10
-5 -10 -11z"/>
<path d="M287 1613 c-3 -5 -1 -17 3 -28 7 -19 7 -19 18 1 11 21 7 34 -9 34 -4
0 -10 -3 -12 -7z"/>
<path d="M1440 1618 c-1 -17 43 -78 60 -83 11 -3 17 -11 15 -18 -3 -7 13 -32
36 -56 42 -45 46 -69 7 -35 -13 10 -20 15 -16 10 4 -5 3 -15 -2 -22 -8 -9 2
-19 37 -41 59 -36 83 -45 83 -33 0 6 -5 10 -11 10 -6 0 -9 7 -5 15 3 9 -5 20
-22 29 -36 20 -19 20 18 1 17 -9 30 -22 30 -31 0 -9 5 -12 11 -8 15 9 5 134
-13 171 -10 20 -21 27 -36 26 -14 -2 -22 3 -22 12 0 8 -9 19 -20 25 -16 8 -20
8 -20 -3 0 -16 40 -62 59 -68 8 -3 11 -13 8 -24 -5 -19 -5 -19 -12 2 -8 25
-34 37 -58 27 -15 -5 -77 23 -77 36 0 8 -49 66 -50 58z m217 -182 c-2 -6 -9
-12 -17 -14 -9 -3 -11 1 -7 12 5 12 0 16 -18 16 -16 0 -25 6 -25 15 0 8 -6 15
-12 15 -7 0 -24 10 -38 21 -14 11 8 3 47 -18 40 -21 71 -42 70 -47z"/>
<path d="M1250 1600 c0 -5 5 -10 11 -10 5 0 7 5 4 10 -3 6 -8 10 -11 10 -2 0
-4 -4 -4 -10z"/>
<path d="M2084 1585 c-4 -11 -9 -24 -12 -29 -3 -5 0 -6 6 -2 6 3 13 2 17 -4 8
-12 35 -13 35 -1 0 5 -9 19 -19 32 -19 23 -20 23 -27 4z m26 -15 c0 -5 -4 -10
-10 -10 -5 0 -10 5 -10 10 0 6 5 10 10 10 6 0 10 -4 10 -10z"/>
<path d="M1385 1580 c10 -16 15 -50 7 -50 -4 0 -27 12 -51 25 -51 29 -66 27
-23 -3 42 -31 78 -37 98 -18 15 16 15 18 -1 36 -19 21 -41 28 -30 10z"/>
<path d="M2080 1525 c0 -8 9 -15 20 -15 14 0 20 -7 20 -21 0 -19 -5 -21 -49
-17 -64 4 -57 -14 12 -30 73 -17 84 -15 103 13 17 26 12 45 -11 45 -8 0 -29 9
-47 20 -40 24 -48 25 -48 5z"/>
<path d="M1777 1516 c-7 -19 0 -25 24 -19 11 3 18 11 16 17 -6 17 -34 19 -40
2z"/>
<path d="M2311 1507 c-13 -16 -5 -27 21 -27 20 0 21 1 12 24 -7 20 -18 20 -33
3z"/>
<path d="M1854 1474 c3 -9 6 -19 6 -24 0 -11 56 -23 69 -15 6 3 8 12 5 20 -4
8 -10 12 -15 9 -6 -3 -21 1 -34 10 -31 20 -39 20 -31 0z"/>
<path d="M2263 1483 c-10 -4 -9 -8 1 -19 14 -14 46 -10 46 6 0 10 -31 18 -47
13z"/>
<path d="M1784 1454 c6 -13 19 -24 29 -24 10 0 16 -4 12 -9 -8 -13 10 -22 29
-15 24 9 20 21 -13 40 -17 10 -28 20 -26 23 2 3 -7 7 -19 7 -21 2 -22 -1 -12
-22z"/>
<path d="M1950 1464 c0 -11 8 -14 25 -12 35 4 36 20 3 24 -20 2 -28 -2 -28
-12z"/>
<path d="M2210 1442 c0 -15 5 -19 20 -15 24 6 21 26 -3 31 -11 2 -17 -3 -17
-16z"/>
<path d="M1812 1391 c4 -13 18 -16 19 -4 0 4 -5 9 -11 12 -7 2 -11 -2 -8 -8z"/>
<path d="M1901 1388 c-30 -8 -32 -11 -26 -41 4 -18 14 -45 21 -62 8 -16 12
-22 9 -12 -6 21 17 71 47 104 20 21 20 22 1 21 -10 -1 -34 -6 -52 -10z"/>
<path d="M2067 1386 c4 -5 -1 -7 -10 -3 -9 3 -19 2 -22 -4 -4 -5 -11 -7 -16
-4 -5 4 -9 2 -9 -4 0 -6 9 -15 20 -21 15 -8 21 -6 30 10 7 14 17 19 29 15 9
-3 26 1 36 9 17 12 15 13 -22 12 -23 0 -39 -5 -36 -10z"/>
<path d="M1530 1359 c0 -10 9 -23 20 -29 17 -9 20 -8 20 13 0 16 -7 26 -20 30
-15 4 -20 0 -20 -14z"/>
<path d="M1600 1310 c24 -34 38 -38 47 -14 7 19 -21 44 -50 44 -17 0 -17 -2 3
-30z"/>
<path d="M1550 1285 c0 -8 9 -19 20 -25 10 -6 17 -16 15 -23 -6 -14 30 -77 43
-77 5 0 7 -11 5 -23 -3 -14 2 -31 12 -40 9 -10 12 -17 6 -17 -6 0 -11 -8 -11
-19 0 -21 27 -48 37 -37 4 4 1 11 -6 15 -9 6 -11 18 -7 36 4 17 3 31 -4 35 -6
4 -11 18 -12 31 -1 32 -19 69 -34 69 -6 0 -15 7 -18 16 -4 12 -2 15 9 10 12
-4 13 -2 5 12 -28 49 -60 69 -60 37z"/>
<path d="M1953 1281 c3 -13 -1 -21 -15 -24 -11 -3 -17 -10 -14 -16 4 -6 -9
-17 -29 -25 -33 -14 -41 -36 -13 -36 14 0 108 96 108 110 0 5 -10 10 -21 10
-16 0 -20 -5 -16 -19z"/>
<path d="M1995 1185 c-8 -21 -13 -40 -10 -43 7 -7 16 3 19 20 2 7 6 21 11 31
4 10 5 20 2 24 -3 3 -13 -12 -22 -32z"/>
<path d="M1506 1191 c-3 -5 6 -16 20 -26 25 -16 25 -16 15 4 -14 25 -28 34
-35 22z"/>
<path d="M1580 1151 c0 -6 4 -13 10 -16 6 -3 7 1 4 9 -7 18 -14 21 -14 7z"/>
<path d="M1560 1126 c0 -3 5 -17 11 -33 7 -15 13 -35 14 -43 1 -8 2 -22 3 -30
1 -9 18 -24 37 -34 19 -11 33 -21 31 -23 -2 -3 -16 3 -30 12 -30 20 -35 6 -6
-20 24 -22 47 -14 56 21 8 30 -12 50 -33 32 -9 -7 -16 -3 -24 16 -7 14 -16 26
-21 26 -5 0 -6 4 -3 10 3 5 -1 23 -10 40 -14 27 -25 38 -25 26z"/>
<path d="M1970 1103 c0 -22 2 -25 10 -13 13 20 13 40 0 40 -5 0 -10 -12 -10
-27z"/>
<path d="M1960 1048 c0 -19 2 -20 10 -8 13 19 13 30 0 30 -5 0 -10 -10 -10
-22z"/>
<path d="M1962 1000 c0 -14 2 -19 5 -12 2 6 2 18 0 25 -3 6 -5 1 -5 -13z"/>
<path d="M1811 952 c-9 -18 -8 -23 8 -32 42 -22 52 -10 22 29 l-19 24 -11 -21z"/>
<path d="M1870 942 c0 -13 66 -82 78 -82 6 0 10 21 9 48 0 26 -2 37 -4 25 -5
-28 -17 -29 -54 -2 -16 11 -29 16 -29 11z"/>
<path d="M1775 870 c-4 -6 6 -10 22 -10 22 0 25 2 13 10 -19 12 -27 12 -35 0z"/>
<path d="M1845 869 c-7 -11 4 -15 50 -18 28 -1 37 1 30 8 -14 14 -74 21 -80
10z"/>
<path d="M1390 787 c0 -14 7 -27 15 -31 10 -3 15 1 15 13 0 10 -7 24 -15 31
-13 11 -15 9 -15 -13z"/>
<path d="M1526 761 c-7 -10 22 -37 30 -28 9 8 -3 37 -15 37 -5 0 -12 -4 -15
-9z"/>
<path d="M1390 725 c0 -17 5 -25 13 -22 6 2 12 12 12 22 0 10 -6 20 -12 23 -8
2 -13 -6 -13 -23z"/>
<path d="M1591 734 c0 -11 3 -14 6 -6 3 7 2 16 -1 19 -3 4 -6 -2 -5 -13z"/>
<path d="M1656 741 c-4 -5 -2 -12 3 -15 5 -4 12 -2 15 3 4 5 2 12 -3 15 -5 4
-12 2 -15 -3z"/>
<path d="M1487 721 c7 -26 48 -44 62 -27 14 16 -14 42 -45 44 -16 0 -21 -4
-17 -17z"/>
<path d="M1427 698 c-15 -15 -21 -17 -33 -7 -20 16 -50 -7 -33 -27 8 -10 5
-13 -17 -11 -30 2 -45 -19 -20 -29 9 -4 28 5 46 19 16 14 46 31 65 38 19 7 34
18 32 23 -6 17 -21 15 -40 -6z"/>
<path d="M1587 671 c-26 -27 -44 -52 -39 -55 5 -3 19 6 30 19 12 14 27 25 33
25 6 0 8 7 5 16 -4 12 -2 15 9 11 17 -7 27 4 16 21 -4 8 -23 -5 -54 -37z"/>
<path d="M1490 676 c-7 -9 -8 -16 -2 -16 5 0 12 -7 16 -15 4 -12 0 -14 -19 -9
-28 7 -30 2 -15 -27 16 -28 28 -23 45 18 13 31 13 39 2 50 -12 12 -16 12 -27
-1z"/>
<path d="M1515 600 c-9 -15 4 -30 26 -30 23 0 26 25 3 34 -21 8 -22 8 -29 -4z"/>
<path d="M1450 569 c0 -27 2 -30 15 -19 15 12 16 11 19 -12 1 -12 8 -14 36 -9
22 3 7 27 -30 49 l-40 23 0 -32z"/>
</g>
</svg>
