<?xml version="1.0" standalone="no"?>
<!DOCTYPE svg PUBLIC "-//W3C//DTD SVG 20010904//EN"
 "http://www.w3.org/TR/2001/REC-SVG-20010904/DTD/svg10.dtd">
<svg version="1.0" xmlns="http://www.w3.org/2000/svg"
 width="256.000000pt" height="256.000000pt" viewBox="0 0 256.000000 256.000000"
 preserveAspectRatio="xMidYMid meet">
<metadata>
Created by potrace 1.16, written by Peter Selinger 2001-2019
</metadata>
<g transform="translate(0.000000,256.000000) scale(0.100000,-0.100000)"
fill="#e5e5e5" stroke="none">
<path d="M1569 2400 l-48 -50 -165 0 c-248 0 -391 -27 -564 -105 -58 -26 -124
-44 -262 -70 -164 -30 -188 -37 -208 -60 -26 -30 -26 -46 -7 -135 23 -103 19
-130 -25 -213 -92 -171 -132 -335 -132 -542 0 -321 110 -587 335 -807 141
-139 305 -231 505 -286 88 -23 113 -26 282 -26 167 1 195 3 281 26 52 14 130
40 171 58 129 53 358 220 411 300 13 19 44 64 69 100 129 185 190 388 190 635
0 198 -35 352 -117 515 -83 164 -236 333 -390 430 -47 30 -113 76 -144 102
-54 43 -59 50 -65 97 -7 52 -26 81 -53 81 -9 0 -37 -22 -64 -50z m81 -77 l0
-51 55 -31 c30 -17 61 -41 67 -52 7 -12 51 -47 98 -79 116 -79 188 -146 261
-243 159 -211 237 -486 209 -742 -5 -55 -15 -113 -20 -130 -10 -30 -10 -30 -5
5 42 278 17 466 -90 685 -115 235 -294 404 -498 469 l-106 33 -11 -27 c-6 -15
-24 -40 -40 -55 l-28 -27 -7 31 c-4 17 -5 47 -3 67 l3 36 -90 25 c-50 13 -118
27 -151 30 -64 5 -218 -11 -257 -27 -16 -7 -11 -8 18 -2 22 3 60 7 85 7 41 0
45 -2 48 -27 2 -18 10 -28 24 -30 15 -2 57 -66 159 -243 76 -132 140 -244 142
-249 3 -9 77 30 77 40 0 2 -56 101 -125 220 -69 119 -125 220 -125 226 0 5 12
7 28 4 15 -3 43 -8 62 -11 33 -6 40 -15 149 -204 l114 -198 41 10 c23 5 42 11
44 12 1 1 -38 73 -89 159 -50 87 -89 160 -86 162 6 7 115 -48 145 -72 13 -11
49 -64 81 -119 55 -97 58 -100 92 -100 18 1 48 4 65 7 55 12 63 -4 65 -121 l1
-104 53 -86 c28 -48 55 -105 59 -126 7 -36 6 -38 -7 -20 -7 11 -33 55 -56 98
-24 43 -45 76 -48 74 -2 -3 23 -52 56 -109 l61 -104 0 -87 c0 -47 -4 -88 -9
-91 -4 -3 -50 67 -101 157 -51 89 -95 164 -97 166 -5 7 -73 -28 -73 -38 0 -5
55 -104 122 -221 l122 -212 -20 -55 c-10 -30 -23 -56 -28 -57 -5 0 -70 106
-146 237 -75 131 -142 243 -148 249 -8 8 -15 8 -26 -1 -11 -10 -13 -25 -9 -64
5 -43 29 -93 139 -283 74 -127 134 -239 134 -248 0 -9 8 -16 17 -16 9 0 24 -7
34 -16 17 -15 20 -10 63 78 89 182 122 392 92 583 -32 212 -107 369 -263 555
l-38 45 44 -39 c104 -91 173 -184 237 -320 68 -145 89 -241 89 -426 0 -119 -4
-172 -19 -230 -34 -134 -87 -254 -158 -355 -21 -31 -29 -56 -34 -112 l-7 -72
-74 -13 c-60 -10 -85 -20 -126 -50 -71 -53 -208 -122 -302 -151 -229 -72 -487
-59 -711 36 -224 94 -424 289 -525 513 -29 64 -79 237 -79 273 0 9 17 -35 39
-96 114 -335 368 -572 712 -665 113 -30 345 -33 459 -4 71 17 225 75 218 81
-2 2 -92 -14 -200 -34 -109 -21 -198 -34 -198 -30 0 4 -6 14 -13 21 -7 7 -66
105 -131 218 -172 298 -158 280 -201 270 -20 -5 -39 -10 -42 -13 -2 -3 54
-107 127 -232 72 -125 129 -230 126 -232 -10 -11 -109 10 -125 26 -9 9 -68
108 -131 218 -82 145 -121 203 -135 205 -15 2 -23 15 -30 49 -5 25 -18 54 -27
63 -10 10 -18 24 -18 32 0 9 -74 144 -165 301 -91 158 -165 292 -165 299 0 7
9 37 21 66 15 40 19 63 14 100 -4 26 -10 50 -14 52 -22 14 -116 -219 -142
-349 -19 -94 -16 -310 5 -403 45 -202 134 -368 276 -512 136 -138 255 -214
430 -271 47 -16 78 -28 69 -29 -22 0 -144 42 -210 74 -541 256 -758 919 -476
1451 l44 82 -26 132 c-19 97 -23 136 -15 149 8 12 72 28 255 63 134 25 278 58
320 72 113 39 210 57 339 63 251 11 310 16 310 28 0 6 14 29 31 50 38 45 49
36 49 -41z m300 -418 c-7 -8 -17 -12 -23 -8 -6 4 -3 9 9 14 27 11 28 11 14 -6z
m-61 -31 c12 -20 20 -39 17 -41 -2 -3 -14 13 -26 36 -25 51 -20 54 9 5z m241
-279 c0 -8 -7 -15 -15 -15 -13 0 -14 3 -3 15 16 18 18 18 18 0z m-1501 -686
c156 -269 281 -493 278 -495 -8 -8 -142 64 -160 84 -7 9 -105 175 -215 368
l-202 350 0 92 c0 51 4 92 8 92 5 0 136 -221 291 -491z m-279 75 c0 -8 -19
-13 -24 -6 -3 5 1 9 9 9 8 0 15 -2 15 -3z m1940 -99 c-12 -36 -24 -65 -26 -63
-2 2 6 34 18 71 12 36 24 65 26 62 2 -2 -6 -34 -18 -70z m-1696 -163 c113
-197 137 -250 81 -180 -26 33 -227 412 -208 393 6 -5 63 -102 127 -213z m-154
108 c0 -5 -8 -10 -17 -10 -15 0 -16 2 -3 10 19 12 20 12 20 0z m90 -155 c0 -8
-7 -15 -15 -15 -13 0 -14 3 -3 15 16 18 18 18 18 0z m547 -481 c-3 -3 -12 -4
-19 -1 -8 3 -5 6 6 6 11 1 17 -2 13 -5z m56 -11 c-7 -2 -19 -2 -25 0 -7 3 -2
5 12 5 14 0 19 -2 13 -5z m105 -10 c-10 -2 -28 -2 -40 0 -13 2 -5 4 17 4 22 1
32 -1 23 -4z"/>
<path d="M1595 2312 l-20 -37 -71 3 c-74 4 -108 -11 -52 -22 18 -3 49 -11 71
-17 l39 -10 -7 -50 c-8 -60 4 -63 34 -9 25 44 33 47 82 26 19 -7 45 -17 59
-21 l25 -8 -20 23 c-11 12 -41 33 -67 46 l-48 24 7 45 c7 55 -5 58 -32 7z"/>
<path d="M753 2147 c-204 -40 -374 -75 -377 -78 -7 -7 84 -491 94 -502 7 -8
488 78 499 89 3 3 -7 67 -22 142 -15 76 -27 145 -27 153 0 8 50 41 120 78
l120 64 0 63 c0 55 -3 64 -17 63 -10 0 -185 -33 -390 -72z m377 28 c-10 -12
-10 -19 -2 -27 22 -22 12 -36 -45 -65 -110 -55 -195 -106 -200 -119 -3 -8 -1
-20 5 -27 5 -6 12 -28 16 -48 6 -31 4 -37 -11 -35 -10 0 -18 -6 -18 -14 0 -9
9 -15 21 -14 19 0 20 -2 10 -18 -7 -12 -8 -21 -1 -26 11 -8 35 -71 35 -93 0
-12 -2 -12 -9 0 -11 17 -41 7 -41 -14 0 -17 -2 -18 -24 -9 -9 3 -16 15 -16 25
0 10 -6 19 -14 19 -23 0 -31 -22 -13 -35 21 -15 22 -25 1 -25 -9 0 -22 7 -29
17 -13 18 -35 10 -35 -13 0 -9 -7 -14 -17 -13 -10 2 -28 -3 -41 -10 -20 -11
-26 -10 -38 6 -8 10 -19 28 -24 41 -11 26 -33 25 -38 -1 -2 -11 3 -17 16 -17
15 0 18 -5 14 -25 -3 -20 -9 -24 -27 -19 -13 3 -26 1 -29 -5 -4 -6 -16 -11
-27 -11 -15 0 -19 7 -19 35 0 25 4 35 16 35 9 0 14 7 12 18 -2 9 -12 16 -21
16 -15 -2 -16 1 -5 13 10 12 9 17 -3 27 -23 16 -46 116 -29 126 7 4 10 15 7
25 -4 9 -12 13 -19 9 -8 -5 -9 -2 -5 11 4 9 3 23 -2 29 -5 6 -12 26 -16 44 -5
25 -3 32 9 32 9 0 16 -7 16 -15 0 -16 12 -20 23 -8 4 3 1 13 -6 21 -10 13 -7
14 26 8 21 -4 37 -3 37 2 0 15 97 31 110 18 8 -8 14 -6 21 7 13 22 57 23 55 1
0 -9 5 -19 13 -22 10 -3 12 2 7 22 -7 29 10 36 33 14 10 -11 15 -10 24 3 17
22 88 39 110 25 12 -8 20 -7 29 6 16 20 95 33 100 16 2 -6 11 -9 20 -6 18 7
13 57 -6 59 -6 1 3 5 19 9 17 4 32 8 34 9 2 0 -2 -6 -9 -14z m-100 -14 c-24
-13 -80 -21 -80 -11 0 8 30 15 75 18 16 1 17 0 5 -7z m-120 -21 c0 -5 -6 -10
-12 -10 -7 0 -31 -2 -53 -5 l-40 -5 40 14 c49 18 65 19 65 6z m-175 -35 c-27
-8 -51 -14 -52 -15 -2 0 -3 4 -3 9 0 10 33 17 80 19 14 0 3 -6 -25 -13z m-85
-15 c0 -5 -8 -10 -19 -10 -10 0 -34 -3 -52 -6 -19 -4 -31 -3 -27 1 6 7 46 17
91 24 4 0 7 -3 7 -9z m-180 -24 c0 -2 -16 -13 -35 -25 -19 -11 -35 -17 -35
-12 0 12 21 28 45 34 11 2 21 5 23 6 1 0 2 -1 2 -3z m43 -3 c-7 -2 -19 -2 -25
0 -7 3 -2 5 12 5 14 0 19 -2 13 -5z m-79 -144 l6 -54 -15 60 c-17 70 -18 86
-5 64 5 -8 11 -40 14 -70z m34 -179 l0 -25 -8 25 c-4 14 -8 34 -8 45 l-1 20 9
-20 c5 -11 8 -31 8 -45z m32 -145 c0 -5 -5 -3 -10 5 -5 8 -10 20 -10 25 0 6 5
3 10 -5 5 -8 10 -19 10 -25z"/>
<path d="M1016 2101 c-7 -11 18 -33 27 -24 4 3 7 12 7 20 0 15 -26 18 -34 4z"/>
<path d="M884 2079 c-10 -17 13 -36 27 -22 12 12 4 33 -11 33 -5 0 -12 -5 -16
-11z"/>
<path d="M964 2069 c-10 -17 13 -36 27 -22 12 12 4 33 -11 33 -5 0 -12 -5 -16
-11z"/>
<path d="M836 2053 c-12 -12 -6 -33 9 -33 8 0 15 6 15 14 0 17 -14 28 -24 19z"/>
<path d="M916 2043 c-12 -12 -6 -33 9 -33 8 0 15 6 15 14 0 17 -14 28 -24 19z"/>
<path d="M620 2025 c0 -8 7 -15 15 -15 8 0 15 7 15 15 0 8 -7 15 -15 15 -8 0
-15 -7 -15 -15z"/>
<path d="M700 2015 c0 -8 7 -15 15 -15 8 0 15 7 15 15 0 8 -7 15 -15 15 -8 0
-15 -7 -15 -15z"/>
<path d="M775 2011 c-3 -5 -1 -12 5 -16 12 -7 30 2 30 16 0 12 -27 12 -35 0z"/>
<path d="M565 2001 c-7 -12 12 -24 25 -16 11 7 4 25 -10 25 -5 0 -11 -4 -15
-9z"/>
<path d="M853 1998 c2 -7 10 -13 17 -13 7 0 15 6 18 13 2 7 -5 12 -18 12 -13
0 -20 -5 -17 -12z"/>
<path d="M645 1989 c-10 -15 1 -23 20 -15 9 3 13 10 10 16 -8 13 -22 13 -30
-1z"/>
<path d="M720 1975 c0 -10 7 -15 18 -13 21 4 19 22 -2 26 -10 2 -16 -3 -16
-13z"/>
<path d="M517 1973 c-12 -11 -8 -23 8 -23 8 0 15 7 15 15 0 16 -12 20 -23 8z"/>
<path d="M800 1965 c0 -8 7 -15 15 -15 8 0 15 7 15 15 0 8 -7 15 -15 15 -8 0
-15 -7 -15 -15z"/>
<path d="M592 1954 c4 -21 22 -23 26 -1 2 10 -3 17 -13 17 -10 0 -15 -6 -13
-16z"/>
<path d="M672 1944 c4 -21 22 -23 26 -1 2 10 -3 17 -13 17 -10 0 -15 -6 -13
-16z"/>
<path d="M752 1934 c4 -21 22 -23 26 -1 2 10 -3 17 -13 17 -10 0 -15 -6 -13
-16z"/>
<path d="M534 1929 c-10 -17 13 -36 27 -22 12 12 4 33 -11 33 -5 0 -12 -5 -16
-11z"/>
<path d="M825 1931 c-3 -5 0 -13 5 -16 6 -4 15 -18 20 -31 11 -29 30 -32 30
-4 0 11 -6 20 -14 20 -9 0 -12 7 -9 20 4 14 0 20 -10 20 -9 0 -18 -4 -22 -9z"/>
<path d="M614 1919 c-10 -17 13 -36 27 -22 12 12 4 33 -11 33 -5 0 -12 -5 -16
-11z"/>
<path d="M694 1909 c-10 -17 13 -36 27 -22 12 12 4 33 -11 33 -5 0 -12 -5 -16
-11z"/>
<path d="M774 1899 c-10 -17 13 -36 27 -22 12 12 4 33 -11 33 -5 0 -12 -5 -16
-11z"/>
<path d="M566 1893 c-12 -12 -6 -33 9 -33 8 0 15 6 15 14 0 17 -14 28 -24 19z"/>
<path d="M646 1883 c-12 -12 -6 -33 9 -33 8 0 15 6 15 14 0 17 -14 28 -24 19z"/>
<path d="M719 1864 c-10 -13 -9 -16 8 -20 14 -4 19 -12 16 -25 -4 -13 0 -19
10 -19 23 0 32 21 13 32 -9 5 -16 15 -16 23 0 21 -16 26 -31 9z"/>
<path d="M795 1861 c-8 -15 3 -31 21 -31 9 0 14 7 12 17 -4 20 -24 28 -33 14z"/>
<path d="M507 1854 c-9 -10 2 -24 19 -24 8 0 14 7 14 15 0 15 -21 21 -33 9z"/>
<path d="M585 1841 c-3 -5 -1 -12 5 -16 12 -7 30 2 30 16 0 12 -27 12 -35 0z"/>
<path d="M663 1828 c2 -7 10 -13 17 -13 7 0 15 6 18 13 2 7 -5 12 -18 12 -13
0 -20 -5 -17 -12z"/>
<path d="M827 1824 c-14 -14 -7 -35 11 -32 9 2 17 10 17 17 0 16 -18 25 -28
15z"/>
<path d="M530 1806 c0 -8 4 -17 9 -20 11 -7 33 18 24 27 -12 12 -33 7 -33 -7z"/>
<path d="M612 1794 c4 -21 22 -23 26 -1 2 10 -3 17 -13 17 -10 0 -15 -6 -13
-16z"/>
<path d="M692 1784 c4 -21 22 -23 26 -1 2 10 -3 17 -13 17 -10 0 -15 -6 -13
-16z"/>
<path d="M764 1778 c-4 -6 -2 -14 5 -16 7 -2 17 -15 22 -29 9 -25 29 -27 37
-4 2 7 -5 15 -16 18 -14 3 -18 11 -15 24 6 21 -21 27 -33 7z"/>
<path d="M554 1769 c-10 -17 13 -36 27 -22 12 12 4 33 -11 33 -5 0 -12 -5 -16
-11z"/>
<path d="M844 1768 c-4 -6 -2 -14 5 -16 7 -2 17 -15 22 -29 9 -25 29 -27 37
-4 2 7 -5 15 -16 18 -14 3 -18 11 -15 24 6 21 -21 27 -33 7z"/>
<path d="M634 1759 c-10 -17 13 -36 27 -22 12 12 4 33 -11 33 -5 0 -12 -5 -16
-11z"/>
<path d="M714 1749 c-10 -17 13 -36 27 -22 12 12 4 33 -11 33 -5 0 -12 -5 -16
-11z"/>
<path d="M587 1734 c-14 -14 -7 -35 11 -32 9 2 17 10 17 17 0 16 -18 25 -28
15z"/>
<path d="M660 1710 c0 -15 5 -20 18 -18 9 2 17 10 17 18 0 8 -8 16 -17 18 -13
2 -18 -3 -18 -18z"/>
<path d="M737 1706 c-7 -16 1 -26 20 -26 7 0 13 9 13 20 0 23 -25 27 -33 6z"/>
<path d="M687 1684 c-14 -15 -6 -34 14 -34 14 0 19 5 17 17 -3 18 -20 27 -31
17z"/>
<path d="M550 1644 c0 -9 7 -14 17 -12 25 5 28 28 4 28 -12 0 -21 -6 -21 -16z"/>
<path d="M1190 1997 c0 -33 -5 -49 -15 -53 -8 -4 -15 -10 -15 -14 0 -5 204
-365 214 -377 1 -2 16 12 34 30 l31 32 -113 195 c-62 107 -117 204 -124 215
-10 17 -11 13 -12 -28z"/>
<path d="M1018 1862 c-16 -10 -28 -20 -28 -24 0 -8 258 -459 271 -472 4 -5 18
11 30 36 l21 45 -123 216 c-68 119 -128 216 -134 216 -5 -1 -22 -8 -37 -17z"/>
<path d="M1832 1769 c-158 -32 -222 -58 -311 -125 -130 -98 -218 -245 -256
-430 -15 -71 -15 -112 -4 -416 9 -225 16 -338 23 -338 6 0 183 32 394 72 l383
72 -3 65 -3 66 -152 20 c-84 12 -154 23 -156 25 -4 5 -27 585 -27 680 l0 56
150 79 150 79 0 63 c0 76 13 74 -188 32z m115 -15 c-3 -3 -12 -4 -19 -1 -8 3
-5 6 6 6 11 1 17 -2 13 -5z m-132 -24 c-3 -5 -10 -10 -16 -10 -5 0 -9 5 -9 10
0 6 7 10 16 10 8 0 12 -4 9 -10z m155 -31 c0 -18 -2 -19 -15 -9 -15 12 -12 30
6 30 5 0 9 -10 9 -21z m-51 -38 c-6 -16 -25 1 -34 29 l-7 25 22 -21 c12 -12
21 -27 19 -33z m-70 -2 c7 -16 11 -33 7 -36 -3 -3 -10 6 -15 21 -6 14 -15 26
-21 26 -5 0 -10 5 -10 10 0 22 26 8 39 -21z m-224 11 c-3 -5 -12 -10 -18 -10
-7 0 -6 4 3 10 19 12 23 12 15 0z m159 -21 c-2 -4 3 -14 11 -22 17 -17 20 -37
6 -37 -8 0 -51 72 -51 85 0 3 9 0 19 -7 11 -7 18 -15 15 -19z m-53 -35 c10
-16 18 -36 18 -44 1 -18 -46 37 -53 63 -7 27 15 15 35 -19z m-51 -38 c0 -8 5
-18 10 -21 6 -3 10 -10 10 -16 0 -5 -4 -9 -10 -9 -5 0 -10 5 -10 12 0 6 -6 19
-14 27 -7 9 -17 27 -21 39 l-7 24 21 -21 c12 -12 21 -27 21 -35z m-160 24 c0
-5 -5 -10 -11 -10 -5 0 -7 5 -4 10 3 6 8 10 11 10 2 0 4 -4 4 -10z m83 -23
c17 -18 33 -45 59 -97 31 -62 31 -60 21 -60 -4 0 -14 14 -21 30 -8 17 -19 36
-25 43 -17 18 -59 97 -52 97 4 0 12 -6 18 -13z m-23 -83 c11 -24 25 -44 30
-44 6 0 10 -7 10 -15 0 -26 -25 -6 -43 35 -9 22 -21 40 -27 40 -5 0 -10 9 -10
21 0 30 17 14 40 -37z m-70 -9 c0 -9 7 -18 15 -21 8 -4 15 -12 15 -20 0 -18
-26 -7 -34 14 -3 9 -9 23 -12 30 -3 6 -1 12 5 12 6 0 11 -7 11 -15z m-30 -69
c0 -8 7 -19 15 -26 17 -14 20 -30 5 -30 -5 0 -10 6 -10 14 0 7 -7 19 -15 26
-17 14 -21 45 -5 35 6 -3 10 -12 10 -19z m80 -12 c0 -8 -4 -12 -10 -9 -5 3
-10 10 -10 16 0 5 5 9 10 9 6 0 10 -7 10 -16z m80 -10 c0 -8 -4 -12 -10 -9 -5
3 -10 10 -10 16 0 5 5 9 10 9 6 0 10 -7 10 -16z m-55 -23 c3 -5 1 -12 -5 -16
-5 -3 -10 1 -10 9 0 18 6 21 15 7z m72 -23 c-3 -8 -6 -5 -6 6 -1 11 2 17 5 13
3 -3 4 -12 1 -19z m-207 -9 c0 -5 -4 -9 -10 -9 -5 0 -10 7 -10 16 0 8 5 12 10
9 6 -3 10 -10 10 -16z m80 -10 c0 -5 -4 -9 -10 -9 -5 0 -10 7 -10 16 0 8 5 12
10 9 6 -3 10 -10 10 -16z m80 -9 c0 -5 -2 -10 -4 -10 -3 0 -8 5 -11 10 -3 6
-1 10 4 10 6 0 11 -4 11 -10z m80 -10 c0 -5 -2 -10 -4 -10 -3 0 -8 5 -11 10
-3 6 -1 10 4 10 6 0 11 -4 11 -10z m-210 -10 c0 -5 -4 -10 -10 -10 -5 0 -10 5
-10 10 0 6 5 10 10 10 6 0 10 -4 10 -10z"/>
<path d="M990 1583 c0 -11 9 -27 20 -34 16 -11 26 -41 44 -134 22 -113 28
-129 92 -240 l69 -120 6 75 7 75 -106 185 c-58 102 -111 192 -119 200 -11 12
-13 11 -13 -7z"/>
<path d="M808 1486 c-86 -17 -160 -34 -163 -37 -5 -6 83 -498 91 -508 5 -5
348 60 355 67 5 5 -60 368 -90 510 -2 5 -43 -2 -193 -32z m69 -22 c-3 -3 -12
-4 -19 -1 -8 3 -5 6 6 6 11 1 17 -2 13 -5z m103 -69 c13 -25 20 -48 17 -51 -4
-4 -11 5 -16 20 -6 14 -16 26 -22 26 -7 0 -9 3 -6 6 3 4 2 15 -4 25 -5 11 -6
19 -1 19 5 0 19 -20 32 -45z m-76 10 c-4 -8 1 -17 10 -21 9 -3 16 -12 16 -20
0 -8 -6 -11 -15 -8 -8 4 -15 13 -15 20 0 8 -7 17 -15 20 -17 7 -10 24 10 24 9
0 12 -6 9 -15z m-56 -28 c7 -15 18 -27 23 -27 6 0 7 -5 4 -11 -4 -5 -1 -18 7
-27 17 -22 38 -60 38 -69 0 -11 -49 50 -50 61 0 5 -10 23 -23 40 -13 17 -27
39 -30 49 -11 29 16 15 31 -16z m-78 8 c0 -9 7 -18 15 -21 8 -4 13 -9 10 -14
-2 -4 2 -16 10 -26 17 -23 19 -34 5 -34 -6 0 -13 8 -17 18 -3 9 -16 31 -29 48
-22 29 -22 44 -2 44 4 0 8 -7 8 -15z m180 -61 c0 -8 -4 -12 -10 -9 -5 3 -10
10 -10 16 0 5 5 9 10 9 6 0 10 -7 10 -16z m24 -45 c-3 -5 -10 -7 -15 -3 -5 3
-7 10 -3 15 3 5 10 7 15 3 5 -3 7 -10 3 -15z m-134 -20 c0 -5 -4 -9 -10 -9 -5
0 -10 7 -10 16 0 8 5 12 10 9 6 -3 10 -10 10 -16z m160 -19 c0 -5 -2 -10 -4
-10 -3 0 -8 5 -11 10 -3 6 -1 10 4 10 6 0 11 -4 11 -10z m-210 -10 c0 -5 -4
-10 -10 -10 -5 0 -10 5 -10 10 0 6 5 10 10 10 6 0 10 -4 10 -10z"/>
<path d="M560 1423 c1 -13 70 -129 70 -117 0 6 -5 36 -11 67 -10 50 -15 57
-35 57 -13 0 -24 -3 -24 -7z"/>
<path d="M1770 950 c0 -112 18 -146 85 -156 25 -3 48 -4 51 -2 4 5 -109 212
-128 233 -4 5 -8 -29 -8 -75z"/>
<path d="M1126 949 c-16 -105 -17 -99 45 -204 l59 -100 0 84 c0 78 -3 89 -37
150 -59 108 -61 109 -67 70z"/>
</g>
</svg>
