<?xml version="1.0" standalone="no"?>
<!DOCTYPE svg PUBLIC "-//W3C//DTD SVG 20010904//EN"
 "http://www.w3.org/TR/2001/REC-SVG-20010904/DTD/svg10.dtd">
<svg version="1.0" xmlns="http://www.w3.org/2000/svg"
 width="256.000000pt" height="256.000000pt" viewBox="0 0 256.000000 256.000000"
 preserveAspectRatio="xMidYMid meet">
<metadata>
Created by potrace 1.16, written by Peter Selinger 2001-2019
</metadata>
<g transform="translate(0.000000,256.000000) scale(0.100000,-0.100000)"
fill="#e5e5e5" stroke="none">
<path d="M1100 2256 c0 -2 7 -7 16 -10 8 -3 12 -2 9 4 -6 10 -25 14 -25 6z"/>
<path d="M1448 2149 c3 -104 2 -111 -15 -105 -17 6 -17 5 0 -8 17 -13 18 -37
15 -345 -2 -182 0 -331 5 -331 4 0 7 203 7 450 0 248 -3 450 -7 450 -5 0 -7
-50 -5 -111z"/>
<path d="M1247 2162 c12 -11 19 -23 15 -27 -4 -5 -1 -5 5 -1 7 4 29 -5 50 -20
l38 -26 -33 28 c-27 24 -31 32 -20 44 11 12 11 12 -4 1 -15 -11 -22 -11 -45 3
l-28 17 22 -19z"/>
<path d="M1158 2072 c-31 -20 -57 -41 -58 -45 0 -4 27 11 60 33 33 22 60 43
60 45 0 7 2 8 -62 -33z"/>
<path d="M837 1688 c-4 -182 -7 -391 -7 -463 l0 -132 -50 -7 -50 -7 0 -38 0
-38 152 -97 c138 -88 153 -96 165 -80 7 9 10 20 8 24 -2 4 -68 45 -145 91 -77
46 -140 89 -140 95 0 7 21 15 46 19 l47 7 -7 476 c-3 261 -8 477 -10 479 -1 2
-6 -146 -9 -329z"/>
<path d="M1712 2020 c-1 -3 -5 -220 -8 -482 l-7 -476 47 -7 c25 -4 46 -12 46
-19 0 -6 -63 -49 -140 -95 -77 -46 -143 -87 -145 -91 -2 -4 1 -15 8 -24 12
-16 27 -8 165 80 l152 97 0 38 0 38 -50 7 -50 7 -1 211 c-2 217 -14 725 -17
716z"/>
<path d="M1140 1760 c0 -188 0 -191 -20 -180 -12 6 -20 7 -20 1 0 -5 13 -12
30 -16 16 -4 32 -11 35 -16 4 -5 -1 -6 -9 -3 -12 5 -16 -1 -16 -21 0 -22 -3
-25 -20 -20 -18 6 -20 2 -20 -38 0 -32 5 -47 16 -51 23 -9 23 -9 26 34 l3 40
73 -51 c63 -44 71 -53 60 -67 -7 -9 4 -3 25 13 20 17 35 35 33 42 -7 17 24 4
49 -20 20 -19 20 -19 -4 -7 -19 10 -28 9 -47 -1 -30 -16 -30 -22 2 -40 l26
-13 -29 -23 -28 -23 24 -19 c14 -10 37 -26 53 -35 l28 -17 0 30 c0 18 5 31 12
31 7 0 -2 10 -19 23 -38 26 -40 33 -13 47 19 10 20 21 20 300 0 160 -2 290 -5
290 -2 0 -32 -18 -66 -39 l-62 -39 -64 39 c-35 21 -66 39 -68 39 -3 0 -5 -86
-5 -190z"/>
<path d="M1140 1389 c0 -18 67 -62 81 -53 10 6 5 11 -53 49 -22 13 -28 14 -28
4z"/>
<path d="M1237 1343 c-16 -16 -15 -18 10 -39 l27 -21 -57 -38 c-31 -21 -57
-39 -57 -41 0 -2 25 -20 55 -40 30 -20 55 -38 55 -40 0 -4 -118 -84 -124 -84
-3 0 -6 34 -8 75 l-3 74 -42 -27 -43 -27 0 -78 0 -78 45 27 c25 14 45 21 45
15 0 -20 21 -12 90 36 44 31 66 51 60 58 -6 7 11 23 46 45 29 19 54 38 54 42
0 4 -25 24 -55 44 -30 20 -52 41 -49 46 4 5 -4 16 -16 25 -12 8 -19 21 -16 29
7 18 4 18 -17 -3z"/>
<path d="M1050 1292 c0 -13 14 -31 37 -47 47 -31 53 -31 53 0 0 23 -2 24 -20
15 -12 -6 -20 -7 -20 -1 0 5 13 12 30 16 43 9 44 20 2 21 -21 1 -47 4 -59 9
-19 6 -23 4 -23 -13z"/>
<path d="M1458 1303 c-15 -4 -15 -8 -5 -26 7 -12 13 -23 14 -25 5 -11 43 22
43 38 0 20 -14 23 -52 13z"/>
<path d="M1432 1218 c6 -18 28 -21 28 -4 0 9 -7 16 -16 16 -9 0 -14 -5 -12
-12z"/>
<path d="M1408 1182 c-1 -5 -24 -23 -50 -41 -27 -17 -48 -33 -48 -35 0 -2 19
-16 41 -31 l41 -27 -126 -84 -126 -84 0 -89 0 -89 63 -41 c35 -22 66 -41 70
-41 4 0 7 20 7 44 0 43 1 45 65 86 l65 42 0 119 c0 66 2 119 5 119 3 0 23 -11
45 -25 22 -14 42 -25 45 -25 3 0 5 34 5 75 l0 74 -44 31 c-48 32 -53 34 -58
22z"/>
<path d="M507 884 c-65 -42 -116 -79 -113 -81 2 -2 61 25 130 62 90 47 123 70
119 81 -3 8 -8 14 -12 14 -3 0 -59 -35 -124 -76z"/>
<path d="M1924 949 c-4 -7 1 -18 12 -26 28 -21 235 -125 240 -120 3 3 -214
145 -237 155 -4 2 -11 -2 -15 -9z"/>
<path d="M700 642 c-36 -47 -69 -92 -74 -101 -13 -23 57 44 115 110 37 43 46
59 36 67 -9 7 -29 -13 -77 -76z"/>
<path d="M1784 715 c-6 -14 141 -185 159 -185 4 0 -27 45 -69 100 -42 55 -79
100 -81 100 -2 0 -6 -7 -9 -15z"/>
<path d="M954 446 c-14 -48 -24 -89 -22 -92 3 -3 20 32 38 76 23 58 30 84 22
92 -7 7 -18 -15 -38 -76z"/>
<path d="M1566 522 c-6 -11 49 -150 66 -167 8 -7 9 -5 6 5 -3 8 -15 47 -28 85
-24 75 -34 93 -44 77z"/>
<path d="M1271 383 c1 -93 17 -111 18 -20 1 45 -3 77 -9 77 -6 0 -10 -25 -9
-57z"/>
</g>
</svg>
