<?xml version="1.0" standalone="no"?>
<!DOCTYPE svg PUBLIC "-//W3C//DTD SVG 20010904//EN"
 "http://www.w3.org/TR/2001/REC-SVG-20010904/DTD/svg10.dtd">
<svg version="1.0" xmlns="http://www.w3.org/2000/svg"
 width="256.000000pt" height="256.000000pt" viewBox="0 0 256.000000 256.000000"
 preserveAspectRatio="xMidYMid meet">
<metadata>
Created by potrace 1.16, written by Peter Selinger 2001-2019
</metadata>
<g transform="translate(0.000000,256.000000) scale(0.100000,-0.100000)"
fill="#e5e5e5" stroke="none">
<path d="M851 2114 c-136 -94 -181 -130 -181 -146 0 -14 5 -18 16 -14 9 3 27
9 40 12 21 6 24 3 24 -25 0 -17 2 -31 5 -31 2 0 82 55 177 123 108 77 174 131
176 143 2 13 -9 26 -36 41 l-39 22 -182 -125z"/>
<path d="M1495 2217 c-22 -13 -41 -30 -43 -38 -2 -11 51 -54 163 -133 91 -64
172 -119 180 -122 11 -5 15 2 15 26 0 29 2 32 24 26 13 -3 31 -9 40 -12 11 -4
16 0 16 14 0 15 -43 50 -167 135 -93 62 -173 116 -178 120 -6 3 -29 -4 -50
-16z"/>
<path d="M1480 2068 c0 -33 6 -39 163 -150 89 -63 168 -118 175 -122 9 -5 12
3 12 31 -1 38 -2 39 -147 138 -81 55 -159 108 -175 118 l-28 19 0 -34z"/>
<path d="M860 1936 l-175 -123 -3 -161 c-2 -109 1 -162 8 -162 6 0 78 47 161
105 83 58 152 105 155 105 2 0 4 -70 4 -155 0 -153 0 -155 20 -145 19 10 20
21 20 335 0 179 -3 325 -7 325 -5 -1 -87 -56 -183 -124z"/>
<path d="M1260 1998 c-1 -42 -3 -44 -68 -88 l-67 -45 -3 -133 c-1 -72 1 -132
6 -132 4 0 66 39 137 88 l130 87 3 85 c1 47 -1 90 -5 96 -8 11 -119 84 -128
84 -3 0 -5 -19 -5 -42z"/>
<path d="M1512 1674 c2 -216 6 -288 15 -291 9 -3 13 33 15 146 l3 150 152
-104 c83 -58 154 -105 157 -105 3 0 6 60 6 133 l-1 132 -160 110 c-89 61 -167
111 -175 113 -12 3 -14 -41 -12 -284z"/>
<path d="M1285 1663 l-130 -88 -3 -87 c-2 -61 1 -88 9 -88 6 0 46 24 89 54 43
30 81 51 84 48 8 -7 8 -477 0 -485 -4 -3 -15 -2 -26 4 -15 8 -31 2 -82 -30
-35 -22 -67 -37 -70 -34 -3 4 -6 100 -6 215 0 114 -4 208 -8 208 -5 0 -18 -9
-30 -20 -22 -20 -22 -25 -22 -310 0 -160 3 -290 6 -290 4 0 27 15 53 33 25 18
51 36 57 40 6 4 36 -11 67 -32 30 -22 58 -37 61 -33 3 3 6 57 6 120 l0 114 36
-21 c19 -12 39 -21 45 -21 5 0 9 154 9 395 0 217 -4 395 -8 395 -4 0 -66 -39
-137 -87z"/>
<path d="M657 1463 c-4 -3 -7 -86 -7 -183 l0 -176 42 -20 42 -21 138 100 138
99 0 60 c0 45 -3 57 -12 52 -7 -4 -79 -54 -159 -111 -81 -57 -150 -103 -153
-103 -3 0 -6 70 -6 155 0 142 -4 168 -23 148z"/>
<path d="M1858 1301 l-3 -151 -155 109 -155 110 -3 -56 c-4 -68 -4 -67 143
-172 l114 -81 46 22 45 22 -2 170 c-2 123 -6 170 -15 173 -9 3 -13 -33 -15
-146z"/>
<path d="M422 997 c-72 -45 -131 -86 -132 -90 0 -4 63 24 140 64 127 65 156
88 131 103 -4 3 -67 -32 -139 -77z"/>
<path d="M1996 1064 c-4 -9 -5 -18 -4 -19 26 -18 281 -145 285 -142 2 3 -22
22 -54 43 -32 20 -92 59 -134 85 -42 27 -78 49 -81 49 -3 0 -9 -7 -12 -16z"/>
<path d="M640 734 c-36 -47 -73 -96 -83 -110 -10 -13 -15 -24 -10 -24 15 0
184 191 180 203 -8 26 -26 12 -87 -69z"/>
<path d="M1842 807 c-8 -9 12 -37 80 -110 50 -54 92 -96 95 -94 4 4 -154 217
-161 217 -2 0 -8 -6 -14 -13z"/>
<path d="M947 593 c-13 -23 -58 -175 -55 -184 2 -7 21 30 42 80 26 62 35 96
28 103 -5 5 -12 6 -15 1z"/>
<path d="M1603 594 c-9 -4 -7 -19 8 -57 35 -89 59 -140 64 -136 4 4 -53 200
-58 198 -1 0 -7 -3 -14 -5z"/>
<path d="M1270 428 c0 -40 5 -80 10 -88 7 -11 10 1 10 41 0 31 3 71 6 88 5 24
3 31 -10 31 -13 0 -16 -12 -16 -72z"/>
</g>
</svg>
