<?xml version="1.0" standalone="no"?>
<!DOCTYPE svg PUBLIC "-//W3C//DTD SVG 20010904//EN"
 "http://www.w3.org/TR/2001/REC-SVG-20010904/DTD/svg10.dtd">
<svg version="1.0" xmlns="http://www.w3.org/2000/svg"
 width="256.000000pt" height="256.000000pt" viewBox="0 0 256.000000 256.000000"
 preserveAspectRatio="xMidYMid meet">
<metadata>
Created by potrace 1.16, written by Peter Selinger 2001-2019
</metadata>
<g transform="translate(0.000000,256.000000) scale(0.100000,-0.100000)"
fill="#e5e5e5" stroke="none">
<path d="M831 2153 c0 -8 438 -314 457 -321 12 -4 482 308 482 320 0 4 -64 8
-143 8 l-144 0 -79 -59 -79 -60 -16 -78 -15 -78 -14 72 c-7 39 -16 76 -19 81
-3 5 -41 35 -85 66 l-78 56 -134 0 c-74 0 -134 -3 -133 -7z"/>
<path d="M676 1612 c-4 -291 -4 -536 0 -545 3 -9 10 -17 15 -17 11 0 12 1060
0 1078 -4 7 -11 -225 -15 -516z"/>
<path d="M1808 2057 l-78 -52 0 -214 0 -213 28 18 c15 10 55 35 90 57 l62 39
0 209 c0 161 -3 209 -12 208 -7 0 -48 -24 -90 -52z"/>
<path d="M746 2081 c-4 -5 -4 -72 -2 -148 2 -76 5 -317 5 -535 1 -347 3 -398
16 -398 13 0 15 66 15 534 0 447 -2 535 -14 545 -9 8 -16 8 -20 2z"/>
<path d="M819 2034 c-1 -5 0 -250 1 -544 2 -527 3 -549 33 -550 4 0 7 240 7
533 0 521 0 534 -20 552 -11 10 -20 14 -21 9z"/>
<path d="M889 1984 c0 -5 0 -247 1 -539 1 -466 4 -532 17 -547 9 -10 20 -18
25 -18 4 0 8 240 8 533 l0 534 -25 23 c-14 13 -25 19 -26 14z"/>
<path d="M1603 1919 l-63 -42 0 -209 c0 -165 3 -208 13 -202 6 4 36 23 65 41
l52 34 0 209 c0 116 -1 210 -2 210 -2 0 -31 -19 -65 -41z"/>
<path d="M960 1933 c-1 -4 0 -246 0 -538 1 -473 2 -531 17 -547 42 -47 43 -40
46 405 l2 422 3 -432 2 -432 29 -20 c16 -12 32 -21 35 -21 3 0 6 240 6 534 l0
535 -29 20 c-16 12 -34 21 -40 21 -6 0 -11 4 -11 8 0 11 -60 55 -60 45z"/>
<path d="M1150 1510 c0 -159 4 -290 9 -290 4 0 66 37 137 83 l129 83 3 207 c1
114 0 207 -3 207 -4 0 -33 -18 -65 -40 -32 -22 -64 -40 -70 -40 -6 0 -38 18
-70 40 -32 22 -61 40 -64 40 -4 0 -6 -130 -6 -290z"/>
<path d="M1813 1607 l-83 -52 0 -174 0 -173 28 17 c15 10 55 38 90 62 l62 44
0 165 c0 90 -3 164 -7 164 -5 0 -45 -24 -90 -53z"/>
<path d="M1598 1469 l-58 -40 0 -206 0 -205 28 18 c15 9 44 28 65 42 l37 25 0
203 c0 112 -3 204 -7 203 -5 0 -34 -18 -65 -40z"/>
<path d="M1285 1267 l-130 -84 -3 -206 c-1 -114 1 -207 5 -207 4 0 67 39 140
88 l133 87 0 203 c0 111 -3 202 -7 202 -5 0 -66 -37 -138 -83z"/>
<path d="M1628 1007 l-88 -62 0 -77 c0 -43 2 -78 5 -78 2 0 67 41 145 91 104
68 140 96 140 111 0 21 -10 21 -77 2 -21 -6 -23 -3 -23 35 0 22 -3 41 -7 40
-5 0 -47 -28 -95 -62z"/>
<path d="M492 902 c-67 -42 -122 -81 -122 -85 0 -5 58 22 130 60 118 62 145
83 122 97 -4 2 -62 -30 -130 -72z"/>
<path d="M1944 966 c-4 -9 -5 -18 -3 -20 17 -15 259 -136 259 -129 0 4 -42 34
-93 66 -50 31 -107 67 -124 78 -30 19 -34 19 -39 5z"/>
<path d="M1342 825 l-82 -55 0 -49 c0 -45 3 -52 39 -80 l39 -31 5 28 c4 16 22
38 47 55 l40 28 0 80 c0 43 -1 79 -3 79 -1 0 -39 -25 -85 -55z"/>
<path d="M685 648 c-115 -150 -106 -153 26 -7 54 60 66 79 56 87 -10 8 -29
-10 -82 -80z"/>
<path d="M1802 728 c-8 -11 10 -35 79 -108 50 -52 87 -88 83 -80 -6 12 -117
161 -144 193 -4 4 -12 2 -18 -5z"/>
<path d="M946 444 c-15 -47 -25 -88 -22 -91 3 -3 10 5 15 18 5 13 20 52 35 86
30 72 30 73 13 73 -7 0 -25 -37 -41 -86z"/>
<path d="M1570 525 c0 -3 12 -34 26 -68 15 -34 30 -73 35 -86 5 -13 12 -21 15
-18 10 10 -50 177 -63 177 -7 0 -13 -2 -13 -5z"/>
<path d="M1276 368 c7 -77 14 -102 14 -51 0 17 3 51 6 77 6 39 4 46 -10 46
-15 0 -16 -8 -10 -72z"/>
</g>
</svg>
