<?xml version="1.0" standalone="no"?>
<!DOCTYPE svg PUBLIC "-//W3C//DTD SVG 20010904//EN"
 "http://www.w3.org/TR/2001/REC-SVG-20010904/DTD/svg10.dtd">
<svg version="1.0" xmlns="http://www.w3.org/2000/svg"
 width="256.000000pt" height="256.000000pt" viewBox="0 0 256.000000 256.000000"
 preserveAspectRatio="xMidYMid meet">
<metadata>
Created by potrace 1.16, written by Peter Selinger 2001-2019
</metadata>
<g transform="translate(0.000000,256.000000) scale(0.100000,-0.100000)"
fill="#e5e5e5" stroke="none">
<path d="M915 2116 c-170 -110 -221 -148 -223 -165 -4 -25 -6 -25 66 -5 20 6
22 3 22 -31 0 -26 4 -36 14 -33 7 2 88 53 180 113 l166 110 0 78 c0 42 -1 77
-2 76 -2 0 -102 -64 -223 -143z"/>
<path d="M1400 2211 c0 -37 -4 -42 -62 -83 l-63 -44 -3 -57 c-3 -55 7 -72 25
-44 5 7 10 -18 13 -60 l5 -73 108 72 107 71 0 92 0 92 -55 37 c-30 20 -59 36
-65 36 -5 0 -10 -18 -10 -39z"/>
<path d="M1010 1925 l0 -66 44 26 c39 23 47 24 65 13 21 -13 21 -19 21 -373
l0 -360 -65 -43 c-62 -40 -65 -44 -65 -83 0 -29 4 -40 13 -36 6 2 56 35 110
71 l97 67 0 410 c0 225 -3 409 -6 409 -3 0 -18 -8 -32 -18 -15 -10 -32 -21
-38 -25 -6 -3 -37 12 -70 34 -32 21 -62 39 -66 39 -5 0 -8 -29 -8 -65z"/>
<path d="M1645 1920 c-55 -38 -104 -69 -108 -70 -4 0 -6 15 -5 33 2 17 0 34
-4 37 -4 3 -54 -26 -112 -65 l-105 -70 -1 -413 c0 -328 3 -412 13 -406 6 4 24
16 39 26 36 25 41 24 109 -22 l59 -41 0 66 c0 37 -3 65 -7 63 -5 -2 -25 -12
-45 -22 -69 -36 -68 -42 -68 368 l1 361 54 38 c29 20 58 37 63 37 6 0 7 -151
4 -380 -3 -259 -1 -380 6 -380 5 0 58 31 116 70 l106 70 0 385 c0 212 -3 385
-7 385 -5 0 -53 -32 -108 -70z"/>
<path d="M888 1777 l-108 -72 0 -388 c0 -214 3 -387 8 -385 4 2 55 36 115 76
l107 72 0 385 c0 212 -3 385 -7 384 -5 0 -56 -33 -115 -72z"/>
<path d="M1113 999 l-103 -69 0 -89 0 -89 63 -40 62 -39 3 39 c3 35 9 43 73
89 l69 51 0 54 c0 50 -10 68 -25 44 -16 -25 -25 -5 -25 55 0 36 -3 65 -7 64
-5 0 -54 -32 -110 -70z"/>
<path d="M1578 937 l-167 -112 -1 -77 0 -78 48 30 c265 166 397 259 400 280 3
20 1 22 -20 16 -77 -22 -78 -21 -78 18 0 20 -3 36 -7 35 -5 0 -83 -51 -175
-112z"/>
<path d="M517 874 c-65 -42 -116 -78 -114 -80 2 -3 61 25 130 61 91 48 124 70
120 81 -3 7 -8 14 -12 14 -3 0 -59 -35 -124 -76z"/>
<path d="M1917 936 c-4 -11 29 -33 120 -81 69 -36 128 -64 130 -61 4 4 -229
156 -239 156 -3 0 -8 -7 -11 -14z"/>
<path d="M701 624 c-40 -52 -71 -97 -69 -99 6 -6 158 161 158 174 0 30 -24 10
-89 -75z"/>
<path d="M1785 708 c-5 -13 14 -41 71 -102 43 -47 80 -84 82 -81 2 2 -25 41
-60 86 -34 46 -68 90 -75 99 -10 13 -12 13 -18 -2z"/>
<path d="M959 435 c-15 -47 -23 -85 -20 -85 6 0 58 121 63 149 2 7 -2 15 -7
17 -6 2 -22 -34 -36 -81z"/>
<path d="M1567 513 c-6 -9 55 -163 64 -163 3 0 -5 38 -20 85 -24 80 -33 96
-44 78z"/>
<path d="M1275 429 c-2 -8 -1 -43 3 -79 l8 -65 7 70 c4 40 3 73 -3 79 -6 6
-11 4 -15 -5z"/>
</g>
</svg>
