<?xml version="1.0" standalone="no"?>
<!DOCTYPE svg PUBLIC "-//W3C//DTD SVG 20010904//EN"
 "http://www.w3.org/TR/2001/REC-SVG-20010904/DTD/svg10.dtd">
<svg version="1.0" xmlns="http://www.w3.org/2000/svg"
 width="256.000000pt" height="256.000000pt" viewBox="0 0 256.000000 256.000000"
 preserveAspectRatio="xMidYMid meet">
<metadata>
Created by potrace 1.16, written by Peter Selinger 2001-2019
</metadata>
<g transform="translate(0.000000,256.000000) scale(0.100000,-0.100000)"
fill="#e5e5e5" stroke="none">
<path d="M956 2148 c-145 -269 -316 -589 -334 -624 l-21 -41 195 -128 c107
-70 196 -126 198 -124 4 5 13 999 10 999 -2 0 -23 -37 -48 -82z"/>
<path d="M1534 2066 c4 -93 6 -342 6 -553 l0 -383 190 127 c105 69 190 132
190 138 0 13 -344 758 -374 810 -16 29 -17 24 -12 -139z"/>
<path d="M1130 1635 c0 -457 2 -526 15 -522 8 3 75 47 150 97 l135 90 0 430
c0 237 -2 430 -5 430 -3 0 -34 -18 -69 -40 -69 -44 -82 -47 -111 -27 -11 8
-41 26 -67 41 l-48 28 0 -527z"/>
<path d="M610 1351 c0 -26 16 -39 185 -150 102 -67 188 -121 191 -121 3 0 4
12 2 28 -3 23 -30 46 -183 149 -99 67 -183 122 -187 122 -5 1 -8 -12 -8 -28z"/>
<path d="M1740 1209 c-152 -104 -204 -149 -174 -149 5 0 88 53 186 118 117 77
178 123 178 135 0 9 -3 17 -7 16 -5 0 -87 -54 -183 -120z"/>
<path d="M640 1223 c0 -21 12 -41 45 -73 37 -36 45 -51 45 -81 0 -34 4 -39 78
-86 42 -27 103 -66 135 -87 l57 -37 0 83 -1 83 -170 110 c-93 61 -174 112
-179 113 -6 2 -10 -9 -10 -25z"/>
<path d="M1738 1124 l-178 -116 0 -75 c0 -57 3 -72 13 -67 6 5 70 46 141 92
128 83 128 83 123 116 -5 30 0 39 44 82 43 42 64 84 42 84 -5 0 -88 -53 -185
-116z"/>
<path d="M1271 1063 l-142 -97 3 -100 3 -100 70 -47 70 -46 3 49 c3 48 4 49
78 100 l74 52 0 143 c0 79 -4 143 -8 143 -5 0 -72 -44 -151 -97z"/>
<path d="M418 987 c-70 -45 -128 -86 -128 -90 0 -5 63 24 140 65 99 51 140 78
140 91 0 9 -6 17 -12 16 -7 0 -70 -37 -140 -82z"/>
<path d="M1996 1054 c-4 -9 -5 -18 -4 -19 2 -1 66 -34 142 -74 208 -107 194
-90 -55 67 -36 23 -69 42 -72 42 -2 0 -8 -7 -11 -16z"/>
<path d="M650 738 c-30 -40 -68 -90 -84 -112 -17 -21 -25 -37 -19 -35 19 7
184 192 180 203 -8 24 -26 11 -77 -56z"/>
<path d="M1842 798 c-8 -8 11 -35 80 -110 50 -54 93 -96 95 -94 4 4 -154 216
-161 216 -1 0 -7 -5 -14 -12z"/>
<path d="M947 583 c-13 -23 -58 -175 -55 -185 3 -7 21 30 42 81 23 59 34 97
28 103 -6 6 -12 6 -15 1z"/>
<path d="M1603 584 c-9 -4 -7 -17 6 -52 38 -95 62 -145 66 -140 4 4 -53 199
-58 197 -1 0 -7 -3 -14 -5z"/>
<path d="M1270 418 c0 -40 5 -80 10 -88 7 -11 10 4 10 50 0 36 3 75 6 88 5 16
2 22 -10 22 -13 0 -16 -12 -16 -72z"/>
</g>
</svg>
