<?xml version="1.0" standalone="no"?>
<!DOCTYPE svg PUBLIC "-//W3C//DTD SVG 20010904//EN"
 "http://www.w3.org/TR/2001/REC-SVG-20010904/DTD/svg10.dtd">
<svg version="1.0" xmlns="http://www.w3.org/2000/svg"
 width="256.000000pt" height="256.000000pt" viewBox="0 0 256.000000 256.000000"
 preserveAspectRatio="xMidYMid meet">
<metadata>
Created by potrace 1.16, written by Peter Selinger 2001-2019
</metadata>
<g transform="translate(0.000000,256.000000) scale(0.100000,-0.100000)"
fill="#e5e5e5" stroke="none">
<path d="M1208 2188 c-2 -257 0 -341 10 -367 16 -41 18 -185 2 -226 -18 -47
-39 -65 -117 -101 -176 -81 -295 -187 -356 -316 -47 -99 -52 -124 -27 -131 19
-5 20 -14 20 -122 0 -108 -1 -117 -20 -122 -25 -7 -25 -5 1 -81 55 -162 202
-308 364 -362 59 -20 66 -20 87 -6 32 22 190 23 212 1 13 -13 22 -14 58 -5
177 48 349 217 402 398 13 44 13 52 1 52 -25 0 -35 37 -35 134 0 86 2 96 22
110 20 14 21 18 9 58 -48 163 -201 317 -386 390 -57 22 -90 49 -113 93 -21 41
-23 199 -2 237 13 23 15 79 12 362 l-3 336 -69 0 -69 0 -3 -332z m207 -773
c87 -23 152 -62 225 -135 105 -105 150 -213 150 -360 -1 -147 -46 -257 -149
-359 -102 -101 -218 -151 -356 -151 -283 0 -515 229 -515 510 0 227 159 435
377 495 66 18 197 18 268 0z"/>
<path d="M1166 1405 c-348 -88 -494 -499 -280 -784 109 -145 296 -221 471
-192 182 31 326 150 393 326 31 80 34 233 6 315 -68 202 -241 335 -451 345
-51 3 -101 -1 -139 -10z m256 -25 c127 -39 229 -125 288 -244 35 -70 37 -86
10 -86 -22 0 -22 4 -22 -151 1 -95 0 -95 -27 -106 -16 -6 -46 -37 -72 -74 -50
-71 -121 -130 -181 -150 -23 -7 -36 -15 -30 -17 20 -6 116 48 160 91 24 23 55
61 69 85 14 23 33 47 43 52 28 15 80 12 80 -3 0 -34 -68 -145 -120 -196 -194
-191 -498 -186 -685 10 -57 60 -110 156 -120 219 -4 24 0 18 13 -20 28 -82 55
-130 107 -187 76 -85 100 -96 197 -87 79 6 142 21 108 24 -8 1 -4 5 10 9 24 6
25 11 28 89 3 80 3 82 28 82 39 0 95 34 140 84 23 25 38 46 33 46 -4 0 -22
-18 -39 -40 -35 -45 -95 -80 -135 -80 -24 0 -25 2 -25 60 0 66 -5 72 -75 84
-125 22 -96 33 88 35 147 2 166 0 201 -19 48 -26 76 -23 95 12 14 24 14 28 -3
47 -22 24 -68 28 -86 6 -10 -12 -45 -15 -192 -15 -110 0 -177 4 -173 9 3 6 27
13 53 17 89 13 92 16 92 84 0 66 -15 78 -47 40 -10 -11 -29 -20 -44 -20 -47 0
-89 -71 -89 -151 0 -88 56 -159 144 -179 24 -6 26 -8 8 -9 -27 -1 -91 30 -113
55 -38 43 -51 86 -47 149 3 51 9 70 33 100 17 20 36 48 44 62 10 20 19 24 40
20 14 -3 37 -3 51 -1 25 5 25 6 20 87 l-5 82 -46 -2 c-91 -2 -200 -71 -257
-160 -60 -93 -81 -257 -37 -289 12 -9 16 -21 12 -35 -8 -29 24 -90 73 -139 41
-41 97 -74 165 -97 39 -13 39 -13 5 -8 -85 13 -183 86 -231 170 -17 29 -35 55
-42 58 -19 7 -20 160 -1 232 40 159 174 270 343 284 l76 6 -142 14 c-139 13
-142 13 -176 -8 -70 -43 -137 -128 -179 -226 -9 -22 -17 -33 -17 -25 -1 24 54
126 94 174 114 140 328 201 507 146z m-605 -372 c-3 -7 -5 -2 -5 12 0 14 2 19
5 13 2 -7 2 -19 0 -25z m-10 -125 c-2 -21 -4 -4 -4 37 0 41 2 58 4 38 2 -21 2
-55 0 -75z m241 81 c24 -17 30 -62 10 -82 -24 -24 -88 -9 -88 22 0 5 6 2 13
-8 9 -12 23 -17 42 -14 25 2 31 8 33 33 3 19 -2 33 -14 42 -24 17 -30 17 -54
-7 -11 -11 -20 -16 -20 -11 0 10 39 41 50 41 3 0 16 -7 28 -16z m-28 -404 c0
-5 -4 -10 -10 -10 -5 0 -10 5 -10 10 0 6 5 10 10 10 6 0 10 -4 10 -10z"/>
<path d="M1348 1293 c6 -2 18 -2 25 0 6 3 1 5 -13 5 -14 0 -19 -2 -12 -5z"/>
<path d="M1465 1251 c58 -34 104 -79 148 -147 18 -27 41 -50 52 -51 18 -3 17
-2 -2 6 -12 6 -29 24 -38 42 -34 65 -161 179 -199 179 -6 0 12 -13 39 -29z"/>
<path d="M1342 1104 c35 -11 58 -27 90 -64 24 -28 50 -50 58 -49 13 0 13 1 -1
7 -8 4 -33 27 -55 51 -39 44 -87 72 -121 70 -10 0 3 -7 29 -15z"/>
<path d="M1333 543 c9 -2 23 -2 30 0 6 3 -1 5 -18 5 -16 0 -22 -2 -12 -5z"/>
<path d="M1273 533 c9 -2 23 -2 30 0 6 3 -1 5 -18 5 -16 0 -22 -2 -12 -5z"/>
<path d="M1055 2489 c-88 -25 -233 -94 -316 -149 -87 -58 -205 -182 -255 -266
-81 -137 -115 -254 -129 -439 -14 -198 -44 -357 -101 -547 -3 -10 0 -18 6 -18
24 0 118 71 159 120 l43 51 -24 82 c-20 71 -23 103 -22 242 0 147 2 167 28
245 99 304 329 521 626 594 l95 23 3 41 c3 38 1 42 -20 41 -13 0 -54 -9 -93
-20z"/>
<path d="M1390 2467 l0 -43 68 -13 c280 -55 528 -264 632 -534 72 -186 79
-379 20 -588 l-14 -47 44 -53 c37 -43 135 -119 155 -119 11 0 4 47 -15 110
-37 122 -59 245 -75 424 -18 212 -32 271 -90 392 -94 194 -233 328 -448 429
-87 41 -221 85 -259 85 -14 0 -18 -9 -18 -43z"/>
<path d="M1055 2380 c-38 -10 -110 -39 -160 -64 -364 -180 -550 -602 -439
-998 9 -32 19 -58 23 -58 3 0 16 15 29 34 12 18 33 43 46 55 22 20 23 26 13
59 -17 59 -13 247 7 322 69 259 271 461 527 527 l69 17 0 63 c0 74 0 74 -115
43z"/>
<path d="M1390 2336 c0 -56 3 -66 18 -66 9 0 55 -14 102 -30 47 -17 101 -32
120 -33 26 -1 36 -7 38 -22 2 -11 26 -36 54 -55 112 -78 223 -247 264 -400 20
-75 24 -263 6 -323 -10 -37 -10 -39 34 -83 24 -25 44 -50 44 -55 0 -5 4 -9 8
-9 5 0 19 40 31 90 79 321 -43 678 -298 874 -110 85 -264 155 -376 172 l-45 6
0 -66z"/>
<path d="M1092 2241 c-233 -67 -407 -233 -488 -466 -26 -72 -28 -93 -29 -220
0 -78 5 -148 10 -157 9 -16 17 -13 73 24 l62 41 0 68 c0 38 -4 69 -10 69 -15
0 -32 39 -25 61 4 11 18 24 31 29 13 5 24 15 24 23 0 34 73 159 126 217 71 76
146 126 234 156 l65 21 3 77 c2 42 -1 76 -5 75 -4 0 -36 -9 -71 -18z"/>
<path d="M1390 2180 l0 -78 33 -6 c75 -14 179 -75 252 -149 112 -113 165 -242
165 -404 l0 -83 62 -39 c56 -36 64 -38 73 -23 5 9 10 80 10 157 -1 127 -3 148
-29 220 -32 95 -62 149 -127 230 -64 81 -141 140 -182 140 -24 0 -34 6 -44 26
-13 27 -82 59 -170 78 l-43 9 0 -78z m348 -177 c5 -17 -26 -29 -40 -15 -6 6
-7 15 -3 22 9 14 37 9 43 -7z"/>
<path d="M1115 2076 c-153 -49 -289 -177 -346 -327 -18 -47 -18 -53 -4 -69 8
-9 15 -26 15 -38 0 -21 -24 -52 -41 -52 -10 0 -12 -63 -3 -96 5 -20 10 -18
103 31 167 87 253 163 306 268 23 46 25 62 25 174 0 68 -3 123 -7 122 -5 0
-26 -6 -48 -13z m-137 -282 c4 -27 -26 -40 -46 -20 -13 13 -13 18 -2 31 18 21
44 15 48 -11z"/>
<path d="M942 1796 c1 -10 8 -17 13 -17 15 1 12 24 -3 29 -9 3 -13 -2 -10 -12z"/>
<path d="M1390 1965 c0 -113 2 -130 24 -173 52 -102 142 -180 317 -276 l87
-46 6 43 c14 95 -22 239 -87 340 -64 100 -214 209 -319 231 l-28 6 0 -125z
m209 -135 c4 0 13 6 21 13 8 6 6 2 -4 -10 l-19 -23 49 -2 49 -1 -50 -6 -50 -6
-6 -50 -6 -50 -1 49 -2 49 -22 -19 c-13 -10 -17 -12 -10 -4 20 23 14 30 -30
32 l-43 1 43 4 c43 4 49 10 32 31 -7 9 -7 9 2 2 21 -18 28 -11 30 33 l1 42 4
-42 c2 -24 7 -43 12 -43z m22 -57 c13 -16 12 -17 -3 -4 -10 7 -18 15 -18 17 0
8 8 3 21 -13z"/>
<path d="M1172 1780 c-28 -62 -118 -160 -191 -210 -31 -20 -94 -57 -141 -80
-186 -93 -277 -166 -377 -299 -32 -43 -74 -82 -123 -116 l-75 -51 -14 -70
c-10 -52 -11 -85 -3 -135 10 -67 44 -159 59 -159 5 0 14 24 21 52 25 108 127
283 207 358 l27 25 28 -33 28 -34 17 51 c24 73 102 186 177 258 35 34 111 92
169 128 152 99 195 144 214 232 3 18 11 35 16 38 13 8 11 46 -4 72 -12 22 -13
20 -35 -27z"/>
<path d="M1351 1807 c-13 -34 -14 -69 -3 -82 5 -6 17 -32 27 -59 25 -70 66
-111 191 -192 186 -121 301 -247 355 -388 l22 -57 27 33 c33 39 35 37 110 -57
67 -84 127 -198 148 -284 20 -78 26 -79 55 -9 32 76 40 146 27 230 l-13 79
-76 52 c-50 35 -92 74 -124 117 -100 134 -164 185 -386 304 -190 102 -279 182
-330 296 l-20 44 -10 -27z"/>
<path d="M567 1006 c-12 -31 -7 -96 10 -129 15 -29 17 -30 24 -12 13 33 9 78
-9 120 -15 32 -19 36 -25 21z"/>
<path d="M1967 977 c-18 -45 -21 -79 -8 -112 7 -18 9 -17 24 12 17 32 23 128
9 137 -4 2 -15 -14 -25 -37z"/>
<path d="M520 825 c0 -65 18 -145 33 -145 6 0 -2 165 -9 198 -10 49 -24 18
-24 -53z"/>
<path d="M2016 878 c-6 -27 -14 -198 -9 -198 1 0 9 13 18 30 17 33 22 190 5
190 -5 0 -12 -10 -14 -22z"/>
<path d="M564 788 c12 -116 17 -129 45 -139 14 -6 38 -25 53 -42 l28 -32 -19
35 c-11 19 -25 55 -31 80 -13 48 -66 160 -76 160 -4 0 -4 -28 0 -62z"/>
<path d="M1955 778 c-18 -40 -36 -90 -40 -111 -4 -20 -16 -50 -27 -65 -12 -15
-5 -11 15 11 20 20 43 37 52 37 8 0 20 11 25 24 12 32 25 176 16 176 -4 0 -22
-33 -41 -72z"/>
<path d="M486 650 c19 -83 67 -173 119 -225 44 -44 125 -93 125 -76 0 5 -5 13
-11 17 -20 12 -96 138 -119 199 -16 41 -38 73 -69 102 -25 24 -49 43 -53 43
-3 0 0 -27 8 -60z"/>
<path d="M2028 667 c-29 -27 -50 -56 -58 -82 -15 -51 -69 -148 -109 -199 -17
-21 -31 -40 -31 -43 0 -7 64 29 98 55 69 53 129 162 156 285 8 36 -1 34 -56
-16z"/>
<path d="M625 543 c30 -67 83 -147 123 -186 28 -27 182 -97 212 -96 8 0 -6 8
-31 18 -82 32 -111 55 -160 128 -60 88 -146 193 -159 193 -5 0 2 -26 15 -57z"/>
<path d="M1910 558 c-24 -24 -69 -82 -102 -130 -63 -95 -78 -108 -165 -144
-32 -13 -51 -23 -43 -23 8 0 56 16 107 37 78 31 97 44 132 86 49 60 133 216
117 216 -2 0 -23 -19 -46 -42z"/>
<path d="M619 332 c21 -39 137 -154 174 -174 42 -21 112 -28 160 -15 35 10 34
22 -3 37 -17 7 -54 29 -83 49 -28 20 -72 43 -97 50 -25 7 -71 26 -103 42 -45
22 -55 24 -48 11z"/>
<path d="M1923 333 c-13 -8 -58 -27 -100 -42 -43 -15 -107 -46 -141 -69 -35
-23 -73 -44 -83 -47 -50 -16 3 -40 82 -38 25 0 64 10 86 21 38 20 152 132 173
172 13 24 12 24 -17 3z"/>
<path d="M873 243 c3 -5 35 -23 71 -42 58 -29 69 -32 97 -22 47 16 57 13 30
-8 l-24 -19 71 -16 c83 -19 102 -20 102 -6 0 6 12 22 26 35 l27 25 -39 1 c-38
1 -38 2 -9 9 19 5 -17 8 -97 9 -95 1 -142 6 -190 21 -73 23 -71 22 -65 13z"/>
<path d="M1625 230 c-38 -14 -82 -19 -185 -20 -85 -2 -124 -5 -105 -10 29 -7
29 -8 -9 -9 l-39 -1 27 -25 c14 -13 26 -29 26 -35 0 -14 19 -13 102 6 65 15
70 18 53 30 -26 19 -14 26 24 13 29 -10 39 -8 97 22 96 48 100 63 9 29z"/>
<path d="M1019 124 c-8 -9 -27 -23 -43 -29 l-29 -12 46 -27 c25 -15 61 -30 80
-33 42 -6 99 18 122 53 18 28 20 26 -65 43 -30 6 -64 13 -76 16 -13 4 -26 0
-35 -11z"/>
<path d="M1465 125 c-22 -8 -54 -14 -72 -14 -17 -1 -34 -5 -37 -9 -9 -16 55
-71 89 -78 40 -7 65 0 124 33 l44 26 -29 12 c-16 6 -35 19 -43 28 -16 20 -22
20 -76 2z"/>
</g>
</svg>
