<?xml version="1.0" standalone="no"?>
<!DOCTYPE svg PUBLIC "-//W3C//DTD SVG 20010904//EN"
 "http://www.w3.org/TR/2001/REC-SVG-20010904/DTD/svg10.dtd">
<svg version="1.0" xmlns="http://www.w3.org/2000/svg"
 width="256.000000pt" height="256.000000pt" viewBox="0 0 256.000000 256.000000"
 preserveAspectRatio="xMidYMid meet">
<metadata>
Created by potrace 1.16, written by Peter Selinger 2001-2019
</metadata>
<g transform="translate(0.000000,256.000000) scale(0.100000,-0.100000)"
fill="#e5e5e5" stroke="none">
<path d="M1163 2236 c-78 -19 -157 -62 -220 -119 -112 -103 -165 -222 -165
-372 0 -151 50 -264 163 -369 200 -186 496 -180 690 13 103 103 149 212 149
356 0 144 -46 253 -149 356 -126 126 -299 176 -468 135z m232 -21 c156 -41
276 -146 340 -298 15 -37 15 -37 -10 -47 -15 -6 -25 -17 -25 -30 0 -19 -6 -20
-110 -20 l-109 0 -33 41 c-31 39 -92 79 -120 79 -6 0 11 -12 40 -26 30 -15 60
-39 72 -59 11 -18 27 -36 36 -39 9 -3 63 -6 120 -6 l105 0 -2 -84 c-1 -46 1
-89 5 -94 3 -6 -2 -13 -11 -15 -10 -3 -1 -5 19 -6 l37 -1 -15 -42 c-38 -110
-133 -209 -254 -267 -74 -35 -77 -36 -200 -36 -123 0 -126 0 -202 37 -257 122
-358 416 -230 663 104 199 335 305 547 250z"/>
<path d="M1004 2131 c-131 -95 -200 -233 -198 -397 1 -143 66 -276 177 -363
l57 -44 148 14 147 14 -76 6 c-50 4 -96 15 -132 32 -67 31 -151 106 -179 161
-11 22 -29 47 -41 56 -22 18 -18 50 6 50 23 0 41 -28 29 -43 -8 -10 -4 -26 18
-63 55 -97 172 -174 268 -177 l47 -2 2 147 c3 165 5 159 -72 172 -58 10 -75
16 -75 27 0 5 73 9 174 9 158 0 176 -2 199 -20 32 -25 59 -25 82 0 23 25 13
67 -21 82 -20 10 -29 8 -54 -10 -27 -21 -40 -22 -207 -22 -132 0 -174 3 -166
11 7 7 35 15 63 20 71 11 80 21 80 85 0 49 -2 54 -23 54 -12 0 -28 -9 -35 -21
-9 -14 -20 -19 -33 -16 -13 3 -28 -6 -48 -28 -92 -106 -47 -262 89 -304 l35
-11 -34 5 c-70 10 -135 83 -147 163 -8 52 17 124 55 163 14 15 31 35 38 45 6
11 16 18 22 17 21 -5 26 -5 71 -3 25 1 37 4 28 7 -15 4 -18 16 -18 77 0 63 -3
75 -24 95 -23 22 -40 26 -152 35 -56 5 -65 3 -100 -23z m196 -25 c-75 -17
-134 -49 -186 -102 -66 -68 -96 -139 -105 -248 l-7 -91 2 90 c2 103 27 170 91
243 57 65 164 122 230 121 21 -1 13 -4 -25 -13z m-110 -6 c0 -5 -4 -10 -10
-10 -5 0 -10 5 -10 10 0 6 5 10 10 10 6 0 10 -4 10 -10z m150 -130 c0 -5 -4
-10 -10 -10 -5 0 -10 5 -10 10 0 6 5 10 10 10 6 0 10 -4 10 -10z m-192 -186
c26 -18 28 -50 5 -76 -20 -22 -51 -23 -75 -1 -24 21 -23 48 2 73 24 24 38 25
68 4z m-33 -404 c3 -5 1 -10 -4 -10 -6 0 -11 5 -11 10 0 6 2 10 4 10 3 0 8 -4
11 -10z"/>
<path d="M986 1774 c-30 -30 -13 -74 29 -74 42 0 59 44 29 74 -8 9 -22 16 -29
16 -7 0 -21 -7 -29 -16z"/>
<path d="M1313 2123 c9 -2 25 -2 35 0 9 3 1 5 -18 5 -19 0 -27 -2 -17 -5z"/>
<path d="M1422 2096 c77 -32 134 -79 180 -150 41 -64 54 -76 78 -75 9 0 6 4
-7 9 -12 5 -39 35 -61 68 -22 32 -57 73 -78 92 -39 34 -128 80 -154 80 -8 0
11 -11 42 -24z"/>
<path d="M1440 1630 c-35 -44 -76 -70 -130 -81 -32 -6 -32 -7 -7 -8 41 -2 96
31 143 83 23 25 38 46 33 46 -4 0 -22 -18 -39 -40z"/>
<path d="M1638 1593 c-8 -10 -24 -34 -36 -53 -28 -47 -87 -103 -142 -134 -25
-14 -40 -26 -34 -26 38 0 163 109 195 172 10 20 27 42 36 47 10 6 13 11 7 11
-6 0 -18 -8 -26 -17z"/>
<path d="M1348 1363 c6 -2 18 -2 25 0 6 3 1 5 -13 5 -14 0 -19 -2 -12 -5z"/>
<path d="M970 2223 c-46 -8 -94 -25 -182 -66 l-88 -40 0 -38 0 -39 71 46 c39
25 112 63 164 84 126 51 140 60 95 58 -19 0 -46 -3 -60 -5z"/>
<path d="M1500 2227 c0 -7 34 -23 141 -67 42 -17 106 -51 144 -75 37 -25 70
-45 72 -45 2 0 3 17 1 37 -3 43 -30 62 -158 112 -69 27 -200 52 -200 38z"/>
<path d="M864 2121 c-43 -21 -98 -53 -121 -70 l-43 -31 0 -115 c0 -63 2 -115
5 -115 15 0 56 59 66 95 18 68 78 171 129 224 27 28 48 51 46 51 -1 0 -38 -17
-82 -39z"/>
<path d="M1668 2097 c55 -59 92 -125 116 -208 10 -34 28 -67 46 -84 l30 -29 0
121 0 120 -53 36 c-53 35 -170 97 -183 97 -4 0 16 -24 44 -53z"/>
<path d="M648 1871 c-16 -18 -55 -77 -89 -131 -83 -136 -134 -178 -262 -215
-31 -9 -57 -22 -57 -29 0 -7 21 -21 46 -31 50 -19 113 -76 138 -122 26 -52 59
-279 53 -365 -4 -43 -4 -78 -2 -78 2 0 9 19 15 43 7 23 25 66 41 96 l29 54
-17 46 c-12 32 -18 84 -20 171 -2 120 -3 126 -28 147 -14 12 -41 25 -61 29
l-36 7 60 29 c73 34 101 66 154 172 22 45 47 88 55 97 9 11 13 33 11 65 l-3
48 -27 -33z"/>
<path d="M1880 1856 c0 -31 7 -57 19 -74 10 -15 35 -59 54 -98 48 -96 81 -132
149 -164 l58 -28 -35 -6 c-19 -4 -46 -17 -60 -29 -24 -21 -26 -28 -29 -147 -2
-87 -8 -139 -20 -170 l-17 -44 31 -57 c16 -31 34 -74 39 -95 8 -34 9 -27 10
49 1 48 10 141 22 205 29 165 68 225 173 268 25 11 46 24 46 31 0 7 -19 17
-42 23 -65 16 -143 56 -186 94 -21 20 -67 83 -102 141 -35 58 -74 115 -87 127
l-23 21 0 -47z"/>
<path d="M727 1782 c-24 -25 -26 -31 -16 -66 6 -24 8 -83 5 -150 -4 -61 -9
-188 -12 -282 -5 -160 -4 -174 15 -212 16 -32 21 -60 21 -127 l0 -86 48 -51
c96 -104 259 -185 406 -203 l59 -8 -6 33 c-4 18 -7 47 -7 64 0 31 -1 32 -67
44 -213 41 -399 221 -442 430 -24 115 -8 260 38 351 18 35 19 41 4 82 -8 24
-16 81 -16 126 -1 46 -2 83 -3 83 0 0 -12 -13 -27 -28z"/>
<path d="M1803 1727 c-1 -39 -9 -94 -17 -122 -15 -48 -14 -52 9 -110 42 -105
49 -262 17 -371 -40 -131 -165 -277 -290 -338 -40 -18 -101 -40 -137 -47 -49
-9 -65 -17 -65 -29 0 -10 -3 -39 -7 -65 l-6 -47 54 7 c168 23 358 126 434 235
21 30 24 46 23 111 -1 59 3 85 20 120 20 40 22 62 22 195 0 83 -5 167 -12 189
-14 48 -14 230 -1 265 8 19 6 30 -10 52 -12 16 -23 28 -26 28 -3 0 -7 -33 -8
-73z"/>
<path d="M640 1696 c-26 -70 -60 -256 -47 -256 3 0 17 24 30 54 14 30 36 71
50 91 24 36 25 38 10 81 -18 54 -30 63 -43 30z"/>
<path d="M1880 1677 l-21 -47 36 -59 c19 -33 42 -77 50 -98 l14 -38 0 55 c1
51 -29 184 -49 219 -7 13 -13 6 -30 -32z"/>
<path d="M669 1550 c-15 -25 -35 -68 -45 -97 l-18 -52 27 -80 c15 -44 27 -95
27 -113 0 -22 3 -28 9 -20 4 7 4 32 0 55 -13 68 -10 118 12 202 11 43 19 94
17 114 l-3 36 -26 -45z"/>
<path d="M1850 1573 c0 -9 12 -66 27 -126 24 -102 26 -116 14 -181 -8 -47 -8
-73 -1 -80 7 -7 10 2 10 27 0 21 10 63 21 95 35 95 35 103 -10 197 -40 81 -61
105 -61 68z"/>
<path d="M775 1505 c-131 -314 49 -672 376 -750 88 -20 89 -20 89 19 0 80 -7
90 -73 110 -34 9 -73 19 -87 20 -14 2 -28 4 -32 5 -5 0 -8 6 -8 12 0 6 -24 35
-54 64 -32 32 -67 81 -87 122 -33 65 -34 72 -35 188 -1 110 -3 124 -26 165
-14 25 -30 54 -36 65 -9 17 -12 15 -27 -20z"/>
<path d="M1745 1499 c-10 -19 -28 -48 -40 -65 -21 -27 -22 -35 -13 -80 9 -49
4 -147 -11 -187 -5 -13 -4 -29 2 -39 12 -18 -6 -48 -28 -48 -8 0 -23 -15 -34
-34 -45 -71 -139 -137 -241 -167 -25 -7 -48 -18 -52 -24 -4 -5 -8 -34 -8 -63
l0 -53 38 7 c129 23 261 98 338 191 52 65 98 158 113 231 23 109 8 262 -33
340 l-14 26 -17 -35z"/>
<path d="M874 1355 c-14 -76 1 -171 40 -249 39 -80 114 -160 141 -150 17 7 48
-14 40 -26 -5 -9 52 -34 104 -45 l34 -7 -7 53 c-8 61 -12 69 -32 69 -25 0 -87
36 -119 69 -16 17 -40 31 -51 31 -32 0 -45 23 -43 72 7 117 3 133 -50 178
l-50 41 -7 -36z"/>
<path d="M1624 1351 c-33 -32 -42 -48 -51 -99 -22 -116 -71 -184 -166 -232
-34 -17 -65 -39 -69 -48 -7 -17 -11 -92 -5 -92 19 0 121 38 154 57 39 23 143
126 143 141 0 4 -4 13 -9 21 -13 20 -2 41 24 51 14 5 25 20 29 40 9 45 8 188
-2 194 -4 2 -25 -13 -48 -33z m-97 -307 c8 -21 -13 -42 -28 -27 -13 13 -5 43
11 43 6 0 13 -7 17 -16z"/>
<path d="M990 1273 c0 -51 11 -71 40 -77 38 -7 56 -40 40 -72 -11 -19 -10 -26
1 -40 18 -22 110 -74 131 -74 15 0 15 5 4 48 -7 26 -19 59 -26 72 -27 52 -90
117 -139 144 l-51 27 0 -28z"/>
<path d="M1515 1274 c-74 -42 -148 -145 -169 -236 -8 -34 3 -35 61 -7 83 40
160 160 151 237 l-3 28 -40 -22z"/>
<path d="M1270 1130 c0 -5 5 -10 10 -10 6 0 10 5 10 10 0 6 -4 10 -10 10 -5 0
-10 -4 -10 -10z"/>
<path d="M568 1050 c-76 -135 -80 -184 -24 -315 21 -49 43 -94 49 -100 7 -7 7
-4 2 10 -19 47 -17 159 4 239 22 84 25 125 13 191 l-8 40 -36 -65z"/>
<path d="M1946 1079 c-11 -57 -6 -124 15 -205 21 -79 22 -180 4 -229 -19 -47
10 0 43 72 32 68 37 88 37 154 0 69 -4 83 -40 153 -22 43 -43 80 -46 82 -4 2
-9 -10 -13 -27z"/>
<path d="M670 958 c0 -31 6 -63 14 -74 14 -18 15 -18 21 9 8 30 -9 102 -25
112 -6 4 -10 -15 -10 -47z"/>
<path d="M1867 978 c-19 -41 -22 -75 -8 -97 15 -24 32 24 29 82 l-4 52 -17
-37z"/>
<path d="M1050 935 c0 -8 7 -15 15 -15 8 0 15 7 15 15 0 8 -7 15 -15 15 -8 0
-15 -7 -15 -15z"/>
<path d="M630 850 c0 -52 20 -130 33 -130 5 0 -2 135 -9 168 -9 44 -24 21 -24
-38z"/>
<path d="M1906 888 c-9 -45 -13 -167 -5 -162 14 8 29 76 29 132 0 52 -16 72
-24 30z"/>
<path d="M673 797 c7 -80 14 -96 43 -103 13 -3 26 -14 29 -24 3 -10 13 -24 23
-32 15 -11 14 -10 -1 15 -10 16 -25 52 -34 80 -17 57 -50 127 -60 127 -3 0 -3
-28 0 -63z"/>
<path d="M1857 813 c-14 -26 -28 -64 -32 -83 -4 -19 -17 -51 -28 -70 -16 -27
-17 -32 -4 -22 9 8 19 22 22 33 4 10 12 19 20 19 27 0 44 31 50 95 4 36 5 68
2 71 -3 3 -17 -16 -30 -43z"/>
<path d="M1755 780 c-88 -90 -256 -171 -386 -186 l-56 -6 -7 -61 c-10 -99 -8
-167 7 -167 6 0 27 15 45 34 18 19 67 49 110 67 42 19 108 50 146 69 l70 35
59 116 c33 65 58 122 56 128 -3 7 -22 -7 -44 -29z"/>
<path d="M765 789 c4 -13 30 -68 58 -122 58 -112 62 -115 238 -192 68 -29 118
-58 139 -80 61 -63 66 -52 53 113 l-6 82 -32 0 c-107 0 -300 83 -400 172 -48
43 -56 48 -50 27z"/>
<path d="M430 758 c0 -44 27 -170 49 -229 41 -109 95 -160 193 -183 l26 -6
-18 38 c-10 20 -26 57 -34 82 -9 25 -48 88 -88 140 -39 52 -84 114 -100 139
-25 41 -28 43 -28 19z"/>
<path d="M2104 742 c-12 -20 -49 -71 -81 -112 -75 -95 -99 -134 -123 -205 -11
-32 -25 -64 -31 -71 -14 -17 -15 -17 45 1 27 8 64 26 82 40 38 29 85 122 107
210 15 59 31 175 25 175 -2 0 -13 -17 -24 -38z"/>
<path d="M596 723 c28 -118 81 -206 153 -253 24 -17 48 -30 53 -30 4 0 -8 22
-27 49 -19 27 -51 82 -70 124 -20 44 -49 87 -70 106 -44 38 -47 38 -39 4z"/>
<path d="M1917 711 c-27 -25 -48 -57 -60 -90 -10 -28 -37 -80 -61 -116 -25
-36 -41 -65 -37 -65 4 0 28 13 52 30 50 32 100 96 123 156 17 43 36 124 30
124 -3 0 -23 -18 -47 -39z"/>
<path d="M710 641 c0 -22 60 -128 98 -172 19 -22 56 -50 81 -61 75 -33 122
-48 116 -38 -3 6 -11 10 -17 10 -7 0 -31 9 -55 21 -33 16 -57 40 -103 108 -61
90 -120 154 -120 132z"/>
<path d="M1808 612 c-20 -22 -59 -73 -86 -115 -39 -57 -62 -80 -95 -96 -24
-12 -48 -21 -55 -21 -6 0 -14 -4 -17 -10 -3 -5 11 -3 32 4 130 47 172 82 233
197 40 75 35 93 -12 41z"/>
<path d="M716 429 c100 -132 151 -169 228 -168 28 0 60 4 71 8 18 7 16 10 -15
26 -19 10 -53 30 -75 45 -22 15 -58 33 -80 40 -22 7 -62 24 -90 38 -27 13 -45
18 -39 11z"/>
<path d="M1810 420 c-19 -11 -57 -27 -85 -36 -27 -9 -68 -29 -90 -44 -22 -15
-56 -35 -75 -45 -31 -16 -33 -19 -15 -26 11 -4 43 -8 71 -8 76 -1 130 38 227
167 12 16 9 15 -33 -8z"/>
<path d="M945 344 c48 -37 97 -56 134 -49 26 4 32 3 21 -5 -13 -9 -13 -11 0
-20 8 -5 39 -12 68 -16 48 -6 55 -4 77 20 l24 26 -32 1 -32 1 30 8 c20 5 -8 8
-81 9 -82 1 -126 6 -170 21 -46 15 -55 16 -39 4z"/>
<path d="M1575 340 c-36 -13 -82 -19 -165 -20 -76 -2 -105 -5 -85 -10 l30 -8
-32 -1 -32 -1 23 -25 c26 -28 46 -30 112 -14 44 11 55 23 32 33 -7 3 3 3 23 0
36 -6 86 13 134 50 25 19 22 19 -40 -4z"/>
<path d="M1049 244 c-7 -9 -22 -19 -33 -23 -17 -7 -15 -10 17 -30 69 -42 149
-34 176 18 10 17 4 20 -60 35 -87 20 -84 20 -100 0z"/>
<path d="M1403 243 c-57 -13 -62 -16 -53 -34 28 -52 108 -60 177 -18 32 20 34
23 17 30 -11 4 -26 14 -33 23 -16 19 -25 19 -108 -1z"/>
</g>
</svg>
