<?xml version="1.0" standalone="no"?>
<!DOCTYPE svg PUBLIC "-//W3C//DTD SVG 20010904//EN"
 "http://www.w3.org/TR/2001/REC-SVG-20010904/DTD/svg10.dtd">
<svg version="1.0" xmlns="http://www.w3.org/2000/svg"
 width="256.000000pt" height="256.000000pt" viewBox="0 0 256.000000 256.000000"
 preserveAspectRatio="xMidYMid meet">
<metadata>
Created by potrace 1.16, written by Peter Selinger 2001-2019
</metadata>
<g transform="translate(0.000000,256.000000) scale(0.100000,-0.100000)"
fill="#e5e5e5" stroke="none">
<path d="M1180 2335 c-69 -14 -176 -51 -184 -64 -3 -4 19 1 48 10 132 45 302
49 441 10 38 -11 71 -18 73 -16 7 7 -117 47 -186 61 -87 16 -106 16 -192 -1z"/>
<path d="M1134 2290 c-75 -15 -146 -59 -216 -135 -37 -39 -83 -80 -102 -90
-26 -14 -36 -27 -41 -53 -3 -18 -9 -40 -12 -48 -3 -8 31 5 78 30 46 25 125 57
174 72 82 25 105 28 255 28 197 1 277 -16 433 -94 55 -27 96 -43 93 -35 -2 7
-8 29 -11 47 -6 26 -18 40 -62 68 -30 19 -72 58 -94 86 -45 59 -124 106 -207
123 -60 13 -226 13 -288 1z m164 -79 c11 -7 11 -9 -2 -14 -20 -8 -48 2 -40 14
7 11 25 11 42 0z"/>
<path d="M928 2219 c-21 -11 -38 -24 -38 -29 0 -5 -23 -32 -50 -60 -34 -33
-45 -50 -34 -50 9 0 52 36 95 80 43 44 76 80 71 80 -4 -1 -24 -10 -44 -21z"/>
<path d="M1657 2160 c44 -44 87 -80 97 -80 12 0 2 15 -33 49 -28 27 -51 54
-51 60 0 10 -70 51 -86 51 -3 0 29 -36 73 -80z"/>
<path d="M1179 2078 c-104 -9 -227 -46 -330 -100 -88 -45 -98 -54 -127 -125
-33 -78 -27 -107 14 -62 28 31 143 104 204 130 30 12 63 29 72 37 9 8 21 12
25 9 5 -3 40 1 78 10 69 14 83 14 379 -1 28 -2 52 -8 53 -13 2 -6 45 -32 96
-57 51 -25 120 -68 155 -96 34 -28 62 -45 62 -38 0 7 -10 42 -22 77 -21 59
-28 68 -82 103 -152 98 -366 145 -577 126z"/>
<path d="M703 2017 c-76 -102 -78 -109 -77 -258 0 -74 5 -142 10 -151 6 -11 9
7 10 55 0 57 9 97 42 192 37 107 61 206 51 205 -2 0 -18 -20 -36 -43z"/>
<path d="M1825 2010 c3 -25 25 -99 48 -165 34 -99 41 -132 41 -190 -1 -56 1
-65 9 -45 5 14 10 81 11 150 1 115 -1 129 -24 173 -13 27 -39 65 -58 85 l-33
37 6 -45z"/>
<path d="M1108 1958 c-32 -7 -48 -16 -51 -29 -5 -20 -41 -26 -52 -9 -12 20
-238 -111 -286 -166 -12 -13 -18 -45 -21 -102 l-5 -83 31 38 c70 86 182 170
278 209 26 10 49 27 52 36 4 19 50 25 60 9 4 -5 22 -5 43 0 21 5 77 9 124 9
205 0 416 -99 544 -256 l41 -50 -4 84 c-5 84 -5 85 -45 121 -54 49 -129 98
-194 128 -45 21 -59 23 -79 14 -29 -13 -51 -6 -59 19 -4 13 -22 22 -56 29 -60
13 -256 12 -321 -1z m327 -38 c0 -8 -8 -16 -17 -18 -13 -2 -18 3 -18 18 0 15
5 20 18 18 9 -2 17 -10 17 -18z"/>
<path d="M1014 1949 c-10 -17 13 -36 27 -22 12 12 4 33 -11 33 -5 0 -12 -5
-16 -11z"/>
<path d="M572 1833 c-5 -10 -17 -43 -27 -73 -10 -30 -39 -111 -65 -180 -27
-69 -51 -142 -55 -163 -11 -59 11 -116 80 -210 89 -120 108 -160 109 -229 1
-63 10 -76 20 -27 11 59 6 114 -19 184 -32 91 -34 204 -4 300 l20 67 -26 110
c-18 77 -26 131 -23 175 2 34 2 63 1 63 -1 0 -6 -8 -11 -17z"/>
<path d="M1150 1843 c-13 -3 -31 -14 -38 -24 -11 -15 -21 -18 -47 -13 -27 5
-48 -2 -112 -35 -98 -51 -186 -130 -249 -221 l-49 -71 -3 -103 c-4 -87 0 -119
22 -206 40 -153 46 -192 55 -342 7 -108 13 -147 30 -182 21 -42 110 -136 129
-136 16 0 125 76 152 106 16 17 21 28 13 31 -7 2 -38 21 -71 42 -243 158 -327
459 -200 719 42 85 150 196 234 240 214 112 470 74 646 -95 177 -172 218 -422
106 -652 -38 -79 -140 -184 -218 -225 -30 -16 -56 -30 -58 -32 -7 -5 76 -74
126 -105 l53 -32 37 30 c85 68 122 158 122 297 0 84 18 197 55 340 17 68 25
125 25 185 0 119 -24 167 -145 287 -75 75 -107 99 -176 132 -46 23 -113 48
-149 56 -61 15 -231 20 -290 9z"/>
<path d="M1975 1767 c0 -53 -9 -115 -24 -174 l-24 -92 19 -58 c28 -86 26 -239
-4 -316 -23 -60 -29 -153 -12 -192 7 -15 9 -9 9 26 1 70 26 127 92 214 33 44
70 98 82 120 31 59 27 131 -13 230 -18 44 -50 132 -72 195 -22 63 -43 118 -46
122 -4 4 -7 -30 -7 -75z"/>
<path d="M1152 1654 c-91 -24 -164 -66 -233 -134 -254 -250 -186 -663 136
-821 151 -74 301 -73 454 2 165 82 281 271 281 460 0 228 -169 441 -391 494
-79 18 -177 18 -247 -1z m282 -36 c136 -45 246 -149 299 -285 16 -41 16 -43
-2 -43 -26 0 -30 -16 -32 -134 -1 -110 2 -126 28 -126 12 0 14 -7 9 -32 -18
-90 -143 -229 -251 -279 -294 -138 -641 51 -688 374 -32 221 103 446 313 523
103 37 217 38 324 2z"/>
<path d="M995 1543 c-86 -64 -147 -155 -176 -265 -31 -117 -22 -214 31 -326
31 -65 112 -160 164 -191 33 -19 35 -19 261 5 l80 9 -90 5 c-142 9 -251 71
-312 179 -15 25 -34 53 -44 61 -15 13 -16 24 -10 75 6 42 9 49 10 25 1 -22 9
-42 22 -53 16 -14 18 -21 9 -32 -10 -12 -6 -24 15 -61 60 -102 175 -178 270
-179 l50 0 3 75 c2 44 8 78 15 82 7 5 3 8 -12 8 -108 1 -202 96 -201 206 1 38
31 104 60 129 12 11 26 31 31 44 8 18 14 22 34 17 14 -4 36 -4 50 0 25 6 26 8
23 88 l-3 81 -51 -1 c-140 -4 -289 -149 -315 -308 l-8 -51 3 52 c6 110 97 233
211 288 46 22 80 30 145 34 l85 5 -65 8 c-36 3 -105 10 -155 13 -89 7 -91 7
-130 -22z m245 -157 c0 -3 -4 -8 -10 -11 -5 -3 -10 -1 -10 4 0 6 5 11 10 11 6
0 10 -2 10 -4z m-185 -196 c15 -16 17 -26 9 -47 -5 -14 -16 -29 -24 -31 -12
-4 -11 -1 3 15 30 34 15 73 -29 73 -47 0 -58 -71 -13 -85 11 -4 18 -9 15 -12
-11 -11 -56 28 -56 48 0 57 58 80 95 39z"/>
<path d="M1387 1525 c91 -28 164 -86 226 -181 18 -26 38 -49 45 -50 7 -1 8 0
3 2 -6 3 -31 36 -55 73 -25 36 -65 81 -90 99 -54 39 -124 72 -151 71 -11 0 -1
-6 22 -14z"/>
<path d="M1335 1347 c27 -7 56 -27 91 -64 28 -29 54 -53 57 -53 4 0 -17 25
-46 54 -52 54 -91 77 -125 75 -9 -1 1 -6 23 -12z"/>
<path d="M1230 1330 c-11 -11 -30 -20 -43 -20 -29 0 -61 -33 -82 -82 -39 -95
8 -201 107 -243 62 -25 68 -22 68 39 0 64 -11 76 -82 87 -28 5 -56 13 -62 19
-7 7 46 10 171 10 148 0 183 -3 193 -15 27 -33 100 -6 100 37 0 20 -32 48 -56
48 -11 0 -29 -7 -40 -15 -16 -11 -63 -15 -198 -17 -182 -3 -220 6 -113 28 77
15 87 26 87 90 0 60 -14 70 -50 34z"/>
<path d="M1430 1039 c-28 -31 -60 -56 -85 -64 -22 -8 -32 -14 -22 -15 29 0 71
26 109 68 20 22 44 45 55 51 13 8 14 10 3 11 -8 0 -35 -23 -60 -51z"/>
<path d="M1638 1013 c-9 -10 -23 -32 -31 -49 -24 -46 -97 -114 -159 -147 -29
-15 -42 -25 -28 -21 68 18 170 109 201 178 7 15 24 34 38 41 17 9 20 14 10 15
-9 0 -23 -8 -31 -17z"/>
<path d="M1368 783 c7 -3 16 -2 19 1 4 3 -2 6 -13 5 -11 0 -14 -3 -6 -6z"/>
<path d="M394 1145 c-9 -22 -17 -69 -18 -105 -1 -58 2 -70 32 -112 18 -26 57
-66 87 -90 36 -28 65 -62 85 -100 17 -31 35 -60 40 -63 14 -9 12 0 -9 37 -10
18 -24 70 -31 116 -15 113 -32 156 -85 218 -25 29 -54 72 -65 96 l-19 43 -17
-40z"/>
<path d="M2131 1148 c-6 -19 -32 -59 -57 -88 -67 -79 -84 -123 -99 -255 -4
-33 -16 -75 -26 -94 -11 -18 -18 -36 -15 -38 5 -5 15 11 57 84 13 23 51 64 84
90 41 33 69 66 88 105 28 55 29 58 17 126 -6 39 -17 78 -24 88 -12 16 -14 14
-25 -18z"/>
<path d="M510 698 c11 -18 36 -82 55 -143 33 -105 79 -192 121 -225 16 -14 17
-13 9 5 -28 65 -65 184 -65 210 0 38 -49 124 -90 159 -42 35 -54 33 -30 -6z"/>
<path d="M2007 689 c-52 -55 -72 -95 -87 -179 -6 -36 -23 -91 -36 -124 -13
-33 -22 -61 -20 -64 3 -2 25 24 50 58 35 47 54 88 81 178 20 64 43 128 52 140
26 42 4 37 -40 -9z"/>
<path d="M1060 589 c-25 -22 -66 -53 -92 -70 -27 -17 -48 -32 -48 -34 0 -5
101 -66 125 -75 48 -18 134 75 150 161 7 36 6 37 -30 43 -20 4 -42 9 -48 11
-7 2 -32 -14 -57 -36z"/>
<path d="M1398 618 c-29 -8 -38 -15 -38 -32 0 -40 51 -127 92 -157 l40 -28 52
26 c28 14 61 33 73 43 l22 17 -67 46 c-37 26 -79 58 -92 72 -26 27 -27 28 -82
13z"/>
<path d="M1226 549 c-9 -68 -37 -122 -77 -147 l-32 -20 59 -12 c58 -12 201 -9
236 5 14 5 10 13 -21 44 -37 37 -61 98 -61 155 0 24 -3 26 -49 26 l-48 0 -7
-51z"/>
<path d="M1734 515 c-100 -99 -206 -195 -215 -195 -5 0 -9 -4 -9 -10 0 -18 81
-11 116 11 39 24 114 125 145 194 11 26 19 47 17 48 -1 1 -26 -20 -54 -48z"/>
<path d="M770 556 c0 -4 13 -33 29 -64 38 -75 103 -158 141 -177 32 -17 110
-20 110 -5 0 6 -5 10 -10 10 -6 0 -43 31 -83 68 -135 128 -187 175 -187 168z"/>
<path d="M640 543 c0 -22 43 -149 65 -193 25 -49 41 -65 98 -100 l39 -23 -33
59 c-18 33 -45 75 -61 96 -15 20 -46 67 -68 104 -22 38 -40 64 -40 57z"/>
<path d="M1881 490 c-17 -33 -49 -81 -70 -107 -20 -27 -49 -71 -64 -100 l-27
-52 38 21 c60 34 73 50 103 113 25 55 62 175 56 182 -2 1 -18 -25 -36 -57z"/>
<path d="M978 388 c29 -36 91 -70 116 -64 25 6 46 -9 24 -17 -16 -6 22 -22 73
-31 32 -6 37 -4 42 14 7 26 -17 36 -110 50 -38 5 -83 20 -111 36 -26 15 -41
21 -34 12z"/>
<path d="M1530 369 c-30 -16 -68 -29 -83 -29 -36 0 -116 -20 -122 -30 -3 -5
-2 -15 1 -24 5 -13 14 -15 43 -10 38 7 95 33 73 34 -7 0 -10 5 -7 10 3 6 17 7
30 4 18 -5 37 3 75 31 27 20 50 39 50 41 0 5 4 7 -60 -27z"/>
<path d="M1073 264 l-21 -23 44 -22 c47 -22 81 -21 108 7 24 23 20 28 -31 41
-27 6 -55 13 -63 16 -8 3 -25 -6 -37 -19z"/>
<path d="M1420 275 c-19 -8 -45 -14 -57 -14 -28 -1 -29 -15 -3 -41 24 -24 51
-25 96 -4 45 22 48 27 21 51 -20 19 -25 19 -57 8z"/>
</g>
</svg>
