<?xml version="1.0" standalone="no"?>
<!DOCTYPE svg PUBLIC "-//W3C//DTD SVG 20010904//EN"
 "http://www.w3.org/TR/2001/REC-SVG-20010904/DTD/svg10.dtd">
<svg version="1.0" xmlns="http://www.w3.org/2000/svg"
 width="256.000000pt" height="256.000000pt" viewBox="0 0 256.000000 256.000000"
 preserveAspectRatio="xMidYMid meet">
<metadata>
Created by potrace 1.16, written by Peter Selinger 2001-2019
</metadata>
<g transform="translate(0.000000,256.000000) scale(0.100000,-0.100000)"
fill="#e5e5e5" stroke="none">
<path d="M1145 2446 c-216 -35 -412 -147 -551 -314 -67 -81 -147 -238 -175
-347 -30 -114 -30 -317 0 -430 23 -85 74 -201 121 -275 39 -61 78 -168 87
-237 l7 -58 7 70 c4 39 19 107 34 152 l27 82 -30 48 c-17 26 -43 75 -58 107
-25 56 -28 58 -41 40 -8 -10 -19 -31 -25 -46 -5 -16 -14 -26 -19 -23 -4 3 -23
49 -41 103 -30 92 -32 105 -32 247 -1 119 3 164 18 215 82 282 273 486 540
576 93 32 136 31 167 -2 24 -26 24 -26 26 -276 1 -157 7 -263 14 -285 7 -21
11 -94 10 -181 -1 -126 -4 -152 -22 -189 -26 -53 -76 -97 -169 -148 -83 -45
-177 -140 -215 -215 -57 -113 -71 -260 -35 -383 38 -134 66 -172 230 -318 86
-75 134 -98 160 -74 23 21 177 21 200 0 23 -21 76 -3 115 39 17 18 62 57 100
88 100 80 134 131 174 262 37 122 24 271 -34 386 -39 77 -134 172 -216 215
-89 47 -147 98 -170 151 -28 61 -37 293 -15 354 13 37 16 86 16 273 -1 242 7
299 42 318 31 17 103 6 193 -29 243 -95 422 -297 497 -557 18 -65 22 -105 22
-215 0 -138 -14 -217 -59 -325 l-17 -40 -23 45 c-13 25 -27 43 -31 40 -5 -3
-23 -34 -40 -70 -18 -36 -43 -81 -57 -100 l-24 -35 19 -45 c25 -58 47 -153 49
-210 l1 -45 9 56 c10 70 40 156 75 217 15 26 40 70 55 97 68 119 117 342 104
475 -32 325 -211 592 -490 730 -166 82 -360 114 -530 86z m244 -1151 c35 -9
90 -29 122 -46 97 -52 203 -177 233 -276 6 -19 4 -23 -13 -23 -14 0 -23 -9
-27 -25 -6 -25 -7 -25 -115 -25 l-108 0 -31 38 c-31 39 -96 82 -121 82 -8 0 4
-9 26 -19 22 -10 59 -39 82 -65 l42 -46 110 0 111 0 0 -84 c0 -97 5 -116 31
-116 17 0 17 -3 4 -41 -21 -57 -51 -105 -103 -161 -188 -202 -516 -202 -704 0
-113 121 -157 275 -124 430 57 269 321 439 585 377z"/>
<path d="M987 1196 c-98 -80 -155 -177 -179 -306 -28 -152 43 -333 172 -439
l54 -44 80 7 c45 3 115 9 156 13 l75 8 -80 5 c-137 10 -273 94 -322 201 -10
21 -25 39 -33 41 -12 3 -14 21 -11 107 4 121 17 172 62 242 56 89 188 171 267
168 19 -1 14 -4 -18 -10 -109 -21 -217 -106 -267 -208 -21 -43 -28 -73 -31
-143 -4 -83 -3 -89 19 -107 18 -15 21 -22 12 -33 -10 -11 -6 -25 17 -64 55
-97 177 -177 270 -178 l45 -1 3 81 3 81 -48 12 c-93 24 -165 130 -148 220 7
41 51 121 66 121 5 0 14 12 19 26 8 20 16 25 37 23 42 -3 110 3 91 8 -15 4
-18 16 -18 77 0 44 -5 77 -12 85 -11 11 -2 13 52 8 36 -3 74 -8 85 -12 18 -6
18 -5 3 5 -10 6 -42 13 -70 16 -29 2 -82 9 -118 14 -36 5 -91 12 -123 14 -56
5 -60 3 -110 -38z m103 -16 c0 -5 -5 -10 -11 -10 -5 0 -7 5 -4 10 3 6 8 10 11
10 2 0 4 -4 4 -10z m145 -130 c3 -5 1 -10 -4 -10 -6 0 -11 5 -11 10 0 6 2 10
4 10 3 0 8 -4 11 -10z m-185 -190 c52 -52 -17 -123 -72 -73 -10 9 -18 24 -18
35 0 22 34 58 55 58 8 0 24 -9 35 -20z"/>
<path d="M987 852 c-30 -33 -15 -72 28 -72 42 0 59 44 29 74 -20 21 -37 20
-57 -2z"/>
<path d="M1487 1141 c40 -25 74 -59 101 -97 52 -75 69 -94 85 -93 6 0 3 5 -8
10 -11 5 -30 28 -43 49 -33 59 -76 104 -131 139 -26 17 -51 31 -56 31 -4 0 19
-18 52 -39z"/>
<path d="M1226 989 c-10 -15 -22 -20 -35 -16 -27 7 -76 -49 -91 -104 -28 -104
40 -212 148 -234 l32 -7 0 61 c0 35 -5 63 -12 67 -6 4 -39 12 -72 18 -32 6
-61 17 -64 24 -3 11 31 13 176 10 155 -3 183 -5 199 -20 26 -24 56 -23 78 2
15 16 17 26 9 48 -7 22 -17 28 -45 30 -23 2 -40 -2 -49 -12 -10 -13 -42 -16
-193 -16 -125 0 -178 3 -171 10 6 6 34 14 62 19 71 11 82 23 82 87 0 47 -3 54
-19 54 -11 0 -27 -10 -35 -21z"/>
<path d="M1424 695 c-39 -41 -61 -55 -95 -63 -24 -5 -34 -10 -21 -11 40 -2 86
25 134 78 62 68 47 65 -18 -4z"/>
<path d="M1631 664 c-12 -15 -21 -31 -21 -36 0 -5 -24 -34 -52 -65 -54 -56
-101 -86 -173 -109 -22 -7 -31 -13 -20 -13 36 -2 143 57 189 102 25 25 54 63
65 86 12 22 29 45 38 50 10 6 13 11 6 11 -6 0 -21 -12 -32 -26z"/>
<path d="M1065 2226 c-246 -79 -431 -276 -491 -521 -30 -121 -18 -363 19 -387
6 -3 18 -27 28 -53 21 -55 80 -155 91 -155 4 0 15 15 24 33 9 17 28 46 41 63
l23 31 -29 64 c-33 73 -46 119 -32 119 5 0 12 -15 15 -32 3 -18 17 -57 31 -86
l25 -53 54 46 54 47 -18 42 c-22 51 -34 116 -22 116 5 0 12 -18 16 -41 4 -23
13 -57 21 -76 l15 -34 62 35 c134 75 166 116 203 260 22 84 24 104 14 134
l-11 35 -31 -57 c-34 -64 -108 -136 -207 -202 l-65 -44 -3 46 c-4 59 20 135
61 196 27 40 35 46 57 41 30 -5 52 15 54 50 1 20 44 50 100 70 6 2 9 7 5 10
-3 4 -32 -6 -65 -21 -32 -16 -67 -26 -77 -24 -24 5 -47 -15 -47 -42 0 -11 -16
-43 -35 -70 -41 -58 -66 -130 -74 -211 l-6 -60 -60 -32 -60 -32 -6 27 c-20 83
3 220 53 322 61 125 210 248 342 281 25 6 46 15 46 20 0 13 -100 -20 -172 -58
-45 -23 -89 -58 -130 -102 -114 -121 -162 -244 -157 -408 l3 -93 -40 -27 c-21
-14 -49 -35 -60 -45 -26 -23 -29 -20 -44 60 -29 144 6 348 80 477 98 168 270
298 455 340 38 9 72 18 74 21 12 12 -63 0 -124 -20z m-25 -371 c16 -19 6 -45
-19 -45 -23 0 -35 28 -20 46 15 18 24 18 39 -1z"/>
<path d="M1371 2246 c2 -3 36 -12 74 -21 185 -42 357 -172 455 -340 74 -129
109 -333 80 -477 -15 -80 -18 -84 -44 -60 -11 11 -39 31 -62 45 l-40 25 4 89
c5 104 -12 184 -60 283 -40 84 -150 196 -233 237 -69 35 -165 66 -165 53 0 -5
15 -11 33 -15 131 -27 293 -158 356 -288 40 -83 64 -209 55 -289 -4 -32 -8
-58 -9 -58 -2 0 -29 15 -61 33 l-59 33 -7 64 c-17 171 -114 300 -273 360 -50
19 -23 -6 37 -34 122 -56 206 -178 216 -310 l5 -68 -24 12 c-43 23 -153 108
-196 152 -23 24 -53 65 -67 93 l-25 50 -10 -28 c-6 -16 -11 -34 -11 -42 0 -25
47 -191 63 -221 23 -43 73 -87 152 -133 82 -48 87 -45 107 51 7 32 16 58 20
58 12 0 -1 -67 -22 -117 l-18 -42 54 -46 54 -47 25 54 c14 29 28 68 31 86 3
17 10 32 15 32 13 0 1 -44 -32 -119 l-29 -63 42 -64 c23 -35 45 -64 48 -64 10
0 70 105 89 155 10 26 22 50 28 53 37 24 49 266 19 387 -60 247 -252 448 -500
524 -60 19 -127 28 -115 17z"/>
<path d="M1010 1965 c0 -20 5 -25 25 -25 20 0 25 5 25 25 0 20 -5 25 -25 25
-20 0 -25 -5 -25 -25z"/>
<path d="M1604 1865 c-7 -18 3 -35 21 -35 21 0 28 19 15 35 -16 19 -29 19 -36
0z"/>
<path d="M1852 1824 c-39 -27 -23 -84 24 -84 46 0 59 60 19 86 -18 12 -24 11
-43 -2z"/>
<path d="M640 1645 c0 -9 5 -15 11 -13 6 2 11 8 11 13 0 5 -5 11 -11 13 -6 2
-11 -4 -11 -13z"/>
<path d="M394 1145 c-9 -22 -17 -69 -18 -105 -1 -58 2 -70 32 -112 18 -26 57
-66 87 -90 36 -28 65 -62 85 -100 17 -31 35 -60 40 -63 14 -9 12 0 -9 37 -10
18 -24 70 -31 116 -15 113 -32 156 -85 218 -25 29 -54 72 -65 96 l-19 43 -17
-40z"/>
<path d="M2131 1148 c-6 -19 -32 -59 -57 -88 -67 -79 -84 -123 -99 -255 -4
-33 -16 -75 -26 -94 -11 -18 -18 -36 -15 -38 5 -5 15 11 57 84 13 23 51 64 84
90 41 33 69 66 88 105 28 55 29 58 17 126 -6 39 -17 78 -24 88 -12 16 -14 14
-25 -18z"/>
<path d="M510 698 c11 -18 36 -82 55 -143 33 -105 79 -192 121 -225 16 -14 17
-13 9 5 -28 65 -65 184 -65 210 0 38 -49 124 -90 159 -42 35 -54 33 -30 -6z"/>
<path d="M2007 689 c-52 -55 -72 -95 -87 -179 -6 -36 -23 -91 -36 -124 -13
-33 -22 -61 -20 -64 3 -2 25 24 50 58 34 46 54 88 77 163 17 56 40 120 50 141
10 22 17 42 14 44 -3 3 -24 -15 -48 -39z"/>
<path d="M640 543 c0 -22 43 -149 65 -193 25 -49 41 -65 98 -100 l39 -23 -33
59 c-18 33 -45 75 -61 96 -15 20 -46 67 -68 104 -22 38 -40 64 -40 57z"/>
<path d="M1880 488 c-19 -34 -51 -82 -70 -107 -20 -25 -48 -69 -63 -98 l-27
-52 38 21 c60 34 73 50 103 113 24 54 62 175 56 181 -1 2 -18 -25 -37 -58z"/>
<path d="M770 467 c0 -4 15 -38 34 -75 38 -75 104 -155 147 -177 30 -16 85
-20 92 -7 3 4 -45 52 -105 107 -61 55 -123 114 -139 130 -16 17 -29 27 -29 22z"/>
<path d="M1680 368 c-58 -54 -122 -112 -143 -128 l-39 -29 27 -7 c46 -11 100
12 148 65 39 44 124 188 115 196 -1 1 -50 -42 -108 -97z"/>
<path d="M1560 290 c-32 -25 -112 -50 -162 -50 -21 0 -38 -4 -38 -10 0 -5 -11
-10 -25 -10 -23 0 -24 -2 -13 -20 15 -23 35 -25 89 -8 40 11 49 22 27 32 -7 3
3 4 24 3 28 -1 46 7 82 37 25 20 46 39 46 42 0 7 -4 5 -30 -16z"/>
<path d="M990 285 c29 -35 74 -59 109 -57 20 0 30 -1 24 -4 -23 -10 -14 -21
26 -32 54 -17 74 -15 89 8 11 18 10 20 -13 20 -14 0 -25 4 -25 9 0 4 -28 11
-62 15 -37 3 -84 17 -112 31 -32 17 -44 20 -36 10z"/>
<path d="M1083 176 c-4 -7 -14 -15 -22 -17 -23 -8 38 -41 83 -46 33 -4 45 -1
60 16 11 12 17 23 14 26 -4 5 -112 35 -123 35 -2 0 -8 -6 -12 -14z"/>
<path d="M1396 174 c-26 -7 -51 -15 -54 -18 -12 -12 33 -46 60 -46 23 0 79 21
96 35 6 6 -33 45 -43 44 -5 -1 -32 -7 -59 -15z"/>
</g>
</svg>
