<?xml version="1.0" standalone="no"?>
<!DOCTYPE svg PUBLIC "-//W3C//DTD SVG 20010904//EN"
 "http://www.w3.org/TR/2001/REC-SVG-20010904/DTD/svg10.dtd">
<svg version="1.0" xmlns="http://www.w3.org/2000/svg"
 width="256.000000pt" height="256.000000pt" viewBox="0 0 256.000000 256.000000"
 preserveAspectRatio="xMidYMid meet">
<metadata>
Created by potrace 1.16, written by Peter Selinger 2001-2019
</metadata>
<g transform="translate(0.000000,256.000000) scale(0.100000,-0.100000)"
fill="#e5e5e5" stroke="none">
<path d="M1186 2469 c-10 -6 -91 -36 -180 -66 -269 -91 -432 -181 -567 -314
-72 -71 -74 -75 -60 -98 6 -10 32 11 102 81 300 301 713 409 1117 292 181 -53
381 -177 504 -315 34 -38 66 -69 70 -69 4 0 8 11 8 24 0 57 -225 234 -394 311
-42 19 -144 57 -227 85 -83 28 -163 57 -179 65 -34 18 -165 20 -194 4z"/>
<path d="M1200 2394 c-296 -31 -550 -155 -735 -357 -65 -71 -66 -73 -58 -112
4 -22 8 -76 8 -120 -1 -62 -6 -89 -22 -121 -19 -36 -20 -44 -9 -60 13 -17 17
-12 45 50 91 200 266 376 465 466 198 90 445 107 647 44 46 -14 96 -26 111
-25 15 0 33 -8 40 -17 7 -10 51 -43 99 -74 143 -95 292 -271 345 -408 22 -57
22 -57 38 -35 12 16 10 26 -10 69 -26 56 -33 162 -13 212 16 44 4 68 -79 152
-205 209 -454 320 -752 335 -47 3 -101 3 -120 1z m529 -138 c8 -10 8 -16 -2
-24 -17 -14 -42 2 -34 22 8 20 21 20 36 2z"/>
<path d="M1145 2199 c-86 -13 -188 -45 -270 -86 -305 -153 -514 -474 -492
-759 l5 -73 70 -69 c53 -53 80 -89 111 -154 23 -46 41 -90 41 -96 0 -7 18 -48
40 -92 45 -89 90 -130 200 -181 199 -93 236 -115 303 -178 76 -72 117 -141
117 -198 0 -28 3 -34 10 -23 5 8 10 26 10 39 0 66 93 181 202 252 32 20 98 54
147 75 49 20 120 58 157 83 76 51 109 102 164 252 35 96 86 174 152 234 71 64
84 137 52 293 -31 151 -123 311 -250 433 -103 98 -177 144 -233 144 -40 0 -46
3 -49 23 -4 26 -22 35 -132 63 -86 23 -265 32 -355 18z m124 -28 c10 24 10 24
10 2 1 -13 4 -22 9 -21 14 3 42 -14 36 -23 -3 -5 7 -10 23 -10 20 -1 22 -3 8
-6 -45 -10 -48 -12 -34 -29 11 -13 9 -14 -14 -10 -15 3 -27 1 -27 -3 0 -4 37
-12 83 -19 176 -23 305 -88 432 -216 139 -140 205 -302 205 -501 0 -286 -147
-523 -405 -651 -119 -58 -216 -78 -355 -71 -165 7 -283 53 -421 163 -283 225
-347 642 -145 953 25 39 41 73 36 76 -15 10 -12 42 7 60 10 11 27 15 46 12 24
-3 42 4 81 35 90 68 259 138 337 138 12 0 34 10 48 23 14 12 20 14 12 5 -11
-15 -10 -17 8 -15 12 1 21 4 21 8 0 14 -37 38 -65 42 l-30 4 32 2 c33 1 51 15
33 26 -5 3 -15 16 -21 28 -11 21 -11 21 14 -2 l27 -24 9 24z m81 16 c0 -2 -10
-12 -22 -23 l-23 -19 19 23 c18 21 26 27 26 19z m-482 -155 c4 -28 -24 -40
-45 -19 -14 13 -14 19 -3 32 18 22 44 15 48 -13z"/>
<path d="M1265 2121 c-6 -11 9 -23 19 -14 9 9 7 23 -3 23 -6 0 -12 -4 -16 -9z"/>
<path d="M1145 2033 c-110 -25 -227 -79 -302 -140 -33 -26 -43 -41 -43 -63 0
-31 -23 -50 -59 -50 -14 0 -33 -22 -65 -72 -126 -204 -141 -464 -37 -683 86
-182 260 -326 461 -381 100 -27 274 -25 370 5 304 94 501 338 517 641 18 316
-168 599 -468 712 -77 29 -94 32 -219 34 -74 1 -144 0 -155 -3z m315 -149
c174 -55 308 -189 372 -374 19 -54 23 -85 22 -180 0 -98 -4 -125 -26 -182
-105 -278 -364 -433 -645 -384 -128 22 -220 70 -313 165 -183 185 -222 445
-103 675 42 80 142 187 215 230 144 84 313 101 478 50z"/>
<path d="M1170 1844 c-301 -65 -482 -381 -385 -671 125 -370 587 -482 859
-209 296 297 148 795 -261 881 -83 18 -128 18 -213 -1z m229 -39 c138 -36 251
-128 315 -255 l36 -73 -22 -11 c-13 -6 -24 -22 -26 -34 -3 -21 -7 -22 -109
-22 l-106 0 -52 55 c-29 30 -59 55 -67 55 -7 0 -1 -8 14 -18 16 -10 44 -37 64
-60 l36 -42 109 0 109 0 0 -65 0 -65 -77 -2 -78 -2 77 -3 c70 -4 77 -6 80 -26
2 -17 -4 -24 -27 -32 -19 -6 -42 -28 -62 -59 -64 -98 -124 -146 -221 -177 -32
-10 -49 -18 -40 -18 72 -3 212 96 264 186 30 51 49 63 98 63 l36 0 -17 -42
c-73 -187 -251 -308 -452 -308 -366 0 -600 382 -432 705 104 201 337 307 550
250z"/>
<path d="M1005 1722 c-187 -136 -252 -375 -159 -581 34 -76 87 -144 145 -187
l50 -37 142 14 142 14 -74 7 c-127 13 -238 83 -299 187 -15 25 -35 53 -46 62
-21 17 -16 49 7 49 23 0 41 -28 29 -43 -8 -10 -4 -26 18 -64 54 -95 168 -170
266 -175 l49 -3 3 83 c3 81 3 82 30 83 15 1 -3 5 -40 9 -74 7 -124 37 -158 93
-44 72 -33 172 27 234 18 20 33 39 33 43 0 16 30 32 43 24 6 -5 35 -7 62 -3
28 3 40 7 28 7 -22 2 -23 6 -23 75 0 95 -4 100 -68 87 -115 -21 -222 -104
-270 -208 -18 -40 -28 -83 -33 -147 l-7 -90 2 91 c2 80 6 100 34 157 51 104
164 191 265 205 20 2 37 8 37 13 0 9 -34 15 -130 24 -61 6 -68 4 -105 -23z
m85 -32 c0 -5 -4 -10 -10 -10 -5 0 -10 5 -10 10 0 6 5 10 10 10 6 0 10 -4 10
-10z m150 -130 c0 -5 -4 -10 -10 -10 -5 0 -10 5 -10 10 0 6 5 10 10 10 6 0 10
-4 10 -10z m-192 -186 c26 -18 28 -50 5 -76 -32 -35 -93 -10 -93 38 0 22 33
54 55 54 6 0 21 -7 33 -16z m-33 -404 c3 -5 1 -10 -4 -10 -6 0 -11 5 -11 10 0
6 2 10 4 10 3 0 8 -4 11 -10z"/>
<path d="M986 1364 c-30 -30 -13 -74 29 -74 44 0 63 60 26 80 -27 14 -37 13
-55 -6z"/>
<path d="M1311 1716 c2 -2 24 -6 49 -9 30 -4 38 -3 25 3 -19 8 -83 14 -74 6z"/>
<path d="M1460 1670 c61 -33 131 -103 160 -160 19 -38 38 -51 68 -49 10 1 6 4
-8 8 -14 4 -38 27 -57 55 -17 27 -46 64 -65 83 -32 34 -123 93 -143 93 -5 0
15 -14 45 -30z"/>
<path d="M1222 1499 c-9 -14 -20 -19 -33 -16 -24 6 -72 -47 -89 -98 -34 -102
54 -235 155 -235 24 0 25 3 25 55 0 61 -7 68 -75 80 -60 10 -75 15 -75 26 0 5
73 9 174 9 158 0 176 -2 199 -20 32 -25 59 -25 82 0 23 25 13 67 -21 82 -20
10 -29 8 -54 -10 -27 -21 -40 -22 -205 -22 -110 0 -175 4 -175 10 0 6 1 10 3
10 23 0 125 24 135 32 7 6 12 33 12 64 0 49 -2 54 -23 54 -12 0 -28 -9 -35
-21z"/>
<path d="M1437 1216 c-29 -29 -62 -56 -75 -61 -13 -4 -21 -9 -19 -12 10 -10
66 28 99 68 22 26 47 44 69 49 32 8 33 8 6 9 -22 1 -41 -11 -80 -53z"/>
<path d="M835 2040 c-4 -6 -3 -16 3 -22 6 -6 12 -6 17 2 4 6 3 16 -3 22 -6 6
-12 6 -17 -2z"/>
<path d="M443 1166 c3 -8 11 -33 17 -56 8 -30 29 -59 71 -101 32 -32 59 -56
59 -54 0 19 -59 129 -92 172 -38 50 -67 70 -55 39z"/>
<path d="M2061 1128 c-39 -54 -73 -114 -86 -156 -5 -16 11 -5 54 37 34 33 61
64 61 68 0 4 7 29 15 56 8 26 10 47 5 47 -5 0 -27 -24 -49 -52z"/>
<path d="M366 1045 c-9 -57 9 -139 48 -215 20 -38 37 -88 41 -122 4 -31 13
-65 21 -75 12 -16 12 -13 3 17 -6 21 -8 79 -4 145 7 122 3 143 -47 209 -18 24
-38 52 -44 62 -10 17 -12 14 -18 -21z"/>
<path d="M2170 1068 c0 -6 -19 -36 -42 -66 l-43 -55 0 -141 c-1 -78 -4 -152
-9 -166 -6 -19 -5 -22 4 -14 6 7 15 41 20 77 5 46 19 84 46 133 34 61 38 77
42 156 3 61 1 88 -7 88 -6 0 -11 -5 -11 -12z"/>
<path d="M495 808 c-8 -91 8 -191 40 -239 22 -35 137 -129 156 -129 6 0 -1 15
-15 33 -14 18 -35 55 -47 83 -12 27 -31 61 -41 75 -15 19 -21 47 -24 110 -2
61 -8 90 -22 108 -32 43 -40 36 -47 -41z"/>
<path d="M2014 855 c-11 -16 -19 -57 -23 -113 -4 -63 -12 -96 -26 -117 -11
-17 -30 -52 -42 -78 -13 -27 -32 -62 -44 -78 -29 -41 -10 -36 57 17 107 82
129 138 122 308 -3 87 -16 104 -44 61z"/>
<path d="M1931 797 c-9 -28 -10 -42 -2 -50 14 -14 23 11 19 55 l-3 33 -14 -38z"/>
<path d="M606 811 c-9 -15 3 -71 15 -71 11 0 12 50 0 69 -6 9 -10 10 -15 2z"/>
<path d="M580 713 c0 -26 5 -55 10 -63 7 -11 9 2 8 43 -3 71 -18 88 -18 20z"/>
<path d="M1968 750 c-10 -24 -16 -120 -7 -114 5 2 11 20 14 38 8 39 2 98 -7
76z"/>
<path d="M613 676 c1 -38 7 -52 25 -64 23 -15 23 -15 16 14 -4 16 -15 45 -25
64 l-19 35 3 -49z"/>
<path d="M1937 713 c-4 -7 -16 -37 -27 -68 l-19 -55 24 16 c24 16 40 64 33
101 -2 13 -6 14 -11 6z"/>
<path d="M931 587 c65 -65 136 -108 204 -122 29 -6 29 -5 -17 37 -43 39 -183
126 -233 145 -11 4 10 -23 46 -60z"/>
<path d="M1602 610 c-92 -50 -150 -90 -182 -125 l-25 -28 30 7 c70 17 138 57
200 121 35 36 61 65 57 65 -4 0 -40 -18 -80 -40z"/>
<path d="M640 554 c19 -52 78 -123 117 -139 20 -8 38 -13 40 -11 3 2 -5 7 -16
11 -12 3 -39 32 -60 63 -21 31 -51 68 -65 81 l-26 25 10 -30z"/>
<path d="M1856 505 c-31 -41 -66 -81 -79 -90 -27 -19 -19 -19 26 0 35 14 75
62 111 133 29 56 0 35 -58 -43z"/>
<path d="M1027 478 c10 -12 51 -36 91 -54 49 -23 76 -42 84 -59 14 -31 32 -33
23 -2 -16 51 -46 87 -73 87 -15 0 -53 11 -85 24 -56 23 -58 24 -40 4z"/>
<path d="M1490 474 c-30 -13 -67 -24 -82 -24 -21 0 -33 -9 -53 -43 -14 -24
-25 -49 -25 -55 0 -21 16 -13 28 13 7 16 36 36 85 59 40 19 81 44 92 56 10 11
16 19 14 19 -2 -1 -29 -12 -59 -25z"/>
<path d="M659 401 c50 -69 118 -103 170 -83 23 8 22 10 -25 37 -40 24 -150 75
-162 75 -2 0 6 -13 17 -29z"/>
<path d="M1856 408 c-28 -10 -72 -33 -99 -51 -46 -30 -47 -32 -25 -40 49 -18
112 12 162 78 31 40 29 40 -38 13z"/>
<path d="M790 375 c0 -12 81 -44 96 -38 11 4 15 3 10 -5 -4 -7 10 -13 41 -18
27 -5 52 -7 56 -6 5 1 38 -8 75 -21 74 -27 156 -44 133 -28 -11 7 -6 10 20 14
l34 4 -36 1 c-40 2 -158 36 -200 58 -14 7 -50 14 -80 15 -30 1 -74 8 -99 15
-52 16 -50 15 -50 9z"/>
<path d="M1730 369 c-14 -6 -56 -13 -95 -15 -44 -3 -92 -15 -129 -31 -32 -14
-91 -31 -130 -38 -50 -9 -60 -14 -36 -14 27 -1 32 -4 20 -12 -25 -17 59 1 125
27 33 13 69 23 80 22 39 -3 96 13 89 24 -5 7 1 9 17 5 17 -4 38 2 64 18 41 25
39 31 -5 14z"/>
<path d="M874 309 c-3 -6 -16 -14 -27 -18 -20 -8 -20 -9 10 -25 42 -21 86 -20
106 2 23 25 21 32 -7 32 -14 0 -36 4 -50 10 -17 6 -27 6 -32 -1z"/>
<path d="M1655 309 c-11 -4 -32 -8 -47 -8 -33 -1 -35 -11 -10 -34 24 -22 74
-22 101 1 l20 17 -22 16 c-14 11 -29 13 -42 8z"/>
<path d="M1016 252 c-7 -12 49 -42 107 -58 44 -11 54 -11 81 3 l31 16 -65 13
c-36 8 -78 18 -94 24 -35 12 -53 13 -60 2z"/>
<path d="M1435 239 c-38 -10 -81 -19 -95 -19 -24 0 -24 -1 8 -20 33 -20 36
-20 90 -5 66 19 105 42 97 55 -8 13 -16 12 -100 -11z"/>
<path d="M972 221 c-10 -6 -2 -17 28 -44 31 -29 48 -37 78 -37 37 1 78 21 65
33 -3 4 -14 7 -23 7 -9 0 -39 11 -66 25 -53 27 -62 29 -82 16z"/>
<path d="M1525 214 c-11 -8 -44 -22 -74 -31 -53 -15 -54 -16 -30 -29 45 -25
91 -17 138 22 32 28 39 39 29 45 -19 13 -40 10 -63 -7z"/>
</g>
</svg>
