<svg xmlns="http://www.w3.org/2000/svg" width="341.333" height="341.333" version="1.0" viewBox="0 0 256 256">
    <g fill="#e5e5e5">
        <path d="M110 30.4c0 .2.7.7 1.6 1 .8.3 1.2.2.9-.4-.6-1-2.5-1.4-2.5-.6m34.8 10.7c.3 10.4.2 11.1-1.5 10.5s-1.7-.5 0 .8 1.8 3.7 1.5 34.5c-.2 18.2 0 33.1.5 33.1.4 0 .7-20.3.7-45 0-24.8-.3-45-.7-45-.5 0-.7 5-.5 11.1m-20.1-1.3c1.2 1.1 1.9 2.3 1.5 2.7-.4.5-.1.5.5.1.7-.4 2.9.5 5 2l3.8 2.6-3.3-2.8c-2.7-2.4-3.1-3.2-2-4.4s1.1-1.2-.4-.1-2.2 1.1-4.5-.3l-2.8-1.7zm-8.9 9c-3.1 2-5.7 4.1-5.8 4.5 0 .4 2.7-1.1 6-3.3s6-4.3 6-4.5c0-.7.2-.8-6.2 3.3M83.7 87.2c-.4 18.2-.7 39.1-.7 46.3v13.2l-5 .7-5 .7v7.6l15.2 9.7c13.8 8.8 15.3 9.6 16.5 8 .7-.9 1-2 .8-2.4s-6.8-4.5-14.5-9.1-14-8.9-14-9.5c0-.7 2.1-1.5 4.6-1.9l4.7-.7-.7-47.6c-.3-26.1-.8-47.7-1-47.9-.1-.2-.6 14.6-.9 32.9M171.2 54c-.1.3-.5 22-.8 48.2l-.7 47.6 4.7.7c2.5.4 4.6 1.2 4.6 1.9 0 .6-6.3 4.9-14 9.5s-14.3 8.7-14.5 9.1.1 1.5.8 2.4c1.2 1.6 2.7.8 16.5-8l15.2-9.7v-7.6l-5-.7-5-.7-.1-21.1c-.2-21.7-1.4-72.5-1.7-71.6M114 80c0 18.8 0 19.1-2 18-1.2-.6-2-.7-2-.1 0 .5 1.3 1.2 3 1.6 1.6.4 3.2 1.1 3.5 1.6.4.5-.1.6-.9.3-1.2-.5-1.6.1-1.6 2.1 0 2.2-.3 2.5-2 2-1.8-.6-2-.2-2 3.8 0 3.2.5 4.7 1.6 5.1 2.3.9 2.3.9 2.6-3.4l.3-4 7.3 5.1c6.3 4.4 7.1 5.3 6 6.7-.7.9.4.3 2.5-1.3 2-1.7 3.5-3.5 3.3-4.2-.7-1.7 2.4-.4 4.9 2 2 1.9 2 1.9-.4.7-1.9-1-2.8-.9-4.7.1-3 1.6-3 2.2.2 4l2.6 1.3-2.9 2.3-2.8 2.3 2.4 1.9c1.4 1 3.7 2.6 5.3 3.5l2.8 1.7v-3c0-1.8.5-3.1 1.2-3.1s-.2-1-1.9-2.3c-3.8-2.6-4-3.3-1.3-4.7 1.9-1 2-2.1 2-30 0-16-.2-29-.5-29-.2 0-3.2 1.8-6.6 3.9l-6.2 3.9-6.4-3.9c-3.5-2.1-6.6-3.9-6.8-3.9-.3 0-.5 8.6-.5 19"/>
        <path d="M114 117.1c0 1.8 6.7 6.2 8.1 5.3 1-.6.5-1.1-5.3-4.9-2.2-1.3-2.8-1.4-2.8-.4m9.7 4.6c-1.6 1.6-1.5 1.8 1 3.9l2.7 2.1-5.7 3.8c-3.1 2.1-5.7 3.9-5.7 4.1s2.5 2 5.5 4 5.5 3.8 5.5 4c0 .4-11.8 8.4-12.4 8.4-.3 0-.6-3.4-.8-7.5l-.3-7.4-4.2 2.7-4.3 2.7v15.6l4.5-2.7c2.5-1.4 4.5-2.1 4.5-1.5 0 2 2.1 1.2 9-3.6 4.4-3.1 6.6-5.1 6-5.8s1.1-2.3 4.6-4.5c2.9-1.9 5.4-3.8 5.4-4.2s-2.5-2.4-5.5-4.4-5.2-4.1-4.9-4.6c.4-.5-.4-1.6-1.6-2.5-1.2-.8-1.9-2.1-1.6-2.9.7-1.8.4-1.8-1.7.3"/>
        <path d="M105 126.8c0 1.3 1.4 3.1 3.7 4.7 4.7 3.1 5.3 3.1 5.3 0 0-2.3-.2-2.4-2-1.5-1.2.6-2 .7-2 .1 0-.5 1.3-1.2 3-1.6 4.3-.9 4.4-2 .2-2.1-2.1-.1-4.7-.4-5.9-.9-1.9-.6-2.3-.4-2.3 1.3m40.8-1.1c-1.5.4-1.5.8-.5 2.6.7 1.2 1.3 2.3 1.4 2.5.5 1.1 4.3-2.2 4.3-3.8 0-2-1.4-2.3-5.2-1.3m-2.6 8.5c.6 1.8 2.8 2.1 2.8.4 0-.9-.7-1.6-1.6-1.6s-1.4.5-1.2 1.2m-2.4 3.6c-.1.5-2.4 2.3-5 4.1-2.7 1.7-4.8 3.3-4.8 3.5s1.9 1.6 4.1 3.1l4.1 2.7-12.6 8.4L114 168v17.8l6.3 4.1c3.5 2.2 6.6 4.1 7 4.1s.7-2 .7-4.4c0-4.3.1-4.5 6.5-8.6l6.5-4.2v-11.9c0-6.6.2-11.9.5-11.9s2.3 1.1 4.5 2.5 4.2 2.5 4.5 2.5.5-3.4.5-7.5v-7.4l-4.4-3.1c-4.8-3.2-5.3-3.4-5.8-2.2m-90.1 29.8c-6.5 4.2-11.6 7.9-11.3 8.1.2.2 6.1-2.5 13-6.2 9-4.7 12.3-7 11.9-8.1-.3-.8-.8-1.4-1.2-1.4-.3 0-5.9 3.5-12.4 7.6m141.7-6.5c-.4.7.1 1.8 1.2 2.6 2.8 2.1 23.5 12.5 24 12 .3-.3-21.4-14.5-23.7-15.5-.4-.2-1.1.2-1.5.9M70 191.8c-3.6 4.7-6.9 9.2-7.4 10.1-1.3 2.3 5.7-4.4 11.5-11 3.7-4.3 4.6-5.9 3.6-6.7-.9-.7-2.9 1.3-7.7 7.6m108.4-7.3c-.6 1.4 14.1 18.5 15.9 18.5.4 0-2.7-4.5-6.9-10s-7.9-10-8.1-10-.6.7-.9 1.5m-83 26.9c-1.4 4.8-2.4 8.9-2.2 9.2.3.3 2-3.2 3.8-7.6 2.3-5.8 3-8.4 2.2-9.2-.7-.7-1.8 1.5-3.8 7.6m61.2-7.6c-.6 1.1 4.9 15 6.6 16.7.8.7.9.5.6-.5-.3-.8-1.5-4.7-2.8-8.5-2.4-7.5-3.4-9.3-4.4-7.7m-29.5 13.9c.1 9.3 1.7 11.1 1.8 2 .1-4.5-.3-7.7-.9-7.7s-1 2.5-.9 5.7"/>
    </g>
</svg>
