<svg xmlns="http://www.w3.org/2000/svg" width="341.333" height="341.333" version="1.0" viewBox="0 0 256 256">
    <path fill="#e5e5e5" d="M91.5 44.4c-17 11-22.1 14.8-22.3 16.5-.4 2.5-.6 2.5 6.6.5 2-.6 2.2-.3 2.2 3.1 0 2.6.4 3.6 1.4 3.3.7-.2 8.8-5.3 18-11.3l16.6-11v-7.8c0-4.2-.1-7.7-.2-7.6-.2 0-10.2 6.4-22.3 14.3m48.5-9.5c0 3.7-.4 4.2-6.2 8.3l-6.3 4.4-.3 5.7c-.3 5.5.7 7.2 2.5 4.4.5-.7 1 1.8 1.3 6l.5 7.3 10.8-7.2 10.7-7.1V38.3l-5.5-3.7c-3-2-5.9-3.6-6.5-3.6-.5 0-1 1.8-1 3.9m-39 28.6v6.6l4.4-2.6c3.9-2.3 4.7-2.4 6.5-1.3 2.1 1.3 2.1 1.9 2.1 37.3v36l-6.5 4.3c-6.2 4-6.5 4.4-6.5 8.3 0 2.9.4 4 1.3 3.6.6-.2 5.6-3.5 11-7.1l9.7-6.7v-41c0-22.5-.3-40.9-.6-40.9s-1.8.8-3.2 1.8c-1.5 1-3.2 2.1-3.8 2.5-.6.3-3.7-1.2-7-3.4-3.2-2.1-6.2-3.9-6.6-3.9-.5 0-.8 2.9-.8 6.5m63.5.5c-5.5 3.8-10.4 6.9-10.8 7-.4 0-.6-1.5-.5-3.3.2-1.7 0-3.4-.4-3.7s-5.4 2.6-11.2 6.5l-10.5 7-.1 41.3c0 32.8.3 41.2 1.3 40.6l3.9-2.6c3.6-2.5 4.1-2.4 10.9 2.2l5.9 4.1v-6.6c0-3.7-.3-6.5-.7-6.3-.5.2-2.5 1.2-4.5 2.2-6.9 3.6-6.8 4.2-6.8-36.8l.1-36.1 5.4-3.8c2.9-2 5.8-3.7 6.3-3.7.6 0 .7 15.1.4 38-.3 25.9-.1 38 .6 38 .5 0 5.8-3.1 11.6-7l10.6-7V95.5c0-21.2-.3-38.5-.7-38.5-.5 0-5.3 3.2-10.8 7M88.8 78.3 78 85.5v38.8c0 21.4.3 38.7.8 38.5.4-.2 5.5-3.6 11.5-7.6L101 148v-38.5c0-21.2-.3-38.5-.7-38.4-.5 0-5.6 3.3-11.5 7.2m22.5 77.8L101 163v17.8l6.3 4 6.2 3.9.3-3.9c.3-3.5.9-4.3 7.3-8.9l6.9-5.1v-5.4c0-5-1-6.8-2.5-4.4-1.6 2.5-2.5.5-2.5-5.5 0-3.6-.3-6.5-.7-6.4-.5 0-5.4 3.2-11 7m46.5 6.2-16.7 11.2-.1 7.7v7.8l4.8-3c26.5-16.6 39.7-25.9 40-28 .3-2 .1-2.2-2-1.6-7.7 2.2-7.8 2.1-7.8-1.8 0-2-.3-3.6-.7-3.5-.5 0-8.3 5.1-17.5 11.2m-106.1 6.3c-6.5 4.2-11.6 7.8-11.4 8 .2.3 6.1-2.5 13-6.1 9.1-4.8 12.4-7 12-8.1-.3-.7-.8-1.4-1.2-1.4-.3 0-5.9 3.5-12.4 7.6m140-6.2c-.4 1.1 2.9 3.3 12 8.1 6.9 3.6 12.8 6.4 13 6.1.4-.4-22.9-15.6-23.9-15.6-.3 0-.8.7-1.1 1.4M70.1 193.6c-4 5.2-7.1 9.7-6.9 9.9.6.6 15.8-16.1 15.8-17.4 0-3-2.4-1-8.9 7.5m108.4-8.4c-.5 1.3 1.4 4.1 7.1 10.2 4.3 4.7 8 8.4 8.2 8.1.2-.2-2.5-4.1-6-8.6-3.4-4.6-6.8-9-7.5-9.9-1-1.3-1.2-1.3-1.8.2m-82.6 27.3c-1.5 4.7-2.3 8.5-2 8.5.6 0 5.8-12.1 6.3-14.9.2-.7-.2-1.5-.7-1.7-.6-.2-2.2 3.4-3.6 8.1m60.8-7.8c-.6.9 5.5 16.3 6.4 16.3.3 0-.5-3.8-2-8.5-2.4-8-3.3-9.6-4.4-7.8m-29.2 8.4c-.2.8-.1 4.3.3 7.9l.8 6.5.7-7c.4-4 .3-7.3-.3-7.9s-1.1-.4-1.5.5"/>
</svg>
