<svg xmlns="http://www.w3.org/2000/svg" width="341.333" height="341.333" version="1.0" viewBox="0 0 256 256">
    <path fill="#e5e5e5" d="M83.1 40.7c0 .8 43.8 31.4 45.7 32.1 1.2.4 48.2-30.8 48.2-32 0-.4-6.4-.8-14.3-.8h-14.4l-7.9 5.9-7.9 6-1.6 7.8-1.5 7.8-1.4-7.2c-.7-3.9-1.6-7.6-1.9-8.1s-4.1-3.5-8.5-6.6l-7.8-5.6H96.4c-7.4 0-13.4.3-13.3.7M67.6 94.8c-.4 29.1-.4 53.6 0 54.5.3.9 1 1.7 1.5 1.7 1.1 0 1.2-106 0-107.8-.4-.7-1.1 22.5-1.5 51.6m113.2-44.5-7.8 5.2v42.7l2.8-1.8c1.5-1 5.5-3.5 9-5.7l6.2-3.9V65.9c0-16.1-.3-20.9-1.2-20.8-.7 0-4.8 2.4-9 5.2M74.6 47.9c-.4.5-.4 7.2-.2 14.8s.5 31.7.5 53.5c.1 34.7.3 39.8 1.6 39.8s1.5-6.6 1.5-53.4c0-44.7-.2-53.5-1.4-54.5-.9-.8-1.6-.8-2-.2m7.3 4.7c-.1.5 0 25 .1 54.4.2 52.7.3 54.9 3.3 55 .4 0 .7-24 .7-53.3 0-52.1 0-53.4-2-55.2-1.1-1-2-1.4-2.1-.9m7 5c0 .5 0 24.7.1 53.9.1 46.6.4 53.2 1.7 54.7.9 1 2 1.8 2.5 1.8.4 0 .8-24 .8-53.3V61.3L91.5 59c-1.4-1.3-2.5-1.9-2.6-1.4m71.4 6.5-6.3 4.2v20.9c0 16.5.3 20.8 1.3 20.2.6-.4 3.6-2.3 6.5-4.1l5.2-3.4V81c0-11.6-.1-21-.2-21-.2 0-3.1 1.9-6.5 4.1M96 62.7c-.1.4 0 24.6 0 53.8.1 47.3.2 53.1 1.7 54.7 4.2 4.7 4.3 4 4.6-40.5l.2-42.2.3 43.2.2 43.2 2.9 2c1.6 1.2 3.2 2.1 3.5 2.1s.6-24 .6-53.4V72.1l-2.9-2c-1.6-1.2-3.4-2.1-4-2.1s-1.1-.4-1.1-.8c0-1.1-6-5.5-6-4.5m19 42.3c0 15.9.4 29 .9 29 .4 0 6.6-3.7 13.7-8.3l12.9-8.3.3-20.7c.1-11.4 0-20.7-.3-20.7-.4 0-3.3 1.8-6.5 4s-6.4 4-7 4-3.8-1.8-7-4-6.1-4-6.4-4c-.4 0-.6 13-.6 29m66.3-9.7-8.3 5.2v34.7l2.8-1.7c1.5-1 5.5-3.8 9-6.2l6.2-4.4v-16.5c0-9-.3-16.4-.7-16.4-.5 0-4.5 2.4-9 5.3m-21.5 13.8-5.8 4v41.1l2.8-1.8c1.5-.9 4.4-2.8 6.5-4.2l3.7-2.5v-20.3c0-11.2-.3-20.4-.7-20.3-.5 0-3.4 1.8-6.5 4m-31.3 20.2-13 8.4-.3 20.6c-.1 11.4.1 20.7.5 20.7s6.7-3.9 14-8.8l13.3-8.7v-20.3c0-11.1-.3-20.2-.7-20.2-.5 0-6.6 3.7-13.8 8.3m34.3 26-8.8 6.2v7.7c0 4.3.2 7.8.5 7.8.2 0 6.7-4.1 14.5-9.1 10.4-6.8 14-9.6 14-11.1 0-2.1-1-2.1-7.7-.2-2.1.6-2.3.3-2.3-3.5 0-2.2-.3-4.1-.7-4-.5 0-4.7 2.8-9.5 6.2M49.2 165.8c-6.7 4.2-12.2 8.1-12.2 8.5 0 .5 5.8-2.2 13-6 11.8-6.2 14.5-8.3 12.2-9.7-.4-.2-6.2 3-13 7.2m145.2-6.4c-.4.9-.5 1.8-.3 2 1.7 1.5 25.9 13.6 25.9 12.9 0-.4-4.2-3.4-9.3-6.6-5-3.1-10.7-6.7-12.4-7.8-3-1.9-3.4-1.9-3.9-.5m-60.2 14.1L126 179v4.9c0 4.5.3 5.2 3.9 8l3.9 3.1.5-2.8c.4-1.6 2.2-3.8 4.7-5.5l4-2.8v-8c0-4.3-.1-7.9-.3-7.9-.1 0-3.9 2.5-8.5 5.5m-65.7 17.7c-11.5 15-10.6 15.3 2.6.7 5.4-6 6.6-7.9 5.6-8.7s-2.9 1-8.2 8m111.7-8c-.8 1.1 1 3.5 7.9 10.8 5 5.2 8.7 8.8 8.3 8-.6-1.2-11.7-16.1-14.4-19.3-.4-.4-1.2-.2-1.8.5m-85.6 28.4c-1.5 4.7-2.5 8.8-2.2 9.1s1-.5 1.5-1.8 2-5.2 3.5-8.6c3-7.2 3-7.3 1.3-7.3-.7 0-2.5 3.7-4.1 8.6m62.4-8.1c0 .3 1.2 3.4 2.6 6.8 1.5 3.4 3 7.3 3.5 8.6s1.2 2.1 1.5 1.8c1-1-5-17.7-6.3-17.7-.7 0-1.3.2-1.3.5m-29.4 15.7c.7 7.7 1.4 10.2 1.4 5.1 0-1.7.3-5.1.6-7.7.6-3.9.4-4.6-1-4.6-1.5 0-1.6.8-1 7.2"/>
</svg>
