<svg xmlns="http://www.w3.org/2000/svg" width="341.333" height="341.333" version="1.0" viewBox="0 0 256 256">
    <path fill="#e5e5e5" d="M95.6 41.2C81.1 68.1 64 100.1 62.2 103.6l-2.1 4.1 19.5 12.8c10.7 7 19.6 12.6 19.8 12.4.4-.5 1.3-99.9 1-99.9-.2 0-2.3 3.7-4.8 8.2m57.8 8.2c.4 9.3.6 34.2.6 55.3V143l19-12.7c10.5-6.9 19-13.2 19-13.8 0-1.3-34.4-75.8-37.4-81-1.6-2.9-1.7-2.4-1.2 13.9M113 92.5c0 45.7.2 52.6 1.5 52.2.8-.3 7.5-4.7 15-9.7l13.5-9V83c0-23.7-.2-43-.5-43s-3.4 1.8-6.9 4c-6.9 4.4-8.2 4.7-11.1 2.7-1.1-.8-4.1-2.6-6.7-4.1l-4.8-2.8zm-52 28.4c0 2.6 1.6 3.9 18.5 15 10.2 6.7 18.8 12.1 19.1 12.1s.4-1.2.2-2.8c-.3-2.3-3-4.6-18.3-14.9-9.9-6.7-18.3-12.2-18.7-12.2-.5-.1-.8 1.2-.8 2.8m113 14.2c-15.2 10.4-20.4 14.9-17.4 14.9.5 0 8.8-5.3 18.6-11.8 11.7-7.7 17.8-12.3 17.8-13.5 0-.9-.3-1.7-.7-1.6-.5 0-8.7 5.4-18.3 12m-110-1.4c0 2.1 1.2 4.1 4.5 7.3 3.7 3.6 4.5 5.1 4.5 8.1 0 3.4.4 3.9 7.8 8.6 4.2 2.7 10.3 6.6 13.5 8.7l5.7 3.7v-8.3l-.1-8.3-17-11c-9.3-6.1-17.4-11.2-17.9-11.3-.6-.2-1 .9-1 2.5m109.8 9.9L156 155.2v7.5c0 5.7.3 7.2 1.3 6.7.6-.5 7-4.6 14.1-9.2 12.8-8.3 12.8-8.3 12.3-11.6-.5-3 0-3.9 4.4-8.2 4.3-4.2 6.4-8.4 4.2-8.4-.5 0-8.8 5.3-18.5 11.6m-46.7 6.1-14.2 9.7.3 10 .3 10 7 4.7 7 4.6.3-4.9c.3-4.8.4-4.9 7.8-10l7.4-5.2v-14.3c0-7.9-.4-14.3-.8-14.3-.5 0-7.2 4.4-15.1 9.7m-85.3 7.6c-7 4.5-12.8 8.6-12.8 9 0 .5 6.3-2.4 14-6.5 9.9-5.1 14-7.8 14-9.1 0-.9-.6-1.7-1.2-1.6-.7 0-7 3.7-14 8.2m157.8-6.7c-.4.9-.5 1.8-.4 1.9.2.1 6.6 3.4 14.2 7.4 20.8 10.7 19.4 9-5.5-6.7-3.6-2.3-6.9-4.2-7.2-4.2-.2 0-.8.7-1.1 1.6M65 182.2c-3 4-6.8 9-8.4 11.2-1.7 2.1-2.5 3.7-1.9 3.5 1.9-.7 18.4-19.2 18-20.3-.8-2.4-2.6-1.1-7.7 5.6m119.2-6c-.8.8 1.1 3.5 8 11 5 5.4 9.3 9.6 9.5 9.4.4-.4-15.4-21.6-16.1-21.6-.1 0-.7.5-1.4 1.2m-89.5 21.5c-1.3 2.3-5.8 17.5-5.5 18.5.3.7 2.1-3 4.2-8.1 2.3-5.9 3.4-9.7 2.8-10.3s-1.2-.6-1.5-.1m65.6-.1c-.9.4-.7 1.7.6 5.2 3.8 9.5 6.2 14.5 6.6 14 .4-.4-5.3-19.9-5.8-19.7-.1 0-.7.3-1.4.5M127 214.2c0 4 .5 8 1 8.8.7 1.1 1-.4 1-5 0-3.6.3-7.5.6-8.8.5-1.6.2-2.2-1-2.2-1.3 0-1.6 1.2-1.6 7.2"/>
</svg>
