<svg xmlns="http://www.w3.org/2000/svg" width="341.333" height="341.333" version="1.0" viewBox="0 0 256 256">
    <path fill="#e5e5e5" d="M85.1 44.6C71.5 54 67 57.6 67 59.2c0 1.4.5 1.8 1.6 1.4.9-.3 2.7-.9 4-1.2 2.1-.6 2.4-.3 2.4 2.5 0 1.7.2 3.1.5 3.1.2 0 8.2-5.5 17.7-12.3 10.8-7.7 17.4-13.1 17.6-14.3.2-1.3-.9-2.6-3.6-4.1l-3.9-2.2zm64.4-10.3c-2.2 1.3-4.1 3-4.3 3.8-.2 1.1 5.1 5.4 16.3 13.3 9.1 6.4 17.2 11.9 18 12.2 1.1.5 1.5-.2 1.5-2.6 0-2.9.2-3.2 2.4-2.6 1.3.3 3.1.9 4 1.2 1.1.4 1.6 0 1.6-1.4 0-1.5-4.3-5-16.7-13.5-9.3-6.2-17.3-11.6-17.8-12-.6-.3-2.9.4-5 1.6M148 49.2c0 3.3.6 3.9 16.3 15 8.9 6.3 16.8 11.8 17.5 12.2.9.5 1.2-.3 1.2-3.1-.1-3.8-.2-3.9-14.7-13.8-8.1-5.5-15.9-10.8-17.5-11.8l-2.8-1.9zM86 62.4 68.5 74.7l-.3 16.1c-.2 10.9.1 16.2.8 16.2.6 0 7.8-4.7 16.1-10.5S100.3 86 100.6 86c.2 0 .4 7 .4 15.5 0 15.3 0 15.5 2 14.5 1.9-1 2-2.1 2-33.5 0-17.9-.3-32.5-.7-32.5-.5.1-8.7 5.6-18.3 12.4m40-6.2c-.1 4.2-.3 4.4-6.8 8.8l-6.7 4.5-.3 13.3c-.1 7.2.1 13.2.6 13.2.4 0 6.6-3.9 13.7-8.8l13-8.7.3-8.5c.1-4.7-.1-9-.5-9.6-.8-1.1-11.9-8.4-12.8-8.4-.3 0-.5 1.9-.5 4.2m25.2 32.4c.2 21.6.6 28.8 1.5 29.1s1.3-3.3 1.5-14.6l.3-15 15.2 10.4c8.3 5.8 15.4 10.5 15.7 10.5s.6-6 .6-13.3l-.1-13.2-16-11c-8.9-6.1-16.7-11.1-17.5-11.3-1.2-.3-1.4 4.1-1.2 28.4m-22.7 1.1-13 8.8-.3 8.7c-.2 6.1.1 8.8.9 8.8.6 0 4.6-2.4 8.9-5.4s8.1-5.1 8.4-4.8c.8.7.8 47.7 0 48.5-.4.3-1.5.2-2.6-.4-1.5-.8-3.1-.2-8.2 3-3.5 2.2-6.7 3.7-7 3.4-.3-.4-.6-10-.6-21.5 0-11.4-.4-20.8-.8-20.8-.5 0-1.8.9-3 2-2.2 2-2.2 2.5-2.2 31 0 16 .3 29 .6 29 .4 0 2.7-1.5 5.3-3.3 2.5-1.8 5.1-3.6 5.7-4s3.6 1.1 6.7 3.2c3 2.2 5.8 3.7 6.1 3.3.3-.3.6-5.7.6-12v-11.4l3.6 2.1c1.9 1.2 3.9 2.1 4.5 2.1.5 0 .9-15.4.9-39.5 0-21.7-.4-39.5-.8-39.5s-6.6 3.9-13.7 8.7m-62.8 20c-.4.3-.7 8.6-.7 18.3v17.6l4.2 2 4.2 2.1 13.8-10 13.8-9.9v-6c0-4.5-.3-5.7-1.2-5.2-.7.4-7.9 5.4-15.9 11.1-8.1 5.7-15 10.3-15.3 10.3s-.6-7-.6-15.5c0-14.2-.4-16.8-2.3-14.8m120.1 16.2-.3 15.1-15.5-10.9-15.5-11-.3 5.6c-.4 6.8-.4 6.7 14.3 17.2l11.4 8.1 4.6-2.2 4.5-2.2-.2-17c-.2-12.3-.6-17-1.5-17.3s-1.3 3.3-1.5 14.6M42.2 156.3c-7.2 4.5-13.1 8.6-13.2 9 0 .4 6.3-2.4 14-6.4 12.7-6.5 15.6-8.8 13.1-10.3-.4-.3-6.7 3.2-13.9 7.7m157.4-6.7c-.4.9-.5 1.8-.4 1.9 2.6 1.8 28.1 14.5 28.5 14.2.2-.3-2.2-2.2-5.4-4.3-3.2-2-9.2-5.9-13.4-8.5-4.2-2.7-7.8-4.9-8.1-4.9s-.9.7-1.2 1.6M64 182.6c-3.6 4.7-7.3 9.6-8.3 11-1 1.3-1.5 2.4-1 2.4 1.5 0 18.4-19.1 18-20.3-.8-2.6-2.6-1.2-8.7 6.9m120.2-7.3c-.8.9 1.2 3.7 8 11 5 5.4 9.2 9.6 9.5 9.4.4-.4-15.4-21.7-16.1-21.7-.2 0-.8.6-1.4 1.3m-89.5 21.4c-1.3 2.3-5.8 17.5-5.5 18.4.2.7 2.1-3 4.2-8 2.6-6.2 3.5-9.6 2.8-10.3-.5-.5-1.2-.6-1.5-.1m65.6-.1c-.9.4-.7 1.9.8 5.7 3.5 8.9 5.9 14 6.4 13.6.4-.4-5.3-20-5.8-19.8-.1 0-.7.3-1.4.5M127 213.2c0 4 .5 8 1 8.8.7 1.1 1-.1 1-4.1 0-3.1.3-7.1.6-8.8.5-2.4.3-3.1-1-3.1s-1.6 1.2-1.6 7.2"/>
</svg>
