<svg xmlns="http://www.w3.org/2000/svg" width="341.333" height="341.333" version="1.0" viewBox="0 0 256 256">
    <g fill="#e5e5e5">
        <path d="m85.9 65.1-42.1 63.1 41.9 62.7c23 34.4 42.3 62.6 42.8 62.6.6 0 19.8-28.2 42.8-62.6l41.9-62.7-42.1-63.1C147.9 30.4 128.7 2 128.5 2s-19.4 28.4-42.6 63.1m83.6 3.4 39.6 59-31.1.3c-30.4.2-31 .3-31 2.3 0 1.1-.7 3.4-1.6 5.2-5 9.9-16 13.9-25.5 9.1-3.6-1.8-8.7-7.9-9.5-11.2-.3-1.5-.7-3.3-.9-3.9-.3-1-7.8-1.3-31-1.5l-30.6-.3 40.2-59.8c22.5-33.6 40.5-59.5 41-59s18.6 27.4 40.4 59.8m-65.7 73.4c-.8 2.1-12.4 19.1-13 19.1-.4 0-1.2-.9-1.8-2-.9-1.6-.4-2.9 2.5-7.2l3.5-5.3-7.6-.3c-4.2-.2-7.8-.1-8.1.2-.2.2 2 4.1 5 8.6 4.7 7 5.4 8.5 4.4 10.1-.7 1.1-1.5 1.9-1.9 1.9-1 0-16.8-23.6-16.8-25 0-.6 6-1 17.1-1 9.4 0 16.9.4 16.7.9m83.2-.2c0 1.3-12.2 19.3-13.1 19.3-.5 0-1.3-.9-1.9-2-.9-1.8-.5-2.9 2.4-7 2-2.8 3.6-5.2 3.6-5.5s-3.6-.5-8-.5-8 .2-8 .5 2.5 4.2 5.4 8.7c4.4 6.5 5.3 8.5 4.5 10-.5 1-1.3 1.8-1.8 1.8-.8 0-17.1-24-17.1-25.3 0-.4 7.7-.7 17-.7 9.4 0 17 .3 17 .7m-42 29.9c0 .4-2.8 4.9-6.2 10-4.8 7-6.6 9-7.5 8.2-1.7-1.4-1.6-3.9 0-6.3.8-1.1 2.2-3.2 3.2-4.8l1.7-2.7H120l5.6 8.4c4.8 7.2 5.4 8.7 4.5 10.5-.7 1.2-1.4 2.1-1.6 2.1-.4 0-14.4-20.6-16.9-24.8-.6-.9 3-1.2 16.3-1.2 9.4 0 17.1.3 17.1.6"/>
        <path d="M127.2 62.2c-1.9 1.9-1.5 2.8 3.8 10.8 2.7 4.1 5 7.8 5 8.2 0 .5-3.6.8-8 .8h-8.1l3.6-5.2c3.9-5.8 4.2-7 2.1-8.7-1.2-1-2.6.4-8 8.6l-6.6 9.8 8.4.3c4.7.1 12.6.1 17.6 0l9-.3-8.5-12.8c-4.7-7-8.7-12.7-8.8-12.7-.2 0-.8.5-1.5 1.2m-42 29.9c-1.2 1.9-.8 2.9 4.2 10.5L95 111h-8.1c-6.1 0-7.8-.3-7.3-1.3.4-.6 2-3 3.5-5.3 2.6-3.8 2.7-4.3 1.2-6.3-1.5-2.2-1.6-2.1-8 7.4-3.5 5.3-6.3 9.9-6 10.1.2.3 7.9.3 17.1.2l16.6-.3-8.5-12.8c-4.7-7-8.6-12.7-8.8-12.7-.1 0-.8.9-1.5 2.1m83 0c-1.2 1.9-.8 2.9 4.2 10.5l5.6 8.4h-8.1c-6.1 0-7.8-.3-7.3-1.3.4-.6 2-3 3.5-5.3 2.6-3.8 2.7-4.3 1.2-6.3-1.5-2.2-1.6-2.1-7.9 7.3-3.5 5.3-6.4 9.8-6.4 10.1s7.7.5 17.1.5 16.9-.4 16.7-.9c-.6-1.7-16.3-25.1-16.8-25.1-.3 0-1.1.9-1.8 2.1"/>
    </g>
</svg>
