<svg xmlns="http://www.w3.org/2000/svg" width="341.333" height="341.333" version="1.0" viewBox="0 0 256 256">
    <g fill="#e5e5e5">
        <path d="m86.1 64.9-42 63.3 6.7 10.1c48 72.6 76.8 115.7 77.3 115.7.7 0 83.9-124.7 83.9-125.7 0-.5-18.9-29.1-41.9-63.7l-42-62.9zm80.5 6.7 37.5 56.6-37.7 56.9c-20.7 31.3-37.8 56.9-38 56.9s-17.5-25.6-38.3-56.9l-37.9-56.8 37.6-56.6C110.5 40.5 127.9 15 128.3 15s17.7 25.5 38.3 56.6"/>
        <path d="M126.9 27.7c-1.2 1.6-1.2 1.7.2.6.9-.7 2-.9 2.4-.5.5.4.5.1.1-.6-.9-1.6-1.1-1.5-2.7.5m5.8 6.4c.4 1.3.8 1.8 1.1 1 .2-.7-.1-1.8-.6-2.3-.8-.8-.9-.4-.5 1.3m-10.2 0c-.4.6-.5 1.2-.2 1.5.2.3.7-.2 1-1.1.7-1.7.1-2-.8-.4m-3 4c-.3.4.2.6 1 .5 2.1-.3 2.8-1.3 1-1.3-.9 0-1.8.4-2 .8m13.3 0c-.4 1.1.1 1.5 2.2 1.4 1.8 0 2.6-.4 2.3-1.3-.4-.9-.9-1-1.8-.2s-1.4.7-1.7-.2c-.3-.8-.6-.8-1 .3m-10.2 1.8c-.4.5-.2 1.2.3 1.5.5.4 1.2.2 1.5-.3.4-.5.2-1.2-.3-1.5-.5-.4-1.2-.2-1.5.3m9 2.3c.3.5 1 .6 1.5.3 1.3-.9 1.1-1.2-.6-1.2-.8 0-1.2.4-.9.9m-7 .6c-.3.5.1.9.9.9s1.2-.4.9-.9c-.3-.4-.7-.8-.9-.8s-.6.4-.9.8m4 1.8c-1 .7-2.4 1.1-3 .7-.6-.3-.7-.2-.3.2 1.2 1.4 3.7 1.5 3.7.2 0-.8.3-.7.9.1.7 1.1.9 1.1 1.4-.2.9-2.2-.5-2.7-2.7-1m12 .7c.3 1 .9 1.5 1.2 1.2s0-1.1-.7-1.8c-1-.9-1.1-.8-.5.6m-13.2 4.1c2 1.6 3.7 1.3 3.5-.7q0-1.35-.6 0c-.3 1-1 1-2.6.2-2.1-1-2.1-.9-.3.5m13.7-.7c-.1 1.8 1.3 2.3 2.9 1.1 1.2-.8 1.2-.9-.2-.5-.9.3-1.9.1-2.2-.6-.3-.9-.5-.9-.5 0M111.5 50c-.4.6-.3 1 .2.9.4-.1 1 0 1.3.1 1.6.6 4.1.7 3.5.2-.4-.4-1-.7-1.3-.7-.4 0-1.2-.4-1.9-.8-.6-.4-1.5-.3-1.8.3m13.1.8c-.3.5.1.9.9.9s1.2-.4.9-.9c-.3-.4-.7-.8-.9-.8s-.6.4-.9.8m6 1.1c-.4.5-.2 1.2.3 1.5.5.4 1.2.2 1.5-.3.4-.5.2-1.2-.3-1.5-.5-.4-1.2-.2-1.5.3m9 0c-.4.5-.2 1.2.3 1.5.5.4 1.2.2 1.5-.3.4-.5.2-1.2-.3-1.5-.5-.4-1.2-.2-1.5.3m-24 2.3c.3.5 1 .6 1.5.3 1.3-.9 1.1-1.2-.6-1.2-.8 0-1.2.4-.9.9m6.9-.1c-.3.4.2.6 1 .5 2.1-.3 2.8-1.3 1-1.3-.9 0-1.8.4-2 .8m10.2.6c-.2.5-.1 1.7.3 2.7.6 1.9.7 1.9 1.2-.2.6-2.1-.6-4-1.5-2.5m4.9.1c-.3.5.1.9.9.9s1.2-.4.9-.9c-.3-.4-.7-.8-.9-.8s-.6.4-.9.8m-19.9.9c-.3.5-.2 1.5.4 2.3.6 1 .9 1.1.9.2 0-1.3 2.1-1.2 3.1.1.3.5.9.2 1.2-.6.4-1 0-1.4-1.1-1.2-.9.1-2.2-.2-2.9-.7-.6-.5-1.4-.5-1.6-.1M103 62.4c-1.2 1.9-1.1 2 .2.8.9-.7 2-1.1 2.4-1 .5.2 1.1-.1 1.4-.6 1.1-2-2.7-1.2-4 .8m15.6-1.3c.4.8 3 .6 3.8-.2.3-.3-.5-.5-1.9-.5-1.3 0-2.2.3-1.9.7m14.2 0c-.4 1.1.3 1.4 3.2 1.4 2.7 0 3.6-.3 3.2-1.3-.4-1.1-.6-1.1-1.3 0s-.9 1.1-.9-.1c0-1-.3-1.1-1.4-.2s-1.5.9-1.8-.1c-.3-.9-.6-.8-1 .3m-10.2 1.8c-.4.5-.2 1.2.3 1.5.5.4 1.2.2 1.5-.3.4-.5.2-1.2-.3-1.5-.5-.4-1.2-.2-1.5.3m24.9.2c-.3.4.2.6 1 .5 2.1-.3 2.8-1.3 1-1.3-.9 0-1.8.4-2 .8m-39.9.8c-.4.5-.2 1.2.3 1.5.5.4 1.2.2 1.5-.3.4-.5.2-1.2-.3-1.5-.5-.4-1.2-.2-1.5.3m9 .3c.3.5 1 .6 1.5.3 1.3-.9 1.1-1.2-.6-1.2-.8 0-1.2.4-.9.9m15 1c.3.5 1 .6 1.5.3 1.3-.9 1.1-1.2-.6-1.2-.8 0-1.2.4-.9.9m6.8-.4c.4.3 1.4.7 2.2.8.9.1 1.3 0 1-.4-.4-.3-1.4-.7-2.2-.8-.9-.1-1.3 0-1 .4m-23.8 1.1c-.4.5-.2 1.2.3 1.5.5.4 1.2.2 1.5-.3.4-.5.2-1.2-.3-1.5-.5-.4-1.2-.2-1.5.3m10-.1c-.3.5.1.9.9.9s1.2-.4.9-.9c-.3-.4-.7-.8-.9-.8s-.6.4-.9.8m20.9.3c-.3.4.2.6 1 .5 2.1-.3 2.8-1.3 1-1.3-.9 0-1.8.4-2 .8m-36.1 1.1c-.4.7-.3.8.5.4.6-.4 1.4-.1 1.7.7.2.7 1.1 1.4 1.9 1.4 2 0 1.9-.2-.9-2.1-1.8-1.1-2.7-1.3-3.2-.4m-9.9.9c-.4.6-.5 1.2-.2 1.5.2.3.7-.2 1-1.1.7-1.7.1-2-.8-.4m27.7.6c-1.5 1.3-1.5 1.3.5.4 1.6-.8 2.2-.8 2.5.1.3.8.6.7 1-.3.8-2-1.7-2.1-4-.2m13.5 0c.4.9.8 1.1 1.2.4.4-.6 1.2-.7 2.1-.1 1.9 1.2 3 1.3 3 .2 0-.5-.6-.9-1.2-1-.7 0-2.3-.3-3.5-.6-1.7-.3-2-.1-1.6 1.1M99 71.8c0 .6-.8.9-1.7.6-1.5-.5-1.6-.4-.3.5 1.6 1.1 4-.3 2.7-1.6-.4-.3-.7-.1-.7.5m10.7.4c-.4 1.3-.1 1.6 1.5 1.3 1.2-.3 2.6-1 3.2-1.6.8-.9.6-.9-1.1 0-1.6.8-2.2.8-2.5-.1-.3-.8-.7-.6-1.1.4m16.6-.1c3.1 1.8 5.7 1.9 5 .2-.4-.9-.8-1.1-1.2-.4-.4.6-1.2.7-2.1.1-.8-.6-1.9-1-2.5-1-.5.1-.2.5.8 1.1m14.7-.4c0 1.9 1.4 2.2 4 .7 1.4-.7 2.1-1.3 1.5-1.3-.5-.1-1.7.3-2.5.9-.9.6-1.7.5-2.2-.3-.6-.9-.8-.9-.8 0m17.5 1.3c-.4.6-1 .8-1.5.5s-1.1-.1-1.4.4c-.7 1 2 .9 3-.2.4-.4 1.4-.1 2.3.6 1.4 1.1 1.4 1 .2-.6-1.6-2-1.8-2-2.6-.7m-43.9.8c-.3.5.1.9.9.9s1.2-.4.9-.9c-.3-.4-.7-.8-.9-.8s-.6.4-.9.8m10 0c-.3.5.1.9.9.9s1.2-.4.9-.9c-.3-.4-.7-.8-.9-.8s-.6.4-.9.8m21 .1c-.4.5-.2 1.2.3 1.5.5.4 1.2.2 1.5-.3.4-.5.2-1.2-.3-1.5-.5-.4-1.2-.2-1.5.3m-46 .9c-.3.5.1.9.9.9s1.2-.4.9-.9c-.3-.4-.7-.8-.9-.8s-.6.4-.9.8m40 .1c-.4.5-.2 1.2.3 1.5.5.4 1.2.2 1.5-.3.4-.5.2-1.2-.3-1.5-.5-.4-1.2-.2-1.5.3m-32.1 1.2c-.3.4.2.6 1 .5 2.1-.3 2.8-1.3 1-1.3-.9 0-1.8.4-2 .8m23.1.1c.3.5 1 .6 1.5.3 1.3-.9 1.1-1.2-.6-1.2-.8 0-1.2.4-.9.9m-15.2.6c.4.3 1.4.7 2.2.8.9.1 1.3 0 1-.4-.4-.3-1.4-.7-2.2-.8-.9-.1-1.3 0-1 .4m7.1.3c-.3.4.2.6 1 .5 2.1-.3 2.8-1.3 1-1.3-.9 0-1.8.4-2 .8m25.1-.2c-.4.5-.2 1.2.3 1.5.5.4 1.2.2 1.5-.3.4-.5.2-1.2-.3-1.5-.5-.4-1.2-.2-1.5.3m7 .3c.3.5 1 .6 1.5.3 1.3-.9 1.1-1.2-.6-1.2-.8 0-1.2.4-.9.9m-54.2.6c.4.3 1.4.7 2.2.8.9.1 1.3 0 1-.4-.4-.3-1.4-.7-2.2-.8-.9-.1-1.3 0-1 .4m32.3-.1c-.2.5-.1 1.7.3 2.7.6 1.9.7 1.9 1.2-.2.6-2.1-.6-4-1.5-2.5m4.9.1c-.3.5.1.9.9.9s1.2-.4.9-.9c-.3-.4-.7-.8-.9-.8s-.6.4-.9.8m-31 1.4c.3.5 1 .6 1.5.3 1.3-.9 1.1-1.2-.6-1.2-.8 0-1.2.4-.9.9m46-.4c-.4.4-1.3.7-1.8.7-.6 0-1.3.7-1.5 1.5-.4 1.2-.3 1.2.5.2 1.1-1.7 2.2-1.7 3.2-.2.5.8.9.7 1.3-.4.7-1.7-.6-3-1.7-1.8m-34.8 2c.3 1 .7 1.1 1.2.2.4-.6 1.1-1.2 1.5-1.2s1.1.6 1.5 1.2c.5.9.9.8 1.2-.2.4-1-.3-1.4-2.7-1.4s-3.1.4-2.7 1.4m-12.7 3.8c.6.7 1.6 1.1 2.1.8 1.1-.7.3-1.7-1.8-2-1.2-.2-1.3.1-.3 1.2m12.4-.6c-.5.8 4.2.7 4.9-.1.3-.3-.6-.5-2-.5s-2.7.3-2.9.6m15.2.3c-.7 1.8 1.7 1.7 3.5-.1.9-.9.9-1.2 0-1.2-.7 0-1.2.6-1.2 1.2 0 1-.2 1-.9 0-.7-1.1-.9-1.1-1.4.1m5 .1c-.3.8-.2 1.8.3 2.1 1.3.8 2-.9 1.1-2.4-.6-1-1-.9-1.4.3m13.7-.6c.4.3 1.4.7 2.2.8.9.1 1.3 0 1-.4-.4-.3-1.4-.7-2.2-.8-.9-.1-1.3 0-1 .4m13 .3c-.8 1.4 1.4 1.9 2.5.6.8-1 .7-1.4-.5-1.4-.8 0-1.7.4-2 .8m-74 1.7c.4.3 1.4.7 2.2.8.9.1 1.3 0 1-.4-.4-.3-1.4-.7-2.2-.8-.9-.1-1.3 0-1 .4m11.2.4c.3.5 1 .6 1.5.3 1.3-.9 1.1-1.2-.6-1.2-.8 0-1.2.4-.9.9m21-.3c-.4.5-.2 1.2.3 1.5.5.4 1.2.2 1.5-.3.4-.5.2-1.2-.3-1.5-.5-.4-1.2-.2-1.5.3m25-.1c-.3.5.1.9.9.9s1.2-.4.9-.9c-.3-.4-.7-.8-.9-.8s-.6.4-.9.8m-40 1.1c-.4.5-.2 1.2.3 1.5.5.4 1.2.2 1.5-.3.4-.5.2-1.2-.3-1.5-.5-.4-1.2-.2-1.5.3m9 .3c.3.5 1 .6 1.5.3 1.3-.9 1.1-1.2-.6-1.2-.8 0-1.2.4-.9.9m36.8-.4c.4.3 1.4.7 2.2.8.9.1 1.3 0 1-.4-.4-.3-1.4-.7-2.2-.8-.9-.1-1.3 0-1 .4m9.2 0c-.3.5.1.9.9.9s1.2-.4.9-.9c-.3-.4-.7-.8-.9-.8s-.6.4-.9.8m-63 1c-.3.5.1.9.9.9s1.2-.4.9-.9c-.3-.4-.7-.8-.9-.8s-.6.4-.9.8m30.9.3c-.3.4.2.6 1 .5 2.1-.3 2.8-1.3 1-1.3-.9 0-1.8.4-2 .8m9.1-.3c-.3.5.1.9.9.9s1.2-.4.9-.9c-.3-.4-.7-.8-.9-.8s-.6.4-.9.8m-47 1.4c.3.5 1 .6 1.5.3 1.3-.9 1.1-1.2-.6-1.2-.8 0-1.2.4-.9.9m22-.3c-.4.5-.2 1.2.3 1.5.5.4 1.2.2 1.5-.3.4-.5.2-1.2-.3-1.5-.5-.4-1.2-.2-1.5.3m10 0c-.4.5-.2 1.2.3 1.5.5.4 1.2.2 1.5-.3.4-.5.2-1.2-.3-1.5-.5-.4-1.2-.2-1.5.3m20.9.2c-.3.4.2.6 1 .5 2.1-.3 2.8-1.3 1-1.3-.9 0-1.8.4-2 .8m-35.9.7c-.2.4-.1 1.4.5 2.2.7 1.3.9 1.3.9 0 0-.9.3-1.1.8-.5.7 1 3.2 1.9 3.2 1.1 0-.9-4.9-3.5-5.4-2.8m46 .4c.3.5 1 .6 1.5.3 1.3-.9 1.1-1.2-.6-1.2-.8 0-1.2.4-.9.9m3.5.7c-1.6 1.3-1.9 1.8-.7 1.8.8 0 1.8-.7 2-1.4.3-.8 1.1-1.1 1.7-.7.8.4.9.3.5-.4-.9-1.5-.6-1.5-3.5.7m-64.7.3c-1 1.6.3 2 2.4.9 1.4-.7 2.2-.7 2.5-.1s.4.5.3-.1c-.3-1.5-4.4-2-5.2-.7m32.8.5c-1.5 1.3-1.5 1.3.5.4 1.6-.8 2.2-.8 2.5.1.3.8.6.7 1-.3.8-2-1.7-2.1-4-.2m13.5 0c.4.9.8 1.1 1.2.4.4-.6 1.2-.7 2.1-.1 1.9 1.2 3 1.3 3 .2 0-.5-.6-.9-1.2-1-.7 0-2.3-.3-3.5-.6-1.7-.3-2-.1-1.6 1.1m31.3.3c0 .5.5 1 1.1 1 .5 0 .7-.5.4-1-.3-.6-.8-1-1.1-1-.2 0-.4.4-.4 1m-89 2.8c0 .7-.4 1.1-.9.8s-1.5.2-2.2 1.2c-1.2 1.5-1.2 1.6.2.5 1.1-.9 1.9-.9 2.6-.2 1.4 1.4 2.4-.3 1.2-2.1-.6-1.1-.9-1.2-.9-.2m11 0c0 .5.6.9 1.3.9.6 0 1.8.2 2.6.4.7.2 1.6-.3 1.8-1.1.3-1 .2-1.1-.4-.3s-1.4.9-2.3.3c-1.9-1.2-3-1.3-3-.2m15.7.4c-.4 1.3-.1 1.6 1.5 1.3 1.2-.3 2.6-1 3.2-1.6.8-.9.6-.9-1.1 0-1.6.8-2.2.8-2.5-.1-.3-.8-.7-.6-1.1.4m20.3-.3c0 .6.4 1.3 1 1.6s.7-.1.4-.9c-.7-1.8-1.4-2.1-1.4-.7m11-.2c0 1.9 1.4 2.2 4 .7 1.4-.7 2.1-1.3 1.5-1.3-.5-.1-1.7.3-2.5.9-.9.6-1.7.5-2.2-.3-.6-.9-.8-.9-.8 0m20 .1c0 .7-.4 1.1-.9.7-.5-.3-1.2-.1-1.6.5s-1 .8-1.5.5-1.1-.1-1.4.4c-.7 1 2 .9 3-.2.4-.4 1.3-.2 2 .4 1.6 1.3 2.6-.2 1.3-2.1-.6-1.1-.9-1.2-.9-.2m11 .4c0 .6.3.8.6.5.4-.3 1.6-.2 2.8.4 2 1 2 1 .2-.5-2.4-1.9-3.6-2-3.6-.4m-57.4 1.6c-.3.5.1.9.9.9s1.2-.4.9-.9c-.3-.4-.7-.8-.9-.8s-.6.4-.9.8m31 .1c-.4.5-.2 1.2.3 1.5.5.4 1.2.2 1.5-.3.4-.5.2-1.2-.3-1.5-.5-.4-1.2-.2-1.5.3m-53.1 1.2c-.3.4.2.6 1 .5 2.1-.3 2.8-1.3 1-1.3-.9 0-1.8.4-2 .8m7.1-.2c-.4.5-.2 1.2.3 1.5.5.4 1.2.2 1.5-.3.4-.5.2-1.2-.3-1.5-.5-.4-1.2-.2-1.5.3m26.9 1.5c-1.8 2.6-1.7 2.7 4.9 12.6l6.6 10h-9.5c-5.2 0-9.5-.2-9.5-.6 0-.3 1.8-3.2 4-6.4 4-5.8 4-6 2.4-8.5-.9-1.4-2-2.2-2.4-1.8-2.1 2.4-15.1 22.5-14.7 22.9.2.2 9.5.3 20.6.2l20.1-.3-9.6-14.5c-5.3-8-10-14.9-10.4-15.4-.5-.4-1.6.4-2.5 1.8m44-1.3c-.3.4.2.6 1 .5 2.1-.3 2.8-1.3 1-1.3-.9 0-1.8.4-2 .8m-85.9.8c-.4.5-.2 1.2.3 1.5.5.4 1.2.2 1.5-.3.4-.5.2-1.2-.3-1.5-.5-.4-1.2-.2-1.5.3m22.9.2c-.3.4.2.6 1 .5 2.1-.3 2.8-1.3 1-1.3-.9 0-1.8.4-2 .8m32.1.1c.3.5 1 .6 1.5.3 1.3-.9 1.1-1.2-.6-1.2-.8 0-1.2.4-.9.9m23-.3c-.4.5-.2 1.2.3 1.5.5.4 1.2.2 1.5-.3.4-.5.2-1.2-.3-1.5-.5-.4-1.2-.2-1.5.3m-47.2.9c.4.3 1.4.7 2.2.8.9.1 1.3 0 1-.4-.4-.3-1.4-.7-2.2-.8-.9-.1-1.3 0-1 .4m32.2.1c-.4.5-.2 1.2.3 1.5.5.4 1.2.2 1.5-.3.4-.5.2-1.2-.3-1.5-.5-.4-1.2-.2-1.5.3m7 .3c.3.5 1 .6 1.5.3 1.3-.9 1.1-1.2-.6-1.2-.8 0-1.2.4-.9.9m-63 1c.3.5 1 .6 1.5.3 1.3-.9 1.1-1.2-.6-1.2-.8 0-1.2.4-.9.9m10-.4c-.3.5.1.9.9.9s1.2-.4.9-.9c-.3-.4-.7-.8-.9-.8s-.6.4-.9.8m36 0c-.3.5.1.9.9.9s1.2-.4.9-.9c-.3-.4-.7-.8-.9-.8s-.6.4-.9.8m30.9.3c-.3.4.2.6 1 .5 2.1-.3 2.8-1.3 1-1.3-.9 0-1.8.4-2 .8m-81.9.7c-.2.4-.1 1.4.5 2.2.6 1.1.9 1.2.9.2 0-.8.5-1 1.3-.6.8.5.8.2-.2-.9-1.5-1.9-1.8-2-2.5-.9m18.3.9c-.8.9-.8 1.3 0 1.3.6 0 1.1-.5 1.1-1.1 0-.5.4-.8.9-.4.5.3 1.2.2 1.5-.3.9-1.4-2.3-1-3.5.5m47.7-.9c-.4.4-1.3.7-1.8.7-.6 0-1.3.7-1.5 1.5-.4 1.2-.3 1.2.5.2 1.1-1.7 2.2-1.7 3.2-.2.5.8.9.7 1.3-.4.7-1.7-.6-3-1.7-1.8m12 0c-.2.4-.1 1.4.5 2.2.6 1.1.9 1.2.9.2 0-.8.5-1 1.3-.6.8.5.8.2-.2-.9-1.5-1.9-1.8-2-2.5-.9m-89.1 1.3c-.4.6-.5 1.2-.2 1.5.2.3.7-.2 1-1.1.7-1.7.1-2-.8-.4m42.3.8c.4 1 .7 1.1 1 .3.2-.7.8-1 1.2-.7.5.3 1.1.2 1.4-.3.2-.4-.6-.8-1.9-.8-1.6 0-2.1.4-1.7 1.5m-43.7 3.7c.6.7 1.6 1.1 2.1.8 1.1-.7.3-1.7-1.8-2-1.2-.2-1.3.1-.3 1.2m12.3-.5c-.8 1.4 1.4 1.9 2.5.6.8-1 .7-1.4-.5-1.4-.8 0-1.7.4-2 .8m18.6.4c.7.8 1.6 1.2 2.1.9 1.3-.8.1-2.4-1.8-2.4-1.3 0-1.3.3-.3 1.5m33-.6c0 .6.4 1.3 1 1.6s.7-.1.4-.9c-.7-1.8-1.4-2.1-1.4-.7m11.5 0c.3.3 1.7.6 3.1.7 1.3 0 2.2-.2 1.9-.5s-1.7-.6-3.1-.7c-1.3 0-2.2.2-1.9.5m14.9.2c-.8 1.4 1.4 1.9 2.5.6.8-1 .7-1.4-.5-1.4-.8 0-1.7.4-2 .8m17.6-.7c0 .2.8 1 1.8 1.7 1.5 1.3 1.6 1.2.3-.4s-2.1-2.1-2.1-1.3m-91.6 2.4c.4.3 1.4.7 2.2.8.9.1 1.3 0 1-.4-.4-.3-1.4-.7-2.2-.8-.9-.1-1.3 0-1 .4m11.2.4c.3.5 1 .6 1.5.3 1.3-.9 1.1-1.2-.6-1.2-.8 0-1.2.4-.9.9m46-.4c-.3.5.1.9.9.9s1.2-.4.9-.9c-.3-.4-.7-.8-.9-.8s-.6.4-.9.8m21 .4c.3.5 1 .6 1.5.3 1.3-.9 1.1-1.2-.6-1.2-.8 0-1.2.4-.9.9m9.9-.1c-.3.4.2.6 1 .5 2.1-.3 2.8-1.3 1-1.3-.9 0-1.8.4-2 .8m-101.9.7c-.3.5.1.9.9.9s1.2-.4.9-.9c-.3-.4-.7-.8-.9-.8s-.6.4-.9.8m8 0c-.3.5.1.9.9.9s1.2-.4.9-.9c-.3-.4-.7-.8-.9-.8s-.6.4-.9.8M115 111c-.6 1.1-.8 2-.6 2 .3 0 1-.9 1.6-2s.8-2 .6-2c-.3 0-1 .9-1.6 2m38.4-1.2c.4.3 1.4.7 2.2.8.9.1 1.3 0 1-.4-.4-.3-1.4-.7-2.2-.8-.9-.1-1.3 0-1 .4m9.2.1c-.4.5-.2 1.2.3 1.5.5.4 1.2.2 1.5-.3.4-.5.2-1.2-.3-1.5-.5-.4-1.2-.2-1.5.3m-63 1c-.4.5-.2 1.2.3 1.5.5.4 1.2.2 1.5-.3.4-.5.2-1.2-.3-1.5-.5-.4-1.2-.2-1.5.3m8 .3c.3.5 1 .6 1.5.3 1.3-.9 1.1-1.2-.6-1.2-.8 0-1.2.4-.9.9m63-.3c-.4.5-.2 1.2.3 1.5.5.4 1.2.2 1.5-.3.4-.5.2-1.2-.3-1.5-.5-.4-1.2-.2-1.5.3m-78 1.3c.3.5 1 .6 1.5.3 1.3-.9 1.1-1.2-.6-1.2-.8 0-1.2.4-.9.9m52.9-.1c-.3.4.2.6 1 .5 2.1-.3 2.8-1.3 1-1.3-.9 0-1.8.4-2 .8m32.1.1c.3.5 1 .6 1.5.3 1.3-.9 1.1-1.2-.6-1.2-.8 0-1.2.4-.9.9m-100 .9c.3.5.9.7 1.4.4s1.3.2 1.8 1.1c.8 1.5 1 1.5 1.5-.1.4-.9 1.1-1.4 1.6-1 .5.3 1.2.1 1.5-.4.7-1-2-.9-3 .2-.4.3-1.2.3-1.8 0-1.7-1.1-3.7-1.2-3-.2m32.1-.4c-.3.5-.2 1.5.4 2.3.5 1 .9 1.1.9.3 0-.7.7-1 1.8-.6 1.8.7 1.7.5-1-1.5-.9-.7-1.9-.9-2.1-.5m45.9.5c.3.5 1 .6 1.5.3 1.3-.9 1.1-1.2-.6-1.2-.8 0-1.2.4-.9.9m4.3.5c-1.2 1.6-1.2 1.7.2.6.9-.7 2-.9 2.4-.5.5.4.5.1.1-.6-.9-1.6-1.1-1.5-2.7.5M97 114c-.8.5-1.8.6-2.2.4-.4-.3-.8 0-.8.5 0 1.3 1 1.4 3 .1.9-.6 1.7-.5 2.2.3.6.9.8.9.8 0 0-1.7-1.4-2.3-3-1.3m46.4.4c2.4 1.9 3.6 2 3.6.4 0-.6-.3-.8-.6-.5-.4.3-1.6.2-2.8-.4-2-1-2-1-.2.5m29-.2c-1 1.6.3 2 2.4.9 1.4-.7 2.2-.7 2.5-.1s.4.5.3-.1c-.3-1.5-4.4-2-5.2-.7m-104.9.8c-.3.5-.1 1 .4 1 .6 0 1.1-.5 1.1-1 0-.6-.2-1-.4-1-.3 0-.8.4-1.1 1m-2.1 3.6c-1.8 1.5-1.8 1.5.2.5 1.2-.6 2.4-.7 2.8-.4.3.3.6.1.6-.5 0-1.6-1.2-1.5-3.6.4m28.6-.8c0 .5.6.9 1.3.9.6 0 1.8.2 2.6.4.7.2 1.6-.3 1.8-1.1.3-1 .2-1.1-.4-.3s-1.4.9-2.3.3c-1.9-1.2-3-1.3-3-.2m15.6.9c-.6 1.4-.5 1.5.5.6.7-.7 1-1.5.7-1.8s-.9.2-1.2 1.2m51.4-.9c0 .7-.4 1.1-.9.7-.5-.3-1.2-.1-1.6.5s-1 .8-1.5.5-1.1-.1-1.4.4c-.7 1 2 .9 3-.2.4-.4 1.3-.2 2 .4 1.6 1.3 2.6-.2 1.3-2.1-.6-1.1-.9-1.2-.9-.2m11 .2c0 .4.6.7 1.3.7.6 0 1.8.2 2.6.4.7.2 1.5-.1 1.8-.7.2-.6-.9-1.1-2.7-1.1-1.6 0-3 .3-3 .7m-91.5 1c-.3.6-1 .8-1.5.5s-1.1-.1-1.4.4c-.7 1 2 .9 3-.2.4-.4 1.3-.2 2 .4.9.7 1.4.6 2-.3.4-.7.4-1-.1-.6-.4.4-1.4.3-2.1-.3-.8-.7-1.4-.7-1.9.1m109 0c-.4.6-1.1.7-1.7.4-.7-.4-.8-.2-.4.5.6.8 1.2.9 2 .2.9-.7 1.7-.7 2.6.2 1.2 1 1.2.9.1-.6-1.6-2-1.8-2-2.6-.7m-122.1 1.8c.4.3 1.4.7 2.2.8.9.1 1.3 0 1-.4-.4-.3-1.4-.7-2.2-.8-.9-.1-1.3 0-1 .4m25.1.3c-.3.4.2.6 1 .5 2.1-.3 2.8-1.3 1-1.3-.9 0-1.8.4-2 .8m7.1-.2c-.4.5-.2 1.2.3 1.5.5.4 1.2.2 1.5-.3.4-.5.2-1.2-.3-1.5-.5-.4-1.2-.2-1.5.3m71-.1c-.3.5.1.9.9.9s1.2-.4.9-.9c-.3-.4-.7-.8-.9-.8s-.6.4-.9.8m7 0c-.3.5.1.9.9.9s1.2-.4.9-.9c-.3-.4-.7-.8-.9-.8s-.6.4-.9.8m-93 1.1c-.4.5-.2 1.2.3 1.5.5.4 1.2.2 1.5-.3.4-.5.2-1.2-.3-1.5-.5-.4-1.2-.2-1.5.3m78 0c-.4.5-.2 1.2.3 1.5.5.4 1.2.2 1.5-.3.4-.5.2-1.2-.3-1.5-.5-.4-1.2-.2-1.5.3m23-.1c-.3.5.1.9.9.9s1.2-.4.9-.9c-.3-.4-.7-.8-.9-.8s-.6.4-.9.8m-109 1.4c.3.5 1 .6 1.5.3 1.3-.9 1.1-1.2-.6-1.2-.8 0-1.2.4-.9.9m76.9-.1c-.3.4.2.6 1 .5 2.1-.3 2.8-1.3 1-1.3-.9 0-1.8.4-2 .8m-83.9 1.1c.3.5 1 .6 1.5.3 1.3-.9 1.1-1.2-.6-1.2-.8 0-1.2.4-.9.9m20.9-.1c-.3.4.2.6 1 .5 2.1-.3 2.8-1.3 1-1.3-.9 0-1.8.4-2 .8m11.1-.3c-.3.5.1.9.9.9s1.2-.4.9-.9c-.3-.4-.7-.8-.9-.8s-.6.4-.9.8m66.9.3c-.3.4.2.6 1 .5 2.1-.3 2.8-1.3 1-1.3-.9 0-1.8.4-2 .8m9.9-.3c.4.3 1.4.7 2.2.8.9.1 1.3 0 1-.4-.4-.3-1.4-.7-2.2-.8-.9-.1-1.3 0-1 .4m-103.8 1c-.4.4-1.3.7-1.8.7-.6 0-1.3.7-1.5 1.5-.3.9-.1 1.1.4.5 1.1-1.3 3.3-1.7 3.3-.6 0 .5-.5 1.1-1.1 1.3-1.1.4 10.9 19.7 12.2 19.8.7 0 12.9-18.2 12.9-19.3 0-.4-1.5-.7-3.4-.7s-3.7-.6-3.9-1.3q-.6-1.5-.6 0c-.1 1.6-3.1 1.7-3.1.2 0-.5.6-.7 1.3-.3.8.5.8.3-.2-.9-1.5-1.9-3.3-1.3-2.4.8.4 1.2-.6 1.5-5.2 1.5s-5.6-.3-5.2-1.5c.7-1.6-.6-2.9-1.7-1.7m20.4 5.9c0 1.2-8.2 13.3-9 13.3s-9-12.1-9-13.3c0-.4 4.1-.7 9-.7 5 0 9 .3 9 .7m9.9-5c-1.3 1.6-1.2 1.7.4.4.9-.7 1.7-1.5 1.7-1.7 0-.8-.8-.3-2.1 1.3"/>
        <path d="M164.7 124.6c-.3.3-.3 1.2 0 1.9.3 1-.7 1.5-3.6 1.7l-4.1.3 6.5 9.7c3.6 5.4 6.7 9.8 7 9.8s3.4-4.4 7-9.7c4.2-6.3 6.1-9.9 5.3-10.2-.7-.2-1.6-.9-2-1.5-.5-.8-.8-.7-.8.1 0 .9-1.7 1.3-4.9 1.3-3 0-5.1-.5-5.4-1.3q-.6-1.5-.6 0c-.1 1.6-3.1 1.7-3.1.2 0-.5.6-.7 1.3-.3.8.5.8.2-.2-.9-1.5-1.9-1.5-1.9-2.4-1.1m15.3 5.9c0 .6-9.1 13.5-9.5 13.5s-7-9.5-8.9-12.8c-.6-.9 1.5-1.2 8.8-1.2 5.3 0 9.6.2 9.6.5m2.9-4.9c-.7.9-.6 1.2.6 1 2.2-.3 4-2.3 2-2.3-.8 0-2 .6-2.6 1.3m-32.3.5c.4.8 3 .6 3.8-.2.3-.3-.5-.5-1.9-.5-1.3 0-2.2.3-1.9.7"/>
        <path d="M195.6 126.4c.5 1.2 0 1.6-1.7 1.6-2 0-4.2 2.8-12.3 15.1-5.5 8.2-10.3 15.2-10.7 15.5-.5.3-5.3-6.3-10.9-14.6-5.5-8.2-10.2-15-10.5-15-.2 0-1.2 1.1-2 2.4-1.6 2.4-1.4 2.8 4.9 12.3l6.6 9.8-9.1.3c-5 .1-9.4.1-9.6-.2-.3-.2 1.4-3.2 3.7-6.6 4.1-6 4.1-6.2 2.5-8.7-.9-1.4-2-2.1-2.5-1.7-1.3 1.5-15 22.3-15 22.8 0 .3 9.2.7 20.5.8l20.5.3-20.9 31.4-20.9 31.3-21.1-31.6L86 160l21-.2 21-.3-10-15c-5.5-8.2-10.4-15.1-10.8-15.3-.5-.1-1.4.9-2.2 2.3-1.2 2.3-.9 3.1 5.3 12.5l6.7 10H97l4.4-6.6c4.2-6.3 4.4-6.8 2.9-9-.8-1.3-1.8-2.2-2.2-1.9-.4.2-4.1 5.4-8.1 11.5-4 6-7.6 11-8 11s-5.3-7-11-15.5C68.2 133.2 64.1 128 62.9 128c-.9 0-2-.6-2.2-1.3-.3-.6-.6-.3-.6.8-.1 2 66.7 103.4 68.1 103.5 1.1 0 68.8-101.7 68.8-103.4 0-.8-.4-1.8-1-2.1s-.7.1-.4.9"/>
        <path d="M111.7 165.7c-1.2 1.2-.7 2.2.8 1.7.8-.4 1.5-1 1.5-1.5 0-1.1-1.4-1.2-2.3-.2m15.3.1c0 .5.7 1.3 1.6 1.6 1 .4 1.4.1 1.2-.6-.5-1.5-2.8-2.3-2.8-1m15.7-.1c-1.2 1.2-.7 2.2.8 1.7.8-.4 1.5-1 1.5-1.5 0-1.1-1.4-1.2-2.3-.2"/>
        <path d="M100 167.1c0 1.7 4.6 7.9 5.4 7.2 1-1.1 3.7-1.2 3-.2-.3.5-1 .7-1.5.4-1.9-1.2-2.1 2.6-.3 4 1.1.8 1.5 1.5 1.1 1.5-.5 0 1 1.8 3.3 4 2.4 2.3 3.9 4 3.4 3.8s-.9.2-.9.7.3.9.7.8c.4-.2.5.3.2 1.1-.6 1.6 5.2 8 6.5 7.2.5-.4 1.2-.2 1.6.3.3.6-.4.8-1.5.6-2.3-.4-2.4-.6 3.3 7.8l3.9 5.9 4.3-6.4c2.8-4.2 3.9-6.5 3.1-7-.7-.5-.5-.8.6-.8.9 0 2-.5 2.4-1.2.5-.7.2-.9-.7-.4-.8.4-.4-.1.7-1.1 3.2-2.7 5.7-7 4.9-8.4-.6-.8-.9-.8-1.5.1-.5.8-.9.8-1.3-.3s0-1.5 1.4-1.2c1.1.2 3.1-.7 4.7-2.2 1.5-1.5 2-2.3 1.2-1.8s-.2-.4 1.3-1.8c1.5-1.5 2.5-3.2 2.1-3.8-.4-.8-.9-.7-1.6.2-.8 1.1-.9 1.1-.5-.1.2-.8 1-1.4 1.6-1.3.9.3 6.1-6.7 6.1-8.2 0-1-9.1-.5-11.1.6-3.4 1.8-5.9 1.9-5.2.3.4-1.1-.6-1.4-4.7-1.4s-5.1.3-4.7 1.4c.7 1.7-2.9 1.4-4.7-.4-.5-.5-3.3-1-6.1-1s-5.6.5-6.1 1c-1.8 1.8-5.4 2.1-4.7.4.4-1.1-.6-1.4-4.6-1.4-2.9 0-5.1.5-5.1 1.1m16.4 1.7c.3.5-.1.9-.9.9s-1.2-.4-.9-.9c.3-.4.7-.8.9-.8s.6.4.9.8m10 1.3c-.3.5-1 .7-1.5.3-.5-.3-.7-1-.3-1.5.3-.5 1-.7 1.5-.3.5.3.7 1 .3 1.5m21.6-.5c0 .8-1.9 1.3-2.4.6-.3-.5.1-.9.9-.9s1.5.2 1.5.3m-37.5 1.3c-.9.8-3.6 1-3 .2.2-.4 1.1-.8 2-.8.8 0 1.3.3 1 .6m22.5-.3c0 .8-1.9 1.3-2.4.6-.3-.5.1-.9.9-.9s1.5.2 1.5.3m9 0c0 .8-1.9 1.3-2.4.6-.3-.5.1-.9.9-.9s1.5.2 1.5.3m-23.4 1.6c.3.4-.1.5-1 .4-.8-.1-1.8-.5-2.2-.8-.3-.4.1-.5 1-.4.8.1 1.8.5 2.2.8m5.8-.4c.3.5-.1.9-.9.9s-1.2-.4-.9-.9c.3-.4.7-.8.9-.8s.6.4.9.8m25 1.3c-.3.5-1 .7-1.5.3-.5-.3-.7-1-.3-1.5.3-.5 1-.7 1.5-.3.5.3.7 1 .3 1.5m-15.1 1.5c-.4 1.2-.8 1.3-1.4.3-.9-1.5-.2-3.2 1.1-2.4.5.3.6 1.3.3 2.1m5.1-1.8c.3.5-.1.9-.9.9s-1.2-.4-.9-.9c.3-.4.7-.8.9-.8s.6.4.9.8m-16.2 3c-.3 1-.7 1.1-1.2.2-.4-.6-1.1-1.2-1.5-1.2s-1.1.6-1.5 1.2c-.5.9-.9.8-1.2-.2-.4-1 .3-1.4 2.7-1.4s3.1.4 2.7 1.4m-.8 3.1c-.7.8-5.4.9-4.9.1.2-.3 1.5-.6 2.9-.6s2.3.2 2 .5m12.6.3c0-.6.5-1.2 1.2-1.2.9 0 .9.3 0 1.2-1.8 1.8-4.2 1.9-3.5.1.5-1.2.7-1.2 1.4-.1.7 1 .9 1 .9 0m4.4 2c-.9 1.4-2.3-.2-1.7-1.8.4-1.2.8-1.3 1.4-.3.4.7.5 1.7.3 2.1m-15 .9c-.3.5-1 .7-1.5.3-.5-.3-.7-1-.3-1.5.3-.5 1-.7 1.5-.3.5.3.7 1 .3 1.5m-5.9-.2c-.9.8-3.6 1-3 .2.2-.4 1.1-.8 2-.8.8 0 1.3.3 1 .6m15 1c-.9.8-3.6 1-3 .2.2-.4 1.1-.8 2-.8.8 0 1.3.3 1 .6m7.9-.1c.3.5-.1.9-.9.9s-1.2-.4-.9-.9c.3-.4.7-.8.9-.8s.6.4.9.8m-15 2.3c-.3.5-1 .7-1.5.3-.5-.3-.7-1-.3-1.5.3-.5 1-.7 1.5-.3.5.3.7 1 .3 1.5m-9.4-.5c0 .8-1.9 1.3-2.4.6-.3-.5.1-.9.9-.9s1.5.2 1.5.3m14.2 2.3c-.4 1-.7 1.1-1 .3-.3-.9-.9-.9-2.5-.1-2 .9-2 .9-.5-.4 2.3-1.9 4.8-1.8 4 .2m-1 2.9c.3-.8.7-.6 1.1.4.4 1.3.1 1.6-1.5 1.3-1.2-.3-2.6-1-3.2-1.6-.8-.9-.6-.9 1.1 0 1.6.8 2.2.8 2.5-.1m10.9 1.5c-1 .9-1.1.8-.5-.6.3-1 .9-1.5 1.2-1.2s0 1.1-.7 1.8m-14.7 1.8c-.3.5-1 .7-1.5.3-.5-.3-.7-1-.3-1.5.3-.5 1-.7 1.5-.3.5.3.7 1 .3 1.5m7.2 1.1c.3.4-.1.5-1 .4-.8-.1-1.8-.5-2.2-.8-.3-.4.1-.5 1-.4.8.1 1.8.5 2.2.8m-9.2.6c.3.5-.1.9-.9.9s-1.2-.4-.9-.9c.3-.4.7-.8.9-.8s.6.4.9.8m9.9 2.9c-.3.7-.6 1.3-.8 1.3s-.5-.6-.8-1.3c-.3-.8.1-1.4.8-1.4s1.1.6.8 1.4m-1.2 5.6c-1 .9-1.1.8-.5-.6.3-1 .9-1.5 1.2-1.2s0 1.1-.7 1.8m-3.6 5.7c-.3.5-1.2 1-1.8 1-.7 0-.6-.4.3-1 1.9-1.2 2.3-1.2 1.5 0"/>
    </g>
</svg>
