<svg xmlns="http://www.w3.org/2000/svg" width="341.333" height="341.333" version="1.0" viewBox="0 0 256 256">
    <path fill="#e5e5e5" d="M15 54.9c0 1.3 9.3 16 10.1 16.1.7 0 10.9-15.2 10.9-16.3 0-.4-4.7-.7-10.5-.7s-10.5.4-10.5.9m19 .8c0 1-8.2 13.3-8.9 13.3-.3 0-1.6-1.7-2.8-3.8-1.2-2-3.2-5.2-4.4-7L15.8 55h9.1c5 0 9.1.3 9.1.7m6.2-.8c.9 2.4 10.4 16 11 15.8.7-.2 10.8-15.4 10.8-16.2 0-.3-5-.5-11.1-.5s-10.9.4-10.7.9m19.6.9C59.1 57.6 51.5 69 51 69s-8.1-11.4-8.8-13.2C42 55.4 46 55 51 55s9 .4 8.8.8m6.2-1.3C66 55.4 76.2 71 76.9 71 77.7 71 87 56.2 87 55c0-.6-4.5-1-10.5-1-5.8 0-10.5.2-10.5.5m18.1 3.7c-1.2 1.8-3.1 5-4.3 7-1.2 2.1-2.5 3.8-2.9 3.8-.7 0-8.9-12.4-8.9-13.5 0-.3 4.1-.5 9.1-.5h9.1zm8.2-2.8c.8 2.1 9.6 15.6 10.2 15.6.7 0 10.5-15.2 10.5-16.3 0-.4-4.8-.7-10.6-.7-8.5 0-10.5.3-10.1 1.4m18.7.4c0 1.1-7.8 13.2-8.4 13.2s-7.5-10.6-8.3-12.7c-.4-1 1.3-1.3 8.1-1.3 4.7 0 8.6.4 8.6.8m32.6-.6c2.8 5.1 10 15.7 10.6 15.5.7-.2 10.8-15.4 10.8-16.2 0-.3-5-.5-11.1-.5-8.5 0-10.9.3-10.3 1.2m19.2.6c-.9 2.2-8.2 13.2-8.7 13.2s-8.2-11.2-8.9-13.2c-.2-.4 3.8-.8 8.8-.8s9 .3 8.8.8m6.2-1.3c0 .9 10.2 16.5 10.9 16.5.8 0 10.1-14.8 10.1-16 0-.6-4.5-1-10.5-1-5.8 0-10.5.2-10.5.5m18.8 2.7c-.8 1.3-2.7 4.4-4.4 7-1.6 2.7-3.2 4.8-3.5 4.8-.6 0-8.9-12.6-8.9-13.6 0-.2 4.1-.4 9.1-.4h9.1zm7.5-1.9c.7 2 9.7 15.7 10.3 15.7S216 55.9 216 54.9c0-.5-4.8-.9-10.6-.9-8.3 0-10.5.3-10.1 1.3m18.7.5c0 1.1-7.8 13.2-8.4 13.2s-7.5-10.6-8.3-12.7c-.4-1 1.3-1.3 8.1-1.3 4.7 0 8.6.4 8.6.8m7-.8c0 1.2 9.3 15.9 10.1 15.9.7.1 10.9-15.1 10.9-16.2 0-.4-4.7-.7-10.5-.7-6 0-10.5.4-10.5 1m19 .7c0 .8-8.1 13.3-8.6 13.3-.7 0-8.4-11.9-8.4-12.9 0-.7 3.2-1.1 8.5-1.1 4.7 0 8.5.3 8.5.7M32.6 63.1l-5.4 8.4 10.5.3c5.8.1 10.8.1 11-.2.3-.3-8.8-15-10.2-16.5-.2-.2-2.9 3.4-5.9 8m14.1 7.5c-.2.3-4.3.4-9 .2l-8.5-.3 4.5-6.9 4.4-6.9 4.6 6.8c2.4 3.6 4.3 6.9 4 7.1m11.6-7.3-5.2 8.2 5.5.3c3 .2 7.8.2 10.8 0l5.5-.3-5.2-8.2C66.8 58.7 64.3 55 64 55s-2.8 3.7-5.7 8.3m10.4.5 4.2 6.7-4.5.3c-2.4.2-6.4.2-8.9 0l-4.4-.3 4.2-6.8C61.6 60 63.7 57 64 57s2.4 3.1 4.7 6.8m15.4-.7c-2.8 4.4-5.1 8.2-5.1 8.5 0 .2 4.9.4 11 .4h11l-5.1-8c-2.8-4.4-5.5-8.2-5.9-8.5-.4-.2-3.1 3.2-5.9 7.6m11.3 2.1 3.7 5.8h-9.2c-5 0-8.9-.3-8.7-.8.2-.4 2.1-3.6 4.2-7 4.5-7.1 4.2-7.2 10 2m14.7-2.4c-2.8 4.3-5.1 8.1-5.1 8.5s4.7.7 10.5.7 10.5-.3 10.5-.7c0-.7-10-16.3-10.5-16.3-.1 0-2.6 3.5-5.4 7.8m9.8.5c2.2 3.5 4.1 6.6 4.1 7s-3.8.7-8.5.7-8.5-.3-8.5-.7c0-.7 8-13.3 8.5-13.3.1 0 2.1 2.8 4.4 6.3m15.7-.2-5.4 8.4 10.5.3c5.8.1 10.8.1 11-.2.3-.3-8.8-15-10.2-16.5-.2-.2-2.9 3.4-5.9 8m10.4.8c2.3 3.5 3.9 6.5 3.7 6.8-.3.2-4.3.3-9 .1l-8.5-.3 4.5-6.9c2.4-3.7 4.6-6.6 4.8-6.4.3.2 2.3 3.3 4.5 6.7m15.3-.6-5.2 8.2 5.5.3c3 .2 7.8.2 10.8 0l5.5-.3-5.2-8.2c-2.9-4.6-5.4-8.3-5.7-8.3s-2.8 3.7-5.7 8.3m10.4.5 4.2 6.7-4.5.3c-2.4.2-6.4.2-8.8 0l-4.5-.3 4.2-6.7c2.3-3.7 4.4-6.8 4.7-6.8s2.4 3.1 4.7 6.8m15.8-1.2c-2.8 4.3-5.1 8.2-5.3 8.6s4.6.8 10.7.8H204l-3.7-6c-2.1-3.3-4.7-7.2-5.8-8.6l-2-2.6zm10.9 2.6 3.7 5.8h-9.2c-5 0-8.9-.4-8.7-.8.2-.5 2.1-3.6 4.3-7 4.5-6.9 4.2-7 9.9 2m14.7-2.4c-2.8 4.3-5.1 8.1-5.1 8.5s4.7.7 10.5.7 10.5-.3 10.5-.7c0-.7-10-16.3-10.5-16.3-.1 0-2.6 3.5-5.4 7.8m9.8.5c2.2 3.5 4.1 6.6 4.1 7s-3.8.7-8.5.7-8.5-.3-8.5-.7c0-.7 8-13.3 8.5-13.3.1 0 2.1 2.8 4.4 6.3M2 73.9c0 1 9.8 16.1 10.4 16.1S22 76.3 22.7 74.3c.4-1-1.8-1.3-10.1-1.3-5.8 0-10.6.4-10.6.9m19 .8c0 .8-8.1 13.3-8.6 13.3C11.7 88 4 75.8 4 74.8c0-.4 3.8-.8 8.5-.8s8.5.3 8.5.7m7-.7c0 1.2 9.3 16 10.1 16C38.8 90 49 74.4 49 73.5c0-.3-4.7-.5-10.5-.5-6 0-10.5.4-10.5 1m19 .4c0 1-8.3 13.6-8.9 13.6-.3 0-1.9-2.1-3.5-4.8-1.7-2.6-3.6-5.7-4.4-7L28.8 74h9.1c5 0 9.1.2 9.1.4m6-.9c0 .8 10.1 16 10.8 16.2.6.2 3-3.2 10-14.5l1.4-2.2H64.1c-6.1 0-11.1.2-11.1.5m18.3 3.7C67.6 83.4 64.5 88 63.9 88c-.5 0-7.8-10.9-8.7-13.2-.2-.5 3.8-.8 8.8-.8h9.2zm7.7-3.5C79 74.5 89.1 90 89.6 90c.7 0 10.4-14.9 10.4-16 0-.6-3.9-1-10.5-1-5.8 0-10.5.3-10.5.7m19 1.4c0 1-7.7 12.9-8.4 12.9-.5 0-8.6-12.5-8.6-13.3 0-.4 3.8-.7 8.5-.7 5.3 0 8.5.4 8.5 1.1m7-1.4c0 1 9.8 16.3 10.4 16.3s9.5-13.7 10.3-15.7c.4-1-1.8-1.3-10.1-1.3-5.8 0-10.6.3-10.6.7m18.7 1.6c-.8 2.1-7.7 12.7-8.3 12.7S107 75.9 107 74.8c0-.4 3.9-.8 8.6-.8 6.8 0 8.5.3 8.1 1.3m7.3-1.4c0 1.3 9.3 16.1 10.1 16.1.7 0 10.9-15.6 10.9-16.5 0-.3-4.7-.5-10.5-.5s-10.5.4-10.5.9m19 .6c0 1.1-8.2 13.5-8.9 13.5-.4 0-1.7-1.7-2.9-3.8-1.2-2-3.1-5.2-4.3-7l-2.1-3.2h9.1c5 0 9.1.2 9.1.5m6-1c0 .8 10.1 16 10.8 16.2.6.2 7.8-10.4 10.6-15.5.6-.9-1.8-1.2-10.3-1.2-6.1 0-11.1.2-11.1.5m19.8 1.3c-.7 2-8.4 13.2-8.9 13.2s-7.8-11-8.7-13.2c-.2-.5 3.8-.8 8.8-.8s9 .4 8.8.8m6.2-1.1c0 1.1 10.2 16.3 10.9 16.2.8 0 10.1-14.7 10.1-15.9 0-.6-4.5-1-10.5-1-5.8 0-10.5.3-10.5.7m18.1 3.5c-1.2 1.8-3.2 5-4.4 7-1.2 2.1-2.5 3.8-2.8 3.8-.7 0-8.9-12.3-8.9-13.3 0-.4 4.1-.7 9.1-.7h9.1zm7.9-3.5c0 1.1 9.8 16.3 10.5 16.3.6 0 9.4-13.5 10.2-15.6.4-1.1-1.6-1.4-10.1-1.4-5.8 0-10.6.3-10.6.7m18.7 1.6c-.8 2.1-7.7 12.7-8.3 12.7S210 75.9 210 74.8c0-.4 3.9-.8 8.6-.8 6.8 0 8.5.3 8.1 1.3m7.3-1.4c0 1.3 9.3 16.1 10.2 16.1.6 0 10.8-15.4 10.8-16.4 0-.4-4.7-.6-10.5-.6s-10.5.4-10.5.9m19 .6c0 1.1-8.2 13.5-8.9 13.5-.4 0-1.7-1.7-2.9-3.8-1.2-2-3.1-5.2-4.3-7l-2.1-3.2h9.1c5 0 9.1.2 9.1.5M20 81.7c-2.8 4.3-5 8.1-5 8.5 0 .5 4.7.8 10.5.8s10.5-.2 10.5-.5C36 89.8 25.8 74 25.4 74c-.3 0-2.7 3.5-5.4 7.7m10 .9c2.3 3.6 3.9 6.8 3.7 7-.2.3-4.3.4-8.9.2l-8.5-.3 4.4-6.8C23 79 25.2 76 25.4 76s2.3 3 4.6 6.6m15.3-.3-5.2 8.2 5.5.3c3 .2 7.9.2 11 0l5.5-.3-5.3-8.2C53.9 77.7 51.3 74 51 74s-2.8 3.7-5.7 8.3m10.5.4 4.3 6.8-4.6.3c-2.5.2-6.5.2-8.9 0l-4.5-.3 4.2-6.7c2.3-3.7 4.4-6.7 4.7-6.8.3 0 2.4 3 4.8 6.7m15.4-.6c-2.9 4.5-5.1 8.3-4.9 8.5.2.3 5.2.3 11 .2l10.6-.3-5.2-8.2c-2.9-4.5-5.4-8.2-5.7-8.2s-2.9 3.6-5.8 8m10.5.7 4.2 6.7-8.6.3c-4.7.2-8.8.1-9-.2-.5-.5 7.9-13.6 8.7-13.5.3 0 2.4 3 4.7 6.7m15.4-.9c-2.8 4.4-5.1 8.2-5.1 8.5 0 .4 4.8.6 10.6.6 8.3 0 10.5-.3 10.1-1.3C112.1 88 103 74 102.5 74c-.1 0-2.6 3.6-5.4 7.9m9.5-.2c5.6 8.7 5.8 8.3-4 8.3-4.7 0-8.6-.2-8.6-.5 0-.8 8.1-13.5 8.6-13.5.2 0 2 2.6 4 5.7m16.8-.6c-6.8 10.6-7.2 9.9 5 9.9 5.8 0 10.6-.2 10.6-.5 0-.7-10.1-16.5-10.6-16.5-.2 0-2.5 3.2-5 7.1m9.6 1.5c2.3 3.6 3.9 6.8 3.7 7-.2.3-4.3.4-8.9.2l-8.5-.3 4.4-6.8c2.3-3.7 4.5-6.7 4.7-6.7s2.3 3 4.6 6.6m15.3-.3-5.2 8.2 5.4.3c3 .2 8 .2 11.1 0l5.5-.3-5.3-8.2c-2.9-4.6-5.5-8.3-5.8-8.2-.3 0-2.8 3.7-5.7 8.2m10.5.3c2.4 3.6 4.1 6.8 3.9 7-.2.3-4.3.4-9 .2l-8.6-.3 4.2-6.7c2.3-3.7 4.4-6.7 4.7-6.7s2.4 2.9 4.8 6.5m15.4-.3-5.3 8.2 5.5.3c3.1.2 8.1.2 11.1 0l5.4-.3-5.2-8.2c-2.9-4.5-5.4-8.2-5.7-8.2-.3-.1-2.9 3.6-5.8 8.2m10.5.5 4.2 6.7-8.6.3c-4.7.2-8.8.1-9-.2-.5-.5 7.9-13.6 8.7-13.5.3 0 2.4 3 4.7 6.7m15.4-.8c-2.8 4.5-5.1 8.3-5.1 8.5 0 .3 4.8.5 10.6.5 8.5 0 10.5-.3 10.1-1.4-.7-1.8-9.6-15.6-10.1-15.6-.2 0-2.7 3.6-5.5 8m10.7 1.5 4.1 6.5H206c-5 0-9-.2-9-.5 0-1.4 8.3-13.4 9-13 .4.2 2.6 3.4 4.8 7m15.6-2.3c-2.5 4-4.8 7.8-5.1 8.5-.4 1 1.8 1.3 10.1 1.3 5.8 0 10.6-.2 10.6-.6 0-.7-10.1-16.4-10.5-16.4-.2 0-2.5 3.2-5.1 7.2m9.5 1.3c2.3 3.5 4.1 6.7 4.1 7s-3.9.5-8.6.5c-6.8 0-8.5-.3-8.1-1.3.7-1.8 7.7-12.7 8.1-12.7.2 0 2.3 2.9 4.5 6.5M15 93c0 1.2 9.3 15.9 10.2 15.9.6.1 10.8-15.3 10.8-16.3 0-.4-4.7-.6-10.5-.6-6 0-10.5.4-10.5 1m19 .7c0 1-8.2 13.3-8.9 13.3-.3 0-1.6-1.7-2.8-3.8-1.2-2-3.2-5.2-4.4-7L15.8 93h9.1c5 0 9.1.3 9.1.7m6.6-.5C42.7 97 50.6 109 51 109c.5 0 10.2-14.4 10.8-16.1.2-.5-4.6-.9-10.8-.9-8.6 0-11 .3-10.4 1.2m19.2.6c-.7 1.8-8.3 13.2-8.8 13.2s-3.8-4.9-7.3-10.8L41.8 93H51c5 0 9 .4 8.8.8m7.5-.4c1.6 4 61 91.7 61.7 91 .4-.5 2.8-4 5.3-7.8l4.5-6.9-19.9-29.8L99 110h29c15.9 0 29 .2 29 .5s-5.5 8.7-12.2 18.7c-6.7 10.1-12.1 18.7-12.1 19.3 0 1.8 9.6 15.6 10.3 14.8 1.3-1.4 47-70.3 47-70.8 0-.3-27.7-.5-61.6-.5-52.6 0-61.5.2-61.1 1.4m128-.1c.8 2 9.7 15.7 10.3 15.7S216 93.7 216 92.7c0-.4-4.8-.7-10.6-.7-8.3 0-10.5.3-10.1 1.3m18.7.5c0 1-7.7 13.2-8.4 13.2-.5 0-8.6-12.5-8.6-13.3 0-.4 3.8-.7 8.5-.7s8.5.4 8.5.8m7-.9c0 .9 9.7 16.1 10.4 16.1.5 0 10.6-15.5 10.6-16.3 0-.4-4.7-.7-10.5-.7s-10.5.4-10.5.9m19 .8c0 .8-8.1 13.3-8.6 13.3-.7 0-8.4-11.9-8.4-12.9 0-.7 3.2-1.1 8.5-1.1 4.7 0 8.5.3 8.5.7m-207.4 7.5-5.6 8.3 10.6.3c5.9.1 10.9.1 11.1-.2.3-.3-8.8-15-10.2-16.4-.2-.2-2.9 3.4-5.9 8m10.4.7c2.3 3.5 3.9 6.5 3.7 6.8-.3.2-4.3.3-9.1.1l-8.6-.3 4.6-6.8c2.5-3.8 4.7-6.7 5-6.5.2.2 2.2 3.3 4.4 6.7m15.3-.7-5.3 8.3 5.5.3c3 .2 7.9.2 10.9 0l5.5-.3-5.2-8.2C66.8 96.7 64.3 93 64 93s-2.9 3.7-5.7 8.2m10.4.5 4.2 6.8-4.4.3c-2.5.2-6.5.2-9 0l-4.4-.3 4.2-6.8C61.6 98 63.7 95 64 95s2.4 3 4.7 6.7m118.5-.7c-2.9 4.5-5.2 8.3-5.2 8.6 0 .2 5 .4 11 .4h11l-3.7-6c-2.1-3.3-4.7-7.2-5.8-8.6l-2.1-2.6zm10.3.7 4.5 6.8-8.6.3c-4.8.2-8.8.1-9.1-.1-.4-.4 7.7-13.7 8.4-13.7.1 0 2.3 3 4.8 6.7m15.6-.9c-2.8 4.3-5.1 8.1-5.1 8.5s4.8.7 10.6.7c8.3 0 10.5-.3 10.1-1.3-.6-1.7-9.7-15.7-10.1-15.7-.2 0-2.7 3.5-5.5 7.8m9.8.5c2.2 3.5 4.1 6.6 4.1 7s-3.8.7-8.5.7-8.5-.3-8.5-.7c0-.7 8-13.3 8.5-13.3.1 0 2.1 2.8 4.4 6.3M28.2 113.2c.8 1.3 3.3 5.1 5.4 8.5 2.1 3.5 4.2 6.3 4.5 6.3.6 0 10.9-15.7 10.9-16.6 0-.2-5-.4-11.1-.4H26.8zm18.6-.4c-1 2.4-8.2 13.2-8.8 13.2-.3 0-1.6-1.7-2.8-3.8-1.2-2-3.1-5.2-4.3-7l-2.1-3.2H38c5 0 9 .3 8.8.8m6.2-1.3c0 .8 10.1 16 10.8 16.2.6.2 3-3.2 10-14.5l1.4-2.2H64.1c-6.1 0-11.1.2-11.1.5m18.8 2.7c-.8 1.3-2.7 4.4-4.4 7-1.6 2.7-3.1 4.8-3.4 4.8-.5 0-8.1-11.4-8.8-13.2-.2-.4 3.8-.8 8.8-.8h9.2zm110.2-2.6c0 .7 10.1 16.4 10.6 16.4.7 0 10.4-14.9 10.4-16 0-.6-3.9-1-10.5-1-5.8 0-10.5.2-10.5.6m19.4 1.6c-1.9 3.2-8.5 12.8-8.8 12.8-.5 0-8.6-12.7-8.6-13.5 0-.3 4.1-.5 9.1-.5 6.9 0 8.8.3 8.3 1.2m6.9-.8c.8 2 9.6 15.6 10.1 15.6.6 0 9.6-13.7 10.3-15.7.4-1-1.8-1.3-10.2-1.3-8.6 0-10.6.3-10.2 1.4m18.4.9c-1.3 3.5-7.9 12.7-8.7 12.2-1-.6-8-11.9-8-12.9 0-.3 3.9-.6 8.6-.6 6.8 0 8.5.3 8.1 1.3m-181.4 7-5.2 8.2 10.6.3c5.8.1 10.8.1 11-.2.5-.5-9.9-16.6-10.7-16.6-.3 0-2.8 3.7-5.7 8.3m10.5.3c2.4 3.6 4.1 6.8 3.9 7-.2.3-4.3.4-9 .2l-8.5-.3 4.1-6.7c2.3-3.7 4.4-6.8 4.7-6.8s2.4 3 4.8 6.6m15.4-.5c-2.9 4.5-5.1 8.3-4.9 8.5.2.3 5.2.3 11 .2l10.6-.3-5.2-8.2c-2.9-4.6-5.4-8.3-5.7-8.3s-2.9 3.7-5.8 8.1m10.5.7 4.2 6.7-8.6.3c-4.7.2-8.8.1-9-.2-.5-.5 7.9-13.6 8.7-13.5.3 0 2.4 3 4.7 6.7m92.5-.7c-2.9 4.5-5.1 8.3-4.9 8.5.2.3 5.2.3 11 .2l10.6-.3-5.2-8.2c-2.9-4.6-5.4-8.3-5.7-8.3s-2.9 3.7-5.8 8.1m10.5.7 4.1 6.7-8.5.3c-4.7.2-8.8.1-9-.2-.5-.5 7.9-13.6 8.7-13.6.3 0 2.4 3.1 4.7 6.8m15.4-.9c-2.8 4.4-5.1 8.2-5.1 8.5 0 .4 4.7.6 10.5.6s10.5-.3 10.5-.8c0-.9-9.8-16.2-10.4-16.2-.2 0-2.7 3.6-5.5 7.9m10.7 1.6 4.1 6.5H206c-5 0-9-.2-9-.5 0-1.4 8.3-13.4 9-13 .4.2 2.6 3.4 4.8 7M66 130.4c0 .9 10.3 16.6 10.9 16.6.3 0 2.1-2.4 3.8-5.3 1.8-2.9 4.2-6.7 5.4-8.5l2.1-3.2H77.1c-6.1 0-11.1.2-11.1.4m18.1 3.8c-1.2 1.8-3.2 5-4.4 7-1.2 2.1-2.5 3.8-2.8 3.8-.6 0-8.9-12.6-8.9-13.6 0-.2 4.1-.4 9.1-.4h9.1zm84.9-3.8c0 .9 10.3 16.6 10.9 16.6.3 0 2.1-2.4 3.8-5.3 1.8-2.8 4.2-6.7 5.4-8.5l2.1-3.2h-11.1c-6.1 0-11.1.2-11.1.4m18.1 3.8c-1.2 1.8-3.2 5-4.4 7-1.2 2.1-2.5 3.8-2.8 3.8-.5 0-7.8-11-8.7-13.2-.2-.5 3.8-.8 8.8-.8h9.2zm-128.9 5.1-5.3 8.2 5.5.3c3.1.2 8.1.2 11.1 0l5.5-.3-5.3-8.3c-2.8-4.5-5.4-8.2-5.7-8.2s-2.9 3.7-5.8 8.3m10.5.4 4.2 6.8-4.4.3c-2.5.2-6.5.2-9 0l-4.6-.3 4.3-6.8c2.4-3.7 4.5-6.7 4.8-6.7s2.4 3 4.7 6.7m15.4-.7c-2.8 4.5-5.1 8.3-5.1 8.5 0 .3 4.7.5 10.5.5 6.6 0 10.5-.4 10.5-1 0-1.1-9.7-16-10.4-16-.2 0-2.7 3.6-5.5 8m10.4.7 4.5 6.8-8.6.3c-4.8.2-8.8.1-9.1-.1-.4-.5 7.6-13.7 8.3-13.7.2 0 2.4 3 4.9 6.7m66.8-.5-5.3 8.3 5.5.3c3 .2 8 .2 11 0l5.5-.3-5.3-8.3c-2.8-4.5-5.4-8.2-5.7-8.2s-2.9 3.7-5.7 8.2m10.5.5 4.3 6.8-4.6.3c-2.5.2-6.5.2-9 0l-4.6-.3 4.3-6.8c2.4-3.7 4.5-6.7 4.8-6.7s2.4 3 4.8 6.7m15.3-.6c-2.8 4.5-5 8.3-4.8 8.6.3.2 5.2.2 11 .1l10.6-.3-5.2-8.2c-2.9-4.5-5.5-8.2-5.8-8.2-.4-.1-3 3.6-5.8 8m10.4.6 4.5 6.8-8.6.3c-4.8.2-8.8.1-9.1-.1-.4-.5 7.6-13.7 8.3-13.7.2 0 2.4 3 4.9 6.7M79 149.6c0 .7 10.1 16.4 10.6 16.4.7 0 10.4-15.1 10.4-16.1 0-.5-4.7-.9-10.5-.9s-10.5.2-10.5.6m16.4 6.1c-5.9 9.4-5.6 9.3-10.3 1.9-2.2-3.6-4.1-6.8-4.1-7.1s4.1-.5 9-.5h9.1zm61.2-5.5c2 3.8 10 15.8 10.4 15.8.3 0 2.3-2.8 4.4-6.3 2.1-3.4 4.6-7.2 5.4-8.5l1.4-2.2h-11.1c-8.7 0-11.1.3-10.5 1.2m18.2 2c-.8 1.3-2.7 4.4-4.4 7-1.6 2.7-3.1 4.8-3.4 4.8-.5 0-8.1-11.4-8.8-13.2-.2-.4 3.8-.8 8.8-.8h9.2zm-103.6 5.9c-2.9 4.5-5.1 8.3-4.9 8.6.3.2 5.2.2 11 .1l10.6-.3-5.2-8.2c-2.9-4.6-5.4-8.3-5.7-8.3s-2.9 3.7-5.8 8.1m10.5.7 4.1 6.7-8.5.3c-4.7.2-8.7.1-9-.1-.5-.5 7.8-13.7 8.6-13.7.3 0 2.5 3.1 4.8 6.8m15.4-1c-2.8 4.3-5.1 8.1-5.1 8.5s4.7.7 10.5.7 10.5-.3 10.5-.8c0-.9-9.8-16.2-10.3-16.2-.3 0-2.8 3.5-5.6 7.8m9.9.4c2.2 3.3 4 6.5 4 7 0 .4-3.8.8-8.5.8s-8.5-.3-8.5-.7c0-.8 8.1-13.3 8.6-13.3.3 0 2.2 2.8 4.4 6.2m41.3.1-5.2 8.2 10.6.3c5.8.1 10.8.1 11-.2.5-.4-9.5-16-10.5-16.3-.4-.2-3 3.4-5.9 8m10.5.3c2.4 3.6 4.1 6.8 3.9 7-.2.3-4.3.4-9 .2l-8.5-.3 4.1-6.7c2.3-3.7 4.4-6.8 4.7-6.8s2.4 3 4.8 6.6m15.4-.5c-2.9 4.5-5.1 8.3-4.9 8.6.3.2 5.2.2 11 .1l10.6-.3-5.2-8.2c-2.9-4.6-5.4-8.3-5.7-8.3s-2.9 3.7-5.8 8.1m10.5.7 4.1 6.7-8.5.3c-4.7.2-8.8.1-9-.2-.5-.5 7.9-13.6 8.7-13.6.3 0 2.4 3.1 4.7 6.8M66 168.4c0 .9 10.3 16.6 10.9 16.6.3 0 2.1-2.4 3.8-5.3 1.8-2.9 4.2-6.7 5.4-8.5l2.1-3.2H77.1c-6.1 0-11.1.2-11.1.4m19.4 1.8c-2.6 4.4-8.6 12.9-9 12.6-.8-.8-8.4-12.9-8.4-13.3 0-.3 4.1-.5 9.1-.5 6.9 0 8.8.3 8.3 1.2m6.6-1.5c0 .8 10.1 16.3 10.6 16.3.4 0 9.5-14 10.1-15.7.4-1-1.8-1.3-10.1-1.3-5.8 0-10.6.3-10.6.7m18.7 1.6c-.7 1.8-7.7 12.7-8.1 12.7-.5 0-8.6-12.5-8.6-13.3 0-.4 3.9-.7 8.6-.7 6.8 0 8.5.3 8.1 1.3m33.5-.1c.8 1.3 3.3 5.1 5.4 8.5 2.1 3.5 4.1 6.3 4.4 6.3.4 0 8.4-12 10.4-15.8.6-.9-1.8-1.2-10.5-1.2h-11.1zm18.6-.4c-.7 1.9-8.3 13.2-8.9 13.2-.3 0-1.5-1.7-2.7-3.8-1.2-2-3.1-5.2-4.3-7l-2.1-3.2h9.2c5 0 9 .4 8.8.8m6.2-1.3c0 .8 10.1 16 10.8 16.2.4.1 2.2-2.1 3.9-5 1.8-2.9 4.2-6.7 5.4-8.5l2.1-3.2h-11.1c-6.1 0-11.1.2-11.1.5m18.1 3.7c-1.2 1.8-3.2 5-4.4 7-1.2 2.1-2.5 3.8-2.8 3.8-.5 0-7.8-11-8.7-13.2-.2-.5 3.8-.8 8.8-.8h9.2zm-103 4.8c-2.8 4.5-5.1 8.3-5.1 8.5 0 .3 4.7.5 10.5.5 6 0 10.5-.4 10.5-1 0-1.2-9.3-15.9-10.1-15.9-.4-.1-3 3.5-5.8 7.9m10.4.7 4.5 6.8-8.6.3c-4.8.2-8.9.1-9.1-.2-.5-.4 7.5-13.6 8.3-13.6.2 0 2.4 3 4.9 6.7m15.9-1.6c-6.8 10.7-7.2 9.9 5.1 9.9 8.4 0 10.6-.3 10.2-1.3-.7-2-9.7-15.7-10.3-15.7-.2 0-2.5 3.2-5 7.1m9.2.6c5.6 8.7 5.8 8.3-4.1 8.3-6.8 0-8.6-.3-8.2-1.3.7-2 7.7-12.7 8.2-12.7.2 0 2.1 2.6 4.1 5.7m16.2-.1c-2.7 4.1-4.8 7.9-4.8 8.4 0 .6 4.5 1 10.5 1 5.8 0 10.5-.2 10.5-.5 0-1-10.2-16.5-10.9-16.4-.3 0-2.7 3.4-5.3 7.5m10.2 1c2.3 3.6 3.9 6.8 3.7 7-.2.3-4.3.4-9 .2l-8.6-.3 4.2-6.7c2.3-3.7 4.5-6.7 4.9-6.8.3 0 2.5 3 4.8 6.6m15.2-.3-5.3 8.2 5.5.3c3.1.2 8.1.2 11.2 0l5.5-.3-5.3-8.2c-2.9-4.6-5.5-8.3-5.8-8.3s-2.9 3.7-5.8 8.3m10.3-.1c2.2 3.4 4.2 6.5 4.3 7 .2.4-3.8.8-8.8.8s-9-.4-8.8-.8c.7-1.8 8.3-13.2 8.8-13.2.3 0 2.3 2.8 4.5 6.2M79 187.5c0 .7 10.2 16.5 10.6 16.5.6 0 10.4-15.3 10.4-16.3 0-.4-4.7-.7-10.5-.7s-10.5.2-10.5.5m16.4 6.2c-5.9 9.4-5.6 9.3-10.3 1.9-2.2-3.6-4.1-6.8-4.1-7.1s4.1-.5 9-.5h9.1zm9.9-5.4c.6 1.7 9.7 15.7 10.1 15.7.5 0 10.6-15.5 10.6-16.3 0-.4-4.8-.7-10.6-.7-8.3 0-10.5.3-10.1 1.3m18.7.4c0 .8-8.1 13.3-8.6 13.3-.4 0-7.4-10.9-8.1-12.7-.4-1 1.3-1.3 8.1-1.3 4.7 0 8.6.3 8.6.7m7.9 1.5c1.2 1.8 3.6 5.6 5.4 8.5 1.7 2.9 3.5 5.1 3.9 5 .7-.2 10.8-15.4 10.8-16.2 0-.3-5-.5-11.1-.5h-11.1zm18.1-1.7c0 .4-7.6 12.5-8.4 13.3-.4.3-6.4-8.2-9-12.6-.5-.9 1.4-1.2 8.3-1.2 5 0 9.1.2 9.1.5m7.2.7c6.5 10.5 9.4 14.8 9.8 14.8.3 0 2.3-2.8 4.4-6.3 2.1-3.4 4.6-7.2 5.4-8.5l1.4-2.2h-22.4zm16.9 2c-1.2 1.8-3.1 5-4.3 7-1.2 2.1-2.4 3.8-2.7 3.8-.6 0-3.8-4.7-7.4-10.8l-1.9-3.2h18.4zm-77 4.6c-2.8 4.3-5.1 8.1-5.1 8.5s4.7.7 10.5.7 10.5-.4 10.5-.9c0-.9-9.7-16.1-10.4-16.1-.2 0-2.7 3.5-5.5 7.8m9.9.4c2.2 3.3 4 6.5 4 7 0 .4-3.8.8-8.5.8s-8.5-.3-8.5-.7c0-.8 8.1-13.3 8.6-13.3.3 0 2.2 2.8 4.4 6.2m16-.6c-2.8 4.2-5 8-5 8.5s4.7.9 10.5.9 10.5-.3 10.5-.7c0-.8-10.1-16.3-10.6-16.3-.3 0-2.7 3.4-5.4 7.6m9.9.7c2.2 3.5 4.1 6.6 4.1 7s-3.8.7-8.5.7-8.5-.4-8.5-.8c0-1 7.7-13.2 8.4-13.2.2 0 2.2 2.8 4.5 6.3m15.4 0-5.2 8.2 10.6.3c5.8.1 10.7.1 11-.1.5-.5-9.8-16.7-10.6-16.7-.3 0-2.9 3.7-5.8 8.3m10.6.3c2.3 3.7 4 6.8 3.8 7.1-.3.2-4.3.3-9 .1l-8.6-.3 4.2-6.8c2.3-3.7 4.4-6.7 4.8-6.7.3 0 2.4 3 4.8 6.6M92 206.7c0 .8 10.1 16.3 10.6 16.3.4 0 9.5-14 10.1-15.7.4-1-1.8-1.3-10.1-1.3-5.8 0-10.6.3-10.6.7m19 1c0 .7-8 13.3-8.5 13.3S94 208.4 94 207.7c0-.4 3.8-.7 8.5-.7s8.5.3 8.5.7m33.9 1.5c1.2 1.8 3.6 5.7 5.4 8.5 1.7 2.9 3.4 5.3 3.7 5.3.4 0 3.2-4.2 9.8-14.8l1.4-2.2h-22.4zm16.4 1c-3.6 6.1-6.8 10.8-7.4 10.8-.3 0-1.5-1.7-2.7-3.8-1.2-2-3.1-5.2-4.3-7l-2.1-3.2h18.4z"/>
</svg>
