<svg xmlns="http://www.w3.org/2000/svg" width="341.333" height="341.333" version="1.0" viewBox="0 0 256 256">
    <g fill="#e5e5e5">
        <path d="M1.6 69.2c.4.7 18.3 27.7 39.7 60L80.2 188h11.9c6.6 0 11.9-.2 11.9-.5s-17.8-27.3-39.7-60L24.7 68H12.8c-9.3 0-11.8.3-11.2 1.2m33.4-.6c0 .4 17.8 27.4 39.5 60l39.4 59.4h28.6l38.8-58.7c21.4-32.2 39.1-59.2 39.4-59.9.4-1.1-1.7-1.4-11.1-1.4H198l-25 37.5c-13.7 20.6-25 37.7-25 38s.5.5 1.1.5 2.6.7 4.4 1.5c10.8 5.2 4 21.4-7.4 17.4-1.8-.6-4.1-2.5-5-4.1l-1.8-2.9-5.3 8.1c-2.9 4.4-5.5 8-5.9 8-.3 0-16.1-23.4-35.1-52L58.5 68.1 46.8 68c-6.5 0-11.8.3-11.8.6"/>
        <path d="M64.6 70.7C80.1 94.6 127.5 165 128 165c.4 0 3.1-3.6 5.9-7.9l5.2-7.9-20.5-30.9L98 87.5l29.6-.3c16.4-.1 29.9 0 30.1.2.3.2-5.4 9.2-12.6 20L132 127l5.2 8c2.9 4.4 5.5 8 5.8 8 .4-.1 40.3-59.5 48.3-72.1l1.9-2.9H62.8zm127.1 56.8c-21.9 32.7-39.7 59.7-39.7 60s5.3.5 11.9.5h11.9l38.9-58.8c21.4-32.3 39.3-59.3 39.7-60 .6-.9-1.9-1.2-11.2-1.2h-11.9zM145 149c-2.5 2.5-2.6 7.2-.2 9.3 2.7 2.5 7.8 2.2 9.6-.5 2.2-3.2 2-5.5-.9-8.3-2.9-3-5.8-3.2-8.5-.5m6.5 2.6c1.8 1.8 1.6 3.3-.7 4.7-3.5 2.2-6.6-2.1-3.6-5.1 1.6-1.6 2.3-1.5 4.3.4"/>
    </g>
</svg>
