<svg xmlns="http://www.w3.org/2000/svg" width="341.333" height="341.333" version="1.0" viewBox="0 0 256 256">
    <g fill="#e5e5e5">
        <path d="M109.5 28.2c-9.4 14.4-17.1 26.5-17.3 27-.2.4 3.8.8 9 .8h9.3l7.9-12c4.3-6.6 8.2-12 8.5-12 .6 0 60.8 91.5 62.4 94.9.7 1.4-5.9 12.1-27.5 45.2-15.6 23.9-29.7 45.5-31.3 48.1-1.7 2.7-3.3 4.8-3.6 4.8s-7.5-10.7-16.1-23.8c-28-42.7-41-62.6-44.4-67.8l-3.3-5.2 21.5-32.8c11.8-18 21.7-33.1 22-33.6.3-.4-3.7-.8-8.9-.8h-9.5L66.1 94.6l-22 33.5 1.7 2.7c13.3 21 80.6 123.2 81 123.2.2 0 11-16.2 42-63.5 23.3-35.4 40.2-61.7 40.2-62.4 0-.4-7.8-12.5-17.2-26.9-9.5-14.4-27.9-42.4-40.8-62.3-12.9-19.8-23.7-36.2-24-36.4s-8.2 11.4-17.5 25.7"/>
        <path d="M122.1 48.3c-2.2 3.5-4.1 6.9-4.1 7.5 0 .7 7.9 13.1 17.5 27.7l17.4 26.5H127c-14.3 0-26-.3-26-.6s4.4-7.2 9.8-15.3c13.9-20.5 13.1-18.1 8.2-25.7-2.3-3.5-4.6-6.4-5.1-6.4-.8 0-42.9 62.3-42.9 63.5 0 .3 25 .5 55.6.5 47.5 0 55.5-.2 55.1-1.4-.7-1.8-54.6-82.6-55.1-82.6-.2 0-2.2 2.8-4.5 6.3m-20.8 99.1c.3.8 8.3 13 17.7 27.1 15.7 23.5 17.3 25.5 18.5 23.8.8-1 1.5-2.1 1.5-2.6 0-.4-2.1-3.8-4.6-7.6l-4.6-6.9 11.1-16.6c6.1-9.1 11.1-17 11.1-17.6s-8.8-1-25.6-1c-21.7 0-25.5.2-25.1 1.4"/>
    </g>
</svg>
