<svg xmlns="http://www.w3.org/2000/svg" xml:space="preserve" viewBox="0 0 348 328">
    <path d="M348 260c-2.1 6.3-4 12.7-6.3 18.9-11.7 30.6-35.1 45.5-66.7 47-49.2 2.5-95.8-8.7-139.5-31.1-29.7-15.2-53.2-37.9-73.1-64.5C36.7 196 17.3 158.5 7.2 116.6c-3.1-12.1-5.1-24.5-5.9-36.9-.4-9.5.9-19 3.7-28C10.2 34.9 18.8 19.6 31.4 7c2.3-2.3 5.8-3.2 8.8-4.8.5 3.1 1.7 6.2 1.6 9.3-.4 11-1.8 21.9-1.7 32.9.3 27.8 6.5 54.2 20.3 78.5 8.3 14.5 20.9 24 36.8 28.8 18 5.5 36.5 9.1 55.4 9.1 17.6 0 35.1-1.1 52.6-1.9 26.7-1.2 51.2 6.2 74.2 19.4 18.6 10.8 35.9 23.6 51.6 38.3 7.1 6.4 12.2 14.7 14.8 23.9.6 1.9 1.4 3.7 2.3 5.5v14z"/>
</svg>
