<?xml version="1.0" standalone="no"?>
<!DOCTYPE svg PUBLIC "-//W3C//DTD SVG 20010904//EN"
 "http://www.w3.org/TR/2001/REC-SVG-20010904/DTD/svg10.dtd">
<svg version="1.0" xmlns="http://www.w3.org/2000/svg"
 width="32.000000pt" height="32.000000pt" viewBox="0 0 32.000000 32.000000"
 preserveAspectRatio="xMidYMid meet">
<metadata>
Created by potrace 1.16, written by Peter Selinger 2001-2019
</metadata>
<g transform="translate(0.000000,32.000000) scale(0.100000,-0.100000)"
fill="#e5e5e5" stroke="none">
<path d="M120 258 l0 -52 -41 39 -41 40 21 -42 c14 -28 17 -43 10 -43 -7 0 -5
-8 6 -20 10 -11 14 -20 9 -20 -5 0 -25 -14 -44 -30 l-35 -29 43 6 c48 6 50 2
21 -38 -25 -35 -20 -36 27 -4 47 32 51 31 59 -5 10 -45 22 -45 30 0 4 22 9 40
12 40 3 0 23 -14 45 -32 l40 -31 -26 51 -26 51 38 3 37 3 -42 23 c-24 12 -43
26 -43 30 0 5 14 21 30 37 42 40 37 50 -10 20 l-40 -25 -1 22 c-1 13 -1 28 0
33 0 6 -6 0 -15 -12 -22 -31 -31 -29 -39 7 -10 48 -25 35 -25 -22z"/>
</g>
</svg>
