<?xml version="1.0" standalone="no"?>
<!DOCTYPE svg PUBLIC "-//W3C//DTD SVG 20010904//EN"
 "http://www.w3.org/TR/2001/REC-SVG-20010904/DTD/svg10.dtd">
<svg version="1.0" xmlns="http://www.w3.org/2000/svg"
 width="32.000000pt" height="32.000000pt" viewBox="0 0 32.000000 32.000000"
 preserveAspectRatio="xMidYMid meet">
<metadata>
Created by potrace 1.16, written by Peter Selinger 2001-2019
</metadata>
<g transform="translate(0.000000,32.000000) scale(0.100000,-0.100000)"
fill="#e5e5e5" stroke="none">
<path d="M145 290 c-4 -11 -4 -34 0 -50 5 -25 4 -29 -9 -24 -9 3 -16 1 -16 -5
0 -7 -12 -3 -27 8 -33 23 -73 36 -73 24 0 -17 41 -53 59 -53 13 0 18 -8 19
-29 0 -24 -4 -30 -27 -34 -25 -5 -63 -57 -41 -57 20 0 64 22 76 38 8 11 13 12
14 5 0 -7 6 -13 14 -13 11 0 13 -9 10 -33 -3 -17 0 -39 6 -47 9 -13 12 -13 24
3 7 9 12 30 10 46 -3 29 22 53 35 33 9 -13 47 -32 65 -32 28 0 -4 50 -35 57
-39 7 -34 51 8 68 27 11 50 41 40 52 -8 7 -62 -18 -76 -35 -10 -12 -15 -14
-18 -4 -3 6 -11 12 -19 12 -10 0 -12 5 -7 13 10 16 10 38 0 60 -10 23 -24 22
-32 -3z m50 -110 c12 -20 -6 -50 -30 -50 -29 0 -50 31 -33 48 15 15 55 16 63
2z"/>
<path d="M150 160 c0 -5 4 -10 9 -10 6 0 13 5 16 10 3 6 -1 10 -9 10 -9 0 -16
-4 -16 -10z"/>
</g>
</svg>
