<?xml version="1.0" standalone="no"?>
<!DOCTYPE svg PUBLIC "-//W3C//DTD SVG 20010904//EN"
 "http://www.w3.org/TR/2001/REC-SVG-20010904/DTD/svg10.dtd">
<svg version="1.0" xmlns="http://www.w3.org/2000/svg"
 width="32.000000pt" height="32.000000pt" viewBox="0 0 32.000000 32.000000"
 preserveAspectRatio="xMidYMid meet">
<metadata>
Created by potrace 1.16, written by Peter Selinger 2001-2019
</metadata>
<g transform="translate(0.000000,32.000000) scale(0.100000,-0.100000)"
fill="#e5e5e5" stroke="none">
<path d="M115 271 c-37 -16 -65 -53 -65 -83 0 -6 7 -20 17 -30 17 -19 5 -26
-14 -7 -9 9 -16 7 -29 -6 -16 -16 -16 -18 -1 -27 20 -10 23 -34 5 -40 -16 -6
-1 -28 19 -28 9 0 21 7 27 16 11 14 16 14 48 -5 28 -17 41 -19 61 -12 14 5 28
15 32 20 9 16 35 13 35 -4 0 -17 18 -19 40 -5 13 8 13 11 1 19 -10 6 -12 20
-8 45 5 34 -4 48 -18 26 -3 -6 -11 -10 -17 -10 -6 0 -4 8 5 18 34 38 9 91 -54
116 -47 19 -36 19 -84 -3z m25 -60 c0 -24 -25 -45 -45 -37 -8 3 -15 17 -15 31
0 21 5 25 30 25 23 0 30 -5 30 -19z m100 -11 c0 -35 -18 -39 -44 -11 -22 24
-13 41 20 41 20 0 24 -5 24 -30z m-97 -76 c-5 -33 -4 -36 15 -30 25 8 39 -9
15 -18 -26 -10 -57 26 -49 58 10 40 26 31 19 -10z m58 15 c8 -15 8 -24 0 -32
-8 -8 -11 -5 -11 9 0 11 -5 25 -12 32 -9 9 -9 12 0 12 6 0 16 -9 23 -21z m-29
-14 c0 -5 -5 -11 -11 -13 -6 -2 -11 4 -11 13 0 9 5 15 11 13 6 -2 11 -8 11
-13z"/>
<path d="M290 130 c0 -5 5 -10 10 -10 6 0 10 5 10 10 0 6 -4 10 -10 10 -5 0
-10 -4 -10 -10z"/>
</g>
</svg>
