<?xml version="1.0" standalone="no"?>
<!DOCTYPE svg PUBLIC "-//W3C//DTD SVG 20010904//EN"
 "http://www.w3.org/TR/2001/REC-SVG-20010904/DTD/svg10.dtd">
<svg version="1.0" xmlns="http://www.w3.org/2000/svg"
 width="32.000000pt" height="32.000000pt" viewBox="0 0 32.000000 32.000000"
 preserveAspectRatio="xMidYMid meet">
<metadata>
Created by potrace 1.16, written by Peter Selinger 2001-2019
</metadata>
<g transform="translate(0.000000,32.000000) scale(0.100000,-0.100000)"
fill="#e5e5e5" stroke="none">
<path d="M156 270 c-23 -28 -36 -61 -48 -125 -4 -16 -8 -13 -21 18 -9 20 -20
37 -24 37 -4 0 -7 -29 -5 -64 3 -55 8 -68 33 -92 26 -25 29 -26 29 -8 0 10 9
32 19 48 11 16 17 36 14 44 -9 22 18 10 31 -14 6 -10 15 -22 20 -25 4 -4 5
-22 2 -40 l-7 -34 30 33 c39 41 39 67 0 126 -27 40 -30 53 -25 86 8 50 -11 54
-48 10z"/>
</g>
</svg>
