<?xml version="1.0" standalone="no"?>
<!DOCTYPE svg PUBLIC "-//W3C//DTD SVG 20010904//EN"
 "http://www.w3.org/TR/2001/REC-SVG-20010904/DTD/svg10.dtd">
<svg version="1.0" xmlns="http://www.w3.org/2000/svg"
 width="32.000000pt" height="32.000000pt" viewBox="0 0 32.000000 32.000000"
 preserveAspectRatio="xMidYMid meet">
<metadata>
Created by potrace 1.16, written by Peter Selinger 2001-2019
</metadata>
<g transform="translate(0.000000,32.000000) scale(0.100000,-0.100000)"
fill="#e5e5e5" stroke="none">
<path d="M100 287 c0 -7 13 -28 29 -48 l29 -35 -69 -70 c-71 -70 -85 -105 -46
-112 23 -5 47 16 105 92 l45 59 38 -40 38 -41 21 23 c12 13 20 29 18 35 -2 7
-31 43 -63 80 -56 64 -63 69 -102 69 -29 1 -43 -3 -43 -12z"/>
</g>
</svg>
