<?xml version="1.0" standalone="no"?>
<!DOCTYPE svg PUBLIC "-//W3C//DTD SVG 20010904//EN"
 "http://www.w3.org/TR/2001/REC-SVG-20010904/DTD/svg10.dtd">
<svg version="1.0" xmlns="http://www.w3.org/2000/svg"
 width="32.000000pt" height="32.000000pt" viewBox="0 0 32.000000 32.000000"
 preserveAspectRatio="xMidYMid meet">
<metadata>
Created by potrace 1.16, written by Peter Selinger 2001-2019
</metadata>
<g transform="translate(0.000000,32.000000) scale(0.100000,-0.100000)"
fill="#e5e5e5" stroke="none">
<path d="M47 232 c-22 -22 -27 -38 -27 -76 0 -26 5 -56 10 -67 16 -28 63 -49
115 -49 45 0 45 0 45 35 l0 35 -48 0 c-48 0 -82 20 -82 47 0 23 38 43 83 43
46 0 47 1 47 30 0 30 0 30 -58 30 -51 0 -62 -4 -85 -28z"/>
<path d="M210 230 c0 -20 5 -30 15 -30 10 0 15 10 15 30 0 20 -5 30 -15 30
-10 0 -15 -10 -15 -30z"/>
<path d="M275 230 c-3 -5 1 -10 9 -10 9 0 16 5 16 10 0 6 -4 10 -9 10 -6 0
-13 -4 -16 -10z"/>
<path d="M208 105 c-9 -10 5 -66 16 -62 17 6 20 67 3 67 -7 0 -16 -2 -19 -5z"/>
<path d="M270 80 c0 -5 4 -10 9 -10 6 0 13 5 16 10 3 6 -1 10 -9 10 -9 0 -16
-4 -16 -10z"/>
</g>
</svg>
