<?xml version="1.0" standalone="no"?>
<!DOCTYPE svg PUBLIC "-//W3C//DTD SVG 20010904//EN"
 "http://www.w3.org/TR/2001/REC-SVG-20010904/DTD/svg10.dtd">
<svg version="1.0" xmlns="http://www.w3.org/2000/svg"
 width="32.000000pt" height="32.000000pt" viewBox="0 0 32.000000 32.000000"
 preserveAspectRatio="xMidYMid meet">
<metadata>
Created by potrace 1.16, written by Peter Selinger 2001-2019
</metadata>
<g transform="translate(0.000000,32.000000) scale(0.100000,-0.100000)"
fill="#e5e5e5" stroke="none">
<path d="M23 305 c-3 -11 17 -39 61 -85 66 -68 74 -75 79 -65 3 7 -117 165
-126 165 -4 0 -10 -7 -14 -15z"/>
<path d="M248 243 c12 -2 22 -8 22 -13 0 -19 -55 -72 -118 -113 -115 -76 -145
-71 -76 14 l36 44 -46 -47 c-48 -48 -61 -93 -31 -104 24 -10 136 49 193 101
87 78 100 126 34 124 -24 -1 -29 -3 -14 -6z"/>
<path d="M180 219 c-17 -13 -18 -17 -5 -10 33 17 51 31 40 31 -5 0 -21 -10
-35 -21z"/>
<path d="M219 73 c5 -10 22 -29 37 -43 l28 -25 -30 42 c-29 42 -54 60 -35 26z"/>
</g>
</svg>
