<?xml version="1.0" standalone="no"?>
<!DOCTYPE svg PUBLIC "-//W3C//DTD SVG 20010904//EN"
 "http://www.w3.org/TR/2001/REC-SVG-20010904/DTD/svg10.dtd">
<svg version="1.0" xmlns="http://www.w3.org/2000/svg"
 width="32.000000pt" height="32.000000pt" viewBox="0 0 32.000000 32.000000"
 preserveAspectRatio="xMidYMid meet">
<metadata>
Created by potrace 1.16, written by Peter Selinger 2001-2019
</metadata>
<g transform="translate(0.000000,32.000000) scale(0.100000,-0.100000)"
fill="#e5e5e5" stroke="none">
<path d="M51 275 c-17 -20 -31 -44 -31 -55 0 -35 83 -41 103 -8 14 21 -8 98
-27 98 -8 0 -28 -16 -45 -35z"/>
<path d="M199 269 c-9 -29 -10 -46 -2 -57 20 -33 103 -27 103 8 0 23 -56 90
-76 90 -7 0 -19 -18 -25 -41z"/>
<path d="M142 198 c-16 -16 -15 -33 4 -48 22 -19 54 12 38 37 -14 22 -27 26
-42 11z"/>
<path d="M115 76 c-13 -22 -21 -44 -16 -49 14 -14 75 -19 104 -8 l29 11 -25
42 c-33 56 -60 58 -92 4z"/>
</g>
</svg>
