<?xml version="1.0" standalone="no"?>
<!DOCTYPE svg PUBLIC "-//W3C//DTD SVG 20010904//EN"
 "http://www.w3.org/TR/2001/REC-SVG-20010904/DTD/svg10.dtd">
<svg version="1.0" xmlns="http://www.w3.org/2000/svg"
 width="32.000000pt" height="32.000000pt" viewBox="0 0 32.000000 32.000000"
 preserveAspectRatio="xMidYMid meet">
<metadata>
Created by potrace 1.16, written by Peter Selinger 2001-2019
</metadata>
<g transform="translate(0.000000,32.000000) scale(0.100000,-0.100000)"
fill="#e5e5e5" stroke="none">
<path d="M17 263 c-15 -14 -7 -43 12 -43 27 0 35 17 17 35 -16 17 -20 18 -29
8z"/>
<path d="M99 255 c-30 -16 -52 -62 -48 -97 2 -12 0 -28 -3 -34 -10 -15 29 -55
47 -48 10 4 15 0 16 -12 0 -12 3 -14 6 -6 4 10 8 9 19 -5 13 -17 13 -17 14 2
l1 20 9 -20 c5 -11 9 -14 9 -6 1 7 7 11 16 7 9 -3 15 0 15 9 0 8 8 15 19 15
29 0 47 28 33 51 -7 10 -12 27 -11 36 0 16 2 15 10 -2 7 -15 8 -12 4 15 -10
72 -91 111 -156 75z m38 -91 c3 -8 -1 -23 -10 -31 -8 -9 -23 -13 -31 -10 -22
8 -20 44 2 50 30 8 32 7 39 -9z m91 -21 c4 -25 -16 -31 -36 -11 -20 20 -14 40
11 36 14 -2 23 -11 25 -25z m-50 -35 c2 -9 -4 -14 -15 -13 -18 1 -23 6 -23 24
0 15 35 5 38 -11z"/>
<path d="M260 245 c-15 -18 -5 -35 20 -35 10 0 22 5 25 10 7 11 -12 40 -25 40
-4 0 -13 -7 -20 -15z"/>
<path d="M245 65 c16 -51 14 -50 35 -27 28 30 25 42 -10 42 -21 0 -28 -4 -25
-15z"/>
<path d="M10 56 c0 -16 21 -36 37 -36 7 0 13 11 13 24 0 18 -5 24 -25 24 -14
0 -25 -6 -25 -12z"/>
</g>
</svg>
