<svg xmlns="http://www.w3.org/2000/svg" width="341.333" height="341.333" version="1.0" viewBox="0 0 256 256">
    <g fill="#e5e5e5">
        <path d="M119.7 35.1c-5.9 3.8-10.7 7.3-10.7 7.8 0 2.5 3.3 1.2 11.9-4.5l9.4-6.3 4.1 2.6c2.2 1.4 6.6 4.3 9.6 6.3 5.1 3.4 8 4.1 8 1.9 0-.7-12.1-9-20.5-14.1-.6-.4-5.9 2.5-11.8 6.3m-68.5 78.1c.2 52.6.6 67.2 1.6 67.6.9.3 1.2-13.3 1.2-65.6 0-36.3-.3-66.7-.6-67.6s-1-1.6-1.5-1.6-.8 27.8-.7 67.2m43.1-60.8c-5.1 3.4-9.3 6.4-9.3 6.7 0 .4 4.3 3.5 9.5 6.9 6.9 4.6 9.9 6 10.7 5.2s-1.2-2.5-7.1-6.2c-4.4-2.9-8.1-5.5-8.1-5.9 0-.3 3.6-2.9 8-5.6 4.4-2.8 8-5.3 8-5.6 0-2.3-3.7-.8-11.7 4.5m61.6-5.3c-1 .6-1.1 1.1-.3 1.6.7.5 4.4 2.8 8.3 5.3 3.9 2.4 7.1 4.7 7.1 5.1 0 .3-3.7 3-8.1 5.8-6 3.8-7.9 5.5-7.1 6.3s3.7-.6 10.7-5.2c5.2-3.4 9.5-6.5 9.5-6.9 0-.3-4.2-3.4-9.4-6.8-6.6-4.3-9.7-5.8-10.7-5.2m52.4 0c-1.7 1.7-1.9 78.4-.3 79.4.6.3 1.2 0 1.5-.7s.4-19 .3-40.6c-.2-31.4-.5-39.1-1.5-38.1m-96.2 2.3c-.9 1.1 0 2.1 4.9 5.2 3.3 2.2 6 4.2 6 4.6 0 .3-2 1.9-4.5 3.5-2.5 1.5-4.5 3-4.5 3.3.1.9 16.1 11.1 16.9 10.8 1.7-.7 16.1-10.3 16.1-10.8 0-.3-2-1.8-4.5-3.3-2.5-1.6-4.5-3.2-4.5-3.5 0-.4 2.7-2.4 6-4.6 4.9-3.1 5.8-4.1 4.9-5.2-.6-.8-1.8-1.4-2.5-1.4-1.7 0-14.3 8.2-14.4 9.2 0 .4 1.6 1.8 3.5 3 1.9 1.3 3.5 2.6 3.5 3s-1.9 1.9-4.1 3.4c-4.1 2.6-4.2 2.6-7.6.7-3.4-1.8-5.9-4.1-5.2-4.7.2-.1 2.1-1.4 4.2-2.8l3.7-2.5-7-4.6c-7.4-5-9.1-5.5-10.9-3.3M60 118.6c0 66.8.1 69.4 3.2 69.4.4 0 .8-29.9.8-66.3 0-65.1 0-66.4-2-68.2s-2-1.7-2 65.1M198.7 54c-1.6 2.3-1.7 5.7-1.7 40.7.1 21.1.4 38.3.8 38.3 3.1-.1 3.2-1.6 3-41.6-.3-38.5-.4-39.8-2.1-37.4"/>
        <path d="M98 58.9c0 1.2 12.2 9.1 13.2 8.5 1.6-1 .7-2.2-4.7-5.8-5.3-3.5-8.5-4.5-8.5-2.7m56.5 2.7c-4.7 3.2-6.7 6.2-3.7 5.6 2-.4 12.2-7.4 12.2-8.3 0-1.8-3.7-.7-8.5 2.7m-85.5 64c0 62.3.1 66.8 1.8 68 .9.7 2 1.4 2.5 1.4.4 0 .7-29.9.7-66.3 0-63-.1-66.5-1.8-68-1-1-2.2-1.7-2.5-1.7-.4 0-.7 30-.7 66.6m120.8-65.2c-1.7 1.2-1.8 4.4-1.8 40.5V140l2.5-1.6 2.5-1.6V97.9c0-21.4-.3-38.9-.7-38.9-.5 0-1.6.7-2.5 1.4M77 131.4v66.5l2.9 2c1.6 1.2 3.2 2.1 3.5 2.1s.6-29.9.6-66.4V69.1l-2.9-2c-1.6-1.2-3.2-2.1-3.5-2.1s-.6 29.9-.6 66.4m103.2-64.1c-2.2 2.3-2.2 2.7-2.2 40.6v38.2l3-1.8 3-1.7v-38.8c0-21.3-.4-38.8-.8-38.8-.5 0-1.8 1-3 2.3M86 137.4v66.5l3.3 2.5c1.9 1.5 3.7 2.6 4 2.6.4 0 .8-28.2 1-62.8l.2-62.7.3 63.6.2 63.6 4 2.7c2.2 1.4 4.2 2.6 4.5 2.6s.5-29.7.5-66c0-64.8 0-66-2-67.8-1.1-1-3.2-2.5-4.7-3.3s-3.8-2.5-5.2-3.7c-1.5-1.3-3.4-2.8-4.3-3.3-1.7-.9-1.8 2.5-1.8 65.5m85.2-63.8-3.2 2.5v38c0 20.8.3 37.9.6 37.9s1.9-.8 3.5-1.7l2.9-1.7v-26.1c.1-14.3.3-31.5.6-38.1.3-6.7.2-12.4-.3-12.7s-2.3.6-4.1 1.9m-8.9 6.6-4.3 2.9v76l3.1-1.8c6.2-3.7 5.9-1.5 5.7-42.5l-.3-37.6zM113 152c0 35.2.3 64 .8 64 .4 0 2.4-1.1 4.4-2.5s3.9-2.5 4.2-2.5c.4 0 .6 2.7.6 5.9 0 5.5.2 6.1 3.1 8.2 2.6 1.8 3.3 1.9 4 .8.5-.8.9-1.9.9-2.6 0-.6 1.6-2.1 3.5-3.3l3.5-2.2v-8.4c0-4.6-.2-8.4-.6-8.4-.3 0-3.1 1.7-6.2 3.8s-6.3 4.2-6.9 4.6c-1 .6-1.3-8.7-1.3-45.1v-45.8l7.3-4.7 7.2-4.8.5 45.5.5 45.4 4.8-3 4.7-3.1v-52.9c0-29.1-.2-52.9-.5-52.9-.2 0-4.1 2.4-8.7 5.4l-8.2 5.3-8.3-5.3c-4.5-3-8.5-5.4-8.8-5.4s-.5 28.8-.5 64m94.7-10.3c-.4.3-.7 2.6-.7 5 0 6.1 2.4 5.2 2.8-1 .3-4.3-.5-5.7-2.1-4m-9.7 6.7c-1 1.4-1.2 6.9-.2 8.9 1 2.1 3.2-2 3.2-5.9 0-4.6-.9-5.4-3-3m-8.3 5c-1.4 1.1-1.7 2.5-1.5 6 .3 4.6.3 4.6 2.6 3.1 1.7-1.3 2.2-2.6 2.2-6.1 0-4.7-.5-5.1-3.3-3m18 4.3c-1.2 1.1-.8 2.3.8 2.3.8 0 1.5-.7 1.5-1.5 0-1.6-1.2-2-2.3-.8m-27.4 2c-1.8 1.2-2.3 2.5-2.3 5.9 0 4.8.5 5.2 3.8 2.8 1.7-1.2 2.2-2.5 2.2-6 0-4.8-.4-5.1-3.7-2.7m-150.1 3c.2 2 1.8 3.8 5.7 6.5 3 2.1 5.8 3.8 6.3 3.8.4 0 .8-2.9.8-6.5V160h-6.6c-6.5 0-6.5 0-6.2 2.7m186-1.1c-1.8 1.2-2.2 2.5-2.2 6.5 0 2.7.2 4.9.5 4.9s3-1.6 6-3.6c4.5-3 5.5-4.2 5.5-6.5 0-2.7-.3-2.9-3.8-2.9-2.1 0-4.8.7-6 1.6m-17.5 2.2c-1 1.1-1.4 2.3-.9 2.6 1.2.7 3.5-1.9 3-3.4-.2-.7-1.1-.3-2.1.8m-27.9 2c-2.4 1.4-2.8 2.3-2.8 6.5v4.9l3.3-2.1c2.7-1.7 3.2-2.7 3.5-6.6.3-5 0-5.2-4-2.7m36.8 1.8c-.3.9-.6 3.1-.6 5.1 0 5.3 2.4 3.6 2.8-2 .3-4.6-1-6.3-2.2-3.1m-17.8 1.8c-1.9 1.4-2.4 3.6-1 3.6 1 0 4.2-3.3 4.2-4.3 0-1.1-1.3-.8-3.2.7m-28 2.4c-3.4 2.2-3.8 2.9-3.8 6.8 0 2.4.3 4.4.8 4.4 1.1 0 5.5-3 7-4.8 1.3-1.7 1.7-7.8.5-8.5-.5-.3-2.5.7-4.5 2.1m36.3 1.6c-1.8 2.1-1.1 8.7.9 8.4 1-.2 1.6-1.7 1.8-5.1.3-4.7-.6-5.9-2.7-3.3m-17.9 2.2c-1.2.8-2.2 2.2-2.2 3 0 1.2.6 1.1 3-.6 2.8-2 3.9-4 2.2-4-.4 0-1.8.7-3 1.6m10 3c-1.9 1.6-2.3 2.7-2 6.3l.3 4.3 2.3-1.8c1.9-1.6 2.3-2.7 2-6.3l-.3-4.3zm-18.9 2.8c-1.8 1.1-3.3 2.7-3.3 3.3 0 1.9 1.1 1.6 4.4-1 3.9-3.2 3-5-1.1-2.3m9 3.3c-1.9 1.2-2.3 2.5-2.3 6.5v4.9l3-2.1c2.6-1.8 3-2.8 3-6.6 0-4.8-.4-5.1-3.7-2.7m-18.5 2.9c-5.1 3.3-5.3 6.2-.2 3.2 3.2-1.9 5.2-4.3 4.3-5.2-.2-.2-2.1.7-4.1 2m9 3.5c-2.3 1.7-2.8 2.8-2.8 6.5 0 2.4.3 4.4.6 4.4s1.9-.9 3.5-2.1c2.5-1.7 2.9-2.7 2.9-6.5 0-5-.4-5.2-4.2-2.3m-9 5.7c-3.5 2.3-3.8 2.8-3.8 7.4v4.9l3.1-1.8c4.5-2.6 5-3.7 4.7-8.6l-.3-4.4z"/>
    </g>
</svg>
