<svg xmlns="http://www.w3.org/2000/svg" width="341.333" height="341.333" version="1.0" viewBox="0 0 256 256">
    <path fill="#e5e5e5" d="M161.8 48 132 68.1v17l26-17.5L184 50v40.8l-.1 40.7-25.9 17.4c-25.6 17.2-26 17.5-26 20.9v3.4l2.8-1.8c1.5-1 14.4-9.4 28.7-18.7s26.6-17.4 27.3-18.1c.9-.9 1.2-12.6 1-53.9l-.3-52.7zm-45.5-1.5c-5.6 3.6-10.7 6.5-11.4 6.5-.6 0-5.5-2.7-10.8-6-5.4-3.3-10.1-6-10.4-6-.4 0-.7 25-.7 55.5s.2 55.5.5 55.5 6.6-4.1 14-9c7.4-5 13.7-9 14-9s.5 1.3.5 2.8c0 2.6-1.9 4.2-22 17.5-12.1 8.1-22.2 14.7-22.5 14.7s-.5-13.5-.5-30-.2-30-.5-30-4.6 2.7-9.5 6l-9 6.1v40.7l.1 40.7 17.2 11.2c9.5 6.1 18 11.5 19 11.8 1.6.7 1.7-.8 1.7-22.2v-22.9l20.5-13.9 20.5-13.9V96.3c0-31-.1-56.3-.2-56.3-.2 0-4.9 3-10.5 6.5m37 121.8-21.2 14.2-.1 6.7c0 3.8.3 6.8.8 6.7.4 0 10.2-6.2 21.7-13.7l21-13.8.3-7.2c.2-4-.1-7.2-.5-7.1-.4 0-10.4 6.4-22 14.2m8.5 19L132 207.4v9.8c0 5.4.3 9.8.6 9.8.4 0 17.5-10.9 38-24.1l37.4-24.1v-3.9c0-2.2-.2-3.9-.5-3.9-.2 0-3.4 1.1-7.1 2.5-3.6 1.4-7 2.5-7.5 2.5-.4 0-.9-2-1.1-4.4l-.3-4.4z"/>
</svg>
