<svg xmlns="http://www.w3.org/2000/svg" width="341.333" height="341.333" version="1.0" viewBox="0 0 256 256">
    <path fill="#e5e5e5" d="M124.8 39.1 110 49v20.8l13.3 8.6 13.2 8.6.5-5.2.5-5.3 7.7-5.3 7.8-5.3-5.5-10.9c-5.2-10.4-5.5-11.4-5.5-18.5 0-5.4-.4-7.5-1.2-7.4-.7 0-7.9 4.5-16 10m49.7 22.7c-22.6 14.5-26 17.1-26.3 19.5-.4 3.1.5 3.3 5.5 1.2 1.9-.8 3.9-1.5 4.4-1.5s.9 2.3.9 5.1v5l21-14.2 21-14.2v-8.9c0-4.8-.1-8.8-.3-8.8-.1 0-12 7.5-26.2 16.8m4.8 28.4L159 103.4v91.8l2.9-1.9c1.6-1 11-7.2 21-13.8l18.1-12v-45.3c0-24.8-.3-45.2-.7-45.2-.5 0-9.9 6-21 13.2M99 86.7v8.9l20.3 13.7c11.1 7.5 20.5 13.7 21 13.7.4 0 .7-2 .7-4.5s.4-4.5.9-4.5 2.8.7 5.1 1.5c5.4 1.9 5 2 4.9-1.3 0-2.4-2.5-4.3-25.6-19.2-14.1-9.1-26-16.7-26.5-16.8-.4-.2-.8 3.6-.8 8.5m-29.2 4.4L55 101v31c0 17.1.3 31 .7 31 .3 0 3.9-2 7.9-4.5l7.3-4.6 6.8 4.2c3.7 2.3 7.1 4.3 7.6 4.6.4.2.7-18.1.7-40.6 0-22.6-.3-41.1-.7-41-.5 0-7.4 4.5-15.5 10M99 108.5v4.5l19.6 13c10.7 7.2 20.2 13.4 21 13.7 2.2.8 1.9-7.9-.3-9.9-2.2-1.9-39-25.8-39.8-25.8-.3 0-.5 2-.5 4.5m.2 52.2.3 39.6 19.5 13.3c10.7 7.3 20.1 13.3 20.8 13.4.9 0 1.2-8.4 1.2-38.8 0-35.8-.1-39-1.7-40.4-1-.9-10.5-7.2-21.1-14.1L99 121.1z"/>
</svg>
