<svg xmlns="http://www.w3.org/2000/svg" width="341.333" height="341.333" version="1.0" viewBox="0 0 256 256">
    <path fill="#e5e5e5" d="M163.4 52.5C144.3 65.4 128 76 127.3 76s-4.2-1.8-7.8-4-6.8-4-7-4c-.3 0-.5 4.3-.5 9.5v9.4l-5.9 4.1c-3.3 2.2-6.2 4-6.5 4-.4 0-.6-8.2-.6-18.3V58.4L78.4 44.5C67 36.8 57.3 30.3 56.9 30.2c-.5-.2-.9 18-.9 40.5v40.8l5.5 3.5c5.1 3.2 5.5 3.8 5.5 7.3v3.9l-3.7-2.3c-2.1-1.2-4.2-2.6-4.8-3.1-1.9-1.7-2.5-.7-2.5 4.2s.1 5 5.5 8.6c4.9 3.3 5.5 4.1 5.5 7.1 0 3.8.2 3.8-6.7-.9l-4.3-2.9v5.1c0 2.7-.4 5-.9 5s-2.8-.7-5.1-1.5c-5.7-2-6.2-1.9-5.8 1.1.2 2.2 2.4 4 11.5 9.8l11.2 7.1.1 22.6c0 12.4.3 22.8.6 23.1.3.4 7.2-3.7 15.2-8.9 25.7-16.8 39.7-25.6 40.7-25.6 1.4 0 9.5 5.4 9.5 6.3 0 .4-4.7 3.8-10.5 7.6l-10.5 6.9v22.4l7.3 4.5c4.1 2.5 7.7 4.6 8 4.6.4 0 .7-2.2.7-5v-5l8-5.2 8-5.3v-9.3c0-5 .2-9.2.5-9.2.2 0 12.3 7.8 26.7 17.3 14.5 9.5 26.9 17.6 27.6 18.1.9.5 1.2-.5 1.2-4.2v-5L166.3 192c-18.6-12.3-34-22.5-34.3-22.7-.6-.5 3.4-3.6 7.7-5.9l3.1-1.8 27.4 17.9c15 9.8 27.9 18.3 28.6 18.8.9.7 1.2-.3 1.2-4.2v-5.2l-12-7.7c-6.6-4.2-11.9-8.1-11.7-8.5.1-.5 8.1-6 17.7-12.2 14.5-9.4 17.6-11.7 17.8-13.9.4-3-.1-3.1-5.8-1.1-2.3.8-4.6 1.5-5.1 1.5s-.9-2.3-.9-5v-5l-19.6 13-19.5 13.1-5-3.2c-3.4-2.1-4.7-3.5-4-4.2.5-.5 11.5-7.8 24.3-16.1l23.3-15.2.3-47.7c.1-26.2-.2-47.7-.6-47.7-.5 0-16.6 10.6-35.8 23.5M197 78.3v44.2l-23.3 15.2c-12.8 8.4-24 15.5-25 15.9-.9.3-2.4.1-3.2-.6-1.3-1.1-1.5-7.2-1.5-42.6V69.1l25.8-17.5c14.1-9.5 26-17.4 26.5-17.5.4-.1.7 19.8.7 44.2m-85.4 51.5c-.3.2-3.2-1.3-6.6-3.4l-6-3.9V99.3l6.3-4.1 6.2-4.2.3 19.2c.1 10.5 0 19.3-.2 19.6m19.1 17.1c36.5 24 66.3 44.2 66.3 44.9 0 .8-.4 1.2-.9 1s-31.5-20.3-69-44.8C77.6 115.6 59 103 59 101.6c0-1.8.1-1.8 2.8-.1 1.5 1 32.5 21.4 68.9 45.4m-45.4-16.2c7 4.6 13 8.3 13.3 8.3.2 0 .4-1.1.4-2.5s.3-2.5.7-2.5c.3 0 3.3 1.7 6.5 3.7l5.8 3.8V156l-5.9-3.7c-3.2-2.1-12.7-8.3-21-13.8-15-10-15.1-10-15.1-13.8 0-2.8.3-3.6 1.3-3.1.6.4 7 4.5 14 9.1m45.6 41.3c36.3 23.9 66.1 44.1 66.1 44.8 0 .8-.4 1.2-.9 1s-31.6-20.3-69-44.8C77.7 140.7 59 128 59 126.7c0-1.8.1-1.8 2.9 0 1.6 1 32.6 21.4 69 45.3m-39.2-18.8 20.3 13.3v11.3l-20.1 13.1c-11 7.2-20.4 13.1-21 13.1-.5 0-.9-7.5-.9-18.5 0-12.2.4-18.5 1-18.5s6.2 3.4 12.5 7.5c17.3 11.2 15.5 11.2 15.5.3l-.1-9.3-14.2-9.5c-13-8.7-14.2-9.8-14.5-12.8-.2-1.7 0-3.2.4-3.2s9.9 6 21.1 13.2"/>
</svg>
