<?xml version="1.0" standalone="no"?>
<!DOCTYPE svg PUBLIC "-//W3C//DTD SVG 20010904//EN"
 "http://www.w3.org/TR/2001/REC-SVG-20010904/DTD/svg10.dtd">
<svg version="1.0" xmlns="http://www.w3.org/2000/svg"
 width="256.000000pt" height="256.000000pt" viewBox="0 0 256.000000 256.000000"
 preserveAspectRatio="xMidYMid meet">
<metadata>
Created by potrace 1.16, written by Peter Selinger 2001-2019
</metadata>
<g transform="translate(0.000000,256.000000) scale(0.100000,-0.100000)"
fill="#f2f2f2" stroke="none">
<path d="M533 1935 c-178 -39 -339 -171 -427 -350 -56 -113 -70 -182 -70 -330
0 -116 3 -139 28 -210 38 -109 84 -181 165 -257 130 -123 277 -174 474 -165
171 8 292 50 411 143 93 74 139 143 268 404 139 282 191 366 259 420 76 60
148 83 244 78 101 -5 174 -37 249 -108 171 -162 179 -428 18 -589 -115 -115
-298 -151 -440 -86 -57 26 -153 112 -197 175 -15 22 -31 37 -35 35 -5 -3 -31
-48 -60 -101 l-51 -96 25 -38 c64 -97 186 -190 314 -238 58 -22 82 -26 187
-26 105 0 129 4 187 26 230 87 386 276 434 524 72 379 -150 711 -528 788 -195
40 -369 -3 -502 -124 -74 -69 -143 -174 -266 -410 -152 -290 -186 -344 -266
-420 -95 -90 -155 -114 -274 -108 -104 5 -174 35 -255 109 -174 160 -168 433
15 602 189 175 476 126 619 -106 12 -20 26 -35 31 -32 4 2 31 45 59 95 l51 91
-29 43 c-17 24 -62 73 -100 108 -150 139 -346 195 -538 153z"/>
</g>
</svg>
