<?xml version="1.0" standalone="no"?>
<!DOCTYPE svg PUBLIC "-//W3C//DTD SVG 20010904//EN"
 "http://www.w3.org/TR/2001/REC-SVG-20010904/DTD/svg10.dtd">
<svg version="1.0" xmlns="http://www.w3.org/2000/svg"
 width="256.000000pt" height="256.000000pt" viewBox="0 0 256.000000 256.000000"
 preserveAspectRatio="xMidYMid meet">
<metadata>
Created by potrace 1.16, written by Peter Selinger 2001-2019
</metadata>
<g transform="translate(0.000000,256.000000) scale(0.100000,-0.100000)"
fill="#f2f2f2" stroke="none">
<path d="M993 2323 c-12 -2 -34 -18 -48 -34 -23 -28 -25 -38 -25 -128 l0 -98
-40 -32 c-53 -42 -68 -91 -51 -169 15 -66 72 -194 123 -273 20 -31 39 -74 43
-97 l7 -42 28 15 c41 21 463 21 500 0 36 -20 40 -19 40 15 0 16 20 69 45 117
64 123 88 229 83 357 -6 155 -50 226 -142 226 -27 0 -42 7 -62 29 -35 39 -75
55 -129 49 -35 -4 -48 -2 -62 14 -45 50 -113 62 -157 27 -26 -21 -26 -21 -59
-1 -38 24 -64 30 -94 25z"/>
<path d="M970 1390 l-95 -49 168 0 167 -1 0 50 0 50 -72 -1 c-67 0 -81 -4
-168 -49z"/>
<path d="M1262 1298 c3 -135 4 -143 23 -143 19 0 20 8 23 143 l3 142 -26 0
-26 0 3 -142z"/>
<path d="M1359 1436 c-2 -3 -3 -25 -1 -50 l4 -46 162 1 161 0 -95 49 c-85 44
-102 49 -161 49 -36 1 -68 -1 -70 -3z"/>
<path d="M740 1245 c0 -54 0 -55 30 -55 l30 0 0 -230 0 -230 -30 0 -30 0 0
-165 0 -165 40 0 39 0 3 137 3 138 133 3 132 3 0 244 c0 276 -3 265 79 265
l41 0 0 55 0 55 -235 0 -235 0 0 -55z m260 -110 l0 -55 -65 0 -65 0 0 48 c0
27 3 52 7 55 3 4 33 7 65 7 l58 0 0 -55z m0 -230 l0 -125 -65 0 -65 0 0 118
c0 65 3 122 7 125 3 4 33 7 65 7 l58 0 0 -125z"/>
<path d="M1359 1296 c-2 -2 -2 -27 -1 -55 l4 -51 40 0 c81 0 78 10 78 -265 l0
-244 133 -3 132 -3 3 -138 3 -137 34 0 35 0 0 165 0 165 -35 0 -35 0 0 230 0
230 35 0 35 0 0 55 0 55 -228 0 c-126 0 -231 -2 -233 -4z m329 -163 l3 -53
-65 0 -66 0 0 55 0 56 63 -3 62 -3 3 -52z m0 -230 l3 -123 -66 0 -65 0 0 125
0 126 63 -3 62 -3 3 -122z"/>
<path d="M1150 1035 l0 -45 135 0 135 0 0 45 0 45 -135 0 -135 0 0 -45z"/>
<path d="M1150 855 l0 -45 135 0 135 0 0 45 0 45 -135 0 -135 0 0 -45z"/>
<path d="M1150 685 l0 -45 135 0 135 0 0 45 0 45 -135 0 -135 0 0 -45z"/>
<path d="M880 510 l0 -110 405 0 405 0 0 110 0 110 -105 0 -105 0 0 -32 c0
-61 -4 -63 -177 -66 -193 -4 -213 1 -213 58 l0 40 -105 0 -105 0 0 -110z"/>
<path d="M1000 316 c0 -36 5 -48 26 -65 25 -20 39 -21 254 -21 215 0 229 1
254 21 21 17 26 29 26 65 l0 44 -280 0 -280 0 0 -44z"/>
</g>
</svg>
