<svg xmlns="http://www.w3.org/2000/svg" width="341.333" height="341.333" version="1.0" viewBox="0 0 256 256">
    <g fill="#e5e5e5">
        <path d="M99.3 23.7c-1.2.2-3.4 1.8-4.8 3.4-2.3 2.8-2.5 3.8-2.5 12.8v9.8l-4 3.2c-5.3 4.2-6.8 9.1-5.1 16.9 1.5 6.6 7.2 19.4 12.3 27.3 2 3.1 3.9 7.4 4.3 9.7l.7 4.2 2.8-1.5c4.1-2.1 46.3-2.1 50 0 3.6 2 4 1.9 4-1.5 0-1.6 2-6.9 4.5-11.7 6.4-12.3 8.8-22.9 8.3-35.7-.6-15.5-5-22.6-14.2-22.6-2.7 0-4.2-.7-6.2-2.9-3.5-3.9-7.5-5.5-12.9-4.9-3.5.4-4.8.2-6.2-1.4-4.5-5-11.3-6.2-15.7-2.7-2.6 2.1-2.6 2.1-5.9.1-3.8-2.4-6.4-3-9.4-2.5M97 117l-9.5 4.9h16.8l16.7.1v-10l-7.2.1c-6.7 0-8.1.4-16.8 4.9m29.2 9.2c.3 13.5.4 14.3 2.3 14.3s2-.8 2.3-14.3l.3-14.2h-5.2zm9.7-13.8c-.2.3-.3 2.5-.1 5l.4 4.6 16.2-.1h16.1L159 117c-8.5-4.4-10.2-4.9-16.1-4.9-3.6-.1-6.8.1-7 .3M74 131.5c0 5.4 0 5.5 3 5.5h3v46h-6v33h7.9l.3-13.7.3-13.8 13.3-.3 13.2-.3v-24.4c0-27.6-.3-26.5 7.9-26.5h4.1v-11H74zm26 11v5.5H87v-4.8c0-2.7.3-5.2.7-5.5.3-.4 3.3-.7 6.5-.7h5.8zm0 23V178H87v-11.8c0-6.5.3-12.2.7-12.5.3-.4 3.3-.7 6.5-.7h5.8zm35.9-39.1c-.2.2-.2 2.7-.1 5.5l.4 5.1h4c8.1 0 7.8-1 7.8 26.5v24.4l13.3.3 13.2.3.3 13.8.3 13.7h6.9v-33h-7v-46h7v-11h-22.8c-12.6 0-23.1.2-23.3.4m32.9 16.3.3 5.3H156v-11.1l6.3.3 6.2.3zm0 23 .3 12.3H156v-25.1l6.3.3 6.2.3z"/>
        <path d="M115 152.5v4.5h27v-9h-27zm0 18v4.5h27v-9h-27zm0 17v4.5h27v-9h-27zM88 205v11h81v-22h-21v3.2c0 6.1-.4 6.3-17.7 6.6-19.3.4-21.3-.1-21.3-5.8v-4H88zm12 19.4c0 3.6.5 4.8 2.6 6.5 2.5 2 3.9 2.1 25.4 2.1s22.9-.1 25.4-2.1c2.1-1.7 2.6-2.9 2.6-6.5V220h-56z"/>
    </g>
</svg>
