<?xml version="1.0" standalone="no"?>
<!DOCTYPE svg PUBLIC "-//W3C//DTD SVG 20010904//EN"
 "http://www.w3.org/TR/2001/REC-SVG-20010904/DTD/svg10.dtd">
<svg version="1.0" xmlns="http://www.w3.org/2000/svg"
 width="256.000000pt" height="256.000000pt" viewBox="0 0 256.000000 256.000000"
 preserveAspectRatio="xMidYMid meet">
<metadata>
Created by potrace 1.16, written by Peter Selinger 2001-2019
</metadata>
<g transform="translate(0.000000,256.000000) scale(0.100000,-0.100000)"
fill="#f2f2f2" stroke="none">
<path d="M1235 2234 c-22 -7 -41 -14 -43 -14 -1 0 -224 -296 -495 -658 -282
-375 -496 -670 -499 -686 -13 -65 27 -127 93 -146 38 -11 121 -13 168 -4 l31
7 0 104 c0 119 12 153 60 173 50 21 70 72 70 181 0 102 16 149 56 168 37 16
126 14 152 -5 21 -14 26 -13 75 13 48 26 52 31 58 71 8 58 43 93 102 99 46 6
46 6 128 124 45 66 85 119 88 119 3 -1 42 -54 86 -120 70 -104 84 -119 108
-120 71 -1 127 -52 127 -117 0 -23 9 -33 50 -56 43 -23 54 -26 73 -16 66 36
151 28 186 -18 18 -22 21 -40 21 -127 0 -85 3 -108 22 -143 13 -25 34 -47 51
-54 49 -21 57 -43 57 -161 0 -70 4 -109 12 -114 6 -4 44 -9 85 -12 93 -6 153
15 183 62 28 46 26 95 -8 143 -100 147 -962 1284 -982 1296 -40 23 -72 27
-115 11z"/>
<path d="M1038 1469 c-13 -7 -18 -23 -18 -59 l0 -50 -52 -26 c-29 -15 -69 -38
-90 -51 l-37 -25 -24 27 c-18 21 -32 28 -66 29 -62 1 -71 -16 -71 -134 0 -88
-3 -102 -29 -150 -20 -36 -41 -59 -63 -69 l-33 -16 0 -135 0 -135 34 -16 c42
-20 52 -41 44 -96 -6 -48 2 -93 17 -93 6 0 10 6 10 13 0 7 19 32 43 55 l44 43
46 -50 c25 -27 48 -46 51 -43 3 3 6 38 6 78 0 72 1 74 31 89 25 13 37 14 65 5
45 -15 58 -41 50 -106 -6 -53 -1 -84 15 -84 4 0 6 6 3 13 -2 7 16 32 41 57
l45 44 40 -39 c22 -21 40 -48 40 -59 0 -13 3 -17 10 -10 5 5 10 43 12 83 3 73
4 76 35 94 28 16 38 17 68 7 47 -15 59 -40 51 -109 -3 -31 -2 -63 4 -71 9 -13
10 -13 10 0 0 9 20 35 44 59 l44 43 41 -44 c22 -23 41 -49 41 -56 0 -7 5 -10
10 -7 6 3 10 40 10 80 0 69 2 76 26 91 37 25 83 22 105 -5 15 -18 18 -37 16
-86 -1 -35 1 -66 5 -70 6 -6 70 58 90 89 10 15 100 -74 93 -92 -3 -8 0 -12 7
-10 9 3 15 33 18 84 5 79 5 79 40 96 32 16 36 23 41 70 4 29 4 92 1 140 -5 87
-5 87 -36 98 -24 8 -39 25 -64 73 -30 57 -33 69 -32 157 0 52 -4 100 -8 106
-23 33 -115 20 -133 -20 l-11 -23 -65 43 c-35 23 -75 45 -89 48 -21 6 -24 12
-24 55 0 58 -18 81 -61 81 -43 0 -66 -16 -74 -50 l-7 -30 -124 0 -124 0 0 24
c0 44 -68 71 -112 45z m61 -33 c7 -8 11 -32 9 -53 -2 -30 -7 -38 -23 -38 -16
0 -21 8 -23 39 -5 61 11 83 37 52z m389 -45 c3 -46 1 -52 -15 -49 -13 2 -19
14 -21 42 -4 46 4 69 21 64 7 -3 13 -26 15 -57z m-149 -101 c28 -5 77 -22 107
-37 46 -23 62 -37 87 -82 17 -30 44 -61 60 -70 70 -39 78 -49 75 -104 -3 -48
-5 -53 -43 -74 -22 -13 -62 -30 -90 -39 -27 -9 -70 -29 -93 -45 -53 -34 -139
-53 -201 -45 -25 3 -82 24 -127 46 -44 22 -84 40 -88 40 -5 0 -37 14 -72 31
l-64 30 0 59 0 60 50 28 c36 21 60 44 83 83 36 60 80 89 168 113 66 18 82 19
148 6z m-573 -41 c8 -13 9 -128 0 -136 -3 -3 -12 -3 -21 0 -11 5 -15 22 -15
70 0 35 3 67 7 70 10 10 21 8 29 -4z m1049 -65 c0 -55 -3 -69 -15 -69 -11 0
-16 15 -18 59 -3 66 2 90 21 83 8 -2 12 -26 12 -73z"/>
<path d="M1146 1194 c-12 -12 -13 -20 -6 -35 12 -22 30 -25 48 -7 18 18 15 36
-7 48 -15 7 -23 6 -35 -6z"/>
<path d="M1367 1193 c-13 -12 -7 -41 10 -47 21 -8 48 17 40 38 -6 16 -38 22
-50 9z"/>
<path d="M1024 1055 c-11 -29 11 -36 97 -33 76 3 84 5 84 23 0 18 -8 20 -88
23 -73 2 -88 0 -93 -13z"/>
<path d="M1350 1045 l0 -26 93 3 c84 3 92 5 92 23 0 18 -8 20 -92 23 l-93 3 0
-26z"/>
<path d="M1147 935 c-30 -30 5 -65 40 -40 14 11 16 18 7 31 -15 25 -29 27 -47
9z"/>
<path d="M1373 943 c-18 -7 -16 -38 3 -53 12 -11 18 -10 32 4 25 25 -2 63 -35
49z"/>
<path d="M715 500 c-28 -29 -28 -30 -17 -96 12 -73 28 -99 56 -88 22 8 32 35
41 108 7 51 5 60 -16 82 -12 13 -25 24 -29 24 -3 0 -19 -13 -35 -30z"/>
<path d="M1070 505 c-25 -26 -26 -40 -14 -133 8 -53 34 -72 63 -43 13 13 21
40 26 86 7 60 5 68 -16 91 -28 30 -30 30 -59 -1z"/>
<path d="M1425 500 c-28 -29 -28 -30 -17 -96 13 -78 29 -101 60 -85 21 11 42
82 42 140 0 23 -34 71 -51 71 -3 0 -18 -13 -34 -30z"/>
<path d="M1781 506 c-21 -23 -23 -31 -16 -90 7 -74 30 -111 58 -100 23 8 33
34 42 108 7 51 5 60 -16 82 -28 30 -40 30 -68 0z"/>
</g>
</svg>
