<svg xmlns="http://www.w3.org/2000/svg" width="341.333" height="341.333" version="1.0" viewBox="0 0 256 256">
    <g fill="#e5e5e5">
        <path d="M123.5 32.6c-2.2.7-4.1 1.4-4.3 1.4-.1 0-22.4 29.6-49.5 65.8-28.2 37.5-49.6 67-49.9 68.6-1.3 6.5 2.7 12.7 9.3 14.6 3.8 1.1 12.1 1.3 16.8.4l3.1-.7v-10.4c0-11.9 1.2-15.3 6-17.3 5-2.1 7-7.2 7-18.1 0-10.2 1.6-14.9 5.6-16.8 3.7-1.6 12.6-1.4 15.2.5 2.1 1.4 2.6 1.3 7.5-1.3 4.8-2.6 5.2-3.1 5.8-7.1.8-5.8 4.3-9.3 10.2-9.9 4.6-.6 4.6-.6 12.8-12.4 4.5-6.6 8.5-11.9 8.8-11.9.3.1 4.2 5.4 8.6 12 7 10.4 8.4 11.9 10.8 12 7.1.1 12.7 5.2 12.7 11.7 0 2.3.9 3.3 5 5.6 4.3 2.3 5.4 2.6 7.3 1.6 6.6-3.6 15.1-2.8 18.6 1.8 1.8 2.2 2.1 4 2.1 12.7 0 8.5.3 10.8 2.2 14.3 1.3 2.5 3.4 4.7 5.1 5.4 4.9 2.1 5.7 4.3 5.7 16.1 0 7 .4 10.9 1.2 11.4.6.4 4.4.9 8.5 1.2 9.3.6 15.3-1.5 18.3-6.2 2.8-4.6 2.6-9.5-.8-14.3-10-14.7-96.2-128.4-98.2-129.6-4-2.3-7.2-2.7-11.5-1.1"/>
        <path d="M103.8 109.1c-1.3.7-1.8 2.3-1.8 5.9v5l-5.2 2.6c-2.9 1.5-6.9 3.8-9 5.1l-3.7 2.5-2.4-2.7c-1.8-2.1-3.2-2.8-6.6-2.9-6.2-.1-7.1 1.6-7.1 13.4 0 8.8-.3 10.2-2.9 15q-3 5.4-6.3 6.9l-3.3 1.6v27l3.4 1.6c4.2 2 5.2 4.1 4.4 9.6-.6 4.8.2 9.3 1.7 9.3.6 0 1-.6 1-1.3s1.9-3.2 4.3-5.5l4.4-4.3 4.6 5c2.5 2.7 4.8 4.6 5.1 4.3s.6-3.8.6-7.8c0-7.2.1-7.4 3.1-8.9 2.5-1.3 3.7-1.4 6.5-.5 4.5 1.5 5.8 4.1 5 10.6-.6 5.3-.1 8.4 1.5 8.4.4 0 .6-.6.3-1.3-.2-.7 1.6-3.2 4.1-5.7l4.5-4.4 4 3.9c2.2 2.1 4 4.8 4 5.9 0 1.3.3 1.7 1 1 .5-.5 1-4.3 1.2-8.3.3-7.3.4-7.6 3.5-9.4 2.8-1.6 3.8-1.7 6.8-.7 4.7 1.5 5.9 4 5.1 10.9-.3 3.1-.2 6.3.4 7.1.9 1.3 1 1.3 1 0 0-.9 2-3.5 4.4-5.9l4.4-4.3 4.1 4.4c2.2 2.3 4.1 4.9 4.1 5.6s.5 1 1 .7c.6-.3 1-4 1-8 0-6.9.2-7.6 2.6-9.1 3.7-2.5 8.3-2.2 10.5.5 1.5 1.8 1.8 3.7 1.6 8.6-.1 3.5.1 6.6.5 7 .6.6 7-5.8 9-8.9 1-1.5 10 7.4 9.3 9.2-.3.8 0 1.2.7 1 .9-.3 1.5-3.3 1.8-8.4.5-7.9.5-7.9 4-9.6 3.2-1.6 3.6-2.3 4.1-7 .4-2.9.4-9.2.1-14-.5-8.7-.5-8.7-3.6-9.8-2.4-.8-3.9-2.5-6.4-7.3-3-5.7-3.3-6.9-3.2-15.7 0-5.2-.4-10-.8-10.6-2.3-3.3-11.5-2-13.3 2l-1.1 2.3-6.5-4.3c-3.5-2.3-7.5-4.5-8.9-4.8-2.1-.6-2.4-1.2-2.4-5.5 0-5.8-1.8-8.1-6.1-8.1s-6.6 1.6-7.4 5l-.7 3H115v-2.4c0-4.4-6.8-7.1-11.2-4.5m6.1 3.3c.7.8 1.1 3.2.9 5.3-.2 3-.7 3.8-2.3 3.8s-2.1-.8-2.3-3.9c-.5-6.1 1.1-8.3 3.7-5.2m38.9 4.5c.3 4.6.1 5.2-1.5 4.9-1.3-.2-1.9-1.4-2.1-4.2-.4-4.6.4-6.9 2.1-6.4.7.3 1.3 2.6 1.5 5.7M133.9 127c2.8.5 7.7 2.2 10.7 3.7 4.6 2.3 6.2 3.7 8.7 8.2 1.7 3 4.4 6.1 6 7 7 3.9 7.8 4.9 7.5 10.4-.3 4.8-.5 5.3-4.3 7.4-2.2 1.3-6.2 3-9 3.9-2.7.9-7 2.9-9.3 4.5-5.3 3.4-13.9 5.3-20.1 4.5-2.5-.3-8.2-2.4-12.7-4.6-4.4-2.2-8.4-4-8.8-4-.5 0-3.7-1.4-7.2-3.1l-6.4-3V150l5-2.8c3.6-2.1 6-4.4 8.3-8.3 3.6-6 8-8.9 16.8-11.3 6.6-1.8 8.2-1.9 14.8-.6m-57.3 4.1c.8 1.3.9 12.8 0 13.6-.3.3-1.2.3-2.1 0-1.1-.5-1.5-2.2-1.5-7 0-3.5.3-6.7.7-7 1-1 2.1-.8 2.9.4m104.9 6.5c0 5.5-.3 6.9-1.5 6.9-1.1 0-1.6-1.5-1.8-5.9-.3-6.6.2-9 2.1-8.3.8.2 1.2 2.6 1.2 7.3"/>
        <path d="M114.6 136.6c-1.2 1.2-1.3 2-.6 3.5 1.2 2.2 3 2.5 4.8.7s1.5-3.6-.7-4.8c-1.5-.7-2.3-.6-3.5.6m22.1.1c-1.3 1.2-.7 4.1 1 4.7 2.1.8 4.8-1.7 4-3.8-.6-1.6-3.8-2.2-5-.9m-34.3 13.8c-1.1 2.9 1.1 3.6 9.7 3.3 7.6-.3 8.4-.5 8.4-2.3s-.8-2-8.8-2.3c-7.3-.2-8.8 0-9.3 1.3m32.6 1v2.6l9.3-.3c8.4-.3 9.2-.5 9.2-2.3s-.8-2-9.2-2.3l-9.3-.3zm-20.3 11c-3 3 .5 6.5 4 4 1.4-1.1 1.6-1.8.7-3.1-1.5-2.5-2.9-2.7-4.7-.9m22.6-.8c-1.8.7-1.6 3.8.3 5.3 1.2 1.1 1.8 1 3.2-.4 2.5-2.5-.2-6.3-3.5-4.9M71.5 206c-2.8 2.9-2.8 3-1.7 9.6 1.2 7.3 2.8 9.9 5.6 8.8 2.2-.8 3.2-3.5 4.1-10.8.7-5.1.5-6-1.6-8.2-1.2-1.3-2.5-2.4-2.9-2.4-.3 0-1.9 1.3-3.5 3m35.5-.5c-2.5 2.6-2.6 4-1.4 13.3.8 5.3 3.4 7.2 6.3 4.3 1.3-1.3 2.1-4 2.6-8.6.7-6 .5-6.8-1.6-9.1-2.8-3-3-3-5.9.1m35.5.5c-2.8 2.9-2.8 3-1.7 9.6 1.3 7.8 2.9 10.1 6 8.5 2.1-1.1 4.2-8.2 4.2-14 0-2.3-3.4-7.1-5.1-7.1-.3 0-1.8 1.3-3.4 3m35.6-.6c-2.1 2.3-2.3 3.1-1.6 9 .7 7.4 3 11.1 5.8 10 2.3-.8 3.3-3.4 4.2-10.8.7-5.1.5-6-1.6-8.2-2.8-3-4-3-6.8 0"/>
    </g>
</svg>
