<svg xmlns="http://www.w3.org/2000/svg" width="341.333" height="341.333" version="1.0" viewBox="0 0 256 256">
    <path fill="#e5e5e5" d="M101.3 32.3c-2.9 6-5.3 11.2-5.3 11.6s.9 1.6 2.1 2.7c1.1 1 1.8 2.6 1.6 3.6-.4 1.3.9 2.5 5.3 4.9 3.2 1.7 6.1 3.8 6.5 4.7 1 2.7-1.1 3.5-4.5 1.7-2.2-1.1-4.4-1.5-6.6-1-3.6.6-4.7 2.5-1.6 2.5 1 0 2.8 1 3.9 2.2l2.1 2.3-2.9 3.5c-3.4 4-3.6 6.9-.9 12.9 2.3 5 2.5 12.5.5 16.1-2 3.5-1.9 8.4.3 10.3 2.3 2.1 3.2 2.1 3.2.3 0-.8 1.5-3.6 3.4-6.3 1.9-2.8 5.8-9.7 8.6-15.4 4.7-9.3 5.1-10.7 4.6-14.9-.4-3.3-.2-5.2 1-6.8 1.5-2.1 1.5-2.5 0-4.1-1.6-1.7-1.6-2.1 0-5.5 1.6-3.3 1.6-3.7.1-5.4-1-1.1-1.7-3.5-1.7-6 0-4-.2-4.2-3-4.2-3.5 0-11-6.6-11-9.8 0-1.1-.5-2.4-1-2.7-.8-.5-.7-1.1 0-2 .6-.8 1-2.4.8-3.7-.2-1.6-1.7.7-5.5 8.5m49.1-6.6c.4 2.4.2 4.4-.4 4.8-.5.3-1 1.4-1 2.4 0 2.6-7.5 9.1-10.5 9.1-2.2 0-2.5.4-2.5 3.6 0 2-.8 4.7-1.9 6.1-1.9 2.3-1.9 2.6-.4 5.8 1.6 3.2 1.5 3.6-.2 5.5s-1.7 2.1 0 4c1.4 1.5 1.6 3 1.2 6.7-.5 4.3 0 5.8 5 15.7 3.1 6.1 6.6 12.4 7.9 14.1 1.2 1.6 2.7 4.3 3.3 5.8 1.3 3.4 3.1 3.1 4.9-.7 1.2-2.4 1.2-3.4-.2-7-2.2-5.8-2-12.6.6-20.1l2.3-6.4-3.4-3.5c-3.9-4-3.6-6.2.9-7.9q5.55-2.1.3-3.3c-2.4-.6-3.7-.4-9.6 2.1-1.6.7-1.8.4-1.5-1.6.2-1.8 1.8-3.2 6-5.4 4.8-2.5 5.8-3.4 5.8-5.6 0-1.6.9-3.2 2.1-4 2-1.4 2-1.6-3.6-12.9-4.8-9.7-5.6-10.9-5.1-7.3M85.5 52l-1.8 4H68.5L57.2 67.3C46.4 78.1 46 78.7 47 81.4c.8 2.3.5 3.9-1.9 9.4-1.6 3.7-6.9 16.4-11.9 28.2l-8.9 21.5-.7 16.5c-.6 14.9-.8 16.7-2.7 18.5l-2.1 2 .5-19.5.4-19.5-4.6-8.2c-2.5-4.5-4.8-8.2-5.1-8.3-1.2 0-7 11.4-6.6 12.9.3.9 1.9 16.2 3.6 34.1l3.1 32.5 3.6 6.5c2 3.6 4 7 4.4 7.6 1.2 1.5 28.7-8.3 29.8-10.5.4-.9 8.6-29.1 18.1-62.6l17.4-61 4-3.8 3.9-3.7-2.3-7.4c-2.2-7.1-2.3-12-.4-17 1.3-3.5-1.4-1.3-3.1 2.4m83.1 2.7c.4 5.1 0 8.3-1.5 12.8l-1.9 6 3.9 4.1c4 4 4.1 4.3 21.8 66.4 16.3 57.4 17.9 62.4 20.2 63.2 1.3.6 7.9 2.9 14.6 5.3l12.3 4.3 4.1-7.6 4.2-7.5 3.4-34.5 3.3-34.5-3.1-5.4c-3.5-6.1-2.7-6.5-9.3 4.4l-3.7 6.3.3 19.5c.2 10.7.1 19.5-.2 19.5s-1.2-1.1-2.1-2.3c-1.3-1.8-1.7-5.6-2.1-18.2l-.5-16L221 114c-9.6-22.3-11.4-27.3-11.3-31.5v-5l-11.1-10.7L187.5 56H173l-2-4c-1.1-2.2-2.2-4-2.5-4-.2 0-.2 3 .1 6.7m-40 42.3c-1 4.3-18.6 99.1-18.6 100.7 0 1.7 18.2 36.3 19.1 36.3.3 0 4.9-8 10.1-17.9l9.5-17.8-9.7-51.9c-6.2-33-10-51-10.4-49.4m-33.7 41.1L80.3 156l2.3 8.6c1.3 4.8 2.5 8.8 2.8 9.1s16.2-7.1 17.4-8.2c.4-.4 7.3-44.8 7-45.1-.2-.1-6.9 7.9-14.9 17.7m51.8-15.1c.3 1.9 2 12.2 3.7 22.9l3.1 19.4 8 4.3c4.4 2.4 8.5 4.4 9 4.4.6 0 2.1-4.1 3.3-9.1 1.9-7.8 2-9.4.9-10.8-.8-.9-6.7-8.1-13.2-16.1s-12.7-15.4-13.7-16.5c-1.8-2-1.8-1.9-1.1 1.5"/>
</svg>
