<?xml version="1.0" standalone="no"?>
<!DOCTYPE svg PUBLIC "-//W3C//DTD SVG 20010904//EN"
 "http://www.w3.org/TR/2001/REC-SVG-20010904/DTD/svg10.dtd">
<svg version="1.0" xmlns="http://www.w3.org/2000/svg"
 width="256.000000pt" height="256.000000pt" viewBox="0 0 256.000000 256.000000"
 preserveAspectRatio="xMidYMid meet">
<metadata>
Created by potrace 1.16, written by Peter Selinger 2001-2019
</metadata>
<g transform="translate(0.000000,256.000000) scale(0.100000,-0.100000)"
fill="#f2f2f2" stroke="none">
<path d="M1103 2378 c-49 -79 -56 -138 -14 -138 19 0 51 -29 51 -47 0 -6 21
-27 46 -48 33 -27 48 -35 56 -27 9 9 7 17 -5 30 -9 10 -17 32 -17 48 0 25 -6
32 -34 42 -45 17 -69 55 -68 109 0 46 -2 51 -15 31z"/>
<path d="M1441 2365 c1 -16 1 -40 1 -52 -2 -27 -57 -83 -83 -83 -15 0 -19 -7
-19 -32 0 -17 -8 -40 -17 -50 -12 -13 -14 -21 -5 -30 8 -8 23 0 56 27 25 21
46 43 46 50 0 17 33 45 53 45 32 0 36 30 12 83 -31 66 -47 82 -44 42z"/>
<path d="M1030 2226 c0 -7 7 -19 15 -26 8 -7 15 -21 15 -31 0 -11 14 -25 33
-35 17 -9 51 -31 75 -47 41 -30 43 -33 37 -69 -5 -30 -4 -38 9 -38 9 0 13 6
10 14 -3 8 2 26 11 39 16 25 15 26 -44 77 -32 29 -64 63 -69 75 -6 13 -25 30
-43 39 -39 20 -49 20 -49 2z"/>
<path d="M1500 2230 c-8 -5 -23 -11 -33 -14 -9 -3 -20 -14 -24 -23 -3 -10 -35
-46 -72 -79 -65 -61 -66 -62 -47 -82 10 -12 16 -28 13 -36 -4 -9 -2 -18 4 -21
15 -10 23 26 11 46 -14 22 -5 33 83 91 37 24 65 49 65 59 0 9 7 22 15 29 15
13 21 40 8 39 -5 0 -15 -4 -23 -9z"/>
<path d="M948 2163 c-12 -25 -19 -28 -76 -33 -58 -5 -67 -9 -98 -42 -41 -45
-36 -81 12 -86 71 -8 74 -94 9 -237 -33 -73 -222 -556 -228 -585 -4 -16 -45
-59 -109 -114 -57 -49 -104 -92 -106 -96 -2 -6 44 -91 64 -119 2 -2 152 49
216 74 20 8 16 -4 163 515 144 503 141 495 171 514 29 19 29 32 7 103 -14 44
-15 60 -5 86 15 41 -1 59 -20 20z"/>
<path d="M1587 2158 c11 -33 9 -76 -7 -130 -14 -48 -14 -48 17 -80 32 -34 45
-74 173 -528 98 -347 133 -466 141 -481 7 -13 200 -89 227 -89 7 0 72 102 72
113 0 2 -47 46 -105 97 -66 58 -108 102 -111 119 -4 14 -26 73 -49 131 -23 58
-70 177 -105 265 -34 88 -68 174 -75 190 -36 80 -45 111 -45 154 1 57 18 81
57 81 25 0 32 5 35 24 4 19 -5 34 -36 65 -39 38 -46 41 -97 41 -50 0 -57 3
-67 25 -15 32 -37 34 -25 3z"/>
<path d="M1267 2104 c-14 -15 -6 -34 14 -34 14 0 19 5 17 17 -3 18 -20 27 -31
17z"/>
<path d="M1083 2059 c20 -11 37 -22 37 -25 0 -2 -10 -18 -22 -35 -22 -29 -22
-31 -5 -78 21 -61 22 -118 1 -159 -16 -33 -16 -77 0 -77 5 0 13 14 18 30 4 17
18 50 32 75 32 61 53 157 38 172 -7 7 -12 29 -12 49 0 47 -28 69 -85 69 l-40
-1 38 -20z"/>
<path d="M1420 2067 c-19 -10 -26 -22 -28 -52 -2 -22 -8 -45 -14 -52 -17 -20
17 -159 47 -193 7 -8 17 -31 22 -50 5 -19 13 -35 19 -35 16 0 16 44 0 77 -21
41 -20 98 1 159 17 47 17 48 -5 72 -30 32 -28 44 13 61 19 8 35 17 35 20 0 11
-65 6 -90 -7z"/>
<path d="M671 1986 c-26 -26 -32 -40 -27 -58 4 -16 -22 -89 -88 -248 l-94
-225 -5 -127 -5 -128 -51 -56 c-41 -44 -51 -63 -51 -90 0 -19 5 -34 10 -34 6
0 48 37 94 83 l84 82 1 85 c1 47 6 101 10 120 7 30 60 167 91 235 35 78 40 99
30 130 -9 29 -6 40 39 121 47 83 49 89 31 96 -11 4 -20 17 -20 28 0 28 -11 25
-49 -14z"/>
<path d="M1840 1999 c0 -12 -8 -23 -20 -26 -11 -3 -20 -6 -20 -8 0 -1 23 -42
51 -91 49 -84 51 -91 39 -123 -9 -24 -9 -39 -2 -55 22 -44 120 -292 126 -316
3 -14 6 -63 7 -110 l2 -85 85 -87 c47 -49 89 -88 94 -88 4 0 8 16 8 34 0 27
-11 49 -51 96 l-51 62 -5 126 -5 127 -86 205 c-47 113 -89 210 -94 217 -6 7
-7 26 -3 44 6 26 2 36 -26 65 -38 39 -49 42 -49 13z"/>
<path d="M734 1876 c-47 -91 -53 -124 -18 -95 14 11 18 11 29 -4 7 -9 15 -17
17 -17 3 0 15 24 26 53 35 90 38 157 7 157 -7 0 -34 -42 -61 -94z"/>
<path d="M1757 1963 c-14 -13 -6 -90 15 -150 23 -66 33 -76 43 -43 7 23 16 25
33 8 6 -6 15 -8 19 -4 8 8 -86 196 -97 196 -4 0 -10 -3 -13 -7z"/>
<path d="M1060 1818 c-26 -39 -47 -47 -68 -26 -6 6 -15 8 -19 4 -10 -10 34
-46 56 -46 21 0 64 63 59 87 -3 14 -9 10 -28 -19z"/>
<path d="M1470 1828 c0 -29 40 -78 62 -78 27 1 58 22 58 40 0 9 -7 8 -25 -4
-32 -21 -30 -22 -55 19 -22 35 -40 46 -40 23z"/>
<path d="M1265 1563 c-3 -93 -10 -257 -15 -366 -7 -159 -6 -223 6 -320 21
-174 27 -173 48 3 8 69 13 157 11 195 -6 82 -25 558 -25 615 0 22 -4 40 -9 40
-5 0 -12 -75 -16 -167z"/>
<path d="M319 1555 l-23 -45 18 -177 c9 -98 22 -182 27 -188 6 -6 20 1 39 20
28 29 29 34 38 169 l9 139 -36 63 c-20 35 -39 64 -43 64 -4 0 -17 -20 -29 -45z"/>
<path d="M1114 1573 c-6 -10 -30 -54 -54 -98 -23 -44 -57 -107 -75 -140 -36
-67 -52 -135 -31 -135 15 0 47 63 114 225 50 122 66 165 60 165 -2 0 -8 -8
-14 -17z"/>
<path d="M2167 1531 l-35 -58 10 -139 c9 -134 11 -140 39 -169 19 -19 32 -26
39 -19 5 5 17 89 26 187 17 172 17 178 -2 217 -10 22 -24 40 -30 40 -7 0 -27
-26 -47 -59z"/>
<path d="M1439 1554 c5 -16 36 -93 69 -170 81 -192 111 -234 103 -148 -1 21
-36 96 -82 182 -84 155 -105 186 -90 136z"/>
<path d="M1695 698 c-2 -13 -6 -36 -7 -53 l-3 -30 195 -3 c187 -3 255 4 284
29 5 5 -5 23 -25 44 l-34 35 -202 0 c-202 0 -203 0 -208 -22z m420 -24 l17
-27 -25 19 c-14 11 -23 22 -20 27 7 11 9 9 28 -19z"/>
<path d="M2150 615 c-22 -9 -81 -14 -162 -14 -74 -1 -129 -5 -133 -11 -4 -6 4
-29 17 -53 l23 -42 115 -3 c84 -2 132 1 177 13 35 10 86 15 117 13 31 -1 56 1
56 5 0 5 -19 31 -42 58 -39 46 -44 49 -87 48 -25 0 -62 -7 -81 -14z"/>
<path d="M1020 596 c0 -20 19 -31 33 -17 7 7 14 7 23 1 16 -14 344 -9 344 5 0
6 -67 11 -176 12 -97 1 -179 4 -182 7 -11 12 -42 6 -42 -8z"/>
<path d="M1442 593 c4 -22 43 -25 43 -3 0 8 -11 16 -23 18 -19 3 -23 0 -20
-15z"/>
<path d="M284 463 c-53 -76 -103 -143 -110 -149 -19 -15 -18 -61 2 -68 9 -3
134 -6 278 -6 224 0 277 3 357 20 52 11 104 20 117 20 19 0 22 5 22 40 l0 41
-270 -3 c-149 -2 -270 1 -270 5 0 4 26 52 57 107 l57 100 241 2 c154 2 239 7
238 13 -2 6 -117 11 -313 13 l-309 2 -97 -137z m298 -200 c-72 -2 -192 -2
-265 0 -72 1 -13 3 133 3 146 0 205 -2 132 -3z"/>
<path d="M1507 594 c-17 -17 12 -24 98 -24 l94 0 31 -97 c16 -54 30 -101 30
-105 0 -4 -48 -9 -107 -10 l-108 -3 1 -35 0 -35 115 0 c69 0 114 4 115 10 0 6
3 17 7 25 3 8 7 22 10 30 2 8 4 -14 3 -50 -1 -55 3 -70 23 -97 41 -54 68 -41
85 40 l6 27 194 0 c159 0 196 -3 206 -15 7 -8 10 -22 6 -30 -3 -8 -1 -15 5
-15 5 0 14 12 20 26 7 21 6 31 -7 46 -16 17 -33 18 -253 16 l-236 -3 -3 -37
c-2 -21 -8 -38 -13 -38 -8 0 -5 29 7 68 2 7 -6 33 -17 57 -23 49 -19 65 17 65
29 0 29 -3 4 55 -11 26 -20 56 -20 68 1 12 10 -3 20 -33 11 -30 20 -56 20 -57
0 -2 5 -3 10 -3 16 0 12 46 -7 87 -35 75 -31 73 -199 73 -83 0 -154 -3 -157
-6z"/>
<path d="M552 538 c-8 -11 -57 -102 -70 -130 -2 -5 274 -8 613 -8 584 0 617 1
610 18 -3 9 -13 43 -22 75 l-16 57 -552 0 c-430 0 -555 -3 -563 -12z"/>
<path d="M2195 490 c-11 -5 -82 -9 -158 -9 l-137 -1 -11 -27 c-5 -14 -8 -32
-5 -40 4 -9 -5 -13 -29 -13 -40 0 -41 -4 -20 -54 l15 -36 225 0 c124 0 225 3
225 8 0 4 -11 24 -25 45 l-26 37 -172 2 -172 2 165 4 c167 3 210 -1 210 -18 0
-12 55 -94 75 -110 10 -8 13 -21 9 -37 -6 -21 -3 -24 12 -21 26 4 30 45 8 70
-10 11 -23 34 -29 51 -5 17 -20 37 -33 43 l-23 11 25 19 c14 11 29 34 32 52
l7 32 -74 -1 c-41 0 -83 -4 -94 -9z"/>
<path d="M977 354 c-4 -4 -7 -22 -7 -41 0 -29 3 -33 25 -33 23 0 25 3 22 37
-2 36 -22 54 -40 37z"/>
<path d="M1042 348 c-6 -7 -8 -25 -5 -40 l5 -28 203 0 203 0 5 28 c10 50 0 52
-208 52 -142 0 -195 -3 -203 -12z"/>
<path d="M1477 353 c-2 -4 -4 -24 -3 -43 1 -28 5 -35 21 -35 17 0 20 7 20 40
0 29 -4 41 -17 43 -9 2 -18 -1 -21 -5z"/>
<path d="M1974 252 c-49 -3 -52 -5 -58 -34 -8 -43 2 -50 64 -46 50 3 54 5 62
33 10 40 -5 51 -68 47z"/>
<path d="M2199 255 c-1 0 -3 -9 -4 -20 -1 -11 -5 -30 -9 -42 -7 -22 -5 -23 44
-23 46 0 51 2 61 28 18 46 0 57 -92 57z"/>
<path d="M2062 233 c1 -10 -2 -28 -6 -40 -7 -22 -5 -23 47 -23 53 0 56 1 66
31 6 17 8 35 5 40 -3 5 -29 9 -59 9 -45 0 -54 -3 -53 -17z"/>
</g>
</svg>
