<svg xmlns="http://www.w3.org/2000/svg" width="341.333" height="341.333" version="1.0" viewBox="0 0 256 256">
    <g fill="#e5e5e5">
        <path d="M125.9 23.3c-1.1 1.2-3.5 4.2-5.3 6.7-2.3 3.2-5.2 5.5-10.1 8.1l-7 3.6 3.7 2.6c5.2 3.7 7.8 9.3 8.8 19.4 1 9.7 4 15.8 9.2 19.1 3.2 2.1 3.3 2.1 6.3.2 5.4-3.3 8.5-9.6 9.5-19.2 1-10.3 3.5-15.7 8.9-19.6l3.9-2.9-3.2-1.1c-6.4-2.4-12.6-7.2-16-12.6-4.2-6.4-6-7.4-8.7-4.3M30 80.5V106h10.1c5.5 0 10.9-.5 12-1 2.8-1.5 4.5-5.7 5.2-12.3.3-3.2 1.4-7.3 2.5-9.1 2-3.3 2-3.4 0-6.5-1.1-1.8-2.2-5.7-2.5-9.2-.4-3.8-1.4-7.2-2.7-9.2l-2.2-3.2-11.2-.3-11.2-.3z"/>
        <path d="M103.4 56.3c-1 2.6 1.4 16.7 3.5 20.7 1.9 3.7 2 4.3.6 6.4-.8 1.2-1.9 5.6-2.3 9.7-.7 7.1-.8 7.5-3.9 8.9-3.2 1.5-3.3 1.6-3.3 8.6v7.1l-5.9 1.2-5.9 1.2 1 3.7c2 7.6 7.3 16.5 13.8 23.5 3.7 4 7 8.2 7.4 9.5 1.1 3.5-.3 8-3.7 11.9l-3.1 3.6 2.8 2.1c5.9 4.4 9.4 8.7 11 13.2 1.7 5.2 2.1 18.4.7 24.5-.7 3.2-.4 4.3 2.5 9 1.9 2.9 4.1 7.2 5 9.6 1.5 3.9 2 4.3 5 4.3 2.8 0 3.3-.4 3.9-2.9.3-1.6 2.4-5.9 4.7-9.6l4-6.7-1.2-8.2c-2-14.2 1.3-25.1 9.5-30.8 2.5-1.8 4.5-3.9 4.5-4.7s-1.2-2.7-2.6-4.2c-1.8-1.9-2.8-4.2-3.1-7.3-.5-4.5-.5-4.6 6.4-12 7.1-7.6 12.1-15.8 14.4-23.4 1.5-5.1 1-5.7-5.8-6.7l-4.3-.6v-7.2c0-7.1-.1-7.2-3.3-8.7-3-1.4-3.2-1.9-4.2-9-.6-4.1-1.6-8.5-2.3-9.7-1.1-1.9-.9-2.9 1-6.5 1.6-3.2 2.3-6.6 2.6-13.1l.4-8.7h-6.9l-.5 8.2c-.3 4.6-1.4 10.2-2.3 12.5-1.9 4.8-7.1 9.8-12.3 12-3.1 1.3-3.6 1.2-7.7-1.1-4.7-2.8-9.1-7.5-10.7-11.5-.6-1.4-1.3-6.4-1.7-11.1l-.6-8.5-3.3-.3c-2.1-.2-3.4.2-3.8 1.1m37.6 47.4c0 3.7-.4 6.3-.8 5.7-.4-.5-2.5-3-4.6-5.7-3.1-3.8-4.3-4.7-6.9-4.7-4.1 0-5 .6-9.2 6.5l-3.5 5V97h25zm-9.9-.7c1.5.9 1.9 2.2 1.9 6.5 0 2.9.5 5.7 1 6 .6.3 1 1.8 1 3.2 0 3.5 6.7 9.8 11.7 11 4.5 1 5 3.3.9 4.4-6.1 1.7-6.6 3-6.6 16.6 0 12.4 0 12.5-2.9 15.4-2.7 2.6-3.6 2.9-9.6 2.9s-6.9-.3-8.7-2.5c-1.1-1.4-2.6-2.5-3.4-2.5-1.1 0-1.4-2.5-1.4-13.6v-13.5l-4.5-2c-5.3-2.3-5.8-4.4-1.2-5.3 5.1-1 9.6-4.3 11.3-8.3.9-2.1 2-4.6 2.5-5.5.5-1 .9-3.9.9-6.6 0-6.6 2.4-8.7 7.1-6.2m-13.6 63.4c3.8 2.8 1.4 10.6-3.2 10.6-1.6 0-6.3-4.4-6.3-5.8 0-1.8 4.2-6.2 5.9-6.2.9 0 2.6.6 3.6 1.4m29.5.6c1.1 1.1 2 2.9 2 4 0 2.4-3.4 6-5.5 6-1.7 0-6.5-4.3-6.5-5.8 0-1.9 4.2-6.2 6.1-6.2 1 0 2.8.9 3.9 2m-21.1 30.7c-.1 14.2-.4 24.4-.8 22.7s-1.1-3.6-1.5-4.2c-.3-.6-.7-6.4-.9-12.9-.2-10.9-.5-12.3-3.4-18.5l-3.1-6.7 2.4-1.6c1.3-.8 2.4-2.2 2.4-3 0-.9 1-1.5 2.5-1.5h2.5zm10.6-23.7c.3 1.1 1.5 2.5 2.6 3 1.7 1 1.8 1.3.4 3.3-3.8 5.9-5.7 14.1-5.7 24.7 0 5.8-.4 11-.9 11.5-.4.6-1.2 3.3-1.7 6-.7 3.7-1-2.2-1.1-22.8L130 172h2.9c2.1 0 3.2.6 3.6 2"/>
        <path d="M111 168.5c-2.6 3.2 1.3 8.1 4.8 5.9 2.1-1.4 2.8-5.4 1-6.5-2-1.3-4.4-1.1-5.8.6m29 0c-2.6 3.2 1.3 8.1 4.8 5.9 2.1-1.4 2.8-5.4 1-6.5-2-1.3-4.4-1.1-5.8.6m63.1-110.8c-2.3 2.8-2.7 4-3.5 11.7-.4 2.7-1.5 6.3-2.5 7.9-1.8 2.9-1.8 3 .1 6.3 1.1 1.8 2.2 5.9 2.5 9.1.7 6.6 2.4 10.8 5.2 12.3 1.1.5 6.5 1 12 1H227V55h-10.9c-10.7 0-11 .1-13 2.7M88 70c0 1.9-.7 2-12.5 2-11.2 0-12.5.2-12.5 1.7 0 1 .9 2.9 1.9 4.3 1.9 2.4 1.9 2.5 0 4.8-3.7 4.7-2.9 5.1 10.4 5.4 11.8.3 12.2.4 12.5 2.5.3 2 .9 2.3 4.8 2.3 5.1 0 8.4-2.5 8.4-6.6 0-1.4.5-3.5 1.1-4.6.8-1.4.8-2.3 0-3.1-.6-.6-1.1-2.3-1.1-3.7 0-4.8-2.5-7-8.1-7-4.2 0-4.9.3-4.9 2m69.6.2c-.9 1.2-1.6 3.4-1.6 4.8s-.5 3.1-1.1 3.7c-.8.8-.8 1.7 0 3.1.6 1.1 1.1 3.2 1.1 4.6 0 4.1 3.3 6.6 8.4 6.6 3.9 0 4.5-.3 4.8-2.3.3-2.1.7-2.2 12.6-2.5 13.2-.3 14-.7 10.3-5.4-1.9-2.3-1.9-2.4 0-4.8 1-1.4 1.9-3.3 1.9-4.3 0-1.5-1.3-1.7-12.5-1.7-11.8 0-12.5-.1-12.5-2 0-1.7-.7-2-4.9-2-4 0-5.3.4-6.5 2.2"/>
    </g>
</svg>
