<?xml version="1.0" standalone="no"?>
<!DOCTYPE svg PUBLIC "-//W3C//DTD SVG 20010904//EN"
 "http://www.w3.org/TR/2001/REC-SVG-20010904/DTD/svg10.dtd">
<svg version="1.0" xmlns="http://www.w3.org/2000/svg"
 width="256.000000pt" height="256.000000pt" viewBox="0 0 256.000000 256.000000"
 preserveAspectRatio="xMidYMid meet">
<metadata>
Created by potrace 1.16, written by Peter Selinger 2001-2019
</metadata>
<g transform="translate(0.000000,256.000000) scale(0.100000,-0.100000)"
fill="#f2f2f2" stroke="none">
<path d="M1259 2327 c-11 -12 -35 -42 -53 -67 -23 -32 -52 -55 -101 -81 l-70
-36 37 -26 c52 -37 78 -93 88 -194 10 -97 40 -158 92 -191 32 -21 33 -21 63
-2 54 33 85 96 95 192 10 103 35 157 89 196 l39 29 -32 11 c-64 24 -126 72
-160 126 -42 64 -60 74 -87 43z"/>
<path d="M300 1755 l0 -255 101 0 c55 0 109 5 120 10 28 15 45 57 52 123 3 32
14 73 25 91 20 33 20 34 0 65 -11 18 -22 57 -25 92 -4 38 -14 72 -27 92 l-22
32 -112 3 -112 3 0 -256z"/>
<path d="M1034 1997 c-10 -26 14 -167 35 -207 19 -37 20 -43 6 -64 -8 -12 -19
-56 -23 -97 -7 -71 -8 -75 -39 -89 -32 -15 -33 -16 -33 -86 l0 -71 -59 -12
-59 -12 10 -37 c20 -76 73 -165 138 -235 37 -40 70 -82 74 -95 11 -35 -3 -80
-37 -119 l-31 -36 28 -21 c59 -44 94 -87 110 -132 17 -52 21 -184 7 -245 -7
-32 -4 -43 25 -90 19 -29 41 -72 50 -96 15 -39 20 -43 50 -43 28 0 33 4 39 29
3 16 24 59 47 96 l40 67 -12 82 c-20 142 13 251 95 308 25 18 45 39 45 47 0 8
-12 27 -26 42 -18 19 -28 42 -31 73 -5 45 -5 46 64 120 71 76 121 158 144 234
15 51 10 57 -58 67 l-43 6 0 72 c0 71 -1 72 -33 87 -30 14 -32 19 -42 90 -6
41 -16 85 -23 97 -11 19 -9 29 10 65 16 32 23 66 26 131 l4 87 -34 0 -35 0 -5
-82 c-3 -46 -14 -102 -23 -125 -19 -48 -71 -98 -123 -120 -31 -13 -36 -12 -77
11 -47 28 -91 75 -107 115 -6 14 -13 64 -17 111 l-6 85 -33 3 c-21 2 -34 -2
-38 -11z m376 -474 c0 -37 -4 -63 -8 -57 -4 5 -25 30 -46 57 -31 38 -43 47
-69 47 -41 0 -50 -6 -92 -65 l-35 -50 0 68 0 67 125 0 125 0 0 -67z m-99 7
c15 -9 19 -22 19 -65 0 -29 5 -57 10 -60 6 -3 10 -18 10 -32 0 -35 67 -98 117
-110 45 -10 50 -33 9 -44 -61 -17 -66 -30 -66 -166 0 -124 0 -125 -29 -154
-27 -26 -36 -29 -96 -29 -60 0 -69 3 -87 25 -11 14 -26 25 -34 25 -11 0 -14
25 -14 136 l0 135 -45 20 c-53 23 -58 44 -12 53 51 10 96 43 113 83 9 21 20
46 25 55 5 10 9 39 9 66 0 66 24 87 71 62z m-136 -634 c38 -28 14 -106 -32
-106 -16 0 -63 44 -63 58 0 18 42 62 59 62 9 0 26 -6 36 -14z m295 -6 c11 -11
20 -29 20 -40 0 -24 -34 -60 -55 -60 -17 0 -65 43 -65 58 0 19 42 62 61 62 10
0 28 -9 39 -20z m-211 -307 c-1 -142 -4 -244 -8 -227 -4 17 -11 36 -15 42 -3
6 -7 64 -9 129 -2 109 -5 123 -34 185 l-31 67 24 16 c13 8 24 22 24 30 0 9 10
15 25 15 l25 0 -1 -257z m106 237 c3 -11 15 -25 26 -30 17 -10 18 -13 4 -33
-38 -59 -57 -141 -57 -247 0 -58 -4 -110 -9 -115 -4 -6 -12 -33 -17 -60 -7
-37 -10 22 -11 228 l-1 277 29 0 c21 0 32 -6 36 -20z"/>
<path d="M1110 875 c-26 -32 13 -81 48 -59 21 14 28 54 10 65 -20 13 -44 11
-58 -6z"/>
<path d="M1400 875 c-26 -32 13 -81 48 -59 21 14 28 54 10 65 -20 13 -44 11
-58 -6z"/>
<path d="M2031 1983 c-23 -28 -27 -40 -35 -117 -4 -27 -15 -63 -25 -79 -18
-29 -18 -30 1 -63 11 -18 22 -59 25 -91 7 -66 24 -108 52 -123 11 -5 65 -10
120 -10 l101 0 0 255 0 255 -109 0 c-107 0 -110 -1 -130 -27z"/>
<path d="M880 1860 c0 -19 -7 -20 -125 -20 -112 0 -125 -2 -125 -17 0 -10 9
-29 19 -43 19 -24 19 -25 0 -48 -37 -47 -29 -51 104 -54 118 -3 122 -4 125
-25 3 -20 9 -23 48 -23 51 0 84 25 84 66 0 14 5 35 11 46 8 14 8 23 0 31 -6 6
-11 23 -11 37 0 48 -25 70 -81 70 -42 0 -49 -3 -49 -20z"/>
<path d="M1576 1858 c-9 -12 -16 -34 -16 -48 0 -14 -5 -31 -11 -37 -8 -8 -8
-17 0 -31 6 -11 11 -32 11 -46 0 -41 33 -66 84 -66 39 0 45 3 48 23 3 21 7 22
126 25 132 3 140 7 103 54 -19 23 -19 24 0 48 10 14 19 33 19 43 0 15 -13 17
-125 17 -118 0 -125 1 -125 20 0 17 -7 20 -49 20 -40 0 -53 -4 -65 -22z"/>
</g>
</svg>
