<?xml version="1.0" standalone="no"?>
<!DOCTYPE svg PUBLIC "-//W3C//DTD SVG 20010904//EN"
 "http://www.w3.org/TR/2001/REC-SVG-20010904/DTD/svg10.dtd">
<svg version="1.0" xmlns="http://www.w3.org/2000/svg"
 width="256.000000pt" height="256.000000pt" viewBox="0 0 256.000000 256.000000"
 preserveAspectRatio="xMidYMid meet">
<metadata>
Created by potrace 1.16, written by Peter Selinger 2001-2019
</metadata>
<g transform="translate(0.000000,256.000000) scale(0.100000,-0.100000)"
fill="#f2f2f2" stroke="none">
<path d="M1485 2350 c-19 -21 -18 -22 162 -202 157 -157 184 -180 197 -169 9
8 16 19 16 25 0 6 -80 91 -178 189 l-178 178 -19 -21z"/>
<path d="M1412 2277 l-33 -34 35 -76 c38 -84 86 -217 86 -239 0 -8 -126 -139
-280 -292 l-280 -278 147 7 148 7 212 210 c198 198 211 213 200 235 -8 19 -7
29 10 51 16 21 29 27 62 28 40 1 81 25 81 48 0 6 -80 91 -178 189 l-178 177
-32 -33z"/>
<path d="M1879 1954 c-11 -13 6 -34 121 -149 127 -128 135 -134 152 -118 18
16 13 23 -114 150 -73 73 -136 133 -139 133 -4 0 -12 -7 -20 -16z"/>
<path d="M1807 1882 c-15 -16 -27 -39 -27 -54 0 -31 -45 -72 -71 -65 -11 3
-37 -16 -73 -52 l-56 -57 30 -22 c16 -13 30 -30 30 -40 0 -9 -25 -42 -57 -74
-69 -69 -64 -83 26 -82 l61 1 88 85 c115 112 164 128 256 81 27 -14 30 -14 60
16 l31 31 -130 130 c-71 72 -132 130 -135 130 -4 0 -18 -13 -33 -28z"/>
<path d="M1343 1418 c-246 -246 -243 -225 -38 -227 l120 -1 110 111 110 110
-47 -2 c-39 -2 -52 2 -73 21 l-25 24 55 56 c58 59 69 92 36 110 -11 5 -23 10
-27 10 -5 0 -104 -96 -221 -212z"/>
<path d="M1652 1367 c-50 -51 -92 -95 -92 -99 0 -3 11 -9 25 -12 28 -7 49 -39
41 -64 -4 -10 -28 -39 -54 -65 l-48 -48 -165 11 c-90 5 -190 12 -221 15 l-58
5 0 -39 0 -39 168 -7 167 -7 57 -62 c32 -33 58 -64 58 -68 0 -5 11 -8 25 -8
23 0 25 4 25 43 0 42 4 47 104 145 101 100 104 102 149 102 26 0 67 -7 93 -16
47 -16 47 -16 73 10 l26 26 -135 135 c-74 74 -137 135 -140 135 -3 0 -47 -42
-98 -93z"/>
<path d="M1095 1323 c-32 -3 -50 -14 -93 -56 -50 -49 -52 -52 -30 -59 68 -19
91 -11 158 57 72 72 74 68 -35 58z"/>
<path d="M955 1310 c-11 -4 -40 -29 -65 -54 l-44 -46 30 0 c23 0 42 13 84 55
42 42 50 55 35 54 -11 0 -29 -4 -40 -9z"/>
<path d="M780 1135 c-18 -19 -31 -24 -50 -20 -18 4 -39 -3 -73 -26 -78 -52
-143 -146 -183 -266 -9 -26 -31 -76 -49 -110 -32 -59 -33 -62 -15 -68 11 -4
20 -13 20 -21 0 -37 68 -4 131 63 36 38 48 59 53 95 16 108 107 198 201 198
l42 0 0 47 c0 39 4 50 31 75 23 20 43 28 68 28 24 0 34 4 32 13 -3 8 -34 13
-94 15 -85 3 -91 1 -114 -23z"/>
<path d="M917 1072 c-38 -42 -9 -112 46 -112 26 0 67 40 67 65 0 7 -9 24 -21
39 -24 31 -68 35 -92 8z"/>
<path d="M1068 790 c-1 -110 -2 -216 -2 -237 -1 -20 4 -38 10 -40 6 -2 10 6
10 18 -1 29 27 47 48 30 9 -8 16 -22 16 -32 0 -18 10 -19 160 -19 l160 0 0 40
c0 40 0 40 -39 40 -21 0 -44 6 -51 14 -8 11 -11 66 -9 193 l2 178 -66 3 -67 3
0 -74 c0 -41 -3 -108 -6 -150 l-7 -77 -48 0 -49 0 0 155 0 155 -30 0 -30 0 -2
-200z"/>
<path d="M738 915 c-39 -27 -85 -107 -94 -166 -5 -28 -21 -52 -65 -95 -32 -32
-59 -63 -59 -70 0 -6 20 -55 45 -110 49 -110 48 -109 132 -78 55 20 89 61 109
132 25 89 60 141 107 163 23 10 52 19 65 19 22 0 23 2 20 91 l-3 91 -64 24
c-84 32 -145 31 -193 -1z"/>
<path d="M1417 828 c-4 -62 -7 -132 -7 -155 0 -42 1 -43 34 -43 l33 0 6 123 6
122 -33 33 -33 34 -6 -114z"/>
<path d="M934 641 c-46 -28 -72 -67 -94 -141 -30 -100 -55 -132 -120 -152 -30
-9 -81 -21 -113 -28 -47 -9 -67 -20 -103 -54 -45 -44 -59 -75 -26 -60 9 4 73
10 142 14 112 5 130 9 176 34 77 42 122 83 165 148 61 96 70 197 21 241 -16
15 -20 15 -48 -2z"/>
</g>
</svg>
