<?xml version="1.0" standalone="no"?>
<!DOCTYPE svg PUBLIC "-//W3C//DTD SVG 20010904//EN"
 "http://www.w3.org/TR/2001/REC-SVG-20010904/DTD/svg10.dtd">
<svg version="1.0" xmlns="http://www.w3.org/2000/svg"
 width="256.000000pt" height="256.000000pt" viewBox="0 0 256.000000 256.000000"
 preserveAspectRatio="xMidYMid meet">
<metadata>
Created by potrace 1.16, written by Peter Selinger 2001-2019
</metadata>
<g transform="translate(0.000000,256.000000) scale(0.100000,-0.100000)"
fill="#f2f2f2" stroke="none">
<path d="M1044 2258 c-41 -81 -39 -95 17 -113 21 -7 39 -22 48 -41 17 -36 51
-74 66 -74 6 0 22 -11 35 -25 21 -22 25 -23 33 -10 6 11 3 24 -7 40 -9 13 -16
40 -16 58 0 30 -4 35 -28 40 -15 3 -39 15 -54 26 -32 25 -59 101 -51 142 9 47
-4 34 -43 -43z"/>
<path d="M1503 2301 c8 -41 -19 -117 -51 -142 -15 -11 -39 -23 -54 -26 -24 -5
-28 -10 -28 -40 0 -18 -7 -45 -16 -58 -10 -16 -13 -29 -7 -40 8 -13 12 -12 33
10 13 14 29 25 35 25 15 0 49 38 66 74 9 19 27 34 48 41 56 18 58 32 17 113
-39 77 -52 90 -43 43z"/>
<path d="M983 2133 c-4 -11 1 -21 15 -31 13 -9 22 -25 22 -41 1 -21 12 -32 62
-61 33 -19 79 -52 102 -72 37 -34 39 -39 24 -48 -22 -13 -23 -43 -3 -60 13
-11 15 -8 15 20 0 19 7 42 16 51 16 17 15 21 -10 54 -15 19 -47 48 -71 65 -26
18 -51 46 -60 66 -8 20 -25 38 -42 45 -15 6 -36 15 -46 20 -13 7 -19 5 -24 -8z"/>
<path d="M1581 2136 c-7 -8 -24 -16 -39 -18 -20 -2 -32 -14 -48 -43 -11 -22
-34 -49 -50 -60 -16 -11 -47 -39 -68 -62 -36 -40 -37 -43 -22 -65 9 -12 16
-35 16 -51 0 -25 2 -28 15 -17 20 17 19 40 -2 55 -16 12 -14 16 20 48 21 18
67 51 102 72 47 27 65 43 65 58 0 11 9 31 21 43 15 16 18 27 12 39 -8 14 -11
15 -22 1z"/>
<path d="M880 2041 l-20 -41 -72 0 c-67 0 -74 -2 -114 -36 -40 -32 -44 -39
-44 -80 l0 -44 45 0 c40 0 47 -3 56 -27 25 -66 9 -123 -163 -558 -92 -231
-169 -431 -172 -445 -3 -16 -52 -65 -136 -138 -71 -62 -130 -117 -130 -122 0
-8 65 -126 77 -140 2 -2 69 18 149 45 l145 50 19 65 c10 36 88 308 174 605 85
297 159 552 165 566 5 15 24 37 41 49 35 25 35 30 6 136 -10 37 -12 64 -5 99
5 27 7 50 5 53 -3 2 -14 -14 -26 -37z"/>
<path d="M1685 2050 c11 -50 7 -112 -9 -159 -22 -61 -21 -69 22 -115 36 -40
43 -60 211 -651 96 -335 177 -613 180 -617 4 -4 70 -30 148 -57 l142 -50 41
69 c22 37 40 72 40 77 0 5 -58 60 -130 121 -89 77 -132 121 -136 140 -3 15
-82 219 -175 453 -177 445 -187 481 -159 553 8 23 15 26 55 26 l45 0 0 37 c0
30 -8 45 -42 80 -42 43 -42 43 -115 43 l-73 0 -20 40 c-24 48 -34 51 -25 10z"/>
<path d="M1282 1978 c-16 -16 -15 -33 2 -47 21 -18 41 11 26 38 -13 25 -12 25
-28 9z"/>
<path d="M1016 1942 c-3 -5 10 -14 29 -20 57 -21 63 -38 26 -76 l-32 -33 20
-61 c24 -71 27 -166 6 -202 -17 -29 -20 -96 -5 -105 6 -3 10 2 10 13 0 10 18
54 40 98 21 43 47 109 57 146 17 64 17 69 0 97 -9 16 -16 45 -14 66 2 30 -3
41 -23 55 -28 20 -106 35 -114 22z"/>
<path d="M1462 1920 c-32 -20 -33 -23 -27 -61 5 -31 3 -45 -11 -60 -16 -18
-17 -26 -6 -82 7 -34 30 -98 52 -142 21 -44 42 -93 46 -108 4 -20 10 -25 17
-18 15 15 11 64 -7 100 -19 35 -21 142 -4 174 28 53 27 84 -5 122 -33 41 -33
41 38 75 l40 20 -50 0 c-33 0 -61 -7 -83 -20z"/>
<path d="M536 1832 c-43 -44 -47 -53 -41 -81 5 -26 -13 -78 -112 -308 l-118
-278 -3 -159 -3 -160 -63 -70 c-51 -57 -64 -79 -69 -113 -3 -25 -1 -46 5 -49
6 -4 59 42 118 101 l107 107 7 134 7 134 80 193 c76 182 80 195 74 247 -5 54
-4 59 55 164 33 59 60 110 60 112 0 2 -11 4 -24 4 -21 0 -25 5 -28 36 l-3 35
-49 -49z"/>
<path d="M2000 1840 c0 -25 -4 -30 -25 -30 -14 0 -25 -3 -25 -6 0 -3 27 -54
60 -114 58 -104 60 -111 54 -162 -5 -50 0 -66 75 -249 l80 -196 7 -134 6 -134
107 -102 c58 -56 110 -101 116 -99 5 1 8 22 6 47 -2 39 -10 52 -67 111 l-64
66 0 152 0 153 -111 266 c-62 146 -116 271 -121 278 -6 7 -7 30 -3 51 5 34 2
42 -35 85 -23 26 -46 47 -51 47 -5 0 -9 -13 -9 -30z"/>
<path d="M611 1696 c-74 -140 -77 -158 -22 -120 19 14 25 14 32 3 5 -8 9 -20
9 -27 0 -30 26 -2 49 54 30 74 36 196 10 202 -12 2 -33 -28 -78 -112z"/>
<path d="M1886 1794 c-15 -39 1 -125 41 -226 18 -44 28 -48 37 -13 7 29 18 31
51 9 23 -15 25 -15 25 1 0 26 -120 245 -135 245 -7 0 -16 -7 -19 -16z"/>
<path d="M1012 1608 c-18 -27 -34 -48 -36 -48 -2 0 -21 7 -42 16 -35 15 -37
15 -24 -1 15 -18 63 -45 79 -45 18 0 63 77 59 102 -3 21 -6 18 -36 -24z"/>
<path d="M1538 1645 c-12 -12 6 -56 36 -90 l31 -35 43 25 c52 32 56 52 4 26
l-38 -19 -34 49 c-36 53 -34 51 -42 44z"/>
<path d="M1291 1560 c0 -8 -10 -232 -22 -497 l-22 -482 22 -168 c20 -147 31
-208 31 -162 0 8 9 85 21 173 l21 159 -21 486 c-19 417 -27 556 -30 491z"/>
<path d="M97 1303 c-13 -21 -27 -44 -31 -50 -7 -12 29 -441 39 -470 7 -22 30
-14 62 20 l32 32 11 176 12 175 -47 77 c-26 42 -48 77 -51 77 -2 0 -14 -17
-27 -37z"/>
<path d="M993 1135 c-102 -182 -113 -207 -113 -251 l1 -49 27 34 c22 28 207
460 199 467 -1 1 -53 -89 -114 -201z"/>
<path d="M2415 1260 l-46 -79 11 -173 11 -173 31 -32 c36 -37 68 -43 68 -14 0
11 9 116 21 234 l20 215 -31 51 c-18 28 -33 51 -35 51 -2 0 -24 -36 -50 -80z"/>
<path d="M1492 1300 c44 -121 168 -404 189 -434 l29 -40 0 52 c0 47 -9 69
-102 235 -93 167 -130 227 -116 187z"/>
</g>
</svg>
