<svg xmlns="http://www.w3.org/2000/svg" width="341.333" height="341.333" version="1.0" viewBox="0 0 256 256">
    <g fill="#e5e5e5">
        <path d="M123 30.8c-6 9.1-25.8 28.8-34.8 34.6-9.8 6.5-25 14.1-33.2 16.8l-6.8 2.1-.7 10.4c-.8 11.2-.3 33.8.7 34.9 1.8 1.8 45-25.9 58.6-37.6 9.3-8 16.4-16.5 19-22.7.9-2.4 1.9-4.3 2.2-4.3s1.3 1.9 2.2 4.3c2.6 6.2 9.7 14.7 19 22.7 13.6 11.7 56.8 39.4 58.6 37.6 1-1.1 1.5-23.7.7-34.9l-.7-10.4-6.8-2.1c-8.2-2.7-23.4-10.3-33.2-16.8-9-5.8-28.8-25.5-34.8-34.6-2.5-3.7-4.7-6.7-5-6.7s-2.5 3-5 6.7"/>
        <path d="M94.5 132.5c-31.6 18.7-40.5 25-40.5 29 0 3 8.8 25.4 10 25.5.3 0 5.6-3 11.8-6.7 26-15.7 44-30.9 48.9-41.3 1.5-3.3 3-5.9 3.3-5.9s1.8 2.6 3.3 5.9c4.9 10.4 22.9 25.6 48.9 41.2 6.2 3.8 11.5 6.8 11.8 6.8.7 0 6.5-13.6 8.6-20.2l1.7-5.7-2.6-3.5c-1.5-1.9-3.9-4.3-5.4-5.4-3.5-2.4-63.8-38.1-65.5-38.7-.7-.3-16.1 8.3-34.3 19"/>
        <path d="M102.5 189.1c-13.7 8.2-25.3 15.3-25.8 15.8-1.6 1.6 14.3 14 23.8 18.7 8.8 4.3 22.1 8.4 27.5 8.4s18.7-4.1 27.5-8.4c9.5-4.7 25.4-17.1 23.8-18.7-.8-.8-51.4-31-51.7-30.8 0 0-11.3 6.8-25.1 15"/>
    </g>
</svg>
