<?xml version="1.0" standalone="no"?>
<!DOCTYPE svg PUBLIC "-//W3C//DTD SVG 20010904//EN"
 "http://www.w3.org/TR/2001/REC-SVG-20010904/DTD/svg10.dtd">
<svg version="1.0" xmlns="http://www.w3.org/2000/svg"
 width="256.000000pt" height="256.000000pt" viewBox="0 0 256.000000 256.000000"
 preserveAspectRatio="xMidYMid meet">
<metadata>
Created by potrace 1.16, written by Peter Selinger 2001-2019
</metadata>
<g transform="translate(0.000000,256.000000) scale(0.100000,-0.100000)"
fill="#f2f2f2" stroke="none">
<path d="M1230 2252 c-60 -91 -258 -288 -348 -346 -98 -65 -250 -141 -332
-168 l-68 -21 -7 -104 c-8 -112 -3 -338 7 -349 18 -18 450 259 586 376 93 80
164 165 190 227 9 24 19 43 22 43 3 0 13 -19 22 -43 26 -62 97 -147 190 -227
136 -117 568 -394 586 -376 10 11 15 237 7 349 l-7 104 -68 21 c-82 27 -234
103 -332 168 -90 58 -288 255 -348 346 -25 37 -47 67 -50 67 -3 0 -25 -30 -50
-67z"/>
<path d="M945 1235 c-316 -187 -405 -250 -405 -290 0 -30 88 -254 100 -255 3
0 56 30 118 67 260 157 440 309 489 413 15 33 30 59 33 59 3 0 18 -26 33 -59
49 -104 229 -256 489 -412 62 -38 115 -68 118 -68 7 0 65 136 86 202 l17 57
-26 35 c-15 19 -39 43 -54 54 -35 24 -638 381 -655 387 -7 3 -161 -83 -343
-190z"/>
<path d="M1025 669 c-137 -82 -253 -153 -258 -158 -16 -16 143 -140 238 -187
88 -43 221 -84 275 -84 54 0 187 41 275 84 95 47 254 171 238 187 -8 8 -514
310 -517 308 0 0 -113 -68 -251 -150z"/>
</g>
</svg>
