<?xml version="1.0" standalone="no"?>
<!DOCTYPE svg PUBLIC "-//W3C//DTD SVG 20010904//EN"
 "http://www.w3.org/TR/2001/REC-SVG-20010904/DTD/svg10.dtd">
<svg version="1.0" xmlns="http://www.w3.org/2000/svg"
 width="256.000000pt" height="256.000000pt" viewBox="0 0 256.000000 256.000000"
 preserveAspectRatio="xMidYMid meet">
<metadata>
Created by potrace 1.16, written by Peter Selinger 2001-2019
</metadata>
<g transform="translate(0.000000,256.000000) scale(0.100000,-0.100000)"
fill="#f2f2f2" stroke="none">
<path d="M1230 2085 c0 -245 2 -445 4 -445 2 0 16 19 31 42 31 46 29 47 77
-23 16 -23 17 0 17 424 l1 447 -65 0 -65 0 0 -445z"/>
<path d="M847 2154 c-8 -9 -7 -878 2 -984 l6 -75 58 83 57 84 -2 446 -3 447
-55 3 c-31 2 -59 0 -63 -4z"/>
<path d="M1627 2154 c-4 -4 -7 -206 -7 -450 l0 -442 58 -84 57 -83 7 95 c5 52
7 291 5 530 l-2 435 -55 3 c-31 2 -59 0 -63 -4z"/>
<path d="M490 1113 c0 -452 2 -535 14 -523 7 8 36 49 65 91 l51 75 0 447 0
447 -65 0 -65 0 0 -537z"/>
<path d="M1970 1203 l0 -447 51 -75 c29 -42 58 -83 65 -91 12 -12 14 71 14
523 l0 537 -65 0 -65 0 0 -447z"/>
<path d="M130 665 c0 -333 2 -605 4 -605 2 0 29 36 60 80 l56 79 0 526 0 525
-60 0 -60 0 0 -605z"/>
<path d="M2340 745 l0 -526 56 -79 c31 -44 58 -80 60 -80 2 0 4 272 4 605 l0
605 -60 0 -60 0 0 -525z"/>
<path d="M1268 1108 c-31 -41 -732 -1030 -742 -1046 -5 -9 176 -12 759 -12
610 0 766 3 762 13 -6 15 -724 1046 -742 1065 -10 12 -17 8 -37 -20z"/>
</g>
</svg>
