<?xml version="1.0" standalone="no"?>
<!DOCTYPE svg PUBLIC "-//W3C//DTD SVG 20010904//EN"
 "http://www.w3.org/TR/2001/REC-SVG-20010904/DTD/svg10.dtd">
<svg version="1.0" xmlns="http://www.w3.org/2000/svg"
 width="256.000000pt" height="256.000000pt" viewBox="0 0 256.000000 256.000000"
 preserveAspectRatio="xMidYMid meet">
<metadata>
Created by potrace 1.16, written by Peter Selinger 2001-2019
</metadata>
<g transform="translate(0.000000,256.000000) scale(0.100000,-0.100000)"
fill="#f2f2f2" stroke="none">
<path d="M1136 2339 c-446 -65 -814 -420 -896 -863 -16 -84 -50 -127 -141
-176 l-62 -33 57 -30 c73 -39 132 -103 145 -159 54 -221 141 -388 276 -533
l55 -59 52 51 51 51 -64 71 c-97 106 -166 230 -211 381 -29 95 -36 310 -14
420 61 298 278 563 555 675 217 89 490 90 698 4 375 -156 605 -520 580 -918
-13 -214 -110 -460 -231 -589 l-30 -32 54 -55 54 -55 23 28 c93 110 187 292
228 442 51 184 73 218 184 279 l54 29 -53 27 c-29 15 -74 48 -100 74 -41 41
-48 54 -54 101 -9 70 -56 211 -97 292 -95 189 -258 356 -449 461 -188 102
-447 148 -664 116z"/>
<path d="M1125 2086 c-406 -94 -675 -446 -652 -854 9 -179 87 -358 214 -492
l65 -69 39 31 38 31 -55 61 c-75 83 -137 185 -170 281 -25 70 -28 95 -28 205
-1 104 3 138 22 200 64 205 194 360 377 450 116 58 189 74 325 74 136 0 209
-16 325 -74 182 -90 313 -245 377 -450 30 -97 32 -288 4 -390 -25 -94 -88
-219 -146 -291 l-50 -63 32 -33 c17 -18 35 -33 39 -33 13 0 101 124 134 190
225 448 60 959 -376 1164 -41 20 -101 43 -134 52 -82 22 -301 28 -380 10z"/>
<path d="M1140 1894 c-179 -46 -341 -176 -418 -334 -54 -110 -72 -183 -72
-295 0 -99 16 -168 58 -250 28 -57 95 -145 141 -190 l31 -29 32 31 31 32 -65
70 c-145 157 -182 337 -108 534 78 209 306 367 530 367 144 0 300 -67 405
-174 207 -209 220 -502 35 -745 l-41 -53 28 -30 28 -30 43 49 c87 97 161 289
162 416 0 80 -29 198 -72 287 -33 70 -56 100 -127 170 -96 95 -186 147 -301
174 -81 20 -247 19 -320 0z"/>
<path d="M1258 1628 c-113 -14 -220 -91 -279 -200 -32 -60 -34 -68 -34 -163 0
-113 14 -153 84 -235 l39 -44 122 117 c67 64 127 117 133 117 5 0 63 -52 128
-116 l117 -116 31 33 c17 19 43 59 58 89 25 49 28 66 28 155 0 95 -2 103 -34
163 -79 146 -227 222 -393 200z"/>
<path d="M1071 853 l-241 -248 22 -19 c32 -27 152 -81 223 -101 38 -11 115
-19 212 -22 209 -7 319 18 470 109 l52 31 -241 249 c-132 136 -244 248 -249
248 -4 0 -116 -111 -248 -247z"/>
<path d="M1844 509 c-116 -79 -284 -135 -444 -148 -222 -18 -414 23 -581 125
l-61 37 -49 -49 c-27 -26 -49 -51 -49 -54 0 -10 117 -80 194 -115 43 -20 122
-48 175 -63 84 -22 116 -25 266 -26 188 -1 277 13 420 65 82 30 215 101 239
128 12 14 8 22 -33 68 l-48 51 -29 -19z"/>
</g>
</svg>
