<?xml version="1.0" standalone="no"?>
<!DOCTYPE svg PUBLIC "-//W3C//DTD SVG 20010904//EN"
 "http://www.w3.org/TR/2001/REC-SVG-20010904/DTD/svg10.dtd">
<svg version="1.0" xmlns="http://www.w3.org/2000/svg"
 width="256.000000pt" height="256.000000pt" viewBox="0 0 256.000000 256.000000"
 preserveAspectRatio="xMidYMid meet">
<metadata>
Created by potrace 1.16, written by Peter Selinger 2001-2019
</metadata>
<g transform="translate(0.000000,256.000000) scale(0.100000,-0.100000)"
fill="#f2f2f2" stroke="none">
<path d="M750 2015 l0 -170 265 -265 265 -265 265 265 266 266 -3 167 -3 168
-263 -257 -264 -257 -186 184 c-103 101 -222 218 -264 259 l-78 74 0 -169z"/>
<path d="M150 1720 l0 -205 565 -570 565 -570 565 570 565 570 0 205 0 204
-57 -56 c-32 -30 -285 -277 -562 -547 -278 -270 -508 -491 -511 -491 -3 0
-233 221 -511 491 -277 270 -530 517 -561 547 l-58 56 0 -204z"/>
</g>
</svg>
