<?xml version="1.0" standalone="no"?>
<!DOCTYPE svg PUBLIC "-//W3C//DTD SVG 20010904//EN"
 "http://www.w3.org/TR/2001/REC-SVG-20010904/DTD/svg10.dtd">
<svg version="1.0" xmlns="http://www.w3.org/2000/svg"
 width="256.000000pt" height="256.000000pt" viewBox="0 0 256.000000 256.000000"
 preserveAspectRatio="xMidYMid meet">
<metadata>
Created by potrace 1.16, written by Peter Selinger 2001-2019
</metadata>
<g transform="translate(0.000000,256.000000) scale(0.100000,-0.100000)"
fill="#f2f2f2" stroke="none">
<path d="M824 1948 c-341 -343 -456 -464 -472 -499 -48 -107 -48 -231 0 -338
16 -35 131 -156 475 -501 l453 -455 453 455 c344 345 459 466 475 501 33 73
45 159 32 232 -22 122 -29 130 -508 610 -246 246 -449 447 -452 447 -3 0 -208
-204 -456 -452z m893 -40 c286 -288 439 -448 455 -478 20 -39 23 -59 23 -150
0 -95 -3 -110 -27 -155 -19 -35 -152 -175 -457 -480 l-431 -430 -429 429
c-296 296 -439 446 -458 480 -26 47 -28 60 -28 156 0 91 3 111 24 150 15 30
169 192 454 478 238 237 434 432 437 432 3 0 199 -195 437 -432z"/>
<path d="M1128 1973 l-98 -98 0 -135 0 -135 -162 -162 -163 -163 163 -163 162
-162 0 -135 0 -135 100 -100 100 -100 0 200 0 200 -197 197 -198 198 198 198
197 198 -2 197 -3 197 -97 -97z"/>
<path d="M1330 1875 l0 -200 195 -195 195 -195 -195 -195 -195 -195 0 -205 0
-205 100 100 100 100 0 135 0 135 162 162 163 163 -163 163 -162 162 0 135 0
135 -100 100 -100 100 0 -200z"/>
<path d="M739 1583 c-198 -199 -213 -221 -211 -309 1 -78 30 -119 221 -309
l181 -180 0 85 0 85 -162 162 -163 163 163 163 163 163 -3 82 -3 83 -186 -188z"/>
<path d="M1630 1690 l0 -85 160 -160 160 -160 -160 -160 -160 -160 0 -90 0
-90 181 180 c111 110 188 196 200 220 11 24 19 62 19 95 0 33 -8 71 -19 95
-12 24 -89 110 -200 220 l-181 180 0 -85z"/>
</g>
</svg>
