<?xml version="1.0" standalone="no"?>
<!DOCTYPE svg PUBLIC "-//W3C//DTD SVG 20010904//EN"
 "http://www.w3.org/TR/2001/REC-SVG-20010904/DTD/svg10.dtd">
<svg version="1.0" xmlns="http://www.w3.org/2000/svg"
 width="256.000000pt" height="256.000000pt" viewBox="0 0 256.000000 256.000000"
 preserveAspectRatio="xMidYMid meet">
<metadata>
Created by potrace 1.16, written by Peter Selinger 2001-2019
</metadata>
<g transform="translate(0.000000,256.000000) scale(0.100000,-0.100000)"
fill="#f2f2f2" stroke="none">
<path d="M870 2005 l-405 -405 408 -408 407 -407 407 407 408 408 -405 405
c-223 223 -407 405 -410 405 -3 0 -187 -182 -410 -405z"/>
<path d="M362 1147 l-42 -42 480 -480 480 -480 480 480 480 480 -45 45 -45 45
-435 -435 -435 -435 -433 433 c-237 237 -435 432 -437 432 -3 0 -25 -19 -48
-43z"/>
</g>
</svg>
