<?xml version="1.0" standalone="no"?>
<!DOCTYPE svg PUBLIC "-//W3C//DTD SVG 20010904//EN"
 "http://www.w3.org/TR/2001/REC-SVG-20010904/DTD/svg10.dtd">
<svg version="1.0" xmlns="http://www.w3.org/2000/svg"
 width="256.000000pt" height="256.000000pt" viewBox="0 0 256.000000 256.000000"
 preserveAspectRatio="xMidYMid meet">
<metadata>
Created by potrace 1.16, written by Peter Selinger 2001-2019
</metadata>
<g transform="translate(0.000000,256.000000) scale(0.100000,-0.100000)"
fill="#f2f2f2" stroke="none">
<path d="M1060 2195 l-215 -215 80 -80 80 -80 137 137 138 138 138 -138 137
-137 80 80 80 80 -215 215 c-118 118 -217 215 -220 215 -3 0 -102 -97 -220
-215z"/>
<path d="M430 2122 l0 -137 260 -260 260 -260 72 73 73 72 -325 325 c-179 179
-328 325 -332 325 -5 0 -8 -62 -8 -138z"/>
<path d="M1790 1935 l-325 -325 73 -72 72 -73 260 260 260 260 0 137 c0 76 -3
138 -8 138 -4 0 -153 -146 -332 -325z"/>
<path d="M360 1495 l-215 -215 217 -217 218 -218 80 80 80 80 -137 137 -138
138 138 138 137 137 -78 78 c-42 42 -80 77 -82 77 -3 0 -102 -97 -220 -215z"/>
<path d="M1897 1633 l-77 -78 137 -137 138 -138 -138 -138 -137 -137 80 -80
80 -80 218 218 217 217 -215 215 c-118 118 -217 215 -220 215 -3 0 -40 -35
-83 -77z"/>
<path d="M1065 1490 l-210 -210 213 -213 212 -212 212 212 213 213 -210 210
c-115 115 -212 210 -215 210 -3 0 -100 -95 -215 -210z"/>
<path d="M687 832 l-257 -257 0 -138 c0 -75 3 -137 8 -137 4 0 153 146 332
325 l325 325 -70 70 c-38 38 -72 70 -75 70 -3 0 -121 -116 -263 -258z"/>
<path d="M1535 1020 l-70 -70 325 -325 c179 -179 328 -325 332 -325 5 0 8 62
8 138 l0 137 -258 258 c-141 141 -259 257 -262 257 -3 0 -37 -32 -75 -70z"/>
<path d="M925 660 l-80 -80 218 -218 217 -217 217 217 218 218 -80 80 -80 80
-137 -137 -138 -138 -138 138 -137 137 -80 -80z"/>
</g>
</svg>
