<?xml version="1.0" standalone="no"?>
<!DOCTYPE svg PUBLIC "-//W3C//DTD SVG 20010904//EN"
 "http://www.w3.org/TR/2001/REC-SVG-20010904/DTD/svg10.dtd">
<svg version="1.0" xmlns="http://www.w3.org/2000/svg"
 width="256.000000pt" height="256.000000pt" viewBox="0 0 256.000000 256.000000"
 preserveAspectRatio="xMidYMid meet">
<metadata>
Created by potrace 1.16, written by Peter Selinger 2001-2019
</metadata>
<g transform="translate(0.000000,256.000000) scale(0.100000,-0.100000)"
fill="#f2f2f2" stroke="none">
<path d="M1115 2282 c-33 -16 -118 -76 -188 -135 -71 -58 -154 -119 -185 -135
-32 -17 -122 -50 -200 -73 -234 -69 -257 -97 -256 -304 2 -297 123 -646 432
-1241 65 -125 106 -184 129 -184 18 0 16 15 -21 154 -41 152 -34 314 17 412
59 115 208 176 427 176 219 0 368 -61 427 -176 51 -98 58 -260 17 -412 -37
-138 -39 -154 -21 -154 45 0 168 220 334 595 25 55 58 129 75 165 111 237 187
545 175 713 -10 156 -62 212 -232 256 -207 53 -260 80 -443 228 -58 47 -132
98 -166 114 -55 26 -72 29 -161 29 -89 0 -106 -3 -160 -28z m240 -356 c28 -7
100 -34 160 -59 61 -24 162 -61 225 -82 197 -65 267 -112 317 -212 23 -48 27
-70 30 -167 3 -106 2 -109 -12 -76 -42 98 -54 107 -209 150 -145 41 -183 61
-305 158 -145 116 -180 132 -283 132 -105 0 -151 -21 -268 -119 -129 -109
-163 -128 -315 -176 -191 -61 -214 -85 -216 -240 l-1 -70 -15 80 c-21 123 -13
259 21 328 49 100 119 147 316 212 63 21 165 58 225 83 183 75 236 84 330 58z
m36 -520 c46 -14 138 -38 204 -55 150 -38 185 -52 235 -97 31 -29 44 -51 59
-103 19 -63 33 -161 24 -161 -2 0 -16 9 -31 19 -15 11 -70 32 -122 46 -122 35
-152 51 -249 130 -115 93 -151 110 -236 110 -85 -1 -118 -17 -230 -110 -93
-78 -142 -105 -245 -134 -111 -32 -128 -41 -156 -75 l-25 -31 6 70 c10 117 39
197 85 239 50 45 84 59 250 102 74 19 164 43 200 53 87 26 132 25 231 -3z"/>
</g>
</svg>
