<?xml version="1.0" standalone="no"?>
<!DOCTYPE svg PUBLIC "-//W3C//DTD SVG 20010904//EN"
 "http://www.w3.org/TR/2001/REC-SVG-20010904/DTD/svg10.dtd">
<svg version="1.0" xmlns="http://www.w3.org/2000/svg"
 width="256.000000pt" height="256.000000pt" viewBox="0 0 256.000000 256.000000"
 preserveAspectRatio="xMidYMid meet">
<metadata>
Created by potrace 1.16, written by Peter Selinger 2001-2019
</metadata>
<g transform="translate(0.000000,256.000000) scale(0.100000,-0.100000)"
fill="#f2f2f2" stroke="none">
<path d="M1233 2486 l-28 -24 34 -241 c19 -133 37 -241 41 -241 4 0 22 108 41
241 l34 241 -28 24 c-16 13 -37 24 -47 24 -10 0 -31 -11 -47 -24z"/>
<path d="M415 2145 c-52 -51 -32 -79 148 -212 222 -164 243 -179 231 -163 -6
8 -69 94 -141 191 -163 220 -185 237 -238 184z"/>
<path d="M2065 2159 c-11 -6 -70 -79 -132 -162 -164 -222 -179 -243 -163 -231
8 6 94 69 191 141 220 163 237 185 184 238 -26 26 -47 30 -80 14z"/>
<path d="M752 1480 c-84 -142 -152 -262 -152 -265 0 -3 86 -4 192 -3 l191 3
95 228 95 227 107 0 107 0 95 -227 95 -228 191 -3 c106 -1 192 0 192 3 0 3
-68 123 -152 265 l-152 260 -376 0 -376 0 -152 -260z"/>
<path d="M1237 1543 c-3 -4 -40 -91 -82 -193 l-76 -185 98 -197 c53 -109 100
-198 103 -198 3 0 50 89 103 198 l99 197 -79 190 -78 190 -42 3 c-22 2 -43 -1
-46 -5z"/>
<path d="M71 1324 c-27 -35 -26 -57 3 -91 l24 -27 208 28 c201 28 271 47 213
60 -40 9 -380 56 -404 56 -13 0 -33 -11 -44 -26z"/>
<path d="M2213 1321 c-101 -15 -185 -30 -188 -33 -15 -15 38 -28 229 -54 l208
-28 24 27 c29 34 30 56 3 91 -26 32 -36 32 -276 -3z"/>
<path d="M600 1117 c0 -8 672 -622 680 -622 4 0 160 140 345 310 l338 310
-189 3 c-161 2 -191 0 -200 -13 -6 -8 -74 -130 -150 -270 -76 -140 -141 -255
-144 -255 -3 0 -71 121 -151 268 l-146 267 -192 3 c-105 1 -191 1 -191 -1z"/>
<path d="M608 661 c-102 -77 -194 -151 -204 -166 -22 -33 -10 -73 27 -94 47
-26 74 -4 196 162 168 227 175 237 171 237 -1 0 -87 -63 -190 -139z"/>
<path d="M1766 790 c6 -8 70 -95 142 -192 72 -97 143 -184 157 -194 33 -22 73
-10 94 27 26 47 4 74 -162 196 -223 165 -243 179 -231 163z"/>
<path d="M1247 383 c-2 -4 -13 -70 -23 -147 l-18 -139 28 -23 c34 -30 58 -30
92 0 l28 23 -18 139 c-10 77 -21 143 -23 147 -3 4 -11 3 -19 -4 -11 -9 -17 -9
-28 0 -8 7 -16 8 -19 4z"/>
</g>
</svg>
