<svg xmlns="http://www.w3.org/2000/svg" width="341.333" height="341.333" version="1.0" viewBox="0 0 256 256">
    <path fill="#e5e5e5" d="M151 39.3c-9.4 3.2-15.2 6.9-24.2 15.5-20.9 20-34.8 48.2-34.9 70.9-.1 14.3 1.3 16.7 18.4 31.6 3.6 3.1 8.4 8.5 10.6 11.9 4.5 6.8 4.3 6.9 6.6-3.9 3.9-18.9 3.9-34.5 0-54.6-1.9-10-1.9-22.5 0-31.9 2.7-13.1 12-28.8 20.8-35 2.5-1.7 2.1-1-2 3.5-14.3 15.8-17.7 37.3-10.3 65.2 5 18.9 5.2 40.9.4 55.2-.4 1 1.1-.7 3.2-3.7s7-8.7 11-12.7c9-9 11.4-14.5 11.4-26.4 0-10.7-1.8-19-9-40.4-8.3-24.8-8-30.7 2.1-42.8 2.2-2.6 3.7-4.7 3.2-4.7-.4 0-3.7 1.1-7.3 2.3M65.5 165.8c-7.9 2.8-13.9 6.5-26.4 16.2-9.6 7.5-17.7 11.2-26.1 11.8-3.8.2-7 .6-7 .9 0 1.5 4 5.9 7.5 8.3 11.1 7.7 24.3 7.9 45.6.7 29.5-10 46.8-8.3 60.6 6l5.6 5.8-.7-5c-.9-6.1-4.1-11-11.8-17.9-6.9-6.3-14.2-10.2-22.1-11.7-8.2-1.7-15.8.4-30.4 8.5-6.5 3.6-14.9 7.7-18.8 9.2-8.9 3.3-18.8 3.7-25.8 1-6.3-2.4-5.6-2.8 1.3-1 6.8 1.9 16.3 1.2 22.4-1.5 2.4-1 9.4-5.1 15.6-9.1 17.4-11.2 22.9-13.5 32.6-13.5 7.3 0 8.7.3 15.7 3.8 4.2 2.1 9.7 5.3 12.2 7.2 2.7 2.1 4.5 3 4.5 2.2 0-3-6.4-13.9-9.5-16.3-5.9-4.5-16.9-7.7-27.5-8.1-8.4-.3-10.4-.1-17.5 2.5m92.9 1.6c-9.7 2.2-14 5.2-19 13l-1.9 2.9 5.4-3.6c6.8-4.7 11.8-6 21.2-5.5 12 .7 21.1 5.6 39.9 21.6 10.5 8.9 20.8 13.1 33 13.3 6.4.1 6.4.1 2.5 1.1-6.5 1.6-15.6.4-22.7-2.9-3.5-1.7-11.9-7.4-18.8-12.8s-15.3-11.1-18.8-12.8c-8-3.7-17-4.6-23.7-2.4-13.2 4.5-25.3 20.1-25.5 32.6 0 2.4.1 2.4 2.3-.7 5.2-7 13.4-11.1 24.1-11.9 9.8-.8 20.7 2.1 36.8 9.7 15.6 7.5 26.8 10.5 35.2 9.6 6.8-.7 14.8-4.1 19.1-8.1l3-2.8-6.1-1.3c-10.5-2.1-15.8-5.5-29.3-18.7-16.1-15.6-25.9-20.7-41.6-21.3-5.4-.2-11.4.2-15.1 1"/>
</svg>
