<?xml version="1.0" standalone="no"?>
<!DOCTYPE svg PUBLIC "-//W3C//DTD SVG 20010904//EN"
 "http://www.w3.org/TR/2001/REC-SVG-20010904/DTD/svg10.dtd">
<svg version="1.0" xmlns="http://www.w3.org/2000/svg"
 width="256.000000pt" height="256.000000pt" viewBox="0 0 256.000000 256.000000"
 preserveAspectRatio="xMidYMid meet">
<metadata>
Created by potrace 1.16, written by Peter Selinger 2001-2019
</metadata>
<g transform="translate(0.000000,256.000000) scale(0.100000,-0.100000)"
fill="#f2f2f2" stroke="none">
<path d="M1510 2167 c-94 -32 -152 -69 -242 -155 -209 -200 -348 -482 -349
-709 -1 -143 13 -167 184 -316 36 -31 84 -85 106 -119 45 -68 43 -69 66 39 39
189 39 345 0 546 -19 100 -19 225 0 319 27 131 120 288 208 350 25 17 21 10
-20 -35 -143 -158 -177 -373 -103 -652 50 -189 52 -409 4 -552 -4 -10 11 7 32
37 21 30 70 87 110 127 90 90 114 145 114 264 0 107 -18 190 -90 404 -83 248
-80 307 21 428 22 26 37 47 32 47 -4 0 -37 -11 -73 -23z"/>
<path d="M655 902 c-79 -28 -139 -65 -264 -162 -96 -75 -177 -112 -261 -118
-38 -2 -70 -6 -70 -9 0 -15 40 -59 75 -83 111 -77 243 -79 456 -7 295 100 468
83 606 -60 l56 -58 -7 50 c-9 61 -41 110 -118 179 -69 63 -142 102 -221 117
-82 17 -158 -4 -304 -85 -65 -36 -149 -77 -188 -92 -89 -33 -188 -37 -258 -10
-63 24 -56 28 13 10 68 -19 163 -12 224 15 24 10 94 51 156 91 174 112 229
135 326 135 73 0 87 -3 157 -38 42 -21 97 -53 122 -72 27 -21 45 -30 45 -22 0
30 -64 139 -95 163 -59 45 -169 77 -275 81 -84 3 -104 1 -175 -25z"/>
<path d="M1584 886 c-97 -22 -140 -52 -190 -130 l-19 -29 54 36 c68 47 118 60
212 55 120 -7 211 -56 399 -216 105 -89 208 -131 330 -133 64 -1 64 -1 25 -11
-65 -16 -156 -4 -227 29 -35 17 -119 74 -188 128 -69 54 -153 111 -188 128
-80 37 -170 46 -237 24 -132 -45 -253 -201 -255 -326 0 -24 1 -24 23 7 52 70
134 111 241 119 98 8 207 -21 368 -97 156 -75 268 -105 352 -96 68 7 148 41
191 81 l30 28 -61 13 c-105 21 -158 55 -293 187 -161 156 -259 207 -416 213
-54 2 -114 -2 -151 -10z"/>
</g>
</svg>
