<?xml version="1.0" standalone="no"?>
<!DOCTYPE svg PUBLIC "-//W3C//DTD SVG 20010904//EN"
 "http://www.w3.org/TR/2001/REC-SVG-20010904/DTD/svg10.dtd">
<svg version="1.0" xmlns="http://www.w3.org/2000/svg"
 width="256.000000pt" height="256.000000pt" viewBox="0 0 256.000000 256.000000"
 preserveAspectRatio="xMidYMid meet">
<metadata>
Created by potrace 1.16, written by Peter Selinger 2001-2019
</metadata>
<g transform="translate(0.000000,256.000000) scale(0.100000,-0.100000)"
fill="#f2f2f2" stroke="none">
<path d="M352 2260 c-18 -11 -41 -34 -52 -52 -19 -32 -20 -53 -20 -928 0 -875
1 -896 20 -928 11 -18 34 -41 52 -52 32 -19 53 -20 928 -20 875 0 896 1 928
20 18 11 41 34 52 52 19 32 20 53 20 928 0 875 -1 896 -20 928 -11 18 -34 41
-52 52 -32 19 -53 20 -928 20 -875 0 -896 -1 -928 -20z m158 -155 l0 -95 -75
0 -75 0 0 75 c0 97 15 115 95 115 l55 0 0 -95z m300 0 l0 -96 -67 3 -68 3 -3
93 -3 92 71 0 70 0 0 -95z m440 0 l0 -95 -140 0 -140 0 0 95 0 95 140 0 140 0
0 -95z m541 -142 c0 -256 -5 -279 -61 -308 -55 -28 -60 -23 -60 63 0 182 -75
278 -227 291 l-65 6 1 88 c0 48 0 89 1 92 0 3 92 4 205 3 l206 -3 0 -232z
m389 217 c11 -11 20 -33 20 -49 0 -27 -2 -29 -54 -33 -39 -3 -65 -12 -90 -32
-65 -49 -66 -53 -66 -376 l0 -290 -115 0 c-130 0 -165 11 -190 60 -22 43 -19
60 10 60 68 0 154 60 192 133 28 52 28 53 31 300 l4 247 119 0 c106 0 121 -2
139 -20z m20 -470 l0 -310 -65 0 -65 0 0 283 c1 206 4 286 13 298 19 24 49 38
85 39 l32 0 0 -310z m-1690 55 l0 -125 -75 0 -75 0 0 125 0 125 75 0 75 0 0
-125z m300 0 l0 -125 -70 0 -70 0 0 125 0 125 70 0 70 0 0 -125z m440 0 l0
-125 -140 0 -140 0 0 125 0 125 140 0 140 0 0 -125z m241 108 c42 -25 59 -69
59 -157 l0 -76 -87 0 -88 0 0 125 0 125 43 0 c24 0 57 -8 73 -17z m-979 -525
c4 -186 12 -220 74 -310 32 -46 117 -105 175 -122 l44 -13 6 -56 c9 -81 58
-150 134 -190 31 -16 66 -22 150 -26 l110 -6 -30 -20 c-26 -18 -49 -20 -217
-23 l-188 -3 0 56 c0 98 -48 179 -133 222 -44 22 -69 27 -164 31 l-113 5 0
313 0 314 74 0 74 0 4 -172z m298 -53 c0 -124 -3 -225 -8 -225 -22 0 -85 56
-104 93 -19 36 -23 62 -26 184 -2 79 -2 150 2 158 4 11 22 15 71 15 l65 0 0
-225z m440 -5 l0 -230 -140 0 -140 0 0 230 0 230 140 0 140 0 0 -230z m300
203 c0 -35 34 -110 63 -142 12 -13 45 -34 72 -47 44 -21 65 -24 174 -24 l124
0 -23 -25 c-13 -14 -33 -25 -44 -25 -79 0 -148 -48 -173 -121 l-18 -49 -173 2
-173 3 0 223 c0 122 1 224 1 227 0 3 38 5 85 5 l85 0 0 -27z m650 -651 c0
-448 -1 -465 -38 -474 -11 -2 -13 30 -12 158 2 266 -21 348 -125 442 -42 39
-72 57 -122 72 -36 11 -71 20 -79 20 -18 0 -17 4 1 39 16 32 24 37 89 46 62
10 107 41 131 92 l20 42 68 1 67 0 0 -438z m-950 3 l0 -55 -106 0 c-133 0
-173 19 -174 83 l0 27 140 0 140 0 0 -55z m480 -215 l0 -270 -30 0 -30 0 0
123 c0 140 -12 178 -76 239 -47 44 -80 59 -158 67 l-59 6 1 48 c0 26 1 49 1
52 1 3 80 5 176 5 l175 0 0 -270z m165 235 c23 -13 50 -41 63 -63 21 -39 23
-52 23 -239 l0 -198 -85 -3 -86 -3 0 271 0 271 23 -6 c12 -4 40 -17 62 -30z
m-1285 -87 c54 -37 73 -71 78 -137 l4 -59 -118 -4 c-98 -3 -126 -8 -161 -26
-23 -12 -45 -22 -48 -22 -3 0 -5 61 -5 135 l0 135 109 0 c96 0 112 -3 141 -22z
m875 -173 c24 -23 25 -31 25 -135 l0 -110 -370 0 -370 0 0 50 0 50 188 0 c131
1 198 5 225 14 59 21 114 64 144 112 27 43 29 44 81 44 43 0 58 -5 77 -25z
m-795 -195 l0 -50 -144 0 c-153 0 -172 6 -139 42 39 44 83 57 186 58 l97 0 0
-50z"/>
</g>
</svg>
