<svg xmlns="http://www.w3.org/2000/svg" width="341.333" height="341.333" version="1.0" viewBox="0 0 256 256">
    <path fill="#e5e5e5" d="M35.2 30c-1.8 1.1-4.1 3.4-5.2 5.2-1.9 3.2-2 5.3-2 92.8s.1 89.6 2 92.8c1.1 1.8 3.4 4.1 5.2 5.2 3.2 1.9 5.3 2 92.8 2s89.6-.1 92.8-2c1.8-1.1 4.1-3.4 5.2-5.2 1.9-3.2 2-5.3 2-92.8s-.1-89.6-2-92.8c-1.1-1.8-3.4-4.1-5.2-5.2-3.2-1.9-5.3-2-92.8-2s-89.6.1-92.8 2M51 45.5V55H36v-7.5c0-9.7 1.5-11.5 9.5-11.5H51zm30 0v9.6l-6.7-.3-6.8-.3-.3-9.3-.3-9.2H81zm44 0V55H97V36h28zm54.1 14.2c0 25.6-.5 27.9-6.1 30.8-5.5 2.8-6 2.3-6-6.3 0-18.2-7.5-27.8-22.7-29.1l-6.5-.6.1-8.8c0-4.8 0-8.9.1-9.2 0-.3 9.2-.4 20.5-.3l20.6.3zM218 38c1.1 1.1 2 3.3 2 4.9 0 2.7-.2 2.9-5.4 3.3-3.9.3-6.5 1.2-9 3.2-6.5 4.9-6.6 5.3-6.6 37.6v29h-11.5c-13 0-16.5-1.1-19-6-2.2-4.3-1.9-6 1-6 6.8 0 15.4-6 19.2-13.3 2.8-5.2 2.8-5.3 3.1-30l.4-24.7h11.9c10.6 0 12.1.2 13.9 2m2 47v31h-13V87.7c.1-20.6.4-28.6 1.3-29.8 1.9-2.4 4.9-3.8 8.5-3.9h3.2zM51 79.5V92H36V67h15zm30 0V92H67V67h14zm44 0V92H97V67h28zm24.1-10.8c4.2 2.5 5.9 6.9 5.9 15.7V92h-17.5V67h4.3c2.4 0 5.7.8 7.3 1.7m-97.9 52.5c.4 18.6 1.2 22 7.4 31 3.2 4.6 11.7 10.5 17.5 12.2l4.4 1.3.6 5.6c.9 8.1 5.8 15 13.4 19 3.1 1.6 6.6 2.2 15 2.6l11 .6-3 2c-2.6 1.8-4.9 2-21.7 2.3l-18.8.3v-5.6c0-9.8-4.8-17.9-13.3-22.2-4.4-2.2-6.9-2.7-16.4-3.1l-11.3-.5V104h14.8zm29.8 5.3c0 12.4-.3 22.5-.8 22.5-2.2 0-8.5-5.6-10.4-9.3-1.9-3.6-2.3-6.2-2.6-18.4-.2-7.9-.2-15 .2-15.8.4-1.1 2.2-1.5 7.1-1.5H81zm44 .5v23H97v-46h28zm30-20.3c0 3.5 3.4 11 6.3 14.2 1.2 1.3 4.5 3.4 7.2 4.7 4.4 2.1 6.5 2.4 17.4 2.4h12.4l-2.3 2.5c-1.3 1.4-3.3 2.5-4.4 2.5-7.9 0-14.8 4.8-17.3 12.1l-1.8 4.9-17.3-.2-17.3-.3v-22.3c0-12.2.1-22.4.1-22.7s3.8-.5 8.5-.5h8.5zm65 65.1c0 44.8-.1 46.5-3.8 47.4-1.1.2-1.3-3-1.2-15.8.2-26.6-2.1-34.8-12.5-44.2-4.2-3.9-7.2-5.7-12.2-7.2-3.6-1.1-7.1-2-7.9-2-1.8 0-1.7-.4.1-3.9 1.6-3.2 2.4-3.7 8.9-4.6 6.2-1 10.7-4.1 13.1-9.2l2-4.2 6.8-.1h6.7zm-95-.3v5.5h-10.6c-13.3 0-17.3-1.9-17.4-8.3V166h28zm48 21.5v27h-6v-12.3c0-14-1.2-17.8-7.6-23.9-4.7-4.4-8-5.9-15.8-6.7l-5.9-.6.1-4.8c0-2.6.1-4.9.1-5.2.1-.3 8-.5 17.6-.5H173zm16.5-23.5c2.3 1.3 5 4.1 6.3 6.3 2.1 3.9 2.3 5.2 2.3 23.9v19.8l-8.5.3-8.6.3v-54.2l2.3.6c1.2.4 4 1.7 6.2 3M61 178.2c5.4 3.7 7.3 7.1 7.8 13.7l.4 5.9-11.8.4c-9.8.3-12.6.8-16.1 2.6-2.3 1.2-4.5 2.2-4.8 2.2s-.5-6.1-.5-13.5V176h10.9c9.6 0 11.2.3 14.1 2.2m87.5 17.3c2.4 2.3 2.5 3.1 2.5 13.5v11H77v-10h18.8c13.1-.1 19.8-.5 22.5-1.4 5.9-2.1 11.4-6.4 14.4-11.2 2.7-4.3 2.9-4.4 8.1-4.4 4.3 0 5.8.5 7.7 2.5M69 215v5H54.6c-15.3 0-17.2-.6-13.9-4.2 3.9-4.4 8.3-5.7 18.6-5.8H69z"/>
</svg>
