<?xml version="1.0" standalone="no"?>
<!DOCTYPE svg PUBLIC "-//W3C//DTD SVG 20010904//EN"
 "http://www.w3.org/TR/2001/REC-SVG-20010904/DTD/svg10.dtd">
<svg version="1.0" xmlns="http://www.w3.org/2000/svg"
 width="256.000000pt" height="256.000000pt" viewBox="0 0 256.000000 256.000000"
 preserveAspectRatio="xMidYMid meet">
<metadata>
Created by potrace 1.16, written by Peter Selinger 2001-2019
</metadata>
<g transform="translate(0.000000,256.000000) scale(0.100000,-0.100000)"
fill="#f2f2f2" stroke="none">
<path d="M1280 2466 l-76 -63 -39 -166 -38 -166 -144 -123 c-140 -119 -164
-150 -146 -182 5 -8 98 -121 208 -251 148 -174 205 -235 222 -235 24 0 29 4
243 189 163 141 180 158 180 177 0 6 -74 100 -165 209 -208 249 -205 230 -60
351 58 48 105 94 105 103 0 9 -39 62 -85 119 -63 74 -91 102 -108 102 -12 -1
-56 -29 -97 -64z"/>
<path d="M1452 2131 l-33 -28 167 -204 c92 -112 169 -206 171 -208 7 -10 63
54 63 72 0 20 -304 390 -324 394 -6 1 -26 -10 -44 -26z"/>
<path d="M648 1659 c-183 -153 -278 -241 -278 -257 0 -10 26 -49 57 -86 l57
-69 -32 -27 c-18 -14 -32 -30 -32 -35 0 -4 33 -46 73 -92 39 -47 82 -97 94
-112 l21 -26 29 28 c16 15 33 27 38 27 5 0 37 -30 71 -66 55 -59 63 -65 83
-55 28 16 332 278 350 302 11 16 11 22 0 38 -24 33 -401 465 -417 479 -26 20
-38 15 -114 -49z m-15 -477 c23 -20 22 -57 -3 -82 -24 -24 -48 -25 -78 -4 -32
22 -28 83 7 100 26 13 46 9 74 -14z"/>
<path d="M1558 1435 l-157 -133 36 -46 36 -46 69 0 69 0 119 93 c86 67 119 98
120 114 0 24 -104 153 -123 152 -7 0 -83 -60 -169 -134z"/>
<path d="M1767 1214 l-167 -126 0 -202 0 -202 -50 -37 -50 -37 0 -285 0 -285
293 0 c303 0 317 2 317 41 0 19 20 29 60 29 44 0 60 23 60 89 0 31 -5 62 -12
69 -7 7 -43 12 -90 12 l-78 0 0 35 0 35 90 0 90 0 0 84 c0 99 3 96 -111 96
l-79 0 0 353 0 353 -53 52 -53 53 -167 -127z"/>
<path d="M975 680 l-100 -89 -132 -1 c-126 0 -133 -1 -133 -20 0 -17 -7 -20
-42 -20 -38 0 -47 -5 -75 -40 l-33 -39 0 -180 0 -181 115 0 115 0 0 30 0 30
180 0 180 0 0 -65 0 -65 165 0 165 0 0 130 c0 123 1 130 20 130 19 0 20 7 20
145 l0 145 -202 0 -202 0 57 58 c60 61 71 94 38 112 -11 5 -23 10 -28 10 -4 0
-53 -41 -108 -90z"/>
</g>
</svg>
