<?xml version="1.0" standalone="no"?>
<!DOCTYPE svg PUBLIC "-//W3C//DTD SVG 20010904//EN"
 "http://www.w3.org/TR/2001/REC-SVG-20010904/DTD/svg10.dtd">
<svg version="1.0" xmlns="http://www.w3.org/2000/svg"
 width="256.000000pt" height="256.000000pt" viewBox="0 0 256.000000 256.000000"
 preserveAspectRatio="xMidYMid meet">
<metadata>
Created by potrace 1.16, written by Peter Selinger 2001-2019
</metadata>
<g transform="translate(0.000000,256.000000) scale(0.100000,-0.100000)"
fill="#f2f2f2" stroke="none">
<path d="M2051 2464 c-134 -24 -246 -45 -248 -48 -2 -2 13 -97 35 -212 l38
-208 205 245 c187 223 226 271 217 268 -2 0 -113 -21 -247 -45z"/>
<path d="M1015 2369 c-55 -61 -101 -115 -103 -120 -3 -8 66 -139 74 -139 10 0
234 173 234 181 0 16 -90 189 -98 189 -4 0 -52 -50 -107 -111z"/>
<path d="M2148 2197 c-108 -138 -196 -253 -194 -254 4 -4 320 19 325 23 4 4
70 477 67 481 -1 1 -90 -111 -198 -250z"/>
<path d="M1290 1920 l-425 -459 -42 -208 c-22 -115 -40 -209 -39 -210 1 -2
231 196 509 438 358 311 506 446 503 458 -2 9 -19 112 -37 229 -18 116 -35
212 -38 212 -3 0 -197 -207 -431 -460z"/>
<path d="M1130 2109 c-62 -43 -115 -81 -116 -82 -2 -2 -24 -81 -49 -177 l-45
-175 145 145 144 145 21 109 c12 59 20 110 18 112 -2 1 -55 -33 -118 -77z"/>
<path d="M856 2150 c-3 -8 -33 -89 -66 -179 l-60 -165 1 -145 c1 -80 4 -180 8
-221 l6 -75 34 110 c19 61 60 211 91 335 l58 225 -33 65 c-22 42 -35 60 -39
50z"/>
<path d="M2020 1854 c-63 -7 -124 -15 -135 -17 -20 -3 -1109 -897 -1102 -904
2 -1 139 36 305 85 l302 87 382 361 c211 199 392 371 402 383 19 21 19 21 -10
20 -16 -1 -81 -8 -144 -15z"/>
<path d="M601 1283 c-33 -16 -33 -18 -27 -67 3 -28 2 -57 -2 -63 -5 -7 -41
-24 -81 -38 -41 -14 -97 -42 -125 -64 -28 -21 -65 -46 -83 -55 -32 -16 -63
-51 -63 -72 0 -18 33 -22 107 -13 37 5 120 13 183 18 148 12 194 28 198 67 2
16 10 65 18 108 13 72 13 85 -2 130 -9 28 -22 54 -28 58 -18 13 -59 9 -95 -9z"/>
<path d="M1545 1165 c-55 -52 -98 -95 -95 -95 3 0 60 -7 125 -15 66 -8 127
-15 135 -15 10 0 24 30 43 96 16 52 26 98 23 101 -6 7 -83 22 -111 22 -12 0
-62 -40 -120 -94z"/>
<path d="M1125 960 l-270 -69 265 -1 265 0 155 52 155 52 -90 13 c-199 27
-186 28 -480 -47z"/>
<path d="M556 868 c-10 -6 -66 -12 -125 -13 -58 -1 -123 -5 -143 -10 l-37 -7
16 -34 c13 -25 28 -37 65 -51 26 -9 48 -21 48 -25 0 -21 -30 -65 -59 -86 -30
-22 -31 -23 -15 -47 23 -35 63 -33 100 6 16 17 64 56 106 86 83 58 118 95 118
124 0 10 4 21 10 24 5 3 15 15 20 26 10 18 7 19 -37 19 -26 0 -56 -6 -67 -12z"/>
<path d="M724 778 c-33 -35 -70 -79 -82 -99 -13 -21 -38 -43 -62 -54 -23 -10
-59 -42 -85 -73 -40 -48 -45 -60 -45 -103 0 -27 3 -49 6 -49 4 0 24 16 45 35
22 19 45 35 52 35 16 0 57 -123 57 -171 0 -22 12 -53 31 -85 18 -27 36 -62 42
-79 13 -39 25 -53 59 -71 28 -14 31 -14 64 11 46 35 55 61 60 175 8 154 7 159
-22 197 l-27 35 53 157 c29 86 54 161 57 167 2 8 -12 14 -39 17 -24 3 -57 9
-73 12 -27 6 -36 1 -91 -57z"/>
<path d="M996 767 c-28 -35 -44 -70 -65 -146 -16 -56 -27 -101 -26 -101 2 0
19 22 39 50 33 45 40 50 75 50 39 0 39 0 50 -50 6 -28 11 -62 11 -76 0 -35 42
-74 79 -74 22 0 41 -12 75 -48 54 -57 94 -82 104 -65 4 7 7 63 6 125 -1 104
-4 119 -34 191 -28 65 -31 82 -22 102 9 20 19 25 47 25 26 0 39 6 51 25 9 14
15 27 13 29 -2 3 -29 0 -59 -6 -53 -10 -213 -5 -276 7 -28 6 -35 2 -68 -38z"/>
</g>
</svg>
