<?xml version="1.0" standalone="no"?>
<!DOCTYPE svg PUBLIC "-//W3C//DTD SVG 20010904//EN"
 "http://www.w3.org/TR/2001/REC-SVG-20010904/DTD/svg10.dtd">
<svg version="1.0" xmlns="http://www.w3.org/2000/svg"
 width="256.000000pt" height="256.000000pt" viewBox="0 0 256.000000 256.000000"
 preserveAspectRatio="xMidYMid meet">
<metadata>
Created by potrace 1.16, written by Peter Selinger 2001-2019
</metadata>
<g transform="translate(0.000000,256.000000) scale(0.100000,-0.100000)"
fill="#f2f2f2" stroke="none">
<path d="M813 2067 c-254 -117 -470 -220 -480 -230 -17 -17 -18 -52 -18 -532
l0 -515 25 -23 c36 -35 894 -487 923 -487 31 0 935 404 960 429 18 17 18 42
11 551 -7 522 -7 533 -28 556 -32 34 -867 464 -902 463 -16 0 -237 -96 -491
-212z m24 -560 l378 -183 -4 -435 c-1 -239 -5 -436 -7 -438 -5 -5 -748 390
-756 403 -11 16 -10 836 1 836 5 0 179 -82 388 -183z m1275 -157 c2 -176 2
-374 0 -439 l-4 -120 -372 -167 c-204 -92 -378 -169 -386 -171 -13 -4 -15 42
-13 374 2 208 5 406 9 439 l5 62 372 171 c205 94 375 171 378 171 4 0 8 -144
11 -320z"/>
</g>
</svg>
