<?xml version="1.0" standalone="no"?>
<!DOCTYPE svg PUBLIC "-//W3C//DTD SVG 20010904//EN"
 "http://www.w3.org/TR/2001/REC-SVG-20010904/DTD/svg10.dtd">
<svg version="1.0" xmlns="http://www.w3.org/2000/svg"
 width="256.000000pt" height="256.000000pt" viewBox="0 0 256.000000 256.000000"
 preserveAspectRatio="xMidYMid meet">
<metadata>
Created by potrace 1.16, written by Peter Selinger 2001-2019
</metadata>
<g transform="translate(0.000000,256.000000) scale(0.100000,-0.100000)"
fill="#f2f2f2" stroke="none">
<path d="M1075 2069 c-104 -59 -191 -112 -192 -116 -3 -9 374 -226 391 -226
13 0 396 216 396 223 0 6 -393 231 -400 229 -3 -1 -90 -50 -195 -110z"/>
<path d="M830 1790 l0 -70 53 -33 c28 -19 91 -56 139 -83 l88 -49 0 -102 c0
-57 3 -103 6 -103 4 0 31 14 61 31 l54 31 -3 116 -3 117 -185 107 c-102 59
-191 107 -197 108 -9 0 -13 -20 -13 -70z"/>
<path d="M1508 1752 l-188 -107 0 -117 0 -117 61 -36 c33 -19 62 -35 65 -35 2
0 4 48 4 108 l0 107 130 74 130 75 0 78 c0 43 -3 78 -7 78 -5 0 -92 -49 -195
-108z"/>
<path d="M407 1650 c-103 -59 -190 -110 -193 -113 -6 -6 379 -227 396 -227 7
0 100 50 207 111 l194 111 -28 17 c-109 66 -371 211 -378 210 -6 -1 -95 -50
-198 -109z"/>
<path d="M1751 1650 c-107 -61 -196 -112 -198 -114 -6 -5 383 -226 397 -226
11 0 348 187 383 212 16 12 -4 26 -174 123 -106 61 -197 111 -203 113 -6 1
-98 -48 -205 -108z"/>
<path d="M172 1230 l3 -222 189 -109 c103 -60 190 -109 192 -109 2 0 4 99 4
219 l0 219 -187 107 c-104 59 -191 110 -196 112 -4 2 -6 -95 -5 -217z"/>
<path d="M860 1344 c-101 -57 -190 -110 -197 -116 -10 -8 -13 -61 -13 -224 0
-118 3 -214 8 -214 4 0 31 14 60 30 l52 30 0 149 0 149 136 78 c75 43 138 83
141 89 2 7 3 40 1 74 l-3 61 -185 -106z"/>
<path d="M1510 1376 l0 -74 135 -78 135 -78 0 -146 0 -145 59 -33 c32 -17 61
-32 65 -32 3 0 6 97 6 215 l0 215 -37 24 c-36 22 -291 169 -340 195 -23 12
-23 11 -23 -63z"/>
<path d="M2193 1339 l-193 -111 0 -219 c0 -120 2 -219 4 -219 6 0 370 211 379
219 4 4 6 105 5 224 l-3 216 -192 -110z"/>
<path d="M1076 1247 c-108 -62 -196 -115 -196 -118 0 -9 390 -231 399 -227 33
14 391 222 391 227 0 5 -93 59 -341 198 l-56 31 -197 -111z"/>
<path d="M832 823 l3 -218 195 -112 195 -112 3 216 c1 119 -1 220 -5 224 -14
14 -374 219 -384 219 -6 0 -8 -84 -7 -217z"/>
<path d="M1510 931 l-185 -107 -3 -223 -2 -224 22 15 c13 8 101 59 196 112
l172 98 0 219 c0 121 -3 219 -7 219 -5 -1 -91 -49 -193 -109z"/>
</g>
</svg>
