<?xml version="1.0" standalone="no"?>
<!DOCTYPE svg PUBLIC "-//W3C//DTD SVG 20010904//EN"
 "http://www.w3.org/TR/2001/REC-SVG-20010904/DTD/svg10.dtd">
<svg version="1.0" xmlns="http://www.w3.org/2000/svg"
 width="256.000000pt" height="256.000000pt" viewBox="0 0 256.000000 256.000000"
 preserveAspectRatio="xMidYMid meet">
<metadata>
Created by potrace 1.16, written by Peter Selinger 2001-2019
</metadata>
<g transform="translate(0.000000,256.000000) scale(0.100000,-0.100000)"
fill="#f2f2f2" stroke="none">
<path d="M1121 2389 c-1 -3 8 -41 19 -85 27 -103 36 -269 21 -359 -37 -217
-130 -380 -381 -665 -193 -220 -240 -310 -248 -482 -5 -122 14 -207 67 -290
30 -47 30 -48 8 -48 -12 0 -50 13 -84 30 -35 16 -63 26 -63 21 0 -15 63 -95
111 -142 182 -177 469 -238 680 -143 72 33 161 122 193 196 24 53 52 166 43
174 -2 3 -28 -11 -56 -30 -125 -84 -267 -53 -336 74 -25 47 -30 69 -33 146 -5
112 8 162 88 334 32 69 67 157 78 195 83 283 75 578 -23 870 -30 91 -83 218
-84 204z"/>
<path d="M1622 2143 c-104 -203 -152 -373 -152 -540 0 -152 31 -256 160 -542
70 -153 100 -276 100 -400 0 -108 -14 -170 -55 -251 -37 -73 -135 -167 -213
-206 -75 -37 -69 -41 69 -51 262 -18 492 136 563 376 50 169 -2 311 -262 725
-51 82 -107 175 -123 207 -99 197 -116 466 -44 713 13 44 22 82 21 84 -2 1
-30 -51 -64 -115z"/>
</g>
</svg>
