<svg xmlns="http://www.w3.org/2000/svg" width="341.333" height="341.333" version="1.0" viewBox="0 0 256 256">
    <g fill="#e5e5e5">
        <path d="M112.1 17.1c-.1.3.8 4.1 1.9 8.5 2.7 10.3 3.6 26.9 2.1 35.9-3.7 21.7-13 38-38.1 66.5-19.3 22-24 31-24.8 48.2-.5 12.2 1.4 20.7 6.7 29 3 4.7 3 4.8.8 4.8-1.2 0-5-1.3-8.4-3-3.5-1.6-6.3-2.6-6.3-2.1 0 1.5 6.3 9.5 11.1 14.2 18.2 17.7 46.9 23.8 68 14.3 7.2-3.3 16.1-12.2 19.3-19.6 2.4-5.3 5.2-16.6 4.3-17.4-.2-.3-2.8 1.1-5.6 3-12.5 8.4-26.7 5.3-33.6-7.4-2.5-4.7-3-6.9-3.3-14.6-.5-11.2.8-16.2 8.8-33.4 3.2-6.9 6.7-15.7 7.8-19.5 8.3-28.3 7.5-57.8-2.3-87-3-9.1-8.3-21.8-8.4-20.4"/>
        <path d="M162.2 41.7C151.8 62 147 79 147 95.7c0 15.2 3.1 25.6 16 54.2 7 15.3 10 27.6 10 40 0 10.8-1.4 17-5.5 25.1-3.7 7.3-13.5 16.7-21.3 20.6-7.5 3.7-6.9 4.1 6.9 5.1 26.2 1.8 49.2-13.6 56.3-37.6 5-16.9-.2-31.1-26.2-72.5-5.1-8.2-10.7-17.5-12.3-20.7-9.9-19.7-11.6-46.6-4.4-71.3 1.3-4.4 2.2-8.2 2.1-8.4-.2-.1-3 5.1-6.4 11.5"/>
    </g>
</svg>
