<?xml version="1.0" standalone="no"?>
<!DOCTYPE svg PUBLIC "-//W3C//DTD SVG 20010904//EN"
 "http://www.w3.org/TR/2001/REC-SVG-20010904/DTD/svg10.dtd">
<svg version="1.0" xmlns="http://www.w3.org/2000/svg"
 width="256.000000pt" height="256.000000pt" viewBox="0 0 256.000000 256.000000"
 preserveAspectRatio="xMidYMid meet">
<metadata>
Created by potrace 1.16, written by Peter Selinger 2001-2019
</metadata>
<g transform="translate(0.000000,256.000000) scale(0.100000,-0.100000)"
fill="#f2f2f2" stroke="none">
<path d="M1160 2293 c-349 -21 -677 -257 -801 -576 -16 -44 -28 -81 -26 -84 3
-2 41 14 85 36 75 38 83 44 113 101 65 122 215 258 355 321 198 90 456 93 649
8 180 -79 339 -239 415 -417 25 -59 20 -72 -28 -72 -13 0 -22 -4 -20 -10 8
-24 173 -229 180 -222 6 6 108 257 108 266 0 2 -19 1 -42 -1 l-43 -5 -23 65
c-77 217 -298 440 -521 526 -119 46 -277 71 -401 64z"/>
<path d="M976 1872 c-24 -59 -167 -203 -281 -284 -108 -77 -267 -175 -386
-240 -98 -53 -99 -53 -105 -97 -4 -25 -4 -88 -1 -140 13 -198 88 -375 225
-531 l40 -45 -5 91 c-9 155 26 293 97 383 41 52 116 96 319 185 114 51 131 53
179 27 l33 -17 -151 -87 c-84 -47 -157 -88 -163 -90 -16 -5 -21 -178 -7 -263
14 -87 45 -186 85 -264 30 -60 109 -172 147 -207 l23 -22 0 127 c0 146 21 232
76 316 43 65 82 91 244 166 153 70 143 71 172 -20 13 -41 18 -90 18 -188 l0
-134 39 44 c58 65 114 152 153 235 l34 73 99 -51 c64 -32 111 -64 130 -87 77
-93 115 -228 107 -384 -5 -112 -6 -112 73 -13 109 137 176 311 187 486 3 52 3
115 -1 140 -6 43 -8 45 -83 84 -122 63 -332 196 -435 273 -119 89 -229 204
-254 265 -10 26 -21 47 -24 47 -3 0 -13 -19 -23 -43 -9 -23 -32 -60 -50 -81
l-33 -39 -76 51 c-180 121 -321 256 -355 338 -10 24 -20 44 -23 44 -3 0 -14
-21 -24 -48z m68 -127 c50 -61 168 -160 278 -236 75 -51 87 -63 77 -76 -18
-21 -208 -163 -236 -176 -18 -8 -36 -4 -93 21 l-70 31 -148 -65 c-214 -96
-278 -131 -322 -182 -68 -77 -120 -211 -120 -309 0 -24 -4 -43 -9 -43 -14 0
-87 147 -111 225 -16 50 -24 105 -27 196 l-6 126 88 47 c242 131 483 302 586
415 35 39 66 70 69 71 3 0 23 -20 44 -45z m591 -802 c36 -16 65 -33 65 -39 0
-20 -91 -194 -101 -194 -6 0 -8 4 -5 8 7 11 -19 149 -38 201 -9 24 -16 45 -16
47 0 11 37 1 95 -23z"/>
</g>
</svg>
