<svg xmlns="http://www.w3.org/2000/svg" width="341.333" height="341.333" version="1.0" viewBox="0 0 256 256">
    <g fill="#e5e5e5">
        <path d="M116 26.7c-34.9 2.1-67.7 25.7-80.1 57.6-1.6 4.4-2.8 8.1-2.6 8.4.3.2 4.1-1.4 8.5-3.6 7.5-3.8 8.3-4.4 11.3-10.1 6.5-12.2 21.5-25.8 35.5-32.1 19.8-9 45.6-9.3 64.9-.8 18 7.9 33.9 23.9 41.5 41.7 2.5 5.9 2 7.2-2.8 7.2-1.3 0-2.2.4-2 1 .8 2.4 17.3 22.9 18 22.2.6-.6 10.8-25.7 10.8-26.6 0-.2-1.9-.1-4.2.1l-4.3.5-2.3-6.5c-7.7-21.7-29.8-44-52.1-52.6-11.9-4.6-27.7-7.1-40.1-6.4"/>
        <path d="M97.6 68.8c-2.4 5.9-16.7 20.3-28.1 28.4-10.8 7.7-26.7 17.5-38.6 24-9.8 5.3-9.9 5.3-10.5 9.7-.4 2.5-.4 8.8-.1 14q1.95 29.7 22.5 53.1l4 4.5-.5-9.1c-.9-15.5 2.6-29.3 9.7-38.3 4.1-5.2 11.6-9.6 31.9-18.5 11.4-5.1 13.1-5.3 17.9-2.7l3.3 1.7-15.1 8.7c-8.4 4.7-15.7 8.8-16.3 9-1.6.5-2.1 17.8-.7 26.3 1.4 8.7 4.5 18.6 8.5 26.4 3 6 10.9 17.2 14.7 20.7l2.3 2.2v-12.7c0-14.6 2.1-23.2 7.6-31.6 4.3-6.5 8.2-9.1 24.4-16.6 15.3-7 14.3-7.1 17.2 2 1.3 4.1 1.8 9 1.8 18.8v13.4l3.9-4.4c5.8-6.5 11.4-15.2 15.3-23.5l3.4-7.3 9.9 5.1c6.4 3.2 11.1 6.4 13 8.7 7.7 9.3 11.5 22.8 10.7 38.4-.5 11.2-.6 11.2 7.3 1.3 10.9-13.7 17.6-31.1 18.7-48.6.3-5.2.3-11.5-.1-14-.6-4.3-.8-4.5-8.3-8.4-12.2-6.3-33.2-19.6-43.5-27.3-11.9-8.9-22.9-20.4-25.4-26.5-1-2.6-2.1-4.7-2.4-4.7s-1.3 1.9-2.3 4.3c-.9 2.3-3.2 6-5 8.1l-3.3 3.9-7.6-5.1c-18-12.1-32.1-25.6-35.5-33.8-1-2.4-2-4.4-2.3-4.4s-1.4 2.1-2.4 4.8m6.8 12.7c5 6.1 16.8 16 27.8 23.6 7.5 5.1 8.7 6.3 7.7 7.6-1.8 2.1-20.8 16.3-23.6 17.6-1.8.8-3.6.4-9.3-2.1l-7-3.1-14.8 6.5c-21.4 9.6-27.8 13.1-32.2 18.2-6.8 7.7-12 21.1-12 30.9 0 2.4-.4 4.3-.9 4.3-1.4 0-8.7-14.7-11.1-22.5-1.6-5-2.4-10.5-2.7-19.6l-.6-12.6 8.8-4.7c24.2-13.1 48.3-30.2 58.6-41.5 3.5-3.9 6.6-7 6.9-7.1.3 0 2.3 2 4.4 4.5m59.1 80.2c3.6 1.6 6.5 3.3 6.5 3.9 0 2-9.1 19.4-10.1 19.4-.6 0-.8-.4-.5-.8.7-1.1-1.9-14.9-3.8-20.1-.9-2.4-1.6-4.5-1.6-4.7 0-1.1 3.7-.1 9.5 2.3"/>
    </g>
</svg>
