<svg xmlns="http://www.w3.org/2000/svg" width="341.333" height="341.333" version="1.0" viewBox="0 0 256 256">
    <g fill="#e5e5e5">
        <path d="M122.6 16.5c-12 10.7-31.4 20.4-51.3 25.5-11.6 3-30.9 6-38.8 6h-4.3l-.8 6.7c-1.1 10.2.3 34.2 2.7 48.3 9.5 55.9 39.1 102 85.8 133.9 13.6 9.2 11.5 9.1 23.3 1.2 48.1-32.2 78.1-78.4 87.7-135.1 2.4-14.1 3.8-38.1 2.7-48.3l-.8-6.7h-4.3c-7.9 0-27.2-3-38.8-6-19.9-5.1-39.2-14.7-51.3-25.5l-5.9-5.2zm26.5 26.1c15.7 7.9 36.2 14.1 55.9 16.9 6.3.8 11.6 1.8 11.9 2.1 1.1 1.1-2.1 34.7-4.4 46.2-9.4 45.7-34 84.7-71 112.4-13.2 10-12.2 9.7-19.4 4.8-16.7-11.3-34.8-29-46.6-45.5-21.6-30.3-32.9-64.1-35.1-105.7l-.7-12.6 4.9-.7c34.2-4.6 58.7-13.1 78.3-27.3l5.5-3.9 7.8 5.4c4.4 2.9 10.2 6.5 12.9 7.9"/>
        <path d="M134.6 61c-11 3.4-13 19.1-3.2 25.5 9 5.9 21.6-1 21.6-11.9 0-9.5-9.3-16.4-18.4-13.6m64.7 38.9c-13.1 6-31.4 10.1-44.9 10.1-9.4 0-22.8-2.4-31.1-5.6-10-3.8-20.9-4.3-28.8-1.4-9.5 3.7-19.3 15.1-23 26.8-.7 2.3-.6 2.3 5.2-.6 14.9-7.6 28.5-9.2 53.7-6.4 27.2 3.1 53.4-4.1 69.1-19 6.4-6.1 6.4-6.8-.2-3.9M113.2 133c-6.6 4.1-9.4 17.6-6.8 33.4.7 4.8.7 4.9-1.6 4.2-4.5-1.5-18.3-1.8-22.7-.6-2.3.6-4.1 1.4-3.8 1.6.8.9 35 11.4 36.9 11.4 1 0 2.7-.9 3.8-2 1.8-1.8 2-3.3 1.9-11.8-.1-10.7.7-13.6 4.5-17.1 3.4-3.2 9.9-3.7 20.5-1.7 15.7 3 29.6 1.5 35.8-3.9l2.8-2.4-4.5 1.1c-9.3 2.1-23.7-1.1-43.7-9.8-11.7-5.1-17.7-5.7-23.1-2.4"/>
    </g>
</svg>
