<?xml version="1.0" standalone="no"?>
<!DOCTYPE svg PUBLIC "-//W3C//DTD SVG 20010904//EN"
 "http://www.w3.org/TR/2001/REC-SVG-20010904/DTD/svg10.dtd">
<svg version="1.0" xmlns="http://www.w3.org/2000/svg"
 width="256.000000pt" height="256.000000pt" viewBox="0 0 256.000000 256.000000"
 preserveAspectRatio="xMidYMid meet">
<metadata>
Created by potrace 1.16, written by Peter Selinger 2001-2019
</metadata>
<g transform="translate(0.000000,256.000000) scale(0.100000,-0.100000)"
fill="#f2f2f2" stroke="none">
<path d="M1226 2395 c-120 -107 -314 -204 -513 -255 -116 -30 -309 -60 -388
-60 l-43 0 -8 -67 c-11 -102 3 -342 27 -483 95 -559 391 -1020 858 -1339 136
-92 115 -91 233 -12 481 322 781 784 877 1351 24 141 38 381 27 483 l-8 67
-43 0 c-79 0 -272 30 -388 60 -199 51 -392 147 -513 255 l-59 52 -59 -52z
m265 -261 c157 -79 362 -141 559 -169 63 -8 116 -18 119 -21 11 -11 -21 -347
-44 -462 -94 -457 -340 -847 -710 -1124 -132 -100 -122 -97 -194 -48 -167 113
-348 290 -466 455 -216 303 -329 641 -351 1057 l-7 126 49 7 c342 46 587 131
783 273 l55 39 78 -54 c44 -29 102 -65 129 -79z"/>
<path d="M1346 1950 c-110 -34 -130 -191 -32 -255 90 -59 216 10 216 119 0 95
-93 164 -184 136z"/>
<path d="M1993 1561 c-131 -60 -314 -101 -449 -101 -94 0 -228 24 -311 56
-100 38 -209 43 -288 14 -95 -37 -193 -151 -230 -268 -7 -23 -6 -23 52 6 149
76 285 92 537 64 272 -31 534 41 691 190 64 61 64 68 -2 39z"/>
<path d="M1132 1230 c-66 -41 -94 -176 -68 -334 7 -48 7 -49 -16 -42 -45 15
-183 18 -227 6 -23 -6 -41 -14 -38 -16 8 -9 350 -114 369 -114 10 0 27 9 38
20 18 18 20 33 19 118 -1 107 7 136 45 171 34 32 99 37 205 17 157 -30 296
-15 358 39 l28 24 -45 -11 c-93 -21 -237 11 -437 98 -117 51 -177 57 -231 24z"/>
</g>
</svg>
