<?xml version="1.0" standalone="no"?>
<!DOCTYPE svg PUBLIC "-//W3C//DTD SVG 20010904//EN"
 "http://www.w3.org/TR/2001/REC-SVG-20010904/DTD/svg10.dtd">
<svg version="1.0" xmlns="http://www.w3.org/2000/svg"
 width="512.000000pt" height="512.000000pt" viewBox="0 0 512.000000 512.000000"
 preserveAspectRatio="xMidYMid meet">
<metadata>
Created by potrace 1.16, written by Peter Selinger 2001-2019
</metadata>
<g transform="translate(0.000000,512.000000) scale(0.100000,-0.100000)"
fill="#f2f2f2" stroke="none">
<path d="M2365 4010 l-190 -190 193 -193 192 -192 192 192 193 193 -190 190
c-104 104 -192 190 -195 190 -3 0 -91 -86 -195 -190z"/>
<path d="M1302 3357 c-116 -117 -212 -217 -212 -222 0 -6 97 -107 215 -225
l215 -215 220 220 220 220 -217 217 c-120 120 -220 218 -223 218 -3 0 -101
-96 -218 -213z"/>
<path d="M3377 3352 l-217 -217 220 -220 220 -220 215 215 c118 118 215 219
215 225 0 10 -420 435 -430 435 -3 0 -103 -98 -223 -218z"/>
<path d="M2117 3422 l-127 -127 128 -128 127 -127 128 128 127 127 -128 128
-127 127 -128 -128z"/>
<path d="M2747 3422 l-127 -127 128 -128 127 -127 128 128 127 127 -128 128
-127 127 -128 -128z"/>
<path d="M2265 2810 l-290 -290 293 -293 292 -292 292 292 293 293 -290 290
c-159 159 -292 290 -295 290 -3 0 -136 -131 -295 -290z"/>
<path d="M1037 2702 l-167 -167 305 -305 305 -305 0 340 0 340 -133 133 c-73
72 -135 132 -137 132 -3 0 -81 -75 -173 -168z"/>
<path d="M1692 2737 l-132 -132 0 -333 c0 -182 3 -332 8 -332 4 0 95 88 202
195 l195 195 -95 95 -95 95 103 103 102 102 -73 73 c-40 39 -75 72 -77 72 -3
0 -65 -60 -138 -133z"/>
<path d="M3212 2798 l-72 -73 102 -102 103 -103 -95 -95 -95 -95 195 -195
c107 -107 198 -195 202 -195 5 0 8 150 8 333 l0 332 -133 133 c-73 72 -134
132 -137 132 -3 0 -38 -33 -78 -72z"/>
<path d="M3772 2737 l-132 -132 0 -340 0 -340 305 305 305 305 -167 167 c-92
93 -170 168 -173 168 -3 0 -65 -60 -138 -133z"/>
<path d="M1913 1938 l-223 -223 398 -398 c218 -218 400 -397 405 -397 4 0 7
197 7 437 l0 437 -182 183 -183 183 -222 -222z"/>
<path d="M2802 1977 l-182 -183 0 -437 c0 -240 3 -437 8 -437 4 0 186 179 405
398 l397 397 -223 223 -222 222 -183 -183z"/>
</g>
</svg>
