<?xml version="1.0" standalone="no"?>
<!DOCTYPE svg PUBLIC "-//W3C//DTD SVG 20010904//EN"
 "http://www.w3.org/TR/2001/REC-SVG-20010904/DTD/svg10.dtd">
<svg version="1.0" xmlns="http://www.w3.org/2000/svg"
 width="256.000000pt" height="256.000000pt" viewBox="0 0 256.000000 256.000000"
 preserveAspectRatio="xMidYMid meet">
<metadata>
Created by potrace 1.16, written by Peter Selinger 2001-2019
</metadata>
<g transform="translate(0.000000,256.000000) scale(0.100000,-0.100000)"
fill="#f2f2f2" stroke="none">
<path d="M722 2248 c-9 -9 -12 -73 -12 -228 0 -171 -3 -220 -14 -236 -13 -17
-30 -19 -208 -22 -133 -3 -195 -7 -200 -15 -4 -7 -8 -85 -8 -173 0 -127 3
-164 14 -173 10 -9 77 -11 238 -9 l223 3 186 142 c103 78 189 150 193 159 3 8
6 132 6 274 0 222 -2 261 -16 274 -13 13 -46 16 -203 16 -132 0 -191 -4 -199
-12z"/>
<path d="M1442 2248 c-9 -9 -12 -86 -12 -283 l0 -271 33 -30 c40 -38 314 -246
344 -263 16 -8 88 -11 245 -9 l223 3 0 180 0 180 -192 5 c-163 4 -195 8 -209
22 -15 14 -17 45 -18 238 -2 182 -4 223 -16 230 -23 15 -383 13 -398 -2z"/>
<path d="M1236 1518 c-31 -18 -250 -191 -263 -207 -7 -9 -13 -30 -13 -47 0
-37 16 -53 179 -173 85 -62 132 -91 151 -91 19 0 71 33 176 113 133 100 149
116 152 144 2 18 0 39 -5 47 -4 8 -51 47 -103 87 -52 40 -114 88 -138 106 -46
35 -98 43 -136 21z"/>
<path d="M292 1118 c-8 -8 -12 -63 -12 -180 0 -155 1 -168 19 -178 12 -6 97
-10 206 -10 l185 0 10 -26 c6 -14 10 -121 10 -239 0 -185 2 -214 16 -219 9 -3
101 -6 204 -6 177 0 190 1 200 19 15 29 13 520 -3 548 -7 11 -81 74 -166 138
-243 185 -189 165 -440 165 -156 0 -220 -3 -229 -12z"/>
<path d="M1809 1116 c-30 -15 -309 -226 -351 -265 l-28 -25 0 -277 c0 -243 2
-278 16 -283 9 -3 101 -6 204 -6 140 0 191 3 197 13 4 6 8 110 9 229 1 159 4
221 14 233 10 12 44 15 199 15 132 0 191 4 199 12 17 17 17 339 0 356 -18 18
-424 17 -459 -2z"/>
</g>
</svg>
