<?xml version="1.0" standalone="no"?>
<!DOCTYPE svg PUBLIC "-//W3C//DTD SVG 20010904//EN"
 "http://www.w3.org/TR/2001/REC-SVG-20010904/DTD/svg10.dtd">
<svg version="1.0" xmlns="http://www.w3.org/2000/svg"
 width="256.000000pt" height="256.000000pt" viewBox="0 0 256.000000 256.000000"
 preserveAspectRatio="xMidYMid meet">
<metadata>
Created by potrace 1.16, written by Peter Selinger 2001-2019
</metadata>
<g transform="translate(0.000000,256.000000) scale(0.100000,-0.100000)"
fill="#f2f2f2" stroke="none">
<path d="M1080 2515 c-676 -106 -1148 -748 -1045 -1426 115 -762 887 -1243
1621 -1008 660 211 1024 916 813 1575 -188 588 -779 954 -1389 859z m396 -100
c359 -63 676 -301 843 -633 290 -576 39 -1287 -553 -1568 -539 -255 -1197 -47
-1500 475 -163 281 -199 634 -96 941 59 177 139 309 271 445 173 179 390 296
626 339 106 19 300 19 409 1z"/>
<path d="M1089 2305 c-358 -68 -658 -312 -794 -647 -109 -267 -97 -593 29
-853 273 -561 961 -764 1499 -443 227 135 405 373 473 634 38 145 44 331 14
474 -83 407 -377 713 -790 822 -100 26 -324 33 -431 13z m410 -100 c179 -44
320 -124 456 -260 118 -118 182 -218 231 -362 45 -133 58 -223 51 -368 -13
-259 -109 -469 -295 -647 -128 -121 -257 -195 -423 -240 -71 -20 -108 -23
-244 -23 -180 0 -266 17 -401 80 -223 102 -421 312 -501 529 -55 149 -77 350
-54 496 17 108 71 258 127 352 53 89 197 243 277 297 111 75 249 132 380 157
90 17 307 11 396 -11z"/>
<path d="M1176 1511 l-88 -101 -289 0 c-250 0 -289 -2 -289 -15 0 -13 37 -15
271 -15 l272 0 -25 -32 -26 -33 -246 -3 -246 -2 0 -50 0 -50 187 0 188 0 -145
-145 -145 -145 670 0 670 0 -145 145 -144 145 184 2 185 3 3 48 3 47 -244 0
-243 0 -27 28 c-15 15 -27 31 -27 35 0 4 122 7 270 7 233 0 270 2 270 15 0 13
-39 15 -289 15 l-289 0 -73 83 c-40 45 -80 90 -89 100 -16 17 -21 13 -104 -82z"/>
</g>
</svg>
