<svg xmlns="http://www.w3.org/2000/svg" width="341.333" height="341.333" version="1.0" viewBox="0 0 256 256">
    <g fill="#e5e5e5">
        <path d="M108 4.5C40.4 15.1-6.8 79.3 3.5 147.1 15 223.3 92.2 271.4 165.6 247.9c66-21.1 102.4-91.6 81.3-157.5C228.1 31.6 169-5 108 4.5m39.6 10c35.9 6.3 67.6 30.1 84.3 63.3 29 57.6 3.9 128.7-55.3 156.8-53.9 25.5-119.7 4.7-150-47.5C10.3 159 6.7 123.7 17 93c5.9-17.7 13.9-30.9 27.1-44.5 17.3-17.9 39-29.6 62.6-33.9 10.6-1.9 30-1.9 40.9-.1"/>
        <path d="M108.9 25.5c-35.8 6.8-65.8 31.2-79.4 64.7-10.9 26.7-9.7 59.3 2.9 85.3 27.3 56.1 96.1 76.4 149.9 44.3 22.7-13.5 40.5-37.3 47.3-63.4 3.8-14.5 4.4-33.1 1.4-47.4-8.3-40.7-37.7-71.3-79-82.2-10-2.6-32.4-3.3-43.1-1.3m41 10c17.9 4.4 32 12.4 45.6 26 11.8 11.8 18.2 21.8 23.1 36.2 4.5 13.3 5.8 22.3 5.1 36.8-1.3 25.9-10.9 46.9-29.5 64.7-12.8 12.1-25.7 19.5-42.3 24-7.1 2-10.8 2.3-24.4 2.3-18 0-26.6-1.7-40.1-8-22.3-10.2-42.1-31.2-50.1-52.9-5.5-14.9-7.7-35-5.4-49.6 1.7-10.8 7.1-25.8 12.7-35.2 5.3-8.9 19.7-24.3 27.7-29.7 11.1-7.5 24.9-13.2 38-15.7 9-1.7 30.7-1.1 39.6 1.1"/>
        <path d="m117.6 104.9-8.8 10.1H79.9c-25 0-28.9.2-28.9 1.5s3.7 1.5 27.1 1.5h27.2l-2.5 3.2-2.6 3.3-24.6.3-24.6.2v10h37.5L74 149.5 59.5 164h134L179 149.5 164.6 135l18.4-.2 18.5-.3.3-4.8.3-4.7h-48.7l-2.7-2.8c-1.5-1.5-2.7-3.1-2.7-3.5s12.2-.7 27-.7c23.3 0 27-.2 27-1.5s-3.9-1.5-28.9-1.5h-28.9l-7.3-8.3c-4-4.5-8-9-8.9-10-1.6-1.7-2.1-1.3-10.4 8.2"/>
    </g>
</svg>
