<?xml version="1.0" standalone="no"?>
<!DOCTYPE svg PUBLIC "-//W3C//DTD SVG 20010904//EN"
 "http://www.w3.org/TR/2001/REC-SVG-20010904/DTD/svg10.dtd">
<svg version="1.0" xmlns="http://www.w3.org/2000/svg"
 width="512.000000pt" height="512.000000pt" viewBox="0 0 512.000000 512.000000"
 preserveAspectRatio="xMidYMid meet">
<metadata>
Created by potrace 1.16, written by Peter Selinger 2001-2019
</metadata>
<g transform="translate(0.000000,512.000000) scale(0.100000,-0.100000)"
fill="#f2f2f2" stroke="none">
<path d="M3210 4813 c-102 -119 -477 -556 -834 -972 -905 -1054 -936 -1089
-1076 -1251 -120 -138 -181 -209 -659 -766 -118 -137 -267 -303 -330 -369
-152 -158 -277 -303 -273 -319 1 -8 -4 -18 -12 -25 -19 -16 9 -72 49 -96 84
-51 133 -76 167 -85 36 -10 38 -9 150 76 62 47 139 99 171 115 31 16 57 34 57
39 0 6 5 10 11 10 15 0 162 -115 269 -210 47 -41 114 -99 150 -129 36 -29 84
-71 108 -92 41 -39 42 -40 28 -72 -7 -17 -75 -135 -150 -262 -132 -224 -135
-230 -111 -236 13 -4 62 -37 109 -73 l85 -67 63 3 62 3 153 170 c84 94 165
188 180 210 29 41 157 197 695 846 166 201 431 521 588 710 156 189 373 451
482 581 l197 237 -29 9 c-32 12 -48 27 -101 92 -24 29 -34 51 -30 62 16 45
708 874 944 1132 93 102 -71 -121 -309 -419 -167 -210 -275 -342 -518 -634
l-58 -71 47 -55 c75 -88 76 -87 247 118 80 94 277 330 438 522 161 193 352
421 424 507 92 111 137 158 152 158 11 0 29 9 39 20 16 18 31 20 137 20 115 0
136 4 186 38 9 6 6 24 -16 78 l-29 69 -155 5 c-147 5 -191 12 -156 25 8 3 68
9 134 13 l118 7 -82 48 -82 47 -197 0 c-176 0 -203 3 -242 20 -24 11 -49 20
-55 20 -7 0 -68 25 -137 56 -68 31 -138 62 -154 69 l-31 14 -134 -150 c-138
-154 -150 -169 -130 -169 20 0 150 -82 150 -94 0 -16 -26 -53 -77 -108 -24
-26 -43 -52 -43 -57 0 -14 109 -53 124 -44 14 9 122 125 171 185 l30 37 68
-44 c38 -24 73 -45 79 -47 10 -4 -39 -67 -302 -383 -488 -589 -1103 -1342
-1102 -1350 2 -5 4 -21 5 -35 1 -14 11 -40 20 -58 l18 -32 -55 -73 c-30 -39
-112 -142 -181 -227 -69 -85 -234 -289 -366 -452 l-239 -297 -85 60 c-47 34
-102 65 -122 70 -35 7 -40 5 -65 -25 -33 -41 -84 -53 -94 -23 -4 13 4 29 25
51 17 18 31 39 31 48 0 18 -78 93 -138 133 -30 20 -46 25 -53 18 -8 -8 12 -29
67 -73 44 -34 81 -64 83 -66 3 -2 -5 -14 -16 -27 -36 -39 -44 -63 -31 -91 9
-22 8 -29 -7 -46 -25 -28 -31 -99 -11 -139 l17 -32 -177 -205 -177 -205 -36
34 c-20 19 -46 40 -59 46 -20 11 -22 9 -22 -16 0 -55 75 -130 109 -109 10 7
222 -170 229 -192 3 -9 -3 -10 -24 -2 -54 21 -161 101 -325 242 -481 416 -520
448 -541 448 -13 0 -113 -47 -222 -105 -110 -57 -201 -103 -202 -102 -2 1 67
80 153 175 141 157 157 172 172 158 19 -17 112 -58 118 -52 8 8 -16 43 -55 78
l-38 35 53 59 c30 32 96 109 148 169 180 211 163 196 218 189 41 -6 51 -4 72
16 14 13 25 29 25 37 0 9 16 13 54 13 47 0 57 4 73 26 l19 26 52 -50 c29 -27
52 -55 52 -61 0 -16 27 -14 33 3 6 16 -122 146 -144 146 -9 0 -27 -16 -40 -35
-20 -30 -30 -35 -62 -35 l-38 0 22 31 c12 17 27 33 34 36 19 7 28 52 14 69 -9
11 -9 18 0 27 8 8 -1 24 -40 63 l-52 53 114 133 c63 74 251 294 418 490 l305
356 49 -24 c27 -14 52 -24 57 -22 8 3 260 299 960 1131 206 245 380 446 385
446 19 2 175 -90 175 -102 0 -5 -26 -41 -58 -80 -61 -76 -92 -121 -92 -134 0
-5 10 -13 23 -19 20 -9 29 -2 92 64 l70 73 74 -38 74 -38 15 24 c9 12 68 84
133 159 65 76 114 140 111 144 -7 6 -200 90 -234 102 -34 11 -18 26 27 26 38
0 45 -3 43 -17 -2 -13 13 -26 56 -47 74 -36 205 -49 234 -23 10 9 40 17 70 19
71 4 69 22 -4 25 -133 6 -301 22 -324 32 -32 14 232 5 333 -11 49 -7 72 -7 80
1 6 6 9 12 6 14 -2 1 -24 16 -49 32 -25 16 -55 38 -67 48 -19 17 -45 20 -180
26 -87 4 -248 8 -358 9 l-200 2 -185 -217z m471 75 c5 -10 5 -26 0 -40 -6 -12
-10 -19 -10 -14 -1 4 -23 -15 -49 -43 -37 -40 -53 -50 -68 -45 -53 19 -53 43
3 111 42 51 104 66 124 31z m624 -328 c3 -5 12 -10 18 -10 7 0 6 4 -3 10 -13
8 -12 10 3 10 16 0 22 -16 17 -50 -1 -8 -22 -36 -48 -62 -47 -49 -85 -61 -110
-36 -22 22 38 127 81 140 32 9 35 9 42 -2z m-3812 -3065 c35 -24 44 -51 24
-71 -9 -10 -55 34 -73 69 -19 35 -2 36 49 2z m-331 -359 c9 -13 10 -68 2 -90
-10 -25 -45 -4 -74 45 -13 23 24 71 48 62 9 -4 20 -11 24 -17z m971 -894 c9
-10 28 -43 42 -75 21 -48 23 -61 13 -77 -21 -32 -46 -23 -109 39 -63 62 -67
78 -24 113 26 23 58 23 78 0z"/>
<path d="M3225 4557 c-412 -497 -787 -952 -879 -1067 -139 -173 -290 -353
-308 -368 -11 -9 -27 -7 -67 9 -55 21 -82 18 -115 -10 -24 -20 -274 -320 -418
-501 -273 -342 -308 -388 -308 -400 0 -6 4 -10 8 -8 18 7 539 607 662 762 112
140 108 137 165 125 28 -6 54 -15 60 -20 16 -16 22 -11 91 74 38 45 145 172
239 282 372 436 972 1153 1008 1205 23 33 21 50 -5 50 -17 0 -52 -35 -133
-133z"/>
<path d="M3526 4434 c-32 -36 -57 -66 -55 -68 12 -9 103 -56 108 -56 7 0 101
124 101 133 0 5 -86 58 -92 56 -2 0 -29 -29 -62 -65z"/>
<path d="M3660 4365 c-35 -35 -62 -66 -59 -69 10 -10 154 -96 161 -96 8 0 112
150 106 154 -8 7 -135 76 -139 76 -3 0 -33 -29 -69 -65z"/>
<path d="M2154 3884 c-66 -35 -158 -77 -205 -94 -47 -17 -97 -42 -111 -55 -18
-17 -39 -67 -76 -182 -56 -174 -106 -342 -116 -386 l-7 -29 31 18 c17 10 45
34 64 54 54 57 576 708 576 718 0 28 -47 14 -156 -44z"/>
<path d="M2464 3525 c-10 -21 -8 -29 14 -57 40 -52 230 -206 352 -286 79 -52
180 -133 180 -144 0 -11 62 -38 86 -38 11 0 15 6 11 19 -3 12 1 22 9 25 23 9
16 31 -16 54 -16 12 -32 22 -35 22 -10 0 -73 49 -168 130 -95 81 -136 113
-222 175 -31 22 -77 57 -101 78 -25 20 -51 37 -59 37 -7 0 -19 2 -27 5 -7 3
-18 -6 -24 -20z"/>
<path d="M2285 3280 c4 -7 2 -16 -5 -20 -19 -12 36 -67 124 -126 39 -26 98
-71 131 -99 33 -28 88 -72 122 -98 34 -26 63 -50 65 -55 6 -16 139 -122 152
-122 8 0 21 -3 29 -6 10 -3 20 6 31 27 23 46 21 54 -21 75 -60 31 -182 123
-266 201 -43 40 -103 89 -135 109 -31 20 -79 53 -107 74 -49 38 -137 67 -120
40z"/>
<path d="M2053 3046 c3 -7 1 -18 -5 -24 -12 -12 43 -64 106 -100 23 -13 64
-45 91 -71 28 -27 71 -62 96 -79 26 -17 64 -48 85 -69 144 -141 253 -218 275
-196 5 5 11 22 14 38 7 34 -3 48 -84 110 -29 22 -80 63 -114 90 -34 28 -78 62
-97 75 -19 14 -61 48 -92 77 -31 28 -76 62 -100 74 -23 12 -58 34 -78 49 -40
31 -106 49 -97 26z"/>
<path d="M1540 3004 c-105 -52 -142 -72 -190 -103 -30 -19 -111 -63 -180 -98
-69 -34 -154 -78 -190 -98 -36 -19 -70 -35 -76 -35 -6 0 -16 -12 -23 -26 -10
-23 -7 -47 21 -160 18 -75 38 -136 45 -139 8 -2 28 8 45 23 38 34 581 642 577
646 -2 2 -15 -3 -29 -10z"/>
<path d="M1845 2800 c-7 -22 18 -60 51 -82 12 -7 73 -60 135 -118 162 -150
198 -182 254 -222 28 -20 59 -46 70 -58 24 -27 87 -60 114 -60 14 0 21 9 26
32 6 27 4 35 -16 48 -13 8 -42 31 -64 50 -22 20 -76 64 -120 100 -44 35 -99
80 -122 99 -136 116 -174 146 -228 180 -82 51 -93 54 -100 31z"/>
<path d="M3355 2374 c-175 -187 -330 -352 -344 -368 l-26 -29 29 15 c20 11 40
13 65 7 20 -4 101 -12 181 -18 229 -18 276 -22 425 -37 77 -8 197 -17 268 -21
l127 -6 -6 34 c-3 19 -21 108 -39 199 -19 91 -46 224 -60 295 -29 144 -53 235
-66 249 -4 5 -59 11 -122 14 l-114 4 -318 -338z m532 174 c12 -17 30 -97 38
-172 4 -33 20 -109 35 -169 15 -61 26 -116 23 -123 -11 -29 -107 33 -118 75
-14 56 -35 200 -41 286 -7 89 -6 91 17 102 31 15 35 15 46 1z"/>
<path d="M1637 2573 c-15 -14 -5 -34 30 -65 21 -18 78 -72 128 -119 49 -47
115 -105 145 -130 30 -24 73 -62 95 -84 97 -97 172 -153 215 -161 26 -6 30 -4
30 15 0 11 5 21 10 21 24 0 7 37 -28 60 -20 13 -71 56 -112 95 -67 63 -201
178 -338 287 -79 63 -157 100 -175 81z"/>
<path d="M1426 2298 c-7 -29 26 -64 136 -144 88 -65 89 -65 232 -198 129 -119
215 -184 253 -192 27 -5 31 -3 37 21 9 36 -9 57 -129 155 -55 45 -109 89 -120
99 -184 153 -337 265 -376 274 -22 6 -28 3 -33 -15z"/>
<path d="M2864 1833 c-37 -35 -390 -508 -442 -591 -21 -34 -23 -45 -17 -127 3
-49 10 -119 16 -155 5 -36 15 -138 23 -228 7 -89 15 -164 17 -166 2 -3 51 8
109 24 131 35 407 106 440 114 54 12 54 2 -9 342 -33 175 -76 413 -96 528
l-36 210 21 39 c12 21 20 40 18 43 -3 2 -22 -13 -44 -33z m56 -1040 c27 -24
29 -30 18 -46 -16 -21 -239 -90 -264 -80 -13 5 -15 15 -11 49 5 51 21 74 51
74 11 0 44 7 71 14 76 21 101 19 135 -11z"/>
<path d="M1300 1822 c0 -13 217 -191 234 -192 4 0 -4 17 -20 38 -69 91 -214
196 -214 154z"/>
<path d="M1104 1810 c-12 -4 -31 -20 -42 -35 -18 -23 -26 -25 -57 -19 -30 5
-41 2 -61 -17 -13 -12 -24 -27 -24 -32 0 -5 -50 -65 -111 -133 -61 -68 -107
-124 -102 -124 32 0 243 211 243 242 0 22 31 39 58 31 17 -4 34 5 67 36 24 22
52 41 60 41 9 0 13 5 10 10 -7 12 -13 12 -41 0z"/>
<path d="M1112 1768 c-16 -16 -15 -38 1 -38 17 0 37 20 37 37 0 16 -22 17 -38
1z"/>
<path d="M954 1614 c-125 -122 -89 -126 53 -7 l52 44 168 -147 c93 -81 172
-150 176 -154 5 -4 -3 -31 -17 -59 -36 -71 -67 -151 -58 -151 22 0 152 179
152 211 0 22 -103 116 -195 179 -39 26 -77 55 -85 65 -23 28 -127 105 -142
105 -8 0 -54 -39 -104 -86z"/>
<path d="M910 1464 c-74 -69 -147 -138 -163 -153 l-27 -27 181 -164 c99 -91
184 -166 188 -168 6 -2 266 363 266 373 0 2 -63 56 -140 121 -77 64 -147 123
-155 130 -14 12 -34 -3 -150 -112z"/>
<path d="M1546 1435 c5 -21 0 -33 -25 -59 -29 -30 -30 -34 -19 -64 11 -29 10
-34 -17 -62 -16 -16 -34 -30 -40 -30 -13 0 -189 -190 -206 -222 -23 -42 15
-11 111 92 56 61 108 110 115 110 16 0 75 66 74 83 0 7 -4 21 -9 32 -6 15 -1
27 17 46 26 29 30 89 5 97 -9 3 -11 -3 -6 -23z"/>
<path d="M1500 1421 c-13 -26 -13 -31 5 -31 16 0 38 34 28 44 -11 11 -22 6
-33 -13z"/>
</g>
</svg>
