<?xml version="1.0" standalone="no"?>
<!DOCTYPE svg PUBLIC "-//W3C//DTD SVG 20010904//EN"
 "http://www.w3.org/TR/2001/REC-SVG-20010904/DTD/svg10.dtd">
<svg version="1.0" xmlns="http://www.w3.org/2000/svg"
 width="512.000000pt" height="512.000000pt" viewBox="0 0 512.000000 512.000000"
 preserveAspectRatio="xMidYMid meet">
<metadata>
Created by potrace 1.16, written by Peter Selinger 2001-2019
</metadata>
<g transform="translate(0.000000,512.000000) scale(0.100000,-0.100000)"
fill="#f2f2f2" stroke="none">
<path d="M1299 5046 c-106 -57 -140 -77 -296 -180 -83 -55 -155 -107 -161
-117 -13 -21 1 -69 35 -116 13 -17 23 -34 23 -38 0 -3 -31 -41 -68 -84 -37
-43 -92 -114 -122 -157 -45 -66 -53 -84 -51 -117 1 -30 47 -124 183 -376 99
-185 187 -347 195 -359 13 -21 13 -26 -3 -43 -16 -18 -17 -25 -6 -66 13 -45
12 -47 -15 -69 -26 -21 -27 -24 -14 -46 8 -13 26 -43 39 -68 13 -24 38 -62 55
-85 17 -22 32 -41 33 -43 1 -2 11 1 23 7 26 15 41 -11 41 -72 0 -74 75 -157
141 -157 16 0 29 -4 29 -9 0 -6 24 -38 53 -73 29 -35 68 -85 87 -113 18 -27
43 -61 56 -75 20 -22 130 -200 296 -478 47 -79 49 -85 43 -136 -13 -101 56
-187 165 -205 l35 -6 0 -70 c1 -111 57 -206 133 -227 20 -5 54 -26 76 -46 39
-38 96 -109 96 -122 0 -7 -81 3 -118 14 -10 3 -23 -4 -33 -17 -24 -33 -50
-118 -40 -131 4 -6 16 -43 26 -83 42 -175 286 -469 464 -559 53 -27 73 -32
148 -33 68 -2 90 -6 100 -19 7 -9 50 -66 94 -127 116 -160 239 -300 275 -313
57 -22 140 -14 249 22 182 61 290 124 560 326 143 107 175 136 257 237 57 69
76 111 62 135 -4 7 -7 27 -5 44 2 25 -15 53 -95 160 -54 71 -122 167 -152 214
-30 47 -89 132 -132 190 -42 58 -107 158 -145 222 -95 165 -110 171 -372 143
-35 -4 -43 -1 -43 11 0 23 62 122 100 161 l31 32 -20 39 c-36 70 -100 144
-120 137 -14 -4 -20 1 -24 22 -3 16 -3 40 0 55 9 49 -6 93 -45 133 -37 38
-122 85 -154 85 -20 0 -23 15 -19 96 2 36 -3 64 -18 91 -25 49 -110 128 -156
144 -19 7 -36 18 -38 23 -3 6 -129 183 -280 392 -268 370 -276 383 -286 443
-6 35 -15 69 -22 77 -9 11 -9 21 1 43 11 28 8 36 -78 168 l-89 138 -48 0 c-36
0 -51 5 -59 19 -6 10 -32 48 -58 85 -92 128 -145 207 -192 286 -66 110 -163
254 -196 290 -15 17 -53 68 -84 115 -76 116 -160 209 -218 243 -26 15 -51 27
-56 27 -5 0 -38 -15 -73 -34z m132 -93 c20 -21 154 -207 299 -413 145 -206
284 -404 308 -438 25 -35 51 -66 58 -69 17 -6 25 -43 9 -43 -7 0 -18 -7 -25
-15 -7 -9 -15 -14 -17 -11 -3 2 -44 -9 -91 -26 -48 -16 -114 -31 -147 -33 -50
-3 -77 -12 -161 -58 -144 -78 -296 -184 -389 -271 -44 -41 -75 -75 -70 -75 6
-1 41 24 78 54 162 128 382 263 473 289 27 8 74 21 104 30 30 9 82 20 114 26
33 5 63 15 66 21 6 8 9 8 15 -1 9 -15 11 -14 -69 -34 -80 -20 -223 -73 -231
-86 -3 -5 20 0 52 11 76 26 289 79 319 79 28 0 31 16 8 41 -14 16 -13 18 15
24 17 3 39 4 48 1 19 -6 70 -74 66 -88 -2 -4 1 -8 5 -8 5 0 31 -32 57 -71 39
-55 47 -74 39 -87 -8 -11 -6 -24 5 -46 8 -17 15 -55 15 -86 l1 -55 303 -420
c271 -375 308 -422 342 -435 86 -34 120 -92 120 -206 0 -73 21 -98 89 -107 48
-6 83 -28 115 -71 17 -22 21 -43 22 -102 1 -82 21 -120 56 -109 13 5 25 -5 47
-42 16 -26 36 -56 45 -65 22 -25 20 -42 -9 -76 -14 -17 -25 -35 -25 -42 0 -6
-14 -29 -32 -51 -35 -44 -33 -55 21 -119 24 -28 29 -30 61 -20 19 5 76 10 126
10 99 0 103 -2 160 -85 11 -16 106 -151 210 -300 105 -148 209 -298 233 -333
23 -35 53 -67 65 -72 28 -10 40 -38 25 -56 -9 -11 -9 -14 0 -14 27 0 22 -32
-9 -60 -18 -16 -33 -37 -34 -47 -3 -22 -164 -193 -182 -193 -17 0 -114 -59
-114 -69 0 -4 -25 -25 -55 -46 -31 -21 -81 -62 -111 -92 -80 -79 -186 -125
-363 -158 -41 -8 -88 -20 -104 -26 -23 -10 -32 -10 -35 -1 -2 7 -11 8 -28 2
-19 -8 -24 -6 -24 6 0 8 -13 26 -28 39 -16 13 -70 84 -122 157 -51 73 -111
156 -134 185 -40 50 -42 51 -81 45 -22 -4 -74 -7 -115 -7 -75 0 -75 0 -163 59
-64 42 -105 78 -146 131 -91 114 -148 212 -170 295 -27 97 -27 135 1 154 21
15 22 14 40 -40 60 -179 241 -413 381 -493 50 -28 62 -31 143 -31 l89 0 107
-113 c59 -61 136 -143 172 -182 35 -38 68 -67 71 -63 4 4 -15 37 -41 74 -27
37 -49 73 -50 79 -1 6 -52 74 -114 151 -127 158 -295 404 -283 414 4 4 26 13
48 20 22 7 87 37 145 66 58 30 110 54 116 54 17 0 205 119 299 190 50 37 130
102 178 145 49 42 90 75 91 73 2 -1 77 -113 166 -248 163 -245 202 -300 250
-353 23 -27 24 -29 7 -39 -10 -5 -41 -30 -69 -54 -27 -25 -115 -97 -194 -160
-154 -123 -171 -140 -127 -123 97 37 206 106 335 213 91 76 103 95 88 141 -41
123 -373 644 -448 702 -27 20 -34 21 -129 13 -55 -5 -112 -12 -126 -15 -22 -6
-29 -3 -38 19 -7 14 -20 26 -31 26 -12 0 -18 7 -18 24 0 29 -22 49 -44 40 -18
-7 -21 -25 -6 -40 13 -13 -32 -154 -53 -166 -9 -5 -14 -15 -11 -22 8 -21 83
-2 161 40 49 26 87 39 133 44 36 4 66 6 68 5 4 -3 -109 -111 -178 -170 -134
-114 -645 -373 -676 -342 -12 12 11 50 64 108 45 49 62 60 142 88 86 31 219
108 249 145 16 20 32 25 -168 -58 -74 -30 -138 -53 -143 -50 -9 6 -88 120 -88
128 0 3 21 14 46 25 25 12 67 36 92 54 26 19 86 57 133 85 48 29 110 73 138
98 29 26 55 44 58 40 9 -9 44 25 37 36 -3 5 16 34 43 66 l48 56 -70 -53 c-38
-30 -104 -81 -145 -115 -171 -141 -558 -346 -652 -346 -12 0 -36 -5 -53 -11
-28 -11 -35 -8 -97 35 -70 49 -118 98 -118 121 0 7 -15 18 -34 25 -40 13 -69
44 -85 89 -13 41 -14 120 -1 141 11 18 -24 60 -51 60 -37 0 -125 41 -144 68
-19 26 -26 108 -15 182 6 35 -553 840 -582 840 -77 0 -146 101 -127 185 10 46
9 59 -5 78 -13 16 -16 16 -60 -4 -26 -11 -49 -19 -50 -17 -1 1 -18 26 -38 54
-60 86 -61 89 -33 122 l24 29 -21 42 -21 42 22 23 22 24 -32 58 c-18 33 -40
70 -50 84 -9 14 -44 78 -78 143 -33 65 -80 146 -104 180 -89 125 -164 289
-141 305 5 4 48 52 96 107 47 55 111 125 142 155 31 30 56 59 56 66 0 6 -13
30 -30 52 -47 65 -42 82 46 152 42 33 88 67 104 75 15 8 67 39 116 70 111 69
144 72 195 18z m1425 -3639 l46 -65 -64 -67 c-73 -77 -108 -123 -108 -145 0
-22 60 -132 140 -256 39 -59 70 -111 70 -114 0 -35 -158 56 -256 146 -87 81
-140 149 -194 250 -38 70 -41 81 -33 115 l9 37 28 -55 c43 -84 176 -256 176
-227 0 3 -24 44 -54 89 -93 145 -139 255 -116 283 9 11 16 12 30 2 24 -14 82
0 189 47 42 18 79 31 83 29 4 -2 29 -33 54 -69z"/>
<path d="M1275 4872 c-33 -21 -100 -60 -150 -87 -49 -26 -92 -50 -94 -51 -4
-4 10 -27 132 -221 53 -84 106 -171 118 -195 12 -24 44 -69 72 -102 124 -143
165 -236 109 -244 -46 -7 -114 52 -254 219 -137 165 -178 222 -178 250 0 21
-4 19 -47 -22 -27 -25 -82 -74 -123 -109 -41 -35 -79 -67 -85 -72 -5 -5 15
-33 51 -71 64 -65 165 -192 275 -346 l67 -92 57 50 c74 65 165 119 305 182 90
41 129 53 182 57 55 4 69 2 74 -11 6 -18 -9 -52 -40 -85 l-21 -23 26 10 c14 5
32 9 40 8 10 -2 135 45 157 59 1 1 -23 38 -54 82 -92 128 -445 680 -493 770
-24 45 -49 82 -55 82 -6 0 -38 -17 -71 -38z"/>
<path d="M2056 3829 c-80 -19 -328 -149 -499 -262 -183 -122 -347 -251 -347
-274 0 -8 3 -13 8 -11 4 2 34 16 67 32 33 15 84 40 113 53 29 14 68 28 87 30
29 3 34 0 37 -19 4 -25 -11 -68 -23 -68 -14 0 -71 -54 -110 -103 -28 -35 -39
-58 -39 -83 0 -57 24 -101 69 -123 49 -25 72 -26 114 -5 50 26 66 44 72 83 13
77 15 81 40 81 13 0 26 -3 29 -8 2 -4 7 -56 10 -116 7 -111 11 -127 87 -306
28 -65 229 -362 297 -438 46 -52 48 -53 111 -57 60 -5 98 -15 54 -15 -25 0
-98 -52 -114 -82 -16 -30 -12 -98 7 -119 19 -21 64 -33 76 -21 6 6 1 23 -11
43 -24 40 -27 82 -6 99 8 6 31 14 52 17 51 7 74 -19 81 -88 5 -58 18 -67 63
-45 39 19 39 19 39 2 0 -7 7 -19 15 -26 31 -26 90 24 65 55 -24 29 -6 38 67
36 82 -3 114 10 162 64 26 30 37 64 32 98 -3 19 21 4 39 -25 40 -65 24 -105
-84 -211 -18 -19 -26 -35 -23 -48 10 -38 -11 -86 -44 -99 -26 -11 -36 -10 -67
5 -53 27 -104 28 -159 4 -91 -39 -121 -93 -88 -162 20 -42 90 -83 112 -65 19
15 16 27 -9 49 l-23 18 28 1 c28 0 32 6 21 34 -9 22 -37 20 -52 -4 -15 -24
-38 -26 -46 -4 -14 35 38 84 89 84 39 0 75 -35 84 -82 5 -23 12 -33 26 -33 14
0 23 15 38 58 24 73 44 85 96 56 21 -11 46 -19 56 -18 26 5 36 51 19 84 -8 15
-14 40 -14 57 0 25 6 32 43 48 52 23 77 12 91 -43 8 -31 6 -40 -17 -71 -55
-72 -17 -90 64 -30 32 23 52 46 58 67 l8 32 22 -50 c25 -55 23 -108 -5 -151
-9 -13 -12 -24 -7 -24 12 0 179 110 230 151 68 56 133 133 123 149 -10 17 -64
-14 -138 -82 -50 -44 -57 -48 -106 -48 -42 0 -57 5 -73 23 -25 27 -53 80 -53
101 0 24 36 39 61 26 25 -14 79 -3 79 15 0 7 -7 18 -16 26 -20 17 -44 63 -44
87 0 21 40 62 61 62 24 0 79 -39 79 -55 0 -21 -27 -30 -45 -15 -15 12 -16 11
-19 -22 -1 -8 11 -13 29 -13 27 0 30 -3 30 -30 0 -41 35 -46 64 -9 25 31 26
55 7 92 -22 43 -57 70 -107 83 -41 11 -53 10 -93 -5 -56 -21 -75 -39 -83 -77
-7 -38 -35 -61 -70 -57 -26 3 -28 7 -34 56 -7 57 -41 115 -93 158 -36 31 -23
44 35 37 47 -7 51 7 9 37 -34 24 -37 38 -14 86 17 36 58 64 92 64 28 0 72 -38
72 -61 0 -11 5 -17 10 -14 5 3 10 21 10 40 0 84 -140 115 -209 46 -12 -12 -25
-21 -30 -21 -16 0 -20 44 -6 66 13 20 10 28 -32 100 -147 254 -246 396 -335
484 -37 38 -68 73 -68 79 0 6 -7 11 -15 11 -20 0 -19 9 5 45 30 46 25 61 -11
31 -55 -47 -86 -58 -139 -51 -27 4 -55 14 -63 23 -14 16 -12 17 26 17 53 0 99
31 138 93 36 57 37 91 3 131 -40 47 -61 54 -153 52 -68 -1 -98 -7 -154 -31
-58 -24 -72 -27 -83 -16 -11 11 2 20 74 54 48 22 105 46 127 53 38 13 39 14
12 17 -39 5 -108 -20 -297 -105 -220 -100 -233 -106 -226 -95 8 13 177 113
275 162 117 58 256 110 296 110 41 0 54 16 23 26 -22 7 -22 7 -3 15 29 11 -70
9 -119 -2z m143 -261 c19 -38 19 -44 6 -65 -23 -35 -49 -45 -71 -28 -16 12
-17 14 -3 15 23 0 41 24 33 44 -9 23 -44 21 -44 -3 0 -12 -9 -21 -26 -25 -31
-8 -31 -8 -39 25 -4 18 -1 30 10 39 30 25 59 38 86 39 22 1 31 -7 48 -41z
m-325 -190 c12 -16 13 -25 4 -35 -8 -10 -8 -17 0 -25 39 -39 -22 -84 -85 -65
-39 12 -68 56 -58 88 7 22 69 58 102 59 12 0 29 -10 37 -22z m173 -152 c-6
-68 -27 -101 -83 -133 -80 -46 -176 -40 -225 14 -42 45 -49 84 -9 48 12 -11
40 -16 86 -17 56 -1 76 3 106 21 44 27 74 71 83 124 7 37 8 38 27 20 17 -15
19 -27 15 -77z m-486 -23 c12 -33 3 -43 -50 -50 -32 -4 -41 -10 -39 -22 4 -20
48 -27 59 -10 4 8 11 11 14 7 10 -9 -16 -45 -43 -59 -16 -9 -28 -10 -40 -3
-26 17 -51 56 -58 91 -6 29 -3 33 32 52 22 11 56 20 77 21 32 0 39 -4 48 -27z
m1082 -870 c11 -7 8 -41 -4 -45 -8 -3 -8 -10 2 -27 13 -20 12 -24 -15 -47 -21
-18 -35 -24 -50 -18 -12 3 -37 7 -56 8 -32 1 -35 4 -38 33 -6 62 59 119 123
107 17 -4 33 -8 38 -11z"/>
<path d="M1833 3303 c-7 -3 -13 -14 -13 -25 0 -14 5 -18 16 -14 9 3 18 6 20 6
7 0 4 29 -3 33 -5 2 -14 2 -20 0z"/>
<path d="M2577 2264 c-11 -11 3 -24 24 -24 12 0 19 5 17 13 -5 14 -31 21 -41
11z"/>
<path d="M1446 3547 c-49 -28 -110 -72 -135 -96 -52 -49 -46 -45 106 58 160
110 169 121 29 38z"/>
<path d="M2928 2503 c-21 -5 -25 -43 -5 -43 17 0 37 20 37 37 0 13 -3 14 -32
6z"/>
<path d="M2230 2070 c-9 -16 -8 -22 5 -27 20 -7 50 20 41 36 -11 17 -34 13
-46 -9z"/>
<path d="M3339 1904 c-24 -25 -77 -69 -118 -97 -40 -29 -100 -70 -132 -93 -80
-56 -84 -61 -19 -29 127 63 330 211 330 241 0 28 -19 21 -61 -22z"/>
<path d="M2815 1930 c-4 -7 -3 -16 2 -21 12 -12 45 0 40 15 -5 15 -34 19 -42
6z"/>
<path d="M2820 1629 c-7 -11 -9 -23 -6 -26 3 -3 9 2 12 11 4 10 16 22 28 26
21 9 21 9 -1 9 -13 1 -27 -8 -33 -20z"/>
<path d="M3679 1357 c-149 -136 -364 -273 -506 -321 -37 -13 -90 -34 -118 -48
-27 -14 -67 -31 -87 -37 l-36 -12 50 -77 c73 -110 197 -283 225 -313 18 -19
31 -24 53 -21 16 2 27 8 24 13 -3 5 7 14 22 21 25 12 29 10 60 -26 l33 -38 81
30 c106 40 244 119 350 202 47 36 97 74 112 84 23 15 49 59 37 62 -2 0 2 8 10
17 7 9 17 14 23 11 5 -3 15 0 23 6 12 10 7 25 -31 98 -26 48 -53 97 -63 108
-59 77 -133 178 -166 227 -21 31 -41 57 -44 57 -3 0 -27 -19 -52 -43z"/>
<path d="M4148 734 c-130 -136 -235 -214 -475 -353 -78 -45 -152 -91 -165
-102 l-23 -20 24 7 c42 11 189 82 292 139 212 119 439 319 439 387 0 31 -17
20 -92 -58z"/>
</g>
</svg>
