<?xml version="1.0" standalone="no"?>
<!DOCTYPE svg PUBLIC "-//W3C//DTD SVG 20010904//EN"
 "http://www.w3.org/TR/2001/REC-SVG-20010904/DTD/svg10.dtd">
<svg version="1.0" xmlns="http://www.w3.org/2000/svg"
 width="512.000000pt" height="512.000000pt" viewBox="0 0 512.000000 512.000000"
 preserveAspectRatio="xMidYMid meet">
<metadata>
Created by potrace 1.16, written by Peter Selinger 2001-2019
</metadata>
<g transform="translate(0.000000,512.000000) scale(0.100000,-0.100000)"
fill="#f2f2f2" stroke="none">
<path d="M2870 4398 c-30 -34 -64 -71 -75 -82 -12 -12 -42 -47 -69 -78 l-48
-58 -82 0 c-88 0 -94 -3 -143 -66 -28 -35 -175 -219 -206 -255 -12 -15 -33
-41 -46 -57 l-24 -30 -141 -7 -141 -8 -195 -191 c-107 -106 -203 -199 -213
-206 -10 -8 -26 -22 -35 -30 -10 -8 -60 -50 -112 -92 -52 -42 -109 -89 -127
-105 -18 -15 -70 -59 -117 -98 -82 -66 -86 -71 -86 -110 1 -22 7 -76 16 -120
8 -44 23 -139 34 -212 31 -201 39 -237 56 -250 14 -10 1 -19 -82 -58 -182 -84
-209 -99 -259 -144 -54 -49 -251 -231 -319 -296 -23 -22 -102 -96 -176 -165
-74 -69 -154 -144 -178 -167 l-43 -41 24 -69 c24 -65 43 -117 103 -271 14 -37
36 -97 49 -134 33 -92 56 -134 120 -221 45 -60 64 -78 98 -89 23 -8 110 -38
192 -66 83 -28 236 -81 340 -117 l190 -65 202 -17 201 -16 108 44 c60 24 118
53 129 64 21 23 254 239 424 395 57 52 111 103 120 112 9 9 72 110 140 225 69
114 128 213 133 219 9 13 51 5 218 -39 188 -50 335 -89 355 -94 14 -3 36 11
71 44 27 26 106 101 175 165 118 110 126 121 159 198 19 45 38 84 42 86 10 6
306 44 347 44 29 0 45 12 128 97 l94 98 -5 55 c-7 73 -10 249 -4 255 2 3 58
16 122 29 131 26 116 17 231 152 l58 68 -7 92 -6 91 42 11 c24 6 68 16 99 22
60 11 72 24 171 170 l38 55 -20 223 -20 223 28 41 c15 23 32 48 37 57 6 9 18
27 28 40 16 22 17 40 11 175 l-7 151 -60 117 c-33 65 -65 122 -71 127 -6 4
-94 37 -196 71 -165 56 -197 64 -295 71 -119 8 -125 7 -271 -68 l-50 -26 -83
65 -82 65 -82 7 c-45 3 -161 11 -257 16 -96 5 -263 16 -370 25 -287 22 -265
25 -330 -47z m451 -7 c140 -11 322 -23 404 -26 166 -7 173 -10 270 -90 28 -23
58 -45 69 -48 12 -5 55 11 125 44 l106 52 95 -7 c80 -5 125 -16 282 -67 l187
-62 55 -108 55 -109 7 -138 7 -138 -56 -86 -56 -85 14 -129 c7 -71 16 -172 19
-225 6 -94 6 -97 -21 -132 -16 -20 -45 -60 -66 -90 l-38 -54 -86 -17 c-129
-25 -123 -19 -123 -140 l0 -103 -70 -79 c-39 -43 -78 -82 -88 -85 -9 -3 -60
-14 -112 -23 -52 -10 -106 -19 -119 -22 l-23 -5 7 -167 6 -167 -79 -82 -80
-82 -173 -21 c-244 -29 -225 -23 -248 -84 -23 -61 -61 -139 -73 -147 -5 -3
-64 -58 -131 -121 -67 -63 -136 -127 -154 -142 l-31 -26 -94 24 c-51 14 -154
41 -228 61 -184 50 -246 63 -263 53 -8 -4 -43 -55 -78 -113 -35 -58 -72 -118
-81 -133 -10 -15 -29 -47 -43 -72 -76 -131 -73 -128 -296 -335 -41 -38 -133
-124 -203 -190 -156 -145 -148 -140 -260 -185 l-91 -37 -185 14 c-204 17 -183
11 -710 194 -96 33 -188 64 -203 69 -27 9 -43 25 -94 95 -31 42 -79 135 -87
169 -4 15 -15 47 -25 70 -11 22 -24 55 -29 71 -6 17 -36 95 -66 175 l-56 145
44 40 c24 22 103 96 177 165 73 69 169 159 213 200 170 158 203 189 251 235
48 46 79 63 310 169 44 20 88 41 97 46 10 6 25 10 34 10 10 0 14 7 12 22 -2
19 -11 24 -51 30 -27 4 -51 9 -54 12 -3 2 -12 49 -20 103 -8 54 -25 162 -39
240 -39 229 -61 187 209 408 133 110 313 270 425 380 106 105 196 192 198 195
3 3 69 7 147 10 l141 5 149 185 c82 102 154 193 161 203 13 17 47 22 172 26
13 1 61 48 139 136 l119 135 62 0 c34 0 176 -9 315 -19z"/>
<path d="M2887 4259 c-59 -61 -107 -112 -107 -115 0 -2 12 -4 28 -4 22 0 50
23 135 108 59 59 105 111 101 115 -23 22 -56 0 -157 -104z"/>
<path d="M2974 4245 c-69 -66 -112 -115 -103 -115 9 0 38 20 65 45 49 47 59
52 69 35 21 -34 114 -51 505 -90 163 -16 177 -16 200 0 31 20 69 9 119 -35
165 -143 178 -169 169 -340 -3 -65 34 -129 97 -167 56 -33 87 -81 100 -152 4
-20 12 -39 17 -42 6 -4 8 1 5 12 -41 144 -45 151 -112 195 -34 23 -44 39 -68
103 -21 56 -25 80 -18 94 7 13 6 33 -5 67 -8 27 -13 50 -11 52 2 1 17 -10 34
-27 19 -19 44 -67 72 -139 23 -61 47 -113 52 -117 19 -11 22 5 9 53 -7 26 -14
63 -16 82 -2 19 -14 51 -28 71 -25 38 -267 273 -302 293 -12 7 -40 25 -63 41
l-42 29 -38 -37 -39 -38 -163 21 c-90 12 -216 25 -279 30 -109 8 -134 15 -198
56 -1 1 0 9 3 18 6 13 27 14 148 10 78 -2 212 -11 297 -20 85 -8 180 -17 211
-18 45 -2 70 -11 125 -43 38 -22 80 -51 94 -64 14 -14 33 -29 42 -34 10 -5 59
-50 110 -99 89 -87 165 -136 177 -116 4 5 19 15 34 20 l28 11 -20 29 c-30 42
-223 223 -292 273 -32 24 -60 51 -63 61 -2 10 -8 17 -13 15 -4 -1 -18 2 -31 6
-16 5 -33 1 -59 -15 -20 -13 -31 -25 -24 -27 7 -2 20 3 30 12 19 17 51 22 51
7 0 -5 -9 -13 -20 -16 -11 -3 -20 -10 -20 -15 0 -18 20 -20 44 -5 14 9 30 13
37 9 8 -4 -1 -14 -26 -27 l-38 -19 -48 23 c-27 12 -49 26 -49 30 0 4 14 19 32
33 18 14 29 28 26 32 -4 3 -58 10 -120 16 -62 5 -206 18 -319 29 -113 10 -217
19 -230 19 -19 0 -58 -31 -145 -115z m766 -80 c10 -12 10 -15 -3 -15 -8 0 -20
-7 -27 -15 -7 -8 -19 -15 -27 -15 -10 0 -8 8 9 30 25 34 31 36 48 15z m396
-415 c2 -20 -1 -17 -17 14 -10 22 -19 47 -19 55 1 23 33 -39 36 -69z"/>
<path d="M4210 4224 c-46 -25 -87 -47 -90 -50 -6 -6 90 -93 103 -94 10 0 81
49 122 85 17 14 45 38 62 53 51 42 43 52 -39 52 -67 -1 -80 -5 -158 -46z"/>
<path d="M4420 4203 c-30 -31 -83 -74 -117 -96 -40 -25 -60 -44 -56 -53 3 -8
8 -14 12 -14 4 0 31 -23 60 -50 47 -45 127 -100 144 -100 4 0 53 45 109 100
57 55 106 100 111 100 4 0 7 7 7 15 0 8 21 26 48 39 30 16 42 26 32 29 -75 26
-277 87 -285 87 -5 -1 -35 -26 -65 -57z"/>
<path d="M2966 4172 c-4 -7 -3 -12 3 -12 6 0 16 -10 22 -22 11 -21 11 -22 -5
-9 -9 8 -17 12 -19 10 -23 -40 -27 -52 -22 -57 4 -4 11 1 16 11 6 9 19 17 29
17 25 0 25 21 2 51 -13 15 -21 19 -26 11z"/>
<path d="M4793 4098 c-11 -13 -70 -72 -132 -132 -61 -60 -111 -110 -111 -112
0 -1 35 -5 78 -9 42 -4 84 -9 94 -11 27 -8 29 -34 4 -59 l-24 -24 64 -36 c61
-33 67 -34 93 -21 51 27 55 39 53 154 -3 94 -6 112 -29 152 -14 25 -34 62 -45
83 -10 20 -20 37 -21 37 -2 0 -13 -10 -24 -22z"/>
<path d="M3034 4102 c3 -3 51 -9 106 -13 56 -4 117 -13 136 -19 19 -7 37 -10
40 -7 2 2 -19 11 -48 20 -50 15 -245 31 -234 19z"/>
<path d="M3733 4088 c-8 -10 -7 -19 7 -35 35 -44 56 -19 22 25 -15 19 -20 21
-29 10z"/>
<path d="M2554 4027 c-22 -24 -68 -76 -104 -117 -36 -40 -89 -98 -117 -129
-29 -31 -53 -59 -53 -63 0 -5 12 -8 28 -8 19 1 35 11 55 37 15 20 77 89 138
154 61 65 120 130 131 144 l19 25 -29 0 c-22 0 -39 -11 -68 -43z"/>
<path d="M3421 4066 c2 -2 47 -6 99 -9 68 -4 81 -3 45 3 -52 9 -152 13 -144 6z"/>
<path d="M2519 3889 c-90 -94 -165 -176 -167 -182 -2 -7 32 25 76 71 l80 83 4
-31 c4 -27 -1 -38 -39 -73 -23 -22 -43 -44 -43 -49 0 -21 78 -7 114 20 35 26
42 28 95 21 92 -13 299 -37 406 -49 233 -26 343 -55 402 -106 28 -25 173 -316
173 -349 0 -16 66 -75 83 -75 7 0 24 -10 38 -23 20 -17 32 -46 53 -132 15 -60
31 -114 35 -118 4 -4 21 -10 37 -13 16 -2 35 -7 42 -9 7 -3 12 5 12 19 0 34
-80 277 -98 299 -8 9 -33 22 -56 28 -41 11 -84 35 -78 44 2 3 -8 36 -23 74
-20 53 -23 74 -16 94 7 17 6 41 -4 78 -8 29 -13 54 -11 56 1 1 16 -12 33 -30
27 -27 80 -144 107 -234 7 -23 33 -49 41 -41 3 3 0 29 -6 59 -6 30 -13 66 -14
80 -6 53 -47 108 -171 228 -112 107 -279 241 -302 241 -4 0 -21 -16 -38 -37
l-31 -36 -119 11 c-394 38 -513 55 -540 77 -19 15 -25 27 -21 40 7 16 19 17
165 11 199 -9 378 -23 465 -38 50 -8 73 -8 92 0 14 6 25 8 25 3 0 -5 29 -25
65 -45 77 -42 146 -97 280 -223 109 -102 175 -142 196 -117 6 8 18 14 26 14 7
0 16 7 19 15 7 18 -109 147 -207 230 -39 33 -78 68 -87 78 -9 9 -20 17 -25 17
-4 0 -35 23 -68 50 -33 28 -63 50 -67 50 -9 0 -82 -49 -82 -55 0 -6 31 6 58
23 12 8 22 10 22 6 0 -5 -10 -15 -21 -23 -18 -10 -19 -15 -8 -22 9 -5 23 -2
37 7 24 16 52 13 52 -6 0 -17 -69 -42 -93 -34 -12 4 -36 16 -53 27 l-31 21 29
24 c16 14 26 28 21 32 -4 4 -66 15 -138 24 -71 9 -215 27 -319 41 -103 14
-200 25 -215 25 -22 0 -58 -32 -192 -171z m87 -28 c30 -19 94 -28 354 -51 63
-6 164 -17 225 -26 l109 -16 18 22 c15 18 25 21 50 16 53 -11 216 -159 242
-220 27 -66 38 -133 25 -157 l-12 -23 -18 23 c-10 12 -16 27 -13 34 11 31
-153 234 -181 223 -6 -2 -36 4 -67 15 -30 10 -126 27 -214 38 -291 36 -509 61
-534 61 -33 0 -77 64 -60 86 9 10 17 11 29 3 9 -5 30 -18 47 -28z m736 -39
c-11 -2 -26 -10 -32 -18 -12 -14 -40 -20 -40 -8 0 3 12 18 28 34 25 26 28 27
46 11 18 -16 18 -16 -2 -19z m-802 -2 c9 -16 8 -18 -5 -14 -8 4 -15 12 -15 20
0 20 7 17 20 -6z m1217 -367 c21 -51 8 -52 -16 -2 -24 49 -25 53 -10 43 6 -3
18 -22 26 -41z"/>
<path d="M3333 3754 c-8 -22 33 -62 48 -47 9 9 8 18 -5 37 -19 30 -34 33 -43
10z"/>
<path d="M3348 4053 c12 -2 30 -2 40 0 9 3 -1 5 -23 4 -22 0 -30 -2 -17 -4z"/>
<path d="M3628 4043 c6 -2 18 -2 25 0 6 3 1 5 -13 5 -14 0 -19 -2 -12 -5z"/>
<path d="M3435 4010 c34 -5 64 -4 70 1 5 5 -18 8 -60 8 l-70 -2 60 -7z"/>
<path d="M3540 4005 c-11 -13 -6 -22 33 -60 37 -37 58 -48 111 -62 61 -15 67
-14 91 1 14 9 25 22 25 30 0 14 -49 40 -135 74 -79 31 -110 35 -125 17z"/>
<path d="M3790 4012 c0 -5 17 -22 38 -39 21 -17 58 -58 82 -91 25 -34 46 -59
49 -57 2 3 -5 16 -15 31 -11 15 -26 38 -35 51 -10 14 -36 45 -59 69 -40 42
-60 54 -60 36z"/>
<path d="M3814 3876 c-23 -18 -12 -31 34 -41 36 -7 39 0 16 33 -18 26 -24 27
-50 8z"/>
<path d="M4241 3858 l-32 -21 23 -25 c107 -118 141 -146 311 -261 58 -39 90
-53 125 -57 47 -6 47 -5 70 36 13 23 22 43 20 44 -10 8 -188 106 -193 106 -4
0 -78 50 -232 157 l-59 41 -33 -20z"/>
<path d="M4203 3686 c11 -80 16 -85 141 -159 63 -38 59 -48 -6 -13 -49 27 -73
35 -92 30 -30 -7 -25 -24 7 -22 12 1 54 -16 92 -38 39 -21 113 -61 165 -88
141 -71 132 -59 146 -188 8 -82 16 -115 28 -123 15 -11 14 -14 -11 -30 -15
-10 -46 -20 -70 -23 -24 -2 -43 -9 -43 -14 0 -6 10 -8 23 -5 65 15 87 15 40 0
-48 -14 -53 -19 -53 -45 0 -23 4 -28 18 -24 9 3 49 12 87 20 61 13 75 20 106
55 20 23 42 41 48 41 15 0 14 45 -5 181 -8 63 -15 140 -16 172 0 31 -4 59 -8
62 -15 9 -80 -74 -80 -103 0 -35 22 -246 26 -251 2 -2 12 2 21 10 17 13 17 13
1 -7 -10 -11 -18 -26 -18 -32 0 -6 -9 -16 -20 -22 -24 -13 -24 -10 -39 150 -8
83 -15 116 -26 123 -9 5 -15 23 -15 45 l-1 37 -112 54 c-62 29 -155 74 -207
100 l-95 47 -9 52 c-12 63 -31 71 -23 8z m222 -181 c39 -32 29 -32 -15 0 -19
14 -30 25 -24 25 5 -1 23 -12 39 -25z m85 -59 c7 -9 19 -16 27 -16 12 0 13 3
3 14 -8 11 4 8 42 -7 66 -27 61 -24 53 -37 -4 -7 -15 -4 -32 10 -39 31 -65 26
-28 -6 l30 -26 -50 28 c-51 28 -122 87 -79 66 11 -6 26 -18 34 -26z m195 -406
c-3 -5 -12 -10 -18 -10 -7 0 -6 4 3 10 19 12 23 12 15 0z"/>
<path d="M1825 3494 c-99 -96 -209 -195 -245 -220 -36 -25 -112 -79 -170 -120
-58 -40 -129 -90 -157 -109 -29 -20 -53 -40 -53 -45 0 -5 -6 -7 -13 -4 -7 2
-21 -4 -31 -15 -22 -24 -19 -42 65 -478 9 -45 14 -53 41 -62 17 -6 33 -10 34
-8 2 1 -5 43 -15 92 -49 239 -82 426 -78 442 3 13 5 12 6 -6 0 -13 8 -51 17
-84 9 -34 22 -95 29 -137 8 -41 25 -127 38 -190 24 -113 25 -114 56 -123 22
-5 37 -4 47 4 21 17 17 26 -15 32 -39 8 -57 63 -77 242 -3 33 -15 105 -25 160
-15 79 -16 102 -6 112 16 16 256 182 332 230 33 21 124 103 205 184 80 81 180
177 223 213 l79 66 -54 0 -53 -1 -180 -175z"/>
<path d="M2064 3607 c-39 -30 -89 -73 -110 -97 -79 -88 -302 -310 -311 -310
-6 0 -44 -22 -86 -50 -42 -27 -79 -50 -83 -50 -9 0 -110 -76 -144 -109 -34
-32 -3 -21 53 19 82 59 207 140 218 140 5 0 27 9 48 19 l38 20 -9 -62 c-19
-141 -29 -155 -143 -189 -38 -11 -74 -25 -80 -30 -23 -22 161 37 187 60 24 20
46 86 53 159 8 87 33 124 180 280 96 101 131 131 140 123 7 -6 90 -13 196 -16
188 -5 328 -16 478 -39 58 -9 90 -10 101 -3 12 8 27 4 59 -16 23 -15 58 -36
77 -47 39 -21 55 -34 87 -65 12 -11 29 -25 39 -30 9 -5 69 -58 133 -119 111
-103 202 -166 214 -146 3 4 21 16 39 25 17 9 32 20 32 24 0 11 -205 220 -265
270 -27 23 -92 74 -143 113 l-94 72 -44 -22 c-43 -22 -64 -41 -45 -41 5 0 26
10 46 21 42 25 61 16 25 -11 -33 -25 -18 -37 26 -21 52 19 65 0 19 -28 -20
-11 -40 -21 -44 -21 -8 0 -121 60 -121 64 0 2 18 16 40 31 22 15 40 31 40 36
0 15 -111 49 -159 49 -27 0 -72 4 -100 10 -50 9 -205 22 -416 35 l-100 6 -71
-54z"/>
<path d="M2925 3650 c-9 -14 -11 -13 55 -42 l55 -25 32 26 33 26 -27 7 c-59
16 -140 20 -148 8z"/>
<path d="M3095 3600 c-22 -23 -25 -30 -12 -30 15 0 48 -10 219 -66 45 -15 48
-15 77 7 17 13 31 28 31 35 0 28 -83 62 -175 73 -117 14 -107 15 -140 -19z"/>
<path d="M3925 3581 c-7 -12 12 -24 25 -16 11 7 4 25 -10 25 -5 0 -11 -4 -15
-9z"/>
<path d="M3987 3543 c-4 -3 -7 -11 -7 -17 0 -6 5 -5 12 2 6 6 9 14 7 17 -3 3
-9 2 -12 -2z"/>
<path d="M3888 3514 c-16 -8 -28 -20 -28 -27 0 -21 171 -181 260 -243 156
-109 164 -113 217 -120 l51 -6 26 41 c14 22 26 43 26 45 0 5 -93 57 -180 102
-30 15 -80 46 -110 68 -30 23 -62 46 -71 51 -9 6 -48 31 -86 58 -39 26 -72 47
-74 47 -2 -1 -16 -8 -31 -16z"/>
<path d="M3412 3498 c-18 -18 -15 -25 19 -37 23 -8 29 -8 25 2 -3 6 -9 20 -12
30 -7 20 -16 21 -32 5z"/>
<path d="M1970 3480 c0 -5 15 -17 33 -26 17 -9 39 -22 47 -29 9 -8 70 -17 150
-24 130 -11 310 -30 492 -52 83 -10 89 -10 119 12 28 19 35 20 70 10 21 -7 39
-15 39 -20 0 -4 28 -30 62 -57 110 -86 133 -116 163 -209 25 -75 26 -89 15
-113 l-13 -27 -24 55 c-39 87 -179 250 -215 250 -12 0 -18 8 -18 23 -1 31 -26
61 -45 54 -18 -7 -20 -28 -3 -45 9 -9 4 -10 -21 -2 -17 5 -87 14 -154 20 -67
6 -210 20 -317 30 -107 10 -231 20 -275 22 l-80 3 -17 38 c-21 45 -43 44 -43
-1 0 -23 -11 -41 -47 -77 -27 -26 -48 -55 -48 -64 0 -10 -10 -26 -21 -37 l-22
-19 7 30 c5 22 4 26 -4 15 -5 -8 -10 -27 -10 -43 0 -15 -4 -35 -10 -45 -5 -9
-12 -51 -15 -93 l-6 -77 -80 -83 c-74 -80 -79 -86 -78 -129 0 -65 22 -175 35
-175 6 0 27 15 48 33 l37 32 -12 85 -12 84 45 53 c60 71 68 88 68 150 0 89 14
119 95 203 41 44 75 83 75 88 0 5 6 4 14 -2 8 -7 65 -16 128 -21 62 -5 185
-16 273 -25 88 -8 211 -20 274 -26 143 -13 184 -26 253 -77 67 -49 108 -100
149 -183 18 -35 35 -66 39 -69 4 -3 10 -23 14 -45 4 -22 18 -70 32 -107 23
-59 30 -69 68 -87 23 -12 47 -21 54 -21 13 0 54 -129 78 -250 16 -82 16 -242
0 -280 -4 -8 -31 -25 -60 -38 -53 -23 -54 -25 -75 -92 -12 -38 -25 -86 -28
-107 -8 -55 -30 -94 -70 -129 l-35 -31 21 -40 c24 -47 47 -73 66 -73 13 0 8
38 -9 81 -5 10 -1 19 7 22 22 8 60 99 87 205 21 80 28 96 57 118 18 14 31 30
28 35 -4 5 -3 9 0 9 10 0 30 -23 44 -48 14 -27 51 -30 51 -4 0 10 -7 27 -15
38 -16 22 -20 74 -5 74 6 0 10 -6 10 -12 1 -9 4 -8 13 2 7 8 23 15 37 15 16 0
25 5 24 15 -3 30 -27 178 -49 300 -13 69 -26 141 -30 162 -7 45 -37 70 -162
134 -46 25 -89 128 -85 209 1 34 -4 82 -12 108 l-14 48 39 -41 c21 -22 39 -42
39 -45 0 -3 9 -24 19 -48 11 -23 34 -79 51 -125 29 -75 51 -105 66 -89 4 3 -1
28 -10 54 -9 27 -18 67 -20 89 -5 68 -34 110 -161 231 -160 155 -213 203 -219
203 -3 0 -31 18 -62 40 -32 22 -62 40 -69 40 -6 0 -28 -18 -49 -40 -27 -29
-44 -39 -59 -35 -32 6 -193 23 -430 45 -199 18 -211 21 -258 50 -54 33 -59 35
-59 20z m890 -83 c0 -4 -5 -5 -11 -2 -6 4 -21 -3 -34 -15 -36 -34 -52 -20 -21
18 24 27 30 30 47 19 10 -6 19 -15 19 -20z m-890 -6 c16 -30 12 -36 -10 -16
-21 19 -26 35 -10 35 5 0 14 -9 20 -19z m1321 -393 c22 -41 32 -91 18 -82 -4
2 -14 23 -22 47 -8 23 -18 50 -22 60 -14 34 5 16 26 -25z"/>
<path d="M3851 3334 c-2 -86 10 -100 177 -199 34 -20 102 -68 102 -71 0 -6
-54 20 -90 43 -19 13 -38 23 -42 23 -4 0 -27 14 -51 30 -50 34 -78 41 -56 14
18 -22 64 -50 184 -114 154 -81 230 -122 233 -125 2 -2 9 -51 17 -110 8 -59
21 -118 30 -132 9 -13 13 -28 10 -33 -8 -14 -68 -30 -136 -38 -58 -6 -63 -9
-62 -29 0 -13 1 -34 2 -48 1 -25 2 -25 59 -19 31 3 87 10 124 15 66 11 68 12
123 76 34 40 54 72 51 82 -3 9 -10 90 -16 181 -12 181 -20 270 -27 270 -2 0
-30 -28 -61 -62 -38 -40 -56 -68 -54 -82 3 -25 42 -252 48 -284 l5 -22 24 26
25 27 0 -30 c0 -17 -8 -38 -20 -48 -11 -10 -20 -31 -20 -47 0 -16 -5 -28 -13
-28 -14 0 -48 36 -41 43 5 5 -22 219 -32 251 -4 10 0 22 7 27 11 6 10 11 -4
27 -9 10 -20 32 -23 49 -4 22 -11 29 -23 27 -9 -3 -36 9 -61 26 -52 34 -47 39
10 10 43 -22 70 -26 70 -10 0 6 -6 10 -13 10 -8 0 -49 18 -93 39 -43 22 -136
67 -206 101 -109 52 -129 65 -134 88 -3 15 -10 41 -14 57 -8 29 -8 28 -9 -11z
m205 -186 l19 -21 -30 18 c-41 26 -40 25 -23 25 8 0 23 -10 34 -22z m142 -91
c103 -67 130 -97 55 -59 -34 18 -193 141 -168 131 6 -2 57 -35 113 -72z"/>
<path d="M4522 3288 c-7 -7 -12 -36 -12 -65 0 -44 5 -58 31 -88 18 -20 34 -33
37 -30 3 3 -5 16 -17 29 -22 24 -41 81 -40 121 1 11 6 -2 13 -30 l13 -50 4 63
c4 62 -4 75 -29 50z"/>
<path d="M4586 3282 c-3 -5 0 -41 6 -81 14 -93 34 -82 23 13 -6 62 -17 87 -29
68z"/>
<path d="M2474 3227 c-6 -7 -61 -57 -122 -112 -61 -55 -108 -103 -104 -106 4
-4 31 -9 60 -11 l54 -5 134 113 c134 113 134 113 102 118 -90 14 -114 14 -124
3z"/>
<path d="M2624 3185 c-19 -18 -76 -68 -128 -111 -52 -43 -93 -82 -90 -85 2 -3
45 -11 96 -18 51 -7 130 -19 176 -27 l83 -15 66 63 c36 35 79 76 94 92 l28 29
-25 20 c-52 41 -138 74 -203 79 -60 4 -65 3 -97 -27z"/>
<path d="M3405 3210 c3 -5 13 -10 21 -10 8 0 14 5 14 10 0 6 -9 10 -21 10 -11
0 -17 -4 -14 -10z"/>
<path d="M3502 3157 c-25 -27 -28 -37 -9 -37 14 0 57 41 57 53 0 15 -28 6 -48
-16z"/>
<path d="M1885 3150 c-3 -5 3 -10 14 -10 11 0 23 5 26 10 3 6 -3 10 -14 10
-11 0 -23 -4 -26 -10z"/>
<path d="M3563 3126 c-33 -33 -42 -56 -23 -56 17 0 82 69 75 80 -10 16 -18 12
-52 -24z"/>
<path d="M1591 3069 c-1 -56 -12 -67 -82 -79 -60 -10 -165 -49 -134 -49 24 0
160 32 197 47 33 13 43 46 30 93 l-10 34 -1 -46z"/>
<path d="M2954 3067 c-6 -7 -44 -42 -83 -79 l-72 -67 38 -7 c21 -3 80 -17 132
-30 107 -27 111 -28 111 -13 0 18 -71 173 -87 192 -19 20 -24 21 -39 4z"/>
<path d="M4593 3068 c-35 -12 -44 -28 -16 -28 24 0 83 23 83 32 0 10 -27 9
-67 -4z"/>
<path d="M3440 3057 c-14 -7 -26 -20 -28 -28 -6 -35 193 -215 336 -304 9 -5
22 -15 28 -21 40 -36 115 -72 160 -78 l51 -6 30 48 c35 56 42 46 -75 109 -122
66 -211 119 -222 132 -3 3 -12 11 -21 16 -9 6 -62 40 -116 78 -55 37 -104 67
-109 67 -5 0 -20 -6 -34 -13z"/>
<path d="M3621 3056 c-7 -8 -8 -17 -3 -20 6 -3 15 1 21 8 7 8 8 17 3 20 -6 3
-15 -1 -21 -8z"/>
<path d="M1320 2924 c0 -14 3 -14 15 -4 8 7 15 14 15 16 0 2 -7 4 -15 4 -8 0
-15 -7 -15 -16z"/>
<path d="M4184 2899 c-20 -22 -21 -68 -3 -126 10 -32 57 -79 67 -68 3 3 -3 12
-15 20 -18 13 -20 23 -18 105 1 49 -1 90 -5 90 -4 0 -15 -9 -26 -21z m16 -43
c0 -13 2 -39 5 -57 4 -25 3 -29 -3 -14 -14 32 -22 95 -11 95 5 0 9 -11 9 -24z"/>
<path d="M3395 2899 c-10 -15 4 -98 21 -131 8 -15 29 -35 47 -44 60 -31 262
-168 296 -201 19 -19 53 -42 75 -53 45 -21 82 -47 75 -54 -2 -2 -58 29 -124
70 -66 41 -127 77 -135 81 -8 4 -29 17 -46 30 -17 13 -36 23 -41 23 -6 0 -16
7 -24 16 -16 20 -69 47 -77 39 -13 -13 80 -82 218 -160 25 -14 59 -34 75 -45
17 -11 44 -27 60 -36 17 -10 46 -30 66 -46 l36 -29 7 -102 c5 -77 11 -105 23
-114 9 -7 19 -11 21 -8 8 7 -30 369 -40 381 -4 6 -6 19 -2 28 5 12 0 16 -17
16 -13 0 -55 15 -93 34 -324 156 -384 187 -390 202 -3 8 -6 35 -6 59 0 44 -12
65 -25 44z m190 -227 c-3 -3 -11 0 -18 7 -9 10 -8 11 6 5 10 -3 15 -9 12 -12z
m60 -27 c17 -14 26 -25 20 -25 -5 0 -23 11 -40 25 -16 13 -25 24 -20 24 6 0
24 -11 40 -24z m175 -114 c30 -17 78 -61 65 -61 -15 0 -111 63 -156 103 l-54
48 55 -35 c30 -20 71 -45 90 -55z m45 18 c39 -17 38 -16 31 -28 -4 -6 -31 5
-66 26 -89 52 -80 53 35 2z"/>
<path d="M4259 2893 c0 -5 0 -39 1 -78 1 -70 11 -98 29 -79 12 11 -8 164 -21
164 -4 0 -8 -3 -9 -7z"/>
<path d="M1825 2664 c-93 -80 -171 -149 -173 -155 -2 -5 -8 -9 -13 -9 -5 0
-38 -24 -73 -52 -35 -29 -117 -81 -182 -114 -66 -34 -182 -94 -259 -134 -77
-39 -156 -81 -175 -93 -29 -17 -129 -99 -190 -157 -48 -44 -113 -102 -185
-163 -44 -38 -84 -74 -90 -80 -5 -7 -41 -39 -79 -72 -38 -33 -85 -75 -105 -93
-20 -19 -51 -45 -69 -59 -36 -28 -38 -41 -18 -86 8 -18 32 -81 54 -142 22 -60
55 -144 72 -185 18 -41 40 -97 50 -124 11 -27 26 -56 35 -66 8 -9 15 -21 15
-27 0 -23 52 -54 130 -78 113 -34 154 -45 158 -40 6 5 -54 178 -77 224 -12 22
-21 47 -21 55 0 9 -16 20 -42 27 -53 14 -98 36 -98 49 0 5 -14 38 -30 73 -43
94 -41 106 31 141 l60 30 112 -13 112 -12 75 80 c41 44 147 159 235 257 88 97
172 186 187 197 16 12 28 25 28 30 0 17 -171 0 -245 -23 -77 -25 -251 -108
-303 -145 -105 -76 -324 -286 -355 -341 -11 -20 -44 -17 -78 7 -44 31 -39 61
23 117 29 26 77 71 108 100 30 29 62 59 70 66 37 33 271 185 325 211 33 15 74
35 90 43 17 9 37 18 45 22 68 30 133 68 141 82 7 13 185 136 322 221 23 15 97
74 258 204 156 128 429 356 427 358 -2 1 -32 5 -68 8 l-65 6 -170 -145z m-935
-959 c-10 -12 -10 -15 0 -15 22 0 -8 -27 -66 -60 -73 -41 -118 -83 -189 -178
-33 -44 -72 -88 -87 -96 -29 -18 -68 -21 -68 -7 0 11 194 202 260 256 25 20
56 46 70 58 21 19 78 55 89 57 2 0 -2 -7 -9 -15z m-585 -358 c11 -17 33 -38
48 -45 25 -12 27 -18 27 -70 -1 -53 -2 -56 -16 -37 -8 11 -18 33 -21 48 -3 16
-14 32 -24 35 -22 9 -71 80 -64 93 11 17 30 8 50 -24z m105 -248 c0 -6 -4 -7
-10 -4 -5 3 -10 11 -10 16 0 6 5 7 10 4 6 -3 10 -11 10 -16z m121 -72 c53 -14
79 -32 79 -56 0 -9 7 -25 15 -35 13 -17 13 -23 -1 -44 -12 -19 -13 -26 -3 -38
11 -14 4 -15 -56 -12 -66 3 -71 5 -92 37 -24 36 -30 71 -13 71 6 0 19 -14 28
-30 11 -19 30 -34 51 -40 19 -5 36 -8 37 -7 9 12 13 47 4 52 -5 3 -10 19 -10
34 0 24 -7 31 -57 54 -63 27 -55 33 18 14z"/>
<path d="M550 1395 c-11 -13 -10 -14 4 -9 9 3 16 10 16 15 0 13 -6 11 -20 -6z"/>
<path d="M2150 2780 c0 -6 -11 -15 -24 -21 -13 -6 -28 -19 -32 -29 -5 -10 -40
-44 -79 -76 -38 -32 -75 -63 -81 -69 -45 -41 -98 -88 -154 -135 -36 -30 -76
-66 -90 -80 -14 -14 -54 -50 -89 -80 -36 -30 -72 -62 -81 -70 -8 -8 -45 -40
-80 -70 -36 -30 -90 -78 -120 -107 l-55 -53 40 0 c52 0 264 -45 278 -59 17
-17 29 -13 67 20 19 17 64 56 100 87 35 31 82 73 105 92 22 19 45 40 50 46 6
6 57 50 115 99 58 49 115 98 128 109 12 12 30 28 40 37 9 9 69 60 132 115 63
54 132 114 152 133 21 18 47 41 59 49 19 13 19 16 6 24 -9 4 -58 13 -109 18
-51 5 -120 14 -153 20 -76 13 -125 13 -125 0z"/>
<path d="M1368 2744 c-7 -6 2 -38 26 -99 l16 -40 -5 57 c-7 78 -18 102 -37 82z"/>
<path d="M2509 2647 c-48 -45 -149 -140 -225 -212 -76 -71 -153 -143 -170
-160 -17 -16 -100 -95 -184 -175 -263 -249 -266 -252 -240 -300 6 -12 18 -46
26 -76 12 -48 12 -64 0 -123 -8 -38 -23 -86 -34 -108 -25 -47 -124 -170 -226
-278 l-75 -79 -21 27 c-26 32 -38 33 -91 7 -42 -22 -73 -20 -83 7 -4 10 21 42
80 102 137 136 244 265 244 294 0 8 9 40 21 73 12 35 18 71 14 88 -12 64 -84
122 -174 140 -36 6 -34 8 -131 -100 -19 -21 -98 -109 -174 -194 -77 -85 -164
-180 -193 -210 -29 -30 -53 -60 -53 -66 0 -7 24 -15 56 -19 48 -6 62 -13 98
-49 45 -44 76 -97 76 -127 0 -20 35 -43 50 -34 5 3 15 25 21 48 11 41 25 67
38 67 13 0 4 -139 -13 -205 -11 -38 -20 -71 -20 -72 -1 -1 -32 5 -70 13 -46 9
-73 11 -79 5 -7 -7 -1 -46 16 -113 15 -57 27 -119 27 -139 0 -35 1 -36 73 -63
39 -15 94 -36 122 -47 64 -26 164 -33 309 -24 l118 7 20 47 c29 67 65 101 105
101 47 0 91 21 139 67 46 44 246 228 316 292 41 37 99 112 134 172 6 10 18 27
27 37 10 10 17 22 17 25 0 4 24 47 54 95 64 103 72 140 80 361 l6 143 57 67
c31 36 93 104 137 150 63 66 71 77 36 50 -25 -19 -87 -74 -137 -123 -51 -49
-93 -85 -93 -79 0 5 7 31 16 57 13 39 44 76 153 188 75 77 138 144 140 150 3
9 -142 -111 -159 -132 -3 -3 -47 -41 -98 -83 -91 -78 -142 -133 -142 -156 0
-6 -11 -28 -24 -49 -13 -21 -25 -45 -27 -53 -13 -49 -183 -360 -217 -394 -21
-22 -105 -112 -187 -200 -81 -88 -176 -189 -210 -225 l-62 -65 19 -70 c33
-128 37 -166 19 -173 -9 -3 -20 -10 -24 -16 -6 -8 -10 -7 -14 2 -2 6 -11 12
-20 12 -10 0 -12 -6 -8 -21 5 -13 -1 -37 -15 -64 -22 -43 -23 -44 -89 -52
-139 -16 -198 -11 -306 30 -55 21 -121 45 -146 52 -36 12 -49 22 -62 51 -12
25 -15 40 -8 48 8 9 2 19 -19 35 -44 32 -39 45 13 36 23 -4 63 -8 89 -9 25 0
49 -4 53 -8 10 -9 -24 -25 -72 -33 -24 -4 -43 -9 -43 -11 0 -3 9 -23 20 -45
39 -75 158 -108 392 -109 l127 0 19 28 c20 27 20 27 -4 107 -13 44 -23 88 -24
98 0 11 -7 43 -15 72 l-16 53 -71 16 c-102 23 -153 21 -172 -6 -9 -12 -16 -33
-16 -45 0 -20 -5 -23 -31 -21 -20 2 -34 -3 -40 -15 -17 -29 -29 -19 -29 23 0
22 -7 57 -15 77 -22 51 -19 62 13 61 15 0 37 3 49 7 21 7 23 5 16 -25 l-6 -33
93 6 c72 5 100 11 121 26 16 12 32 21 37 21 11 0 106 94 222 221 52 56 109
117 125 134 48 51 174 184 262 278 46 50 99 119 121 160 22 40 54 99 73 132
93 171 116 209 148 253 14 17 31 32 38 32 7 0 13 5 13 10 0 13 99 112 243 244
59 54 107 102 107 106 0 9 -245 60 -290 60 -3 0 -44 -37 -91 -83z m-301 -777
c-6 -19 -743 -788 -755 -789 -7 -1 -13 2 -13 5 0 3 6 11 13 19 6 7 68 72 137
145 69 72 157 164 195 204 39 40 146 152 239 249 153 160 195 198 184 167z
m-824 -202 c-14 -24 -40 -58 -57 -75 -17 -18 -26 -33 -20 -33 7 0 15 5 19 11
4 8 9 8 17 0 7 -7 6 -16 -6 -29 -9 -10 -17 -22 -17 -27 0 -15 -43 -55 -59 -55
-9 -1 -54 -37 -99 -80 l-84 -79 7 -51 c4 -27 4 -50 1 -50 -3 0 -26 20 -50 45
-41 41 -43 45 -21 45 16 0 53 29 116 91 52 50 108 97 126 105 18 8 37 23 43
34 10 19 9 20 -14 14 -39 -9 -32 9 23 61 29 27 59 69 73 100 15 35 24 47 26
35 2 -10 -9 -38 -24 -62z m1086 -12 c0 -3 -4 -8 -10 -11 -5 -3 -10 -1 -10 4 0
6 5 11 10 11 6 0 10 -2 10 -4z m10 -93 c0 -10 -42 -53 -52 -53 -17 0 -7 29 14
44 24 17 38 20 38 9z m10 -63 c0 -6 -16 -18 -35 -27 -19 -9 -35 -25 -37 -36
-4 -24 -28 -36 -28 -13 0 27 22 64 44 74 28 14 56 15 56 2z m-1245 -609 c3 -5
1 -12 -5 -16 -5 -3 -10 1 -10 9 0 18 6 21 15 7z m120 -21 c0 -20 -30 -34 -51
-25 -18 8 -17 9 4 12 12 3 22 11 22 20 0 8 6 13 13 11 6 -3 12 -11 12 -18z
m-30 -70 c-3 -5 -12 -10 -20 -10 -8 0 -17 5 -20 10 -4 6 5 10 20 10 15 0 24
-4 20 -10z"/>
<path d="M4290 2670 c-14 -4 -43 -9 -65 -9 -42 -1 -74 -15 -63 -27 12 -11 150
14 167 30 13 14 13 16 1 15 -8 -1 -26 -5 -40 -9z"/>
<path d="M4029 2583 l-52 -78 18 -180 c10 -99 19 -181 20 -183 2 -2 13 13 25
33 12 19 26 33 31 29 15 -9 11 -22 -19 -56 -16 -18 -31 -41 -35 -50 -9 -24
-36 -23 -45 2 -7 20 -8 20 -42 -5 -19 -14 -47 -25 -63 -25 -49 0 -290 -31
-313 -40 -31 -12 -82 -96 -106 -173 -16 -54 -31 -79 -70 -119 -55 -56 -76 -58
-32 -2 16 20 35 47 42 60 18 34 71 204 63 204 -18 -1 -60 -62 -75 -110 -35
-112 -86 -199 -135 -233 -40 -28 -43 -32 -24 -35 22 -3 22 -4 -7 -28 -16 -14
-34 -23 -39 -19 -6 3 -29 -4 -51 -15 -34 -17 -47 -19 -73 -11 -18 6 -66 21
-107 34 -41 13 -101 32 -133 41 -83 25 -64 30 24 7 41 -10 111 -27 156 -36 79
-17 84 -17 103 0 18 16 18 18 2 41 -12 17 -27 23 -52 24 -19 0 -69 11 -110 24
-41 14 -110 34 -152 47 -70 20 -94 38 -70 53 10 6 176 -28 231 -48 59 -22 87
-21 94 4 4 16 -2 22 -36 30 -23 6 -60 17 -82 24 -67 24 -143 38 -156 30 -26
-16 28 51 101 125 14 15 50 55 80 90 94 110 118 129 134 102 4 -5 30 -17 60
-26 50 -16 55 -16 87 1 l34 17 -79 23 c-43 12 -83 27 -89 33 -17 17 18 13 116
-13 73 -20 89 -21 94 -10 8 22 -4 44 -25 44 -10 0 -46 10 -81 21 l-63 22 25
24 c24 24 24 25 77 9 30 -9 61 -16 69 -15 21 1 -58 38 -81 39 -22 0 -23 10 -3
36 8 10 15 22 15 27 0 14 -29 7 -42 -12 -12 -17 -118 -137 -178 -200 -14 -15
-45 -51 -70 -80 -25 -30 -55 -63 -66 -75 -12 -11 -67 -72 -123 -134 l-101
-114 0 -79 c0 -90 -6 -83 105 -115 28 -7 95 -28 150 -45 104 -32 215 -65 250
-74 15 -4 44 18 119 91 55 53 117 107 138 121 44 27 114 130 124 181 5 26 1
41 -16 64 -33 45 -22 55 67 63 43 4 152 18 241 30 l164 24 68 71 69 70 -10
158 c-6 86 -8 175 -5 197 6 53 -6 137 -21 142 -6 3 -35 -31 -64 -74z m-1223
-897 c132 -45 222 -69 237 -63 20 7 29 -3 17 -18 -11 -14 -59 -5 -185 34 -38
11 -92 27 -119 34 -50 14 -74 37 -39 37 11 0 51 -11 89 -24z m334 -160 c0 -2
-7 -7 -16 -10 -8 -3 -12 -2 -9 4 6 10 25 14 25 6z"/>
<path d="M1361 2634 c0 -11 3 -14 6 -6 3 7 2 16 -1 19 -3 4 -6 -2 -5 -13z"/>
<path d="M3221 2636 c-8 -9 -11 -19 -7 -23 9 -9 29 13 24 27 -2 8 -8 7 -17 -4z"/>
<path d="M2924 2588 c-11 -12 -47 -47 -80 -77 -68 -62 -297 -277 -360 -336
-39 -38 -69 -90 -207 -370 -57 -117 -8 -38 69 110 42 83 83 160 90 173 6 13
47 55 90 95 43 40 93 86 110 102 47 45 244 227 283 261 20 18 32 37 30 48 -4
16 -6 15 -25 -6z"/>
<path d="M1380 2532 c0 -10 45 -32 65 -32 23 0 17 16 -10 28 -30 14 -55 15
-55 4z"/>
<path d="M3763 2386 c-21 -21 -22 -26 -11 -90 8 -51 18 -75 40 -98 16 -17 32
-28 35 -24 4 3 -5 19 -20 34 -20 21 -29 44 -35 90 -5 35 -5 65 0 68 4 3 8 -16
9 -43 1 -86 18 -96 18 -10 1 42 1 80 2 84 1 15 -17 10 -38 -11z"/>
<path d="M3837 2383 c-10 -17 18 -167 32 -171 11 -4 13 10 7 79 -5 46 -10 87
-12 91 -7 10 -22 10 -27 1z"/>
<path d="M3885 2136 c-16 -8 -68 -16 -115 -20 -79 -6 -283 -43 -250 -45 8 -1
87 6 175 15 148 14 235 35 235 56 0 10 -8 9 -45 -6z"/>
<path d="M3440 2107 c0 -9 9 -21 20 -27 11 -6 20 -7 20 -2 0 5 -9 17 -20 27
-18 16 -20 16 -20 2z"/>
<path d="M3571 1844 c-13 -30 -21 -58 -17 -61 3 -3 8 0 11 8 40 111 44 146 6
53z"/>
<path d="M2660 1845 c-6 -8 -10 -20 -8 -26 2 -6 12 0 21 15 18 27 8 37 -13 11z"/>
<path d="M2236 1723 c-6 -14 -5 -15 5 -6 7 7 10 15 7 18 -3 3 -9 -2 -12 -12z"/>
<path d="M575 1241 c-5 -10 78 -38 150 -51 22 -4 77 -18 123 -30 83 -24 104
-22 86 7 -13 21 -72 38 -218 63 -137 23 -133 23 -141 11z"/>
<path d="M1744 658 c-12 -6 -29 -26 -38 -45 l-17 -36 28 18 c43 27 74 62 60
68 -7 2 -21 0 -33 -5z"/>
</g>
</svg>
