<svg xmlns="http://www.w3.org/2000/svg" width="682.667" height="682.667" version="1.0" viewBox="0 0 512 512">
    <g fill="#e5e5e5">
        <path d="M247.5 7.6c-11.1 4.1-16.2 5.3-29 6.9-12.7 1.5-16.2 2.3-21 4.9-1.6.9-4 1.6-5.2 1.6-3.6 0-13.6 4.2-30.8 12.9-8.8 4.5-16.3 8.1-16.7 8.1s-6.9 2.7-14.5 6.1C99.7 61.6 96.6 63.5 75.5 81.5c-6 5.2-18.7 15.9-28 23.8-25.2 21.3-33.8 32.8-35.4 47.3-.5 4.4-.9 9-.9 10.4 0 4.3 2.7 16.6 4.3 19.6.8 1.6 1.5 3.7 1.5 4.6 0 2.6 7.7 8.7 15.5 12.3 9.4 4.4 16.9 6.8 34.8 11.5 14.7 3.8 22.6 6.4 29.1 9.6 6.4 3.2 15.5 10 15.9 11.9.2 1.1 2.1 9.2 4 18 3.4 15.1 7.2 27.4 9.9 32 .6 1.1 4.3 7.6 8.1 14.5 9.7 17.6 16.5 28.8 20.2 33.5 1.7 2.2 6.2 8.9 9.9 14.8 3.7 6 10.4 15.7 14.8 21.5 8 10.5 14.8 22.2 14.8 25.3 0 .9 2.2 6 4.8 11.5 2.7 5.4 6.4 13.9 8.2 18.9 1.8 4.9 5.5 14.4 8.2 21 2.8 6.6 6 14.5 7.2 17.5 3.7 9.2 14.8 24.3 23.3 31.9 4.4 3.9 7.8 5.7 14.8 8.2 4.9 1.7 11.3 3.4 14 3.7 2.8.2 5.6.9 6.3 1.5.9.7 1.6.7 2.4-.1.6-.6 3-.9 5.8-.5 2.5.3 8.7 0 13.6-.6 10.1-1.3 18.1-4.8 28-12.4 8.6-6.6 24.4-24.8 28.4-32.7 1.3-2.5 3.5-6.3 5-8.5 1.4-2.2 3.4-6.3 4.4-9 1-2.8 3.1-7.7 4.7-11 2.7-5.8 7.6-22.8 10.6-37 .8-3.9 2.3-10.4 3.3-14.5 5.9-23.3 12-55.2 12-63.2 0-2.4.7-8 1.5-12.5s1.5-9.9 1.6-12c.2-7.4 3.1-26.9 5.4-36.9 1.3-5.6 2.7-12.5 3.1-15.3.6-5 .9-5.3 12-15.1 6.2-5.5 15.1-14.4 19.8-19.8 8.2-9.4 12.2-12.9 13.3-11.8 2.5 2.4 23.7-16.2 32.5-28.6 1.7-2.4 5.3-6.4 8-9l5-4.6-.4-16.4c-.4-14.4-.8-17.3-3.2-24.8-3-9.2-8.4-19.5-12.6-24.4-1.5-1.7-3.5-4.6-4.4-6.4-.9-1.7-1.8-3.2-1.9-3.2s-3.2-1.1-6.9-2.4c-6.3-2.3-17.9-9.3-19.4-11.7-.8-1.4-25.2-13.1-34.4-16.6-3.6-1.3-10.8-4.1-16-6.2-11.5-4.6-21-7.8-39.5-13.2-7.7-2.2-21-6.2-29.5-8.9s-16.8-5.2-18.5-5.5c-1.6-.4-5.2-1.2-8-2-6.5-1.9-21.6-3.4-38.5-4-12.7-.5-13.9-.4-20.5 2.1m47 6.5c4.4.1 8.3 1.1 14.5 3.6 15.2 6.2 27.2 10.2 45 14.8 11.3 2.9 25.8 7.8 41 13.6 21.8 8.5 25 10.1 43.9 21.7 11.2 6.8 22.2 13.2 24.5 14 2.5.9 7.2 4.6 12.3 9.5 7.9 7.7 8.2 8.3 11.7 18.2s3.6 10.4 3.6 25.3c0 10.7-.4 16.3-1.4 18.6-1.7 4-22.9 23.1-29.4 26.5-2.6 1.3-10.8 8.2-18.2 15.4-12.5 12-36.4 37.5-39.6 42.3-.8 1.2-3.2 10.7-5.4 21.1-3.4 16.4-4 21.4-4.5 36.4-.6 21.1-.8 22.6-5.1 45.7-6.2 33.8-11.5 53.5-21.8 80.4l-9.4 24.7-8.7 10.3c-12.5 14.9-19.9 21-33.5 27.6l-11.5 5.7-18.5-.1c-18.1 0-18.6-.1-24.3-2.8-4.6-2.2-7.8-5-15.5-13.6-8.7-9.8-9.9-11.6-12-18.2-1.2-4-7.7-18.6-14.3-32.5-9-18.9-13.1-28.8-16.3-39.6-2.4-7.9-5.2-15.7-6.2-17.3-1.1-1.6-6.3-8-11.7-14.4-13.7-15.9-19.9-24.9-36.2-52-13.7-22.7-16.5-28.9-16.5-36 0-6.8-5.1-23.5-10-32.5l-4.9-9-19.3-9.6c-16.3-8.2-21.1-10.1-30.8-12.4-12.5-2.9-35.3-11.5-38.5-14.6-1.2-1-3.6-6.6-5.5-12.4L18.6 162l1.8-7.7c2.6-11 6.4-18.1 15.5-29.7C48.2 109.1 57.5 102 96.5 78c13.1-8 22.2-12.9 26.5-14.2 6.5-2 33.6-13.3 35.5-14.8 2.8-2.2 24.1-12.2 32-14.9 5-1.7 9.9-3.5 11-4 5-2.3 18.6-6 24-6.5 3.3-.3 13.2-2.8 22-5.6l16-5 12.5.5c6.9.3 15.2.6 18.5.6"/>
        <path d="M274.5 29.7c-1.1.3-6.9 2-13 3.8-6 1.8-14.4 3.8-18.5 4.5-4.1.6-8.5 1.6-9.8 2.1s-3.4.9-4.8.9c-6.5 0-23.4 6.7-37.1 14.6-4.6 2.7-5.8 6-4.3 12.6.7 3 2.2 7.3 3.4 9.7 1.9 3.8 3 4.6 9.6 7.5 4.2 1.8 12.3 6.4 18 10.3 5.8 3.9 12.8 8.3 15.5 9.9 2.8 1.6 8.2 6.2 12.1 10.2 8.2 8.4 7.2 8.4 19.6.5 7.9-5 9.4-7.1 7.9-11.6-1.2-3.5-5.7-5.7-19.9-9.6-4-1.1-9.9-3.6-13.1-5.5-3.2-2-6.3-3.6-6.8-3.6s-2.8-1.4-5.1-3.2c-4-3.1-5.5-6.9-3.3-8.2.5-.4 5.8 1.2 11.8 3.3 15 5.4 20.1 6.6 23.6 5.2 6.1-2.4 1.7-7.3-13.5-14.9-5.6-2.8-14.7-6.4-20-7.9l-9.7-2.7 8.1-3.8c10-4.7 13.7-4.8 23.1-.7 6.5 2.9 7.7 3.1 15.6 2.7 6.5-.4 10-1.1 14.2-3.1 3.1-1.5 9.4-3.5 14-4.5 9.5-2.1 10.9-1.9 31.9 2.9 10.6 2.5 15.5 4.2 23 8.2 5.2 2.7 10.4 5.8 11.6 6.9 1.2 1 5.1 3 8.7 4.3 3.7 1.3 8.6 3.7 10.9 5.2 2.4 1.6 5.6 3.5 7.3 4.3 11.8 5.9 48.7 54.9 54.7 72.7 1.5 4.6 2.8 9.1 2.8 9.9s.6 2.4 1.3 3.7c.6 1.2 1.3 2.3 1.4 2.5.6 1.3 7.2-4 14.6-11.7 7.8-8.1 8.7-9.4 8.7-12.8 0-2.1.5-5.4 1.1-7.3 1.5-4.9 1.3-15.3-.5-23.3-1.3-6.3-4.9-15.2-6.5-16.1-1.9-1.2-6.1 4.7-6.1 8.6 0 1.8-.5 2.8-1.4 2.8-2.6 0-13-11.4-18.6-20.3-4.4-7.1-6.5-9.5-11.5-12.7-5.3-3.4-23.3-11.3-38-16.5-2.7-1-13.5-4.9-24-8.7-15.2-5.6-21.8-7.5-33-9.3-7.7-1.3-16.9-3.6-20.5-5-13.6-5.5-20.9-7.5-27.3-7.4-3.4.1-7.1.3-8.2.6"/>
        <path d="M295.5 58.5c-5.3 1.4-8.4 2.7-12.5 5-7.9 4.5-6.7 12.7 4.1 26.6l5.9 7.7-4.2 3.4-4.1 3.4 1.4 3.7c2.2 6.1 4.1 7.3 9.6 5.9 6.2-1.7 6.6-.8.5 1.2-12 4-27.7 17.2-36.5 30.9-3.6 5.5-3.8 6.1-2.6 9 1.6 4.2 6.8 12 8.5 13 .8.4 1.4 1.3 1.4 1.8 0 1.8-2-.1-8.1-7.8l-5.9-7.6v-8.3c0-6.4-.3-8.4-1.4-8.4-.8 0-1.6 1.5-2 3.7-.3 2.1-1 6.2-1.5 9.1-2.1 11.2 2.2 24 10.6 31.6 3 2.6 5.2 5 4.9 5.3-.8.9-5-2-10.3-7-2.9-2.8-5.6-4.8-5.9-4.4-1.3 1.3 3.1 6.6 19.2 23l17.1 17.4 8.8 2.8c7 2.2 9.9 3.7 13.5 7.1 4.1 3.8 5.3 4.4 9.6 4.5 5.9.2 16.4-4.2 23-9.7 2.4-1.9 8.1-5.5 12.7-8 7.6-4 8.7-5 11.6-10.2 1.8-3.1 4.1-7.2 5.2-8.9 1.3-2.1 1.8-4 1.4-5.4l-.7-2.1-2.5 2.4c-1.4 1.2-4.7 5.6-7.3 9.6-4.2 6.4-5.6 7.7-10.7 10.1-3.2 1.6-9.5 5.3-13.9 8.4-14.1 9.6-20.5 11.1-24.6 5.6-2.8-3.8-11.5-9.3-18.1-11.5-2.6-.9-4.7-1.7-4.5-1.9.4-.4 12.4 1.1 16.3 2.1 1.7.4 5.3 2.3 8 4.2 4.2 2.9 5.6 3.3 9.1 2.9 6-.6 13.9-4.6 24-12 11.3-8.3 12.5-9.5 16.3-16.5 1.8-3.1 4.6-7.5 6.4-9.7s4-5.2 5-6.5l1.7-2.5-.1 5c-.2 7.7-.3 7.6 2.6 6.3 1.4-.6 2.5-1.5 2.5-2 0-.4 1.3-3.7 3-7.1 3.6-7.7 5-19.2 3.1-25.9-1.5-5.4-.5-8.3 4.9-14.8 3.8-4.5 4-5.2 4-11.2 0-6.2-2.2-16.1-4.1-18.4-.5-.7-2.3-1.4-3.9-1.8-3.5-.6-6.3-3.4-10.3-9.9-1.7-2.8-4.5-5.6-7.5-7.3-2.6-1.4-5.7-3.6-6.9-4.7s-2.9-1.7-3.8-1.3c-1.4.5-1.3 1 .4 4.5 1.2 2.2 3.4 6 5.1 8.4 1.6 2.5 3 5.8 3 7.4 0 3.6-3.4 20.2-6 29.3-6.6 23.3-9.6 32.3-12.8 38.5-4 7.5-3.9 7.4-23.7 21-6.4 4.4-12.6 9-13.7 10.2-1.6 1.7-2.5 2-3.4 1.2-.7-.6-4.6-1.5-8.6-2.1-4-.5-7.5-1.1-7.7-1.4-.2-.2 1.4-3.2 3.6-6.6 2.1-3.5 4.2-7.1 4.6-8 .6-1.8 1.9-2.7 17.1-11.9 11.9-7.2 21.7-18.5 23.9-27.4 1.4-5.5 3.2-15.5 4.3-23 .2-1.7 1.1-5.9 2-9.5.8-3.6 1.9-9.7 2.4-13.6.4-3.8 1.3-8.7 1.9-10.9 1.7-6.1-1.5-17.3-3.5-12.1-.3.7-2 7.6-3.8 15.2-1.9 7.6-4.3 17-5.4 20.9-1 3.8-3.4 13.1-5.2 20.5s-3.7 14.4-4.3 15.4c-2.9 5.7-14.9 17.3-22.4 21.8l-6.3 3.7 1.4-3.2c.7-1.8 2.7-5.4 4.5-8.1 1.7-2.8 3.1-5.5 3.1-6 0-.6 3.2-4 7-7.6 6.5-6 7.1-6.9 8.5-13 2.1-8.8 6.2-22.4 8.6-28.4 1-2.7 1.9-5.9 1.9-7.2s.9-4.7 2.1-7.6c1.1-2.9 3.2-8.8 4.6-13 2.2-6.8 2.3-8 1.1-10.5-1-2.1-2.3-3-5.3-3.5-2.2-.3-6-1.1-8.5-1.6-15.7-3.4-24.4-3.9-32.5-1.7m-133.2 8.9c-3.9 1.9-10.5 5.7-14.6 8.5-8.5 5.8-22.8 12.7-40.2 19.5-15.7 6.1-18.5 7.5-33.4 17.5-17.9 11.9-24 17.7-29.5 27.8-5 9.1-6.5 13.3-4.7 13.3.6 0 1.1.9 1.1 1.9 0 2.5 1.9 3.1 9.8 3.1 6.9.1 14.7 1.5 26.7 4.8 15.8 4.4 39.7 7.2 62 7.2 9 0 11.9-.4 15.2-2 3.9-1.8 12.9-10.7 16.1-15.9.9-1.5 3.9-5.1 6.6-8.2 2.8-3 6.4-7.2 7.9-9.2 2.4-3.1 3.4-3.7 6.7-3.7 5.5 0 12.6-3.3 13.3-6.2.4-1.2.7-6.4.7-11.4 0-8.1-.3-9.7-3-15-2.4-4.9-4.1-6.6-9.7-10.4-8.7-5.7-9.8-7.1-12.4-15.5-1.2-3.9-2.7-7.6-3.2-8.3-1.7-2.2-8-1.3-15.4 2.2m240.1 44c-.3.8-.1 2.3.4 3.3 1.7 3.3 2.2 8.6 2.3 24.6.1 15.5.1 15.8-2.5 19.5-7.8 11-11.6 17.3-11.6 19.1 0 3.3 2.6 2.5 6.2-2 1.8-2.3 5.7-6.8 8.6-10 2.8-3.2 5.2-6.3 5.2-6.9 0-.5.5-1 1-1 .6 0 1 3.6 1 8.8 0 8.5-.2 9.2-4.5 17.8-2.5 4.9-5.4 10.5-6.5 12.4-1 1.9-2.1 5.2-2.3 7.3-.3 2.3-1.7 5.3-3.6 7.8-2.2 2.6-3 4.6-2.6 5.9 1 3 3.2 1.6 12.9-8.3 6.8-7 9.7-10.8 12.5-16.6l3.6-7.6-.3-13c-.5-17.9-3.4-37-6.1-39.9-1.2-1.2-2.8-4.4-3.6-7.2-1.7-5.7-7.1-15.4-8.6-15.4-.5 0-1.2.6-1.5 1.4"/>
        <path d="M214 134.1c0 .6 1.1 2 2.5 3.1s3 2.9 3.6 4.1c1.5 2.8 3.9 22 4.8 38.2 1 19.2 2.3 21.4 29.7 50.8 22.9 24.5 27 28.2 35.3 31.9 3.7 1.6 8.6 3.9 11.1 5.1 4.1 1.9 20 4.1 20 2.7 0-.3-2.1-1.1-4.6-1.8s-8.2-2.6-12.7-4.4c-7.2-2.7-9.2-4.1-15.8-10.7-4.1-4.2-9.5-10.5-11.9-14.1s-8.4-11-13.4-16.6c-29.3-32.4-28.2-30.9-29.5-42.1-1.5-13.7-3.7-26.3-5.4-32.4-1.3-4.5-2.6-6.3-7.1-10.2-5.7-4.9-6.6-5.4-6.6-3.6"/>
        <path d="M199.2 141.9c-1 .6-.9 1.7.2 4.8 2.7 7.7 3 14.6.8 18.9-1.1 2.1-2.9 4.7-4 5.8-2.1 1.8-2.1 1.8-2.9-1-1.3-4.9-.7-15.8 1.2-19.3 1.8-3.5 1-5.6-1.7-4.6-.8.3-2.1 1.7-2.8 2.9-.7 1.3-2.2 2.9-3.5 3.6-3.9 2.1-9.2 10.2-11.8 18-7.9 23.6-19.8 61.5-21.2 67.5-2.7 11.1-2.2 13.9 5.3 29.7 2.5 5.4 4.2 10.1 3.8 10.5-1.2 1.2-8.3-7.3-9.6-11.3-1.2-3.4-2.4-4.1-4.9-2.5-1.6 1-.9 3.4 4.3 15.4 10.3 23.6 18.3 33.9 36.5 46.2 9.4 6.3 10.3 6.7 13.3 5.9 3.2-.9 3.3-1.2 3.3-5.9 0-4.9 0-5 3-4.8 13.2.9 14 .8 20.6-2.4 7.4-3.7 14.6-10.7 21.4-20.8l4.6-7-.3-7.8c-.3-7.5-.5-8-3.8-11.1-1.9-1.7-4.6-3.9-5.8-4.8l-2.4-1.6 1.7-11c2.3-14.7 1.4-17.6-8.9-28.7-19.6-21.3-21.9-25.6-21.7-39.9.1-5.5.4-10.9.7-12.1.8-3.3-1.3-17.1-3.2-20.8-1.8-3.5-6.8-9.5-9.4-11.4-.9-.6-2.2-.8-2.8-.4M58.5 169.6c-12.2 2.5-21.6 4.9-24.2 6.3-3.2 1.5-4.3 3.1-2.3 3.1.6 0 1 1.1 1 2.5 0 3.1 1.1 3.2 12.7.3 11.5-2.8 25.7-2.8 41.1.2 9.7 1.9 13.7 2.1 27.5 1.7 19.2-.6 22.8-1.4 14.1-3.4-3.2-.8-10.4-1.8-15.9-2.3-14.3-1.2-32.3-4.6-37.5-6.9-4.2-1.9-11.2-2.5-16.5-1.5M93 186.7c0 .9 22 8.5 28.5 9.8 1.7.4 3.7 1.2 4.5 1.9s6.2 3.8 12 6.8c9.1 4.6 10.9 5.3 13.2 4.4 2.3-.8 2.6-1.4 2.1-3.5-.8-3.4-8.6-10.6-14.2-13.3-2.9-1.3-7.8-2.3-14.2-2.8-5.3-.4-10.1-1-10.6-1.3s-4.7-.8-9.4-1.1-9.3-.8-10.2-1.2c-.9-.3-1.7-.2-1.7.3m54.1 2c-1.5.6-1.9 1.2-1 1.2.8.1 2.8 1.9 4.5 4.1 1.6 2.1 3.5 4.2 4.2 4.4 1.6.7 4.3-.4 3.7-1.4-.3-.5.1-1.2.9-1.7 1.3-.7 2-3.1 1.7-6-.1-1.6-10.7-2.1-14-.6m230.3 42.7c-1.1.6-5.1 4.8-8.8 9.4-6.7 8.2-10.6 15.5-12.1 22.2-1.2 5.8-5.2 12.7-8.7 15.1-7.4 5.1-13.9 11.4-20.2 19.3-7.8 9.8-6.5 9.4-30.1 9.8-14 .2-15.2.3-17.8 2.5-1.6 1.3-3.2 2.3-3.7 2.3-.4 0-2.2 2.1-3.9 4.7-3.3 5-13.2 17-21.3 25.7-3.3 3.6-7.5 6.6-14.2 10-8.3 4.2-9.7 5.4-10.7 8.3-.8 2.6-.8 4.6.1 8.1 1.9 7.7 7.1 19.2 9.1 20.3 1.5.8 1.9 2.1 1.9 6.3 0 3.5.5 5.8 1.5 6.6.8.7 1.5 2.3 1.5 3.5 0 2.8 3.2 4.1 11.5 4.9 15.3 1.4 21.6 2.6 26.2 5 2.7 1.3 5.4 3 6 3.8 1.3 1.5 3.9 19.2 4.8 31.8.6 7.5 2.8 17 4.1 17 .3 0 1.8-.7 3.3-1.5 2.6-1.3 3-2.2 4-9.7.7-4.6 1.9-11.6 2.7-15.7.8-4 1.4-11.6 1.4-16.9 0-18.4 3.2-6.4 6.5 24.1.4 3.7 1.2 6 2.1 6.4.8.3 1.6.4 1.8.2.8-.8 3.6-27 4.2-39.5.6-12.4.6-13.4-1.5-16.7-1.1-1.9-2.1-4.1-2.1-4.9 0-1.4 8.6-6.8 10.9-6.8.6 0 1.4 1.2 1.7 2.6.6 2.1 1.1 2.5 3.2 1.9 5.1-1.3 8-4.7 10.2-11.8 1.2-3.8 4.3-11.4 7.1-16.9l4.9-10.1v9.4c0 10.9 1.2 13.9 4.5 11.5 1.9-1.4 2-2.7 2.1-24.3 0-12.5.4-24.4.8-26.5 1.3-6 8.6-11.4 8.6-6.2 0 1.7.1 1.7 3.6.4 2.5-1 2.6-1.4 2.1-5.3-.4-2.3-.9-5.2-1.1-6.4-1.4-6.6-1.7-23.5-.6-30.8 2-12.9 5.6-27.8 7.9-32.3 2.3-4.6 2.6-7.4 1.1-10.3-1.2-2.1-1.6-2.2-4.6-.5m-46.5 111.5c3.7 4.6 3.8 6.2 1 13.6-2.5 6.6-4 7.7-13.9 10-4.1 1-8.3 2.2-9.2 2.7-1 .4-5.9 2-11 3.3-32.6 8.8-32.2 8.8-38.9 4.6l-4.6-2.9.3-5.8c.5-11.4.7-11.7 9.4-17.3 4.3-2.8 8.8-5.1 9.9-5.1s3.1-.4 4.4-.9c1.4-.6 6.3-1.5 10.9-2.1 4.5-.6 8.8-1.5 9.3-2 1.2-1 5.7-1.4 19.7-1.8l9.6-.2z"/>
        <path d="M312 347c-3 .4-8.6 1.1-12.5 1.4-11.7 1.2-23.8 3.7-27.6 5.8-3.5 2-8.9 8.9-8.9 11.6 0 .7 2.6-.9 5.7-3.7 3.8-3.4 6.9-5.3 9.2-5.6 2-.4 5.4-1 7.6-1.5 3.4-.8 29.1-2.6 33.5-2.4.8 0 2.7.3 4.3.7 2.4.7 2.7.5 2.7-1.6 0-1.3-.8-3.1-1.8-4-2-1.8-3.3-1.9-12.2-.7m-19.8 16c-12.8.7-16.8 2-11.8 4 3.8 1.4 14.2 1.3 20.6-.4 3-.7 7.6-1.7 10.2-2 2.6-.4 5-1.1 5.3-1.7.7-1-4.8-1-24.3.1m-35.1-117.3c-1.4.9-3.7 3-5.1 4.7-2.6 2.9-2.7 3.1-1.3 6.5 1.4 3.5 6.9 10.1 8.4 10.1.4 0 3.6 1.7 7.1 3.9 18.6 11.3 41.8 20.2 41.8 16.1 0-.6-.3-1-.7-1-1.2 0-16.9-11.7-25.4-18.7-7.6-6.3-20.4-20-20.4-21.7s-2-1.7-4.4.1"/>
    </g>
</svg>
