<?xml version="1.0" standalone="no"?>
<!DOCTYPE svg PUBLIC "-//W3C//DTD SVG 20010904//EN"
 "http://www.w3.org/TR/2001/REC-SVG-20010904/DTD/svg10.dtd">
<svg version="1.0" xmlns="http://www.w3.org/2000/svg"
 width="512.000000pt" height="512.000000pt" viewBox="0 0 512.000000 512.000000"
 preserveAspectRatio="xMidYMid meet">
<metadata>
Created by potrace 1.16, written by Peter Selinger 2001-2019
</metadata>
<g transform="translate(0.000000,512.000000) scale(0.100000,-0.100000)"
fill="#f2f2f2" stroke="none">
<path d="M4047 4975 c-87 -35 -166 -70 -174 -77 -8 -7 -49 -52 -90 -100 l-74
-87 -10 -88 c-6 -48 -13 -90 -15 -92 -2 -3 -38 3 -79 13 -52 12 -114 17 -206
17 -121 0 -134 1 -146 19 -10 14 -26 20 -50 20 -29 0 -75 23 -205 100 l-169
100 -487 -90 c-268 -50 -494 -93 -503 -96 -10 -3 -52 -46 -94 -97 l-77 -92 6
-240 c3 -132 9 -312 12 -400 l6 -160 -35 35 c-35 35 -36 40 -132 450 -53 228
-99 425 -102 438 -3 14 -27 35 -69 58 l-63 35 -501 -50 c-561 -56 -523 -48
-619 -144 l-53 -55 52 -514 53 -513 68 -188 c37 -104 69 -190 71 -192 2 -1 44
-23 94 -48 l92 -46 27 -75 c15 -42 33 -80 40 -86 6 -5 36 -13 65 -17 l54 -8
44 -139 c38 -121 43 -147 37 -193 -6 -51 -8 -54 -54 -77 -26 -14 -52 -30 -58
-38 -6 -7 -17 -76 -26 -153 -13 -122 -13 -160 -1 -290 13 -147 14 -151 43
-177 l30 -27 -48 -256 -48 -257 -102 -102 -101 -102 -29 -106 c-33 -122 -32
-128 42 -171 24 -15 56 -43 72 -64 39 -53 54 -63 92 -63 27 0 38 -7 64 -42 17
-24 36 -46 42 -50 20 -11 227 38 250 60 108 95 184 155 224 176 48 24 119 92
143 136 8 14 10 42 7 70 l-6 47 39 12 c22 6 42 16 45 21 3 5 10 46 16 92 5 46
37 175 69 287 52 178 59 208 50 244 -7 31 -5 47 6 66 8 15 27 118 42 231 l28
205 50 67 c39 51 62 97 95 190 38 109 44 119 50 93 13 -57 9 -144 -7 -178 -12
-24 -13 -42 -7 -67 7 -27 -1 -96 -35 -295 -37 -219 -48 -264 -67 -285 -27 -30
-48 -90 -39 -113 3 -10 14 -17 24 -17 27 0 33 -16 17 -42 -8 -13 -47 -156 -86
-318 l-72 -296 -42 -19 c-35 -17 -48 -32 -78 -89 -35 -66 -40 -71 -110 -105
l-74 -36 -37 -90 c-35 -86 -37 -100 -21 -158 5 -21 211 -127 247 -127 16 0 34
-13 53 -36 28 -35 31 -36 113 -41 146 -9 189 8 346 137 73 60 164 125 201 144
38 19 74 40 80 48 21 26 44 119 42 163 -3 42 0 49 34 80 20 19 37 37 37 40 0
3 50 158 110 344 61 186 110 351 110 366 0 17 -10 40 -26 56 l-25 26 64 249
64 249 47 46 c51 52 55 71 26 129 -11 22 -20 43 -20 47 0 5 18 27 41 50 l40
42 43 215 43 215 47 55 c26 31 53 56 59 55 7 0 35 -32 62 -72 48 -68 53 -72
100 -81 28 -5 51 -10 53 -11 12 -10 41 -166 46 -245 l6 -95 -50 -89 c-49 -88
-60 -128 -39 -141 6 -4 -14 -32 -49 -68 -79 -84 -88 -99 -111 -197 -26 -111
-20 -121 81 -140 40 -7 105 -12 144 -11 l72 2 22 -36 c13 -21 41 -45 69 -59
44 -23 49 -23 116 -11 96 17 98 18 129 83 25 52 35 61 117 110 71 42 93 61
110 94 42 83 48 110 38 194 -8 73 -6 91 27 234 33 138 40 159 70 190 22 23 37
53 45 88 9 38 16 51 27 47 7 -3 27 -5 44 -5 l31 0 -7 -258 c-6 -236 -8 -263
-31 -336 -20 -61 -38 -94 -85 -150 l-59 -71 -3 -89 -3 -89 64 -55 64 -54 58 6
c48 6 65 3 98 -14 29 -14 60 -20 108 -20 59 0 74 -4 113 -30 25 -16 49 -30 53
-30 16 0 164 90 183 112 12 13 53 75 92 138 68 110 72 120 81 200 9 79 8 87
-11 113 -14 21 -17 32 -9 40 6 6 11 48 11 96 0 48 11 166 25 265 23 167 24
182 10 236 -11 44 -15 118 -15 303 l0 245 -87 113 c-47 63 -90 116 -94 119 -5
3 5 55 22 115 16 61 37 139 46 175 9 36 22 70 28 75 7 6 38 51 69 101 l57 91
19 364 c11 200 20 395 20 432 l0 68 -65 84 c-89 114 -84 112 -420 119 l-270 5
-158 -64z m679 0 c12 -8 25 -11 29 -7 5 4 5 2 2 -4 -4 -6 5 -22 19 -35 15 -13
47 -51 73 -84 l46 -60 -3 -360 c-2 -198 -6 -376 -9 -395 -3 -20 -28 -65 -57
-105 -75 -102 -88 -124 -82 -143 9 -27 -82 -353 -105 -378 -24 -25 -24 -34 -1
-34 10 0 26 -14 36 -32 11 -17 49 -66 86 -107 37 -42 71 -85 77 -96 8 -14 8
-84 1 -235 -7 -163 -7 -231 3 -282 11 -60 10 -75 -10 -152 -17 -68 -21 -115
-21 -236 0 -116 -4 -158 -15 -181 -15 -27 -14 -32 7 -68 21 -38 22 -39 6 -120
-12 -60 -28 -102 -59 -153 -61 -103 -99 -141 -174 -173 -64 -27 -66 -27 -108
-11 -24 9 -70 16 -103 16 -37 0 -68 6 -80 15 -12 9 -44 15 -89 15 -57 0 -80 6
-120 28 l-50 27 -3 80 -3 80 65 85 c48 65 70 105 91 168 l27 83 -11 232 c-6
128 -11 246 -11 264 0 29 -7 36 -68 73 -38 22 -78 40 -89 40 -24 0 -27 -7 -48
-98 -9 -36 -22 -74 -31 -83 -8 -9 -30 -98 -51 -210 -34 -181 -35 -199 -25
-271 10 -73 10 -81 -12 -130 -13 -29 -32 -60 -42 -69 -27 -23 -210 -129 -223
-129 -6 0 -17 -11 -26 -24 -8 -13 -32 -31 -53 -40 -37 -17 -39 -17 -82 8 -25
14 -53 39 -63 55 -10 17 -24 31 -30 32 -7 0 -43 2 -82 3 -40 1 -94 11 -125 23
-55 20 -55 20 -58 65 -3 41 0 48 34 78 21 18 62 61 91 96 53 62 54 63 38 88
-16 24 -15 27 24 92 23 37 41 73 41 78 0 6 7 56 15 110 19 128 19 167 -3 246
l-19 65 -64 22 c-35 13 -72 23 -81 23 -10 0 -29 18 -43 40 -23 36 -117 110
-140 110 -13 0 -228 -236 -237 -260 -4 -10 -21 -88 -38 -172 l-31 -153 -56
-50 -56 -51 24 -15 c13 -9 34 -19 47 -23 12 -4 22 -13 22 -20 0 -8 7 -19 15
-26 25 -21 17 -46 -24 -82 -39 -33 -39 -34 -91 -253 -90 -380 -84 -343 -66
-370 21 -32 21 -31 -20 -164 -19 -64 -46 -150 -59 -191 -12 -41 -42 -138 -65
-215 -36 -119 -47 -145 -75 -170 -32 -30 -33 -33 -29 -90 6 -79 -20 -126 -95
-171 -49 -30 -151 -109 -290 -226 -76 -64 -137 -77 -258 -52 -13 2 -30 18 -38
34 -12 24 -22 30 -49 30 -19 0 -75 21 -134 50 -119 58 -120 59 -69 165 32 66
37 72 96 100 50 24 67 38 83 70 36 69 59 96 103 115 36 15 43 24 53 61 7 24
45 179 86 344 68 272 73 301 59 317 -17 19 -10 69 13 89 8 6 12 19 9 28 -3 9
22 149 54 311 39 195 56 299 49 307 -6 8 -5 19 2 32 8 17 3 63 -26 214 l-38
192 -12 -75 c-7 -41 -34 -133 -62 -205 -27 -71 -52 -141 -55 -155 -4 -14 -36
-50 -71 -80 -76 -65 -78 -72 -97 -285 -7 -77 -20 -160 -29 -185 -10 -26 -15
-62 -13 -85 3 -28 -13 -103 -57 -255 -45 -161 -60 -228 -58 -265 3 -49 3 -50
-51 -89 l-53 -40 6 -46 c5 -41 3 -51 -25 -88 -18 -24 -52 -53 -79 -67 -32 -16
-74 -55 -133 -123 -94 -109 -100 -112 -213 -112 -57 0 -64 2 -86 30 -20 25
-33 30 -88 37 -65 8 -65 8 -87 54 -14 31 -31 50 -51 58 -17 7 -38 21 -48 32
-16 18 -16 23 0 101 l18 82 108 116 109 116 54 278 54 278 -33 34 c-29 28 -34
41 -34 78 0 25 -7 93 -16 151 -14 98 -14 115 1 208 23 140 21 136 79 162 46
20 53 28 69 71 16 46 16 55 1 134 -14 76 -63 236 -85 282 -5 9 -33 23 -61 32
-50 14 -56 20 -99 89 -46 72 -48 73 -135 111 -49 21 -95 43 -101 48 -7 6 -37
87 -67 182 l-55 171 -51 490 -51 490 57 51 c50 46 62 52 113 57 190 19 678 70
798 83 127 13 145 13 170 0 69 -38 69 -38 108 -251 40 -225 131 -629 149 -662
6 -12 29 -41 51 -65 22 -24 60 -67 84 -96 24 -29 50 -52 59 -50 16 3 17 31 3
628 l-7 305 23 35 c12 20 40 52 60 72 38 36 91 52 263 83 33 6 307 64 584 124
117 26 133 27 163 15 18 -8 33 -19 33 -24 0 -6 5 -10 11 -10 7 0 40 -18 75
-40 35 -22 65 -40 68 -40 2 0 30 -16 62 -35 32 -19 68 -35 80 -35 13 0 27 -8
33 -17 8 -16 26 -18 138 -18 118 0 262 -14 358 -35 22 -5 43 -6 48 -1 4 4 10
59 13 122 7 113 7 115 45 164 72 95 97 112 255 175 82 33 142 60 133 60 -9 0
-33 -7 -54 -16 -20 -8 -39 -13 -41 -11 -3 2 16 12 42 22 37 14 64 16 143 12
77 -5 232 0 386 11 11 1 30 -5 41 -13z"/>
<path d="M4275 4903 c-28 -6 -206 -86 -201 -90 2 -2 59 10 127 26 68 16 142
32 165 36 23 3 61 12 85 20 44 14 43 14 -56 13 -55 0 -109 -2 -120 -5z"/>
<path d="M4549 4905 c-3 -2 -61 -18 -130 -35 -227 -57 -300 -85 -320 -122 -6
-12 -32 -46 -56 -76 l-45 -55 7 -376 c4 -207 11 -380 16 -385 5 -6 16 -3 27 8
19 16 20 15 26 -41 4 -36 25 -100 56 -168 43 -98 52 -111 81 -121 48 -17 110
6 132 49 9 18 26 47 37 66 11 19 18 36 16 38 -2 2 -39 -8 -82 -22 -44 -13 -86
-25 -94 -25 -8 0 -34 20 -57 44 l-41 43 -12 448 c-7 268 -8 450 -3 454 5 3 26
37 47 74 21 38 47 72 59 77 30 12 304 87 347 94 19 4 49 13 65 21 l30 13 -51
1 c-28 1 -53 -1 -55 -4z"/>
<path d="M4670 4838 c-30 -11 -88 -28 -128 -38 -182 -48 -268 -80 -296 -109
l-29 -30 2 -133 c1 -73 3 -162 6 -198 2 -36 7 -171 11 -300 3 -129 7 -237 10
-239 10 -10 78 1 199 32 238 62 266 72 294 108 14 18 35 44 48 57 23 25 23 25
23 338 0 173 -3 314 -6 314 -4 0 -43 -31 -88 -68 -44 -37 -98 -81 -118 -96
l-38 -28 -1 -172 c-2 -295 -14 -330 -21 -63 -4 131 -4 245 -2 252 3 7 66 63
140 124 74 61 134 116 134 123 0 13 -67 136 -78 141 -4 2 -32 -5 -62 -15z
m-370 -220 c5 -26 26 -776 22 -782 -3 -5 3 -6 13 -2 10 3 59 18 109 32 50 14
131 39 180 55 61 21 92 27 99 20 7 -7 2 -13 -16 -21 -15 -5 -39 -15 -54 -21
-27 -10 -376 -99 -390 -99 -4 0 0 6 8 13 14 11 14 54 2 401 -11 316 -11 391
-1 398 13 7 28 11 28 6z"/>
<path d="M3895 4709 l-45 -61 0 -342 0 -343 24 -22 24 -23 6 54 c3 29 11 190
17 358 l11 305 44 54 c25 30 43 59 41 65 -2 6 -20 12 -40 14 -34 3 -39 -1 -82
-59z"/>
<path d="M2386 4519 c-384 -86 -454 -104 -480 -126 -17 -14 -33 -32 -36 -39
-6 -15 14 -781 28 -1072 9 -185 10 -195 33 -217 37 -35 263 -148 267 -133 2
10 26 13 85 13 71 1 101 7 222 47 220 74 292 99 265 93 -40 -9 -362 -93 -400
-105 -91 -27 -153 -7 -240 77 l-60 59 -31 548 c-32 545 -31 592 1 560 5 -5 23
-252 40 -549 27 -474 33 -542 48 -553 14 -11 18 -10 21 5 3 15 -10 241 -24
423 -7 86 -14 187 -20 290 -3 52 -8 115 -10 140 -2 25 -7 95 -11 155 l-6 110
44 75 44 75 322 71 c286 64 382 89 382 100 0 12 -21 54 -27 53 -5 0 -210 -45
-457 -100z"/>
<path d="M2605 4389 c-203 -55 -377 -103 -385 -106 -8 -3 -18 -5 -22 -5 -12 3
-20 -41 -15 -89 3 -39 4 -37 5 16 4 116 20 39 26 -125 13 -345 14 -408 6 -345
l-8 60 4 -65 c2 -36 4 -83 4 -105 -1 -101 30 -488 39 -499 6 -7 32 -23 59 -35
l49 -23 326 88 327 89 36 44 37 43 -17 392 c-18 399 -22 475 -28 482 -3 2 -67
-74 -144 -168 -76 -95 -151 -186 -166 -202 l-28 -29 -2 -186 -1 -186 -12 190
c-6 111 -7 198 -2 208 4 10 87 115 184 233 l176 216 -7 86 c-5 71 -11 90 -27
105 -12 9 -26 17 -33 16 -6 0 -177 -45 -381 -100z m-368 -831 c-3 -8 -6 -5 -6
6 -1 11 2 17 5 13 3 -3 4 -12 1 -19z"/>
<path d="M895 4391 c-220 -48 -411 -90 -425 -94 l-26 -6 8 -88 c4 -48 15 -137
24 -198 9 -60 31 -209 48 -330 l32 -220 38 -10 c31 -7 45 -5 75 10 33 18 36
24 42 75 3 30 9 64 13 75 5 14 -2 10 -23 -12 -17 -18 -33 -45 -36 -60 -13 -60
-24 -74 -53 -71 -27 3 -27 3 -25 78 2 47 -14 190 -42 383 -25 170 -43 313 -39
318 3 5 14 9 24 9 23 0 20 13 70 -334 22 -154 43 -282 45 -285 3 -2 15 5 28
16 88 79 263 142 400 143 68 0 175 -24 234 -52 54 -26 71 -19 79 34 l7 43 17
-50 c10 -30 24 -51 33 -53 22 -4 21 19 -4 133 -52 237 -128 619 -123 627 8 12
11 13 -421 -81z"/>
<path d="M640 4445 c-102 -12 -216 -27 -253 -33 -102 -16 -125 -44 -47 -57 34
-6 40 -11 40 -31 0 -29 -18 -31 -78 -10 -23 8 -43 12 -45 8 -3 -4 13 -171 34
-372 21 -201 41 -398 45 -438 4 -41 13 -80 21 -87 22 -23 92 -40 105 -27 8 8
0 112 -32 399 -23 213 -45 409 -50 436 -7 49 -3 53 39 47 11 -1 10 2 -3 15
-23 23 -20 52 7 68 20 13 235 61 390 88 37 6 67 13 67 15 0 7 -50 3 -240 -21z"/>
<path d="M3090 4421 c0 -15 5 -118 10 -227 6 -109 17 -338 24 -508 13 -280 21
-348 40 -318 4 6 -1 161 -9 344 -36 770 -33 738 -56 738 -5 0 -9 -13 -9 -29z"/>
<path d="M3291 4440 c-29 -5 -58 -13 -63 -18 -6 -6 -7 -30 -3 -60 l7 -50 31 9
c43 12 204 11 247 -1 19 -6 60 -15 90 -20 30 -5 65 -12 78 -16 21 -6 22 -4 22
55 0 59 -1 61 -33 75 -38 15 -203 37 -274 35 -26 -1 -72 -5 -102 -9z"/>
<path d="M3263 4279 c-23 -7 -33 -16 -33 -29 0 -25 3 -25 75 0 32 11 79 20
104 21 25 1 57 5 71 9 36 12 -177 10 -217 -1z"/>
<path d="M3575 4256 c93 -40 109 -55 119 -116 12 -69 -7 -105 -77 -148 -29
-18 -81 -50 -116 -72 -64 -40 -66 -40 -164 -40 -88 0 -98 -2 -95 -17 3 -15 17
-18 100 -21 l98 -3 49 38 c107 81 244 158 176 99 -16 -14 -50 -38 -75 -53 -25
-15 -63 -40 -85 -57 -37 -30 -45 -31 -155 -36 -135 -6 -135 -17 1 -21 l95 -3
94 60 c52 32 115 80 142 105 47 45 48 48 48 105 0 90 -10 134 -29 134 -10 0
-38 13 -64 29 -25 17 -63 33 -84 36 -33 5 -31 3 22 -19z"/>
<path d="M3793 4150 c0 -41 2 -58 4 -37 2 20 2 54 0 75 -2 20 -4 3 -4 -38z"/>
<path d="M3633 4103 c2 -46 1 -48 -47 -80 -60 -41 -47 -44 16 -4 57 36 60 41
52 90 -9 56 -23 52 -21 -6z"/>
<path d="M3595 4097 c-11 -41 -149 -111 -250 -127 -49 -7 -49 -8 -10 -9 90 -2
275 90 275 137 0 29 -8 28 -15 -1z"/>
<path d="M2193 4040 c0 -30 2 -43 4 -27 2 15 2 39 0 55 -2 15 -4 2 -4 -28z"/>
<path d="M3780 4017 c0 -25 4 -48 9 -51 8 -5 3 84 -5 93 -2 2 -4 -16 -4 -42z"/>
<path d="M3480 3975 c-14 -8 -19 -14 -10 -14 8 0 26 6 40 14 14 8 19 14 10 14
-8 0 -26 -6 -40 -14z"/>
<path d="M3247 3966 c-10 -25 -10 -25 61 -38 54 -10 66 -9 102 7 48 22 48 29
-2 13 -50 -15 -146 -2 -150 20 -3 15 -4 15 -11 -2z"/>
<path d="M2201 3893 c0 -35 2 -63 7 -63 4 0 6 21 4 48 -5 75 -10 82 -11 15z"/>
<path d="M3678 3884 c-14 -14 -8 -27 7 -14 11 9 22 9 46 1 18 -6 48 -11 68
-10 33 0 34 1 13 10 -34 13 -126 22 -134 13z"/>
<path d="M3566 3825 c-16 -12 -17 -15 -4 -15 8 0 21 7 28 15 16 19 1 19 -24 0z"/>
<path d="M3680 3826 c0 -8 12 -24 26 -35 35 -28 151 -30 195 -4 43 25 35 36
-8 13 -46 -24 -122 -26 -164 -4 -42 21 -31 28 14 9 20 -8 51 -15 69 -14 31 1
31 1 -12 13 -25 7 -55 18 -67 24 -29 16 -53 15 -53 -2z"/>
<path d="M4615 3747 c-57 -21 -60 -24 -66 -62 -13 -72 -77 -245 -104 -281 -15
-20 -39 -40 -54 -46 -14 -6 -50 -22 -78 -35 -29 -13 -66 -26 -83 -29 -28 -6
-30 -4 -30 23 0 35 16 53 47 53 13 0 23 4 23 9 0 15 -41 81 -50 81 -5 0 -18
-12 -30 -27 l-22 -28 -29 35 c-28 35 -38 57 -19 45 17 -11 11 11 -11 39 -23
29 -49 35 -49 10 0 -15 18 -55 29 -64 3 -3 19 -22 34 -42 15 -21 33 -38 38
-38 5 0 21 12 34 26 l24 25 12 -22 c9 -18 9 -24 -1 -27 -35 -12 -51 -43 -48
-93 l3 -51 57 6 c31 3 76 14 100 25 24 11 68 29 98 41 125 50 183 116 209 241
7 30 21 83 31 118 32 103 32 103 -65 68z"/>
<path d="M3370 3678 c0 -40 9 -113 19 -163 10 -49 22 -112 26 -138 7 -50 22
-65 53 -51 15 7 14 8 -5 11 -17 3 -24 14 -29 41 -3 20 -15 78 -26 127 -11 50
-20 125 -20 168 0 42 -4 77 -9 77 -5 0 -9 -33 -9 -72z"/>
<path d="M3466 3698 c-3 -29 -6 -110 -6 -180 0 -102 3 -130 16 -142 17 -17 61
-21 83 -7 10 6 3 9 -22 8 -20 0 -40 3 -44 7 -4 4 -8 88 -8 187 0 179 -7 225
-19 127z"/>
<path d="M1060 3731 c-19 -4 -72 -22 -117 -40 -124 -50 -191 -131 -195 -236
-2 -45 -7 -50 -50 -47 -21 2 -42 -24 -35 -42 3 -8 17 -22 32 -32 21 -14 28
-14 42 -3 15 12 16 12 10 -4 -4 -11 0 -23 11 -32 9 -7 37 -30 62 -51 25 -20
63 -45 85 -54 61 -26 232 -45 297 -33 l53 10 -60 2 c-33 1 -78 6 -100 10 -35
6 -28 8 50 13 126 9 188 26 182 49 -3 13 7 26 37 45 22 15 57 44 77 65 35 37
36 40 28 86 -10 53 -21 68 -42 60 -17 -6 -29 -73 -21 -114 5 -25 1 -34 -25
-56 -46 -39 -132 -67 -204 -67 -70 0 -175 23 -215 46 -15 8 -18 12 -7 8 43
-16 147 -16 217 2 57 13 79 25 113 58 57 55 75 95 78 170 2 55 -1 67 -27 100
-50 67 -181 108 -276 87z m175 -43 c25 -9 50 -28 71 -55 30 -40 32 -47 27
-100 -6 -62 -32 -115 -67 -138 -28 -18 -150 -28 -208 -17 -49 10 -120 60 -133
95 -3 9 -12 17 -20 17 -24 0 -35 69 -15 100 7 11 10 6 10 -21 0 -51 36 -99 98
-131 73 -36 138 -44 188 -22 l39 18 -91 7 c-50 4 -105 14 -122 23 -42 22 -72
67 -72 109 0 36 25 107 38 107 4 1 30 7 57 15 55 16 139 13 200 -7z m-279
-296 c-7 -7 -58 26 -78 52 -33 40 -18 38 32 -4 28 -24 49 -45 46 -48z m123
-48 c2 -2 -10 -4 -27 -4 -18 0 -32 5 -32 10 0 9 47 4 59 -6z"/>
<path d="M3952 3705 c-18 -19 -30 -23 -55 -19 -24 4 -28 3 -17 -5 25 -18 52
-12 82 16 33 32 33 34 52 -117 18 -136 31 -186 51 -194 13 -5 13 -2 0 24 -8
16 -22 82 -31 147 -23 175 -35 198 -82 148z"/>
<path d="M3544 3712 c-40 -26 -58 -166 -33 -243 15 -44 22 -51 42 -43 22 8 22
22 0 20 -21 -1 -30 34 -32 125 -1 75 14 129 36 129 15 0 15 -3 -2 -70 -4 -16
-1 -13 9 9 9 18 16 39 16 46 0 18 -24 35 -36 27z"/>
<path d="M3731 3697 c-6 -8 -11 -55 -12 -108 0 -52 -4 -113 -8 -135 -11 -57 4
-87 69 -135 70 -53 89 -60 178 -68 l73 -6 59 -140 c33 -77 60 -147 60 -156 0
-15 -29 -49 -43 -49 -4 0 -4 15 0 32 l6 33 -29 -19 c-16 -10 -39 -30 -51 -45
-11 -14 -24 -23 -27 -20 -3 3 19 31 50 61 l55 56 -41 81 c-22 45 -42 81 -45
81 -2 0 -16 -5 -30 -12 -30 -13 -31 -32 -7 -73 20 -34 47 -98 32 -75 -30 44
-110 185 -115 201 -4 10 -18 21 -33 24 -84 17 -160 59 -183 102 -11 20 -13 21
-35 6 -32 -21 -30 -29 14 -73 35 -35 87 -57 173 -74 20 -4 39 -30 93 -126 64
-115 67 -122 51 -140 -13 -15 -14 -23 -5 -39 15 -29 28 -26 68 12 31 29 34 30
29 10 -3 -16 -1 -23 9 -23 22 0 72 28 76 42 3 7 18 13 35 14 28 1 30 -1 27
-30 -1 -17 -3 -34 -3 -39 -1 -4 -12 -5 -26 -1 -28 7 -33 -7 -10 -26 8 -7 15
-19 15 -26 0 -24 -41 -15 -70 16 -28 30 -54 38 -64 21 -8 -13 48 -68 96 -92
40 -21 85 -22 130 -4 11 5 26 -2 43 -19 14 -14 32 -26 40 -26 9 0 15 -10 15
-24 0 -19 7 -26 31 -31 17 -4 33 -4 36 -2 3 3 8 35 10 70 l5 64 -86 12 c-88
12 -146 36 -146 59 0 10 11 8 38 -9 22 -13 71 -27 121 -35 45 -7 86 -15 89
-19 3 -3 5 -20 3 -38 -7 -99 -7 -102 17 -105 18 -3 22 1 22 25 0 15 3 58 6 94
l7 66 -64 11 c-35 6 -83 14 -106 18 -31 4 -50 14 -69 37 -18 21 -34 31 -48 29
-17 -3 -19 -1 -8 9 6 7 12 20 12 29 0 13 -125 280 -159 340 -5 9 -31 18 -66
22 -68 9 -161 54 -189 92 -17 22 -20 41 -18 133 1 83 5 111 17 119 12 9 11 13
-11 22 -34 16 -89 15 -103 -1z m307 -584 c-5 -26 -38 -29 -38 -4 0 15 6 21 21
21 14 0 19 -5 17 -17z m162 -73 c23 -44 24 -50 11 -50 -5 0 -14 12 -19 28 -5
15 -13 35 -17 45 -14 33 5 17 25 -23z m55 -263 c-11 -6 -21 -5 -28 2 -17 17
12 34 31 19 11 -10 10 -13 -3 -21z"/>
<path d="M4445 3693 c-7 -19 -98 -254 -110 -288 -6 -16 -5 -17 4 -9 10 10 131
295 131 310 0 12 -19 2 -25 -13z"/>
<path d="M3955 3659 c-4 -5 -21 -8 -38 -5 -32 6 -32 6 -5 -5 22 -8 32 -7 50 5
12 9 17 16 11 16 -7 0 -15 -5 -18 -11z"/>
<path d="M1430 3644 c0 -4 27 -42 60 -86 66 -86 73 -115 44 -183 -8 -21 -12
-41 -7 -44 18 -14 13 -40 -9 -43 -14 -2 -24 -12 -28 -27 -7 -29 -119 -96 -189
-112 -25 -6 -56 -18 -68 -25 -51 -32 -318 -7 -413 38 -25 12 -71 48 -103 79
-61 62 -87 67 -87 19 0 -109 91 -188 229 -198 146 -11 377 3 385 24 2 6 20 15
38 19 45 10 175 70 214 100 17 13 34 22 37 19 3 -3 22 18 41 48 36 53 36 54
25 113 -14 75 -45 154 -72 183 -30 33 -97 85 -97 76z"/>
<path d="M3981 3614 c0 -11 3 -14 6 -6 3 7 2 16 -1 19 -3 4 -6 -2 -5 -13z"/>
<path d="M370 3334 c0 -4 16 -57 36 -119 l36 -113 60 -22 c33 -12 62 -19 65
-16 8 8 -55 225 -73 254 -12 18 -23 22 -69 22 -30 0 -55 -3 -55 -6z"/>
<path d="M3267 3333 c-3 -5 -2 -15 2 -22 5 -7 11 -9 14 -4 3 5 2 15 -2 22 -5
7 -11 9 -14 4z"/>
<path d="M1780 3293 c0 -16 -3 -38 -6 -51 -5 -18 -3 -21 10 -16 11 4 16 1 16
-10 0 -9 4 -16 8 -16 5 0 4 27 -1 60 -10 61 -27 82 -27 33z"/>
<path d="M3199 3261 c-22 -18 -22 -20 -6 -26 20 -8 23 -25 3 -25 -7 0 -19 -6
-25 -14 -18 -21 21 -41 49 -26 16 9 20 8 20 -5 0 -8 -3 -15 -7 -15 -5 0 -14
-4 -21 -9 -11 -7 -11 -15 2 -45 18 -43 3 -49 -19 -6 -17 34 -23 36 -49 17 -33
-24 -12 -72 52 -120 69 -51 104 -63 252 -82 l114 -16 63 -61 c50 -48 68 -59
86 -54 12 3 27 6 34 6 12 0 60 80 69 115 5 19 -1 25 -35 39 -23 9 -48 16 -55
16 -8 0 -20 10 -29 23 -10 15 -47 33 -116 57 l-102 35 -39 -23 -40 -22 -40 20
c-23 11 -38 25 -35 29 3 5 -3 7 -14 4 -29 -7 -61 41 -61 93 0 23 -5 46 -10 49
-8 5 -7 11 1 21 12 15 6 44 -10 44 -5 0 -19 -9 -32 -19z m86 -231 c21 -23 4
-27 -19 -4 -18 17 -20 24 -8 24 5 0 17 -9 27 -20z m303 -17 c62 -22 88 -37
102 -57 14 -22 27 -29 60 -31 23 -2 47 -8 51 -12 13 -13 -44 -117 -65 -121 -9
-2 -16 3 -16 13 0 9 -24 40 -52 70 l-53 55 -105 19 c-115 21 -192 45 -110 34
25 -3 78 -11 118 -18 62 -10 75 -9 79 2 8 20 3 22 -85 35 -84 12 -95 19 -64
38 21 12 34 10 140 -27z m-238 -19 c0 -2 -7 -4 -15 -4 -8 0 -15 4 -15 10 0 5
7 7 15 4 8 -4 15 -8 15 -10z"/>
<path d="M4560 3249 l-25 -21 27 -22 c15 -11 52 -39 82 -61 47 -34 56 -45 56
-72 0 -29 -3 -33 -26 -33 -14 0 -45 14 -69 30 -24 17 -48 30 -53 30 -4 0 -19
11 -32 25 -26 28 -61 32 -80 10 -18 -22 -36 -18 -59 13 -26 34 -28 8 -3 -30
l18 -27 43 22 c37 19 44 20 54 7 16 -20 166 -120 180 -120 7 0 29 -5 50 -11
33 -9 37 -14 38 -42 0 -18 4 -41 9 -52 6 -13 9 21 9 94 l1 114 -34 42 c-35 42
-136 125 -152 125 -5 -1 -20 -10 -34 -21z"/>
<path d="M3540 3219 c0 -8 10 -25 23 -36 31 -28 97 -66 97 -56 0 4 -21 19 -46
32 -25 14 -51 36 -59 50 -9 16 -14 20 -15 10z"/>
<path d="M3311 3215 c0 -5 6 -37 14 -70 14 -58 14 -59 9 -11 -5 44 -22 106
-23 81z"/>
<path d="M3453 3202 c9 -8 23 -12 31 -9 26 10 18 22 -15 23 -27 1 -29 0 -16
-14z"/>
<path d="M4521 3164 c38 -40 117 -90 126 -80 4 3 1 6 -5 6 -6 0 -40 25 -76 55
-74 63 -97 72 -45 19z"/>
<path d="M3134 3159 c-3 -6 0 -15 7 -20 22 -14 29 -11 29 11 0 21 -24 27 -36
9z"/>
<path d="M4270 3124 c0 -55 42 -155 48 -114 2 13 1 44 -3 69 -6 37 -9 42 -16
26 -6 -15 -8 -9 -8 23 -1 23 -5 42 -11 42 -5 0 -10 -21 -10 -46z"/>
<path d="M3451 3157 c2 -2 36 -20 74 -41 39 -20 61 -29 50 -20 -22 17 -110 64
-121 64 -4 0 -5 -1 -3 -3z"/>
<path d="M3051 3136 c-9 -10 -9 -16 -1 -21 17 -10 37 12 24 25 -8 8 -15 6 -23
-4z"/>
<path d="M4464 3090 c15 -5 36 -15 45 -22 9 -7 6 -3 -7 10 -13 12 -33 22 -45
21 -18 -1 -17 -2 7 -9z"/>
<path d="M1357 3073 c-15 -14 -6 -24 20 -21 14 2 28 9 29 16 1 7 0 8 -3 2 -2
-5 -14 -10 -24 -10 -11 0 -17 5 -14 10 7 11 2 13 -8 3z"/>
<path d="M1700 3071 c0 -9 20 -23 129 -89 13 -8 21 -9 21 -2 0 5 -27 30 -61
55 -59 43 -89 55 -89 36z"/>
<path d="M3090 3069 c0 -9 11 -33 25 -53 30 -45 31 -52 4 -66 -18 -10 -26 -6
-62 32 -23 24 -47 52 -53 63 -17 28 -37 7 -28 -29 10 -43 128 -115 288 -175
106 -41 147 -52 173 -48 43 7 63 0 63 -24 0 -26 35 -25 77 4 18 12 33 25 33
29 0 3 -18 21 -40 38 -33 26 -52 33 -103 37 -138 10 -304 90 -353 169 -13 22
-24 32 -24 23z m96 -120 c3 -6 -1 -18 -9 -27 -13 -13 -19 -13 -32 -2 -12 10
-13 16 -4 26 14 17 35 18 45 3z m59 -49 c0 -8 -10 -16 -22 -18 -22 -3 -32 16
-16 32 12 11 38 2 38 -14z"/>
<path d="M3650 3064 c8 -4 34 -15 58 -25 23 -10 40 -14 36 -8 -3 6 -17 14 -30
20 -28 10 -87 22 -64 13z"/>
<path d="M1235 3050 c-3 -5 -1 -10 4 -10 6 0 11 5 11 10 0 6 -2 10 -4 10 -3 0
-8 -4 -11 -10z"/>
<path d="M830 3035 c0 -4 7 -19 15 -35 10 -19 20 -27 30 -24 20 8 19 20 -5 44
-19 19 -40 27 -40 15z"/>
<path d="M1415 3009 c-57 -21 -46 -25 21 -8 24 6 44 15 44 20 0 11 -3 11 -65
-12z"/>
<path d="M722 2989 c-24 -11 -46 -27 -48 -34 -8 -20 56 -115 83 -126 15 -5 42
-2 80 9 46 14 59 23 61 40 3 20 -1 22 -37 22 -45 0 -56 9 -38 35 11 14 9 21
-14 46 -31 34 -31 34 -87 8z m70 -69 c12 -21 13 -32 6 -36 -13 -8 -61 43 -53
57 11 17 30 9 47 -21z"/>
<path d="M950 3001 c0 -11 26 -22 34 -14 3 3 3 10 0 14 -7 12 -34 11 -34 0z"/>
<path d="M1046 2994 c-8 -22 -9 -22 18 -39 20 -13 37 -14 107 -6 104 13 159
28 159 45 0 10 -23 13 -92 12 -51 -1 -99 -5 -106 -10 -8 -5 -18 -4 -25 3 -16
16 -54 13 -61 -5z"/>
<path d="M4561 2919 c-25 -30 -29 -39 -17 -39 15 0 38 20 74 64 11 14 10 16
-5 15 -10 0 -33 -18 -52 -40z"/>
<path d="M4698 2938 c7 -7 12 -30 13 -52 1 -23 4 -52 8 -66 6 -19 9 -10 14 39
7 67 -1 91 -31 91 -12 0 -13 -3 -4 -12z"/>
<path d="M4660 2919 c0 -12 -14 -34 -31 -50 -17 -16 -29 -34 -27 -40 7 -21 78
56 78 85 0 14 -4 26 -10 26 -5 0 -10 -9 -10 -21z"/>
<path d="M2774 2887 c-35 -24 -95 -90 -112 -123 -26 -50 -84 -218 -112 -327
-36 -140 -41 -152 -81 -172 -40 -21 -37 -56 7 -69 23 -7 34 -18 42 -42 9 -31
9 -32 -24 -39 -31 -5 -36 -12 -33 -42 0 -5 -10 -10 -22 -13 -24 -6 -53 -42
-64 -77 -5 -19 -2 -23 15 -23 23 0 22 -11 -11 -115 -19 -60 -51 -198 -71 -308
-12 -68 -34 -72 -32 -6 l2 44 -11 -34 c-9 -27 -7 -39 8 -67 10 -19 21 -34 24
-34 4 0 24 78 45 173 21 94 46 199 56 232 31 104 33 122 14 133 -14 8 -15 12
-3 37 16 32 39 45 39 21 0 -9 7 -16 16 -16 10 0 14 -6 10 -17 -3 -10 -28 -112
-56 -228 -28 -115 -57 -236 -65 -268 -18 -71 -18 -77 -2 -77 36 1 40 11 132
400 57 243 51 228 85 235 44 10 45 21 6 56 -20 17 -36 36 -36 41 0 13 -41 47
-57 48 -23 0 -14 17 22 41 41 29 49 45 90 203 45 167 91 294 123 334 52 66 94
122 90 121 -1 0 -17 -10 -34 -22z m-254 -817 c0 -5 -7 -10 -15 -10 -8 0 -15 5
-15 10 0 6 7 10 15 10 8 0 15 -4 15 -10z"/>
<path d="M2622 2883 c-45 -9 -87 -65 -111 -149 -45 -157 -94 -310 -113 -346
-11 -23 -28 -40 -43 -44 -14 -3 -25 -11 -25 -16 0 -15 52 0 73 21 20 20 66
148 103 291 35 134 66 194 117 225 42 25 42 26 -1 18z"/>
<path d="M996 2857 c-3 -13 -17 -29 -31 -37 -14 -7 -21 -16 -16 -19 5 -3 12
-65 15 -136 4 -84 3 -123 -3 -110 -5 11 -10 41 -10 66 -1 26 -4 61 -7 78 -6
26 -11 31 -35 31 -16 0 -29 -2 -29 -5 0 -2 14 -57 31 -122 17 -65 31 -129 31
-143 -1 -39 19 -56 71 -64 43 -7 47 -6 47 14 0 12 4 19 9 16 14 -9 16 7 13 78
-3 61 -5 64 -22 53 -11 -6 -22 -9 -25 -5 -3 3 -13 48 -21 99 -8 51 -17 96 -20
100 -2 5 5 34 16 66 24 68 23 63 6 63 -8 0 -16 -10 -20 -23z"/>
<path d="M1552 2852 l-42 -27 6 -85 c4 -46 17 -116 30 -154 23 -67 31 -155 18
-202 -6 -24 -56 -53 -53 -31 5 40 -26 56 -109 58 -53 1 -54 2 -22 10 19 4 47
11 62 15 19 4 37 1 54 -11 32 -21 47 -9 42 31 -2 21 -9 30 -25 32 -29 4 -31
38 -3 47 25 8 25 19 -1 74 -16 36 -18 56 -13 102 6 58 0 109 -14 109 -9 0 -2
-192 8 -205 4 -5 10 -22 14 -36 5 -25 -6 -39 -33 -39 -13 0 -33 142 -22 149 6
4 8 30 4 64 -5 45 -9 57 -23 57 -10 0 -20 6 -23 14 -3 8 -23 19 -43 25 -38 11
-63 6 -28 -4 44 -14 48 -22 60 -106 7 -46 12 -105 12 -131 0 -25 3 -55 6 -66
5 -15 -9 -34 -69 -87 -41 -37 -72 -71 -70 -76 3 -5 19 -6 35 -3 27 6 164 -39
175 -57 9 -14 -23 -17 -46 -4 -54 31 -76 37 -130 32 -44 -4 -61 -1 -73 11 -15
15 -13 19 25 54 23 21 39 41 35 45 -4 4 -28 -14 -53 -39 l-46 -47 23 -24 c21
-22 29 -24 91 -19 56 4 73 1 107 -18 l40 -22 56 21 c80 30 138 60 161 84 16
18 21 38 23 114 l4 93 -47 69 c-41 61 -48 77 -53 139 l-7 71 -43 -27z m35 -54
c-3 -8 -6 -5 -6 6 -1 11 2 17 5 13 3 -3 4 -12 1 -19z m13 -60 c6 -24 27 -66
46 -95 22 -31 34 -61 32 -75 -2 -19 -10 -11 -39 43 -20 36 -40 81 -44 100 -3
19 -9 42 -11 52 -3 9 -3 17 0 17 3 0 10 -19 16 -42z m-80 -285 c0 -7 -6 -13
-12 -13 -20 1 -51 28 -44 38 8 13 56 -9 56 -25z"/>
<path d="M1102 2846 c-18 -23 -19 -32 -10 -58 10 -29 9 -33 -16 -53 -20 -16
-27 -29 -23 -46 4 -23 4 -23 6 -1 2 33 19 27 25 -10 3 -18 11 -62 17 -98 12
-66 14 -140 4 -170 -4 -12 1 -19 16 -23 11 -3 18 -10 14 -16 -3 -6 -2 -11 4
-11 14 0 40 51 38 75 -1 12 5 21 17 23 14 3 17 0 13 -12 -8 -21 -6 -21 51 15
l49 30 -29 100 c-16 55 -26 104 -23 109 3 6 15 10 27 10 14 0 18 5 14 16 -3 9
-6 17 -6 20 0 2 -6 1 -14 -2 -8 -3 -17 -1 -21 5 -3 6 0 14 8 17 23 9 9 43 -15
36 -18 -4 -19 -10 -14 -61 4 -31 9 -76 11 -101 4 -34 1 -51 -14 -70 l-19 -24
-15 54 c-8 30 -28 104 -44 164 l-30 108 -21 -26z"/>
<path d="M1630 2842 c0 -36 40 -149 57 -163 15 -12 16 -12 8 6 -20 49 -45 130
-45 146 0 10 -4 21 -10 24 -5 3 -10 -3 -10 -13z"/>
<path d="M1896 2845 c-11 -30 -7 -34 84 -61 73 -22 90 -31 90 -46 0 -20 -3
-20 -115 -4 -11 1 -12 -42 -1 -154 30 -340 32 -370 23 -379 -10 -10 79 -70
151 -101 47 -21 57 -22 95 -11 61 18 87 38 87 66 0 14 5 25 10 25 6 0 10 -15
10 -32 0 -45 15 -68 23 -36 12 41 8 53 -32 95 -44 48 -45 55 -56 363 -8 199
-10 209 -43 215 -15 3 -79 19 -142 35 -168 44 -176 45 -184 25z m275 -128 c0
-21 -20 -40 -35 -34 -10 4 -15 11 -12 16 3 5 -4 11 -17 15 -16 4 -19 8 -9 15
15 9 73 0 73 -12z m35 -278 c14 -204 16 -215 39 -239 31 -32 31 -45 1 -65 -41
-27 -53 -12 -60 73 -17 216 -27 434 -22 449 17 43 29 -21 42 -218z"/>
<path d="M2245 2850 l-40 -7 40 -1 c22 -1 47 3 55 8 18 12 10 12 -55 0z"/>
<path d="M1235 2840 c-3 -5 1 -10 10 -10 9 0 13 5 10 10 -3 6 -8 10 -10 10 -2
0 -7 -4 -10 -10z"/>
<path d="M1340 2789 c0 -22 41 -141 47 -135 6 6 -27 128 -38 141 -6 5 -9 3 -9
-6z"/>
<path d="M3841 2755 c-18 -25 -27 -45 -20 -45 8 0 8 -4 2 -12 -6 -7 -13 -37
-17 -66 -4 -29 -20 -80 -37 -112 -17 -33 -46 -121 -65 -196 -19 -75 -44 -159
-56 -188 -25 -60 -26 -61 -34 -53 -3 3 3 30 14 59 11 29 32 107 47 173 15 67
43 153 63 195 19 41 37 94 40 118 l5 43 -44 -3 c-24 -2 -42 -5 -40 -8 11 -13
-21 -48 -49 -53 l-30 -6 -1 -103 c0 -72 -8 -140 -27 -228 -24 -112 -29 -125
-50 -128 -27 -4 -26 -11 -2 129 16 97 24 198 21 272 -1 9 -8 17 -16 17 -12 0
-15 -15 -15 -76 0 -141 -32 -334 -55 -334 -2 0 -22 7 -44 16 l-39 16 19 54
c18 54 39 213 39 298 0 36 -4 45 -25 54 -14 7 -28 12 -30 12 -3 0 -4 -24 -4
-52 2 -102 -14 -233 -37 -302 -13 -38 -24 -75 -24 -81 0 -7 42 -28 93 -48 l92
-35 -3 -40 c-3 -32 1 -43 17 -51 37 -20 60 -13 86 30 15 23 40 46 59 54 46 19
51 29 71 130 21 113 61 269 75 295 6 10 28 40 50 65 22 25 42 56 44 68 15 71
14 83 -10 125 -14 23 -26 42 -28 42 -1 0 -17 -20 -35 -45z"/>
<path d="M4590 2758 c0 -16 5 -28 10 -28 13 0 13 20 0 40 -8 12 -10 9 -10 -12z"/>
<path d="M4756 2704 c-9 -24 -7 -54 4 -54 6 0 10 16 10 35 0 38 -4 44 -14 19z"/>
<path d="M2536 2614 c-10 -41 -16 -77 -14 -80 3 -2 12 30 22 72 10 41 16 77
14 80 -3 2 -12 -30 -22 -72z"/>
<path d="M4255 2654 c-8 -20 -15 -44 -14 -53 0 -10 4 -6 10 9 6 14 22 37 36
53 26 26 26 27 5 27 -16 0 -26 -10 -37 -36z"/>
<path d="M1062 2625 c0 -16 2 -22 5 -12 2 9 2 23 0 30 -3 6 -5 -1 -5 -18z"/>
<path d="M4690 2624 c-19 -14 -54 -35 -77 -46 -50 -22 -49 -15 -27 -181 17
-129 15 -320 -5 -367 -7 -18 -10 26 -10 165 -1 105 -6 227 -12 272 -9 64 -9
86 0 97 13 16 7 19 -61 31 l-38 6 0 -41 c0 -22 4 -40 9 -40 25 0 51 -219 51
-431 0 -139 -6 -169 -32 -169 -4 0 -15 14 -24 32 -13 26 -16 49 -11 118 7 89
-7 424 -19 453 -7 20 -34 23 -34 4 0 -7 7 -67 16 -132 16 -121 14 -322 -4
-390 -7 -27 -13 -30 -51 -33 -41 -3 -43 -2 -37 20 3 13 14 67 23 121 16 94 16
108 -2 270 -10 95 -19 187 -19 204 0 27 -2 30 -14 21 -7 -7 -12 -22 -9 -35 2
-13 -2 -31 -9 -40 -13 -17 -15 -17 -30 2 -15 18 -16 6 -8 -160 12 -248 11
-272 -11 -339 -26 -83 -19 -91 86 -93 46 -1 92 -2 101 -2 10 -1 35 -17 57 -36
21 -19 48 -35 60 -35 13 0 44 22 76 55 30 30 59 55 65 55 25 0 43 77 47 205 3
124 27 357 39 388 3 9 -7 29 -23 47 l-28 31 -35 -27z m-10 -116 c-9 -24 -9
-59 -2 -128 13 -139 15 -326 2 -350 -20 -37 -25 -20 -20 67 3 47 1 155 -3 239
-7 132 -6 157 8 184 21 40 31 32 15 -12z"/>
<path d="M1341 2580 c0 -8 4 -22 9 -30 12 -18 12 -2 0 25 -6 13 -9 15 -9 5z"/>
<path d="M3474 2493 c0 -43 -1 -105 -4 -138 -3 -49 -1 -61 12 -63 22 -4 26 13
34 144 6 94 4 118 -7 125 -30 19 -35 9 -35 -68z"/>
<path d="M4350 2498 c0 -18 5 -78 11 -133 5 -55 10 -135 10 -177 0 -76 5 -93
25 -80 21 13 24 103 9 255 -8 83 -15 155 -15 160 0 4 -9 7 -20 7 -16 0 -20 -7
-20 -32z"/>
<path d="M2511 2504 c0 -11 3 -14 6 -6 3 7 2 16 -1 19 -3 4 -6 -2 -5 -13z"/>
<path d="M2502 2460 c0 -14 2 -19 5 -12 2 6 2 18 0 25 -3 6 -5 1 -5 -13z"/>
<path d="M980 2370 c36 -11 50 -11 50 0 0 6 -17 10 -37 9 -34 -1 -35 -2 -13
-9z"/>
<path d="M1083 2373 c9 -2 23 -2 30 0 6 3 -1 5 -18 5 -16 0 -22 -2 -12 -5z"/>
<path d="M947 2333 c-15 -14 -6 -23 24 -23 27 0 30 2 19 15 -13 16 -32 19 -43
8z"/>
<path d="M1162 2328 c-17 -17 -15 -31 3 -25 8 4 17 2 20 -3 11 -18 26 -10 23
12 -3 26 -28 34 -46 16z"/>
<path d="M1560 2284 c-64 -40 -108 -44 -136 -13 -46 52 -115 49 -153 -6 -26
-39 -24 -52 7 -36 37 19 88 13 121 -15 25 -21 39 -25 71 -22 30 3 39 0 36 -9
-8 -20 3 -16 43 16 20 15 55 38 77 49 23 12 44 28 47 36 4 9 -14 2 -44 -16
-36 -23 -53 -28 -60 -21 -8 8 0 19 30 38 22 15 41 29 41 31 0 11 -31 -1 -80
-32z m-30 -43 c0 -14 -28 -33 -40 -26 -15 10 -12 23 8 28 28 8 32 7 32 -2z"/>
<path d="M1032 2253 l-27 -58 0 -283 0 -282 30 -25 c17 -13 34 -24 39 -25 16
0 87 62 100 89 18 35 26 124 27 311 2 247 1 260 -15 260 -11 0 -16 -15 -19
-52 l-3 -53 -2 57 c-2 50 -5 59 -31 77 -16 12 -37 21 -46 21 -9 0 -13 5 -10
10 3 6 1 10 -5 10 -5 0 -23 -26 -38 -57z m-6 -98 c-8 -27 -15 -42 -15 -31 -1
23 22 103 26 90 1 -5 -4 -31 -11 -59z m86 -182 c4 -215 3 -252 -11 -277 -33
-60 -38 -43 -44 151 -6 172 -5 196 15 281 12 50 25 92 29 92 4 0 9 -111 11
-247z"/>
<path d="M2375 2294 c-40 -14 -40 -14 -5 -9 19 3 39 10 44 15 12 12 12 12 -39
-6z"/>
<path d="M909 2277 c-6 -14 -31 -32 -58 -44 l-48 -20 -12 -109 c-12 -106 -12
-113 18 -258 16 -82 33 -151 37 -155 3 -3 4 19 3 49 -4 50 -2 55 16 55 17 0
21 -10 30 -68 6 -38 13 -66 17 -62 3 4 7 120 7 258 l2 252 34 55 c29 48 31 56
17 62 -32 13 -52 8 -63 -15z m-29 -261 c0 -16 -18 -31 -27 -22 -8 8 5 36 17
36 5 0 10 -6 10 -14z m0 -91 c0 -8 -9 -15 -20 -15 -20 0 -26 11 -13 23 12 13
33 7 33 -8z m4 -76 c-7 -11 -34 -12 -34 -1 0 14 11 21 26 15 8 -3 11 -9 8 -14z"/>
<path d="M3461 2256 c-7 -9 -8 -17 -2 -20 13 -9 43 4 38 17 -5 17 -23 19 -36
3z"/>
<path d="M1575 2194 c-45 -30 -89 -49 -80 -34 3 6 2 10 -3 10 -13 0 -39 -32
-51 -63 -16 -42 -35 -33 -66 33 -22 46 -34 60 -50 60 -34 0 -35 -8 -9 -77 27
-73 31 -157 14 -337 -8 -91 -11 -101 -39 -130 -17 -18 -31 -41 -31 -52 0 -11
-7 -30 -16 -42 -20 -29 -1 -29 23 1 32 38 74 56 120 50 38 -5 42 -3 57 25 11
21 18 74 22 174 4 83 12 157 20 177 8 18 14 41 14 51 0 10 7 23 15 30 8 7 15
23 15 35 0 15 13 32 39 49 36 25 57 53 48 63 -2 2 -21 -9 -42 -23z m-110 -91
c-7 -21 -18 -39 -24 -41 -6 -2 -9 -7 -7 -11 3 -4 1 -13 -4 -21 -7 -11 -8 -8
-7 10 3 21 43 100 52 100 1 0 -3 -17 -10 -37z m-74 -426 c-6 -14 -20 -31 -32
-38 l-22 -11 22 30 c14 21 24 54 29 99 l7 68 3 -61 c2 -33 -2 -72 -7 -87z"/>
<path d="M3430 2212 c0 -14 11 -21 26 -15 21 8 17 23 -6 23 -11 0 -20 -4 -20
-8z"/>
<path d="M2417 2150 c-3 -11 -1 -23 4 -26 5 -3 9 4 9 15 0 15 4 19 17 14 11
-4 14 -3 9 5 -11 19 -33 14 -39 -8z"/>
<path d="M3718 2070 c-39 -20 -48 -30 -48 -52 0 -19 -5 -28 -16 -28 -18 0
-135 -77 -147 -97 -4 -7 -19 -25 -33 -40 -13 -14 -24 -31 -24 -37 0 -6 -3 -21
-6 -33 -5 -18 0 -23 35 -34 42 -12 71 -2 71 25 0 18 57 69 69 62 5 -4 25 6 43
22 18 16 53 42 78 59 25 17 52 42 59 56 13 25 12 34 -8 67 -5 8 -13 24 -17 35
-9 20 -10 20 -56 -5z m52 -29 c0 -21 -10 -34 -42 -57 l-43 -30 3 45 c3 40 8
48 35 62 39 20 47 16 47 -20z m-132 -96 c-20 -14 -40 -25 -43 -25 -14 0 -100
-83 -109 -103 -7 -18 -10 -19 -13 -5 -2 9 7 28 21 42 15 14 26 30 26 35 0 16
102 79 130 80 23 1 22 -1 -12 -24z m22 -8 c-34 -30 -124 -90 -110 -73 8 11 38
34 65 52 54 35 68 42 45 21z"/>
<path d="M1926 1913 c-15 -87 -41 -212 -57 -278 -25 -105 -33 -123 -61 -147
-37 -32 -33 -35 15 -12 28 13 39 31 73 107 39 91 40 92 77 95 51 4 54 -11 27
-109 -18 -63 -32 -91 -66 -128 -43 -48 -43 -49 -24 -66 26 -23 48 -13 123 61
51 49 59 54 101 54 75 0 99 30 141 180 47 166 51 193 31 209 -15 13 -15 15 4
28 22 16 26 44 9 74 -8 16 -7 25 5 38 9 10 16 26 16 37 0 15 -7 12 -37 -18
l-37 -37 22 -24 c24 -25 21 -57 -4 -57 -22 0 -30 -31 -11 -42 23 -12 22 -57
-3 -149 -11 -41 -25 -95 -31 -121 -16 -71 -34 -87 -114 -104 -41 -9 -79 -23
-92 -36 -13 -12 -23 -19 -23 -16 0 10 69 210 74 216 3 2 3 -11 0 -30 -5 -26
-2 -37 10 -41 8 -3 18 -2 21 3 7 11 75 330 75 351 0 9 -8 23 -17 31 -15 13
-137 63 -203 84 -13 4 -21 -23 -44 -153z m221 15 c-3 -8 -6 -5 -6 6 -1 11 2
17 5 13 3 -3 4 -12 1 -19z m-111 -113 c-1 -9 -5 -15 -9 -15 -4 0 -14 0 -22 0
-8 0 -15 7 -15 15 0 9 9 15 24 15 16 0 23 -5 22 -15z m-1 -75 c0 -29 -31 -38
-66 -19 l-23 12 24 19 c32 26 65 20 65 -12z m-35 -305 c0 -7 -43 -45 -52 -45
-17 0 -7 16 20 32 32 19 32 19 32 13z"/>
<path d="M4365 2061 c-3 -5 -1 -12 5 -16 12 -7 30 2 30 16 0 12 -27 12 -35 0z"/>
<path d="M3257 1997 c-45 -40 -61 -63 -73 -101 -16 -55 -9 -70 27 -64 20 2 25
10 27 40 3 31 13 46 64 92 41 37 59 60 55 71 -11 27 -41 16 -100 -38z"/>
<path d="M3383 2012 c-47 -32 -122 -113 -85 -93 12 6 29 23 38 36 17 26 73 65
93 65 23 0 10 -29 -24 -50 -19 -12 -38 -27 -42 -34 -5 -7 -21 -19 -38 -27 -54
-25 -70 -99 -21 -99 16 0 27 13 46 53 23 47 30 54 75 68 35 11 51 22 53 35 2
17 1 17 -10 4 -7 -9 -31 -21 -53 -27 -36 -11 -38 -11 -20 3 68 51 77 67 47 83
-14 8 -28 3 -59 -17z m-44 -134 c-7 -12 -15 -29 -19 -37 -11 -24 -30 -24 -30
-1 0 21 47 77 56 67 3 -3 0 -16 -7 -29z"/>
<path d="M4355 2020 c-3 -5 3 -10 14 -10 12 0 21 5 21 10 0 6 -6 10 -14 10 -8
0 -18 -4 -21 -10z"/>
<path d="M4720 1945 c0 -2 10 -10 23 -16 20 -11 21 -11 8 4 -13 16 -31 23 -31
12z"/>
<path d="M4688 1905 c-4 -22 -8 -54 -8 -70 0 -30 -2 -31 -36 -27 -35 4 -41 0
-110 -73 -41 -42 -74 -82 -74 -89 0 -6 32 24 71 67 55 60 76 77 97 76 27 0 26
0 -13 -32 -35 -29 -126 -113 -101 -94 21 15 30 5 10 -11 l-21 -18 23 -21 23
-20 85 87 c79 81 106 120 106 156 0 11 -4 12 -19 4 -19 -9 -20 -6 -23 47 -3
58 -3 58 -10 18z"/>
<path d="M3419 1907 c-58 -39 -69 -147 -14 -147 15 0 35 37 35 64 0 24 7 38
30 54 62 46 15 73 -51 29z"/>
<path d="M4173 1888 c-64 -74 -93 -126 -93 -172 0 -46 1 -48 45 -67 65 -29
101 -19 111 29 4 20 8 46 9 57 2 32 113 141 139 137 39 -7 9 9 -45 24 -83 21
-141 19 -166 -8z"/>
<path d="M4428 1863 c6 -2 18 -2 25 0 6 3 1 5 -13 5 -14 0 -19 -2 -12 -5z"/>
<path d="M4450 1842 c0 -6 -31 -36 -70 -67 -61 -49 -73 -54 -91 -45 -27 15
-37 5 -11 -11 19 -12 20 -16 7 -46 -8 -18 -10 -35 -5 -38 5 -3 14 11 20 30 8
23 34 54 78 91 69 58 88 81 78 91 -3 4 -6 1 -6 -5z"/>
<path d="M4440 1764 c-8 -8 -33 -26 -56 -40 -27 -16 -50 -40 -62 -65 -11 -23
-15 -38 -8 -36 6 2 19 20 29 40 22 47 31 48 11 2 -8 -20 -12 -40 -9 -45 10
-16 47 -11 61 8 9 11 13 12 14 4 0 -12 89 -57 97 -48 2 2 -14 12 -36 22 -49
21 -51 37 -12 85 17 20 33 48 36 62 7 25 5 27 -23 27 -16 0 -35 -7 -42 -16z"/>
<path d="M1175 1590 c-10 -11 -16 -23 -13 -26 7 -6 38 24 38 37 0 13 -5 11
-25 -11z"/>
<path d="M2080 1570 c0 -5 5 -10 10 -10 6 0 10 5 10 10 0 6 -4 10 -10 10 -5 0
-10 -4 -10 -10z"/>
<path d="M2067 1534 c-8 -8 1 -24 14 -24 5 0 9 7 9 15 0 15 -12 20 -23 9z"/>
<path d="M842 1443 c-6 -43 -17 -152 -23 -242 l-12 -164 56 -54 56 -54 -44
-62 c-48 -65 -51 -72 -35 -82 5 -3 31 17 57 46 27 29 55 59 63 66 8 8 39 37
69 65 53 49 55 50 102 45 53 -7 66 3 70 51 0 4 4 -3 9 -16 5 -12 21 -27 35
-32 14 -5 25 -16 25 -24 0 -17 22 -27 39 -17 6 4 13 34 16 67 2 32 24 144 50
248 l46 190 -20 20 c-11 11 -23 17 -26 14 -3 -3 -16 -48 -30 -99 -25 -101 -32
-96 -14 8 6 35 9 66 7 69 -3 2 -33 -11 -68 -31 -69 -39 -82 -42 -100 -20 -18
22 -63 19 -78 -5 -7 -11 -19 -20 -26 -20 -10 0 -21 -29 -35 -92 -11 -51 -27
-120 -36 -153 -16 -67 -16 -70 10 145 8 63 15 118 15 121 0 8 -51 31 -57 26
-2 -3 -14 -61 -25 -130 -23 -131 -42 -163 -31 -52 4 44 2 69 -6 79 -8 10 -11
41 -9 88 3 67 1 73 -18 76 -18 3 -22 -5 -32 -75z m258 -387 c0 -8 -4 -17 -9
-21 -12 -7 -24 12 -16 25 9 15 25 12 25 -4z"/>
<path d="M2132 1402 c-60 -15 -66 -18 -109 -79 -56 -79 -75 -81 -123 -13 -34
48 -35 49 -43 25 -7 -19 -3 -32 14 -56 20 -29 21 -35 10 -82 -7 -29 -29 -130
-51 -225 -21 -96 -40 -176 -43 -178 -13 -13 -11 102 2 125 8 15 14 47 14 73 1
29 6 49 14 52 16 6 17 42 3 51 -8 5 -7 12 2 22 11 13 20 118 9 108 -1 -2 -31
-116 -66 -254 l-63 -251 34 -25 c19 -15 34 -35 34 -46 0 -12 -20 -58 -45 -103
-25 -46 -45 -86 -45 -89 0 -3 16 -11 35 -17 31 -10 38 -9 66 11 17 12 55 59
84 103 57 88 100 126 139 126 34 0 46 25 72 155 2 11 6 34 10 50 11 55 31 75
74 75 48 0 48 -3 21 -122 -10 -46 -21 -98 -25 -117 l-6 -34 32 25 c25 19 36
39 49 89 9 35 24 84 33 109 18 47 136 451 136 463 0 4 -7 7 -16 7 -8 0 -13 -3
-11 -7 7 -13 -11 -53 -24 -53 -7 0 -9 10 -7 25 8 39 -27 33 -40 -7 l-10 -33 1
34 c2 32 -1 35 -33 42 -18 4 -39 14 -46 23 -6 9 -13 16 -15 15 -2 0 -32 -8
-67 -17z m-32 -57 c0 -3 -11 -22 -24 -43 -25 -39 -48 -62 -105 -101 l-33 -23
7 23 c10 34 25 49 45 49 17 0 90 74 90 92 0 4 5 8 10 8 6 0 10 -2 10 -5z m50
-65 c0 -11 -7 -20 -15 -20 -13 0 -14 4 -5 20 6 11 13 20 15 20 3 0 5 -9 5 -20z
m109 -115 c-17 -63 -34 -114 -36 -111 -6 5 35 181 51 219 23 56 16 5 -15 -108z
m-360 -211 c-22 -98 -45 -207 -52 -241 -11 -61 -19 -74 -32 -53 -6 10 21 126
70 305 13 50 25 104 25 121 0 26 18 60 27 51 1 -2 -15 -84 -38 -183z m318 64
c-3 -8 -6 -5 -6 6 -1 11 2 17 5 13 3 -3 4 -12 1 -19z m-275 -330 c-7 -7 -12
-8 -12 -2 0 14 12 26 19 19 2 -3 -1 -11 -7 -17z m-121 -147 c-35 -44 -71 -77
-71 -65 0 5 16 32 36 61 23 33 41 50 50 46 11 -4 7 -13 -15 -42z"/>
<path d="M639 913 c-86 -84 -109 -121 -109 -176 0 -29 33 -16 45 18 10 30 24
44 76 77 l28 17 -29 -42 c-46 -68 -65 -116 -53 -128 14 -14 47 13 83 68 25 39
27 47 18 90 -11 62 -4 89 26 97 37 9 55 -2 58 -39 l3 -33 39 34 38 33 -27 25
c-16 15 -36 26 -46 26 -10 0 -21 5 -24 10 -14 23 -42 6 -126 -77z"/>
<path d="M1084 954 c-19 -24 -31 -57 -38 -102 l-11 -67 -83 -60 c-45 -33 -99
-81 -119 -108 -24 -29 -39 -42 -41 -33 -7 34 48 102 170 209 28 25 34 34 18
26 -51 -24 -122 -83 -166 -137 -37 -46 -45 -61 -42 -90 2 -24 11 -41 29 -54
38 -28 72 -15 114 43 19 27 38 48 42 48 22 -4 37 6 95 56 35 31 84 68 110 82
49 27 59 47 47 93 -21 79 -34 116 -44 122 -24 17 -55 7 -81 -28z m87 -11 c6
-16 13 -44 16 -64 5 -33 2 -38 -32 -59 -29 -18 -39 -20 -45 -10 -5 7 -17 10
-29 7 -20 -5 -21 -2 -15 31 14 77 42 122 76 122 11 0 23 -11 29 -27z"/>
<path d="M696 701 c-47 -47 -67 -74 -63 -85 8 -19 32 -21 47 -3 66 79 100 127
100 141 0 27 -13 19 -84 -53z"/>
<path d="M1593 659 c-17 -5 -34 -17 -37 -27 -18 -56 -67 -112 -123 -141 -48
-24 -62 -37 -80 -75 -28 -56 -28 -53 -3 -66 17 -9 22 -5 39 27 23 46 56 77 70
68 17 -10 13 -25 -14 -57 -46 -54 -26 -47 29 10 51 54 55 61 65 132 13 79 21
92 61 88 23 -3 25 -7 22 -43 l-3 -40 26 25 c45 42 50 59 24 86 -24 26 -28 27
-76 13z"/>
<path d="M2022 653 c-16 -13 -24 -38 -31 -92 -9 -66 -14 -78 -47 -112 -21 -22
-47 -42 -58 -45 -57 -18 -206 -146 -206 -176 0 -17 17 -6 33 21 9 16 69 64
132 106 64 43 125 91 136 107 14 19 24 54 29 100 8 73 18 88 58 88 37 0 60
-17 72 -55 6 -19 16 -35 21 -35 12 0 11 10 -2 48 -20 57 -94 81 -137 45z"/>
<path d="M2059 488 c-31 -16 -82 -51 -113 -76 -30 -26 -91 -76 -135 -112 -44
-36 -80 -68 -80 -72 -2 -24 41 4 173 112 81 66 167 132 192 146 78 46 47 48
-37 2z"/>
<path d="M1832 447 c-35 -35 -87 -79 -116 -98 -37 -24 -60 -47 -75 -78 -29
-58 -22 -62 13 -7 15 24 48 57 74 74 68 44 176 146 171 160 -2 7 -31 -14 -67
-51z"/>
<path d="M1560 405 c-24 -18 -41 -23 -59 -18 -21 4 -24 3 -14 -7 8 -9 10 -32
6 -72 -5 -50 -4 -58 11 -58 28 0 56 19 56 40 0 10 14 31 31 47 16 15 35 36 40
46 9 16 8 17 -8 8 -33 -18 -73 -61 -79 -86 -5 -22 -31 -41 -41 -31 -12 11 21
78 51 104 31 27 52 52 44 52 -2 0 -19 -11 -38 -25z"/>
</g>
</svg>
