<svg xmlns="http://www.w3.org/2000/svg" width="682.667" height="682.667" version="1.0" viewBox="0 0 512 512">
    <g fill="#e5e5e5">
        <path d="M421 16.7c-4.9 1.8-27.4 10.9-35.3 14.4-5 2.2-10.9 4.7-12.9 5.6-2.1.9-3.8 2-3.8 2.4 0 1 8.7-2.2 27.4-10.2l14-5.9 5.7 1.1c7.7 1.5 10.9.6 3.4-1l-6-1.3 4.5-1.9c6.4-2.6 7.9-2.3 12.9 2.1 4.8 4.2 4.9 4.1-2.3 5.2-1.1.2-2.3 1.6-2.9 3.3-.5 1.6-1.8 3.9-2.8 5.1-1.9 2-1.9 2.1-.1 3.7 1 .9 2.6 1.7 3.4 1.7 2.5 0 4.8 1.1 4.3 2.1-.3.4.5 1.3 1.7 2 1.3.6 3.5 2.3 5.1 3.7 1.5 1.4 2.7 2.1 2.7 1.6 0-1.2-3.5-4.5-6.5-6.3-1.8-1-1.7-1.1 1-.9 2.5.3 3.8 1.4 7.3 6.8 2.3 3.6 6.8 10.2 10 14.8 3.1 4.5 5.8 9.2 6 10.3.3 1.9.5 1.9 2.8.4 2.4-1.5 2.8-1.5 6.6.5 2.2 1.1 4.3 1.9 4.6 1.6.7-.8-17.8-31.2-24.9-41.1-6.7-9.2-9.6-12.3-16.1-17.1-4.5-3.3-6.6-3.9-9.8-2.7m22.3 19.2c5.2 7.5 22.7 35.7 22.7 36.7 0 .3-.9 0-2.1-.6-1.5-.9-2.4-.8-3.5.1-.8.6-1.6 1-1.8.8-1.9-2.4-8.9-13.5-10.9-17.4-4.6-9.1-8.1-12.6-15-14.9-4.4-1.5-6.1-2.5-5.8-3.6.2-.8.7-2.9 1-4.5.7-2.9 1.9-3.5 8.7-4.4.6 0 3.6 3.5 6.7 7.8"/>
        <path d="M418.5 28.4c-3.1 1.4-4.5 2.5-3.7 3 .6.4 2.1.2 3.2-.4 3.3-1.8 4.6-.6 2 1.8-2.3 2.1-2.3 2.2-.3 2.2 1.1 0 2.5-.6 3-1.3 1.4-1.7 2.5-6.5 1.6-7-.5-.3-3 .5-5.8 1.7m-31.8 12.1c-15.1 6-17.6 6.4-25.7 4.1-7-2.1-8.4-1.6-7.7 2.8.4 2.6.2 3.5-1.1 3.9-.9.3-7.1 3-13.7 6-15.8 7.3-26 11.7-43 18.7-23 9.4-28.7 12.2-27.6 13.3.8.8 4-.2 10.4-3.1 8.1-3.7 9.8-4.2 13.2-3.4 3.2.6 4.1 1.3 4.3 3.2.3 2.3-.5 2.8-7.3 5.4-4.1 1.6-7.8 2.7-8 2.4-.3-.3 2.4-1.8 6-3.4 3.5-1.6 6.5-3.2 6.5-3.7 0-1.5-4.2-.6-9.2 1.9-3.7 1.9-5.3 2.3-5.8 1.4-.6-.9-1.6-1-3.6-.3-3 1-4.5 3.3-2.1 3.3.8 0 2 .7 2.7 1.6 1.2 1.3 1 1.4-1.4.3-2.2-1.1-2.9-1-3.6.1s-1.6.7-4.5-1.8c-1.9-1.8-4-3.2-4.6-3.2s-3.2.9-5.9 2.1c-3.4 1.5-5.2 2.9-6.1 5-.6 1.7-1.9 3.5-2.9 4.2-2.8 2-5.2 6.5-4.6 8.5.4 1.1.2 3.2-.4 4.7-1.6 4.2.3 8.6 4.5 10.9 3.4 1.9 10.1 8.5 15.8 15.6 1.5 1.9 2.3 2.5 1.7 1.3-.5-1.2-3.7-5.5-6.9-9.6-3.3-4.1-5.8-7.7-5.5-8 .3-.2-.6-.7-2-1.1l-2.5-.6 1.7-4.6 1.7-4.6-2.7-2.2c-3.1-2.4-3.5-3.8-1.4-5.5 1.9-1.6 5.6 4.4 5.6 9.2 0 2 .6 4 1.3 4.4s3.1 3.7 5.2 7.3c7.3 12.4 14.4 21.6 18.1 23.3 1.9.9 3.7 2.4 4 3.2.9 2.3 2.4 1.8 2.4-.8 0-2.4-2.7-5.7-4.7-5.7-1.5 0-5.6-5.6-11.4-15.7-5.9-10.2-8.5-13.3-11.2-13.3-1.6 0-1.8-.5-1.3-2.5.3-1.4.9-3.6 1.2-5 .5-1.8-.1-3.5-2-5.9-2.3-3-2.5-3.8-1.4-6 1.6-3.7 3.7-3.2 10.1 2.5 7.7 6.8 8.7 5.4 1.2-1.6-5.7-5.3-5.8-5.5-3.4-6.4 2.6-.9 3.2-.6 9.7 5.3 3.7 3.4 4 5.1 1.3 8-2.8 3.1-5.3 9.6-3.7 9.6.6 0 2.1 1.5 3.2 3.3 1 1.8 4.5 6.9 7.7 11.3 9.1 12.3 22.8 36.8 24.1 43 .8 3.6 2.8 5.8 6.9 7.3 3.2 1.2 4.7 4.5 4.7 10.2 0 3.2-.3 3.9-2 3.9-3.4 0-6.5-2-8-5.3-.8-1.8-2.9-4.1-4.6-5.2-2.3-1.4-3.4-3-3.8-5.6-.3-2-1.5-4.4-2.7-5.5-1.2-1-3.2-4.4-4.6-7.4-1.9-4.4-10-14-11.8-14-1.3 0-.3 2.9 1.5 4.5 1.1 1 2 2.2 2 2.8 0 .5 1.2 3.6 2.6 6.8 1.9 4.1 3.7 6.5 6 7.9 3.2 1.8 3.4 2.2 2.8 5.8-.7 4.4.5 5.8 5.1 6.4 2.4.2 3.2 1 4.1 3.8 1.9 6 11.3 10 15.9 6.6 1.5-1.1 1.7-2.1 1.2-6-.8-5.7-3.1-10.3-5.5-11-1-.4-2.8-3.5-4.6-8.1-1.6-4.1-3.2-7.5-3.7-7.5-.8 0-3.9-5.7-3.9-7.2 0-1.8-12.5-21.3-20.7-32.2-4.5-6.1-8.2-12-8.2-13.1 0-3.8 6.6 5.2 23 31.2 7.1 11.5 9.9 15 9.9 12.8 0-1.5-5.9-12-12.2-21.7-3.9-6-6.8-11.1-6.6-11.4.3-.2 2.2 2.4 4.4 5.8 3.8 6.2 8.4 11.8 15.7 18.8 2 2.1 3.7 4.2 3.7 4.8 0 .7.4 1.2.9 1.2 1.7 0 8.1-3 8.1-3.8 0-.5-1.5-5.5-3.4-11.3-1.9-5.7-3-10.8-2.6-11.3.5-.5 8-3.7 16.6-7.2 18.3-7.3 16.5-7.6 28.7 3.7l7.1 6.6 4.6-1.8c2.5-1 6.3-2.2 8.5-2.8s4.6-1.5 5.3-1.9c1.4-1 1.9-14.6.7-22.2l-.7-4.6 11.4-5.7c6.2-3.1 12.7-6 14.3-6.3 2.9-.5 6.2 1.4 22.5 13.4 1.4 1 2.2 1 4.6-.3 1.6-.8 3.5-1.5 4.3-1.5 3.1 0-4.2-16.6-11.1-25.1l-4.6-5.7 2.4-3.8c1.3-2.2 2.4-4.5 2.4-5.3 0-2.5-6.1-9-12-12.6-3.3-2-6.8-4.7-7.9-6.1-2.8-3.5-5.8-3.1-21.4 3.1m30.8 7.5c1 1.2 3.4 3 5.2 4.1 3.9 2.4 4 3.1 1.3 8.7-2.6 5.4-2.5 7.1.6 11.8 3.3 4.8 2.3 6.8-3.5 7.2-3 .2-5-.3-7.2-1.9-3.5-2.4-5.9-1.9-5.9 1.3s-1 4.3-4.9 5.6c-5.1 1.8-11.2 1.4-15.6-.8-2.2-1.1-4.4-2-5.1-2-1.8 0-3.4 4.8-3.4 10.6 0 5-.2 5.5-2.6 6.5-2.3.8-3.3.5-6.5-1.7-2.2-1.5-3.9-3.1-3.9-3.6s-1.5-.8-3.2-.6l-3.3.3v13.8l-3.3.3c-2.9.3-4.2-.3-9-4.6-7.7-6.8-8.2-6.7-9.8 2.3-.7 4.3-3.8 8.7-6.2 8.7-.9 0-3.3-1.2-5.4-2.6-2-1.5-4.4-2.4-5.1-2.1-.8.3-1.8 2.5-2.1 5-.7 4.8-2.6 7-6.6 8-2 .5-3.3-.2-6.7-3.5-4.3-4.3-7.3-4.6-7.3-.9 0 1.1-.4 2.2-.9 2.5-.5.4-.5 2.2 0 4.3 1.5 6.5 1.2 7.5-1.8 7.1-1.8-.2-2.9-1-3.2-2.3-.2-1.1-1.7-3.6-3.5-5.6-1.7-2-4.6-5.6-6.5-7.9s-4.7-4.7-6.2-5.2c-2.9-1-3.8-3.1-1.9-4.3.6-.3 1 .4 1 1.7.1 2.2.2 2.2 3-.9 2.4-2.7 3.4-3.1 5.2-2.4 1.3.4 3.5 1.1 4.9 1.4 2.6.7 2.6.7 1.6-3.3-1.3-4.8-.4-6 3.1-3.9 1.5.8 4.6 2.6 6.9 4 2.3 1.3 4.5 2 4.9 1.6s-.3-2.9-1.6-5.6c-1.2-2.7-2-5.4-1.6-5.9.4-.7 2.6-.2 6.2 1.5 6.4 2.9 8.7 2.5 8.2-1.4-.2-2.3 0-2.7 1.7-2.5 9.3 1.6 8.5 1.8 8.5-2.3v-3.7l3.8.8c2 .4 5.3.8 7.2.8 3.4.1 3.5 0 3.4-3.7-.1-2 .1-3.7.3-3.7s2 .7 4 1.5c6.7 2.8 8.8 2 8.6-3.3-.1-1 1.2-1.2 5.3-.6 6.4.8 8.7-.5 7.8-4.3-.7-2.5-.6-2.5 3.7-1.7 8.1 1.4 9.4 1.2 9.7-1.9.3-2.7.5-2.8 4.8-2.1 5.1.7 7.8-.8 6.8-3.8-.5-1.7-.3-1.9 1.8-1.2 1.2.5 4.3.9 6.8.9 3.9 0 4.5-.3 4.8-2.3.3-1.6 1-2.2 2.8-2.2 2.6 0 3-1.1 1.4-4.1-1.2-2.2-1-2.3 4.1-.7 4.9 1.4 5.7.7 3-2.8-3.4-4.3-2.2-6.4 1.4-2.4M245 118.1c0 2.4-.4 3.8-1 3.4-1.7-1-1.1-7.5.7-7.5.2 0 .3 1.8.3 4.1"/>
        <path d="M429.3 53.9c.9 2.4.7 3.4-1.1 6.3-2.4 3.9-2.7 4.8-1.3 4.8s5-5.4 5.4-8.1-1.2-5.9-3-5.9c-.8 0-.9.7 0 2.9"/>
        <path d="M434 55.3c0 .4.5 1.6 1.2 2.6 1 1.6.7 2.4-1.5 5.1-1.5 1.7-2.7 4.2-2.7 5.4 0 2.2 9.4 24.1 11.1 26 2.5 2.7 1.3-1.2-3.6-11.8-3-6.5-5.5-12.8-5.5-14.1 0-1.4 1.1-3.2 2.7-4.4 2.4-2 2.7-2 4.4-.5 2.4 2.2 11.5 21.1 13.5 28.1.8 2.9 1.9 5.3 2.4 5.3 1.2 0 2.9 11.6 2.8 20-.1 9.5-1.5 4.9-1.7-5.3l-.1-6.9-4.7.5c-2.7.3-6.7 1.1-9 1.8-4.8 1.5-2.5 2.7-22.4-12.4-9.8-7.4-13.3-8.9-15.5-6.7-.5.5-5.2 3.2-10.4 5.9l-9.5 5v5.8c0 3.2.3 8.7.6 12.3l.6 6.5.2-7.8c0-4.2.5-7.7 1-7.7 1.2 0 2.5 16.9 1.6 20.8-.9 4.1-2.1 4.9-10.4 7.2-11 3.1-12.1 2.9-18.3-3.7-7.9-8.4-14.7-14.7-17-15.5-2.5-1-8.2 1.8-7.5 3.6.4 1-2.9 2.4-10.9 5-9.5 3.1-11.4 4-11 5.4.3.9 1.5 5.5 2.6 10.1 1.2 4.6 2.8 9 3.6 9.8s1.4 1.3 1.4 1.1-.9-3.7-2-7.8c-2.5-9.5-2.4-11.8.2-6 1.8 4.1 5.3 17.9 4.6 18.5l-8 4c-4.3 2.1-7.8 4-7.8 4.4 0 .3 1.2 3.5 2.7 6.9l2.7 6.4 4.1-.7c4.1-.6 4.3-.5 5.5 2.7.7 1.8 2 4.1 2.8 5 1.3 1.6 1.7 1.6 5.1.2 6.4-2.8 6.6-2.8 3.5-.1-1.8 1.5-4 2.7-5 2.7s-2.8 1.2-4.1 2.7l-2.2 2.8-.1-4.2c0-4.9-1.5-9.3-3.1-9.3-.7 0-.8.7-.4 1.7s.9 4.2 1 7.2c.4 6.8 1.9 8.5 4.6 5.2 1.1-1.4 3.2-2.6 4.6-2.7 1.5-.2 5.9-2.5 9.7-5.2 3.9-2.7 11.6-7.2 17.1-9.9s15-7.5 21.2-10.6 18.8-8.5 28-12c15.8-6.1 37.1-16.1 43.8-20.6 4.4-3 5.3-2.6 1.9 1-3.9 4.2-11.6 8.3-35.6 19.3-11.2 5.1-25.8 12.1-32.4 15.4-6.7 3.4-16.8 7.9-22.5 10.2-11.8 4.6-57.8 27.1-57.9 28.2-.1 2.1 5.6-.1 24.6-9.8 11.5-5.9 26.9-13.1 34.3-16.1s19.1-8.3 26-11.8 20.7-10 30.6-14.5c19.1-8.6 31.9-15.1 34.8-17.7.9-.9 2.9-3.7 4.3-6.2 2.4-4.2 2.6-5.5 2.5-15.1-.2-12.8-1.4-20-5.2-30.3-2.9-8.1-8-17.9-10.5-20.5-.8-.7-1.4-1.8-1.4-2.3 0-.6-.5-.7-1-.4-.6.4-2.8-1.3-5-3.7-2.2-2.3-3.9-4-4-3.5M397.1 98c-3.4 2.2-6.7 5.1-7.3 6.5-1 2.2-1.3 2.4-2.1 1-1.4-2.5 1.9-6.4 7.6-9 7.9-3.6 8.7-2.9 1.8 1.5m56 15.1c2 3.7-.4 9-5.6 12.8-4.5 3.2-26.7 14.2-36.4 18.1-2.8 1.1-8.6 3.7-13 5.9-7.9 4-27.2 12.3-38.9 16.7-3.4 1.3-7.2 3-8.5 3.8-1.2.8-5.8 2.7-10.2 4.1-4.4 1.5-8.9 3.4-9.9 4.1-1.6 1.1-2.3 1-4.7-.7-1.6-1.1-2.6-2.6-2.3-3.3.4-1.2-.2-1.3-3.2-.6-4.3 1-5 .8-5.7-2-.4-1.6-.2-1.8 1.3-1 2.8 1.5 4.2 1.2 3.8-.8-.3-1.4 2.6-2.7 16.2-7.3 16.1-5.4 52-20.7 55-23.4.8-.8 5.7-2.8 10.8-4.5 15.9-5.3 45.7-19.2 47.6-22.2 1.4-2.4 2.3-2.3 3.7.3"/>
        <path d="M450 98c3.4 1.1 6 1.1 3.5 0-1.1-.5-2.9-.8-4-.8-1.6 0-1.5.2.5.8m-216 30.7c-.8.2-2.8 1.1-4.5 1.8-1.6.7-6.5 2.7-10.9 4.5-11.2 4.4-14 6-12.8 7.2.6.6 2.3.3 4.8-1 8.3-4.2 17-7.3 19.2-6.7 1.5.4 2.2.1 2.2-.8 0-1.1 1.2-1.3 4.9-.9 3 .2 5.1 0 5.5-.7.5-.7-.4-1.1-2.6-1.2-1.8 0-2.7-.3-2-.6.6-.2 1-.9.6-1.4-.6-1-2-1-4.4-.2m5.4 7.8c-4.7 1.5-10.4 4.3-10.4 5.1 0 .4.8.3 1.8-.1 4-1.6 15.5-4.6 16.6-4.2.6.2-2.7 1.6-7.4 3.2-9.6 3.1-9.4 3-8.6 4.3.6.9 16.8-3.7 18.3-5.1.9-1-2.8-4.7-4.6-4.6-.9.1-3.4.7-5.7 1.4m1.9 8.8c-13 6.5-10.3 6.6 5.9.2 1.1-.4 2.3.1 3.4 1.3 1 1.3 2.4 1.8 3.8 1.4 1.8-.5 1.9-.3.8 1.1-1.7 2-.8 3.7 1.9 3.7 1.1 0 1.7.4 1.4 1-.3.5-.3 1.6.2 2.2 1 1.8.3 7.1-1.1 8-2.2 1.5-2.6.8-1.9-3.7l.6-4.5-5.7-2.6c-3.1-1.4-6.4-2.4-7.3-2.2-2 .4-3.9 3.1-10.3 14.9-5.3 9.7-7.7 11.6-12.5 10.2-3.8-1.2-5.1-.2-9.9 7.4-2.4 3.9-2.4 4.3-.8 5.1 4.2 2.2 7.1 2.1 12.3-.2 9.3-4 20-8.4 32.4-13.2 6.6-2.5 12.6-5.2 13.4-5.9 1.9-1.8.6-6.6-2-7.2-1.2-.4-1.8-1.1-1.5-2 .6-1.5-12.2-19.3-13.9-19.2-.5 0-4.7 1.9-9.2 4.2"/>
        <path d="M131.5 169.5c-79.9 32.6-72.3 29.2-72.9 32.3-.3 1.5-.6 9.7-.7 18.2 0 8.5-.2 17.1-.2 19-.1 2-2.3 7.5-4.8 12.5-13.3 25.7-15.7 45.5-9.9 79.4 3.7 21.2 4.9 26.2 10.7 42 4.2 11.6 4.4 12.7 3.3 16.9-.8 3.4-.8 4.7.2 5.9 1.9 2.4 8.8 6.4 9.7 5.8.5-.2 2.1-3.4 3.7-7s3.6-6.8 4.6-7.1c.9-.3 6.8.4 13 1.5s14 2.2 17.3 2.6c11.7 1.2 28.8 4.6 35.5 6.9 3.3 1.2 9.2.7 10.7-.8 1-1-3.3-8.1-10.7-18.1-14.6-19.5-24.4-38.6-31.8-62-8.8-27.3-12.1-43.9-12.2-59.5 0-7.1-.3-8.7-1.8-9.6-2.3-1.5-8-2.8-11.3-2.6-4.7.3-6.5-2.4-7.8-12.2l-1.2-8.9 2.7-2.8c1.9-1.9 4.1-3 7.3-3.5 2.5-.4 6.6-1.4 9.1-2.4 4.7-1.8 5.3-1.8 11 .6l3.5 1.5 42-17.7c23.1-9.7 43-18.6 44.3-19.8 1.2-1.1 3.9-3.9 6-6.1 6.7-7.2 10.8-11 15-13.9 2.3-1.6 4.5-3.9 4.8-5 .4-1.2 1.3-2.9 2.2-3.9 1.4-1.6 1.2-1.7-2.9-1.6-5.3.1-10.3 1.7-5.6 1.8 3.5.1 2.7 1.6-1.2 2.4-1.6.4-4.5 2.2-6.4 4.2-1.9 1.9-3.7 3.5-4.1 3.5s-2.2 1.2-4.1 2.6c-2.7 2-3.8 2.3-5.4 1.5-3-1.6-4.1-1.3-4.1 1 0 1.7-.4 2-2.4 1.5-1.8-.4-2.9-.1-3.9 1.4s-2.3 2-4.8 1.8c-3.1-.3-3.4-.1-3.2 2.2.2 1.9-.4 2.8-2.4 3.7-1.5.7-3.5 1.3-4.4 1.3-1 0-2.2.7-2.7 1.6-.8 1.4-1.4 1.5-4.2.6-3.7-1.3-5-.9-5 1.7 0 1.3-.7 1.6-3.2 1.3-4.1-.4-8.8 1.3-8.8 3.3 0 1.1-.7 1.3-2.7.9-2.2-.4-3.4.1-5.7 2.5-2.1 2.2-3.9 3.1-6.1 3.1-1.7 0-3.6.5-4.2 1.1-.8.8-1.7.8-3.1 0-3.4-1.8-5.2-1.3-6.3 1.9-.9 2.6-1.3 2.8-3 1.7-1.2-.7-1.8-1.9-1.5-3 .2-.9 0-1.7-.4-1.7-.5 0-1.4.8-1.9 1.7-.6 1-1.1 1.3-1.1.6 0-2.4 1.3-4.3 3.1-4.3 1 0 1.9-.5 1.9-1 0-.6 1.1-1 2.5-1s2.8-.7 3.2-1.5c.7-2 6.6-4.5 10.7-4.5 3.7 0 6.1-1.4 5.2-2.8-.4-.7.5-.9 2.9-.5 2.8.5 3.5.2 3.5-1.1 0-1.2.8-1.6 3.2-1.4 1.8.1 3.3-.3 3.6-1 .2-.6 1.4-1.2 2.7-1.2 2.6 0 7.5-3.9 7.5-6 0-.9 1-1 3.4-.6 2 .4 3.7.2 4.1-.4.3-.5 1.9-1 3.6-1 1.9 0 2.9-.5 2.9-1.5 0-1.1 1.2-1.5 4.5-1.5s4.5-.4 4.5-1.5c0-1 1-1.5 3.4-1.5 2.1 0 3.6-.6 4-1.6.3-.8 1-1.3 1.5-1s2.5.8 4.5 1.1l3.7.4-2.3-3.1c-2-2.9-2.1-3.1-.2-2.4 3.5 1.5 6.4 1.9 6.4.8 0-.6 1-1.2 2.3-1.4 1.4-.2 2.1-.9 2-2.1q-.15-1.95 1.5-1.2c1.5.5 1.5.4.2-.8-1.8-1.7-12.3-5.7-14.8-5.7-.9.1-28.7 11.1-61.7 24.5m-25.6 27.7c-2.6 8.1-3.3 8.6-2.6 1.6.6-6.4 1.2-7.8 3.2-7.8 1 0 .9 1.3-.6 6.2m-6.6-1.8c2.1 1.6 2.2 4.5.2 5.2-.8.4-1.5 1.5-1.5 2.6 0 1.6-.5 1.9-2.4 1.4-1.8-.4-3.2.1-5.2 1.9-1.5 1.4-3.7 2.5-4.9 2.5-1.3 0-2.8.7-3.5 1.5-.8.9-2.1 1.3-3.6.9-2-.5-2.4-.2-2.4 1.8 0 2.1-.3 2.3-4 2l-3.9-.4 2.7-3.4c1.5-1.9 3.5-3.4 4.5-3.4.9 0 2.6-.9 3.8-2.1s3.2-2 4.7-1.9c4.6.3 5.2.1 5.2-2.2 0-1.7.3-1.9 1.2-1 2.2 2.2 3.8 1.3 3.8-2.2 0-3 .9-4.3 3-4.5.3 0 1.3.6 2.3 1.3m-34.9 27.8c1.4 9.7 1.6 14.3.5 12.8-.8-1.1-.9-.7-.4 1.8.4 1.7.8 5.3 1 7.9.3 4.7.3 4.7-1.2 2-1.9-3.7-2.8-15.1-1.1-14.1.8.5.9.2.3-1.2-1.1-2.6-1.7-14.6-.6-14 .5.3 1.1 2.5 1.5 4.8m-3.1 86.5c-.8 2.3-3.4 5.3-4.5 5.3-1.7 0-.7-3 1.8-4.9 3.2-2.5 3.5-2.6 2.7-.4m-.5 14.9c-1.6 3.4-3.6 4.2-4.5 1.8-.4-1.2.3-2.5 2.2-4.2 3.3-2.8 4.3-1.7 2.3 2.4m7 8.1c-3.3 9.7-6.4 13.4-8.3 10.3-1-1.6 2.4-8.3 6.3-12.3 2-2 3.7-3.7 3.8-3.7s-.7 2.6-1.8 5.7m4.2 12.5c-2.3 8.3-5.6 15.8-6.9 15.8-3 0-3-5.4-.1-11.1 1.7-3.2 8.2-12.1 8.6-11.7.1.2-.6 3.3-1.6 7m1 16.5c-1.1 8.8-2 12.3-3.4 12.3-1.8 0-3.6-2.1-3.6-4.3 0-2.1 5.9-13.7 7-13.7.3 0 .3 2.6 0 5.7m22.9 19.8c8.6 3.7 11.5 4.5 6.9 1.9-5.3-2.8-2.7-3.4 4-.8 4 1.6 9.3 2.7 13.2 3 3.6.1 8.8.9 11.5 1.8 5 1.4 5 1.4 1.4 1.5-2 .1-6.1-.4-9-.9-3-.6-7.4-1.3-9.9-1.5s-5.4-.6-6.5-1c-1.4-.4-1.2-.1.5.9 2.5 1.5 2.4 1.5-1.5.9-5-.7-17.9-5.9-19.6-7.9-1.7-2.1-.2-1.7 9 2.1M232 160.9c-1.2 1.7-1.7 3.1-1.1 3.1 1.3 0 4.6-4.8 3.8-5.6-.2-.3-1.5.9-2.7 2.5m-7 5.6c-.7.9-1 1.8-.7 2.2.8.7 3.7-1.5 3.7-2.8 0-1.4-1.6-1.1-3 .6m-1.5 4.5-3 .8 3.2.1c1.7 0 3.5-.4 3.8-.9.7-1.1.3-1.1-4 0"/>
        <path d="M163 172c0 .5 1 1.5 2.3 2.1 2.2 1.2 2.2 1.2.3-1-2.1-2.3-2.6-2.6-2.6-1.1m-1 3.5c.7.8 1.7 1.5 2.2 1.5.6 0 .5-.7-.2-1.5s-1.7-1.5-2.2-1.5c-.6 0-.5.7.2 1.5m99.5 6.4c-20.3 8.2-30.9 13.1-34.5 16-1.9 1.5-4.4 3.1-5.5 3.6-1.8.8-1.7.9.8 1.3 2.2.3 4.1 2.3 9.7 10.7 3.9 5.8 7 11.1 7 12 0 2.5 2.2 1.7 4.8-1.7 1.2-1.5 1-2.5-1.5-7-4.4-7.9-3.6-10.4 4.7-14.5 17.1-8.5 24.4-10.6 28-8.3 1.1.7.6 1-2 1-3.2 0-8.1 2.2-21.4 9.4-2.7 1.4-5.5 2.6-6.2 2.6-.8 0-1.4.6-1.4 1.4 0 2.3 5.2 2.6 9.5.4 5.1-2.5 17.3-6.8 19.5-6.8 1 0 3.3 2.4 5.3 5.5 2 3 4.5 5.8 5.5 6.4 1.6.8 1.7.6 1.4-2.7-.8-6.8-9.6-15.2-14.4-13.6-1.5.4-1.8.3-1.3-.6 1-1.7 8.7-.7 12 1.4 1.5 1 5.3 5.9 8.6 10.9 3.4 5.1 6.5 9.4 7.1 9.6 1.2.4-.6-3.3-3.8-7.6-1.4-1.8-2.7-5.3-3.1-7.8-.4-3-1.3-5.2-2.7-6.3-1.2-.9-2.5-2.6-3-3.7-.6-1.6-.9-1.7-1.6-.5s-1.7 1.1-6.4-.5c-7.4-2.5-12.7-1.4-27.2 5.7-8.5 4.1-11 5.8-11.2 7.5-.3 2.1-2.2 3.3-2.2 1.4 0-.4-1.1-2.4-2.4-4.4l-2.4-3.5 8.6-4c4.8-2.2 13.7-6.1 19.7-8.7 6.1-2.6 11.5-5.3 12.1-6.1s1.6-1.4 2.3-1.4c.6 0 1.1-.5 1.1-1 0-1.5-.6-1.3-13.5 3.9M235 195.4c0 .2-1.6 1.3-3.5 2.5-1.9 1.1-3.5 1.7-3.5 1.2 0-.4 1.5-1.5 3.3-2.4 3.7-1.8 3.7-1.8 3.7-1.3m53 5.9c0 .5-.7.4-1.5-.3s-1.5-2-1.5-2.9c.1-1.3.3-1.3 1.5.3.8 1.1 1.5 2.4 1.5 2.9m-20-2.8c0 .5-6.8 3.5-7.9 3.5-.8-.1 6.1-3.9 7.2-4 .4 0 .7.2.7.5"/>
        <path d="M272.9 181.6c-1 1.3-1 1.7.2 2.5 1.9 1.2 6.2 1.1 5.4-.1-.3-.6-1.3-1-2.2-1-1.3 0-1.3-.3-.3-1.5s1-1.5-.3-1.5c-.8 0-2 .7-2.8 1.6m-16.9 9.5c-8.5 3.4-16.7 6.5-18.2 7.1-2.4.9-3.9 2.8-2.2 2.8.4 0 24.2-9 35.7-13.5 1.7-.7 2.4-2.5 1-2.5-.5 0-7.8 2.8-16.3 6.1m23-4.2c0 .5.5 1.3 1 1.6.6.3 1 .2 1-.4 0-.5-.4-1.3-1-1.6-.5-.3-1-.2-1 .4M128.5 188c-.8 1.3.4 3.2 1.6 2.5 1.2-.8 1.2-3.5 0-3.5-.6 0-1.3.4-1.6 1m-4.1 1.6c.3.9.6 1.8.6 2s.5.4 1 .4c.6 0 1-.9 1-2 0-1.2-.7-2-1.6-2-1.1 0-1.4.5-1 1.6m79.1 5c5.5 4.8 5.4 5.8-.3 1.9-4.9-3.3-6.8-3.2-16.5 1.2-9.4 4.2-9.2 4.1-8.4 4.9.3.3 4.6-1.2 9.5-3.5s9.5-4.1 10.2-4.1c1.4 0 12 7.7 12 8.7s-4.4 7.3-5.1 7.3c-.3 0-4.5-1.4-9.4-3-4.9-1.7-9.1-3-9.4-3-1.5.1 3.9 2.5 11.5 5l8.4 2.9 2.5-2.7c3.7-4 4-6 1.4-8.8-1.2-1.3-1.7-2.4-1-2.4 2.2 0-5-7.8-7.7-8.3-2.4-.4-2.1 0 2.3 3.9m-22-.7c-2.2.9-5.6 2.6-7.7 3.6-2 1.1-5.2 2.8-7.2 3.9-2 1-3.5 2-3.3 2.2s6-2.3 12.8-5.6c11.4-5.5 14.8-8.1 5.4-4.1M308 201c-.9.6-1 1-.3 1 .6 0 1.5-.5 1.8-1 .8-1.2.4-1.2-1.5 0m-92.9 6.4c-2.3 7.6-2.5 8.6-1.2 8.6 1.1 0 4.5-12.3 3.9-14.1-.3-.8-1.5 1.7-2.7 5.5m79.9-2.9c0 .2.5 1.6 1.2 3 1.2 2.8 3 3.2 4.7 1.2.8-1.1.3-1.7-2.4-3-1.9-.9-3.5-1.5-3.5-1.2m-121 3.2c0 1 62.9 20.7 63.7 19.9.7-.7 3.3.2-31.6-10.6-16.1-5.1-30-9.4-30.7-9.7-.8-.3-1.4-.1-1.4.4m-29.5 3.4c-2.2 1-2.9 1.6-1.5 1.3 2.8-.7 8-3.3 6.5-3.3-.5 0-2.8.9-5 2m28.5.8c0 1 37.5 12.2 40.5 12 1.7-.1-3.3-1.8-21.6-7.5-18.9-5.8-18.9-5.8-18.9-4.5m47.7 2.4c-.9 1.5-1.3 2.8-.7 3.2 1.1.6 3.3-3.1 2.8-4.7-.2-.6-1.2.1-2.1 1.5m-88.2 1.1c-8.9 3.4-23.3 10.5-24.1 11.8-.5.8-.2.9.9.5 1.8-.7 2.3.9.9 2.9-.5.9-2.8.5-8.3-1.3-6.9-2.3-7.9-2.4-10.5-1.2-1.8.9-2.9 2.2-2.9 3.4 0 1.8.9 2.1 7.5 2.5 7.5.5 10.6 1.6 12.9 4.4 2.3 2.7.1 4-2.6 1.5-2-2-3.8-2.4-11.8-2.9-5.2-.3-9.5-.2-9.5.2 0 .6 3.4 1.3 13.1 2.3 4.2.5 6.3 1.2 8 3.1 2.7 2.8 3.2 2.9 5.3.8 2.4-2.3 2-4.3-1.6-7.7-2.2-2-2.6-2.6-1.1-1.8 1.2.6 2.5 1.6 2.8 2.1 1.2 2 3.3.9 3.9-2 .4-2.5 1-3 3.4-3s3.2.7 4.7 4c2.5 5.4 5.9 9 8.7 9 3.5 0 37.7 11.4 37.6 12.5-.3 1.7 3.1 8.5 4.1 8.5 1.6 0 6.5 8.2 6.3 10.4 0 1.1-.8 2.4-1.7 2.8-2.8 1.6-.9 10.4 3.5 16 2.1 2.5 5.8 8.3 8.4 12.7 5.2 9 6 9.6 18.6 13.6 8.1 2.5 10.3 2.7 14.3 1q1.8-.75 1.5.6c-.7 3.5-10.1 2.3-23.6-3-5.6-2.2-7.6-1.4-6.5 2.8.3 1.3.1 2.6-.4 3-.6.4-.8 3.7-.4 8.8.5 6.5 1.1 8.6 2.9 10.5 1.2 1.4 2.2 2.8 2.2 3.4 0 .5 2.3 2.9 5.1 5.4 4.6 4.1 5.2 5.1 5.5 9.5.3 2.6 1.3 6.8 2.4 9.3 1.7 3.7 2 6.7 2 17.4 0 10.5-.3 13-1.5 13.4-1.2.5-1.4 1.8-.9 6.3.4 3.1 1 6 1.5 6.5 1.6 1.7 1 5.2-1.2 7.2-1.7 1.5-2 2.7-1.6 6.2.2 2.3 1.2 5.1 2.1 6.1 1.6 1.8 2.4 14.1.9 14.1-.5 0-5.5-1.3-11.3-2.9-11.4-3.2-28.7-7.3-39-9.2-7.5-1.3-28-1.4-32.7 0-3 .9-3.2.8-4-2.7-.6-2.5-2-4.4-4.3-6-3.7-2.5-4.7-4.6-4.9-10.3-.1-3.4 0-3.6 5.4-5.3 3.1-.9 7-2.4 8.8-3.2 3.1-1.4 3-1.4-2.8-.8-3.3.4-7.2 1.3-8.7 2-1.5.8-3.5 1.4-4.6 1.4-3.8 0-4.1 1.8-1.6 11.2 2 8.1 2.8 9.6 6.3 12.9 2.5 2.2 4.4 4.9 4.7 6.9 1 5 4.3 6.5 11.1 5.1 10.9-2.2 41.7-.5 51.8 2.9l3 1-3-.5c-1.6-.3-7.5-.7-13-1l-10-.5 7.5 1.4c4.1.7 9.3 1.8 11.5 2.4 7.3 2 29.6 5.3 31.6 4.7 1-.4 1.9-.2 1.9.3 0 2.3 11.2 4.3 13.2 2.3.4-.4 12.1 2.2 26 5.6s25.9 6.2 26.7 6c1.8-.3-25-8.3-39.1-11.6-8.3-2-10.5-2.9-9.9-3.9.7-1.1 3.1-.7 12.2 2.2 6.3 1.9 22.7 6.5 36.4 10.1 13.8 3.7 26.4 7.2 28 8 1.7.7 8 2.1 14 3 6.1 1 12.6 2.6 14.5 3.6 1.9.9 5.7 2.5 8.3 3.5l4.8 1.7-2.8 1.8c-1.8 1.2-3 1.5-3.4.8-.9-1.6-4.4-.7-4.4 1.1 0 1.1 1.3 1.6 4.7 1.8 4 .3 5.2-.1 7.3-2.2 3.3-3.3 3.3-6.6.1-6.6-1.4 0-12.1-2.9-23.8-6.4-11.8-3.6-35.3-10.2-52.3-14.7-17.1-4.5-33.5-8.9-36.7-9.8-5.3-1.4-5.6-1.7-6.2-5.1-1.1-6.9-.7-10.8 1.2-11.5 2.3-.7 4.2-4.6 4.2-8.4 0-2.7-2.6-6.1-4.7-6.1-.6 0-1.4-1.2-1.7-2.7-.7-2.4 0-3.5 2.6-4.5.3-.2.8-2.4.9-5 .2-3.4-.2-5.2-1.5-6.7-1.6-1.7-1.8-3.6-1.4-16.5.3-13.1.5-14.7 2.3-16 2-1.4 2-1.5.2-8.6-1.5-5.7-1.7-8-.8-11.8 3.4-15.6 4.4-23.2 3.1-24.7-.7-.8-2.1-1.5-3.2-1.5-3.4 0-8.8-2.8-8.3-4.3.3-.7-.5-1.9-1.8-2.6-2.1-1.1-2.8-1-5.1.4-2.6 1.7-3 1.7-12.5-1.4-9.8-3.1-9.9-3.2-13.2-8.4-6.5-10.5-6.7-9.8 1.9-6.4 4.2 1.6 8.5 3.3 9.4 3.8 1 .5 2.7.9 3.8.9 1.2 0 1.9.4 1.5.9-.8 1.3 3.5 5.1 5.7 5.1 1 0 1.8-.7 1.8-1.5 0-.9.7-1.8 1.5-2.1 2.3-.9 1.8-2.3-1-3-1.4-.3-2.5-1-2.5-1.5 0-1-21.7-11.6-27.8-13.5-2.3-.7-4-.9-3.7-.4 1.2 1.9-1.2 1-3.3-1.3-3.2-3.4-2.7-3.8 2-2.1 2.3.8 4.9 1.2 5.9.9s4.9.6 8.6 2c14.1 5.5 18.3 6.7 18.3 5.6 0-.5-2.7-1.6-6-2.5s-6-1.9-6-2.2.6-.4 1.3-.3c2.9.4 3.7-.2 3.5-2.7-.2-1.7-1.1-2.9-2.7-3.5-1.3-.5-2.2-1.2-1.9-1.5.3-.2 1.7 0 3.2.6 3.3 1.2 4.6 1.3 4.6.2 0-.4-6.7-2.9-14.8-5.5-13-4.2-15-5.1-16.6-7.7-1.6-2.8-1.1-4 1-2.1 2.9 2.6 26.4 6.1 26.4 3.9 0-.4-.6-.8-1.3-.8-.8 0-1.9-1.1-2.5-2.4-1.1-2.4-1.1-2.4 7.1.9 4.5 1.8 8.4 3.1 8.6 2.9.6-.6.5-.7-10.3-4.8-14-5.5-35-15.4-35.5-16.7-.2-.8.1-.9 1-.3 1.4.9 1.9 1 5.4 1.3 1.7.1 1.8.3.5 1.2-1.1.8-.8.9 1.5.4 5.2-1.1 25.5-11.6 25.5-13.2 0-1 .6-1.2 1.9-.8 1.1.3 5.4.7 9.8.9 4.3.3 8.6.8 9.7 1.2 1.4.5 1.7.3 1.4-.7-.2-.7-1.5-1.6-2.9-2-2.2-.6-2.1-.7 1-1 3.4-.4 3.3-.5-4-4-4.1-2-8.5-4.1-9.9-4.7l-2.5-1.2 2.5.5c5.9 1.4-1.4-1.6-17.1-6.8-24.6-8.2-32.8-10.6-33.3-9.8-.3.4 3.5 2 8.4 3.6s8.8 3 8.6 3.2c-.1.2-5.2-.9-11.3-2.3-10.2-2.4-11.3-2.5-14.4-1.1-1.9.8-5.7 1.8-8.5 2-2.8.3-7.8 1.7-11.1 3-4.9 2-6.3 2.2-7.7 1.2-2.8-2.1-5.6-.7-5.6 2.6s-2.2 4.8-4.4 3c-1.2-1-1.2-1.6 0-4.1 1.1-2 3.5-3.8 8.2-6 11.6-5.3 12.7-5.9 11.7-5.9-.5 0-3.7 1-7 2.3m36.4 6.7c2.4 1 6.3 2.2 8.5 2.5 2.3.3 7.7 1.6 12.1 2.9 4.4 1.4 9.7 2.7 11.7 3 3.3.5 8.8 5.1 8.8 7.4 0 1.2-7.1 4.8-15.9 8-7.3 2.7-8.5 2.9-10.7 1.8-2.5-1.3-2.4-1.4 4.8-4.2 11.4-4.5 17-7.2 16-7.9-.9-.6-11.1 3.4-21 8.2-3.5 1.7-4.8 1.9-7.5 1-1.8-.6-3.7-1.7-4.3-2.4-1.4-1.8-5.9-3.4-9.4-3.4-6.8 0-6-1.3 3.2-5.2 9.3-4 12.4-5.8 9.9-5.8-2 0-17.2 6.8-19.3 8.6-1.6 1.6-2.1 1.6-6.1 0-2.3-.9-5-1.6-5.9-1.6-.8 0-2.1-.6-2.7-1.4-1.9-2.3.7-2.5 4.8-.4 3.9 2 6.1 2.3 6.1.8 0-.6-.8-1-1.8-1s-2.6-.6-3.5-1.3c-1.5-1-.9-1.6 4.7-4.6 6-3.2 6.4-3.6 5.5-5.9-.9-2.4-.9-2.5 3.3-1.8 2.3.4 6.2 1.6 8.7 2.7m-70.6 8.6c-1.3.2-3.3.2-4.5 0-1.3-.2-.3-.4 2.2-.4s3.5.2 2.3.4M131 237c2.9 3.7 3 4 1.1 4-1.4 0-2.7-1.3-4.1-4-3.3-6.6-2.2-6.6 3 0m82.7 2.6c-.3.3-1.2.4-1.9.1-.8-.3-.5-.6.6-.6 1.1-.1 1.7.2 1.3.5m6.8 1.4c2.5 1.1-.1 1.1-3.5 0-2-.6-2.1-.8-.5-.8 1.1 0 2.9.3 4 .8m-61.7 6.6c6.7 2.1 12.2 4.1 12.2 4.6 0 1.1-3.2.3-18-4.9-14.9-5.1-11.5-5 5.8.3m35.8 1.5c-3.2 1.7-6.1 2.8-6.4 2.5-.7-.8-.5-.9 5.3-3.3 7.3-3.1 7.9-2.7 1.1.8m33.1 78.4c1.5.9 4 2 5.6 2.5 1.5.5 2.7 1.6 2.7 2.4 0 1.1-1.5.7-6-1.6-5.7-2.8-8.2-4.8-6.1-4.8.5 0 2.2.7 3.8 1.5M238 329c0 1.3-1.1 1.3-3 0-1.2-.8-1.1-1 .8-1 1.2 0 2.2.4 2.2 1m-7.2 4.5c5.7 3.1 5.5 2.3 3.6 13.9-1.4 8.5-1.5 11.4-.6 14.4.7 2 1.3 5 1.4 6.7.3 2.8 0 3-3.4 3.3-4.3.4-5.2-1.2-1.3-2.2 1.6-.4 2.5-1.3 2.5-2.6 0-1.9-3.5-5-5.7-5-1.6 0-10.7-8.9-10-9.7.4-.3 1.3 0 2.2.7 3 2.5 1.4-.4-2.6-4.7-3.5-3.8-3.9-4.6-2.6-5.6.9-.7 1.7-2.1 1.9-3.2.4-2.4 1.6-2.5 4.6-.4 1.7 1.2 2.4 3 2.9 6.7.3 3.1 1.3 5.8 2.4 6.8s1.9 2.9 1.9 4.3c0 1.9.3 2.2 1.1 1.4.7-.7 1.3-4.7 1.4-9 .2-4.3.5-8.5.9-9.3.4-.9-.4-2.6-1.9-4.2-3.8-4.1-3.3-4.8 1.3-2.3m-31.8 6.9c0 .8.7 1.9 1.5 2.6.9.7 1.3 1.5 1 1.8-.9.9-4.5-3.1-4.5-5 0-1.1.5-1.6 1-1.3.6.3 1 1.2 1 1.9m4 8.6c0 .5-.2 1-.4 1-.3 0-.8-.5-1.1-1-.3-.6-.1-1 .4-1 .6 0 1.1.4 1.1 1m9.6 14.6c.9 1.4 1.7 3.7 1.8 5.2.1 1.7.9 3.1 2.6 3.9 1.3.6 2.7 2.1 3.1 3.1.5 1.4 2.1 2.1 5.8 2.6l5.1.7v13.4c0 7.3-.4 13.6-.8 13.9-1.1.6-9.4-1.4-10.7-2.6-.6-.6-.3-.7.7-.3 1.3.5 2 0 2.8-2.1.6-1.6 1.5-3.1 1.9-3.4s.4-4.1 0-8.5c-.7-6.7-1.2-8.3-3.2-10-1.3-1.1-3-2.9-3.6-4-1-1.7-1.1-1.5-.6 1.7.4 2.4.2 3.8-.5 3.8-.5 0-1-1.8-1-4 0-2.7-.4-4-1.4-4-.8 0-1.9-2.3-2.9-6-.8-3.3-1.3-6-1.1-6s1.1 1.1 2 2.6m5.5 3.7c2 3.9 2 5.5 0 4.2-.6-.3-1.1-1.4-1.1-2.3s-1-3.3-2.1-5.2c-1.6-2.6-1.7-3.1-.4-2 .9.7 2.5 3.1 3.6 5.3m12.7-1.5c.3.9-.3 1.3-1.9 1-1.2-.1-2.4-.9-2.7-1.6-.3-.9.3-1.3 1.9-1 1.2.1 2.4.9 2.7 1.6M233 376c0 .5-.9 1-2 1s-2-.5-2-1c0-.6.9-1 2-1s2 .4 2 1m-1 35.1c1.4 2.4.7 4.9-1.4 4.9-1.3 0-2.9-4.8-1.9-6.2.8-1.4 2.2-.8 3.3 1.3m-14 8.9c0 1.6-.4 3-1 3-.5 0-1-1.4-1-3 0-1.7.5-3 1-3 .6 0 1 1.3 1 3m12.4 1.2c1 3.7.8 3.9-3.6 3.6-3.9-.3-4.3-.6-4.6-3.1s-.1-2.7 3.6-2.7c3.3 0 4.1.4 4.6 2.2m2.2 11.4c.9 4.6-1.1 6.9-2.6 3-1.4-3.8-1.3-6.6.5-6.6.8 0 1.7 1.4 2.1 3.6m-55.6 10c22.2 4.9 36.2 9 37.7 11 .7 1 1.2 1.9 1 2-.7.8-37-8.8-39.9-10.6-4.4-2.5-16.5-4.5-18.4-2.9-.8.6-1.1 1.5-.8 2s-3.6.9-8.6.9-11.1.5-13.6 1.1c-4.7 1.2-7.4.2-7.4-2.7 0-2.2 4.5-3.4 15.9-4.3 12.9-1 14.6-.8 34.1 3.5m39.7-1.4c-.3.7-.5.2-.5-1.2s.2-1.9.5-1.3c.2.7.2 1.9 0 2.5m3.7 2.1c-1.3 11.7-1.6 13-2.5 11.6-.9-1.3-.2-14.4.8-16.2 1.1-1.9 2.1.7 1.7 4.6m8-3.3c2.1 0 2.4.6 2.9 7.2.7 8.2-.5 11.3-4.8 12.4-4.6 1.1-5.6-.9-4.9-10 .7-10 1-11 3-10.2.9.3 2.6.6 3.8.6m-54.4 5.6c.8.8-1 .8-5.7.2-9.9-1.2-10.8-1.7-2.6-1.5 4 .2 7.7.7 8.3 1.3m19.7 7c-.3.3-1.2.4-1.9.1-.8-.3-.5-.6.6-.6 1.1-.1 1.7.2 1.3.5"/>
        <path d="M157.5 227.4c-2.7 1.4-4.3 2.5-3.4 2.5 1.9.1 11.1-2.9 12.4-4 1.9-1.9-4.2-.8-9 1.5m18.5 4.4c-2.3 1-2.9 1.7-1.9 1.9.8.2 3.5-.5 6-1.6 3.5-1.6 3.9-2 1.9-1.9-1.4 0-4.1.7-6 1.6m12 4.3c-2.5 1.2-4 2.3-3.4 2.6 1.1.4 12.4-3.5 12.4-4.3 0-1.1-5-.1-9 1.7m-21.9-.2c-.8.5-.9 1.1-.3 1.5.5.3 1.5-.1 2.2-.9 1.4-1.6.3-2-1.9-.6m9.9 5.1c-1.3.8-1.3 1 .2 1 .9 0 2-.5 2.3-1 .8-1.3-.5-1.3-2.5 0m40.1 102.4c.2 1 1.5 2.6 2.8 3.5 2.3 1.5 2.4 1.5 1.3-.5-.6-1.1-1.8-2.7-2.8-3.5-1.4-1.2-1.6-1.1-1.3.5m11 42.8c.2 10.4 1.7 12.6 1.8 2.5.1-5.2-.3-8.7-.9-8.7s-1 2.7-.9 6.2M224 457c0 .5.7 1 1.5 1s1.5-.5 1.5-1c0-.6-.7-1-1.5-1s-1.5.4-1.5 1m23.4-238.4c.4.9 0 2.7-.9 4-1.5 2.3-1.4 2.3.7 1.4 1.3-.5 5.7-2.2 9.8-3.9 7.7-3.1 8.4-3.9 1.6-2-2.7.8-4.1.8-4.9 0-.6-.6-2.4-1.1-4-1.1-2.3 0-2.8.4-2.3 1.6m10.1 9.2c-8.5 4.5-14.6 8.2-13.4 8.2.9 0 14.2-4.7 17.2-6 1.5-.7 2.7-1.8 2.7-2.3s1.2-.7 2.8-.3c1.5.3 5.2 1.1 8.2 1.7 9.9 1.9 59.1 17.9 61.7 20 2 1.7 1.7 2.2-3.3 6-2.5 1.9-5.4 5-6.4 6.9-1.9 3.9-6.5 19.3-7.6 25.5-.3 2.2-2.2 10-4 17.3-1.9 7.3-3.4 14.1-3.4 15.1s-.7 3.2-1.6 4.9c-2 4-1.5 6.2 1.4 7.3 1.9.7 2.4.4 3.2-1.6.5-1.4.7-3.9.3-5.6-.6-3.2 1.5-13.9 2.8-13.9.7 0 3.1-6.1 3.4-8.5.1-.6.6-2.2 1.3-3.8 2.4-5.5 3.3-8.3 6.8-20.1 1.9-6.7 4.6-13.7 5.9-15.6 3.7-5.6 4.9-11.4 3.1-15.2-.9-1.7-1.6-3.7-1.6-4.3 0-1.2-18.1-8.8-19.7-8.3-.5.1-3.9-1-7.8-2.5-8.6-3.3-26.2-8.7-28.3-8.7-3.6 0 1.2 2 18.3 7.4 21.4 6.9 22.9 7.5 22.2 8.2-.3.3-12.7-3.3-27.5-8-14.9-4.7-27.2-8.6-27.4-8.6-.1.1-4.3 2.2-9.3 4.8M327 241c1.3.8 1.3 1-.2 1-.9 0-2-.5-2.3-1-.8-1.3.5-1.3 2.5 0m-7 63.5c0 .8-.4 1.5-1 1.5-.5 0-.7-.7-.4-1.5.4-.8.8-1.5 1-1.5s.4.7.4 1.5M84 229.1c0 .5.5.7 1 .4.6-.3 1-.8 1-1.1 0-.2-.4-.4-1-.4-.5 0-1 .5-1 1.1"/>
        <path d="M255.6 234.9c-4.8 2.7-9.2 5.4-9.6 6.1-.5.9-.9.9-1.4.1-1.1-1.7-2.9-1.3-2.2.4.3.9 0 1.5-.8 1.5s-1.6 1-1.9 2.2c-.2 1.3-2.8 9.9-5.6 19.2-3.8 12.6-5.1 18.5-5.1 23.1 0 6.5.7 7.5 4.9 7.5 2.9 0 5.5-11 3-12.6-.7-.4-.2-1.6 1.4-3.3s4.2-7.9 7.2-17.4l4.8-14.8 7.8-4c8.5-4.2 8.7-4.3 10.7-3 1 .6.2 3.8-3.7 14.5-5.4 14.7-6.1 19.3-3.3 21.9 1.7 1.6 16.1 7.7 18.1 7.7.6 0 1.1.6 1.1 1.3 0 .8 1.9 4.3 4.2 7.8s6 10 8.2 14.4c3 5.9 4.2 7.4 4.4 5.8.4-2.6-2.2-7.8-9.4-19.4-3-4.7-5.4-9.1-5.4-9.8 0-.6-1.1-1.7-2.5-2.3-4.2-1.9-2.8-2.8 2-1.1 3.9 1.3 4.5 1.9 4.5 4.2 0 1.6 1.3 4.6 2.8 6.7 1.6 2.1 4.4 6.5 6.2 9.6 1.9 3.2 3.7 5.8 4.1 5.8 1.3 0 3.6-6.6 10.8-32.1 1.7-5.8 3.3-12.1 3.6-14 .7-3.9 3.1-6.9 5.5-6.9 1 0 3.3-.6 5.1-1.4l3.4-1.4-2.7-1.1c-5.2-2-52.3-16.9-55.5-17.6-1.8-.3-3.5-1.1-3.8-1.6-.9-1.3-1.2-1.2-10.9 4m18 .9c.7.4 1.9 2.5 2.8 4.6 1.6 3.8 1.5 4.3-.8 11.5-2.2 6.7-3 9.7-5.2 18.6-1.3 5.1 1.9-2.2 5.7-13.1 3.1-8.9 3.9-12.6 3.4-15.2-.5-2.7-.3-3.3.7-2.9.7.3 4.8 2 9.1 3.8 9.3 3.8 9.2 2.6 2.1 20.8-2.6 6.6-4.4 12.7-4 13.6 1.2 3.3 4.1.9 7.8-6.5 4.7-9.4 6.6-16.4 5.2-18.8-.6-.9-.8-2.5-.5-3.5.5-1.5.9-1.6 2.4-.5 1.7 1.3 1.7 1.7-.1 8.8-4.4 17.4-7.3 24-10.7 24-2 0-6.5-2.5-6.5-3.6 0-.6 1.8-6.8 4-13.7 2.2-6.8 4-13.4 4-14.6 0-5-1.9-1.1-6.5 12.9-3 9.5-5.3 15-6.2 15-1.8 0-1.8.2 2.2-12 4-12.6 5.3-19 3.6-19-.6 0-3.2 6.7-5.8 14.8l-4.7 14.9-3.4-1.1c-1.9-.5-3.6-1.6-3.9-2.2-.3-.7 1.4-7.1 3.6-14.2 2.3-7.2 4.1-13.7 4.1-14.5s-1.8-2.7-4-4.2c-3-2-3.7-3.1-2.8-3.6 1.6-1.1 3-1.1 4.4-.1m37.2 12c-2.7.3-31.7-9.7-31.8-10.9 0-.4 7.8 1.8 17.3 5 11.5 3.7 16.3 5.7 14.5 5.9M256 241c-1.9 1.1-4.3 1.9-5.3 2-.9 0-2.2 1-2.7 2.2-1.9 4.7-9 27.8-9 29.2 0 .9-.9 2-1.9 2.6-2.4 1.2-3.6 4.7-2.2 6.3 1.6 2-.7 9.7-2.9 9.7-1.7 0-1.7-.4-.4-6.3 2.1-9.1 13-41.8 13.7-41.1.3.3 1.3-.8 2.1-2.4 1.6-3 2.2-3.3 10.6-4 .8-.1-.1.7-2 1.8m18 1.3c0 .1-2.2 6.7-5 14.6-5.6 16.3-5.5 17 1.5 19.6 2.5 1 4.5 2.2 4.5 2.6 0 1.2-.1 1.2-6.4-1.7-4.8-2.2-5.6-2.9-5.6-5.2 0-3.2 9.2-30.2 10.3-30.2.4 0 .7.1.7.3m20.4 24.6c-.9 2.3-1.8 4-2.1 3.8-.2-.3.4-2.3 1.3-4.6s1.8-4 2.1-3.8c.2.3-.4 2.3-1.3 4.6"/>
        <path d="M259.3 254.2c-3.9 5.2-5.6 8.3-7.8 14.4-1.2 3.3-.2 6.7 3.3 10.6 1.3 1.6 1.2 2.1-1.1 5.5-1.5 2.1-4 5.5-5.8 7.5-2.4 3-2.7 3.8-1.4 3.8.9 0 2.6-1.1 3.7-2.5s2.6-2.5 3.4-2.5 1.4-.5 1.4-1c0-.6.5-1 1-1 .6 0 1 1.4 1 3.1 0 2.1.9 3.8 2.9 5.5 2.5 2.1 9.1 11.2 9.1 12.6 0 .8-11-1.1-16.3-2.8-2.7-.9-5.1-1.4-5.3-1.1-.3.3 1.1 1 3.1 1.7 5.7 1.9 3.4 2.3-3.3.6-13.8-3.6-13 0 .9 4 4.6 1.3 9.4 2.4 10.6 2.4s2.8.6 3.5 1.3 2.2 1.3 3.3 1.4 5.2 1.3 9 2.8c3.9 1.5 12 4.2 18 6l11 3.2.7-4.1c.4-2.2.9-5.3 1.2-6.9.5-2.5.3-2.7-1.9-2.3-1.4.3-2.9.7-3.5 1.1-2 1.2-5.2-1.8-7.5-6.9-2-4.6-9-16.3-14.1-23.4-1.7-2.5-9.2-6.2-12.5-6.2-1.1 0-2.7-1-3.7-2.2-.9-1.2-2.9-3.4-4.3-4.9-2.2-2.3-2.4-2.9-1.2-4.5.7-1 1.3-2.4 1.3-3.1s1.1-3.6 2.4-6.3c2.4-5 4.2-11 3.3-11-.3 0-2.2 2.4-4.4 5.2m-42.3 1.7c0 .5.7 1.4 1.5 2.1 1.6 1.4 1.8 1 .9-1.4-.6-1.7-2.4-2.2-2.4-.7m-4 1.6c.7.9 1.5 1.3 1.7 1.1.7-.7-.7-2.6-1.9-2.6-.6 0-.6.6.2 1.5m11.3 1.2c-.4 1-1.3 2.2-2 2.6-.8.5-1.1 1.6-.8 2.7s0 2-1 2.4c-2 .7-1.6 5.1.5 5.1.9 0 1.9-1.8 2.7-5 .6-2.8 1.5-6 1.8-7.3.8-2.6-.3-3-1.2-.5M209 278.6c11.5 5.6 11 5.5 11 3.3 0-1.2-.9-2.1-2.7-2.4-4.9-1-9.7-2.2-11.8-2.9-1.1-.4.5.5 3.5 2"/>
        <path d="M244.3 283.5c-1.2 2.7-.7 6.5.9 6.5.5 0 .7-1 .4-2.3-.3-1.2-.3-1.6 0-1 1.6 3.5 3.2-.3 1.8-4.1-.9-2.2-1.7-2-3.1.9m-5.7 31.2c-2.3 2.3 1.4 4 18.2 8.2 12.4 3.2 19.4 4 15.9 2-1.8-1.1-26.2-9.2-30.8-10.3-1.4-.3-2.9-.3-3.3.1m-8.1 7.3c2.8 1.2 5.7 1.2 5 0-.3-.6-2.1-1-3.8-.9-2.7 0-2.9.2-1.2.9M77 410.9c0 1.1-.4 2.3-1 2.6-1.6 1-1.1 7.2.9 11.2 1.1 2.1 2.3 7.1 2.7 11 .8 8.7-.2 9.6-6.6 6.3-5.1-2.6-6-2-7.2 4.7-2.3 12.9-2.3 12.1.7 13.5 2.2 1 3.5.9 7.6-.5 4.6-1.7 5.1-1.7 10.6 0 9.1 2.8 33.5 2.5 47.1-.7 5.6-1.3 11.2-3.2 12.4-4.2s3.5-1.8 5.2-1.9c1.7 0 4.9-.6 7.1-1.4 3.7-1.2 3.4-1.2-5-.8-4.9.3-12.8 1.3-17.5 2.3-13.2 2.9-28.6 4.3-38.1 3.7-9.4-.7-18.9-2.5-18.9-3.5 0-1.2 4-3.3 5.1-2.6.5.3 3.2 0 6-.6l5-1.2-.3-4.6-.3-4.5 5-1.4c2.8-.7 6.3-1.2 7.8-1 2.1.3 2.6 0 2.2-1-.3-.8-.5-2.1-.5-2.9 0-.9-.7-1.4-1.7-1.2-1.4.2-1.9-.8-2.6-5-.5-2.8-1.3-5.2-1.9-5.2-.7 0-.8 1.4-.5 3.6.7 4.1-1.2 4.3-2.7.2-.7-2-.5-3 1.3-4.9 1.4-1.5 1.8-2.6 1.1-3.3s-1.4-.4-2.4.9c-1.2 1.7-1.4 1.6-2.5-1.6-1-3-1.8-3.6-7.6-5.5-6.7-2.1-7.7-2.1-4.7.2 1 .8 1.2 1.3.5 1.4-1.7 0-4.6 4.7-3.8 6 .5.8 1.7.3 3.5-1.5 3.1-3 3.5-2.7 5 4.1 1.4 6.2 3.5 9.4 6.1 9.4 2 0 2 0 .1-2.5-1.1-1.4-2.3-4.2-2.7-6.2-.4-2.1-1.3-5-2.1-6.5s-1-2.8-.5-2.8c1.8 0 4.1 3.1 4.1 5.6 0 4.3 3.1 10.5 5.9 11.6 2.4.9 2.5 1.1.6 1.8-1.1.4-3.5 1.1-5.3 1.5-3.2.7-3.3.6-5.9-5.4-1.4-3.3-3.1-6.2-3.8-6.5-.7-.2-2.4.2-3.9.9l-2.6 1.4v-4.3c0-2.6.6-4.8 1.5-5.6 1.1-.9 1.2-1.7.4-3.1-1.3-2.5-2.9-2.4-2.9 0m8.5 17.5c.7 2.1 2.3 4.8 3.5 6.1 1.5 1.6 1.8 2.5 1 3-.6.4-1 2.5-.8 4.7.2 3.5-.1 4.2-2.1 5-1.3.4-2.6.6-2.9.4-.2-.3-.8-4.5-1.3-9.3s-1.1-9.7-1.4-10.9c-.5-2.2.3-3.6 1.8-3.1.5.1 1.5 2 2.2 4.1M73 444.5c1 1.2.8 1.8-1.1 3.5-3.2 2.6-4.3 2.5-3.5-.3.3-1.2.6-2.8.6-3.5 0-1.7 2.5-1.5 4 .3m7.8 2.1c-.4.3-2.1 1.4-4 2.4-2.7 1.5-3.3 2.3-3.2 4.8.1 2.3-.3 3.2-2 3.6-3.6 1-4.6.7-4.6-1.4 0-1.2 1.8-3.1 5-5.2 2.8-1.8 5-3.6 5-4 0-.5 1-.8 2.2-.8s1.9.3 1.6.6"/>
        <path d="M97.6 441.3c-1 .7-1.6 2.2-1.4 3.3.3 1.7 1.2 1.9 7.4 1.9 4.5 0 7.7.5 8.7 1.4 1.2.9 3 1.1 6.2.7 3.8-.6 4.5-1.1 4.5-3 0-2.4-2.8-5.6-4.9-5.6-.7 0-.3.8 1 1.8 3.2 2.7 1.9 5.2-2.6 5.2-3.1 0-3.8-.4-4.6-2.9-.6-1.6-1.8-3-2.7-3-.9-.1-3.5-.4-5.7-.7-2.6-.3-4.6-.1-5.9.9m9.2 2.4c.2.9-1 1.3-4.5 1.3-4.5-.1-4.7-.2-2.8-1.6 2.3-1.7 6.6-1.5 7.3.3m229.5 47c-1.8.7-1.6 2.3.2 2.3.8 0 1.5-.7 1.5-1.5s-.1-1.5-.2-1.4c-.2 0-.9.3-1.5.6"/>
    </g>
</svg>
