<svg xmlns="http://www.w3.org/2000/svg" width="682.667" height="682.667" version="1.0" viewBox="0 0 512 512">
    <g fill="#e5e5e5">
        <path d="M321 30.7c-10.2 11.9-47.7 55.6-83.4 97.2C147.1 233.3 144 236.8 130 253c-12 13.8-18.1 20.9-65.9 76.6-11.8 13.7-26.7 30.3-33 36.9-15.2 15.8-27.7 30.3-27.3 31.9.1.8-.4 1.8-1.2 2.5-1.9 1.6.9 7.2 4.9 9.6 8.4 5.1 13.3 7.6 16.7 8.5 3.6 1 3.8.9 15-7.6 6.2-4.7 13.9-9.9 17.1-11.5 3.1-1.6 5.7-3.4 5.7-3.9 0-.6.5-1 1.1-1 1.5 0 16.2 11.5 26.9 21 4.7 4.1 11.4 9.9 15 12.9 3.6 2.9 8.4 7.1 10.8 9.2 4.1 3.9 4.2 4 2.8 7.2-.7 1.7-7.5 13.5-15 26.2-13.2 22.4-13.5 23-11.1 23.6 1.3.4 6.2 3.7 10.9 7.3l8.5 6.7 6.3-.3 6.2-.3 15.3-17c8.4-9.4 16.5-18.8 18-21 2.9-4.1 15.7-19.7 69.5-84.6 16.6-20.1 43.1-52.1 58.8-71 15.6-18.9 37.3-45.1 48.2-58.1l19.7-23.7-2.9-.9c-3.2-1.2-4.8-2.7-10.1-9.2-2.4-2.9-3.4-5.1-3-6.2 1.6-4.5 70.8-87.4 94.4-113.2 9.3-10.2-7.1 12.1-30.9 41.9-16.7 21-27.5 34.2-51.8 63.4l-5.8 7.1 4.7 5.5c7.5 8.8 7.6 8.7 24.7-11.8 8-9.4 27.7-33 43.8-52.2 16.1-19.3 35.2-42.1 42.4-50.7 9.2-11.1 13.7-15.8 15.2-15.8 1.1 0 2.9-.9 3.9-2 1.6-1.8 3.1-2 13.7-2 11.5 0 13.6-.4 18.6-3.8.9-.6.6-2.4-1.6-7.8l-2.9-6.9-15.5-.5c-14.7-.5-19.1-1.2-15.6-2.5.8-.3 6.8-.9 13.4-1.3l11.8-.7-8.2-4.8L484 54h-19.7c-17.6 0-20.3-.3-24.2-2-2.4-1.1-4.9-2-5.5-2-.7 0-6.8-2.5-13.7-5.6-6.8-3.1-13.8-6.2-15.4-6.9l-3.1-1.4-13.4 15C375.2 66.5 374 68 376 68s15 8.2 15 9.4c0 1.6-2.6 5.3-7.7 10.8-2.4 2.6-4.3 5.2-4.3 5.7 0 1.4 10.9 5.3 12.4 4.4 1.4-.9 12.2-12.5 17.1-18.5l3-3.7 6.8 4.4c3.8 2.4 7.3 4.5 7.9 4.7 1 .4-3.9 6.7-30.2 38.3-48.8 58.9-110.3 134.2-110.2 135 .2.5.4 2.1.5 3.5s1.1 4 2 5.8l1.8 3.2-5.5 7.3c-3 3.9-11.2 14.2-18.1 22.7s-23.4 28.9-36.6 45.2L206 375.9l-8.5-6c-4.7-3.4-10.2-6.5-12.2-7-3.5-.7-4-.5-6.5 2.5-3.3 4.1-8.4 5.3-9.4 2.3-.4-1.3.4-2.9 2.5-5.1 1.7-1.8 3.1-3.9 3.1-4.8 0-1.8-7.8-9.3-13.8-13.3-3-2-4.6-2.5-5.3-1.8-.8.8 1.2 2.9 6.7 7.3 4.4 3.4 8.1 6.4 8.3 6.6.3.2-.5 1.4-1.6 2.7-3.6 3.9-4.4 6.3-3.1 9.1.9 2.2.8 2.9-.7 4.6-2.5 2.8-3.1 9.9-1.1 13.9l1.7 3.2-17.7 20.5-17.7 20.5-3.6-3.4c-2-1.9-4.6-4-5.9-4.6-2-1.1-2.2-.9-2.2 1.6 0 5.5 7.5 13 10.9 10.9 1-.7 22.2 17 22.9 19.2.3.9-.3 1-2.4.2-5.4-2.1-16.1-10.1-32.5-24.2-48.1-41.6-52-44.8-54.1-44.8-1.3 0-11.3 4.7-22.2 10.5-11 5.7-20.1 10.3-20.2 10.2-.2-.1 6.7-8 15.3-17.5 14.1-15.7 15.7-17.2 17.2-15.8 1.9 1.7 11.2 5.8 11.8 5.2.8-.8-1.6-4.3-5.5-7.8l-3.8-3.5 5.3-5.9c3-3.2 9.6-10.9 14.8-16.9 18-21.1 16.3-19.6 21.8-18.9 4.1.6 5.1.4 7.2-1.6 1.4-1.3 2.5-2.9 2.5-3.7 0-.9 1.6-1.3 5.4-1.3 4.7 0 5.7-.4 7.3-2.6l1.9-2.6 5.2 5c2.9 2.7 5.2 5.5 5.2 6.1 0 1.6 2.7 1.4 3.3-.3.6-1.6-12.2-14.6-14.4-14.6-.9 0-2.7 1.6-4 3.5-2 3-3 3.5-6.2 3.5h-3.8l2.2-3.1c1.2-1.7 2.7-3.3 3.4-3.6 1.9-.7 2.8-5.2 1.4-6.9-.9-1.1-.9-1.8 0-2.7.8-.8-.1-2.4-4-6.3l-5.2-5.3 11.4-13.3c6.3-7.4 25.1-29.4 41.8-49l30.5-35.6 4.9 2.4c2.7 1.4 5.2 2.4 5.7 2.2.8-.3 26-29.9 96-113.1 20.6-24.5 38-44.6 38.5-44.6 1.9-.2 17.5 9 17.5 10.2 0 .5-2.6 4.1-5.8 8-6.1 7.6-9.2 12.1-9.2 13.4 0 .5 1 1.3 2.3 1.9 2 .9 2.9.2 9.2-6.4l7-7.3 7.4 3.8 7.4 3.8 1.5-2.4c.9-1.2 6.8-8.4 13.3-15.9 6.5-7.6 11.4-14 11.1-14.4-.7-.6-20-9-23.4-10.2-3.4-1.1-1.8-2.6 2.7-2.6 3.8 0 4.5.3 4.3 1.7-.2 1.3 1.3 2.6 5.6 4.7 7.4 3.6 20.5 4.9 23.4 2.3 1-.9 4-1.7 7-1.9 7.1-.4 6.9-2.2-.4-2.5-13.3-.6-30.1-2.2-32.4-3.2-3.2-1.4 23.2-.5 33.3 1.1 4.9.7 7.2.7 8-.1.6-.6.9-1.2.6-1.4-.2-.1-2.4-1.6-4.9-3.2s-5.5-3.8-6.7-4.8c-1.9-1.7-4.5-2-18-2.6-8.7-.4-24.8-.8-35.8-.9l-20-.2zm47.1-7.5c.5 1 .5 2.6 0 4-.6 1.2-1 1.9-1 1.4-.1-.4-2.3 1.5-4.9 4.3-3.7 4-5.3 5-6.8 4.5-5.3-1.9-5.3-4.3.3-11.1 4.2-5.1 10.4-6.6 12.4-3.1M430.5 56c.3.5 1.2 1 1.8 1 .7 0 .6-.4-.3-1-1.3-.8-1.2-1 .3-1 1.6 0 2.2 1.6 1.7 5-.1.8-2.2 3.6-4.8 6.2-4.7 4.9-8.5 6.1-11 3.6-2.2-2.2 3.8-12.7 8.1-14 3.2-.9 3.5-.9 4.2.2M49.3 362.5c3.5 2.4 4.4 5.1 2.4 7.1-.9 1-5.5-3.4-7.3-6.9-1.9-3.5-.2-3.6 4.9-.2m-33.1 35.9c.9 1.3 1 6.8.2 9-1 2.5-4.5.4-7.4-4.5-1.3-2.3 2.4-7.1 4.8-6.2.9.4 2 1.1 2.4 1.7m97.1 89.4c.9 1 2.8 4.3 4.2 7.5 2.1 4.8 2.3 6.1 1.3 7.7-2.1 3.2-4.6 2.3-10.9-3.9s-6.7-7.8-2.4-11.3c2.6-2.3 5.8-2.3 7.8 0"/>
        <path d="M322.5 56.3c-41.2 49.7-78.7 95.2-87.9 106.7-13.9 17.3-29 35.3-30.8 36.8-1.1.9-2.7.7-6.7-.9-5.5-2.1-8.2-1.8-11.5 1-2.4 2-27.4 32-41.8 50.1-27.3 34.2-30.8 38.8-30.8 40 0 .6.4 1 .8.8 1.8-.7 53.9-60.7 66.2-76.2 11.2-14 10.8-13.7 16.5-12.5 2.8.6 5.4 1.5 6 2 1.6 1.6 2.2 1.1 9.1-7.4 3.8-4.5 14.5-17.2 23.9-28.2C272.7 124.9 332.7 53.2 336.3 48c2.3-3.3 2.1-5-.5-5-1.7 0-5.2 3.5-13.3 13.3m30.1 12.3c-3.2 3.6-5.7 6.6-5.5 6.8 1.2.9 10.3 5.6 10.8 5.6.7 0 10.1-12.4 10.1-13.3 0-.5-8.6-5.8-9.2-5.6-.2 0-2.9 2.9-6.2 6.5m13.4 6.9c-3.5 3.5-6.2 6.6-5.9 6.9 1 1 15.4 9.6 16.1 9.6.8 0 11.2-15 10.6-15.4-.8-.7-13.5-7.6-13.9-7.6-.3 0-3.3 2.9-6.9 6.5m-150.6 48.1c-6.6 3.5-15.8 7.7-20.5 9.4s-9.7 4.2-11.1 5.5c-1.8 1.7-3.9 6.7-7.6 18.2-5.6 17.4-10.6 34.2-11.6 38.6l-.7 2.9 3.1-1.8c1.7-1 4.5-3.4 6.4-5.4 5.4-5.7 57.6-70.8 57.6-71.8 0-2.8-4.7-1.4-15.6 4.4m31 35.9c-1 2.1-.8 2.9 1.4 5.7 4 5.2 23 20.6 35.2 28.6 7.9 5.2 18 13.3 18 14.4s6.2 3.8 8.6 3.8c1.1 0 1.5-.6 1.1-1.9-.3-1.2.1-2.2.9-2.5 2.3-.9 1.6-3.1-1.6-5.4-1.6-1.2-3.2-2.2-3.5-2.2-1 0-7.3-4.9-16.8-13s-13.6-11.3-22.2-17.5c-3.1-2.2-7.7-5.7-10.1-7.8-2.5-2-5.1-3.7-5.9-3.7-.7 0-1.9-.2-2.7-.5-.7-.3-1.8.6-2.4 2M228.5 184c.4.7.2 1.6-.5 2-1.9 1.2 3.6 6.7 12.4 12.6 3.9 2.6 9.8 7.1 13.1 9.9s8.8 7.2 12.2 9.8 6.3 5 6.5 5.5c.6 1.6 13.9 12.2 15.2 12.2.8 0 2.1.3 2.9.6 1 .3 2-.6 3.1-2.7 2.3-4.6 2.1-5.4-2.1-7.5-6-3.1-18.2-12.3-26.6-20.1-4.3-4-10.3-8.9-13.5-10.9-3.1-2-7.9-5.3-10.7-7.4-4.9-3.8-13.7-6.7-12-4m-23.2 23.4c.3.7.1 1.8-.5 2.4-1.2 1.2 4.3 6.4 10.6 10 2.3 1.3 6.4 4.5 9.1 7.1 2.8 2.7 7.1 6.2 9.6 7.9 2.6 1.7 6.4 4.8 8.5 6.9 14.4 14.1 25.3 21.8 27.5 19.6.5-.5 1.1-2.2 1.4-3.8.7-3.4-.3-4.8-8.4-11-2.9-2.2-8-6.3-11.4-9-3.4-2.8-7.8-6.2-9.7-7.5-1.9-1.4-6.1-4.8-9.2-7.7-3.1-2.8-7.6-6.2-10-7.4-2.3-1.2-5.8-3.4-7.8-4.9-4-3.1-10.6-4.9-9.7-2.6m-51.3 4.2c-10.5 5.2-14.2 7.2-19 10.3-3 1.9-11.1 6.3-18 9.8-6.9 3.4-15.4 7.8-19 9.8-3.6 1.9-7 3.5-7.6 3.5s-1.6 1.2-2.3 2.6c-1 2.3-.7 4.7 2.1 16 1.8 7.5 3.8 13.6 4.5 13.9.8.2 2.8-.8 4.5-2.3 3.8-3.4 58.1-64.2 57.7-64.6-.2-.2-1.5.3-2.9 1m30.5 20.4c-.7 2.2 1.8 6 5.1 8.2 1.2.7 7.3 6 13.5 11.8 16.2 15 19.8 18.2 25.4 22.2 2.8 2 5.9 4.6 7 5.8 2.4 2.7 8.7 6 11.4 6 1.4 0 2.1-.9 2.6-3.2.6-2.7.4-3.5-1.6-4.8-1.3-.8-4.2-3.1-6.4-5-2.2-2-7.6-6.4-12-10-4.4-3.5-9.9-8-12.2-9.9-13.6-11.6-17.4-14.6-22.8-18-8.2-5.1-9.3-5.4-10-3.1m151 42.6c-17.5 18.7-33 35.2-34.4 36.8l-2.6 2.9 2.9-1.5c2-1.1 4-1.3 6.5-.7 2 .4 10.1 1.2 18.1 1.8 22.9 1.8 27.6 2.2 42.5 3.7 7.7.8 19.7 1.7 26.8 2.1l12.7.6-.6-3.4c-.3-1.9-2.1-10.8-3.9-19.9-1.9-9.1-4.6-22.4-6-29.5-2.9-14.4-5.3-23.5-6.6-24.9-.4-.5-5.9-1.1-12.2-1.4l-11.4-.4zm53.2-17.4c1.2 1.7 3 9.7 3.8 17.2.4 3.3 2 10.9 3.5 16.9 1.5 6.1 2.6 11.6 2.3 12.3-1.1 2.9-10.7-3.3-11.8-7.5-1.4-5.6-3.5-20-4.1-28.6-.7-8.9-.6-9.1 1.7-10.2 3.1-1.5 3.5-1.5 4.6-.1m-225-2.5c-1.5 1.4-.5 3.4 3 6.5 2.1 1.8 7.8 7.2 12.8 11.9 4.9 4.7 11.5 10.5 14.5 13 3 2.4 7.3 6.2 9.5 8.4 9.7 9.7 17.2 15.3 21.5 16.1 2.6.6 3 .4 3-1.5 0-1.1.5-2.1 1-2.1 2.4 0 .7-3.7-2.8-6-2-1.3-7.1-5.6-11.2-9.5-6.7-6.3-20.1-17.8-33.8-28.7-7.9-6.3-15.7-10-17.5-8.1m-21.1 27.5c-.7 2.9 2.6 6.4 13.6 14.4 8.8 6.5 8.9 6.5 23.2 19.8 12.9 11.9 21.5 18.4 25.3 19.2 2.7.5 3.1.3 3.7-2.1.9-3.6-.9-5.7-12.9-15.5-5.5-4.5-10.9-8.9-12-9.9-18.4-15.3-33.7-26.5-37.6-27.4-2.2-.6-2.8-.3-3.3 1.5m143.8 46.5c-3.7 3.5-39 50.8-44.2 59.1-2.1 3.4-2.3 4.5-1.7 12.7.3 4.9 1 11.9 1.6 15.5.5 3.6 1.5 13.8 2.3 22.8.7 8.9 1.5 16.4 1.7 16.6.2.3 5.1-.8 10.9-2.4 13.1-3.5 40.7-10.6 44-11.4 5.4-1.2 5.4-.2-.9-34.2-3.3-17.5-7.6-41.3-9.6-52.8l-3.6-21 2.1-3.9c1.2-2.1 2-4 1.8-4.3-.3-.2-2.2 1.3-4.4 3.3m5.6 104c2.7 2.4 2.9 3 1.8 4.6-1.6 2.1-23.9 9-26.4 8-1.3-.5-1.5-1.5-1.1-4.9.5-5.1 2.1-7.4 5.1-7.4 1.1 0 4.4-.7 7.1-1.4 7.6-2.1 10.1-1.9 13.5 1.1M130 329.8c0 1.3 21.7 19.1 23.4 19.2.4 0-.4-1.7-2-3.8-6.9-9.1-21.4-19.6-21.4-15.4m-19.6 1.2c-1.2.4-3.1 2-4.2 3.5-1.8 2.3-2.6 2.5-5.7 1.9-3-.5-4.1-.2-6.1 1.7-1.3 1.2-2.4 2.7-2.4 3.2s-5 6.5-11.1 13.3S70.2 367 70.7 367c3.2 0 24.3-21.1 24.3-24.2 0-2.2 3.1-3.9 5.8-3.1 1.7.4 3.4-.5 6.7-3.6 2.4-2.2 5.2-4.1 6-4.1.9 0 1.3-.5 1-1-.7-1.2-1.3-1.2-4.1 0m.8 4.2c-1.6 1.6-1.5 3.8.1 3.8 1.7 0 3.7-2 3.7-3.7 0-1.6-2.2-1.7-3.8-.1m-15.8 15.4c-12.5 12.2-8.9 12.6 5.3.7l5.2-4.4 16.8 14.7c9.3 8.1 17.2 15 17.6 15.4.5.4-.3 3.1-1.7 5.9-3.6 7.1-6.7 15.1-5.8 15.1 2.2 0 15.2-17.9 15.2-21.1 0-2.2-10.3-11.6-19.5-17.9-3.9-2.6-7.7-5.5-8.5-6.5-2.3-2.8-12.7-10.5-14.2-10.5-.8 0-5.4 3.9-10.4 8.6"/>
        <path d="M91 365.6c-7.4 6.9-14.7 13.8-16.3 15.3l-2.7 2.7L90.1 400c9.9 9.1 18.4 16.6 18.8 16.8.6.2 26.6-36.3 26.6-37.3 0-.2-6.3-5.6-14-12.1-7.7-6.4-14.7-12.3-15.5-13-1.4-1.2-3.4.3-15 11.2m63.6 2.9c.5 2.1 0 3.3-2.5 5.9-2.9 3-3 3.4-1.9 6.4 1.1 2.9 1 3.4-1.7 6.2-1.6 1.6-3.4 3-4 3-1.3 0-18.9 19-20.6 22.2-2.3 4.2 1.5 1.1 11.1-9.2 5.6-6.1 10.8-11 11.5-11 1.6 0 7.5-6.6 7.4-8.3 0-.7-.4-2.1-.9-3.2-.6-1.5-.1-2.7 1.7-4.6 2.6-2.9 3-8.9.5-9.7-.9-.3-1.1.3-.6 2.3"/>
        <path d="M150 369.9c-1.3 2.6-1.3 3.1.5 3.1 1.6 0 3.8-3.4 2.8-4.4-1.1-1.1-2.2-.6-3.3 1.3"/>
    </g>
</svg>
