<svg xmlns="http://www.w3.org/2000/svg" width="682.667" height="682.667" version="1.0" viewBox="0 0 512 512">
    <g fill="#e5e5e5">
        <path d="M398.5 16.5c-17 4.5-45.8 12.2-64 16.9-37.3 9.8-37.3 9.8-43.7 14-5 3.3-11.5 12.7-17.9 25.6-5.2 10.5.6 2.3-113.3 158.5-22.1 30.2-49.8 68.2-61.6 84.5-20.7 28.5-21.7 29.6-27.1 32.2l-5.5 2.6-1.2 6.6c-1.4 7.2 1.4 3-33.6 51.1-11.9 16.2-17.9 25.7-25.3 39.8-2.9 5.4 2.1 13.3 15.2 24.2 7.2 6 21.7 15.5 23.7 15.5.5 0 4.7 2.5 9.3 5.5 14.4 9.3 17.4 10.5 25.7 10.5 8.8 0 17.2-3.3 18.8-7.4.5-1.4 1.8-3.1 3-3.8 4.4-2.8 1.5-2.5-8.2.8-15 5-15.8 4.9-31.2-4.7-7.2-4.5-13.9-9.1-14.8-10.2-2.5-2.7-2.1-6.4 1-11.6 3-4.8 5.4-6.5 4.5-3.2-.9 3.6.5 7.1 3 7.1 1.6 0 3.2-1.5 5.7-5.3 5.2-7.8 16.1-21.9 19-24.4 3.4-2.9 18-10.3 20.4-10.3 1.7 0 1.6.4-1 3.1-1.6 1.7-5.4 4.4-8.5 5.9-4 2.1-7.8 5.3-12.9 11.2-7.3 8.2-16.6 21.5-15.7 22.4.2.3 2.1.7 4 1.1 2.7.4 5.4-.2 10.4-2.3 11.4-4.7 20.4-13 23.2-21.4.6-1.9 2.5-5.5 4.1-8l3-4.5v4.8c0 2.6-1.6 10.3-3.5 17-4.1 13.9-3.9 15.8 2.1 18.3 2 .8 3.7 1.4 3.9 1.2 1.4-1.6 17.5-27.1 17.5-27.7 0-.5-3-3.7-6.6-7-4.8-4.3-6.5-6.6-6.2-7.9.6-2 58.3-79.3 65.7-88 2.7-3.2 7.9-7.3 12.6-10.2 8.4-5.1 12.4-8.8 16.7-15.6 1.5-2.3 14.7-20.3 29.5-40s33-44.2 40.6-54.3c7.6-10.2 14.5-19 15.5-19.7.9-.6 8.7-2.8 17.2-4.8 56.3-13.1 82.1-19.6 84.4-21.1 2.5-1.7 5.4-5.5 4.1-5.5-1.5 0-29.5 5.4-40 7.7-8 1.8-13.6 3.6-16.8 5.6-2.6 1.6-7.8 3.5-11.5 4.3-12 2.5-36.6 6.3-37.1 5.9-1.2-1.2 2.6-2.7 20.3-7.9 10.4-3 19.8-6.3 21-7.4 7.9-7.1 19.1-10.5 61.4-18.8l14.3-2.8 5.5-7.7 5.4-7.7-.2-9.8c-.1-6.6.4-11.2 1.3-13.9 1.6-4.1 24.3-36 35.2-49.3 9.4-11.6 8.8-7.1-1.2 8.7-9.2 14.4-19.8 32-24.8 41.1-2.5 4.5-2.8 5.9-2 7.8 1.3 2.8 18 14.7 22 15.7 3.1.8 9-1.2 8.1-2.7-.3-.5-4.9-3.7-10-7-5.2-3.3-9.3-6.2-9.1-6.4.6-.6 13.7 4 18.6 6.6l4.4 2.2 1.8-2.3c2.3-3 2.3-3.3.3-9-1-2.6-1.4-5.7-1.1-7.1 1.2-4.5 18.8-28.9 19.5-26.9.2.7-1 3.2-2.7 5.4-5.7 7.7-14.3 20.8-13.9 21.2.2.3 5.2-5.6 11-12.9 8.3-10.5 11.5-13.8 14.8-15.2 2.9-1.3 5.4-3.7 8.6-8.1 2.4-3.4 4.4-6.3 4.4-6.6 0-.2-4.5-4.3-10-9.1-5.5-4.7-10-9.3-10-10.2 0-.8 1.2-3.6 2.7-6.1l2.7-4.6-3.4-3c-4.2-3.7-4.9-3.6-32.4 4.9-26.6 8.3-47.5 14.3-68.8 19.7-14.8 3.7-16.7 4.4-16.2 6 1 3.1-1.6 11.2-4.8 15.1-1.7 2.1-5.4 5-8.2 6.6-4.2 2.4-6 4.3-9.5 10.2-2.4 4-6.6 10.3-9.4 14-4.3 5.8-6 7.1-12.1 9.9-5.7 2.6-7.4 3.9-8.9 6.8-1.7 3.6-11.1 15.2-22.1 27.2l-5.8 6.4 6.3-9.4c3.5-5.2 7.3-10.6 8.4-12.1s4.4-6.3 7.4-10.6c3-4.4 8.1-10.4 11.4-13.4 3.2-3 6.8-7.3 7.9-9.5s5.6-7.7 10.1-12.2 7.8-8.5 7.5-8.9c-1.6-1.5-11.6 5.6-18.7 13.4-4.2 4.6-10.1 11-13.2 14.1-3.1 3.2-7.6 8.6-10 12.2-2.4 3.5-7 10.1-10.4 14.6-10.6 14.3-15 20.5-23 32.3-4.2 6.3-9.5 13.6-11.7 16.2-3.9 4.8-12.5 17.1-29.5 42.3-4.7 7.1-12.1 17.3-16.3 22.5-8.4 10.6-7.8 9.6-19.6 27.2-4.7 7.1-8.9 12.8-9.4 12.8-.8 0-4.5 4.6-11.5 14.3-11.3 15.6-17.6 24.9-18.5 27.1-.5 1.5-1.4 2.6-1.8 2.6-.5 0-2.6 2.1-4.6 4.7l-3.7 4.7 2.3 1.7c2.7 2.1 1.6 3.9-1.2 2.1-1.1-.7-2.2-1.2-2.5-1.2s-2.6 3.3-5.2 7.2c-12.7 19.9-15.5 23.9-21.7 31.8-3.6 4.7-10.6 13.2-15.4 18.9-10.6 12.7-13.6 14.4-26.4 14.6-8.9.1-11.3 1.1-17.2 7.1-2.3 2.2-2 3 1.4 5.1 3.5 2.1 4 3.8.7 2.9-4.1-1-6.1.4-10.7 7.5-6.9 10.7-8.1 12-11.7 13.5-4.1 1.7-7.1.5-11.8-4.8-1.6-1.9-4.4-4.4-6.2-5.7-3.1-2.3-9.3-12.5-9.3-15.2.1-1.1.3-1.1 1.3.1.7.8 5.6 5.4 10.9 10.3 8.7 7.9 9.8 8.6 12.1 7.8 1.6-.6 2.8-2.1 3.2-3.8.6-2.9 37.3-54.3 42.7-60 2.5-2.6 3.5-5.1 5.3-13 1.9-8.8 2.4-9.9 5-11.2l2.8-1.4-2.9-2.1c-5.8-4.2-18.6-15.4-20.1-17.6-1.5-2.1-1.5-2.4.2-3.6 2.8-2.1 12.7-5.6 15.7-5.7 1.7 0 3-.8 3.6-2.1.8-1.8 1.1-1.4 2.6 3.1 1.9 5.7 3.3 6.9 12.4 10.3 6.2 2.3 7.6 4.2 3.4 4.8-2 .3-2.1.5-.8 2.4 2.2 3.1.4 5.6-4.9 6.9-5.7 1.4-6.7 2.9-2 2.9 3.3 0 3.6.2 2.9 2.2-.3 1.3-8.1 12.6-17.1 25.2-9.1 12.6-16.7 23.4-16.9 24.1-.3.7 1.3 2.1 3.9 3.4l4.5 2.2 5.3-2.7c3.5-1.8 7.2-4.8 10.4-8.7 2.8-3.2 5.7-6.7 6.6-7.6 3.5-3.4 23.6-31 29.2-40.1 3.3-5.2 8.9-13.3 12.6-18 3.6-4.6 8.4-11 10.6-14.2 13.4-19.2 18.5-26 23.7-31.8 3.3-3.6 10.7-13.5 16.6-22.1 8.7-12.8 23-32.5 34-46.9 1-1.4 6.6-9.5 12.3-18s14-20 18.6-25.4 8.3-10.4 8.3-11.1c0-.6.9-2 2.1-3.1 1.2-1 3-3.5 4-5.4 1.1-1.9 3.5-5.5 5.4-8 1.8-2.5 3.4-4.8 3.4-5.2.1-.4 1.2-1.8 2.5-3.2 1.3-1.5 4.7-6.5 7.6-11.4 12.9-21.2 30.9-41.6 46.6-52.5 9.4-6.5 12.7-11.8 12.2-19-.4-6-3.2-7.5-14.8-8.3-5.4-.3-10.5-1.2-11.7-2s-2.8-1.4-3.6-1.4c-1.5 0-5.9-4.4-7.6-7.7-.6-1.2-1.1-4.1-1.1-6.5 0-5.4 2.7-8.8 7-8.8 1.7 0 13-2.5 25.3-5.4 69.9-17.2 96.4-23.7 97.7-24.2 1.2-.4.9-.9-1-1.9-5.1-2.9-13.2-1.7-45.5 7M303 54.1c.7 1.1.9 2.7.6 3.4-.5 1.4 2.6 4.9 8.6 9.7 3.7 2.9 13 6.3 19.9 7.4 5.4.8 6.9 1.9 6.9 5.2 0 2.5-3.4 7.2-5.3 7.2-1.5 0-9.3 8.3-11.1 11.8-1 1.9-3.9 5.5-6.5 8-4.8 4.7-47.6 62.8-49.1 66.7-.4 1.1-1.7 2.9-2.9 3.9-2.7 2.4-14.8 19.3-18.6 25.9-1.5 2.6-3.5 5.3-4.5 6-1.5 1-14.9 19.3-69.1 93.7-5.8 8-12.7 18.8-15.2 24.1-5 10.3-8.2 14-13.6 15.8-2.8.9-3.7.8-5.2-.5-3.2-2.8-2.8-5 1.8-12.1 7.4-11.1 12.2-15.3 17.5-15.3 1.8 0 4.2-2.6 10.8-11.7 14.2-19.5 16.2-22.3 15.8-22.3-.2 0-5.2 5.9-11.3 13.2-6 7.2-12.6 14.9-14.6 17-3.4 3.5-5.9 4.8-5.9 3 0-.8 7.4-11.1 13.1-18.2 1.9-2.5 4.8-6.6 6.2-9.2 2.9-5 13.3-18.5 17.8-23.1 1.5-1.5 5.3-6.9 8.4-12.1 3-5.1 8.2-12.5 11.4-16.4 3.3-3.8 7.2-9 8.7-11.4 1.5-2.3 4.1-5.9 5.8-7.9s5.1-6.9 7.6-11c2.5-4 5.7-8.5 7.1-10 1.5-1.5 5-6.7 7.9-11.6 2.9-4.8 6.1-9.5 7-10.4 2.9-2.6 18.2-21.7 21.5-26.8 1.7-2.6 5.4-7.8 8.3-11.4 2.9-3.7 7.3-10.2 9.9-14.4 12.4-20.6 18.8-28.2 27.1-32.3 5.1-2.5 6.2-3.6 6.2-6.2 0-1.1-1-2-2.7-2.4-1.6-.3-4.4-1.4-6.3-2.4-1.9-.9-5.1-2.3-7-2.9s-5.8-2.8-8.6-5c-6.3-4.7-7.1-4.4-11.9 4.7-3.2 6.1-11.1 16.8-17.1 23.2-1.3 1.4-4.8 5.4-7.8 9-13.8 16.5-13.4 15.4 2.2-6.3 6.2-8.6 11.8-17.2 12.4-19 .6-1.7 1.7-3.9 2.4-4.7s2.2-3.8 3.4-6.5c1.2-2.8 3.3-6.2 4.8-7.7 1.5-1.4 3.2-3.1 3.7-3.7 1.9-2 7-6 7.7-6.1.4 0 1.2.9 1.8 2.1m184 2.5c0 .3-1 1.4-2.2 2.5l-2.3 1.9 4.3 3.9c4.1 3.8 5.3 6.1 3.1 6.1-.6 0-3.3-2.1-6.1-4.8-4.7-4.5-4.9-4.9-3.7-7.5.9-2 1.9-2.7 4.1-2.7 1.5 0 2.8.3 2.8.6m-36.5 14.3c-.6 2-5.4 8.4-17.8 23.5-7.9 9.6-9.1 11.2-25.1 32.3-13 17.1-25.6 29.5-25.6 25.3 0-1.8 4.7-10.5 6.4-11.9.9-.8 1.6-2.2 1.6-3.3 0-3.3-.7-2.2 29.3-43.2 12-16.4 13-18.1 10.1-17.2-9.4 2.8-31 6-38.9 5.7l-3-.2 2.7-1.5c8.5-4.6 35.1-12.9 53.3-16.7 2.7-.5 7.8 4.7 7 7.2m-147 3.9 5 3.5-4.4-.6c-4.7-.6-9.9-4.6-8.7-6.6.8-1.3 1-1.2 8.1 3.7m-11.6 4.6c-1.1 2-2.5 3.6-3.1 3.6-1 0-.6-.9 2.5-5.3 2.7-4 3.2-2.7.6 1.7M128.5 298.2c-.2 5.7-1.6 9.1-7.6 17.9-5.1 7.6-8.7 8.9-12.7 4.6-4.2-4.5-3.8-6.5 3.2-16.3 6.7-9.4 9-11.2 14.2-11.3l3.1-.1zm-59.2 71.5c-.4 1-1.2 2.7-1.9 3.8s-1.5 3.6-1.9 5.5c-1.4 7-5.8 10.6-7 5.7-.9-3.4 1.1-7.7 5.8-12.5 4.4-4.5 6-5.3 5-2.5m12.3 16.5c-.4 2.3-1.5 6.1-2.5 8.4-1.6 3.4-2.4 4.2-5.2 4.6-2.3.4-3.7 0-4.5-1-1-1.3-.2-2.4 4.2-6.1 2.9-2.5 5.8-5.7 6.3-7.3 1.5-4.2 2.4-3.4 1.7 1.4m45.3 11.5c-18.7 25.7-23.1 31.4-23.6 30.9-.6-.6 4.4-7.8 20.5-29.4 6.3-8.5 11.6-15.1 11.9-14.8s-3.6 6.3-8.8 13.3"/>
        <path d="M151.4 323.3c-2.8 3-7.1 8.6-8.8 11.4-.4.8-.2 1.3.6 1.3 1.3 0 12.3-14.8 11.6-15.6-.2-.2-1.8 1.1-3.4 2.9m-35.7-18.2c-2.7 4.4-4.6 8.6-4.3 9.4 1.1 3 1.7 2.4 9.7-11.1 1.5-2.5 1.7-3.3.6-4.7-1-1.4-1.8-.6-6 6.4M444.5 16.2c-2.2.5-9.4 2.3-16 3.9-6.6 1.7-15.5 3.7-19.9 4.5-4.3.8-11.1 2.8-15 4.3-3.9 1.6-10.5 3.6-14.6 4.6-7.4 1.8-14.6 4.4-12.3 4.5 3.1.1 18.4-3.5 34.2-7.9 9.7-2.8 22.6-6.2 28.6-7.6 6.1-1.4 13.3-3.3 16-4.1 8.8-2.9 8.1-4.4-1-2.2m23 13.5c-1.6.2-6.7 1.5-11.3 2.9-19.8 6-53.3 12.9-67.2 14-4.1.3-10.2 1.4-13.5 2.4-3.3 1.1-9.1 2.6-12.8 3.5-4 .9-8.3 2.6-10.4 4.3l-3.7 2.7 3.5.6c2.3.3 3.8.1 4.6-.9 1.4-1.6 13.7-6.1 16.8-6.1 1.1 0-1.1 1.2-5 2.7-10.4 3.9-5.4 3.9 9.8-.1 7.3-1.9 18.6-4.7 25.2-6.2 29.3-6.5 46.6-10.8 55-13.5 5-1.7 10.9-3.5 13.3-4 2.3-.6 4.2-1.5 4.2-2 0-1-2.7-1.1-8.5-.3M419.6 50c-32.3 8.1-59.2 15.2-59.7 15.7-.6.6-.6 2 .1 3.7.5 1.5 1 5.7 1.1 9.4l.1 6.7 1.8-5.9c1.1-3.3 1.7-6.3 1.4-6.8-.8-1.3 3.3-5 5.8-5.3 1.3-.2 9.5-2.3 18.3-4.8 22.1-6.3 36.1-9.8 67.1-16.7 14.7-3.2 26.8-6.1 27-6.3.5-.5-2.6-4.7-3.4-4.6-.4 0-27.2 6.7-59.6 14.9m-68.4-8.3c-6.4 2.3-4.4 2.6 2.4.4 3.2-1 5-1.9 3.9-1.9s-3.9.6-6.3 1.5m-8.7 3.3c-1.6.7-1.7.9-.3.9.9.1 2-.4 2.3-.9.7-1.1.7-1.1-2 0M329 49.3c-3 1.1-3.5 1.7-3.3 4.2.3 4.2 3.3 6.2 9.1 6.3 4.8.2 5 0 5.4-2.7.5-3.2-1.4-6.2-4.9-8-1.2-.6-2.3-1.1-2.5-1-.2 0-1.9.6-3.8 1.2m160.4 53.4c-7.7 9-18.4 23.9-18.4 25.6 0 5.7 1.7 4 13.1-12.7 6.6-9.6 11.9-17.7 11.9-18q0-2.55-6.6 5.1M328.3 212.4c-3.4.9-5.6 2.6-10.4 7.8-5.9 6.6-6 6.8-3.7 7.7 6.7 2.5 6.3 2.7 12.4-5.6 3.1-4.3 6.1-8.3 6.6-9 1.4-1.8-.3-2.1-4.9-.9m-22.8 6.3-7 3.6 3.9 1.3c2.1.8 4.1 1.2 4.5 1 1.3-.8 7.2-9.6 6.4-9.6-.4.1-3.9 1.7-7.8 3.7m-22.9 17.9c-4.3 5.9-7.9 11.2-8.2 11.8-.6 1.7 4.4 5.4 34.5 26 21 14.4 27.9 18.6 29.2 17.9 2.2-1 17.1-21.2 16.4-22.3-.2-.4-7.3-5.2-15.7-10.6-13.3-8.6-23.7-15.9-42.8-30-2.5-1.9-4.7-3.4-5.1-3.4-.3 0-4 4.8-8.3 10.6m-9.2 19.9c-1.9 2.9-2 2.7 2.2 4.8 2.3 1.2 3.4 1.3 4.3.4 1.8-1.8 1.3-4.4-1.1-6.1-3-2.1-3.5-2-5.4.9m11.8 6.7c-1.8 1.8-1.5 2.4 2.5 4.8 3.1 1.8 3.8 1.9 5 .7 1.3-1.3 1-1.8-2-4.1-3.9-3-3.9-3-5.5-1.4m-31.1 12.4c-4.6 6.3-8.2 11.6-8 11.8.2.1 11 7.6 23.9 16.6s27.2 19 31.8 22.3c4.6 3.2 8.5 5.7 8.6 5.6 2.8-3.3 16.6-22.9 16.6-23.5 0-.5-7.3-5.9-16.3-12.1-8.9-6.2-23-15.9-31.4-21.7-8.4-5.9-15.6-10.6-16-10.6s-4.6 5.2-9.2 11.6m-8.5 18.9c-1.6 2.4-1.6 2.5 2 4 2.8 1.1 4 1.2 5 .4 2-1.6 1.7-2.8-.8-5-3.1-2.5-4.3-2.4-6.2.6M257 301c-1.7 1.1-1.6 1.2 3.7 3.9 5.2 2.6 6.4 1.2 1.9-2.3-3.9-3-3.6-2.9-5.6-1.6m-28.8 10.2c-3.8 5.1-7.7 10.6-8.7 12.1l-1.8 2.9 3.3 2.6c3.4 2.6 11.9 8.5 43.1 29.6 8.6 5.8 16.5 10.6 17.5 10.6 1.2 0 4.5-3.6 9.2-10 4-5.5 7.5-10.6 7.8-11.4s-.8-2.4-2.8-3.8c-7.2-5.4-59.8-41.8-60.3-41.8-.3 0-3.6 4.2-7.3 9.2m-21.5 30.1c-8.5 2.8-8.9 3.1-12.7 8.7-3.9 5.7-4.1 5.8-7.2 4.9-1.7-.5-3.3-.8-3.4-.6-1.2 1.4-7.4 11.8-7.6 12.8-.2.8 1.9 1.6 6 2.4l6.2 1.2 10.7-12.3c8-9.2 11-12.1 11.9-11.3 2.1 1.8 6.6.6 8.7-2.3l2-2.7-2.4-2c-1.3-1.1-2.6-2-2.9-1.9s-4.5 1.4-9.3 3.1m14.4 6.6c-3.8 3.5-3.8 4.3-.4 5.9 2.5 1.1 3 1 5.7-1.8 2.9-2.9 2.9-3 1.1-5-2.4-2.6-2.7-2.6-6.4.9M154.2 409c-1.2.5-3.8 2-5.7 3.3l-3.5 2.4 13.7.6c13.8.6 23.6 2.2 32.9 5.2 8.6 2.9 22.5 9.5 28.3 13.4 9.3 6.4 10 8.5 1 3-12.1-7.3-21.1-11.7-27.2-13.3-8.3-2.2-24-2.8-40.2-1.7l-15 1.1-2.7 3.2c-1.6 1.8-2.8 3.7-2.8 4.3.1.5 1.1-.3 2.4-1.9 2.3-2.7 2.5-2.8 12.3-2.7 24.8.1 51.1 7.7 69.1 20 8.5 5.8 15.2 14.6 15.2 20.1 0 2.5 1.1 2.5 4.3 0 3.5-2.8 4-2.5 2.2 1.1-2.3 4.3-9 8.2-20.7 12-10 3.2-10.1 3.2-25.2 2.6-11.5-.5-17.4-1.2-25-3.2-9.2-2.4-27.6-9.5-30.3-11.7-1.8-1.5-2.5-.9-9.1 6.9-6 7.2-6 7.3-4.6 10.2s9 6.8 19.4 9.9c11.7 3.6 43.7 6.2 54.2 4.3 17.5-3 35.6-13.2 43.2-24.4 3.3-4.7 4-6.7 4.4-11.7 1.4-19.8-13.3-35.4-43.6-46-17.6-6.3-40.4-9.6-47-7m81.8 41.4c0 1.2-1.4-.5-3.1-3.9-.8-1.6-.6-1.5 1 .4 1.2 1.3 2.1 2.8 2.1 3.5m-127.3 32.7c-.3 1.3-.1 1.9.6 1.6 1.5-.5 2.2-3.7.9-3.7-.5 0-1.2.9-1.5 2.1"/>
    </g>
</svg>
