<?xml version="1.0" standalone="no"?>
<!DOCTYPE svg PUBLIC "-//W3C//DTD SVG 20010904//EN"
 "http://www.w3.org/TR/2001/REC-SVG-20010904/DTD/svg10.dtd">
<svg version="1.0" xmlns="http://www.w3.org/2000/svg"
 width="512.000000pt" height="512.000000pt" viewBox="0 0 512.000000 512.000000"
 preserveAspectRatio="xMidYMid meet">
<metadata>
Created by potrace 1.16, written by Peter Selinger 2001-2019
</metadata>
<g transform="translate(0.000000,512.000000) scale(0.100000,-0.100000)"
fill="#f2f2f2" stroke="none">
<path d="M4450 4705 c-8 -2 -62 -11 -120 -20 -104 -17 -106 -18 -218 -92 -99
-66 -247 -143 -277 -143 -6 0 -21 -10 -35 -23 -14 -12 -52 -41 -85 -64 -71
-50 -129 -61 -231 -44 -147 25 -311 -36 -521 -193 -86 -63 -104 -82 -148 -155
-44 -73 -58 -88 -116 -122 -65 -39 -66 -39 -263 -59 -215 -22 -217 -23 -335
-103 l-75 -50 -110 36 -109 36 -61 -24 c-43 -16 -112 -30 -229 -43 -155 -18
-171 -22 -210 -49 l-42 -30 -50 17 c-48 16 -61 16 -235 1 -104 -10 -196 -23
-210 -31 -58 -31 -201 -129 -278 -189 l-83 -66 -80 -165 c-45 -91 -94 -192
-111 -225 -29 -55 -30 -64 -25 -135 6 -70 4 -80 -18 -113 -14 -20 -25 -39 -25
-43 0 -4 -11 -21 -23 -38 -18 -23 -27 -55 -36 -121 l-11 -90 65 -61 c36 -33
65 -66 65 -72 0 -16 70 -62 94 -62 11 0 56 -13 100 -30 45 -16 100 -34 123
-40 24 -6 52 -21 63 -33 11 -12 51 -37 87 -57 55 -28 71 -43 90 -80 13 -25 45
-75 71 -111 94 -131 225 -304 238 -315 7 -6 18 -33 25 -60 17 -69 19 -72 115
-172 78 -81 87 -93 90 -133 11 -138 9 -135 143 -349 l127 -205 115 -97 c104
-88 125 -102 244 -152 104 -44 148 -57 220 -66 148 -18 153 -17 296 40 121 48
162 72 424 246 160 106 355 245 434 310 126 102 159 137 268 273 110 139 133
175 208 326 l84 170 47 285 47 285 50 78 c44 68 58 106 117 305 l67 227 49 27
c27 15 117 51 201 80 l152 52 73 86 c130 152 146 182 168 306 22 121 25 256
10 458 l-9 129 34 56 c18 31 40 81 49 111 33 125 -1 302 -67 347 -35 24 -65
53 -162 152 -39 40 -72 65 -95 70 -43 12 -130 20 -150 16z m116 -35 c56 -10
62 -14 139 -95 44 -46 100 -99 124 -118 58 -46 81 -105 81 -208 0 -89 -20
-166 -61 -230 l-29 -45 7 -251 c5 -217 4 -262 -12 -344 -14 -74 -23 -100 -44
-120 -14 -15 -64 -74 -111 -132 l-84 -106 -141 -49 c-77 -27 -161 -55 -187
-61 -25 -7 -60 -25 -78 -40 -30 -25 -43 -60 -79 -221 -22 -98 -75 -268 -90
-286 -9 -12 -33 -42 -53 -66 l-37 -44 -50 -310 c-43 -265 -54 -317 -78 -359
-24 -44 -130 -204 -285 -430 -37 -54 -72 -88 -150 -147 -57 -42 -130 -97 -163
-122 -33 -25 -94 -70 -135 -100 -136 -100 -163 -121 -209 -162 -25 -23 -109
-84 -187 -136 -117 -80 -149 -97 -192 -103 -28 -4 -62 -15 -74 -24 -15 -12
-57 -22 -122 -29 -94 -11 -102 -10 -175 14 -94 32 -161 63 -226 107 -100 66
-220 150 -225 156 -3 4 -17 14 -31 23 -17 11 -67 89 -135 210 -108 191 -109
193 -114 272 l-6 79 -56 51 c-52 48 -58 57 -89 156 -23 74 -45 121 -74 159
-22 29 -48 65 -57 79 -9 13 -20 28 -25 31 -5 3 -45 53 -88 111 -44 58 -91 119
-105 137 -14 18 -34 43 -45 57 -11 14 -24 26 -30 26 -30 0 -155 58 -166 76 -8
16 -50 34 -156 70 l-146 49 -29 55 c-16 30 -48 71 -71 91 -40 35 -42 39 -42
95 0 54 5 67 54 147 l54 87 -7 72 -6 71 109 221 c106 212 112 222 161 256 28
19 79 55 113 80 144 104 121 97 340 109 187 11 198 11 235 -8 l38 -19 41 37
41 37 187 22 c102 12 207 30 232 38 60 21 131 6 225 -46 27 -15 32 -13 84 31
84 69 91 72 264 89 279 29 348 45 405 96 17 14 47 38 67 51 33 22 87 99 111
157 21 52 121 139 231 200 103 58 278 85 330 51 19 -13 35 -14 91 -6 38 6 71
9 74 8 13 -3 227 141 294 198 232 197 264 218 367 238 157 30 173 31 256 17z"/>
<path d="M4408 4640 c-120 -21 -210 -62 -293 -135 -33 -28 -69 -59 -80 -67
-111 -88 -186 -147 -210 -165 -59 -44 -151 -92 -190 -98 -112 -18 -115 -21
-59 -55 26 -15 40 -18 47 -11 16 16 47 13 53 -3 8 -20 44 -28 44 -10 0 8 9 14
21 14 16 0 19 5 15 23 -6 22 -6 22 6 -1 9 -19 9 -25 -2 -32 -17 -11 6 -21 90
-40 30 -6 78 -21 105 -32 81 -32 85 -33 85 -9 0 11 4 21 9 21 10 0 21 -24 21
-48 0 -23 37 -44 63 -36 39 12 264 165 283 192 25 36 27 107 6 169 -17 48 -19
67 -11 104 8 37 17 49 55 73 42 26 50 28 112 23 37 -4 81 -9 97 -12 l30 -6
-33 30 c-36 34 -65 38 -117 17 -19 -8 -35 -11 -35 -7 0 5 21 17 47 28 l48 19
-47 28 c-54 31 -94 38 -160 26z m87 -18 c-6 -5 -26 -15 -45 -22 -81 -32 -99
-48 -105 -98 -3 -26 -10 -67 -14 -92 l-9 -45 -1 65 c-1 57 -3 63 -15 47 -29
-38 -100 -77 -142 -77 -31 0 -52 -8 -85 -34 -24 -18 -64 -43 -89 -56 -25 -13
-70 -40 -100 -60 -30 -20 -66 -41 -80 -45 -24 -7 120 96 150 107 8 3 48 29 89
57 60 41 83 51 115 51 55 0 136 55 166 114 16 30 64 65 115 84 37 13 62 15 50
4z m25 -41 c0 -5 -16 -15 -35 -21 -20 -7 -47 -28 -63 -48 -26 -35 -27 -39 -26
-166 0 -102 -2 -122 -9 -91 -5 22 -10 81 -11 130 -1 80 2 94 23 126 14 20 44
45 70 57 54 25 51 25 51 13z m-754 -396 c-8 -8 -18 -15 -22 -15 -3 0 -1 7 6
15 7 8 17 15 22 15 5 0 3 -7 -6 -15z"/>
<path d="M4600 4480 c0 -5 8 -10 18 -10 23 0 117 -57 159 -96 29 -28 33 -38
33 -80 0 -103 -8 -123 -59 -148 -25 -13 -65 -27 -88 -31 -22 -3 -49 -13 -60
-20 -17 -13 -16 -14 13 -15 21 0 34 -6 39 -17 3 -10 9 -102 12 -205 4 -169 3
-194 -15 -250 -11 -35 -23 -76 -27 -92 -11 -53 -65 -155 -86 -167 -18 -9 -25
-7 -48 14 -14 14 -42 40 -61 59 -20 18 -53 55 -74 81 l-39 49 49 50 c60 62 98
97 102 93 2 -1 -7 -23 -19 -48 -27 -56 -21 -87 26 -123 46 -35 53 -26 15 21
-16 21 -30 47 -30 58 0 11 14 48 31 83 18 36 29 67 26 71 -7 7 -167 -135 -167
-148 0 -5 -10 -14 -23 -20 -12 -6 -32 -24 -42 -40 -24 -36 -149 -134 -223
-174 -65 -35 -81 -52 -57 -61 9 -4 33 2 55 15 31 17 40 19 49 8 16 -20 57
-117 65 -153 4 -18 15 -38 24 -46 25 -21 52 -29 52 -16 0 9 3 9 12 0 23 -23
90 -14 138 18 25 16 49 30 53 30 4 0 26 9 47 19 57 28 49 9 -12 -30 -29 -18
-60 -41 -69 -52 -15 -18 -40 -25 -214 -56 -22 -4 -50 -13 -63 -20 -15 -8 -38
-10 -61 -6 -32 5 -39 3 -44 -12 -3 -10 -24 -62 -46 -116 -23 -53 -41 -102 -41
-108 0 -6 -14 -41 -31 -78 -30 -64 -36 -78 -74 -151 -10 -19 -23 -44 -28 -55
-11 -22 -37 -126 -42 -170 -8 -69 -26 -210 -46 -350 -11 -82 -23 -199 -26
-260 l-6 -110 29 34 c24 28 30 47 35 105 4 39 14 127 23 196 9 69 23 181 32
250 23 191 47 282 85 330 18 22 38 40 45 40 8 0 16 12 19 28 8 38 39 120 90
237 51 116 43 111 224 144 84 15 120 27 141 45 16 13 53 31 82 41 60 19 81 34
123 90 16 22 43 55 60 73 19 22 41 67 60 125 l30 92 -2 265 c-1 244 -3 269
-22 313 -12 27 -21 49 -21 50 0 1 14 2 31 3 20 1 42 13 65 35 l36 34 -7 95
c-9 129 -18 155 -68 188 -78 50 -187 80 -187 52z m49 -1046 c-19 -94 -23 -101
-72 -154 -51 -55 -91 -78 -135 -79 -26 -1 -34 15 -52 111 -10 55 -18 73 -44
96 -17 16 -41 39 -53 53 -21 23 -21 25 -4 46 l18 22 46 -62 c62 -83 142 -167
159 -167 40 0 104 87 134 182 10 32 19 56 21 55 2 -2 -6 -48 -18 -103z m-306
-65 c20 -31 37 -177 24 -211 -8 -22 -9 -22 -21 -5 -8 9 -16 35 -20 57 -7 43
-84 152 -126 179 -19 12 -15 4 17 -34 22 -27 49 -68 58 -90 23 -53 46 -138 39
-144 -12 -12 -39 18 -53 60 -20 56 -87 186 -101 194 -5 3 14 25 43 49 l52 43
36 -36 c20 -20 43 -48 52 -62z m-124 -142 c17 -50 29 -92 27 -94 -12 -12 -37
16 -54 60 -11 29 -31 79 -45 112 -14 32 -23 64 -20 69 13 20 62 -60 92 -147z"/>
<path d="M4532 4468 c6 -18 28 -21 28 -4 0 9 -7 16 -16 16 -9 0 -14 -5 -12
-12z"/>
<path d="M4476 4441 c-4 -7 -5 -15 -2 -18 9 -9 19 4 14 18 -4 11 -6 11 -12 0z"/>
<path d="M4554 4410 c-59 -29 -70 -56 -66 -164 3 -89 2 -93 -33 -151 -20 -33
-43 -67 -53 -75 -9 -8 -24 -24 -32 -34 -14 -18 -14 -19 5 -9 94 51 151 135
161 238 3 39 15 89 26 112 16 35 26 44 55 49 21 4 45 1 61 -6 l27 -13 -35 -7
c-46 -8 -77 -26 -90 -50 -14 -27 10 -27 34 -1 22 24 72 37 89 23 7 -6 12 -27
11 -46 -1 -43 -34 -82 -78 -95 -28 -8 -25 -9 25 -10 58 -1 80 12 108 66 25 49
-2 120 -41 107 -14 -4 -18 -2 -14 5 12 19 -12 48 -54 65 -51 20 -57 20 -106
-4z"/>
<path d="M4575 4205 c-3 -8 -7 -22 -10 -31 -3 -8 -1 -13 4 -10 5 3 11 17 13
31 6 27 0 34 -7 10z"/>
<path d="M3325 4180 c-148 -23 -269 -112 -365 -270 -42 -69 -90 -125 -155
-179 l-40 -33 44 23 c25 13 59 39 76 56 28 29 89 63 113 63 4 0 6 -16 4 -35
-2 -19 -2 -35 2 -35 8 0 56 96 56 111 0 27 68 109 123 149 31 23 57 46 57 51
0 5 5 9 10 9 6 0 3 -11 -6 -25 -8 -13 -13 -28 -10 -33 3 -5 -10 -39 -28 -76
-48 -96 -82 -204 -68 -218 9 -9 18 3 37 46 14 31 25 61 25 66 0 25 76 163 108
194 43 44 107 76 150 76 35 0 41 10 17 30 -11 9 -31 10 -80 3 -36 -5 -65 -6
-65 -1 0 4 15 8 33 9 35 0 85 17 55 18 -9 1 -22 3 -30 5 -7 2 -35 0 -63 -4z"/>
<path d="M4362 4075 c-29 -23 -97 -67 -151 -98 l-98 -57 -64 30 c-35 16 -80
30 -100 30 -20 0 -62 9 -95 20 -67 22 -84 24 -84 10 0 -5 17 -14 38 -20 20 -6
55 -22 77 -35 57 -34 113 -60 169 -79 40 -13 47 -13 43 -2 -3 8 1 17 9 20 10
4 14 -2 14 -19 0 -14 4 -25 8 -25 23 0 175 106 220 154 44 47 80 103 70 111
-2 1 -27 -17 -56 -40z"/>
<path d="M3622 4085 c-22 -12 -22 -12 -2 -30 28 -26 121 -49 132 -33 9 15 -26
37 -59 38 -12 0 -28 8 -35 18 -11 15 -17 16 -36 7z"/>
<path d="M3390 4033 c-48 -37 -50 -41 -50 -97 0 -32 -6 -56 -17 -68 -21 -23
-11 -33 16 -16 28 17 31 29 19 79 -11 42 -11 43 28 76 21 18 42 33 45 33 4 0
10 -12 14 -27 8 -34 23 -53 41 -53 13 0 94 74 94 85 0 16 -36 1 -60 -25 -36
-38 -44 -38 -55 2 -13 42 -31 45 -75 11z"/>
<path d="M4477 4042 c-3 -4 -12 -30 -21 -58 -14 -42 -34 -68 -114 -146 -180
-177 -313 -288 -343 -288 -13 0 -43 17 -66 38 -34 30 -50 55 -77 127 -18 50
-30 91 -26 93 4 2 31 -11 61 -28 87 -52 233 -57 317 -11 36 19 23 22 -49 10
-98 -16 -189 -6 -265 31 -64 32 -94 34 -94 6 0 -32 44 -155 73 -204 22 -37 44
-60 71 -73 44 -21 81 -25 91 -9 4 6 23 19 43 29 21 11 48 30 62 43 14 13 47
41 74 62 26 22 99 90 162 151 109 108 114 111 130 94 10 -11 24 -19 33 -19 14
0 14 -2 1 -10 -8 -5 -29 -9 -47 -8 -25 1 -38 -6 -60 -33 -15 -19 -56 -63 -91
-98 -98 -99 -68 -81 41 24 86 83 100 93 117 83 49 -31 150 105 103 140 -51 39
-67 36 -37 -7 15 -21 15 -24 1 -38 -13 -14 -20 -14 -46 -3 -35 14 -34 11 -22
62 7 28 5 38 -5 42 -7 3 -15 2 -17 -2z"/>
<path d="M4610 4031 c0 -6 5 -13 10 -16 6 -3 10 1 10 9 0 9 -4 16 -10 16 -5 0
-10 -4 -10 -9z"/>
<path d="M3672 3978 c-22 -22 -14 -58 15 -69 36 -13 56 -8 68 19 8 19 15 21
45 16 l35 -5 -24 21 c-18 15 -32 19 -56 14 -19 -3 -35 -1 -39 5 -9 14 -29 14
-44 -1z m34 -46 c-22 -5 -30 3 -21 18 5 8 11 7 22 -2 15 -12 14 -13 -1 -16z"/>
<path d="M4540 3803 c-19 -9 -30 -18 -24 -20 16 -5 64 15 64 27 0 5 -1 10 -2
9 -2 0 -19 -8 -38 -16z"/>
<path d="M2910 3759 c-41 -28 -91 -64 -110 -79 -20 -16 -50 -34 -69 -42 -31
-12 -28 -13 51 -10 76 2 110 8 192 33 16 5 40 9 53 9 46 0 17 25 -37 32 -39 4
-62 2 -86 -10 -19 -8 -37 -12 -41 -9 -8 9 21 33 62 52 17 7 38 27 48 44 10 17
17 31 15 31 -2 -1 -37 -24 -78 -51z"/>
<path d="M3280 3738 c-58 -22 -143 -51 -189 -65 -85 -24 -122 -40 -194 -81
-21 -12 -57 -26 -81 -32 -40 -9 -316 -31 -413 -32 -46 -1 -52 -8 -27 -29 29
-24 95 -177 109 -253 13 -66 13 -130 0 -262 -3 -31 1 -71 10 -102 16 -52 16
-52 58 -52 23 0 71 -5 107 -10 36 -6 107 -14 159 -20 l94 -10 131 44 c204 69
197 64 270 168 71 101 73 104 111 133 17 14 25 30 25 51 0 83 37 207 87 294 8
14 20 39 28 55 7 17 23 39 34 49 15 14 21 31 21 60 0 48 -1 50 -62 99 -43 34
-51 37 -110 36 -48 -1 -89 -11 -168 -41z m-784 -307 c13 -29 24 -59 24 -67 0
-21 22 -28 32 -11 5 9 29 30 53 47 24 16 46 39 50 49 4 14 28 24 103 41 53 12
103 25 110 27 6 3 12 1 12 -5 0 -9 -31 -19 -167 -52 -25 -6 -43 -17 -43 -25 0
-19 -126 -117 -145 -113 -10 2 -26 33 -42 78 -14 41 -29 79 -34 85 -5 5 -9 16
-9 25 1 23 27 -14 56 -79z m304 -257 c0 -16 -16 -19 -25 -4 -8 13 4 32 16 25
5 -4 9 -13 9 -21z m-13 -119 c18 -16 23 -24 13 -25 -34 0 -60 13 -60 31 0 26
13 24 47 -6z m143 -56 c10 -18 9 -20 -7 -17 -10 2 -19 11 -21 21 -5 24 15 21
28 -4z m-125 -59 c3 -5 2 -10 -4 -10 -5 0 -13 5 -16 10 -3 6 -2 10 4 10 5 0
13 -4 16 -10z m180 -61 c10 -15 -1 -23 -20 -15 -9 3 -13 10 -10 16 8 13 22 13
30 -1z"/>
<path d="M3670 3677 c0 -6 12 -23 27 -39 26 -27 26 -29 14 -85 -16 -74 -16
-100 -1 -118 16 -19 50 -19 50 0 0 8 4 15 9 15 5 0 14 14 20 30 9 27 7 33 -14
52 -17 15 -25 32 -25 55 0 19 -4 43 -10 53 -12 23 -70 54 -70 37z m100 -176
c-1 -8 -37 -51 -43 -51 -13 0 -14 30 -1 48 13 19 45 21 44 3z"/>
<path d="M4198 3611 c-36 -31 -82 -67 -102 -81 -66 -45 -87 -62 -82 -67 12
-12 142 82 221 161 20 21 39 35 42 32 6 -6 -63 -73 -89 -87 -10 -5 -18 -14
-18 -20 0 -14 93 51 124 88 l27 32 -28 -1 c-19 -1 -50 -20 -95 -57z"/>
<path d="M4597 3608 c-12 -29 -14 -45 -7 -52 16 -16 30 11 30 57 0 20 -2 37
-3 37 -2 0 -11 -19 -20 -42z"/>
<path d="M3640 3625 c0 -11 -12 -38 -27 -60 -15 -22 -35 -53 -43 -70 -9 -16
-21 -39 -27 -50 -41 -74 -58 -135 -63 -235 -6 -104 -7 -106 -51 -172 -24 -36
-57 -88 -72 -115 -16 -26 -32 -53 -35 -59 -9 -14 -228 -116 -322 -149 -41 -15
-79 -31 -84 -36 -20 -18 -228 -3 -334 25 l-54 13 -10 -26 c-6 -14 -21 -47 -34
-72 -24 -47 -31 -79 -16 -79 20 0 73 -148 71 -200 -1 -18 -5 -12 -14 20 -25
90 -55 164 -70 172 -16 10 -14 19 27 106 33 69 31 92 -7 92 -40 0 -62 -16 -75
-55 -17 -51 -5 -104 52 -233 53 -122 71 -208 48 -239 -7 -10 5 0 25 22 43 46
31 14 -18 -47 -38 -48 -32 -65 21 -60 31 3 51 14 84 46 48 46 102 70 193 87
33 6 106 34 163 62 99 49 105 50 130 36 31 -17 39 -43 21 -66 -13 -15 -164
-93 -181 -93 -18 0 -207 -84 -229 -102 l-24 -19 25 6 c35 10 342 130 420 165
65 30 65 30 80 9 15 -20 16 -19 36 8 38 52 38 54 7 48 -15 -4 -40 -11 -55 -17
-15 -5 -32 -7 -39 -2 -16 9 65 43 107 43 l31 1 12 114 c21 206 26 222 98 294
61 62 63 67 84 153 11 49 24 87 28 85 4 -3 13 -36 20 -73 11 -62 10 -80 -12
-193 -14 -69 -28 -145 -31 -170 -6 -43 -25 -75 -143 -241 -29 -42 -32 -54 -42
-169 -6 -69 -14 -150 -18 -180 l-6 -55 30 33 c38 39 47 40 79 5 14 -16 28 -23
32 -17 4 5 20 29 36 53 15 24 60 75 98 113 78 77 103 124 113 215 7 63 42 192
44 161 1 -9 -4 -29 -10 -45 -6 -15 -15 -70 -20 -122 -11 -114 -25 -143 -112
-235 -36 -38 -91 -106 -122 -152 -61 -90 -85 -103 -120 -64 -17 19 -18 19 -35
-3 -13 -16 -22 -57 -30 -142 -8 -83 -20 -138 -36 -176 -13 -31 -24 -60 -24
-63 0 -4 -11 -31 -23 -59 -13 -29 -36 -83 -52 -122 -15 -38 -36 -90 -47 -114
-11 -24 -28 -66 -39 -94 -11 -28 -57 -102 -102 -164 -45 -63 -92 -130 -105
-150 l-23 -35 61 49 c33 26 87 71 119 98 32 28 72 61 87 74 102 83 275 248
309 292 22 29 50 64 62 78 36 42 136 167 166 207 20 27 27 49 27 81 0 24 7 90
15 146 20 140 35 265 45 372 5 50 14 114 20 144 5 29 10 70 10 91 0 20 8 63
18 96 11 32 29 95 42 139 12 44 33 114 45 155 12 41 35 118 50 170 15 52 37
123 48 157 l21 62 -55 111 c-39 79 -58 109 -69 106 -8 -2 -30 -10 -48 -18 -29
-11 -37 -11 -64 5 -17 10 -32 16 -34 15 -1 -2 -9 -26 -16 -53 -7 -28 -22 -57
-33 -66 -11 -9 -42 -60 -69 -113 -27 -53 -50 -95 -52 -93 -2 2 5 32 16 68 25
80 25 94 -1 49 l-20 -35 6 45 c4 25 10 56 15 70 5 14 11 37 14 52 4 15 15 30
27 33 25 8 54 70 85 184 l23 83 -24 36 c-20 29 -25 32 -25 17z m-49 -737 c10
-20 19 -54 19 -75 0 -56 -27 -159 -60 -233 -16 -36 -41 -96 -55 -135 -43 -113
-85 -207 -106 -233 -12 -16 -19 -40 -19 -68 0 -25 -6 -49 -16 -58 -20 -21 -28
-20 -19 2 4 9 13 41 21 70 8 29 25 70 39 90 14 20 25 44 25 52 0 9 6 24 13 35
8 11 28 58 46 105 18 47 45 117 61 155 44 110 60 184 51 232 -5 24 -13 48 -19
55 -5 7 -13 31 -16 53 -6 35 -5 37 5 15 6 -14 19 -42 30 -62z m190 -223 c-29
-108 -59 -193 -60 -166 -1 22 39 167 60 220 18 45 18 15 0 -54z m-131 -790 c0
-9 -7 -18 -16 -22 -18 -7 -39 11 -30 26 11 17 46 13 46 -4z"/>
<path d="M2665 3599 c-77 -3 -200 -10 -273 -14 l-132 -8 -26 -46 c-24 -43 -24
-46 -7 -59 12 -9 31 -11 56 -8 l38 6 32 -67 32 -68 0 -282 c0 -155 3 -284 7
-288 10 -11 28 65 28 121 0 28 7 118 16 200 18 168 16 188 -25 296 -31 84 -75
146 -103 147 -20 1 -25 21 -5 21 211 -3 501 21 547 46 29 15 47 15 -185 3z"/>
<path d="M2182 3555 c-13 -7 -35 -24 -50 -38 -15 -13 -37 -30 -49 -36 -32 -16
-28 -31 8 -31 44 0 63 14 98 70 32 52 31 56 -7 35z"/>
<path d="M4552 3541 c11 -18 10 -25 -4 -48 -14 -22 -24 -27 -48 -25 -33 2 -43
-21 -12 -32 9 -3 22 -9 29 -12 16 -7 56 77 51 107 -2 12 -9 24 -16 27 -11 3
-11 1 0 -17z"/>
<path d="M1841 3502 c-19 -7 -71 -15 -115 -17 -45 -2 -103 -8 -130 -15 -27 -6
-94 -15 -148 -20 -76 -7 -107 -15 -131 -32 -27 -20 -45 -22 -166 -25 -75 -2
-175 -3 -224 -3 -87 2 -88 1 -170 -45 -183 -105 -179 -102 -232 -227 -26 -62
-55 -129 -65 -148 -41 -80 -90 -201 -90 -221 0 -12 5 -39 11 -59 11 -36 9 -42
-40 -125 -28 -48 -51 -94 -51 -103 0 -10 9 -42 19 -72 17 -52 20 -55 57 -61
21 -3 60 -15 86 -27 26 -12 51 -22 55 -22 21 0 240 -93 258 -109 11 -10 61
-40 110 -66 98 -51 176 -104 215 -145 14 -15 62 -59 107 -99 l82 -72 28 18
c15 10 37 24 48 29 26 14 31 58 10 90 -22 34 -40 30 -19 -5 19 -33 13 -61 -14
-61 -10 0 -27 -6 -37 -14 -17 -12 -30 -3 -149 106 -72 66 -132 124 -134 128
-8 21 68 21 148 -1 84 -23 88 -25 201 -135 l37 -35 67 30 c37 17 71 31 76 31
4 0 9 -21 11 -47 l4 -48 13 47 c15 54 38 80 51 58 11 -18 4 -138 -9 -154 -8
-10 -24 -12 -51 -9 -41 6 -55 -9 -22 -22 57 -23 71 -23 85 -2 20 32 58 139
113 324 l49 163 61 31 c97 50 104 58 119 130 31 148 36 225 18 301 -14 58 -22
72 -43 81 -23 10 -84 69 -172 167 -32 36 -40 40 -65 34 -81 -21 -91 1 -28 63
46 47 46 47 39 100 -7 60 -14 63 -73 32 -30 -15 -43 -30 -50 -55 -5 -18 -19
-47 -30 -63 -12 -16 -21 -34 -21 -40 0 -6 -13 -19 -29 -29 -40 -24 -37 -35 17
-53 66 -22 105 -87 126 -212 34 -206 29 -332 -24 -582 -10 -49 -22 -105 -25
-123 -7 -35 -17 -41 -144 -91 l-54 -21 -31 24 c-17 13 -51 44 -76 69 -46 45
-67 54 -180 77 -44 8 -65 7 -103 -4 -26 -8 -47 -11 -47 -7 0 3 24 25 53 48
l53 41 28 136 c31 149 30 155 -22 250 -36 67 -56 72 -50 15 2 -26 -3 -69 -13
-103 l-18 -58 32 -70 c27 -58 32 -79 27 -116 -4 -41 -10 -49 -54 -80 -41 -28
-53 -33 -68 -23 -10 6 -25 11 -33 11 -28 0 -15 34 28 71 l42 37 0 108 c0 67 5
117 13 131 27 48 7 173 -28 173 -10 0 -33 -20 -51 -44 -26 -34 -52 -53 -116
-82 -45 -20 -92 -48 -104 -61 -13 -12 -27 -23 -33 -23 -6 0 -27 -17 -48 -37
-41 -40 -28 -41 -150 2 -47 17 -69 48 -43 63 7 4 27 36 44 71 32 62 32 64 17
102 -32 79 -20 115 115 355 96 171 110 190 189 243 l60 41 100 0 c56 0 133 7
176 17 60 13 80 14 95 5 28 -18 75 -15 117 7 20 11 66 26 102 34 36 9 83 22
105 30 22 8 91 20 153 26 71 7 130 18 159 31 37 16 52 18 82 10 74 -20 114 -4
49 20 -63 23 -102 27 -137 12z m-234 -461 c-11 -31 -10 -33 31 -72 31 -30 42
-48 42 -70 0 -21 -4 -28 -12 -23 -8 5 -9 2 -4 -12 38 -95 61 -306 47 -427 -6
-45 -13 -129 -16 -187 -8 -157 -15 -197 -37 -225 -28 -36 -43 -20 -16 18 20
28 24 49 29 162 4 71 12 171 19 220 13 104 7 229 -20 358 -10 49 -16 96 -13
106 3 11 -12 35 -41 66 -25 26 -46 52 -46 58 0 12 41 69 46 64 2 -2 -2 -18 -9
-36z m-663 -447 c12 -31 6 -119 -9 -141 -8 -12 -49 -40 -90 -63 -43 -24 -93
-62 -119 -91 l-46 -51 -37 15 c-35 13 -39 19 -45 63 -6 42 -4 52 15 72 29 31
117 80 157 89 21 4 55 28 94 64 33 32 64 58 67 59 4 0 10 -7 13 -16z m156
-134 c0 -19 -6 -57 -14 -85 l-13 -50 -21 35 c-27 44 -28 82 -2 105 11 10 22
27 26 38 9 28 24 2 24 -43z m-150 -113 c-1 -60 -16 -93 -51 -110 -13 -7 -25
-23 -27 -36 -3 -16 -8 -21 -20 -17 -88 28 -127 47 -130 61 -5 21 50 71 117
105 31 16 65 35 76 43 28 22 35 13 35 -46z"/>
<path d="M3810 3461 c-5 -11 -10 -35 -10 -54 0 -50 -27 -57 -62 -18 -27 30
-48 40 -48 23 0 -4 13 -23 28 -41 50 -61 112 -38 112 40 0 21 3 44 6 53 9 23
-13 20 -26 -3z"/>
<path d="M2175 3458 c-8 -20 -1 -34 26 -48 25 -14 25 6 -1 40 -16 22 -20 23
-25 8z"/>
<path d="M1862 3443 c-43 -9 -16 -28 49 -35 35 -4 93 -14 129 -22 58 -13 61
-14 25 -15 -22 0 -69 6 -105 14 -36 7 -66 12 -67 11 -2 -1 18 -22 42 -45 25
-24 45 -47 45 -52 0 -5 25 -9 55 -9 71 0 78 -12 65 -117 -5 -43 -12 -142 -16
-221 -5 -118 -3 -158 12 -229 15 -75 16 -97 6 -182 -7 -53 -12 -117 -12 -143
0 -50 -7 -61 -64 -105 -17 -14 -37 -47 -52 -85 -12 -35 -32 -85 -43 -113 -10
-27 -25 -66 -32 -85 -7 -19 -19 -50 -26 -68 -8 -18 -23 -56 -33 -85 -34 -96
-68 -163 -92 -179 -38 -25 -173 -143 -206 -179 -19 -22 -40 -34 -58 -35 -27
-1 -29 -3 -26 -40 l3 -39 -23 27 c-44 52 -156 115 -184 104 -14 -5 -10 -24 15
-81 5 -11 21 -45 34 -77 22 -48 31 -59 70 -76 25 -11 65 -38 89 -60 39 -36 53
-42 128 -55 47 -8 87 -13 88 -11 2 1 -1 24 -6 50 -6 26 -7 57 -2 69 9 25 120
78 143 70 18 -7 74 38 83 68 15 51 84 184 107 207 13 14 55 48 93 75 65 47 94
75 163 155 27 32 30 33 24 10 l-6 -25 29 27 c16 14 44 40 62 57 l33 30 -31 43
c-34 46 -34 42 -9 170 12 65 12 68 -13 120 -29 57 -71 181 -82 238 -4 19 -12
47 -17 61 -8 20 -5 40 11 88 26 74 21 119 -17 170 -26 34 -26 34 -13 114 27
165 14 289 -44 419 l-24 55 -104 7 c-57 3 -119 8 -138 10 -19 2 -45 2 -58 -1z
m368 -698 c0 -36 -6 -57 -21 -75 l-21 -25 6 47 c4 34 0 58 -14 90 -11 24 -19
54 -19 68 0 24 1 23 34 -15 30 -34 35 -47 35 -90z m-82 43 c24 -24 4 -88 -28
-88 -9 0 -8 6 5 20 21 23 13 50 -15 50 -20 0 -26 11 -13 23 10 11 38 8 51 -5z
m23 -315 c5 -24 22 -74 39 -112 39 -90 38 -123 -2 -46 -30 59 -68 180 -68 220
1 20 1 20 12 0 6 -10 15 -39 19 -62z m-30 -150 c-5 -10 -28 -37 -50 -60 -23
-23 -41 -48 -41 -56 0 -7 -22 -58 -50 -112 -27 -54 -50 -104 -50 -110 0 -14
-59 -153 -95 -224 -15 -29 -28 -59 -29 -67 -3 -19 -87 -104 -102 -104 -6 0
-17 -7 -24 -15 -10 -12 -9 -15 5 -15 26 0 80 35 170 112 86 72 117 106 249
268 47 58 97 120 111 138 15 17 30 32 33 32 4 0 8 -33 8 -73 1 -46 -1 -65 -6
-52 -5 11 -9 36 -10 55 l-1 35 -19 -25 c-143 -181 -261 -315 -317 -363 -21
-17 -50 -42 -63 -55 -40 -37 -127 -92 -147 -92 -11 0 -31 -22 -52 -56 -18 -30
-40 -58 -49 -62 -9 -3 -32 -21 -50 -40 -28 -27 -33 -39 -28 -60 4 -15 9 -45
12 -67 6 -39 6 -39 -10 -18 -9 12 -19 48 -22 81 l-7 59 47 33 c56 41 127 140
99 140 -3 0 -23 -19 -45 -42 -21 -23 -41 -39 -44 -35 -11 10 76 107 96 107 28
0 50 11 50 24 0 7 12 19 26 27 44 23 90 94 129 197 62 163 75 193 132 312 53
111 114 197 141 199 9 1 10 -4 3 -16z m118 -111 c12 -44 -1 -105 -27 -124 -9
-7 -62 -62 -116 -123 -111 -123 -266 -274 -281 -275 -5 0 43 51 107 113 64 61
123 126 130 143 16 38 60 89 117 133 54 43 74 86 61 132 -11 39 -11 39 -5 39
2 0 9 -17 14 -38z m-28 -366 c-34 -33 -73 -73 -87 -88 -15 -16 -30 -28 -34
-28 -3 0 33 42 81 93 58 60 89 101 90 117 2 23 2 23 6 -4 4 -24 -5 -38 -56
-90z m-171 -137 c-19 -12 -55 -40 -80 -62 -35 -33 -38 -35 -15 -8 34 39 103
91 119 91 6 0 -5 -9 -24 -21z m-139 -153 c-12 -19 -36 -62 -53 -95 -17 -34
-33 -59 -35 -57 -5 4 60 135 85 174 24 36 27 17 3 -22z"/>
<path d="M1680 3399 c-204 -41 -296 -66 -353 -96 -49 -26 -100 -32 -114 -14
-10 14 -18 14 -70 2 -32 -7 -110 -15 -173 -17 -114 -4 -115 -4 -174 -44 -65
-44 -68 -47 -116 -135 -19 -33 -49 -87 -67 -120 -102 -183 -121 -250 -83 -294
18 -21 31 -24 95 -27 41 -2 75 -2 75 0 0 3 -32 12 -72 21 -39 9 -77 24 -84 33
-17 22 -18 52 -1 53 6 1 18 2 26 3 12 1 39 43 115 186 71 132 79 151 68 162
-6 6 -8 17 -5 24 7 18 136 104 157 104 26 0 96 -41 96 -56 0 -17 24 -29 40
-19 13 8 -16 45 -35 45 -7 0 -15 6 -18 14 -4 10 11 15 66 20 40 3 89 9 110 12
20 3 37 2 37 -3 0 -20 -53 -63 -90 -73 -22 -6 -40 -17 -40 -24 0 -15 83 -42
99 -32 6 4 19 26 29 49 11 23 28 50 38 59 18 16 19 15 19 -42 0 -84 13 -95
118 -95 108 1 134 15 171 94 34 69 45 76 196 111 115 27 143 37 135 50 -4 6
-13 7 -23 1 -9 -5 -60 -19 -112 -31 -172 -39 -184 -46 -222 -135 -7 -16 -29
-40 -48 -53 -31 -21 -43 -23 -104 -19 -77 5 -86 12 -86 73 0 49 13 65 65 86
22 9 80 33 129 53 59 25 127 44 205 56 122 20 183 38 126 37 -16 0 -73 -9
-125 -19z"/>
<path d="M1840 3294 c-25 -7 -55 -14 -67 -14 -12 0 -24 -4 -27 -9 -10 -16 21
-110 49 -147 l28 -37 14 29 c8 16 39 52 69 80 l55 51 -29 31 c-34 36 -31 36
-92 16z"/>
<path d="M1923 3182 c-45 -41 -64 -66 -68 -89 -4 -28 0 -36 47 -76 58 -48 92
-64 103 -47 15 25 3 270 -14 270 -3 0 -34 -26 -68 -58z"/>
<path d="M895 3153 c-3 -27 -19 -70 -34 -98 -21 -37 -30 -71 -35 -128 -7 -76
-13 -95 -62 -205 -22 -48 -30 -82 -20 -82 21 0 56 23 56 36 0 13 6 15 30 10
37 -7 51 6 105 103 36 65 46 75 103 103 73 36 82 54 16 31 -53 -18 -126 -87
-166 -156 -29 -51 -34 -53 -61 -33 -16 13 -15 18 19 90 26 54 39 99 45 149 4
40 15 92 24 117 16 44 14 110 -4 110 -5 0 -12 -21 -16 -47z"/>
<path d="M955 3131 c-7 -12 12 -24 25 -16 11 7 4 25 -10 25 -5 0 -11 -4 -15
-9z"/>
<path d="M1080 3096 c0 -7 7 -19 16 -27 9 -7 29 -39 45 -71 16 -32 36 -58 44
-58 17 0 10 23 -17 59 -10 13 -18 28 -18 34 0 14 -49 77 -61 77 -5 0 -9 -6 -9
-14z"/>
<path d="M982 3084 c4 -21 22 -23 26 -1 2 10 -3 17 -13 17 -10 0 -15 -6 -13
-16z"/>
<path d="M940 3056 c0 -9 7 -16 16 -16 9 0 14 5 12 12 -6 18 -28 21 -28 4z"/>
<path d="M976 3023 c-12 -12 -6 -33 9 -33 8 0 15 6 15 14 0 17 -14 28 -24 19z"/>
<path d="M930 2975 c0 -8 7 -15 15 -15 8 0 15 7 15 15 0 8 -7 15 -15 15 -8 0
-15 -7 -15 -15z"/>
<path d="M1012 2969 c2 -6 8 -10 13 -10 5 0 11 4 13 10 2 6 -4 11 -13 11 -9 0
-15 -5 -13 -11z"/>
<path d="M1280 2952 c0 -16 -5 -54 -11 -85 -9 -43 -16 -57 -28 -55 -22 4 -21
1 26 -147 65 -204 70 -295 27 -435 -14 -49 -24 -96 -20 -106 11 -29 24 -5 56
108 41 142 42 235 6 377 -15 57 -25 105 -23 107 2 2 22 -15 44 -39 61 -63 101
-145 109 -226 4 -45 13 -76 26 -92 17 -20 19 -21 13 -4 -4 11 -12 56 -20 101
-7 44 -23 100 -34 123 l-22 42 21 -13 c38 -23 63 -77 69 -147 7 -77 26 -85 22
-9 -3 64 -27 125 -53 139 -13 7 -17 14 -10 21 12 12 4 48 -12 48 -7 0 -17 -5
-22 -10 -16 -16 -46 -1 -39 20 4 11 -9 32 -36 60 l-42 43 7 61 c4 40 12 65 23
74 21 15 94 15 158 -2 41 -10 53 -19 67 -47 22 -43 36 -138 44 -301 4 -71 11
-128 15 -128 12 0 22 85 15 133 -3 23 -11 89 -16 145 -7 74 -17 120 -36 162
l-26 58 -51 5 c-29 3 -86 15 -127 26 -105 29 -120 28 -120 -7z"/>
<path d="M967 2944 c-8 -8 1 -24 14 -24 5 0 9 7 9 15 0 15 -12 20 -23 9z"/>
<path d="M914 2909 c-8 -14 11 -33 25 -25 6 4 11 11 11 16 0 13 -29 20 -36 9z"/>
<path d="M1167 2900 c-14 -11 -54 -33 -89 -49 -71 -32 -134 -91 -125 -115 8
-20 37 -21 37 -2 0 20 56 65 108 87 43 19 121 77 122 92 0 14 -27 7 -53 -13z"/>
<path d="M507 2613 c-13 -12 -7 -33 8 -33 8 0 15 9 15 20 0 20 -11 26 -23 13z"/>
<path d="M540 2561 c0 -12 5 -21 10 -21 6 0 10 6 10 14 0 8 -4 18 -10 21 -5 3
-10 -3 -10 -14z"/>
<path d="M490 2545 c0 -8 5 -15 10 -15 6 0 10 7 10 15 0 8 -4 15 -10 15 -5 0
-10 -7 -10 -15z"/>
<path d="M562 2513 c5 -25 28 -28 28 -4 0 12 -6 21 -16 21 -9 0 -14 -7 -12
-17z"/>
<path d="M452 2508 c6 -18 28 -21 28 -4 0 9 -7 16 -16 16 -9 0 -14 -5 -12 -12z"/>
<path d="M500 2500 c0 -5 5 -10 10 -10 6 0 10 5 10 10 0 6 -4 10 -10 10 -5 0
-10 -4 -10 -10z"/>
<path d="M3020 2325 c-19 -7 -71 -32 -115 -54 -44 -23 -85 -41 -92 -41 -6 0
-15 -4 -18 -10 -11 -18 58 1 130 35 39 18 89 39 113 46 23 7 41 17 39 23 -5
15 -19 16 -57 1z"/>
<path d="M1945 2251 c-21 -25 -96 -188 -170 -366 -57 -136 -82 -181 -112 -204
-15 -12 -62 -48 -104 -81 -88 -69 -109 -73 -186 -35 -45 23 -65 40 -135 116
-10 10 -29 37 -44 60 -15 24 -52 76 -83 117 -31 41 -65 86 -75 101 -23 33 -95
86 -104 77 -3 -4 8 -18 25 -32 18 -13 56 -57 85 -96 29 -39 64 -86 78 -104 14
-18 45 -59 70 -91 84 -110 150 -167 217 -187 l61 -18 48 32 c44 30 64 46 141
109 12 10 29 21 38 24 8 4 18 15 21 24 3 10 16 41 29 68 28 58 50 108 81 185
12 30 38 92 58 138 20 46 36 89 36 95 0 7 12 30 26 50 30 44 29 57 -1 18z"/>
<path d="M400 2247 c0 -12 9 -28 21 -35 22 -14 174 -69 228 -82 18 -5 45 -20
60 -34 14 -14 43 -32 63 -40 39 -17 108 -81 173 -160 22 -27 53 -61 69 -75 15
-14 36 -42 46 -62 10 -19 34 -54 52 -77 18 -22 48 -61 67 -86 35 -49 51 -55
71 -31 10 12 8 20 -10 42 -77 99 -120 160 -120 170 0 6 -32 44 -70 85 -39 40
-77 84 -85 98 -20 38 -106 115 -156 140 -24 12 -55 33 -69 46 -14 12 -66 36
-115 53 -50 16 -116 39 -147 50 -72 26 -78 26 -78 -2z"/>
<path d="M2710 2189 c-49 -22 -110 -75 -110 -96 0 -7 -13 -28 -30 -46 -16 -19
-30 -38 -30 -42 0 -5 -18 -32 -40 -61 -22 -29 -40 -58 -40 -63 0 -6 -26 -23
-57 -38 -34 -16 -83 -53 -118 -88 -43 -43 -78 -68 -125 -88 -36 -15 -71 -36
-78 -47 -16 -26 -12 -25 45 5 27 14 69 34 95 44 36 15 52 29 65 56 13 28 34
45 93 77 52 28 102 68 163 129 79 79 86 90 75 108 -10 16 -7 27 18 68 22 36
43 55 84 75 64 32 56 37 -10 7z"/>
<path d="M3115 2156 c-28 -13 -83 -34 -123 -45 -39 -12 -74 -27 -78 -33 -5 -7
-2 -9 7 -6 8 3 60 19 115 36 56 18 112 41 125 52 32 26 15 24 -46 -4z"/>
<path d="M2380 2134 c-15 -39 -12 -72 8 -83 21 -11 42 3 42 28 0 23 -23 81
-32 81 -5 0 -13 -12 -18 -26z m30 -46 c0 -16 -3 -19 -11 -11 -6 6 -8 16 -5 22
11 17 16 13 16 -11z"/>
<path d="M3175 2104 c-22 -15 -52 -38 -67 -51 -18 -17 -32 -23 -47 -18 -24 7
-51 -6 -111 -55 -25 -21 -88 -60 -140 -87 -52 -27 -104 -55 -115 -61 -11 -6
-108 -52 -215 -102 -283 -132 -282 -131 -304 -184 -18 -45 -18 -46 2 -88 20
-42 21 -44 3 -93 -9 -27 -26 -68 -36 -90 -29 -60 -25 -171 8 -253 58 -142 129
-238 240 -325 34 -26 39 -27 146 -26 l110 1 37 46 c21 26 45 56 55 67 40 44
174 202 222 260 13 17 28 41 32 55 4 14 15 43 25 65 10 22 27 63 38 90 12 28
46 109 77 180 50 115 58 143 70 245 18 153 28 388 18 423 l-8 27 -40 -26z
m-65 -636 c-17 -35 -42 -85 -54 -113 -13 -27 -35 -75 -49 -105 -14 -30 -30
-66 -35 -80 -64 -155 -138 -276 -150 -241 -2 7 5 25 17 40 12 14 51 87 87 161
170 351 203 414 211 406 3 -2 -9 -33 -27 -68z"/>
<path d="M3354 1879 c-10 -17 13 -36 27 -22 12 12 4 33 -11 33 -5 0 -12 -5
-16 -11z"/>
<path d="M2025 1617 c-12 -9 -14 -16 -7 -21 6 -3 16 3 22 14 13 24 10 25 -15
7z"/>
<path d="M1979 1548 c-53 -107 -89 -196 -89 -220 0 -5 12 0 28 12 15 11 38 29
52 39 21 16 22 21 11 35 -12 14 -15 13 -32 -7 -12 -14 -6 7 17 61 35 82 45
146 13 80z"/>
<path d="M2040 1400 c0 -6 6 -23 14 -39 15 -29 16 -27 -56 -283 -9 -31 -8 -40
11 -64 11 -14 21 -33 21 -41 0 -8 26 -70 59 -137 54 -113 65 -128 137 -194 75
-69 116 -93 132 -77 4 4 -6 18 -23 31 -142 115 -195 181 -232 289 -9 27 -22
60 -30 74 -7 15 -13 31 -13 37 0 6 -9 19 -20 29 -11 10 -20 24 -20 31 0 18 58
220 72 250 9 19 7 32 -7 64 -16 36 -45 55 -45 30z"/>
<path d="M1970 1355 c-7 -8 -46 -40 -87 -71 -54 -41 -72 -59 -64 -67 18 -18
13 -92 -7 -110 -10 -10 -23 -17 -29 -17 -6 0 -13 -7 -17 -15 -8 -21 17 -19 47
5 36 28 44 26 65 -24 27 -59 41 -66 35 -16 -4 28 -1 46 9 58 29 33 60 144 54
190 -3 24 -1 52 4 63 13 23 7 25 -10 4z"/>
<path d="M1707 1282 c-18 -20 -25 -122 -8 -122 7 0 34 130 27 137 -1 2 -10 -5
-19 -15z"/>
<path d="M1784 1286 c-28 -22 -6 -41 24 -20 12 8 22 19 22 25 0 14 -23 11 -46
-5z"/>
<path d="M1786 1198 c-10 -31 -15 -76 -9 -82 13 -12 33 18 33 50 0 33 -17 56
-24 32z"/>
<path d="M1540 1101 c0 -11 4 -22 9 -25 11 -7 23 22 15 35 -9 16 -24 10 -24
-10z"/>
<path d="M1625 1110 c-11 -18 5 -51 23 -47 10 2 16 9 14 16 -1 8 6 11 20 9 15
-2 23 2 23 12 0 18 -69 27 -80 10z"/>
<path d="M1818 1054 c-9 -9 -32 -18 -50 -19 -18 -1 -41 -5 -51 -9 -11 -5 -45
-2 -85 8 -71 17 -182 22 -182 7 0 -4 22 -46 50 -92 27 -46 61 -105 75 -131 14
-26 51 -72 83 -103 58 -55 178 -145 194 -145 5 0 21 -9 36 -20 48 -35 205 -91
306 -110 97 -17 100 -17 154 1 31 11 63 25 71 32 9 7 28 19 44 27 26 13 35 34
20 43 -5 3 -48 -4 -98 -14 l-90 -19 -62 26 c-48 21 -76 42 -120 91 -32 36 -62
72 -67 81 -5 9 -35 53 -66 97 -31 44 -72 107 -90 140 -18 33 -36 65 -40 70 -5
6 -10 20 -12 33 -3 22 -4 22 -20 6z m-118 -109 c0 -25 48 -125 60 -125 5 0 11
-9 15 -20 3 -10 27 -50 52 -87 26 -38 36 -59 24 -48 -49 43 -154 210 -166 264
-4 17 -16 36 -28 43 -22 11 -37 27 -37 40 0 4 18 -5 40 -19 26 -17 40 -34 40
-48z m148 9 c24 -26 51 -61 58 -78 8 -17 30 -56 49 -86 19 -30 44 -74 56 -97
26 -54 99 -120 172 -157 77 -38 73 -51 -5 -18 -98 42 -147 100 -262 312 -37
67 -112 157 -122 147 -3 -3 15 -38 40 -79 25 -40 58 -93 72 -118 61 -104 116
-178 140 -189 15 -6 24 -14 21 -17 -18 -18 -137 94 -137 129 0 6 -20 43 -45
83 -25 39 -45 74 -45 77 0 2 -16 31 -35 63 -19 32 -35 61 -35 66 0 22 38 3 78
-38z"/>
</g>
</svg>
