<?xml version="1.0" standalone="no"?>
<!DOCTYPE svg PUBLIC "-//W3C//DTD SVG 20010904//EN"
 "http://www.w3.org/TR/2001/REC-SVG-20010904/DTD/svg10.dtd">
<svg version="1.0" xmlns="http://www.w3.org/2000/svg"
 width="512.000000pt" height="512.000000pt" viewBox="0 0 512.000000 512.000000"
 preserveAspectRatio="xMidYMid meet">
<metadata>
Created by potrace 1.16, written by Peter Selinger 2001-2019
</metadata>
<g transform="translate(0.000000,512.000000) scale(0.100000,-0.100000)"
fill="#f2f2f2" stroke="none">
<path d="M4210 4953 c-49 -18 -274 -109 -353 -144 -50 -22 -109 -47 -129 -56
-21 -9 -38 -20 -38 -24 0 -10 87 22 274 102 l140 59 57 -11 c77 -15 109 -6 34
10 l-60 13 45 19 c64 26 79 23 129 -21 48 -42 49 -41 -23 -52 -11 -2 -23 -16
-29 -33 -5 -16 -18 -39 -28 -51 -19 -20 -19 -21 -1 -37 10 -9 26 -17 34 -17
25 0 48 -11 43 -21 -3 -4 5 -13 17 -20 13 -6 35 -23 51 -37 15 -14 27 -21 27
-16 0 12 -35 45 -65 63 -18 10 -17 11 10 9 25 -3 38 -14 73 -68 23 -36 68
-102 100 -148 31 -45 58 -92 60 -103 3 -19 5 -19 28 -4 24 15 28 15 66 -5 22
-11 43 -19 46 -16 7 8 -178 312 -249 411 -67 92 -96 123 -161 171 -45 33 -66
39 -98 27z m223 -192 c52 -75 227 -357 227 -367 0 -3 -9 0 -21 6 -15 9 -24 8
-35 -1 -8 -6 -16 -10 -18 -8 -19 24 -89 135 -109 174 -46 91 -81 126 -150 149
-44 15 -61 25 -58 36 2 8 7 29 10 45 7 29 19 35 87 44 6 0 36 -35 67 -78z"/>
<path d="M4185 4836 c-31 -14 -45 -25 -37 -30 6 -4 21 -2 32 4 33 18 46 6 20
-18 -23 -21 -23 -22 -3 -22 11 0 25 6 30 13 14 17 25 65 16 70 -5 3 -30 -5
-58 -17z"/>
<path d="M3867 4715 c-151 -60 -176 -64 -257 -41 -70 21 -84 16 -77 -28 4 -26
2 -35 -11 -39 -9 -3 -71 -30 -137 -60 -158 -73 -260 -117 -430 -187 -230 -94
-287 -122 -276 -133 8 -8 40 2 104 31 81 37 98 42 132 34 32 -6 41 -13 43 -32
3 -23 -5 -28 -73 -54 -41 -16 -78 -27 -80 -24 -3 3 24 18 60 34 35 16 65 32
65 37 0 15 -42 6 -92 -19 -37 -19 -53 -23 -58 -14 -6 9 -16 10 -36 3 -30 -10
-45 -33 -21 -33 8 0 20 -7 27 -16 12 -13 10 -14 -14 -3 -22 11 -29 10 -36 -1
-7 -11 -16 -7 -45 18 -19 18 -40 32 -46 32 -6 0 -32 -9 -59 -21 -34 -15 -52
-29 -61 -50 -6 -17 -19 -35 -29 -42 -28 -20 -52 -65 -46 -85 4 -11 2 -32 -4
-47 -16 -42 3 -86 45 -109 34 -19 101 -85 158 -156 15 -19 23 -25 17 -13 -5
12 -37 55 -69 96 -33 41 -58 77 -55 80 3 2 -6 7 -20 11 l-25 6 17 46 17 46
-27 22 c-31 24 -35 38 -14 55 19 16 56 -44 56 -92 0 -20 6 -40 13 -44 7 -4 31
-37 52 -73 73 -124 144 -216 181 -233 19 -9 37 -24 40 -32 9 -23 24 -18 24 8
0 24 -27 57 -47 57 -15 0 -56 56 -114 157 -59 102 -85 133 -112 133 -16 0 -18
5 -13 25 3 14 9 36 12 50 5 18 -1 35 -20 59 -23 30 -25 38 -14 60 16 37 37 32
101 -25 77 -68 87 -54 12 16 -57 53 -58 55 -34 64 26 9 32 6 97 -53 37 -34 40
-51 13 -80 -28 -31 -53 -96 -37 -96 6 0 21 -15 32 -33 10 -18 45 -69 77 -113
91 -123 228 -368 241 -430 8 -36 28 -58 69 -73 32 -12 47 -45 47 -102 0 -32
-3 -39 -20 -39 -34 0 -65 20 -80 53 -8 18 -29 41 -46 52 -23 14 -34 30 -38 56
-3 20 -15 44 -27 55 -12 10 -32 44 -46 74 -19 44 -100 140 -118 140 -13 0 -3
-29 15 -45 11 -10 20 -22 20 -28 0 -5 12 -36 26 -68 19 -41 37 -65 60 -79 32
-18 34 -22 28 -58 -7 -44 5 -58 51 -64 24 -2 32 -10 41 -38 19 -60 113 -100
159 -66 15 11 17 21 12 60 -8 57 -31 103 -55 110 -10 4 -28 35 -46 81 -16 41
-32 75 -37 75 -8 0 -39 57 -39 72 0 18 -125 213 -207 322 -45 61 -82 120 -82
131 0 38 66 -52 230 -312 71 -115 99 -150 99 -128 0 15 -59 120 -122 217 -39
60 -68 111 -66 114 3 2 22 -24 44 -58 38 -62 84 -118 157 -188 20 -21 37 -42
37 -48 0 -7 4 -12 9 -12 17 0 81 30 81 38 0 5 -15 55 -34 113 -19 57 -30 108
-26 113 5 5 80 37 166 72 183 73 165 76 287 -37 l71 -66 46 18 c25 10 63 22
85 28 22 6 46 15 53 19 14 10 19 146 7 222 l-7 46 114 57 c62 31 127 60 143
63 29 5 62 -14 225 -134 14 -10 22 -10 46 3 16 8 35 15 43 15 31 0 -42 166
-111 251 l-46 57 24 38 c13 22 24 45 24 53 0 25 -61 90 -120 126 -33 20 -68
47 -79 61 -28 35 -58 31 -214 -31z m308 -75 c10 -12 34 -30 52 -41 39 -24 40
-31 13 -87 -26 -54 -25 -71 6 -118 33 -48 23 -68 -35 -72 -30 -2 -50 3 -72 19
-35 24 -59 19 -59 -13 0 -32 -10 -43 -49 -56 -51 -18 -112 -14 -156 8 -22 11
-44 20 -51 20 -18 0 -34 -48 -34 -106 0 -50 -2 -55 -26 -65 -23 -8 -33 -5 -65
17 -22 15 -39 31 -39 36 0 5 -15 8 -32 6 l-33 -3 0 -69 0 -69 -33 -3 c-29 -3
-42 3 -90 46 -77 68 -82 67 -98 -23 -7 -43 -38 -87 -62 -87 -9 0 -33 12 -54
26 -20 15 -44 24 -51 21 -8 -3 -18 -25 -21 -50 -7 -48 -26 -70 -66 -80 -20 -5
-33 2 -67 35 -43 43 -73 46 -73 9 0 -11 -4 -22 -9 -25 -5 -4 -5 -22 0 -43 15
-65 12 -75 -18 -71 -18 2 -29 10 -32 23 -2 11 -17 36 -35 56 -17 20 -46 56
-65 79 -19 23 -47 47 -62 52 -29 10 -38 31 -19 43 6 3 10 -4 10 -17 1 -22 2
-22 30 9 24 27 34 31 52 24 13 -4 35 -11 49 -14 26 -7 26 -7 16 33 -13 48 -4
60 31 39 15 -8 46 -26 69 -40 23 -13 45 -20 49 -16 4 4 -3 29 -16 56 -12 27
-20 54 -16 59 4 7 26 2 62 -15 64 -29 87 -25 82 14 -2 23 0 27 17 25 93 -16
85 -18 85 23 l0 37 38 -8 c20 -4 53 -8 72 -8 34 -1 35 0 34 37 -1 20 1 37 3
37 2 0 20 -7 40 -15 67 -28 88 -20 86 33 -1 10 12 12 53 6 64 -8 87 5 78 43
-7 25 -6 25 37 17 81 -14 94 -12 97 19 3 27 5 28 48 21 51 -7 78 8 68 38 -5
17 -3 19 18 12 12 -5 43 -9 68 -9 39 0 45 3 48 23 3 16 10 22 28 22 26 0 30
11 14 41 -12 22 -10 23 41 7 49 -14 57 -7 30 28 -34 43 -22 64 14 24z m-1725
-701 c0 -24 -4 -38 -10 -34 -17 10 -11 75 7 75 2 0 3 -18 3 -41z"/>
<path d="M4293 4581 c9 -24 7 -34 -11 -63 -24 -39 -27 -48 -13 -48 14 0 50 54
54 81 4 27 -12 59 -30 59 -8 0 -9 -7 0 -29z"/>
<path d="M4340 4567 c0 -4 5 -16 12 -26 10 -16 7 -24 -15 -51 -15 -17 -27 -42
-27 -54 0 -22 94 -241 111 -260 25 -27 13 12 -36 118 -30 65 -55 128 -55 141
0 14 11 32 27 44 24 20 27 20 44 5 24 -22 115 -211 135 -281 8 -29 19 -53 24
-53 12 0 29 -116 28 -200 -1 -95 -15 -49 -17 53 l-1 69 -47 -5 c-27 -3 -67
-11 -90 -18 -48 -15 -25 -27 -224 124 -98 74 -133 89 -155 67 -5 -5 -52 -32
-104 -59 l-95 -50 0 -58 c0 -32 3 -87 6 -123 l6 -65 2 78 c0 42 5 77 10 77 12
0 25 -169 16 -208 -9 -41 -21 -49 -104 -72 -110 -31 -121 -29 -183 37 -79 84
-147 147 -170 155 -25 10 -82 -18 -75 -36 4 -10 -29 -24 -109 -50 -95 -31
-114 -40 -110 -54 3 -9 15 -55 26 -101 12 -46 28 -90 36 -98 8 -8 14 -13 14
-11 0 2 -9 37 -20 78 -25 95 -24 118 2 60 18 -41 53 -179 46 -185 -2 -1 -38
-19 -80 -40 -43 -21 -78 -40 -78 -44 0 -3 12 -35 27 -69 l27 -64 41 7 c41 6
43 5 55 -27 7 -18 20 -41 28 -50 13 -16 17 -16 51 -2 64 28 66 28 35 1 -18
-15 -40 -27 -50 -27 -10 0 -28 -12 -41 -27 l-22 -28 -1 42 c0 49 -15 93 -31
93 -7 0 -8 -7 -4 -17 4 -10 9 -42 10 -72 4 -68 19 -85 46 -52 11 14 32 26 46
27 15 2 59 25 97 52 39 27 116 72 171 99 55 27 150 75 212 106 62 31 188 85
280 120 158 61 371 161 438 206 44 30 53 26 19 -10 -39 -42 -116 -83 -356
-193 -112 -51 -258 -121 -324 -154 -67 -34 -168 -79 -225 -102 -118 -46 -578
-271 -579 -282 -1 -21 56 1 246 98 115 59 269 131 343 161 74 30 191 83 260
118 69 35 207 100 306 145 191 86 319 151 348 177 9 9 29 37 43 62 24 42 26
55 25 151 -2 128 -14 200 -52 303 -29 81 -80 179 -105 205 -8 7 -14 18 -14 23
0 6 -5 7 -10 4 -6 -4 -28 13 -50 37 -22 23 -39 40 -40 35z m-369 -427 c-34
-22 -67 -51 -73 -65 -10 -22 -13 -24 -21 -10 -14 25 19 64 76 90 79 36 87 29
18 -15z m560 -151 c20 -37 -4 -90 -56 -128 -45 -32 -267 -142 -364 -181 -28
-11 -86 -37 -130 -59 -79 -40 -272 -123 -389 -167 -34 -13 -72 -30 -85 -38
-12 -8 -58 -27 -102 -41 -44 -15 -89 -34 -99 -41 -16 -11 -23 -10 -47 7 -16
11 -26 26 -23 33 4 12 -2 13 -32 6 -43 -10 -50 -8 -57 20 -4 16 -2 18 13 10
28 -15 42 -12 38 8 -3 14 26 27 162 73 161 54 520 207 550 234 8 8 57 28 108
45 159 53 457 192 476 222 14 24 23 23 37 -3z"/>
<path d="M4500 4140 c34 -11 60 -11 35 0 -11 5 -29 8 -40 8 -16 0 -15 -2 5 -8z"/>
<path d="M2340 3833 c-8 -2 -28 -11 -45 -18 -16 -7 -65 -27 -109 -45 -112 -44
-140 -60 -128 -72 6 -6 23 -3 48 10 83 42 170 73 192 67 15 -4 22 -1 22 8 0
11 12 13 49 9 30 -2 51 0 55 7 5 7 -4 11 -26 12 -18 0 -27 3 -20 6 6 2 10 9 6
14 -6 10 -20 10 -44 2z"/>
<path d="M2394 3755 c-47 -15 -104 -43 -104 -51 0 -4 8 -3 18 1 40 16 155 46
166 42 6 -2 -27 -16 -74 -32 -96 -31 -94 -30 -86 -43 6 -9 168 37 183 51 9 10
-28 47 -46 46 -9 -1 -34 -7 -57 -14z"/>
<path d="M2413 3667 c-130 -65 -103 -66 59 -2 11 4 23 -1 34 -13 10 -13 24
-18 38 -14 18 5 19 3 8 -11 -17 -20 -8 -37 19 -37 11 0 17 -4 14 -10 -3 -5 -3
-16 2 -22 10 -18 3 -71 -11 -80 -22 -15 -26 -8 -19 37 l6 45 -57 26 c-31 14
-64 24 -73 22 -20 -4 -39 -31 -103 -149 -53 -97 -77 -116 -125 -102 -38 12
-51 2 -99 -74 -24 -39 -24 -43 -8 -51 42 -22 71 -21 123 2 93 40 200 84 324
132 66 25 126 52 134 59 19 18 6 66 -20 72 -12 4 -18 11 -15 20 6 15 -122 193
-139 192 -5 0 -47 -19 -92 -42z"/>
<path d="M1315 3425 c-799 -326 -723 -292 -729 -323 -3 -15 -6 -97 -7 -182 0
-85 -2 -171 -2 -190 -1 -20 -23 -75 -48 -125 -133 -257 -157 -455 -99 -794 37
-212 49 -262 107 -420 42 -116 44 -127 33 -169 -8 -34 -8 -47 2 -59 19 -24 88
-64 97 -58 5 2 21 34 37 70 16 36 36 68 46 71 9 3 68 -4 130 -15 62 -11 140
-22 173 -26 117 -12 288 -46 355 -69 33 -12 92 -7 107 8 10 10 -33 81 -107
181 -146 195 -244 386 -318 620 -88 273 -121 439 -122 595 0 71 -3 87 -18 96
-23 15 -80 28 -113 26 -47 -3 -65 24 -78 122 l-12 89 27 28 c19 19 41 30 73
35 25 4 66 14 91 24 47 18 53 18 110 -6 l35 -15 420 177 c231 97 430 186 443
198 12 11 39 39 60 61 67 72 108 110 150 139 23 16 45 39 48 50 4 12 13 29 22
39 14 16 12 17 -29 16 -53 -1 -103 -17 -56 -18 35 -1 27 -16 -12 -24 -16 -4
-45 -22 -64 -42 -19 -19 -37 -35 -41 -35 -4 0 -22 -12 -41 -26 -27 -20 -38
-23 -54 -15 -30 16 -41 13 -41 -10 0 -17 -4 -20 -24 -15 -18 4 -29 1 -39 -14
-10 -15 -23 -20 -48 -18 -31 3 -34 1 -32 -22 2 -19 -4 -28 -24 -37 -15 -7 -35
-13 -44 -13 -10 0 -22 -7 -27 -16 -8 -14 -14 -15 -42 -6 -37 13 -50 9 -50 -17
0 -13 -7 -16 -32 -13 -41 4 -88 -13 -88 -33 0 -11 -7 -13 -27 -9 -22 4 -34 -1
-57 -25 -21 -22 -39 -31 -61 -31 -17 0 -36 -5 -42 -11 -8 -8 -17 -8 -31 0 -34
18 -52 13 -63 -19 -9 -26 -13 -28 -30 -17 -12 7 -18 19 -15 30 2 9 0 17 -4 17
-5 0 -14 -8 -19 -17 -6 -10 -11 -13 -11 -6 0 24 13 43 31 43 10 0 19 5 19 10
0 6 11 10 25 10 14 0 28 7 32 15 7 20 66 45 107 45 37 0 61 14 52 28 -4 7 5 9
29 5 28 -5 35 -2 35 11 0 12 8 16 32 14 18 -1 33 3 36 10 2 6 14 12 27 12 26
0 75 39 75 60 0 9 10 10 34 6 20 -4 37 -2 41 4 3 5 19 10 36 10 19 0 29 5 29
15 0 11 12 15 45 15 33 0 45 4 45 15 0 10 10 15 34 15 21 0 36 6 40 16 3 8 10
13 15 10 5 -3 25 -8 45 -11 l37 -4 -23 31 c-20 29 -21 31 -2 24 35 -15 64 -19
64 -8 0 6 10 12 23 14 14 2 21 9 20 21 -1 13 4 17 15 12 15 -5 15 -4 2 8 -18
17 -123 57 -148 57 -9 -1 -287 -111 -617 -245z m-256 -277 c-26 -81 -33 -86
-26 -16 6 64 12 78 32 78 10 0 9 -13 -6 -62z m-66 18 c21 -16 22 -45 2 -52 -8
-4 -15 -15 -15 -26 0 -16 -5 -19 -24 -14 -18 4 -32 -1 -52 -19 -15 -14 -37
-25 -49 -25 -13 0 -28 -7 -35 -15 -8 -9 -21 -13 -36 -9 -20 5 -24 2 -24 -18 0
-21 -3 -23 -40 -20 l-39 4 27 34 c15 19 35 34 45 34 9 0 26 9 38 21 12 12 32
20 47 19 46 -3 52 -1 52 22 0 17 3 19 12 10 22 -22 38 -13 38 22 0 30 9 43 30
45 3 0 13 -6 23 -13z m-349 -278 c14 -97 16 -143 5 -128 -8 11 -9 7 -4 -18 4
-17 8 -53 10 -79 3 -47 3 -47 -12 -20 -19 37 -28 151 -11 141 8 -5 9 -2 3 12
-11 26 -17 146 -6 140 5 -3 11 -25 15 -48z m-31 -865 c-8 -23 -34 -53 -45 -53
-17 0 -7 30 18 49 32 25 35 26 27 4z m-5 -149 c-16 -34 -36 -42 -45 -18 -4 12
3 25 22 42 33 28 43 17 23 -24z m70 -81 c-33 -97 -64 -134 -83 -103 -10 16 24
83 63 123 20 20 37 37 38 37 1 0 -7 -26 -18 -57z m42 -125 c-23 -83 -56 -158
-69 -158 -30 0 -30 54 -1 111 17 32 82 121 86 117 1 -2 -6 -33 -16 -70z m10
-165 c-11 -88 -20 -123 -34 -123 -18 0 -36 21 -36 43 0 21 59 137 70 137 3 0
3 -26 0 -57z m229 -198 c86 -37 115 -45 69 -19 -53 28 -27 34 40 8 40 -16 93
-27 132 -30 36 -1 88 -9 115 -18 50 -14 50 -14 14 -15 -20 -1 -61 4 -90 9 -30
6 -74 13 -99 15 -25 2 -54 6 -65 10 -14 4 -12 1 5 -9 25 -15 24 -15 -15 -9
-50 7 -179 59 -196 79 -17 21 -2 17 90 -21z"/>
<path d="M2320 3511 c-12 -17 -17 -31 -11 -31 13 0 46 48 38 56 -2 3 -15 -9
-27 -25z"/>
<path d="M2250 3455 c-7 -9 -10 -18 -7 -22 8 -7 37 15 37 28 0 14 -16 11 -30
-6z"/>
<path d="M2235 3410 l-30 -8 32 -1 c17 0 35 4 38 9 7 11 3 11 -40 0z"/>
<path d="M1630 3400 c0 -5 10 -15 23 -21 22 -12 22 -12 3 10 -21 23 -26 26
-26 11z"/>
<path d="M1620 3365 c7 -8 17 -15 22 -15 6 0 5 7 -2 15 -7 8 -17 15 -22 15 -6
0 -5 -7 2 -15z"/>
<path d="M2615 3301 c-203 -82 -309 -131 -345 -160 -19 -15 -44 -31 -55 -36
-18 -8 -17 -9 8 -13 22 -3 41 -23 97 -107 39 -58 70 -111 70 -120 0 -25 22
-17 48 17 12 15 10 25 -15 70 -44 79 -36 104 47 145 171 85 244 106 280 83 11
-7 6 -10 -20 -10 -32 0 -81 -22 -214 -94 -27 -14 -55 -26 -62 -26 -8 0 -14 -6
-14 -14 0 -23 52 -26 95 -4 51 25 173 68 195 68 10 0 33 -24 53 -55 20 -30 45
-58 55 -64 16 -8 17 -6 14 27 -8 68 -96 152 -144 136 -15 -4 -18 -3 -13 6 10
17 87 7 120 -14 15 -10 53 -59 86 -109 34 -51 65 -94 71 -96 12 -4 -6 33 -38
76 -14 18 -27 53 -31 78 -4 30 -13 52 -27 63 -12 9 -25 26 -30 37 -6 16 -9 17
-16 5 -7 -12 -17 -11 -64 5 -74 25 -127 14 -272 -57 -85 -41 -110 -58 -112
-75 -3 -21 -22 -33 -22 -14 0 4 -11 24 -24 44 l-24 35 86 40 c48 22 137 61
197 87 61 26 115 53 121 61 6 8 16 14 23 14 6 0 11 5 11 10 0 15 -6 13 -135
-39z m-265 -135 c0 -2 -16 -13 -35 -25 -19 -11 -35 -17 -35 -12 0 4 15 15 33
24 37 18 37 18 37 13z m530 -59 c0 -5 -7 -4 -15 3 -8 7 -15 20 -15 29 1 13 3
13 15 -3 8 -11 15 -24 15 -29z m-200 28 c0 -5 -68 -35 -79 -35 -8 1 61 39 72
40 4 0 7 -2 7 -5z"/>
<path d="M2729 3304 c-10 -13 -10 -17 2 -25 19 -12 62 -11 54 1 -3 6 -13 10
-22 10 -13 0 -13 3 -3 15 10 12 10 15 -3 15 -8 0 -20 -7 -28 -16z"/>
<path d="M2560 3209 c-85 -34 -167 -65 -182 -71 -24 -9 -39 -28 -22 -28 4 0
242 90 357 135 17 7 24 25 10 25 -5 0 -78 -28 -163 -61z"/>
<path d="M2790 3251 c0 -5 5 -13 10 -16 6 -3 10 -2 10 4 0 5 -4 13 -10 16 -5
3 -10 2 -10 -4z"/>
<path d="M1285 3240 c-8 -13 4 -32 16 -25 12 8 12 35 0 35 -6 0 -13 -4 -16
-10z"/>
<path d="M1244 3224 c3 -9 6 -18 6 -20 0 -2 5 -4 10 -4 6 0 10 9 10 20 0 12
-7 20 -16 20 -11 0 -14 -5 -10 -16z"/>
<path d="M2035 3174 c55 -48 54 -58 -3 -19 -49 33 -68 32 -165 -12 -94 -42
-92 -41 -84 -49 3 -3 46 12 95 35 49 23 95 41 102 41 14 0 120 -77 120 -87 0
-10 -44 -73 -51 -73 -3 0 -45 14 -94 30 -49 17 -91 30 -94 30 -15 -1 39 -25
115 -50 l84 -29 25 27 c37 40 40 60 14 88 -12 13 -17 24 -10 24 22 0 -50 78
-77 83 -24 4 -21 0 23 -39z"/>
<path d="M1815 3181 c-22 -9 -56 -26 -77 -36 -20 -11 -52 -28 -72 -39 -20 -10
-35 -20 -33 -22 2 -2 60 23 128 56 114 55 148 81 54 41z"/>
<path d="M3080 3110 c-9 -6 -10 -10 -3 -10 6 0 15 5 18 10 8 12 4 12 -15 0z"/>
<path d="M2151 3046 c-23 -76 -25 -86 -12 -86 11 0 45 123 39 141 -3 8 -15
-17 -27 -55z"/>
<path d="M2950 3075 c0 -2 5 -16 12 -30 12 -28 30 -32 47 -12 8 11 3 17 -24
30 -19 9 -35 15 -35 12z"/>
<path d="M1740 3043 c0 -10 629 -207 637 -199 7 7 33 -2 -316 106 -161 51
-300 94 -307 97 -8 3 -14 1 -14 -4z"/>
<path d="M1445 3009 c-22 -10 -29 -16 -15 -13 28 7 80 33 65 33 -5 0 -28 -9
-50 -20z"/>
<path d="M1730 3001 c0 -10 375 -122 405 -120 17 1 -33 18 -216 75 -189 58
-189 58 -189 45z"/>
<path d="M2207 2977 c-9 -15 -13 -28 -7 -32 11 -6 33 31 28 47 -2 6 -12 -1
-21 -15z"/>
<path d="M1325 2966 c-89 -34 -233 -105 -241 -118 -5 -8 -2 -9 9 -5 18 7 23
-9 9 -29 -5 -9 -28 -5 -83 13 -69 23 -79 24 -105 12 -18 -9 -29 -22 -29 -34 0
-18 9 -21 75 -25 75 -5 106 -16 129 -44 23 -27 1 -40 -26 -15 -20 20 -38 24
-118 29 -52 3 -95 2 -95 -2 0 -6 34 -13 131 -23 42 -5 63 -12 80 -31 27 -28
32 -29 53 -8 24 23 20 43 -16 77 -22 20 -26 26 -11 18 12 -6 25 -16 28 -21 12
-20 33 -9 39 20 4 25 10 30 34 30 24 0 32 -7 47 -40 25 -54 59 -90 87 -90 35
0 377 -114 376 -125 -3 -17 31 -85 41 -85 16 0 65 -82 63 -104 0 -11 -8 -24
-17 -28 -28 -16 -9 -104 35 -160 21 -25 58 -83 84 -127 52 -90 60 -96 186
-136 81 -25 103 -27 143 -10 12 5 17 3 15 -6 -7 -35 -101 -23 -236 30 -56 22
-76 14 -65 -28 3 -13 1 -26 -4 -30 -6 -4 -8 -37 -4 -88 5 -65 11 -86 29 -105
12 -14 22 -28 22 -34 0 -5 23 -29 51 -54 46 -41 52 -51 55 -95 3 -26 13 -68
24 -93 17 -37 20 -67 20 -174 0 -105 -3 -130 -15 -134 -12 -5 -14 -18 -9 -63
4 -31 10 -60 15 -65 16 -17 10 -52 -12 -72 -17 -15 -20 -27 -16 -62 2 -23 12
-51 21 -61 16 -18 24 -141 9 -141 -5 0 -55 13 -113 29 -114 32 -287 73 -390
92 -75 13 -280 14 -327 0 -30 -9 -32 -8 -40 27 -6 25 -20 44 -43 60 -37 25
-47 46 -49 103 -1 34 0 36 54 53 31 9 70 24 88 32 31 14 30 14 -28 8 -33 -4
-72 -13 -87 -20 -15 -8 -35 -14 -46 -14 -38 0 -41 -18 -16 -112 20 -81 28 -96
63 -129 25 -22 44 -49 47 -69 10 -50 43 -65 111 -51 109 22 417 5 518 -29 l30
-10 -30 5 c-16 3 -75 7 -130 10 l-100 5 75 -14 c41 -7 93 -18 115 -24 73 -20
296 -53 316 -47 10 4 19 2 19 -3 0 -23 112 -43 132 -23 4 4 121 -22 260 -56
139 -34 259 -62 267 -60 18 3 -250 83 -391 116 -83 20 -105 29 -99 39 7 11 31
7 122 -22 63 -19 227 -65 364 -101 138 -37 264 -72 280 -80 17 -7 80 -21 140
-30 61 -10 126 -26 145 -36 19 -9 57 -25 83 -35 l48 -17 -28 -18 c-18 -12 -30
-15 -34 -8 -9 16 -44 7 -44 -11 0 -11 13 -16 47 -18 40 -3 52 1 73 22 33 33
33 66 1 66 -14 0 -121 29 -238 64 -118 36 -353 102 -523 147 -171 45 -335 89
-367 98 -53 14 -56 17 -62 51 -11 69 -7 108 12 115 23 7 42 46 42 84 0 27 -26
61 -47 61 -6 0 -14 12 -17 27 -7 24 0 35 26 45 3 2 8 24 9 50 2 34 -2 52 -15
67 -16 17 -18 36 -14 165 3 131 5 147 23 160 20 14 20 15 2 86 -15 57 -17 80
-8 118 34 156 44 232 31 247 -7 8 -21 15 -32 15 -34 0 -88 28 -83 43 3 7 -5
19 -18 26 -21 11 -28 10 -51 -4 -26 -17 -30 -17 -125 14 -98 31 -99 32 -132
84 -65 105 -67 98 19 64 42 -16 85 -33 94 -38 10 -5 27 -9 38 -9 12 0 19 -4
15 -9 -8 -13 35 -51 57 -51 10 0 18 7 18 15 0 9 7 18 15 21 23 9 18 23 -10 30
-14 3 -25 10 -25 15 0 10 -217 116 -278 135 -23 7 -40 9 -37 4 12 -19 -12 -10
-33 13 -32 34 -27 38 20 21 23 -8 49 -12 59 -9 10 3 49 -6 86 -20 141 -55 183
-67 183 -56 0 5 -27 16 -60 25 -33 9 -60 19 -60 22 0 3 6 4 13 3 29 -4 37 2
35 27 -2 17 -11 29 -27 35 -13 5 -22 12 -19 15 3 2 17 0 32 -6 33 -12 46 -13
46 -2 0 4 -67 29 -148 55 -130 42 -150 51 -166 77 -16 28 -11 40 10 21 29 -26
264 -61 264 -39 0 4 -6 8 -13 8 -8 0 -19 11 -25 24 -11 24 -11 24 71 -9 45
-18 84 -31 86 -29 6 6 5 7 -103 48 -140 55 -350 154 -355 167 -2 8 1 9 10 3
14 -9 19 -10 54 -13 17 -1 18 -3 5 -12 -11 -8 -8 -9 15 -4 52 11 255 116 255
132 0 10 6 12 19 8 11 -3 54 -7 98 -9 43 -3 86 -8 97 -12 14 -5 17 -3 14 7 -2
7 -15 16 -29 20 -22 6 -21 7 10 10 34 4 33 5 -40 40 -41 20 -85 41 -99 47
l-25 12 25 -5 c59 -14 -14 16 -171 68 -246 82 -328 106 -333 98 -3 -4 35 -20
84 -36 49 -16 88 -30 86 -32 -1 -2 -52 9 -113 23 -102 24 -113 25 -144 11 -19
-8 -57 -18 -85 -20 -28 -3 -78 -17 -111 -30 -49 -20 -63 -22 -77 -12 -28 21
-56 7 -56 -26 0 -33 -22 -48 -44 -30 -12 10 -12 16 0 41 11 20 35 38 82 60
116 53 127 59 117 59 -5 0 -37 -10 -70 -23z m364 -67 c24 -10 63 -22 85 -25
23 -3 77 -16 121 -29 44 -14 97 -27 117 -30 33 -5 88 -51 88 -74 0 -12 -71
-48 -159 -80 -73 -27 -85 -29 -107 -18 -25 13 -24 14 48 42 114 45 170 72 160
79 -9 6 -111 -34 -210 -82 -35 -17 -48 -19 -75 -10 -18 6 -37 17 -43 24 -14
18 -59 34 -94 34 -68 0 -60 13 32 52 93 40 124 58 99 58 -20 0 -172 -68 -193
-86 -16 -16 -21 -16 -61 0 -23 9 -50 16 -59 16 -8 0 -21 6 -27 14 -19 23 7 25
48 4 39 -20 61 -23 61 -8 0 6 -8 10 -18 10 -10 0 -26 6 -35 13 -15 10 -9 16
47 46 60 32 64 36 55 59 -9 24 -9 25 33 18 23 -4 62 -16 87 -27z m-706 -86
c-13 -2 -33 -2 -45 0 -13 2 -3 4 22 4 25 0 35 -2 23 -4z m327 -63 c29 -37 30
-40 11 -40 -14 0 -27 13 -41 40 -33 66 -22 66 30 0z m827 -26 c-3 -3 -12 -4
-19 -1 -8 3 -5 6 6 6 11 1 17 -2 13 -5z m68 -14 c25 -11 -1 -11 -35 0 -20 6
-21 8 -5 8 11 0 29 -3 40 -8z m-617 -66 c67 -21 122 -41 122 -46 0 -11 -32 -3
-180 49 -149 51 -115 50 58 -3z m358 -15 c-32 -17 -61 -28 -64 -25 -7 8 -5 9
53 33 73 31 79 27 11 -8z m331 -784 c15 -9 40 -20 56 -25 15 -5 27 -16 27 -24
0 -11 -15 -7 -60 16 -57 28 -82 48 -61 48 5 0 22 -7 38 -15z m103 -15 c0 -13
-11 -13 -30 0 -12 8 -11 10 8 10 12 0 22 -4 22 -10z m-72 -45 c57 -31 55 -23
36 -139 -14 -85 -15 -114 -6 -144 7 -20 13 -50 14 -67 3 -28 0 -30 -34 -33
-43 -4 -52 12 -13 22 16 4 25 13 25 26 0 19 -35 50 -57 50 -16 0 -107 89 -100
97 4 3 13 0 22 -7 30 -25 14 4 -26 47 -35 38 -39 46 -26 56 9 7 17 21 19 32 4
24 16 25 46 4 17 -12 24 -30 29 -67 3 -31 13 -58 24 -68 11 -10 19 -29 19 -43
0 -19 3 -22 11 -14 7 7 13 47 14 90 2 43 5 85 9 93 4 9 -4 26 -19 42 -38 41
-33 48 13 23z m-318 -69 c0 -8 7 -19 15 -26 9 -7 13 -15 10 -18 -9 -9 -45 31
-45 50 0 11 5 16 10 13 6 -3 10 -12 10 -19z m40 -86 c0 -5 -2 -10 -4 -10 -3 0
-8 5 -11 10 -3 6 -1 10 4 10 6 0 11 -4 11 -10z m96 -146 c9 -14 17 -37 18 -52
1 -17 9 -31 26 -39 13 -6 27 -21 31 -31 5 -14 21 -21 58 -26 l51 -7 0 -134 c0
-73 -4 -136 -8 -139 -11 -6 -94 14 -107 26 -6 6 -3 7 7 3 13 -5 20 0 28 21 6
16 15 31 19 34 4 3 4 41 0 85 -7 67 -12 83 -32 100 -13 11 -30 29 -36 40 -10
17 -11 15 -6 -17 4 -24 2 -38 -5 -38 -5 0 -10 18 -10 40 0 27 -4 40 -14 40 -8
0 -19 23 -29 60 -8 33 -13 60 -11 60 2 0 11 -11 20 -26z m55 -37 c20 -39 20
-55 0 -42 -6 3 -11 14 -11 23 0 9 -10 33 -21 52 -16 26 -17 31 -4 20 9 -7 25
-31 36 -53z m127 15 c3 -9 -3 -13 -19 -10 -12 1 -24 9 -27 16 -3 9 3 13 19 10
12 -1 24 -9 27 -16z m22 -102 c0 -5 -9 -10 -20 -10 -11 0 -20 5 -20 10 0 6 9
10 20 10 11 0 20 -4 20 -10z m-10 -351 c14 -24 7 -49 -14 -49 -13 0 -29 48
-19 62 8 14 22 8 33 -13z m-140 -89 c0 -16 -4 -30 -10 -30 -5 0 -10 14 -10 30
0 17 5 30 10 30 6 0 10 -13 10 -30z m124 -12 c10 -37 8 -39 -36 -36 -39 3 -43
6 -46 31 -3 25 -1 27 36 27 33 0 41 -4 46 -22z m22 -114 c9 -46 -11 -69 -26
-30 -14 38 -13 66 5 66 8 0 17 -14 21 -36z m-556 -100 c222 -49 362 -90 377
-110 7 -10 12 -19 10 -20 -7 -8 -370 88 -399 106 -44 25 -165 45 -184 29 -8
-6 -11 -15 -8 -20 3 -5 -36 -9 -86 -9 -50 0 -111 -5 -136 -11 -47 -12 -74 -2
-74 27 0 22 45 34 159 43 129 10 146 8 341 -35z m397 14 c-3 -7 -5 -2 -5 12 0
14 2 19 5 13 2 -7 2 -19 0 -25z m37 -21 c-13 -117 -16 -130 -25 -116 -9 13 -2
144 8 162 11 19 21 -7 17 -46z m80 33 c21 0 24 -6 29 -72 7 -82 -5 -113 -48
-124 -46 -11 -56 9 -49 100 7 100 10 110 30 102 9 -3 26 -6 38 -6z m-544 -56
c8 -8 -10 -8 -57 -2 -99 12 -108 17 -26 15 40 -2 77 -7 83 -13z m197 -70 c-3
-3 -12 -4 -19 -1 -8 3 -5 6 6 6 11 1 17 -2 13 -5z"/>
<path d="M1575 2846 c-27 -14 -43 -25 -34 -25 19 -1 111 29 124 40 19 19 -42
8 -90 -15z"/>
<path d="M1760 2802 c-23 -10 -29 -17 -19 -19 8 -2 35 5 60 16 35 16 39 20 19
19 -14 0 -41 -7 -60 -16z"/>
<path d="M1880 2759 c-25 -12 -40 -23 -34 -26 11 -4 124 35 124 43 0 11 -50 1
-90 -17z"/>
<path d="M1661 2761 c-8 -5 -9 -11 -3 -15 5 -3 15 1 22 9 14 16 3 20 -19 6z"/>
<path d="M1760 2710 c-13 -8 -13 -10 2 -10 9 0 20 5 23 10 8 13 -5 13 -25 0z"/>
<path d="M2161 1686 c2 -10 15 -26 28 -35 23 -15 24 -15 13 5 -6 11 -18 27
-28 35 -14 12 -16 11 -13 -5z"/>
<path d="M2271 1258 c2 -104 17 -126 18 -25 1 52 -3 87 -9 87 -6 0 -10 -27 -9
-62z"/>
<path d="M2240 550 c0 -5 7 -10 15 -10 8 0 15 5 15 10 0 6 -7 10 -15 10 -8 0
-15 -4 -15 -10z"/>
<path d="M2474 2934 c4 -9 0 -27 -9 -40 -15 -23 -14 -23 7 -14 13 5 57 22 98
39 77 31 84 39 16 20 -27 -8 -41 -8 -49 0 -6 6 -24 11 -40 11 -23 0 -28 -4
-23 -16z"/>
<path d="M2575 2842 c-85 -45 -146 -82 -134 -82 9 0 142 47 172 60 15 7 27 18
27 23 0 5 12 7 28 3 15 -3 52 -11 82 -17 99 -19 591 -179 617 -200 20 -17 17
-22 -33 -60 -25 -19 -54 -50 -64 -69 -19 -39 -65 -193 -76 -255 -3 -22 -22
-100 -40 -173 -19 -73 -34 -141 -34 -151 0 -10 -7 -32 -16 -49 -20 -40 -15
-62 14 -73 19 -7 24 -4 32 16 5 14 7 39 3 56 -6 32 15 139 28 139 7 0 31 61
34 85 1 6 6 22 13 38 24 55 33 83 68 201 19 67 46 137 59 156 37 56 49 114 31
152 -9 17 -16 37 -16 43 0 12 -181 88 -197 83 -5 -1 -39 10 -78 25 -86 33
-262 87 -283 87 -36 0 12 -20 183 -74 214 -69 229 -75 222 -82 -3 -3 -127 33
-275 80 -149 47 -272 86 -274 86 -1 -1 -43 -22 -93 -48z m695 -132 c13 -8 13
-10 -2 -10 -9 0 -20 5 -23 10 -8 13 5 13 25 0z m-70 -635 c0 -8 -4 -15 -10
-15 -5 0 -7 7 -4 15 4 8 8 15 10 15 2 0 4 -7 4 -15z"/>
<path d="M840 2829 c0 -5 5 -7 10 -4 6 3 10 8 10 11 0 2 -4 4 -10 4 -5 0 -10
-5 -10 -11z"/>
<path d="M2556 2771 c-48 -27 -92 -54 -96 -61 -5 -9 -9 -9 -14 -1 -11 17 -29
13 -22 -4 3 -9 0 -15 -8 -15 -8 0 -16 -10 -19 -22 -2 -13 -28 -99 -56 -192
-38 -126 -51 -185 -51 -231 0 -65 7 -75 49 -75 29 0 55 110 30 126 -7 4 -2 16
14 33 16 17 42 79 72 174 l48 148 78 40 c85 42 87 43 107 30 10 -6 2 -38 -37
-145 -54 -147 -61 -193 -33 -219 17 -16 161 -77 181 -77 6 0 11 -6 11 -13 0
-8 19 -43 42 -78 23 -35 60 -100 82 -144 30 -59 42 -74 44 -58 4 26 -22 78
-94 194 -30 47 -54 91 -54 98 0 6 -11 17 -25 23 -42 19 -28 28 20 11 39 -13
45 -19 45 -42 0 -16 13 -46 28 -67 16 -21 44 -65 62 -96 19 -32 37 -58 41 -58
13 0 36 66 108 321 17 58 33 121 36 140 7 39 31 69 55 69 10 0 33 6 51 14 l34
14 -27 11 c-52 20 -523 169 -555 176 -18 3 -35 11 -38 16 -9 13 -12 12 -109
-40z m180 -9 c7 -4 19 -25 28 -46 16 -38 15 -43 -8 -115 -22 -67 -30 -97 -52
-186 -13 -51 19 22 57 131 31 89 39 126 34 152 -5 27 -3 33 7 29 7 -3 48 -20
91 -38 93 -38 92 -26 21 -208 -26 -66 -44 -127 -40 -136 12 -33 41 -9 78 65
47 94 66 164 52 188 -6 9 -8 25 -5 35 5 15 9 16 24 5 17 -13 17 -17 -1 -88
-44 -174 -73 -240 -107 -240 -20 0 -65 25 -65 36 0 6 18 68 40 137 22 68 40
134 40 146 0 50 -19 11 -65 -129 -30 -95 -53 -150 -62 -150 -18 0 -18 -2 22
120 40 126 53 190 36 190 -6 0 -32 -67 -58 -148 l-47 -149 -34 11 c-19 5 -36
16 -39 22 -3 7 14 71 36 142 23 72 41 137 41 145 0 8 -18 27 -40 42 -30 20
-37 31 -28 36 16 11 30 11 44 1z m372 -120 c-27 -3 -317 97 -318 109 0 4 78
-18 173 -50 115 -37 163 -57 145 -59z m-548 68 c-19 -11 -43 -19 -53 -20 -9 0
-22 -10 -27 -22 -19 -47 -90 -278 -90 -292 0 -9 -9 -20 -19 -26 -24 -12 -36
-47 -22 -63 16 -20 -7 -97 -29 -97 -17 0 -17 4 -4 63 21 91 130 418 137 411 3
-3 13 8 21 24 16 30 22 33 106 40 8 1 -1 -7 -20 -18z m180 -13 c0 -1 -22 -67
-50 -146 -56 -163 -55 -170 15 -196 25 -10 45 -22 45 -26 0 -12 -1 -12 -64 17
-48 22 -56 29 -56 52 0 32 92 302 103 302 4 0 7 -1 7 -3z m204 -246 c-9 -23
-18 -40 -21 -38 -2 3 4 23 13 46 9 23 18 40 21 38 2 -3 -4 -23 -13 -46z"/>
<path d="M2593 2578 c-39 -52 -56 -83 -78 -144 -12 -33 -2 -67 33 -106 13 -16
12 -21 -11 -55 -15 -21 -40 -55 -58 -75 -24 -30 -27 -38 -14 -38 9 0 26 11 37
25 11 14 26 25 34 25 8 0 14 5 14 10 0 6 5 10 10 10 6 0 10 -14 10 -31 0 -21
9 -38 29 -55 25 -21 91 -112 91 -126 0 -8 -110 11 -163 28 -27 9 -51 14 -53
11 -3 -3 11 -10 31 -17 57 -19 34 -23 -33 -6 -138 36 -130 0 9 -40 46 -13 94
-24 106 -24 12 0 28 -6 35 -13 7 -7 22 -13 33 -14 11 -1 52 -13 90 -28 39 -15
120 -42 180 -60 l110 -32 7 41 c4 22 9 53 12 69 5 25 3 27 -19 23 -14 -3 -29
-7 -35 -11 -20 -12 -52 18 -75 69 -20 46 -90 163 -141 234 -17 25 -92 62 -125
62 -11 0 -27 10 -37 22 -9 12 -29 34 -43 49 -22 23 -24 29 -12 45 7 10 13 24
13 31 0 7 11 36 24 63 24 50 42 110 33 110 -3 0 -22 -24 -44 -52z"/>
<path d="M2170 2561 c0 -5 7 -14 15 -21 16 -14 18 -10 9 14 -6 17 -24 22 -24
7z"/>
<path d="M2130 2545 c7 -9 15 -13 17 -11 7 7 -7 26 -19 26 -6 0 -6 -6 2 -15z"/>
<path d="M2243 2533 c-4 -10 -13 -22 -20 -26 -8 -5 -11 -16 -8 -27 3 -11 0
-20 -10 -24 -20 -7 -16 -51 5 -51 9 0 19 18 27 50 6 28 15 60 18 73 8 26 -3
30 -12 5z"/>
<path d="M2090 2334 c115 -56 110 -55 110 -33 0 12 -9 21 -27 24 -49 10 -97
22 -118 29 -11 4 5 -5 35 -20z"/>
<path d="M2443 2285 c-12 -27 -7 -65 9 -65 5 0 7 10 4 23 -3 12 -3 16 0 10 16
-35 32 3 18 41 -9 22 -17 20 -31 -9z"/>
<path d="M2386 1973 c-23 -23 14 -40 182 -82 124 -32 194 -40 159 -20 -18 11
-262 92 -308 103 -14 3 -29 3 -33 -1z"/>
<path d="M2305 1900 c28 -12 57 -12 50 0 -3 6 -21 10 -38 9 -27 0 -29 -2 -12
-9z"/>
<path d="M770 1011 c0 -11 -4 -23 -10 -26 -16 -10 -11 -72 9 -112 11 -21 23
-71 27 -110 8 -87 -2 -96 -66 -63 -51 26 -60 20 -72 -47 -23 -129 -23 -121 7
-135 22 -10 35 -9 76 5 46 17 51 17 106 0 91 -28 335 -25 471 7 56 13 112 32
124 42 12 10 35 18 52 19 17 0 49 6 71 14 37 12 34 12 -50 8 -49 -3 -128 -13
-175 -23 -132 -29 -286 -43 -381 -37 -94 7 -189 25 -189 35 0 12 40 33 51 26
5 -3 32 0 60 6 l50 12 -3 46 -3 45 50 14 c28 7 63 12 78 10 21 -3 26 0 22 10
-3 8 -5 21 -5 29 0 9 -7 14 -17 12 -14 -2 -19 8 -26 50 -5 28 -13 52 -19 52
-7 0 -8 -14 -5 -36 7 -41 -12 -43 -27 -2 -7 20 -5 30 13 49 14 15 18 26 11 33
-7 7 -14 4 -24 -9 -12 -17 -14 -16 -25 16 -10 30 -18 36 -76 55 -67 21 -77 21
-47 -2 10 -8 12 -13 5 -14 -17 0 -46 -47 -38 -60 5 -8 17 -3 35 15 31 30 35
27 50 -41 14 -62 35 -94 61 -94 20 0 20 0 1 25 -11 14 -23 42 -27 62 -4 21
-13 50 -21 65 -8 15 -10 28 -5 28 18 0 41 -31 41 -56 0 -43 31 -105 59 -116
24 -9 25 -11 6 -18 -11 -4 -35 -11 -53 -15 -32 -7 -33 -6 -59 54 -14 33 -31
62 -38 65 -7 2 -24 -2 -39 -9 l-26 -14 0 43 c0 26 6 48 15 56 11 9 12 17 4 31
-13 25 -29 24 -29 0z m85 -175 c7 -21 23 -48 35 -61 15 -16 18 -25 10 -30 -6
-4 -10 -25 -8 -47 2 -35 -1 -42 -21 -50 -13 -4 -26 -6 -29 -4 -2 3 -8 45 -13
93 -5 48 -11 97 -14 109 -5 22 3 36 18 31 5 -1 15 -20 22 -41z m-125 -161 c10
-12 8 -18 -11 -35 -32 -26 -43 -25 -35 3 3 12 6 28 6 35 0 17 25 15 40 -3z
m78 -21 c-4 -3 -21 -14 -40 -24 -27 -15 -33 -23 -32 -48 1 -23 -3 -32 -20 -36
-36 -10 -46 -7 -46 14 0 12 18 31 50 52 28 18 50 36 50 40 0 5 10 8 22 8 12 0
19 -3 16 -6z"/>
<path d="M976 707 c-10 -7 -16 -22 -14 -33 3 -17 12 -19 74 -19 45 0 77 -5 87
-14 12 -9 30 -11 62 -7 38 6 45 11 45 30 0 24 -28 56 -49 56 -7 0 -3 -8 10
-18 32 -27 19 -52 -26 -52 -31 0 -38 4 -46 29 -6 16 -18 30 -27 30 -9 1 -35 4
-57 7 -26 3 -46 1 -59 -9z m92 -24 c2 -9 -10 -13 -45 -13 -45 1 -47 2 -28 16
23 17 66 15 73 -3z"/>
<path d="M3363 213 c-18 -7 -16 -23 2 -23 8 0 15 7 15 15 0 8 -1 15 -2 14 -2
0 -9 -3 -15 -6z"/>
</g>
</svg>
