<svg xmlns="http://www.w3.org/2000/svg" width="682.667" height="682.667" version="1.0" viewBox="0 0 512 512">
    <g fill="#e5e5e5">
        <path d="M404.7 14.5c-8.7 3.5-16.6 7-17.4 7.7s-4.9 5.2-9 10l-7.4 8.7-1 8.8c-.6 4.8-1.3 9-1.5 9.2-.2.3-3.8-.3-7.9-1.3-5.2-1.2-11.4-1.7-20.6-1.7-12.1 0-13.4-.1-14.6-1.9-1-1.4-2.6-2-5-2-2.9 0-7.5-2.3-20.5-10l-16.9-10-48.7 9c-26.8 5-49.4 9.3-50.3 9.6-1 .3-5.2 4.6-9.4 9.7l-7.7 9.2.6 24c.3 13.2.9 31.2 1.2 40l.6 16-3.5-3.5c-3.5-3.5-3.6-4-13.2-45-5.3-22.8-9.9-42.5-10.2-43.8-.3-1.4-2.7-3.5-6.9-5.8l-6.3-3.5-50.1 5c-56.1 5.6-52.3 4.8-61.9 14.4l-5.3 5.5 5.2 51.4 5.3 51.3 6.8 18.8c3.7 10.4 6.9 19 7.1 19.2.2.1 4.4 2.3 9.4 4.8l9.2 4.6 2.7 7.5c1.5 4.2 3.3 8 4 8.6.6.5 3.6 1.3 6.5 1.7l5.4.8 4.4 13.9c3.8 12.1 4.3 14.7 3.7 19.3-.6 5.1-.8 5.4-5.4 7.7-2.6 1.4-5.2 3-5.8 3.8-.6.7-1.7 7.6-2.6 15.3-1.3 12.2-1.3 16-.1 29 1.3 14.7 1.4 15.1 4.3 17.7l3 2.7-4.8 25.6-4.8 25.7-10.2 10.2L45 422.6l-2.9 10.6c-3.3 12.2-3.2 12.8 4.2 17.1 2.4 1.5 5.6 4.3 7.2 6.4 3.9 5.3 5.4 6.3 9.2 6.3 2.7 0 3.8.7 6.4 4.2 1.7 2.4 3.6 4.6 4.2 5 2 1.1 22.7-3.8 25-6 10.8-9.5 18.4-15.5 22.4-17.6 4.8-2.4 11.9-9.2 14.3-13.6.8-1.4 1-4.2.7-7l-.6-4.7 3.9-1.2c2.2-.6 4.2-1.6 4.5-2.1s1-4.6 1.6-9.2c.5-4.6 3.7-17.5 6.9-28.7 5.2-17.8 5.9-20.8 5-24.4-.7-3.1-.5-4.7.6-6.6.8-1.5 2.7-11.8 4.2-23.1l2.8-20.5 5-6.7c3.9-5.1 6.2-9.7 9.5-19 3.8-10.9 4.4-11.9 5-9.3 1.3 5.7.9 14.4-.7 17.8-1.2 2.4-1.3 4.2-.7 6.7.7 2.7-.1 9.6-3.5 29.5-3.7 21.9-4.8 26.4-6.7 28.5-2.7 3-4.8 9-3.9 11.3.3 1 1.4 1.7 2.4 1.7 2.7 0 3.3 1.6 1.7 4.2-.8 1.3-4.7 15.6-8.6 31.8l-7.2 29.6-4.2 1.9c-3.5 1.7-4.8 3.2-7.8 8.9-3.5 6.6-4 7.1-11 10.5l-7.4 3.6-3.7 9c-3.5 8.6-3.7 10-2.1 15.8.5 2.1 21.1 12.7 24.7 12.7 1.6 0 3.4 1.3 5.3 3.6 2.8 3.5 3.1 3.6 11.3 4.1 14.6.9 18.9-.8 34.6-13.7 7.3-6 16.4-12.5 20.1-14.4 3.8-1.9 7.4-4 8-4.8 2.1-2.6 4.4-11.9 4.2-16.3-.3-4.2 0-4.9 3.4-8 2-1.9 3.7-3.7 3.7-4s5-15.8 11-34.4c6.1-18.6 11-35.1 11-36.6 0-1.7-1-4-2.6-5.6l-2.5-2.6 6.4-24.9 6.4-24.9 4.7-4.6c5.1-5.2 5.5-7.1 2.6-12.9-1.1-2.2-2-4.3-2-4.7 0-.5 1.8-2.7 4.1-5l4-4.2 4.3-21.5 4.3-21.5 4.7-5.5c2.6-3.1 5.3-5.6 5.9-5.5.7 0 3.5 3.2 6.2 7.2 4.8 6.8 5.3 7.2 10 8.1 2.8.5 5.1 1 5.3 1.1 1.2 1 4.1 16.6 4.6 24.5l.6 9.5-5 8.9c-4.9 8.8-6 12.8-3.9 14.1.6.4-1.4 3.2-4.9 6.8-7.9 8.4-8.8 9.9-11.1 19.7-2.6 11.1-2 12.1 8.1 14 4 .7 10.5 1.2 14.4 1.1l7.2-.2 2.2 3.6c1.3 2.1 4.1 4.5 6.9 5.9 4.4 2.3 4.9 2.3 11.6 1.1 9.6-1.7 9.8-1.8 12.9-8.3 2.5-5.2 3.5-6.1 11.7-11 7.1-4.2 9.3-6.1 11-9.4 4.2-8.3 4.8-11 3.8-19.4-.8-7.3-.6-9.1 2.7-23.4 3.3-13.8 4-15.9 7-19 2.2-2.3 3.7-5.3 4.5-8.8.9-3.8 1.6-5.1 2.7-4.7.7.3 2.7.5 4.4.5h3.1l-.7 25.8c-.6 23.6-.8 26.3-3.1 33.6-2 6.1-3.8 9.4-8.5 15l-5.9 7.1-.3 8.9-.3 8.9 6.4 5.5 6.4 5.4 5.8-.6c4.8-.6 6.5-.3 9.8 1.4 2.9 1.4 6 2 10.8 2 5.9 0 7.4.4 11.3 3 2.5 1.6 4.9 3 5.3 3 1.6 0 16.4-9 18.3-11.2 1.2-1.3 5.3-7.5 9.2-13.8 6.8-11 7.2-12 8.1-20 .9-7.9.8-8.7-1.1-11.3-1.4-2.1-1.7-3.2-.9-4 .6-.6 1.1-4.8 1.1-9.6s1.1-16.6 2.5-26.5c2.3-16.7 2.4-18.2 1-23.6-1.1-4.4-1.5-11.8-1.5-30.3v-24.5l-8.7-11.3c-4.7-6.3-9-11.6-9.4-11.9-.5-.3.5-5.5 2.2-11.5 1.6-6.1 3.7-13.9 4.6-17.5s2.2-7 2.8-7.5c.7-.6 3.8-5.1 6.9-10.1l5.7-9.1 1.9-36.4c1.1-20 2-39.5 2-43.2v-6.8l-6.5-8.4c-8.9-11.4-8.4-11.2-42-11.9l-27-.5zm67.9 0c1.2.8 2.5 1.1 2.9.7.5-.4.5-.2.2.4-.4.6.5 2.2 1.9 3.5 1.5 1.3 4.7 5.1 7.3 8.4l4.6 6-.3 36c-.2 19.8-.6 37.6-.9 39.5-.3 2-2.8 6.5-5.7 10.5-7.5 10.2-8.8 12.4-8.2 14.3.9 2.7-8.2 35.3-10.5 37.8-2.4 2.5-2.4 3.4-.1 3.4 1 0 2.6 1.4 3.6 3.2 1.1 1.7 4.9 6.6 8.6 10.7 3.7 4.2 7.1 8.5 7.7 9.6.8 1.4.8 8.4.1 23.5-.7 16.3-.7 23.1.3 28.2 1.1 6 1 7.5-1 15.2-1.7 6.8-2.1 11.5-2.1 23.6 0 11.6-.4 15.8-1.5 18.1-1.5 2.7-1.4 3.2.7 6.8 2.1 3.8 2.2 3.9.6 12-1.2 6-2.8 10.2-5.9 15.3-6.1 10.3-9.9 14.1-17.4 17.3-6.4 2.7-6.6 2.7-10.8 1.1-2.4-.9-7-1.6-10.3-1.6-3.7 0-6.8-.6-8-1.5s-4.4-1.5-8.9-1.5c-5.7 0-8-.6-12-2.8l-5-2.7-.3-8-.3-8 6.5-8.5c4.8-6.5 7-10.5 9.1-16.8l2.7-8.3-1.1-23.2c-.6-12.8-1.1-24.6-1.1-26.4 0-2.9-.7-3.6-6.8-7.3-3.8-2.2-7.8-4-8.9-4-2.4 0-2.7.7-4.8 9.8-.9 3.6-2.2 7.4-3.1 8.3-.8.9-3 9.8-5.1 21-3.4 18.1-3.5 19.9-2.5 27.1 1 7.3 1 8.1-1.2 13-1.3 2.9-3.2 6-4.2 6.9-2.7 2.3-21 12.9-22.3 12.9-.6 0-1.7 1.1-2.6 2.4-.8 1.3-3.2 3.1-5.3 4-3.7 1.7-3.9 1.7-8.2-.8-2.5-1.4-5.3-3.9-6.3-5.5-1-1.7-2.4-3.1-3-3.2-.7 0-4.3-.2-8.2-.3-4-.1-9.4-1.1-12.5-2.3-5.5-2-5.5-2-5.8-6.5-.3-4.1 0-4.8 3.4-7.8 2.1-1.8 6.2-6.1 9.1-9.6 5.3-6.2 5.4-6.3 3.8-8.8-1.6-2.4-1.5-2.7 2.4-9.2 2.3-3.7 4.1-7.3 4.1-7.8 0-.6.7-5.6 1.5-11 1.9-12.8 1.9-16.7-.3-24.6l-1.9-6.5-6.4-2.2c-3.5-1.3-7.2-2.3-8.1-2.3-1 0-2.9-1.8-4.3-4-2.3-3.6-11.7-11-14-11-1.3 0-22.8 23.6-23.7 26-.4 1-2.1 8.8-3.8 17.2l-3.1 15.3-5.6 5-5.6 5.1 2.4 1.5c1.3.9 3.4 1.9 4.7 2.3 1.2.4 2.2 1.3 2.2 2 0 .8.7 1.9 1.5 2.6 2.5 2.1 1.7 4.6-2.4 8.2-3.9 3.3-3.9 3.4-9.1 25.3-9 38-8.4 34.3-6.6 37 2.1 3.2 2.1 3.1-2 16.4-1.9 6.4-4.6 15-5.9 19.1-1.2 4.1-4.2 13.8-6.5 21.5-3.6 11.9-4.7 14.5-7.5 17-3.2 3-3.3 3.3-2.9 9 .6 7.9-2 12.6-9.5 17.1-4.9 3-15.1 10.9-29 22.6-7.6 6.4-13.7 7.7-25.8 5.2-1.3-.2-3-1.8-3.8-3.4-1.2-2.4-2.2-3-4.9-3-1.9 0-7.5-2.1-13.4-5-11.9-5.8-12-5.9-6.9-16.5 3.2-6.6 3.7-7.2 9.6-10 5-2.4 6.7-3.8 8.3-7 3.6-6.9 5.9-9.6 10.3-11.5 3.6-1.5 4.3-2.4 5.3-6.1.7-2.4 4.5-17.9 8.6-34.4 6.8-27.2 7.3-30.1 5.9-31.7-1.7-1.9-1-6.9 1.3-8.9.8-.6 1.2-1.9.9-2.8s2.2-14.9 5.4-31.1c3.9-19.5 5.6-29.9 4.9-30.7-.6-.8-.5-1.9.2-3.2.8-1.7.3-6.3-2.6-21.4l-3.8-19.2-1.2 7.5c-.7 4.1-3.4 13.3-6.2 20.5-2.7 7.1-5.2 14.1-5.5 15.5-.4 1.4-3.6 5-7.1 8-7.6 6.5-7.8 7.2-9.7 28.5-.7 7.7-2 16-2.9 18.5-1 2.6-1.5 6.2-1.3 8.5.3 2.8-1.3 10.3-5.7 25.5-4.5 16.1-6 22.8-5.8 26.5.3 4.9.3 5-5.1 8.9l-5.3 4 .6 4.6c.5 4.1.3 5.1-2.5 8.8-1.8 2.4-5.2 5.3-7.9 6.7-3.2 1.6-7.4 5.5-13.3 12.3-9.4 10.9-10 11.2-21.3 11.2-5.7 0-6.4-.2-8.6-3-2-2.5-3.3-3-8.8-3.7-6.5-.8-6.5-.8-8.7-5.4-1.4-3.1-3.1-5-5.1-5.8-1.7-.7-3.8-2.1-4.8-3.2-1.6-1.8-1.6-2.3 0-10.1l1.8-8.2L60 415l10.9-11.6 5.4-27.8 5.4-27.8-3.3-3.4c-2.9-2.8-3.4-4.1-3.4-7.8 0-2.5-.7-9.3-1.6-15.1-1.4-9.8-1.4-11.5.1-20.8 2.3-14 2.1-13.6 7.9-16.2 4.6-2 5.3-2.8 6.9-7.1 1.6-4.6 1.6-5.5.1-13.4-1.4-7.6-6.3-23.6-8.5-28.2-.5-.9-3.3-2.3-6.1-3.2-5-1.4-5.6-2-9.9-8.9-4.6-7.2-4.8-7.3-13.5-11.1-4.9-2.1-9.5-4.3-10.1-4.8-.7-.6-3.7-8.7-6.7-18.2l-5.5-17.1-5.1-49-5.1-49 5.7-5.1c5-4.6 6.2-5.2 11.3-5.7 19-1.9 67.8-7 79.8-8.3 12.7-1.3 14.5-1.3 17 0 6.9 3.8 6.9 3.8 10.8 25.1 4 22.5 13.1 62.9 14.9 66.2.6 1.2 2.9 4.1 5.1 6.5s6 6.7 8.4 9.6 5 5.2 5.9 5c1.6-.3 1.7-3.1.3-62.8l-.7-30.5 2.3-3.5c1.2-2 4-5.2 6-7.2 3.8-3.6 9.1-5.2 26.3-8.3 3.3-.6 30.7-6.4 58.4-12.4 11.7-2.6 13.3-2.7 16.3-1.5 1.8.8 3.3 1.9 3.3 2.4 0 .6.5 1 1.1 1 .7 0 4 1.8 7.5 4s6.5 4 6.8 4c.2 0 3 1.6 6.2 3.5s6.8 3.5 8 3.5c1.3 0 2.7.8 3.3 1.7.8 1.6 2.6 1.8 13.8 1.8 11.8 0 26.2 1.4 35.8 3.5 2.2.5 4.3.6 4.8.1.4-.4 1-5.9 1.3-12.2.7-11.3.7-11.5 4.5-16.4 7.2-9.5 9.7-11.2 25.5-17.5 8.2-3.3 14.2-6 13.3-6s-3.3.7-5.4 1.6c-2 .8-3.9 1.3-4.1 1.1-.3-.2 1.6-1.2 4.2-2.2 3.7-1.4 6.4-1.6 14.3-1.2 7.7.5 23.2 0 38.6-1.1 1.1-.1 3 .5 4.1 1.3"/>
        <path d="M427.5 21.7c-2.8.6-20.6 8.6-20.1 9 .2.2 5.9-1 12.7-2.6s14.2-3.2 16.5-3.6c2.3-.3 6.1-1.2 8.5-2 4.4-1.4 4.3-1.4-5.6-1.3-5.5 0-10.9.2-12 .5m27.4-.2c-.3.2-6.1 1.8-13 3.5-22.7 5.7-30 8.5-32 12.2-.6 1.2-3.2 4.6-5.6 7.6l-4.5 5.5.7 37.6c.4 20.7 1.1 38 1.6 38.5.5.6 1.6.3 2.7-.8 1.9-1.6 2-1.5 2.6 4.1.4 3.6 2.5 10 5.6 16.8 4.3 9.8 5.2 11.1 8.1 12.1 4.8 1.7 11-.6 13.2-4.9.9-1.8 2.6-4.7 3.7-6.6s1.8-3.6 1.6-3.8-3.9.8-8.2 2.2c-4.4 1.3-8.6 2.5-9.4 2.5s-3.4-2-5.7-4.4l-4.1-4.3-1.2-44.8c-.7-26.8-.8-45-.3-45.4.5-.3 2.6-3.7 4.7-7.4 2.1-3.8 4.7-7.2 5.9-7.7 3-1.2 30.4-8.7 34.7-9.4 1.9-.4 4.9-1.3 6.5-2.1l3-1.3-5.1-.1c-2.8-.1-5.3.1-5.5.4"/>
        <path d="M467 28.2c-3 1.1-8.8 2.8-12.8 3.8-18.2 4.8-26.8 8-29.6 10.9l-2.9 3 .2 13.3c.1 7.3.3 16.2.6 19.8.2 3.6.7 17.1 1.1 30 .3 12.9.7 23.7 1 23.9 1 1 7.8-.1 19.9-3.2 23.8-6.2 26.6-7.2 29.4-10.8 1.4-1.8 3.5-4.4 4.8-5.7 2.3-2.5 2.3-2.5 2.3-33.8 0-17.3-.3-31.4-.6-31.4-.4 0-4.3 3.1-8.8 6.8-4.4 3.7-9.8 8.1-11.8 9.6l-3.8 2.8-.1 17.2c-.2 29.5-1.4 33-2.1 6.3-.4-13.1-.4-24.5-.2-25.2.3-.7 6.6-6.3 14-12.4S481 41.5 481 40.8c0-1.3-6.7-13.6-7.8-14.1-.4-.2-3.2.5-6.2 1.5m-37 22c.5 2.6 2.6 77.6 2.2 78.2-.3.5.3.6 1.3.2 1-.3 5.9-1.8 10.9-3.2s13.1-3.9 18-5.5c6.1-2.1 9.2-2.7 9.9-2s.2 1.3-1.6 2.1c-1.5.5-3.9 1.5-5.4 2.1-2.7 1-37.6 9.9-39 9.9-.4 0 0-.6.8-1.3 1.4-1.1 1.4-5.4.2-40.1-1.1-31.6-1.1-39.1-.1-39.8 1.3-.7 2.8-1.1 2.8-.6m-40.5-9.1-4.5 6.1v68.5l2.4 2.2 2.4 2.3.6-5.4c.3-2.9 1.1-19 1.7-35.8l1.1-30.5 4.4-5.4c2.5-3 4.3-5.9 4.1-6.5s-2-1.2-4-1.4c-3.4-.3-3.9.1-8.2 5.9m-150.9 19c-38.4 8.6-45.4 10.4-48 12.6-1.7 1.4-3.3 3.2-3.6 3.9-.6 1.5 1.4 78.1 2.8 107.2.9 18.5 1 19.5 3.3 21.7 3.7 3.5 26.3 14.8 26.7 13.3.2-1 2.6-1.3 8.5-1.3 7.1-.1 10.1-.7 22.2-4.7 22-7.4 29.2-9.9 26.5-9.3-4 .9-36.2 9.3-40 10.5-9.1 2.7-15.3.7-24-7.7l-6-5.9-3.1-54.8c-3.2-54.5-3.1-59.2.1-56 .5.5 2.3 25.2 4 54.9 2.7 47.4 3.3 54.2 4.8 55.3 1.4 1.1 1.8 1 2.1-.5s-1-24.1-2.4-42.3c-.7-8.6-1.4-18.7-2-29-.3-5.2-.8-11.5-1-14s-.7-9.5-1.1-15.5l-.6-11 4.4-7.5 4.4-7.5 32.2-7.1c28.6-6.4 38.2-8.9 38.2-10 0-1.2-2.1-5.4-2.7-5.3-.5 0-21 4.5-45.7 10"/>
        <path d="M260.5 73.1c-20.3 5.5-37.7 10.3-38.5 10.6s-1.8.5-2.2.5c-1.2-.3-2 4.1-1.5 8.9.3 3.9.4 3.7.5-1.6.4-11.6 2-3.9 2.6 12.5 1.3 34.5 1.4 40.8.6 34.5l-.8-6 .4 6.5c.2 3.6.4 8.3.4 10.5-.1 10.1 3 48.8 3.9 49.9.6.7 3.2 2.3 5.9 3.5l4.9 2.3 32.6-8.8 32.7-8.9 3.6-4.4 3.7-4.3-1.7-39.2c-1.8-39.9-2.2-47.5-2.8-48.2-.3-.2-6.7 7.4-14.4 16.8-7.6 9.5-15.1 18.6-16.6 20.2l-2.8 2.9-.2 18.6-.1 18.6-1.2-19c-.6-11.1-.7-19.8-.2-20.8.4-1 8.7-11.5 18.4-23.3l17.6-21.6-.7-8.6c-.5-7.1-1.1-9-2.7-10.5-1.2-.9-2.6-1.7-3.3-1.6-.6 0-17.7 4.5-38.1 10m-36.8 83.1c-.3.8-.6.5-.6-.6-.1-1.1.2-1.7.5-1.3.3.3.4 1.2.1 1.9M89.5 72.9c-22 4.8-41.1 9-42.5 9.4l-2.6.6.8 8.8c.4 4.8 1.5 13.7 2.4 19.8.9 6 3.1 20.9 4.8 33l3.2 22 3.8 1c3.1.7 4.5.5 7.5-1 3.3-1.8 3.6-2.4 4.2-7.5.3-3 .9-6.4 1.3-7.5.5-1.4-.2-1-2.3 1.2-1.7 1.8-3.3 4.5-3.6 6-1.3 6-2.4 7.4-5.3 7.1-2.7-.3-2.7-.3-2.5-7.8.2-4.7-1.4-19-4.2-38.3-2.5-17-4.3-31.3-3.9-31.8.3-.5 1.4-.9 2.4-.9 2.3 0 2-1.3 7 33.4 2.2 15.4 4.3 28.2 4.5 28.5.3.2 1.5-.5 2.8-1.6 8.8-7.9 26.3-14.2 40-14.3 6.8 0 17.5 2.4 23.4 5.2 5.4 2.6 7.1 1.9 7.9-3.4l.7-4.3 1.7 5c1 3 2.4 5.1 3.3 5.3 2.2.4 2.1-1.9-.4-13.3-5.2-23.7-12.8-61.9-12.3-62.7.8-1.2 1.1-1.3-42.1 8.1"/>
        <path d="M64 67.5c-10.2 1.2-21.6 2.7-25.3 3.3-10.2 1.6-12.5 4.4-4.7 5.7 3.4.6 4 1.1 4 3.1 0 2.9-1.8 3.1-7.8 1-2.3-.8-4.3-1.2-4.5-.8-.3.4 1.3 17.1 3.4 37.2s4.1 39.8 4.5 43.8c.4 4.1 1.3 8 2.1 8.7 2.2 2.3 9.2 4 10.5 2.7.8-.8 0-11.2-3.2-39.9-2.3-21.3-4.5-40.9-5-43.6-.7-4.9-.3-5.3 3.9-4.7 1.1.1 1-.2-.3-1.5-2.3-2.3-2-5.2.7-6.8 2-1.3 23.5-6.1 39-8.8 3.7-.6 6.7-1.3 6.7-1.5 0-.7-5-.3-24 2.1m245 2.4c0 1.5.5 11.8 1 22.7.6 10.9 1.7 33.8 2.4 50.8 1.3 28 2.1 34.8 4 31.8.4-.6-.1-16.1-.9-34.4-3.6-77-3.3-73.8-5.6-73.8-.5 0-.9 1.3-.9 2.9m20.1-1.9c-2.9.5-5.8 1.3-6.3 1.8-.6.6-.7 3-.3 6l.7 5 3.1-.9c4.3-1.2 20.4-1.1 24.7.1 1.9.6 6 1.5 9 2s6.5 1.2 7.8 1.6c2.1.6 2.2.4 2.2-5.5s-.1-6.1-3.3-7.5c-3.8-1.5-20.3-3.7-27.4-3.5-2.6.1-7.2.5-10.2.9m-2.8 16.1c-2.3.7-3.3 1.6-3.3 2.9 0 2.5.3 2.5 7.5 0 3.2-1.1 7.9-2 10.4-2.1s5.7-.5 7.1-.9c3.6-1.2-17.7-1-21.7.1m31.2 2.3c9.3 4 10.9 5.5 11.9 11.6 1.2 6.9-.7 10.5-7.7 14.8-2.9 1.8-8.1 5-11.6 7.2-6.4 4-6.6 4-16.4 4-8.8 0-9.8.2-9.5 1.7s1.7 1.8 10 2.1l9.8.3 4.9-3.8c10.7-8.1 24.4-15.8 17.6-9.9-1.6 1.4-5 3.8-7.5 5.3s-6.3 4-8.5 5.7c-3.7 3-4.5 3.1-15.5 3.6-13.5.6-13.5 1.7.1 2.1l9.5.3 9.4-6c5.2-3.2 11.5-8 14.2-10.5 4.7-4.5 4.8-4.8 4.8-10.5 0-9-1-13.4-2.9-13.4-1 0-3.8-1.3-6.4-2.9-2.5-1.7-6.3-3.3-8.4-3.6-3.3-.5-3.1-.3 2.2 1.9M379.3 97c0 4.1.2 5.8.4 3.7.2-2 .2-5.4 0-7.5-.2-2-.4-.3-.4 3.8"/>
        <path d="M363.3 101.7c.2 4.6.1 4.8-4.7 8-6 4.1-4.7 4.4 1.6.4 5.7-3.6 6-4.1 5.2-9-.9-5.6-2.3-5.2-2.1.6"/>
        <path d="M359.5 102.3c-1.1 4.1-14.9 11.1-25 12.7-4.9.7-4.9.8-1 .9 9 .2 27.5-9 27.5-13.7 0-2.9-.8-2.8-1.5.1M219.3 108c0 3 .2 4.3.4 2.7.2-1.5.2-3.9 0-5.5-.2-1.5-.4-.2-.4 2.8m158.7 2.3c0 2.5.4 4.8.9 5.1.8.5.3-8.4-.5-9.3-.2-.2-.4 1.6-.4 4.2m-30 4.2c-1.4.8-1.9 1.4-1 1.4.8 0 2.6-.6 4-1.4s1.9-1.4 1-1.4c-.8 0-2.6.6-4 1.4"/>
        <path d="M324.7 115.4c-1 2.5-1 2.5 6.1 3.8 5.4 1 6.6.9 10.2-.7 4.8-2.2 4.8-2.9-.2-1.3-5 1.5-14.6.2-15-2-.3-1.5-.4-1.5-1.1.2m-104.6 7.3c0 3.5.2 6.3.7 6.3.4 0 .6-2.1.4-4.8-.5-7.5-1-8.2-1.1-1.5m147.7.9c-1.4 1.4-.8 2.7.7 1.4 1.1-.9 2.2-.9 4.6-.1 1.8.6 4.8 1.1 6.8 1 3.3 0 3.4-.1 1.3-1-3.4-1.3-12.6-2.2-13.4-1.3m-11.2 5.9c-1.6 1.2-1.7 1.5-.4 1.5.8 0 2.1-.7 2.8-1.5 1.6-1.9.1-1.9-2.4 0m11.4-.1c0 .8 1.2 2.4 2.6 3.5 3.5 2.8 15.1 3 19.5.4 4.3-2.5 3.5-3.6-.8-1.3-4.6 2.4-12.2 2.6-16.4.4-4.2-2.1-3.1-2.8 1.4-.9 2 .8 5.1 1.5 6.9 1.4 3.1-.1 3.1-.1-1.2-1.3-2.5-.7-5.5-1.8-6.7-2.4-2.9-1.6-5.3-1.5-5.3.2m93.5 7.9c-5.7 2.1-6 2.4-6.6 6.2-1.3 7.2-7.7 24.5-10.4 28.1-1.5 2-3.9 4-5.4 4.6-1.4.6-5 2.2-7.8 3.5-2.9 1.3-6.6 2.6-8.3 2.9-2.8.6-3 .4-3-2.3 0-3.5 1.6-5.3 4.7-5.3 1.3 0 2.3-.4 2.3-.9 0-1.5-4.1-8.1-5-8.1-.5 0-1.8 1.2-3 2.7l-2.2 2.8-2.9-3.5c-2.8-3.5-3.8-5.7-1.9-4.5 1.7 1.1 1.1-1.1-1.1-3.9-2.3-2.9-4.9-3.5-4.9-1 0 1.5 1.8 5.5 2.9 6.4.3.3 1.9 2.2 3.4 4.2 1.5 2.1 3.3 3.8 3.8 3.8s2.1-1.2 3.4-2.6l2.4-2.5 1.2 2.2c.9 1.8.9 2.4-.1 2.7q-5.25 1.8-4.8 9.3l.3 5.1 5.7-.6c3.1-.3 7.6-1.4 10-2.5s6.8-2.9 9.8-4.1c12.5-5 18.3-11.6 20.9-24.1.7-3 2.1-8.3 3.1-11.8 3.2-10.3 3.2-10.3-6.5-6.8M337 144.2c0 4 .9 11.3 1.9 16.3 1 4.9 2.2 11.2 2.6 13.8.7 5 2.2 6.5 5.3 5.1 1.5-.7 1.4-.8-.5-1.1-1.7-.3-2.4-1.4-2.9-4.1-.3-2-1.5-7.8-2.6-12.7-1.1-5-2-12.5-2-16.8 0-4.2-.4-7.7-.9-7.7s-.9 3.3-.9 7.2"/>
        <path d="M346.6 142.2c-.3 2.9-.6 11-.6 18 0 10.2.3 13 1.6 14.2 1.7 1.7 6.1 2.1 8.3.7 1-.6.3-.9-2.2-.8-2 0-4-.3-4.4-.7s-.8-8.8-.8-18.7c0-17.9-.7-22.5-1.9-12.7M106 138.9c-1.9.4-7.2 2.2-11.7 4-12.4 5-19.1 13.1-19.5 23.6-.2 4.5-.7 5-5 4.7-2.1-.2-4.2 2.4-3.5 4.2.3.8 1.7 2.2 3.2 3.2 2.1 1.4 2.8 1.4 4.2.3 1.5-1.2 1.6-1.2 1 .4-.4 1.1 0 2.3 1.1 3.2.9.7 3.7 3 6.2 5.1 2.5 2 6.3 4.5 8.5 5.4 6.1 2.6 23.2 4.5 29.7 3.3l5.3-1-6-.2c-3.3-.1-7.8-.6-10-1-3.5-.6-2.8-.8 5-1.3 12.6-.9 18.8-2.6 18.2-4.9-.3-1.3.7-2.6 3.7-4.5 2.2-1.5 5.7-4.4 7.7-6.5 3.5-3.7 3.6-4 2.8-8.6-1-5.3-2.1-6.8-4.2-6-1.7.6-2.9 7.3-2.1 11.4.5 2.5.1 3.4-2.5 5.6-4.6 3.9-13.2 6.7-20.4 6.7-7 0-17.5-2.3-21.5-4.6-1.5-.8-1.8-1.2-.7-.8 4.3 1.6 14.7 1.6 21.7-.2 5.7-1.3 7.9-2.5 11.3-5.8 5.7-5.5 7.5-9.5 7.8-17 .2-5.5-.1-6.7-2.7-10-5-6.7-18.1-10.8-27.6-8.7m17.5 4.3c2.5.9 5 2.8 7.1 5.5 3 4 3.2 4.7 2.7 10-.6 6.2-3.2 11.5-6.7 13.8-2.8 1.8-15 2.8-20.8 1.7-4.9-1-12-6-13.3-9.5-.3-.9-1.2-1.7-2-1.7-2.4 0-3.5-6.9-1.5-10 .7-1.1 1-.6 1 2.1 0 5.1 3.6 9.9 9.8 13.1 7.3 3.6 13.8 4.4 18.8 2.2l3.9-1.8-9.1-.7c-5-.4-10.5-1.4-12.2-2.3-4.2-2.2-7.2-6.7-7.2-10.9 0-3.6 2.5-10.7 3.8-10.7.4-.1 3-.7 5.7-1.5 5.5-1.6 13.9-1.3 20 .7m-27.9 29.6c-.7.7-5.8-2.6-7.8-5.2-3.3-4-1.8-3.8 3.2.4 2.8 2.4 4.9 4.5 4.6 4.8m12.3 4.8c.2.2-1 .4-2.7.4-1.8 0-3.2-.5-3.2-1 0-.9 4.7-.4 5.9.6m287.3-36.1c-1.8 1.9-3 2.3-5.5 1.9-2.4-.4-2.8-.3-1.7.5 2.5 1.8 5.2 1.2 8.2-1.6 3.3-3.2 3.3-3.4 5.2 11.7 1.8 13.6 3.1 18.6 5.1 19.4 1.3.5 1.3.2 0-2.4-.8-1.6-2.2-8.2-3.1-14.7-2.3-17.5-3.5-19.8-8.2-14.8"/>
        <path d="M354.4 140.8c-4 2.6-5.8 16.6-3.3 24.3 1.5 4.4 2.2 5.1 4.2 4.3 2.2-.8 2.2-2.2 0-2-2.1.1-3-3.4-3.2-12.5-.1-7.5 1.4-12.9 3.6-12.9 1.5 0 1.5.3-.2 7q-.6 2.4.9-.9c.9-1.8 1.6-3.9 1.6-4.6 0-1.8-2.4-3.5-3.6-2.7m18.7 1.5c-.6.8-1.1 5.5-1.2 10.8 0 5.2-.4 11.3-.8 13.5-1.1 5.7.4 8.7 6.9 13.5 7 5.3 8.9 6 17.8 6.8l7.3.6 5.9 14c3.3 7.7 6 14.7 6 15.6 0 1.5-2.9 4.9-4.3 4.9-.4 0-.4-1.5 0-3.2l.6-3.3-2.9 1.9c-1.6 1-3.9 3-5.1 4.5-1.1 1.4-2.4 2.3-2.7 2s1.9-3.1 5-6.1l5.5-5.6-4.1-8.1c-2.2-4.5-4.2-8.1-4.5-8.1-.2 0-1.6.5-3 1.2-3 1.3-3.1 3.2-.7 7.3 2 3.4 4.7 9.8 3.2 7.5-3-4.4-11-18.5-11.5-20.1-.4-1-1.8-2.1-3.3-2.4-8.4-1.7-16-5.9-18.3-10.2-1.1-2-1.3-2.1-3.5-.6-3.2 2.1-3 2.9 1.4 7.3 3.5 3.5 8.7 5.7 17.3 7.4 2 .4 3.9 3 9.3 12.6 6.4 11.5 6.7 12.2 5.1 14-1.3 1.5-1.4 2.3-.5 3.9 1.5 2.9 2.8 2.6 6.8-1.2 3.1-2.9 3.4-3 2.9-1-.3 1.6-.1 2.3.9 2.3 2.2 0 7.2-2.8 7.6-4.2.3-.7 1.8-1.3 3.5-1.4 2.8-.1 3 .1 2.7 3-.1 1.7-.3 3.4-.3 3.9-.1.4-1.2.5-2.6.1-2.8-.7-3.3.7-1 2.6.8.7 1.5 1.9 1.5 2.6 0 2.4-4.1 1.5-7-1.6-2.8-3-5.4-3.8-6.4-2.1-.8 1.3 4.8 6.8 9.6 9.2 4 2.1 8.5 2.2 13 .4 1.1-.5 2.6.2 4.3 1.9 1.4 1.4 3.2 2.6 4 2.6.9 0 1.5 1 1.5 2.4 0 1.9.7 2.6 3.1 3.1 1.7.4 3.3.4 3.6.2.3-.3.8-3.5 1-7l.5-6.4-8.6-1.2c-8.8-1.2-14.6-3.6-14.6-5.9 0-1 1.1-.8 3.8.9 2.2 1.3 7.1 2.7 12.1 3.5 4.5.7 8.6 1.5 8.9 1.9.3.3.5 2 .3 3.8-.7 9.9-.7 10.2 1.7 10.5 1.8.3 2.2-.1 2.2-2.5 0-1.5.3-5.8.6-9.4l.7-6.6-6.4-1.1c-3.5-.6-8.3-1.4-10.6-1.8-3.1-.4-5-1.4-6.9-3.7-1.8-2.1-3.4-3.1-4.8-2.9-1.7.3-1.9.1-.8-.9.6-.7 1.2-2 1.2-2.9 0-1.3-12.5-28-15.9-34-.5-.9-3.1-1.8-6.6-2.2-6.8-.9-16.1-5.4-18.9-9.2-1.7-2.2-2-4.1-1.8-13.3.1-8.3.5-11.1 1.7-11.9 1.2-.9 1.1-1.3-1.1-2.2-3.4-1.6-8.9-1.5-10.3.1m30.7 58.4c-.5 2.6-3.8 2.9-3.8.4 0-1.5.6-2.1 2.1-2.1 1.4 0 1.9.5 1.7 1.7M420 208c2.3 4.4 2.4 5 1.1 5-.5 0-1.4-1.2-1.9-2.8-.5-1.5-1.3-3.5-1.7-4.5-1.4-3.3.5-1.7 2.5 2.3m5.5 26.3c-1.1.6-2.1.5-2.8-.2-1.7-1.7 1.2-3.4 3.1-1.9 1.1 1 1 1.3-.3 2.1m19-91.6c-.7 1.9-9.8 25.4-11 28.8-.6 1.6-.5 1.7.4.9 1-1 13.1-29.5 13.1-31 0-1.2-1.9-.2-2.5 1.3m-49 3.4c-.4.5-2.1.8-3.8.5-3.2-.6-3.2-.6-.5.5 2.2.8 3.2.7 5-.5 1.2-.9 1.7-1.6 1.1-1.6-.7 0-1.5.5-1.8 1.1M143 147.6c0 .4 2.7 4.2 6 8.6 6.6 8.6 7.3 11.5 4.4 18.3-.8 2.1-1.2 4.1-.7 4.4 1.8 1.4 1.3 4-.9 4.3-1.4.2-2.4 1.2-2.8 2.7-.7 2.9-11.9 9.6-18.9 11.2-2.5.6-5.6 1.8-6.8 2.5-5.1 3.2-31.8.7-41.3-3.8-2.5-1.2-7.1-4.8-10.3-7.9-6.1-6.2-8.7-6.7-8.7-1.9 0 10.9 9.1 18.8 22.9 19.8 14.6 1.1 37.7-.3 38.5-2.4.2-.6 2-1.5 3.8-1.9 4.5-1 17.5-7 21.4-10 1.7-1.3 3.4-2.2 3.7-1.9s2.2-1.8 4.1-4.8c3.6-5.3 3.6-5.4 2.5-11.3-1.4-7.5-4.5-15.4-7.2-18.3-3-3.3-9.7-8.5-9.7-7.6m255.1 3c0 1.1.3 1.4.6.6.3-.7.2-1.6-.1-1.9-.3-.4-.6.2-.5 1.3M37 178.6c0 .4 1.6 5.7 3.6 11.9l3.6 11.3 6 2.2c3.3 1.2 6.2 1.9 6.5 1.6.8-.8-5.5-22.5-7.3-25.4-1.2-1.8-2.3-2.2-6.9-2.2-3 0-5.5.3-5.5.6m289.7.1c-.3.5-.2 1.5.2 2.2.5.7 1.1.9 1.4.4s.2-1.5-.2-2.2c-.5-.7-1.1-.9-1.4-.4m-148.7 4c0 1.6-.3 3.8-.6 5.1-.5 1.8-.3 2.1 1 1.6 1.1-.4 1.6-.1 1.6 1 0 .9.4 1.6.8 1.6.5 0 .4-2.7-.1-6-1-6.1-2.7-8.2-2.7-3.3m141.9 3.2c-2.2 1.8-2.2 2-.6 2.6 2 .8 2.3 2.5.3 2.5-.7 0-1.9.6-2.5 1.4-1.8 2.1 2.1 4.1 4.9 2.6 1.6-.9 2-.8 2 .5 0 .8-.3 1.5-.7 1.5-.5 0-1.4.4-2.1.9-1.1.7-1.1 1.5.2 4.5 1.8 4.3.3 4.9-1.9.6-1.7-3.4-2.3-3.6-4.9-1.7-3.3 2.4-1.2 7.2 5.2 12 6.9 5.1 10.4 6.3 25.2 8.2l11.4 1.6 6.3 6.1c5 4.8 6.8 5.9 8.6 5.4 1.2-.3 2.7-.6 3.4-.6 1.2 0 6-8 6.9-11.5.5-1.9-.1-2.5-3.5-3.9-2.3-.9-4.8-1.6-5.5-1.6-.8 0-2-1-2.9-2.3-1-1.5-4.7-3.3-11.6-5.7l-10.2-3.5-3.9 2.3-4 2.2-4-2c-2.3-1.1-3.8-2.5-3.5-2.9.3-.5-.3-.7-1.4-.4-2.9.7-6.1-4.1-6.1-9.3 0-2.3-.5-4.6-1-4.9-.8-.5-.7-1.1.1-2.1 1.2-1.5.6-4.4-1-4.4-.5 0-1.9.9-3.2 1.9m8.6 23.1c2.1 2.3.4 2.7-1.9.4-1.8-1.7-2-2.4-.8-2.4.5 0 1.7.9 2.7 2m30.3 1.7c6.2 2.2 8.8 3.7 10.2 5.7 1.4 2.2 2.7 2.9 6 3.1 2.3.2 4.7.8 5.1 1.2 1.3 1.3-4.4 11.7-6.5 12.1-.9.2-1.6-.3-1.6-1.3 0-.9-2.4-4-5.2-7l-5.3-5.5-10.5-1.9c-11.5-2.1-19.2-4.5-11-3.4 2.5.3 7.8 1.1 11.8 1.8 6.2 1 7.5.9 7.9-.2.8-2 .3-2.2-8.5-3.5-8.4-1.2-9.5-1.9-6.4-3.8 2.1-1.2 3.4-1 14 2.7m-23.8 1.9c0 .2-.7.4-1.5.4s-1.5-.4-1.5-1c0-.5.7-.7 1.5-.4.8.4 1.5.8 1.5 1m121-25.5-2.5 2.1 2.7 2.2c1.5 1.1 5.2 3.9 8.2 6.1 4.7 3.4 5.6 4.5 5.6 7.2 0 2.9-.3 3.3-2.6 3.3-1.4 0-4.5-1.4-6.9-3-2.4-1.7-4.8-3-5.3-3-.4 0-1.9-1.1-3.2-2.5-2.6-2.8-6.1-3.2-8-1-1.8 2.2-3.6 1.8-5.9-1.3-2.6-3.4-2.8-.8-.3 3l1.8 2.7 4.3-2.2c3.7-1.9 4.4-2 5.4-.7 1.6 2 16.6 12 18 12 .7 0 2.9.5 5 1.1 3.3.9 3.7 1.4 3.8 4.2 0 1.8.4 4.1.9 5.2.6 1.3.9-2.1.9-9.4l.1-11.4-3.4-4.2c-3.5-4.2-13.6-12.5-15.2-12.5-.5.1-2 1-3.4 2.1m-102 3c0 .8 1 2.5 2.3 3.6 3.1 2.8 9.7 6.6 9.7 5.6 0-.4-2.1-1.9-4.6-3.2-2.5-1.4-5.1-3.6-5.9-5-.9-1.6-1.4-2-1.5-1"/>
        <path d="M331.1 190.5c0 .5.6 3.7 1.4 7 1.4 5.8 1.4 5.9.9 1.1-.5-4.4-2.2-10.6-2.3-8.1m14.2 1.3c.9.8 2.3 1.2 3.1.9 2.6-1 1.8-2.2-1.5-2.3-2.7-.1-2.9 0-1.6 1.4m106.8 3.8c3.8 4 11.7 9 12.6 8 .4-.3.1-.6-.5-.6s-4-2.5-7.6-5.5c-7.4-6.3-9.7-7.2-4.5-1.9m-138.7.5c-.3.6 0 1.5.7 2 2.2 1.4 2.9 1.1 2.9-1.1 0-2.1-2.4-2.7-3.6-.9m113.6 3.5c0 5.5 4.2 15.5 4.8 11.4.2-1.3.1-4.4-.3-6.9-.6-3.7-.9-4.2-1.6-2.6-.6 1.5-.8.9-.8-2.3-.1-2.3-.5-4.2-1.1-4.2-.5 0-1 2.1-1 4.6m-81.9-3.3c.2.2 3.6 2 7.4 4.1 3.9 2 6.1 2.9 5 2-2.2-1.7-11-6.4-12.1-6.4q-.6 0-.3.3m-40 2.1c-.9 1-.9 1.6-.1 2.1 1.7 1 3.7-1.2 2.4-2.5-.8-.8-1.5-.6-2.3.4m141.3 4.6c1.5.5 3.6 1.5 4.5 2.2s.6.3-.7-1c-1.3-1.2-3.3-2.2-4.5-2.1-1.8.1-1.7.2.7.9m-310.7 1.7c-1.5 1.4-.6 2.4 2 2.1 1.4-.2 2.8-.9 2.9-1.6s0-.8-.3-.2c-.2.5-1.4 1-2.4 1-1.1 0-1.7-.5-1.4-1 .7-1.1.2-1.3-.8-.3m34.3.2c0 .9 2 2.3 12.9 8.9 1.3.8 2.1.9 2.1.2 0-.5-2.7-3-6.1-5.5-5.9-4.3-8.9-5.5-8.9-3.6m139 .2c0 .9 1.1 3.3 2.5 5.3 3 4.5 3.1 5.2.4 6.6-1.8 1-2.6.6-6.2-3.2-2.3-2.4-4.7-5.2-5.3-6.3-1.7-2.8-3.7-.7-2.8 2.9 1 4.3 12.8 11.5 28.8 17.5 10.6 4.1 14.7 5.2 17.3 4.8 4.3-.7 6.3 0 6.3 2.4 0 2.6 3.5 2.5 7.7-.4 1.8-1.2 3.3-2.5 3.3-2.9 0-.3-1.8-2.1-4-3.8-3.3-2.6-5.2-3.3-10.3-3.7-13.8-1-30.4-9-35.3-16.9-1.3-2.2-2.4-3.2-2.4-2.3m9.6 12c.3.6-.1 1.8-.9 2.7-1.3 1.3-1.9 1.3-3.2.2-1.2-1-1.3-1.6-.4-2.6 1.4-1.7 3.5-1.8 4.5-.3m5.9 4.9c0 .8-1 1.6-2.2 1.8-2.2.3-3.2-1.6-1.6-3.2 1.2-1.1 3.8-.2 3.8 1.4m40.5-16.4c.8.4 3.4 1.5 5.8 2.5 2.3 1 4 1.4 3.6.8-.3-.6-1.7-1.4-3-2-2.8-1-8.7-2.2-6.4-1.3M123.5 207c-.3.5-.1 1 .4 1 .6 0 1.1-.5 1.1-1 0-.6-.2-1-.4-1-.3 0-.8.4-1.1 1M83 208.5c0 .4.7 1.9 1.5 3.5q1.5 2.85 3 2.4c2-.8 1.9-2-.5-4.4-1.9-1.9-4-2.7-4-1.5m58.5 2.6c-5.7 2.1-4.6 2.5 2.1.8 2.4-.6 4.4-1.5 4.4-2 0-1.1-.3-1.1-6.5 1.2m-69.3 2c-2.4 1.1-4.6 2.7-4.8 3.4-.8 2 5.6 11.5 8.3 12.6 1.5.5 4.2.2 8-.9 4.6-1.4 5.9-2.3 6.1-4 .3-2-.1-2.2-3.7-2.2-4.5 0-5.6-.9-3.8-3.5 1.1-1.4.9-2.1-1.4-4.6-3.1-3.4-3.1-3.4-8.7-.8m7 6.9c1.2 2.1 1.3 3.2.6 3.6-1.3.8-6.1-4.3-5.3-5.7 1.1-1.7 3-.9 4.7 2.1m15.8-8.1c0 1.1 2.6 2.2 3.4 1.4.3-.3.3-1 0-1.4-.7-1.2-3.4-1.1-3.4 0m9.6.7c-.8 2.2-.9 2.2 1.8 3.9 2 1.3 3.7 1.4 10.7.6 10.4-1.3 15.9-2.8 15.9-4.5 0-1-2.3-1.3-9.2-1.2-5.1.1-9.9.5-10.6 1-.8.5-1.8.4-2.5-.3-1.6-1.6-5.4-1.3-6.1.5m351.5 7.5c-2.5 3-2.9 3.9-1.7 3.9 1.5 0 3.8-2 7.4-6.4 1.1-1.4 1-1.6-.5-1.5-1 0-3.3 1.8-5.2 4m13.7-1.9c.7.7 1.2 3 1.3 5.2.1 2.3.4 5.2.8 6.6.6 1.9.9 1 1.4-3.9.7-6.7-.1-9.1-3.1-9.1-1.2 0-1.3.3-.4 1.2m-3.8 1.9c0 1.2-1.4 3.4-3.1 5s-2.9 3.4-2.7 4c.7 2.1 7.8-5.6 7.8-8.5 0-1.4-.4-2.6-1-2.6-.5 0-1 .9-1 2.1m-188.6 3.2c-3.5 2.4-9.5 9-11.2 12.3-2.6 5-8.4 21.8-11.2 32.7-3.6 14-4.1 15.2-8.1 17.2-4 2.1-3.7 5.6.7 6.9 2.3.7 3.4 1.8 4.2 4.2.9 3.1.9 3.2-2.4 3.9-3.1.5-3.6 1.2-3.3 4.2 0 .5-1 1-2.2 1.3-2.4.6-5.3 4.2-6.4 7.7-.5 1.9-.2 2.3 1.5 2.3 2.3 0 2.2 1.1-1.1 11.5-1.9 6-5.1 19.8-7.1 30.8-1.2 6.8-3.4 7.2-3.2.6l.2-4.4-1.1 3.4c-.9 2.7-.7 3.9.8 6.7 1 1.9 2.1 3.4 2.4 3.4.4 0 2.4-7.8 4.5-17.3 2.1-9.4 4.6-19.9 5.6-23.2 3.1-10.4 3.3-12.2 1.4-13.3-1.4-.8-1.5-1.2-.3-3.7 1.6-3.2 3.9-4.5 3.9-2.1 0 .9.7 1.6 1.6 1.6 1 0 1.4.6 1 1.7-.3 1-2.8 11.2-5.6 22.8-2.8 11.5-5.7 23.6-6.5 26.8-1.8 7.1-1.8 7.7-.2 7.7 3.6-.1 4-1.1 13.2-40 5.7-24.3 5.1-22.8 8.5-23.5 4.4-1 4.5-2.1.6-5.6-2-1.7-3.6-3.6-3.6-4.1 0-1.3-4.1-4.7-5.7-4.8-2.3 0-1.4-1.7 2.2-4.1 4.1-2.9 4.9-4.5 9-20.3 4.5-16.7 9.1-29.4 12.3-33.4 5.2-6.6 9.4-12.2 9-12.1-.1 0-1.7 1-3.4 2.2M252 305c0 .5-.7 1-1.5 1s-1.5-.5-1.5-1c0-.6.7-1 1.5-1s1.5.4 1.5 1m10.2-81.3c-4.5.9-8.7 6.5-11.1 14.9-4.5 15.7-9.4 31-11.3 34.6-1.1 2.3-2.8 4-4.3 4.4-1.4.3-2.5 1.1-2.5 1.6 0 1.5 5.2 0 7.3-2.1 2-2 6.6-14.8 10.3-29.1 3.5-13.4 6.6-19.4 11.7-22.5 4.2-2.5 4.2-2.6-.1-1.8m-162.6 2.6c-.3 1.3-1.7 2.9-3.1 3.7-1.4.7-2.1 1.6-1.6 1.9s1.2 6.5 1.5 13.6c.4 8.4.3 12.3-.3 11-.5-1.1-1-4.1-1-6.6-.1-2.6-.4-6.1-.7-7.8-.6-2.6-1.1-3.1-3.5-3.1-1.6 0-2.9.2-2.9.5 0 .2 1.4 5.7 3.1 12.2s3.1 12.9 3.1 14.3c-.1 3.9 1.9 5.6 7.1 6.4 4.3.7 4.7.6 4.7-1.4 0-1.2.4-1.9.9-1.6 1.4.9 1.6-.7 1.3-7.8-.3-6.1-.5-6.4-2.2-5.3-1.1.6-2.2.9-2.5.5-.3-.3-1.3-4.8-2.1-9.9s-1.7-9.6-2-10c-.2-.5.5-3.4 1.6-6.6 2.4-6.8 2.3-6.3.6-6.3-.8 0-1.6 1-2 2.3m55.6.5-4.2 2.7.6 8.5c.4 4.6 1.7 11.6 3 15.4 2.3 6.7 3.1 15.5 1.8 20.2-.6 2.4-5.6 5.3-5.3 3.1.5-4-2.6-5.6-10.9-5.8-5.3-.1-5.4-.2-2.2-1 1.9-.4 4.7-1.1 6.2-1.5 1.9-.4 3.7-.1 5.4 1.1 3.2 2.1 4.7.9 4.2-3.1-.2-2.1-.9-3-2.5-3.2-2.9-.4-3.1-3.8-.3-4.7 2.5-.8 2.5-1.9-.1-7.4-1.6-3.6-1.8-5.6-1.3-10.2.6-5.8 0-10.9-1.4-10.9-.9 0-.2 19.2.8 20.5.4.5 1 2.2 1.4 3.6.5 2.5-.6 3.9-3.3 3.9-1.3 0-3.3-14.2-2.2-14.9.6-.4.8-3 .4-6.4-.5-4.5-.9-5.7-2.3-5.7-1 0-2-.6-2.3-1.4s-2.3-1.9-4.3-2.5c-3.8-1.1-6.3-.6-2.8.4 4.4 1.4 4.8 2.2 6 10.6.7 4.6 1.2 10.5 1.2 13.1 0 2.5.3 5.5.6 6.6.5 1.5-.9 3.4-6.9 8.7-4.1 3.7-7.2 7.1-7 7.6.3.5 1.9.6 3.5.3 2.7-.6 16.4 3.9 17.5 5.7.9 1.4-2.3 1.7-4.6.4-5.4-3.1-7.6-3.7-13-3.2-4.4.4-6.1.1-7.3-1.1-1.5-1.5-1.3-1.9 2.5-5.4 2.3-2.1 3.9-4.1 3.5-4.5s-2.8 1.4-5.3 3.9l-4.6 4.7 2.3 2.4c2.1 2.2 2.9 2.4 9.1 1.9 5.6-.4 7.3-.1 10.7 1.8l4 2.2 5.6-2.1c8-3 13.8-6 16.1-8.4 1.6-1.8 2.1-3.8 2.3-11.4l.4-9.3-4.7-6.9c-4.1-6.1-4.8-7.7-5.3-13.9l-.7-7.1zm3.5 5.4c-.3.8-.6.5-.6-.6-.1-1.1.2-1.7.5-1.3.3.3.4 1.2.1 1.9m1.3 6c.6 2.4 2.7 6.6 4.6 9.5 2.2 3.1 3.4 6.1 3.2 7.5-.2 1.9-1 1.1-3.9-4.3-2-3.6-4-8.1-4.4-10-.3-1.9-.9-4.2-1.1-5.2-.3-.9-.3-1.7 0-1.7s1 1.9 1.6 4.2m-8 28.5c0 .7-.6 1.3-1.2 1.3-2-.1-5.1-2.8-4.4-3.8.8-1.3 5.6.9 5.6 2.5"/>
        <path d="M110.2 227.4c-1.8 2.3-1.9 3.2-1 5.8 1 2.9.9 3.3-1.6 5.3-2 1.6-2.7 2.9-2.3 4.6.4 2.3.4 2.3.6.1.2-3.3 1.9-2.7 2.5 1 .3 1.8 1.1 6.2 1.7 9.8 1.2 6.6 1.4 14 .4 17-.4 1.2.1 1.9 1.6 2.3 1.1.3 1.8 1 1.4 1.6-.3.6-.2 1.1.4 1.1 1.4 0 4-5.1 3.8-7.5-.1-1.2.5-2.1 1.7-2.3 1.4-.3 1.7 0 1.3 1.2-.8 2.1-.6 2.1 5.1-1.5l4.9-3-2.9-10c-1.6-5.5-2.6-10.4-2.3-10.9.3-.6 1.5-1 2.7-1 1.4 0 1.8-.5 1.4-1.6-.3-.9-.6-1.7-.6-2 0-.2-.6-.1-1.4.2s-1.7.1-2.1-.5c-.3-.6 0-1.4.8-1.7 2.3-.9.9-4.3-1.5-3.6-1.8.4-1.9 1-1.4 6.1.4 3.1.9 7.6 1.1 10.1.4 3.4.1 5.1-1.4 7l-1.9 2.4-1.5-5.4c-.8-3-2.8-10.4-4.4-16.4l-3-10.8zm52.8.4c0 3.6 4 14.9 5.7 16.3 1.5 1.2 1.6 1.2.8-.6-2-4.9-4.5-13-4.5-14.6 0-1-.4-2.1-1-2.4-.5-.3-1 .3-1 1.3m26.6-.3c-1.1 3-.7 3.4 8.4 6.1 7.3 2.2 9 3.1 9 4.6 0 2-.3 2-11.5.4-1.1-.1-1.2 4.2-.1 15.4 3 34 3.2 37 2.3 37.9-1 1 7.9 7 15.1 10.1 4.7 2.1 5.7 2.2 9.5 1.1 6.1-1.8 8.7-3.8 8.7-6.6 0-1.4.5-2.5 1-2.5.6 0 1 1.5 1 3.2 0 4.5 1.5 6.8 2.3 3.6 1.2-4.1.8-5.3-3.2-9.5-4.4-4.8-4.5-5.5-5.6-36.3-.8-19.9-1-20.9-4.3-21.5-1.5-.3-7.9-1.9-14.2-3.5-16.8-4.4-17.6-4.5-18.4-2.5m27.5 12.8c0 2.1-2 4-3.5 3.4-1-.4-1.5-1.1-1.2-1.6s-.4-1.1-1.7-1.5c-1.6-.4-1.9-.8-.9-1.5 1.5-.9 7.3 0 7.3 1.2m3.5 27.8c1.4 20.4 1.6 21.5 3.9 23.9 3.1 3.2 3.1 4.5.1 6.5-4.1 2.7-5.3 1.2-6-7.3-1.7-21.6-2.7-43.4-2.2-44.9 1.7-4.3 2.9 2.1 4.2 21.8m3.9-41.1-4 .7 4 .1c2.2.1 4.7-.3 5.5-.8 1.8-1.2 1-1.2-5.5 0m-101 1c-.3.5.1 1 1 1s1.3-.5 1-1c-.3-.6-.8-1-1-1s-.7.4-1 1m10.5 5.1c0 2.2 4.1 14.1 4.7 13.5s-2.7-12.8-3.8-14.1q-.9-.75-.9.6m250.1 3.4c-1.8 2.5-2.7 4.5-2 4.5.8 0 .8.4.2 1.2-.6.7-1.3 3.7-1.7 6.6s-2 8-3.7 11.2c-1.7 3.3-4.6 12.1-6.5 19.6s-4.4 15.9-5.6 18.8c-2.5 6-2.6 6.1-3.4 5.3-.3-.3.3-3 1.4-5.9s3.2-10.7 4.7-17.3c1.5-6.7 4.3-15.3 6.3-19.5 1.9-4.1 3.7-9.4 4-11.8l.5-4.3-4.4.3c-2.4.2-4.2.5-4 .8 1.1 1.3-2.1 4.8-4.9 5.3l-3 .6-.1 10.3c0 7.2-.8 14-2.7 22.8-2.4 11.2-2.9 12.5-5 12.8-2.7.4-2.6 1.1-.2-12.9 1.6-9.7 2.4-19.8 2.1-27.2-.1-.9-.8-1.7-1.6-1.7-1.2 0-1.5 1.5-1.5 7.6 0 14.1-3.2 33.4-5.5 33.4-.2 0-2.2-.7-4.4-1.6l-3.9-1.6 1.9-5.4c1.8-5.4 3.9-21.3 3.9-29.8 0-3.6-.4-4.5-2.5-5.4-1.4-.7-2.8-1.2-3-1.2-.3 0-.4 2.4-.4 5.2.2 10.2-1.4 23.3-3.7 30.2-1.3 3.8-2.4 7.5-2.4 8.1 0 .7 4.2 2.8 9.3 4.8l9.2 3.5-.3 4c-.3 3.2.1 4.3 1.7 5.1 3.7 2 6 1.3 8.6-3 1.5-2.3 4-4.6 5.9-5.4 4.6-1.9 5.1-2.9 7.1-13 2.1-11.3 6.1-26.9 7.5-29.5.6-1 2.8-4 5-6.5s4.2-5.6 4.4-6.8c1.5-7.1 1.4-8.3-1-12.5-1.4-2.3-2.6-4.2-2.8-4.2-.1 0-1.7 2-3.5 4.5m74.9-.3c0 1.6.5 2.8 1 2.8 1.3 0 1.3-2 0-4-.8-1.2-1-.9-1 1.2m16.6 5.4c-.9 2.4-.7 5.4.4 5.4.6 0 1-1.6 1-3.5 0-3.8-.4-4.4-1.4-1.9m-222 9c-1 4.1-1.6 7.7-1.4 8 .3.2 1.2-3 2.2-7.2 1-4.1 1.6-7.7 1.4-8-.3-.2-1.2 3-2.2 7.2m171.9-4c-.8 2-1.5 4.4-1.4 5.3 0 1 .4.6 1-.9.6-1.4 2.2-3.7 3.6-5.3 2.6-2.6 2.6-2.7.5-2.7-1.6 0-2.6 1-3.7 3.6"/>
        <path d="M106.2 249.5c0 1.6.2 2.2.5 1.2.2-.9.2-2.3 0-3-.3-.6-.5.1-.5 1.8m362.8.1c-1.9 1.4-5.4 3.5-7.7 4.6-5 2.2-4.9 1.5-2.7 18.1 1.7 12.9 1.5 32-.5 36.7-.7 1.8-1-2.6-1-16.5-.1-10.5-.6-22.7-1.2-27.2-.9-6.4-.9-8.6 0-9.7 1.3-1.6.7-1.9-6.1-3.1l-3.8-.6v4.1c0 2.2.4 4 .9 4 2.5 0 5.1 21.9 5.1 43.1 0 13.9-.6 16.9-3.2 16.9-.4 0-1.5-1.4-2.4-3.2-1.3-2.6-1.6-4.9-1.1-11.8.7-8.9-.7-42.4-1.9-45.3-.7-2-3.4-2.3-3.4-.4 0 .7.7 6.7 1.6 13.2 1.6 12.1 1.4 32.2-.4 39-.7 2.7-1.3 3-5.1 3.3-4.1.3-4.3.2-3.7-2 .3-1.3 1.4-6.7 2.3-12.1 1.6-9.4 1.6-10.8-.2-27-1-9.5-1.9-18.7-1.9-20.4 0-2.7-.2-3-1.4-2.1-.7.7-1.2 2.2-.9 3.5.2 1.3-.2 3.1-.9 4-1.3 1.7-1.5 1.7-3-.2-1.5-1.8-1.6-.6-.8 16 1.2 24.8 1.1 27.2-1.1 33.9-2.6 8.3-1.9 9.1 8.6 9.3 4.6.1 9.2.2 10.1.2 1 .1 3.5 1.7 5.7 3.6 2.1 1.9 4.8 3.5 6 3.5 1.3 0 4.4-2.2 7.6-5.5 3-3 5.9-5.5 6.5-5.5 2.5 0 4.3-7.7 4.7-20.5.3-12.4 2.7-35.7 3.9-38.8.3-.9-.7-2.9-2.3-4.7l-2.8-3.1zm-1 11.6c-.9 2.4-.9 5.9-.2 12.8 1.3 13.9 1.5 32.6.2 35-2 3.7-2.5 2-2-6.7.3-4.7.1-15.5-.3-23.9-.7-13.2-.6-15.7.8-18.4 2.1-4 3.1-3.2 1.5 1.2M134.1 254c0 .8.4 2.2.9 3 1.2 1.8 1.2.2 0-2.5-.6-1.3-.9-1.5-.9-.5m213.3 8.7c0 4.3-.1 10.5-.4 13.8-.3 4.9-.1 6.1 1.2 6.3 2.2.4 2.6-1.3 3.4-14.4.6-9.4.4-11.8-.7-12.5-3-1.9-3.5-.9-3.5 6.8"/>
        <path d="M435 262.2c0 1.8.5 7.8 1.1 13.3.5 5.5 1 13.5 1 17.7 0 7.6.5 9.3 2.5 8 2.1-1.3 2.4-10.3.9-25.5-.8-8.3-1.5-15.5-1.5-16 0-.4-.9-.7-2-.7-1.6 0-2 .7-2 3.2m-183.9-.6c0 1.1.3 1.4.6.6.3-.7.2-1.6-.1-1.9-.3-.4-.6.2-.5 1.3m-.9 4.4c0 1.4.2 1.9.5 1.2.2-.6.2-1.8 0-2.5-.3-.6-.5-.1-.5 1.3M98 275c3.6 1.1 5 1.1 5 0 0-.6-1.7-1-3.7-.9-3.4.1-3.5.2-1.3.9m10.3-.3c.9.2 2.3.2 3 0 .6-.3-.1-.5-1.8-.5-1.6 0-2.2.2-1.2.5m-13.6 4c-1.5 1.4-.6 2.3 2.4 2.3 2.7 0 3-.2 1.9-1.5-1.3-1.6-3.2-1.9-4.3-.8m21.5.5c-1.7 1.7-1.5 3.1.3 2.5.8-.4 1.7-.2 2 .3 1.1 1.8 2.6 1 2.3-1.2-.3-2.6-2.8-3.4-4.6-1.6m39.8 4.4c-6.4 4-10.8 4.4-13.6 1.3-4.6-5.2-11.5-4.9-15.3.6-2.6 3.9-2.4 5.2.7 3.6 3.7-1.9 8.8-1.3 12.1 1.5 2.5 2.1 3.9 2.5 7.1 2.2 3-.3 3.9 0 3.6.9-.8 2 .3 1.6 4.3-1.6 2-1.5 5.5-3.8 7.7-4.9 2.3-1.2 4.4-2.8 4.7-3.6.4-.9-1.4-.2-4.4 1.6-3.6 2.3-5.3 2.8-6 2.1-.8-.8 0-1.9 3-3.8 2.2-1.5 4.1-2.9 4.1-3.1 0-1.1-3.1.1-8 3.2m-3 4.3c0 1.4-2.8 3.3-4 2.6-1.5-1-1.2-2.3.8-2.8 2.8-.8 3.2-.7 3.2.2m-49.8-1.2-2.7 5.8V349l3 2.5c1.7 1.3 3.4 2.4 3.9 2.5 1.6 0 8.7-6.2 10-8.9 1.8-3.5 2.6-12.4 2.7-31.1.2-24.7.1-26-1.5-26-1.1 0-1.6 1.5-1.9 5.2l-.3 5.3-.2-5.7c-.2-5-.5-5.9-3.1-7.7-1.6-1.2-3.7-2.1-4.6-2.1s-1.3-.5-1-1c.3-.6.1-1-.5-1-.5 0-2.3 2.6-3.8 5.7m-.6 9.8c-.8 2.7-1.5 4.2-1.5 3.1-.1-2.3 2.2-10.3 2.6-9 .1.5-.4 3.1-1.1 5.9m8.6 18.2c.4 21.5.3 25.2-1.1 27.7-3.3 6-3.8 4.3-4.4-15.1-.6-17.2-.5-19.6 1.5-28.1 1.2-5 2.5-9.2 2.9-9.2s.9 11.1 1.1 24.7m126.3-32.1c-4 1.4-4 1.4-.5.9 1.9-.3 3.9-1 4.4-1.5 1.2-1.2 1.2-1.2-3.9.6m-146.6 1.7c-.6 1.4-3.1 3.2-5.8 4.4l-4.8 2-1.2 10.9c-1.2 10.6-1.2 11.3 1.8 25.8 1.6 8.2 3.3 15.1 3.7 15.5.3.3.4-1.9.3-4.9-.4-5-.2-5.5 1.6-5.5 1.7 0 2.1 1 3 6.8.6 3.8 1.3 6.6 1.7 6.2.3-.4.7-12 .7-25.8l.2-25.2 3.4-5.5c2.9-4.8 3.1-5.6 1.7-6.2-3.2-1.3-5.2-.8-6.3 1.5M88 310.4c0 1.6-1.8 3.1-2.7 2.2-.8-.8.5-3.6 1.7-3.6.5 0 1 .6 1 1.4m0 9.1c0 .8-.9 1.5-2 1.5-2 0-2.6-1.1-1.3-2.3 1.2-1.3 3.3-.7 3.3.8m.4 7.6c-.7 1.1-3.4 1.2-3.4.1 0-1.4 1.1-2.1 2.6-1.5.8.3 1.1.9.8 1.4m257.7-40.7c-.7.9-.8 1.7-.2 2 1.3.9 4.3-.4 3.8-1.7-.5-1.7-2.3-1.9-3.6-.3"/>
        <path d="M157.5 292.6c-4.5 3-8.9 4.9-8 3.4.3-.6.2-1-.3-1-1.3 0-3.9 3.2-5.1 6.3-1.6 4.2-3.5 3.3-6.6-3.3-2.2-4.6-3.4-6-5-6-3.4 0-3.5.8-.9 7.7 2.7 7.3 3.1 15.7 1.4 33.7-.8 9.1-1.1 10.1-3.9 13-1.7 1.8-3.1 4.1-3.1 5.2s-.7 3-1.6 4.2c-2 2.9-.1 2.9 2.3-.1 3.2-3.8 7.4-5.6 12-5 3.8.5 4.2.3 5.7-2.5 1.1-2.1 1.8-7.4 2.2-17.4.4-8.3 1.2-15.7 2-17.7.8-1.8 1.4-4.1 1.4-5.1s.7-2.3 1.5-3 1.5-2.3 1.5-3.5c0-1.5 1.3-3.2 3.9-4.9 3.6-2.5 5.7-5.3 4.8-6.3-.2-.2-2.1.9-4.2 2.3m-11 9.1c-.7 2.1-1.8 3.9-2.4 4.1s-.9.7-.7 1.1c.3.4.1 1.3-.4 2.1-.7 1.1-.8.8-.7-1 .3-2.1 4.3-10 5.2-10 .1 0-.3 1.7-1 3.7m-7.4 42.6c-.6 1.4-2 3.1-3.2 3.8l-2.2 1.1 2.2-3c1.4-2.1 2.4-5.4 2.9-9.9l.7-6.8.3 6.1c.2 3.3-.2 7.2-.7 8.7M343 290.8c0 1.4 1.1 2.1 2.6 1.5 2.1-.8 1.7-2.3-.6-2.3-1.1 0-2 .4-2 .8M241.7 297c-.3 1.1-.1 2.3.4 2.6s.9-.4.9-1.5c0-1.5.4-1.9 1.7-1.4 1.1.4 1.4.3.9-.5-1.1-1.9-3.3-1.4-3.9.8m130.1 8c-3.9 2-4.8 3-4.8 5.2 0 1.9-.5 2.8-1.6 2.8-1.8 0-13.5 7.7-14.7 9.7-.4.7-1.9 2.5-3.3 4-1.3 1.4-2.4 3.1-2.4 3.7s-.3 2.1-.6 3.3c-.5 1.8 0 2.3 3.5 3.4 4.2 1.2 7.1.2 7.1-2.5 0-1.8 5.7-6.9 6.9-6.2.5.4 2.5-.6 4.3-2.2s5.3-4.2 7.8-5.9 5.2-4.2 5.9-5.6c1.3-2.5 1.2-3.4-.8-6.7-.5-.8-1.3-2.4-1.7-3.5-.9-2-1-2-5.6.5m5.2 2.9c0 2.1-1 3.4-4.2 5.7l-4.3 3 .3-4.5c.3-4 .8-4.8 3.5-6.2 3.9-2 4.7-1.6 4.7 2m-13.2 9.6c-2 1.4-4 2.5-4.3 2.5-1.4 0-10 8.3-10.9 10.3-.7 1.8-1 1.9-1.3.5-.2-.9.7-2.8 2.1-4.2 1.5-1.4 2.6-3 2.6-3.5 0-1.6 10.2-7.9 13-8 2.3-.1 2.2.1-1.2 2.4m2.2.8c-3.4 3-12.4 9-11 7.3.8-1.1 3.8-3.4 6.5-5.2 5.4-3.5 6.8-4.2 4.5-2.1m-173.4 2.4c-1.5 8.7-4.1 21.2-5.7 27.8-2.5 10.5-3.3 12.3-6.1 14.7-3.7 3.2-3.3 3.5 1.5 1.2 2.8-1.3 3.9-3.1 7.3-10.7 3.9-9.1 4-9.2 7.7-9.5 5.1-.4 5.4 1.1 2.7 10.9-1.8 6.3-3.2 9.1-6.6 12.8-4.3 4.8-4.3 4.9-2.4 6.6 2.6 2.3 4.8 1.3 12.3-6.1 5.1-4.9 5.9-5.4 10.1-5.4 7.5 0 9.9-3 14.1-18 4.7-16.6 5.1-19.3 3.1-20.9-1.5-1.3-1.5-1.5.4-2.8 2.2-1.6 2.6-4.4.9-7.4-.8-1.6-.7-2.5.5-3.8.9-1 1.6-2.6 1.6-3.7 0-1.5-.7-1.2-3.7 1.8l-3.7 3.7 2.2 2.4c2.4 2.5 2.1 5.7-.4 5.7-2.2 0-3 3.1-1.1 4.2 2.3 1.2 2.2 5.7-.3 14.9-1.1 4.1-2.5 9.5-3.1 12.1-1.6 7.1-3.4 8.7-11.4 10.4-4.1.9-7.9 2.3-9.2 3.6-1.3 1.2-2.3 1.9-2.3 1.6 0-1 6.9-21 7.4-21.6.3-.2.3 1.1 0 3-.5 2.6-.2 3.7 1 4.1.8.3 1.8.2 2.1-.3.7-1.1 7.5-33 7.5-35.1 0-.9-.8-2.3-1.7-3.1-1.5-1.3-13.7-6.3-20.3-8.4-1.3-.4-2.1 2.3-4.4 15.3m22.1-1.5c-.3.8-.6.5-.6-.6-.1-1.1.2-1.7.5-1.3.3.3.4 1.2.1 1.9m-11.1 11.3c-.1.9-.5 1.5-.9 1.5h-2.2c-.8 0-1.5-.7-1.5-1.5 0-.9.9-1.5 2.4-1.5 1.6 0 2.3.5 2.2 1.5m-.1 7.5c0 2.9-3.1 3.8-6.6 1.9l-2.3-1.2 2.4-1.9c3.2-2.6 6.5-2 6.5 1.2m-3.5 30.5c0 .7-4.3 4.5-5.2 4.5-1.7 0-.7-1.6 2-3.2 3.2-1.9 3.2-1.9 3.2-1.3m236.5-62.6c-.3.5-.1 1.2.5 1.6 1.2.7 3-.2 3-1.6 0-1.2-2.7-1.2-3.5 0m-110.8 6.4c-4.5 4-6.1 6.3-7.3 10.1-1.6 5.5-.9 7 2.7 6.4 2-.2 2.5-1 2.7-4 .3-3.1 1.3-4.6 6.4-9.2 4.1-3.7 5.9-6 5.5-7.1-1.1-2.7-4.1-1.6-10 3.8"/>
        <path d="M338.3 310.8c-4.7 3.2-12.2 11.3-8.5 9.3 1.2-.6 2.9-2.3 3.8-3.6 1.7-2.6 7.3-6.5 9.3-6.5 2.3 0 1 2.9-2.4 5-1.9 1.2-3.8 2.7-4.2 3.4-.5.7-2.1 1.9-3.8 2.7-5.4 2.5-7 9.9-2.1 9.9 1.6 0 2.7-1.3 4.6-5.3 2.3-4.7 3-5.4 7.5-6.8 3.5-1.1 5.1-2.2 5.3-3.5.2-1.7.1-1.7-1-.4-.7.9-3.1 2.1-5.3 2.7-3.6 1.1-3.8 1.1-2-.3 6.8-5.1 7.7-6.7 4.7-8.3-1.4-.8-2.8-.3-5.9 1.7m-4.4 13.4c-.7 1.2-1.5 2.9-1.9 3.7-1.1 2.4-3 2.4-3 .1 0-2.1 4.7-7.7 5.6-6.7.3.3 0 1.6-.7 2.9M435.5 310c-.3.5.3 1 1.4 1 1.2 0 2.1-.5 2.1-1 0-.6-.6-1-1.4-1s-1.8.4-2.1 1m36.5 7.5c0 .2 1 1 2.3 1.6 2 1.1 2.1 1.1.8-.4-1.3-1.6-3.1-2.3-3.1-1.2m-3.2 4c-.4 2.2-.8 5.4-.8 7 0 3-.2 3.1-3.6 2.7-3.5-.4-4.1 0-11 7.3-4.1 4.2-7.4 8.2-7.4 8.9 0 .6 3.2-2.4 7.1-6.7 5.5-6 7.6-7.7 9.7-7.6 2.7 0 2.6 0-1.3 3.2-3.5 2.9-12.6 11.3-10.1 9.4 2.1-1.5 3-.5 1 1.1l-2.1 1.8 2.3 2.1 2.3 2 8.5-8.7c7.9-8.1 10.6-12 10.6-15.6 0-1.1-.4-1.2-1.9-.4-1.9.9-2 .6-2.3-4.7-.3-5.8-.3-5.8-1-1.8"/>
        <path d="M341.9 321.3c-5.8 3.9-6.9 14.7-1.4 14.7 1.5 0 3.5-3.7 3.5-6.4 0-2.4.7-3.8 3-5.4 6.2-4.6 1.5-7.3-5.1-2.9m75.4 1.9c-6.4 7.4-9.3 12.6-9.3 17.2s.1 4.8 4.5 6.7c6.5 2.9 10.1 1.9 11.1-2.9.4-2 .8-4.6.9-5.7.2-3.2 11.3-14.1 13.9-13.7 3.9.7.9-.9-4.5-2.4-8.3-2.1-14.1-1.9-16.6.8m25.5 2.5c.6.2 1.8.2 2.5 0 .6-.3.1-.5-1.3-.5s-1.9.2-1.2.5"/>
        <path d="M445 327.8c0 .6-3.1 3.6-7 6.7-6.1 4.9-7.3 5.4-9.1 4.5-2.7-1.5-3.7-.5-1.1 1.1 1.9 1.2 2 1.6.7 4.6-.8 1.8-1 3.5-.5 3.8s1.4-1.1 2-3c.8-2.3 3.4-5.4 7.8-9.1 6.9-5.8 8.8-8.1 7.8-9.1-.3-.4-.6-.1-.6.5m-1 7.8c-.8.8-3.3 2.6-5.6 4-2.7 1.6-5 4-6.2 6.5-1.1 2.3-1.5 3.8-.8 3.6.6-.2 1.9-2 2.9-4 2.2-4.7 3.1-4.8 1.1-.2-.8 2-1.2 4-.9 4.5 1 1.6 4.7 1.1 6.1-.8.9-1.1 1.3-1.2 1.4-.4 0 1.2 8.9 5.7 9.7 4.8.2-.2-1.4-1.2-3.6-2.2-4.9-2.1-5.1-3.7-1.2-8.5 1.7-2 3.3-4.8 3.6-6.2.7-2.5.5-2.7-2.3-2.7-1.6 0-3.5.7-4.2 1.6M117.5 353c-1 1.1-1.6 2.3-1.3 2.6.7.6 3.8-2.4 3.8-3.7s-.5-1.1-2.5 1.1m90.5 2c0 .5.5 1 1 1 .6 0 1-.5 1-1 0-.6-.4-1-1-1-.5 0-1 .4-1 1m-1.3 3.6c-.8.8.1 2.4 1.4 2.4.5 0 .9-.7.9-1.5 0-1.5-1.2-2-2.3-.9m-122.5 9.1c-.6 4.3-1.7 15.2-2.3 24.2l-1.2 16.4 5.6 5.4 5.6 5.4-4.4 6.2c-4.8 6.5-5.1 7.2-3.5 8.2.5.3 3.1-1.7 5.7-4.6 2.7-2.9 5.5-5.9 6.3-6.6.8-.8 3.9-3.7 6.9-6.5 5.3-4.9 5.5-5 10.2-4.5 5.3.7 6.6-.3 7-5.1 0-.4.4.3.9 1.6.5 1.2 2.1 2.7 3.5 3.2s2.5 1.6 2.5 2.4c0 1.7 2.2 2.7 3.9 1.7.6-.4 1.3-3.4 1.6-6.7.2-3.2 2.4-14.4 5-24.8l4.6-19-2-2c-1.1-1.1-2.3-1.7-2.6-1.4s-1.6 4.8-3 9.9c-2.5 10.1-3.2 9.6-1.4-.8.6-3.5.9-6.6.7-6.9-.3-.2-3.3 1.1-6.8 3.1-6.9 3.9-8.2 4.2-10 2s-6.3-1.9-7.8.5c-.7 1.1-1.9 2-2.6 2-1 0-2.1 2.9-3.5 9.2-1.1 5.1-2.7 12-3.6 15.3-1.6 6.7-1.6 7 1-14.5.8-6.3 1.5-11.8 1.5-12.1 0-.8-5.1-3.1-5.7-2.6-.2.3-1.4 6.1-2.5 13-2.3 13.1-4.2 16.3-3.1 5.2.4-4.4.2-6.9-.6-7.9s-1.1-4.1-.9-8.8c.3-6.7.1-7.3-1.8-7.6-1.8-.3-2.2.5-3.2 7.5m25.8 38.7c0 .8-.4 1.7-.9 2.1-1.2.7-2.4-1.2-1.6-2.5.9-1.5 2.5-1.2 2.5.4m103.2-34.6c-6 1.5-6.6 1.8-10.9 7.9-5.6 7.9-7.5 8.1-12.3 1.3-3.4-4.8-3.5-4.9-4.3-2.5-.7 1.9-.3 3.2 1.4 5.6 2 2.9 2.1 3.5 1 8.2-.7 2.9-2.9 13-5.1 22.5-2.1 9.6-4 17.6-4.3 17.8-1.3 1.3-1.1-10.2.2-12.5.8-1.5 1.4-4.7 1.4-7.3.1-2.9.6-4.9 1.4-5.2 1.6-.6 1.7-4.2.3-5.1-.8-.5-.7-1.2.2-2.2 1.1-1.3 2-11.8.9-10.8-.1.2-3.1 11.6-6.6 25.4l-6.3 25.1 3.4 2.5c1.9 1.5 3.4 3.5 3.4 4.6 0 1.2-2 5.8-4.5 10.3-2.5 4.6-4.5 8.6-4.5 8.9s1.6 1.1 3.5 1.7c3.1 1 3.8.9 6.6-1.1 1.7-1.2 5.5-5.9 8.4-10.3 5.7-8.8 10-12.6 13.9-12.6 3.4 0 4.6-2.5 7.2-15.5.2-1.1.6-3.4 1-5 1.1-5.5 3.1-7.5 7.4-7.5 4.8 0 4.8.3 2.1 12.2-1 4.6-2.1 9.8-2.5 11.7l-.6 3.4 3.2-2.5c2.5-1.9 3.6-3.9 4.9-8.9.9-3.5 2.4-8.4 3.3-10.9 1.8-4.7 13.6-45.1 13.6-46.3 0-.4-.7-.7-1.6-.7-.8 0-1.3.3-1.1.7.7 1.3-1.1 5.3-2.4 5.3-.7 0-.9-1-.7-2.5.8-3.9-2.7-3.3-4 .7l-1 3.3.1-3.4c.2-3.2-.1-3.5-3.3-4.2-1.8-.4-3.9-1.4-4.6-2.3-.6-.9-1.3-1.6-1.5-1.5-.2 0-3.2.8-6.7 1.7m-3.2 5.7c0 .3-1.1 2.2-2.4 4.3-2.5 3.9-4.8 6.2-10.5 10.1l-3.3 2.3.7-2.3c1-3.4 2.5-4.9 4.5-4.9 1.7 0 9-7.4 9-9.2 0-.4.5-.8 1-.8.6 0 1 .2 1 .5m5 6.5c0 1.1-.7 2-1.5 2-1.3 0-1.4-.4-.5-2 .6-1.1 1.3-2 1.5-2 .3 0 .5.9.5 2m10.9 11.5c-1.7 6.3-3.4 11.4-3.6 11.1-.6-.5 3.5-18.1 5.1-21.9 2.3-5.6 1.6-.5-1.5 10.8m-36 21.1c-2.2 9.8-4.5 20.7-5.2 24.1-1.1 6.1-1.9 7.4-3.2 5.3-.6-1 2.1-12.6 7-30.5 1.3-5 2.5-10.4 2.5-12.1 0-2.6 1.8-6 2.7-5.1.1.2-1.5 8.4-3.8 18.3m31.8-6.4c-.3.8-.6.5-.6-.6-.1-1.1.2-1.7.5-1.3.3.3.4 1.2.1 1.9m-27.5 33c-.7.7-1.2.8-1.2.2 0-1.4 1.2-2.6 1.9-1.9.2.3-.1 1.1-.7 1.7m-12.1 14.7c-3.5 4.4-7.1 7.7-7.1 6.5 0-.5 1.6-3.2 3.6-6.1 2.3-3.3 4.1-5 5-4.6 1.1.4.7 1.3-1.5 4.2"/>
        <path d="M63.9 420.7c-8.6 8.4-10.9 12.1-10.9 17.6 0 2.9 3.3 1.6 4.5-1.8 1-3 2.4-4.4 7.6-7.7l2.8-1.7-2.9 4.2c-4.6 6.8-6.5 11.6-5.3 12.8 1.4 1.4 4.7-1.3 8.3-6.8 2.5-3.9 2.7-4.7 1.8-9-1.1-6.2-.4-8.9 2.6-9.7 3.7-.9 5.5.2 5.8 3.9l.3 3.3 3.9-3.4 3.8-3.3-2.7-2.5c-1.6-1.5-3.6-2.6-4.6-2.6s-2.1-.5-2.4-1c-1.4-2.3-4.2-.6-12.6 7.7m44.5-4.1c-1.9 2.4-3.1 5.7-3.8 10.2l-1.1 6.7-8.3 6c-4.5 3.3-9.9 8.1-11.9 10.8-2.4 2.9-3.9 4.2-4.1 3.3-.7-3.4 4.8-10.2 17-20.9 2.8-2.5 3.4-3.4 1.8-2.6-5.1 2.4-12.2 8.3-16.6 13.7-3.7 4.6-4.5 6.1-4.2 9 .2 2.4 1.1 4.1 2.9 5.4 3.8 2.8 7.2 1.5 11.4-4.3 1.9-2.7 3.8-4.8 4.2-4.8 2.2.4 3.7-.6 9.5-5.6 3.5-3.1 8.4-6.8 11-8.2 4.9-2.7 5.9-4.7 4.7-9.3-2.1-7.9-3.4-11.6-4.4-12.2-2.4-1.7-5.5-.7-8.1 2.8m8.7 1.1c.6 1.6 1.3 4.4 1.6 6.4.5 3.3.2 3.8-3.2 5.9-2.9 1.8-3.9 2-4.5 1-.5-.7-1.7-1-2.9-.7-2 .5-2.1.2-1.5-3.1 1.4-7.7 4.2-12.2 7.6-12.2 1.1 0 2.3 1.1 2.9 2.7m-47.5 24.2c-4.7 4.7-6.7 7.4-6.3 8.5.8 1.9 3.2 2.1 4.7.3 6.6-7.9 10-12.7 10-14.1 0-2.7-1.3-1.9-8.4 5.3m89.7 4.2c-1.7.5-3.4 1.7-3.7 2.7-1.8 5.6-6.7 11.2-12.3 14.1-4.8 2.4-6.2 3.7-8 7.5-2.8 5.6-2.8 5.3-.3 6.6 1.7.9 2.2.5 3.9-2.7 2.3-4.6 5.6-7.7 7-6.8 1.7 1 1.3 2.5-1.4 5.7-4.6 5.4-2.6 4.7 2.9-1 5.1-5.4 5.5-6.1 6.5-13.2 1.3-7.9 2.1-9.2 6.1-8.8 2.3.3 2.5.7 2.2 4.3l-.3 4 2.6-2.5c4.5-4.2 5-5.9 2.4-8.6-2.4-2.6-2.8-2.7-7.6-1.3m42.9.6c-1.6 1.3-2.4 3.8-3.1 9.2-.9 6.6-1.4 7.8-4.7 11.2-2.1 2.2-4.7 4.2-5.8 4.5-5.7 1.8-20.6 14.6-20.6 17.6 0 1.7 1.7.6 3.3-2.1.9-1.6 6.9-6.4 13.2-10.6 6.4-4.3 12.5-9.1 13.6-10.7 1.4-1.9 2.4-5.4 2.9-10 .8-7.3 1.8-8.8 5.8-8.8 3.7 0 6 1.7 7.2 5.5.6 1.9 1.6 3.5 2.1 3.5 1.2 0 1.1-1-.2-4.8-2-5.7-9.4-8.1-13.7-4.5"/>
        <path d="M205.9 463.2c-3.1 1.6-8.2 5.1-11.3 7.6-3 2.6-9.1 7.6-13.5 11.2s-8 6.8-8 7.2c-.2 2.4 4.1-.4 17.3-11.2 8.1-6.6 16.7-13.2 19.2-14.6 7.8-4.6 4.7-4.8-3.7-.2m-22.7 4.1c-3.5 3.5-8.7 7.9-11.6 9.8-3.7 2.4-6 4.7-7.5 7.8-2.9 5.8-2.2 6.2 1.3.7 1.5-2.4 4.8-5.7 7.4-7.4 6.8-4.4 17.6-14.6 17.1-16-.2-.7-3.1 1.4-6.7 5.1m-27.2 4.2c-2.4 1.8-4.1 2.3-5.9 1.8-2.1-.4-2.4-.3-1.4.7.8.9 1 3.2.6 7.2-.5 5-.4 5.8 1.1 5.8 2.8 0 5.6-1.9 5.6-4 0-1 1.4-3.1 3.1-4.7 1.6-1.5 3.5-3.6 4-4.6.9-1.6.8-1.7-.8-.8-3.3 1.8-7.3 6.1-7.9 8.6-.5 2.2-3.1 4.1-4.1 3.1-1.2-1.1 2.1-7.8 5.1-10.4 3.1-2.7 5.2-5.2 4.4-5.2-.2 0-1.9 1.1-3.8 2.5"/>
    </g>
</svg>
