<svg xmlns="http://www.w3.org/2000/svg" width="341.333" height="341.333" version="1.0" viewBox="0 0 256 256">
    <g fill="#e5e5e5">
        <path d="M178.5 26.2c-.2.7-.9 3-1.5 5-2.4 7.9-13.7 18.8-19.5 18.8-3.1 0-6.7-1.8-11.9-5.9-5.5-4.4-12.6-4.2-12.6.4 0 1.9 2.1 3.5 11.2 8.9 14.7 8.6 19.1 8.8 29.4.9C177.2 51.6 191 34 191 32.2c0-2.3-1.6-1-6.5 5.3-2.7 3.6-5.3 6.5-5.7 6.5s1.1-3.9 3.2-8.6c2.2-4.7 4-9 4-9.5 0-1.4-7-1.1-7.5.3m17.4 8.1c-2.8 2.3-14.9 19.9-14.9 21.6 0 .5 1.2 1.2 2.7 1.6 1.5.3 4 1.6 5.6 2.7l2.9 2.1 5-2.4c2.7-1.3 6.2-3.7 7.7-5.4 2.5-2.9 7.9-14.2 7-14.8-7.6-5-12-7.7-12.6-7.7-.5 0-2 1-3.4 2.3m22.1 8.2c-1.8 2.2-.8 2.7 3.1 1.4 5.1-1.7 5.8-2.9 1.7-2.9-2 0-4.1.7-4.8 1.5m1.9 5.3c-11.1 4.5-13.3 7.6-4.1 5.8 4.3-.8 7-2.1 10.3-4.8 5.4-4.6 3.5-4.9-6.2-1m-92.1 4.9c-1 1.1-1.8 4.6-2.1 8.8-1.2 14.4-1.5 15-14.6 32.9-6.7 9.2-12.4 17.3-12.7 18.1-.8 1.9 5.5 2.1 7.8.2 6-4.8 12.9-15.6 22.1-34.7l9.9-20.5-3.8-3.2c-4.3-3.8-4.6-3.9-6.6-1.6m82.2 5.4c-3 .6-5.6 2-7.9 4.4-3.3 3.3-3.4 3.6-1.9 5.2 1.6 1.5 2.2 1.5 8.8-1.1 5.3-2.1 7.4-3.5 8.5-5.6.8-1.6 1.5-3.1 1.5-3.5 0-.7-3.5-.5-9 .6"/>
        <path d="M171.1 63c-4.7 2.2-7.9 3-12 3h-5.7l-4.2 7.7c-5.8 10.9-6.1 11.3-12.8 13.1l-6.1 1.7-10.7 14.2c-5.9 7.8-11.6 14.5-12.8 14.9-1.1.3-8 .9-15.4 1.3-10.9.6-13.6 1-15.3 2.5-2.7 2.5-2.7 3.2.9 7.3 1.6 1.8 3 4.4 3 5.6s-2 4.8-4.6 8c-3.5 4.5-6 6.5-11.2 9l-6.6 3.2-3.7 13c-5.9 21.2-6.8 22.3-23.2 27.8-8.2 2.7-9.9 3.7-12 6.8-4.2 6.1-4.2 9.3-.1 16 1.9 3.2 3.9 6.1 4.4 6.4 1.2.7 8.5-1.7 14.8-4.9 7.2-3.6 19.5-14.1 23.6-20.1 2.5-3.5 5.1-9.7 7.9-18.7 2.3-7.4 5-14.6 5.9-15.9 1.7-2.4 1.8-2.4 3.3-.5 1 1.3 1.5 4.1 1.5 8.1 0 6.5 1.6 10 4 9 .8-.4 9.1-9.4 18.4-20.1 10.4-12 18.1-20 20-20.8l3.1-1.4-3-1.2c-2.7-1.1-3.6-.9-9.1 2.1-5.5 2.9-6.7 4.2-12.2 12.9-5.5 8.5-13.2 17.7-13.2 15.7 0-1.5 4.4-9.3 10.6-18.9 6.2-9.5 6.6-9.9 14.2-13.7l7.8-3.9 8.8 2.4c4.8 1.2 9.3 2.9 10 3.7.6.8 4.3 3.3 8.3 5.6 3.9 2.3 9.5 6.5 12.5 9.3 4.8 4.6 6.5 5.6 17.1 9 12.3 4 14.9 4.1 16.8.6 1.8-3.3-1.4-8.8-9.4-15.9-13.4-12.1-33.2-27.6-36.2-28.4l-3-.9 2.8-.4c1.5-.2 4.2.4 6 1.3 1.7.9 7.5 2.5 12.7 3.7 5.2 1.1 12.4 3.4 16 5 6.1 2.8 7.5 3.1 21.8 3.6 13.7.4 15.4.3 17.2-1.3 1.1-1 2-2.3 2-3 0-2.2-5.5-6.3-12-9-12.1-5-43.5-15.8-47.4-16.4-12.6-1.9 4.3-4.3 31.9-4.6 10-.1 12.2-.4 24.2-4.3 13.1-4.2 15.3-5.6 15.3-9.6 0-.9-1.7-2.3-3.7-3.2-3.1-1.4-8.5-1.7-30.7-2-14.8-.2-27.1-.5-27.3-.8-.5-.4 8.8-4.1 13.2-5.2 1.4-.3 2.7-.9 2.9-1.3.5-.8-10.7-10.1-12-10.1-.5.1-3.8 1.4-7.3 3"/>
        <path d="M139.6 63.5c-1.5 2.3-7.6 18.4-7.6 20 0 1 7.2-.4 8.7-1.7.6-.5 3-4.5 5.2-8.9L150 65l-3.3-2c-4.2-2.6-5.1-2.5-7.1.5M57.5 141c-5.4 5.4-9.6 10.2-9.3 10.5s4.1-.8 8.4-2.5c6-2.3 8.8-4.1 11.6-7.3 2.1-2.3 3.8-4.9 3.8-5.8 0-1.4-2.9-4.9-4.1-4.9-.2 0-4.9 4.5-10.4 10m84.1 12.8c-.5.8-1 15.1-.7 19.6.2 2.9 1.2 1.3 4.2-6.6l2.8-7.2-2-3.3c-2.1-3.3-3.3-4-4.3-2.5m-10 5.4c-1.6 5.6-2.4 24.8-1.2 28.5.8 2.5 7.2 7.7 8.5 6.8 1.5-.9 3.2-10.4 2.2-12.3-1.6-3.1-5.1-19.2-5.1-23.8 0-6.4-2.5-5.9-4.4.8m-85.7-3.5c-5.4.4-5.9.6-9.9 5.4-3.2 3.8-4.1 5.6-3.7 7.6.3 1.6-.9 5.5-3.5 11-2.1 4.7-3.8 8.8-3.6 9.2.5 1.2 13.3-1.3 16.1-3.2 3.2-2.1 4.9-5.8 8.8-19.6 3.3-11.8 3.2-11.2 2.2-10.9-.5.1-3.3.3-6.4.5m71.7 4.3c-3.4 2.1-5 4.9-6.1 10-.4 1.9-3.4 6.9-6.6 11l-5.8 7.6 1.4 4.9c.8 2.6 1.5 8.1 1.5 12.2 0 12.4 5.2 19.3 13.9 18.5 3.6-.4 4.1-.7 4.1-2.8 0-1.3-1.2-3.8-2.7-5.5-1.6-1.7-3-3.9-3.3-5s-.2-8.5.1-16.5l.6-14.5 3.5-3.7c2.8-2.9 3.7-5 4.6-10.1 1.5-8.7.5-9.9-5.2-6.1"/>
        <path d="M119.7 186.4c-2.2 5-2.1 6.6.2 6.6 2.7 0 3-.8 2.2-6l-.7-4.5zm-2.9 16.2c-.3 6.8.4 10.4 2.1 10.4.5 0 1.3-2.1 1.6-4.8.3-2.6.8-6.4 1.1-8.5.5-3.4.4-3.7-1.9-3.7-2.4 0-2.5.3-2.9 6.6"/>
    </g>
</svg>
