<?xml version="1.0" standalone="no"?>
<!DOCTYPE svg PUBLIC "-//W3C//DTD SVG 20010904//EN"
 "http://www.w3.org/TR/2001/REC-SVG-20010904/DTD/svg10.dtd">
<svg version="1.0" xmlns="http://www.w3.org/2000/svg"
 width="256.000000pt" height="256.000000pt" viewBox="0 0 256.000000 256.000000"
 preserveAspectRatio="xMidYMid meet">
<metadata>
Created by potrace 1.16, written by Peter Selinger 2001-2019
</metadata>
<g transform="translate(0.000000,256.000000) scale(0.100000,-0.100000)"
fill="#f2f2f2" stroke="none">
<path d="M1785 2298 c-2 -7 -9 -30 -15 -50 -24 -79 -137 -188 -195 -188 -31 0
-67 18 -119 59 -55 44 -126 42 -126 -4 0 -19 21 -35 112 -89 147 -86 191 -88
294 -9 36 27 174 203 174 221 0 23 -16 10 -65 -53 -27 -36 -53 -65 -57 -65 -4
0 11 39 32 86 22 47 40 90 40 95 0 14 -70 11 -75 -3z"/>
<path d="M1959 2217 c-28 -23 -149 -199 -149 -216 0 -5 12 -12 27 -16 15 -3
40 -16 56 -27 l29 -21 50 24 c27 13 62 37 77 54 25 29 79 142 70 148 -76 50
-120 77 -126 77 -5 0 -20 -10 -34 -23z"/>
<path d="M2180 2135 c-18 -22 -8 -27 31 -14 51 17 58 29 17 29 -20 0 -41 -7
-48 -15z"/>
<path d="M2199 2082 c-111 -45 -133 -76 -41 -58 43 8 70 21 103 48 54 46 35
49 -62 10z"/>
<path d="M1278 2033 c-10 -11 -18 -46 -21 -88 -12 -144 -15 -150 -146 -329
-67 -92 -124 -173 -127 -181 -8 -19 55 -21 78 -2 60 48 129 156 221 347 l99
205 -38 32 c-43 38 -46 39 -66 16z"/>
<path d="M2100 1979 c-30 -6 -56 -20 -79 -44 -33 -33 -34 -36 -19 -52 16 -15
22 -15 88 11 53 21 74 35 85 56 8 16 15 31 15 35 0 7 -35 5 -90 -6z"/>
<path d="M1711 1930 c-47 -22 -79 -30 -120 -30 l-57 0 -42 -77 c-58 -109 -61
-113 -128 -131 l-61 -17 -107 -142 c-59 -78 -116 -145 -128 -149 -11 -3 -80
-9 -154 -13 -109 -6 -136 -10 -153 -25 -27 -25 -27 -32 9 -73 16 -18 30 -44
30 -56 0 -12 -20 -48 -46 -80 -35 -45 -60 -65 -112 -90 l-66 -32 -37 -130
c-59 -212 -68 -223 -232 -278 -82 -27 -99 -37 -120 -68 -42 -61 -42 -93 -1
-160 19 -32 39 -61 44 -64 12 -7 85 17 148 49 72 36 195 141 236 201 25 35 51
97 79 187 23 74 50 146 59 159 17 24 18 24 33 5 10 -13 15 -41 15 -81 0 -65
16 -100 40 -90 8 4 91 94 184 201 104 120 181 200 200 208 l31 14 -30 12 c-27
11 -36 9 -91 -21 -55 -29 -67 -42 -122 -129 -55 -85 -132 -177 -132 -157 0 15
44 93 106 189 62 95 66 99 142 137 l78 39 88 -24 c48 -12 93 -29 100 -37 6 -8
43 -33 83 -56 39 -23 95 -65 125 -93 48 -46 65 -56 171 -90 123 -40 149 -41
168 -6 18 33 -14 88 -94 159 -134 121 -332 276 -362 284 l-30 9 28 4 c15 2 42
-4 60 -13 17 -9 75 -25 127 -37 52 -11 124 -34 160 -50 61 -28 75 -31 218 -36
137 -4 154 -3 172 13 11 10 20 23 20 30 0 22 -55 63 -120 90 -121 50 -435 158
-474 164 -126 19 43 43 319 46 100 1 122 4 242 43 131 42 153 56 153 96 0 9
-17 23 -37 32 -31 14 -85 17 -307 20 -148 2 -271 5 -273 8 -5 4 88 41 132 52
14 3 27 9 29 13 5 8 -107 101 -120 101 -5 -1 -38 -14 -73 -30z"/>
<path d="M1396 1925 c-15 -23 -76 -184 -76 -200 0 -10 72 4 87 17 6 5 30 45
52 89 l41 79 -33 20 c-42 26 -51 25 -71 -5z"/>
<path d="M575 1150 c-54 -54 -96 -102 -93 -105 3 -3 41 8 84 25 60 23 88 41
116 73 21 23 38 49 38 58 0 14 -29 49 -41 49 -2 0 -49 -45 -104 -100z"/>
<path d="M1416 1022 c-5 -8 -10 -151 -7 -196 2 -29 12 -13 42 66 l28 72 -20
33 c-21 33 -33 40 -43 25z"/>
<path d="M1316 968 c-16 -56 -24 -248 -12 -285 8 -25 72 -77 85 -68 15 9 32
104 22 123 -16 31 -51 192 -51 238 0 64 -25 59 -44 -8z"/>
<path d="M459 1003 c-54 -4 -59 -6 -99 -54 -32 -38 -41 -56 -37 -76 3 -16 -9
-55 -35 -110 -21 -47 -38 -88 -36 -92 5 -12 133 13 161 32 32 21 49 58 88 196
33 118 32 112 22 109 -5 -1 -33 -3 -64 -5z"/>
<path d="M1176 960 c-34 -21 -50 -49 -61 -100 -4 -19 -34 -69 -66 -110 l-58
-76 14 -49 c8 -26 15 -81 15 -122 0 -124 52 -193 139 -185 36 4 41 7 41 28 0
13 -12 38 -27 55 -16 17 -30 39 -33 50 -3 11 -2 85 1 165 l6 145 35 37 c28 29
37 50 46 101 15 87 5 99 -52 61z"/>
<path d="M1197 696 c-22 -50 -21 -66 2 -66 27 0 30 8 22 60 l-7 45 -17 -39z"/>
<path d="M1168 534 c-3 -68 4 -104 21 -104 5 0 13 21 16 48 3 26 8 64 11 85 5
34 4 37 -19 37 -24 0 -25 -3 -29 -66z"/>
</g>
</svg>
