<svg xmlns="http://www.w3.org/2000/svg" width="682.667" height="682.667" version="1.0" viewBox="0 0 512 512">
    <g fill="#e5e5e5">
        <path d="M108.6 3.9c-1.6 1.8-1.8 3-1.2 9.2l.7 7.1-4.8-.2c-2.6-.1-5.4-.1-6-.1-3.3.2-8.9 17.5-9.8 30-1 15.6 5.7 48.1 15.2 73.1 4.3 11.3 9.5 20.9 23.1 42.4l2.5 4 2.4-2.8c3-3.5 2.5-6.7-1.7-11.1-1.5-1.7-4-5-5.5-7.5-2.9-4.6-10.6-21.2-10.1-21.7.2-.2 1.9.4 3.9 1.2 4.8 2 13.5 2 15.7 0 1.6-1.5 1.6-2-1-8.3-5.4-13.3-13.9-40.8-14.9-48.5-.6-4.3-1.1-14.3-1.1-22.3 0-11.6.3-14.4 1.4-14.4 2.7 0 3.4 2.8 3.9 17.5.7 18.1 4.4 33.9 10.8 46.7 7.5 14.8 12.5 19.8 21.6 21.2 3.5.5 5.5 0 12.6-3.3 9.2-4.2 18.5-6.6 22.2-5.7 4.1 1 9.3 8 11.6 15.7 1.8 5.9 2.1 8.8 1.7 17.5-.4 9.7-.3 10.6 1.5 11.6 1.5.8 3.5.6 7.8-.7 8.5-2.6 11.7-1.6 19.2 5.8 3.5 3.4 9.2 10.5 12.7 15.7 14.7 21.7 20.5 28.7 26 31.5 8.7 4.4 22.4 2.6 26.2-3.4 1.1-1.7 1.3-1.7 3.6 1.1 1.4 1.7 2.1 3.3 1.6 3.8-1.1.9-9 4.1-15.4 6.1-6 1.9-6.4 4.8-1.7 12.1 1.9 2.9 4.6 7.3 6 9.8 3.8 6.8 19.1 22.5 27.8 28.6 7.8 5.5 15.4 13.9 22.3 24.7 3.3 5.1 3.9 5.6 5.7 4.7 1.4-.8 1.8-1.7 1.4-3.3-2.5-8.4-5.6-14.7-12.4-24.7-8-11.9-20.4-34.4-24.1-44-2.5-6.3-2-6 4.2 3 2.4 3.6 9.2 13.2 15 21.5 13.5 19.2 32 50.4 36.8 62.2 3.2 7.7 3.7 9.8 3 12.9-.5 2-1.2 4-1.7 4.4-.4.4-5 1.8-10.1 3-7.4 1.8-11.1 2.2-17.5 1.7-10-.7-26.9-5.7-42.7-12.6-6.2-2.8-13.8-5.8-16.8-6.6-7.3-2.2-22.9-10.1-33.7-17.1-4.7-3.1-8.8-5.4-9.1-5.2-.5.6 19.6 14.1 28.1 19 7.5 4.2 23.6 11.3 38 16.6 16.8 6.3 29.6 9.3 41 9.8 9.3.4 10.6.2 18.9-2.8l9-3.3 1.9-5.9 1.9-5.8-8.8-17.2c-18.7-36.5-26.9-49-62-95.2-33.4-44-41.1-53.2-62.3-74.9-9.7-9.9-19.9-20.6-22.5-23.8-2.7-3.2-9-9-14-13-5-3.9-17.2-14.1-27.1-22.6-20-17.2-34.2-28-51.8-39.6-6.4-4.2-12.2-8.5-12.7-9.5-.7-1.3-.6-2.7.2-4.4 1.6-3.7 2.8-3.2 2.9 1.1v3.8l1.6-3.3c2.2-4.3 3.3-4 3.3.8 0 4.4 1.3 5.2 3.1 1.7 1.2-2.1 1.3-2.1 2.2 1.3.8 3.3.9 3.4 2.3 1.5 1.5-2 1.5-2 3.3.4 1 1.3 2.3 2.1 2.9 1.7.6-.3 2 .7 3.2 2.4 1.5 2.1 2.8 2.9 3.9 2.5 1.2-.3 3.3.8 6.2 3.3 2.4 2.1 14.3 11.4 26.4 20.7 29.8 22.9 59.2 48.5 75.7 65.9 7.6 7.9 21.5 24.2 30.9 36.3 9.4 12 18.8 23.6 20.8 25.8 9.8 10.5 28.3 36.5 43.7 61.5 12.5 20.2 32.9 58.4 31.9 59.9-.3.5.6 3.7 1.9 7.2 2.1 5.6 2.7 6.4 5.2 6.7 2.4.2 3.2-.3 4.8-3.2 2-3.8 1.9-11.4-.5-35.6-2-20.2-8.4-43.9-18.1-67-7.3-17.5-33-66.1-42.2-79.8-8.2-12.4-27-33.9-34.6-39.6-1.4-1.1-5.6-4.9-9.5-8.6-11.1-10.5-22.2-18.6-48.5-35.5-41.4-26.6-68.4-38.4-101-44.1-22.4-3.9-26.1-4.1-28.4-1.5M179.4 47c9.1 5.5 39.1 26.4 45.1 31.4 11 9.1 39.3 36.3 54.3 52.2 32.7 34.7 56.6 65.7 73.4 95.5 14.1 24.7 28.5 56.2 32.4 70.4 1.6 5.8 1.2 6.9-.7 2.3-2.2-5.3-15.8-29.9-27.6-49.8-26.7-45.1-56.1-85.8-79.6-110-56.9-58.7-65.3-66.4-96-89.1-9.3-6.9-9.3-6.9-8.4-6.9.4 0 3.6 1.8 7.1 4m68.7 12.7c7 4.7 9.2 7.8 6.8 9.4-2.2 1.4-3 1.1-10.4-3.6-7.5-4.8-9.9-8-7.4-9.6 2.5-1.5 4-1 11 3.8m21.1 19.9c2.7 2 5.5 4.9 6.3 6.4 1.3 2.5 1.3 2.8-.9 3.8-1.9.8-3.2.6-6.2-1-9.7-5.1-14.4-10.9-10.9-13.5 2.2-1.5 5.3-.4 11.7 4.3m27.5 20.7c6.9 6.6 7.5 8.5 3.5 10.6-1.6.8-2.7.4-6.2-2.6-5.6-4.8-10.5-12.4-8.7-13.5 2.6-1.7 4.9-.6 11.4 5.5m14.8 15.9c1.4 1.2 3.3 3.3 4.2 4.7 1.4 2.2 1 2.1-2.7-1-4-3.3-6-5.9-4.6-5.9.3 0 1.7 1 3.1 2.2m-12.1 1.2c3.1 1.3 10.6 9.7 10.6 11.8 0 .5.7 1.6 1.5 2.4 3.4 3.4.5 7.6-3.6 5.3-2.3-1.2-13.9-16.6-13.9-18.4 0-1.1.9-2.5 1.7-2.5.2 0 1.9.6 3.7 1.4m24.8 14.3c2.9 3.5 7.8 12.4 7.8 14.3 0 4.3-5.2 3-8.6-2.3-2.4-3.8-4.7-11.4-3.9-12.7.9-1.5 3-1.2 4.7.7m15.8 33c4 4.5 9 14.8 9 18.4s-2.2 5.4-4.7 3.9c-2.4-1.6-8.1-10.2-8.9-13.7-.4-1.5-1.6-4.5-2.7-6.6-1.7-3.3-1.8-4-.6-4.8 2.6-1.6 4.7-.9 7.9 2.8m21.4 32.5c4.2 6.8 6.9 11.9 6.3 12.4-.5.5-10.3-13.5-11.3-16-1.4-3.6 1.9-1.2 5 3.6"/>
        <path d="M172.2 119.9c-4.8 1.8-16.3 10.5-22.9 17.3-2.8 2.8-5.4 7.2-7.7 12.8-3.5 8.3-3.5 8.4-.8 5.1 5.9-7.5 14.7-16.2 19.4-19.2 6.7-4.3 11.4-3.7 17.2 2 4 4 4.1 4.3 4.1 11.1 0 3.9.3 7 .7 7 1.4 0 4-6.3 4.2-10.4.2-2.9-.6-5.8-2.6-9.8-1.5-3.2-2.8-6-2.8-6.3s1.2-.5 2.6-.5c2.4 0 2.5-.2 1.3-1.7s-1.2-1.6.3-1c3 1.1.1-4.6-3.3-6.6-3.6-2-4.1-2-9.7.2"/>
        <path d="M163.4 139.8c-4.1 2.2-49.9 47-60.6 59.3C95.2 207.8 78 231 78 232.5c0 .8 8.7 11.2 14.6 17.5 2.4 2.5 7.8 9 12.1 14.6 4.3 5.5 10.7 13.6 14.3 17.9 3.6 4.4 10.1 12.2 14.5 17.5 4.4 5.4 10.9 13.4 14.4 17.9 6.4 8.2 7.7 9 12.3 7.2 2.9-1.1 43.2-29.3 47.1-32.9 1.5-1.4 2.7-3.1 2.7-3.8s1.2-2.6 2.6-4.3c3.3-4 26-22.2 34.4-27.6 6.3-4.1 17.9-15 16.9-15.9-.6-.6-22.3 12.3-33.8 20.1-5.1 3.5-9.5 6.3-9.7 6.1s7-5.9 15.9-12.5c15.8-11.9 21.5-16.8 20.6-17.8-.5-.5-14.7 8.1-17.7 10.8-1 .8-6.2 4.3-11.7 7.7-5.5 3.5-12.1 8-14.6 10.2-2.6 2.1-5.5 3.8-6.5 3.8-4.2 0-32-21.2-30.7-23.4.4-.6 2.5-3.7 4.7-6.8q6.6-9.6 6.6 0c0 3.4 0 3.5 2 1.7 1.4-1.3 2-3.1 2-5.9 0-3.7-.7-4.9-8.1-12.9-4.4-4.8-8.4-8.7-8.9-8.7s-4.3 2.7-8.5 6.1c-4.2 3.3-7.8 5.9-7.9 5.7-.2-.2-4.4-6.5-9.5-14-10.2-15.5-11.1-18.6-6.5-22.9 6.1-5.6 21.6-25.2 23.8-30.1 1.3-2.9 3.7-7 5.4-9.1 1.9-2.4 2.8-4.4 2.5-5.7-.8-2.9-2.5-2.5-6.4 1.6-5.3 5.6-36.8 34.4-37.6 34.4-.4 0 7.9-8.7 18.5-19.4 10.6-10.6 19.2-19.8 19.2-20.5 0-1.4.2-1.4-3.6.7"/>
        <path d="M149.3 190.1c-1.4 1.4-.8 3.1 3.5 9.7 1.9 2.9 4.8 6 6.5 6.8l3 1.6-.7-2.6c-1.1-4.4-8.9-16.6-10.6-16.6-.3 0-1.1.5-1.7 1.1m-73.3 34c-6.5 7-10.4 12.1-10.5 13.9-.2 1.9-6.8 10.8-9.2 12.3-2.1 1.3-1.6 2.8 2.7 7.8 2.2 2.6 4 5.1 4 5.6 0 .4 3.4 4.2 7.6 8.3 13.3 13.1 29.8 32.2 37.9 43.5 8.8 12.5 17.7 23.7 18.2 23.1 1-1-11.2-23.1-15.4-27.8-5.9-6.6-26.3-32.3-28.9-36.3l-1.9-3 3 2.5c3.3 2.7 19.9 19.8 22.1 22.7.7 1 1.4 1.4 1.4 1 0-1.6-23.3-35.7-30-43.8-8.8-10.5-10.3-13.2-8.4-15 2.5-2.4 11.6-17 11.1-17.6-.3-.3-2 1-3.7 2.8m175.9 2.6c-1.9 1.6-5.1 4.1-7.1 5.6-2.1 1.6-3.8 3.5-3.8 4.4s-.8 2.5-1.7 3.6c-1.9 2.1 2.7-.5 12.1-7 5.6-3.9 6.7-4 11.1-1.3 7.4 4.6 8.7 11.5 3.7 20.2-3.7 6.5-4 7.8-1.1 5.2 4.2-3.7 6.9-9.2 6.9-13.8 0-3.1.5-4.6 1.6-5 1.9-.7 1.7-.8 3.3 2.2 1.5 2.8 3.1 2 3.1-1.7 0-3.2-4.7-10.2-8.5-12.7-1.5-1-5.4-1.9-9.4-2.2-6.3-.4-7-.3-10.2 2.5m-30.1 76.4-5.7 4.2 1.9 2.6c1 1.4 8.3 10.1 16.2 19.3 14.6 17.1 15.4 18.3 31.5 48.3 7 13 12.1 21.1 7.5 12-1.1-2.2-7-14.8-13.2-28-10.5-22.4-11.8-24.6-19.4-33.5-11.4-13.2-16-19-15.2-19 1.4 0 12.3 7.9 18.3 13.3 3.3 3 9.2 7.9 13 10.9 9.3 7.4 12.3 11.5 24.3 31.8 5.6 9.6 13 21.4 16.3 26.3 5.1 7.3 6.5 8.7 8.2 8.2 6.1-2 6.4-1.9 8.1 2 1.1 2.7 1.2 4.1.5 4.8-.6.6-1.1 2-1.1 3.2 0 3.4-17.9 14.7-46.6 29.4-3.9 2-8.8 5-11 6.7-5.3 4.2-6 4.5-7.8 3.8-2.1-.8-2-2.8.7-9.1 1.7-4 4.3-7 12-13.8l9.7-8.7V413c0-3-1-6.8-2.6-10.4-5.7-12.4-21.5-39.9-28.1-48.7-7.2-9.6-30.9-37.1-32.5-37.8-1-.3-8 4.3-9.8 6.5-1.5 1.8-.1 4.4 6.9 12.4 5.7 6.5 15.6 18.7 30.6 37.8 6.7 8.5 8.9 12.3 14 24.5 3.4 7.9 7.2 16 8.4 18 2.5 4.1 2.3 5.1-2.2 7.3-6.4 3.3-9.3 7.6-15 22-4.6 11.7-5.3 14.2-4.5 16.6 1.3 3.5 5.4 5.8 8.8 4.8 5.9-1.7 22-10.4 28.4-15.2 9-6.9 7.1-5.7 22.6-13.9 17.6-9.4 19-10.5 22.9-18.4 1.8-3.6 3.4-6.5 3.6-6.3.1.2.5 2.9.9 6 .5 5.1.4 5.7-1.5 6.3s-1.9.8-.5 2.4c.9 1 1.6 2.4 1.6 3.2s3.3 3.4 7.3 5.9c12.5 7.7 19.6 13 23.1 17.3 5 6.1 18.1 26.2 21.9 33.4 1.7 3.5 3.7 6.5 4.3 6.7 4.2 1.6 24.8 3.7 30.9 3.2 3.9-.4 10.6-1 15-1.4 5.7-.5 10.1-1.7 15.2-4 11.3-5.1 12.3-4 2.4 2.8-5 3.3-7.3 4.1-15.4 5.4-9.6 1.6-20.1 4.9-21.2 6.7-.4.5.7 1.2 2.4 1.5 1.7.4 3.1 1.1 3.1 1.6 0 .6.9.7 2.3.3 1.2-.4 8.5-1.1 16.2-1.5 12.5-.7 15.1-1.2 24-4.4 8.4-3.1 10.9-3.6 15.7-3.2 5.5.5 5.8.4 7.9-2.5 2.1-3 2.1-3.1.3-7-3.7-8.2-11.5-12.4-29.7-15.9-9.4-1.7-23.8-2.8-22.6-1.6.2.2 4.4.7 9.4 1.1 7.8.6 25 4.9 28.8 7.2 3.4 2 8.7 6.8 8.7 7.8 0 1.7-4.2 3.2-12.5 4.6-3.8.6-9.2 2-11.9 3.1-2.7 1-5.1 1.6-5.4 1.3s1.5-2.5 4.1-4.9c2.6-2.3 4.7-4.9 4.7-5.8 0-.8-1.5-2.1-3.2-3-3-1.4-3.7-1.4-7.6.3-4.4 1.9-4.4 1.9-7.4-.2-2.8-2.1-3.8-2.2-14.8-1.6-13.6.8-11.6 2-22.5-13.1-4.1-5.7-13.6-16.8-21.2-24.7-12.1-12.6-15.8-15.8-31-26.2-14.9-10.3-17.1-12.1-16.6-14 .5-2.4-1.3-8.9-2.8-9.9-.6-.3-1.6-.1-2.3.5-1 .8-2.2 0-5.2-3.7-4.6-5.4-21.4-28.8-21.4-29.6 0-.3 2.7-.6 6-.6 5 0 28.6-4.3 29.7-5.4.5-.5-29.8-14.3-35.6-16.1-3.1-1-6.7-1.5-8.7-1.2-4.4.7-4.3.2.2-2.1 3.6-1.9 3.8-1.9 10.8.3 3.9 1.2 9.1 3.2 11.5 4.5 2.5 1.2 13 5.1 23.4 8.6 25.9 8.8 26 8.9 45.5 34.9 15.6 20.9 33.4 42.1 37.7 44.9 3.8 2.5 29.8 32.7 30 34.8.1 2.1 9.5 9.9 9.5 8 0-2.2-8.3-15.1-13.6-21.2-3.1-3.6-14-15.1-24.2-25.5-14.6-15.1-20-21.4-26-30.5-4.1-6.3-8.2-13-9-14.8-1.6-3.2-1.5-3.4 1-5.5 2.1-1.8 2.5-2.8 2.1-5.4-.5-2.9-1.2-3.4-8.7-6.4-4.4-1.8-14.8-6-23.1-9.4-8.2-3.4-20.3-8.2-26.9-10.5-6.5-2.4-17.9-7.4-25.3-11.1-13.2-6.8-13.4-6.8-15.3-4.9-1.1 1.1-2.2 3.1-2.6 4.5-1.2 4.7-4.6 3.2-12.6-5.5-7.7-8.5-16.8-15.2-16.8-12.4 0 .8 2.3 4.8 5 8.9 2.8 4.1 5 7.7 5 8 0 2.5-6.8-3-20.5-16.6l-16-15.9zm159.2 68c0 1.4-3.3 2-4.2.7-1.7-2.7-1-3.8 1.7-2.6 1.4.6 2.5 1.5 2.5 1.9m-38.3-58.6c-2.8 2.5-6.7 5.5-8.5 6.7-4.7 3-2.8 4.1 7.1 4.2 9.4.1 11.7-1 11.7-5.4 0-3.8-1.9-8.7-3.6-9.4-.8-.3-3.6 1.4-6.7 3.9M171 325.6c-7.9 5.4-12.5 7.8-15.4 8.2-3.3.4-7.8 2.5-12.5 5.9-.3.2.1.9.7 1.5 2.2 2.2 11.1-1 21.7-7.8 9.3-5.9 18.5-13.7 17.4-14.9-.3-.2-5.6 3-11.9 7.1"/>
        <path d="M325 361.1c-7.2 1.6-7.4 1.7-6 3.4 1.9 2.2 1.1 2.4-4.8 1.4-2.9-.6-7.2-.9-9.5-.7l-4.2.3 8.5 4.4c13.7 7.1 22.2 13.3 27.9 20.5 2.8 3.6 5.4 6.6 5.6 6.6.3 0-.2-1.6-1-3.6s-1.5-3.9-1.5-4.3c.1-1.4 4.2 4.7 6.1 9 3 6.7 22.2 22.9 35 29.4 8.5 4.4 11 6.4 26.4 21.5 9.4 9.2 17.9 17 19 17.3 10 2.7 15.6 3.9 16.1 3.4 1.3-1.3-1.9-4.6-7.9-8.3-4.9-3-12.8-10.8-34.1-33.4-24.3-25.7-29-31.3-37.1-43.5-9.4-14.3-12.2-17.5-18.6-21.3-4.3-2.6-13.4-3.5-19.9-2.1m28.4 61.3c10.8 8 20.5 14.8 21.6 15.1 1.1.4 2 1.5 2 2.5 0 1.2 1.2 2.3 3.5 3.1 1.9.7 3.5 1.8 3.5 2.5 0 .6 1.1 1.5 2.5 1.8 1.4.4 2.5 1.1 2.5 1.6 0 .6.7 1 1.5 1 .9 0 1.8.7 2.1 1.5.4.9 1.9 1.5 4.1 1.5 1.9 0 3.2.4 2.8.9-.3.5.5 1.1 1.7 1.3 1.6.2 2.2.9 2 2-.2 1 .2 1.8.8 1.8.5 0 1 .5 1 1.1 0 1.6 3.1 3.8 5.4 3.9 1.4 0 1.7.5 1.2 2.5-.6 2.3-.3 2.5 2.4 2.5 2 0 2.9.4 2.4 1.1-.8 1.3 1.3 2.9 3.9 2.9 1.3 0 0-2.1-4.7-7.8-16.8-20.2-40.2-38.6-63.6-50.2-7.8-3.8-15.1-7-16.2-7-1.2 0 6 5.9 17.6 14.4"/>
    </g>
</svg>
