<?xml version="1.0" standalone="no"?>
<!DOCTYPE svg PUBLIC "-//W3C//DTD SVG 20010904//EN"
 "http://www.w3.org/TR/2001/REC-SVG-20010904/DTD/svg10.dtd">
<svg version="1.0" xmlns="http://www.w3.org/2000/svg"
 width="512.000000pt" height="512.000000pt" viewBox="0 0 512.000000 512.000000"
 preserveAspectRatio="xMidYMid meet">
<metadata>
Created by potrace 1.16, written by Peter Selinger 2001-2019
</metadata>
<g transform="translate(0.000000,512.000000) scale(0.100000,-0.100000)"
fill="#f2f2f2" stroke="none">
<path d="M1853 5040 c-67 -16 -127 -55 -149 -98 l-21 -41 1 -1480 c0 -815 -1
-1481 -4 -1481 -3 -1 -16 -10 -30 -21 -22 -19 -23 -22 -7 -30 12 -7 15 -17 11
-35 -7 -29 -4 -29 46 -5 l39 19 -21 -29 c-12 -16 -25 -29 -28 -29 -3 0 -14 -6
-24 -13 -16 -12 -17 -16 -5 -38 8 -13 14 -25 15 -27 1 -1 22 6 48 17 52 23 62
15 16 -12 -16 -10 -30 -25 -30 -33 0 -26 -14 -19 -183 98 -22 16 -64 31 -105
38 -63 12 -71 11 -109 -8 -89 -46 -198 -147 -284 -266 -24 -33 -28 -44 -23
-85 8 -62 33 -151 43 -151 4 0 23 -23 42 -50 45 -67 219 -202 328 -255 47 -23
139 -61 204 -85 l117 -44 0 -196 0 -197 30 -59 c39 -80 188 -263 248 -308 27
-19 68 -39 93 -45 74 -16 366 -23 444 -10 160 26 266 50 365 83 188 61 246
107 303 239 19 45 52 120 73 167 32 71 39 101 45 180 3 52 13 180 20 283 l13
188 116 113 c63 62 155 150 204 194 49 44 116 111 149 149 33 37 76 86 96 108
43 47 129 186 162 265 19 43 24 72 23 135 0 83 -14 124 -50 156 -11 9 -109 54
-219 99 -173 71 -206 81 -245 77 -43 -4 -178 -63 -247 -108 l-33 -21 6 734 c7
767 -2 1115 -31 1184 -10 25 -28 41 -76 65 -56 28 -70 31 -121 26 -41 -4 -69
-13 -91 -30 l-32 -24 -320 172 c-347 187 -338 180 -375 291 -41 121 -112 202
-202 229 -54 16 -179 19 -235 5z m170 -67 c27 -4 54 -20 89 -52 l50 -46 -25
-50 -25 -50 -11 -875 c-15 -1175 -15 -1487 3 -1536 10 -30 12 -89 8 -249 -3
-177 -2 -215 12 -239 13 -26 37 -38 163 -87 81 -31 153 -54 161 -51 12 4 13
146 8 981 -4 536 -4 1006 0 1043 l7 68 58 36 c75 45 95 41 185 -36 91 -79 111
-119 139 -275 12 -65 15 -209 15 -759 0 -641 1 -678 18 -673 87 28 138 37 205
37 42 0 77 -3 77 -6 0 -16 -67 -99 -117 -144 -99 -89 -377 -260 -422 -260 -12
0 -4 28 15 50 10 12 13 194 14 865 2 939 0 976 -59 1029 -22 20 -23 18 -34
-30 -2 -11 -1 -288 4 -615 4 -327 9 -774 11 -995 l3 -401 35 15 c79 32 300
149 365 193 59 39 212 186 411 396 55 58 84 58 169 -2 51 -35 78 -47 132 -55
37 -6 69 -13 71 -15 10 -10 -12 -22 -77 -45 l-71 -24 -36 -71 c-125 -238 -282
-418 -410 -469 -56 -23 -74 -25 -132 -20 l-68 7 -33 -42 c-29 -37 -32 -45 -23
-67 13 -27 24 -29 55 -12 43 23 46 20 40 -45 -8 -83 -3 -460 6 -470 5 -4 11
47 14 115 9 161 31 303 54 336 10 15 20 36 24 47 6 24 -16 49 -36 41 -8 -3
-28 6 -44 19 -36 31 -39 31 -51 0 -5 -14 -14 -25 -20 -25 -16 0 -12 12 13 42
l22 28 53 -14 c49 -13 58 -13 110 5 77 26 121 57 212 148 87 86 137 157 225
316 58 104 62 110 98 116 46 7 47 1 2 -30 -19 -13 -35 -27 -35 -30 0 -4 -31
-56 -69 -116 -38 -60 -68 -111 -67 -113 14 -14 101 86 163 188 12 19 36 45 52
58 17 12 31 32 31 43 0 12 9 32 20 46 11 14 20 36 20 48 0 20 -6 23 -69 28
-56 5 -83 13 -135 43 -86 50 -70 65 25 25 41 -17 82 -31 91 -31 36 0 17 26
-43 59 -60 33 -64 34 -150 28 -49 -3 -89 -3 -89 1 1 17 19 31 76 60 l62 31
103 -55 c57 -31 126 -72 154 -91 54 -39 54 -39 163 1 34 13 46 14 61 4 24 -14
41 -50 41 -83 0 -31 -7 -31 -32 0 -26 33 -56 32 -106 -5 -30 -22 -53 -30 -83
-30 -57 0 -40 -16 25 -24 41 -6 62 -3 85 9 28 14 34 14 62 0 24 -13 29 -21 24
-38 -4 -12 -9 -30 -12 -40 -6 -24 -51 -90 -126 -190 -59 -78 -109 -120 -159
-132 -49 -12 -30 25 121 230 35 47 61 89 58 92 -15 14 -103 -79 -235 -247 -79
-102 -156 -196 -170 -210 -78 -74 -136 -118 -173 -129 -56 -17 -117 -67 -136
-111 -8 -21 -16 -80 -19 -145 -2 -60 -9 -172 -15 -248 -6 -76 -9 -141 -6 -144
12 -11 55 95 61 152 17 144 65 292 53 165 -2 -30 -10 -118 -17 -195 -6 -77
-16 -148 -21 -157 -5 -10 -14 -39 -19 -65 -13 -58 -143 -365 -171 -405 -25
-35 -49 -47 -197 -102 -87 -33 -153 -49 -257 -65 -77 -11 -174 -30 -215 -42
-68 -19 -83 -20 -160 -10 -136 18 -170 33 -236 104 -72 77 -151 183 -182 244
-34 66 -44 147 -40 333 3 162 3 166 -22 198 -24 33 -116 82 -153 82 -11 0 -34
-9 -51 -20 l-32 -19 -134 72 c-115 61 -149 85 -228 161 -117 113 -127 139 -87
232 52 122 259 296 334 279 15 -3 62 -35 105 -71 43 -35 109 -80 147 -99 55
-28 73 -43 89 -76 21 -40 66 -69 107 -69 48 0 95 -25 161 -85 40 -36 77 -65
82 -65 17 0 -54 111 -95 149 -32 29 -55 40 -101 49 -48 10 -65 18 -82 42 -36
48 -39 83 -8 103 14 9 36 17 49 17 13 0 44 7 70 16 l46 16 133 -51 c146 -56
158 -65 232 -181 31 -49 52 -70 86 -87 25 -12 61 -35 80 -52 l35 -30 3 -258 3
-258 24 -25 c23 -23 26 -23 42 -7 16 16 16 19 0 52 -23 49 -22 198 5 590 l3
40 -102 0 -102 1 -63 94 c-58 88 -68 98 -128 127 -36 18 -101 44 -144 59 -44
14 -97 34 -119 45 -34 18 -45 19 -89 9 -28 -6 -53 -9 -55 -6 -2 2 -5 16 -6 32
-2 29 -1 29 65 35 38 3 71 9 75 12 17 18 -20 28 -86 25 -50 -2 -72 1 -76 9 -6
18 47 43 105 50 66 8 80 17 57 40 -16 16 -21 17 -80 1 -34 -9 -63 -15 -64 -14
-3 2 -13 1382 -17 2228 l-3 607 28 10 c21 7 29 6 33 -4 2 -7 5 -172 5 -367 0
-351 7 -579 18 -608 16 -39 24 113 29 551 6 457 6 478 -12 503 -23 31 -59 34
-74 5 -14 -25 -24 -18 -15 10 3 12 28 32 53 46 48 25 88 30 155 18z m275 -439
c19 -13 22 -24 22 -88 0 -80 -15 -136 -35 -136 -18 0 -24 20 -31 100 -7 68 1
140 14 140 4 0 18 -7 30 -16z m893 -209 l36 -24 5 -1023 c4 -905 3 -1025 -10
-1041 -11 -12 -19 -14 -26 -7 -7 7 -11 198 -13 568 -5 1133 -10 1399 -31 1480
-21 80 -16 85 39 47z m-141 -295 c0 -95 -9 -121 -37 -104 -29 18 -45 90 -33
153 5 29 15 60 22 68 10 12 14 11 30 -9 14 -18 18 -42 18 -108z m-341 -20 c54
-43 76 -73 67 -96 -9 -23 -30 -16 -49 15 -12 20 -35 36 -73 50 -30 12 -61 21
-69 21 -27 0 -25 19 2 34 44 24 67 19 122 -24z m-369 -1851 c55 -29 78 -54 65
-68 -3 -3 -37 6 -76 19 -75 25 -102 51 -72 69 24 14 17 15 83 -20z m71 -152
c8 -15 8 -22 -2 -28 -24 -15 -48 -10 -125 25 -56 26 -72 38 -68 50 4 10 1 16
-7 16 -8 0 -3 9 11 20 l25 19 78 -41 c43 -22 82 -50 88 -61z m-132 -37 c75
-38 127 -99 100 -116 -5 -3 -7 -9 -4 -14 3 -4 -18 3 -47 17 -28 14 -76 30
-105 36 -31 7 -48 14 -40 19 9 5 7 11 -8 22 -20 14 -19 15 7 25 14 5 29 15 33
20 9 15 20 14 64 -9z"/>
<path d="M1921 4949 c-37 -15 -14 -27 56 -30 68 -3 89 5 52 19 -44 17 -84 21
-108 11z"/>
<path d="M1950 4900 c-13 -8 -13 -10 0 -14 38 -14 145 -25 154 -16 11 11 2 15
-64 29 -56 13 -71 13 -90 1z"/>
<path d="M1351 1736 c-24 -19 -58 -57 -75 -85 -17 -29 -46 -62 -65 -73 l-34
-22 13 23 c20 38 -8 14 -36 -31 -20 -31 -23 -42 -13 -54 15 -18 29 -18 29 0 0
8 11 16 23 20 34 8 157 151 211 244 12 20 -6 13 -53 -22z"/>
<path d="M1885 1646 c-19 -14 -19 -15 -2 -34 9 -10 42 -24 72 -31 39 -9 71
-26 116 -62 54 -43 79 -57 79 -45 0 2 -7 20 -16 41 -8 20 -14 41 -12 46 6 18
96 -49 127 -94 31 -46 41 -71 19 -49 -19 19 -53 14 -75 -10 -20 -22 -21 -39
-27 -313 -7 -279 -6 -293 14 -360 19 -62 30 -78 90 -137 38 -38 77 -68 86 -68
14 0 10 9 -18 38 -83 85 -150 216 -124 242 7 7 10 44 8 103 -6 147 25 377 50
377 10 0 11 -25 8 -286 -3 -265 0 -272 122 -368 85 -67 94 -72 115 -58 10 6 6
17 -13 43 -14 19 -42 59 -62 89 l-37 55 -3 258 -3 258 -65 107 c-109 177 -109
177 -182 210 -122 56 -230 76 -267 48z"/>
<path d="M2590 1597 c-64 -17 -109 -64 -84 -90 5 -5 104 20 114 30 2 2 -2 8
-10 13 -26 17 38 12 70 -5 36 -19 60 -52 60 -85 0 -14 7 -36 17 -49 11 -17 13
-28 6 -40 -6 -10 -7 -66 -3 -151 4 -74 5 -182 2 -241 -2 -58 -2 -131 2 -163 7
-50 10 -56 21 -45 34 34 49 156 49 404 l1 240 -30 60 c-32 64 -68 94 -138 117
-30 11 -52 12 -77 5z m0 -51 c0 -2 -7 -7 -16 -10 -8 -3 -12 -2 -9 4 6 10 25
14 25 6z"/>
<path d="M1153 1453 c-35 -7 -27 -31 11 -39 25 -4 57 -28 114 -83 119 -116
243 -171 384 -171 79 0 130 16 153 47 9 11 15 8 34 -18 l23 -31 -22 -30 -21
-29 21 -64 c19 -57 21 -78 15 -177 -3 -62 -2 -126 3 -143 9 -28 10 -27 15 25
33 291 35 351 12 370 -13 11 -13 16 5 45 l20 32 -33 31 -33 32 -44 -15 c-24
-8 -49 -20 -56 -26 -20 -16 -204 33 -289 77 -38 20 -92 56 -120 79 -66 56
-130 95 -152 94 -10 -1 -28 -4 -40 -6z"/>
<path d="M1985 1197 c-3 -12 -2 -43 4 -67 5 -27 6 -140 2 -280 l-6 -235 25
-43 25 -43 55 3 c54 3 73 20 28 26 -13 1 -43 12 -67 25 l-43 22 6 105 c17 296
19 390 6 449 -13 64 -26 77 -35 38z"/>
<path d="M2855 489 c-60 -16 -144 -36 -185 -45 -41 -8 -111 -25 -155 -36 -44
-11 -98 -24 -120 -28 -84 -16 -281 -64 -308 -75 l-29 -12 35 -36 c33 -35 37
-37 100 -37 68 0 182 20 160 27 -29 10 -9 20 60 32 39 7 126 29 192 48 66 20
143 41 170 48 28 7 59 16 70 20 14 5 11 -1 -10 -19 -43 -36 -11 -34 68 5 34
17 63 32 64 33 1 0 11 25 22 54 l21 52 -23 -1 c-12 -1 -71 -14 -132 -30z"/>
</g>
</svg>
