<?xml version="1.0" standalone="no"?>
<!DOCTYPE svg PUBLIC "-//W3C//DTD SVG 20010904//EN"
 "http://www.w3.org/TR/2001/REC-SVG-20010904/DTD/svg10.dtd">
<svg version="1.0" xmlns="http://www.w3.org/2000/svg"
 width="256.000000pt" height="256.000000pt" viewBox="0 0 256.000000 256.000000"
 preserveAspectRatio="xMidYMid meet">
<metadata>
Created by potrace 1.16, written by Peter Selinger 2001-2019
</metadata>
<g transform="translate(0.000000,256.000000) scale(0.100000,-0.100000)"
fill="#f2f2f2" stroke="none">
<path d="M1807 2441 c-25 -47 -82 -166 -128 -265 l-83 -178 -172 -113 c-104
-69 -192 -120 -224 -129 -67 -20 -194 -97 -245 -150 -23 -22 -80 -63 -128 -90
-48 -27 -87 -55 -87 -61 0 -21 74 -48 145 -53 l70 -4 323 201 c312 195 352
219 352 208 0 -3 -138 -93 -308 -200 -169 -108 -316 -205 -326 -216 -46 -51
28 -13 282 145 147 92 300 187 340 212 49 30 82 59 99 86 14 23 27 43 29 45 1
2 16 -6 32 -18 35 -24 42 -16 42 47 0 20 25 111 55 202 47 143 53 167 40 179
-12 13 -15 11 -24 -10 -32 -84 -155 -337 -169 -350 -9 -9 -166 -109 -347 -223
-294 -183 -336 -206 -373 -206 -23 0 -42 3 -41 8 0 4 162 113 360 242 199 129
364 239 369 245 11 14 220 500 220 513 0 5 -13 12 -29 14 -28 4 -32 0 -74 -81z"/>
<path d="M2013 1899 c-26 -26 -13 -37 50 -44 89 -10 125 -37 187 -141 l53 -87
-19 -100 c-15 -83 -25 -111 -56 -157 -36 -54 -37 -55 -18 -74 21 -21 30 -17
101 49 49 45 52 53 74 185 24 149 18 170 -71 252 -40 36 -91 77 -115 91 -53
30 -167 46 -186 26z"/>
<path d="M1990 1779 c-11 -30 -28 -52 -59 -73 -30 -22 -53 -50 -76 -95 -27
-55 -43 -72 -106 -115 -58 -41 -79 -62 -102 -106 -22 -43 -37 -59 -68 -72 -22
-10 -181 -99 -354 -199 l-313 -182 -62 -85 c-34 -46 -68 -100 -76 -121 l-14
-36 3 65 c2 36 6 71 8 79 6 20 -41 24 -62 5 -14 -12 -24 -13 -54 -5 -42 11
-57 7 -103 -27 -44 -32 -71 -26 -161 34 -38 25 -74 43 -79 40 -16 -10 -21 -59
-11 -106 7 -34 24 -60 67 -107 75 -81 100 -86 143 -32 17 22 49 52 71 65 26
17 41 34 45 54 6 34 7 34 34 20 17 -10 19 -22 19 -110 0 -112 -2 -114 -88 -97
-37 8 -48 6 -77 -15 -38 -25 -43 -43 -21 -73 12 -17 17 -17 45 -5 24 10 35 10
44 1 6 -6 31 -11 56 -11 55 0 46 -10 -39 -40 -67 -24 -90 -37 -90 -50 0 -4 17
1 38 12 48 25 146 20 216 -11 69 -30 181 -19 174 18 -3 11 -13 15 -33 13 -33
-3 -105 17 -105 29 0 4 20 17 45 29 25 12 45 23 45 23 0 1 -6 22 -13 46 -13
41 -15 43 -28 25 -14 -19 -69 -49 -69 -38 0 11 23 49 46 77 18 22 21 33 14 51
-5 13 -6 49 -3 79 5 52 10 59 67 114 48 47 127 98 369 238 169 97 309 176 311
174 2 -2 10 -18 19 -34 13 -27 13 -35 1 -64 -12 -29 -12 -39 1 -78 16 -46 21
-180 6 -153 -5 8 -14 46 -21 83 -21 113 -60 195 -60 126 0 -24 -18 -33 -36
-18 -8 6 -17 9 -21 6 -9 -10 85 -275 119 -334 35 -63 47 -72 65 -48 17 25 17
52 -3 113 -16 48 -16 53 0 76 9 14 16 36 16 49 0 26 17 47 34 41 6 -2 34 25
61 61 27 36 91 102 143 147 93 81 122 118 122 159 0 16 -25 -4 -108 -90 -59
-61 -114 -111 -122 -111 -21 1 -99 76 -111 108 -16 42 6 77 77 122 35 22 67
40 71 40 4 0 -14 -22 -40 -48 -33 -33 -49 -60 -53 -84 -6 -32 -3 -36 25 -48
44 -18 72 -1 129 75 62 85 77 122 63 161 -16 44 -15 45 24 27 19 -9 38 -26 41
-37 4 -12 12 -28 19 -36 7 -8 16 -34 20 -57 7 -46 -19 -110 -56 -136 -42 -30
-210 -200 -240 -243 -29 -43 -30 -44 -12 -69 10 -13 21 -25 24 -25 3 0 32 39
64 88 33 48 83 112 111 142 81 87 244 292 264 330 9 19 22 56 28 82 11 44 10
49 -24 110 -56 101 -82 121 -156 126 l-63 4 -15 -43z"/>
<path d="M1760 1743 c-8 -3 -37 -27 -65 -53 -27 -26 -138 -116 -245 -200 -162
-126 -235 -174 -430 -286 -129 -73 -255 -152 -280 -175 l-45 -40 55 29 c222
120 511 279 593 327 54 31 100 55 102 53 5 -5 -163 -117 -231 -155 -124 -68
-523 -309 -523 -315 -1 -14 49 -9 82 8 18 9 193 109 389 222 343 198 359 208
378 249 11 24 23 43 28 43 19 0 152 128 194 188 63 90 63 128 -2 105z"/>
<path d="M720 1419 c0 -8 -13 -33 -28 -55 -16 -21 -75 -130 -132 -240 -100
-194 -103 -203 -90 -233 7 -17 16 -31 20 -31 4 0 17 39 30 88 22 84 57 169 66
160 2 -3 -2 -27 -10 -54 -18 -63 -28 -154 -16 -154 11 0 40 87 40 122 0 28 69
212 77 205 2 -2 -8 -36 -22 -74 -24 -69 -34 -153 -16 -153 5 0 23 30 42 68 26
53 34 81 35 135 2 44 8 75 17 85 9 10 18 37 22 62 6 38 3 48 -14 64 -16 15
-21 16 -21 5z"/>
<path d="M784 1368 c-4 -6 -9 -45 -12 -86 -5 -83 -7 -82 61 -29 20 16 37 37
37 46 0 24 11 33 26 20 7 -5 14 -6 17 -2 10 16 -19 41 -58 52 -51 14 -62 14
-71 -1z"/>
<path d="M1377 1050 c-7 -30 -31 -41 -40 -17 -2 6 -8 8 -13 4 -11 -10 81 -277
116 -337 53 -91 98 -43 63 67 -14 43 -15 58 -5 73 16 26 15 73 -2 115 -25 59
-36 43 -29 -40 8 -95 -9 -100 -26 -7 -14 80 -42 172 -52 172 -3 0 -9 -13 -12
-30z"/>
<path d="M1237 994 c-4 -4 -7 -14 -7 -23 0 -9 -4 -22 -9 -30 -8 -12 -12 -13
-25 -1 -9 7 -19 10 -22 7 -3 -3 14 -64 38 -135 47 -137 112 -266 131 -259 22
7 30 59 17 109 -8 31 -9 66 -4 96 4 26 6 56 5 67 -4 29 -30 75 -42 75 -6 0 -8
-11 -5 -27 3 -16 8 -50 12 -78 10 -76 -9 -44 -34 57 -26 104 -44 152 -55 142z"/>
<path d="M1080 903 c0 -7 -5 -24 -10 -39 -10 -26 -11 -26 -30 -9 -18 16 -20
16 -20 2 0 -31 91 -283 121 -335 52 -91 88 -50 61 66 -12 50 -13 68 -4 83 22
35 2 137 -28 147 -10 4 -12 -6 -7 -44 3 -27 2 -65 -3 -84 -4 -19 -8 -26 -9
-15 -2 36 -51 219 -61 229 -7 7 -10 6 -10 -1z"/>
<path d="M920 803 c0 -10 -5 -25 -10 -33 -8 -12 -13 -13 -30 -2 -29 18 -27 7
28 -148 54 -155 98 -242 120 -238 29 6 36 56 17 118 -13 44 -15 62 -6 78 15
28 14 76 -3 117 -25 59 -36 43 -29 -40 8 -95 -9 -100 -26 -7 -6 37 -19 91 -28
120 -16 51 -33 69 -33 35z"/>
<path d="M195 671 c-14 -28 -25 -65 -25 -83 0 -31 6 -37 79 -81 44 -26 82 -47
86 -47 6 0 35 63 35 79 0 5 -9 11 -20 14 -15 4 -20 14 -20 37 0 44 -13 65 -65
100 l-44 31 -26 -50z"/>
<path d="M394 492 c-23 -52 -44 -122 -44 -144 0 -16 6 -15 40 13 22 18 49 46
59 62 18 28 18 33 3 63 -22 48 -39 50 -58 6z"/>
<path d="M160 488 c1 -31 99 -137 131 -140 21 -3 24 1 27 37 2 40 2 40 -69 80
-91 51 -89 51 -89 23z"/>
</g>
</svg>
