<?xml version="1.0" standalone="no"?>
<!DOCTYPE svg PUBLIC "-//W3C//DTD SVG 20010904//EN"
 "http://www.w3.org/TR/2001/REC-SVG-20010904/DTD/svg10.dtd">
<svg version="1.0" xmlns="http://www.w3.org/2000/svg"
 width="512.000000pt" height="512.000000pt" viewBox="0 0 512.000000 512.000000"
 preserveAspectRatio="xMidYMid meet">
<metadata>
Created by potrace 1.16, written by Peter Selinger 2001-2019
</metadata>
<g transform="translate(0.000000,512.000000) scale(0.100000,-0.100000)"
fill="#f2f2f2" stroke="none">
<path d="M980 4599 c-41 -4 -149 -12 -240 -17 -189 -11 -206 -16 -315 -96 -41
-31 -80 -56 -87 -56 -19 -1 -48 -27 -113 -100 -94 -106 -101 -122 -114 -246
-7 -60 -17 -287 -22 -504 -6 -217 -12 -433 -15 -480 -7 -118 29 -481 59 -600
13 -52 27 -113 31 -135 11 -60 53 -161 102 -245 56 -95 222 -267 324 -335 112
-74 294 -160 380 -179 120 -26 236 -60 253 -74 9 -8 67 -17 139 -23 159 -13
324 6 429 50 47 20 71 26 74 18 1 -7 11 -52 20 -102 24 -127 72 -318 100 -400
27 -80 134 -322 156 -352 36 -51 95 -113 108 -113 7 0 29 -13 47 -30 75 -65
255 -91 383 -54 69 20 218 94 260 130 17 14 41 44 52 65 12 24 27 39 37 39 10
0 28 10 39 22 34 37 110 292 172 573 11 50 25 114 31 142 l12 53 26 -14 c76
-39 244 -77 338 -77 37 0 81 8 115 21 45 17 67 19 129 14 95 -8 203 12 370 67
174 57 222 84 342 193 84 76 119 116 175 203 115 179 177 335 223 562 12 58
23 107 25 111 2 3 11 87 21 185 14 148 16 238 10 503 -10 512 -23 726 -47 800
-28 83 -121 221 -205 304 -65 63 -74 69 -149 88 -89 23 -247 42 -496 61 -165
12 -291 6 -414 -21 -375 -83 -591 -151 -787 -250 -91 -47 -150 -58 -353 -66
-202 -8 -218 -4 -620 159 -60 24 -134 58 -163 76 -30 17 -70 38 -90 47 -58 25
-210 64 -250 64 -20 0 -73 7 -117 15 -86 15 -264 17 -385 4z m415 -110 c320
-70 493 -128 716 -239 197 -100 271 -114 496 -100 144 9 153 11 283 60 73 28
156 63 184 79 28 16 67 32 86 36 19 4 103 29 185 55 83 27 224 63 315 81 163
32 169 32 470 33 216 1 337 -3 414 -14 125 -16 136 -23 268 -165 111 -121 110
-117 147 -355 26 -162 39 -688 23 -872 -6 -68 -19 -204 -27 -303 -9 -99 -20
-205 -25 -236 -18 -115 -185 -496 -276 -625 -49 -72 -73 -95 -144 -144 -255
-173 -446 -204 -800 -131 -183 38 -228 52 -287 88 -27 17 -66 36 -88 43 -22 7
-57 21 -78 32 -42 21 -56 17 -98 -29 -23 -24 -28 -42 -38 -143 -42 -394 -139
-734 -234 -825 -18 -17 -40 -45 -49 -62 -32 -61 -118 -90 -319 -109 -76 -8
-105 4 -177 69 -29 27 -43 35 -38 23 7 -19 6 -20 -14 -1 -71 64 -208 435 -235
635 -3 25 -10 61 -14 80 -5 19 -14 69 -21 110 -7 41 -16 88 -21 104 -5 16 -9
48 -9 72 0 41 -2 44 -37 53 -62 17 -120 13 -178 -14 -30 -13 -83 -31 -117 -39
-35 -8 -83 -22 -108 -31 -95 -34 -223 -45 -410 -35 -145 7 -189 13 -255 35
-173 57 -263 109 -404 234 -79 71 -122 142 -175 289 -29 82 -106 347 -106 365
0 7 33 -69 73 -168 89 -221 148 -325 235 -410 51 -51 76 -68 118 -80 29 -8 61
-18 70 -22 15 -5 16 -1 10 39 -7 47 -20 85 -75 222 -18 43 -30 80 -28 82 5 5
60 -56 142 -155 88 -108 207 -216 260 -237 49 -18 79 -15 168 18 50 19 61 31
49 54 -5 11 -18 37 -28 59 -10 22 -79 102 -152 178 -150 157 -206 234 -99 137
45 -40 313 -206 423 -261 101 -50 104 -51 238 -62 184 -15 187 -11 75 98 -64
62 -119 102 -216 159 -88 52 -134 85 -142 103 -6 14 -10 27 -9 28 2 2 32 -15
68 -36 42 -26 74 -39 95 -37 17 1 55 -12 90 -30 127 -66 224 -88 363 -84 l63
2 -18 32 c-21 37 -126 147 -163 170 -24 15 -23 15 25 7 73 -12 142 -11 187 3
35 10 39 14 33 37 -4 14 -15 36 -26 47 -18 19 -20 34 -18 130 1 120 31 415 54
538 8 44 13 82 11 84 -6 5 -36 -104 -48 -172 -6 -34 -14 -67 -18 -75 -12 -23
-20 125 -8 157 7 17 8 37 3 48 -4 10 -7 24 -6 31 1 6 -3 14 -9 18 -15 9 -12
68 5 101 8 16 17 55 21 87 4 31 10 60 15 62 4 3 11 -24 14 -60 13 -115 26 -78
40 105 3 41 1 124 -3 183 l-9 108 -49 50 c-61 62 -83 68 -449 132 -177 30
-186 31 -490 30 -244 -1 -324 -5 -375 -17 -36 -9 -87 -15 -115 -15 l-50 0 55
20 c101 36 187 49 343 50 l152 1 -110 22 -110 23 60 7 c33 5 78 12 100 18 22
5 139 12 260 15 193 5 238 3 360 -16 77 -12 168 -28 203 -36 35 -8 66 -15 69
-15 8 0 -90 87 -156 139 -100 78 -401 211 -480 211 -11 0 -29 -10 -40 -22 -20
-21 -21 -21 -81 -5 -75 21 -228 22 -342 2 -95 -16 -271 -74 -337 -111 -53 -29
-59 -29 -86 -4 -21 19 -21 19 -53 0 -18 -11 -32 -28 -32 -39 0 -20 -59 -71
-82 -71 -8 0 -24 -9 -36 -20 l-22 -21 0 25 c0 35 165 186 275 252 83 50 87 51
202 63 191 19 198 19 428 14 167 -3 241 -9 310 -24z m40 -619 c134 -9 197 -16
374 -41 76 -11 80 -13 90 -42 25 -70 -3 -140 -61 -152 -15 -4 -33 -15 -38 -26
-16 -28 -65 -50 -97 -43 -16 4 -224 8 -463 10 -811 5 -750 0 -750 62 0 104 44
227 84 235 43 9 726 6 861 -3z m-1050 -212 c7 -138 12 -165 28 -149 24 24 285
8 374 -23 l36 -12 -44 -12 c-131 -35 -373 -54 -397 -30 -9 9 -15 9 -24 0 -18
-18 -38 -14 -38 7 0 10 -7 24 -16 31 -12 11 -14 25 -9 69 12 105 25 165 47
213 29 65 37 48 43 -94z m1383 -284 c67 -7 75 -16 87 -95 7 -55 -15 -95 -77
-138 -24 -16 -51 -37 -61 -46 -13 -11 -43 -18 -95 -21 -139 -8 -975 -8 -1050
0 -67 7 -73 10 -80 35 -11 42 -7 144 9 176 16 33 -3 28 224 54 55 6 192 14
305 17 113 3 239 9 280 13 94 10 377 13 458 5z m-1393 -227 c13 -52 29 -107
37 -121 l14 -26 164 -3 c123 -3 179 -8 218 -21 30 -10 52 -19 50 -21 -10 -11
-244 -35 -338 -35 -62 0 -111 -4 -115 -10 -14 -23 -32 -6 -55 51 -20 51 -24
80 -24 163 -1 90 7 136 21 123 2 -3 15 -48 28 -100z m1434 -293 l33 -7 -4 -88
c-4 -95 -13 -112 -72 -148 -25 -16 -76 -23 -276 -38 -253 -19 -302 -20 -630
-14 -187 3 -285 12 -302 29 -15 15 -20 97 -9 137 21 80 19 79 208 86 116 5
185 12 223 24 87 28 713 42 829 19z"/>
<path d="M3870 4364 c-14 -2 -59 -9 -100 -15 -145 -21 -544 -121 -560 -140 -8
-10 -32 -25 -52 -33 -39 -17 -58 -36 -36 -36 67 -2 -207 -65 -348 -80 -121
-13 -144 -18 -144 -29 0 -4 33 -2 73 6 39 8 119 15 177 16 96 2 110 0 160 -25
l56 -27 63 19 c34 11 80 20 101 20 21 0 68 7 105 15 74 18 107 9 98 -25 -6
-21 20 -29 32 -10 3 6 14 10 25 10 10 0 40 20 67 45 53 47 86 58 201 71 l64 6
-31 -42 c-35 -48 -38 -65 -15 -74 10 -4 13 -13 9 -26 -7 -24 -10 -23 37 -7 22
8 51 31 76 62 74 94 79 96 168 93 l79 -3 3 -30 c4 -50 12 -75 23 -75 5 0 31
20 57 44 l47 44 89 -14 c48 -7 95 -15 102 -18 28 -11 -3 29 -75 97 -78 73
-196 137 -289 156 -49 10 -205 13 -262 5z"/>
<path d="M4431 4306 c-16 -9 -20 -16 -12 -20 6 -4 9 -11 6 -15 -8 -14 138 -71
183 -71 l26 0 -30 31 c-29 31 -120 89 -139 89 -5 -1 -21 -7 -34 -14z"/>
<path d="M4718 4184 c-56 -36 -72 -66 -61 -111 l8 -37 56 50 c31 27 64 54 73
59 14 8 16 15 7 38 -13 33 -34 34 -83 1z"/>
<path d="M2472 3929 c-30 -5 -82 -25 -116 -44 l-63 -35 -7 -118 c-4 -64 -11
-197 -16 -295 -10 -192 -26 -337 -40 -351 -4 -4 -11 23 -15 60 -12 129 -13
109 -8 -188 2 -166 0 -298 -5 -298 -9 0 -42 107 -42 135 0 8 -4 15 -10 15 -6
0 -10 -40 -10 -99 0 -56 4 -103 10 -106 6 -3 10 -17 10 -31 0 -20 5 -24 29
-24 16 0 31 4 33 10 5 16 214 50 343 57 99 4 137 2 218 -15 89 -19 127 -20
127 -3 0 3 -28 15 -62 25 -158 49 -164 52 -194 112 -16 31 -44 75 -64 98 -19
22 -48 61 -64 85 -34 53 -126 292 -126 327 0 51 32 232 57 324 34 121 66 186
101 204 41 20 158 38 232 34 64 -3 65 -3 88 -45 12 -23 31 -79 40 -124 l18
-82 18 61 c17 54 17 71 8 148 -12 90 -23 114 -52 114 -9 0 -25 9 -34 19 -10
11 -40 25 -67 30 -59 13 -261 13 -337 0z"/>
<path d="M3248 3773 c-96 -99 -90 -219 15 -302 64 -50 88 -54 487 -66 96 -3
204 -8 240 -10 36 -2 155 -7 265 -11 110 -3 211 -7 224 -9 13 -1 42 2 64 8 32
8 43 17 58 51 23 50 23 72 0 161 -20 76 -36 92 -130 129 -38 15 -46 15 -58 3
-14 -14 4 -31 91 -91 13 -9 20 -28 23 -62 l4 -49 -53 -25 c-51 -24 -60 -25
-288 -27 -129 0 -246 3 -260 7 -14 5 -81 11 -150 14 -69 2 -147 10 -175 16
-27 6 -75 13 -105 15 -30 3 -88 10 -128 16 -65 11 -74 15 -92 44 -11 18 -20
44 -20 58 0 42 37 116 65 129 30 13 33 28 6 28 -11 0 -25 2 -33 5 -7 3 -30
-12 -50 -32z"/>
<path d="M3407 3694 c-20 -11 -25 -19 -19 -27 6 -7 10 -16 9 -22 -2 -12 196
-36 240 -29 34 5 52 22 37 33 -5 3 -9 13 -9 21 0 10 -20 18 -70 27 -95 16
-154 15 -188 -3z"/>
<path d="M3041 3511 c-13 -8 -13 -43 -3 -259 7 -137 16 -262 21 -278 7 -27 8
-26 14 20 4 27 7 149 7 270 0 230 -6 268 -39 247z"/>
<path d="M3246 3238 c-58 -63 -58 -63 -51 -112 9 -72 26 -105 81 -159 57 -55
81 -63 224 -72 58 -3 150 -10 205 -15 55 -5 134 -12 175 -15 103 -8 177 -14
230 -20 25 -2 74 -7 110 -9 36 -3 132 -11 213 -17 l148 -12 52 51 52 52 -1 73
c-3 137 -71 221 -173 215 -63 -4 -62 -23 3 -53 30 -14 57 -28 59 -33 3 -4 8
-30 12 -59 7 -51 6 -52 -27 -69 -29 -16 -59 -18 -253 -17 -121 1 -269 7 -330
13 -60 7 -159 15 -220 19 -60 3 -115 9 -121 13 -6 4 -51 10 -100 13 -49 3
-111 8 -138 9 -57 4 -68 14 -95 83 -16 42 -18 58 -10 90 6 21 20 47 30 59 19
20 17 34 -6 34 -7 0 -38 -28 -69 -62z"/>
<path d="M3393 3217 c-24 -12 -31 -27 -13 -27 6 0 10 -8 10 -19 0 -16 12 -19
104 -25 111 -8 158 2 137 28 -6 7 -9 15 -6 18 27 26 -186 49 -232 25z"/>
<path d="M3243 2805 c-22 -15 -53 -98 -53 -140 0 -38 51 -126 91 -154 30 -22
57 -31 131 -40 51 -7 118 -16 148 -21 227 -39 665 -100 687 -96 16 2 89 7 163
11 74 3 143 9 153 11 20 6 51 62 62 111 13 62 -79 169 -123 143 -9 -5 -12 -10
-7 -10 23 -1 48 -32 50 -60 1 -25 -4 -34 -27 -46 -40 -21 -280 -13 -453 15
-71 11 -224 30 -340 41 -115 11 -246 24 -290 30 -44 5 -87 7 -96 5 -25 -8 -66
31 -85 81 -17 44 -17 47 1 80 10 19 22 34 27 34 5 0 6 5 3 10 -8 14 -17 13
-42 -5z"/>
<path d="M3455 2773 c-11 -3 -35 -11 -54 -20 -28 -13 -31 -17 -18 -24 9 -5 14
-16 11 -24 -4 -8 -2 -15 2 -15 5 0 51 -3 101 -6 72 -4 99 -1 123 11 30 16 36
26 23 39 -4 4 -8 15 -8 23 0 13 -15 16 -80 18 -44 1 -89 0 -100 -2z"/>
<path d="M2475 2380 c-33 -11 -87 -35 -120 -53 -88 -47 -89 -52 -89 -432 0
-205 4 -340 13 -400 17 -122 19 -131 27 -200 6 -53 18 -78 101 -210 87 -137
164 -235 186 -235 5 0 -7 21 -26 48 -91 124 -170 281 -186 369 -16 84 -15 84
125 -125 95 -140 132 -186 99 -123 -29 57 -112 284 -142 386 l-28 100 1 295
c0 164 5 308 11 325 8 26 21 34 87 59 58 23 82 27 94 19 33 -21 162 -252 162
-291 0 -26 16 -45 32 -39 20 7 58 211 57 297 l-1 65 -77 56 c-146 107 -215
126 -326 89z"/>
<path d="M4172 2118 c-7 -7 -12 -22 -12 -35 0 -29 57 -180 71 -189 17 -10 59
5 59 21 0 18 -58 160 -78 193 -16 25 -23 27 -40 10z"/>
<path d="M4400 2076 c-17 -32 -38 -80 -45 -107 -12 -46 -12 -51 6 -62 12 -8
19 -23 19 -44 l0 -32 41 18 c64 29 64 28 46 146 -23 146 -27 150 -67 81z"/>
<path d="M3709 2063 c5 -10 59 -67 120 -126 76 -74 116 -107 127 -103 9 3 20
6 26 6 19 0 -3 54 -30 78 -73 61 -226 162 -247 162 -3 0 -1 -8 4 -17z"/>
<path d="M3971 2038 c11 -22 94 -142 123 -180 16 -21 60 -13 52 9 -3 8 -6 18
-6 23 0 17 -82 112 -122 140 -49 36 -63 38 -47 8z"/>
<path d="M3543 1963 c105 -87 271 -163 299 -135 9 9 7 16 -6 31 -22 24 -248
127 -301 137 l-40 7 48 -40z"/>
<path d="M2336 1060 c7 -42 55 -129 85 -156 18 -16 17 -12 -6 26 -16 25 -41
72 -57 105 -24 50 -27 54 -22 25z"/>
<path d="M1507 3740 c-17 -11 -24 -20 -18 -24 6 -4 11 -15 11 -25 0 -21 41
-31 123 -31 54 0 117 23 117 42 0 27 -17 37 -80 47 -88 15 -120 13 -153 -9z"/>
<path d="M1496 3210 c-24 -15 -27 -20 -14 -25 10 -4 14 -14 10 -27 -5 -21 -3
-21 78 -14 102 8 151 26 143 54 -4 15 -17 21 -65 26 -91 9 -120 6 -152 -14z"/>
<path d="M1545 2793 c-41 -11 -62 -32 -57 -59 5 -29 39 -46 79 -39 16 3 48 7
73 9 25 2 57 9 73 15 24 9 27 15 21 38 -4 16 -9 31 -11 36 -5 8 -146 8 -178 0z"/>
</g>
</svg>
