<?xml version="1.0" standalone="no"?>
<!DOCTYPE svg PUBLIC "-//W3C//DTD SVG 20010904//EN"
 "http://www.w3.org/TR/2001/REC-SVG-20010904/DTD/svg10.dtd">
<svg version="1.0" xmlns="http://www.w3.org/2000/svg"
 width="512.000000pt" height="512.000000pt" viewBox="0 0 512.000000 512.000000"
 preserveAspectRatio="xMidYMid meet">
<metadata>
Created by potrace 1.16, written by Peter Selinger 2001-2019
</metadata>
<g transform="translate(0.000000,512.000000) scale(0.100000,-0.100000)"
fill="#f2f2f2" stroke="none">
<path d="M1086 5081 c-16 -18 -18 -30 -12 -92 l7 -71 -48 2 c-26 1 -54 1 -60
1 -33 -2 -89 -175 -98 -300 -10 -156 57 -481 152 -731 43 -113 95 -209 231
-424 l25 -40 24 28 c30 35 25 67 -17 111 -15 17 -40 50 -55 75 -29 46 -106
212 -101 217 2 2 19 -4 39 -12 48 -20 135 -20 157 0 16 15 16 20 -10 83 -54
133 -139 408 -149 485 -6 43 -11 143 -11 223 0 116 3 144 14 144 27 0 34 -28
39 -175 7 -181 44 -339 108 -467 75 -148 125 -198 216 -212 35 -5 55 0 126 33
92 42 185 66 222 57 41 -10 93 -80 116 -157 18 -59 21 -88 17 -175 -4 -97 -3
-106 15 -116 15 -8 35 -6 78 7 85 26 117 16 192 -58 35 -34 92 -105 127 -157
147 -217 205 -287 260 -315 87 -44 224 -26 262 34 11 17 13 17 36 -11 14 -17
21 -33 16 -38 -11 -9 -90 -41 -154 -61 -60 -19 -64 -48 -17 -121 19 -29 46
-73 60 -98 38 -68 191 -225 278 -286 78 -55 154 -139 223 -247 33 -51 39 -56
57 -47 14 8 18 17 14 33 -25 84 -56 147 -124 247 -80 119 -204 344 -241 440
-25 63 -20 60 42 -30 24 -36 92 -132 150 -215 135 -192 320 -504 368 -622 32
-77 37 -98 30 -129 -5 -20 -12 -40 -17 -44 -4 -4 -50 -18 -101 -30 -74 -18
-111 -22 -175 -17 -100 7 -269 57 -427 126 -62 28 -138 58 -168 66 -73 22
-229 101 -337 171 -47 31 -88 54 -91 52 -5 -6 196 -141 281 -190 75 -42 236
-113 380 -166 168 -63 296 -93 410 -98 93 -4 106 -2 189 28 l90 33 19 59 19
58 -88 172 c-187 365 -269 490 -620 952 -334 440 -411 532 -623 749 -97 99
-199 206 -225 238 -27 32 -90 90 -140 130 -50 39 -172 141 -271 226 -200 172
-342 280 -518 396 -64 42 -122 85 -127 95 -7 13 -6 27 2 44 16 37 28 32 29
-11 l0 -38 16 33 c22 43 33 40 33 -8 0 -44 13 -52 31 -17 12 21 13 21 22 -13
8 -33 9 -34 23 -15 15 20 15 20 33 -4 10 -13 23 -21 29 -17 6 3 20 -7 32 -24
15 -21 28 -29 39 -25 12 3 33 -8 62 -33 24 -21 143 -114 264 -207 298 -229
592 -485 757 -659 76 -79 215 -242 309 -363 94 -120 188 -236 208 -258 98
-105 283 -365 437 -615 125 -202 329 -584 319 -599 -3 -5 6 -37 19 -72 21 -56
27 -64 52 -67 24 -2 32 3 48 32 20 38 19 114 -5 356 -20 202 -84 439 -181 670
-73 175 -330 661 -422 798 -82 124 -270 339 -346 396 -14 11 -56 49 -95 86
-111 105 -222 186 -485 355 -414 266 -684 384 -1010 441 -224 39 -261 41 -284
15z m708 -431 c91 -55 391 -264 451 -314 110 -91 393 -363 543 -522 327 -347
566 -657 734 -955 141 -247 285 -562 324 -704 16 -58 12 -69 -7 -23 -22 53
-158 299 -276 498 -267 451 -561 858 -796 1100 -569 587 -653 664 -960 891
-93 69 -93 69 -84 69 4 0 36 -18 71 -40z m687 -127 c70 -47 92 -78 68 -94 -22
-14 -30 -11 -104 36 -75 48 -99 80 -74 96 25 15 40 10 110 -38z m211 -199 c27
-20 55 -49 63 -64 13 -25 13 -28 -9 -38 -19 -8 -32 -6 -62 10 -97 51 -144 109
-109 135 22 15 53 4 117 -43z m275 -207 c69 -66 75 -85 35 -106 -16 -8 -27 -4
-62 26 -56 48 -105 124 -87 135 26 17 49 6 114 -55z m148 -159 c14 -12 33 -33
42 -47 14 -22 10 -21 -27 10 -40 33 -60 59 -46 59 3 0 17 -10 31 -22z m-121
-12 c31 -13 106 -97 106 -118 0 -5 7 -16 15 -24 34 -34 5 -76 -36 -53 -23 12
-139 166 -139 184 0 11 9 25 17 25 2 0 19 -6 37 -14z m248 -143 c29 -35 78
-124 78 -143 0 -43 -52 -30 -86 23 -24 38 -47 114 -39 127 9 15 30 12 47 -7z
m158 -330 c40 -45 90 -148 90 -184 0 -36 -22 -54 -47 -39 -24 16 -81 102 -89
137 -4 15 -16 45 -27 66 -17 33 -18 40 -6 48 26 16 47 9 79 -28z m214 -325
c42 -68 69 -119 63 -124 -5 -5 -103 135 -113 160 -14 36 19 12 50 -36z"/>
<path d="M1722 3921 c-48 -18 -163 -105 -229 -173 -28 -28 -54 -72 -77 -128
-35 -83 -35 -84 -8 -51 59 75 147 162 194 192 67 43 114 37 172 -20 40 -40 41
-43 41 -111 0 -39 3 -70 7 -70 14 0 40 63 42 104 2 29 -6 58 -26 98 -15 32
-28 60 -28 63 0 3 12 5 26 5 24 0 25 2 13 17 -12 15 -12 16 3 10 30 -11 1 46
-33 66 -36 20 -41 20 -97 -2z"/>
<path d="M1634 3722 c-41 -22 -499 -470 -606 -593 -76 -87 -248 -319 -248
-334 0 -8 87 -112 146 -175 24 -25 78 -90 121 -146 43 -55 107 -136 143 -179
36 -44 101 -122 145 -175 44 -54 109 -134 144 -179 64 -82 77 -90 123 -72 29
11 432 293 471 329 15 14 27 31 27 38 0 7 12 26 26 43 33 40 260 222 344 276
63 41 179 150 169 159 -6 6 -223 -123 -338 -201 -51 -35 -95 -63 -97 -61 -2 2
70 59 159 125 158 119 215 168 206 178 -5 5 -147 -81 -177 -108 -10 -8 -62
-43 -117 -77 -55 -35 -121 -80 -146 -102 -26 -21 -55 -38 -65 -38 -42 0 -320
212 -307 234 4 6 25 37 47 68 44 64 66 64 66 0 0 -34 0 -35 20 -17 14 13 20
31 20 59 0 37 -7 49 -81 129 -44 48 -84 87 -89 87 -5 0 -43 -27 -85 -61 -42
-33 -78 -59 -79 -57 -2 2 -44 65 -95 140 -102 155 -111 186 -65 229 61 56 216
252 238 301 13 29 37 70 54 91 19 24 28 44 25 57 -8 29 -25 25 -64 -16 -53
-56 -368 -344 -376 -344 -4 0 79 87 185 194 106 106 192 198 192 205 0 14 2
14 -36 -7z"/>
<path d="M1493 3219 c-14 -14 -8 -31 35 -97 19 -29 48 -60 65 -68 l30 -16 -7
26 c-11 44 -89 166 -106 166 -3 0 -11 -5 -17 -11z"/>
<path d="M760 2879 c-65 -70 -104 -121 -105 -139 -2 -19 -68 -108 -92 -123
-21 -13 -16 -28 27 -78 22 -26 40 -51 40 -56 0 -4 34 -42 76 -83 133 -131 298
-322 379 -435 88 -125 177 -237 182 -231 10 10 -112 231 -154 278 -59 66 -263
323 -289 363 l-19 30 30 -25 c33 -27 199 -198 221 -227 7 -10 14 -14 14 -10 0
16 -233 357 -300 438 -88 105 -103 132 -84 150 25 24 116 170 111 176 -3 3
-20 -10 -37 -28z"/>
<path d="M2519 2853 c-19 -16 -51 -41 -71 -56 -21 -16 -38 -35 -38 -44 0 -9
-8 -25 -17 -36 -19 -21 27 5 121 70 56 39 67 40 111 13 74 -46 87 -115 37
-202 -37 -65 -40 -78 -11 -52 42 37 69 92 69 138 0 31 5 46 16 50 19 7 17 8
33 -22 15 -28 31 -20 31 17 0 32 -47 102 -85 127 -15 10 -54 19 -94 22 -63 4
-70 3 -102 -25z"/>
<path d="M2218 2089 l-57 -42 19 -26 c10 -14 83 -101 162 -193 146 -171 154
-183 315 -483 70 -130 121 -211 75 -120 -11 22 -70 148 -132 280 -105 224
-118 246 -194 335 -114 132 -160 190 -152 190 14 0 123 -79 183 -133 33 -30
92 -79 130 -109 93 -74 123 -115 243 -318 56 -96 130 -214 163 -263 51 -73 65
-87 82 -82 61 20 64 19 81 -20 11 -27 12 -41 5 -48 -6 -6 -11 -20 -11 -32 0
-34 -179 -147 -466 -294 -39 -20 -88 -50 -110 -67 -53 -42 -60 -45 -78 -38
-21 8 -20 28 7 91 17 40 43 70 120 138 l97 87 0 48 c0 30 -10 68 -26 104 -57
124 -215 399 -281 487 -72 96 -309 371 -325 378 -10 3 -80 -43 -98 -65 -15
-18 -1 -44 69 -124 57 -65 156 -187 306 -378 67 -85 89 -123 140 -245 34 -79
72 -160 84 -180 25 -41 23 -51 -22 -73 -64 -33 -93 -76 -150 -220 -46 -117
-53 -142 -45 -166 13 -35 54 -58 88 -48 59 17 220 104 284 152 90 69 71 57
226 139 176 94 190 105 229 184 18 36 34 65 36 63 1 -2 5 -29 9 -60 5 -51 4
-57 -15 -63 -19 -6 -19 -8 -5 -24 9 -10 16 -24 16 -32 0 -8 33 -34 73 -59 125
-77 196 -130 231 -173 50 -61 181 -262 219 -334 17 -35 37 -65 43 -67 42 -16
248 -37 309 -32 39 4 106 10 150 14 57 5 101 17 152 40 113 51 123 40 24 -28
-50 -33 -73 -41 -154 -54 -96 -16 -201 -49 -212 -67 -4 -5 7 -12 24 -15 17 -4
31 -11 31 -16 0 -6 9 -7 23 -3 12 4 85 11 162 15 125 7 151 12 240 44 84 31
109 36 157 32 55 -5 58 -4 79 25 21 30 21 31 3 70 -37 82 -115 124 -297 159
-94 17 -238 28 -226 16 2 -2 44 -7 94 -11 78 -6 250 -49 288 -72 34 -20 87
-68 87 -78 0 -17 -42 -32 -125 -46 -38 -6 -92 -20 -119 -31 -27 -10 -51 -16
-54 -13 -3 3 15 25 41 49 26 23 47 49 47 58 0 8 -15 21 -32 30 -30 14 -37 14
-76 -3 -44 -19 -44 -19 -74 2 -28 21 -38 22 -148 16 -136 -8 -116 -20 -225
131 -41 57 -136 168 -212 247 -121 126 -158 158 -310 262 -149 103 -171 121
-166 140 5 24 -13 89 -28 99 -6 3 -16 1 -23 -5 -10 -8 -22 0 -52 37 -46 54
-214 288 -214 296 0 3 27 6 60 6 50 0 286 43 297 54 5 5 -298 143 -356 161
-31 10 -67 15 -87 12 -44 -7 -43 -2 2 21 36 19 38 19 108 -3 39 -12 91 -32
115 -45 25 -12 130 -51 234 -86 259 -88 260 -89 455 -349 156 -209 334 -421
377 -449 38 -25 298 -327 300 -348 1 -21 95 -99 95 -80 0 22 -83 151 -136 212
-31 36 -140 151 -242 255 -146 151 -200 214 -260 305 -41 63 -82 130 -90 148
-16 32 -15 34 10 55 21 18 25 28 21 54 -5 29 -12 34 -87 64 -44 18 -148 60
-231 94 -82 34 -203 82 -269 105 -65 24 -179 74 -253 111 -132 68 -134 68
-153 49 -11 -11 -22 -31 -26 -45 -12 -47 -46 -32 -126 55 -77 85 -168 152
-168 124 0 -8 23 -48 50 -89 28 -41 50 -77 50 -80 0 -25 -68 30 -205 166
l-160 159 -57 -41z m1592 -680 c0 -14 -33 -20 -42 -7 -17 27 -10 38 17 26 14
-6 25 -15 25 -19z"/>
<path d="M3427 1995 c-28 -25 -67 -55 -85 -67 -47 -30 -28 -41 71 -42 94 -1
117 10 117 54 0 38 -19 87 -36 94 -8 3 -36 -14 -67 -39z"/>
<path d="M1710 1864 c-79 -54 -125 -78 -154 -82 -33 -4 -78 -25 -125 -59 -3
-2 1 -9 7 -15 22 -22 111 10 217 78 93 59 185 137 174 149 -3 2 -56 -30 -119
-71z"/>
<path d="M3250 1509 c-72 -16 -74 -17 -60 -34 19 -22 11 -24 -48 -14 -29 6
-72 9 -95 7 l-42 -3 85 -44 c137 -71 222 -133 279 -205 28 -36 54 -66 56 -66
3 0 -2 16 -10 36 -8 20 -15 39 -15 43 1 14 42 -47 61 -90 30 -67 222 -229 350
-294 85 -44 110 -64 264 -215 94 -92 179 -170 190 -173 100 -27 156 -39 161
-34 13 13 -19 46 -79 83 -49 30 -128 108 -341 334 -243 257 -290 313 -371 435
-94 143 -122 175 -186 213 -43 26 -134 35 -199 21z"/>
<path d="M3534 896 c108 -80 205 -148 216 -151 11 -4 20 -15 20 -25 0 -12 12
-23 35 -31 19 -7 35 -18 35 -25 0 -6 11 -15 25 -18 14 -4 25 -11 25 -16 0 -6
7 -10 15 -10 9 0 18 -7 21 -15 4 -9 19 -15 41 -15 19 0 32 -4 28 -9 -3 -5 5
-11 17 -13 16 -2 22 -9 20 -20 -2 -10 2 -18 8 -18 5 0 10 -5 10 -11 0 -16 31
-38 54 -39 14 0 17 -5 12 -25 -6 -23 -3 -25 24 -25 20 0 29 -4 24 -11 -8 -13
13 -29 39 -29 13 0 0 21 -47 78 -168 202 -402 386 -636 502 -78 38 -151 70
-162 70 -12 0 60 -59 176 -144z"/>
</g>
</svg>
