<?xml version="1.0" standalone="no"?>
<!DOCTYPE svg PUBLIC "-//W3C//DTD SVG 20010904//EN"
 "http://www.w3.org/TR/2001/REC-SVG-20010904/DTD/svg10.dtd">
<svg version="1.0" xmlns="http://www.w3.org/2000/svg"
 width="512.000000pt" height="512.000000pt" viewBox="0 0 512.000000 512.000000"
 preserveAspectRatio="xMidYMid meet">
<metadata>
Created by potrace 1.16, written by Peter Selinger 2001-2019
</metadata>
<g transform="translate(0.000000,512.000000) scale(0.100000,-0.100000)"
fill="#f2f2f2" stroke="none">
<path d="M1735 4936 c-120 -27 -137 -36 -169 -96 -25 -45 -28 -47 -102 -66
-98 -24 -125 -41 -169 -107 -29 -44 -47 -59 -98 -82 -86 -41 -113 -60 -157
-116 -28 -36 -43 -67 -55 -121 -13 -58 -24 -80 -56 -115 -29 -31 -38 -49 -34
-65 3 -13 11 -57 20 -98 11 -56 20 -80 38 -93 l23 -18 -39 -377 c-33 -325 -37
-385 -27 -436 6 -32 8 -62 3 -66 -4 -4 -177 -126 -383 -270 -206 -144 -383
-270 -392 -279 -16 -14 -19 -43 -23 -215 l-5 -199 -30 -34 c-30 -33 -30 -34
-14 -71 9 -20 20 -49 26 -64 6 -17 41 -49 99 -88 98 -67 145 -90 185 -90 15 0
209 38 432 85 223 47 406 84 407 83 1 -2 7 -32 13 -67 16 -87 23 -94 94 -86
32 4 58 4 58 0 0 -11 -33 -122 -87 -295 -28 -88 -54 -155 -68 -170 -19 -20
-35 -79 -84 -308 -34 -156 -58 -289 -53 -295 4 -7 40 -43 79 -81 l73 -69 82
23 c77 23 82 23 92 6 6 -10 25 -39 41 -64 l30 -47 157 -38 158 -39 11 -41 c30
-115 42 -149 56 -154 9 -4 67 10 128 31 l113 37 93 -21 93 -21 280 67 281 66
375 205 c206 112 458 245 560 295 102 49 187 94 190 98 10 16 227 59 264 53
l35 -6 71 144 c62 129 72 155 85 245 l15 102 -31 103 -31 103 7 233 c5 159 11
233 18 233 24 0 347 201 347 216 0 9 55 83 123 165 67 83 123 159 125 169 2
10 -10 50 -27 87 l-30 68 19 135 c10 74 15 140 12 147 -4 7 -49 33 -99 57
l-92 45 19 44 20 45 -26 248 -26 249 -53 70 c-30 38 -76 97 -102 130 l-48 59
-365 126 -364 125 -29 72 -29 71 -71 29 c-64 26 -74 34 -91 70 -16 36 -35 50
-190 141 -94 55 -180 105 -191 110 -14 7 -59 6 -145 -4 -183 -20 -194 -19
-258 21 l-57 34 -425 26 c-234 14 -447 25 -475 24 -27 0 -95 -11 -150 -23z
m630 -76 l390 -30 59 -40 59 -41 165 27 c124 19 170 23 188 15 12 -5 85 -53
161 -105 117 -81 142 -103 163 -143 24 -46 29 -49 107 -76 l82 -29 37 -73 38
-72 290 -103 c480 -170 428 -143 523 -269 l82 -108 25 -227 26 -227 -25 -49
c-14 -27 -25 -52 -25 -55 0 -5 72 -40 177 -85 29 -12 53 -25 53 -29 0 -3 -7
-51 -15 -106 -20 -138 -19 -172 10 -234 14 -30 23 -62 20 -72 -4 -11 -54 -74
-111 -141 -106 -123 -106 -123 -227 -186 -136 -71 -250 -132 -255 -137 -2 -2
-6 -66 -8 -142 -6 -254 -16 -406 -25 -422 -7 -11 -2 -44 19 -111 28 -89 29
-99 18 -162 -7 -41 -18 -74 -30 -85 -10 -10 -42 -60 -70 -112 l-51 -94 -145
-42 c-143 -40 -153 -45 -525 -250 -209 -115 -407 -223 -440 -239 -33 -15 -111
-57 -173 -93 l-114 -64 -231 -46 -232 -46 -130 11 c-109 9 -145 8 -222 -6 -51
-8 -95 -13 -98 -11 -2 3 -11 38 -20 78 -8 40 -17 77 -20 81 -2 4 -82 29 -176
56 l-172 49 -35 52 c-19 29 -38 53 -42 53 -4 0 -39 -7 -78 -16 l-71 -16 -57
48 -56 49 5 60 c11 116 77 382 172 688 69 223 93 313 86 325 -6 11 -32 20 -73
27 -63 10 -63 10 -66 45 -6 80 -12 100 -33 100 -11 0 -126 -24 -257 -54 -130
-30 -327 -73 -437 -96 -110 -23 -208 -46 -217 -51 -14 -8 -40 6 -118 58 -83
57 -102 75 -116 110 l-16 42 37 51 c43 58 42 54 32 245 -9 155 -12 147 56 169
10 3 189 121 398 262 l379 257 0 38 c0 21 -9 60 -19 88 l-20 49 44 398 c24
220 47 416 50 437 5 34 3 37 -19 37 -20 0 -26 8 -41 61 l-17 61 36 52 c20 29
39 68 42 87 4 18 17 55 30 80 22 43 29 49 96 74 139 53 133 49 178 124 46 81
59 90 152 120 60 20 70 27 93 66 27 47 24 46 185 89 33 9 79 13 115 10 33 -3
236 -18 450 -34z"/>
<path d="M1843 4808 c-10 -13 -53 -129 -53 -142 0 -4 8 -2 18 3 21 11 197 5
402 -14 225 -22 220 -22 311 32 76 46 100 77 67 88 -7 2 -103 6 -213 9 -110 4
-267 13 -350 21 -182 18 -170 18 -182 3z m150 -37 c158 -16 338 -26 447 -24
115 2 117 -2 26 -49 -45 -23 -151 -26 -361 -8 -66 5 -155 10 -197 10 l-76 0
15 40 c18 45 13 44 146 31z"/>
<path d="M1723 4786 c-48 -20 -82 -48 -83 -68 0 -11 74 -10 103 1 14 6 29 23
36 42 20 57 20 57 -56 25z"/>
<path d="M3160 4701 c-22 -6 -23 -8 -7 -14 10 -4 27 -7 38 -7 13 0 19 -7 19
-21 0 -35 60 -86 123 -104 31 -9 67 -15 79 -13 18 2 -1 20 -93 86 -64 45 -121
82 -125 81 -5 -1 -20 -4 -34 -8z"/>
<path d="M1620 4681 c-56 -7 -115 -37 -173 -90 -27 -25 -67 -100 -67 -126 0
-8 -9 -10 -24 -8 -31 6 -145 -34 -174 -62 -18 -16 -23 -35 -27 -85 -3 -56 -6
-65 -24 -68 -15 -2 -21 -11 -21 -28 0 -22 3 -23 43 -19 138 14 145 14 161 -4
12 -14 15 -29 10 -58 -7 -43 8 -83 30 -83 19 0 67 40 61 51 -4 5 -1 9 6 9 8 0
7 5 -2 17 -10 12 -11 17 -2 20 8 3 5 16 -9 43 -24 45 -74 70 -138 70 -34 0
-40 3 -40 21 0 14 5 19 14 16 8 -3 42 -9 76 -13 54 -6 63 -10 76 -35 14 -28
34 -39 34 -19 0 6 -6 10 -12 10 -9 0 -10 2 -2 8 14 8 13 40 -2 65 -7 13 -31
21 -79 28 -38 5 -75 7 -83 4 -8 -3 -12 0 -10 7 6 17 140 23 167 8 17 -9 19 -7
17 13 -1 13 -10 34 -19 47 -14 20 -14 25 -2 34 7 6 23 30 35 53 12 23 31 45
43 49 11 4 54 26 95 50 41 24 94 49 118 55 95 24 54 35 -76 20z"/>
<path d="M2657 4646 c6 -40 -7 -47 -41 -21 -28 21 -39 19 -98 -17 -45 -28 -66
-33 -172 -45 -67 -7 -147 -12 -178 -13 -31 0 -59 -4 -63 -9 -3 -5 -20 -8 -38
-6 -174 18 -255 13 -296 -20 -13 -11 -45 -42 -70 -68 -25 -26 -51 -45 -58 -43
-8 3 -13 -2 -13 -14 0 -10 -12 -28 -27 -39 -51 -38 -52 -40 -48 -79 4 -36 9
-154 21 -477 3 -88 7 -173 9 -190 2 -16 7 -140 11 -275 6 -227 8 -248 29 -290
13 -25 26 -67 30 -92 4 -26 16 -55 26 -64 10 -9 19 -23 19 -30 0 -17 47 -71
54 -63 4 3 -5 26 -19 51 -22 39 -24 50 -14 74 7 19 9 90 5 209 -11 345 -28
841 -35 1025 l-7 185 24 38 c31 47 90 99 103 92 18 -12 8 -37 -33 -86 l-42
-50 21 -677 c14 -425 18 -681 12 -686 -37 -38 43 -176 102 -176 23 0 62 119
84 255 29 178 41 222 65 235 51 27 61 3 35 -84 -8 -27 -15 -76 -15 -108 l0
-60 33 7 c44 10 52 18 77 81 22 52 22 59 10 126 -12 62 -12 71 2 79 41 23 60
48 73 99 20 74 19 111 -10 444 -14 158 -22 294 -17 301 4 8 45 41 92 75 47 33
112 81 145 106 115 85 184 120 300 148 92 23 123 26 190 21 44 -3 123 -8 175
-10 191 -7 315 -18 328 -28 9 -7 16 -7 23 0 13 13 7 49 -8 46 -17 -4 -162 26
-183 37 -10 5 -31 25 -47 43 -25 30 -38 36 -115 50 -81 16 -92 16 -162 1 -70
-16 -79 -16 -113 -1 -21 9 -70 19 -110 22 l-72 7 6 -36z m-1043 -389 c2 -15 0
-27 -5 -27 -5 0 -9 14 -9 32 0 37 7 34 14 -5z m3 -89 c-3 -8 -6 -5 -6 6 -1 11
2 17 5 13 3 -3 4 -12 1 -19z m443 -823 c0 -30 -30 -42 -48 -18 -11 16 -10 20
9 35 25 21 39 15 39 -17z"/>
<path d="M1633 4570 c-25 -11 -43 -26 -43 -35 0 -12 10 -9 45 15 25 17 45 33
45 35 0 7 0 7 -47 -15z"/>
<path d="M2754 4457 c-16 -12 -94 -73 -171 -135 -118 -95 -142 -119 -146 -145
-7 -54 11 -491 22 -517 8 -19 10 43 8 237 -2 298 5 316 48 123 19 -84 29 -163
35 -294 9 -176 8 -180 -16 -244 -18 -48 -24 -84 -24 -142 0 -87 5 -110 26
-110 8 0 16 16 20 40 7 43 34 70 69 70 27 0 328 241 365 292 22 31 28 51 34
124 3 48 12 99 19 113 8 16 77 67 196 143 102 64 208 141 238 170 34 34 70 59
100 69 65 21 72 36 42 95 -21 42 -30 50 -79 67 -30 10 -95 23 -145 27 -49 5
-117 11 -150 14 -353 34 -447 34 -491 3z m391 -48 c83 -10 203 -19 268 -19 65
0 127 -5 138 -10 20 -11 54 -68 45 -77 -3 -3 -16 8 -30 23 l-24 29 -179 1
c-137 0 -203 5 -288 22 -191 36 -225 45 -225 54 0 11 77 5 295 -23z"/>
<path d="M2546 4359 c-124 -95 -146 -118 -49 -55 134 89 173 117 173 127 0 19
-20 7 -124 -72z"/>
<path d="M3646 4189 c-45 -15 -74 -33 -120 -77 -34 -32 -117 -96 -186 -142
-69 -45 -127 -84 -128 -86 -2 -1 0 -9 5 -17 12 -22 252 147 318 225 27 32 53
58 56 58 3 0 35 13 70 30 73 33 69 36 -15 9z"/>
<path d="M1215 4173 c-71 -5 -95 -11 -95 -27 0 -9 21 -15 73 -18 39 -3 79 -7
87 -9 11 -3 15 4 15 26 0 33 -2 33 -80 28z"/>
<path d="M3705 4115 c-90 -37 -118 -53 -155 -92 -25 -27 -116 -97 -203 -157
l-157 -108 -1 -52 c-1 -89 -26 -133 -120 -209 -46 -37 -87 -76 -91 -86 -3 -10
-19 -27 -34 -38 -18 -13 -25 -26 -21 -37 10 -26 38 -18 100 29 47 35 65 43 90
39 82 -10 257 -24 315 -24 53 0 98 11 246 61 342 116 367 126 400 156 17 17
57 37 91 47 190 55 418 132 422 142 2 7 -16 45 -40 86 l-45 73 -328 107 c-181
59 -336 107 -344 107 -8 0 -64 -20 -125 -44z m810 -304 c-6 -4 -96 -30 -202
-56 -227 -56 -292 -88 -323 -161 -19 -42 -20 -43 -50 -33 -16 6 -33 15 -36 20
-3 5 9 29 26 54 41 59 132 108 187 100 27 -4 89 8 208 39 177 46 206 52 190
37z"/>
<path d="M4028 3700 c-35 -19 -67 -44 -83 -67 -23 -35 -24 -39 -8 -50 25 -19
30 -16 43 23 9 25 27 45 66 71 29 19 51 39 48 44 -6 11 2 14 -66 -21z"/>
<path d="M1177 4044 c-11 -11 -8 -102 2 -106 6 -1 12 -16 15 -31 4 -23 0 -30
-20 -37 l-24 -10 0 -312 c1 -243 4 -320 15 -343 12 -28 13 -20 15 90 1 66 5
138 9 160 l9 40 1 -55 c1 -30 3 -120 4 -200 3 -119 6 -151 22 -180 14 -28 19
-68 25 -190 4 -102 8 -131 10 -85 6 159 14 210 33 213 15 3 17 -5 17 -55 0
-67 -18 -324 -25 -366 -2 -15 -1 -25 4 -22 5 3 24 -21 42 -52 33 -61 54 -83
76 -83 24 0 13 41 -32 118 l-46 77 7 678 7 677 -33 30 c-18 16 -36 28 -38 25
-3 -3 -10 -1 -16 4 -16 13 -71 23 -79 15z"/>
<path d="M3146 3839 c-18 -27 -24 -205 -6 -194 6 3 10 33 10 66 0 33 7 76 15
96 19 44 5 66 -19 32z"/>
<path d="M4601 3662 c-1 -42 -34 -71 -80 -72 -18 0 -72 -17 -120 -39 -47 -21
-96 -42 -109 -45 -12 -4 -29 -20 -37 -36 l-15 -30 51 -25 c54 -28 76 -27 85 2
17 54 28 73 39 73 8 0 15 3 17 8 8 19 70 52 98 52 16 0 45 8 63 18 31 17 32
19 25 61 -10 61 -16 72 -17 33z"/>
<path d="M4432 3609 c-71 -29 -210 -69 -244 -69 -24 0 -62 -51 -46 -62 22 -13
34 -9 46 17 8 16 20 25 35 25 30 0 119 30 177 60 24 12 63 25 87 29 24 3 44
11 44 16 0 18 -25 14 -99 -16z"/>
<path d="M2446 3601 c-4 -7 -5 -15 -2 -18 9 -9 19 4 14 18 -4 11 -6 11 -12 0z"/>
<path d="M4585 3510 c-3 -5 -21 -10 -38 -10 -41 -1 -81 -35 -97 -85 -10 -30
-10 -39 1 -45 8 -6 22 6 42 36 29 45 49 55 101 51 25 -2 31 -8 38 -35 11 -42
30 -32 21 11 -7 35 -58 93 -68 77z"/>
<path d="M3815 3373 c-236 -94 -288 -104 -523 -103 l-183 1 -64 -41 c-36 -22
-68 -40 -73 -40 -5 0 -36 11 -70 25 -34 14 -66 25 -71 25 -5 0 -12 -20 -15
-44 -10 -63 -23 -71 -98 -59 -50 8 -69 7 -105 -7 -24 -9 -40 -20 -36 -25 5 -4
2 -5 -4 -1 -18 10 -141 -37 -244 -93 -49 -27 -89 -47 -89 -44 0 4 31 41 70 84
47 52 65 79 56 82 -14 6 -77 -55 -114 -109 -12 -18 -41 -109 -67 -209 -24 -97
-47 -180 -50 -185 -7 -12 35 -34 45 -23 4 4 15 37 25 73 9 36 25 74 35 85 9
11 23 43 30 70 7 28 20 59 29 69 9 10 73 47 143 81 146 71 158 80 158 108 0
11 3 17 8 13 4 -4 7 -17 7 -29 0 -11 6 -22 14 -25 10 -3 12 0 8 12 -9 22 24
58 42 47 7 -5 11 -13 7 -19 -11 -18 278 -174 344 -187 19 -4 116 -53 215 -108
214 -122 227 -126 250 -82 16 28 16 34 2 61 -21 40 -32 48 -97 69 -51 16 -170
78 -280 145 -47 30 -146 55 -172 45 -11 -5 -16 -1 -15 12 2 14 -4 17 -23 15
-24 -2 -24 -2 -8 15 17 16 19 16 45 -3 16 -11 53 -26 83 -32 31 -7 71 -22 90
-34 127 -77 224 -128 285 -148 72 -24 80 -30 110 -86 17 -32 17 -33 -4 -62
-13 -19 -21 -44 -20 -69 l0 -38 19 41 c33 75 65 88 325 138 72 14 175 34 230
45 55 10 136 24 180 31 175 26 314 67 407 121 89 51 143 62 143 29 0 -10 -8
-14 -23 -12 -14 2 -59 -18 -116 -51 -155 -91 -286 -135 -482 -162 -61 -8 -136
-22 -165 -29 -30 -8 -119 -26 -199 -41 -191 -35 -234 -49 -249 -82 -16 -35
-62 -243 -68 -311 -6 -59 -24 -75 -51 -48 -25 25 -21 205 6 303 11 40 16 71
12 68 -4 -3 -14 2 -21 11 -7 9 -56 36 -108 60 -52 24 -131 71 -176 104 -45 32
-95 62 -111 65 -50 11 -125 45 -245 111 -64 35 -124 64 -133 64 -53 0 23 -45
354 -210 429 -215 391 -176 371 -375 -7 -66 -11 -148 -9 -182 1 -34 -1 -65 -4
-68 -6 -6 -142 22 -388 79 -58 13 -154 31 -215 41 -60 9 -132 20 -159 25 -41
6 -51 5 -67 -11 -11 -11 -19 -27 -19 -37 0 -15 50 -27 373 -92 454 -90 483
-92 637 -52 156 41 328 84 488 122 132 30 198 57 662 268 49 22 81 46 122 92
l57 62 -34 65 -35 64 7 103 6 103 -65 36 c-35 20 -99 48 -142 62 -98 32 -109
38 -171 90 -75 62 -91 71 -199 100 -95 25 -206 77 -206 96 0 16 -22 9 -215
-68z m973 -575 c2 -20 -3 -39 -10 -45 -14 -12 -65 -27 -423 -132 -132 -39
-255 -73 -274 -76 -60 -10 -194 -66 -183 -77 6 -6 29 0 63 18 46 23 309 98
317 90 5 -5 -155 -65 -202 -76 -54 -12 -151 -58 -142 -67 15 -15 233 6 346 33
103 25 244 73 373 128 60 26 43 -1 -22 -34 -179 -90 -391 -153 -568 -169 -62
-6 -129 -17 -150 -26 -48 -21 -190 -55 -226 -55 -15 0 -62 -20 -105 -44 -42
-25 -90 -48 -107 -52 -26 -6 -18 4 57 78 l87 85 -4 49 c-7 80 2 101 49 129 78
46 264 98 231 66 -6 -6 -57 -33 -114 -61 -70 -35 -101 -54 -94 -61 7 -7 46 7
121 45 68 34 114 52 117 45 11 -17 -9 -32 -112 -82 -91 -45 -123 -73 -123
-109 0 -19 31 -6 52 22 51 70 217 145 498 225 414 119 428 123 477 159 26 20
53 34 58 32 6 -1 11 -18 13 -38z"/>
<path d="M3650 2475 c0 -8 5 -15 10 -15 6 0 10 7 10 15 0 8 -4 15 -10 15 -5 0
-10 -7 -10 -15z"/>
<path d="M4556 3405 c-47 -44 -29 -106 45 -145 19 -11 19 -8 15 70 -7 110 -13
118 -60 75z"/>
<path d="M2484 3189 c-3 -6 0 -17 7 -25 18 -17 44 -2 36 20 -7 18 -33 21 -43
5z"/>
<path d="M1136 3010 c14 -58 21 -154 23 -300 l2 -155 52 -48 52 -48 -52 26
c-42 20 -53 22 -53 11 0 -20 141 -89 171 -84 23 3 21 6 -31 61 -30 33 -55 64
-56 70 0 7 -2 20 -2 30 -1 9 -5 16 -9 15 -5 -1 -20 4 -35 10 l-28 12 0 187 c0
171 -2 190 -20 213 l-19 25 5 -25z"/>
<path d="M1590 2950 c1 -70 15 -117 54 -176 41 -60 64 -74 143 -83 6 0 26 -26
43 -56 30 -52 92 -113 98 -96 3 8 -69 136 -86 153 -4 4 -35 12 -68 16 l-59 7
-43 71 c-26 44 -47 95 -54 130 -14 75 -28 92 -28 34z"/>
<path d="M1740 2902 c0 -17 40 -95 46 -89 3 3 -6 27 -20 54 -14 26 -25 42 -26
35z"/>
<path d="M720 2689 c-140 -82 -306 -179 -368 -215 -97 -57 -113 -70 -108 -88
2 -11 8 -71 12 -133 l7 -112 -33 -51 c-18 -28 -31 -52 -29 -54 27 -25 180
-113 184 -107 3 5 -21 45 -54 88 l-58 79 20 39 c10 21 24 73 29 114 8 65 7 81
-8 108 -26 50 -16 60 52 53 57 -7 61 -6 139 40 180 105 298 170 302 167 2 -3
-64 -54 -147 -115 -108 -80 -154 -121 -164 -144 -8 -18 -28 -63 -45 -100 -16
-38 -26 -68 -21 -68 15 0 38 40 65 110 24 62 30 69 132 148 60 45 153 118 207
163 107 86 116 87 116 17 0 -27 4 -38 15 -38 18 0 22 20 29 148 5 78 3 102 -6
101 -7 -1 -128 -68 -268 -150z"/>
<path d="M3302 2578 c-5 -7 -15 -47 -22 -88 -8 -41 -14 -76 -15 -77 -1 -2
-115 17 -254 42 -140 25 -281 48 -315 51 -33 4 -105 17 -160 31 -54 13 -100
22 -103 20 -2 -3 22 -19 54 -37 52 -29 98 -39 433 -101 206 -37 377 -66 379
-63 9 9 39 207 34 221 -6 16 -18 17 -31 1z"/>
<path d="M2120 2546 c0 -39 24 -66 72 -82 27 -9 52 -14 55 -11 7 8 -64 75 -98
93 -26 13 -29 13 -29 0z"/>
<path d="M2372 2428 c2 -13 10 -24 19 -26 21 -4 34 28 17 40 -24 15 -39 9 -36
-14z"/>
<path d="M2436 2394 c-6 -16 9 -54 23 -54 4 0 13 12 20 27 10 21 9 28 -1 34
-20 13 -35 11 -42 -7z"/>
<path d="M1705 2380 c-38 -4 -100 -8 -137 -9 l-67 -1 -16 -57 c-31 -110 -33
-113 -34 -40 -1 50 -4 68 -13 65 -20 -7 -23 -171 -4 -187 7 -6 76 -21 152 -32
77 -10 151 -22 166 -25 23 -5 37 7 132 116 59 66 104 125 101 130 -3 5 4 15
16 24 20 14 18 15 -37 13 -37 -2 -69 -9 -84 -20 -33 -23 -40 -22 -40 8 0 28
-3 28 -135 15z m167 -112 c-7 -7 -12 -8 -12 -2 0 6 3 14 7 17 3 4 9 5 12 2 2
-3 -1 -11 -7 -17z"/>
<path d="M860 2319 c-69 -28 -129 -55 -135 -60 -7 -7 -5 -9 5 -5 8 2 74 24
145 47 151 49 151 49 134 60 -18 11 -6 15 -149 -42z"/>
<path d="M391 2293 c-5 -21 -13 -51 -17 -68 -4 -16 -16 -43 -27 -59 l-21 -29
40 -34 c25 -21 46 -32 59 -29 11 2 169 43 350 90 182 47 331 86 333 86 1 0 -2
9 -9 21 -9 18 -16 20 -57 14 -64 -9 -583 -141 -616 -156 -22 -10 -29 -10 -42
3 -13 13 -14 20 -4 39 15 27 40 116 40 142 0 31 -19 18 -29 -20z"/>
<path d="M2004 2294 c-66 -45 -66 -62 -1 -93 45 -21 389 -111 497 -129 126
-22 227 -25 250 -9 20 14 19 15 -24 26 -25 6 -63 11 -85 11 -34 0 -175 49
-286 100 -46 21 -265 110 -270 110 -4 0 -5 -19 -3 -42 3 -37 7 -43 38 -54 50
-18 23 -17 -39 2 -47 13 -61 29 -28 29 15 0 16 67 1 72 -6 2 -28 -8 -50 -23z"/>
<path d="M647 2264 c-8 -8 1 -24 14 -24 5 0 9 7 9 15 0 15 -12 20 -23 9z"/>
<path d="M988 2147 c-76 -22 -135 -43 -133 -45 6 -6 288 69 300 80 18 16 -32
6 -167 -35z"/>
<path d="M4223 2171 c-22 -18 -22 -19 -3 -24 23 -6 28 -55 8 -76 -11 -10 -10
-14 5 -22 26 -15 22 -65 -8 -85 -26 -17 -45 -12 -45 12 0 8 -7 14 -15 14 -19
0 -30 43 -17 67 17 31 -11 47 -41 23 -14 -11 -49 -22 -81 -26 -89 -11 -88 -9
-11 -280 l67 -233 -32 -70 c-27 -58 -43 -77 -92 -113 -33 -23 -63 -49 -67 -57
-11 -18 7 -91 28 -115 14 -15 27 -18 87 -14 69 5 73 6 144 64 61 49 79 70 107
129 38 80 41 114 13 140 -16 14 -19 26 -14 56 5 28 1 45 -13 66 -56 79 -146
255 -163 318 -23 85 -11 106 19 35 31 -73 149 -252 161 -245 6 4 10 94 10 231
0 239 -1 243 -47 205z m-111 -903 c-7 -7 -12 -8 -12 -2 0 14 12 26 19 19 2 -3
-1 -11 -7 -17z"/>
<path d="M3650 1976 c-8 -7 -59 -36 -113 -64 -77 -41 -120 -56 -209 -73 -62
-13 -128 -32 -147 -43 -19 -12 -71 -56 -115 -98 -44 -43 -83 -78 -87 -78 -16
0 -19 20 -4 26 9 4 30 27 47 53 17 25 46 60 64 78 36 33 37 63 4 63 -25 0 -35
-18 -20 -35 10 -13 7 -16 -18 -21 -24 -5 -36 -16 -52 -50 -25 -50 -58 -94 -71
-94 -23 0 -31 46 -15 84 15 37 15 37 -6 34 -29 -4 -37 -36 -48 -188 -28 -402
-31 -554 -12 -680 6 -47 15 -114 20 -149 6 -58 9 -65 30 -66 13 -1 26 4 29 11
3 7 26 25 51 40 155 88 563 315 597 331 l39 21 -42 21 c-35 18 -43 29 -56 69
-13 44 -12 58 8 155 19 96 25 111 66 162 37 45 119 105 145 105 3 0 -4 -18
-15 -40 -12 -23 -42 -56 -69 -75 -62 -45 -80 -87 -86 -203 -3 -64 -2 -69 28
-99 17 -18 37 -33 44 -33 7 0 13 -9 13 -20 0 -20 44 -49 56 -37 3 3 8 24 11
46 5 36 3 41 -13 40 -43 -4 -64 2 -87 27 l-24 26 18 86 c16 81 20 89 61 124
23 21 47 38 52 38 4 0 5 7 2 16 -3 8 8 42 24 75 21 41 28 65 22 77 -5 9 -28
92 -52 185 -24 92 -47 167 -50 167 -3 0 -12 -6 -20 -14z m-690 -381 c0 -8 -7
-15 -15 -15 -16 0 -20 12 -8 23 11 12 23 8 23 -8z m34 -191 c35 -34 6 -66 -40
-46 -26 13 -31 31 -12 50 16 16 33 15 52 -4z m156 -43 c0 -14 -18 -23 -30 -16
-6 4 -8 11 -5 16 8 12 35 12 35 0z m206 -96 l60 -64 22 22 c17 17 24 19 34 9
9 -9 4 -21 -27 -52 -21 -22 -45 -40 -51 -40 -7 0 -40 23 -74 51 l-61 51 -53
-19 c-96 -36 -223 -111 -245 -146 -11 -18 -31 -43 -45 -56 -22 -21 -26 -22
-32 -8 -3 10 -4 36 0 59 3 24 6 75 6 113 l1 70 16 -37 c16 -40 31 -46 62 -26
15 9 18 19 14 50 -4 29 -2 38 9 38 9 0 22 -10 30 -22 l15 -22 94 41 c156 69
149 69 225 -12z m114 -148 c0 -23 -78 -95 -124 -115 -24 -11 -69 -27 -99 -36
-70 -20 -196 -87 -261 -138 -54 -42 -69 -44 -74 -9 -5 33 72 103 166 149 42
22 126 51 186 66 91 22 117 33 148 62 40 36 58 42 58 21z"/>
<path d="M1998 1944 c-5 -4 -8 -21 -8 -38 0 -56 -105 -542 -123 -569 -11 -18
-26 -27 -43 -27 -26 0 -26 1 -20 53 16 142 28 349 20 356 -5 4 -36 14 -69 21
-57 12 -60 12 -75 -10 -8 -13 -29 -37 -46 -54 -19 -20 -33 -47 -37 -71 -4 -22
-23 -143 -42 -270 -19 -126 -37 -244 -40 -261 -5 -26 -9 -31 -26 -27 -11 3
-24 14 -29 24 -8 15 -5 22 14 34 33 22 39 76 11 90 -33 17 -31 45 4 58 37 14
45 57 11 57 -45 0 -35 59 11 70 31 7 40 50 11 50 -25 0 -46 25 -39 45 4 8 18
17 32 21 25 6 25 8 25 100 0 88 2 99 35 164 19 38 35 72 35 75 0 4 -12 5 -26
3 -24 -3 -31 -16 -89 -178 -34 -96 -93 -258 -130 -360 l-67 -185 13 -84 c13
-92 22 -106 97 -148 l40 -23 24 47 c12 26 28 49 35 51 13 3 52 -67 72 -129 15
-46 44 -73 71 -66 11 3 23 1 26 -4 12 -21 73 -43 133 -50 35 -4 67 -12 71 -19
14 -23 25 12 37 125 11 96 42 388 45 422 1 7 4 10 8 8 4 -2 25 62 48 143 22
81 54 193 70 250 21 72 25 101 16 100 -19 -4 -73 61 -79 96 -3 17 -9 51 -13
74 -4 24 -10 40 -14 36z m-58 -501 c0 -5 -4 -14 -9 -21 -6 -10 -10 -9 -14 7
-3 14 0 21 9 21 8 0 14 -3 14 -7z"/>
<path d="M2235 1810 c-10 -16 16 -43 28 -31 11 11 2 41 -12 41 -5 0 -13 -5
-16 -10z"/>
<path d="M2276 1746 c-35 -85 -135 -466 -165 -630 -17 -92 -13 -297 8 -424 16
-97 23 -118 47 -143 30 -32 28 -38 -19 -56 l-32 -12 34 2 c22 1 39 10 48 23
12 19 11 25 -13 53 -29 35 -34 59 -55 311 -11 141 -11 149 15 287 31 168 105
452 141 542 28 72 30 81 15 81 -5 0 -16 -15 -24 -34z"/>
<path d="M2521 1732 c-16 -13 -31 -61 -62 -192 l-40 -175 3 -392 c3 -443 -1
-420 82 -433 66 -10 72 1 57 103 -10 74 -22 213 -37 447 -7 94 20 461 39 549
20 91 2 130 -42 93z"/>
<path d="M2619 1653 l-34 -88 1 -375 c1 -421 10 -539 49 -600 13 -21 28 -41
32 -43 5 -3 31 -1 58 5 48 11 49 11 21 19 -16 5 -33 14 -37 21 -17 27 -21 146
-10 341 6 114 14 277 16 364 8 247 14 324 29 381 11 39 11 52 2 52 -7 0 -19
-35 -29 -82 -10 -45 -22 -87 -27 -92 -13 -13 -13 65 1 123 8 34 7 46 -3 52
-26 17 -35 7 -69 -78z m68 -505 c-6 -319 -16 -413 -33 -302 -8 57 2 591 11
617 4 9 12 17 18 17 7 0 8 -102 4 -332z"/>
<path d="M2197 1700 c-3 -10 1 -24 8 -30 10 -8 15 -3 23 20 10 26 9 30 -7 30
-10 0 -21 -9 -24 -20z"/>
<path d="M2152 1573 c-6 -21 -17 -69 -26 -108 -8 -38 -29 -131 -47 -205 -40
-173 -46 -286 -24 -465 9 -77 15 -168 13 -202 -3 -71 12 -86 26 -24 6 28 2 92
-14 217 -23 180 -22 242 1 379 16 90 78 340 95 381 15 36 13 64 -4 64 -5 0
-14 -17 -20 -37z"/>
<path d="M2253 507 c-48 -18 -53 -30 -8 -22 46 9 55 13 55 26 0 11 -6 11 -47
-4z"/>
<path d="M2054 479 c-10 -17 13 -36 27 -22 12 12 4 33 -11 33 -5 0 -12 -5 -16
-11z"/>
</g>
</svg>
