<?xml version="1.0" standalone="no"?>
<!DOCTYPE svg PUBLIC "-//W3C//DTD SVG 20010904//EN"
 "http://www.w3.org/TR/2001/REC-SVG-20010904/DTD/svg10.dtd">
<svg version="1.0" xmlns="http://www.w3.org/2000/svg"
 width="512.000000pt" height="512.000000pt" viewBox="0 0 512.000000 512.000000"
 preserveAspectRatio="xMidYMid meet">
<metadata>
Created by potrace 1.16, written by Peter Selinger 2001-2019
</metadata>
<g transform="translate(0.000000,512.000000) scale(0.100000,-0.100000)"
fill="#f2f2f2" stroke="none">
<path d="M2370 4860 c-92 -9 -167 -31 -285 -85 -80 -36 -109 -69 -121 -135 -4
-19 -19 -89 -34 -155 -26 -109 -52 -240 -81 -400 -6 -33 -17 -91 -24 -130 -23
-116 -35 -187 -42 -245 -3 -30 -10 -65 -14 -78 -5 -13 -9 -35 -9 -50 0 -31
-23 -146 -50 -247 -10 -38 -32 -136 -49 -217 -17 -80 -37 -163 -45 -185 -20
-54 -28 -93 -18 -93 5 0 24 16 43 36 19 20 74 63 124 95 78 52 96 59 138 59
27 0 57 -4 67 -10 10 -5 88 -30 172 -54 220 -64 284 -89 311 -122 12 -16 32
-40 44 -54 l22 -25 1 33 c0 67 33 165 103 307 54 110 51 85 28 285 -9 78 -22
220 -37 393 -3 37 -3 67 0 67 9 0 36 -108 46 -186 6 -44 12 -92 15 -109 23
-174 36 -330 28 -349 -16 -37 -6 -139 22 -211 14 -37 24 -69 23 -70 -2 -1 -13
-8 -26 -14 -21 -11 -24 -9 -39 26 -15 36 -16 37 -26 16 -8 -19 -4 -31 27 -75
40 -59 44 -73 20 -82 -19 -7 -41 8 -49 35 -8 25 -25 24 -25 -1 0 -27 22 -70
49 -94 26 -24 27 -52 2 -65 -15 -8 -25 -4 -54 24 -33 32 -36 33 -42 15 -13
-42 46 -96 94 -85 53 11 84 81 96 216 2 26 9 66 14 90 6 26 6 74 1 124 -5 44
-14 141 -20 215 -7 74 -14 144 -16 155 -3 11 -13 79 -24 150 -11 72 -26 162
-34 200 -23 111 -46 290 -46 362 0 37 -6 124 -14 193 -8 69 -17 183 -20 254
-4 110 -3 126 9 110 20 -29 62 -198 70 -279 9 -97 42 -266 55 -279 13 -13 13
-3 0 189 -17 249 -52 355 -162 486 -55 66 -44 64 -218 49z"/>
<path d="M1739 4596 c-177 -157 -314 -308 -409 -451 -93 -141 -134 -210 -148
-248 -9 -25 -18 -101 -23 -192 -7 -137 -11 -162 -49 -285 -42 -136 -50 -163
-97 -364 -14 -60 -49 -184 -78 -275 -30 -91 -58 -184 -64 -206 -9 -30 -22 -47
-55 -70 -70 -48 -335 -259 -331 -263 9 -9 70 20 135 63 60 40 250 124 395 175
28 10 86 42 131 71 79 53 81 55 93 109 28 119 86 281 145 400 l61 125 3 -85
c4 -97 -13 -296 -28 -336 -14 -35 -8 -39 27 -20 23 11 33 27 46 73 37 133 51
211 102 542 14 89 29 179 34 200 5 20 14 70 21 111 7 41 23 134 36 205 12 72
25 148 28 170 3 22 18 87 34 145 16 58 35 137 41 175 20 117 53 258 68 288 32
63 2 49 -118 -57z"/>
<path d="M2847 2795 c-15 -66 -27 -127 -27 -136 0 -18 -46 -68 -115 -125 l-49
-42 12 -72 c14 -84 40 -126 83 -135 17 -4 57 -18 88 -32 68 -31 152 -58 205
-68 21 -3 87 -22 145 -40 242 -78 417 -123 428 -112 3 3 -13 11 -35 16 -22 6
-45 18 -52 26 -7 8 -58 29 -114 45 -181 55 -368 121 -382 135 -8 7 -31 19 -51
26 -52 16 -226 90 -236 99 -12 11 4 38 57 93 43 44 46 51 46 100 0 29 7 106
16 171 22 170 14 192 -19 51z"/>
<path d="M1759 2798 c-205 -139 -252 -168 -337 -207 -113 -51 -183 -96 -170
-109 17 -17 3 -39 -44 -69 -24 -15 -100 -71 -169 -124 -69 -53 -147 -109 -173
-124 l-48 -28 7 44 c3 24 20 66 36 92 37 61 39 61 -168 -43 -160 -81 -199
-108 -320 -222 -40 -38 -77 -68 -84 -68 -8 0 -8 -4 1 -15 7 -8 9 -15 4 -15 -5
0 -2 -6 8 -13 9 -7 21 -31 27 -52 19 -70 20 -70 103 -56 57 10 84 21 123 51
28 20 70 47 94 60 l44 22 -7 -69 c-3 -37 -9 -80 -12 -94 -5 -22 3 -35 48 -82
59 -60 109 -79 152 -59 19 8 24 20 28 69 12 124 139 365 257 487 71 73 179
154 233 175 13 5 58 29 99 53 40 24 106 56 144 72 39 15 95 41 125 57 30 17
89 46 130 66 71 34 80 36 173 35 116 -2 145 -8 299 -70 99 -39 122 -52 145
-84 35 -47 47 -48 39 -3 -16 81 -123 210 -214 256 -15 7 -35 21 -44 30 -9 9
-50 29 -90 44 -40 16 -112 43 -160 61 -49 19 -97 34 -108 34 -10 0 -88 -46
-171 -102z"/>
<path d="M2060 2492 c-14 -2 -29 -8 -35 -12 -5 -5 -28 -11 -50 -15 -22 -4 -80
-20 -130 -37 -49 -16 -114 -36 -142 -44 -29 -7 -70 -24 -90 -37 -21 -13 -81
-47 -133 -76 -177 -98 -226 -133 -264 -188 -42 -62 -32 -79 22 -35 45 35 198
109 255 122 23 5 68 19 100 30 151 53 241 69 459 76 138 5 151 4 193 -16 46
-22 176 -106 185 -120 6 -9 120 -103 138 -114 26 -15 142 -44 147 -36 3 4 -11
30 -30 56 -19 27 -44 67 -56 88 -12 22 -53 73 -91 115 -39 42 -83 90 -98 107
-38 43 -164 113 -224 125 -58 12 -119 16 -156 11z"/>
<path d="M2816 2135 c-18 -14 -17 -18 24 -104 l43 -90 111 5 c61 3 174 12 250
20 78 8 168 11 203 8 35 -4 63 -4 63 -1 0 3 -33 11 -72 17 -48 8 -108 29 -173
60 -95 45 -184 68 -243 62 -19 -2 -71 8 -172 33 -8 2 -23 -2 -34 -10z"/>
<path d="M1708 2135 c-2 -2 -45 -8 -96 -14 -102 -13 -184 -48 -309 -134 -62
-42 -75 -60 -49 -70 9 -4 12 -14 9 -26 -9 -34 30 -23 124 36 93 58 150 82 230
98 43 9 101 25 129 36 63 25 126 31 324 32 132 0 151 2 125 12 -44 18 -213 34
-357 33 -70 0 -128 -2 -130 -3z"/>
<path d="M4113 2069 c-105 -13 -105 -22 0 -57 104 -36 147 -42 127 -17 -7 8
-19 15 -26 15 -8 0 -14 5 -14 10 0 15 16 13 130 -20 58 -17 132 -33 165 -36
l60 -6 -30 21 c-46 33 -111 59 -196 81 -82 21 -115 23 -216 9z"/>
<path d="M2243 1975 c-26 -11 -33 -20 -33 -42 0 -15 -5 -82 -11 -148 -12 -140
-4 -255 17 -255 8 0 19 19 26 47 l12 48 13 -33 c11 -28 16 -31 33 -22 13 7 20
23 22 53 4 51 16 52 43 4 11 -20 25 -35 30 -34 6 2 11 26 13 53 4 66 15 73 37
24 12 -27 23 -39 33 -35 7 3 16 5 18 5 2 0 4 15 4 33 0 17 5 39 10 47 8 12 16
8 45 -27 26 -31 40 -40 56 -36 17 5 20 12 17 44 l-3 38 25 -22 c14 -12 30 -28
36 -35 6 -7 19 -9 28 -6 14 5 16 14 11 45 -4 22 -4 39 -1 39 4 0 34 -9 68 -21
68 -23 85 -20 90 13 3 20 10 23 48 26 25 1 85 9 134 17 49 8 124 15 165 15 42
0 121 7 176 16 89 14 273 29 468 38 67 4 67 3 67 -23 0 -27 -1 -27 -97 -39
-175 -22 -227 -30 -508 -78 -49 -8 -131 -21 -182 -29 -155 -23 -366 -67 -398
-83 -34 -17 -96 -63 -200 -148 -38 -31 -88 -64 -110 -74 -100 -43 -405 -73
-735 -71 l-255 1 -27 32 c-15 18 -37 62 -49 97 -26 78 -22 170 12 265 27 75
22 100 -15 83 -45 -21 -70 -118 -64 -251 3 -79 8 -102 35 -157 18 -37 46 -75
65 -89 33 -25 35 -25 275 -28 348 -5 674 31 798 87 33 15 99 60 146 98 148
122 142 119 354 159 44 9 118 22 165 29 47 7 153 25 235 39 83 15 181 31 220
37 84 11 307 56 353 70 38 12 38 17 12 102 l-20 65 -103 -5 c-56 -2 -140 -9
-187 -14 -47 -6 -173 -14 -280 -19 -107 -5 -206 -12 -220 -15 -14 -3 -108 -8
-210 -12 -181 -6 -188 -5 -265 20 -214 70 -374 92 -442 62z"/>
<path d="M4261 1971 c-11 -7 -10 -11 5 -20 20 -13 13 -12 -175 6 l-63 6 5 -39
c18 -118 18 -141 4 -152 -7 -7 -63 -21 -123 -32 -60 -12 -154 -30 -209 -41
-55 -11 -137 -25 -182 -30 -118 -13 -148 -29 -43 -22 58 4 183 -5 395 -26 924
-93 1188 -116 1205 -106 18 11 11 34 -12 40 -13 3 -124 26 -248 50 -335 67
-474 121 -196 76 70 -12 143 -21 164 -21 20 0 75 -9 122 -20 46 -12 112 -23
145 -26 l60 -6 -125 66 c-288 151 -462 234 -556 264 -121 38 -155 45 -173 33z"/>
<path d="M2093 1955 l-33 -14 0 -171 c0 -175 19 -305 44 -297 23 8 58 275 61
467 0 31 -26 36 -72 15z"/>
<path d="M1974 1942 c-5 -4 -21 -33 -35 -64 -25 -61 -39 -73 -39 -35 -1 65
-47 54 -79 -19 -22 -50 -36 -50 -49 -1 -10 35 -39 42 -57 12 -5 -9 -20 -30
-32 -47 l-22 -30 -11 41 c-6 23 -15 41 -21 41 -17 0 -58 -47 -65 -75 -8 -34
-26 -27 -37 14 -6 24 -12 31 -23 27 -9 -3 -19 -6 -23 -6 -15 0 -49 -88 -60
-155 -9 -54 -9 -87 1 -148 13 -80 36 -113 30 -44 -2 21 -1 55 3 75 l6 38 147
12 c124 10 208 23 358 57 19 4 22 14 27 87 4 46 10 116 13 156 6 58 4 72 -7
72 -8 0 -19 -4 -25 -8z"/>
<path d="M235 1850 c-10 -11 -25 -20 -33 -20 -13 0 -14 -21 -9 -152 4 -84 13
-189 21 -233 9 -44 15 -137 16 -207 0 -70 4 -129 9 -132 22 -14 30 27 32 158
0 76 5 151 9 166 16 55 23 316 10 369 -15 63 -31 78 -55 51z"/>
<path d="M82 1780 c-17 -117 -32 -226 -36 -270 -4 -30 -11 -97 -17 -149 -15
-129 5 -245 52 -313 11 -14 19 -33 19 -41 0 -8 22 -59 49 -114 38 -74 71 -122
138 -196 49 -54 109 -112 133 -128 54 -36 128 -59 192 -59 27 0 61 -6 76 -13
15 -8 52 -19 82 -25 180 -39 190 -42 254 -85 35 -24 112 -68 170 -97 100 -51
111 -54 208 -61 57 -4 237 -8 400 -8 l298 -1 90 68 c49 38 134 92 187 120 61
32 115 68 143 98 25 25 71 68 103 95 l59 50 178 -1 c139 -1 184 2 206 13 27
14 103 125 118 174 8 24 51 30 251 33 66 1 183 10 260 22 117 16 210 21 560
25 325 4 430 8 463 19 23 8 53 14 65 14 37 0 146 71 203 133 51 55 54 61 48
95 -8 46 -54 139 -89 180 l-26 32 42 40 c23 22 39 43 36 47 -9 8 -141 -59
-140 -72 1 -5 -6 -14 -15 -19 -13 -8 -5 -19 50 -70 62 -57 67 -65 73 -113 7
-51 6 -53 -39 -101 -83 -89 -100 -92 -596 -107 -189 -6 -487 -23 -535 -31 -16
-3 -167 -7 -335 -10 l-305 -4 -35 -90 c-19 -49 -44 -96 -55 -104 -12 -9 -42
-15 -75 -16 -62 0 -197 -15 -280 -32 -83 -16 -126 -42 -225 -137 -73 -71 -114
-100 -222 -160 -72 -40 -137 -79 -143 -87 -7 -7 -16 -11 -21 -8 -5 3 -28 -6
-52 -20 -38 -23 -55 -26 -133 -26 -103 0 -477 26 -520 35 -126 29 -166 47
-333 153 -84 52 -152 77 -331 122 -75 19 -92 20 -141 10 -71 -15 -109 2 -147
67 -15 25 -65 93 -111 151 -46 59 -95 125 -109 147 -14 22 -31 45 -37 50 -20
20 -73 141 -81 185 -4 25 -10 171 -13 325 -4 154 -8 273 -9 265z"/>
<path d="M453 1691 c-56 -35 -63 -57 -87 -271 -7 -66 13 -161 44 -210 37 -57
92 -101 128 -102 38 -1 103 34 140 77 27 30 32 44 32 88 0 29 4 68 9 88 10 44
-12 187 -37 239 -9 19 -24 35 -32 35 -22 0 -23 -52 -6 -168 8 -54 12 -106 9
-115 -9 -30 -37 -82 -44 -82 -12 0 -70 138 -81 193 -10 45 -9 69 3 124 8 38
12 80 9 93 -8 32 -45 37 -87 11z m-29 -416 c3 -8 1 -15 -4 -15 -6 0 -10 7 -10
15 0 8 2 15 4 15 2 0 6 -7 10 -15z"/>
<path d="M3018 1569 c-26 -14 -24 -43 1 -30 19 11 37 41 23 41 -4 0 -15 -5
-24 -11z"/>
<path d="M896 1545 c-44 -13 -65 -40 -23 -30 33 9 39 -3 38 -76 0 -33 9 -90
20 -126 31 -98 127 -343 152 -383 61 -101 275 -331 330 -355 28 -11 77 -9 77
4 0 3 -34 42 -75 86 -113 120 -219 279 -280 422 l-52 121 43 -21 c33 -15 50
-34 76 -79 58 -103 269 -389 303 -412 26 -16 151 -59 237 -81 63 -16 70 -15
152 4 121 29 286 93 356 138 32 21 83 53 113 71 50 29 142 132 118 132 -4 0
-28 -15 -53 -34 -73 -56 -324 -177 -410 -197 l-77 -19 -151 40 c-182 48 -242
76 -326 153 -62 57 -185 229 -206 288 -7 20 -20 31 -46 40 -77 25 -169 92
-205 149 -8 14 -21 53 -27 87 -16 79 -31 94 -84 78z"/>
<path d="M2915 1543 c4 -10 27 -69 51 -131 88 -230 146 -282 297 -268 52 5 83
2 118 -9 27 -9 59 -15 71 -13 22 4 21 5 -7 17 -16 7 -48 22 -71 32 -23 11 -74
27 -115 35 -70 14 -77 18 -128 72 -39 40 -50 58 -39 60 13 3 954 -52 1588 -92
113 -7 207 -11 210 -9 3 3 -9 17 -27 33 -29 26 -40 28 -140 35 -92 6 -1328
103 -1568 123 -72 6 -88 12 -142 47 -34 22 -67 50 -72 62 -12 27 -37 32 -26 6z"/>
<path d="M3614 1519 c-55 -27 -51 -54 9 -63 117 -16 344 -27 370 -17 25 10 38
31 18 31 -5 0 -8 8 -7 17 1 14 -20 19 -134 34 -172 23 -206 23 -256 -2z"/>
<path d="M2745 1360 c-3 -5 -3 -24 0 -42 3 -18 9 -88 14 -155 10 -138 22 -167
105 -256 45 -48 46 -48 93 -42 75 10 82 14 100 53 9 20 23 45 31 55 8 9 12 20
9 24 -4 4 -13 -2 -21 -12 -11 -15 -21 -17 -57 -11 -103 16 -116 23 -164 90
-45 64 -64 122 -80 243 -7 53 -18 72 -30 53z"/>
<path d="M3790 1220 c-53 -5 -57 -7 -22 -8 24 -1 73 -6 110 -11 152 -22 392
-41 627 -51 138 -6 265 -13 283 -15 90 -10 73 28 -21 51 -55 12 -136 17 -342
20 -148 3 -325 9 -393 14 -129 10 -138 10 -242 0z"/>
</g>
</svg>
