<?xml version="1.0" standalone="no"?>
<!DOCTYPE svg PUBLIC "-//W3C//DTD SVG 20010904//EN"
 "http://www.w3.org/TR/2001/REC-SVG-20010904/DTD/svg10.dtd">
<svg version="1.0" xmlns="http://www.w3.org/2000/svg"
 width="512.000000pt" height="512.000000pt" viewBox="0 0 512.000000 512.000000"
 preserveAspectRatio="xMidYMid meet">
<metadata>
Created by potrace 1.16, written by Peter Selinger 2001-2019
</metadata>
<g transform="translate(0.000000,512.000000) scale(0.100000,-0.100000)"
fill="#f2f2f2" stroke="none">
<path d="M3985 4955 c-170 -45 -458 -122 -640 -169 -373 -98 -373 -98 -437
-140 -50 -33 -115 -127 -179 -256 -52 -105 6 -23 -1133 -1585 -221 -302 -498
-682 -616 -845 -207 -285 -217 -296 -271 -322 l-55 -26 -12 -66 c-14 -72 14
-30 -336 -511 -119 -162 -179 -257 -253 -398 -29 -54 21 -133 152 -242 72 -60
217 -155 237 -155 5 0 47 -25 93 -55 144 -93 174 -105 257 -105 88 0 172 33
188 74 5 14 18 31 30 38 44 28 15 25 -82 -8 -150 -50 -158 -49 -312 47 -72 45
-139 91 -148 102 -25 27 -21 64 10 116 30 48 54 65 45 32 -9 -36 5 -71 30 -71
16 0 32 15 57 53 52 78 161 219 190 244 34 29 180 103 204 103 17 0 16 -4 -10
-31 -16 -17 -54 -44 -85 -59 -40 -21 -78 -53 -129 -112 -73 -82 -166 -215
-157 -224 2 -3 21 -7 40 -11 27 -4 54 2 104 23 114 47 204 130 232 214 6 19
25 55 41 80 l30 45 0 -48 c0 -26 -16 -103 -35 -170 -41 -139 -39 -158 21 -183
20 -8 37 -14 39 -12 14 16 175 271 175 277 0 5 -30 37 -66 70 -48 43 -65 66
-62 79 6 20 583 793 657 880 27 32 79 73 126 102 84 51 124 88 167 156 15 23
147 203 295 400 148 197 330 442 406 543 76 102 145 190 155 197 9 6 87 28
172 48 563 131 821 196 844 211 25 17 54 55 41 55 -15 0 -295 -54 -400 -77
-80 -18 -136 -36 -168 -56 -26 -16 -78 -35 -115 -43 -120 -25 -366 -63 -371
-59 -12 12 26 27 203 79 104 30 198 63 210 74 79 71 191 105 614 188 l143 28
55 77 54 77 -2 98 c-1 66 4 112 13 139 16 41 243 360 352 493 94 116 88 71
-12 -87 -92 -144 -198 -320 -248 -411 -25 -45 -28 -59 -20 -78 13 -28 180
-147 220 -157 31 -8 90 12 81 27 -3 5 -49 37 -100 70 -52 33 -93 62 -91 64 6
6 137 -40 186 -66 l44 -22 18 23 c23 30 23 33 3 90 -10 26 -14 57 -11 71 12
45 188 289 195 269 2 -7 -10 -32 -27 -54 -57 -77 -143 -208 -139 -212 2 -3 52
56 110 129 83 105 115 138 148 152 29 13 54 37 86 81 24 34 44 63 44 66 0 2
-45 43 -100 91 -55 47 -100 93 -100 102 0 8 12 36 27 61 l27 46 -34 30 c-42
37 -49 36 -324 -49 -266 -83 -475 -143 -688 -197 -148 -37 -167 -44 -162 -60
10 -31 -16 -112 -48 -151 -17 -21 -54 -50 -82 -66 -42 -24 -60 -43 -95 -102
-24 -40 -66 -103 -94 -140 -43 -58 -60 -71 -121 -99 -57 -26 -74 -39 -89 -68
-17 -36 -111 -152 -221 -272 l-58 -64 63 94 c35 52 73 106 84 121 11 15 44 63
74 106 30 44 81 104 114 134 32 30 68 73 79 95 11 22 56 77 101 122 45 45 78
85 75 89 -16 15 -116 -56 -187 -134 -42 -46 -101 -110 -132 -141 -31 -32 -76
-86 -100 -122 -24 -35 -70 -101 -104 -146 -106 -143 -150 -205 -230 -323 -42
-63 -95 -136 -117 -162 -39 -48 -125 -171 -295 -423 -47 -71 -121 -173 -163
-225 -84 -106 -78 -96 -196 -272 -47 -71 -89 -128 -94 -128 -8 0 -45 -46 -115
-143 -113 -156 -176 -249 -185 -271 -5 -15 -14 -26 -18 -26 -5 0 -26 -21 -46
-47 l-37 -47 23 -17 c27 -21 16 -39 -12 -21 -11 7 -22 12 -25 12 -3 0 -26 -33
-52 -72 -127 -199 -155 -239 -217 -318 -36 -47 -106 -132 -154 -189 -106 -127
-136 -144 -264 -146 -89 -1 -113 -11 -172 -71 -23 -22 -20 -30 14 -51 35 -21
40 -38 7 -29 -41 10 -61 -4 -107 -75 -69 -107 -81 -120 -117 -135 -41 -17 -71
-5 -118 48 -16 19 -44 44 -62 57 -31 23 -93 125 -93 152 1 11 3 11 13 -1 7 -8
56 -54 109 -103 87 -79 98 -86 121 -78 16 6 28 21 32 38 6 29 373 543 427 600
25 26 35 51 53 130 19 88 24 99 50 112 l28 14 -29 21 c-58 42 -186 154 -201
176 -15 21 -15 24 2 36 28 21 127 56 157 57 17 0 30 8 36 21 8 18 11 14 26
-31 19 -57 33 -69 124 -103 62 -23 76 -42 34 -48 -20 -3 -21 -5 -8 -24 22 -31
4 -56 -49 -69 -57 -14 -67 -29 -20 -29 33 0 36 -2 29 -22 -3 -13 -81 -126
-171 -252 -91 -126 -167 -234 -169 -241 -3 -7 13 -21 39 -34 l45 -22 53 27
c35 18 72 48 104 87 28 32 57 67 66 76 35 34 236 310 292 401 33 52 89 133
126 180 36 46 84 110 106 142 134 192 185 260 237 318 33 36 107 135 166 221
87 128 230 325 340 469 10 14 66 95 123 180 57 85 140 200 186 254 46 54 83
104 83 111 0 6 9 20 21 31 12 10 30 35 40 54 11 19 35 55 54 80 18 25 34 48
34 52 1 4 12 18 25 32 13 15 47 65 76 114 129 212 309 416 466 525 94 65 127
118 122 190 -4 60 -32 75 -148 83 -54 3 -105 12 -117 20 -12 8 -28 14 -36 14
-15 0 -59 44 -76 77 -6 12 -11 41 -11 65 0 54 27 88 70 88 17 0 130 25 253 54
699 172 964 237 977 242 12 4 9 9 -10 19 -51 29 -132 17 -455 -70z m-955 -376
c7 -11 9 -27 6 -34 -5 -14 26 -49 86 -97 37 -29 130 -63 199 -74 54 -8 69 -19
69 -52 0 -25 -34 -72 -53 -72 -15 0 -93 -83 -111 -118 -10 -19 -39 -55 -65
-80 -48 -47 -476 -628 -491 -667 -4 -11 -17 -29 -29 -39 -27 -24 -148 -193
-186 -259 -15 -26 -35 -53 -45 -60 -15 -10 -149 -193 -691 -937 -58 -80 -127
-188 -152 -241 -50 -103 -82 -140 -136 -158 -28 -9 -37 -8 -52 5 -32 28 -28
50 18 121 74 111 122 153 175 153 18 0 42 26 108 117 142 195 162 223 158 223
-2 0 -52 -59 -113 -132 -60 -72 -126 -149 -146 -170 -34 -35 -59 -48 -59 -30
0 8 74 111 131 182 19 25 48 66 62 92 29 50 133 185 178 231 15 15 53 69 84
121 30 51 82 125 114 164 33 38 72 90 87 114 15 23 41 59 58 79 17 20 51 69
76 110 25 40 57 85 71 100 15 15 50 67 79 116 29 48 61 95 70 104 29 26 182
217 215 268 17 26 54 78 83 114 29 37 73 102 99 144 124 206 188 282 271 323
51 25 62 36 62 62 0 11 -10 20 -27 24 -16 3 -44 14 -63 24 -19 9 -51 23 -70
29 -19 6 -58 28 -86 50 -63 47 -71 44 -119 -47 -32 -61 -111 -168 -171 -232
-13 -14 -48 -54 -78 -90 -138 -165 -134 -154 22 63 62 86 118 172 124 190 6
17 17 39 24 47 7 8 22 38 34 65 12 28 33 62 48 77 15 14 32 31 37 37 19 20 70
60 77 61 4 0 12 -9 18 -21z m1840 -25 c0 -3 -10 -14 -22 -25 l-23 -19 43 -39
c41 -38 53 -61 31 -61 -6 0 -33 21 -61 48 -47 45 -49 49 -37 75 9 20 19 27 41
27 15 0 28 -3 28 -6z m-365 -143 c-6 -20 -54 -84 -178 -235 -79 -96 -91 -112
-251 -323 -130 -171 -256 -295 -256 -253 0 18 47 105 64 119 9 8 16 22 16 33
0 33 -7 22 293 432 120 164 130 181 101 172 -94 -28 -310 -60 -389 -57 l-30 2
27 15 c85 46 351 129 533 167 27 5 78 -47 70 -72z m-1470 -39 l50 -35 -44 6
c-47 6 -99 46 -87 66 8 13 10 12 81 -37z m-116 -46 c-11 -20 -25 -36 -31 -36
-10 0 -6 9 25 53 27 40 32 27 6 -17z m-1634 -2188 c-2 -57 -16 -91 -76 -179
-51 -76 -87 -89 -127 -46 -42 45 -38 65 32 163 67 94 90 112 142 113 l31 1 -2
-52z m-592 -715 c-4 -10 -12 -27 -19 -38 -7 -11 -15 -36 -19 -55 -14 -70 -58
-106 -70 -57 -9 34 11 77 58 125 44 45 60 53 50 25z m123 -165 c-4 -23 -15
-61 -25 -84 -16 -34 -24 -42 -52 -46 -23 -4 -37 0 -45 10 -10 13 -2 24 42 61
29 25 58 57 63 73 15 42 24 34 17 -14z m453 -115 c-187 -257 -231 -314 -236
-309 -6 6 44 78 205 294 63 85 116 151 119 148 3 -3 -36 -63 -88 -133z"/>
<path d="M1514 1887 c-28 -30 -71 -86 -88 -114 -4 -8 -2 -13 6 -13 13 0 123
148 116 156 -2 2 -18 -11 -34 -29z"/>
<path d="M1157 2069 c-27 -44 -46 -86 -43 -94 11 -30 17 -24 97 111 15 25 17
33 6 47 -10 14 -18 6 -60 -64z"/>
<path d="M4445 4958 c-22 -5 -94 -23 -160 -39 -66 -17 -155 -37 -199 -45 -43
-8 -111 -28 -150 -43 -39 -16 -105 -36 -146 -46 -74 -18 -146 -44 -123 -45 31
-1 184 35 342 79 97 28 226 62 286 76 61 14 133 33 160 41 88 29 81 44 -10 22z"/>
<path d="M4675 4823 c-16 -2 -67 -15 -113 -29 -198 -60 -533 -129 -672 -140
-41 -3 -102 -14 -135 -24 -33 -11 -91 -26 -128 -35 -40 -9 -83 -26 -104 -43
l-37 -27 35 -6 c23 -3 38 -1 46 9 14 16 137 61 168 61 11 0 -11 -12 -50 -27
-104 -39 -54 -39 98 1 73 19 186 47 252 62 293 65 466 108 550 135 50 17 109
35 133 40 23 6 42 15 42 20 0 10 -27 11 -85 3z"/>
<path d="M4196 4620 c-323 -81 -592 -152 -597 -157 -6 -6 -6 -20 1 -37 5 -15
10 -57 11 -94 l1 -67 18 59 c11 33 17 63 14 68 -8 13 33 50 58 53 13 2 95 23
183 48 221 63 361 98 671 167 147 32 268 61 270 63 5 5 -26 47 -34 46 -4 0
-272 -67 -596 -149z"/>
<path d="M3512 4703 c-64 -23 -44 -26 24 -4 32 10 50 19 39 19 -11 0 -39 -6
-63 -15z"/>
<path d="M3425 4670 c-16 -7 -17 -9 -3 -9 9 -1 20 4 23 9 7 11 7 11 -20 0z"/>
<path d="M3290 4627 c-30 -11 -35 -17 -33 -42 3 -42 33 -62 91 -63 48 -2 50 0
54 27 5 32 -14 62 -49 80 -12 6 -23 11 -25 10 -2 0 -19 -6 -38 -12z"/>
<path d="M4894 4093 c-77 -90 -184 -239 -184 -256 0 -57 17 -40 131 127 66 96
119 177 119 180 0 17 -22 0 -66 -51z"/>
<path d="M3283 2996 c-34 -9 -56 -26 -104 -78 -59 -66 -60 -68 -37 -77 67 -25
63 -27 124 56 31 43 61 83 66 90 14 18 -3 21 -49 9z"/>
<path d="M3055 2933 l-70 -36 39 -13 c21 -8 41 -12 45 -10 13 8 72 96 64 96
-4 -1 -39 -17 -78 -37z"/>
<path d="M2826 2754 c-43 -59 -79 -112 -82 -118 -6 -17 44 -54 345 -260 210
-144 279 -186 292 -179 22 10 171 212 164 223 -2 4 -73 52 -157 106 -133 86
-237 159 -428 300 -25 19 -47 34 -51 34 -3 0 -40 -48 -83 -106z"/>
<path d="M2734 2555 c-19 -29 -20 -27 22 -48 23 -12 34 -13 43 -4 18 18 13 44
-11 61 -30 21 -35 20 -54 -9z"/>
<path d="M2852 2488 c-18 -18 -15 -24 25 -48 31 -18 38 -19 50 -7 13 13 10 18
-20 41 -39 30 -39 30 -55 14z"/>
<path d="M2541 2364 c-46 -63 -82 -116 -80 -118 2 -1 110 -76 239 -166 129
-90 272 -190 318 -223 46 -32 85 -57 86 -56 28 33 166 229 166 235 0 5 -73 59
-163 121 -89 62 -230 159 -314 217 -84 59 -156 106 -160 106 -4 0 -46 -52 -92
-116z"/>
<path d="M2456 2175 c-16 -24 -16 -25 20 -40 28 -11 40 -12 50 -4 20 16 17 28
-8 50 -31 25 -43 24 -62 -6z"/>
<path d="M2570 2110 c-17 -11 -16 -12 37 -39 52 -26 64 -12 19 23 -39 30 -36
29 -56 16z"/>
<path d="M2282 2008 c-38 -51 -77 -106 -87 -121 l-18 -29 33 -26 c34 -26 119
-85 431 -296 86 -58 165 -106 175 -106 12 0 45 36 92 100 40 55 75 106 78 114
3 8 -8 24 -28 38 -72 54 -598 418 -603 418 -3 0 -36 -42 -73 -92z"/>
<path d="M2067 1707 c-85 -28 -89 -31 -127 -87 -39 -57 -41 -58 -72 -49 -17 5
-33 8 -34 6 -12 -14 -74 -118 -76 -128 -2 -8 19 -16 60 -24 l62 -12 107 123
c80 92 110 121 119 113 21 -18 66 -6 87 23 l20 27 -24 20 c-13 11 -26 20 -29
19 -3 -1 -45 -14 -93 -31z"/>
<path d="M2211 1641 c-38 -35 -38 -43 -4 -59 25 -11 30 -10 57 18 29 29 29 30
11 50 -24 26 -27 26 -64 -9z"/>
<path d="M1542 1030 c-12 -5 -38 -20 -57 -33 l-35 -24 137 -6 c138 -6 236 -22
329 -52 86 -29 225 -95 283 -134 93 -64 100 -85 10 -30 -121 73 -211 117 -272
133 -83 22 -240 28 -402 17 l-150 -11 -27 -32 c-16 -18 -28 -37 -28 -43 1 -5
11 3 24 19 23 27 25 28 123 27 248 -1 511 -77 691 -200 85 -58 152 -146 152
-201 0 -25 11 -25 43 0 35 28 40 25 22 -11 -23 -43 -90 -82 -207 -120 -100
-32 -101 -32 -252 -26 -115 5 -174 12 -250 32 -92 24 -276 95 -303 117 -18 15
-25 9 -91 -69 -60 -72 -60 -73 -46 -102 14 -29 90 -68 194 -99 117 -36 437
-62 542 -43 175 30 356 132 432 244 33 47 40 67 44 117 14 198 -133 354 -436
460 -176 63 -404 96 -470 70z m818 -414 c0 -12 -14 5 -31 39 -8 16 -6 15 10
-4 12 -13 21 -28 21 -35z"/>
<path d="M1087 289 c-3 -13 -1 -19 6 -16 15 5 22 37 9 37 -5 0 -12 -9 -15 -21z"/>
</g>
</svg>
