<?xml version="1.0" standalone="no"?>
<!DOCTYPE svg PUBLIC "-//W3C//DTD SVG 20010904//EN"
 "http://www.w3.org/TR/2001/REC-SVG-20010904/DTD/svg10.dtd">
<svg version="1.0" xmlns="http://www.w3.org/2000/svg"
 width="512.000000pt" height="512.000000pt" viewBox="0 0 512.000000 512.000000"
 preserveAspectRatio="xMidYMid meet">
<metadata>
Created by potrace 1.16, written by Peter Selinger 2001-2019
</metadata>
<g transform="translate(0.000000,512.000000) scale(0.100000,-0.100000)"
fill="#f2f2f2" stroke="none">
<path d="M2475 5044 c-111 -41 -162 -53 -290 -69 -127 -15 -162 -23 -210 -49
-16 -9 -40 -16 -52 -16 -36 0 -136 -42 -308 -129 -88 -45 -163 -81 -167 -81
-4 0 -69 -27 -145 -61 -306 -135 -337 -154 -548 -334 -60 -52 -187 -159 -280
-238 -252 -213 -338 -328 -354 -473 -5 -44 -9 -90 -9 -104 0 -43 27 -166 43
-196 8 -16 15 -37 15 -46 0 -26 77 -87 155 -123 94 -44 169 -68 348 -115 147
-38 226 -64 291 -96 64 -32 155 -100 159 -119 2 -11 21 -92 40 -180 34 -151
72 -274 99 -320 6 -11 43 -76 81 -145 97 -176 165 -288 202 -335 17 -22 62
-89 99 -148 37 -60 104 -157 148 -215 80 -105 148 -222 148 -253 0 -9 22 -60
48 -115 27 -54 64 -139 82 -189 18 -49 55 -144 82 -210 28 -66 60 -145 72
-175 37 -92 148 -243 233 -319 44 -39 78 -57 148 -82 49 -17 113 -34 140 -37
28 -2 56 -9 63 -15 9 -7 16 -7 24 1 6 6 30 9 58 5 25 -3 87 0 136 6 101 13
181 48 280 124 86 66 244 248 284 327 13 25 35 63 50 85 14 22 34 63 44 90 10
28 31 77 47 110 27 58 76 228 106 370 8 39 23 104 33 145 59 233 120 552 120
632 0 24 7 80 15 125 8 45 15 99 16 120 2 74 31 269 54 369 13 56 27 125 31
153 6 50 9 53 120 151 62 55 151 144 198 198 82 94 122 129 133 118 25 -24
237 162 325 286 17 24 53 64 80 90 l50 46 -4 164 c-4 144 -8 173 -32 248 -30
92 -84 195 -126 244 -15 17 -35 46 -44 64 -9 17 -18 32 -19 32 -1 0 -32 11
-69 24 -63 23 -179 93 -194 117 -8 14 -252 131 -344 166 -36 13 -108 41 -160
62 -115 46 -210 78 -395 132 -77 22 -210 62 -295 89 -85 27 -168 52 -185 55
-16 4 -52 12 -80 20 -65 19 -216 34 -385 40 -127 5 -139 4 -205 -21z m470 -65
c44 -1 83 -11 145 -36 152 -62 272 -102 450 -148 113 -29 258 -78 410 -136
218 -85 250 -101 439 -217 112 -68 222 -132 245 -140 25 -9 72 -46 123 -95 79
-77 82 -83 117 -182 35 -99 36 -104 36 -253 0 -107 -4 -163 -14 -186 -17 -40
-229 -231 -294 -265 -26 -13 -108 -82 -182 -154 -125 -120 -364 -375 -396
-423 -8 -12 -32 -107 -54 -211 -34 -164 -40 -214 -45 -364 -6 -211 -8 -226
-51 -457 -62 -338 -115 -535 -218 -804 l-94 -247 -87 -103 c-125 -149 -199
-210 -335 -276 l-115 -57 -185 1 c-181 0 -186 1 -243 28 -46 22 -78 50 -155
136 -87 98 -99 116 -120 182 -12 40 -77 186 -143 325 -90 189 -131 288 -163
396 -24 79 -52 157 -62 173 -11 16 -63 80 -117 144 -137 159 -199 249 -362
520 -137 227 -165 289 -165 360 0 68 -51 235 -100 325 l-49 90 -193 96 c-163
82 -211 101 -308 124 -125 29 -353 115 -385 146 -12 10 -36 66 -55 124 l-34
105 18 77 c26 110 64 181 155 297 123 155 216 226 606 466 131 80 222 129 265
142 65 20 336 133 355 148 28 22 241 122 320 149 50 17 99 35 110 40 50 23
186 60 240 65 33 3 132 28 220 56 l160 50 125 -5 c69 -3 152 -6 185 -6z"/>
<path d="M2745 4823 c-11 -3 -69 -20 -130 -38 -60 -18 -144 -38 -185 -45 -41
-6 -85 -16 -98 -21 -13 -5 -34 -9 -48 -9 -65 0 -234 -67 -371 -146 -46 -27
-58 -60 -43 -126 7 -30 22 -73 34 -97 19 -38 30 -46 96 -75 42 -18 123 -64
180 -103 58 -39 128 -83 155 -99 28 -16 82 -62 121 -102 82 -84 72 -84 196 -5
79 50 94 71 79 116 -12 35 -57 57 -199 96 -40 11 -99 36 -131 55 -32 20 -63
36 -68 36 -5 0 -28 14 -51 32 -40 31 -55 69 -33 82 5 4 58 -12 118 -33 150
-54 201 -66 236 -52 61 24 17 73 -135 149 -56 28 -147 64 -200 79 l-97 27 81
38 c100 47 137 48 231 7 65 -29 77 -31 156 -27 65 4 100 11 142 31 31 15 94
35 140 45 95 21 109 19 319 -29 106 -25 155 -42 230 -82 52 -27 104 -58 116
-69 12 -10 51 -30 87 -43 37 -13 86 -37 109 -52 24 -16 56 -35 73 -43 118 -59
487 -549 547 -727 15 -46 28 -91 28 -99 0 -8 6 -24 13 -37 6 -12 13 -23 14
-25 6 -13 72 40 146 117 78 81 87 94 87 128 0 21 5 54 11 73 15 49 13 153 -5
233 -13 63 -49 152 -65 161 -19 12 -61 -47 -61 -86 0 -18 -5 -28 -14 -28 -26
0 -130 114 -186 203 -44 71 -65 95 -115 127 -53 34 -233 113 -380 165 -27 10
-135 49 -240 87 -152 56 -218 75 -330 93 -77 13 -169 36 -205 50 -136 55 -209
75 -273 74 -34 -1 -71 -3 -82 -6z"/>
<path d="M2955 4535 c-53 -14 -84 -27 -125 -50 -79 -45 -67 -127 41 -266 l59
-77 -42 -34 -41 -34 14 -37 c22 -61 41 -73 96 -59 62 17 66 8 5 -12 -120 -40
-277 -172 -365 -309 -36 -55 -38 -61 -26 -90 16 -42 68 -120 85 -130 8 -4 14
-13 14 -18 0 -18 -20 1 -81 78 l-59 76 0 83 c0 64 -3 84 -14 84 -8 0 -16 -15
-20 -37 -3 -21 -10 -62 -15 -91 -21 -112 22 -240 106 -316 30 -26 52 -50 49
-53 -8 -9 -50 20 -103 70 -29 28 -56 48 -59 44 -13 -13 31 -66 192 -230 l171
-174 88 -28 c70 -22 99 -37 135 -71 41 -38 53 -44 96 -45 59 -2 164 42 230 97
24 19 81 55 127 80 76 40 87 50 116 102 18 31 41 72 52 89 13 21 18 40 14 54
l-7 21 -25 -24 c-14 -12 -47 -56 -73 -96 -42 -64 -56 -77 -107 -101 -32 -16
-95 -53 -139 -84 -141 -96 -205 -111 -246 -56 -28 38 -115 93 -181 115 -26 9
-47 17 -45 19 4 4 124 -11 163 -21 17 -4 53 -23 80 -42 42 -29 56 -33 91 -29
60 6 139 46 240 120 113 83 125 95 163 165 18 31 46 75 64 97 18 22 40 52 50
65 l17 25 -1 -50 c-2 -77 -3 -76 26 -63 14 6 25 15 25 20 0 4 13 37 30 71 36
77 50 192 31 259 -15 54 -5 83 49 148 38 45 40 52 40 112 0 62 -22 161 -41
184 -5 7 -23 14 -39 18 -35 6 -63 34 -103 99 -17 28 -45 56 -75 73 -26 14 -57
36 -69 47 -12 11 -29 17 -38 13 -14 -5 -13 -10 4 -45 12 -22 34 -60 51 -84 16
-25 30 -58 30 -74 0 -36 -34 -202 -60 -293 -66 -233 -96 -323 -128 -385 -40
-75 -39 -74 -237 -210 -64 -44 -126 -90 -137 -102 -16 -17 -25 -20 -34 -12 -7
6 -46 15 -86 21 -40 5 -75 11 -77 14 -2 2 14 32 36 66 21 35 42 71 46 80 6 18
19 27 171 119 119 72 217 185 239 274 14 55 32 155 43 230 2 17 11 59 20 95 8
36 19 97 24 136 4 38 13 87 19 109 17 61 -15 173 -35 121 -3 -7 -20 -76 -38
-152 -19 -76 -43 -170 -54 -209 -10 -38 -34 -131 -52 -205 -18 -74 -37 -144
-43 -154 -29 -57 -149 -173 -224 -218 l-63 -37 14 32 c7 18 27 54 45 81 17 28
31 55 31 60 0 6 32 40 70 76 65 60 71 69 85 130 21 88 62 224 86 284 10 27 19
59 19 72 0 13 9 47 21 76 11 29 32 88 46 130 22 68 23 80 11 105 -10 21 -23
30 -53 35 -22 3 -60 11 -85 16 -157 34 -244 39 -325 17z"/>
<path d="M1623 4446 c-39 -19 -105 -57 -146 -85 -85 -58 -228 -127 -402 -195
-157 -61 -185 -75 -334 -175 -179 -119 -240 -177 -295 -278 -50 -91 -65 -133
-47 -133 6 0 11 -9 11 -19 0 -25 19 -31 98 -31 69 -1 147 -15 267 -48 158 -44
397 -72 620 -72 90 0 119 4 152 20 39 18 129 107 161 159 9 15 39 51 66 82 28
30 64 72 79 92 24 31 34 37 67 37 55 0 126 33 133 62 4 12 7 64 7 114 0 81 -3
97 -30 150 -24 49 -41 66 -97 104 -87 57 -98 71 -124 155 -12 39 -27 76 -32
83 -17 22 -80 13 -154 -22z"/>
<path d="M4024 4006 c-3 -8 -1 -23 4 -33 17 -33 22 -86 23 -246 1 -155 1 -158
-25 -195 -78 -110 -116 -173 -116 -191 0 -33 26 -25 62 20 18 23 57 68 86 100
28 32 52 63 52 69 0 5 5 10 10 10 6 0 10 -36 10 -88 0 -85 -2 -92 -45 -178
-25 -49 -54 -105 -65 -124 -10 -19 -21 -52 -23 -73 -3 -23 -17 -53 -36 -78
-22 -26 -30 -46 -26 -59 10 -30 32 -16 129 83 68 70 97 108 125 166 l36 76 -3
130 c-5 179 -34 370 -61 399 -12 12 -28 44 -36 72 -17 57 -71 154 -86 154 -5
0 -12 -6 -15 -14z"/>
<path d="M2140 3779 c0 -6 11 -20 25 -31 14 -11 30 -29 36 -41 15 -28 39 -220
48 -382 10 -192 23 -214 297 -508 229 -245 270 -282 353 -319 37 -16 86 -39
111 -51 41 -19 200 -41 200 -27 0 3 -21 11 -46 18 -25 7 -82 26 -127 44 -72
27 -92 41 -158 107 -41 42 -95 105 -119 141 -24 36 -84 110 -134 166 -293 324
-282 309 -295 421 -15 137 -37 263 -54 324 -13 45 -26 63 -71 102 -57 49 -66
54 -66 36z"/>
<path d="M1992 3701 c-10 -6 -9 -17 2 -48 27 -77 30 -146 8 -189 -11 -21 -29
-47 -40 -58 -21 -18 -21 -18 -29 10 -13 49 -7 158 12 193 18 35 10 56 -17 46
-8 -3 -21 -17 -28 -29 -7 -13 -22 -29 -35 -36 -39 -21 -92 -102 -118 -180 -79
-236 -198 -615 -212 -675 -27 -111 -22 -139 53 -297 25 -54 42 -101 38 -105
-12 -12 -83 73 -96 113 -12 34 -24 41 -49 25 -16 -10 -9 -34 43 -154 103 -236
183 -339 365 -462 94 -63 103 -67 133 -59 32 9 33 12 33 59 0 49 0 50 30 48
132 -9 140 -8 206 24 74 37 146 107 214 208 l46 70 -3 78 c-3 75 -5 80 -38
111 -19 17 -46 39 -58 48 l-24 16 17 110 c23 147 14 176 -89 287 -196 213
-219 256 -217 399 1 55 4 109 7 121 8 33 -13 171 -32 208 -18 35 -68 95 -94
114 -9 6 -22 8 -28 4z"/>
<path d="M585 3424 c-122 -25 -216 -49 -242 -63 -32 -15 -43 -31 -23 -31 6 0
10 -11 10 -25 0 -31 11 -32 127 -3 115 28 257 28 411 -2 97 -19 137 -21 275
-17 192 6 228 14 141 34 -32 8 -104 18 -159 23 -143 12 -323 46 -375 69 -42
19 -112 25 -165 15z"/>
<path d="M930 3253 c0 -9 220 -85 285 -98 17 -4 37 -12 45 -19 8 -7 62 -38
120 -68 91 -46 109 -53 132 -44 23 8 26 14 21 35 -8 34 -86 106 -142 133 -29
13 -78 23 -142 28 -53 4 -101 10 -106 13 -5 3 -47 8 -94 11 -47 3 -93 8 -102
12 -9 3 -17 2 -17 -3z"/>
<path d="M1471 3233 c-15 -6 -19 -12 -10 -12 8 -1 28 -19 45 -41 16 -21 35
-42 42 -44 16 -7 43 4 37 14 -3 5 1 12 9 17 13 7 20 31 17 60 -1 16 -107 21
-140 6z"/>
<path d="M3774 2806 c-11 -6 -51 -48 -88 -94 -67 -82 -106 -155 -121 -222 -12
-58 -52 -127 -87 -151 -74 -51 -139 -114 -202 -193 -78 -98 -65 -94 -301 -98
-140 -2 -152 -3 -178 -25 -16 -13 -32 -23 -37 -23 -4 0 -22 -21 -39 -47 -33
-50 -132 -170 -213 -257 -33 -36 -75 -66 -142 -100 -83 -42 -97 -54 -107 -83
-8 -26 -8 -46 1 -81 19 -77 71 -192 91 -203 15 -8 19 -21 19 -63 0 -35 5 -58
15 -66 8 -7 15 -23 15 -35 0 -28 32 -41 115 -49 153 -14 216 -26 262 -50 27
-13 54 -30 60 -38 13 -15 39 -192 48 -318 6 -75 28 -170 41 -170 3 0 18 7 33
15 26 13 30 22 40 97 7 46 19 116 27 157 8 40 14 116 14 169 0 184 32 64 65
-241 4 -37 12 -60 21 -64 8 -3 16 -4 18 -2 8 8 36 270 42 395 6 124 6 134 -15
167 -11 19 -21 41 -21 49 0 14 86 68 109 68 6 0 14 -12 17 -26 6 -21 11 -25
32 -19 51 13 80 47 102 118 12 38 43 114 71 169 l49 101 0 -94 c0 -109 12
-139 45 -115 19 14 20 27 21 243 0 125 4 244 8 265 13 60 86 114 86 62 0 -17
1 -17 36 -4 25 10 26 14 21 53 -4 23 -9 52 -11 64 -14 66 -17 235 -6 308 20
129 56 278 79 323 23 46 26 74 11 103 -12 21 -16 22 -46 5z m-465 -1115 c37
-46 38 -62 10 -136 -25 -66 -40 -77 -139 -100 -41 -10 -83 -22 -92 -27 -10 -4
-59 -20 -110 -33 -326 -88 -322 -88 -389 -46 l-46 29 3 58 c5 114 7 117 94
173 43 28 88 51 99 51 11 0 31 4 44 9 14 6 63 15 109 21 45 6 88 15 93 20 12
10 57 14 197 18 l96 2 31 -39z"/>
<path d="M3120 1650 c-30 -4 -86 -11 -125 -14 -117 -12 -238 -37 -276 -58 -35
-20 -89 -89 -89 -116 0 -7 26 9 57 37 38 34 69 53 92 56 20 4 54 10 76 15 34
8 291 26 335 24 8 0 27 -3 43 -7 24 -7 27 -5 27 16 0 13 -8 31 -18 40 -20 18
-33 19 -122 7z"/>
<path d="M2922 1490 c-128 -7 -168 -20 -118 -40 38 -14 142 -13 206 4 30 7 76
17 102 20 26 4 50 11 53 17 7 10 -48 10 -243 -1z"/>
<path d="M2571 2663 c-14 -9 -37 -30 -51 -47 -26 -29 -27 -31 -13 -65 14 -35
69 -101 84 -101 4 0 36 -17 71 -39 186 -113 418 -202 418 -161 0 6 -3 10 -7
10 -12 0 -169 117 -254 187 -76 63 -204 200 -204 217 0 17 -20 17 -44 -1z"/>
</g>
</svg>
