<?xml version="1.0" standalone="no"?>
<!DOCTYPE svg PUBLIC "-//W3C//DTD SVG 20010904//EN"
 "http://www.w3.org/TR/2001/REC-SVG-20010904/DTD/svg10.dtd">
<svg version="1.0" xmlns="http://www.w3.org/2000/svg"
 width="512.000000pt" height="512.000000pt" viewBox="0 0 512.000000 512.000000"
 preserveAspectRatio="xMidYMid meet">
<metadata>
Created by potrace 1.16, written by Peter Selinger 2001-2019
</metadata>
<g transform="translate(0.000000,512.000000) scale(0.100000,-0.100000)"
fill="#f2f2f2" stroke="none">
<path d="M2945 5074 c-11 -3 -40 -12 -64 -21 -36 -13 -45 -13 -52 -2 -19 29
-46 -26 -59 -118 -14 -99 -9 -458 7 -474 6 -6 12 65 17 193 7 214 24 345 47
359 8 4 38 11 67 15 75 9 400 -2 441 -15 19 -6 36 -9 38 -7 11 11 -14 37 -50
52 -34 15 -74 19 -207 20 -91 2 -174 0 -185 -2z"/>
<path d="M3404 4921 c4 -28 5 -51 2 -51 -3 0 -17 5 -32 10 -34 13 -384 70
-427 70 l-32 -1 30 -16 c17 -9 118 -40 225 -69 226 -61 250 -69 250 -86 0 -7
3 -24 7 -37 4 -16 3 -22 -5 -18 -16 10 -256 63 -346 77 -43 6 -95 9 -115 5
l-36 -8 52 -23 c29 -13 96 -35 150 -49 158 -42 266 -76 291 -91 16 -11 22 -24
22 -53 l0 -38 -82 33 c-102 41 -263 82 -349 90 -62 5 -63 5 -37 -11 15 -8 92
-38 170 -66 176 -63 289 -117 296 -141 6 -24 22 -23 22 1 0 11 5 21 11 23 7 2
7 12 0 31 -14 37 -14 130 0 144 8 8 7 20 -5 44 -18 36 -22 109 -5 109 12 0 2
41 -12 50 -5 3 -12 30 -16 60 -5 31 -14 55 -22 58 -11 4 -13 -5 -7 -47z"/>
<path d="M2612 4521 c-7 -4 -14 -15 -16 -23 -2 -19 -43 -74 -86 -117 -30 -30
-35 -31 -114 -31 -82 0 -226 -22 -406 -61 -95 -21 -145 -43 -136 -58 8 -12
164 -68 211 -76 90 -14 94 -22 33 -74 -52 -45 -98 -116 -98 -153 0 -30 32
-102 50 -113 6 -4 10 9 10 33 0 21 5 54 11 73 25 76 142 138 237 125 101 -15
224 -67 279 -118 17 -17 36 -27 42 -24 17 11 -3 39 -59 84 -28 23 -50 43 -48
46 2 3 -13 22 -33 43 -73 76 -129 154 -129 178 0 21 14 32 105 76 80 39 110
59 126 85 24 39 20 37 53 23 40 -19 73 -5 79 33 4 23 0 37 -11 46 -18 14 -80
16 -100 3z m85 -38 c7 -9 10 -20 7 -24 -14 -24 -84 8 -84 38 0 20 60 10 77
-14z"/>
<path d="M2880 4511 c-7 -13 -7 -28 0 -45 16 -43 70 -28 70 19 0 43 -50 62
-70 26z"/>
<path d="M3025 4490 c-9 -15 13 -40 37 -40 14 0 19 6 16 23 -3 24 -41 36 -53
17z"/>
<path d="M3213 4391 c-65 -19 -93 -35 -93 -55 0 -20 -66 -149 -98 -193 -43
-57 -176 -169 -233 -196 -46 -20 -59 -38 -59 -79 0 -10 5 -18 10 -18 6 0 20
-9 31 -19 19 -18 130 -81 142 -81 3 0 14 27 25 60 23 67 141 246 200 302 82
79 150 85 322 32 277 -85 326 -89 402 -29 57 46 95 47 124 2 12 -18 24 -42 28
-55 9 -26 24 -29 33 -6 9 25 -21 76 -85 146 -90 96 -268 183 -412 202 l-45 6
49 -26 c51 -27 156 -124 156 -144 0 -7 -23 9 -51 34 -28 26 -90 65 -137 89
-77 38 -94 42 -166 44 -55 2 -101 -3 -143 -16z"/>
<path d="M2665 4351 c-38 -9 -101 -28 -138 -42 -68 -24 -69 -24 -64 -56 7 -43
31 -91 68 -136 35 -43 172 -157 189 -157 24 0 119 71 195 147 57 57 92 103
123 161 39 74 41 82 25 90 -33 17 -321 12 -398 -7z"/>
<path d="M3955 4273 c6 -5 27 -21 47 -36 42 -31 88 -117 91 -171 l2 -37 40 7
c22 4 49 8 60 9 18 1 45 11 97 33 25 10 12 23 -71 72 -96 55 -294 147 -266
123z"/>
<path d="M3330 4075 c-16 -20 2 -65 25 -65 28 0 55 20 55 40 0 35 -57 53 -80
25z"/>
<path d="M3570 4042 c-18 -14 -22 -25 -16 -45 7 -31 36 -36 60 -11 19 18 20
28 6 55 -13 24 -22 24 -50 1z"/>
<path d="M3733 4028 c2 -7 10 -13 17 -13 7 0 15 6 18 13 2 7 -5 12 -18 12 -13
0 -20 -5 -17 -12z"/>
<path d="M3789 3984 c-35 -31 -93 -70 -129 -87 -96 -44 -210 -42 -365 8 -14 4
-12 2 5 -9 37 -23 21 -19 -70 14 -119 44 -152 39 -89 -15 42 -35 99 -63 184
-92 l70 -24 -124 5 c-103 4 -128 8 -151 24 -17 13 -32 17 -40 12 -11 -7 -8
-25 14 -97 31 -96 79 -216 101 -250 l14 -21 51 19 c28 10 59 19 70 19 11 0 20
3 20 8 -1 23 -23 33 -89 39 -82 7 -88 20 -19 44 34 11 44 19 38 28 -6 10 -22
12 -64 7 -68 -9 -75 6 -16 33 34 15 38 20 27 34 -10 13 -19 15 -52 7 -50 -11
-66 6 -31 35 18 14 22 24 16 36 -8 14 -3 14 53 2 87 -18 268 -17 314 2 19 8
37 15 39 15 2 0 1 -7 -2 -15 -4 -10 0 -15 15 -15 28 0 27 -27 -1 -36 -43 -13
-49 -40 -12 -54 30 -12 23 -30 -11 -30 -12 0 -26 -7 -29 -16 -9 -22 -9 -22 22
-26 37 -4 34 -22 -5 -26 -24 -2 -33 -9 -38 -29 -8 -32 -6 -33 43 -40 l40 -5
10 53 c6 30 16 104 23 164 6 61 16 118 21 127 4 9 31 28 59 42 43 22 50 23 45
8 -20 -69 -17 -185 5 -151 5 8 9 28 9 46 0 65 36 153 79 192 40 37 54 71 28
71 -8 0 -42 -25 -78 -56z"/>
<path d="M2135 3821 c3 -10 18 -79 34 -152 27 -133 28 -136 74 -183 123 -126
132 -141 150 -256 15 -90 29 -132 98 -290 101 -229 159 -369 159 -381 0 -5 -7
-9 -15 -9 -8 0 -12 -6 -9 -14 6 -16 -24 -26 -80 -26 -39 0 -156 46 -156 61 0
14 22 11 83 -10 32 -11 57 -19 57 -17 0 1 -24 19 -53 39 -30 21 -64 49 -78 63
l-24 25 27 -10 c14 -5 54 -24 87 -40 33 -17 63 -31 67 -31 3 0 -33 41 -80 91
l-86 92 0 74 0 74 -104 -56 c-60 -32 -107 -51 -110 -46 -4 6 23 42 60 80 l66
70 -56 95 c-31 53 -65 100 -76 106 -27 14 -25 28 5 42 19 9 25 19 25 45 0 29
-4 34 -30 40 -44 8 -117 93 -195 228 -38 63 -72 115 -77 115 -5 0 -34 -23 -63
-51 l-55 -51 -56 51 c-30 28 -64 51 -75 51 -11 0 -37 -9 -59 -20 l-39 -20 -57
40 c-32 22 -65 40 -74 40 -9 0 -69 -48 -134 -106 -65 -59 -122 -104 -130 -101
-17 7 -58 -33 -176 -168 -52 -60 -105 -118 -117 -129 -33 -32 -93 -107 -93
-117 0 -15 62 -77 188 -190 l122 -110 0 -52 c0 -48 15 -189 39 -362 5 -38 17
-126 26 -195 9 -68 20 -130 23 -136 5 -9 16 -9 44 1 l38 12 5 -36 c9 -59 20
-99 64 -224 24 -68 39 -126 36 -137 -3 -11 -19 -27 -35 -36 -96 -58 -93 -236
6 -323 30 -27 34 -36 34 -78 0 -71 7 -86 51 -111 35 -20 39 -27 39 -61 0 -77
-13 -161 -25 -161 -8 0 -9 15 -4 52 10 73 10 91 -1 108 -21 33 -33 -7 -31
-102 l2 -94 -38 -21 c-21 -12 -55 -37 -77 -55 l-38 -33 21 -70 c12 -39 40
-107 64 -152 46 -93 44 -91 219 -130 90 -19 121 -11 133 34 9 38 23 53 51 53
20 0 23 -6 26 -42 3 -40 5 -41 51 -55 53 -15 81 -7 92 27 4 13 13 19 23 16 74
-20 74 -21 37 -56 -14 -13 -25 -28 -25 -33 0 -18 121 -154 148 -167 40 -18 75
-28 199 -55 62 -13 150 -36 197 -50 l84 -27 116 53 c64 30 116 58 116 62 0 5
-9 21 -19 36 -19 27 -19 27 0 39 10 7 19 18 19 25 0 24 -44 55 -85 60 -29 4
-48 15 -70 39 -16 19 -59 67 -94 106 -60 69 -65 72 -107 72 -40 0 -46 3 -70
41 -14 22 -23 43 -20 46 16 17 261 -53 400 -114 79 -35 85 -36 231 -40 l150
-5 65 40 c37 23 66 48 68 58 3 24 -72 89 -113 98 -17 4 -93 41 -170 82 -119
64 -235 114 -266 114 -4 0 -23 -14 -41 -30 -18 -16 -36 -30 -40 -30 -4 0 -25
24 -47 54 -63 85 -86 99 -150 91 -30 -4 -60 -9 -67 -12 -8 -3 -24 17 -42 54
-28 55 -33 59 -98 85 -123 47 -131 47 -206 -10 l-66 -49 -26 86 c-72 240 -98
417 -101 696 -2 194 -10 375 -20 442 -2 12 -7 86 -11 163 l-7 140 26 0 c41 0
75 -17 133 -67 48 -40 215 -238 328 -387 62 -83 176 -193 254 -247 84 -59 267
-148 362 -177 134 -41 229 -55 345 -50 60 3 119 9 129 13 19 8 19 9 0 16 -12
5 3 8 41 8 73 1 174 26 195 48 13 14 13 15 -5 9 -126 -45 -222 -44 -328 3 -72
32 -357 133 -357 126 0 -9 128 -80 218 -121 108 -49 100 -53 -44 -24 -182 38
-340 100 -489 192 -84 53 -231 175 -221 185 2 2 26 -11 53 -30 67 -48 103 -70
103 -65 0 3 -46 39 -103 81 -77 56 -128 105 -204 194 -236 275 -354 359 -518
369 l-80 5 48 -26 47 -25 0 -63 c1 -34 5 -108 10 -164 5 -55 12 -136 16 -179
5 -59 4 -75 -5 -70 -9 6 -11 -27 -6 -146 3 -84 9 -174 13 -199 5 -26 4 -57 -1
-70 -5 -13 -6 -57 -2 -96 3 -40 4 -73 1 -73 -8 0 -45 174 -62 290 -12 90 -15
178 -12 402 2 157 2 285 0 284 -1 -2 -11 -55 -22 -117 -30 -170 -28 -432 5
-682 31 -235 50 -355 77 -471 16 -70 18 -93 9 -113 -13 -28 -8 -38 51 -107
l34 -38 119 -6 c118 -5 120 -5 145 -35 l26 -30 124 6 c69 3 139 9 155 13 53
12 14 -11 -67 -40 -43 -16 -78 -32 -78 -36 0 -5 30 -25 66 -45 64 -36 66 -36
117 -24 29 6 69 20 89 30 47 24 44 24 64 -6 16 -25 16 -27 -6 -50 -13 -14 -22
-26 -19 -28 2 -1 31 -13 64 -26 33 -14 104 -46 157 -72 l97 -49 113 9 c95 8
115 12 129 30 10 12 23 21 30 21 14 0 79 -48 79 -59 0 -4 -20 -17 -45 -29 -41
-20 -61 -22 -195 -22 l-149 0 -113 44 c-150 58 -240 84 -334 96 -42 6 -84 16
-93 23 -23 20 -178 77 -207 77 -40 0 -82 -27 -110 -72 l-26 -41 41 -81 c23
-45 51 -93 64 -108 22 -26 22 -26 112 -18 50 5 125 9 168 9 70 1 80 -2 102
-24 36 -35 31 -45 -24 -45 -26 0 -62 -5 -80 -11 -29 -10 -31 -14 -31 -57 0
-26 4 -53 9 -61 8 -13 152 -50 197 -51 12 0 49 20 83 45 51 38 68 45 106 45
50 0 57 -12 23 -39 l-22 -18 22 -19 c29 -25 28 -28 -15 -44 -21 -7 -54 -23
-73 -36 -57 -37 -79 -38 -176 -6 -49 17 -138 40 -199 52 -105 20 -215 60 -215
77 0 4 -21 30 -45 56 l-45 48 30 25 c38 33 38 49 -2 74 -45 27 -101 26 -120
-2 -14 -22 -16 -22 -41 -5 -15 9 -29 30 -33 45 -11 51 -12 52 -60 52 -42 0
-51 -4 -86 -41 -43 -45 -36 -45 -181 -7 l-78 21 -26 56 c-19 43 -52 141 -53
159 0 9 150 -15 308 -49 51 -11 92 -12 92 -1 0 4 -50 39 -111 77 l-110 70 6
40 c29 186 35 224 35 252 0 32 -1 33 -38 31 -22 0 -49 6 -65 17 -25 16 -27 23
-27 81 0 62 0 63 -35 80 -49 23 -90 107 -82 170 9 87 74 139 150 122 47 -10
99 -46 125 -86 13 -20 17 -45 15 -112 l-2 -85 25 28 c33 38 34 124 2 187 -28
56 -95 104 -143 104 -32 0 -35 3 -56 60 -29 79 -88 316 -93 370 -5 61 -8 64
-63 56 -26 -5 -50 -6 -53 -3 -3 3 -7 145 -10 317 -5 285 -7 314 -24 341 -11
17 -74 84 -141 150 -67 66 -125 130 -129 141 -10 33 31 40 64 11 163 -147 295
-278 331 -327 46 -63 56 -70 65 -45 16 40 -125 191 -296 319 -58 43 -106 81
-107 85 -1 3 30 32 70 64 40 31 110 93 157 136 l85 79 -26 27 -26 27 91 92 91
93 35 -19 c19 -10 125 -81 235 -158 168 -118 321 -210 349 -210 33 0 -88 128
-189 200 -64 46 -74 57 -59 65 9 6 37 26 62 46 l46 36 86 -122 c105 -151 144
-195 170 -195 11 0 20 -7 20 -15 0 -8 -4 -15 -10 -15 -5 0 -50 -30 -100 -67
-50 -38 -113 -84 -140 -103 -48 -34 -64 -60 -37 -60 7 0 31 -36 52 -81 41 -84
62 -95 26 -13 -12 26 -19 49 -17 51 2 2 32 -14 66 -36 34 -22 80 -48 101 -58
32 -15 42 -27 59 -71 11 -29 20 -65 20 -80 0 -16 6 -35 13 -44 18 -24 322
-226 349 -233 15 -4 46 6 90 29 l67 36 16 -22 c8 -13 15 -30 15 -39 0 -19 -45
-59 -66 -59 -15 0 -77 -50 -70 -57 3 -3 18 4 34 16 41 29 76 27 101 -5 12 -15
21 -33 21 -40 0 -8 4 -14 9 -14 17 0 81 42 81 52 0 6 -15 36 -34 67 -40 65
-108 245 -100 264 3 8 -33 97 -79 198 -99 215 -110 247 -136 396 -23 131 -29
142 -141 245 l-80 73 -34 128 c-18 71 -39 133 -47 138 -24 15 -41 11 -34 -10z
m-155 -847 c119 -68 108 -68 -43 0 -32 14 -55 31 -52 36 9 14 8 15 95 -36z
m-223 -966 c-3 -7 -5 -2 -5 12 0 14 2 19 5 13 2 -7 2 -19 0 -25z m53 -553 c0
-76 73 -362 125 -487 6 -15 2 -18 -26 -18 -63 0 -75 8 -92 62 -13 42 -13 49
-1 44 19 -7 19 50 0 141 -21 96 -33 298 -18 289 7 -4 12 -18 12 -31z"/>
<path d="M2405 3702 c-26 -9 -65 -35 -65 -43 0 -4 19 -9 42 -12 23 -3 53 -14
67 -25 33 -24 80 -92 81 -114 0 -25 5 -23 45 20 29 30 34 43 30 66 -3 16 -13
38 -23 49 -38 42 -133 74 -177 59z"/>
<path d="M2840 3668 c16 -17 170 -137 193 -153 30 -19 47 -14 28 9 -16 19
-147 109 -191 131 -19 10 -33 15 -30 13z"/>
<path d="M3656 3523 c5 -61 3 -73 -21 -118 -35 -64 -83 -125 -100 -125 -9 0
-1 -35 26 -122 39 -124 65 -236 55 -245 -8 -8 -67 116 -112 237 l-42 115 -99
12 c-141 16 -212 44 -390 149 -43 25 -112 63 -154 85 l-77 38 -59 -62 c-33
-34 -79 -88 -102 -120 -40 -53 -43 -61 -38 -102 8 -53 63 -199 83 -219 8 -8
54 -27 102 -42 103 -32 228 -93 259 -125 27 -30 80 -122 155 -273 52 -102 72
-132 148 -210 49 -51 120 -118 158 -151 l70 -60 75 4 c54 2 77 -1 83 -10 5 -8
29 -92 54 -189 l45 -175 57 -3 c55 -3 58 -2 101 40 45 42 45 44 37 88 -5 25
-12 98 -16 162 l-7 117 37 43 c31 36 36 48 31 73 -10 46 -22 127 -40 265 -8
69 -20 146 -25 172 -11 53 -68 205 -109 288 -29 56 -54 146 -67 235 -11 83
-98 295 -119 295 -3 0 -2 -30 1 -67z m-748 -127 c4 -21 -29 -58 -141 -157 -59
-53 -84 -69 -107 -69 -49 0 -40 36 28 102 72 70 182 149 202 146 8 -2 16 -12
18 -22z m122 -56 c10 -18 5 -28 -35 -73 -26 -29 -74 -76 -107 -105 -59 -51
-83 -59 -111 -33 -9 9 213 231 230 231 7 0 17 -9 23 -20z m907 -872 c10 -17 4
-51 -10 -60 -25 -15 -61 45 -40 65 11 11 41 8 50 -5z m-377 -99 c16 -29 5 -49
-24 -49 -19 0 -27 7 -32 24 -3 14 -3 30 1 35 11 18 44 12 55 -10z"/>
<path d="M1384 3412 c-27 -20 -73 -54 -103 -75 -69 -50 -59 -59 13 -13 65 42
78 43 138 16 56 -25 225 -120 282 -160 27 -18 57 -30 76 -30 37 0 120 20 120
29 0 3 -42 26 -93 50 -50 24 -139 73 -197 109 -58 36 -123 75 -146 88 l-40 24
-50 -38z"/>
<path d="M1400 3241 c-46 -11 -140 -72 -155 -101 -24 -46 -18 -47 25 -5 35 35
46 39 100 43 85 6 137 -16 199 -84 61 -67 76 -112 75 -221 0 -46 0 -83 2 -83
2 0 15 20 29 43 30 52 33 117 9 197 -33 112 -193 231 -284 211z"/>
<path d="M1326 3011 c-5 -7 2 -11 16 -11 13 0 56 -16 95 -37 69 -35 109 -40
67 -8 -58 45 -165 78 -178 56z"/>
<path d="M1380 2922 c0 -10 91 -55 97 -48 3 3 -18 16 -46 30 -28 15 -51 23
-51 18z"/>
<path d="M2706 2780 c61 -114 217 -371 249 -408 21 -24 24 -25 30 -10 5 11 -4
28 -27 51 -18 18 -59 84 -91 145 -64 124 -163 279 -192 302 -11 9 1 -23 31
-80z"/>
<path d="M2900 2799 c46 -71 65 -124 84 -238 8 -45 17 -85 20 -88 13 -13 46
20 46 46 0 86 -46 225 -93 277 -26 30 -74 64 -91 64 -3 0 12 -27 34 -61z"/>
<path d="M2690 2641 c0 -6 4 -13 10 -16 6 -3 7 1 4 9 -7 18 -14 21 -14 7z"/>
<path d="M1910 2615 c0 -3 33 -29 74 -59 42 -32 118 -106 177 -173 128 -147
244 -260 298 -293 23 -14 85 -53 139 -88 54 -35 106 -61 117 -60 24 4 32 42
14 65 -23 27 -151 108 -256 162 -106 54 -146 87 -252 210 -86 98 -199 194
-261 219 -27 12 -50 19 -50 17z"/>
<path d="M1510 2441 c0 -13 -13 -94 -30 -180 -41 -216 -63 -491 -40 -491 6 0
10 26 10 58 0 63 35 290 46 301 4 3 4 -66 0 -154 -5 -130 -3 -170 9 -213 9
-28 19 -52 23 -52 4 0 17 8 29 18 20 16 21 21 13 102 -5 46 -12 156 -15 245
-6 179 -23 352 -36 375 -6 11 -8 9 -9 -9z"/>
<path d="M1268 2364 c-6 -5 88 -284 99 -294 8 -7 0 29 -39 178 -29 109 -42
135 -60 116z"/>
<path d="M3005 2303 c-28 -7 -72 -39 -122 -87 -51 -48 -58 -71 -9 -28 26 23
51 33 106 42 87 15 140 8 204 -28 74 -40 107 -87 113 -160 5 -53 2 -66 -21
-108 -34 -60 -24 -70 20 -20 54 63 68 180 29 255 -25 48 -100 109 -156 125
-51 15 -122 19 -164 9z"/>
<path d="M3473 2108 c-41 -20 -24 -78 23 -78 48 0 63 47 26 78 -18 14 -20 14
-49 0z"/>
<path d="M2960 2082 l-25 -21 41 6 c29 4 55 -1 89 -16 82 -36 121 -20 45 19
-62 32 -120 36 -150 12z"/>
<path d="M3010 2001 c8 -5 29 -11 45 -14 l30 -6 -30 14 c-34 16 -72 21 -45 6z"/>
<path d="M3455 1908 c4 -40 11 -77 15 -82 4 -4 22 -5 39 -1 l31 7 0 69 c0 68
0 69 -24 63 -13 -3 -34 0 -46 6 l-22 12 7 -74z"/>
<path d="M3606 1918 c14 -47 53 -128 61 -128 20 1 35 18 27 31 -20 33 -86 119
-91 119 -2 0 -1 -10 3 -22z"/>
<path d="M3576 1800 c-8 -50 -22 -56 -160 -71 -55 -7 -105 -15 -110 -20 -12
-10 53 -26 140 -33 62 -5 77 -3 115 17 49 26 54 39 44 103 -8 55 -20 56 -29 4z"/>
<path d="M1358 1453 c-10 -2 -18 -9 -18 -14 0 -5 8 -9 18 -9 9 0 35 -11 57
-25 22 -13 46 -25 53 -25 26 0 10 26 -32 53 -44 27 -47 28 -78 20z"/>
<path d="M1394 1365 c11 -8 25 -15 30 -15 6 0 2 7 -8 15 -11 8 -25 15 -30 15
-6 0 -2 -7 8 -15z"/>
<path d="M1615 993 c11 -101 26 -187 38 -212 8 -15 31 -31 65 -43 29 -11 55
-18 57 -16 13 12 -139 327 -158 328 -4 0 -5 -26 -2 -57z"/>
<path d="M1880 862 c0 -18 75 -81 88 -73 18 11 7 33 -31 59 -34 22 -57 28 -57
14z"/>
<path d="M1870 767 c0 -19 27 -53 36 -45 9 10 -12 58 -26 58 -5 0 -10 -6 -10
-13z"/>
</g>
</svg>
