<?xml version="1.0" standalone="no"?>
<!DOCTYPE svg PUBLIC "-//W3C//DTD SVG 20010904//EN"
 "http://www.w3.org/TR/2001/REC-SVG-20010904/DTD/svg10.dtd">
<svg version="1.0" xmlns="http://www.w3.org/2000/svg"
 width="256.000000pt" height="256.000000pt" viewBox="0 0 256.000000 256.000000"
 preserveAspectRatio="xMidYMid meet">
<metadata>
Created by potrace 1.16, written by Peter Selinger 2001-2019
</metadata>
<g transform="translate(0.000000,256.000000) scale(0.100000,-0.100000)"
fill="#f2f2f2" stroke="none">
<path d="M1625 2277 c-55 -25 -135 -96 -135 -119 0 -12 19 -55 41 -97 126
-230 310 -414 533 -532 99 -53 125 -58 148 -31 29 32 58 101 58 135 0 52 -36
95 -159 188 -178 135 -393 389 -328 389 30 0 247 -191 247 -217 0 -7 15 -23
34 -34 19 -11 71 -69 117 -129 54 -72 89 -110 101 -110 15 0 18 5 12 23 -9 29
-104 155 -179 236 -88 95 -274 260 -319 283 -50 26 -132 33 -171 15z"/>
<path d="M1460 1956 c-32 -40 31 -158 107 -201 25 -14 48 -24 49 -22 2 2 -22
55 -54 118 -57 114 -77 134 -102 105z"/>
<path d="M2030 1924 c0 -16 23 -44 35 -44 18 0 18 5 5 31 -10 17 -40 27 -40
13z"/>
<path d="M1085 1887 c-112 -46 -190 -100 -241 -169 -47 -65 -100 -192 -117
-281 -15 -80 -5 -87 67 -51 70 35 87 28 99 -42 16 -94 59 -144 124 -144 31 0
107 32 117 49 9 15 -54 70 -81 71 -27 0 -73 20 -73 32 0 4 -11 8 -23 8 -13 0
-31 8 -40 18 -19 21 -35 132 -18 132 6 0 21 18 33 40 18 31 29 40 50 40 21 0
29 -7 38 -34 6 -18 35 -62 65 -96 30 -35 55 -67 55 -71 0 -4 12 -14 27 -21 15
-7 34 -26 41 -42 12 -23 18 -27 41 -22 88 21 110 19 178 -15 136 -69 212 -178
200 -286 -13 -118 -137 -168 -270 -109 -71 31 -220 127 -267 172 -35 33 -86
59 -133 68 -47 8 -98 38 -112 67 -8 15 -15 53 -15 84 0 63 -10 68 -78 40 -51
-22 -78 -50 -114 -118 -33 -62 -216 -269 -292 -332 -26 -21 -49 -49 -53 -63
-8 -32 40 -128 68 -137 27 -9 225 82 250 114 15 18 19 34 15 56 -3 16 -9 55
-12 86 -6 51 -4 58 17 73 58 40 128 6 154 -77 10 -28 27 -63 39 -75 19 -22 26
-23 81 -16 76 10 202 7 235 -6 14 -6 81 -21 150 -34 249 -49 377 -21 504 106
67 67 116 155 116 207 0 44 -22 39 -65 -13 -43 -53 -59 -60 -93 -43 -23 10
-27 19 -29 57 -4 101 -12 121 -57 141 -48 21 -243 216 -325 324 -68 91 -85 99
-159 81 -26 -6 -38 -4 -53 10 -31 28 -24 58 27 101 35 29 47 46 50 73 2 19 5
44 6 55 5 31 -37 29 -127 -8z"/>
<path d="M1291 1907 c-14 -18 -8 -46 31 -141 81 -196 276 -399 486 -505 37
-19 75 -31 90 -29 26 3 27 6 30 69 2 45 -1 69 -10 76 -7 5 -62 30 -122 54
-100 40 -116 51 -198 128 -95 90 -126 134 -153 221 -36 114 -60 141 -94 108
-10 -11 -16 -8 -30 10 -15 20 -19 22 -30 9z"/>
<path d="M694 908 c18 -93 18 -115 2 -147 -20 -38 -82 -84 -144 -107 -109 -40
-132 -52 -132 -74 0 -42 147 -172 287 -254 117 -69 94 -77 272 96 114 112 177
165 234 198 42 25 76 49 74 55 -2 5 -28 13 -58 17 -30 4 -92 23 -139 42 -94
40 -130 44 -152 19 -34 -39 -29 -143 6 -143 9 0 31 14 50 30 22 20 46 31 68
32 42 1 98 -11 98 -22 0 -5 -39 -44 -87 -87 -49 -43 -123 -113 -166 -156 -53
-52 -84 -76 -95 -73 -9 3 -36 10 -59 16 -57 14 -55 35 7 55 52 17 82 46 126
120 l25 44 -21 42 c-17 32 -20 52 -16 82 8 47 -4 64 -50 73 -44 8 -71 42 -91
116 -10 37 -22 58 -31 58 -11 0 -13 -8 -8 -32z"/>
</g>
</svg>
