<?xml version="1.0" standalone="no"?>
<!DOCTYPE svg PUBLIC "-//W3C//DTD SVG 20010904//EN"
 "http://www.w3.org/TR/2001/REC-SVG-20010904/DTD/svg10.dtd">
<svg version="1.0" xmlns="http://www.w3.org/2000/svg"
 width="512.000000pt" height="512.000000pt" viewBox="0 0 512.000000 512.000000"
 preserveAspectRatio="xMidYMid meet">
<metadata>
Created by potrace 1.16, written by Peter Selinger 2001-2019
</metadata>
<g transform="translate(0.000000,512.000000) scale(0.100000,-0.100000)"
fill="#f2f2f2" stroke="none">
<path d="M3853 4928 c-4 -7 -6 -21 -5 -30 4 -21 -2 -22 -26 -7 -15 9 -35 3
-108 -33 -49 -25 -129 -71 -179 -102 -49 -31 -127 -77 -172 -103 -45 -27 -83
-51 -83 -56 -1 -22 138 41 252 115 36 23 110 67 163 96 98 55 119 58 158 30
15 -11 -13 -29 -235 -145 -139 -72 -254 -136 -256 -142 -7 -21 30 -11 131 37
96 46 435 226 447 238 3 3 -4 12 -14 20 -19 14 -19 14 2 14 13 0 36 -15 55
-37 32 -37 71 -94 65 -97 -2 -1 -21 -13 -43 -27 -22 -13 -87 -47 -145 -73 -58
-27 -131 -64 -163 -82 -75 -44 -103 -51 -125 -31 -9 9 -30 21 -47 27 -25 9
-37 8 -77 -11 -55 -26 -58 -38 -4 -15 20 8 36 11 36 7 0 -5 8 -11 18 -13 12
-3 35 -49 71 -139 30 -74 65 -156 78 -183 14 -27 21 -52 16 -56 -4 -4 -114
-62 -243 -129 -227 -119 -260 -140 -260 -168 0 -9 28 1 83 30 261 140 443 233
522 267 217 92 262 113 292 131 18 11 66 35 108 53 l76 33 -33 13 c-18 8 -44
21 -58 30 -14 9 -92 47 -175 84 -82 37 -154 71 -159 76 -5 5 3 14 20 22 16 7
67 35 114 61 47 27 109 60 138 73 63 28 65 40 20 119 -43 76 -107 114 -190
115 -35 0 -60 -5 -65 -12z"/>
<path d="M4155 4701 c-70 -27 -218 -101 -213 -107 2 -1 109 -50 238 -109 129
-59 236 -108 238 -110 6 -6 -203 -112 -458 -234 -140 -67 -365 -177 -500 -244
l-245 -122 -8 -75 c-4 -41 -6 -92 -5 -112 l3 -37 55 34 c30 19 59 36 63 37 4
2 1 20 -7 40 l-15 36 63 40 64 40 26 -39 c26 -39 62 -52 72 -26 2 7 -2 33 -11
57 -8 23 -14 44 -13 45 20 14 160 86 162 84 2 -2 11 -19 20 -36 12 -25 23 -33
42 -33 23 0 25 3 19 23 -24 79 -20 86 96 142 77 38 82 39 93 21 32 -53 42 -61
70 -48 25 11 25 12 10 53 -8 24 -11 46 -7 49 5 4 53 26 108 49 l99 42 18 -23
c10 -13 18 -27 18 -31 0 -5 10 -7 23 -5 23 3 28 30 13 75 -6 20 2 27 83 68 50
25 97 45 105 45 8 0 21 -9 29 -21 l15 -20 41 20 c37 19 40 23 29 41 -7 11 -20
18 -28 15 -23 -7 -33 4 -72 74 l-36 63 -100 38 c-129 49 -256 106 -260 118 -1
5 37 19 85 32 48 12 89 24 91 25 7 6 -17 43 -30 48 -7 2 -45 -8 -83 -22z"/>
<path d="M3035 4585 c-22 -7 -62 -25 -89 -39 -27 -14 -55 -26 -63 -26 -7 0
-13 -4 -13 -10 0 -5 7 -10 15 -10 8 0 15 -4 15 -8 0 -5 19 -15 43 -22 23 -7
68 -25 100 -41 32 -17 72 -30 90 -30 18 -1 79 20 137 45 58 25 97 45 88 46 -9
0 -30 11 -45 25 -24 22 -136 63 -213 78 -14 3 -43 -1 -65 -8z m130 -113 c-45
-26 -52 -27 -73 -14 -12 8 -20 17 -17 20 7 7 73 19 110 21 28 0 27 -1 -20 -27z"/>
<path d="M4884 4566 c-44 -18 -97 -44 -119 -58 -22 -14 -61 -37 -87 -52 -55
-31 -60 -48 -20 -71 17 -11 38 -41 56 -81 21 -46 36 -66 52 -70 17 -4 60 15
161 72 76 42 144 83 151 89 21 19 27 107 8 143 -33 64 -94 72 -202 28z m172
-57 c6 -44 5 -47 -27 -67 -39 -23 -257 -112 -276 -112 -7 0 -13 4 -13 10 0 5
-6 7 -14 4 -18 -7 -29 37 -13 52 7 6 56 37 111 68 110 65 207 108 218 97 4 -4
11 -27 14 -52z"/>
<path d="M2473 4560 c-17 -7 -24 -20 -29 -59 -4 -28 -10 -48 -15 -46 -4 3 -19
0 -33 -6 -22 -10 -26 -19 -26 -56 0 -41 -1 -43 -25 -37 -14 3 -40 3 -59 0 -39
-7 -32 11 -117 -316 -43 -163 -102 -339 -142 -419 -49 -98 -98 -157 -180 -214
-32 -23 -89 -63 -126 -90 -155 -111 -274 -188 -391 -252 -69 -38 -161 -91
-205 -118 -44 -28 -125 -72 -180 -98 -55 -27 -156 -78 -225 -115 -69 -37 -138
-71 -155 -77 -46 -16 -253 -130 -339 -186 -42 -27 -86 -53 -96 -56 -11 -4 -20
-12 -20 -19 0 -8 -8 -20 -19 -27 -13 -10 -25 -45 -39 -119 -32 -161 -36 -214
-22 -282 11 -52 17 -63 41 -72 16 -5 33 -23 40 -38 6 -15 16 -28 21 -28 5 0
19 -9 31 -21 20 -18 30 -19 93 -14 l71 7 49 -46 c47 -45 49 -46 83 -35 20 6
44 19 54 28 17 14 20 14 30 0 23 -31 54 -32 115 -3 31 15 186 86 343 159 246
114 351 170 755 406 l469 274 102 100 c248 244 416 534 518 893 45 160 51 175
77 191 18 11 20 11 15 -3 -10 -24 9 -19 26 8 42 63 69 151 68 221 0 68 -1 71
-38 102 -40 34 -36 43 7 18 45 -26 56 -17 23 18 -34 34 -57 83 -47 98 3 5 2 9
-3 9 -4 0 -15 -15 -23 -33 -10 -22 -22 -32 -37 -32 -34 -1 -48 -19 -28 -39 9
-9 14 -16 11 -16 -21 0 -345 138 -400 170 -38 22 -73 40 -78 40 -5 0 -8 8 -6
18 4 20 11 20 103 -8 39 -12 86 -23 105 -24 19 -2 77 -19 128 -38 77 -30 92
-33 92 -19 0 15 -19 25 -130 66 -78 28 -215 111 -218 131 -4 29 48 28 121 -1
33 -14 62 -23 65 -20 2 2 49 -18 103 -45 54 -28 110 -50 124 -50 44 0 65 -17
65 -53 1 -23 3 -28 9 -17 17 28 17 82 1 91 -8 4 -89 42 -180 85 -91 42 -172
82 -180 89 -11 10 -112 38 -123 34 -1 0 -12 -4 -24 -9z m342 -427 c77 -30 150
-64 163 -75 22 -22 30 -48 13 -48 -5 0 -14 -30 -21 -66 -7 -36 -19 -68 -26
-71 -8 -3 -42 4 -76 16 -79 27 -98 26 -157 -4 -56 -28 -48 -8 -120 -272 -51
-183 -107 -329 -153 -396 -28 -41 -218 -204 -282 -241 -327 -191 -1225 -682
-1371 -750 -104 -49 -196 -93 -202 -99 -13 -9 -73 -191 -73 -218 0 -8 24 -40
53 -73 l52 -59 45 23 c56 28 55 27 42 42 -7 10 0 46 26 133 20 66 42 127 47
136 6 9 109 63 230 120 121 57 279 137 351 177 73 39 142 72 155 71 13 0 78
-26 143 -57 l120 -58 -200 -116 c-109 -63 -262 -147 -339 -185 -141 -71 -637
-303 -647 -303 -3 0 -35 35 -71 79 -42 49 -67 88 -67 103 0 33 59 220 75 236
7 8 102 55 211 106 220 103 1195 644 1389 771 141 93 245 193 298 288 27 47
57 134 102 294 36 124 71 235 79 247 35 49 53 66 88 81 51 21 74 19 147 -11
35 -14 64 -24 66 -22 11 15 26 101 19 108 -10 10 -340 140 -355 140 -5 0 -9
-7 -9 -16 0 -42 -175 -655 -210 -736 -90 -207 -127 -234 -890 -662 -381 -214
-695 -382 -825 -443 l-209 -98 -38 -120 c-21 -66 -38 -129 -38 -141 0 -11 27
-52 60 -91 32 -39 56 -73 53 -77 -13 -13 -35 -5 -85 30 -47 32 -57 35 -98 29
-36 -5 -49 -3 -59 9 -7 9 -17 13 -22 11 -4 -3 -24 11 -44 32 l-36 38 4 80 c3
44 17 139 32 211 l28 131 56 18 c31 10 74 28 96 40 22 13 133 70 248 129 114
58 226 118 250 133 23 14 74 41 113 59 39 18 127 65 195 106 68 41 169 99 224
128 167 90 553 358 635 440 63 64 140 191 166 275 13 38 33 103 45 143 25 82
117 265 150 297 l21 20 -7 -60 -6 -60 36 65 c55 96 74 120 96 120 10 0 19 -5
19 -10 0 -6 11 -5 27 4 25 12 33 12 78 -6 27 -11 113 -45 190 -75z"/>
<path d="M2493 4115 c-3 -9 -3 -18 -1 -21 3 -3 8 4 11 16 6 23 -1 27 -10 5z"/>
<path d="M1095 2229 c-143 -71 -268 -138 -277 -149 -16 -20 -53 -161 -46 -178
1 -5 99 35 216 89 230 106 587 298 575 310 -19 18 -140 59 -172 58 -25 0 -117
-41 -296 -130z"/>
<path d="M3355 4417 c-91 -37 -159 -80 -134 -85 9 -2 62 15 118 37 68 26 103
35 106 28 26 -93 47 -178 44 -180 -87 -62 -201 -133 -238 -148 -44 -19 -50
-25 -61 -65 -7 -25 -10 -47 -8 -50 6 -6 348 170 378 194 l21 17 -22 65 c-12
36 -31 73 -41 84 -14 13 -19 29 -17 61 3 49 -13 75 -45 75 -11 0 -57 -15 -101
-33z"/>
<path d="M4615 4225 c-22 -13 -373 -199 -780 -414 l-740 -390 -23 -178 c-12
-98 -33 -224 -46 -280 l-22 -102 20 -43 c20 -41 24 -44 101 -65 155 -43 224
-27 450 102 75 43 168 90 207 107 94 38 102 44 84 70 -8 11 -13 25 -10 32 2 6
-5 22 -15 35 l-18 23 -39 -21 c-21 -12 -61 -34 -89 -51 -125 -73 -121 -75
-203 110 -34 78 -61 144 -60 145 2 1 275 157 608 345 333 188 617 351 633 362
18 13 27 28 27 46 0 37 -31 192 -39 192 -3 -1 -24 -12 -46 -25z m-94 -201 c-7
-29 -17 -57 -24 -62 -7 -5 -97 -56 -202 -112 -104 -57 -199 -111 -210 -120
-11 -9 -60 -38 -110 -65 -49 -26 -146 -84 -215 -128 -68 -44 -156 -96 -195
-115 -38 -19 -98 -54 -132 -78 -35 -23 -68 -44 -75 -46 -9 -3 1 -33 30 -97 23
-50 42 -103 42 -116 0 -31 -30 -62 -67 -71 -16 -3 -47 -12 -71 -20 -55 -18
-67 -18 -83 2 -12 14 -7 21 31 56 25 21 66 53 93 69 26 17 47 32 47 33 0 1
-20 49 -44 106 -24 58 -42 109 -39 113 3 5 9 3 13 -4 7 -10 17 -7 47 13 21 13
279 154 573 313 294 158 543 297 552 308 9 12 20 38 23 57 4 19 10 39 13 45
13 20 14 -30 3 -81z m-1041 -934 c22 -44 40 -84 40 -90 0 -10 -169 -94 -175
-88 -2 2 23 21 56 43 53 36 87 83 75 104 -11 17 -45 111 -41 111 3 0 23 -36
45 -80z"/>
<path d="M4643 3909 c-33 -23 -43 -37 -43 -58 0 -15 3 -31 6 -34 19 -18 114
66 114 100 0 32 -25 29 -77 -8z"/>
<path d="M4520 3835 c0 -26 29 -74 51 -86 30 -16 32 -8 8 49 -15 36 -27 52
-40 52 -11 0 -19 -7 -19 -15z"/>
<path d="M4393 3782 c-60 -30 -72 -52 -48 -88 16 -24 16 -24 45 -7 16 9 48 33
71 53 39 34 41 37 25 53 -22 22 -31 21 -93 -11z"/>
<path d="M3063 3699 c-43 -27 -42 -33 2 -12 19 9 35 20 35 25 0 11 0 11 -37
-13z"/>
<path d="M4274 3683 c17 -97 23 -88 -117 -182 l-128 -86 6 -54 c4 -29 15 -74
26 -98 14 -32 16 -49 9 -58 -18 -22 0 -43 46 -54 25 -7 61 -27 84 -47 22 -20
40 -31 40 -24 0 27 -62 109 -94 124 -28 13 -39 30 -69 104 -21 48 -37 91 -37
94 0 7 158 102 230 138 59 29 82 50 71 64 -4 6 -16 35 -26 64 -23 63 -51 73
-41 15z"/>
<path d="M3981 3545 c-233 -136 -320 -190 -333 -209 -23 -34 16 -35 51 -2 15
13 134 87 266 166 251 149 273 164 258 173 -5 3 -114 -54 -242 -128z"/>
<path d="M3013 3607 c-24 -11 -43 -25 -43 -30 0 -4 4 -6 9 -2 5 3 12 -4 16
-15 l6 -20 40 20 c29 16 39 26 39 45 0 30 -12 30 -67 2z"/>
<path d="M3062 3510 c-29 -18 -43 -40 -24 -40 12 0 67 48 62 54 -3 3 -20 -4
-38 -14z"/>
<path d="M3860 3348 c-19 -11 -62 -38 -96 -60 -63 -39 -92 -46 -112 -26 -6 6
-21 13 -33 15 -12 2 -28 11 -35 21 -11 14 -13 15 -14 2 0 -20 71 -90 90 -90 8
0 39 18 70 39 67 47 84 45 123 -11 26 -37 31 -40 64 -35 20 4 38 9 41 12 9 8
-41 148 -53 152 -5 1 -26 -7 -45 -19z"/>
<path d="M2931 3334 c-12 -27 -11 -28 4 -12 10 9 16 21 13 28 -2 7 -10 -1 -17
-16z"/>
<path d="M2923 3254 c-18 -8 -33 -19 -33 -24 0 -6 18 -1 40 10 59 30 54 41 -7
14z"/>
<path d="M3526 3225 c11 -48 63 -145 78 -145 8 0 23 11 33 24 12 15 35 26 61
31 44 7 58 25 20 25 -13 0 -40 -5 -60 -11 -41 -11 -36 -14 -117 81 l-21 25 6
-30z"/>
<path d="M2882 3116 c-36 -50 -128 -254 -181 -403 l-36 -101 -89 -78 c-53 -47
-91 -73 -94 -66 -2 8 -26 -3 -68 -33 -73 -51 -88 -56 -54 -20 37 40 19 37 -50
-7 -36 -22 -92 -50 -125 -62 l-60 -21 60 -5 c58 -6 59 -6 32 -18 -16 -7 -56
-12 -91 -12 -42 0 -81 -8 -122 -24 -88 -35 -134 -59 -134 -69 0 -12 91 -1 153
19 52 17 73 13 35 -6 -39 -21 -68 -53 -63 -69 2 -9 38 -308 80 -666 41 -357
82 -708 91 -778 9 -71 14 -130 11 -133 -2 -2 -28 20 -58 49 -30 29 -67 62 -83
73 -28 20 -29 23 -38 155 -5 74 -15 199 -23 279 -8 80 -17 181 -20 225 -8 98
-70 606 -86 693 -12 67 -18 76 -44 66 -11 -5 -14 -14 -11 -33 4 -14 15 -100
25 -191 11 -91 31 -255 45 -365 39 -319 72 -617 88 -824 3 -29 -1 -36 -31 -52
-19 -10 -52 -37 -74 -59 -39 -41 -39 -42 -33 -98 15 -128 15 -130 80 -200 33
-37 74 -84 89 -104 16 -20 41 -41 58 -47 16 -5 29 -15 29 -21 0 -8 20 -11 63
-9 53 3 69 -1 111 -24 27 -15 53 -27 58 -27 19 0 154 84 186 116 17 17 32 42
32 53 0 21 1 21 30 6 16 -8 34 -15 41 -15 14 0 352 154 386 176 15 9 25 31 33
71 17 88 18 90 57 108 35 17 35 18 29 64 -3 25 -22 117 -42 203 -42 178 -38
173 -151 182 -49 4 -63 2 -63 -9 0 -21 13 -25 83 -27 l64 -2 43 -179 c35 -148
40 -181 29 -188 -39 -24 -62 11 -46 72 7 30 5 51 -13 103 -27 81 -37 90 -94
82 -40 -6 -46 -4 -65 20 -12 15 -21 39 -21 54 0 50 -170 1495 -180 1529 -8 30
-7 36 16 54 67 52 96 106 120 222 9 39 37 138 64 220 73 226 73 222 22 151z
m-256 -671 c3 -13 4 -30 2 -37 -3 -7 -89 -58 -193 -113 -104 -55 -193 -107
-199 -117 -7 -11 11 -198 63 -655 100 -873 90 -802 115 -809 15 -3 79 25 205
91 100 53 184 95 185 93 3 -3 26 -206 26 -225 0 -25 -162 -98 -260 -117 -64
-13 -127 -34 -195 -66 -144 -68 -141 -68 -148 -23 -3 21 -47 406 -98 855 l-93
817 20 27 c13 18 113 76 284 165 146 76 268 138 272 139 4 0 10 -11 14 -25z
m-156 0 c-7 -9 -15 -13 -17 -11 -7 7 7 26 19 26 6 0 6 -6 -2 -15z m179 -208
c1 -34 -1 -37 -18 -27 -40 21 -85 10 -196 -49 -122 -65 -113 -49 -100 -173 4
-38 11 -68 18 -68 6 0 18 -7 26 -15 15 -12 29 -8 125 41 114 59 145 63 166 23
11 -20 10 -20 -33 -14 -40 6 -53 2 -160 -55 -64 -34 -119 -65 -121 -69 -2 -3
0 -43 6 -87 l10 -81 36 -11 c34 -11 42 -8 138 43 109 57 134 60 153 19 15 -34
14 -36 -8 -24 -11 5 -30 10 -42 10 -21 0 -158 -65 -235 -111 l-30 -18 9 -82
c7 -65 14 -86 31 -100 11 -10 27 -18 35 -19 7 0 59 24 115 54 106 57 149 64
159 25 5 -17 1 -18 -31 -13 -32 4 -55 -5 -162 -61 l-126 -66 7 -57 c4 -31 8
-68 8 -82 1 -17 12 -32 34 -46 l33 -21 109 58 c107 57 109 58 137 41 31 -18
41 -49 11 -34 -28 15 -51 7 -181 -60 l-124 -63 5 -58 c3 -35 12 -66 22 -77 16
-17 20 -18 44 -6 51 27 202 67 237 64 27 -2 39 -9 45 -25 7 -20 4 -23 -29 -29
-20 -4 -106 -42 -190 -86 -84 -44 -155 -79 -157 -77 -7 7 -163 1391 -159 1404
3 6 87 55 187 108 l182 96 7 -42 c3 -23 7 -59 7 -80z m340 -1631 c8 -10 7 -24
-4 -56 -21 -58 -29 -66 -75 -74 -44 -7 -55 -26 -15 -26 41 0 19 -28 -35 -44
-26 -8 -60 -21 -76 -29 -16 -8 -58 -24 -93 -36 l-63 -22 -44 21 c-56 27 -80
20 -95 -29 -10 -35 -19 -42 -109 -86 -87 -43 -102 -47 -146 -42 -35 3 -63 0
-99 -14 -27 -10 -50 -19 -50 -19 0 35 -7 55 -22 63 -35 20 -123 110 -146 151
-25 42 -41 133 -28 154 31 51 190 -74 245 -194 19 -39 38 -74 44 -78 5 -3 31
-3 56 0 38 6 45 10 41 24 -4 14 2 19 27 24 18 3 59 22 90 42 49 31 56 39 47
55 -8 16 -2 22 40 44 62 31 94 31 168 3 32 -12 65 -21 73 -19 28 4 80 32 80
41 0 6 5 10 11 10 20 0 44 33 41 57 -3 19 3 26 28 34 17 6 29 16 27 23 -2 6
10 16 27 23 41 15 42 15 55 -1z"/>
<path d="M2130 240 c0 -5 5 -10 10 -10 6 0 10 5 10 10 0 6 -4 10 -10 10 -5 0
-10 -4 -10 -10z"/>
<path d="M3949 3135 c-21 -11 -25 -20 -21 -40 5 -31 19 -28 46 8 25 34 12 51
-25 32z"/>
<path d="M4043 3074 c-63 -33 -99 -61 -90 -70 4 -4 30 5 58 21 47 25 52 26 67
11 16 -16 14 -19 -23 -51 -31 -26 -37 -36 -28 -45 9 -10 26 -4 75 26 35 21 66
42 70 48 8 13 -28 61 -57 74 -19 9 -33 6 -72 -14z"/>
<path d="M2661 2796 c-41 -66 -94 -191 -88 -210 2 -5 24 16 49 47 34 42 47 68
53 104 4 26 13 63 21 82 23 56 9 46 -35 -23z"/>
<path d="M3744 2782 c-8 -5 -1 -34 23 -96 39 -100 39 -156 3 -156 -22 0 -46
42 -81 137 -12 32 -25 62 -29 67 -5 4 -34 -6 -66 -23 -32 -17 -64 -31 -72 -31
-10 0 -12 -5 -7 -17 5 -10 17 -46 29 -80 26 -77 41 -95 95 -113 86 -28 187 14
205 86 3 12 -9 63 -27 115 -43 123 -47 129 -73 111z"/>
<path d="M2485 2560 c-37 -38 -37 -48 0 -34 16 6 50 62 43 70 -3 2 -22 -14
-43 -36z"/>
</g>
</svg>
