<svg xmlns="http://www.w3.org/2000/svg" width="682.667" height="682.667" version="1.0" viewBox="0 0 512 512">
    <g fill="#e5e5e5">
        <path d="M173.5 18.4c-12 2.7-13.7 3.6-16.9 9.6-2.5 4.5-2.8 4.7-10.2 6.6-9.8 2.4-12.5 4.1-16.9 10.7-2.9 4.4-4.7 5.9-9.8 8.2-8.6 4.1-11.3 6-15.7 11.6-2.8 3.6-4.3 6.7-5.5 12.1-1.3 5.8-2.4 8-5.6 11.5-2.9 3.1-3.8 4.9-3.4 6.5.3 1.3 1.1 5.7 2 9.8 1.1 5.6 2 8 3.8 9.3l2.3 1.8-3.9 37.7c-3.3 32.5-3.7 38.5-2.7 43.6.6 3.2.8 6.2.3 6.6-.4.4-17.7 12.6-38.3 27s-38.3 27-39.2 27.9c-1.6 1.4-1.9 4.3-2.3 21.5l-.5 19.9-3 3.4c-3 3.3-3 3.4-1.4 7.1.9 2 2 4.9 2.6 6.4.6 1.7 4.1 4.9 9.9 8.8 9.8 6.7 14.5 9 18.5 9 1.5 0 20.9-3.8 43.2-8.5s40.6-8.4 40.7-8.3c.1.2.7 3.2 1.3 6.7 1.6 8.7 2.3 9.4 9.4 8.6 3.2-.4 5.8-.4 5.8 0 0 1.1-3.3 12.2-8.7 29.5-2.8 8.8-5.4 15.5-6.8 17-1.9 2-3.5 7.9-8.4 30.8-3.4 15.6-5.8 28.9-5.3 29.5.4.7 4 4.3 7.9 8.1l7.3 6.9 8.2-2.3c7.7-2.3 8.2-2.3 9.2-.6.6 1 2.5 3.9 4.1 6.4l3 4.7 15.7 3.8 15.8 3.9 1.1 4.1c3 11.5 4.2 14.9 5.6 15.4.9.4 6.7-1 12.8-3.1l11.3-3.7 9.3 2.1 9.3 2.1 28-6.7 28.1-6.6 37.5-20.5c20.6-11.2 45.8-24.5 56-29.5 10.2-4.9 18.7-9.4 19-9.8 1-1.6 22.7-5.9 26.4-5.3l3.5.6 7.1-14.4c6.2-12.9 7.2-15.5 8.5-24.5l1.5-10.2-3.1-10.3-3.1-10.3.7-23.3c.5-15.9 1.1-23.3 1.8-23.3 2.4 0 34.7-20.1 34.7-21.6 0-.9 5.5-8.3 12.3-16.5 6.7-8.3 12.3-15.9 12.5-16.9s-1-5-2.7-8.7l-3-6.8L497 210c1-7.4 1.5-14 1.2-14.7-.4-.7-4.9-3.3-9.9-5.7l-9.2-4.5 1.9-4.4 2-4.5-2.6-24.8-2.6-24.9-5.3-7c-3-3.8-7.6-9.7-10.2-13l-4.8-5.9L421 88l-36.4-12.5-2.9-7.2-2.9-7.1-7.1-2.9c-6.4-2.6-7.4-3.4-9.1-7-1.6-3.6-3.5-5-19-14.1-9.4-5.5-18-10.5-19.1-11-1.4-.7-5.9-.6-14.5.4-18.3 2-19.4 1.9-25.8-2.1l-5.7-3.4-42.5-2.6c-23.4-1.4-44.7-2.5-47.5-2.4-2.7 0-9.5 1.1-15 2.3m63 7.6 39 3 5.9 4 5.9 4.1 16.5-2.7c12.4-1.9 17-2.3 18.8-1.5 1.2.5 8.5 5.3 16.1 10.5 11.7 8.1 14.2 10.3 16.3 14.3 2.4 4.6 2.9 4.9 10.7 7.6l8.2 2.9 3.7 7.3 3.8 7.2 29 10.3c48 17 42.8 14.3 52.3 26.9l8.2 10.8 2.5 22.7 2.6 22.7-2.5 4.9c-1.4 2.7-2.5 5.2-2.5 5.5 0 .5 7.2 4 17.7 8.5 2.9 1.2 5.3 2.5 5.3 2.9 0 .3-.7 5.1-1.5 10.6-2 13.8-1.9 17.2 1 23.4 1.4 3 2.3 6.2 2 7.2-.4 1.1-5.4 7.4-11.1 14.1-10.6 12.3-10.6 12.3-22.7 18.6-13.6 7.1-25 13.2-25.5 13.7-.2.2-.6 6.6-.8 14.2-.6 25.4-1.6 40.6-2.5 42.2-.7 1.1-.2 4.4 1.9 11.1 2.8 8.9 2.9 9.9 1.8 16.2-.7 4.1-1.8 7.4-3 8.5-1 1-4.2 6-7 11.2l-5.1 9.4-14.5 4.2c-14.3 4-15.3 4.5-52.5 25-20.9 11.5-40.7 22.3-44 23.9-3.3 1.5-11.1 5.7-17.3 9.3l-11.4 6.4-23.1 4.6-23.2 4.6-13-1.1c-10.9-.9-14.5-.8-22.2.6-5.1.8-9.5 1.3-9.8 1.1-.2-.3-1.1-3.8-2-7.8-.8-4-1.7-7.7-2-8.1-.2-.4-8.2-2.9-17.6-5.6l-17.2-4.9-3.5-5.2c-1.9-2.9-3.8-5.3-4.2-5.3s-3.9.7-7.8 1.6l-7.1 1.6-5.7-4.8-5.6-4.9.5-6c1.1-11.6 7.7-38.2 17.2-68.8 6.9-22.3 9.3-31.3 8.6-32.5-.6-1.1-3.2-2-7.3-2.7-6.3-1-6.3-1-6.6-4.5-.6-8-1.2-10-3.3-10-1.1 0-12.6 2.4-25.7 5.4-13 3-32.7 7.3-43.7 9.6s-20.8 4.6-21.7 5.1c-1.4.8-4-.6-11.8-5.8-8.3-5.7-10.2-7.5-11.6-11l-1.6-4.2 3.7-5.1c4.3-5.8 4.2-5.4 3.2-24.5-.9-15.5-1.2-14.7 5.6-16.9 1-.3 18.9-12.1 39.8-26.2l37.9-25.7v-3.8c0-2.1-.9-6-1.9-8.8l-2-4.9 4.4-39.8c2.4-22 4.7-41.6 5-43.7.5-3.4.3-3.7-1.9-3.7-2 0-2.6-.8-4.1-6.1l-1.7-6.1 3.6-5.2c2-2.9 3.9-6.8 4.2-8.7.4-1.8 1.7-5.5 3-8 2.2-4.3 2.9-4.9 9.6-7.4 13.9-5.3 13.3-4.9 17.8-12.4 4.6-8.1 5.9-9 15.2-12 6-2 7-2.7 9.3-6.6 2.7-4.7 2.4-4.6 18.5-8.9 3.3-.9 7.9-1.3 11.5-1 3.3.3 23.6 1.8 45 3.4"/>
        <path d="M184.3 31.2c-1 1.3-5.3 12.9-5.3 14.2 0 .4.8.2 1.8-.3 2.1-1.1 19.7-.5 40.2 1.4 22.5 2.2 22 2.2 31.1-3.2 7.6-4.6 10-7.7 6.7-8.8-.7-.2-10.3-.6-21.3-.9-11-.4-26.7-1.3-35-2.1-18.2-1.8-17-1.8-18.2-.3m15 3.7c15.8 1.6 33.8 2.6 44.7 2.4 11.5-.2 11.7.2 2.6 4.9-4.5 2.3-15.1 2.6-36.1.8-6.6-.5-15.5-1-19.7-1h-7.6l1.5-4c1.8-4.5 1.3-4.4 14.6-3.1m-27-1.5c-4.8 2-8.2 4.8-8.3 6.8 0 1.1 7.4 1 10.3-.1 1.4-.6 2.9-2.3 3.6-4.2 2-5.7 2-5.7-5.6-2.5M316 41.9c-2.2.6-2.3.8-.7 1.4 1 .4 2.7.7 3.8.7 1.3 0 1.9.7 1.9 2.1 0 3.5 6 8.6 12.3 10.4 3.1.9 6.7 1.5 7.9 1.3 1.8-.2-.1-2-9.3-8.6-6.4-4.5-12.1-8.2-12.5-8.1-.5.1-2 .4-3.4.8m-154 2c-5.6.7-11.5 3.7-17.3 9-2.7 2.5-6.7 10-6.7 12.6 0 .8-.9 1-2.4.8-3.1-.6-14.5 3.4-17.4 6.2-1.8 1.6-2.3 3.5-2.7 8.5-.3 5.6-.6 6.5-2.4 6.8-1.5.2-2.1 1.1-2.1 2.8 0 2.2.3 2.3 4.3 1.9 13.8-1.4 14.5-1.4 16.1.4 1.2 1.4 1.5 2.9 1 5.8-.7 4.3.8 8.3 3 8.3 1.9 0 6.7-4 6.1-5.1-.4-.5-.1-.9.6-.9.8 0 .7-.5-.2-1.7-1-1.2-1.1-1.7-.2-2 .8-.3.5-1.6-.9-4.3-2.4-4.5-7.4-7-13.8-7-3.4 0-4-.3-4-2.1 0-1.4.5-1.9 1.4-1.6.8.3 4.2.9 7.6 1.3 5.4.6 6.3 1 7.6 3.5C141 89.9 143 91 143 89c0-.6-.6-1-1.2-1-.9 0-1-.2-.2-.8 1.4-.8 1.3-4-.2-6.5-.7-1.3-3.1-2.1-7.9-2.8-3.8-.5-7.5-.7-8.3-.4s-1.2 0-1-.7c.6-1.7 14-2.3 16.7-.8 1.7.9 1.9.7 1.7-1.3-.1-1.3-1-3.4-1.9-4.7-1.4-2-1.4-2.5-.2-3.4.7-.6 2.3-3 3.5-5.3s3.1-4.5 4.3-4.9c1.1-.4 5.4-2.6 9.5-5s9.4-4.9 11.8-5.5c9.5-2.4 5.4-3.5-7.6-2"/>
        <path d="M265.7 47.4c.6 4-.7 4.7-4.1 2.1-2.8-2.1-3.9-1.9-9.8 1.7-4.5 2.8-6.6 3.3-17.2 4.5-6.7.7-14.7 1.2-17.8 1.3-3.1 0-5.9.4-6.3.9-.3.5-2 .8-3.8.6-17.4-1.8-25.5-1.3-29.6 2-1.3 1.1-4.5 4.2-7 6.8s-5.1 4.5-5.8 4.3c-.8-.3-1.3.2-1.3 1.4 0 1-1.2 2.8-2.7 3.9-5.1 3.8-5.2 4-4.8 7.9.4 3.6.9 15.4 2.1 47.7.3 8.8.7 17.3.9 19 .2 1.6.7 14 1.1 27.5.6 22.7.8 24.8 2.9 29 1.3 2.5 2.6 6.7 3 9.2.4 2.6 1.6 5.5 2.6 6.4s1.9 2.3 1.9 3c0 1.7 4.7 7.1 5.4 6.3.4-.3-.5-2.6-1.9-5.1-2.2-3.9-2.4-5-1.4-7.4.7-1.9.9-9 .5-20.9-1.1-34.5-2.8-84.1-3.5-102.5l-.7-18.5 2.4-3.8c3.1-4.7 9-9.9 10.3-9.2 1.8 1.2.8 3.7-3.3 8.6l-4.2 5 2.1 67.7c1.4 42.5 1.8 68.1 1.2 68.6-3.7 3.8 4.3 17.6 10.2 17.6 2.3 0 6.2-11.9 8.4-25.5 2.9-17.8 4.1-22.2 6.5-23.5 5.1-2.7 6.1-.3 3.5 8.4-.8 2.7-1.5 7.6-1.5 10.8v6l3.3-.7c4.4-1 5.2-1.8 7.7-8.1 2.2-5.2 2.2-5.9 1-12.6-1.2-6.2-1.2-7.1.2-7.9 4.1-2.3 6-4.8 7.3-9.9 2-7.4 1.9-11.1-1-44.4-1.4-15.8-2.2-29.4-1.7-30.1.4-.8 4.5-4.1 9.2-7.5 4.7-3.3 11.2-8.1 14.5-10.6 11.5-8.5 18.4-12 30-14.8 9.2-2.3 12.3-2.6 19-2.1 4.4.3 12.3.8 17.5 1 19.1.7 31.5 1.8 32.8 2.8.9.7 1.6.7 2.3 0 1.3-1.3.7-4.9-.8-4.6-1.7.4-16.2-2.6-18.3-3.7-1-.5-3.1-2.5-4.7-4.3-2.5-3-3.8-3.6-11.5-5-8.1-1.6-9.2-1.6-16.2-.1-7 1.6-7.9 1.6-11.3.1-2.1-.9-7-1.9-11-2.2l-7.2-.7zM161.4 86.3c.2 1.5 0 2.7-.5 2.7s-.9-1.4-.9-3.2c0-3.7.7-3.4 1.4.5m.3 8.9c-.3.8-.6.5-.6-.6-.1-1.1.2-1.7.5-1.3.3.3.4 1.2.1 1.9m44.3 82.3c0 3-3 4.2-4.8 1.8-1.1-1.6-1-2 .9-3.5 2.5-2.1 3.9-1.5 3.9 1.7M163.3 55c-2.5 1.1-4.3 2.6-4.3 3.5 0 1.2 1 .9 4.5-1.5 2.5-1.7 4.5-3.3 4.5-3.5 0-.7 0-.7-4.7 1.5"/>
        <path d="M275.4 66.3c-1.6 1.2-9.4 7.3-17.1 13.5-11.8 9.5-14.2 11.9-14.6 14.5-.7 5.4 1.1 49.1 2.2 51.7.8 1.9 1-4.3.8-23.7-.2-29.8.5-31.6 4.8-12.3 1.9 8.4 2.9 16.3 3.5 29.4.9 17.6.8 18-1.6 24.4-1.8 4.8-2.4 8.4-2.4 14.2 0 8.7.5 11 2.6 11 .8 0 1.6-1.6 2-4 .7-4.3 3.4-7 6.9-7 2.7 0 32.8-24.1 36.5-29.2 2.2-3.1 2.8-5.1 3.4-12.4.3-4.8 1.2-9.9 1.9-11.3.8-1.6 7.7-6.7 19.6-14.3 10.2-6.4 20.8-14.1 23.8-17 3.4-3.4 7-5.9 10-6.9 6.5-2.1 7.2-3.6 4.2-9.5-2.1-4.2-3-5-7.9-6.7-3-1-9.5-2.3-14.5-2.7-4.9-.5-11.7-1.1-15-1.4-35.3-3.4-44.7-3.4-49.1-.3m39.1 4.8c8.3 1 20.3 1.9 26.8 1.9s12.7.5 13.8 1c2 1.1 5.4 6.8 4.5 7.7-.3.3-1.6-.8-3-2.3l-2.4-2.9-17.9-.1c-13.7 0-20.3-.5-28.8-2.2-19.1-3.6-22.5-4.5-22.5-5.4 0-1.1 7.7-.5 29.5 2.3m-59.9 5c-12.4 9.5-14.6 11.8-4.9 5.5 13.4-8.9 17.3-11.7 17.3-12.7 0-1.9-2-.7-12.4 7.2"/>
        <path d="M364.6 93.1c-4.5 1.5-7.4 3.3-12 7.7-3.4 3.2-11.7 9.6-18.6 14.2-6.9 4.5-12.7 8.4-12.8 8.6-.2.1 0 .9.5 1.7 1.2 2.2 25.2-14.7 31.8-22.5 2.7-3.2 5.3-5.8 5.6-5.8s3.5-1.3 7-3c7.3-3.3 6.9-3.6-1.5-.9m-243.1 1.6c-7.1.5-9.5 1.1-9.5 2.7 0 .9 2.1 1.5 7.3 1.8 3.9.3 7.9.7 8.7.9 1.1.3 1.5-.4 1.5-2.6 0-3.3-.2-3.3-8-2.8m249 5.8c-9 3.7-11.8 5.3-15.5 9.2-2.5 2.7-11.6 9.7-20.3 15.7L319 136.2l-.1 5.2c-.1 8.9-2.6 13.3-12 20.9-4.6 3.7-8.7 7.6-9.1 8.6-.3 1-1.9 2.7-3.4 3.8-1.8 1.3-2.5 2.6-2.1 3.7 1 2.6 3.8 1.8 10-2.9 4.7-3.5 6.5-4.3 9-3.9 8.2 1 25.7 2.4 31.5 2.4 5.3 0 9.8-1.1 24.6-6.1 34.2-11.6 36.7-12.6 40-15.6 1.7-1.7 5.7-3.7 9.1-4.7 19-5.5 41.8-13.2 42.2-14.2.2-.7-1.6-4.5-4-8.6l-4.5-7.3-32.8-10.7c-18.1-5.9-33.6-10.7-34.4-10.7s-6.4 2-12.5 4.4m81 30.4c-.6.4-9.6 3-20.2 5.6-22.7 5.6-29.2 8.8-32.3 16.1-1.9 4.2-2 4.3-5 3.3-1.6-.6-3.3-1.5-3.6-2s.9-2.9 2.6-5.4c4.1-5.9 13.2-10.8 18.7-10 2.7.4 8.9-.8 20.8-3.9 17.7-4.6 20.6-5.2 19-3.7"/>
        <path d="M402.8 142c-3.5 1.9-6.7 4.4-8.3 6.7-2.3 3.5-2.4 3.9-.8 5 2.5 1.9 3 1.6 4.3-2.3.9-2.5 2.7-4.5 6.6-7.1 2.9-1.9 5.1-3.9 4.8-4.4-.6-1.1.2-1.4-6.6 2.1m-285.1-34.4c-1.1 1.1-.8 10.2.2 10.6.6.1 1.2 1.6 1.5 3.1.4 2.3 0 3-2 3.7l-2.4 1v31.2c.1 24.3.4 32 1.5 34.3 1.2 2.8 1.3 2 1.5-9 .1-6.6.5-13.8.9-16l.9-4 .1 5.5c.1 3 .3 12 .4 20 .3 11.9.6 15.1 2.2 18 1.4 2.8 1.9 6.8 2.5 19 .4 10.2.8 13.1 1 8.5.6-15.9 1.4-21 3.3-21.3 1.5-.3 1.7.5 1.7 5.5 0 6.7-1.8 32.4-2.5 36.6-.2 1.5-.1 2.5.4 2.2s2.4 2.1 4.2 5.2c3.3 6.1 5.4 8.3 7.6 8.3 2.4 0 1.3-4.1-3.2-11.8l-4.6-7.7.7-67.8.7-67.7-3.3-3c-1.8-1.6-3.6-2.8-3.8-2.5-.3.3-1 .1-1.6-.4-1.6-1.3-7.1-2.3-7.9-1.5m196.9 20.5c-1.8 2.7-2.4 20.5-.6 19.4.6-.3 1-3.3 1-6.6s.7-7.6 1.5-9.6c1.9-4.4.5-6.6-1.9-3.2m145.5 17.7c-.1 4.2-3.4 7.1-8 7.2-1.8 0-7.2 1.7-12 3.9-4.7 2.1-9.6 4.2-10.9 4.5-1.2.4-2.9 2-3.7 3.6l-1.5 3 5.1 2.5c5.4 2.8 7.6 2.7 8.5-.2 1.7-5.4 2.8-7.3 3.9-7.3.8 0 1.5-.3 1.7-.8.8-1.9 7-5.2 9.8-5.2 1.6 0 4.5-.8 6.3-1.8 3.1-1.7 3.2-1.9 2.5-6.1-1-6.1-1.6-7.2-1.7-3.3"/>
        <path d="M443.2 151.1c-7.1 2.9-21 6.9-24.4 6.9-2.4 0-6.2 5.1-4.6 6.2 2.2 1.3 3.4.9 4.6-1.7.8-1.6 2-2.5 3.5-2.5 3 0 11.9-3 17.7-6 2.4-1.2 6.3-2.5 8.7-2.9 2.4-.3 4.4-1.1 4.4-1.6 0-1.8-2.5-1.4-9.9 1.6m-198.6.8c-.4.7-.5 1.5-.2 1.8.9.9 1.9-.4 1.4-1.8-.4-1.1-.6-1.1-1.2 0m213.9 9.1c-.3.5-2.1 1-3.8 1-4.1.1-8.1 3.5-9.7 8.5-1 3-1 3.9.1 4.5q1.2.9 4.2-3.6c2.9-4.5 4.9-5.5 10.1-5.1 2.5.2 3.1.8 3.8 3.5 1.1 4.2 3 3.2 2.1-1.1-.7-3.5-5.8-9.3-6.8-7.7m-77 13.7c-23.6 9.4-28.8 10.4-52.3 10.3l-18.3-.1-6.4 4.1c-3.6 2.2-6.8 4-7.3 4s-3.6-1.1-7-2.5-6.6-2.5-7.1-2.5-1.2 2-1.5 4.4c-1 6.3-2.3 7.1-9.8 5.9-5-.8-6.9-.7-10.5.7-2.4.9-4 2-3.6 2.5.5.4.2.5-.4.1-1.8-1-14.1 3.7-24.4 9.3-4.9 2.7-8.9 4.7-8.9 4.4 0-.4 3.1-4.1 7-8.4 4.7-5.2 6.5-7.9 5.6-8.2-1.4-.6-7.7 5.5-11.4 10.9-1.2 1.8-4.1 10.9-6.7 20.9-2.4 9.7-4.7 18-5 18.5-.7 1.2 3.5 3.4 4.5 2.3.4-.4 1.5-3.7 2.5-7.3.9-3.6 2.5-7.4 3.5-8.5.9-1.1 2.3-4.3 3-7 .7-2.8 2-5.9 2.9-6.9s7.3-4.7 14.3-8.1c14.6-7.1 15.8-8 15.8-10.8 0-1.1.3-1.7.8-1.3.4.4.7 1.7.7 2.9 0 1.1.6 2.2 1.4 2.5 1 .3 1.2 0 .8-1.2-.9-2.2 2.4-5.8 4.2-4.7.7.5 1.1 1.3.7 1.9-1.1 1.8 27.8 17.4 34.4 18.7 1.9.4 11.6 5.3 21.5 10.8 21.4 12.2 22.7 12.6 25 8.2 1.6-2.8 1.6-3.4.2-6.1-2.1-4-3.2-4.8-9.7-6.9-5.1-1.6-17-7.8-28-14.5-4.7-3-14.6-5.5-17.2-4.5q-1.65.75-1.5-1.2c.2-1.4-.4-1.7-2.3-1.5-2.4.2-2.4.2-.8-1.5 1.7-1.6 1.9-1.6 4.5.3 1.6 1.1 5.3 2.6 8.3 3.2 3.1.7 7.1 2.2 9 3.4 12.7 7.7 22.4 12.8 28.5 14.8 7.2 2.4 8 3 11 8.6 1.7 3.2 1.7 3.3-.4 6.2-1.3 1.9-2.1 4.4-2 6.9v3.8l1.9-4.1c3.3-7.5 6.5-8.8 32.5-13.8 7.2-1.4 17.5-3.4 23-4.5 5.5-1 13.6-2.4 18-3.1 17.5-2.6 31.4-6.7 40.7-12.1 8.9-5.1 14.3-6.2 14.3-2.9 0 1-.8 1.4-2.3 1.2-1.4-.2-5.9 1.8-11.6 5.1-15.5 9.1-28.6 13.5-48.2 16.2-6.1.8-13.6 2.2-16.5 2.9-3 .8-11.9 2.6-19.9 4.1-19.1 3.5-23.4 4.9-24.9 8.2-1.6 3.5-6.2 24.3-6.8 31.1-.6 5.9-2.4 7.5-5.1 4.8-2.5-2.5-2.1-20.5.6-30.3 1.1-4 1.6-7.1 1.2-6.8s-1.4-.2-2.1-1.1-5.6-3.6-10.8-6-13.1-7.1-17.6-10.4c-4.5-3.2-9.5-6.2-11.1-6.5-5-1.1-12.5-4.5-24.5-11.1-6.4-3.5-12.4-6.4-13.3-6.4-5.3 0 2.3 4.5 35.4 21 42.9 21.5 39.1 17.6 37.1 37.5-.7 6.6-1.1 14.8-.9 18.2.1 3.4-.1 6.5-.4 6.8-.6.6-14.2-2.2-38.8-7.9-5.8-1.3-15.4-3.1-21.5-4.1-6-.9-13.2-2-15.9-2.5-4.1-.6-5.1-.5-6.7 1.1-1.1 1.1-1.9 2.7-1.9 3.7 0 1.5 5 2.7 37.3 9.2 45.4 9 48.3 9.2 63.7 5.2 15.6-4.1 32.8-8.4 48.8-12.2 13.2-3 19.8-5.7 66.2-26.8 4.9-2.2 8.1-4.6 12.2-9.2l5.7-6.2-3.4-6.5-3.5-6.4.7-10.3.6-10.3-6.5-3.6c-3.5-2-9.9-4.8-14.2-6.2-9.8-3.2-10.9-3.8-17.1-9-7.5-6.2-9.1-7.1-19.9-10-9.5-2.5-20.6-7.7-20.6-9.6 0-1.6-2.2-.9-21.5 6.8m97.3 57.5c.2 2-.3 3.9-1 4.5-1.4 1.2-6.5 2.7-42.3 13.2-13.2 3.9-25.5 7.3-27.4 7.6-6 1-19.4 6.6-18.3 7.7.6.6 2.9 0 6.3-1.8 4.6-2.3 30.9-9.8 31.7-9 .5.5-15.5 6.5-20.2 7.6-5.4 1.2-15.1 5.8-14.2 6.7 1.5 1.5 23.3-.6 34.6-3.3 10.3-2.5 24.4-7.3 37.3-12.8 6-2.6 4.3.1-2.2 3.4-17.9 9-39.1 15.3-56.8 16.9-6.2.6-12.9 1.7-15 2.6-4.8 2.1-19 5.5-22.6 5.5-1.5 0-6.2 2-10.5 4.4-4.2 2.5-9 4.8-10.7 5.2-2.6.6-1.8-.4 5.7-7.8l8.7-8.5-.4-4.9c-.7-8 .2-10.1 4.9-12.9 7.8-4.6 26.4-9.8 23.1-6.6-.6.6-5.7 3.3-11.4 6.1-7 3.5-10.1 5.4-9.4 6.1s4.6-.7 12.1-4.5c6.8-3.4 11.4-5.2 11.7-4.5 1.1 1.7-.9 3.2-11.2 8.2-9.1 4.5-12.3 7.3-12.3 10.9 0 1.9 3.1.6 5.2-2.2q7.65-10.5 49.8-22.5c41.4-11.9 42.8-12.3 47.7-15.9 2.6-2 5.3-3.4 5.8-3.2.6.1 1.1 1.8 1.3 3.8"/>
        <path d="M365 264.5c0 .8.5 1.5 1 1.5.6 0 1-.7 1-1.5s-.4-1.5-1-1.5c-.5 0-1 .7-1 1.5m90.6-93c-4.7 4.4-2.9 10.6 4.5 14.5 1.9 1.1 1.9.8 1.5-7-.7-11-1.3-11.8-6-7.5m-207.2 21.6c-.3.6 0 1.7.7 2.5 1.8 1.7 4.4.2 3.6-2-.7-1.8-3.3-2.1-4.3-.5M113.6 211c1.4 5.8 2.1 15.4 2.3 30l.2 15.5 5.2 4.8 5.2 4.8-5.2-2.6c-4.2-2-5.3-2.2-5.3-1.1 0 2 14.1 8.9 17.1 8.4 2.3-.3 2.1-.6-3.1-6.1-3-3.3-5.5-6.4-5.6-7 0-.7-.2-2-.2-3-.1-.9-.5-1.6-.9-1.5-.5.1-2-.4-3.5-1L117 251v-18.7c0-17.1-.2-19-2-21.3l-1.9-2.5zm45.4 6c.1 7 1.5 11.7 5.4 17.6 4.1 6 6.4 7.4 14.3 8.3.6 0 2.6 2.6 4.3 5.6 3 5.2 9.2 11.3 9.8 9.6.3-.8-6.9-13.6-8.6-15.3-.4-.4-3.5-1.2-6.8-1.6l-5.9-.7-4.3-7.1c-2.6-4.4-4.7-9.5-5.4-13-1.4-7.5-2.8-9.2-2.8-3.4m15 4.8c0 1.7 4 9.5 4.6 8.9.3-.3-.6-2.7-2-5.4-1.4-2.6-2.5-4.2-2.6-3.5M72 243.1c-14 8.2-30.6 17.9-36.8 21.5-9.7 5.7-11.3 7-10.8 8.8.2 1.1.8 7.1 1.2 13.3l.7 11.2L23 303c-1.8 2.8-3.1 5.2-2.9 5.4 2.7 2.5 18 11.3 18.4 10.7.3-.5-2.1-4.5-5.4-8.8l-5.8-7.9 2-3.9c1-2.1 2.4-7.3 2.9-11.4.8-6.5.7-8.1-.8-10.8-2.6-5-1.6-6 5.2-5.3 5.7.7 6.1.6 13.9-4 18-10.5 29.8-17 30.2-16.7.2.3-6.4 5.4-14.7 11.5-10.8 8-15.4 12.1-16.4 14.4-.8 1.8-2.8 6.3-4.5 10-1.6 3.8-2.6 6.8-2.1 6.8 1.5 0 3.8-4 6.5-11 2.4-6.2 3-6.9 13.2-14.8 6-4.5 15.3-11.8 20.7-16.3 10.7-8.6 11.6-8.7 11.6-1.7 0 2.7.4 3.8 1.5 3.8 1.8 0 2.2-2 2.9-14.8.5-7.8.3-10.2-.6-10.1-.7.1-12.8 6.8-26.8 15m258.2 11.1c-.5.7-1.5 4.7-2.2 8.8-.8 4.1-1.4 7.6-1.5 7.7-.1.2-11.5-1.7-25.4-4.2-14-2.5-28.1-4.8-31.5-5.1-3.3-.4-10.5-1.7-16-3.1-5.4-1.3-10-2.2-10.3-2-.2.3 2.2 1.9 5.4 3.7 5.2 2.9 9.8 3.9 43.3 10.1 20.6 3.7 37.7 6.6 37.9 6.3.9-.9 3.9-20.7 3.4-22.1-.6-1.6-1.8-1.7-3.1-.1M212 257.4c0 3.9 2.4 6.6 7.2 8.2 2.7.9 5.2 1.4 5.5 1.1.7-.8-6.4-7.5-9.8-9.3-2.6-1.3-2.9-1.3-2.9 0m25.2 11.8c.2 1.3 1 2.4 1.9 2.6 2.1.4 3.4-2.8 1.7-4-2.4-1.5-3.9-.9-3.6 1.4m6.4 3.4c-.6 1.6.9 5.4 2.3 5.4.4 0 1.3-1.2 2-2.7 1-2.1.9-2.8-.1-3.4-2-1.3-3.5-1.1-4.2.7m-73.1 1.4c-3.8.4-10 .8-13.7.9l-6.7.1-1.6 5.7c-3.1 11-3.3 11.3-3.4 4-.1-5-.4-6.8-1.3-6.5-2 .7-2.3 17.1-.4 18.7.7.6 7.6 2.1 15.2 3.2 7.7 1 15.1 2.2 16.6 2.5 2.3.5 3.7-.7 13.2-11.6 5.9-6.6 10.4-12.5 10.1-13s.4-1.5 1.6-2.4c2-1.4 1.8-1.5-3.7-1.3-3.7.2-6.9.9-8.4 2-3.3 2.3-4 2.2-4-.8 0-2.8-.3-2.8-13.5-1.5m16.7 11.2c-.7.7-1.2.8-1.2.2s.3-1.4.7-1.7c.3-.4.9-.5 1.2-.2.2.3-.1 1.1-.7 1.7M86 280.1c-6.9 2.8-12.9 5.5-13.5 6-.7.7-.5.9.5.5.8-.2 7.4-2.4 14.5-4.7 15.1-4.9 15.1-4.9 13.4-6-1.8-1.1-.6-1.5-14.9 4.2"/>
        <path d="M39.1 282.7c-.5 2.1-1.3 5.1-1.7 6.8-.4 1.6-1.6 4.3-2.7 5.9l-2.1 2.9 4 3.4c2.5 2.1 4.6 3.2 5.9 2.9 1.1-.2 16.9-4.3 35-9 18.2-4.7 33.1-8.6 33.3-8.6.1 0-.2-.9-.9-2.1-.9-1.8-1.6-2-5.7-1.4-6.4.9-58.3 14.1-61.6 15.6-2.2 1-2.9 1-4.2-.3s-1.4-2-.4-3.9c1.5-2.7 4-11.6 4-14.2 0-3.1-1.9-1.8-2.9 2m161.3-.1c-6.6 4.5-6.6 6.2-.1 9.3 4.5 2.1 38.9 11.1 49.7 12.9 12.6 2.2 22.7 2.5 25 .9 2-1.4 1.9-1.5-2.4-2.6-2.5-.6-6.3-1.1-8.5-1.1-3.4 0-17.5-4.9-28.6-10-4.6-2.1-26.5-11-27-11-.4 0-.5 1.9-.3 4.2.3 3.7.7 4.3 3.8 5.4 5 1.8 2.3 1.7-3.9-.2-4.7-1.3-6.1-2.9-2.8-2.9 1.5 0 1.6-6.7.1-7.2-.6-.2-2.8.8-5 2.3"/>
        <path d="M64.7 285.6c-.8.8.1 2.4 1.4 2.4.5 0 .9-.7.9-1.5 0-1.5-1.2-2-2.3-.9m34.1 11.7c-7.6 2.2-13.5 4.3-13.3 4.5.6.6 28.8-6.9 30-8 1.8-1.6-3.2-.6-16.7 3.5m323.5-2.4c-2.2 1.8-2.2 1.9-.3 2.4 2.3.6 2.8 5.5.8 7.6-1.1 1-1 1.4.5 2.2 2.6 1.5 2.2 6.5-.8 8.5-2.6 1.7-4.5 1.2-4.5-1.2 0-.8-.7-1.4-1.5-1.4-1.9 0-3-4.3-1.7-6.7 1.7-3.1-1.1-4.7-4.1-2.3-1.4 1.1-4.9 2.2-8.1 2.6-8.9 1.1-8.8.9-1.1 28l6.7 23.3-3.2 7c-2.7 5.8-4.3 7.7-9.2 11.3-3.3 2.3-6.3 4.9-6.7 5.7-1.1 1.8.7 9.1 2.8 11.5 1.4 1.5 2.7 1.8 8.7 1.4 6.9-.5 7.3-.6 14.4-6.4 6.1-4.9 7.9-7 10.7-12.9 3.8-8 4.1-11.4 1.3-14-1.6-1.4-1.9-2.6-1.4-5.6.5-2.8.1-4.5-1.3-6.6-5.6-7.9-14.6-25.5-16.3-31.8-2.3-8.5-1.1-10.6 1.9-3.5 3.1 7.3 14.9 25.2 16.1 24.5.6-.4 1-9.4 1-23.1 0-23.9-.1-24.3-4.7-20.5m-11.1 90.3c-.7.7-1.2.8-1.2.2 0-1.4 1.2-2.6 1.9-1.9.2.3-.1 1.1-.7 1.7M365 314.4c-.8.7-5.9 3.6-11.3 6.4-7.7 4.1-12 5.6-20.9 7.3-6.2 1.3-12.8 3.2-14.7 4.3-1.9 1.2-7.1 5.6-11.5 9.8-4.4 4.3-8.3 7.8-8.7 7.8-1.6 0-1.9-2-.4-2.6.9-.4 3-2.7 4.7-5.3 1.7-2.5 4.6-6 6.4-7.8 3.6-3.3 3.7-6.3.4-6.3-2.5 0-3.5 1.8-2 3.5 1 1.3.7 1.6-1.8 2.1-2.4.5-3.6 1.6-5.2 5-2.5 5-5.8 9.4-7.1 9.4-2.3 0-3.1-4.6-1.5-8.4 1.5-3.7 1.5-3.7-.6-3.4-2.9.4-3.7 3.6-4.8 18.8-2.8 40.2-3.1 55.4-1.2 68 .6 4.7 1.5 11.4 2 14.9.6 5.8.9 6.5 3 6.6 1.3.1 2.6-.4 2.9-1.1s2.6-2.5 5.1-4c15.5-8.8 56.3-31.5 59.7-33.1l3.9-2.1-4.2-2.1c-3.5-1.8-4.3-2.9-5.6-6.9-1.3-4.4-1.2-5.8.8-15.5 1.9-9.6 2.5-11.1 6.6-16.2 3.7-4.5 11.9-10.5 14.5-10.5.3 0-.4 1.8-1.5 4-1.2 2.3-4.2 5.6-6.9 7.5-6.2 4.5-8 8.7-8.6 20.3-.3 6.4-.2 6.9 2.8 9.9 1.7 1.8 3.7 3.3 4.4 3.3s1.3.9 1.3 2c0 2 4.4 4.9 5.6 3.7.3-.3.8-2.4 1.1-4.6.5-3.6.3-4.1-1.3-4-4.3.4-6.4-.2-8.7-2.7l-2.4-2.6 1.8-8.6c1.6-8.1 2-8.9 6.1-12.4 2.3-2.1 4.7-3.8 5.2-3.8.4 0 .5-.7.2-1.6-.3-.8.8-4.2 2.4-7.5 2.1-4.1 2.8-6.5 2.2-7.7-.5-.9-2.8-9.2-5.2-18.5-2.4-9.2-4.7-16.7-5-16.7s-1.2.6-2 1.4m-69 38.1c0 .8-.7 1.5-1.5 1.5-1.6 0-2-1.2-.8-2.3 1.1-1.2 2.3-.8 2.3.8m3.4 19.1c3.5 3.4.6 6.6-4 4.6-2.6-1.3-3.1-3.1-1.2-5 1.6-1.6 3.3-1.5 5.2.4m15.6 4.3c0 1.4-1.8 2.3-3 1.6-.6-.4-.8-1.1-.5-1.6.8-1.2 3.5-1.2 3.5 0m20.6 9.6 6 6.4 2.2-2.2c1.7-1.7 2.4-1.9 3.4-.9.9.9.4 2.1-2.7 5.2-2.1 2.2-4.5 4-5.1 4-.7 0-4-2.3-7.4-5.1l-6.1-5.1-5.3 1.9c-9.6 3.6-22.3 11.1-24.5 14.6-1.1 1.8-3.1 4.3-4.5 5.6-2.2 2.1-2.6 2.2-3.2.8-.3-1-.4-3.6 0-5.9.3-2.4.6-7.5.6-11.3l.1-7 1.6 3.7c1.6 4 3.1 4.6 6.2 2.6 1.5-.9 1.8-1.9 1.4-5-.4-2.9-.2-3.8.9-3.8.9 0 2.2 1 3 2.2l1.5 2.2 9.4-4.1c15.6-6.9 14.9-6.9 22.5 1.2m11.4 14.8c0 2.3-7.8 9.5-12.4 11.5-2.4 1.1-6.9 2.7-9.9 3.6-7 2-19.6 8.7-26.1 13.8-5.4 4.2-6.9 4.4-7.4.9-.5-3.3 7.2-10.3 16.6-14.9 4.2-2.2 12.6-5.1 18.6-6.6 9.1-2.2 11.7-3.3 14.8-6.2 4-3.6 5.8-4.2 5.8-2.1m-147.2-82.7c-.5.4-.8 2.1-.8 3.8 0 5.6-10.5 54.2-12.3 56.9-1.1 1.8-2.6 2.7-4.3 2.7-2.6 0-2.6-.1-2-5.3 1.6-14.2 2.8-34.9 2-35.6-.5-.4-3.6-1.4-6.9-2.1-5.7-1.2-6-1.2-7.5 1-.8 1.3-2.9 3.7-4.6 5.4-1.9 2-3.3 4.7-3.7 7.1-.4 2.2-2.3 14.3-4.2 27-1.9 12.6-3.7 24.4-4 26.1-.5 2.6-.9 3.1-2.6 2.7-1.1-.3-2.4-1.4-2.9-2.4-.8-1.5-.5-2.2 1.4-3.4 3.3-2.2 3.9-7.6 1.1-9-3.3-1.7-3.1-4.5.4-5.8 3.7-1.4 4.5-5.7 1.1-5.7-4.5 0-3.5-5.9 1.1-7 3.1-.7 4-5 1.1-5-2.5 0-4.6-2.5-3.9-4.5.4-.8 1.8-1.7 3.2-2.1 2.5-.6 2.5-.8 2.5-10 0-8.8.2-9.9 3.5-16.4 1.9-3.8 3.5-7.2 3.5-7.5 0-.4-1.2-.5-2.6-.3-2.4.3-3.1 1.6-8.9 17.8-3.4 9.6-9.3 25.8-13 36l-6.7 18.5 1.3 8.4c1.3 9.2 2.2 10.6 9.7 14.8l4 2.3 2.4-4.7c1.2-2.6 2.8-4.9 3.5-5.1 1.3-.3 5.2 6.7 7.2 12.9 1.5 4.6 4.4 7.3 7.1 6.6 1.1-.3 2.3-.1 2.6.4 1.2 2.1 7.3 4.3 13.3 5 3.5.4 6.7 1.2 7.1 1.9 1.4 2.3 2.5-1.2 3.7-12.5 1.1-9.6 4.2-38.8 4.5-42.2.1-.7.4-1 .8-.8s2.5-6.2 4.8-14.3c2.2-8.1 5.4-19.3 7-25 2.1-7.2 2.5-10.1 1.6-10-1.9.4-7.3-6.1-7.9-9.6-.3-1.7-.9-5.1-1.3-7.4-.4-2.4-1-4-1.4-3.6m-5.8 50.1c0 .5-.4 1.4-.9 2.1-.6 1-1 .9-1.4-.7q-.45-2.1.9-2.1c.8 0 1.4.3 1.4.7m29.5-36.7c-1 1.6 1.6 4.3 2.8 3.1 1.1-1.1.2-4.1-1.2-4.1-.5 0-1.3.5-1.6 1m4.1 6.4c-3.5 8.5-13.5 46.6-16.5 63-1.7 9.2-1.3 29.7.8 42.4 1.6 9.7 2.3 11.8 4.7 14.3 3 3.2 2.8 3.8-1.9 5.6l-3.2 1.2 3.4-.2c2.2-.1 3.9-1 4.8-2.3 1.2-1.9 1.1-2.5-1.3-5.3-2.9-3.5-3.4-5.9-5.5-31.1-1.1-14.1-1.1-14.9 1.5-28.7 3.1-16.8 10.5-45.2 14.1-54.2 2.8-7.2 3-8.1 1.5-8.1-.5 0-1.6 1.5-2.4 3.4m24.5 1.4c-1.6 1.3-3.1 6.1-6.2 19.2l-4 17.5.3 39.2c.3 44.3-.1 42 8.2 43.3 6.6 1 7.2-.1 5.7-10.3-1-7.4-2.2-21.3-3.7-44.7-.7-9.4 2-46.1 3.9-54.9 2-9.1.2-13-4.2-9.3m9.8 7.9-3.4 8.8.1 37.5c.1 42.1 1 53.9 4.9 60 1.3 2.1 2.8 4.1 3.2 4.3.5.3 3.1.1 5.8-.5 4.8-1.1 4.9-1.1 2.1-1.9-1.6-.5-3.3-1.4-3.7-2.1-1.7-2.7-2.1-14.6-1-34.1.6-11.4 1.4-27.7 1.6-36.4.8-24.7 1.4-32.4 2.9-38.1 1.1-3.9 1.1-5.2.2-5.2-.7 0-1.9 3.5-2.9 8.2-1 4.5-2.2 8.7-2.7 9.2-1.3 1.3-1.3-6.5.1-12.3.8-3.4.7-4.6-.3-5.2-2.6-1.7-3.5-.7-6.9 7.8m6.8 50.5c-.6 31.9-1.6 41.3-3.3 30.2-.8-5.7.2-59.1 1.1-61.7.4-.9 1.2-1.7 1.8-1.7.7 0 .8 10.2.4 33.2m-49-55.2c-.3 1 .1 2.4.8 3 1 .8 1.5.3 2.3-2 1-2.6.9-3-.7-3-1 0-2.1.9-2.4 2"/>
        <path d="M215.2 354.7c-.6 2.1-1.7 6.9-2.6 10.8-.8 3.8-2.9 13.1-4.7 20.5-4 17.3-4.6 28.6-2.4 46.5.9 7.7 1.5 16.8 1.3 20.2-.3 7.1 1.2 8.6 2.6 2.4.6-2.8.2-9.2-1.4-21.7-2.3-18-2.2-24.2.1-37.9 1.6-9 7.8-34 9.5-38.1 1.5-3.6 1.3-6.4-.4-6.4-.5 0-1.4 1.7-2 3.7m10.1 106.6c-4.8 1.8-5.3 3-.8 2.2 4.6-.9 5.5-1.3 5.5-2.6 0-1.1-.6-1.1-4.7.4m-19.9 2.8c-1 1.7 1.3 3.6 2.7 2.2 1.2-1.2.4-3.3-1.1-3.3-.5 0-1.2.5-1.6 1.1"/>
    </g>
</svg>
