<?xml version="1.0" standalone="no"?>
<!DOCTYPE svg PUBLIC "-//W3C//DTD SVG 20010904//EN"
 "http://www.w3.org/TR/2001/REC-SVG-20010904/DTD/svg10.dtd">
<svg version="1.0" xmlns="http://www.w3.org/2000/svg"
 width="512.000000pt" height="512.000000pt" viewBox="0 0 512.000000 512.000000"
 preserveAspectRatio="xMidYMid meet">
<metadata>
Created by potrace 1.16, written by Peter Selinger 2001-2019
</metadata>
<g transform="translate(0.000000,512.000000) scale(0.100000,-0.100000)"
fill="#f2f2f2" stroke="none">
<path d="M3552 5060 c-30 -10 -57 -22 -62 -26 -32 -34 -144 -224 -205 -349
-109 -222 -169 -406 -151 -462 4 -11 42 -39 86 -64 65 -35 76 -45 60 -51 -10
-4 -33 -3 -51 2 -39 12 -41 10 -24 -13 17 -24 255 -112 320 -119 l50 -6 -35
29 c-19 16 -47 35 -62 42 -16 6 -28 14 -28 17 0 3 30 6 68 7 116 1 336 71 454
143 l47 29 113 -54 c134 -64 158 -72 158 -52 0 8 -15 60 -34 116 -31 91 -35
114 -35 214 -1 159 -26 248 -83 302 -47 44 -120 104 -183 151 l-39 29 42 -54
c49 -62 107 -176 121 -241 5 -24 9 -46 7 -47 -2 -2 -24 32 -49 75 -63 108
-151 215 -241 291 -142 120 -151 123 -244 91z m231 -229 c74 -103 115 -186
153 -310 l32 -105 -42 -31 c-149 -114 -315 -175 -476 -175 -133 0 -142 3 -175
64 l-28 52 33 99 c49 152 210 461 254 490 12 8 49 21 81 28 59 14 60 14 87
-10 14 -14 51 -60 81 -102z"/>
<path d="M3575 4841 c-9 -28 -21 -53 -26 -57 -16 -10 -50 -84 -38 -84 6 0 24
14 41 30 37 38 54 38 107 -1 61 -44 69 -31 21 30 -24 30 -53 72 -65 94 l-23
39 -17 -51z"/>
<path d="M3541 4604 l-33 -46 27 -51 c33 -61 44 -77 56 -77 9 0 69 125 69 144
0 15 -62 76 -76 76 -6 0 -25 -21 -43 -46z"/>
<path d="M3750 4602 c0 -4 6 -16 14 -27 7 -11 17 -34 20 -52 6 -28 3 -35 -33
-69 -48 -43 -51 -61 -15 -75 21 -7 35 -5 63 9 44 23 60 51 52 97 -8 48 -101
156 -101 117z"/>
<path d="M3386 4498 c-17 -26 -19 -38 -17 -91 2 -70 75 -113 115 -68 17 18 15
20 -33 46 -58 32 -68 52 -47 94 19 35 19 41 6 41 -5 0 -16 -10 -24 -22z"/>
<path d="M3520 4300 c0 -16 -7 -20 -37 -21 -37 -1 -37 -2 15 -14 29 -7 64 -16
77 -19 34 -9 32 9 -4 45 -34 34 -51 37 -51 9z"/>
<path d="M4303 4559 c8 -40 24 -72 63 -124 138 -185 326 -512 341 -595 l6 -35
-28 25 c-35 32 -115 142 -235 324 -52 79 -96 143 -98 141 -2 -1 4 -93 13 -204
9 -111 15 -209 13 -217 -2 -10 -27 19 -62 70 -50 73 -71 94 -135 135 -119 76
-135 83 -168 70 l-28 -11 24 -19 c13 -10 30 -19 38 -19 10 0 14 -7 10 -19 -4
-17 0 -19 36 -18 51 2 59 -17 13 -34 l-34 -12 24 -19 c69 -55 257 -341 307
-468 33 -83 83 -281 98 -385 12 -84 6 -388 -10 -478 -8 -50 -93 -186 -148
-239 l-29 -28 -36 64 c-36 61 -37 67 -43 192 -10 185 -29 304 -69 427 -64 196
-149 354 -255 476 -166 192 -251 261 -394 322 -107 45 -114 31 -17 -32 121
-79 201 -149 273 -240 79 -98 181 -277 201 -349 8 -30 26 -98 40 -150 20 -72
29 -138 38 -273 15 -250 0 -365 -73 -557 -16 -41 -34 -83 -40 -93 -6 -11 -9
-21 -7 -23 2 -2 44 5 93 15 142 30 237 49 280 56 69 11 217 66 301 111 l81 43
21 -62 c31 -90 49 -170 62 -277 20 -157 22 -159 58 -45 47 153 90 335 109 469
25 172 25 628 -1 771 -9 55 -19 111 -22 125 -2 14 -8 40 -13 59 -6 18 -10 36
-9 40 1 3 -4 26 -10 51 -69 256 -132 415 -253 640 -59 109 -209 317 -290 404
l-47 50 11 -55z m173 -581 c78 -110 176 -354 222 -553 49 -210 65 -501 42
-751 -13 -143 -14 -146 -66 -170 l-44 -21 7 106 c14 190 9 466 -10 588 -31
197 -109 422 -213 608 l-33 61 19 54 c10 30 22 72 25 93 3 20 8 37 10 37 1 0
20 -24 41 -52z"/>
<path d="M835 4312 c-82 -91 -265 -339 -265 -358 0 -3 -10 -19 -21 -36 -31
-43 -137 -251 -170 -333 -15 -38 -33 -83 -40 -100 -7 -16 -22 -59 -34 -95 -19
-55 -20 -66 -8 -68 8 -2 74 1 146 7 73 6 194 13 270 17 104 5 137 10 137 20 0
21 57 161 106 259 63 124 202 330 264 390 51 49 52 49 46 20 -10 -42 -63 -150
-147 -295 -62 -109 -183 -369 -175 -377 2 -2 50 19 107 46 185 88 287 112 372
88 24 -7 27 -12 27 -52 0 -48 50 -165 71 -165 6 0 29 13 52 29 23 15 53 32 65
36 13 4 28 19 33 35 l10 27 87 -24 c47 -14 94 -29 103 -34 16 -8 76 -150 109
-256 18 -59 58 -103 94 -106 29 -2 30 -1 42 69 31 182 94 397 159 544 18 41
39 95 46 119 l13 44 -34 30 c-19 16 -78 57 -130 91 -282 184 -421 266 -541
317 -40 17 -83 38 -95 46 -46 29 -192 74 -281 84 -50 6 -96 9 -101 8 -5 -2
-82 -96 -172 -209 -160 -200 -254 -312 -271 -318 -11 -5 81 204 127 285 21 38
66 110 100 161 l63 92 -65 0 c-63 0 -67 -1 -99 -38z m925 -439 c0 -21 -20 -95
-44 -166 l-43 -127 141 -45 c132 -42 234 -93 243 -121 7 -22 -143 19 -519 142
-242 79 -241 79 -326 41 -24 -10 -46 -16 -49 -13 -4 3 -4 7 -2 9 2 2 31 23 64
46 l60 43 73 -6 c40 -4 107 -17 148 -31 l76 -23 11 31 c33 97 132 257 158 257
5 0 9 -17 9 -37z m-980 -270 l45 -20 -44 -12 c-31 -9 -79 -11 -157 -6 -98 6
-113 10 -117 26 -8 32 21 40 128 36 72 -3 112 -9 145 -24z m-22 -121 c13 -4
24 -11 25 -17 3 -16 -122 -42 -241 -49 -108 -7 -109 -7 -115 16 -12 43 32 56
188 56 66 0 130 -3 143 -6z m822 -101 c8 -16 5 -23 -17 -41 -29 -23 -38 -19
-48 22 -5 20 -3 27 12 31 34 9 42 7 53 -12z"/>
<path d="M2301 3542 c-37 -115 -48 -162 -38 -162 2 0 18 7 35 15 36 18 72 101
72 163 0 51 -11 112 -20 112 -4 0 -26 -58 -49 -128z"/>
<path d="M685 3236 c-5 -3 -37 -8 -70 -11 -73 -9 -51 -23 38 -24 31 -1 57 -3
57 -6 0 -3 -9 -45 -20 -94 -27 -122 -96 -547 -116 -715 -16 -130 -19 -144 -53
-196 -20 -30 -52 -90 -71 -132 -19 -43 -39 -77 -43 -78 -14 0 -114 222 -121
268 -14 94 -7 588 9 718 24 185 29 195 93 214 29 9 49 19 46 23 -9 9 -120 9
-162 1 l-30 -6 -31 -162 c-17 -88 -33 -186 -36 -216 -2 -30 -8 -82 -11 -115
-8 -67 -8 -417 0 -443 3 -10 8 -46 11 -82 19 -186 96 -494 174 -687 156 -389
429 -755 751 -1002 348 -268 777 -428 1201 -449 386 -19 730 49 1085 213 40
19 75 38 79 44 3 6 10 9 15 6 17 -11 31 26 37 104 3 44 4 81 1 81 -3 0 -36
-15 -75 -34 -184 -90 -366 -134 -583 -143 -176 -7 -282 9 -455 67 -129 43
-166 62 -305 159 -170 117 -348 317 -406 456 -22 55 -2 35 59 -58 147 -220
332 -359 609 -456 221 -77 649 -64 934 28 126 41 233 90 238 110 2 9 7 50 11
91 3 41 12 107 20 145 7 39 11 72 9 74 -2 2 -48 -6 -102 -19 -204 -48 -226
-51 -345 -40 -164 15 -244 37 -420 115 -129 58 -146 70 -257 171 -127 116
-195 205 -267 349 -61 122 -143 375 -163 505 -6 41 -19 116 -28 165 -10 57
-16 145 -17 240 0 143 5 207 25 355 16 109 15 112 -38 138 -99 47 -649 221
-897 284 -122 31 -185 41 -265 44 -58 2 -109 2 -115 0z m450 -125 c66 -18 170
-47 230 -66 61 -19 193 -57 295 -85 102 -28 206 -58 231 -66 l47 -15 -9 -37
c-4 -20 -16 -113 -25 -207 -15 -157 -15 -183 0 -360 16 -184 15 -193 -3 -283
-11 -51 -27 -162 -37 -246 l-18 -154 -65 55 c-132 109 -301 285 -311 323 -14
51 -28 206 -40 440 -15 297 -30 488 -39 513 -7 18 -11 12 -26 -38 -39 -132
-46 -176 -51 -330 -7 -172 7 -418 32 -578 14 -90 14 -105 0 -165 -29 -126 -66
-377 -66 -454 0 -6 -10 2 -22 18 -12 16 -108 117 -214 225 -106 107 -198 207
-203 222 -46 121 -76 650 -51 902 19 198 71 427 100 445 6 4 36 -1 68 -11 31
-9 111 -31 177 -48z m-187 -2071 c188 -220 296 -317 519 -466 220 -148 473
-258 708 -309 257 -55 549 -69 690 -31 28 7 55 11 60 9 6 -2 51 10 100 27 48
16 90 28 93 26 12 -13 -224 -112 -313 -132 -84 -19 -357 -37 -435 -29 -271 27
-620 156 -875 322 -165 108 -381 312 -522 493 -82 106 -179 262 -129 210 7 -8
54 -62 104 -120z"/>
<path d="M2064 2260 c8 -199 96 -495 192 -642 57 -89 169 -200 262 -262 129
-85 330 -155 372 -128 25 15 30 15 30 -2 0 -23 65 -30 96 -10 25 17 27 17 43
-4 19 -25 48 -29 111 -14 103 25 308 -10 429 -73 19 -9 38 -11 57 -6 17 4 36
3 45 -2 19 -12 105 12 102 28 -1 6 -42 22 -92 36 -49 15 -109 35 -133 46 -24
11 -73 25 -109 32 -81 14 -258 15 -293 1 -15 -5 -35 -6 -48 -1 -13 5 -73 11
-133 15 -133 7 -264 41 -342 88 -78 47 -226 172 -303 255 -79 85 -157 229
-195 358 -33 115 -61 235 -70 305 -15 108 -26 97 -21 -20z"/>
<path d="M4435 2150 c-112 -48 -254 -89 -385 -110 -119 -20 -137 -27 -167 -73
-16 -23 -69 -104 -117 -180 -76 -119 -87 -142 -78 -160 19 -42 182 -235 249
-297 102 -94 224 -140 380 -143 l87 -2 37 55 c21 30 42 60 48 66 5 7 14 62 20
124 6 62 12 115 14 116 2 2 10 -25 17 -61 14 -66 23 -79 34 -47 3 9 14 31 25
47 11 17 33 58 51 93 l32 63 -4 167 c-3 140 -8 180 -27 245 -13 42 -27 77 -30
77 -4 0 -19 -25 -34 -56 -37 -75 -110 -184 -143 -214 -22 -20 -26 -21 -21 -7
4 10 16 54 27 97 11 44 33 115 49 160 15 44 28 80 27 80 -1 -1 -41 -18 -91
-40z m-6 -460 c29 -76 30 -83 21 -162 -16 -140 -43 -280 -56 -285 -17 -6 -127
21 -225 57 -81 29 -92 37 -178 123 -51 51 -106 113 -123 140 -17 26 -39 47
-48 47 -28 0 -80 21 -75 30 6 10 31 13 210 30 124 12 279 45 375 80 30 10 58
19 62 20 3 0 20 -36 37 -80z"/>
<path d="M4260 1674 c0 -3 27 -33 60 -66 38 -37 60 -54 60 -43 0 27 -28 72
-59 94 -27 20 -61 28 -61 15z"/>
<path d="M3995 1620 c-13 -14 -16 -28 -11 -52 6 -34 44 -104 52 -96 2 3 -1 29
-6 59 -9 46 -8 56 6 66 18 13 12 43 -9 43 -8 0 -22 -9 -32 -20z"/>
<path d="M4141 1601 c-7 -5 -17 -27 -21 -50 -7 -37 -4 -46 17 -72 45 -53 117
-92 118 -62 0 6 3 15 8 19 4 4 7 28 7 54 0 40 -5 51 -33 76 -18 16 -37 30 -42
31 -6 1 -17 4 -25 7 -8 3 -21 2 -29 -3z"/>
<path d="M4303 1374 c-4 -12 -14 -14 -44 -9 -26 5 -39 3 -39 -5 0 -14 87 -53
100 -45 13 8 13 75 0 75 -6 0 -13 -7 -17 -16z"/>
<path d="M3311 1090 c-30 -21 -59 -41 -65 -44 -19 -8 37 -46 68 -46 49 0 290
86 281 101 -3 4 -34 6 -68 2 -44 -4 -76 -1 -110 11 -26 9 -49 16 -51 16 -1 0
-26 -18 -55 -40z"/>
<path d="M3145 1109 c-50 -15 -224 -21 -315 -11 -47 5 -86 8 -88 7 -6 -5 66
-44 113 -61 68 -24 273 -24 327 0 44 19 48 25 37 54 -9 23 -25 26 -74 11z"/>
<path d="M3752 1020 c-43 -32 -84 -65 -89 -72 -18 -21 -51 -147 -63 -230 -8
-67 -5 -168 6 -168 2 0 41 24 87 54 166 110 154 99 159 153 3 26 3 50 1 52 -4
6 -89 -65 -165 -138 -38 -35 -68 -59 -68 -52 0 7 23 35 50 61 44 42 55 62 80
137 23 69 38 95 66 120 21 18 39 46 43 65 8 36 -2 78 -18 78 -5 0 -45 -27 -89
-60z"/>
<path d="M3824 612 c-6 -10 -56 -40 -110 -67 -55 -27 -101 -52 -104 -56 -8
-12 1 -109 11 -109 5 0 9 7 9 15 0 8 7 15 16 15 21 0 128 83 159 124 14 18 28
47 31 64 7 36 4 40 -12 14z"/>
</g>
</svg>
