<svg xmlns="http://www.w3.org/2000/svg" width="341.333" height="341.333" version="1.0" viewBox="0 0 256 256">
    <path fill="#e5e5e5" d="m27 21.5 8.5 8.5h185l8.5-8.5 8.5-8.5h-219zM13 128v109.5l8.5-8.5 8.5-8.5v-185L21.5 27 13 18.5zM234.2 27.3l-8.2 8.2v185l8.5 8.5 8.5 8.5V128.2c0-60-.1-109.2-.3-109.2-.1 0-3.9 3.7-8.5 8.3M163.7 64c-12.3 3.7-17.8 20.4-10.1 31.2 7 10 20.9 11.6 30.1 3.5 16.7-14.6 1.3-41.1-20-34.7m-87.2 53.9c-1.6 1-5 5-7.5 9s-6.1 9.8-8.2 13.1c-2.1 3.4-6.3 8-10.2 11.1l-6.6 5.3V213h168v-55.8l-5.2-4.8c-15.6-14-24.1-15.3-39.8-5.9-4.7 2.9-8.6 4.5-10.7 4.5-2.8 0-3.7-.7-6.7-5.4-3.7-5.8-4.4-6.1-15.6-7.6-3-.4-7.7-1.3-10.3-2.1l-4.8-1.3-5.5 5.7c-3 3.1-6.1 5.7-6.8 5.7-1.8 0-5.7-4.4-11.3-13-7.5-11.5-9.6-14.1-12.5-15.6-3.3-1.7-2.7-1.8-6.3.5M27 234.5l-8.5 8.5h219l-8.5-8.5-8.5-8.5h-185z"/>
</svg>
