<?xml version="1.0" standalone="no"?>
<!DOCTYPE svg PUBLIC "-//W3C//DTD SVG 20010904//EN"
 "http://www.w3.org/TR/2001/REC-SVG-20010904/DTD/svg10.dtd">
<svg version="1.0" xmlns="http://www.w3.org/2000/svg"
 width="256.000000pt" height="256.000000pt" viewBox="0 0 256.000000 256.000000"
 preserveAspectRatio="xMidYMid meet">
<metadata>
Created by potrace 1.16, written by Peter Selinger 2001-2019
</metadata>
<g transform="translate(0.000000,256.000000) scale(0.100000,-0.100000)"
fill="#f2f2f2" stroke="none">
<path d="M270 2345 l85 -85 925 0 925 0 85 85 85 85 -1095 0 -1095 0 85 -85z"/>
<path d="M130 1280 l0 -1095 85 85 85 85 0 925 0 925 -85 85 -85 85 0 -1095z"/>
<path d="M2342 2287 l-82 -82 0 -925 0 -925 85 -85 85 -85 0 1093 c0 600 -1
1092 -3 1092 -1 0 -39 -37 -85 -83z"/>
<path d="M1637 1920 c-123 -37 -178 -204 -101 -312 70 -100 209 -116 301 -35
167 146 13 411 -200 347z"/>
<path d="M765 1381 c-16 -10 -50 -50 -75 -90 -25 -40 -61 -98 -82 -131 -21
-34 -63 -80 -102 -111 l-66 -53 0 -283 0 -283 840 0 840 0 0 279 0 279 -52 48
c-156 140 -241 153 -398 59 -47 -29 -86 -45 -107 -45 -28 0 -37 7 -67 54 -37
58 -44 61 -156 76 -30 4 -77 13 -103 21 l-48 13 -55 -57 c-30 -31 -61 -57 -68
-57 -18 0 -57 44 -113 130 -75 115 -96 141 -125 156 -33 17 -27 18 -63 -5z"/>
<path d="M270 215 l-85 -85 1095 0 1095 0 -85 85 -85 85 -925 0 -925 0 -85
-85z"/>
</g>
</svg>
