<?xml version="1.0" standalone="no"?>
<!DOCTYPE svg PUBLIC "-//W3C//DTD SVG 20010904//EN"
 "http://www.w3.org/TR/2001/REC-SVG-20010904/DTD/svg10.dtd">
<svg version="1.0" xmlns="http://www.w3.org/2000/svg"
 width="256.000000pt" height="256.000000pt" viewBox="0 0 256.000000 256.000000"
 preserveAspectRatio="xMidYMid meet">
<metadata>
Created by potrace 1.16, written by Peter Selinger 2001-2019
</metadata>
<g transform="translate(0.000000,256.000000) scale(0.100000,-0.100000)"
fill="#f2f2f2" stroke="none">
<path d="M300 2419 c-127 -11 -130 -12 -130 -44 l0 -25 395 0 395 0 0 29 c0
27 -3 29 -52 35 -94 11 -500 15 -608 5z"/>
<path d="M60 2150 l0 -150 505 0 504 0 6 33 c3 17 5 84 3 147 l-3 115 -507 3
-508 2 0 -150z"/>
<path d="M70 1911 c0 -4 32 -36 70 -70 l70 -63 0 -54 0 -54 310 0 310 0 0 50
0 49 50 22 c46 20 130 98 130 120 0 5 -211 9 -470 9 -259 0 -470 -4 -470 -9z"/>
<path d="M928 1724 c-5 -4 -8 -49 -8 -99 l0 -92 59 -6 c111 -10 215 -77 262
-169 l19 -38 451 0 451 0 -7 37 c-22 120 -142 239 -303 300 -149 56 -220 65
-582 70 -184 3 -338 2 -342 -3z"/>
<path d="M210 1441 c0 -127 2 -150 16 -155 9 -3 98 -6 198 -6 l183 0 18 45
c22 59 104 148 160 175 40 19 45 25 45 56 l0 34 -310 0 -310 0 0 -149z"/>
<path d="M875 1481 c-78 -20 -151 -77 -192 -154 -26 -47 -25 -188 2 -242 46
-94 130 -147 242 -153 60 -3 80 0 125 20 60 28 110 75 141 133 17 31 22 58 22
120 0 71 -3 86 -31 135 -63 111 -191 170 -309 141z m154 -90 c143 -73 156
-268 24 -355 -145 -96 -346 29 -319 197 12 71 60 136 121 163 45 20 129 17
174 -5z"/>
<path d="M816 1296 c-9 -14 -16 -30 -16 -35 0 -9 239 -176 244 -169 16 21 36
54 36 59 0 8 -210 156 -234 165 -7 3 -20 -6 -30 -20z"/>
<path d="M1279 1248 c0 -2 -2 -30 -5 -63 -13 -154 -122 -275 -276 -307 l-58
-12 0 -41 c0 -29 6 -47 19 -59 19 -17 23 -17 73 -1 29 9 79 32 110 51 l57 34
413 -4 c227 -3 459 -8 516 -11 l102 -6 0 42 c0 35 -6 47 -35 75 l-35 33 0 135
0 136 -440 0 c-242 0 -440 -1 -441 -2z m201 -88 c16 -16 20 -33 20 -93 0 -100
-32 -144 -74 -101 -12 11 -16 36 -16 99 0 63 4 88 16 99 20 21 30 20 54 -4z
m134 4 c12 -11 16 -36 16 -99 0 -63 -4 -88 -16 -99 -42 -42 -74 1 -74 99 0 98
32 141 74 99z m130 0 c12 -11 16 -36 16 -99 0 -63 -4 -88 -16 -99 -42 -42 -74
1 -74 99 0 98 32 141 74 99z"/>
<path d="M2247 1243 c-4 -3 -7 -64 -7 -134 0 -124 1 -129 23 -144 29 -19 47
-56 47 -95 0 -23 5 -30 20 -30 18 0 20 7 20 63 -1 54 -5 66 -30 97 -24 27 -30
44 -30 81 0 42 3 48 23 51 19 3 22 10 25 61 l3 57 -44 0 c-24 0 -47 -3 -50 -7z"/>
<path d="M2370 1130 l0 -120 25 0 25 0 0 120 0 120 -25 0 -25 0 0 -120z"/>
<path d="M215 1209 c-3 -8 -4 -207 -3 -444 l3 -430 323 -3 322 -2 0 273 0 273
-53 22 c-62 26 -138 97 -167 156 -11 23 -25 68 -31 99 l-12 57 -157 0 c-87 0
-171 3 -189 6 -21 5 -32 2 -36 -7z"/>
<path d="M2370 930 c0 -18 7 -20 85 -20 78 0 85 2 85 20 0 18 -7 20 -85 20
-78 0 -85 -2 -85 -20z"/>
<path d="M1791 608 l0 -163 58 -90 c46 -73 62 -91 84 -93 l27 -3 0 255 0 256
-85 0 -85 0 1 -162z"/>
<path d="M2040 470 c-16 -16 -20 -33 -20 -93 0 -109 3 -111 150 -116 66 -2
141 0 165 3 39 6 45 11 55 43 16 46 9 161 -11 174 -7 5 -83 9 -166 9 -140 0
-155 -2 -173 -20z m308 -85 c3 -80 -8 -106 -35 -89 -13 8 -19 26 -21 64 -4 77
4 102 31 98 20 -3 22 -9 25 -73z"/>
<path d="M210 216 c0 -19 10 -28 48 -44 108 -46 163 -57 292 -56 110 0 135 3
205 28 93 32 105 40 105 72 l0 24 -325 0 -325 0 0 -24z"/>
</g>
</svg>
