<?xml version="1.0" standalone="no"?>
<!DOCTYPE svg PUBLIC "-//W3C//DTD SVG 20010904//EN"
 "http://www.w3.org/TR/2001/REC-SVG-20010904/DTD/svg10.dtd">
<svg version="1.0" xmlns="http://www.w3.org/2000/svg"
 width="256.000000pt" height="256.000000pt" viewBox="0 0 256.000000 256.000000"
 preserveAspectRatio="xMidYMid meet">
<metadata>
Created by potrace 1.16, written by Peter Selinger 2001-2019
</metadata>
<g transform="translate(0.000000,256.000000) scale(0.100000,-0.100000)"
fill="#f2f2f2" stroke="none">
<path d="M1452 2474 c-3 -59 -45 -200 -82 -281 -111 -240 -330 -456 -573 -567
-72 -32 -77 -37 -77 -65 0 -17 3 -31 6 -31 19 0 170 79 242 127 185 123 359
341 436 544 30 80 59 227 53 272 l-4 32 -1 -31z"/>
<path d="M1588 2410 c19 -403 -339 -919 -705 -1015 -141 -37 -227 37 -208 179
16 116 80 240 197 382 39 47 69 86 67 88 -2 1 -62 24 -134 51 -276 103 -430
155 -442 151 -22 -9 -141 -200 -198 -318 -62 -130 -89 -219 -111 -371 -18
-123 -13 -160 36 -257 45 -90 96 -127 251 -185 149 -55 225 -66 318 -45 264
58 591 338 779 667 140 245 206 500 173 675 -19 98 -28 98 -23 -2z"/>
<path d="M1890 1499 c-413 -118 -832 -604 -931 -1080 -23 -114 -22 -243 3
-311 12 -34 13 -28 14 90 1 150 25 243 104 409 115 242 283 423 487 527 246
124 380 14 292 -240 -27 -80 -86 -177 -169 -278 -39 -47 -67 -87 -63 -89 13
-8 300 -116 433 -163 69 -24 131 -42 137 -39 22 8 141 199 198 317 62 129 98
257 115 409 13 116 2 183 -37 229 -88 105 -115 124 -253 175 -115 42 -147 50
-215 52 -44 1 -96 -2 -115 -8z"/>
<path d="M1730 992 c-120 -59 -216 -127 -301 -213 -192 -195 -309 -427 -324
-644 l-5 -70 14 72 c66 344 306 643 643 803 77 37 83 42 83 70 0 16 -3 30 -7
30 -5 0 -51 -22 -103 -48z"/>
</g>
</svg>
