<?xml version="1.0" standalone="no"?>
<!DOCTYPE svg PUBLIC "-//W3C//DTD SVG 20010904//EN"
 "http://www.w3.org/TR/2001/REC-SVG-20010904/DTD/svg10.dtd">
<svg version="1.0" xmlns="http://www.w3.org/2000/svg"
 width="256.000000pt" height="256.000000pt" viewBox="0 0 256.000000 256.000000"
 preserveAspectRatio="xMidYMid meet">
<metadata>
Created by potrace 1.16, written by Peter Selinger 2001-2019
</metadata>
<g transform="translate(0.000000,256.000000) scale(0.100000,-0.100000)"
fill="#f2f2f2" stroke="none">
<path d="M1050 2235 c-394 -88 -702 -395 -776 -773 -18 -94 -18 -259 0 -354
77 -397 395 -704 806 -779 36 -7 124 -12 195 -11 106 0 148 5 230 26 190 49
361 151 493 292 96 103 165 215 208 341 44 130 58 224 51 353 -13 240 -108
448 -283 624 -124 123 -283 216 -454 267 -98 28 -369 37 -470 14z m665 -322
c-10 -16 -78 -117 -151 -226 -74 -109 -134 -200 -134 -203 0 -2 70 -4 155 -4
85 0 155 -3 155 -8 0 -8 -849 -808 -883 -832 -22 -15 -22 -15 -6 10 62 98 379
620 379 624 0 3 -68 7 -151 8 l-150 3 113 166 c62 91 165 238 228 327 l115
162 173 0 174 0 -17 -27z"/>
</g>
</svg>
