<?xml version="1.0" standalone="no"?>
<!DOCTYPE svg PUBLIC "-//W3C//DTD SVG 20010904//EN"
 "http://www.w3.org/TR/2001/REC-SVG-20010904/DTD/svg10.dtd">
<svg version="1.0" xmlns="http://www.w3.org/2000/svg"
 width="256.000000pt" height="256.000000pt" viewBox="0 0 256.000000 256.000000"
 preserveAspectRatio="xMidYMid meet">
<metadata>
Created by potrace 1.16, written by Peter Selinger 2001-2019
</metadata>
<g transform="translate(0.000000,256.000000) scale(0.100000,-0.100000)"
fill="#f2f2f2" stroke="none">
<path d="M982 1967 l-152 -152 0 -110 0 -110 145 -145 145 -145 0 -65 0 -65
80 -80 80 -80 80 80 80 80 0 65 0 65 145 145 145 145 0 110 0 110 -156 155
c-102 101 -153 146 -148 130 4 -14 26 -100 49 -193 l43 -167 -112 -77 c-61
-43 -118 -77 -126 -77 -8 0 -65 35 -127 77 l-111 77 48 188 c26 103 47 188 46
189 -1 1 -70 -66 -154 -150z"/>
<path d="M538 1583 l-128 -128 0 -260 0 -260 130 130 130 130 -2 258 -3 257
-127 -127z"/>
<path d="M1890 1454 l0 -259 128 -128 c70 -70 131 -127 135 -127 4 0 6 116 6
258 l-2 257 -133 130 -134 129 0 -260z"/>
<path d="M758 1412 l4 -69 259 -259 259 -259 259 259 259 259 4 69 c2 37 1 68
-2 68 -3 0 -121 -116 -262 -257 l-258 -258 -258 258 c-141 141 -259 257 -262
257 -3 0 -4 -31 -2 -68z"/>
<path d="M1567 842 l-287 -287 -283 283 -283 283 -29 -31 -29 -31 312 -312
312 -312 317 317 318 318 -30 30 -30 30 -288 -288z"/>
<path d="M1120 864 l0 -70 80 -78 80 -78 80 78 80 78 0 70 0 71 -80 -81 -80
-81 -80 81 -80 81 0 -71z"/>
</g>
</svg>
