<svg xmlns="http://www.w3.org/2000/svg" width="341.333" height="341.333" version="1.0" viewBox="0 0 256 256">
    <g fill="#e5e5e5">
        <path d="M123.3 17.7c-1.8.7-12.3 20.6-12.3 23.2 0 1.1.9 3 2 4.1 1.8 1.8 3.3 2 15.5 2s13.7-.2 15.5-2c1.1-1.1 2-3 2-4.1 0-3-10.6-22.5-12.6-23.3-1.8-.7-8.3-.7-10.1.1"/>
        <path d="M91.7 23.6C87.4 25 83 27 81.9 28.1c-2.5 2.5-2.4 6.4.2 10.1 2.6 3.6 2.7 6 .4 11.8-2.1 5.3-1.6 8.5 2.1 12.9 5.2 6.2 15.4 6.5 33.3 1l10.4-3.2 7.6 2.3c14 4.2 19.4 5.2 25.4 4.7 6.6-.6 10-2.4 12.7-7 2.5-4 2.5-7 0-12.5-2-4.5-1.8-6 1.2-10.4 2.3-3.4 2.3-7.3-.1-9.7-2.8-2.8-21.1-8.5-21.1-6.6 0 .3 2 4.4 4.5 9.1 2.7 5 4.5 9.8 4.5 11.7 0 4.7-3.9 11.8-7.9 14.4-3.3 2.2-4.2 2.3-26.6 2.3s-23.3-.1-26.6-2.3c-4-2.6-7.9-9.7-7.9-14.4 0-1.9 1.8-6.7 4.5-11.7 2.5-4.7 4.5-8.8 4.5-9.1 0-1-3.7-.3-11.3 2.1M67.3 41.8C45.6 54.9 25.3 81.5 16 109c-4.4 13-2.9 14.1 16.4 13.4 19.4-.7 18-.2 20-8.1C56.2 98.6 64.8 85 78.3 73.1l3.9-3.3-2.5-2.7c-5-5.3-5.9-10.6-3.5-19.5 1.2-4.4.1-9.6-1.9-9.6-.5 0-3.6 1.7-7 3.8m113.1-.3c-.3 1.4-.1 4.5.5 7 .6 2.4 1.1 5.7 1.1 7.3 0 2.7.5 3.1 6.3 5 10.2 3.3 14.9 3.7 17.7 1.4 4.3-3.5 2.1-6.6-11-15.4-6.3-4.2-12.1-7.7-12.7-7.7-.7-.1-1.5 1-1.9 2.4M95 74.7c-2.3.9-2.7 1.8-6.6 14.3-4.8 15.2-9.4 23.9-16 29.9-2.9 2.7-5 5.1-4.7 5.5 1.6 1.6 4.3.1 10.5-5.4 7.6-6.9 12.8-14.3 15.2-21.8 1-2.9 4.3-8.7 7.3-12.9 7.5-10.5 7.5-10.3 1.2-10.2-3 0-6.1.3-6.9.6m55.2.4c.3.8 3.1 4.9 6.1 9.2 3 4.2 6.3 10 7.3 12.9 2.4 7.5 7.6 14.9 15.2 21.8 6.2 5.5 8.9 7 10.5 5.4.3-.4-1.8-2.8-4.7-5.5-6.6-6-11.2-14.7-16-29.9-2-6.3-4-12.2-4.5-12.9-1.4-2.1-14.6-3-13.9-1M122.8 103c-3.3 3.9-6.6 6.2-14.8 10.3-11.9 5.9-12.9 7.4-8.5 13.2 3.4 4.3 2.8 7.8-1.6 10.1-3.1 1.5-3.2 1.5-8.7-2.2l-5.5-3.8-4.3 4.7c-2.4 2.7-4.8 6.5-5.4 8.5-2.3 8.6-.2 24.5 4.6 33.2 3.4 6.2 11.3 13.8 18.7 18 7.6 4.2 8.7 6.1 8.7 13.8 0 5.3.4 6.7 2.5 8.7 2.4 2.5 7.7 3.4 10.1 1.7 2.5-1.7 5.4-18.1 5.4-30.5 0-14.1-1.1-19-4.7-21.4-5.7-4-7.3-6.1-7.3-10 0-7.4 6.6-12.3 16.5-12.3s16.5 4.9 16.5 12.3c0 3.9-1.6 6-7.3 10-3.6 2.4-4.7 7.3-4.7 21.4 0 12.4 2.9 28.8 5.4 30.5 2.4 1.7 7.7.8 10.1-1.7 2.1-2 2.5-3.4 2.5-8.7 0-7.7 1.1-9.6 8.7-13.8 7.4-4.2 15.3-11.8 18.7-18 4.8-8.7 6.9-24.6 4.6-33.2-.6-2-3-5.8-5.4-8.5l-4.3-4.7-5.5 3.8c-5.5 3.7-5.6 3.7-8.7 2.2-4.4-2.3-5-5.8-1.6-10.1 4.4-5.8 3.4-7.3-8.5-13.2-8.2-4.1-11.5-6.4-14.8-10.3-2.4-2.7-5-5-5.7-5s-3.3 2.3-5.7 5m82.4-1.3c-1.2 1-2.3 2.7-2.4 3.8-.5 4.2 1.4 14.5 2.9 15.7 2.2 1.8 34.6 1.9 36.5 0 1-1 .9-2.5-.6-8-2.4-9-4.6-12.7-7.7-12.7-1.9 0-2.6.8-3.7 3.9-2.3 7-5.2 8.5-8.8 4.5-3.3-3.6-8.9-7.7-11.5-8.4-1.7-.4-3.2 0-4.7 1.2M12.6 134.1c-4.7.8-7.5 3.5-8.3 8.2-.7 4.3.6 6.3 4.8 7.2 2.5.6 2.7.9 1.9 2.6-1.5 2.7.3 5.6 4.1 6.4 1.7.4 10 .4 18.5 0 16.5-.8 17.8-1.2 17.2-6.1-.2-2 .7-3.6 4-6.9 5-5 5.8-9.8 2-11.1-2.8-.9-39.1-1.1-44.2-.3m191.6-.4c-6.2 1.3-6.2 1.3-6.2 4.5 0 2.3 1.1 4.1 4.3 7.3 3.3 3.4 4.1 4.8 3.9 7.2-.2 1.7.3 3.5 1.1 4.1.9.8 7.5 1.3 19.1 1.4 16.5.3 17.8.2 19.1-1.6.8-1.1 1.2-2.9.9-4.1-.4-1.6.2-2.4 2.8-3.5 3.7-1.7 4.6-4.7 2.9-9.3-2-5.3-4.1-5.8-26.5-6-11.3-.1-20.9-.1-21.4 0M32 170c-3.6.9-8 5-8 7.5 0 3.8 3.3 16.1 4.7 17.7s3.5 1.8 18.8 1.8c15.4 0 17.4-.2 18.8-1.8 4.8-5.2-1.3-19-10.4-23.8-3.9-2-18.1-2.9-23.9-1.4m171.9.3c-6.7 2.5-10.4 6.2-13.3 13.1-2.1 5.1-2 9.9.2 11.9 1.6 1.4 4.4 1.7 18.9 1.7 20.1 0 19.5.3 21.9-11.4 1.8-8.8 1.2-11.3-3.1-14.2-3.5-2.3-19.5-3-24.6-1.1"/>
        <path d="M169.9 219.3c-30.7 17.8-51.7 17.9-82.2.5-6.6-3.8-12.1-6.7-12.3-6.5-1 .9 10.1 10.2 17.6 14.7 12.4 7.4 22.8 11.1 32.5 11.7 10.7.7 18.1-1.2 32.5-8.4 8.9-4.5 13.1-7.3 18.5-12.5 3.8-3.7 6.8-6.7 6.5-6.7s-6.2 3.3-13.1 7.2"/>
    </g>
</svg>
