<?xml version="1.0" standalone="no"?>
<!DOCTYPE svg PUBLIC "-//W3C//DTD SVG 20010904//EN"
 "http://www.w3.org/TR/2001/REC-SVG-20010904/DTD/svg10.dtd">
<svg version="1.0" xmlns="http://www.w3.org/2000/svg"
 width="256.000000pt" height="256.000000pt" viewBox="0 0 256.000000 256.000000"
 preserveAspectRatio="xMidYMid meet">
<metadata>
Created by potrace 1.16, written by Peter Selinger 2001-2019
</metadata>
<g transform="translate(0.000000,256.000000) scale(0.100000,-0.100000)"
fill="#f2f2f2" stroke="none">
<path d="M1233 2383 c-18 -7 -123 -206 -123 -232 0 -11 9 -30 20 -41 18 -18
33 -20 155 -20 122 0 137 2 155 20 11 11 20 30 20 41 0 30 -106 225 -126 233
-18 7 -83 7 -101 -1z"/>
<path d="M917 2324 c-43 -14 -87 -34 -98 -45 -25 -25 -24 -64 2 -101 26 -36
27 -60 4 -118 -21 -53 -16 -85 21 -129 52 -62 154 -65 333 -10 l104 32 76 -23
c140 -42 194 -52 254 -47 66 6 100 24 127 70 25 40 25 70 0 125 -20 45 -18 60
12 104 23 34 23 73 -1 97 -28 28 -211 85 -211 66 0 -3 20 -44 45 -91 27 -50
45 -98 45 -117 0 -47 -39 -118 -79 -144 -33 -22 -42 -23 -266 -23 -224 0 -233
1 -266 23 -40 26 -79 97 -79 144 0 19 18 67 45 117 25 47 45 88 45 91 0 10
-37 3 -113 -21z"/>
<path d="M673 2142 c-217 -131 -420 -397 -513 -672 -44 -130 -29 -141 164
-134 194 7 180 2 200 81 38 157 124 293 259 412 l39 33 -25 27 c-50 53 -59
106 -35 195 12 44 1 96 -19 96 -5 0 -36 -17 -70 -38z"/>
<path d="M1804 2145 c-3 -14 -1 -45 5 -70 6 -24 11 -57 11 -73 0 -27 5 -31 63
-50 102 -33 149 -37 177 -14 43 35 21 66 -110 154 -63 42 -121 77 -127 77 -7
1 -15 -10 -19 -24z"/>
<path d="M950 1813 c-23 -9 -27 -18 -66 -143 -48 -152 -94 -239 -160 -299 -29
-27 -50 -51 -47 -55 16 -16 43 -1 105 54 76 69 128 143 152 218 10 29 43 87
73 129 75 105 75 103 12 102 -30 0 -61 -3 -69 -6z"/>
<path d="M1502 1809 c3 -8 31 -49 61 -92 30 -42 63 -100 73 -129 24 -75 76
-149 152 -218 62 -55 89 -70 105 -54 3 4 -18 28 -47 55 -66 60 -112 147 -160
299 -20 63 -40 122 -45 129 -14 21 -146 30 -139 10z"/>
<path d="M1228 1530 c-33 -39 -66 -62 -148 -103 -119 -59 -129 -74 -85 -132
34 -43 28 -78 -16 -101 -31 -15 -32 -15 -87 22 l-55 38 -43 -47 c-24 -27 -48
-65 -54 -85 -23 -86 -2 -245 46 -332 34 -62 113 -138 187 -180 76 -42 87 -61
87 -138 0 -53 4 -67 25 -87 24 -25 77 -34 101 -17 25 17 54 181 54 305 0 141
-11 190 -47 214 -57 40 -73 61 -73 100 0 74 66 123 165 123 99 0 165 -49 165
-123 0 -39 -16 -60 -73 -100 -36 -24 -47 -73 -47 -214 0 -124 29 -288 54 -305
24 -17 77 -8 101 17 21 20 25 34 25 87 0 77 11 96 87 138 74 42 153 118 187
180 48 87 69 246 46 332 -6 20 -30 58 -54 85 l-43 47 -55 -38 c-55 -37 -56
-37 -87 -22 -44 23 -50 58 -16 101 44 58 34 73 -85 132 -82 41 -115 64 -148
103 -24 27 -50 50 -57 50 -7 0 -33 -23 -57 -50z"/>
<path d="M2052 1543 c-12 -10 -23 -27 -24 -38 -5 -42 14 -145 29 -157 22 -18
346 -19 365 0 10 10 9 25 -6 80 -24 90 -46 127 -77 127 -19 0 -26 -8 -37 -39
-23 -70 -52 -85 -88 -45 -33 36 -89 77 -115 84 -17 4 -32 0 -47 -12z"/>
<path d="M126 1219 c-47 -8 -75 -35 -83 -82 -7 -43 6 -63 48 -72 25 -6 27 -9
19 -26 -15 -27 3 -56 41 -64 17 -4 100 -4 185 0 165 8 178 12 172 61 -2 20 7
36 40 69 50 50 58 98 20 111 -28 9 -391 11 -442 3z"/>
<path d="M2042 1223 c-62 -13 -62 -13 -62 -45 0 -23 11 -41 43 -73 33 -34 41
-48 39 -72 -2 -17 3 -35 11 -41 9 -8 75 -13 191 -14 165 -3 178 -2 191 16 8
11 12 29 9 41 -4 16 2 24 28 35 37 17 46 47 29 93 -20 53 -41 58 -265 60 -113
1 -209 1 -214 0z"/>
<path d="M320 860 c-36 -9 -80 -50 -80 -75 0 -38 33 -161 47 -177 14 -16 35
-18 188 -18 154 0 174 2 188 18 48 52 -13 190 -104 238 -39 20 -181 29 -239
14z"/>
<path d="M2039 857 c-67 -25 -104 -62 -133 -131 -21 -51 -20 -99 2 -119 16
-14 44 -17 189 -17 201 0 195 -3 219 114 18 88 12 113 -31 142 -35 23 -195 30
-246 11z"/>
<path d="M1699 367 c-307 -178 -517 -179 -822 -5 -66 38 -121 67 -123 65 -10
-9 101 -102 176 -147 124 -74 228 -111 325 -117 107 -7 181 12 325 84 89 45
131 73 185 125 38 37 68 67 65 67 -3 0 -62 -33 -131 -72z"/>
</g>
</svg>
