<?xml version="1.0" standalone="no"?>
<!DOCTYPE svg PUBLIC "-//W3C//DTD SVG 20010904//EN"
 "http://www.w3.org/TR/2001/REC-SVG-20010904/DTD/svg10.dtd">
<svg version="1.0" xmlns="http://www.w3.org/2000/svg"
 width="256.000000pt" height="256.000000pt" viewBox="0 0 256.000000 256.000000"
 preserveAspectRatio="xMidYMid meet">
<metadata>
Created by potrace 1.16, written by Peter Selinger 2001-2019
</metadata>
<g transform="translate(0.000000,256.000000) scale(0.100000,-0.100000)"
fill="#f2f2f2" stroke="none">
<path d="M828 2003 l-448 -206 0 -517 0 -517 450 -207 450 -206 450 206 450
207 0 517 0 517 -437 201 c-241 110 -445 203 -453 206 -8 3 -216 -88 -462
-201z m682 -369 l220 -97 0 -257 0 -257 -220 -97 c-121 -53 -225 -96 -230 -96
-5 0 -109 43 -230 96 l-220 97 0 257 0 257 218 96 c119 53 223 96 229 96 7 1
112 -42 233 -95z"/>
<path d="M1180 1445 c-119 -53 -110 -40 -110 -164 0 -75 4 -112 13 -119 19
-15 179 -82 197 -82 18 0 178 67 198 82 8 7 12 44 12 118 0 74 -4 111 -12 118
-24 18 -181 82 -202 81 -12 0 -55 -16 -96 -34z"/>
</g>
</svg>
