<svg xmlns="http://www.w3.org/2000/svg" width="341.333" height="341.333" version="1.0" viewBox="0 0 256 256">
    <g fill="#e5e5e5">
        <path d="M82.8 55.7 38 76.3v103.4l45 20.7 45 20.6 45-20.6 45-20.7V76.3l-43.7-20.1c-24.1-11-44.5-20.3-45.3-20.6s-21.6 8.8-46.2 20.1M151 92.6l22 9.7v51.4l-22 9.7c-12.1 5.3-22.5 9.6-23 9.6s-10.9-4.3-23-9.6l-22-9.7v-51.4l21.8-9.6c11.9-5.3 22.3-9.6 22.9-9.6.7-.1 11.2 4.2 23.3 9.5"/>
        <path d="M118 111.5c-11.9 5.3-11 4-11 16.4 0 7.5.4 11.2 1.3 11.9 1.9 1.5 17.9 8.2 19.7 8.2s17.8-6.7 19.8-8.2c.8-.7 1.2-4.4 1.2-11.8s-.4-11.1-1.2-11.8c-2.4-1.8-18.1-8.2-20.2-8.1-1.2 0-5.5 1.6-9.6 3.4"/>
    </g>
</svg>
