<?xml version="1.0" standalone="no"?>
<!DOCTYPE svg PUBLIC "-//W3C//DTD SVG 20010904//EN"
 "http://www.w3.org/TR/2001/REC-SVG-20010904/DTD/svg10.dtd">
<svg version="1.0" xmlns="http://www.w3.org/2000/svg"
 width="93.000000pt" height="93.000000pt" viewBox="0 0 93.000000 93.000000"
 preserveAspectRatio="xMidYMid meet">
<metadata>
Created by potrace 1.16, written by Peter Selinger 2001-2019
</metadata>
<g transform="translate(0.000000,93.000000) scale(0.100000,-0.100000)"
fill="#f2f2f2" stroke="none">
<path d="M351 884 c-55 -15 -121 -49 -121 -63 0 -4 8 -15 18 -24 17 -15 21
-15 57 3 94 46 207 48 304 4 l55 -25 23 24 24 23 -39 22 c-89 49 -217 64 -321
36z"/>
<path d="M102 838 c-24 -24 -12 -55 42 -107 30 -28 59 -51 63 -51 20 0 53 33
53 52 0 27 -96 118 -125 118 -12 0 -26 -5 -33 -12z m53 -34 c0 -10 -8 -20 -18
-22 -22 -4 -35 27 -16 39 20 12 34 5 34 -17z"/>
<path d="M721 796 c-54 -58 -60 -75 -35 -100 26 -26 47 -19 102 37 52 52 63
82 40 105 -24 24 -55 12 -107 -42z m89 19 c13 -16 6 -35 -15 -35 -18 0 -28 17
-21 35 7 19 20 19 36 0z"/>
<path d="M93 683 c-26 -46 -53 -136 -53 -175 0 -24 4 -28 28 -28 26 0 29 4 40
58 6 31 21 75 32 97 l20 39 -23 23 -23 24 -21 -38z"/>
<path d="M315 711 l-30 -6 -3 -100 c-3 -100 -3 -101 28 -130 30 -29 30 -29 30
-137 l0 -108 46 -30 c26 -16 51 -27 55 -24 13 8 11 324 -1 324 -22 0 -50 41
-50 73 0 33 24 67 48 67 22 0 13 47 -13 64 -25 16 -57 19 -110 7z"/>
<path d="M503 701 c-29 -24 -29 -53 -1 -66 54 -24 56 -103 3 -127 l-25 -11 0
-158 c0 -103 4 -160 11 -165 6 -3 30 7 52 24 l42 30 3 109 c3 107 3 111 32
138 29 28 30 31 30 131 l0 101 -46 7 c-67 9 -76 8 -101 -13z"/>
<path d="M792 697 l-22 -23 20 -39 c11 -21 25 -65 31 -97 11 -55 13 -58 42
-58 30 0 30 0 24 48 -6 50 -39 147 -60 176 -12 16 -14 16 -35 -7z"/>
<path d="M442 598 c-29 -29 -1 -75 38 -63 17 5 20 13 18 38 -3 35 -33 48 -56
25z"/>
<path d="M40 431 c0 -38 35 -149 58 -184 l18 -27 22 23 22 23 -20 39 c-11 22
-26 66 -32 97 -11 54 -14 58 -40 58 -24 0 -28 -4 -28 -29z"/>
<path d="M821 402 c-6 -32 -20 -76 -31 -97 l-20 -39 23 -23 23 -24 22 39 c23
41 52 141 52 179 0 19 -5 23 -29 23 -27 0 -29 -3 -40 -58z"/>
<path d="M144 209 c-54 -52 -66 -83 -42 -107 7 -7 22 -12 34 -12 29 0 124 90
124 117 0 20 -33 53 -53 53 -4 0 -33 -23 -63 -51z m11 -73 c0 -22 -14 -29 -34
-17 -19 12 -6 43 16 39 10 -2 18 -12 18 -22z"/>
<path d="M686 244 c-25 -25 -19 -42 35 -100 52 -54 83 -66 107 -42 23 23 12
55 -37 106 -52 54 -78 63 -105 36z m130 -95 c10 -17 -23 -46 -37 -32 -7 7 -9
19 -6 27 7 18 33 21 43 5z"/>
<path d="M245 139 c-19 -20 -19 -21 5 -39 62 -47 204 -71 300 -51 30 6 79 23
109 37 l53 26 -24 25 -24 24 -55 -25 c-108 -48 -231 -41 -340 21 -3 2 -14 -6
-24 -18z"/>
</g>
</svg>
