<?xml version="1.0" standalone="no"?>
<!DOCTYPE svg PUBLIC "-//W3C//DTD SVG 20010904//EN"
 "http://www.w3.org/TR/2001/REC-SVG-20010904/DTD/svg10.dtd">
<svg version="1.0" xmlns="http://www.w3.org/2000/svg"
 width="128.000000pt" height="128.000000pt" viewBox="0 0 128.000000 128.000000"
 preserveAspectRatio="xMidYMid meet">
<metadata>
Created by potrace 1.16, written by Peter Selinger 2001-2019
</metadata>
<g transform="translate(0.000000,128.000000) scale(0.100000,-0.100000)"
fill="#f2f2f2" stroke="none">
<path d="M296 901 l-38 -39 18 -31 c18 -30 18 -32 -3 -68 -16 -28 -31 -41 -57
-47 -36 -10 -36 -10 -36 -67 0 -57 0 -57 34 -63 24 -5 41 -17 58 -44 25 -37
25 -37 6 -63 -23 -31 -17 -50 29 -85 34 -26 35 -26 68 -8 l33 18 36 -32 c44
-38 56 -40 56 -7 0 48 -31 102 -84 148 -112 97 -113 168 -5 284 50 53 62 90
36 111 -7 6 -23 9 -34 6 -12 -4 -32 1 -45 10 -12 9 -25 16 -28 16 -3 0 -23
-18 -44 -39z"/>
<path d="M922 924 c-13 -9 -33 -14 -45 -10 -11 3 -27 0 -34 -6 -26 -21 -14
-58 36 -111 108 -116 107 -187 -5 -284 -53 -46 -84 -100 -84 -148 0 -33 12
-31 56 7 l36 32 33 -18 c33 -18 34 -18 68 8 46 35 52 54 29 85 -19 26 -19 26
6 63 17 27 34 39 58 44 34 6 34 6 34 63 0 57 0 57 -36 67 -26 6 -41 19 -57 47
-21 36 -21 38 -3 68 l18 31 -38 39 c-21 21 -41 39 -44 39 -3 0 -16 -7 -28 -16z"/>
<path d="M567 802 c-70 -71 -84 -106 -51 -133 17 -14 18 -14 89 45 l46 39 50
-49 c41 -40 52 -47 67 -38 9 6 18 24 20 39 3 23 -8 40 -64 96 -38 38 -73 69
-79 69 -6 0 -41 -30 -78 -68z"/>
<path d="M567 615 c-60 -56 -68 -67 -65 -96 2 -18 11 -37 20 -43 15 -9 27 -2
71 42 l52 52 53 -53 c43 -43 55 -50 70 -41 9 6 18 26 20 43 3 29 -5 41 -61 97
-35 35 -70 64 -78 64 -8 0 -45 -29 -82 -65z"/>
</g>
</svg>
