<svg xmlns="http://www.w3.org/2000/svg" width="170.667" height="170.667" version="1.0" viewBox="0 0 128 128">
    <path fill="#e5e5e5" d="M26.8 39.2c-11 10.2-16.1 26.5-12.3 39.3 4.9 17.2 13.6 26.1 26.5 27.2 5 .5 6.7.1 13.7-3.1 4.4-2 8.8-3.6 9.8-3.6s5.4 1.6 9.8 3.6c7 3.2 8.7 3.6 13.7 3.1 7.2-.6 12.7-3.5 17.7-9.1 4.4-5 10-17.3 10.9-24 1.3-9.4-6.4-26.6-15.3-34.2-5.2-4.5-5.7-4.7-8.7-3.6-1.8.7-4.1 1.2-5.1 1.2-.9 0-4.9 1.1-8.7 2.5-9 3.2-19 3.4-27.4.4-3.2-1.2-7.7-2.5-9.9-3-2.2-.4-5.1-1.1-6.5-1.4-2-.5-3.5.4-8.2 4.7"/>
</svg>
