<?xml version="1.0" standalone="no"?>
<!DOCTYPE svg PUBLIC "-//W3C//DTD SVG 20010904//EN"
 "http://www.w3.org/TR/2001/REC-SVG-20010904/DTD/svg10.dtd">
<svg version="1.0" xmlns="http://www.w3.org/2000/svg"
 width="256.000000pt" height="256.000000pt" viewBox="0 0 256.000000 256.000000"
 preserveAspectRatio="xMidYMid meet">
<metadata>
Created by potrace 1.16, written by Peter Selinger 2001-2019
</metadata>
<g transform="translate(0.000000,256.000000) scale(0.100000,-0.100000)"
fill="#f2f2f2" stroke="none">
<path d="M1251 2223 c-11 -32 -70 -199 -130 -372 -61 -172 -112 -315 -113
-317 -2 -1 -182 -6 -401 -10 -218 -4 -397 -10 -397 -13 0 -3 142 -112 315
-241 173 -129 314 -240 315 -246 0 -6 -51 -179 -114 -385 -63 -205 -114 -374
-113 -375 1 -1 150 101 332 226 l330 228 140 -96 c77 -53 226 -156 330 -228
105 -73 191 -131 192 -130 1 0 -50 170 -113 375 -63 206 -114 379 -114 385 1
6 142 117 315 246 173 129 315 238 315 241 0 3 -179 9 -397 13 -219 4 -399 9
-401 10 -1 2 -61 169 -132 371 -70 201 -130 369 -133 371 -2 3 -14 -21 -26
-53z"/>
</g>
</svg>
