<svg xmlns="http://www.w3.org/2000/svg" width="341.333" height="341.333" version="1.0" viewBox="0 0 256 256">
    <path fill="#e5e5e5" d="M89.3 38.1c-3 .9-3.2 1.2-2.6 4.2 2.3 12.4 8.2 27.6 15.5 39.8 4.5 7.6.2 11.4-12.8 11.4l-8.2-.1-12.8-12.3c-7-6.8-15.1-13.9-18-15.7-5.6-3.6-22.7-9.8-30.2-11-4.1-.6-4.2-.6-4.2 2 0 2 2.6 5.4 10.2 13.7 15.1 16.2 22.6 25.6 25.9 32.4 2.7 5.5 2.9 6.6 2.3 13-.8 9.4-2.6 14.3-8.7 23.9-2.8 4.5-6.6 11.5-8.6 15.6-3.4 7.3-3.5 7.9-3.6 19.5 0 8.8.5 13.6 1.8 17.8 1 3.2 2.1 5.6 2.5 5.3.4-.2 3.4-4.8 6.7-10.2 3.3-5.5 9.6-13.6 14-18.4 4.4-4.7 9.8-10.6 11.8-13.3 3.2-3.9 4.4-4.7 7.1-4.7 3.8 0 5.6 1.8 8 7.9 3.3 8.6 10.6 17 20.8 24 2.9 2.1 5.4 4.6 5.6 5.7s-1.6 5.3-4 9.3c-3.3 5.8-4.3 8.6-4.6 13.3-.3 4.4-.1 6.3.9 6.9 2.2 1.4 14.6 1 20.8-.6 13.3-3.4 19.1-7.4 24.7-16.8 7.3-12.1 7.3-12.1 15.6-12.2 6.2-.1 25.5-4.4 36.8-8.2.8-.3-1.6-1.2-5.4-2-18.9-3.9-30-15.3-34-34.6-2.5-12.2-1.9-30.3.9-25.7.3.5 1 4.8 1.6 9.5.5 4.6 1.8 10.9 2.9 13.9 6.2 16.3 22.9 26.6 41.6 25.4l7.6-.5-.5 3.9c-.3 2.4-2.5 7-5.6 11.6-2.7 4.2-5.5 9-6.2 10.7-1.5 4-3.8 12.5-3.3 12.5.2 0 1.2-1.7 2.3-3.8 2.5-4.7 8.2-10.6 17.3-17.8 19.4-15.2 20.7-17.9 17.4-33.9-1.3-5.8-1.6-10.2-1.1-16 1.2-14.4-3.9-24.9-18.8-39.1C208.2 84.3 201 79.6 177 67.1c-53.7-27.9-59.6-30.2-75.9-30-4.7 0-10 .5-11.8 1m120.1 68c1.4 1.1 3.3 3.4 4.1 4.9 5.5 10.6-6.7 22.1-17.4 16.6-8.4-4.4-8.6-17.6-.2-22.1 3.9-2.1 10.4-1.9 13.5.6"/>
</svg>
