<?xml version="1.0" standalone="no"?>
<!DOCTYPE svg PUBLIC "-//W3C//DTD SVG 20010904//EN"
 "http://www.w3.org/TR/2001/REC-SVG-20010904/DTD/svg10.dtd">
<svg version="1.0" xmlns="http://www.w3.org/2000/svg"
 width="256.000000pt" height="256.000000pt" viewBox="0 0 256.000000 256.000000"
 preserveAspectRatio="xMidYMid meet">
<metadata>
Created by potrace 1.16, written by Peter Selinger 2001-2019
</metadata>
<g transform="translate(0.000000,256.000000) scale(0.100000,-0.100000)"
fill="#f2f2f2" stroke="none">
<path d="M901 1991 c-46 -46 -35 -144 25 -229 36 -50 44 -89 19 -98 -8 -3 -46
-1 -84 6 l-70 12 -47 64 c-69 98 -135 140 -263 170 -101 24 -104 -3 -9 -103
60 -64 101 -152 123 -258 24 -119 15 -160 -55 -253 -31 -42 -66 -95 -78 -117
-48 -96 -65 -214 -41 -298 l10 -39 32 36 c18 20 61 55 97 79 39 25 82 65 108
100 24 31 53 62 65 68 18 10 24 8 43 -17 13 -15 31 -57 40 -93 10 -36 23 -78
30 -92 17 -35 84 -93 136 -120 68 -34 68 -34 47 -89 -21 -55 -24 -111 -9 -140
14 -26 105 -36 179 -20 84 18 146 56 220 136 62 67 69 71 121 78 77 10 219 59
314 109 96 50 210 153 250 226 91 168 57 347 -97 504 -163 167 -390 276 -727
351 -218 48 -349 57 -379 27z m960 -477 c27 -24 42 -76 30 -106 -14 -37 -58
-68 -98 -68 -69 0 -117 87 -83 150 26 48 110 61 151 24z m-387 -302 c36 -106
115 -199 226 -265 l45 -27 -35 6 c-51 10 -140 44 -180 69 -121 78 -160 213
-107 372 l22 68 6 -85 c3 -47 14 -109 23 -138z"/>
</g>
</svg>
