<svg xmlns="http://www.w3.org/2000/svg" width="341.333" height="341.333" version="1.0" viewBox="0 0 256 256">
    <path fill="#e5e5e5" d="M90.1 56.9c-4.6 4.6-3.5 14.4 2.5 22.9 3.6 5 4.4 8.9 1.9 9.8-.8.3-4.6.1-8.4-.6l-7-1.2-4.7-6.4c-6.9-9.8-13.5-14-26.3-17-10.1-2.4-10.4.3-.9 10.3 6 6.4 10.1 15.2 12.3 25.8 2.4 11.9 1.5 16-5.5 25.3-3.1 4.2-6.6 9.5-7.8 11.7-4.8 9.6-6.5 21.4-4.1 29.8l1 3.9 3.2-3.6c1.8-2 6.1-5.5 9.7-7.9 3.9-2.5 8.2-6.5 10.8-10 2.4-3.1 5.3-6.2 6.5-6.8 1.8-1 2.4-.8 4.3 1.7 1.3 1.5 3.1 5.7 4 9.3 1 3.6 2.3 7.8 3 9.2 1.7 3.5 8.4 9.3 13.6 12 6.8 3.4 6.8 3.4 4.7 8.9s-2.4 11.1-.9 14c1.4 2.6 10.5 3.6 17.9 2 8.4-1.8 14.6-5.6 22-13.6 6.2-6.7 6.9-7.1 12.1-7.8 7.7-1 21.9-5.9 31.4-10.9 9.6-5 21-15.3 25-22.6 9.1-16.8 5.7-34.7-9.7-50.4-16.3-16.7-39-27.6-72.7-35.1-21.8-4.8-34.9-5.7-37.9-2.7m96 47.7c2.7 2.4 4.2 7.6 3 10.6-1.4 3.7-5.8 6.8-9.8 6.8-6.9 0-11.7-8.7-8.3-15 2.6-4.8 11-6.1 15.1-2.4m-38.7 30.2c3.6 10.6 11.5 19.9 22.6 26.5l4.5 2.7-3.5-.6c-5.1-1-14-4.4-18-6.9-12.1-7.8-16-21.3-10.7-37.2l2.2-6.8.6 8.5c.3 4.7 1.4 10.9 2.3 13.8"/>
</svg>
