<?xml version="1.0" standalone="no"?>
<!DOCTYPE svg PUBLIC "-//W3C//DTD SVG 20010904//EN"
 "http://www.w3.org/TR/2001/REC-SVG-20010904/DTD/svg10.dtd">
<svg version="1.0" xmlns="http://www.w3.org/2000/svg"
 width="256.000000pt" height="256.000000pt" viewBox="0 0 256.000000 256.000000"
 preserveAspectRatio="xMidYMid meet">
<metadata>
Created by potrace 1.16, written by Peter Selinger 2001-2019
</metadata>
<g transform="translate(0.000000,256.000000) scale(0.100000,-0.100000)"
fill="#f2f2f2" stroke="none">
<path d="M1080 2406 c0 -3 9 -20 20 -38 24 -40 25 -64 5 -112 -19 -45 -13 -72
31 -133 18 -26 31 -49 29 -51 -2 -2 -25 3 -51 12 -26 9 -64 16 -84 16 -35 0
-36 -1 -32 -30 3 -25 -3 -38 -37 -75 -58 -63 -61 -87 -23 -156 37 -67 40 -96
12 -132 -21 -26 -112 -77 -139 -77 -8 0 -71 55 -140 123 -69 68 -151 137 -181
154 -50 29 -271 103 -306 103 -25 0 -15 -48 18 -87 18 -21 71 -78 118 -128
107 -113 150 -165 194 -240 32 -52 36 -67 36 -124 0 -117 -29 -193 -140 -382
-108 -182 -137 -250 -145 -344 -10 -125 24 -387 56 -419 9 -10 29 31 89 176
17 43 44 96 59 118 37 56 244 245 306 281 60 35 72 36 80 8 10 -29 79 -104
121 -130 19 -11 34 -27 34 -35 0 -8 -21 -29 -47 -47 -73 -49 -103 -82 -103
-112 0 -26 -40 -76 -70 -88 -13 -5 -13 -7 0 -17 10 -7 43 -9 98 -6 45 4 82 4
82 2 0 -3 -26 -21 -58 -40 -89 -54 -112 -81 -112 -131 0 -36 -5 -48 -30 -68
-17 -14 -26 -28 -22 -31 38 -24 170 -13 270 21 84 28 150 81 358 286 l206 202
52 -3 c35 -2 104 10 225 41 l175 45 -60 12 c-88 17 -122 29 -197 68 -77 40
-135 99 -172 177 -90 191 -44 409 126 588 60 64 68 69 68 47 1 -14 -26 -70
-60 -125 -33 -55 -67 -124 -76 -154 -34 -120 9 -275 102 -365 88 -86 242 -138
348 -118 52 10 52 10 36 -39 -17 -49 -70 -120 -168 -227 -141 -153 -213 -274
-213 -360 0 -63 71 -105 133 -79 l33 13 -39 20 c-54 26 -56 55 -13 136 34 65
105 141 329 353 165 156 202 229 168 335 -6 19 -12 96 -13 170 -1 133 -2 136
-37 210 -53 111 -135 193 -406 403 -13 11 -53 25 -90 33 -126 26 -216 99 -292
238 -24 44 -64 101 -89 128 -50 54 -160 126 -237 156 -53 21 -135 38 -135 28z
m-44 -889 c-107 -131 -114 -278 -16 -344 18 -13 46 -23 61 -23 l29 0 0 -72 c0
-122 43 -168 164 -178 l71 -6 -40 -12 c-88 -26 -176 -10 -236 45 -46 42 -69
81 -69 117 0 18 -9 30 -29 40 -67 35 -108 122 -97 203 9 64 61 160 121 220 64
64 91 70 41 10z m1074 -57 c28 -15 47 -84 30 -105 -27 -33 -76 -49 -137 -46
-30 1 -90 55 -114 102 -10 21 -19 40 -19 42 0 2 24 2 53 0 28 -3 70 0 92 5 54
13 73 14 95 2z"/>
</g>
</svg>
