<?xml version="1.0" standalone="no"?>
<!DOCTYPE svg PUBLIC "-//W3C//DTD SVG 20010904//EN"
 "http://www.w3.org/TR/2001/REC-SVG-20010904/DTD/svg10.dtd">
<svg version="1.0" xmlns="http://www.w3.org/2000/svg"
 width="256.000000pt" height="256.000000pt" viewBox="0 0 256.000000 256.000000"
 preserveAspectRatio="xMidYMid meet">
<metadata>
Created by potrace 1.16, written by Peter Selinger 2001-2019
</metadata>
<g transform="translate(0.000000,256.000000) scale(0.100000,-0.100000)"
fill="#f2f2f2" stroke="none">
<path d="M893 2179 c-30 -9 -32 -12 -26 -42 23 -124 82 -276 155 -398 45 -76
2 -114 -128 -114 l-82 1 -128 123 c-70 68 -151 139 -180 157 -56 36 -227 98
-302 110 -41 6 -42 6 -42 -20 0 -20 26 -54 102 -137 151 -162 226 -256 259
-324 27 -55 29 -66 23 -130 -8 -94 -26 -143 -87 -239 -28 -45 -66 -115 -86
-156 -34 -73 -35 -79 -36 -195 0 -88 5 -136 18 -178 10 -32 21 -56 25 -53 4 2
34 48 67 102 33 55 96 136 140 184 44 47 98 106 118 133 32 39 44 47 71 47 38
0 56 -18 80 -79 33 -86 106 -170 208 -240 29 -21 54 -46 56 -57 2 -11 -16 -53
-40 -93 -33 -58 -43 -86 -46 -133 -3 -44 -1 -63 9 -69 22 -14 146 -10 208 6
133 34 191 74 247 168 73 121 73 121 156 122 62 1 255 44 368 82 8 3 -16 12
-54 20 -189 39 -300 153 -340 346 -25 122 -19 303 9 257 3 -5 10 -48 16 -95 5
-46 18 -109 29 -139 62 -163 229 -266 416 -254 l76 5 -5 -39 c-3 -24 -25 -70
-56 -116 -27 -42 -55 -90 -62 -107 -15 -40 -38 -125 -33 -125 2 0 12 17 23 38
25 47 82 106 173 178 194 152 207 179 174 339 -13 58 -16 102 -11 160 12 144
-39 249 -188 391 -105 101 -177 148 -417 273 -537 279 -596 302 -759 300 -47
0 -100 -5 -118 -10z m1201 -680 c14 -11 33 -34 41 -49 55 -106 -67 -221 -174
-166 -84 44 -86 176 -2 221 39 21 104 19 135 -6z"/>
</g>
</svg>
