<?xml version="1.0" standalone="no"?>
<!DOCTYPE svg PUBLIC "-//W3C//DTD SVG 20010904//EN"
 "http://www.w3.org/TR/2001/REC-SVG-20010904/DTD/svg10.dtd">
<svg version="1.0" xmlns="http://www.w3.org/2000/svg"
 width="256.000000pt" height="256.000000pt" viewBox="0 0 256.000000 256.000000"
 preserveAspectRatio="xMidYMid meet">
<metadata>
Created by potrace 1.16, written by Peter Selinger 2001-2019
</metadata>
<g transform="translate(0.000000,256.000000) scale(0.100000,-0.100000)"
fill="#f2f2f2" stroke="none">
<path d="M1100 2456 l0 -85 -54 -15 c-84 -25 -204 -90 -291 -158 l-80 -63 213
-3 212 -2 0 -55 0 -55 -142 0 -143 0 -61 -39 c-136 -86 -265 -233 -339 -386
-195 -402 -79 -886 277 -1158 74 -56 239 -142 297 -153 l31 -6 0 461 0 461 40
0 40 0 0 95 0 95 160 0 160 0 0 -95 0 -95 40 0 40 0 0 -464 0 -464 38 10 c72
19 228 100 300 155 356 272 472 756 277 1158 -74 153 -195 291 -336 383 l-64
42 -147 0 -148 0 0 55 0 55 212 2 212 3 -67 54 c-90 71 -201 133 -287 161
l-70 23 0 83 0 84 -160 0 -160 0 0 -84z m210 -661 l0 -185 -50 0 -50 0 0 185
0 185 50 0 50 0 0 -185z m-306 -55 c47 -82 86 -154 86 -160 0 -11 -67 -47 -74
-39 -11 11 -176 301 -176 309 0 10 48 39 66 40 6 0 50 -67 98 -150z m647 133
c16 -10 29 -21 29 -25 0 -6 -167 -298 -176 -307 -7 -8 -74 28 -74 39 0 18 171
310 182 310 5 0 23 -8 39 -17z m-858 -345 c75 -44 137 -81 137 -83 0 -2 -9
-20 -21 -39 -18 -32 -23 -34 -42 -24 -52 26 -297 170 -297 173 0 2 9 20 21 39
24 42 2 49 202 -66z m1136 66 c12 -19 21 -37 21 -39 0 -3 -245 -147 -297 -174
-19 -10 -24 -7 -43 25 -13 20 -19 39 -14 44 8 7 306 180 310 180 1 0 11 -16
23 -36z m-1069 -389 l0 -45 -185 0 -185 0 0 45 0 45 185 0 185 0 0 -45z m1170
0 l0 -45 -185 0 -185 0 0 45 0 45 185 0 185 0 0 -45z m-1120 -201 c13 -19 19
-39 14 -43 -7 -6 -245 -144 -306 -177 -10 -6 -50 68 -41 77 10 10 296 177 305
178 3 1 16 -15 28 -35z m792 0 c35 -20 105 -61 156 -91 l92 -54 -20 -40 c-12
-22 -24 -38 -28 -36 -74 41 -299 172 -306 178 -7 6 29 79 39 79 2 0 32 -16 67
-36z m-822 -324 c39 -39 14 -100 -41 -100 -57 0 -78 83 -27 108 33 16 46 14
68 -8z m825 -5 c29 -28 31 -42 9 -73 -18 -26 -65 -30 -88 -6 -24 23 -20 70 6
88 31 22 45 20 73 -9z"/>
<path d="M1180 1215 l0 -105 -40 0 -40 0 0 -535 0 -535 160 0 160 0 0 534 0
535 -32 3 -33 3 -3 103 -3 102 -84 0 -85 0 0 -105z"/>
</g>
</svg>
