<svg xmlns="http://www.w3.org/2000/svg" width="341.333" height="341.333" version="1.0" viewBox="0 0 256 256">
    <g fill="#e5e5e5">
        <path d="M110 10.4v8.5l-5.4 1.5c-8.4 2.5-20.4 9-29.1 15.8l-8 6.3 21.3.3 21.2.2v11H81.5l-6.1 3.9c-13.6 8.6-26.5 23.3-33.9 38.6-19.5 40.2-7.9 88.6 27.7 115.8 7.4 5.6 23.9 14.2 29.7 15.3l3.1.6V136h8v-19h32v19h8v92.8l3.8-1c7.2-1.9 22.8-10 30-15.5 35.6-27.2 47.2-75.6 27.7-115.8-7.4-15.3-19.5-29.1-33.6-38.3l-6.4-4.2H142V43l21.2-.2 21.2-.3-6.7-5.4c-9-7.1-20.1-13.3-28.7-16.1l-7-2.3V2h-32zm21 66.1V95h-10V58h10zM100.4 82c4.7 8.2 8.6 15.4 8.6 16 0 1.1-6.7 4.7-7.4 3.9C100.5 100.8 84 71.8 84 71c0-1 4.8-3.9 6.6-4 .6 0 5 6.7 9.8 15m64.7-13.3c1.6 1 2.9 2.1 2.9 2.5 0 .6-16.7 29.8-17.6 30.7-.7.8-7.4-2.8-7.4-3.9 0-1.8 17.1-31 18.2-31 .5 0 2.3.8 3.9 1.7m-85.8 34.5c7.5 4.4 13.7 8.1 13.7 8.3s-.9 2-2.1 3.9c-1.8 3.2-2.3 3.4-4.2 2.4-5.2-2.6-29.7-17-29.7-17.3 0-.2.9-2 2.1-3.9 2.4-4.2.2-4.9 20.2 6.6m113.6-6.6c1.2 1.9 2.1 3.7 2.1 3.9 0 .3-24.5 14.7-29.7 17.4-1.9 1-2.4.7-4.3-2.5-1.3-2-1.9-3.9-1.4-4.4.8-.7 30.6-18 31-18 .1 0 1.1 1.6 2.3 3.6M86 135.5v4.5H49v-9h37zm117 0v4.5h-37v-9h37zM91 155.6c1.3 1.9 1.9 3.9 1.4 4.3-.7.6-24.5 14.4-30.6 17.7-1 .6-5-6.8-4.1-7.7 1-1 29.6-17.7 30.5-17.8.3-.1 1.6 1.5 2.8 3.5m79.2 0c3.5 2 10.5 6.1 15.6 9.1l9.2 5.4-2 4c-1.2 2.2-2.4 3.8-2.8 3.6-7.4-4.1-29.9-17.2-30.6-17.8s2.9-7.9 3.9-7.9c.2 0 3.2 1.6 6.7 3.6M88 188c3.9 3.9 1.4 10-4.1 10-5.7 0-7.8-8.3-2.7-10.8 3.3-1.6 4.6-1.4 6.8.8m82.5.5c2.9 2.8 3.1 4.2.9 7.3-1.8 2.6-6.5 3-8.8.6-2.4-2.3-2-7 .6-8.8 3.1-2.2 4.5-2 7.3.9"/>
        <path d="M118 134.5V145h-8v107h32V145.1l-3.2-.3-3.3-.3-.3-10.3-.3-10.2H118z"/>
    </g>
</svg>
