<?xml version="1.0" standalone="no"?>
<!DOCTYPE svg PUBLIC "-//W3C//DTD SVG 20010904//EN"
 "http://www.w3.org/TR/2001/REC-SVG-20010904/DTD/svg10.dtd">
<svg version="1.0" xmlns="http://www.w3.org/2000/svg"
 width="256.000000pt" height="256.000000pt" viewBox="0 0 256.000000 256.000000"
 preserveAspectRatio="xMidYMid meet">
<metadata>
Created by potrace 1.16, written by Peter Selinger 2001-2019
</metadata>
<g transform="translate(0.000000,256.000000) scale(0.100000,-0.100000)"
fill="#f2f2f2" stroke="none">
<path d="M1650 1893 c-151 -200 -285 -375 -297 -389 -16 -17 -33 -24 -58 -24
-31 0 -38 4 -50 33 -23 56 -35 182 -35 372 0 101 -4 186 -8 189 -5 3 -12 -88
-16 -202 -9 -304 -28 -392 -82 -392 -57 0 -123 50 -316 239 -76 74 -141 131
-145 128 -3 -4 45 -60 108 -124 240 -247 297 -338 237 -377 -40 -26 -138 -37
-360 -43 -120 -3 -218 -10 -218 -14 0 -5 73 -9 163 -9 170 0 330 -13 384 -31
101 -33 64 -107 -183 -367 -75 -79 -134 -146 -130 -149 3 -4 70 57 149 133
264 260 335 292 366 168 15 -59 30 -270 31 -423 0 -68 4 -111 9 -105 5 5 11
115 14 244 6 313 26 377 105 349 23 -8 92 -96 317 -405 159 -216 291 -394 294
-394 4 0 59 53 124 118 l118 119 -374 284 c-375 284 -417 322 -417 377 0 26
36 52 71 52 14 0 228 -31 474 -70 246 -38 456 -70 466 -70 18 0 19 11 19 164
0 91 -3 167 -7 169 -5 3 -216 -24 -471 -59 -445 -61 -464 -63 -503 -48 -48 20
-59 50 -32 96 11 20 109 98 263 211 135 98 304 223 377 276 l132 97 -122 121
-122 121 -275 -365z"/>
<path d="M890 2201 c-320 -68 -589 -311 -688 -621 -33 -104 -44 -175 -44 -290
0 -161 31 -289 103 -430 77 -149 216 -295 363 -378 125 -71 311 -123 431 -121
50 1 50 1 -23 15 -268 48 -501 211 -638 444 -327 555 1 1270 634 1384 l77 14
-65 0 c-36 1 -103 -7 -150 -17z"/>
</g>
</svg>
