<?xml version="1.0" standalone="no"?>
<!DOCTYPE svg PUBLIC "-//W3C//DTD SVG 20010904//EN"
 "http://www.w3.org/TR/2001/REC-SVG-20010904/DTD/svg10.dtd">
<svg version="1.0" xmlns="http://www.w3.org/2000/svg"
 width="256.000000pt" height="256.000000pt" viewBox="0 0 256.000000 256.000000"
 preserveAspectRatio="xMidYMid meet">
<metadata>
Created by potrace 1.16, written by Peter Selinger 2001-2019
</metadata>
<g transform="translate(0.000000,256.000000) scale(0.100000,-0.100000)"
fill="#f2f2f2" stroke="none">
<path d="M770 2324 c0 -8 56 -204 76 -267 l16 -48 33 21 c18 11 37 20 43 20 5
0 20 -26 32 -57 13 -32 26 -61 30 -66 3 -4 16 25 29 63 l22 70 -41 78 c-40 75
-45 79 -135 135 -93 57 -105 62 -105 51z"/>
<path d="M1206 2271 l-59 -59 36 -144 c20 -78 35 -143 34 -144 -1 -1 -28 -15
-60 -31 l-58 -29 91 -44 90 -44 65 32 c76 37 77 22 -11 158 l-54 84 0 140 c0
77 -4 140 -8 140 -4 0 -34 -27 -66 -59z"/>
<path d="M1470 2303 c-36 -14 -66 -27 -68 -28 -1 -1 9 -26 22 -56 14 -30 25
-46 25 -35 1 18 11 18 74 0 15 -5 17 3 17 70 0 42 -1 76 -2 75 -2 0 -32 -12
-68 -26z"/>
<path d="M1677 2144 c-64 -58 -117 -111 -117 -119 0 -7 7 -47 16 -89 14 -71
14 -84 -1 -172 -10 -52 -16 -96 -14 -98 2 -2 64 10 138 26 l134 30 94 76 c64
53 92 81 88 92 -6 15 -203 338 -214 352 -4 4 -59 -40 -124 -98z"/>
<path d="M637 1921 l-76 -89 -73 -7 c-40 -3 -108 -9 -150 -13 l-78 -7 116
-127 c64 -71 120 -128 125 -128 5 0 37 25 70 56 l62 57 71 -6 c39 -4 115 -9
168 -13 l97 -7 -30 93 c-16 51 -30 95 -32 96 -2 2 -31 -7 -65 -20 -34 -14 -64
-21 -66 -17 -3 4 -17 54 -31 111 -15 58 -28 106 -29 107 -1 2 -37 -37 -79 -86z"/>
<path d="M1060 1712 c0 -4 16 -58 35 -121 20 -63 34 -118 33 -123 -2 -4 -33
11 -70 33 l-68 41 -67 -27 c-38 -15 -79 -32 -93 -37 -24 -10 -23 -12 72 -101
l98 -92 -45 -72 c-51 -83 -56 -80 80 -59 50 8 93 12 98 9 4 -2 7 -43 8 -91 1
-48 4 -114 8 -147 l6 -60 39 94 40 93 45 -48 c25 -27 72 -77 104 -112 31 -35
57 -58 57 -53 0 12 -26 194 -36 250 l-5 33 133 -6 133 -7 -40 37 c-22 21 -66
61 -97 90 l-57 52 139 127 c77 69 140 128 140 130 0 2 -15 -1 -32 -5 -18 -5
-91 -25 -163 -45 -71 -19 -135 -35 -141 -35 -8 0 -4 34 12 107 12 59 21 109
19 111 -2 2 -37 -20 -79 -48 l-74 -53 -116 72 c-64 39 -116 68 -116 63z"/>
<path d="M2053 1616 c-82 -69 -354 -336 -342 -336 3 0 61 23 129 50 68 28 128
50 133 50 5 0 50 -23 99 -51 49 -28 93 -47 98 -43 4 5 24 52 43 104 20 52 47
126 61 163 l26 68 -75 35 c-42 18 -78 34 -80 34 -2 0 -43 -33 -92 -74z"/>
<path d="M340 1478 c-1 -7 -13 -79 -29 -160 -15 -82 -27 -148 -25 -148 22 0
230 84 239 97 12 16 20 12 90 -41 77 -58 78 -58 94 -38 9 11 30 38 48 59 l32
40 -69 56 -69 57 -103 0 -104 0 -35 36 c-42 44 -69 60 -69 42z"/>
<path d="M1976 1225 c-11 -8 -58 -27 -105 -41 l-86 -26 73 -69 c39 -38 72 -71
72 -74 0 -2 -30 -5 -67 -7 l-68 -3 138 -93 137 -92 0 72 1 73 99 69 c55 39
100 72 100 74 0 3 -269 133 -273 132 -1 0 -11 -7 -21 -15z"/>
<path d="M360 1013 l-85 -57 40 -7 c22 -4 72 -10 110 -13 l70 -6 72 70 73 70
-98 0 -97 0 -85 -57z"/>
<path d="M690 907 l0 -64 -100 -22 -101 -22 40 -47 c62 -74 90 -97 96 -81 2 8
11 32 18 54 l14 40 133 22 c73 12 136 26 140 30 4 4 13 35 20 68 7 33 15 66
17 73 4 9 -27 12 -136 12 l-141 0 0 -63z"/>
<path d="M1581 933 c0 -10 8 -92 17 -183 l17 -165 95 -47 95 -47 3 81 c2 58 6
78 15 75 46 -20 150 -62 191 -79 l49 -19 -38 43 c-21 24 -107 114 -190 201
l-152 157 -52 0 c-42 0 -51 -3 -50 -17z"/>
<path d="M1215 750 l-45 -90 0 -147 0 -148 85 -68 c46 -37 86 -67 89 -67 2 0
-15 49 -39 110 l-43 110 69 101 70 100 -67 95 c-37 52 -69 94 -70 94 -2 0 -24
-40 -49 -90z"/>
<path d="M1009 731 c-32 -26 -45 -30 -110 -33 l-74 -3 -30 -117 c-16 -64 -27
-120 -24 -123 6 -5 219 24 227 31 2 1 -15 26 -38 55 -23 29 -37 55 -32 57 6 2
34 -1 64 -7 29 -5 54 -8 56 -6 2 1 2 41 0 89 l-3 86 -36 -29z"/>
<path d="M1467 493 c-21 -15 -36 -32 -33 -39 3 -7 35 -54 73 -103 76 -102 76
-102 88 11 7 67 7 67 -31 112 -21 25 -43 46 -49 45 -5 0 -27 -12 -48 -26z"/>
</g>
</svg>
