<?xml version="1.0" standalone="no"?>
<!DOCTYPE svg PUBLIC "-//W3C//DTD SVG 20010904//EN"
 "http://www.w3.org/TR/2001/REC-SVG-20010904/DTD/svg10.dtd">
<svg version="1.0" xmlns="http://www.w3.org/2000/svg"
 width="256.000000pt" height="256.000000pt" viewBox="0 0 256.000000 256.000000"
 preserveAspectRatio="xMidYMid meet">
<metadata>
Created by potrace 1.16, written by Peter Selinger 2001-2019
</metadata>
<g transform="translate(0.000000,256.000000) scale(0.100000,-0.100000)"
fill="#f2f2f2" stroke="none">
<path d="M1470 2131 c-107 -23 -302 -88 -535 -179 -229 -89 -354 -127 -497
-147 -155 -22 -158 -23 -158 -41 0 -9 15 -46 32 -83 46 -93 133 -177 238 -230
122 -61 152 -52 110 33 -28 59 -19 75 62 105 34 13 155 67 268 121 297 141
395 173 435 140 40 -33 5 -76 -178 -214 -109 -82 -139 -116 -102 -116 8 0 79
34 158 75 300 157 452 187 660 130 100 -27 137 -24 151 10 21 56 -20 130 -133
237 -175 167 -295 204 -511 159z"/>
<path d="M850 1548 c-59 -36 -112 -103 -130 -166 -5 -20 -13 -71 -16 -113 l-7
-76 -116 -6 c-112 -6 -221 -28 -221 -47 0 -4 60 -27 133 -50 165 -51 216 -70
221 -79 3 -4 12 -66 21 -137 15 -119 15 -138 1 -222 -9 -50 -29 -125 -46 -166
-30 -75 -31 -100 -5 -110 38 -14 141 41 203 108 52 56 55 90 12 126 -29 24
-30 29 -45 172 -8 81 -15 154 -15 163 0 20 61 -10 217 -108 212 -134 238 -147
343 -181 58 -19 130 -35 160 -36 91 -4 144 0 160 11 23 16 -14 36 -162 90
-186 68 -257 111 -427 257 -109 93 -192 149 -244 164 -23 6 -46 15 -51 19 -19
16 15 183 56 273 65 145 55 172 -42 114z"/>
<path d="M1367 1531 c-93 -37 -187 -137 -189 -200 -1 -17 7 -40 18 -52 17 -19
25 -20 99 -13 115 11 157 7 238 -25 40 -16 87 -32 106 -36 l34 -7 -21 29 c-12
17 -37 41 -57 54 -58 40 -58 79 1 81 49 1 95 -13 204 -62 58 -26 144 -64 193
-85 48 -21 90 -42 93 -47 3 -5 -1 -20 -10 -33 -20 -31 -21 -65 -1 -65 55 0
169 98 218 187 40 75 21 102 -58 83 -110 -26 -226 -4 -360 71 -49 27 -128 68
-175 91 -80 41 -90 43 -185 45 -80 3 -109 -1 -148 -16z"/>
<path d="M1754 1235 c-3 -8 3 -34 15 -57 36 -76 45 -173 26 -296 -9 -59 -19
-139 -22 -177 -5 -66 -4 -73 21 -102 68 -81 276 -147 276 -88 0 7 -36 46 -81
85 -44 40 -87 87 -96 104 -21 39 -20 122 1 241 30 171 13 236 -73 279 -59 30
-60 31 -67 11z"/>
</g>
</svg>
