<?xml version="1.0" standalone="no"?>
<!DOCTYPE svg PUBLIC "-//W3C//DTD SVG 20010904//EN"
 "http://www.w3.org/TR/2001/REC-SVG-20010904/DTD/svg10.dtd">
<svg version="1.0" xmlns="http://www.w3.org/2000/svg"
 width="256.000000pt" height="256.000000pt" viewBox="0 0 256.000000 256.000000"
 preserveAspectRatio="xMidYMid meet">
<metadata>
Created by potrace 1.16, written by Peter Selinger 2001-2019
</metadata>
<g transform="translate(0.000000,256.000000) scale(0.100000,-0.100000)"
fill="#f2f2f2" stroke="none">
<path d="M1082 2358 c-7 -7 -12 -21 -12 -32 1 -35 78 -328 89 -339 7 -7 58
-13 114 -15 139 -5 136 -9 182 191 30 128 35 164 26 183 l-11 24 -188 0 c-133
0 -192 -4 -200 -12z"/>
<path d="M733 2231 c-157 -93 -163 -97 -163 -126 0 -27 207 -254 245 -269 18
-7 35 -2 81 24 119 67 134 79 134 106 0 27 -75 297 -91 326 -19 35 -68 20
-206 -61z"/>
<path d="M1632 2301 c-21 -13 -113 -331 -102 -352 15 -27 186 -121 208 -115
10 4 71 59 135 124 121 123 137 153 102 182 -9 7 -77 48 -151 92 -131 75 -164
87 -192 69z"/>
<path d="M427 1978 c-29 -22 -177 -289 -177 -319 0 -36 5 -39 177 -88 177 -51
186 -52 216 -3 70 110 90 154 81 177 -12 32 -242 245 -263 245 -9 0 -25 -6
-34 -12z"/>
<path d="M1958 1873 c-65 -64 -120 -125 -124 -135 -6 -22 88 -193 115 -208 21
-11 315 73 344 98 9 8 17 25 17 38 0 19 -137 270 -170 309 -29 35 -59 19 -182
-102z"/>
<path d="M202 1478 c-8 -8 -12 -67 -12 -200 l0 -188 24 -11 c19 -9 55 -4 183
26 200 46 196 43 191 182 -2 56 -8 107 -15 114 -11 11 -304 88 -338 89 -12 0
-26 -5 -33 -12z"/>
<path d="M2147 1452 c-109 -27 -153 -42 -164 -57 -11 -15 -14 -43 -11 -122 2
-57 8 -107 15 -114 12 -12 304 -88 340 -89 45 0 53 31 53 212 0 155 -2 170
-20 188 -26 26 -37 25 -213 -18z"/>
<path d="M434 992 c-83 -26 -159 -53 -168 -61 -9 -7 -16 -24 -16 -36 0 -20
137 -270 170 -310 29 -35 59 -19 182 102 65 64 120 125 124 135 10 34 -111
225 -138 217 -2 0 -71 -22 -154 -47z"/>
<path d="M1917 993 c-70 -111 -90 -155 -81 -178 12 -32 242 -245 263 -245 31
0 50 24 131 164 82 143 95 187 62 205 -29 16 -299 91 -326 91 -19 0 -32 -10
-49 -37z"/>
<path d="M693 607 c-127 -127 -144 -157 -108 -187 39 -33 290 -170 309 -170
13 0 30 8 38 18 25 28 109 322 98 343 -11 19 -179 119 -201 119 -7 0 -68 -55
-136 -123z"/>
<path d="M1625 677 c-73 -42 -91 -57 -93 -79 -3 -25 70 -294 89 -330 18 -34
63 -20 203 60 74 44 142 85 151 92 32 27 17 56 -91 172 -120 128 -132 138
-154 138 -9 0 -56 -24 -105 -53z"/>
<path d="M1163 574 c-16 -14 -30 -57 -57 -172 -20 -84 -36 -160 -36 -167 0 -8
9 -24 20 -35 18 -18 33 -20 188 -20 181 0 212 8 212 53 -1 36 -77 328 -89 340
-7 7 -58 13 -114 15 -89 4 -105 2 -124 -14z"/>
</g>
</svg>
