<svg xmlns="http://www.w3.org/2000/svg" width="341.333" height="341.333" version="1.0" viewBox="0 0 256 256">
    <path fill="#e5e5e5" d="M108.2 20.2c-.7.7-1.2 2.1-1.2 3.2.1 3.5 7.8 32.8 8.9 33.9.7.7 5.8 1.3 11.4 1.5 13.9.5 13.6.9 18.2-19.1 3-12.8 3.5-16.4 2.6-18.3L147 19h-18.8c-13.3 0-19.2.4-20 1.2M73.3 32.9C57.6 42.2 57 42.6 57 45.5c0 2.7 20.7 25.4 24.5 26.9 1.8.7 3.5.2 8.1-2.4 11.9-6.7 13.4-7.9 13.4-10.6s-7.5-29.7-9.1-32.6c-1.9-3.5-6.8-2-20.6 6.1m89.9-7c-2.1 1.3-11.3 33.1-10.2 35.2 1.5 2.7 18.6 12.1 20.8 11.5 1-.4 7.1-5.9 13.5-12.4C199.4 47.9 201 44.9 197.5 42c-.9-.7-7.7-4.8-15.1-9.2-13.1-7.5-16.4-8.7-19.2-6.9M42.7 58.2C39.8 60.4 25 87.1 25 90.1c0 3.6.5 3.9 17.7 8.8 17.7 5.1 18.6 5.2 21.6.3 7-11 9-15.4 8.1-17.7C71.2 78.3 48.2 57 46.1 57c-.9 0-2.5.6-3.4 1.2m153.1 10.5c-6.5 6.4-12 12.5-12.4 13.5-.6 2.2 8.8 19.3 11.5 20.8 2.1 1.1 31.5-7.3 34.4-9.8.9-.8 1.7-2.5 1.7-3.8 0-1.9-13.7-27-17-30.9-2.9-3.5-5.9-1.9-18.2 10.2M20.2 108.2c-.8.8-1.2 6.7-1.2 20V147l2.4 1.1c1.9.9 5.5.4 18.3-2.6 20-4.6 19.6-4.3 19.1-18.2-.2-5.6-.8-10.7-1.5-11.4-1.1-1.1-30.4-8.8-33.8-8.9-1.2 0-2.6.5-3.3 1.2m194.5 2.6c-10.9 2.7-15.3 4.2-16.4 5.7s-1.4 4.3-1.1 12.2c.2 5.7.8 10.7 1.5 11.4 1.2 1.2 30.4 8.8 34 8.9 4.5 0 5.3-3.1 5.3-21.2 0-15.5-.2-17-2-18.8-2.6-2.6-3.7-2.5-21.3 1.8m-171.3 46c-8.3 2.6-15.9 5.3-16.8 6.1-.9.7-1.6 2.4-1.6 3.6 0 2 13.7 27 17 31 2.9 3.5 5.9 1.9 18.2-10.2 6.5-6.4 12-12.5 12.4-13.5 1-3.4-11.1-22.5-13.8-21.7-.2 0-7.1 2.2-15.4 4.7m148.3-.1c-7 11.1-9 15.5-8.1 17.8 1.2 3.2 24.2 24.5 26.3 24.5 3.1 0 5-2.4 13.1-16.4 8.2-14.3 9.5-18.7 6.2-20.5-2.9-1.6-29.9-9.1-32.6-9.1-1.9 0-3.2 1-4.9 3.7M69.3 195.3C56.6 208 54.9 211 58.5 214c3.9 3.3 29 17 30.9 17 1.3 0 3-.8 3.8-1.8 2.5-2.8 10.9-32.2 9.8-34.3-1.1-1.9-17.9-11.9-20.1-11.9-.7 0-6.8 5.5-13.6 12.3m93.2-7c-7.3 4.2-9.1 5.7-9.3 7.9-.3 2.5 7 29.4 8.9 33 1.8 3.4 6.3 2 20.3-6 7.4-4.4 14.2-8.5 15.1-9.2 3.2-2.7 1.7-5.6-9.1-17.2-12-12.8-13.2-13.8-15.4-13.8-.9 0-5.6 2.4-10.5 5.3m-46.2 10.3c-1.6 1.4-3 5.7-5.7 17.2-2 8.4-3.6 16-3.6 16.7 0 .8.9 2.4 2 3.5 1.8 1.8 3.3 2 18.8 2 18.1 0 21.2-.8 21.2-5.3-.1-3.6-7.7-32.8-8.9-34-.7-.7-5.8-1.3-11.4-1.5-8.9-.4-10.5-.2-12.4 1.4"/>
</svg>
