<svg xmlns="http://www.w3.org/2000/svg" width="341.333" height="341.333" version="1.0" viewBox="0 0 256 256">
    <g fill="#e5e5e5">
        <path d="M92 42v26l3.8-1.8c2-1.1 5.4-2.5 7.5-3.1l3.7-1.3V16H92zm57-3.1v22.9l3.8 1.3c2 .6 5.4 2 7.5 3.1L164 68V16h-15zm-29-19-4.5.6-.3 19.5-.2 19.5h23.7l.7-7.4c.8-10.2.8-30.9-.1-31.4-1.5-.9-14.9-1.5-19.3-.8M78.5 32.3C58.9 42.9 42.7 59.8 33.4 79.5L29.8 87H19v11h3.6c3.6 0 3.6.1 3 3.2-2.7 13.4-2.9 19.2-1 36.5l.6 5.3h-3.1c-3.1 0-3.1.1-3.1 5v5h4.4c4.3 0 4.4.1 6.1 4.7 9.1 24.2 25.3 42.5 49.5 56 5.7 3.2 22.9 10.3 24.9 10.3.8 0 1.1-5 1.1-16.8v-16.9l-9.6-4.7c-15.7-7.8-27.2-20.9-33.1-37.8-3.5-9.6-4.3-27.1-1.9-36.8 3-12.2 9-22.6 18.3-31.9l8.3-8.4V49.9c0-16.1-.3-20.9-1.2-20.9-.7 0-4 1.5-7.3 3.3m-32.2 83.9c2.3 3 1.8 6.7-1.3 9.8-2.7 2.7-6.3 2.5-9.6-.3-3.3-2.9-3.7-7.6-.9-10.7s9.1-2.4 11.8 1.2M169 49.9v20.8l8.3 8.4c6.7 6.7 9.3 10.2 12.5 16.9 6.1 12.4 7.5 19.1 7 33-.7 18.7-6.2 31.2-19.5 44.6-5.7 5.7-9.2 8.3-16.7 12l-9.6 4.7v16.9c0 11.8.3 16.8 1.1 16.8 2 0 19.2-7.1 24.9-10.3 24.2-13.5 40.4-31.8 49.5-56 1.7-4.6 1.8-4.7 6.1-4.7h4.4v-5c0-4.9 0-5-3.1-5h-3.1l.6-5.3c1.9-17.3 1.7-23.1-1-36.5-.6-3.1-.6-3.2 3-3.2h3.6V87h-10.8l-3.6-7.5c-9.4-19.9-27-38.1-46.3-47.9-2.9-1.4-5.7-2.6-6.3-2.6s-1 7.2-1 20.9m52.5 65.1c2.8 3.1 2.4 7.9-.9 10.7-4.3 3.6-8.7 3-11.1-1.8-2-3.7-1.9-5.1.6-8.3 2.6-3.3 8.6-3.7 11.4-.6"/>
        <path d="M114.9 87.8c-11.2 4.2-18.6 10.8-23.5 20.8-11.8 24.1 3.1 52.5 30.1 57.5 14.1 2.6 30.2-3.9 39-15.9 8.5-11.6 10-28.6 3.7-41.5q-6.3-12.6-18.9-18.9c-5.9-2.9-7.7-3.3-16.2-3.5-7.2-.2-10.8.2-14.2 1.5m-110.2 2L2 92.6v28c0 28 0 28.1 2.3 30.2 1.4 1.3 3.6 2.2 5.5 2.2H13V87h-2.8c-1.8 0-3.8 1-5.5 2.8M243 120v33h3.3c2.2 0 4.1-.8 5.5-2.3 2.2-2.3 2.2-3 2.2-30.3v-28l-2.8-2.7c-1.6-1.6-3.9-2.7-5.5-2.7H243zm-133 87.5v16.3l2.8.5c1.5.3 3 .2 3.5-.2.4-.4.6-7.7.5-16.1l-.3-15.4-3.2-.7-3.3-.6zm32.5-15.5-3 .5v32l3-.3c1.6-.2 3.1-.5 3.3-.6.1-.2.1-7.5 0-16.2l-.3-15.9zM109 230c-4.1 4.1-1.2 12 4.5 12 3.1 0 7.5-4.1 7.5-7s-4.4-7-7.5-7c-1.4 0-3.4.9-4.5 2m28.5.5c-1.4 1.3-2.5 3.3-2.5 4.5 0 2.9 4.4 7 7.5 7 3.4 0 6.5-3.3 6.5-7 0-6.4-7-9.1-11.5-4.5"/>
    </g>
</svg>
