<?xml version="1.0" standalone="no"?>
<!DOCTYPE svg PUBLIC "-//W3C//DTD SVG 20010904//EN"
 "http://www.w3.org/TR/2001/REC-SVG-20010904/DTD/svg10.dtd">
<svg version="1.0" xmlns="http://www.w3.org/2000/svg"
 width="256.000000pt" height="256.000000pt" viewBox="0 0 256.000000 256.000000"
 preserveAspectRatio="xMidYMid meet">
<metadata>
Created by potrace 1.16, written by Peter Selinger 2001-2019
</metadata>
<g transform="translate(0.000000,256.000000) scale(0.100000,-0.100000)"
fill="#f2f2f2" stroke="none">
<path d="M920 2140 l0 -260 38 18 c20 11 54 25 75 31 l37 13 0 229 0 229 -75
0 -75 0 0 -260z"/>
<path d="M1490 2171 l0 -229 38 -13 c20 -6 54 -20 75 -31 l37 -18 0 260 0 260
-75 0 -75 0 0 -229z"/>
<path d="M1200 2361 l-45 -6 -3 -195 -2 -195 119 0 118 0 7 74 c8 102 8 309
-1 314 -15 9 -149 15 -193 8z"/>
<path d="M785 2237 c-196 -106 -358 -275 -451 -472 l-36 -75 -54 0 -54 0 0
-55 0 -55 36 0 c36 0 36 -1 30 -32 -27 -134 -29 -192 -10 -365 l6 -53 -31 0
c-31 0 -31 -1 -31 -50 l0 -50 44 0 c43 0 44 -1 61 -47 91 -242 253 -425 495
-560 57 -32 229 -103 249 -103 8 0 11 50 11 168 l0 169 -96 47 c-157 78 -272
209 -331 378 -35 96 -43 271 -19 368 30 122 90 226 183 319 l83 84 0 208 c0
161 -3 209 -12 209 -7 0 -40 -15 -73 -33z m-322 -839 c23 -30 18 -67 -13 -98
-27 -27 -63 -25 -96 3 -33 29 -37 76 -9 107 28 31 91 24 118 -12z"/>
<path d="M1690 2061 l0 -208 83 -84 c67 -67 93 -102 125 -169 61 -124 75 -191
70 -330 -7 -187 -62 -312 -195 -446 -57 -57 -92 -83 -167 -120 l-96 -47 0
-169 c0 -118 3 -168 11 -168 20 0 192 71 249 103 242 135 404 318 495 560 17
46 18 47 61 47 l44 0 0 50 c0 49 0 50 -31 50 l-31 0 6 53 c19 173 17 231 -10
365 -6 31 -6 32 30 32 l36 0 0 55 0 55 -54 0 -54 0 -36 75 c-94 199 -270 381
-463 479 -29 14 -57 26 -63 26 -6 0 -10 -72 -10 -209z m525 -651 c28 -31 24
-79 -9 -107 -43 -36 -87 -30 -111 18 -20 37 -19 51 6 83 26 33 86 37 114 6z"/>
<path d="M1149 1682 c-112 -42 -186 -108 -235 -208 -118 -241 31 -525 301
-575 141 -26 302 39 390 159 85 116 100 286 37 415 -42 84 -105 147 -189 189
-59 29 -77 33 -162 35 -72 2 -108 -2 -142 -15z"/>
<path d="M47 1662 l-27 -28 0 -280 c0 -280 0 -281 23 -302 14 -13 36 -22 55
-22 l32 0 0 330 0 330 -28 0 c-18 0 -38 -10 -55 -28z"/>
<path d="M2430 1360 l0 -330 33 0 c22 0 41 8 55 23 22 23 22 30 22 303 l0 280
-28 27 c-16 16 -39 27 -55 27 l-27 0 0 -330z"/>
<path d="M1100 485 l0 -163 28 -5 c15 -3 30 -2 35 2 4 4 6 77 5 161 l-3 154
-32 7 -33 6 0 -162z"/>
<path d="M1425 640 l-30 -5 0 -160 0 -160 30 3 c16 2 31 5 33 6 1 2 1 75 0
162 l-3 159 -30 -5z"/>
<path d="M1090 260 c-41 -41 -12 -120 45 -120 31 0 75 41 75 70 0 29 -44 70
-75 70 -14 0 -34 -9 -45 -20z"/>
<path d="M1375 255 c-14 -13 -25 -33 -25 -45 0 -29 44 -70 75 -70 34 0 65 33
65 70 0 64 -70 91 -115 45z"/>
</g>
</svg>
