<svg xmlns="http://www.w3.org/2000/svg" width="341.333" height="341.333" version="1.0" viewBox="0 0 256 256">
    <path fill="#e5e5e5" d="M123.2 52.5c.5 2.2 0 2.6-5.1 4.1-3.1.8-8.4 2.7-11.9 4.1-5 2-6.6 2.2-7.7 1.3-2.2-1.8-4.3-.6-3.8 2.2.3 1.8-.4 2.9-3.2 4.7-7.3 4.9-16.3 16-21.5 26.2-2.7 5.5-5.2 11.5-5.6 13.4-.7 4.1-1.9 4.5-2.8 1-.6-2.2-1-2.4-3.4-1.8-1.5.4-4 .7-5.7.8-2.8 0-3.1-.3-4-5-1.1-5.5-11.6-32.8-12.3-32.1-.4.4 1.3 6 3.2 10.7.6 1.3.1 1.5-2.4 1.1-2.3-.3-3.8.2-5.6 1.9-1.3 1.2-2.4 2.8-2.4 3.5 0 3.4-2.1 1.9-3.8-2.8-3.8-10.4-4.1-9.5 3.2-12.8l6.5-2.9-1-3c-.8-2.2-1.7-3.1-3.3-3.1-3.4 0-8.8 2-11.2 4.2-2.2 1.9-2.2 2-.4 7.8 2.7 9 11.1 30.3 12.6 32.1.8.8 1.4 2.7 1.4 4.2 0 2.2-.6 2.8-3.8 3.6-2 .6-4.2 1.1-4.9 1.1-2.1 0-2.4 1.9-.8 5 2.2 4.2 1.2 6.5-3.3 7.8-7 2.2-7 1.5-.2 18.3 3.4 8.5 6.4 15.7 6.6 16.1.3.4 2.3 0 4.6-.8 2.2-.7 4.4-1.4 4.8-1.4s2.4 4.8 4.5 10.6 4.4 10.8 5.1 11.1c.7.2 1.6 1.7 1.9 3.3.5 2.3 1.3 2.9 4.5 3.4 3.1.5 6.6-.4 17.7-4.3l13.9-4.9 5.9 4.5c3.3 2.5 9 6 12.7 7.9s6.8 4.1 6.8 4.9c0 1.9 1.9 3 3.2 1.7 1-1 5-.1 10.2 2.4 2.5 1.3 3.1 1.3 4.5 0 1.1-.9 4.3-1.4 10.1-1.5 5.2 0 11.6-.9 16.5-2.2 4.4-1.1 8.7-2.1 9.5-2.1.8-.1 2.6-.9 3.9-2 1.3-1 3.7-1.8 5.2-1.8 1.8 0 2.9-.5 2.9-1.4 0-.7 2.4-3.2 5.4-5.4 3-2.3 7.7-6.8 10.6-10 4.3-4.9 5.6-5.8 7.7-5.4 2.3.4 2.5.2 2-1.8-.6-2.5 1.4-6.5 4.7-9.2 1.8-1.5 1.9-2 .9-3.7-1.1-1.7-.9-3.5.8-10l2.2-7.9 17.1-5.9 17.1-5.9-.3-3.3c-.1-2.1.2-3 .8-2.6s.5-.8-.3-2.7c-2.1-5-4.6-9.5-4.7-8.3 0 1.3-2-1.6-2-3 0-.6.5-.3 1 .5s1 1 .9.5c0-1.4-3.8-8.2-3.9-7 0 1.3-2-1.6-2-3 0-.6.5-.3 1 .5 1.5 2.4 1.2.4-.7-3.4-.9-1.9-2.1-3.2-2.6-2.9-.6.4-.8 0-.4-1.1.8-2-2.3-8.7-3.6-7.9-.6.4-.8 0-.4-1 .8-2.1-.2-4.9-1.4-4.1-.5.3-.6-.3-.2-1.2.4-1.1.2-1.5-.4-1.1s-1 0-.9-.8c0-.9-1-2.3-2.4-3.1-2.3-1.5-3.4-1.3-16.4 2.9l-13.9 4.4-7.6-6.1c-9.2-7.4-16.4-11.6-25-14.5-7.3-2.5-20.6-4.5-25.7-3.9-2.9.3-3.9 0-5.1-1.9-2.1-3.2-4.7-3.1-4.1.2m11.7 18.1c.7-.5.9-1.6.5-2.8-.6-2-.3-2 5.2-1.4 6.4.8 15 3 17.4 4.5 1.2.9 1 2.2-1.5 9.6-1.7 4.8-3.2 9-3.5 9.5-.3.4-12.4 4.6-27 9.2l-26.5 8.5-8.8-4.4-8.8-4.4 1.8-3c2.6-4.3 8.1-10.9 13-15.3l4.2-3.7 1.6 3c1.6 3.1 3.8 4 5 2.1.4-.6 0-2.2-.9-3.5s-1.6-2.8-1.6-3.3c0-1.4 11.4-6.2 18.3-7.6 6.1-1.3 6.2-1.3 8.3 1.2 1.2 1.5 2.6 2.2 3.3 1.8m84.6 2.4c.3.5-.1 1-.9 1s-1.8-.5-2.1-1c-.3-.6.1-1 .9-1s1.8.4 2.1 1m-5.9 1.6c-.9.8-2.1 1.2-2.8.8-.8-.5-.6-1 .8-1.5 3.1-1.2 3.7-1 2 .7m-41.3 4.7c2 1.6 3.7 3.2 3.7 3.6s-3.2 1.6-7.1 2.8c-4.4 1.3-6.9 1.6-6.6.9.2-.6 1.2-3.4 2.2-6.3 2-5.6 1.9-5.6 7.8-1m35.4-2.9c-1.6 1.7-8.6 3.7-13.7 4.1-2.3.2-.6-.6 5-2.5 10.1-3.3 10.5-3.4 8.7-1.6M178 85.9c0 .5-1.6 1.2-3.5 1.5-1.9.4-3.5 1.2-3.5 1.8 0 .5-.7.8-1.5.4-.8-.3-1.5-.2-1.5.2 0 .5-1.6.8-3.5.8-4.5 0-3.8-.5 4.3-3.2 7.6-2.5 9.2-2.8 9.2-1.5m-26.6 8.6c-.4.8-1 1.2-1.5.9s-.9 0-.9.6c0 .7-.8.9-2.1.5-1.6-.5-1.9-.4-1.4.6.6.9.2 1.1-1.4.6-2.8-.7-8.3 1.1-7.5 2.5.4.6-.2.8-1.6.3-1.6-.5-2-.4-1.5.4s-.2 1-2.2.6c-2.2-.5-2.5-.4-1.3.5s.9 1-1.3.5c-2-.4-2.7-.2-2.2.6s.1.9-1.5.4-2-.4-1.5.5.1 1-1.5.5-2-.4-1.5.5.1 1-1.5.5c-1.4-.4-2-.3-1.6.3.3.5-.1 1.3-1 1.6-.8.3-1.2.2-.9-.4.8-1.3.1-1.3-4.7.2-2.6.7-3.4 1.4-2.6 1.9s.2.7-1.5.5c-4.7-.5-4-1.2 3.5-3.5 4-1.2 14.7-4.6 23.8-7.5 19-6.3 18.1-6.1 17.4-4.1m73.4 29.6c-.7.5-1.8.9-2.4.9-1.1 0-10.4-18.7-10.4-20.8 0-.6.8-1.2 1.8-1.4 2.4-.5 13.1 20 11 21.3M85 108.4l4.2 2.4-6.1 2c-3.4 1.1-6.1 1.8-6.1 1.4 0-2.1 2.2-8.2 2.9-8.2.5 0 2.8 1.1 5.1 2.4m90.2 8.3c3.6 7.9 4.2 10 3.1 10.6-.7.5-1.9.7-2.5.5-1.3-.5-9.8-19-9.1-20.1.2-.4 1.2-.7 2.2-.7 1.3 0 3.1 2.7 6.3 9.7m-27.7 3.3c4.2 8.5 4.7 10.2 3.5 11-.8.5-2 1-2.5 1-.6 0-3.2-4.4-5.9-9.7-4.5-9.1-4.7-9.8-3-11 1-.7 2.1-1.3 2.4-1.3s2.8 4.5 5.5 10M94 113c1.6 1 1.5 1.1-3.9 1.5-1.9.2-4 1-4.6 1.8-.7 1-2 1.4-3.2 1.1s-2.7.2-3.7 1.1c-1.8 1.9-2.9 1.7-1.7-.3.4-.7 3.8-2.3 7.7-3.6 8.2-2.9 7.5-2.8 9.4-1.6m148 3.5c0 .5-.5.3-1-.5s-1-2-1-2.5c0-.6.5-.3 1 .5s1 1.9 1 2.5m0 7.4c0 1.1-.4 1.3-17.9 7.2-13.5 4.5-16.8 5.2-14.5 2.9 1-.9 29.1-10.8 31.2-10.9.6-.1 1.2.3 1.2.8M61.9 148.3c3 6.5 5.2 12 4.9 12.3-.3.2-1.8.6-3.2.7-2.5.2-3-.6-7.6-10.8-2.7-6.1-5-11.5-5-12.2 0-1.1 2.6-2.2 4.5-1.9.5.1 3.4 5.5 6.4 11.9m43.3-.5c2.9 6.5 4.7 11.7 4.2 12.1-.5.5-1.8 1.2-3 1.5-1.8.6-2.6-.7-7.3-11.1-5-11-5.2-11.8-3.5-13 1-.8 2.4-1.2 3.2-1.1.7.2 3.6 5.4 6.4 11.6m89.2-6.9c-1.4 1.3-17.4 6.4-18.1 5.7-.3-.3 0-.8.8-1 .8-.3 5-1.8 9.4-3.4 7.7-2.8 10-3.2 7.9-1.3m-.4 4.5c0 1.2-2 7.7-2.5 8.4-.2.2-2.6-.9-5.5-2.3s-4.9-2.9-4.5-3.3c.8-.8 9.5-4 11.3-4.1.6-.1 1.2.5 1.2 1.3m-54.5 4.7c.9 1.7 1.5 3.2 1.3 3.4-.2.1-1.2.7-2.4 1.3-1.8 1-2.3.7-3.8-2.5-1.4-2.9-1.5-3.8-.4-4.4 2.3-1.5 3.7-1 5.3 2.2m27.9-.4c.6.7-31.5 12.3-32.3 11.6-.9-.7 1.4-1.7 15.6-6.8 17.1-6.1 15.8-5.7 16.7-4.8m19.6 10.6c0 3.4-14.5 16.7-18.2 16.7-1.2 0-3.2 1.2-4.5 2.6-2 2.1-2.6 2.4-3.9 1.3-1.3-1-1.9-.8-3.9 1.3-3.1 3.3-13.9 5.3-23.4 4.4-3.6-.4-6.7-.8-6.8-1-.5-.5 6.7-20 7.7-21 .5-.5 9-3.7 18.7-7.1l17.8-6.1 8.3 4c4.5 2.2 8.2 4.4 8.2 4.9m-60.5 3.6c-1.5 1.5-26.3 10-27 9.3-.3-.3 5.4-2.7 12.7-5.3 13.9-5 15.8-5.5 14.3-4m-3.6 11.3c-1.7 4.5-3.2 8.4-3.4 8.6-.6.7-15.8-7.2-16.2-8.3-.2-.8 18.5-8 21.9-8.4.4-.1-.6 3.6-2.3 8.1m-41.4 4.7c-1.4 1.2-26.4 9.5-27 8.9-.5-.5 24.1-9.6 26.5-9.7.8-.1 1 .2.5.8"/>
</svg>
