<?xml version="1.0" standalone="no"?>
<!DOCTYPE svg PUBLIC "-//W3C//DTD SVG 20010904//EN"
 "http://www.w3.org/TR/2001/REC-SVG-20010904/DTD/svg10.dtd">
<svg version="1.0" xmlns="http://www.w3.org/2000/svg"
 width="256.000000pt" height="256.000000pt" viewBox="0 0 256.000000 256.000000"
 preserveAspectRatio="xMidYMid meet">
<metadata>
Created by potrace 1.16, written by Peter Selinger 2001-2019
</metadata>
<g transform="translate(0.000000,256.000000) scale(0.100000,-0.100000)"
fill="#f2f2f2" stroke="none">
<path d="M1232 2035 c5 -22 0 -26 -51 -41 -31 -8 -84 -27 -119 -41 -50 -20
-66 -22 -77 -13 -22 18 -43 6 -38 -22 3 -18 -4 -29 -32 -47 -73 -49 -163 -160
-215 -262 -27 -55 -52 -115 -56 -134 -7 -41 -19 -45 -28 -10 -6 22 -10 24 -34
18 -15 -4 -40 -7 -57 -8 -28 0 -31 3 -40 50 -11 55 -116 328 -123 321 -4 -4
13 -60 32 -107 6 -13 1 -15 -24 -11 -23 3 -38 -2 -56 -19 -13 -12 -24 -28 -24
-35 0 -34 -21 -19 -38 28 -38 104 -41 95 32 128 l65 29 -10 30 c-8 22 -17 31
-33 31 -34 0 -88 -20 -112 -42 -22 -19 -22 -20 -4 -78 27 -90 111 -303 126
-321 8 -8 14 -27 14 -42 0 -22 -6 -28 -38 -36 -20 -6 -42 -11 -49 -11 -21 0
-24 -19 -8 -50 22 -42 12 -65 -33 -78 -70 -22 -70 -15 -2 -183 34 -85 64 -157
66 -161 3 -4 23 0 46 8 22 7 44 14 48 14 4 0 24 -48 45 -106 21 -58 44 -108
51 -111 7 -2 16 -17 19 -33 5 -23 13 -29 45 -34 31 -5 66 4 177 43 l139 49 59
-45 c33 -25 90 -60 127 -79 37 -19 68 -41 68 -49 0 -19 19 -30 32 -17 10 10
50 1 102 -24 25 -13 31 -13 45 0 11 9 43 14 101 15 52 0 116 9 165 22 44 11
87 21 95 21 8 1 26 9 39 20 13 10 37 18 52 18 18 0 29 5 29 14 0 7 24 32 54
54 30 23 77 68 106 100 43 49 56 58 77 54 23 -4 25 -2 20 18 -6 25 14 65 47
92 18 15 19 20 9 37 -11 17 -9 35 8 100 l22 79 171 59 171 59 -3 33 c-1 21 2
30 8 26 6 -4 5 8 -3 27 -21 50 -46 95 -47 83 0 -13 -20 16 -20 30 0 6 5 3 10
-5 5 -8 10 -10 9 -5 0 14 -38 82 -39 70 0 -13 -20 16 -20 30 0 6 5 3 10 -5 15
-24 12 -4 -7 34 -9 19 -21 32 -26 29 -6 -4 -8 0 -4 11 8 20 -23 87 -36 79 -6
-4 -8 0 -4 10 8 21 -2 49 -14 41 -5 -3 -6 3 -2 12 4 11 2 15 -4 11 -6 -4 -10
0 -9 8 0 9 -10 23 -24 31 -23 15 -34 13 -164 -29 l-139 -44 -76 61 c-92 74
-164 116 -250 145 -73 25 -206 45 -257 39 -29 -3 -39 0 -51 19 -21 32 -47 31
-41 -2z m117 -181 c7 5 9 16 5 28 -6 20 -3 20 52 14 64 -8 150 -30 174 -45 12
-9 10 -22 -15 -96 -17 -48 -32 -90 -35 -95 -3 -4 -124 -46 -270 -92 l-265 -85
-88 44 -88 44 18 30 c26 43 81 109 130 153 l42 37 16 -30 c16 -31 38 -40 50
-21 4 6 0 22 -9 35 -9 13 -16 28 -16 33 0 14 114 62 183 76 61 13 62 13 83
-12 12 -15 26 -22 33 -18z m846 -24 c3 -5 -1 -10 -9 -10 -8 0 -18 5 -21 10 -3
6 1 10 9 10 8 0 18 -4 21 -10z m-59 -16 c-9 -8 -21 -12 -28 -8 -8 5 -6 10 8
15 31 12 37 10 20 -7z m-413 -47 c20 -16 37 -32 37 -36 0 -4 -32 -16 -71 -28
-44 -13 -69 -16 -66 -9 2 6 12 34 22 63 20 56 19 56 78 10z m354 29 c-16 -17
-86 -37 -137 -41 -23 -2 -6 6 50 25 101 33 105 34 87 16z m-297 -95 c0 -5 -16
-12 -35 -15 -19 -4 -35 -12 -35 -18 0 -5 -7 -8 -15 -4 -8 3 -15 2 -15 -2 0 -5
-16 -8 -35 -8 -45 0 -38 5 43 32 76 25 92 28 92 15z m-266 -86 c-4 -8 -10 -12
-15 -9 -5 3 -9 0 -9 -6 0 -7 -8 -9 -21 -5 -16 5 -19 4 -14 -6 6 -9 2 -11 -14
-6 -28 7 -83 -11 -75 -25 4 -6 -2 -8 -16 -3 -16 5 -20 4 -15 -4 5 -8 -2 -10
-22 -6 -22 5 -25 4 -13 -5 12 -9 9 -10 -13 -5 -20 4 -27 2 -22 -6 5 -8 1 -9
-15 -4 -16 5 -20 4 -15 -5 5 -9 1 -10 -15 -5 -16 5 -20 4 -15 -5 5 -9 1 -10
-15 -5 -14 4 -20 3 -16 -3 3 -5 -1 -13 -10 -16 -8 -3 -12 -2 -9 4 8 13 1 13
-47 -2 -26 -7 -34 -14 -26 -19 8 -5 2 -7 -15 -5 -47 5 -40 12 35 35 40 12 147
46 238 75 190 63 181 61 174 41z m734 -296 c-7 -5 -18 -9 -24 -9 -11 0 -104
187 -104 208 0 6 8 12 18 14 24 5 131 -200 110 -213z m-1398 157 l42 -24 -61
-20 c-34 -11 -61 -18 -61 -14 0 21 22 82 29 82 5 0 28 -11 51 -24z m902 -83
c36 -79 42 -100 31 -106 -7 -5 -19 -7 -25 -5 -13 5 -98 190 -91 201 2 4 12 7
22 7 13 0 31 -27 63 -97z m-277 -33 c42 -85 47 -102 35 -110 -8 -5 -20 -10
-25 -10 -6 0 -32 44 -59 97 -45 91 -47 98 -30 110 10 7 21 13 24 13 3 0 28
-45 55 -100z m-535 70 c16 -10 15 -11 -39 -15 -19 -2 -40 -10 -46 -18 -7 -10
-20 -14 -32 -11 -12 3 -27 -2 -37 -11 -18 -19 -29 -17 -17 3 4 7 38 23 77 36
82 29 75 28 94 16z m1480 -35 c0 -5 -5 -3 -10 5 -5 8 -10 20 -10 25 0 6 5 3
10 -5 5 -8 10 -19 10 -25z m0 -74 c0 -11 -4 -13 -179 -72 -135 -45 -168 -52
-145 -29 10 9 291 108 312 109 6 1 12 -3 12 -8z m-1801 -244 c30 -65 52 -120
49 -123 -3 -2 -18 -6 -32 -7 -25 -2 -30 6 -76 108 -27 61 -50 115 -50 122 0
11 26 22 45 19 5 -1 34 -55 64 -119z m433 5 c29 -65 47 -117 42 -121 -5 -5
-18 -12 -30 -15 -18 -6 -26 7 -73 111 -50 110 -52 118 -35 130 10 8 24 12 32
11 7 -2 36 -54 64 -116z m892 69 c-14 -13 -174 -64 -181 -57 -3 3 0 8 8 10 8
3 50 18 94 34 77 28 100 32 79 13z m-4 -45 c0 -12 -20 -77 -25 -84 -2 -2 -26
9 -55 23 -29 14 -49 29 -45 33 8 8 95 40 113 41 6 1 12 -5 12 -13z m-545 -47
c9 -17 15 -32 13 -34 -2 -1 -12 -7 -24 -13 -18 -10 -23 -7 -38 25 -14 29 -15
38 -4 44 23 15 37 10 53 -22z m279 4 c6 -7 -315 -123 -323 -116 -9 7 14 17
156 68 171 61 158 57 167 48z m196 -106 c0 -34 -145 -167 -182 -167 -12 0 -32
-12 -45 -26 -20 -21 -26 -24 -39 -13 -13 10 -19 8 -39 -13 -31 -33 -139 -53
-234 -44 -36 4 -67 8 -68 10 -5 5 67 200 77 210 5 5 90 37 187 71 l178 61 83
-40 c45 -22 82 -44 82 -49z m-605 -36 c-15 -15 -263 -100 -270 -93 -3 3 54 27
127 53 139 50 158 55 143 40z m-36 -113 c-17 -45 -32 -84 -34 -86 -6 -7 -158
72 -162 83 -2 8 185 80 219 84 4 1 -6 -36 -23 -81z m-414 -47 c-14 -12 -264
-95 -270 -89 -5 5 241 96 265 97 8 1 10 -2 5 -8z"/>
</g>
</svg>
