<?xml version="1.0" standalone="no"?>
<!DOCTYPE svg PUBLIC "-//W3C//DTD SVG 20010904//EN"
 "http://www.w3.org/TR/2001/REC-SVG-20010904/DTD/svg10.dtd">
<svg version="1.0" xmlns="http://www.w3.org/2000/svg"
 width="256.000000pt" height="256.000000pt" viewBox="0 0 256.000000 256.000000"
 preserveAspectRatio="xMidYMid meet">
<metadata>
Created by potrace 1.16, written by Peter Selinger 2001-2019
</metadata>
<g transform="translate(0.000000,256.000000) scale(0.100000,-0.100000)"
fill="#f2f2f2" stroke="none">
<path d="M920 2394 c-143 -48 -180 -85 -240 -236 -16 -43 -27 -58 -41 -58 -69
0 -123 -60 -118 -131 3 -32 -2 -44 -30 -72 -56 -59 -117 -302 -109 -434 3 -53
9 -68 33 -94 28 -29 166 -104 262 -141 38 -15 42 -19 48 -62 7 -41 14 -51 69
-95 82 -65 165 -113 256 -146 60 -22 98 -29 185 -32 167 -7 290 29 435 127
104 71 138 106 145 152 6 36 12 42 49 56 95 37 233 112 261 141 24 26 30 41
33 94 5 74 -18 215 -53 324 -18 57 -34 88 -59 112 -30 29 -33 38 -29 70 9 69
-46 131 -116 131 -14 0 -25 15 -41 58 -60 152 -97 188 -242 236 -86 29 -140
33 -180 12 -19 -10 -38 -12 -73 -5 -26 5 -51 6 -56 3 -5 -3 -9 -29 -9 -59 l0
-54 38 -6 c182 -29 335 -126 431 -274 61 -96 86 -186 86 -316 0 -173 -50 -292
-174 -416 -87 -87 -183 -140 -291 -160 -36 -6 -71 -13 -77 -15 -9 -2 -13 -26
-13 -74 l0 -70 -30 0 -30 0 0 70 c0 48 -4 72 -12 74 -7 2 -42 9 -78 15 -201
38 -372 195 -446 411 -29 85 -26 252 5 348 42 129 131 244 245 317 55 35 175
78 249 90 l37 6 0 54 c0 30 -4 56 -9 59 -5 3 -30 2 -56 -3 -35 -7 -54 -5 -73
5 -40 20 -98 17 -182 -12z m-242 -372 c28 -37 -2 -102 -48 -102 -27 0 -60 35
-60 63 0 59 72 85 108 39z m1266 7 c31 -25 34 -61 6 -89 -24 -24 -48 -25 -78
-4 -33 23 -28 83 8 101 33 17 33 16 64 -8z m-1345 -283 c8 -9 11 -52 9 -126
-3 -95 -6 -115 -20 -124 -13 -8 -23 -8 -35 0 -15 9 -18 29 -21 124 -3 116 4
140 38 140 10 0 23 -6 29 -14z m1385 8 c13 -5 16 -26 16 -129 0 -76 -4 -126
-11 -130 -5 -4 -21 -4 -35 -1 -24 6 -24 7 -24 130 0 120 3 132 32 135 3 1 13
-2 22 -5z"/>
<path d="M1147 2175 c-125 -34 -251 -132 -309 -241 -53 -99 -73 -244 -47 -354
56 -243 311 -412 557 -370 192 32 359 186 401 370 15 66 13 177 -4 245 -44
168 -182 304 -356 350 -66 18 -177 18 -242 0z"/>
<path d="M764 989 c15 -74 28 -110 51 -137 22 -26 25 -40 25 -103 0 -41 4 -79
8 -85 4 -5 28 -25 53 -43 l46 -32 -23 -112 c-13 -62 -23 -123 -24 -135 0 -28
59 -92 86 -92 9 0 63 -23 120 -51 56 -28 119 -53 140 -56 44 -5 143 28 231 77
29 17 62 30 74 30 29 0 89 62 89 92 -1 12 -11 74 -24 136 l-23 112 47 35 c26
19 51 42 54 51 3 9 6 46 6 84 0 49 4 71 16 81 8 7 21 24 28 38 15 30 40 130
34 136 -2 2 -26 -12 -54 -31 -64 -46 -163 -96 -244 -124 -100 -34 -270 -39
-380 -11 -103 26 -191 66 -277 127 l-66 45 7 -32z m247 -230 c43 -28 79 -58
79 -66 0 -19 -38 -73 -52 -73 -6 0 -39 20 -74 46 -62 43 -64 47 -64 88 0 72 6
72 111 5z m627 0 l3 -47 -67 -47 c-73 -53 -81 -52 -115 2 l-20 32 83 56 c46
30 90 54 98 53 10 -2 16 -18 18 -49z m-317 -62 c30 -23 39 -56 39 -146 0 -49
5 -112 12 -140 11 -48 10 -53 -12 -76 -50 -54 -130 -54 -180 0 -22 23 -23 28
-12 76 7 28 12 91 12 140 0 121 21 158 90 158 19 0 42 -5 51 -12z"/>
</g>
</svg>
