<svg xmlns="http://www.w3.org/2000/svg" width="341.333" height="341.333" version="1.0" viewBox="0 0 256 256">
    <path fill="#e5e5e5" d="M91.8 18c-13.9 5.6-24.5 16.2-27 26.9-3 13.1 6.7 24.4 29.8 34.7l7.9 3.5-5-.6C82 80.5 64 73.4 56.3 66.2L52 62.3v17.3l-5 2.9c-2.7 1.7-5 3.3-5 3.6 0 1.2 9.7 5.7 15 7 7.4 1.7 31.6 1.5 45.4-.5l10.9-1.6 4.2 4.5 4.2 4.6 7.2-3.7c3.9-2 7.4-4.2 7.9-4.9.6-1 2.3-1 9 .1 23.8 3.8 47.3 3.7 58.3-.1 5-1.8 8.9-4.1 8.9-5.4 0-.4-2.2-2.2-4.9-3.8l-4.9-3.1.5-8.8.5-8.9-3.8 3.6c-7.9 7.4-19.3 12.7-34.6 16-11.4 2.5-14.2 2.1-6.3-.9 14-5.4 25.7-14 29.4-21.5 6.5-13.5-2.4-29.6-21.7-38.9-6.6-3.2-9-3.9-11.6-3.4-5.1 1-11.3 6-15.6 12.7-3.9 6.1-9.4 20.9-10.6 28.7-.4 2.3-1 4.4-1.3 4.7-.4.2-1.5-3.1-2.5-7.3-4.4-19.1-11.8-32.1-20.8-36.6-6.1-3.1-6.8-3.1-13-.6m11.3 14.2c4 4.4 8.6 15.9 11.5 28.7 3.5 15.3 3.9 14.5-6.1 11.1-12.3-4.2-21.1-8.8-26.9-14.1-4.5-4.1-5.1-5.1-5.1-8.7 0-5.2 3.9-10.2 12.4-16 7.6-5.1 10.2-5.3 14.2-1m59.2-1.6c10.3 5.3 16.7 12.5 16.7 18.7 0 7.2-11.9 15.8-31.1 22.5-4.8 1.7-8.9 2.9-9.2 2.6-.7-.7 3-18 5.5-25.4 2.6-8.1 5-12.8 8.3-16.9 3-3.5 5.2-3.8 9.8-1.5M41 119v14h173v-28H41zm8 71.5c0 26.1-.1 47.8-.2 48.2-.2.5 16.5.9 37 1.1l37.2.2v-97H49zm83 1V240h75v-97h-75z"/>
</svg>
