<?xml version="1.0" standalone="no"?>
<!DOCTYPE svg PUBLIC "-//W3C//DTD SVG 20010904//EN"
 "http://www.w3.org/TR/2001/REC-SVG-20010904/DTD/svg10.dtd">
<svg version="1.0" xmlns="http://www.w3.org/2000/svg"
 width="256.000000pt" height="256.000000pt" viewBox="0 0 256.000000 256.000000"
 preserveAspectRatio="xMidYMid meet">
<metadata>
Created by potrace 1.16, written by Peter Selinger 2001-2019
</metadata>
<g transform="translate(0.000000,256.000000) scale(0.100000,-0.100000)"
fill="#f2f2f2" stroke="none">
<path d="M918 2380 c-139 -56 -245 -162 -270 -269 -30 -131 67 -244 298 -347
l79 -35 -50 6 c-155 20 -335 91 -412 163 l-43 39 0 -86 0 -87 -50 -29 c-27
-17 -50 -33 -50 -36 0 -12 97 -57 150 -70 74 -17 316 -15 454 5 l109 16 42
-45 42 -46 72 37 c39 20 74 42 79 49 6 10 23 10 90 -1 238 -38 473 -37 583 1
50 18 89 41 89 54 0 4 -22 22 -49 38 l-49 31 5 88 5 89 -38 -36 c-79 -74 -193
-127 -346 -160 -114 -25 -142 -21 -63 9 140 54 257 140 294 215 65 135 -24
296 -217 389 -66 32 -90 39 -116 34 -51 -10 -113 -60 -156 -127 -39 -61 -94
-209 -106 -287 -4 -23 -10 -44 -13 -47 -4 -2 -15 31 -25 73 -44 191 -118 321
-208 366 -61 31 -68 31 -130 6z m113 -142 c40 -44 86 -159 115 -287 35 -153
39 -145 -61 -111 -123 42 -211 88 -269 141 -45 41 -51 51 -51 87 0 52 39 102
124 160 76 51 102 53 142 10z m592 16 c103 -53 167 -125 167 -187 0 -72 -119
-158 -311 -225 -48 -17 -89 -29 -92 -26 -7 7 30 180 55 254 26 81 50 128 83
169 30 35 52 38 98 15z"/>
<path d="M410 1370 l0 -140 865 0 865 0 0 140 0 140 -865 0 -865 0 0 -140z"/>
<path d="M490 655 c0 -261 -1 -478 -2 -482 -2 -5 165 -9 370 -11 l372 -2 0
485 0 485 -370 0 -370 0 0 -475z"/>
<path d="M1320 645 l0 -485 375 0 375 0 0 485 0 485 -375 0 -375 0 0 -485z"/>
</g>
</svg>
