<?xml version="1.0" standalone="no"?>
<!DOCTYPE svg PUBLIC "-//W3C//DTD SVG 20010904//EN"
 "http://www.w3.org/TR/2001/REC-SVG-20010904/DTD/svg10.dtd">
<svg version="1.0" xmlns="http://www.w3.org/2000/svg"
 width="256.000000pt" height="256.000000pt" viewBox="0 0 256.000000 256.000000"
 preserveAspectRatio="xMidYMid meet">
<metadata>
Created by potrace 1.16, written by Peter Selinger 2001-2019
</metadata>
<g transform="translate(0.000000,256.000000) scale(0.100000,-0.100000)"
fill="#f2f2f2" stroke="none">
<path d="M1256 2548 c-2 -7 -9 -47 -15 -88 -14 -92 -57 -187 -116 -256 l-44
-52 37 -72 c35 -69 37 -78 36 -164 0 -75 -5 -102 -27 -155 -15 -36 -27 -74
-27 -86 0 -27 47 -99 95 -145 68 -66 136 -41 216 79 36 55 36 71 2 152 -22 53
-27 80 -27 155 -1 86 1 95 36 164 l37 72 -44 52 c-59 69 -102 164 -116 256
-15 95 -16 100 -29 100 -6 0 -12 -6 -14 -12z"/>
<path d="M935 2028 c-246 -145 -348 -165 -643 -131 l-52 6 39 -64 c60 -99 118
-221 147 -306 23 -68 28 -100 33 -248 l6 -170 35 3 c48 5 121 31 144 51 10 9
40 48 67 87 66 98 92 117 149 112 51 -5 210 -66 276 -106 l44 -27 0 -105 c-1
-118 -19 -241 -45 -289 -22 -43 -63 -59 -176 -67 -52 -4 -105 -12 -119 -19
-28 -14 -120 -109 -120 -123 0 -5 38 -30 84 -55 131 -74 222 -143 272 -205 42
-54 184 -323 184 -350 0 -31 20 0 82 127 79 162 137 244 212 301 47 36 256
161 290 173 17 7 -104 126 -139 136 -16 5 -70 12 -119 16 -104 7 -147 23 -172
60 -26 40 -43 129 -50 266 l-7 127 39 25 c58 38 241 108 299 114 45 5 55 2 83
-22 18 -15 55 -60 83 -100 58 -85 116 -118 219 -127 l35 -3 6 175 c4 146 9
186 28 239 26 75 82 186 145 291 25 41 43 76 41 78 -1 2 -59 -2 -127 -9 -136
-13 -247 -7 -329 17 -51 15 -185 80 -292 141 -55 31 -57 30 -82 -51 -25 -82
-20 -118 30 -213 61 -115 61 -147 -1 -213 -43 -46 -153 -123 -232 -164 l-34
-18 -80 49 c-136 82 -218 166 -218 224 0 13 21 67 46 122 42 89 46 104 41 150
-5 52 -34 137 -46 137 -3 0 -37 -19 -76 -42z"/>
<path d="M843 1238 c-11 -13 -34 -44 -51 -70 -68 -101 -155 -154 -273 -166
l-71 -7 -22 -75 c-28 -97 -53 -138 -144 -231 -41 -43 -69 -80 -63 -83 6 -4 36
7 69 23 98 50 162 64 275 60 l100 -4 27 52 c15 29 39 68 53 86 28 37 141 101
197 112 98 19 110 25 130 65 21 41 41 117 42 163 2 60 -73 97 -196 97 -42 0
-57 -5 -73 -22z"/>
<path d="M1520 1248 c-49 -10 -90 -46 -90 -79 0 -11 7 -51 16 -90 22 -96 47
-124 124 -138 78 -13 182 -65 220 -108 17 -19 43 -60 59 -92 l30 -58 103 5
c92 4 111 1 183 -22 44 -15 95 -36 114 -47 23 -13 37 -17 44 -10 7 7 -9 27
-45 60 -77 70 -128 148 -158 244 l-27 82 -74 8 c-41 4 -92 17 -114 27 -48 24
-126 97 -167 160 -17 25 -38 51 -46 58 -18 14 -106 14 -172 0z"/>
</g>
</svg>
