<?xml version="1.0" standalone="no"?>
<!DOCTYPE svg PUBLIC "-//W3C//DTD SVG 20010904//EN"
 "http://www.w3.org/TR/2001/REC-SVG-20010904/DTD/svg10.dtd">
<svg version="1.0" xmlns="http://www.w3.org/2000/svg"
 width="256.000000pt" height="256.000000pt" viewBox="0 0 256.000000 256.000000"
 preserveAspectRatio="xMidYMid meet">
<metadata>
Created by potrace 1.16, written by Peter Selinger 2001-2019
</metadata>
<g transform="translate(0.000000,256.000000) scale(0.100000,-0.100000)"
fill="#f2f2f2" stroke="none">
<path d="M1695 2360 c-181 -37 -283 -38 -430 -5 -138 31 -208 31 -326 1 -161
-41 -266 -97 -382 -204 -57 -52 -125 -91 -159 -92 -25 0 -31 -18 -19 -49 23
-54 107 -81 191 -61 52 12 118 53 230 139 80 63 144 86 232 85 56 -1 80 -8
145 -39 176 -84 228 -91 333 -45 85 37 132 39 165 5 32 -31 32 -65 -1 -96 -14
-13 -39 -40 -55 -60 l-29 -37 87 -43 c70 -34 104 -60 169 -124 l81 -82 26 21
c15 12 27 26 27 32 0 6 6 18 13 28 12 17 15 17 65 1 79 -26 108 -14 137 56 30
74 80 150 149 227 66 74 71 103 27 146 l-29 28 -77 -33 c-73 -30 -80 -31 -130
-20 -29 7 -60 20 -70 31 -9 10 -31 22 -49 25 -17 4 -58 16 -91 27 -40 14 -87
21 -140 21 -73 0 -91 -4 -199 -47 -160 -64 -199 -64 -295 -7 -118 72 -213 88
-334 56 -73 -19 -117 -41 -249 -127 -125 -81 -190 -108 -256 -107 l-47 1 52 8
c59 9 119 41 211 112 143 112 240 161 355 179 86 14 167 -2 272 -56 54 -27
103 -45 123 -45 19 0 75 17 126 39 128 53 183 65 282 58 l84 -5 0 44 0 44 -37
-1 c-21 0 -101 -13 -178 -29z"/>
<path d="M1487 1829 c-15 -9 -11 -16 28 -64 47 -58 119 -197 130 -252 4 -18
10 -33 13 -33 4 0 30 12 59 28 59 30 60 34 16 111 -34 58 -85 114 -153 165
-72 56 -73 56 -93 45z"/>
<path d="M1200 1728 c-1 -2 -2 -28 -4 -59 -5 -98 -75 -190 -220 -289 -39 -27
-84 -60 -101 -74 l-30 -26 34 -29 c22 -20 60 -36 115 -51 44 -11 105 -29 133
-39 46 -16 54 -17 65 -4 22 27 151 129 227 179 l74 49 -7 80 c-6 83 -16 130
-43 202 -15 42 -15 42 -58 36 -23 -3 -58 -1 -76 5 -38 12 -109 25 -109 20z"/>
<path d="M712 1167 l-42 -42 21 -43 c12 -24 48 -66 80 -95 32 -28 72 -70 89
-94 l31 -43 77 81 c42 45 78 85 80 88 1 4 -31 22 -73 40 -97 43 -161 85 -182
122 -10 16 -22 29 -28 29 -6 0 -30 -19 -53 -43z"/>
<path d="M573 1018 c-65 -70 -112 -139 -106 -156 10 -29 65 -96 101 -124 31
-25 113 -56 185 -72 24 -6 29 -2 43 27 16 32 15 34 -22 103 -21 38 -55 89 -77
114 -21 25 -50 66 -63 93 -13 26 -26 47 -27 47 -2 0 -17 -15 -34 -32z"/>
<path d="M370 799 c-7 -11 -18 -42 -26 -68 -21 -71 -70 -137 -135 -184 -33
-22 -59 -45 -59 -51 0 -5 25 -33 56 -61 55 -52 56 -52 65 -131 6 -43 17 -89
24 -101 17 -26 69 -38 121 -29 63 12 165 124 251 274 l42 75 -81 40 c-97 49
-162 112 -203 196 -16 34 -32 61 -36 61 -5 0 -13 -9 -19 -21z"/>
</g>
</svg>
