<?xml version="1.0" standalone="no"?>
<!DOCTYPE svg PUBLIC "-//W3C//DTD SVG 20010904//EN"
 "http://www.w3.org/TR/2001/REC-SVG-20010904/DTD/svg10.dtd">
<svg version="1.0" xmlns="http://www.w3.org/2000/svg"
 width="256.000000pt" height="256.000000pt" viewBox="0 0 256.000000 256.000000"
 preserveAspectRatio="xMidYMid meet">
<metadata>
Created by potrace 1.16, written by Peter Selinger 2001-2019
</metadata>
<g transform="translate(0.000000,256.000000) scale(0.100000,-0.100000)"
fill="#f2f2f2" stroke="none">
<path d="M720 1857 l0 -232 280 -280 280 -280 280 280 280 280 0 232 c0 128
-3 233 -8 233 -4 0 -130 -123 -280 -273 l-272 -273 -272 273 c-150 150 -276
273 -280 273 -5 0 -8 -105 -8 -233z"/>
<path d="M260 1432 l0 -278 143 -142 144 -142 271 0 272 0 0 132 0 133 -227
227 -227 228 -1 57 0 58 -187 3 -188 2 0 -278z"/>
<path d="M1923 1695 c-3 -9 -3 -35 -1 -59 l5 -44 -228 -228 -229 -229 0 -132
0 -133 272 0 271 0 144 142 143 142 0 278 0 278 -185 0 c-158 0 -187 -2 -192
-15z"/>
<path d="M1113 633 l167 -168 167 168 168 167 -130 0 -129 0 -38 -37 -38 -37
-38 37 -38 37 -129 0 -130 0 168 -167z"/>
</g>
</svg>
