<?xml version="1.0" standalone="no"?>
<!DOCTYPE svg PUBLIC "-//W3C//DTD SVG 20010904//EN"
 "http://www.w3.org/TR/2001/REC-SVG-20010904/DTD/svg10.dtd">
<svg version="1.0" xmlns="http://www.w3.org/2000/svg"
 width="256.000000pt" height="256.000000pt" viewBox="0 0 256.000000 256.000000"
 preserveAspectRatio="xMidYMid meet">
<metadata>
Created by potrace 1.16, written by Peter Selinger 2001-2019
</metadata>
<g transform="translate(0.000000,256.000000) scale(0.100000,-0.100000)"
fill="#f2f2f2" stroke="none">
<path d="M1115 2111 c-33 -16 -114 -74 -180 -129 -146 -123 -211 -159 -383
-211 -168 -50 -211 -73 -239 -129 -58 -115 -31 -370 72 -687 58 -180 176 -402
282 -532 33 -41 73 -57 73 -30 0 7 -30 69 -66 138 -210 392 -257 585 -198 813
22 83 56 146 102 188 54 49 63 53 193 88 63 17 170 56 237 86 73 32 152 59
193 66 98 17 179 1 331 -66 67 -30 174 -69 237 -86 130 -35 139 -39 193 -88
46 -42 80 -105 102 -188 59 -228 12 -421 -198 -813 -36 -69 -66 -131 -66 -138
0 -27 40 -11 73 30 123 151 248 386 318 598 79 241 107 463 73 579 -30 101
-57 121 -240 174 -216 62 -235 72 -423 224 -57 46 -131 97 -165 113 -55 26
-72 29 -161 29 -90 0 -106 -3 -160 -29z"/>
<path d="M1185 1456 c-122 -53 -178 -200 -121 -322 78 -167 303 -178 400 -20
24 38 31 63 34 115 3 57 0 73 -25 121 -40 77 -112 120 -198 120 -33 -1 -73 -7
-90 -14z"/>
<path d="M865 1029 c-84 -24 -155 -129 -155 -229 1 -236 307 -317 426 -114 71
122 19 286 -108 339 -40 16 -115 18 -163 4z"/>
<path d="M1504 1016 c-149 -69 -178 -285 -52 -391 52 -44 94 -58 165 -53 74 5
129 38 178 107 26 37 30 53 33 119 3 72 1 80 -30 132 -62 102 -183 138 -294
86z"/>
</g>
</svg>
