<svg xmlns="http://www.w3.org/2000/svg" width="341.333" height="341.333" version="1.0" viewBox="0 0 256 256">
    <g fill="#e5e5e5">
        <path d="M111.5 44.9c-3.3 1.6-11.4 7.4-18 12.9-14.6 12.3-21.1 15.9-38.3 21.1-16.8 5-21.1 7.3-23.9 12.9-5.8 11.5-3.1 37 7.2 68.7 5.8 18 17.6 40.2 28.2 53.2 3.3 4.1 7.3 5.7 7.3 3 0-.7-3-6.9-6.6-13.8-21-39.2-25.7-58.5-19.8-81.3 2.2-8.3 5.6-14.6 10.2-18.8 5.4-4.9 6.3-5.3 19.3-8.8 6.3-1.7 17-5.6 23.7-8.6 7.3-3.2 15.2-5.9 19.3-6.6 9.8-1.7 17.9-.1 33.1 6.6 6.7 3 17.4 6.9 23.7 8.6 13 3.5 13.9 3.9 19.3 8.8 4.6 4.2 8 10.5 10.2 18.8 5.9 22.8 1.2 42.1-19.8 81.3-3.6 6.9-6.6 13.1-6.6 13.8 0 2.7 4 1.1 7.3-3 12.3-15.1 24.8-38.6 31.8-59.8 7.9-24.1 10.7-46.3 7.3-57.9-3-10.1-5.7-12.1-24-17.4-21.6-6.2-23.5-7.2-42.3-22.4-5.7-4.6-13.1-9.7-16.5-11.3-5.5-2.6-7.2-2.9-16.1-2.9-9 0-10.6.3-16 2.9"/>
        <path d="M118.5 110.4c-12.2 5.3-17.8 20-12.1 32.2 7.8 16.7 30.3 17.8 40 2 2.4-3.8 3.1-6.3 3.4-11.5.3-5.7 0-7.3-2.5-12.1-4-7.7-11.2-12-19.8-12-3.3.1-7.3.7-9 1.4m-32 42.7C78.1 155.5 71 166 71 176c.1 23.6 30.7 31.7 42.6 11.4 7.1-12.2 1.9-28.6-10.8-33.9-4-1.6-11.5-1.8-16.3-.4m63.9 1.3c-14.9 6.9-17.8 28.5-5.2 39.1 5.2 4.4 9.4 5.8 16.5 5.3 7.4-.5 12.9-3.8 17.8-10.7 2.6-3.7 3-5.3 3.3-11.9.3-7.2.1-8-3-13.2-6.2-10.2-18.3-13.8-29.4-8.6"/>
    </g>
</svg>
