<?xml version="1.0" standalone="no"?>
<!DOCTYPE svg PUBLIC "-//W3C//DTD SVG 20010904//EN"
 "http://www.w3.org/TR/2001/REC-SVG-20010904/DTD/svg10.dtd">
<svg version="1.0" xmlns="http://www.w3.org/2000/svg"
 width="256.000000pt" height="256.000000pt" viewBox="0 0 256.000000 256.000000"
 preserveAspectRatio="xMidYMid meet">
<metadata>
Created by potrace 1.16, written by Peter Selinger 2001-2019
</metadata>
<g transform="translate(0.000000,256.000000) scale(0.100000,-0.100000)"
fill="#f2f2f2" stroke="none">
<path d="M997 2252 l-287 -287 290 -290 290 -290 290 290 290 290 -287 287
c-159 159 -290 288 -293 288 -3 0 -134 -129 -293 -288z m546 -40 l247 -247
-250 -250 -250 -250 0 498 c0 273 1 497 3 497 1 0 113 -111 250 -248z"/>
<path d="M307 1562 l-287 -287 285 -285 285 -285 288 288 287 287 -285 285
-285 285 -288 -288z"/>
<path d="M1672 1567 l-282 -282 288 -288 287 -287 288 288 287 287 -283 283
c-155 155 -287 282 -292 282 -6 0 -137 -127 -293 -283z m546 -534 l-253 -253
-252 252 -253 253 252 252 253 253 252 -252 253 -253 -252 -252z"/>
<path d="M992 887 c-155 -155 -282 -287 -282 -292 0 -6 128 -138 285 -295
l285 -285 290 290 290 290 -287 287 c-159 159 -290 288 -293 288 -3 0 -132
-127 -288 -283z m540 -539 l-252 -253 0 505 0 505 252 -253 253 -252 -253
-252z"/>
</g>
</svg>
