<svg xmlns="http://www.w3.org/2000/svg" width="341.333" height="341.333" version="1.0" viewBox="0 0 256 256">
    <path fill="#e5e5e5" d="M99.7 30.8 71 59.5l29 29 29 29 29-29 29-29-28.7-28.7C142.4 14.9 129.3 2 129 2s-13.4 12.9-29.3 28.8m54.6 4L179 59.5l-25 25-25 25V59.7c0-27.3.1-49.7.3-49.7.1 0 11.3 11.1 25 24.8m-123.6 65L2 128.5 30.5 157 59 185.5l28.8-28.8 28.7-28.7L88 99.5 59.5 71zm136.5-.5L139 127.5l28.8 28.8 28.7 28.7 28.8-28.8 28.7-28.7-28.3-28.3C210.2 83.7 197 71 196.5 71c-.6 0-13.7 12.7-29.3 28.3m54.6 53.4L196.5 178l-25.2-25.2-25.3-25.3 25.2-25.2L196.5 77l25.2 25.2 25.3 25.3zM99.2 167.3C83.7 182.8 71 196 71 196.5c0 .6 12.8 13.8 28.5 29.5l28.5 28.5 29-29 29-29-28.7-28.7c-15.9-15.9-29-28.8-29.3-28.8s-13.2 12.7-28.8 28.3m54 53.9L128 246.5v-101l25.2 25.3 25.3 25.2z"/>
</svg>
