<?xml version="1.0" standalone="no"?>
<!DOCTYPE svg PUBLIC "-//W3C//DTD SVG 20010904//EN"
 "http://www.w3.org/TR/2001/REC-SVG-20010904/DTD/svg10.dtd">
<svg version="1.0" xmlns="http://www.w3.org/2000/svg"
 width="256.000000pt" height="256.000000pt" viewBox="0 0 256.000000 256.000000"
 preserveAspectRatio="xMidYMid meet">
<metadata>
Created by potrace 1.16, written by Peter Selinger 2001-2019
</metadata>
<g transform="translate(0.000000,256.000000) scale(0.100000,-0.100000)"
fill="#f2f2f2" stroke="none">
<path d="M1081 2424 c-237 -40 -450 -151 -627 -328 -400 -400 -458 -1003 -141
-1476 99 -147 280 -306 445 -389 263 -133 599 -156 882 -61 290 97 541 314
679 588 186 369 155 819 -82 1172 -99 147 -280 306 -445 389 -206 104 -477
144 -711 105z m349 -129 c220 -33 416 -133 574 -291 350 -349 403 -889 130
-1301 -315 -474 -955 -603 -1431 -287 -474 315 -603 955 -287 1431 222 334
618 509 1014 448z"/>
<path d="M1234 1830 c-94 -60 -77 -204 30 -245 119 -46 230 81 171 196 -34 65
-136 90 -201 49z"/>
<path d="M1899 1460 c-102 -45 -226 -78 -339 -90 -142 -16 -250 -2 -412 51
-102 34 -198 38 -272 13 -72 -25 -158 -110 -203 -200 -20 -41 -34 -76 -32 -78
2 -3 32 9 66 25 34 16 100 39 145 51 75 19 97 20 223 12 244 -15 429 -9 520
15 123 32 236 92 313 167 37 35 65 63 62 63 -3 0 -35 -14 -71 -29z"/>
<path d="M1070 1143 c-21 -11 -45 -36 -60 -63 -22 -40 -25 -57 -25 -150 0 -58
3 -120 7 -139 8 -31 7 -33 -15 -26 -44 14 -182 17 -226 5 -23 -6 -41 -13 -39
-15 2 -2 84 -30 182 -61 149 -47 182 -54 202 -45 35 16 44 50 37 138 -12 167
54 216 243 178 161 -32 324 -11 373 49 12 14 10 15 -19 4 -79 -27 -302 22
-459 101 -78 40 -153 49 -201 24z"/>
</g>
</svg>
