<svg xmlns="http://www.w3.org/2000/svg" width="341.333" height="341.333" version="1.0" viewBox="0 0 256 256">
    <g fill="#e5e5e5">
        <path d="M108.1 13.6c-23.7 4-45 15.1-62.7 32.8C5.4 86.4-.4 146.7 31.3 194c9.9 14.7 28 30.6 44.5 38.9 26.3 13.3 59.9 15.6 88.2 6.1 29-9.7 54.1-31.4 67.9-58.8 18.6-36.9 15.5-81.9-8.2-117.2-9.9-14.7-28-30.6-44.5-38.9-20.6-10.4-47.7-14.4-71.1-10.5M143 26.5c22 3.3 41.6 13.3 57.4 29.1 35 34.9 40.3 88.9 13 130.1-31.5 47.4-95.5 60.3-143.1 28.7C22.9 182.9 10 118.9 41.6 71.3 63.8 37.9 103.4 20.4 143 26.5"/>
        <path d="M123.4 73c-9.4 6-7.7 20.4 3 24.5 11.9 4.6 23-8.1 17.1-19.6-3.4-6.5-13.6-9-20.1-4.9m66.5 37c-10.2 4.5-22.6 7.8-33.9 9-14.2 1.6-25 .2-41.2-5.1-10.2-3.4-19.8-3.8-27.2-1.3-7.2 2.5-15.8 11-20.3 20-2 4.1-3.4 7.6-3.2 7.8.2.3 3.2-.9 6.6-2.5s10-3.9 14.5-5.1c7.5-1.9 9.7-2 22.3-1.2 24.4 1.5 42.9.9 52-1.5 12.3-3.2 23.6-9.2 31.3-16.7 3.7-3.5 6.5-6.3 6.2-6.3s-3.5 1.4-7.1 2.9M107 141.7c-2.1 1.1-4.5 3.6-6 6.3-2.2 4-2.5 5.7-2.5 15 0 5.8.3 12 .7 13.9.8 3.1.7 3.3-1.5 2.6-4.4-1.4-18.2-1.7-22.6-.5-2.3.6-4.1 1.3-3.9 1.5s8.4 3 18.2 6.1c14.9 4.7 18.2 5.4 20.2 4.5 3.5-1.6 4.4-5 3.7-13.8-1.2-16.7 5.4-21.6 24.3-17.8 16.1 3.2 32.4 1.1 37.3-4.9 1.2-1.4 1-1.5-1.9-.4-7.9 2.7-30.2-2.2-45.9-10.1-7.8-4-15.3-4.9-20.1-2.4"/>
    </g>
</svg>
