<?xml version="1.0" standalone="no"?>
<!DOCTYPE svg PUBLIC "-//W3C//DTD SVG 20010904//EN"
 "http://www.w3.org/TR/2001/REC-SVG-20010904/DTD/svg10.dtd">
<svg version="1.0" xmlns="http://www.w3.org/2000/svg"
 width="256.000000pt" height="256.000000pt" viewBox="0 0 256.000000 256.000000"
 preserveAspectRatio="xMidYMid meet">
<metadata>
Created by potrace 1.16, written by Peter Selinger 2001-2019
</metadata>
<g transform="translate(0.000000,256.000000) scale(0.100000,-0.100000)"
fill="#f2f2f2" stroke="none">
<path d="M860 2319 c-207 -38 -350 -56 -560 -70 -96 -6 -177 -13 -178 -14 -2
-2 9 -23 25 -47 98 -142 232 -393 348 -650 32 -71 63 -128 69 -127 18 0 262
128 246 128 -8 0 -41 -6 -73 -14 -44 -10 -59 -11 -63 -2 -30 81 -154 451 -151
453 6 7 127 -55 184 -94 98 -67 234 -227 259 -305 5 -16 12 0 25 60 23 107 37
135 108 213 l58 65 -117 -4 c-95 -2 -134 1 -201 18 -88 22 -184 63 -243 104
l-36 24 232 67 c129 36 236 66 239 66 3 0 18 -32 34 -71 15 -38 28 -69 30 -67
2 2 -6 69 -18 151 -18 137 -21 147 -41 146 -12 0 -91 -14 -176 -30z"/>
<path d="M1453 2203 c-12 -82 -20 -149 -18 -151 2 -2 15 29 30 67 16 39 31 71
34 71 3 0 110 -30 239 -66 l232 -67 -36 -24 c-59 -41 -155 -82 -243 -104 -67
-17 -106 -20 -201 -18 l-117 4 58 -65 c71 -78 85 -106 108 -213 13 -60 20 -76
25 -60 25 78 161 238 259 305 57 39 178 101 184 94 3 -2 -121 -372 -151 -453
-4 -9 -19 -8 -63 2 -32 8 -65 14 -73 14 -16 0 228 -128 246 -128 6 -1 37 56
69 127 116 257 250 508 348 650 16 24 27 45 25 47 -1 1 -84 8 -183 15 -214 14
-332 28 -559 69 -93 17 -174 31 -181 31 -8 0 -19 -49 -32 -147z"/>
<path d="M1261 2250 c-4 -170 -60 -468 -115 -609 -80 -202 -207 -336 -352
-370 -34 -8 -28 -9 46 -10 76 -1 91 -5 140 -33 l55 -31 -60 -29 c-39 -19 -49
-27 -30 -24 120 24 147 25 179 9 27 -14 29 -14 18 -1 -18 22 10 28 130 28 110
0 134 -5 117 -26 -15 -18 -5 -18 30 1 25 13 39 13 112 0 45 -8 85 -13 87 -10
3 3 1 5 -5 5 -6 0 -34 11 -63 23 l-53 24 55 31 c50 29 64 32 139 33 l84 1 -45
12 c-123 34 -220 122 -293 264 -90 175 -130 340 -166 687 -8 74 -8 76 -10 25z
m73 -635 c34 -101 94 -231 143 -308 l25 -40 -25 -25 -25 -25 -85 36 c-47 21
-92 37 -100 37 -8 0 -49 -16 -91 -35 -43 -19 -83 -35 -90 -35 -7 0 -22 10 -33
23 l-21 22 49 84 c88 153 149 327 172 494 l12 89 17 -107 c10 -59 33 -153 52
-210z"/>
<path d="M1225 1465 c-27 -26 -31 -46 -14 -76 37 -71 147 -19 119 56 -18 48
-68 58 -105 20z"/>
<path d="M1099 1077 c40 -59 78 -141 101 -212 25 -80 41 -297 22 -309 -9 -5
-302 300 -310 324 -2 5 12 26 30 47 66 75 61 74 -57 -8 -66 -45 -121 -84 -123
-85 -2 -1 52 -76 119 -166 140 -186 219 -305 308 -463 35 -60 64 -111 66 -113
2 -2 27 36 56 85 95 158 204 315 333 478 69 88 126 162 126 165 0 3 -33 28
-73 57 -39 28 -92 67 -117 85 -47 34 -46 31 12 -42 l36 -45 -164 -170 -163
-170 0 95 c-1 157 37 290 114 406 24 35 42 64 40 64 -2 0 -43 -9 -91 -21 -94
-22 -146 -19 -245 16 l-41 15 21 -33z"/>
</g>
</svg>
