<svg xmlns="http://www.w3.org/2000/svg" width="341.333" height="341.333" version="1.0" viewBox="0 0 256 256">
    <path fill="#e5e5e5" d="M0 61.9c0 1.7 10.3 29.6 15 40.5 6.9 16.3 11.9 24.4 20 32.7 11.8 12 25.8 20.5 43.4 26.5l6.8 2.4 2.7-2.9 2.7-2.9 2.8 5.5c8.8 16.8 24.9 31.3 34.6 31.3s25.8-14.5 34.6-31.3l2.8-5.5 2.7 2.9 2.7 2.9 6.8-2.4c24.6-8.4 45.4-24.2 55.1-41.7 6.1-11.2 20.3-46.2 22.9-56.5l.7-2.9-3.6 3.2c-7.9 7-12.7 8.2-36.2 9.2-18.1.8-18.6.9-25.1 4.1-3.9 1.9-9 5.6-12.3 8.9-8.8 8.8-12.6 15.9-17.7 33-.4 1.1-1.1.8-3.2-1.2-7.4-7.1-24.2-11-38.3-8.9-9 1.3-17.9 4.9-22.1 8.9-2.1 2-2.8 2.3-3.2 1.2-5.1-17.1-8.9-24.2-17.7-33-3.3-3.3-8.4-7-12.3-8.9-6.5-3.2-7-3.3-25.1-4.1-23.4-1-28.3-2.3-36-9-1.9-1.7-3.5-2.6-3.5-2m38.8 29.6c19.7 2.6 20.4 2.9 29.5 14.1 7.8 9.6 9.2 13.3 9.2 24.6 0 12.4-.4 12.8-8.7 9.9-14.1-5.1-27.3-15.2-32.1-24.7-2-4-5.6-14.6-9.3-27.7-.5-1.5 0-1.3 3.1.7 2 1.4 5.7 2.8 8.3 3.1m186.6 7c-2 6.6-4.7 14.1-6.1 16.9-4.8 9.5-18 19.6-32.1 24.7-8.3 2.9-8.7 2.5-8.7-9.9 0-11.3 1.4-15 9.2-24.6 8.4-10.3 10.6-11.6 22.8-13.2 10.1-1.3 15.6-3.1 17-5.5 1.9-2.9 1.2.9-2.1 11.6"/>
</svg>
