<?xml version="1.0" standalone="no"?>
<!DOCTYPE svg PUBLIC "-//W3C//DTD SVG 20010904//EN"
 "http://www.w3.org/TR/2001/REC-SVG-20010904/DTD/svg10.dtd">
<svg version="1.0" xmlns="http://www.w3.org/2000/svg"
 width="256.000000pt" height="256.000000pt" viewBox="0 0 256.000000 256.000000"
 preserveAspectRatio="xMidYMid meet">
<metadata>
Created by potrace 1.16, written by Peter Selinger 2001-2019
</metadata>
<g transform="translate(0.000000,256.000000) scale(0.100000,-0.100000)"
fill="#f2f2f2" stroke="none">
<path d="M0 1941 c0 -17 103 -296 150 -405 69 -163 119 -244 200 -327 118
-120 258 -205 434 -265 l68 -24 27 29 27 29 28 -55 c88 -168 249 -313 346
-313 97 0 258 145 346 313 l28 55 27 -29 27 -29 68 24 c246 84 454 242 551
417 61 112 203 462 229 565 l7 29 -36 -32 c-79 -70 -127 -82 -362 -92 -181 -8
-186 -9 -251 -41 -39 -19 -90 -56 -123 -89 -88 -88 -126 -159 -177 -330 -4
-11 -11 -8 -32 12 -74 71 -242 110 -383 89 -90 -13 -179 -49 -221 -89 -21 -20
-28 -23 -32 -12 -51 171 -89 242 -177 330 -33 33 -84 70 -123 89 -65 32 -70
33 -251 41 -234 10 -283 23 -360 90 -19 17 -35 26 -35 20z m388 -296 c197 -26
204 -29 295 -141 78 -96 92 -133 92 -246 0 -124 -4 -128 -87 -99 -141 51 -273
152 -321 247 -20 40 -56 146 -93 277 -5 15 0 13 31 -7 20 -14 57 -28 83 -31z
m1866 -70 c-20 -66 -47 -141 -61 -169 -48 -95 -180 -196 -321 -247 -83 -29
-87 -25 -87 99 0 113 14 150 92 246 84 103 106 116 228 132 101 13 156 31 170
55 19 29 12 -9 -21 -116z"/>
</g>
</svg>
