<?xml version="1.0" standalone="no"?>
<!DOCTYPE svg PUBLIC "-//W3C//DTD SVG 20010904//EN"
 "http://www.w3.org/TR/2001/REC-SVG-20010904/DTD/svg10.dtd">
<svg version="1.0" xmlns="http://www.w3.org/2000/svg"
 width="256.000000pt" height="256.000000pt" viewBox="0 0 256.000000 256.000000"
 preserveAspectRatio="xMidYMid meet">
<metadata>
Created by potrace 1.16, written by Peter Selinger 2001-2019
</metadata>
<g transform="translate(0.000000,256.000000) scale(0.100000,-0.100000)"
fill="#f2f2f2" stroke="none">
<path d="M1180 2412 c0 -15 -16 -22 -76 -36 -242 -57 -444 -247 -520 -488
l-18 -58 -98 0 -98 0 0 -145 0 -145 94 0 c82 0 95 -2 100 -17 3 -10 10 -38 16
-63 41 -158 182 -334 336 -422 l54 -30 0 -356 1 -357 90 -100 c77 -84 97 -100
125 -103 l34 -3 0 425 0 426 50 0 50 0 0 -425 0 -425 33 0 c30 0 44 12 130
107 l97 108 0 352 0 351 53 30 c155 87 296 264 337 422 6 25 13 53 16 63 5 15
18 17 100 17 l94 0 0 145 0 145 -98 0 -98 0 -18 58 c-77 244 -281 434 -526
489 -63 14 -80 22 -80 35 0 16 -11 18 -90 18 -80 0 -90 -2 -90 -18z m263 -332
c70 -26 148 -88 199 -155 133 -176 111 -434 -50 -594 l-56 -56 -8 45 c-7 38
-5 49 12 70 82 100 104 160 104 270 -1 106 -31 179 -103 250 -93 93 -206 132
-324 111 -84 -15 -143 -46 -208 -111 -132 -131 -142 -348 -24 -488 22 -26 26
-39 23 -84 l-3 -53 -52 52 c-237 237 -143 639 176 750 87 31 226 28 314 -7z
m-713 -390 l0 -50 -125 0 -125 0 0 50 0 50 125 0 125 0 0 -50z m1340 0 l0 -50
-125 0 -125 0 0 50 0 50 125 0 125 0 0 -50z m-732 -447 l-3 -38 -60 0 -60 0
-3 38 -3 37 66 0 66 0 -3 -37z"/>
</g>
</svg>
