<svg xmlns="http://www.w3.org/2000/svg" width="341.333" height="341.333" version="1.0" viewBox="0 0 256 256">
    <path fill="#e5e5e5" d="M46 27c-1.8 5.8-4.9 16.6-6.8 24-3.2 12.2-3.6 14.8-3.6 27 0 12.6.2 14.1 3.3 23 3.4 10 7.7 18.5 13.2 26l3.4 4.5-.3 12c-.4 14.2 1 20.5 6.9 31.4 9.2 17 26.3 34 49.9 49.4 5.4 3.5 9.9 7.4 12.4 10.6 2.1 2.8 3.9 5.1 4.1 5.1s2-2.3 4.1-5.1c2.5-3.2 7-7.1 12.4-10.6 23.6-15.4 40.7-32.4 49.9-49.4 5.9-10.9 7.3-17.2 6.9-31.4l-.3-12 3.4-4.5c5.5-7.5 9.8-16 13.2-26 3.1-8.9 3.3-10.4 3.3-23 0-12.2-.4-14.8-3.6-27-1.9-7.4-5-18.2-6.8-24l-3.3-10.5-.8 4.2c-1.6 8.9-5.3 13.5-18.9 23.7-13.1 9.9-16.6 14.3-19.1 24-.7 2.8-1.6 4.5-2.3 4.2-15.9-6.7-24.1-8.6-38.1-8.6s-22.2 1.9-38.1 8.6c-.7.3-1.6-1.4-2.3-4.2-2.5-9.7-6-14.1-19.1-24-13.6-10.2-17.3-14.8-18.9-23.7l-.8-4.2zm18.3 34.8c7.6 5.9 9.1 8.3 10.6 16.7 2.3 12.2 1.7 15-5.1 25.5l-6.1 9.4-2.4-2.9C53 100.2 47.8 87.9 47.8 78c-.1-6.4.5-9.1 4.4-22.4l2-6.9 1.8 3.9c1.1 2.4 4.2 5.9 8.3 9.2m142.2-.3c3.4 12.2 3.5 20.6.6 28.8-2.1 6-7.2 14.9-11.4 20.2l-2.4 2.9-6.1-9.4c-6.8-10.5-7.4-13.3-5.1-25.5 1.5-8.4 3-10.7 10.9-17 4.5-3.7 7.4-6.9 8.2-9.1 1.5-4.2 1.9-3.7 5.3 9.1"/>
</svg>
