<?xml version="1.0" standalone="no"?>
<!DOCTYPE svg PUBLIC "-//W3C//DTD SVG 20010904//EN"
 "http://www.w3.org/TR/2001/REC-SVG-20010904/DTD/svg10.dtd">
<svg version="1.0" xmlns="http://www.w3.org/2000/svg"
 width="256.000000pt" height="256.000000pt" viewBox="0 0 256.000000 256.000000"
 preserveAspectRatio="xMidYMid meet">
<metadata>
Created by potrace 1.16, written by Peter Selinger 2001-2019
</metadata>
<g transform="translate(0.000000,256.000000) scale(0.100000,-0.100000)"
fill="#f2f2f2" stroke="none">
<path d="M460 2290 c-18 -58 -49 -166 -68 -240 -32 -122 -36 -148 -36 -270 0
-126 2 -141 33 -230 34 -100 77 -185 132 -260 l34 -45 -3 -120 c-4 -142 10
-205 69 -314 92 -170 263 -340 499 -494 54 -35 99 -74 124 -106 21 -28 39 -51
41 -51 2 0 20 23 41 51 25 32 70 71 124 106 236 154 407 324 499 494 59 109
73 172 69 314 l-3 120 34 45 c55 75 98 160 132 260 31 89 33 104 33 230 0 122
-4 148 -36 270 -19 74 -50 182 -68 240 l-33 105 -8 -42 c-16 -89 -53 -135
-189 -237 -131 -99 -166 -143 -191 -240 -7 -28 -16 -45 -23 -42 -159 67 -241
86 -381 86 -140 0 -222 -19 -381 -86 -7 -3 -16 14 -23 42 -25 97 -60 141 -191
240 -136 102 -173 148 -189 237 l-8 42 -33 -105z m183 -348 c76 -59 91 -83
106 -167 23 -122 17 -150 -51 -255 l-61 -94 -24 29 c-83 103 -135 226 -135
325 -1 64 5 91 44 224 l20 69 18 -39 c11 -24 42 -59 83 -92z m1422 3 c34 -122
35 -206 6 -288 -21 -60 -72 -149 -114 -202 l-24 -29 -61 94 c-68 105 -74 133
-51 255 15 84 30 107 109 170 45 37 74 69 82 91 15 42 19 37 53 -91z"/>
</g>
</svg>
