<?xml version="1.0" standalone="no"?>
<!DOCTYPE svg PUBLIC "-//W3C//DTD SVG 20010904//EN"
 "http://www.w3.org/TR/2001/REC-SVG-20010904/DTD/svg10.dtd">
<svg version="1.0" xmlns="http://www.w3.org/2000/svg"
 width="256.000000pt" height="256.000000pt" viewBox="0 0 256.000000 256.000000"
 preserveAspectRatio="xMidYMid meet">
<metadata>
Created by potrace 1.16, written by Peter Selinger 2001-2019
</metadata>
<g transform="translate(0.000000,256.000000) scale(0.100000,-0.100000)"
fill="#f2f2f2" stroke="none">
<path d="M1246 2327 c-28 -36 -76 -139 -76 -162 0 -8 13 -35 30 -61 16 -26 34
-62 41 -81 8 -25 16 -33 35 -33 20 0 29 9 44 44 10 24 30 62 44 85 l26 41 -25
62 c-28 70 -70 138 -85 138 -5 0 -20 -15 -34 -33z"/>
<path d="M905 2290 c8 -16 15 -54 15 -84 0 -52 2 -55 36 -76 60 -35 122 -90
160 -141 l35 -48 35 21 c40 23 39 26 -9 106 -41 69 -148 181 -211 221 -65 41
-82 41 -61 1z"/>
<path d="M1583 2284 c-73 -49 -183 -170 -221 -241 l-31 -59 35 -20 35 -20 68
65 c37 37 91 82 119 101 50 34 52 36 46 72 -5 33 2 74 21 121 11 27 -14 20
-72 -19z"/>
<path d="M648 2198 c0 -13 -2 -50 -3 -83 -2 -39 -14 -89 -34 -142 -41 -106
-52 -177 -40 -255 11 -74 56 -172 96 -210 l28 -27 -3 66 c-5 80 7 129 58 243
44 97 48 124 24 187 -16 41 -16 44 2 64 16 18 27 20 70 16 29 -3 85 -20 125
-37 41 -17 81 -34 89 -37 28 -11 -45 59 -102 98 -61 42 -265 139 -292 139 -9
0 -17 -9 -18 -22z"/>
<path d="M1808 2186 c-95 -42 -157 -77 -228 -132 -89 -67 -92 -78 -14 -45 38
16 95 37 127 46 54 16 60 16 83 0 22 -14 25 -22 19 -48 -24 -114 -20 -147 44
-330 19 -54 31 -108 31 -140 l0 -50 24 22 c36 34 82 128 96 196 16 76 7 147
-30 243 -37 97 -51 170 -43 227 7 57 -2 58 -109 11z"/>
<path d="M837 1968 c20 -58 13 -101 -36 -207 -23 -50 -46 -114 -51 -143 -21
-138 45 -285 167 -369 38 -27 58 -29 34 -3 -5 5 -21 44 -35 86 -60 179 -12
355 140 518 l45 48 -44 26 c-46 28 -197 86 -221 86 -11 0 -11 -7 1 -42z"/>
<path d="M1645 1986 c-33 -13 -88 -37 -122 -55 l-63 -31 67 -82 c146 -181 175
-339 98 -529 -13 -32 -21 -59 -18 -59 16 0 106 65 133 96 88 101 98 203 37
364 -20 52 -41 116 -48 143 -11 47 -9 125 6 160 10 24 -15 22 -90 -7z"/>
<path d="M1235 1897 c-48 -24 -134 -111 -181 -181 -99 -149 -105 -298 -19
-451 43 -77 53 -86 157 -135 l87 -41 95 46 c87 41 97 49 130 102 125 199 95
394 -88 578 -97 98 -125 111 -181 82z"/>
<path d="M425 1520 c-331 -75 -437 -240 -263 -407 64 -61 138 -105 155 -92 7
6 19 9 28 6 9 -4 22 5 34 22 l20 28 -41 23 c-23 13 -59 39 -80 58 -105 95 -88
190 45 255 53 25 215 77 243 77 18 0 18 14 -1 30 -8 7 -15 9 -15 4 0 -4 -5 -3
-12 4 -15 15 -14 15 -113 -8z"/>
<path d="M2005 1530 c-3 -5 -10 -8 -15 -5 -8 5 -36 -23 -29 -28 2 -2 44 -13
93 -26 175 -43 281 -114 281 -190 0 -54 -38 -104 -121 -160 l-71 -48 24 -27
c13 -15 28 -24 33 -21 6 4 17 2 25 -5 10 -9 23 -5 57 16 141 89 201 181 176
270 -28 104 -171 183 -415 229 -18 4 -34 2 -38 -5z"/>
<path d="M765 1122 c-108 -37 -192 -106 -248 -203 -14 -24 -39 -91 -56 -148
-17 -58 -38 -115 -46 -127 -8 -12 -84 -59 -170 -104 -87 -46 -155 -87 -155
-95 0 -29 37 -37 94 -19 50 16 57 16 101 0 73 -24 143 -21 201 10 183 97 252
174 336 373 48 112 60 131 120 192 75 76 79 66 -41 114 -76 29 -72 29 -136 7z"/>
<path d="M1685 1116 c-33 -11 -71 -29 -86 -38 l-25 -18 61 -62 c50 -52 70 -84
115 -183 91 -203 135 -257 277 -342 112 -67 161 -76 254 -48 57 18 62 18 115
1 53 -17 57 -17 75 0 10 9 19 21 19 25 0 5 -66 42 -147 83 -82 41 -158 85
-171 99 -14 15 -36 69 -56 134 -38 128 -68 184 -136 252 -50 50 -151 106 -205
114 -16 2 -57 -5 -90 -17z"/>
<path d="M1058 943 c-22 -4 -31 -17 -62 -88 -39 -90 -40 -127 -6 -145 10 -5
28 -34 41 -65 20 -49 26 -55 51 -55 27 0 78 -38 78 -58 0 -17 113 -30 168 -20
43 9 56 16 68 39 13 26 26 33 78 41 12 2 25 21 38 52 10 28 30 60 44 72 13 13
24 32 24 44 0 36 -71 180 -89 180 -9 0 -26 3 -38 6 -22 6 -23 4 -23 -57 -1
-129 -26 -176 -111 -204 -45 -15 -53 -15 -98 0 -82 27 -111 79 -111 203 0 44
-4 62 -12 61 -7 -1 -25 -4 -40 -6z"/>
<path d="M915 688 c-6 -24 9 -117 22 -141 7 -12 32 25 32 48 0 11 -11 43 -23
70 -23 49 -24 49 -31 23z"/>
<path d="M1590 650 c-22 -58 -22 -61 -4 -87 l18 -28 13 50 c15 58 17 111 4
119 -5 3 -19 -21 -31 -54z"/>
<path d="M1011 503 c-43 -35 -56 -196 -22 -268 l19 -40 1 32 c1 17 6 35 11 38
6 3 10 17 10 30 0 30 36 101 55 109 8 3 17 21 21 41 12 63 -46 98 -95 58z"/>
<path d="M1480 498 c-11 -12 -20 -26 -20 -30 0 -16 30 -68 40 -68 5 0 12 -10
16 -22 4 -13 11 -26 15 -29 5 -3 11 -18 13 -35 3 -16 11 -46 19 -67 l14 -39
11 29 c19 50 24 92 17 159 -12 106 -74 157 -125 102z"/>
<path d="M1143 398 c-14 -16 -13 -18 13 -28 38 -15 184 -15 228 0 33 10 34 12
18 28 -25 25 -236 25 -259 0z"/>
</g>
</svg>
