<?xml version="1.0" standalone="no"?>
<!DOCTYPE svg PUBLIC "-//W3C//DTD SVG 20010904//EN"
 "http://www.w3.org/TR/2001/REC-SVG-20010904/DTD/svg10.dtd">
<svg version="1.0" xmlns="http://www.w3.org/2000/svg"
 width="256.000000pt" height="256.000000pt" viewBox="0 0 256.000000 256.000000"
 preserveAspectRatio="xMidYMid meet">
<metadata>
Created by potrace 1.16, written by Peter Selinger 2001-2019
</metadata>
<g transform="translate(0.000000,256.000000) scale(0.100000,-0.100000)"
fill="#f2f2f2" stroke="none">
<path d="M1173 2440 c-80 -22 -368 -214 -469 -312 -85 -83 -94 -107 -94 -244
0 -138 7 -157 92 -240 101 -99 393 -295 472 -317 33 -9 61 -15 63 -14 1 2 -3
92 -9 200 -8 145 -15 197 -24 197 -17 0 -184 97 -208 120 -23 22 -26 81 -6
105 7 9 43 32 79 52 36 20 78 45 93 55 14 10 32 18 40 18 12 0 17 39 26 197 6
108 11 198 9 199 -1 1 -30 -6 -64 -16z"/>
<path d="M1313 2377 c4 -45 10 -134 13 -197 l7 -115 57 -28 c31 -16 84 -46
118 -67 61 -39 62 -41 62 -83 0 -29 -6 -49 -17 -59 -28 -23 -193 -118 -207
-118 -9 0 -16 -53 -25 -196 -6 -108 -10 -198 -8 -200 2 -2 30 4 63 13 45 13
103 48 249 149 211 147 287 217 304 279 14 52 14 209 0 259 -17 62 -90 128
-298 274 -158 111 -205 139 -258 153 l-66 18 6 -82z"/>
<path d="M1655 1360 c-107 -107 -142 -136 -208 -170 -43 -22 -84 -40 -91 -40
-17 0 -18 -13 -53 -434 -19 -235 -30 -328 -35 -300 -3 21 -18 185 -33 364 -29
364 -30 370 -50 370 -8 0 -49 18 -92 40 -63 33 -102 65 -206 168 -105 104
-126 121 -114 92 55 -136 491 -1147 496 -1152 4 -5 122 261 263 589 142 329
256 598 255 600 -2 1 -61 -56 -132 -127z"/>
<path d="M238 1279 c-26 -14 -22 -29 13 -59 20 -16 32 -35 32 -51 0 -24 11
-30 128 -78 71 -29 138 -60 149 -70 16 -14 45 -119 35 -129 -2 -2 -15 19 -30
47 -25 45 -33 52 -97 75 -38 14 -73 26 -79 26 -23 0 -5 -19 41 -44 29 -16 57
-40 66 -57 l15 -30 -37 7 c-21 4 -74 24 -118 44 -101 47 -139 56 -155 36 -10
-12 -7 -17 18 -30 16 -9 34 -22 38 -29 4 -7 55 -23 113 -35 88 -18 109 -27
127 -49 27 -34 21 -44 -10 -15 -14 13 -41 23 -77 26 l-55 6 40 -15 c49 -19 81
-49 107 -98 16 -33 17 -44 8 -73 -11 -31 -10 -38 9 -58 15 -16 23 -44 31 -111
5 -50 10 -97 10 -106 0 -11 12 -18 38 -23 22 -3 55 -17 76 -31 46 -31 46 -31
46 1 0 19 -15 41 -56 79 l-57 52 8 49 c3 27 15 87 26 133 30 130 40 216 32
293 -7 82 -24 105 -93 128 -24 8 -80 47 -136 95 -107 93 -164 119 -206 94z"/>
<path d="M2223 1278 c-18 -6 -75 -48 -127 -93 -56 -48 -112 -87 -136 -95 -69
-23 -86 -46 -93 -128 -8 -77 2 -163 32 -293 11 -46 23 -106 26 -133 l8 -49
-57 -52 c-41 -38 -56 -60 -56 -79 0 -32 0 -32 46 -1 21 14 54 28 76 31 26 5
38 12 38 23 0 9 5 56 10 106 8 67 16 95 31 111 19 20 20 27 9 58 -9 29 -8 40
8 73 26 49 58 79 107 98 l40 15 -55 -6 c-36 -3 -63 -13 -77 -26 -31 -29 -37
-19 -10 15 18 22 39 31 127 49 58 12 109 28 113 35 4 7 22 20 38 29 25 13 28
18 18 30 -16 20 -54 11 -155 -36 -44 -20 -97 -40 -118 -44 l-37 -7 15 30 c9
17 37 41 66 57 46 25 64 44 41 44 -6 0 -41 -12 -79 -26 -64 -23 -72 -30 -97
-75 -15 -28 -28 -49 -30 -47 -10 10 19 115 35 129 11 10 78 41 149 70 117 48
129 54 129 78 0 16 11 35 31 51 36 31 39 45 12 60 -23 12 -35 12 -78 -2z"/>
<path d="M388 798 c-55 -85 -71 -145 -43 -168 8 -7 29 -39 46 -71 26 -48 38
-61 67 -69 41 -11 58 -4 41 16 -6 7 -9 20 -6 27 3 7 -18 29 -49 51 -51 37 -54
42 -54 82 0 54 16 65 23 18 6 -36 31 -74 49 -74 5 0 1 11 -8 25 -14 22 -15 31
-4 68 13 47 15 79 6 104 -6 14 -8 14 -21 -3 -13 -17 -14 -17 -15 -1 0 24 -15
21 -32 -5z"/>
<path d="M2084 807 c-9 -25 -7 -57 6 -104 11 -37 10 -46 -4 -68 -9 -14 -13
-25 -8 -25 18 0 43 38 49 74 7 47 23 36 23 -18 0 -40 -3 -45 -54 -82 -31 -22
-52 -44 -49 -51 3 -7 0 -20 -6 -27 -17 -20 0 -27 41 -16 29 8 41 21 67 69 17
32 38 64 46 71 24 20 18 60 -18 124 -35 62 -57 81 -57 49 -1 -17 -1 -17 -15 1
-13 17 -15 17 -21 3z"/>
<path d="M784 669 c-15 -17 -20 -40 -23 -111 -3 -81 0 -98 29 -176 44 -116
105 -218 149 -248 49 -33 67 -31 41 5 -14 18 -25 53 -30 97 -7 60 -13 73 -39
95 -36 29 -37 35 -15 56 11 12 14 26 9 52 -3 20 -6 70 -5 111 0 59 -4 82 -20
108 -24 39 -66 44 -96 11z"/>
<path d="M1674 669 c-15 -16 -19 -37 -21 -93 0 -39 -4 -93 -8 -121 -5 -37 -3
-55 9 -70 14 -18 12 -22 -15 -51 -25 -26 -32 -44 -39 -99 -5 -43 -16 -79 -30
-96 -26 -36 -8 -38 40 -5 41 28 98 120 142 231 41 102 50 229 21 285 -23 44
-68 53 -99 19z"/>
</g>
</svg>
