<svg xmlns="http://www.w3.org/2000/svg" width="341.333" height="341.333" version="1.0" viewBox="0 0 256 256">
    <g fill="#e5e5e5">
        <path d="M91.8 27.7c-.9 1-2.3 3.5-3.2 5.6s-4.9 7.5-9 12C71 54.9 66.2 62.2 62.5 71.1c-4 9.9-4.1 12.8-.5 26.8 4.3 17 6.3 20.4 12.8 21.7 3.2.6 4.4-.7 2-2.2-1-.7 6.1-4.2 8.8-4.3 1.9-.1 10.4 8 10.4 9.9 0 1.7-.2 1.7-3.8-.3-3.9-2.1-3.9-2.1-6-.1-2 1.9-2 2.2-.6 4.9.8 1.7 3.9 5.5 6.9 8.5 6.2 6.3 8.5 11 8.5 17.4 0 4.8 1.6 6.6 6 6.6 1.3 0 2.8 1.2 4 3.3 2.2 3.6 5.6 5.7 9.5 5.7h2.5v-19c0-13.7-.3-19-1.2-19-.6 0-3.6-1.9-6.5-4.2-4.8-3.6-5.4-4.5-4.9-6.9.7-3.9-1.1-9.5-4.4-13.2-2.8-3.2-2.9-3.7-3.2-15.6-.3-11.3-.1-12.4 1.7-13.7 1.1-.9 3-1.3 4.3-1 1.2.3 3.4.9 4.8 1.2 1.6.4 3.8 0 6-1.2l3.4-1.9V38h-3.9c-2.7 0-4.6-.7-6.6-2.6-2.4-2.2-3.5-2.5-7.2-2.1-4.7.5-4.8.5-3.2-2.4.7-1.5.7-2.4-.2-3.5-1.6-2-8.2-1.8-10.1.3m62.3-.3c-.9 1.1-.9 2-.2 3.5 1.6 2.9 1.5 3-2.9 2.4-3.2-.5-4.5-.1-7 2.1-2.2 1.8-4.3 2.6-7.1 2.6H133v18.5c0 15 .3 18.5 1.4 18.5.7 0 1.9.7 2.7 1.6 1.3 1.6 3.5 1.5 10.1-.1 1.9-.5 3.1-.2 4.6 1.3 1.9 1.9 2 2.9 1.5 13.9-.6 11.5-.7 11.9-4 16.2-2.8 3.7-3.3 5.2-3.3 9.6 0 5-.2 5.3-4.9 9.3-2.7 2.3-5.7 4.2-6.5 4.2-1.4 0-1.6 2.4-1.6 19v19h2.5c3.8 0 8.2-2.6 9.7-5.7.9-2 2.2-2.9 4.3-3.1 4.3-.5 5.5-1.9 5.5-6.2 0-6.5 2.7-12.1 8.9-18.5 7.9-8.1 8.9-10.1 6.3-12.8l-2-2-4.1 2.1c-4 2.1-4.1 2.1-4.1.3 0-2 8.6-10.1 10.6-10.1 2.3 0 9.6 3.8 8.5 4.4-1.8 1.1-1.3 2.6.9 2.6 4.1 0 7.7-2.8 9.8-7.7 2.7-6.3 7.2-24.2 7.2-28.7 0-9.2-8.9-25.7-20.8-38.8-4.4-4.9-8.3-10-8.7-11.5-1.1-4.5-4.4-7.3-8.6-7.3-2 0-4.2.6-4.8 1.4M8.7 118.2c.3 7.2 0 14.1-.8 18.8-2.3 13.5-1.8 19.5 2.3 28 5.4 11.1 15.1 20.1 27.1 25.4 8.2 3.7 10.8 4.2 6.2 1.2-4-2.5-4.2-3.6-.3-1.5 1.1.6 2.2.9 2.4.6.3-.2-3-2.6-7.3-5.3-10.3-6.3-12.8-8.4-19.2-16.3-7.9-9.8-9.5-13.9-8.7-22.5 2.8-29.3 2.5-39.6-.9-39.6-1.1 0-1.2 2.3-.8 11.2m235.5-8.2c-1 2.8-.5 16.8 1.4 36.6.8 8.6-.8 12.7-8.7 22.5-6.4 7.9-8.9 10-19.2 16.3-4.3 2.7-7.6 5.1-7.3 5.3.2.3 1.3 0 2.4-.6 3.9-2.1 3.7-1-.3 1.5-4.6 3-2 2.5 6.2-1.2 21.3-9.3 35.7-32.6 29.8-48-1.5-4-1.7-7-1.3-20 .4-11.8.2-15.4-.8-15.4-.6 0-1.7 1.3-2.2 3"/>
        <path d="M18 115.5c0 1.1-.5 9.7-1.1 19.1-1.2 18-1 20.8 1.8 24.3 1.7 2.1 1.8 1.3 1.7-20.4-.1-15.2-.5-23-1.3-23.8s-1.1-.6-1.1.8m218.4-.1c-.4.9-.7 11.5-.8 23.6-.1 22.3.3 24.4 3.4 16.9 1.1-2.5 1.1-6.8.1-22.2-.7-10.6-1.5-19.4-1.7-19.6s-.6.4-1 1.3M26.3 145c.4 21.9.9 24.4 7.2 29.8 2 1.8 6.7 4.7 10.4 6.4 3.6 1.7 9.1 4.4 12.2 5.9 8.8 4.5 29.9 12.1 31.5 11.5 2.7-1 .6-2.3-12.8-7.6-17.9-7.1-30.6-13.4-34.6-17.3-7-6.7-8.3-10.3-10.2-28.1-2.6-24.4-4.1-24.7-3.7-.6m202-16.1c-.7 1.8-1.5 9-1.9 16-.5 11.1-.9 13.3-3.4 18.6-1.6 3.3-4.6 7.7-6.7 9.7-4.4 4.3-16.5 10.4-35.1 17.8-13.4 5.3-15.5 6.6-12.8 7.6 1.6.6 22.7-7 31.5-11.5 3.1-1.5 8.6-4.2 12.2-5.9 8.1-3.7 13.7-8.4 15.7-13.2 1.1-2.5 1.7-8.2 2-20 .2-9.1.2-17.9 0-19.5l-.3-3z"/>
        <path d="M35 149.9c0 2.2.4 5 .9 6.3 1.1 3 7.3 7.2 14.7 9.9 6.1 2.3 8.4 2 3.6-.5-1.7-.9-3.3-2-3.6-2.5-.9-1.5 26.5 9.7 31.7 12.9 2.7 1.7 5 3 5.1 3 .2 0 .6-1.2.9-2.8.3-1.5.8-3.4 1.2-4.3 1-2.7-8.4-7.8-25-13.5-8.4-2.9-18.2-6.8-21.6-8.6-3.5-1.8-6.7-3.4-7.1-3.6-.5-.2-.8 1.4-.8 3.7m178.5-.3c-3.3 1.8-12.9 5.6-21.3 8.5-16.7 5.7-26.7 11.1-25.7 13.8.4.9.9 2.8 1.2 4.3.3 1.6.7 2.8.9 2.8.1 0 2.4-1.3 5.1-3 5.2-3.2 32.6-14.4 31.7-12.9-.3.5-1.9 1.6-3.6 2.5-4.8 2.5-2.5 2.8 3.6.5 7.4-2.7 13.6-6.9 14.7-9.9 1.1-2.8 1.2-10.2.2-10.1-.5.1-3.5 1.6-6.8 3.5M96.2 173.8c-2.7 2.7-3.6 7.7-2.7 15.6.5 5.2 1.2 7 3.4 9.4 1.6 1.6 3.6 5.2 4.5 7.9 1.6 4.7 1.9 5.1 5.6 5.7 3.2.5 4.5 1.4 6.5 4.5 2.3 3.4 3.4 4 8.5 5.1 9 1.9 17.2 0 20.1-4.6 2.4-3.9 4.7-5.4 8.3-5.4 2.1 0 2.7-.8 4.1-5.1 1-2.9 3-6.5 4.5-8.1 2.3-2.4 2.9-4.2 3.5-9.7 1.4-14-4.7-22.1-9.6-12.9-.7 1.3-.7 2.3-.1 3.1 1.7 2 2.3 8 1.3 12.7-.9 4.5-.9 4.5-1.1 1-.2-2.8-.5-2.2-1.4 3.1-1.8 9.9-3.9 12.8-12.1 16.8-9.3 4.6-13.7 4.6-23 0-8.2-4-10.4-7-12.1-16.9-1-5.2-1.3-5.8-1.4-3-.2 3.5-.2 3.5-1.1-1-1-4.8-.4-10.7 1.4-12.8.8-1 .3-2.1-2-4.4l-3.1-3z"/>
        <path d="M108.4 184.6c.3.9.6 2.5.6 3.6 0 1.4.5 1.8 1.5 1.4.9-.3 2.4.3 3.5 1.4s2.6 1.7 3.3 1.4c.8-.3 2.3.3 3.2 1.3 1.3 1.3 2 1.4 2.3.5.5-1.6 9.9-1.6 10.4 0 .3.9 1 .8 2.3-.5.9-1 2.4-1.6 3.2-1.3.7.3 2.2-.3 3.3-1.4s2.6-1.7 3.5-1.4c1 .4 1.5 0 1.5-1.4 0-1.1.3-2.7.6-3.6 1-2.5-1.4-1.9-5.8 1.6-3.9 3.2-4.2 3.3-13.8 3.3s-9.9-.1-13.8-3.3c-4.4-3.5-6.8-4.1-5.8-1.6m-58 7.6c-1.9 3.1-1 5.4 2 4.9.4-.1 1.5.4 2.3 1.1 1.2 1 1.4.8 1.1-1.6-.4-3.4-4.1-6.5-5.4-4.4m151.8.4c-1.3.9-2.2 2.6-2.2 4.1 0 2.1.3 2.3 1.4 1.4.8-.6 1.8-1.1 2.2-1 2.2.4 3.1-.3 2.9-2.1-.2-3.3-1.8-4.2-4.3-2.4m-143.9 3.9c0 1.3.5 2.9 1.1 3.4s7.6 3.9 15.5 7.5l14.3 6.5-.7-3.7c-.3-2-1-4-1.3-4.3-.4-.3-6.5-2.7-13.7-5.4-7.1-2.6-13.5-5.2-14.1-5.7-.8-.6-1.1 0-1.1 1.7m3.2 2.3c-.3.3-1.1 0-1.8-.7-.9-1-.8-1.1.6-.5 1 .3 1.5.9 1.2 1.2m135-3.9c-.6.5-6.8 3-14 5.6-7.1 2.7-13.3 5.1-13.7 5.4-.3.3-1 2.3-1.3 4.3l-.7 3.7 14.3-6.5c7.9-3.6 14.9-7 15.5-7.5s1.2-2.1 1.2-3.4c0-2.8-.1-2.8-1.3-1.6m0 3.1c-.3.5-1.2 1-1.8 1-.7 0-.6-.4.3-1 1.9-1.2 2.3-1.2 1.5 0M93 201.7c.1 2.1 3.8 17.2 4.6 18.4.6 1 1 .7 1.4-1.1.7-2.6-3.8-18-5.2-18-.4 0-.8.3-.8.7m65.9 7c-1.5 4.7-2.3 8.8-1.9 10.3.8 3.5 1.9 1.4 4.1-8.4 2.1-9.4 2.2-9.6 1.1-9.6-.4 0-1.9 3.5-3.3 7.7m-55.5 10.4c-2.5 2.7-2.8 15-.4 17.4 1.7 1.6 1.8 1.5 2.3-5.5.1-1.7.7-3 1.2-3 .6 0 2-1.5 3.2-3.2 2-2.8 2.1-3.5.9-5.3-1.8-2.8-4.8-3-7.2-.4m2.5 3.6c-.2 1.9-3.8 8.6-3.8 7.2-.1-2.4 2-7.9 3-7.9.5 0 .9.3.8.7m39.5-3.2c-1.5 2.3-1.5 2.6.8 5.4 1.2 1.7 2.8 3 3.3 3 .6.1 1.1 1.4 1.2 3.1.6 7.9 1.3 8.5 3.3 2.4.7-2.1 1-5.6.6-8.2-1-7.7-5.9-10.7-9.2-5.7m7.5 5.6c1.6 4.5 1.4 7-.3 3.9-2.1-3.8-2.8-7-1.8-7 .6 0 1.5 1.4 2.1 3.1m-39.3 3.8c-1.8 2-1.8 2.1 1 3.3 1.7.8 7.1 1.3 13.4 1.3s11.7-.5 13.4-1.3c2.8-1.2 2.8-1.3 1-3.3-1.6-1.7-2.5-1.9-6.9-1.3-2.7.4-6.1.7-7.5.7s-4.8-.3-7.5-.7c-4.4-.6-5.3-.4-6.9 1.3"/>
    </g>
</svg>
