<?xml version="1.0" standalone="no"?>
<!DOCTYPE svg PUBLIC "-//W3C//DTD SVG 20010904//EN"
 "http://www.w3.org/TR/2001/REC-SVG-20010904/DTD/svg10.dtd">
<svg version="1.0" xmlns="http://www.w3.org/2000/svg"
 width="256.000000pt" height="256.000000pt" viewBox="0 0 256.000000 256.000000"
 preserveAspectRatio="xMidYMid meet">
<metadata>
Created by potrace 1.16, written by Peter Selinger 2001-2019
</metadata>
<g transform="translate(0.000000,256.000000) scale(0.100000,-0.100000)"
fill="#f2f2f2" stroke="none">
<path d="M918 2283 c-9 -10 -23 -35 -32 -56 -9 -21 -49 -75 -90 -120 -86 -96
-134 -169 -171 -258 -40 -99 -41 -128 -5 -268 43 -170 63 -204 128 -217 32 -6
44 7 20 22 -10 7 61 42 88 43 19 1 104 -80 104 -99 0 -17 -2 -17 -38 3 -39 21
-39 21 -60 1 -20 -19 -20 -22 -6 -49 8 -17 39 -55 69 -85 62 -63 85 -110 85
-174 0 -48 16 -66 60 -66 13 0 28 -12 40 -33 22 -36 56 -57 95 -57 l25 0 0
190 c0 137 -3 190 -12 190 -6 0 -36 19 -65 42 -48 36 -54 45 -49 69 7 39 -11
95 -44 132 -28 32 -29 37 -32 156 -3 113 -1 124 17 137 11 9 30 13 43 10 12
-3 34 -9 48 -12 16 -4 38 0 60 12 l34 19 0 182 0 183 -39 0 c-27 0 -46 7 -66
26 -24 22 -35 25 -72 21 -47 -5 -48 -5 -32 24 7 15 7 24 -2 35 -16 20 -82 18
-101 -3z"/>
<path d="M1541 2286 c-9 -11 -9 -20 -2 -35 16 -29 15 -30 -29 -24 -32 5 -45 1
-70 -21 -22 -18 -43 -26 -71 -26 l-39 0 0 -185 c0 -150 3 -185 14 -185 7 0 19
-7 27 -16 13 -16 35 -15 101 1 19 5 31 2 46 -13 19 -19 20 -29 15 -139 -6
-115 -7 -119 -40 -162 -28 -37 -33 -52 -33 -96 0 -50 -2 -53 -49 -93 -27 -23
-57 -42 -65 -42 -14 0 -16 -24 -16 -190 l0 -190 25 0 c38 0 82 26 97 57 9 20
22 29 43 31 43 5 55 19 55 62 0 65 27 121 89 185 79 81 89 101 63 128 l-20 20
-41 -21 c-40 -21 -41 -21 -41 -3 0 20 86 101 106 101 23 0 96 -38 85 -44 -18
-11 -13 -26 9 -26 41 0 77 28 98 77 27 63 72 242 72 287 0 92 -89 257 -208
388 -44 49 -83 100 -87 115 -11 45 -44 73 -86 73 -20 0 -42 -6 -48 -14z"/>
<path d="M87 1378 c3 -72 0 -141 -8 -188 -23 -135 -18 -195 23 -280 54 -111
151 -201 271 -254 82 -37 108 -42 62 -12 -40 25 -42 36 -3 15 11 -6 22 -9 24
-6 3 2 -30 26 -73 53 -103 63 -128 84 -192 163 -79 98 -95 139 -87 225 28 293
25 396 -9 396 -11 0 -12 -23 -8 -112z"/>
<path d="M2442 1460 c-10 -28 -5 -168 14 -366 8 -86 -8 -127 -87 -225 -64 -79
-89 -100 -192 -163 -43 -27 -76 -51 -73 -53 2 -3 13 0 24 6 39 21 37 10 -3
-15 -46 -30 -20 -25 62 12 213 93 357 326 298 480 -15 40 -17 70 -13 200 4
118 2 154 -8 154 -6 0 -17 -13 -22 -30z"/>
<path d="M180 1405 c0 -11 -5 -97 -11 -191 -12 -180 -10 -208 18 -243 17 -21
18 -13 17 204 -1 152 -5 230 -13 238 -8 8 -11 6 -11 -8z"/>
<path d="M2364 1406 c-4 -9 -7 -115 -8 -236 -1 -223 3 -244 34 -169 11 25 11
68 1 222 -7 106 -15 194 -17 196 -2 2 -6 -4 -10 -13z"/>
<path d="M263 1110 c4 -219 9 -244 72 -298 20 -18 67 -47 104 -64 36 -17 91
-44 122 -59 88 -45 299 -121 315 -115 27 10 6 23 -128 76 -179 71 -306 134
-346 173 -70 67 -83 103 -102 281 -26 244 -41 247 -37 6z"/>
<path d="M2283 1271 c-7 -18 -15 -90 -19 -160 -5 -111 -9 -133 -34 -186 -16
-33 -46 -77 -67 -97 -44 -43 -165 -104 -351 -178 -134 -53 -155 -66 -128 -76
16 -6 227 70 315 115 31 15 86 42 122 59 81 37 137 84 157 132 11 25 17 82 20
200 2 91 2 179 0 195 l-3 30 -12 -34z"/>
<path d="M350 1061 c0 -22 4 -50 9 -63 11 -30 73 -72 147 -99 61 -23 84 -20
36 5 -17 9 -33 20 -36 25 -9 15 265 -97 317 -129 27 -17 50 -30 51 -30 2 0 6
12 9 28 3 15 8 34 12 43 10 27 -84 78 -250 135 -84 29 -182 68 -216 86 -35 18
-67 34 -71 36 -5 2 -8 -14 -8 -37z"/>
<path d="M2135 1064 c-33 -18 -129 -56 -213 -85 -167 -57 -267 -111 -257 -138
4 -9 9 -28 12 -43 3 -16 7 -28 9 -28 1 0 24 13 51 30 52 32 326 144 317 129
-3 -5 -19 -16 -36 -25 -48 -25 -25 -28 36 -5 74 27 136 69 147 99 11 28 12
102 2 101 -5 -1 -35 -16 -68 -35z"/>
<path d="M962 822 c-27 -27 -36 -77 -27 -156 5 -52 12 -70 34 -94 16 -16 36
-52 45 -79 16 -47 19 -51 56 -57 32 -5 45 -14 65 -45 23 -34 34 -40 85 -51 90
-19 172 0 201 46 24 39 47 54 83 54 21 0 27 8 41 51 10 29 30 65 45 81 23 24
29 42 35 97 14 140 -47 221 -96 129 -7 -13 -7 -23 -1 -31 17 -20 23 -80 13
-127 -9 -45 -9 -45 -11 -10 -2 28 -5 22 -14 -31 -18 -99 -39 -128 -121 -168
-93 -46 -137 -46 -230 0 -82 40 -104 70 -121 169 -10 52 -13 58 -14 30 -2 -35
-2 -35 -11 10 -10 48 -4 107 14 128 8 10 3 21 -20 44 l-31 30 -20 -20z"/>
<path d="M1084 714 c3 -9 6 -25 6 -36 0 -14 5 -18 15 -14 9 3 24 -3 35 -14 11
-11 26 -17 33 -14 8 3 23 -3 32 -13 13 -13 20 -14 23 -5 5 16 99 16 104 0 3
-9 10 -8 23 5 9 10 24 16 32 13 7 -3 22 3 33 14 11 11 26 17 35 14 10 -4 15 0
15 14 0 11 3 27 6 36 10 25 -14 19 -58 -16 -39 -32 -42 -33 -138 -33 -96 0
-99 1 -138 33 -44 35 -68 41 -58 16z"/>
<path d="M504 638 c-19 -31 -10 -54 20 -49 4 1 15 -4 23 -11 12 -10 14 -8 11
16 -4 34 -41 65 -54 44z"/>
<path d="M2022 634 c-13 -9 -22 -26 -22 -41 0 -21 3 -23 14 -14 8 6 18 11 22
10 22 -4 31 3 29 21 -2 33 -18 42 -43 24z"/>
<path d="M583 595 c0 -13 5 -29 11 -34 6 -5 76 -39 155 -75 l143 -65 -7 37
c-3 20 -10 40 -13 43 -4 3 -65 27 -137 54 -71 26 -135 52 -141 57 -8 6 -11 0
-11 -17z m32 -23 c-3 -3 -11 0 -18 7 -9 10 -8 11 6 5 10 -3 15 -9 12 -12z"/>
<path d="M1965 611 c-6 -5 -68 -30 -140 -56 -71 -27 -133 -51 -137 -54 -3 -3
-10 -23 -13 -43 l-7 -37 143 65 c79 36 149 70 155 75 6 5 12 21 12 34 0 28 -1
28 -13 16z m0 -31 c-3 -5 -12 -10 -18 -10 -7 0 -6 4 3 10 19 12 23 12 15 0z"/>
<path d="M930 543 c1 -21 38 -172 46 -184 6 -10 10 -7 14 11 7 26 -38 180 -52
180 -4 0 -8 -3 -8 -7z"/>
<path d="M1589 473 c-15 -47 -23 -88 -19 -103 8 -35 19 -14 41 84 21 94 22 96
11 96 -4 0 -19 -35 -33 -77z"/>
<path d="M1034 369 c-25 -27 -28 -150 -4 -174 17 -16 18 -15 23 55 1 17 7 30
12 30 6 0 20 15 32 32 20 28 21 35 9 53 -18 28 -48 30 -72 4z m25 -36 c-2 -19
-38 -86 -38 -72 -1 24 20 79 30 79 5 0 9 -3 8 -7z"/>
<path d="M1454 365 c-15 -23 -15 -26 8 -54 12 -17 28 -30 33 -30 6 -1 11 -14
12 -31 6 -79 13 -85 33 -24 7 21 10 56 6 82 -10 77 -59 107 -92 57z m75 -56
c16 -45 14 -70 -3 -39 -21 38 -28 70 -18 70 6 0 15 -14 21 -31z"/>
<path d="M1136 271 c-18 -20 -18 -21 10 -33 17 -8 71 -13 134 -13 63 0 117 5
134 13 28 12 28 13 10 33 -16 17 -25 19 -69 13 -27 -4 -61 -7 -75 -7 -14 0
-48 3 -75 7 -44 6 -53 4 -69 -13z"/>
</g>
</svg>
