<svg xmlns="http://www.w3.org/2000/svg" width="341.333" height="341.333" version="1.0" viewBox="0 0 256 256">
    <g fill="#e5e5e5">
        <path d="M93 56.5c-19.5 24.4-35.6 44.8-35.7 45.2-.2.5 10.8.1 24.4-.8 13.7-.9 24.9-1.6 24.9-1.5.1 0 .7 9.8 1.3 21.6s1.4 23.2 1.7 25.2l.6 3.8h15.1l-.8-36.8c-.4-20.2-.8-36.8-1-37-.1-.2-5.4.4-11.6 1.2-6.3.8-11.5 1.4-11.6 1.3-.5-.5 27.3-31.5 28.2-31.6.9 0 28.7 31 28.2 31.5-.1.2-5.1-.4-11.1-1.2-6-.7-11.1-1.2-11.4-1-.2.3-.6 13.4-.8 29.3-.3 15.8-.6 32.3-.7 36.6l-.2 7.7h7.1c6.6 0 7.2-.2 7.7-2.2.3-1.3 1.1-12.7 1.8-25.5l1.2-23.2 6.6.6c20.5 1.6 43.1 2.8 43.1 2.2 0-.5-68.7-87-70.9-89.1-.3-.4-16.6 19.2-36.1 43.7M45.4 136c-6 1.2-13.3 5.2-19.1 10.4-4.2 3.8-5.1 5.2-5.6 9-1 6.9-5.1 16.2-10.6 23.7-6 8.2-2 7.4 7.8-1.5 3.1-2.9 3.3-2.9 2.1-.6-.7 1.4-2.8 4.4-4.7 6.7-6.3 7.8-1 4.5 8-4.9 8.9-9.4 11.4-10 5.2-1.3-1.9 2.7-3.2 5.1-3 5.3.9.9 5.4-2.8 9.2-7.5 6.6-8.2 14.7-16.5 17.5-17.9 3.8-2 8.1-1.7 11.1.6 1.5 1.2 5.2 6.5 8.3 11.8s7.6 11.7 9.9 14.2c3.6 3.9 4.4 5.6 5.4 11.5 2 11 2.1 11.1 3.6 8.1 1.2-2.3.9-3.9-2.5-14.8-2.1-6.8-4.1-14.4-4.5-17-.8-6.1-9.5-23.2-14.3-28.1-6.4-6.6-15.3-9.4-23.8-7.7m154.5.4c-4.9 1.3-8.9 3.8-13.1 8.3-4 4.2-12.6 21.6-13.3 27.1-.4 2.6-2.4 10.2-4.5 17-3.4 10.9-3.7 12.5-2.5 14.8 1.5 3 1.6 2.9 3.6-8.1 1-5.9 1.8-7.6 5.4-11.5 2.3-2.5 6.8-8.9 9.9-14.2s6.8-10.6 8.3-11.8c3-2.3 7.3-2.6 11.1-.6 2.8 1.4 10.9 9.7 17.5 17.9 3.8 4.7 8.3 8.4 9.2 7.5.2-.2-1.1-2.6-3-5.3-6.2-8.7-3.7-8.1 5.3 1.3 8.9 9.4 14.2 12.7 7.9 4.9-1.9-2.3-4-5.3-4.7-6.7-1.2-2.3-1-2.3 2.1.6 9.8 8.9 13.8 9.7 7.8 1.5-5.5-7.5-9.6-16.8-10.6-23.7-.5-3.8-1.4-5.2-5.7-9.1-9.4-8.5-21.5-12.4-30.7-9.9"/>
        <path d="M93.2 141.2c-5.4 3.7-6.2 5.4-6.9 13.6-.8 10 1 19.6 4.1 22.4 1.6 1.4 3.8 5.6 5.5 10.3 2.9 8 2.9 8 7 8.6 4.8.6 7.6 2.9 9.3 7.6 1.3 3.4 2.1 3.9 12.3 6.1 3.8.8 7.4.4 15.5-1.8 2.8-.7 3.9-1.7 4.8-4.3 1.7-4.7 4.5-7 9.3-7.6 4.1-.6 4.1-.6 7-8.6 1.7-4.7 3.9-8.9 5.5-10.3 1.9-1.7 2.8-3.8 3.6-9 1.1-7.3.5-18.9-1.1-22.1-.9-1.6-9.3-8.1-10.5-8.1-.2 0-.7 3.2-1.1 7.1-.5 5.1-.4 7.8.6 9.5 1 2 1.1 4.3 0 12.4-2.5 20.6-4.9 24.9-16.9 30.7-5.8 2.8-9 3.8-12.7 3.8s-6.9-1-12.7-3.8c-12-5.8-14.4-10.1-16.9-30.7-1.1-8.1-1-10.4 0-12.4 1-1.7 1.1-4.4.6-9.5-.4-3.9-1-7.1-1.4-7-.3 0-2.5 1.4-4.9 3.1M47 181.7c-1.4.9-2.7 1.8-2.9 1.9-.8.7 2.5 3.7 11.3 10.4 5 3.8 11.1 9 13.6 11.5 4.9 5.1 8.7 7.5 11.9 7.5 2.7 0 3.4-1.4 2.6-6-.6-3.3-1.1-4-3.6-4.5-2.1-.5-4.9-3-9.7-8.8-10.1-12.2-17.4-16-23.2-12m150.9 1.1c-2.4 1.6-7.5 6.5-11.1 10.9-4.8 5.8-7.6 8.3-9.7 8.8-2.5.5-3 1.2-3.6 4.5-.8 4.6-.1 6 2.6 6 3.2 0 7-2.4 11.9-7.4 2.5-2.6 7.9-7.2 12-10.3 8.3-6.3 13-10.4 13-11.3 0-1.1-5.8-4-8.2-4-1.3 0-4.4 1.3-6.9 2.8M96.2 205.5c-2.5 2.1-3.2 3.8-4.2 9.5-1.4 8.4-.5 18 2.1 23.2 2.1 4.1 3.4 5.1 2.4 1.8-.4-1.3.2-3.6 1.4-6 1.6-3.1 1.8-4.5 1.1-6.6-1.2-3.2-1.3-4.7-.1-4 1.8 1.1 3.9-.6 4.5-3.5.3-1.6 1.2-2.9 2-2.9 4.3 0 4.2-8.6-.1-12-3.4-2.6-5.5-2.5-9.1.5m55.5-.5c-4.3 3.4-4.4 12-.1 12 .8 0 1.7 1.3 2 2.9.6 2.9 2.7 4.6 4.5 3.5 1.2-.7 1.1.8-.1 4-.7 2.1-.5 3.5 1.1 6.6 1.2 2.4 1.8 4.7 1.4 6-1 3.3.3 2.3 2.4-1.7 2.6-5.3 3.5-14.9 2.1-23.3-1-5.7-1.7-7.4-4.2-9.5-3.6-3-5.7-3.1-9.1-.5m-39.1 16.2c-1.4 1.7-2.6 3.1-2.6 3.3s2.1 1 4.7 1.9c2.9 1 8.1 1.6 13.8 1.6s10.9-.6 13.8-1.6c2.6-.9 4.7-1.7 4.7-1.9s-1.2-1.6-2.6-3.3c-2.4-2.6-3-2.9-5.8-2.1-1.7.5-6.2.9-10.1.9s-8.4-.4-10.1-.9c-2.8-.8-3.4-.5-5.8 2.1"/>
    </g>
</svg>
