<svg xmlns="http://www.w3.org/2000/svg" width="341.333" height="341.333" version="1.0" viewBox="0 0 256 256">
    <g fill="#e5e5e5">
        <path d="M124.6 23.3c-2.8 3.6-7.6 13.9-7.6 16.2 0 .8 1.3 3.5 3 6.1 1.6 2.6 3.4 6.2 4.1 8.1.8 2.5 1.6 3.3 3.5 3.3 2 0 2.9-.9 4.4-4.4 1-2.4 3-6.2 4.4-8.5L139 40l-2.5-6.2c-2.8-7-7-13.8-8.5-13.8-.5 0-2 1.5-3.4 3.3M90.5 27c.8 1.6 1.5 5.4 1.5 8.4 0 5.2.2 5.5 3.6 7.6 6 3.5 12.2 9 16 14.1l3.5 4.8 3.5-2.1c4-2.3 3.9-2.6-.9-10.6-4.1-6.9-14.8-18.1-21.1-22.1-6.5-4.1-8.2-4.1-6.1-.1m67.8.6c-7.3 4.9-18.3 17-22.1 24.1l-3.1 5.9 3.5 2 3.5 2 6.8-6.5c3.7-3.7 9.1-8.2 11.9-10.1 5-3.4 5.2-3.6 4.6-7.2-.5-3.3.2-7.4 2.1-12.1 1.1-2.7-1.4-2-7.2 1.9m-93.5 8.6c0 1.3-.2 5-.3 8.3-.2 3.9-1.4 8.9-3.4 14.2-4.1 10.6-5.2 17.7-4 25.5 1.1 7.4 5.6 17.2 9.6 21l2.8 2.7-.3-6.6c-.5-8 .7-12.9 5.8-24.3 4.4-9.7 4.8-12.4 2.4-18.7-1.6-4.1-1.6-4.4.2-6.4 1.6-1.8 2.7-2 7-1.6 2.9.3 8.5 2 12.5 3.7 4.1 1.7 8.1 3.4 8.9 3.7 2.8 1.1-4.5-5.9-10.2-9.8C89.7 43.7 69.3 34 66.6 34c-.9 0-1.7.9-1.8 2.2m116 1.2c-9.5 4.2-15.7 7.7-22.8 13.2-8.9 6.7-9.2 7.8-1.4 4.5 3.8-1.6 9.5-3.7 12.7-4.6 5.4-1.6 6-1.6 8.3 0 2.2 1.4 2.5 2.2 1.9 4.8-2.4 11.4-2 14.7 4.4 33 1.9 5.4 3.1 10.8 3.1 14v5l2.4-2.2c3.6-3.4 8.2-12.8 9.6-19.6 1.6-7.6.7-14.7-3-24.3-3.7-9.7-5.1-17-4.3-22.7.7-5.7-.2-5.8-10.9-1.1"/>
        <path d="M83.7 59.2c2 5.8 1.3 10.1-3.6 20.7-2.3 5-4.6 11.4-5.1 14.3-2.1 13.8 4.5 28.5 16.7 36.9 3.8 2.7 5.8 2.9 3.4.3-.5-.5-2.1-4.4-3.5-8.6-6-17.9-1.2-35.5 14-51.8l4.5-4.8-4.4-2.6C101.1 60.8 86 55 83.6 55c-1.1 0-1.1.7.1 4.2m80.8-1.8c-3.3 1.3-8.8 3.7-12.2 5.5L146 66l6.7 8.2c14.6 18.1 17.5 33.9 9.8 52.9-1.3 3.2-2.1 5.9-1.8 5.9 1.6 0 10.6-6.5 13.3-9.6 8.8-10.1 9.8-20.3 3.7-36.4-2-5.2-4.1-11.6-4.8-14.3-1.1-4.7-.9-12.5.6-16 1-2.4-1.5-2.2-9 .7"/>
        <path d="M123.5 66.3c-4.8 2.4-13.4 11.1-18.1 18.1-9.9 14.9-10.5 29.8-1.9 45.1 4.3 7.7 5.3 8.6 15.7 13.5l8.7 4.1 9.5-4.6c8.7-4.1 9.7-4.9 13-10.2 12.5-19.9 9.5-39.4-8.8-57.8-9.7-9.8-12.5-11.1-18.1-8.2m-81 37.7c-33.1 7.5-43.7 24-26.3 40.7 6.4 6.1 13.8 10.5 15.5 9.2.7-.6 1.9-.9 2.8-.6.9.4 2.2-.5 3.4-2.2l2-2.8-4.1-2.3c-2.3-1.3-5.9-3.9-8-5.8-10.5-9.5-8.8-19 4.5-25.5 5.3-2.5 21.5-7.7 24.3-7.7 1.8 0 1.8-1.4-.1-3-.8-.7-1.5-.9-1.5-.4 0 .4-.5.3-1.2-.4-1.5-1.5-1.4-1.5-11.3.8m158-1c-.3.5-1 .8-1.5.5-.8-.5-3.6 2.3-2.9 2.8.2.2 4.4 1.3 9.3 2.6 17.5 4.3 28.1 11.4 28.1 19 0 5.4-3.8 10.4-12.1 16l-7.1 4.8 2.4 2.7c1.3 1.5 2.8 2.4 3.3 2.1.6-.4 1.7-.2 2.5.5 1 .9 2.3.5 5.7-1.6 14.1-8.9 20.1-18.1 17.6-27-2.8-10.4-17.1-18.3-41.5-22.9-1.8-.4-3.4-.2-3.8.5m-124 40.8c-10.8 3.7-19.2 10.6-24.8 20.3-1.4 2.4-3.9 9.1-5.6 14.8-1.7 5.8-3.8 11.5-4.6 12.7s-8.4 5.9-17 10.4c-8.7 4.6-15.5 8.7-15.5 9.5 0 2.9 3.7 3.7 9.4 1.9 5-1.6 5.7-1.6 10.1 0 7.3 2.4 14.3 2.1 20.1-1 18.3-9.7 25.2-17.4 33.6-37.3 4.8-11.2 6-13.1 12-19.2 7.5-7.6 7.9-6.6-4.1-11.4-7.6-2.9-7.2-2.9-13.6-.7m92 .6c-3.3 1.1-7.1 2.9-8.6 3.8l-2.5 1.8 6.1 6.2c5 5.2 7 8.4 11.5 18.3 9.1 20.3 13.5 25.7 27.7 34.2 11.2 6.7 16.1 7.6 25.4 4.8 5.7-1.8 6.2-1.8 11.5-.1s5.7 1.7 7.5 0c1-.9 1.9-2.1 1.9-2.5 0-.5-6.6-4.2-14.7-8.3-8.2-4.1-15.8-8.5-17.1-9.9-1.4-1.5-3.6-6.9-5.6-13.4-3.8-12.8-6.8-18.4-13.6-25.2-5-5-15.1-10.6-20.5-11.4-1.6-.2-5.7.5-9 1.7m-62.7 17.3c-2.2.4-3.1 1.7-6.2 8.8-3.9 9-4 12.7-.6 14.5 1 .5 2.8 3.4 4.1 6.5 2 4.9 2.6 5.5 5.1 5.5 2.7 0 7.8 3.8 7.8 5.8 0 1.7 11.3 3 16.8 2 4.3-.9 5.6-1.6 6.8-3.9 1.3-2.6 2.6-3.3 7.8-4.1 1.2-.2 2.5-2.1 3.8-5.2 1-2.8 3-6 4.4-7.2 1.3-1.3 2.4-3.2 2.4-4.4 0-3.6-7.1-18-8.9-18-.9 0-2.6-.3-3.8-.6-2.2-.6-2.3-.4-2.3 5.7-.1 12.9-2.6 17.6-11.1 20.4-4.5 1.5-5.3 1.5-9.8 0-8.2-2.7-11.1-7.9-11.1-20.3 0-4.4-.4-6.2-1.2-6.1-.7.1-2.5.4-4 .6m-14.3 25.5c-.6 2.4.9 11.7 2.2 14.1.7 1.2 3.2-2.5 3.2-4.8 0-1.1-1.1-4.3-2.3-7-2.3-4.9-2.4-4.9-3.1-2.3M159 191c-2.2 5.8-2.2 6.1-.4 8.7l1.8 2.8 1.3-5c1.5-5.8 1.7-11.1.4-11.9-.5-.3-1.9 2.1-3.1 5.4m-57.9 14.7c-4.3 3.5-5.6 19.6-2.2 26.8l1.9 4 .1-3.2c.1-1.7.6-3.5 1.1-3.8.6-.3 1-1.7 1-3 0-3 3.6-10.1 5.5-10.9.8-.3 1.7-2.1 2.1-4.1 1.2-6.3-4.6-9.8-9.5-5.8m46.9.5c-1.1 1.2-2 2.6-2 3 0 1.6 3 6.8 4 6.8.5 0 1.2 1 1.6 2.2.4 1.3 1.1 2.6 1.5 2.9.5.3 1.1 1.8 1.3 3.5.3 1.6 1.1 4.6 1.9 6.7l1.4 3.9 1.1-2.9c1.9-5 2.4-9.2 1.7-15.9-1.2-10.6-7.4-15.7-12.5-10.2m-33.7 10c-1.4 1.6-1.3 1.8 1.3 2.8 3.8 1.5 18.4 1.5 22.8 0 3.3-1 3.4-1.2 1.8-2.8-2.5-2.5-23.6-2.5-25.9 0"/>
    </g>
</svg>
