<?xml version="1.0" standalone="no"?>
<!DOCTYPE svg PUBLIC "-//W3C//DTD SVG 20010904//EN"
 "http://www.w3.org/TR/2001/REC-SVG-20010904/DTD/svg10.dtd">
<svg version="1.0" xmlns="http://www.w3.org/2000/svg"
 width="256.000000pt" height="256.000000pt" viewBox="0 0 256.000000 256.000000"
 preserveAspectRatio="xMidYMid meet">
<metadata>
Created by potrace 1.16, written by Peter Selinger 2001-2019
</metadata>
<g transform="translate(0.000000,256.000000) scale(0.100000,-0.100000)"
fill="#f2f2f2" stroke="none">
<path d="M930 1995 c-195 -244 -356 -448 -357 -452 -2 -5 108 -1 244 8 137 9
249 16 249 15 1 0 7 -98 13 -216 6 -118 14 -232 17 -252 l6 -38 75 0 76 0 -8
368 c-4 202 -8 368 -10 370 -1 2 -54 -4 -116 -12 -63 -8 -115 -14 -116 -13 -5
5 273 315 282 316 9 0 287 -310 282 -315 -1 -2 -51 4 -111 12 -60 7 -111 12
-114 10 -2 -3 -6 -134 -8 -293 -3 -158 -6 -323 -7 -366 l-2 -77 71 0 c66 0 72
2 77 22 3 13 11 127 18 255 l12 232 66 -6 c205 -16 431 -28 431 -22 0 5 -687
870 -709 891 -3 4 -166 -192 -361 -437z"/>
<path d="M454 1200 c-60 -12 -133 -52 -191 -104 -42 -38 -51 -52 -56 -90 -10
-69 -51 -162 -106 -237 -60 -82 -20 -74 78 15 31 29 33 29 21 6 -7 -14 -28
-44 -47 -67 -63 -78 -10 -45 80 49 89 94 114 100 52 13 -19 -27 -32 -51 -30
-53 9 -9 54 28 92 75 66 82 147 165 175 179 38 20 81 17 111 -6 15 -12 52 -65
83 -118 31 -53 76 -117 99 -142 36 -39 44 -56 54 -115 20 -110 21 -111 36 -81
12 23 9 39 -25 148 -21 68 -41 144 -45 170 -8 61 -95 232 -143 281 -64 66
-153 94 -238 77z"/>
<path d="M1999 1196 c-49 -13 -89 -38 -131 -83 -40 -42 -126 -216 -133 -271
-4 -26 -24 -102 -45 -170 -34 -109 -37 -125 -25 -148 15 -30 16 -29 36 81 10
59 18 76 54 115 23 25 68 89 99 142 31 53 68 106 83 118 30 23 73 26 111 6 28
-14 109 -97 175 -179 38 -47 83 -84 92 -75 2 2 -11 26 -30 53 -62 87 -37 81
53 -13 89 -94 142 -127 79 -49 -19 23 -40 53 -47 67 -12 23 -10 23 21 -6 98
-89 138 -97 78 -15 -55 75 -96 168 -106 237 -5 38 -14 52 -57 91 -94 85 -215
124 -307 99z"/>
<path d="M932 1148 c-54 -37 -62 -54 -69 -136 -8 -100 10 -196 41 -224 16 -14
38 -56 55 -103 29 -80 29 -80 70 -86 48 -6 76 -29 93 -76 13 -34 21 -39 123
-61 38 -8 74 -4 155 18 28 7 39 17 48 43 17 47 45 70 93 76 41 6 41 6 70 86
17 47 39 89 55 103 19 17 28 38 36 90 11 73 5 189 -11 221 -9 16 -93 81 -105
81 -2 0 -7 -32 -11 -71 -5 -51 -4 -78 6 -95 10 -20 11 -43 0 -124 -25 -206
-49 -249 -169 -307 -58 -28 -90 -38 -127 -38 -37 0 -69 10 -127 38 -120 58
-144 101 -169 307 -11 81 -10 104 0 124 10 17 11 44 6 95 -4 39 -10 71 -14 70
-3 0 -25 -14 -49 -31z"/>
<path d="M470 743 c-14 -9 -27 -18 -29 -19 -8 -7 25 -37 113 -104 50 -38 111
-90 136 -115 49 -51 87 -75 119 -75 27 0 34 14 26 60 -6 33 -11 40 -36 45 -21
5 -49 30 -97 88 -101 122 -174 160 -232 120z"/>
<path d="M1979 732 c-24 -16 -75 -65 -111 -109 -48 -58 -76 -83 -97 -88 -25
-5 -30 -12 -36 -45 -8 -46 -1 -60 26 -60 32 0 70 24 119 74 25 26 79 72 120
103 83 63 130 104 130 113 0 11 -58 40 -82 40 -13 0 -44 -13 -69 -28z"/>
<path d="M962 505 c-25 -21 -32 -38 -42 -95 -14 -84 -5 -180 21 -232 21 -41
34 -51 24 -18 -4 13 2 36 14 60 16 31 18 45 11 66 -12 32 -13 47 -1 40 18 -11
39 6 45 35 3 16 12 29 20 29 43 0 42 86 -1 120 -34 26 -55 25 -91 -5z"/>
<path d="M1517 510 c-43 -34 -44 -120 -1 -120 8 0 17 -13 20 -29 6 -29 27 -46
45 -35 12 7 11 -8 -1 -40 -7 -21 -5 -35 11 -66 12 -24 18 -47 14 -60 -10 -33
3 -23 24 17 26 53 35 149 21 233 -10 57 -17 74 -42 95 -36 30 -57 31 -91 5z"/>
<path d="M1126 348 c-14 -17 -26 -31 -26 -33 0 -2 21 -10 47 -19 29 -10 81
-16 138 -16 57 0 109 6 138 16 26 9 47 17 47 19 0 2 -12 16 -26 33 -24 26 -30
29 -58 21 -17 -5 -62 -9 -101 -9 -39 0 -84 4 -101 9 -28 8 -34 5 -58 -21z"/>
</g>
</svg>
