<?xml version="1.0" standalone="no"?>
<!DOCTYPE svg PUBLIC "-//W3C//DTD SVG 20010904//EN"
 "http://www.w3.org/TR/2001/REC-SVG-20010904/DTD/svg10.dtd">
<svg version="1.0" xmlns="http://www.w3.org/2000/svg"
 width="256.000000pt" height="256.000000pt" viewBox="0 0 256.000000 256.000000"
 preserveAspectRatio="xMidYMid meet">
<metadata>
Created by potrace 1.16, written by Peter Selinger 2001-2019
</metadata>
<g transform="translate(0.000000,256.000000) scale(0.100000,-0.100000)"
fill="#f2f2f2" stroke="none">
<path d="M1014 2274 c-7 -3 -30 -27 -54 -55 l-41 -49 65 -98 66 -97 0 -105 0
-106 -335 -569 c-184 -314 -331 -573 -327 -577 14 -13 867 -338 888 -338 22 0
862 325 876 338 4 4 -143 263 -327 576 l-335 570 0 105 0 106 66 97 66 98 -47
55 -47 55 -252 -1 c-138 0 -256 -3 -262 -5z m413 -702 c18 -12 523 -876 515
-883 -12 -11 -652 -259 -668 -259 -15 0 -664 249 -676 259 -8 7 497 871 515
883 7 4 77 8 157 8 80 0 150 -4 157 -8z"/>
<path d="M1263 1423 c-30 -4 -40 -19 -199 -296 -92 -161 -176 -306 -186 -323
l-18 -31 202 -78 c112 -43 208 -78 213 -78 19 0 415 156 411 162 -1 3 -50 87
-108 186 -58 99 -141 243 -184 319 -44 77 -83 140 -89 141 -5 1 -24 0 -42 -2z"/>
</g>
</svg>
