<?xml version="1.0" standalone="no"?>
<!DOCTYPE svg PUBLIC "-//W3C//DTD SVG 20010904//EN"
 "http://www.w3.org/TR/2001/REC-SVG-20010904/DTD/svg10.dtd">
<svg version="1.0" xmlns="http://www.w3.org/2000/svg"
 width="256.000000pt" height="256.000000pt" viewBox="0 0 256.000000 256.000000"
 preserveAspectRatio="xMidYMid meet">
<metadata>
Created by potrace 1.16, written by Peter Selinger 2001-2019
</metadata>
<g transform="translate(0.000000,256.000000) scale(0.100000,-0.100000)"
fill="#f2f2f2" stroke="none">
<path d="M371 2247 c-40 -20 -35 -34 22 -67 99 -56 251 -254 322 -421 61 -143
85 -190 143 -281 55 -85 58 -88 95 -88 20 0 37 4 37 9 0 6 -26 52 -58 103 -77
122 -102 190 -101 276 1 100 16 132 73 161 52 26 109 31 194 17 l53 -8 -25 51
c-37 71 -55 80 -185 91 -87 7 -125 15 -169 35 -31 15 -75 33 -97 40 -22 7 -78
29 -125 48 -103 42 -147 51 -179 34z"/>
<path d="M2055 2231 c-121 -43 -213 -79 -248 -97 -52 -27 -87 -35 -199 -44
-58 -5 -116 -13 -127 -20 -20 -10 -51 -61 -65 -108 -7 -20 -5 -21 16 -13 54
20 132 23 183 6 67 -23 91 -47 106 -107 24 -104 -2 -196 -103 -355 -32 -51
-58 -95 -58 -98 0 -3 18 -5 40 -5 37 0 42 4 78 58 60 87 97 157 145 272 47
112 105 214 169 295 51 65 138 155 150 155 19 0 76 46 70 56 -9 14 -47 34 -64
34 -7 0 -49 -13 -93 -29z"/>
<path d="M995 1876 c-36 -16 -60 -41 -75 -80 -10 -26 -7 -32 35 -77 24 -26 57
-72 72 -103 l26 -55 28 45 c16 24 30 44 33 44 2 0 1 -20 -2 -45 -4 -38 0 -52
22 -83 31 -45 84 -98 91 -91 2 3 -7 32 -20 65 -28 68 -31 101 -10 128 8 11 15
27 15 36 0 14 11 17 68 16 61 -1 67 -3 70 -23 2 -12 10 -27 18 -33 21 -18 17
-47 -15 -122 -38 -88 -19 -90 49 -5 47 58 50 65 45 107 l-6 45 26 -28 c14 -15
25 -35 25 -43 0 -28 15 -13 34 34 11 26 42 70 68 98 26 28 48 59 48 68 0 57
-76 116 -149 116 -23 0 -67 -9 -98 -20 -72 -25 -150 -25 -231 0 -73 23 -124
25 -167 6z"/>
<path d="M859 1082 c-59 -92 -101 -170 -114 -212 -15 -49 -95 -202 -140 -267
-75 -107 -155 -191 -213 -224 -57 -32 -61 -46 -19 -67 34 -16 91 -4 213 48 51
22 99 40 106 40 8 0 23 7 35 15 42 30 109 47 217 56 67 5 119 15 133 24 12 9
34 38 49 66 l25 51 -53 -8 c-85 -14 -142 -9 -194 17 -57 29 -72 61 -73 161 -1
86 24 154 101 276 32 51 58 97 58 103 0 5 -17 9 -37 9 -37 0 -40 -3 -94 -88z"/>
<path d="M1560 1165 c0 -3 26 -47 58 -98 101 -159 127 -251 103 -355 -15 -60
-39 -84 -106 -107 -51 -17 -129 -14 -183 6 -21 8 -23 7 -16 -13 14 -46 45 -98
63 -108 11 -5 72 -14 136 -20 95 -7 129 -15 183 -39 184 -82 336 -135 368
-127 13 4 30 13 39 22 15 15 13 18 -19 40 -19 13 -39 24 -44 24 -12 0 -99 90
-150 155 -64 81 -122 183 -169 295 -48 115 -85 185 -145 273 -36 53 -41 57
-78 57 -22 0 -40 -2 -40 -5z"/>
<path d="M1177 1091 c-61 -67 -70 -87 -65 -136 3 -25 4 -45 2 -45 -3 0 -17 20
-33 44 l-28 45 -26 -55 c-15 -31 -48 -77 -73 -104 l-46 -49 18 -37 c40 -80
115 -101 232 -65 88 26 161 27 235 1 31 -11 75 -20 98 -20 73 0 149 59 149
116 0 9 -22 40 -48 68 -26 28 -57 72 -68 98 -18 45 -34 62 -34 36 0 -14 -42
-78 -51 -78 -4 0 -3 19 2 41 11 46 5 58 -58 137 -53 65 -67 55 -32 -25 32 -76
36 -105 15 -123 -8 -6 -16 -21 -18 -33 -3 -20 -9 -22 -73 -22 -53 0 -69 4 -67
14 1 7 -4 24 -13 37 -21 32 -19 59 10 129 29 69 28 65 16 65 -5 0 -25 -18 -44
-39z"/>
</g>
</svg>
