<svg xmlns="http://www.w3.org/2000/svg" width="341.333" height="341.333" version="1.0" viewBox="0 0 256 256">
    <g fill="#e5e5e5">
        <path d="M37.1 31.3c-4 2-3.5 3.4 2.2 6.7 9.9 5.6 25.1 25.4 32.2 42.1 6.1 14.3 8.5 19 14.3 28.1 5.5 8.5 5.8 8.8 9.5 8.8 2 0 3.7-.4 3.7-.9 0-.6-2.6-5.2-5.8-10.3-7.7-12.2-10.2-19-10.1-27.6.1-10 1.6-13.2 7.3-16.1 5.2-2.6 10.9-3.1 19.4-1.7l5.3.8-2.5-5.1c-3.7-7.1-5.5-8-18.5-9.1-8.7-.7-12.5-1.5-16.9-3.5-3.1-1.5-7.5-3.3-9.7-4s-7.8-2.9-12.5-4.8c-10.3-4.2-14.7-5.1-17.9-3.4m168.4 1.6c-12.1 4.3-21.3 7.9-24.8 9.7-5.2 2.7-8.7 3.5-19.9 4.4-5.8.5-11.6 1.3-12.7 2-2 1-5.1 6.1-6.5 10.8-.7 2-.5 2.1 1.6 1.3 5.4-2 13.2-2.3 18.3-.6 6.7 2.3 9.1 4.7 10.6 10.7 2.4 10.4-.2 19.6-10.3 35.5-3.2 5.1-5.8 9.5-5.8 9.8s1.8.5 4 .5c3.7 0 4.2-.4 7.8-5.8 6-8.7 9.7-15.7 14.5-27.2 4.7-11.2 10.5-21.4 16.9-29.5C204.3 48 213 39 214.2 39c1.9 0 7.6-4.6 7-5.6-.9-1.4-4.7-3.4-6.4-3.4-.7 0-4.9 1.3-9.3 2.9"/>
        <path d="M99.5 68.4c-3.6 1.6-6 4.1-7.5 8-1 2.6-.7 3.2 3.5 7.7 2.4 2.6 5.7 7.2 7.2 10.3l2.6 5.5 2.8-4.5c1.6-2.4 3-4.4 3.3-4.4.2 0 .1 2-.2 4.5-.4 3.8 0 5.2 2.2 8.3 3.1 4.5 8.4 9.8 9.1 9.1.2-.3-.7-3.2-2-6.5-2.8-6.8-3.1-10.1-1-12.8.8-1.1 1.5-2.7 1.5-3.6 0-1.4 1.1-1.7 6.8-1.6 6.1.1 6.7.3 7 2.3.2 1.2 1 2.7 1.8 3.3 2.1 1.8 1.7 4.7-1.5 12.2-3.8 8.8-1.9 9 4.9.5 4.7-5.8 5-6.5 4.5-10.7l-.6-4.5 2.6 2.8c1.4 1.5 2.5 3.5 2.5 4.3 0 2.8 1.5 1.3 3.4-3.4 1.1-2.6 4.2-7 6.8-9.8s4.8-5.9 4.8-6.8c0-5.7-7.6-11.6-14.9-11.6-2.3 0-6.7.9-9.8 2-7.2 2.5-15 2.5-23.1 0-7.3-2.3-12.4-2.5-16.7-.6m-13.6 79.4c-5.9 9.2-10.1 17-11.4 21.2-1.5 4.9-9.5 20.2-14 26.7-7.5 10.7-15.5 19.1-21.3 22.4-5.7 3.2-6.1 4.6-1.9 6.7 3.4 1.6 9.1.4 21.3-4.8 5.1-2.2 9.9-4 10.6-4 .8 0 2.3-.7 3.5-1.5 4.2-3 10.9-4.7 21.7-5.6 6.7-.5 11.9-1.5 13.3-2.4 1.2-.9 3.4-3.8 4.9-6.6l2.5-5.1-5.3.8c-8.5 1.4-14.2.9-19.4-1.7-5.7-2.9-7.2-6.1-7.3-16.1-.1-8.6 2.4-15.4 10.1-27.6 3.2-5.1 5.8-9.7 5.8-10.3 0-.5-1.7-.9-3.7-.9-3.7 0-4 .3-9.4 8.8m70.1-8.3c0 .3 2.6 4.7 5.8 9.8 10.1 15.9 12.7 25.1 10.3 35.5-1.5 6-3.9 8.4-10.6 10.7-5.1 1.7-12.9 1.4-18.3-.6-2.1-.8-2.3-.7-1.6 1.3 1.4 4.6 4.5 9.8 6.3 10.8 1.1.5 7.2 1.4 13.6 2 9.5.7 12.9 1.5 18.3 3.9 18.4 8.2 33.6 13.5 36.8 12.7 1.3-.4 3-1.3 3.9-2.2 1.5-1.5 1.3-1.8-1.9-4-1.9-1.3-3.9-2.4-4.4-2.4-1.2 0-9.9-9-15-15.5-6.4-8.1-12.2-18.3-16.9-29.5-4.8-11.5-8.5-18.5-14.5-27.3-3.6-5.3-4.1-5.7-7.8-5.7-2.2 0-4 .2-4 .5"/>
        <path d="M117.7 146.9c-6.1 6.7-7 8.7-6.5 13.6.3 2.5.4 4.5.2 4.5-.3 0-1.7-2-3.3-4.4l-2.8-4.5-2.6 5.5c-1.5 3.1-4.8 7.7-7.3 10.4l-4.6 4.9 1.8 3.7c4 8 11.5 10.1 23.2 6.5 8.8-2.6 16.1-2.7 23.5-.1 3.1 1.1 7.5 2 9.8 2 7.3 0 14.9-5.9 14.9-11.6 0-.9-2.2-4-4.8-6.8s-5.7-7.2-6.8-9.8c-1.8-4.5-3.4-6.2-3.4-3.6 0 1.4-4.2 7.8-5.1 7.8-.4 0-.3-1.9.2-4.1 1.1-4.6.5-5.8-5.8-13.7-5.3-6.5-6.7-5.5-3.2 2.5 3.2 7.6 3.6 10.5 1.5 12.3-.8.6-1.6 2.1-1.8 3.3-.3 2-.9 2.2-7.3 2.2-5.3 0-6.9-.4-6.7-1.4.1-.7-.4-2.4-1.3-3.7-2.1-3.2-1.9-5.9 1-12.9 2.9-6.9 2.8-6.5 1.6-6.5-.5 0-2.5 1.8-4.4 3.9"/>
    </g>
</svg>
