<?xml version="1.0" standalone="no"?>
<!DOCTYPE svg PUBLIC "-//W3C//DTD SVG 20010904//EN"
 "http://www.w3.org/TR/2001/REC-SVG-20010904/DTD/svg10.dtd">
<svg version="1.0" xmlns="http://www.w3.org/2000/svg"
 width="256.000000pt" height="256.000000pt" viewBox="0 0 256.000000 256.000000"
 preserveAspectRatio="xMidYMid meet">
<metadata>
Created by potrace 1.16, written by Peter Selinger 2001-2019
</metadata>
<g transform="translate(0.000000,256.000000) scale(0.100000,-0.100000)"
fill="#f2f2f2" stroke="none">
<path d="M1105 2466 c-268 -44 -485 -154 -671 -340 -409 -409 -468 -1039 -144
-1522 69 -101 213 -245 314 -314 253 -170 556 -240 846 -195 270 41 487 150
676 339 270 271 396 647 339 1016 -41 270 -150 487 -339 676 -221 220 -496
340 -806 349 -85 3 -164 0 -215 -9z m375 -146 c30 -6 84 -21 120 -32 52 -17
61 -23 45 -29 -11 -5 -132 -38 -270 -74 -137 -36 -255 -68 -262 -70 -8 -3 -2
-40 21 -128 19 -69 37 -130 40 -136 9 -14 61 -14 87 -1 14 8 19 21 19 49 0 48
9 55 89 76 63 16 115 13 128 -8 16 -26 51 -172 42 -177 -5 -4 -50 -17 -101
-30 l-91 -24 -32 39 c-30 35 -35 37 -68 31 -20 -4 -40 -14 -45 -22 -9 -15 72
-352 91 -381 12 -18 67 -16 89 4 10 9 18 30 18 48 0 18 6 37 13 43 6 5 53 21
104 35 83 22 93 23 97 8 30 -101 176 -673 176 -688 0 -32 -32 -53 -112 -74
l-73 -19 -17 23 c-10 12 -23 28 -28 35 -16 18 -68 14 -89 -7 -20 -20 -19 -21
10 -128 16 -59 32 -120 36 -135 3 -16 7 -28 8 -28 2 0 138 36 304 80 165 44
306 80 311 80 19 0 -52 -89 -131 -164 -165 -159 -359 -254 -578 -286 -102 -15
-309 -8 -399 14 -97 24 -227 77 -211 86 8 4 153 45 324 90 171 45 318 86 327
91 24 13 31 44 18 84 -13 41 -35 55 -82 55 -19 0 -41 6 -50 12 -24 19 -339
1217 -326 1241 5 10 25 28 44 39 28 17 34 26 34 54 0 51 -25 94 -54 94 -14 0
-151 -34 -306 -75 -155 -42 -287 -74 -292 -73 -17 6 89 114 174 179 132 98
298 173 443 198 33 6 71 13 85 15 43 8 262 -2 320 -14z m415 -180 c181 -124
347 -365 405 -585 59 -228 42 -490 -47 -687 l-26 -57 -25 19 c-14 12 -40 20
-62 20 -21 0 -42 6 -47 13 -12 15 -323 1194 -323 1224 0 12 12 31 28 42 15 11
32 25 37 30 14 14 11 14 60 -19z m-1129 -318 c7 -4 85 -279 174 -610 154 -577
161 -605 144 -623 -19 -22 -66 -25 -82 -6 -12 15 -322 1169 -322 1200 0 13 5
28 12 35 13 13 57 16 74 4z m-355 -89 c9 -9 329 -1201 329 -1226 0 -9 -12 -24
-26 -34 -14 -10 -35 -26 -45 -36 -19 -17 -21 -17 -69 23 -121 101 -215 224
-286 375 -130 273 -131 610 -3 889 12 25 17 28 52 23 22 -3 43 -9 48 -14z"/>
</g>
</svg>
