<svg xmlns="http://www.w3.org/2000/svg" width="341.333" height="341.333" version="1.0" viewBox="0 0 256 256">
    <g fill="#e5e5e5">
        <path d="M86.2 21.5C75 25.9 66.8 32.9 63 41.4 57.4 53.7 48.8 77.2 45.5 89c-2 7.4-7 24.5-11.1 38-6.2 20.3-7.9 24.9-10.2 26.9-1.5 1.2-4.2 3.6-5.9 5.1-1.8 1.6-3.3 3.3-3.3 3.8s1.1 2.5 2.4 4.5c2.1 3.1 2.3 4.1 1.5 6.9-3.5 12.4 2 29.9 13 40.8 7.8 7.8 12.5 9.3 28 8.9 11.5-.4 12-.5 19.6-4.4 9.2-4.6 17.7-12.4 20.5-18.7 1.4-3.3 2.9-4.8 6-6.2 4.7-2.1 4.9-3.2 2.1-12.4l-2-6.4 2.4-8.4c1.4-4.6 4.4-12.7 6.8-18.1 5.4-12 5.7-12.9 10.6-32.5 2.2-8.7 5.6-19.5 7.7-24 9.2-20.6 10.9-29.4 8-40.5-3.7-13.8-11.8-24.3-23.1-29.8-5.2-2.6-7.3-3-16-3.2-8.7-.3-10.8 0-16.3 2.2m22.1 17.7c5.8 1.7 11 7.2 13.6 14.3 3 8 2.5 12.7-2.9 24.5-5.7 12.7-8.4 20.8-12.6 37.9-1.9 7.9-5.4 18.6-7.8 24-2.3 5.3-6 14.6-8.1 20.8-3.6 10.1-3.8 11.5-2.7 14.6 1.7 4.7 1.5 8.4-.6 9.9-1 .7-2.9 3.4-4.1 6.1-3.6 7.5-13.7 13.7-22.3 13.7-11.4 0-17.8-3.9-21.9-13.3-1.7-4.2-2-6.1-1.4-10.7.8-6.6.8-8.4-.1-12.8-.6-3-.2-3.8 3.4-7.5 2.6-2.7 4.9-6.3 6.1-9.8 2.2-6.6 13.7-45.1 17.6-58.9 1.4-5.2 5-15.6 8-23 2.9-7.4 5.6-14.7 6-16.1C80.3 45.8 91.4 38 99.8 38c2.5 0 6.3.5 8.5 1.2"/>
        <path d="M94.5 54c-7.8 5.8-8.1 6.2-11.9 15.2-3.7 8.8-6.3 17-14.2 44.3-3.7 12.6-3.7 13-1.2 28.3.9 5.7 1.6 7 6.5 12.3 3 3.2 5.8 5.9 6.2 5.9s1.5-2.6 2.5-5.8c1-3.1 3.8-10 6.2-15.3s4.4-10.4 4.4-11.4c0-.9-.7-4.4-1.5-7.6-3.2-12.1 2-27.9 12.4-37.9 8.6-8.2 12-18.5 8.7-26.3-1.6-3.9-4.2-6.3-7.6-7.1-2-.5-4.1.6-10.5 5.4M149 42.7c0 .5.7 3 1.6 5.8.9 2.7 1.7 9 1.7 13.8.2 8.5.3 8.8 2.7 9.3 9.8 1.9 18.4 10 24.7 23.1 5.1 10.6 6.1 18.2 3.9 28-2.6 11-5.7 16.5-13.9 24.6-14.5 14.1-15.5 14.4-43.4 12.3l-5.1-.4-2.6 8c-2.5 8-2.6 8-.8 13.9.9 3.2 2.3 6.1 3 6.4.7.2 8.3.5 17 .5 12.9.1 17.1-.2 23.6-1.9 9.6-2.5 10.2-2.9 22.7-14.2 11.4-10.5 19-20.1 22-27.9 3.5-9.2 6.9-23.9 6.9-29.9 0-7.1-3.1-20.1-6.9-29.1-2.7-6.2-2.8-7-1.4-8.2.9-.7 2.5-3.2 3.5-5.5 2.4-5.5 1.6-10.1-2.4-14-2.6-2.5-3.7-2.8-9.2-2.8-3.8 0-7 .6-7.9 1.4-1.4 1.1-2.1.9-4.9-1.2-5.8-4.3-15.6-8.7-23-10.2-4-.8-8.3-1.7-9.5-2-1.3-.3-2.3-.2-2.3.2m50.5 20.8c3.1 3 3.1 4.7.3 8-3 3.4-9.1 4.5-11.8 2-3.6-3.3-2.1-8 3.6-11 3.9-2 5.1-1.9 7.9 1"/>
        <path d="M218.5 53.3c2.4 3.7 3.6 12 2.5 17.8-.8 4-.6 6.1.6 10 1 3 1.4 6.6 1.1 9.1-.3 2.2.1 7 .9 10.7 2.2 10.4 1.8 19.4-1.5 32.4-1.6 6.4-4.3 14.5-6.1 18.1-3.5 7.5-12.1 18.7-20.3 26.4-6.1 5.7-7.9 10.3-5.8 14.8 1.7 3.9 1.3 6.9-1.4 9.2-1.4 1.2-2.5 2.9-2.5 3.7 0 2.8-7 9.2-13.1 11.9-5.1 2.4-6.8 2.7-11.2 2.1-10.3-1.4-14.9-5.1-17.9-14.5l-1.5-4.5-8.7-.3-8.8-.3.7 4.3c2.5 14.8 12.8 28.4 24 31.8 2.5.7 8.3 1.1 14.6.8 9.4-.3 11.1-.6 17.1-3.6 8.4-4.1 16.2-11.1 19.4-17.3 1.6-3.3 3.2-5.1 4.9-5.5 4.8-1.2 5.5-3.7 3.2-11-2.1-6.3-2.1-6.7-.5-12.9 1-3.6 3.8-11.3 6.4-17.1 5.4-12.4 5.3-12.3 10.3-31.9 2.3-9.1 5.6-18.9 8.4-25 5.8-12.7 8.1-21.3 7.3-27.6-1.7-12.5-8.3-24.4-16.9-30.3-6.1-4.2-7.3-4.5-5.2-1.3m-62.3 41.4c-1.7 4.3-4.6 13.6-6.6 20.8-1.9 7.1-4.8 17.3-6.4 22.5l-3 9.5 2.5.7c4.3 1.2 7.9-.2 13.6-5.2 5.8-5.3 5.3-4 12.2-29.1l2.7-9.7-2.2-4.3c-2.5-4.9-8.1-12.8-9.2-12.9-.3 0-2 3.5-3.6 7.7"/>
    </g>
</svg>
