<?xml version="1.0" standalone="no"?>
<!DOCTYPE svg PUBLIC "-//W3C//DTD SVG 20010904//EN"
 "http://www.w3.org/TR/2001/REC-SVG-20010904/DTD/svg10.dtd">
<svg version="1.0" xmlns="http://www.w3.org/2000/svg"
 width="256.000000pt" height="256.000000pt" viewBox="0 0 256.000000 256.000000"
 preserveAspectRatio="xMidYMid meet">
<metadata>
Created by potrace 1.16, written by Peter Selinger 2001-2019
</metadata>
<g transform="translate(0.000000,256.000000) scale(0.100000,-0.100000)"
fill="#f2f2f2" stroke="none">
<path d="M862 2345 c-112 -44 -194 -114 -232 -199 -56 -123 -142 -358 -175
-476 -20 -74 -70 -245 -111 -380 -62 -203 -79 -249 -102 -269 -15 -12 -42 -36
-59 -51 -18 -16 -33 -33 -33 -38 0 -5 11 -25 24 -45 21 -31 23 -41 15 -69 -35
-124 20 -299 130 -408 78 -78 125 -93 280 -89 115 4 120 5 196 44 92 46 177
124 205 187 14 33 29 48 60 62 47 21 49 32 21 124 l-20 64 24 84 c14 46 44
127 68 181 54 120 57 129 106 325 22 87 56 195 77 240 92 206 109 294 80 405
-37 138 -118 243 -231 298 -52 26 -73 30 -160 32 -87 3 -108 0 -163 -22z m221
-177 c58 -17 110 -72 136 -143 30 -80 25 -127 -29 -245 -57 -127 -84 -208
-126 -379 -19 -79 -54 -186 -78 -240 -23 -53 -60 -146 -81 -208 -36 -101 -38
-115 -27 -146 17 -47 15 -84 -6 -99 -10 -7 -29 -34 -41 -61 -36 -75 -137 -137
-223 -137 -114 0 -178 39 -219 133 -17 42 -20 61 -14 107 8 66 8 84 -1 128 -6
30 -2 38 34 75 26 27 49 63 61 98 22 66 137 451 176 589 14 52 50 156 80 230
29 74 56 147 60 161 18 71 129 149 213 149 25 0 63 -5 85 -12z"/>
<path d="M945 2020 c-78 -58 -81 -62 -119 -152 -37 -88 -63 -170 -142 -443
-37 -126 -37 -130 -12 -283 9 -57 16 -70 65 -123 30 -32 58 -59 62 -59 4 0 15
26 25 58 10 31 38 100 62 153 24 53 44 104 44 114 0 9 -7 44 -15 76 -32 121
20 279 124 379 86 82 120 185 87 263 -16 39 -42 63 -76 71 -20 5 -41 -6 -105
-54z"/>
<path d="M1490 2133 c0 -5 7 -30 16 -58 9 -27 17 -90 17 -138 2 -85 3 -88 27
-93 98 -19 184 -100 247 -231 51 -106 61 -182 39 -280 -26 -110 -57 -165 -139
-246 -145 -141 -155 -144 -434 -123 l-51 4 -26 -80 c-25 -80 -26 -80 -8 -139
9 -32 23 -61 30 -64 7 -2 83 -5 170 -5 129 -1 171 2 236 19 96 25 102 29 227
142 114 105 190 201 220 279 35 92 69 239 69 299 0 71 -31 201 -69 291 -27 62
-28 70 -14 82 9 7 25 32 35 55 24 55 16 101 -24 140 -26 25 -37 28 -92 28 -38
0 -70 -6 -79 -14 -14 -11 -21 -9 -49 12 -58 43 -156 87 -230 102 -40 8 -83 17
-95 20 -13 3 -23 2 -23 -2z m505 -208 c31 -30 31 -47 3 -80 -30 -34 -91 -45
-118 -20 -36 33 -21 80 36 110 39 20 51 19 79 -10z"/>
<path d="M2185 2027 c24 -37 36 -120 25 -178 -8 -40 -6 -61 6 -100 10 -30 14
-66 11 -91 -3 -22 1 -70 9 -107 22 -104 18 -194 -15 -324 -16 -64 -43 -145
-61 -181 -35 -75 -121 -187 -203 -264 -61 -57 -79 -103 -58 -148 17 -39 13
-69 -14 -92 -14 -12 -25 -29 -25 -37 0 -28 -70 -92 -131 -119 -51 -24 -68 -27
-112 -21 -103 14 -149 51 -179 145 l-15 45 -87 3 -88 3 7 -43 c25 -148 128
-284 240 -318 25 -7 83 -11 146 -8 94 3 111 6 171 36 84 41 162 111 194 173
16 33 32 51 49 55 48 12 55 37 32 110 -21 63 -21 67 -5 129 10 36 38 113 64
171 54 124 53 123 103 319 23 91 56 189 84 250 58 127 81 213 73 276 -17 125
-83 244 -169 303 -61 42 -73 45 -52 13z"/>
<path d="M1562 1613 c-17 -43 -46 -136 -66 -208 -19 -71 -48 -173 -64 -225
l-30 -95 25 -7 c43 -12 79 2 136 52 58 53 53 40 122 291 l27 97 -22 43 c-25
49 -81 128 -92 129 -3 0 -20 -35 -36 -77z"/>
</g>
</svg>
