<?xml version="1.0" standalone="no"?>
<!DOCTYPE svg PUBLIC "-//W3C//DTD SVG 20010904//EN"
 "http://www.w3.org/TR/2001/REC-SVG-20010904/DTD/svg10.dtd">
<svg version="1.0" xmlns="http://www.w3.org/2000/svg"
 width="256.000000pt" height="256.000000pt" viewBox="0 0 256.000000 256.000000"
 preserveAspectRatio="xMidYMid meet">
<metadata>
Created by potrace 1.16, written by Peter Selinger 2001-2019
</metadata>
<g transform="translate(0.000000,256.000000) scale(0.100000,-0.100000)"
fill="#f2f2f2" stroke="none">
<path d="M1270 2334 c0 -37 -70 -144 -148 -226 -170 -178 -460 -385 -804 -572
-48 -26 -90 -52 -93 -56 -16 -26 -24 -181 -14 -279 25 -270 133 -522 300 -706
76 -82 78 -67 4 30 -156 205 -210 417 -147 583 33 85 78 134 177 194 50 30
235 144 413 252 l323 197 297 -180 c563 -339 532 -319 579 -388 51 -77 67
-147 60 -263 -8 -134 -72 -279 -184 -416 -59 -73 -45 -84 18 -14 141 158 249
378 290 590 14 71 18 340 7 380 -6 19 -38 42 -134 95 -157 87 -355 212 -488
309 -221 161 -350 294 -409 418 -31 67 -47 84 -47 52z"/>
<path d="M1256 1513 c-42 -100 -227 -255 -503 -420 -76 -45 -146 -88 -156 -95
-16 -11 -19 -27 -18 -113 1 -199 49 -340 173 -502 60 -78 65 -64 8 20 -64 94
-90 170 -90 259 0 82 31 152 82 191 62 46 516 317 531 317 8 0 73 -36 143 -79
71 -44 192 -117 269 -164 133 -80 141 -87 169 -140 15 -30 31 -75 33 -100 10
-84 -30 -198 -104 -300 -51 -69 -33 -69 21 0 64 80 123 198 146 290 24 93 35
223 23 277 -8 37 -15 43 -144 121 -74 44 -177 110 -229 145 -117 80 -280 239
-305 298 -11 23 -21 42 -24 42 -3 0 -15 -21 -25 -47z"/>
<path d="M1270 1006 c0 -51 -162 -190 -348 -299 l-104 -61 4 -105 c4 -99 7
-112 45 -191 42 -86 86 -150 97 -139 4 3 -9 29 -28 58 -66 98 -69 213 -6 270
15 14 101 70 190 124 l162 98 178 -108 c201 -121 220 -141 220 -231 0 -56 -18
-107 -62 -170 -40 -58 -29 -65 15 -10 65 81 105 184 114 299 7 92 -2 111 -65
143 -149 76 -355 241 -382 307 -13 30 -30 39 -30 15z"/>
</g>
</svg>
