<svg xmlns="http://www.w3.org/2000/svg" width="170.667" height="170.667" version="1.0" viewBox="0 0 128 128">
    <path fill="#e5e5e5" d="m36.5 23-9 9 6.8 6.7 6.7 6.8 9.2-9.2 9.3-9.3-6.5-6.5c-3.5-3.6-6.7-6.5-7-6.5s-4.6 4.1-9.5 9M75 20.5 68.5 27l9.3 9.3 9.2 9.2 6.7-6.8 6.8-6.7-9-9c-4.9-4.9-9.2-9-9.5-9s-3.5 2.9-7 6.5M42.7 52.8 22 73.5l8.5 8.5c4.6 4.6 8.6 8.2 8.8 7.9.2-.2 4.4-7.2 9.2-15.4 9.4-16.1 11.7-19.3 9-13-.9 2.2-4.4 10.7-7.6 18.9l-6 15 10 10L64 115.5l21-21 21-21-8.7-8.7c-4.8-4.9-9.1-8.8-9.5-8.8-.3 0-4.8 7-9.8 15.5C72.9 80 68.6 87 68.4 87c-.4 0 .8-3.2 8.7-22.5l5.8-14-9.2-9.3c-5-5-9.4-9.2-9.7-9.2s-9.9 9.3-21.3 20.8m-29.5-6.5L4 55.5l6.8 6.8 6.7 6.7 9.5-9.5 9.5-9.5-6.5-6.5c-3.5-3.6-6.7-6.5-7-6.5s-4.7 4.2-9.8 9.3M98 43.5 91.5 50l9.5 9.5 9.5 9.5 6.7-6.7 6.8-6.8-9.2-9.2c-5.1-5.1-9.5-9.3-9.8-9.3s-3.5 2.9-7 6.5"/>
</svg>
