<?xml version="1.0" standalone="no"?>
<!DOCTYPE svg PUBLIC "-//W3C//DTD SVG 20010904//EN"
 "http://www.w3.org/TR/2001/REC-SVG-20010904/DTD/svg10.dtd">
<svg version="1.0" xmlns="http://www.w3.org/2000/svg"
 width="128.000000pt" height="128.000000pt" viewBox="0 0 128.000000 128.000000"
 preserveAspectRatio="xMidYMid meet">
<metadata>
Created by potrace 1.16, written by Peter Selinger 2001-2019
</metadata>
<g transform="translate(0.000000,128.000000) scale(0.100000,-0.100000)"
fill="#f2f2f2" stroke="none">
<path d="M332 1063 c-71 -35 -112 -127 -92 -204 6 -22 26 -57 44 -77 26 -30
31 -42 25 -62 -9 -31 -11 -133 -3 -154 4 -11 11 -13 28 -5 18 8 21 17 18 45
-2 19 -1 54 2 78 7 44 7 45 42 39 47 -8 116 20 153 63 35 40 55 104 47 149 -9
46 -57 109 -99 128 -44 21 -122 21 -165 0z"/>
<path d="M781 1063 c-40 -20 -88 -83 -97 -128 -8 -45 12 -109 47 -149 37 -43
106 -71 153 -63 35 6 35 5 42 -39 3 -24 4 -59 2 -78 -3 -28 0 -37 18 -45 17
-8 24 -6 28 5 8 21 6 123 -3 154 -6 20 -1 32 25 62 18 20 38 55 44 77 21 77
-22 171 -93 205 -45 21 -122 20 -166 -1z"/>
<path d="M620 955 c0 -18 5 -25 20 -25 15 0 20 7 20 25 0 18 -5 25 -20 25 -15
0 -20 -7 -20 -25z"/>
<path d="M354 539 c-42 -12 -100 -78 -114 -128 -13 -51 -1 -110 33 -155 69
-90 220 -88 285 3 24 34 29 36 82 36 53 0 58 -2 82 -36 65 -91 216 -93 285 -3
58 77 50 170 -21 240 -52 53 -112 66 -181 40 -67 -26 -125 -105 -125 -173 0
-15 -35 -26 -60 -18 -11 3 -20 12 -20 18 0 32 -23 90 -47 118 -49 58 -125 80
-199 58z"/>
</g>
</svg>
