<?xml version="1.0" standalone="no"?>
<!DOCTYPE svg PUBLIC "-//W3C//DTD SVG 20010904//EN"
 "http://www.w3.org/TR/2001/REC-SVG-20010904/DTD/svg10.dtd">
<svg version="1.0" xmlns="http://www.w3.org/2000/svg"
 width="128.000000pt" height="128.000000pt" viewBox="0 0 128.000000 128.000000"
 preserveAspectRatio="xMidYMid meet">
<metadata>
Created by potrace 1.16, written by Peter Selinger 2001-2019
</metadata>
<g transform="translate(0.000000,128.000000) scale(0.100000,-0.100000)"
fill="#f2f2f2" stroke="none">
<path d="M412 973 c8 -10 61 -71 116 -136 56 -65 102 -121 102 -125 0 -5 -77
-42 -170 -83 l-170 -76 172 -201 c95 -110 175 -201 178 -201 3 0 83 91 178
201 l172 201 -170 76 c-93 41 -170 78 -170 83 0 4 46 60 102 125 55 65 108
126 116 136 14 16 3 17 -228 17 -231 0 -242 -1 -228 -17z"/>
<path d="M50 836 c0 -5 89 -110 154 -183 9 -10 48 -4 179 26 92 21 170 40 172
43 3 2 -100 28 -228 57 -127 29 -242 55 -254 58 -13 3 -23 2 -23 -1z"/>
<path d="M963 782 c-134 -30 -241 -58 -238 -60 2 -3 80 -22 172 -43 131 -30
170 -36 179 -26 59 66 154 178 154 182 0 8 -18 5 -267 -53z"/>
</g>
</svg>
