<?xml version="1.0" standalone="no"?>
<!DOCTYPE svg PUBLIC "-//W3C//DTD SVG 20010904//EN"
 "http://www.w3.org/TR/2001/REC-SVG-20010904/DTD/svg10.dtd">
<svg version="1.0" xmlns="http://www.w3.org/2000/svg"
 width="128.000000pt" height="128.000000pt" viewBox="0 0 128.000000 128.000000"
 preserveAspectRatio="xMidYMid meet">
<metadata>
Created by potrace 1.16, written by Peter Selinger 2001-2019
</metadata>
<g transform="translate(0.000000,128.000000) scale(0.100000,-0.100000)"
fill="#f2f2f2" stroke="none">
<path d="M557 1105 c-74 -28 -294 -219 -284 -248 5 -15 609 -516 622 -517 6 0
32 21 57 47 76 77 94 145 63 234 -14 39 -14 47 0 81 30 75 12 153 -48 216 -59
62 -205 172 -247 187 -52 18 -113 18 -163 0z m207 -117 c26 -17 74 -56 107
-87 53 -51 59 -61 59 -97 0 -47 -22 -85 -40 -68 -8 8 -8 18 1 37 6 14 9 37 5
50 -6 25 -124 128 -178 154 -41 21 -91 11 -143 -29 l-43 -33 21 -22 c24 -27
40 -29 57 -8 7 8 19 15 26 15 7 0 81 -54 163 -121 153 -123 191 -169 191 -230
-1 -60 -12 -54 -256 147 -131 108 -243 200 -249 206 -10 9 20 37 98 91 57 39
118 37 181 -5z"/>
<path d="M306 687 c-74 -96 -73 -201 2 -281 55 -59 223 -185 259 -195 85 -24
171 -4 238 54 l40 35 -35 31 c-88 77 -97 82 -122 65 -46 -32 -69 -22 -222 102
-80 64 -145 122 -146 129 0 6 11 25 25 41 18 22 21 32 13 40 -18 18 -25 15
-52 -21z"/>
</g>
</svg>
