<?xml version="1.0" standalone="no"?>
<!DOCTYPE svg PUBLIC "-//W3C//DTD SVG 20010904//EN"
 "http://www.w3.org/TR/2001/REC-SVG-20010904/DTD/svg10.dtd">
<svg version="1.0" xmlns="http://www.w3.org/2000/svg"
 width="128.000000pt" height="128.000000pt" viewBox="0 0 128.000000 128.000000"
 preserveAspectRatio="xMidYMid meet">
<metadata>
Created by potrace 1.16, written by Peter Selinger 2001-2019
</metadata>
<g transform="translate(0.000000,128.000000) scale(0.100000,-0.100000)"
fill="#f2f2f2" stroke="none">
<path d="M365 1050 l-90 -90 68 -67 67 -68 92 92 93 93 -65 65 c-35 36 -67 65
-70 65 -3 0 -46 -41 -95 -90z"/>
<path d="M750 1075 l-65 -65 93 -93 92 -92 67 68 68 67 -90 90 c-49 49 -92 90
-95 90 -3 0 -35 -29 -70 -65z"/>
<path d="M427 752 l-207 -207 85 -85 c46 -46 86 -82 88 -79 2 2 44 72 92 154
94 161 117 193 90 130 -9 -22 -44 -107 -76 -189 l-60 -150 100 -100 101 -101
210 210 210 210 -87 87 c-48 49 -91 88 -95 88 -3 0 -48 -70 -98 -155 -51 -85
-94 -155 -96 -155 -4 0 8 32 87 225 l58 140 -92 93 c-50 50 -94 92 -97 92 -3
0 -99 -93 -213 -208z"/>
<path d="M132 817 l-92 -92 68 -68 67 -67 95 95 95 95 -65 65 c-35 36 -67 65
-70 65 -3 0 -47 -42 -98 -93z"/>
<path d="M980 845 l-65 -65 95 -95 95 -95 67 67 68 68 -92 92 c-51 51 -95 93
-98 93 -3 0 -35 -29 -70 -65z"/>
</g>
</svg>
