<?xml version="1.0" standalone="no"?>
<!DOCTYPE svg PUBLIC "-//W3C//DTD SVG 20010904//EN"
 "http://www.w3.org/TR/2001/REC-SVG-20010904/DTD/svg10.dtd">
<svg version="1.0" xmlns="http://www.w3.org/2000/svg"
 width="256.000000pt" height="256.000000pt" viewBox="0 0 256.000000 256.000000"
 preserveAspectRatio="xMidYMid meet">
<metadata>
Created by potrace 1.16, written by Peter Selinger 2001-2019
</metadata>
<g transform="translate(0.000000,256.000000) scale(0.100000,-0.100000)"
fill="#f2f2f2" stroke="none">
<path d="M1191 2374 c-114 -57 -158 -195 -98 -310 18 -36 76 -89 106 -99 19
-6 21 -14 21 -98 l-1 -92 -318 -179 -318 -180 -7 -165 c-3 -90 -6 -260 -6
-377 l0 -213 -76 -45 -77 -44 -34 21 c-113 66 -258 24 -317 -94 -59 -120 -9
-255 116 -309 129 -55 271 18 308 159 6 24 9 59 5 77 -6 32 -4 34 64 73 38 23
75 41 81 41 6 0 155 -83 330 -185 l319 -186 326 186 c179 102 328 185 331 185
3 0 37 -18 75 -41 68 -39 70 -41 64 -73 -15 -76 36 -178 109 -221 156 -91 346
20 346 202 0 55 -44 139 -92 173 -72 53 -174 58 -251 13 l-34 -21 -77 44 -76
45 0 373 0 373 -325 189 -325 189 0 67 c0 36 -3 73 -6 81 -3 10 9 22 41 37
105 51 155 189 106 295 -53 118 -193 167 -310 109z m140 -64 c116 -32 135
-189 29 -249 -47 -26 -80 -27 -128 -2 -47 24 -72 67 -72 125 0 67 53 122 130
135 3 1 21 -4 41 -9z m267 -819 l282 -164 -2 -335 -3 -335 -245 -139 c-135
-77 -251 -142 -257 -145 -10 -4 -13 23 -13 115 l0 120 149 83 148 82 6 126 c4
69 7 167 7 216 l0 90 -186 109 c-161 94 -188 107 -207 98 -12 -6 -96 -53 -187
-104 l-165 -93 -3 -215 -2 -216 150 -88 150 -88 0 -119 c0 -65 -2 -119 -4
-119 -3 0 -117 66 -255 146 l-251 146 0 336 0 337 288 163 c158 89 294 161
303 160 8 -2 142 -77 297 -167z m-187 -299 l114 -68 0 -138 0 -138 -110 -64
c-60 -34 -116 -63 -124 -63 -7 -1 -65 29 -127 65 l-114 66 0 137 0 137 118 66
c64 37 120 67 123 67 3 1 57 -30 120 -67z m-1085 -678 c68 -33 95 -125 54
-191 -28 -46 -72 -66 -134 -60 -41 4 -55 10 -83 41 -27 29 -33 44 -33 81 0
113 97 176 196 129z m2055 1 c43 -23 69 -71 69 -128 0 -40 -5 -53 -33 -83 -60
-66 -171 -56 -217 19 -71 116 60 254 181 192z"/>
</g>
</svg>
