<svg xmlns="http://www.w3.org/2000/svg" width="341.333" height="341.333" version="1.0" viewBox="0 0 256 256">
    <path fill="#e5e5e5" d="M119.1 18.6c-11.4 5.7-15.8 19.5-9.8 31 1.8 3.6 7.6 8.9 10.6 9.9 1.9.6 2.1 1.4 2.1 9.8l-.1 9.2-31.8 17.9-31.8 18-.7 16.5c-.3 9-.6 26-.6 37.7v21.3l-7.6 4.5-7.7 4.4-3.4-2.1c-11.3-6.6-25.8-2.4-31.7 9.4-5.9 12-.9 25.5 11.6 30.9 12.9 5.5 27.1-1.8 30.8-15.9.6-2.4.9-5.9.5-7.7-.6-3.2-.4-3.4 6.4-7.3 3.8-2.3 7.5-4.1 8.1-4.1s15.5 8.3 33 18.5l31.9 18.6 32.6-18.6c17.9-10.2 32.8-18.5 33.1-18.5s3.7 1.8 7.5 4.1c6.8 3.9 7 4.1 6.4 7.3-1.5 7.6 3.6 17.8 10.9 22.1 15.6 9.1 34.6-2 34.6-20.2 0-5.5-4.4-13.9-9.2-17.3-7.2-5.3-17.4-5.8-25.1-1.3l-3.4 2.1-7.7-4.4-7.6-4.5v-74.6l-32.5-18.9L136 77.5v-6.7c0-3.6-.3-7.3-.6-8.1-.3-1 .9-2.2 4.1-3.7 10.5-5.1 15.5-18.9 10.6-29.5-5.3-11.8-19.3-16.7-31-10.9m14 6.4c11.6 3.2 13.5 18.9 2.9 24.9-4.7 2.6-8 2.7-12.8.2-4.7-2.4-7.2-6.7-7.2-12.5 0-6.7 5.3-12.2 13-13.5.3-.1 2.1.4 4.1.9m26.7 81.9 28.2 16.4-.2 33.5-.3 33.5-24.5 13.9c-13.5 7.7-25.1 14.2-25.7 14.5-1 .4-1.3-2.3-1.3-11.5v-12l14.9-8.3 14.8-8.2.6-12.6c.4-6.9.7-16.7.7-21.6v-9l-18.6-10.9c-16.1-9.4-18.8-10.7-20.7-9.8-1.2.6-9.6 5.3-18.7 10.4l-16.5 9.3-.3 21.5-.2 21.6 15 8.8 15 8.8v11.9c0 6.5-.2 11.9-.4 11.9-.3 0-11.7-6.6-25.5-14.6L71 189.8v-67.3l28.8-16.3c15.8-8.9 29.4-16.1 30.3-16 .8.2 14.2 7.7 29.7 16.7m-18.7 29.9 11.4 6.8v27.6l-11 6.4c-6 3.4-11.6 6.3-12.4 6.3-.7.1-6.5-2.9-12.7-6.5l-11.4-6.6v-27.4l11.8-6.6c6.4-3.7 12-6.7 12.3-6.7.3-.1 5.7 3 12 6.7M32.6 204.6c6.8 3.3 9.5 12.5 5.4 19.1-2.8 4.6-7.2 6.6-13.4 6-4.1-.4-5.5-1-8.3-4.1-2.7-2.9-3.3-4.4-3.3-8.1 0-11.3 9.7-17.6 19.6-12.9m205.5-.1c4.3 2.3 6.9 7.1 6.9 12.8 0 4-.5 5.3-3.3 8.3-6 6.6-17.1 5.6-21.7-1.9-7.1-11.6 6-25.4 18.1-19.2"/>
</svg>
