<svg xmlns="http://www.w3.org/2000/svg" width="341.333" height="341.333" version="1.0" viewBox="0 0 256 256">
    <g fill="#e5e5e5">
        <path d="M81.7 31.3c-7.8 7.4-9.7 9.8-9.7 12 0 2 .7 3 2.5 3.7 2.4.9 2.5 1.3 2.5 8.9 0 5.8-.4 8.2-1.5 9.1-.8.7-1.5 2.5-1.5 4.1 0 3.4 1.1 3.8 12 4.1l7.5.3.3 5.2c.3 5.3.3 5.3-2.7 5.3-1.9 0-4-.9-5.5-2.5-2.4-2.4-2.9-2.5-16.1-2.5-11.1 0-13.7.3-14.1 1.5-.5 1.1-2.1 1.5-6 1.5H44v-3.3c0-4.4-1.5-5.7-6.6-5.7-3.7 0-4.6.5-7.3 3.9L27 80.8v36.8l3.4 3.7c2.8 3.1 4 3.7 7.4 3.7 2.3 0 4.4-.5 4.8-1.1s.8-4.6.9-8.8l.2-7.6 7.2-.3c4.4-.2 7.8.2 8.6.8.8.7 1.5 3.6 1.7 6.8l.3 5.7 7.5.3c10 .4 11.2 0 14.6-5 2.3-3.4 3-5.7 3.4-11.3.5-6.7.6-7 3.1-7.3 2.1-.2 3.3.5 5.8 3.9 2.7 3.8 3.1 5.1 3.1 10.9 0 3.6.5 7.1 1.1 7.7.5.5.9 3 .7 5.4-.3 4.1-.5 4.4-3.2 4.4-2 0-3.1.6-3.7 2-.4 1.1-.8 8.5-.8 16.5-.1 15.5.3 17 4.6 17 3.2 0 2.9 2-1 6.6-7.1 8.4-6.7 6.4-6.7 33.6V230h3.9c3.1 0 4.1.4 4.6 2 .5 1.7 1.5 2 6 2 4.4 0 5.3-.3 5.8-2 .4-1.5 1.4-2 4.1-2h3.6v-25.8c0-23.7-.2-25.9-2-28.9-1-1.7-2.8-3.7-3.9-4.3-1.2-.6-2.1-2.1-2.1-3.5 0-2 .6-2.4 3.3-2.7l3.2-.3v-35l-2.7-.3c-2.6-.3-2.8-.6-2.8-5.3 0-4.5.2-4.9 2.4-4.9 1.3 0 3.5.9 4.9 2 2 1.6 4 2 10.5 2 6.4 0 8.4-.4 10.5-2 1.4-1.1 3.5-2 4.6-2 1.8 0 2.1.6 2.1 4.9 0 4.7-.2 5-2.7 5.3l-2.8.3-.3 15.5c-.3 18.9-.1 20 3.8 20 2.5 0 3 .4 3 2.4 0 1.4-.9 3.1-2.1 4-1.2.8-3 2.8-4 4.3-1.7 2.5-1.9 5.2-1.9 28.5V230h4c3.3 0 4 .3 4 2 0 1.8.7 2 5.9 2 5 0 5.9-.3 6.4-2 .4-1.5 1.4-2 4.1-2h3.6v-24.6c0-16.5-.4-25.2-1.1-26.7-.7-1.2-2.9-4.3-5-6.8-4.5-5.4-4.8-6.9-1.6-6.9 4.3 0 4.7-1.5 4.7-18.1 0-16.8-.5-18.4-4.9-17.2l-2.3.6.7-12.4c.7-11.6 1-12.7 3.8-16.7 2.3-3.2 3.7-4.2 5.9-4.2 2.8 0 2.8 0 2.8 6.7 0 5.9.4 7.2 3.3 11.5 1.7 2.6 4.1 5.1 5.2 5.4s5.4.4 9.5.2l7.5-.3.3-5.7c.2-3.2.9-6.1 1.7-6.8.8-.6 4.2-1 8.7-.8l7.3.3.3 8c.3 8.7.8 9.5 6.1 9.5 2.6 0 4.1-.8 6.7-3.6l3.4-3.5V80.5l-3.1-3.8c-2.7-3.3-3.6-3.7-7.5-3.7-4.8 0-5.6.9-5.8 5.9-.1 2.5-.4 2.6-5.8 2.9-4.7.2-5.8 0-5.8-1.3s-2-1.5-13.9-1.5c-13.3 0-13.9.1-16.5 2.5-1.6 1.5-3.9 2.5-5.7 2.5-3 0-3 0-2.7-5.3l.3-5.2 9.3-.5c11.4-.6 12.9-2 8.9-8.1-1.4-2.1-1.7-4.3-1.5-10 .3-6.8.5-7.4 2.6-7.7 1.8-.3 2.2-1 2.2-3.7 0-2.9-1.2-4.4-9.7-12.4l-9.8-9h-74z"/>
        <path d="M46.9 110.4c-.2.2-.2 6.9.1 14.8l.5 14.3-5.7 18.5c-3.2 10.2-5.8 19.5-5.8 20.6 0 1.2-.7 2.4-1.5 2.8-1.2.4-1.5 2.5-1.5 9.7v9.1l4.3 5.9c4.8 6.6 5.8 7.3 8.3 5.4 1.8-1.2 1.7-1.7-1.7-8.3l-3.6-7.1 2.6-2.5c1.5-1.4 3-2.6 3.3-2.6s2.8 2.7 5.5 6c2.6 3.3 5.1 6 5.4 6s1.4-.6 2.4-1.4c1.7-1.2 1.4-2-6-12l-7.8-10.7 5.9-18.7 5.9-18.7.3-15.8.3-15.7h-5.4c-2.9 0-5.6.2-5.8.4m152.8.3c-.4.3-.7 6.6-.7 14V138l6.1 20.1c3.3 11.1 5.8 20.7 5.6 21.3-.3.7-3.7 5.7-7.7 11.1-6.6 9.1-7 10-5.4 11.2 1 .7 2.1 1.3 2.4 1.3.4 0 2.9-2.7 5.5-6s5.1-6 5.4-6 1.8 1.2 3.4 2.5l2.8 2.5-3.1 5.9c-3.4 6.9-3.8 9.6-1.3 10.5 1.8.7 2.8-.2 8.3-8.1 2.8-3.9 3-4.8 3-13.1 0-6.7-.4-9.3-1.5-10.2-.8-.7-1.3-1.5-1-1.9.2-.4-2.5-9.5-5.9-20.2-4.4-13.3-6.1-19.9-5.5-21.1.5-.9.9-7.5.9-14.7V110h-5.3c-3 0-5.7.3-6 .7"/>
    </g>
</svg>
