<?xml version="1.0" standalone="no"?>
<!DOCTYPE svg PUBLIC "-//W3C//DTD SVG 20010904//EN"
 "http://www.w3.org/TR/2001/REC-SVG-20010904/DTD/svg10.dtd">
<svg version="1.0" xmlns="http://www.w3.org/2000/svg"
 width="256.000000pt" height="256.000000pt" viewBox="0 0 256.000000 256.000000"
 preserveAspectRatio="xMidYMid meet">
<metadata>
Created by potrace 1.16, written by Peter Selinger 2001-2019
</metadata>
<g transform="translate(0.000000,256.000000) scale(0.100000,-0.100000)"
fill="#f2f2f2" stroke="none">
<path d="M817 2247 c-78 -74 -97 -98 -97 -120 0 -20 7 -30 25 -37 24 -9 25
-13 25 -89 0 -58 -4 -82 -15 -91 -8 -7 -15 -25 -15 -41 0 -34 11 -38 120 -41
l75 -3 3 -52 c3 -53 3 -53 -27 -53 -19 0 -40 9 -55 25 -24 24 -29 25 -161 25
-111 0 -137 -3 -141 -15 -5 -11 -21 -15 -60 -15 l-54 0 0 33 c0 44 -15 57 -66
57 -37 0 -46 -5 -73 -39 l-31 -39 0 -184 0 -184 34 -37 c28 -31 40 -37 74 -37
23 0 44 5 48 11 4 6 8 46 9 88 l2 76 72 3 c44 2 78 -2 86 -8 8 -7 15 -36 17
-68 l3 -57 75 -3 c100 -4 112 0 146 50 23 34 30 57 34 113 5 67 6 70 31 73 21
2 33 -5 58 -39 27 -38 31 -51 31 -109 0 -36 5 -71 11 -77 5 -5 9 -30 7 -54 -3
-41 -5 -44 -32 -44 -20 0 -31 -6 -37 -20 -4 -11 -8 -85 -8 -165 -1 -155 3
-170 46 -170 32 0 29 -20 -10 -66 -71 -84 -67 -64 -67 -336 l0 -248 39 0 c31
0 41 -4 46 -20 5 -17 15 -20 60 -20 44 0 53 3 58 20 4 15 14 20 41 20 l36 0 0
258 c0 237 -2 259 -20 289 -10 17 -28 37 -39 43 -12 6 -21 21 -21 35 0 20 6
24 33 27 l32 3 0 175 0 175 -27 3 c-26 3 -28 6 -28 53 0 45 2 49 24 49 13 0
35 -9 49 -20 20 -16 40 -20 105 -20 64 0 84 4 105 20 14 11 35 20 46 20 18 0
21 -6 21 -49 0 -47 -2 -50 -27 -53 l-28 -3 -3 -155 c-3 -189 -1 -200 38 -200
25 0 30 -4 30 -24 0 -14 -9 -31 -21 -40 -12 -8 -30 -28 -40 -43 -17 -25 -19
-52 -19 -285 l0 -258 40 0 c33 0 40 -3 40 -20 0 -18 7 -20 59 -20 50 0 59 3
64 20 4 15 14 20 41 20 l36 0 0 246 c0 165 -4 252 -11 267 -7 12 -29 43 -50
68 -45 54 -48 69 -16 69 43 0 47 15 47 181 0 168 -5 184 -49 172 l-23 -6 7
124 c7 116 10 127 38 167 23 32 37 42 59 42 28 0 28 0 28 -67 0 -59 4 -72 33
-115 17 -26 41 -51 52 -54 11 -3 54 -4 95 -2 l75 3 3 57 c2 32 9 61 17 68 8 6
42 10 87 8 l73 -3 3 -80 c3 -87 8 -95 61 -95 26 0 41 8 67 36 l34 35 0 187 0
187 -31 38 c-27 33 -36 37 -75 37 -48 0 -56 -9 -58 -59 -1 -25 -4 -26 -58 -29
-47 -2 -58 0 -58 13 0 13 -20 15 -139 15 -133 0 -139 -1 -165 -25 -16 -15 -39
-25 -57 -25 -30 0 -30 0 -27 53 l3 52 93 5 c114 6 129 20 89 81 -14 21 -17 43
-15 100 3 68 5 74 26 77 18 3 22 10 22 37 0 29 -12 44 -97 124 l-98 90 -370 0
-370 0 -98 -92z"/>
<path d="M469 1456 c-2 -2 -2 -69 1 -148 l5 -143 -57 -185 c-32 -102 -58 -195
-58 -206 0 -12 -7 -24 -15 -28 -12 -4 -15 -25 -15 -97 l0 -91 43 -59 c48 -66
58 -73 83 -54 18 12 17 17 -17 83 l-36 71 26 25 c15 14 30 26 33 26 3 0 28
-27 55 -60 26 -33 51 -60 54 -60 3 0 14 6 24 14 17 12 14 20 -60 120 l-78 107
59 187 59 187 3 158 3 157 -54 0 c-29 0 -56 -2 -58 -4z"/>
<path d="M1997 1453 c-4 -3 -7 -66 -7 -140 l0 -133 61 -201 c33 -111 58 -207
56 -213 -3 -7 -37 -57 -77 -111 -66 -91 -70 -100 -54 -112 10 -7 21 -13 24
-13 4 0 29 27 55 60 26 33 51 60 54 60 3 0 18 -12 34 -25 l28 -25 -31 -59
c-34 -69 -38 -96 -13 -105 18 -7 28 2 83 81 28 39 30 48 30 131 0 67 -4 93
-15 102 -8 7 -13 15 -10 19 2 4 -25 95 -59 202 -44 133 -61 199 -55 211 5 9 9
75 9 147 l0 131 -53 0 c-30 0 -57 -3 -60 -7z"/>
</g>
</svg>
