<?xml version="1.0" standalone="no"?>
<!DOCTYPE svg PUBLIC "-//W3C//DTD SVG 20010904//EN"
 "http://www.w3.org/TR/2001/REC-SVG-20010904/DTD/svg10.dtd">
<svg version="1.0" xmlns="http://www.w3.org/2000/svg"
 width="256.000000pt" height="256.000000pt" viewBox="0 0 256.000000 256.000000"
 preserveAspectRatio="xMidYMid meet">
<metadata>
Created by potrace 1.16, written by Peter Selinger 2001-2019
</metadata>
<g transform="translate(0.000000,256.000000) scale(0.100000,-0.100000)"
fill="#f2f2f2" stroke="none">
<path d="M925 2269 c-99 -94 -99 -128 -1 -130 l51 -1 -45 -16 c-38 -14 -44
-21 -42 -41 2 -13 -4 -44 -13 -68 -23 -59 -17 -62 115 -64 92 -1 100 -3 68
-12 -38 -10 -38 -11 -39 -66 -1 -31 -4 -47 -6 -36 -3 12 -24 29 -51 43 -38 18
-64 22 -137 22 -52 0 -96 -5 -102 -11 -6 -6 -25 -11 -42 -12 -27 -2 -35 -9
-52 -42 l-19 -40 6 40 c3 22 8 52 11 67 12 59 -94 53 -117 -7 -16 -42 -13
-277 4 -300 13 -19 15 -18 24 15 l10 35 1 -41 c1 -43 12 -54 52 -54 20 0 27
18 31 85 l3 40 57 3 57 3 12 -43 c14 -52 21 -58 82 -58 l47 0 1 38 c1 36 1 37
11 10 12 -35 23 -35 45 -1 14 21 18 46 17 103 -1 54 1 69 8 55 5 -12 19 -25
31 -30 34 -15 55 -71 59 -160 3 -73 1 -80 -17 -83 -31 -7 -35 -20 -35 -137 0
-121 5 -135 53 -135 l30 0 -27 -21 c-21 -16 -24 -24 -15 -30 10 -6 6 -11 -12
-18 -43 -16 -50 -50 -47 -241 l3 -175 17 45 18 45 -3 -52 c-2 -29 1 -57 7 -63
14 -14 92 -13 133 2 l33 12 0 196 c0 204 -1 211 -47 258 -20 20 -15 40 10 44
21 3 22 7 25 136 2 107 0 132 -11 132 -9 0 -18 -19 -24 -52 l-10 -53 -2 57 c0
35 -6 58 -13 61 -8 3 -5 6 6 6 17 1 18 7 12 74 l-6 72 19 -41 c14 -31 28 -45
60 -57 51 -21 70 -21 119 -2 28 12 44 27 59 58 l21 42 -5 -72 c-5 -67 -4 -73
13 -73 18 -1 18 -1 2 -11 -12 -7 -18 -24 -19 -52 l-2 -42 -6 40 c-4 26 -11 40
-21 40 -13 0 -15 -21 -15 -125 l0 -125 28 -13 c27 -13 27 -15 13 -35 -53 -73
-51 -61 -54 -263 l-3 -192 32 -16 c32 -16 103 -21 133 -10 12 4 16 20 17 58
l1 51 16 -45 17 -45 3 170 c3 191 -5 241 -43 255 -15 6 -23 15 -19 24 3 8 -4
21 -17 29 -21 15 -21 16 12 19 l34 3 3 128 3 127 -27 10 c-27 11 -27 11 -21
91 7 91 29 147 61 155 13 3 27 17 32 32 8 21 10 8 10 -60 -1 -77 2 -90 21
-110 l22 -22 16 35 16 34 -6 -42 -5 -43 52 0 c65 0 71 5 83 55 l10 40 60 0 60
0 3 -58 c3 -63 13 -74 57 -63 22 6 25 12 27 54 1 43 2 44 5 10 4 -38 16 -48
29 -26 8 13 6 291 -2 313 -8 20 -72 47 -95 40 -19 -6 -20 -12 -14 -73 l5 -67
-16 37 c-13 31 -20 36 -45 36 -17 -1 -35 4 -41 10 -8 8 -48 12 -105 12 -107 0
-172 -24 -190 -69 -10 -23 -11 -18 -12 35 -1 60 -2 61 -33 72 -28 8 -16 10 73
11 119 1 137 9 114 51 -8 14 -14 44 -15 67 0 41 -1 43 -42 55 l-43 12 53 6
c50 5 71 19 72 47 0 6 -35 43 -77 82 l-78 71 -277 0 -278 0 -75 -71z m204
-1276 c-1 -58 -17 -108 -18 -56 -1 49 -10 63 -42 63 -22 0 -29 5 -29 20 0 17
7 20 45 20 l45 0 -1 -47z m391 27 c0 -16 -7 -20 -35 -20 -31 0 -35 -3 -35 -27
0 -16 -5 -35 -10 -43 -8 -12 -10 -10 -10 10 0 14 -3 42 -6 63 l-7 37 52 0 c44
0 51 -3 51 -20z"/>
<path d="M661 1544 c-1 -95 -4 -109 -56 -261 -34 -97 -58 -187 -62 -226 -5
-59 -3 -72 25 -131 32 -68 41 -76 61 -52 9 10 6 24 -9 57 -22 50 -25 90 -8
107 22 22 43 12 76 -39 27 -42 36 -48 48 -39 22 19 18 34 -32 107 -58 85 -53
80 -64 63 -20 -31 -10 16 25 120 45 134 65 232 65 320 0 56 -3 70 -15 70 -11
0 -15 -11 -15 -37 0 -51 -19 -82 -21 -33 0 19 -4 44 -9 55 -6 13 -9 -15 -9
-81z"/>
<path d="M1830 1558 c0 -93 15 -163 65 -320 34 -105 44 -155 23 -111 -10 20
-13 18 -53 -40 -65 -96 -67 -102 -46 -121 17 -16 20 -14 51 34 24 38 38 50 53
48 36 -5 44 -33 23 -85 -23 -62 -25 -97 -6 -101 11 -2 26 17 45 59 45 94 40
148 -29 351 -46 134 -56 175 -56 229 0 37 -3 82 -7 100 l-7 34 -11 -50 -11
-50 -7 53 c-12 80 -27 62 -27 -30z"/>
<path d="M1720 710 c0 -10 359 -19 366 -9 2 3 1 9 -3 13 -10 10 -363 7 -363
-4z"/>
<path d="M2126 680 c26 -39 44 -51 44 -29 0 11 -54 69 -64 69 -4 0 6 -18 20
-40z"/>
<path d="M1731 658 c-5 -13 -7 -26 -4 -30 2 -5 89 -8 192 -8 199 0 227 6 194
42 -14 16 -35 18 -195 18 -176 0 -179 0 -187 -22z"/>
<path d="M1702 650 c0 -14 2 -19 5 -12 2 6 2 18 0 25 -3 6 -5 1 -5 -13z"/>
<path d="M2145 610 c-48 -13 -104 -20 -177 -20 l-108 0 22 -45 22 -45 119 0
c73 0 145 6 189 16 39 9 88 14 109 11 22 -3 39 -1 39 4 0 4 -14 25 -32 46 -18
21 -32 38 -33 39 0 1 -18 4 -40 7 -25 3 -67 -2 -110 -13z"/>
<path d="M1030 594 c0 -17 22 -14 28 4 2 7 -3 12 -12 12 -9 0 -16 -7 -16 -16z"/>
<path d="M1455 601 c-7 -12 12 -24 25 -16 11 7 4 25 -10 25 -5 0 -11 -4 -15
-9z"/>
<path d="M384 592 c-5 -4 -54 -69 -107 -144 -53 -75 -101 -139 -107 -143 -17
-11 -11 -44 11 -56 15 -8 103 -9 298 -6 252 5 285 7 376 30 119 30 88 36 -41
7 -76 -17 -127 -20 -362 -20 -180 0 -271 3 -267 10 4 6 106 10 275 10 199 0
287 4 341 15 41 8 90 17 109 19 22 2 36 9 38 20 3 14 -22 16 -267 16 -148 0
-272 4 -275 8 -3 5 23 56 57 115 l61 107 239 0 c156 0 236 3 232 10 -7 12
-594 14 -611 2z"/>
<path d="M1090 590 c0 -6 62 -10 165 -10 103 0 165 4 165 10 0 6 -62 10 -165
10 -103 0 -165 -4 -165 -10z"/>
<path d="M1520 591 c0 -7 29 -11 89 -11 59 0 92 -4 99 -12 11 -15 62 -179 62
-202 0 -14 -16 -16 -111 -16 -84 0 -110 -3 -107 -12 3 -9 39 -14 121 -16 l116
-3 6 46 c6 39 11 45 31 45 34 0 37 15 13 61 -16 31 -19 52 -15 81 l6 38 -72 0
c-40 0 -110 3 -155 7 -60 4 -83 3 -83 -6z"/>
<path d="M526 485 c-20 -36 -36 -70 -36 -75 0 -7 219 -9 608 -8 601 3 607 3
604 23 -2 11 -10 44 -18 73 l-15 52 -554 0 -553 0 -36 -65z"/>
<path d="M1840 538 c0 -7 9 -31 19 -53 18 -37 19 -38 20 -13 1 30 -18 78 -31
78 -4 0 -8 -6 -8 -12z"/>
<path d="M2215 488 c-16 -5 -93 -13 -170 -17 l-140 -6 0 -25 0 -25 168 -1 c92
-1 182 -5 200 -8 26 -5 38 -1 60 19 15 14 27 30 27 35 0 4 3 15 6 24 5 14 -3
16 -57 15 -35 0 -77 -5 -94 -11z"/>
<path d="M1835 390 c-2 -3 3 -20 10 -38 l14 -32 221 0 c131 0 220 4 220 9 0 6
-10 21 -22 35 -23 24 -24 25 -231 28 -115 2 -210 2 -212 -2z"/>
<path d="M2300 382 c0 -11 28 -52 58 -84 16 -18 23 -34 19 -48 -4 -16 -1 -20
11 -18 25 5 27 37 3 59 -12 11 -21 26 -21 33 0 20 -39 66 -56 66 -8 0 -14 -3
-14 -8z"/>
<path d="M982 318 c2 -21 8 -33 18 -33 10 0 16 12 18 33 3 27 0 32 -18 32 -18
0 -21 -5 -18 -32z"/>
<path d="M1050 335 c0 -13 29 -15 205 -15 176 0 205 2 205 15 0 13 -29 15
-205 15 -176 0 -205 -2 -205 -15z"/>
<path d="M1480 320 c0 -18 6 -33 15 -37 20 -7 23 -4 27 32 2 25 -1 31 -19 33
-20 3 -23 -1 -23 -28z"/>
<path d="M1807 308 c-3 -24 -1 -51 6 -62 10 -19 12 -17 18 19 6 35 -3 85 -14
85 -3 0 -7 -19 -10 -42z"/>
<path d="M1148 293 c56 -2 148 -2 205 0 56 1 10 3 -103 3 -113 0 -159 -2 -102
-3z"/>
<path d="M1613 293 c31 -2 83 -2 115 0 31 2 5 3 -58 3 -63 0 -89 -1 -57 -3z"/>
<path d="M2083 293 l-221 -3 -11 -51 c-6 -27 -11 -52 -11 -54 0 -3 11 -5 25
-5 21 0 26 7 36 45 l11 44 195 3 c107 2 201 -1 209 -5 8 -4 14 -17 14 -28 0
-11 5 -17 10 -14 17 11 11 54 -9 65 -11 5 -21 9 -23 8 -2 -2 -103 -4 -225 -5z"/>
<path d="M1937 243 c-4 -3 -7 -21 -7 -40 l0 -33 54 0 c52 0 54 1 60 31 3 17 3
35 0 40 -6 10 -97 12 -107 2z"/>
<path d="M2076 219 c-9 -49 -9 -49 43 -49 46 0 49 1 55 31 8 42 2 49 -48 49
-41 0 -44 -2 -50 -31z"/>
<path d="M2203 210 l-10 -40 47 0 c44 0 47 2 57 34 6 19 8 37 5 40 -3 3 -24 6
-47 6 -39 0 -41 -2 -52 -40z"/>
</g>
</svg>
