<svg xmlns="http://www.w3.org/2000/svg" width="341.333" height="341.333" version="1.0" viewBox="0 0 256 256">
    <g fill="#e5e5e5">
        <path d="M92.5 29.1c-9.9 9.4-9.9 12.8-.1 13l5.1.1-4.5 1.6c-3.8 1.4-4.4 2.1-4.2 4.1.2 1.3-.4 4.4-1.3 6.8-2.3 5.9-1.7 6.2 11.5 6.4 9.2.1 10 .3 6.8 1.2-3.8 1-3.8 1.1-3.9 6.6-.1 3.1-.4 4.7-.6 3.6-.3-1.2-2.4-2.9-5.1-4.3-3.8-1.8-6.4-2.2-13.7-2.2-5.2 0-9.6.5-10.2 1.1s-2.5 1.1-4.2 1.2c-2.7.2-3.5.9-5.2 4.2l-1.9 4 .6-4c.3-2.2.8-5.2 1.1-6.7 1.2-5.9-9.4-5.3-11.7.7-1.6 4.2-1.3 27.7.4 30 1.3 1.9 1.5 1.8 2.4-1.5l1-3.5.1 4.1c.1 4.3 1.2 5.4 5.2 5.4 2 0 2.7-1.8 3.1-8.5l.3-4 5.7-.3 5.7-.3 1.2 4.3c1.4 5.2 2.1 5.8 8.2 5.8H89l.1-3.8c.1-3.6.1-3.7 1.1-1 1.2 3.5 2.3 3.5 4.5.1 1.4-2.1 1.8-4.6 1.7-10.3-.1-5.4.1-6.9.8-5.5.5 1.2 1.9 2.5 3.1 3 3.4 1.5 5.5 7.1 5.9 16 .3 7.3.1 8-1.7 8.3-3.1.7-3.5 2-3.5 13.7 0 12.1.5 13.5 5.3 13.5h3l-2.7 2.1c-2.1 1.6-2.4 2.4-1.5 3 1 .6.6 1.1-1.2 1.8-4.3 1.6-5 5-4.7 24.1l.3 17.5 1.7-4.5 1.8-4.5-.3 5.2c-.2 2.9.1 5.7.7 6.3 1.4 1.4 9.2 1.3 13.3-.2l3.3-1.2V162c0-20.4-.1-21.1-4.7-25.8-2-2-1.5-4 1-4.4 2.1-.3 2.2-.7 2.5-13.6.2-10.7 0-13.2-1.1-13.2-.9 0-1.8 1.9-2.4 5.2l-1 5.3-.2-5.7c0-3.5-.6-5.8-1.3-6.1-.8-.3-.5-.6.6-.6 1.7-.1 1.8-.7 1.2-7.4l-.6-7.2 1.9 4.1c1.4 3.1 2.8 4.5 6 5.7 5.1 2.1 7 2.1 11.9.2 2.8-1.2 4.4-2.7 5.9-5.8l2.1-4.2-.5 7.2c-.5 6.7-.4 7.3 1.3 7.3 1.8.1 1.8.1.2 1.1-1.2.7-1.8 2.4-1.9 5.2l-.2 4.2-.6-4c-.4-2.6-1.1-4-2.1-4-1.3 0-1.5 2.1-1.5 12.5v12.5l2.8 1.3c2.7 1.3 2.7 1.5 1.3 3.5-5.3 7.3-5.1 6.1-5.4 26.3l-.3 19.2 3.2 1.6c3.2 1.6 10.3 2.1 13.3 1 1.2-.4 1.6-2 1.7-5.8l.1-5.1 1.6 4.5 1.7 4.5.3-17c.3-19.1-.5-24.1-4.3-25.5-1.5-.6-2.3-1.5-1.9-2.4.3-.8-.4-2.1-1.7-2.9-2.1-1.5-2.1-1.6 1.2-1.9l3.4-.3.3-12.8.3-12.7-2.7-1c-2.7-1.1-2.7-1.1-2.1-9.1.7-9.1 2.9-14.7 6.1-15.5 1.3-.3 2.7-1.7 3.2-3.2.8-2.1 1-.8 1 6-.1 7.7.2 9 2.1 11l2.2 2.2 1.6-3.5 1.6-3.4-.6 4.2-.5 4.3h5.2c6.5 0 7.1-.5 8.3-5.5l1-4h12l.3 5.8c.3 6.3 1.3 7.4 5.7 6.3 2.2-.6 2.5-1.2 2.7-5.4.1-4.3.2-4.4.5-1 .4 3.8 1.6 4.8 2.9 2.6.8-1.3.6-29.1-.2-31.3-.8-2-7.2-4.7-9.5-4-1.9.6-2 1.2-1.4 7.3l.5 6.7-1.6-3.7c-1.3-3.1-2-3.6-4.5-3.6-1.7.1-3.5-.4-4.1-1-.8-.8-4.8-1.2-10.5-1.2-10.7 0-17.2 2.4-19 6.9-1 2.3-1.1 1.8-1.2-3.5-.1-6-.2-6.1-3.3-7.2-2.8-.8-1.6-1 7.3-1.1 11.9-.1 13.7-.9 11.4-5.1-.8-1.4-1.4-4.4-1.5-6.7 0-4.1-.1-4.3-4.2-5.5l-4.3-1.2 5.3-.6c5-.5 7.1-1.9 7.2-4.7 0-.6-3.5-4.3-7.7-8.2l-7.8-7.1H100zm20.4 127.6c-.1 5.8-1.7 10.8-1.8 5.6-.1-4.9-1-6.3-4.2-6.3-2.2 0-2.9-.5-2.9-2 0-1.7.7-2 4.5-2h4.5zM152 154c0 1.6-.7 2-3.5 2-3.1 0-3.5.3-3.5 2.7 0 1.6-.5 3.5-1 4.3-.8 1.2-1 1-1-1 0-1.4-.3-4.2-.6-6.3l-.7-3.7h5.2c4.4 0 5.1.3 5.1 2"/>
        <path d="M66.1 101.6c-.1 9.5-.4 10.9-5.6 26.1-3.4 9.7-5.8 18.7-6.2 22.6-.5 5.9-.3 7.2 2.5 13.1 3.2 6.8 4.1 7.6 6.1 5.2.9-1 .6-2.4-.9-5.7-2.2-5-2.5-9-.8-10.7 2.2-2.2 4.3-1.2 7.6 3.9 2.7 4.2 3.6 4.8 4.8 3.9 2.2-1.9 1.8-3.4-3.2-10.7-5.8-8.5-5.3-8-6.4-6.3-2 3.1-1-1.6 2.5-12C71 117.6 73 107.8 73 99c0-5.6-.3-7-1.5-7-1.1 0-1.5 1.1-1.5 3.7 0 5.1-1.9 8.2-2.1 3.3 0-1.9-.4-4.4-.9-5.5-.6-1.3-.9 1.5-.9 8.1m116.9-1.4c0 9.3 1.5 16.3 6.5 32 3.4 10.5 4.4 15.5 2.3 11.1-1-2-1.3-1.8-5.3 4-6.5 9.6-6.7 10.2-4.6 12.1 1.7 1.6 2 1.4 5.1-3.4 2.4-3.8 3.8-5 5.3-4.8 3.6.5 4.4 3.3 2.3 8.5-2.3 6.2-2.5 9.7-.6 10.1 1.1.2 2.6-1.7 4.5-5.9 4.5-9.4 4-14.8-2.9-35.1-4.6-13.4-5.6-17.5-5.6-22.9 0-3.7-.3-8.2-.7-10l-.7-3.4-1.1 5-1.1 5-.7-5.3c-1.2-8-2.7-6.2-2.7 3M172 185c0 1 35.9 1.9 36.6.9.2-.3.1-.9-.3-1.3-1-1-36.3-.7-36.3.4m40.6 3c2.6 3.9 4.4 5.1 4.4 2.9 0-1.1-5.4-6.9-6.4-6.9-.4 0 .6 1.8 2 4m-39.5 2.2c-.5 1.3-.7 2.6-.4 3 .2.5 8.9.8 19.2.8 19.9 0 22.7-.6 19.4-4.2-1.4-1.6-3.5-1.8-19.5-1.8-17.6 0-17.9 0-18.7 2.2m-2.9.8c0 1.4.2 1.9.5 1.2.2-.6.2-1.8 0-2.5-.3-.6-.5-.1-.5 1.3m44.3 4c-4.8 1.3-10.4 2-17.7 2H186l2.2 4.5 2.2 4.5h11.9c7.3 0 14.5-.6 18.9-1.6 3.9-.9 8.8-1.4 10.9-1.1 2.2.3 3.9.1 3.9-.4 0-.4-1.4-2.5-3.2-4.6s-3.2-3.8-3.3-3.9c0-.1-1.8-.4-4-.7-2.5-.3-6.7.2-11 1.3M103 196.6c0 1.7 2.2 1.4 2.8-.4.2-.7-.3-1.2-1.2-1.2s-1.6.7-1.6 1.6m42.5-.7c-.7 1.2 1.2 2.4 2.5 1.6 1.1-.7.4-2.5-1-2.5-.5 0-1.1.4-1.5.9m-107.1.9c-.5.4-5.4 6.9-10.7 14.4S17.6 225.1 17 225.5c-1.7 1.1-1.1 4.4 1.1 5.6 1.5.8 10.3.9 29.8.6 25.2-.5 28.5-.7 37.6-3 11.9-3 8.8-3.6-4.1-.7-7.6 1.7-12.7 2-36.2 2-18 0-27.1-.3-26.7-1 .4-.6 10.6-1 27.5-1 19.9 0 28.7-.4 34.1-1.5 4.1-.8 9-1.7 10.9-1.9 2.2-.2 3.6-.9 3.8-2 .3-1.4-2.2-1.6-26.7-1.6-14.8 0-27.2-.4-27.5-.8-.3-.5 2.3-5.6 5.7-11.5l6.1-10.7h23.9c15.6 0 23.6-.3 23.2-1-.7-1.2-59.4-1.4-61.1-.2m70.6.2c0 .6 6.2 1 16.5 1s16.5-.4 16.5-1-6.2-1-16.5-1-16.5.4-16.5 1m43-.1c0 .7 2.9 1.1 8.9 1.1q8.85 0 9.9 1.2c1.1 1.5 6.2 17.9 6.2 20.2 0 1.4-1.6 1.6-11.1 1.6-8.4 0-11 .3-10.7 1.2s3.9 1.4 12.1 1.6l11.6.3.6-4.6c.6-3.9 1.1-4.5 3.1-4.5 3.4 0 3.7-1.5 1.3-6.1-1.6-3.1-1.9-5.2-1.5-8.1l.6-3.8h-7.2c-4 0-11-.3-15.5-.7-6-.4-8.3-.3-8.3.6"/>
        <path d="M52.6 207.5c-2 3.6-3.6 7-3.6 7.5 0 .7 21.9.9 60.8.8 60.1-.3 60.7-.3 60.4-2.3-.2-1.1-1-4.4-1.8-7.3l-1.5-5.2H56.2zm131.4-5.3c0 .7.9 3.1 1.9 5.3 1.8 3.7 1.9 3.8 2 1.3.1-3-1.8-7.8-3.1-7.8-.4 0-.8.6-.8 1.2m37.5 5c-1.6.5-9.3 1.3-17 1.7l-14 .6v5l16.8.1c9.2.1 18.2.5 20 .8 2.6.5 3.8.1 6-1.9 1.5-1.4 2.7-3 2.7-3.5 0-.4.3-1.5.6-2.4.5-1.4-.3-1.6-5.7-1.5-3.5 0-7.7.5-9.4 1.1m-38 9.8c-.2.3.3 2 1 3.8l1.4 3.2H208c13.1 0 22-.4 22-.9 0-.6-1-2.1-2.2-3.5-2.3-2.4-2.4-2.5-23.1-2.8-11.5-.2-21-.2-21.2.2m46.5.8c0 1.1 2.8 5.2 5.8 8.4 1.6 1.8 2.3 3.4 1.9 4.8-.4 1.6-.1 2 1.1 1.8 2.5-.5 2.7-3.7.3-5.9-1.2-1.1-2.1-2.6-2.1-3.3 0-2-3.9-6.6-5.6-6.6-.8 0-1.4.3-1.4.8m-131.8 6.4c.2 2.1.8 3.3 1.8 3.3s1.6-1.2 1.8-3.3c.3-2.7 0-3.2-1.8-3.2s-2.1.5-1.8 3.2m6.8-1.7c0 1.3 2.9 1.5 20.5 1.5s20.5-.2 20.5-1.5-2.9-1.5-20.5-1.5-20.5.2-20.5 1.5m43 1.5c0 1.8.6 3.3 1.5 3.7 2 .7 2.3.4 2.7-3.2.2-2.5-.1-3.1-1.9-3.3-2-.3-2.3.1-2.3 2.8m32.7 1.2c-.3 2.4-.1 5.1.6 6.2 1 1.9 1.2 1.7 1.8-1.9.6-3.5-.3-8.5-1.4-8.5-.3 0-.7 1.9-1 4.2m-65.9 1.5c5.6.2 14.8.2 20.5 0 5.6-.1 1-.3-10.3-.3s-15.9.2-10.2.3m46.5 0c3.1.2 8.3.2 11.5 0 3.1-.2.5-.3-5.8-.3s-8.9.1-5.7.3m47 0-22.1.3-1.1 5.1c-.6 2.7-1.1 5.2-1.1 5.4 0 .3 1.1.5 2.5.5 2.1 0 2.6-.7 3.6-4.5l1.1-4.4 19.5-.3c10.7-.2 20.1.1 20.9.5s1.4 1.7 1.4 2.8.5 1.7 1 1.4c1.7-1.1 1.1-5.4-.9-6.5-1.1-.5-2.1-.9-2.3-.8-.2.2-10.3.4-22.5.5"/>
        <path d="M193.7 231.7c-.4.3-.7 2.1-.7 4v3.3h5.4c5.2 0 5.4-.1 6-3.1.3-1.7.3-3.5 0-4-.6-1-9.7-1.2-10.7-.2m13.9 2.4c-.9 4.9-.9 4.9 4.3 4.9 4.6 0 4.9-.1 5.5-3.1.8-4.2.2-4.9-4.8-4.9-4.1 0-4.4.2-5 3.1m12.7.9-1 4h4.7c4.4 0 4.7-.2 5.7-3.4.6-1.9.8-3.7.5-4s-2.4-.6-4.7-.6c-3.9 0-4.1.2-5.2 4"/>
    </g>
</svg>
