<?xml version="1.0" standalone="no"?>
<!DOCTYPE svg PUBLIC "-//W3C//DTD SVG 20010904//EN"
 "http://www.w3.org/TR/2001/REC-SVG-20010904/DTD/svg10.dtd">
<svg version="1.0" xmlns="http://www.w3.org/2000/svg"
 width="256.000000pt" height="256.000000pt" viewBox="0 0 256.000000 256.000000"
 preserveAspectRatio="xMidYMid meet">
<metadata>
Created by potrace 1.16, written by Peter Selinger 2001-2019
</metadata>
<g transform="translate(0.000000,256.000000) scale(0.100000,-0.100000)"
fill="#f2f2f2" stroke="none">
<path d="M1098 2474 c-354 -55 -682 -291 -851 -613 -151 -286 -179 -628 -77
-933 27 -80 85 -208 94 -208 2 0 -7 35 -21 77 -13 42 -29 123 -35 179 -54 476
269 928 722 1014 84 16 258 13 341 -6 322 -73 579 -327 671 -665 20 -73 23
-106 22 -249 0 -138 -4 -178 -22 -245 -28 -101 -97 -242 -156 -320 -25 -33
-46 -64 -46 -68 0 -5 25 -45 56 -89 39 -54 61 -77 71 -74 45 18 180 122 258
201 237 237 356 545 342 880 -14 307 -129 569 -346 786 -273 273 -641 393
-1023 333z"/>
<path d="M24 2443 c3 -10 12 -59 21 -110 l17 -91 98 -117 99 -116 27 40 c18
29 24 45 17 53 -6 7 -70 91 -142 186 -73 94 -135 172 -137 172 -3 0 -3 -8 0
-17z"/>
<path d="M527 1722 l-36 -37 400 -523 c221 -287 404 -522 408 -522 4 0 22 21
40 46 29 40 31 47 19 62 -8 9 -185 235 -393 502 -208 267 -383 491 -389 498
-9 9 -20 4 -49 -26z"/>
<path d="M1366 854 c-27 -33 -28 -36 -13 -51 15 -15 18 -15 35 0 18 16 20 16
35 -1 10 -10 17 -21 17 -25 0 -10 -181 -267 -188 -267 -4 1 -17 9 -30 20 l-23
19 27 36 c23 31 25 39 16 60 -7 14 -15 25 -19 25 -9 -1 -107 -140 -102 -144 2
-2 37 -24 77 -49 l72 -47 118 178 c65 97 121 182 125 188 6 11 -93 95 -110 93
-4 0 -21 -16 -37 -35z"/>
<path d="M1458 588 c-8 -13 -25 -42 -36 -64 l-21 -42 190 -221 c105 -122 194
-221 199 -221 5 0 18 13 29 29 l21 29 -181 253 c-100 140 -183 255 -184 257
-1 1 -9 -8 -17 -20z"/>
</g>
</svg>
