<svg xmlns="http://www.w3.org/2000/svg" width="341.333" height="341.333" version="1.0" viewBox="0 0 256 256">
    <g fill="#e5e5e5">
        <path d="M109.8 8.6c-35.4 5.5-68.2 29.1-85.1 61.3C9.6 98.5 6.8 132.7 17 163.2c2.7 8 8.5 20.8 9.4 20.8.2 0-.7-3.5-2.1-7.7-1.3-4.2-2.9-12.3-3.5-17.9C15.4 110.8 47.7 65.6 93 57c8.4-1.6 25.8-1.3 34.1.6 32.2 7.3 57.9 32.7 67.1 66.5 2 7.3 2.3 10.6 2.2 24.9 0 13.8-.4 17.8-2.2 24.5-2.8 10.1-9.7 24.2-15.6 32-2.5 3.3-4.6 6.4-4.6 6.8 0 .5 2.5 4.5 5.6 8.9 3.9 5.4 6.1 7.7 7.1 7.4 4.5-1.8 18-12.2 25.8-20.1 23.7-23.7 35.6-54.5 34.2-88-1.4-30.7-12.9-56.9-34.6-78.6C184.8 14.6 148 2.6 109.8 8.6M2.4 11.7c.3 1 1.2 5.9 2.1 11l1.7 9.1L16 43.5l9.9 11.6 2.7-4c1.8-2.9 2.4-4.5 1.7-5.3-.6-.7-7-9.1-14.2-18.6C8.8 17.8 2.6 10 2.4 10c-.3 0-.3.8 0 1.7"/>
        <path d="m52.7 83.8-3.6 3.7 40 52.3c22.1 28.7 40.4 52.2 40.8 52.2s2.2-2.1 4-4.6c2.9-4 3.1-4.7 1.9-6.2-.8-.9-18.5-23.5-39.3-50.2S58.2 81.9 57.6 81.2c-.9-.9-2-.4-4.9 2.6"/>
        <path d="M136.6 170.6c-2.7 3.3-2.8 3.6-1.3 5.1s1.8 1.5 3.5 0c1.8-1.6 2-1.6 3.5.1 1 1 1.7 2.1 1.7 2.5 0 1-18.1 26.7-18.8 26.7-.4-.1-1.7-.9-3-2l-2.3-1.9 2.7-3.6c2.3-3.1 2.5-3.9 1.6-6-.7-1.4-1.5-2.5-1.9-2.5-.9.1-10.7 14-10.2 14.4.2.2 3.7 2.4 7.7 4.9l7.2 4.7 11.8-17.8c6.5-9.7 12.1-18.2 12.5-18.8.6-1.1-9.3-9.5-11-9.3-.4 0-2.1 1.6-3.7 3.5m9.2 26.6c-.8 1.3-2.5 4.2-3.6 6.4l-2.1 4.2 19 22.1c10.5 12.2 19.4 22.1 19.9 22.1s1.8-1.3 2.9-2.9l2.1-2.9-18.1-25.3c-10-14-18.3-25.5-18.4-25.7-.1-.1-.9.8-1.7 2"/>
    </g>
</svg>
