<?xml version="1.0" standalone="no"?>
<!DOCTYPE svg PUBLIC "-//W3C//DTD SVG 20010904//EN"
 "http://www.w3.org/TR/2001/REC-SVG-20010904/DTD/svg10.dtd">
<svg version="1.0" xmlns="http://www.w3.org/2000/svg"
 width="256.000000pt" height="256.000000pt" viewBox="0 0 256.000000 256.000000"
 preserveAspectRatio="xMidYMid meet">
<metadata>
Created by potrace 1.16, written by Peter Selinger 2001-2019
</metadata>
<g transform="translate(0.000000,256.000000) scale(0.100000,-0.100000)"
fill="#f2f2f2" stroke="none">
<path d="M280 2075 l0 -405 95 0 c52 0 95 -2 95 -5 0 -3 -11 -32 -24 -64 -47
-117 -60 -188 -60 -331 0 -142 11 -204 59 -326 125 -319 447 -542 789 -547 50
-1 117 2 149 7 l57 7 0 -180 0 -181 390 0 390 0 0 405 0 405 -94 0 -94 0 33
83 c135 332 50 724 -211 967 -162 151 -362 232 -579 234 -60 1 -129 -2 -152
-7 l-43 -7 0 175 0 175 -400 0 -400 0 0 -405z m620 116 l0 -119 -52 -27 c-81
-42 -137 -83 -208 -152 l-64 -63 -63 0 -63 0 0 240 0 240 225 0 225 0 0 -119z
m716 -246 c132 -66 246 -181 314 -314 17 -36 32 -79 32 -96 0 -44 -28 -94 -59
-106 -32 -12 -92 6 -100 30 -22 64 -80 167 -120 211 -54 60 -138 119 -201 139
-86 29 -76 133 15 161 43 13 46 12 119 -25z m-579 14 c43 -16 73 -49 73 -80 0
-38 -20 -79 -38 -79 -8 0 -49 -16 -91 -37 -99 -47 -198 -144 -241 -234 -16
-35 -30 -69 -30 -76 0 -18 -67 -34 -95 -23 -29 11 -52 45 -61 87 -4 21 2 46
21 87 69 146 216 286 362 345 57 24 63 24 100 10z m375 -383 c212 -101 269
-390 112 -565 -29 -32 -69 -62 -112 -83 -60 -30 -75 -33 -157 -33 -82 0 -97 3
-157 33 -129 63 -201 178 -201 322 0 159 92 289 244 344 69 25 199 17 271 -18z
m-725 -481 c13 -4 24 -17 28 -35 9 -39 69 -137 113 -184 50 -53 144 -112 208
-132 56 -18 74 -41 74 -93 0 -34 -35 -68 -85 -82 -34 -10 -45 -7 -119 29 -140
67 -254 179 -325 319 -17 34 -31 73 -31 85 0 32 35 87 63 98 22 8 30 8 74 -5z
m1217 5 c29 -11 57 -59 58 -101 1 -40 -62 -163 -119 -231 -62 -74 -155 -148
-236 -188 -58 -28 -68 -30 -104 -21 -62 17 -90 59 -75 115 6 22 19 33 64 51
140 57 261 187 298 320 10 37 18 47 44 54 42 12 41 12 70 1z m146 -640 l0
-240 -225 0 -225 0 0 123 0 122 74 39 c73 38 236 167 236 186 0 6 31 10 70 10
l70 0 0 -240z"/>
</g>
</svg>
