<?xml version="1.0" standalone="no"?>
<!DOCTYPE svg PUBLIC "-//W3C//DTD SVG 20010904//EN"
 "http://www.w3.org/TR/2001/REC-SVG-20010904/DTD/svg10.dtd">
<svg version="1.0" xmlns="http://www.w3.org/2000/svg"
 width="256.000000pt" height="256.000000pt" viewBox="0 0 256.000000 256.000000"
 preserveAspectRatio="xMidYMid meet">
<metadata>
Created by potrace 1.16, written by Peter Selinger 2001-2019
</metadata>
<g transform="translate(0.000000,256.000000) scale(0.100000,-0.100000)"
fill="#f2f2f2" stroke="none">
<path d="M947 2283 c-4 -3 -7 -46 -7 -95 l0 -88 90 0 90 0 0 -820 0 -820 -90
0 -91 0 3 -92 3 -93 335 0 335 0 3 93 3 92 -91 0 -90 0 0 820 0 820 90 0 91 0
-3 93 -3 92 -331 3 c-182 1 -333 -1 -337 -5z"/>
</g>
</svg>
