<?xml version="1.0" standalone="no"?>
<!DOCTYPE svg PUBLIC "-//W3C//DTD SVG 20010904//EN"
 "http://www.w3.org/TR/2001/REC-SVG-20010904/DTD/svg10.dtd">
<svg version="1.0" xmlns="http://www.w3.org/2000/svg"
 width="256.000000pt" height="256.000000pt" viewBox="0 0 256.000000 256.000000"
 preserveAspectRatio="xMidYMid meet">
<metadata>
Created by potrace 1.16, written by Peter Selinger 2001-2019
</metadata>
<g transform="translate(0.000000,256.000000) scale(0.100000,-0.100000)"
fill="#f2f2f2" stroke="none">
<path d="M890 1995 l-35 -24 -391 0 c-366 -1 -392 -2 -407 -19 -23 -26 -25
-193 -2 -212 12 -10 15 -38 15 -134 l-1 -121 -20 24 c-11 13 -21 22 -23 20 -1
-2 2 -60 7 -127 8 -119 8 -125 -12 -146 -20 -21 -21 -32 -19 -162 l3 -139 49
79 c28 43 52 74 54 68 2 -6 -11 -32 -29 -56 -23 -33 -29 -49 -22 -58 6 -7 17
-32 24 -56 15 -52 67 -114 122 -146 32 -19 66 -27 142 -34 l100 -9 -93 -2
c-81 -1 -99 2 -144 25 -88 45 -191 169 -157 189 5 4 9 11 9 16 0 5 -11 2 -25
-7 -14 -9 -25 -24 -25 -33 0 -32 58 -109 112 -149 76 -57 111 -72 163 -72 43
0 55 -7 151 -80 l105 -80 179 0 c113 0 180 4 180 10 0 6 133 10 380 10 247 0
380 -4 380 -10 0 -6 67 -10 180 -10 l179 0 105 80 c96 73 108 80 151 80 52 0
87 15 163 72 54 40 112 117 112 149 0 9 -11 24 -25 33 -14 9 -25 12 -25 7 0
-5 4 -12 9 -16 34 -20 -69 -144 -157 -189 -45 -23 -63 -26 -144 -25 l-93 2
100 9 c76 7 110 15 142 34 55 32 107 94 122 146 7 24 18 49 24 56 7 9 2 24
-22 55 -30 40 -37 53 -58 102 -5 13 -9 -7 -11 -61 -3 -77 -5 -84 -38 -123 -66
-77 -83 -81 -330 -81 -207 0 -218 1 -253 22 -30 19 -53 23 -148 27 -107 3
-113 2 -146 -23 -34 -26 -35 -26 -217 -26 -182 0 -183 0 -217 26 -33 25 -39
26 -146 23 -95 -4 -118 -8 -148 -27 -35 -21 -46 -22 -253 -22 -247 0 -264 4
-330 81 -35 42 -36 45 -36 126 0 67 3 83 15 83 13 0 15 21 15 126 l0 126 -30
28 c-29 27 -30 32 -30 112 0 47 -3 146 -7 221 l-6 137 510 0 509 0 22 -30 23
-30 109 0 109 0 23 30 22 30 509 0 508 0 -6 -97 c-3 -54 -8 -159 -11 -234 -5
-128 -6 -138 -30 -159 -23 -22 -24 -29 -24 -141 0 -113 1 -118 22 -121 14 -2
41 -35 87 -108 l66 -105 3 139 c2 113 0 142 -13 156 -11 13 -15 42 -15 123 0
105 -4 119 -28 95 -9 -9 -12 18 -12 124 0 108 3 138 15 148 11 9 15 35 15 105
0 76 -3 95 -18 108 -17 15 -60 17 -408 17 l-389 0 -40 25 c-33 20 -53 24 -112
25 -39 0 -74 -4 -77 -8 -7 -11 -385 -11 -392 0 -3 4 -40 8 -82 7 -64 0 -83 -4
-112 -24z m-775 -997 c7 -4 16 -20 19 -35 11 -44 53 -100 98 -133 34 -25 50
-30 99 -30 48 0 61 4 71 20 11 16 24 20 74 20 48 0 65 -4 79 -20 16 -18 31
-20 149 -20 108 0 136 3 161 18 145 87 167 88 39 3 l-76 -51 -264 0 c-261 0
-265 0 -313 24 -54 28 -104 80 -129 135 -9 20 -22 44 -30 53 -9 11 -11 25 -6
40 7 21 8 22 12 3 2 -11 10 -23 17 -27z m2354 -16 c-8 -9 -22 -33 -31 -53 -25
-55 -75 -107 -129 -135 -48 -24 -52 -24 -313 -24 l-264 0 -76 51 c-128 85
-106 84 39 -3 25 -15 53 -18 161 -18 118 0 133 2 149 20 14 16 31 20 79 20 50
0 63 -4 74 -20 10 -16 23 -20 71 -20 49 0 65 5 99 30 46 33 87 89 98 133 3 16
13 31 20 34 8 3 14 15 15 27 0 21 0 21 11 -2 9 -17 8 -26 -3 -40z m-994 -132
c-4 -6 -80 -10 -195 -10 -115 0 -191 4 -195 10 -4 7 63 10 195 10 132 0 199
-3 195 -10z m185 -83 c81 -28 27 -32 -380 -32 -407 0 -461 4 -380 32 49 17
711 17 760 0z m-935 -17 c4 -6 -18 -10 -59 -10 -37 0 -66 4 -66 10 0 6 26 10
59 10 33 0 63 -4 66 -10z m1235 0 c0 -6 -29 -10 -66 -10 -41 0 -63 4 -59 10 3
6 33 10 66 10 33 0 59 -4 59 -10z m-1266 -140 c30 0 57 3 59 8 3 4 -20 5 -50
3 -66 -4 -103 12 -95 41 6 25 -15 39 -43 28 -13 -5 -27 -3 -39 6 -24 17 115
21 754 21 639 0 778 -4 754 -21 -12 -9 -26 -11 -39 -6 -28 11 -49 -3 -43 -28
8 -29 -29 -45 -95 -41 -30 2 -53 1 -50 -3 2 -5 29 -8 59 -8 58 0 63 2 179 84
39 27 64 42 56 33 -12 -15 -10 -17 13 -17 19 0 25 -4 20 -12 -6 -9 -3 -9 9 0
9 8 22 12 28 10 7 -2 -25 -32 -71 -65 l-84 -62 -173 -1 c-112 0 -173 3 -173
10 0 7 -130 10 -390 10 -260 0 -390 -3 -390 -10 0 -7 -61 -10 -173 -10 l-173
1 -84 62 c-46 33 -78 63 -71 65 6 2 19 -2 28 -10 12 -9 15 -9 9 0 -5 8 1 12
20 12 23 0 25 2 14 15 -7 9 30 -14 83 -50 89 -61 99 -65 151 -65z"/>
<path d="M714 685 c-24 -17 -7 -38 27 -33 29 4 35 24 11 37 -14 7 -24 6 -38
-4z"/>
<path d="M877 692 c-10 -2 -17 -11 -15 -20 4 -22 53 -28 61 -8 7 18 -19 34
-46 28z"/>
<path d="M1024 685 c-24 -17 -7 -38 27 -33 29 4 35 24 11 37 -14 7 -24 6 -38
-4z"/>
<path d="M1187 692 c-11 -2 -17 -11 -15 -20 4 -20 59 -24 65 -5 5 15 -26 31
-50 25z"/>
<path d="M1333 685 c-13 -10 -15 -17 -7 -25 16 -16 58 -8 62 11 4 22 -32 31
-55 14z"/>
<path d="M1494 685 c-24 -17 -7 -38 27 -33 29 4 35 24 11 37 -14 7 -24 6 -38
-4z"/>
<path d="M1647 688 c-24 -13 -9 -38 24 -38 22 0 29 5 29 19 0 22 -30 33 -53
19z"/>
<path d="M1804 685 c-24 -17 -7 -38 27 -33 29 4 35 24 11 37 -14 7 -24 6 -38
-4z"/>
<path d="M440 686 c0 -2 14 -14 30 -26 17 -12 30 -19 30 -16 0 2 -13 14 -30
26 -16 12 -30 19 -30 16z"/>
<path d="M2085 664 l-30 -26 33 22 c17 12 32 23 32 26 0 7 -4 5 -35 -22z"/>
<path d="M510 636 c0 -2 8 -10 18 -17 15 -13 16 -12 3 4 -13 16 -21 21 -21 13z"/>
<path d="M2029 623 c-13 -16 -12 -17 4 -4 16 13 21 21 13 21 -2 0 -10 -8 -17
-17z"/>
<path d="M164 1855 c-4 -8 -3 -34 1 -57 4 -24 9 -103 11 -175 l5 -133 30 -17
29 -17 0 -168 c0 -161 -1 -168 -20 -168 -17 0 -20 -7 -20 -46 0 -42 5 -51 44
-90 l43 -44 217 0 c197 0 220 2 256 20 34 17 59 20 193 20 141 0 155 -2 172
-20 16 -18 31 -20 155 -20 124 0 139 2 155 20 17 18 31 20 172 20 134 0 159
-3 193 -20 36 -18 59 -20 256 -20 l217 0 43 44 c39 39 44 48 44 90 0 39 -3 46
-20 46 -19 0 -20 7 -20 153 l0 153 29 29 c30 27 30 29 35 164 3 75 6 161 8
191 l3 55 -467 3 -467 2 -23 -30 -22 -30 -136 0 -136 0 -22 30 -23 30 -465 0
c-403 0 -465 -2 -470 -15z"/>
</g>
</svg>
