<svg xmlns="http://www.w3.org/2000/svg" width="682.667" height="682.667" version="1.0" viewBox="0 0 512 512">
    <path fill="#e5e5e5" d="m182.5 89-74 74 22.5 22.5 22.5 22.5 74-74 74-74L279 37.5 256.5 15zm94.5 35.5L233.5 168l22.5 22.5 22.5 22.5 44-44 44-44-22-22c-12.1-12.1-22.4-22-23-22s-20.6 19.6-44.5 43.5m-11 142L145.5 387l22 22c12.1 12.1 22.4 22 23 22 1.3 0 240.5-239.2 240.5-240.5 0-1-43-44.5-44-44.5-.3 0-54.7 54.2-121 120.5M74.7 196.8 60 211.5 82.5 234l22.5 22.5 14.7-14.8 14.8-14.7-22.5-22.5L89.5 182zm73 57C111 290.5 81 321 81 321.5c0 .6 9.9 10.9 22 23l22 22 67.3-67.3 67.2-67.2-22.5-22.5-22.5-22.5zM432 230.5 412.5 250l22.5 22.5 22.5 22.5 19.7-19.7 19.8-19.8-22.2-22.2C462.5 221 452.3 211 452 211s-9.3 8.8-20 19.5M27.7 243.8 15 256.5 37.5 279 60 301.5l13-13 13-13-22.2-22.2C51.5 241 41.3 231 41 231s-6.3 5.7-13.3 12.8m328 63L318 344.5l22.5 22.5 22.5 22.5 37.8-37.8 37.7-37.7-22.5-22.5-22.5-22.5zM254.5 408l-44 44 22.5 22.5 22.5 22.5 44.2-44.2 44.3-44.3-22.2-22.2C309.5 374 299.3 364 299 364s-20.3 19.8-44.5 44"/>
</svg>
