<?xml version="1.0" standalone="no"?>
<!DOCTYPE svg PUBLIC "-//W3C//DTD SVG 20010904//EN"
 "http://www.w3.org/TR/2001/REC-SVG-20010904/DTD/svg10.dtd">
<svg version="1.0" xmlns="http://www.w3.org/2000/svg"
 width="512.000000pt" height="512.000000pt" viewBox="0 0 512.000000 512.000000"
 preserveAspectRatio="xMidYMid meet">
<metadata>
Created by potrace 1.16, written by Peter Selinger 2001-2019
</metadata>
<g transform="translate(0.000000,512.000000) scale(0.100000,-0.100000)"
fill="#f2f2f2" stroke="none">
<path d="M1825 4230 l-740 -740 225 -225 225 -225 740 740 740 740 -225 225
-225 225 -740 -740z"/>
<path d="M2770 3875 l-435 -435 225 -225 225 -225 440 440 440 440 -220 220
c-121 121 -224 220 -230 220 -6 0 -206 -196 -445 -435z"/>
<path d="M2660 2455 l-1205 -1205 220 -220 c121 -121 224 -220 230 -220 13 0
2405 2392 2405 2405 0 10 -430 445 -440 445 -3 0 -547 -542 -1210 -1205z"/>
<path d="M747 3152 l-147 -147 225 -225 225 -225 147 148 148 147 -225 225
-225 225 -148 -148z"/>
<path d="M1477 2582 c-367 -367 -667 -672 -667 -677 0 -6 99 -109 220 -230
l220 -220 673 673 672 672 -225 225 -225 225 -668 -668z"/>
<path d="M4320 2815 l-195 -195 225 -225 225 -225 197 197 198 198 -222 222
c-123 123 -225 223 -228 223 -3 0 -93 -88 -200 -195z"/>
<path d="M277 2682 l-127 -127 225 -225 225 -225 130 130 130 130 -222 222
c-123 123 -225 223 -228 223 -3 0 -63 -57 -133 -128z"/>
<path d="M3557 2052 l-377 -377 225 -225 225 -225 378 378 377 377 -225 225
-225 225 -378 -378z"/>
<path d="M2545 1040 l-440 -440 225 -225 225 -225 442 442 443 443 -222 222
c-123 123 -225 223 -228 223 -3 0 -203 -198 -445 -440z"/>
</g>
</svg>
