<?xml version="1.0" standalone="no"?>
<!DOCTYPE svg PUBLIC "-//W3C//DTD SVG 20010904//EN"
 "http://www.w3.org/TR/2001/REC-SVG-20010904/DTD/svg10.dtd">
<svg version="1.0" xmlns="http://www.w3.org/2000/svg"
 width="512.000000pt" height="512.000000pt" viewBox="0 0 512.000000 512.000000"
 preserveAspectRatio="xMidYMid meet">
<metadata>
Created by potrace 1.16, written by Peter Selinger 2001-2019
</metadata>
<g transform="translate(0.000000,512.000000) scale(0.100000,-0.100000)"
fill="#f2f2f2" stroke="none">
<path d="M2458 4423 c-135 -186 -339 -494 -453 -683 -118 -197 -275 -504 -332
-650 -71 -184 -152 -481 -156 -574 l-2 -59 85 -31 c115 -41 374 -173 490 -251
104 -69 234 -197 296 -290 36 -53 39 -56 45 -34 4 13 34 356 66 762 32 405 60
737 63 737 3 0 31 -332 63 -737 32 -406 62 -749 66 -762 6 -22 9 -19 45 34 62
93 192 221 296 290 116 78 375 210 490 251 l85 31 -2 59 c-4 93 -85 390 -156
574 -57 146 -214 453 -332 650 -167 278 -532 810 -555 810 -5 0 -51 -57 -102
-127z"/>
<path d="M316 2543 c101 -456 241 -895 373 -1168 77 -159 235 -405 310 -482
199 -204 422 -311 689 -329 53 -4 96 -3 106 3 15 8 9 11 -28 16 -58 8 -161 49
-240 95 -93 55 -201 170 -284 302 -111 179 -182 352 -265 645 -50 177 -102
393 -96 399 6 6 204 -21 374 -50 180 -31 419 -91 533 -133 131 -49 310 -145
384 -206 125 -104 222 -265 253 -420 9 -44 18 -81 20 -83 8 -9 17 155 11 215
-23 225 -141 463 -308 620 -105 98 -374 254 -567 328 -262 101 -715 201 -1224
270 l-48 6 7 -28z"/>
<path d="M4745 2563 c-472 -63 -951 -169 -1206 -268 -193 -74 -462 -230 -567
-328 -167 -157 -285 -395 -308 -620 -6 -60 3 -224 11 -215 2 2 11 39 20 83 31
155 128 316 253 420 74 61 253 157 384 206 114 42 353 102 533 133 170 29 368
56 374 50 6 -6 -46 -222 -96 -399 -83 -293 -154 -466 -265 -645 -83 -132 -191
-247 -284 -302 -79 -46 -182 -87 -240 -95 -37 -5 -43 -8 -28 -16 10 -6 53 -7
106 -3 267 18 490 125 689 329 75 77 233 323 310 482 132 272 273 715 373
1168 7 29 7 29 -59 20z"/>
<path d="M1587 1358 c16 -18 158 -179 315 -358 157 -179 291 -330 299 -336 8
-6 74 -32 147 -57 l132 -47 -7 28 c-3 15 -23 81 -42 147 l-37 120 -409 267
c-226 146 -414 267 -419 267 -6 1 4 -14 21 -31z"/>
<path d="M3135 1122 l-409 -267 -37 -120 c-19 -66 -39 -132 -42 -147 l-7 -28
132 47 c73 25 139 51 147 57 8 6 142 157 299 336 157 179 299 340 315 358 17
17 27 32 21 31 -5 0 -193 -121 -419 -267z"/>
</g>
</svg>
