<?xml version="1.0" standalone="no"?>
<!DOCTYPE svg PUBLIC "-//W3C//DTD SVG 20010904//EN"
 "http://www.w3.org/TR/2001/REC-SVG-20010904/DTD/svg10.dtd">
<svg version="1.0" xmlns="http://www.w3.org/2000/svg"
 width="128.000000pt" height="128.000000pt" viewBox="0 0 128.000000 128.000000"
 preserveAspectRatio="xMidYMid meet">
<metadata>
Created by potrace 1.16, written by Peter Selinger 2001-2019
</metadata>
<g transform="translate(0.000000,128.000000) scale(0.100000,-0.100000)"
fill="#f2f2f2" stroke="none">
<path d="M110 635 l0 -525 478 0 c532 0 522 -1 569 69 23 33 23 40 23 312 l0
279 -90 0 -90 0 0 195 0 195 -445 0 -445 0 0 -525z m800 0 l0 -425 -350 0
-350 0 0 425 0 425 350 0 350 0 0 -425z m168 -192 l-3 -228 -23 -3 c-50 -7
-52 4 -52 239 l0 219 40 0 40 0 -2 -227z"/>
<path d="M262 783 l3 -188 290 0 290 0 3 188 2 187 -295 0 -295 0 2 -187z
m488 2 l0 -95 -195 0 -195 0 0 95 0 95 195 0 195 0 0 -95z"/>
<path d="M270 495 l0 -45 275 0 275 0 0 45 0 45 -275 0 -275 0 0 -45z"/>
<path d="M270 355 l0 -45 275 0 275 0 0 45 0 45 -275 0 -275 0 0 -45z"/>
</g>
</svg>
