<?xml version="1.0" standalone="no"?>
<!DOCTYPE svg PUBLIC "-//W3C//DTD SVG 20010904//EN"
 "http://www.w3.org/TR/2001/REC-SVG-20010904/DTD/svg10.dtd">
<svg version="1.0" xmlns="http://www.w3.org/2000/svg"
 width="256.000000pt" height="256.000000pt" viewBox="0 0 256.000000 256.000000"
 preserveAspectRatio="xMidYMid meet">
<metadata>
Created by potrace 1.16, written by Peter Selinger 2001-2019
</metadata>
<g transform="translate(0.000000,256.000000) scale(0.100000,-0.100000)"
fill="#f2f2f2" stroke="none">
<path d="M863 2420 c-88 -18 -91 -24 -97 -196 -2 -56 -9 -111 -15 -122 -23
-43 -4 -192 25 -192 8 0 37 -21 65 -47 28 -26 71 -61 97 -78 33 -21 51 -42 62
-71 26 -69 206 -266 273 -297 84 -40 237 -45 256 -8 5 9 7 35 4 57 -4 35 0 46
44 104 27 36 77 106 111 156 82 123 167 220 263 300 67 56 109 105 109 128 0
11 -139 47 -191 51 -30 1 -64 6 -76 10 -17 6 -25 1 -37 -23 -20 -38 -66 -72
-99 -72 -14 0 -68 29 -123 66 -162 108 -279 159 -424 184 -36 7 -92 22 -126
36 -33 13 -65 24 -70 23 -5 -1 -28 -5 -51 -9z"/>
<path d="M960 1610 c0 -28 -6 -33 -84 -70 -91 -43 -137 -87 -157 -150 -22 -69
-41 -98 -74 -116 -48 -25 -104 -103 -126 -175 -10 -33 -19 -67 -19 -75 0 -24
72 19 144 87 49 46 74 61 103 65 69 9 81 14 112 40 l31 26 0 -26 c0 -14 16
-55 35 -92 19 -36 35 -76 35 -88 0 -12 -14 -35 -31 -52 -55 -52 -70 -88 -79
-183 -8 -91 -23 -130 -79 -213 -16 -24 -36 -67 -45 -97 -18 -63 -22 -226 -6
-283 17 -59 80 -93 80 -43 0 71 103 275 229 456 61 87 65 91 74 68 5 -13 13
-91 17 -174 5 -118 12 -162 29 -207 37 -95 111 -178 161 -178 24 0 24 1 4 109
-12 65 -15 116 -10 206 19 357 19 385 1 451 -9 35 -23 68 -31 75 -19 15 -18
71 2 117 9 20 16 60 16 87 0 64 4 70 35 45 35 -27 84 -34 140 -20 40 10 57 10
99 -3 56 -17 109 -11 166 19 l31 16 -29 19 c-62 40 -148 60 -271 62 -106 2
-123 5 -169 29 -27 15 -57 34 -65 44 -8 9 -38 33 -67 52 -34 21 -64 51 -80 79
-36 60 -91 123 -108 123 -9 0 -14 -11 -14 -30z"/>
</g>
</svg>
