<?xml version="1.0" standalone="no"?>
<!DOCTYPE svg PUBLIC "-//W3C//DTD SVG 20010904//EN"
 "http://www.w3.org/TR/2001/REC-SVG-20010904/DTD/svg10.dtd">
<svg version="1.0" xmlns="http://www.w3.org/2000/svg"
 width="256.000000pt" height="256.000000pt" viewBox="0 0 256.000000 256.000000"
 preserveAspectRatio="xMidYMid meet">
<metadata>
Created by potrace 1.16, written by Peter Selinger 2001-2019
</metadata>
<g transform="translate(0.000000,256.000000) scale(0.100000,-0.100000)"
fill="#f2f2f2" stroke="none">
<path d="M1120 2439 c-263 -68 -393 -238 -393 -516 0 -101 -1 -103 -24 -103
-80 0 -28 -191 67 -247 18 -10 56 -53 86 -96 102 -145 282 -303 379 -333 38
-11 52 -11 90 0 97 30 277 188 379 333 30 43 68 86 86 96 95 56 147 247 67
247 -23 0 -24 2 -24 103 -1 173 -42 286 -140 382 -131 130 -372 187 -573 134z"/>
<path d="M980 1175 c0 -62 -59 -100 -260 -170 -74 -26 -157 -60 -185 -75 -96
-55 -162 -144 -179 -241 -12 -65 56 -134 256 -258 122 -77 470 -257 583 -302
l79 -31 55 17 c76 24 494 237 619 315 200 125 267 194 256 259 -17 95 -85 188
-178 240 -28 16 -112 50 -186 76 -200 70 -234 89 -254 148 l-13 38 -49 -39
c-27 -22 -76 -55 -109 -73 -53 -30 -68 -34 -135 -34 -67 0 -82 4 -135 34 -33
18 -78 48 -100 65 -57 46 -65 50 -65 31z"/>
</g>
</svg>
