<?xml version="1.0" standalone="no"?>
<!DOCTYPE svg PUBLIC "-//W3C//DTD SVG 20010904//EN"
 "http://www.w3.org/TR/2001/REC-SVG-20010904/DTD/svg10.dtd">
<svg version="1.0" xmlns="http://www.w3.org/2000/svg"
 width="512.000000pt" height="512.000000pt" viewBox="0 0 512.000000 512.000000"
 preserveAspectRatio="xMidYMid meet">
<metadata>
Created by potrace 1.16, written by Peter Selinger 2001-2019
</metadata>
<g transform="translate(0.000000,512.000000) scale(0.100000,-0.100000)"
fill="#f2f2f2" stroke="none">
<path d="M2340 4659 c-463 -53 -873 -271 -1165 -620 -271 -324 -426 -735 -424
-1124 1 -157 10 -203 48 -237 l31 -28 248 0 249 0 12 -77 c7 -43 14 -90 17
-104 5 -22 -7 -36 -98 -115 -57 -50 -141 -121 -188 -158 -47 -37 -86 -71 -87
-75 -1 -3 39 -31 88 -61 185 -112 604 -423 783 -581 336 -295 581 -635 676
-937 l26 -83 22 77 c87 294 341 647 678 943 179 158 598 469 783 581 49 30 89
58 88 61 -1 4 -40 37 -87 75 -47 37 -134 110 -193 163 -103 89 -109 96 -103
125 4 17 12 61 18 99 l11 67 253 0 254 0 31 28 c38 34 47 80 48 237 2 389
-153 800 -424 1124 -344 411 -843 636 -1397 630 -68 -1 -157 -5 -198 -10z
m505 -214 c542 -95 972 -441 1194 -959 72 -170 121 -397 121 -568 l0 -68 -194
0 -193 0 -7 69 c-8 95 -48 243 -94 350 -113 261 -340 485 -598 588 -297 120
-667 132 -964 33 -420 -139 -719 -506 -773 -947 l-11 -93 -188 0 -188 0 0 68
c0 152 43 374 102 522 227 574 703 944 1308 1019 104 13 377 6 485 -14z m-174
-695 c271 -28 468 -118 636 -293 177 -184 263 -409 263 -690 0 -179 -31 -318
-103 -462 -117 -235 -322 -405 -577 -478 l-85 -25 -3 330 -2 330 41 45 c22 24
53 70 67 101 23 50 27 70 27 157 -1 122 -24 189 -91 264 -137 153 -421 168
-576 32 -154 -135 -169 -398 -32 -549 l44 -50 0 -327 0 -327 -32 7 c-122 27
-281 107 -389 196 -229 191 -364 542 -329 857 55 499 391 833 885 881 118 12
143 12 256 1z m-61 -1670 l0 -300 -70 0 -70 0 0 300 0 300 70 0 70 0 0 -300z"/>
</g>
</svg>
