<svg xmlns="http://www.w3.org/2000/svg" width="682.667" height="682.667" version="1.0" viewBox="0 0 512 512">
    <path fill="#e5e5e5" d="M234 46.1c-46.3 5.3-87.3 27.1-116.5 62-27.1 32.4-42.6 73.5-42.4 112.4.1 15.7 1 20.3 4.8 23.7L83 247h49.7l1.2 7.7c.7 4.3 1.4 9 1.7 10.4.5 2.2-.7 3.6-9.8 11.5-5.7 5-14.1 12.1-18.8 15.8s-8.6 7.1-8.7 7.5c-.1.3 3.9 3.1 8.8 6.1 18.5 11.2 60.4 42.3 78.3 58.1 33.6 29.5 58.1 63.5 67.6 93.7l2.6 8.3 2.2-7.7c8.7-29.4 34.1-64.7 67.8-94.3 17.9-15.8 59.8-46.9 78.3-58.1 4.9-3 8.9-5.8 8.8-6.1-.1-.4-4-3.7-8.7-7.5-4.7-3.7-13.4-11-19.3-16.3-10.3-8.9-10.9-9.6-10.3-12.5.4-1.7 1.2-6.1 1.8-9.9l1.1-6.7H428l3.1-2.8c3.8-3.4 4.7-8 4.8-23.7.2-38.9-15.3-80-42.4-112.4-34.4-41.1-84.3-63.6-139.7-63-6.8.1-15.7.5-19.8 1m50.5 21.4c54.2 9.5 97.2 44.1 119.4 95.9 7.2 17 12.1 39.7 12.1 56.8v6.8h-38.7l-.7-6.9c-.8-9.5-4.8-24.3-9.4-35-11.3-26.1-34-48.5-59.8-58.8-29.7-12-66.7-13.2-96.4-3.3-42 13.9-71.9 50.6-77.3 94.7l-1.1 9.3H95v-6.8c0-15.2 4.3-37.4 10.2-52.2 22.7-57.4 70.3-94.4 130.8-101.9 10.4-1.3 37.7-.6 48.5 1.4M267.1 137c27.1 2.8 46.8 11.8 63.6 29.3 17.7 18.4 26.3 40.9 26.3 69 0 17.9-3.1 31.8-10.3 46.2C335 305 314.5 322 289 329.3l-8.5 2.5-.3-33-.2-33 4.1-4.5c2.2-2.4 5.3-7 6.7-10.1 2.3-5 2.7-7 2.7-15.7-.1-12.2-2.4-18.9-9.1-26.4-13.7-15.3-42.1-16.8-57.6-3.2-15.4 13.5-16.9 39.8-3.2 54.9l4.4 5v65.4l-3.2-.7c-12.2-2.7-28.1-10.7-38.9-19.6-22.9-19.1-36.4-54.2-32.9-85.7 5.5-49.9 39.1-83.3 88.5-88.1 11.8-1.2 14.3-1.2 25.6-.1M261 304v30h-14v-60h14z"/>
</svg>
