<?xml version="1.0" standalone="no"?>
<!DOCTYPE svg PUBLIC "-//W3C//DTD SVG 20010904//EN"
 "http://www.w3.org/TR/2001/REC-SVG-20010904/DTD/svg10.dtd">
<svg version="1.0" xmlns="http://www.w3.org/2000/svg"
 width="256.000000pt" height="256.000000pt" viewBox="0 0 256.000000 256.000000"
 preserveAspectRatio="xMidYMid meet">
<metadata>
Created by potrace 1.16, written by Peter Selinger 2001-2019
</metadata>
<g transform="translate(0.000000,256.000000) scale(0.100000,-0.100000)"
fill="#f2f2f2" stroke="none">
<path d="M352 2260 c-18 -11 -41 -34 -52 -52 -19 -32 -20 -52 -20 -466 l0
-432 40 26 40 27 0 78 0 79 75 0 75 0 0 -45 c0 -25 4 -45 10 -45 5 0 41 5 79
12 68 12 70 13 73 42 3 31 3 31 71 34 l67 3 0 -34 0 -35 71 -16 c39 -9 75 -16
80 -16 5 0 9 23 9 50 l0 50 140 0 140 0 0 -137 0 -138 57 -77 c32 -42 61 -74
66 -71 4 2 7 98 7 211 l-2 207 86 3 86 3 0 -28 c0 -35 34 -110 63 -142 12 -13
45 -34 72 -47 44 -21 65 -24 174 -24 l124 0 -23 -25 c-13 -14 -33 -25 -44 -25
-79 0 -148 -48 -173 -121 l-18 -49 -173 0 -172 0 19 -37 c10 -21 24 -57 31
-80 l13 -43 144 0 143 0 0 -270 0 -270 -30 0 -30 0 0 123 c0 98 -4 130 -19
162 -25 53 -86 111 -138 129 -24 8 -43 14 -43 13 -1 -1 -2 -38 -3 -82 -2 -70
0 -82 21 -102 20 -20 22 -31 22 -133 l0 -110 -64 0 c-63 0 -64 0 -90 -40 l-26
-40 422 0 c404 0 424 1 456 20 18 11 41 34 52 52 19 32 20 53 20 928 0 875 -1
896 -20 928 -11 18 -34 41 -52 52 -32 19 -53 20 -928 20 -875 0 -896 -1 -928
-20z m158 -155 l0 -95 -75 0 -75 0 0 75 c0 97 15 115 95 115 l55 0 0 -95z
m300 0 l0 -96 -67 3 -68 3 -3 93 -3 92 71 0 70 0 0 -95z m440 0 l0 -95 -140 0
-140 0 0 95 0 95 140 0 140 0 0 -95z m541 -142 c0 -256 -5 -279 -61 -308 -55
-28 -60 -23 -60 63 0 182 -75 278 -227 291 l-65 6 1 88 c0 48 0 89 1 92 0 3
92 4 205 3 l206 -3 0 -232z m389 217 c11 -11 20 -33 20 -49 0 -27 -2 -29 -54
-33 -39 -3 -65 -12 -90 -32 -65 -49 -66 -53 -66 -376 l0 -290 -115 0 c-130 0
-165 11 -190 60 -22 43 -19 60 10 60 68 0 154 60 192 133 28 52 28 53 31 300
l4 247 119 0 c106 0 121 -2 139 -20z m20 -470 l0 -310 -65 0 -65 0 0 283 c1
206 4 286 13 298 19 24 49 38 85 39 l32 0 0 -310z m-1690 55 l0 -125 -75 0
-75 0 0 125 0 125 75 0 75 0 0 -125z m300 0 l0 -125 -70 0 -70 0 0 125 0 125
70 0 70 0 0 -125z m440 0 l0 -125 -140 0 -140 0 0 125 0 125 140 0 140 0 0
-125z m241 108 c42 -25 59 -69 59 -157 l0 -76 -87 0 -88 0 0 125 0 125 43 0
c24 0 57 -8 73 -17z m709 -1031 c0 -448 -1 -465 -38 -474 -11 -2 -13 30 -12
158 2 266 -21 348 -125 442 -42 39 -72 57 -122 72 -36 11 -71 20 -79 20 -18 0
-17 4 1 39 16 32 24 37 89 46 62 10 107 41 131 92 l20 42 68 1 67 0 0 -438z
m-305 23 c23 -13 50 -41 63 -63 21 -39 23 -52 23 -239 l0 -198 -85 -3 -86 -3
0 271 0 271 23 -6 c12 -4 40 -17 62 -30z"/>
<path d="M603 1246 c-192 -44 -359 -204 -408 -391 -19 -76 -19 -214 0 -290 77
-295 410 -475 696 -376 91 31 136 58 208 126 230 217 230 573 0 790 -72 68
-117 95 -209 127 -73 25 -207 32 -287 14z m221 -161 c63 -16 132 -53 161 -85
18 -20 16 -23 -148 -187 l-167 -167 -78 76 -77 77 -51 -49 -51 -48 136 -136
136 -136 205 205 205 206 12 -38 c26 -85 9 -212 -40 -296 -144 -245 -494 -265
-661 -37 -112 152 -97 377 34 508 107 106 242 144 384 107z"/>
</g>
</svg>
