<?xml version="1.0" standalone="no"?>
<!DOCTYPE svg PUBLIC "-//W3C//DTD SVG 20010904//EN"
 "http://www.w3.org/TR/2001/REC-SVG-20010904/DTD/svg10.dtd">
<svg version="1.0" xmlns="http://www.w3.org/2000/svg"
 width="256.000000pt" height="256.000000pt" viewBox="0 0 256.000000 256.000000"
 preserveAspectRatio="xMidYMid meet">
<metadata>
Created by potrace 1.16, written by Peter Selinger 2001-2019
</metadata>
<g transform="translate(0.000000,256.000000) scale(0.100000,-0.100000)"
fill="#f2f2f2" stroke="none">
<path d="M1737 2335 c-136 -7 -249 -14 -251 -16 -2 -2 -46 -78 -99 -169 -79
-135 -93 -166 -79 -168 10 -2 207 18 437 43 231 25 430 46 443 48 14 1 54 -23
117 -71 52 -40 95 -70 95 -66 0 4 -5 36 -11 70 l-11 63 -181 140 c-99 78 -188
140 -196 140 -9 -1 -127 -7 -264 -14z"/>
<path d="M923 2235 c-210 -11 -384 -22 -387 -25 -8 -8 592 -282 603 -276 12 8
172 308 169 315 -2 3 -175 -3 -385 -14z"/>
<path d="M200 2135 c-27 -34 -50 -67 -50 -72 0 -13 314 -323 327 -323 15 0
445 152 441 156 -3 2 -443 202 -615 279 l-52 24 -51 -64z"/>
<path d="M1680 1928 c-267 -33 -486 -61 -486 -61 -1 -1 -157 -275 -348 -608
l-346 -606 -6 -99 -6 -99 157 -113 c86 -62 163 -116 170 -118 8 -4 135 176
355 505 188 281 344 511 347 511 2 0 1 -6 -4 -12 -69 -112 -549 -984 -542
-986 5 -2 280 38 611 90 l602 93 87 180 87 180 21 365 c12 201 24 399 27 440
l5 75 -333 -502 c-184 -277 -338 -506 -343 -510 -5 -5 -2 3 6 17 106 172 680
1142 677 1145 -35 35 -226 175 -237 174 -9 -1 -234 -28 -501 -61z"/>
<path d="M761 1744 c-112 -35 -204 -64 -206 -66 -3 -5 -42 -773 -39 -777 1 -2
105 200 229 449 124 249 225 453 223 455 -2 1 -95 -27 -207 -61z"/>
<path d="M156 1737 c-3 -29 -7 -272 -8 -542 l-3 -490 123 -28 c68 -16 126 -26
130 -23 5 6 49 762 51 881 1 27 -13 41 -143 142 l-145 112 -5 -52z"/>
<path d="M140 635 c0 -9 122 -271 129 -278 7 -7 55 -26 256 -101 80 -30 85
-36 -60 79 l-75 60 2 84 3 85 -55 17 c-103 31 -200 57 -200 54z"/>
</g>
</svg>
