<svg xmlns="http://www.w3.org/2000/svg" width="682.667" height="682.667" version="1.0" viewBox="0 0 512 512">
    <g fill="#e5e5e5">
        <path d="M235.9 22.2c-10.7 11.7-23 25.3-27.4 30.2l-8 8.8 4.5 3.9c2.5 2.1 4.8 3.8 5.2 3.6.4-.1 10.7-11.2 22.8-24.7 12.2-13.5 22.5-24.5 23-24.5s10.8 11 23 24.5c12.1 13.5 22.4 24.6 22.8 24.7.4.2 2.7-1.5 5.2-3.6l4.5-3.9-8-8.8C268.8 14 256.7 1 256 1c-.5 0-9.5 9.6-20.1 21.2"/>
        <path d="M235 58c-.8 1-4.7 5.5-8.7 9.8l-7.2 7.9 13 10.8c7.1 5.9 15.4 13.5 18.4 16.8l5.5 6 5.5-6c3-3.3 11.3-10.9 18.4-16.8L293 75.7l-4.2-4.6c-2.3-2.5-6.4-7-9.1-9.9l-5-5.4-9.3 9.3-9.4 9.4-9.3-9.3c-5.1-5-9.5-9.2-9.7-9.2-.3.1-1.2.9-2 2"/>
        <path d="M182.6 81.2c-17.3 19.5-18.1 23.5-8.2 40.2 5.5 9.2 14.5 18.2 30.1 30.1 16.8 13 26.3 22.4 30.5 30.3 3.6 6.8 9.1 12.4 16.3 16.6l4.7 2.8 4.7-2.8c7.2-4.2 12.7-9.8 16.3-16.6 4.2-7.9 13.7-17.3 30.5-30.3 15.6-11.9 24.6-20.9 30.1-30.1 6.9-11.6 7.8-16.7 4.5-23.9-1.6-3.6-22-27.6-23.9-28.3-.5-.1-2.9 1.4-5.6 3.4l-4.7 3.7 3.4 3.6c10.9 11.6 20.7 23.3 20.7 24.7 0 3-6.2 13.3-11.7 19.3-3 3.3-10.2 9.7-16.1 14.2-24.5 18.9-34.5 28.6-39.7 38.8-1.3 2.5-3.7 5.9-5.4 7.5l-3.1 3-3.1-3c-1.7-1.6-4.1-5-5.4-7.5-5.2-10.2-15.2-19.9-39.7-38.8-5.9-4.5-13.1-10.9-16.1-14.2-5.5-6-11.7-16.3-11.7-19.3 0-1.4 9.8-13.1 20.7-24.7l3.4-3.6-4.7-3.6c-2.6-2.1-5-3.7-5.3-3.7-.4 0-5.5 5.5-11.5 12.2"/>
        <path d="M209.6 86.1c-1.4 1.7-2.6 3.5-2.6 3.9 0 1.6 6.3 7.3 20 17.9 7.4 5.8 16.9 13.9 21.2 18.1l7.8 7.5 7.8-7.5c4.3-4.2 13.8-12.3 21.2-18.1 13.8-10.7 20-16.3 20-17.9 0-.5-1.3-2.4-2.8-4.1l-2.8-3.2-10.3 8.3c-12.4 10-24.4 21.8-29.1 28.8-1.9 2.9-3.7 5.2-4 5.2s-2.1-2.3-4-5.1c-4.8-7-16.9-19.1-29-28.8-5.5-4.5-10.2-8.1-10.4-8.1-.3 0-1.6 1.4-3 3.1"/>
        <path d="M195.7 101.7q-4.8 5.4-3.9 6.6c6 8 10.3 12 25.7 24.1 16.9 13.2 31.5 26.5 36.3 33l2.2 2.9 2.2-2.9c4.8-6.6 19.4-19.8 36.3-33.1 17.6-13.7 27.1-23.4 25.7-25.9-.4-.6-2.7-3.3-5.1-5.9l-4.3-4.7-4.2 3.9c-2.2 2.2-10.3 8.8-17.8 14.7-15.1 11.8-25.2 21.2-29.3 27.5-1.5 2.2-3 4.1-3.4 4.1-.3 0-1.7-1.7-3.1-3.7-4.3-6.4-15.5-16.8-31.2-29.2-8.4-6.5-16.4-13.1-17.7-14.5-1.4-1.4-2.7-2.6-3-2.5-.3 0-2.8 2.5-5.4 5.6m2.6 65.9c.3 4.4 2 14.9 3.7 23.4 6.2 31.1 18.7 126.7 34.5 264.4l3.5 30.9 5.1 11.8c2.9 6.6 5.5 12.2 6 12.5s.9-63.5.9-148.8V212.4l-4.5-3.2-4.5-3.2v79.9c0 73.6-.1 79.9-1.7 80.5-.9.4-1.9.3-2.3-.1s-2.6-16.6-4.9-35.8c-8.7-72.2-14.8-114.1-21.8-152-1.8-9.6-1.6-9.2-10.7-16l-3.9-2.9zm108.1-2-5.9 4.5-2.2 11.2c-5.6 27.7-12.6 76.6-21.4 149.2-2.3 19.2-4.5 35.4-4.9 35.8s-1.4.5-2.3.1c-1.6-.6-1.7-6.8-1.7-80.1v-79.4l-4.5 3.1-4.5 3.1v149c0 85.1.4 148.8.9 148.5s3.1-5.9 6-12.5l5.1-11.8 3.5-30.9c15.9-139 28.2-233 34.6-264.7 2.8-14.3 4.8-29.7 3.7-29.7-.3 0-3.2 2-6.4 4.6"/>
    </g>
</svg>
