<?xml version="1.0" standalone="no"?>
<!DOCTYPE svg PUBLIC "-//W3C//DTD SVG 20010904//EN"
 "http://www.w3.org/TR/2001/REC-SVG-20010904/DTD/svg10.dtd">
<svg version="1.0" xmlns="http://www.w3.org/2000/svg"
 width="512.000000pt" height="512.000000pt" viewBox="0 0 512.000000 512.000000"
 preserveAspectRatio="xMidYMid meet">
<metadata>
Created by potrace 1.16, written by Peter Selinger 2001-2019
</metadata>
<g transform="translate(0.000000,512.000000) scale(0.100000,-0.100000)"
fill="#f2f2f2" stroke="none">
<path d="M2536 4893 c-26 -81 -94 -210 -162 -304 -118 -164 -281 -307 -482
-425 -461 -269 -764 -602 -868 -951 -21 -70 -27 -117 -31 -228 -8 -215 21
-551 62 -705 8 -30 12 -39 9 -20 -13 91 -15 315 -5 420 37 356 150 622 352
822 106 104 312 256 589 434 361 232 475 316 538 398 l22 29 22 -29 c63 -82
177 -166 538 -398 277 -178 483 -330 589 -434 202 -200 315 -466 352 -822 10
-105 8 -329 -5 -420 -3 -19 1 -10 9 20 41 154 70 490 62 705 -4 111 -10 158
-31 228 -56 189 -161 360 -325 530 -165 171 -319 290 -543 421 -201 118 -364
261 -482 425 -68 94 -136 223 -162 304 -10 32 -21 57 -24 57 -3 0 -14 -25 -24
-57z"/>
<path d="M2158 3667 c-218 -155 -400 -285 -403 -288 -12 -13 38 -519 81 -819
66 -458 171 -859 317 -1205 30 -71 86 -204 125 -295 125 -298 245 -685 267
-862 4 -32 11 -58 15 -58 4 0 11 26 15 58 22 177 142 566 267 860 38 92 95
226 125 297 181 430 292 908 362 1570 37 345 44 447 29 460 -17 15 -797 565
-800 564 -2 0 -182 -127 -400 -282z m629 -98 c125 -83 230 -152 232 -154 2 -2
-46 -66 -106 -142 -179 -227 -288 -385 -327 -471 -10 -23 -22 -42 -26 -42 -4
0 -16 19 -26 42 -39 87 -148 244 -328 472 -98 124 -108 141 -93 150 10 6 113
75 230 153 117 78 213 142 214 142 1 1 105 -67 230 -150z m-740 -382 c140
-150 262 -383 362 -690 44 -135 110 -395 131 -514 7 -40 16 -73 20 -73 4 0 13
33 20 73 21 119 87 379 131 515 81 247 180 455 291 604 60 82 202 217 206 197
4 -20 -61 -489 -104 -749 -78 -481 -139 -689 -404 -1385 -50 -132 -101 -266
-113 -297 -11 -32 -24 -58 -27 -58 -3 0 -16 26 -27 57 -12 32 -63 166 -113
298 -265 696 -325 902 -404 1385 -34 206 -106 712 -106 746 0 21 58 -25 137
-109z"/>
</g>
</svg>
