<?xml version="1.0" standalone="no"?>
<!DOCTYPE svg PUBLIC "-//W3C//DTD SVG 20010904//EN"
 "http://www.w3.org/TR/2001/REC-SVG-20010904/DTD/svg10.dtd">
<svg version="1.0" xmlns="http://www.w3.org/2000/svg"
 width="512.000000pt" height="512.000000pt" viewBox="0 0 512.000000 512.000000"
 preserveAspectRatio="xMidYMid meet">
<metadata>
Created by potrace 1.16, written by Peter Selinger 2001-2019
</metadata>
<g transform="translate(0.000000,512.000000) scale(0.100000,-0.100000)"
fill="#f2f2f2" stroke="none">
<path d="M2438 4847 c-64 -73 -180 -202 -258 -287 -77 -85 -139 -159 -137
-164 2 -5 21 -24 44 -43 l40 -33 213 235 c117 129 216 235 220 235 4 0 84 -84
176 -186 93 -103 189 -209 214 -236 l45 -49 45 39 45 39 -45 52 c-137 155
-476 530 -480 529 -3 0 -58 -59 -122 -131z"/>
<path d="M2291 4354 c-46 -52 -82 -96 -80 -97 73 -54 185 -150 256 -221 l93
-90 92 90 c51 50 129 119 173 154 44 34 82 64 84 66 4 3 -22 33 -127 147 l-45
49 -88 -88 -89 -89 -88 88 c-48 48 -90 87 -92 86 -3 0 -43 -43 -89 -95z"/>
<path d="M1865 4209 c-59 -67 -113 -136 -121 -155 -23 -55 -17 -105 21 -180
55 -110 121 -182 292 -317 196 -155 252 -209 303 -296 41 -72 102 -133 164
-166 36 -19 36 -19 72 0 62 33 123 94 164 166 51 87 107 141 303 296 171 135
237 207 292 317 38 75 44 125 21 180 -14 33 -221 276 -234 276 -4 0 -26 -17
-49 -38 l-43 -37 115 -129 c63 -71 115 -134 115 -140 0 -17 -65 -123 -106
-173 -20 -24 -104 -96 -187 -160 -187 -145 -301 -258 -344 -338 -17 -33 -43
-71 -57 -84 l-26 -24 -26 24 c-14 13 -40 51 -57 84 -43 81 -159 194 -344 338
-83 64 -167 136 -187 160 -41 50 -106 156 -106 173 0 6 52 69 115 140 l115
129 -43 37 c-23 21 -45 38 -49 38 -3 0 -54 -55 -113 -121z"/>
<path d="M2115 4160 l-29 -30 35 -36 c19 -20 93 -81 164 -137 72 -56 163 -134
203 -173 l72 -71 73 71 c39 39 131 117 202 173 72 56 145 117 164 137 l35 36
-29 30 c-16 16 -33 30 -38 30 -16 0 -210 -166 -283 -241 -38 -41 -80 -91 -93
-111 -12 -21 -26 -38 -31 -38 -5 0 -19 17 -31 38 -13 20 -55 70 -93 111 -73
75 -267 241 -283 241 -5 0 -22 -14 -38 -30z"/>
<path d="M1996 4025 c-45 -52 -48 -58 -36 -81 24 -43 93 -107 250 -230 157
-123 275 -230 323 -294 l27 -35 27 35 c49 65 167 172 343 311 154 122 241 207
240 235 -1 5 -23 34 -50 64 -42 47 -50 52 -56 36 -4 -10 -84 -79 -178 -154
-179 -142 -251 -209 -293 -274 -14 -21 -29 -38 -32 -38 -4 0 -26 27 -50 60
-46 62 -121 129 -322 288 -64 50 -122 101 -130 112 -14 21 -15 20 -63 -35z"/>
<path d="M2010 3427 c0 -41 8 -92 60 -362 39 -207 164 -1168 265 -2040 24
-214 51 -446 59 -515 13 -108 22 -141 64 -245 27 -66 52 -119 56 -117 3 1 6 4
6 7 0 3 0 639 0 1414 l0 1408 -38 27 c-21 14 -40 26 -43 26 -2 0 -3 -339 -1
-754 l2 -754 -20 -5 c-12 -3 -23 0 -25 6 -2 7 -20 154 -40 327 -68 580 -139
1086 -198 1399 -23 124 -23 125 -68 163 -73 65 -79 66 -79 15z"/>
<path d="M3030 3413 l-55 -45 -27 -152 c-59 -318 -116 -727 -188 -1331 -23
-192 -43 -355 -45 -362 -2 -6 -13 -9 -25 -6 l-21 6 3 748 c2 412 -1 749 -5
749 -5 0 -24 -12 -43 -26 l-34 -26 0 -1416 c0 -780 4 -1412 9 -1407 4 6 29 61
55 124 l47 113 80 677 c82 701 127 1067 159 1306 65 474 94 665 120 799 33
166 48 296 34 295 -5 0 -34 -21 -64 -46z"/>
</g>
</svg>
