<svg xmlns="http://www.w3.org/2000/svg" width="682.667" height="682.667" version="1.0" viewBox="0 0 512 512">
    <g fill="#e5e5e5">
        <path d="M253.6 22.7c-2.6 8.1-9.4 21-16.2 30.4-11.8 16.4-28.1 30.7-48.2 42.5-46.1 26.9-76.4 60.2-86.8 95.1-2.1 7-2.7 11.7-3.1 22.8-.8 21.5 2.1 55.1 6.2 70.5.8 3 1.2 3.9.9 2-1.3-9.1-1.5-31.5-.5-42 3.7-35.6 15-62.2 35.2-82.2 10.6-10.4 31.2-25.6 58.9-43.4 36.1-23.2 47.5-31.6 53.8-39.8l2.2-2.9 2.2 2.9c6.3 8.2 17.7 16.6 53.8 39.8 27.7 17.8 48.3 33 58.9 43.4 20.2 20 31.5 46.6 35.2 82.2 1 10.5.8 32.9-.5 42-.3 1.9.1 1 .9-2 4.1-15.4 7-49 6.2-70.5-.4-11.1-1-15.8-3.1-22.8-5.6-18.9-16.1-36-32.5-53-16.5-17.1-31.9-29-54.3-42.1-20.1-11.8-36.4-26.1-48.2-42.5-6.8-9.4-13.6-22.3-16.2-30.4-1-3.2-2.1-5.7-2.4-5.7s-1.4 2.5-2.4 5.7"/>
        <path d="M215.8 145.3c-21.8 15.5-40 28.5-40.3 28.8-1.2 1.3 3.8 51.9 8.1 81.9 6.6 45.8 17.1 85.9 31.7 120.5 3 7.1 8.6 20.4 12.5 29.5 12.5 29.8 24.5 68.5 26.7 86.2.4 3.2 1.1 5.8 1.5 5.8s1.1-2.6 1.5-5.8c2.2-17.7 14.2-56.6 26.7-86 3.8-9.2 9.5-22.6 12.5-29.7 18.1-43 29.2-90.8 36.2-157 3.7-34.5 4.4-44.7 2.9-46-1.7-1.5-79.7-56.5-80-56.4-.2 0-18.2 12.7-40 28.2m62.9 9.8c12.5 8.3 23 15.2 23.2 15.4s-4.6 6.6-10.6 14.2c-17.9 22.7-28.8 38.5-32.7 47.1-1 2.3-2.2 4.2-2.6 4.2s-1.6-1.9-2.6-4.2c-3.9-8.7-14.8-24.4-32.8-47.2-9.8-12.4-10.8-14.1-9.3-15 1-.6 11.3-7.5 23-15.3s21.3-14.2 21.4-14.2c.1-.1 10.5 6.7 23 15m-74 38.2c14 15 26.2 38.3 36.2 69 4.4 13.5 11 39.5 13.1 51.4.7 4 1.6 7.3 2 7.3s1.3-3.3 2-7.3c2.1-11.9 8.7-37.9 13.1-51.5 8.1-24.7 18-45.5 29.1-60.4 6-8.2 20.2-21.7 20.6-19.7s-6.1 48.9-10.4 74.9c-7.8 48.1-13.9 68.9-40.4 138.5-5 13.2-10.1 26.6-11.3 29.7-1.1 3.2-2.4 5.8-2.7 5.8s-1.6-2.6-2.7-5.7c-1.2-3.2-6.3-16.6-11.3-29.8-26.5-69.6-32.5-90.2-40.4-138.5-3.4-20.6-10.6-71.2-10.6-74.6 0-2.1 5.8 2.5 13.7 10.9"/>
    </g>
</svg>
