<?xml version="1.0" standalone="no"?>
<!DOCTYPE svg PUBLIC "-//W3C//DTD SVG 20010904//EN"
 "http://www.w3.org/TR/2001/REC-SVG-20010904/DTD/svg10.dtd">
<svg version="1.0" xmlns="http://www.w3.org/2000/svg"
 width="512.000000pt" height="512.000000pt" viewBox="0 0 512.000000 512.000000"
 preserveAspectRatio="xMidYMid meet">
<metadata>
Created by potrace 1.16, written by Peter Selinger 2001-2019
</metadata>
<g transform="translate(0.000000,512.000000) scale(0.100000,-0.100000)"
fill="#f2f2f2" stroke="none">
<path d="M2359 4898 c-107 -117 -230 -253 -274 -302 l-80 -88 45 -39 c25 -21
48 -38 52 -36 4 1 107 112 228 247 122 135 225 245 230 245 5 0 108 -110 230
-245 121 -135 224 -246 228 -247 4 -2 27 15 52 36 l45 39 -80 88 c-347 384
-468 514 -475 514 -5 0 -95 -96 -201 -212z"/>
<path d="M2350 4540 c-8 -10 -47 -55 -87 -98 l-72 -79 130 -108 c71 -59 154
-135 184 -168 l55 -60 55 60 c30 33 113 109 184 168 l131 108 -42 46 c-23 25
-64 70 -91 99 l-50 54 -93 -93 -94 -94 -93 93 c-51 50 -95 92 -97 92 -3 -1
-12 -9 -20 -20z"/>
<path d="M1826 4308 c-173 -195 -181 -235 -82 -402 55 -92 145 -182 301 -301
168 -130 263 -224 305 -303 36 -68 91 -124 163 -166 l47 -28 47 28 c72 42 127
98 163 166 42 79 137 173 305 303 156 119 246 209 301 301 69 116 78 167 45
239 -16 36 -220 276 -239 283 -5 1 -29 -14 -56 -34 l-47 -37 34 -36 c109 -116
207 -233 207 -247 0 -30 -62 -133 -117 -193 -30 -33 -102 -97 -161 -142 -245
-189 -345 -286 -397 -388 -13 -25 -37 -59 -54 -75 l-31 -30 -31 30 c-17 16
-41 50 -54 75 -52 102 -152 199 -397 388 -59 45 -131 109 -161 142 -55 60
-117 163 -117 193 0 14 98 131 207 247 l34 36 -47 36 c-26 21 -50 37 -53 37
-4 0 -55 -55 -115 -122z"/>
<path d="M2096 4259 c-14 -17 -26 -35 -26 -39 0 -16 63 -73 200 -179 74 -58
169 -139 212 -181 l78 -75 78 75 c43 42 138 123 212 181 138 107 200 163 200
179 0 5 -13 24 -28 41 l-28 32 -103 -83 c-124 -100 -244 -218 -291 -288 -19
-29 -37 -52 -40 -52 -3 0 -21 23 -40 51 -48 70 -169 191 -290 288 -55 45 -102
81 -104 81 -3 0 -16 -14 -30 -31z"/>
<path d="M1957 4103 c-32 -36 -45 -58 -39 -66 60 -80 103 -120 257 -241 169
-132 315 -265 363 -330 l22 -29 22 29 c48 66 194 198 363 331 176 137 271 234
257 259 -4 6 -27 33 -51 59 l-43 47 -42 -39 c-22 -22 -103 -88 -178 -147 -151
-118 -252 -212 -293 -275 -15 -22 -30 -41 -34 -41 -3 0 -17 17 -31 37 -43 64
-155 168 -312 292 -84 65 -164 131 -177 145 -14 14 -27 26 -30 25 -3 0 -28
-25 -54 -56z"/>
<path d="M1983 3444 c3 -44 20 -149 37 -234 62 -311 187 -1267 345 -2644 l35
-309 51 -118 c29 -66 55 -122 60 -125 5 -3 9 635 9 1488 l0 1494 -45 32 -45
32 0 -799 c0 -736 -1 -799 -17 -805 -9 -4 -19 -3 -23 1 -4 4 -26 166 -49 358
-87 722 -148 1141 -218 1520 -18 96 -16 92 -107 160 l-39 29 6 -80z"/>
<path d="M3064 3464 l-59 -45 -22 -112 c-56 -277 -126 -766 -214 -1492 -23
-192 -45 -354 -49 -358 -4 -4 -14 -5 -23 -1 -16 6 -17 68 -17 801 l0 794 -45
-31 -45 -31 0 -1490 c0 -851 4 -1488 9 -1485 5 3 31 59 60 125 l51 118 35 309
c159 1390 282 2330 346 2647 28 143 48 297 37 297 -3 0 -32 -20 -64 -46z"/>
</g>
</svg>
