<?xml version="1.0" standalone="no"?>
<!DOCTYPE svg PUBLIC "-//W3C//DTD SVG 20010904//EN"
 "http://www.w3.org/TR/2001/REC-SVG-20010904/DTD/svg10.dtd">
<svg version="1.0" xmlns="http://www.w3.org/2000/svg"
 width="512.000000pt" height="512.000000pt" viewBox="0 0 512.000000 512.000000"
 preserveAspectRatio="xMidYMid meet">
<metadata>
Created by potrace 1.16, written by Peter Selinger 2001-2019
</metadata>
<g transform="translate(0.000000,512.000000) scale(0.100000,-0.100000)"
fill="#f2f2f2" stroke="none">
<path d="M2299 4689 c-140 -155 -255 -285 -257 -289 -3 -9 71 -70 84 -70 5 0
104 106 219 234 116 129 212 234 215 234 3 0 100 -105 215 -234 116 -128 214
-234 219 -234 13 0 87 61 84 70 -5 14 -511 570 -518 570 -4 0 -121 -126 -261
-281z"/>
<path d="M2296 4356 l-87 -95 103 -82 c56 -46 135 -116 175 -157 l73 -74 73
74 c40 41 119 111 175 157 l103 82 -87 95 -87 95 -89 -88 -88 -88 -88 88 -89
88 -87 -95z"/>
<path d="M1879 4222 c-138 -155 -144 -165 -144 -238 0 -55 5 -68 49 -142 61
-100 127 -166 331 -329 158 -127 199 -170 280 -300 27 -43 139 -133 165 -133
26 0 138 90 165 133 81 130 122 173 280 300 204 163 270 229 331 329 44 74 49
87 49 142 0 73 -6 83 -144 238 -57 64 -99 104 -106 99 -5 -4 -27 -20 -47 -35
l-38 -28 115 -129 c63 -71 115 -134 115 -140 0 -23 -63 -127 -106 -177 -25
-29 -114 -105 -197 -170 -183 -142 -283 -240 -324 -318 -17 -33 -45 -72 -62
-88 l-31 -30 -31 30 c-17 16 -45 55 -62 88 -41 78 -141 176 -324 318 -83 65
-172 141 -197 170 -43 50 -106 154 -106 177 0 6 52 69 115 140 l115 129 -38
28 c-20 15 -42 31 -47 35 -7 5 -49 -35 -106 -99z"/>
<path d="M2121 4161 c-12 -16 -21 -33 -21 -38 0 -15 67 -75 190 -169 63 -49
149 -122 192 -164 l78 -75 78 75 c43 42 129 115 192 164 127 98 190 155 190
171 0 5 -11 23 -24 40 -18 22 -27 27 -37 19 -164 -124 -312 -263 -366 -345
-14 -22 -29 -39 -33 -39 -4 0 -19 17 -33 39 -44 67 -138 161 -256 258 -63 51
-118 93 -122 93 -4 0 -17 -13 -28 -29z"/>
<path d="M1993 4019 c-24 -27 -43 -53 -43 -57 0 -23 118 -134 256 -242 151
-118 287 -242 332 -304 l22 -29 22 29 c44 60 178 183 313 288 155 121 202 163
246 218 34 42 33 44 -24 108 l-38 42 -48 -44 c-26 -24 -103 -87 -173 -141
-118 -92 -226 -194 -276 -262 l-22 -30 -22 30 c-50 68 -158 170 -276 262 -70
54 -147 117 -173 141 -25 23 -48 42 -50 41 -2 0 -23 -23 -46 -50z"/>
<path d="M2015 3393 c3 -38 17 -122 30 -188 65 -333 161 -1049 300 -2253 l65
-562 48 -115 c26 -63 50 -115 55 -115 4 0 7 632 7 1404 l0 1404 -40 32 -40 32
0 -755 c0 -754 0 -755 -21 -760 -11 -3 -22 0 -24 6 -2 7 -29 219 -60 472 -84
684 -136 1037 -200 1361 -4 19 -101 104 -120 104 -4 0 -4 -30 0 -67z"/>
<path d="M3035 3412 c-59 -48 -60 -50 -71 -118 -6 -38 -23 -134 -38 -214 -36
-199 -85 -552 -151 -1090 -31 -250 -58 -460 -60 -467 -2 -6 -13 -9 -24 -6 -21
5 -21 6 -21 754 l0 749 -40 -26 -40 -27 0 -1410 c0 -776 4 -1407 8 -1402 5 6
30 60 55 120 52 123 39 35 137 890 113 978 218 1755 274 2030 23 113 42 265
34 265 -2 0 -30 -22 -63 -48z"/>
</g>
</svg>
