<?xml version="1.0" standalone="no"?>
<!DOCTYPE svg PUBLIC "-//W3C//DTD SVG 20010904//EN"
 "http://www.w3.org/TR/2001/REC-SVG-20010904/DTD/svg10.dtd">
<svg version="1.0" xmlns="http://www.w3.org/2000/svg"
 width="256.000000pt" height="256.000000pt" viewBox="0 0 256.000000 256.000000"
 preserveAspectRatio="xMidYMid meet">
<metadata>
Created by potrace 1.16, written by Peter Selinger 2001-2019
</metadata>
<g transform="translate(0.000000,256.000000) scale(0.100000,-0.100000)"
fill="#f2f2f2" stroke="none">
<path d="M1195 2438 c-38 -94 -27 -234 35 -418 22 -65 40 -134 40 -152 0 -19
-16 -65 -37 -106 l-38 -73 25 -47 c16 -29 38 -54 60 -66 32 -17 38 -17 72 -3
54 23 93 87 92 153 0 42 -10 72 -54 160 l-53 109 -8 170 c-5 116 -12 185 -23
216 -32 89 -85 117 -111 57z"/>
<path d="M2245 2336 c-67 -31 -157 -129 -225 -246 -89 -152 -231 -290 -456
-441 -56 -38 -110 -79 -118 -91 -24 -33 -19 -68 14 -118 37 -56 37 -68 0 -115
-33 -42 -35 -48 -20 -76 8 -14 21 -19 51 -19 91 0 167 64 199 168 11 35 20 77
20 93 0 53 49 130 139 219 82 81 133 122 313 253 123 90 197 200 206 304 4 42
1 58 -13 73 -23 26 -49 25 -110 -4z"/>
<path d="M385 2280 c-28 -30 -31 -108 -8 -162 26 -58 122 -160 250 -265 128
-105 167 -150 253 -288 77 -124 102 -151 151 -165 52 -15 147 7 182 41 15 15
27 32 27 38 0 25 -65 80 -154 130 -102 58 -177 116 -231 181 -18 22 -87 118
-154 213 -130 186 -232 297 -274 297 -13 0 -32 -9 -42 -20z"/>
<path d="M1239 1357 c-46 -31 -77 -80 -85 -135 -4 -26 -13 -59 -20 -74 -19
-36 -74 -68 -118 -68 -63 0 -73 -11 -68 -74 4 -45 0 -62 -19 -93 -13 -21 -112
-128 -220 -238 -212 -215 -255 -272 -294 -388 -65 -195 11 -263 141 -125 51
53 98 124 199 298 115 199 165 267 260 350 85 74 142 136 162 175 6 11 13 41
16 68 10 75 31 104 92 132 63 27 80 56 69 118 -7 44 -34 77 -63 77 -10 0 -33
-10 -52 -23z"/>
<path d="M911 1309 c-60 -32 -107 -36 -233 -19 -281 39 -558 21 -614 -41 -16
-17 -16 -20 1 -45 35 -54 206 -104 353 -104 81 0 188 19 366 65 79 20 112 24
163 19 53 -6 67 -4 83 11 23 20 27 74 9 108 -25 46 -52 47 -128 6z"/>
<path d="M2305 1229 c-141 -32 -488 -50 -570 -28 -77 21 -93 21 -118 4 -14 -9
-33 -32 -42 -51 -20 -42 -8 -83 30 -108 47 -31 69 -29 146 10 83 43 107 45
349 30 257 -17 453 52 396 139 -14 21 -24 25 -64 24 -26 0 -83 -9 -127 -20z"/>
<path d="M1335 1110 c-29 -32 -32 -117 -7 -174 23 -51 32 -55 69 -26 39 31 65
25 154 -36 45 -31 150 -97 232 -146 161 -95 249 -155 323 -219 88 -76 189
-108 239 -75 37 25 32 59 -17 112 -51 56 -114 91 -365 205 -240 110 -307 153
-408 264 -43 47 -90 92 -106 100 -41 21 -92 19 -114 -5z"/>
<path d="M1195 886 c-33 -34 -40 -94 -21 -206 11 -66 16 -146 14 -260 -2 -135
1 -172 14 -202 10 -21 24 -38 33 -38 25 0 62 47 84 105 33 87 36 158 12 272
-24 114 -26 152 -11 203 14 47 5 83 -30 120 -34 36 -63 38 -95 6z"/>
</g>
</svg>
