<svg xmlns="http://www.w3.org/2000/svg" width="341.333" height="341.333" version="1.0" viewBox="0 0 256 256">
    <path fill="#e5e5e5" d="M119.5 12.2c-3.8 9.4-2.7 23.4 3.5 41.8 2.2 6.5 4 13.4 4 15.2 0 1.9-1.6 6.5-3.7 10.6l-3.8 7.3 2.5 4.7c1.6 2.9 3.8 5.4 6 6.6 3.2 1.7 3.8 1.7 7.2.3 5.4-2.3 9.3-8.7 9.2-15.3 0-4.2-1-7.2-5.4-16l-5.3-10.9-.8-17c-.5-11.6-1.2-18.5-2.3-21.6-3.2-8.9-8.5-11.7-11.1-5.7m105 10.2c-6.7 3.1-15.7 12.9-22.5 24.6-8.9 15.2-23.1 29-45.6 44.1-5.6 3.8-11 7.9-11.8 9.1-2.4 3.3-1.9 6.8 1.4 11.8 3.7 5.6 3.7 6.8 0 11.5-3.3 4.2-3.5 4.8-2 7.6.8 1.4 2.1 1.9 5.1 1.9 9.1 0 16.7-6.4 19.9-16.8 1.1-3.5 2-7.7 2-9.3 0-5.3 4.9-13 13.9-21.9 8.2-8.1 13.3-12.2 31.3-25.3 12.3-9 19.7-20 20.6-30.4.4-4.2.1-5.8-1.3-7.3-2.3-2.6-4.9-2.5-11 .4M38.5 28c-2.8 3-3.1 10.8-.8 16.2 2.6 5.8 12.2 16 25 26.5s16.7 15 25.3 28.8c7.7 12.4 10.2 15.1 15.1 16.5 5.2 1.5 14.7-.7 18.2-4.1 1.5-1.5 2.7-3.2 2.7-3.8 0-2.5-6.5-8-15.4-13C98.4 89.3 90.9 83.5 85.5 77c-1.8-2.2-8.7-11.8-15.4-21.3C57.1 37.1 46.9 26 42.7 26c-1.3 0-3.2.9-4.2 2m85.4 92.3c-4.6 3.1-7.7 8-8.5 13.5-.4 2.6-1.3 5.9-2 7.4-1.9 3.6-7.4 6.8-11.8 6.8-6.3 0-7.3 1.1-6.8 7.4.4 4.5 0 6.2-1.9 9.3-1.3 2.1-11.2 12.8-22 23.8-21.2 21.5-25.5 27.2-29.4 38.8-6.5 19.5 1.1 26.3 14.1 12.5 5.1-5.3 9.8-12.4 19.9-29.8 11.5-19.9 16.5-26.7 26-35 8.5-7.4 14.2-13.6 16.2-17.5.6-1.1 1.3-4.1 1.6-6.8 1-7.5 3.1-10.4 9.2-13.2 6.3-2.7 8-5.6 6.9-11.8-.7-4.4-3.4-7.7-6.3-7.7-1 0-3.3 1-5.2 2.3m-32.8 4.8c-6 3.2-10.7 3.6-23.3 1.9-28.1-3.9-55.8-2.1-61.4 4.1-1.6 1.7-1.6 2 .1 4.5C10 141 27.1 146 41.8 146c8.1 0 18.8-1.9 36.6-6.5 7.9-2 11.2-2.4 16.3-1.9 5.3.6 6.7.4 8.3-1.1 2.3-2 2.7-7.4.9-10.8-2.5-4.6-5.2-4.7-12.8-.6m139.4 8c-14.1 3.2-48.8 5-57 2.8-7.7-2.1-9.3-2.1-11.8-.4-1.4.9-3.3 3.2-4.2 5.1-2 4.2-.8 8.3 3 10.8 4.7 3.1 6.9 2.9 14.6-1 8.3-4.3 10.7-4.5 34.9-3 25.7 1.7 45.3-5.2 39.6-13.9-1.4-2.1-2.4-2.5-6.4-2.4-2.6 0-8.3.9-12.7 2m-97 11.9c-2.9 3.2-3.2 11.7-.7 17.4 2.3 5.1 3.2 5.5 6.9 2.6 3.9-3.1 6.5-2.5 15.4 3.6 4.5 3.1 15 9.7 23.2 14.6 16.1 9.5 24.9 15.5 32.3 21.9 8.8 7.6 18.9 10.8 23.9 7.5 3.7-2.5 3.2-5.9-1.7-11.2-5.1-5.6-11.4-9.1-36.5-20.5-24-11-30.7-15.3-40.8-26.4-4.3-4.7-9-9.2-10.6-10-4.1-2.1-9.2-1.9-11.4.5m-14 22.4c-3.3 3.4-4 9.4-2.1 20.6 1.1 6.6 1.6 14.6 1.4 26-.2 13.5.1 17.2 1.4 20.2 1 2.1 2.4 3.8 3.3 3.8 2.5 0 6.2-4.7 8.4-10.5 3.3-8.7 3.6-15.8 1.2-27.2s-2.6-15.2-1.1-20.3c1.4-4.7.5-8.3-3-12-3.4-3.6-6.3-3.8-9.5-.6"/>
</svg>
