<svg xmlns="http://www.w3.org/2000/svg" width="341.333" height="341.333" version="1.0" viewBox="0 0 256 256">
    <g fill="#e5e5e5">
        <path d="m119.2 55.3-8.2 8.2 8.5 8.5 8.5 8.5 8.5-8.5 8.5-8.5-8.2-8.2c-4.6-4.6-8.5-8.3-8.8-8.3s-4.2 3.7-8.8 8.3"/>
        <path d="M90.7 82.8C84.3 89.2 79 95 79 95.5c0 .6 11 12 24.5 25.5l24.5 24.5 24.5-24.5C166 107.5 177 96.1 177 95.5c0-.5-5.3-6.3-11.7-12.7L153.6 71l-3.3 3.2-3.3 3.2 8.7 8.8 8.8 8.8-18.3 18.3-18.2 18.2-18.2-18.2L91.5 95l8.8-8.8 8.7-8.8-3.3-3.2-3.3-3.2z"/>
        <path d="M16 110.5 28.6 123h34.9l32.2 32.3 32.3 32.2 32.3-32.2 32.2-32.3h34.9l12.6-12.5L252.7 98h-64.2l-30.2 30.2-30.3 30.3-30.3-30.3L67.5 98H3.3z"/>
        <path d="m43 139.5 8.5 8.5h15l30.7 30.7 30.8 30.8 30.8-30.8 30.7-30.7h15l8.5-8.5 8.5-8.5h-27l-33.2 33.2-33.3 33.3-33.3-33.3L61.5 131h-27z"/>
    </g>
</svg>
