<?xml version="1.0" standalone="no"?>
<!DOCTYPE svg PUBLIC "-//W3C//DTD SVG 20010904//EN"
 "http://www.w3.org/TR/2001/REC-SVG-20010904/DTD/svg10.dtd">
<svg version="1.0" xmlns="http://www.w3.org/2000/svg"
 width="256.000000pt" height="256.000000pt" viewBox="0 0 256.000000 256.000000"
 preserveAspectRatio="xMidYMid meet">
<metadata>
Created by potrace 1.16, written by Peter Selinger 2001-2019
</metadata>
<g transform="translate(0.000000,256.000000) scale(0.100000,-0.100000)"
fill="#f2f2f2" stroke="none">
<path d="M1192 2007 l-82 -82 85 -85 85 -85 85 85 85 85 -82 82 c-46 46 -85
83 -88 83 -3 0 -42 -37 -88 -83z"/>
<path d="M907 1732 c-64 -64 -117 -122 -117 -127 0 -6 110 -120 245 -255 l245
-245 245 245 c135 135 245 249 245 255 0 5 -53 63 -117 127 l-117 118 -33 -32
-33 -32 87 -88 88 -88 -183 -183 -182 -182 -182 182 -183 183 88 88 87 88 -33
32 -33 32 -117 -118z"/>
<path d="M160 1455 l126 -125 174 0 175 0 322 -323 323 -322 323 322 322 323
175 0 174 0 126 125 127 125 -321 0 -321 0 -302 -302 -303 -303 -303 303 -302
302 -321 0 -321 0 127 -125z"/>
<path d="M430 1165 l85 -85 75 0 75 0 307 -307 308 -308 308 308 307 307 75 0
75 0 85 85 85 85 -135 0 -135 0 -332 -332 -333 -333 -333 333 -332 332 -135 0
-135 0 85 -85z"/>
</g>
</svg>
