<svg xmlns="http://www.w3.org/2000/svg" width="341.333" height="341.333" version="1.0" viewBox="0 0 256 256">
    <g fill="#e5e5e5">
        <path d="M163.1 11.1c-4.2 1.8-4.5 1.8-6.3.2s-2.2-1.4-9.3 5.7c-4.9 4.8-7.7 8.5-8.2 10.7-.6 2.5-8.6 11.3-33.8 37.1-32 32.7-33.1 33.9-34.9 39.7-2.5 8.2-10.6 23.6-16.9 32-2.8 3.9-9.3 11.3-14.4 16.6-8 8.2-9.3 10.1-9.3 13 0 1.9-.5 5.4-1.1 7.9-.9 4.1-.8 4.7 2.1 8.8l3.2 4.5-2.2 3-2.2 2.9 2.1 2.1 2.1 2.2 9.8-9.8 9.7-9.7h18.1l-1.7-6.7c-3.4-12.8-1.9-29.5 3.5-40.1s16.9-20.1 29.3-24.3c5.2-1.8 9.1-2.3 16.7-2.3 9.4-.1 9.9-.2 10.7-2.4.5-1.3 8.1-9.9 16.9-19 8.8-9.2 16-17.3 16-18.1s1.6-4.7 3.6-8.8c2.6-5.4 5.7-9.7 11.5-15.6l8-8.2-2.8-6.9c-2-5-3.6-7.4-5.8-8.7l-3-1.9-6 6c-3.4 3.3-7.3 6.2-9 6.6-2.7.6-2.2-.2 4.8-7.3 7.5-7.6 7.7-8 5.9-9.6-2.2-2-1.6-2-7.1.4m-27.4 32.5c.4 1.1-7.2 9.4-27.3 29.5C93.1 88.4 80 101 79.3 101c-4.1 0-.2-4.6 25.8-30.6C120.7 54.8 133.8 42 134.3 42c.4 0 1 .7 1.4 1.6m48.2 2.1c-6.9 7.6-12.7 16.7-13.5 21.2-.5 3-3.6 6.6-18.6 21.7-14.6 14.7-17.7 18.2-16.2 18.8 1.4.5 5.7-3.2 19.6-17.1l17.7-17.7 2.7 2c6 4.4 6.2 4-11.5 21.8-10.6 10.6-16.1 16.8-15.6 17.6s6.3-4.3 17.4-15.4c13.1-13.1 16.9-16.4 17.9-15.4.7.7 1.2 2.1 1.2 3.3 0 2.4 2.6 6.5 4.3 6.5 1.8 0 6.7-5.2 6.7-7.2 0-1.1.7-1.8 1.8-1.8 2.3 0 4.2-1.9 4.2-4.2 0-1.1.7-1.8 1.8-1.8 2.3 0 5.2-3 5.2-5.3 0-1 .8-1.7 1.8-1.7s3-1.3 4.5-2.8l2.8-2.9-3.7-5.4C205.1 46.3 198.1 40 192.5 40c-2.7 0-4.2 1-8.6 5.7m22.1 8.5c6 7.2 7.3 10.9 4 11.6-1.3.2-10.6-10-13.4-14.6-.8-1.3.9-4.2 2.5-4.2.4 0 3.5 3.3 6.9 7.2m-7 7.3c6.2 7.6 7 10.5 3.1 10.5-1.1 0-4.1-2.7-7.5-6.9-5.3-6.7-6.4-8.9-4.9-10.4 1.6-1.7 3.6-.2 9.3 6.8m-7.2 7.1c3.4 4.2 6.2 8 6.2 8.4s-.7 1.4-1.6 2.1c-1.5 1.2-2.3.7-7-4.5-6.2-7-7.9-9.9-7.1-12 1.2-3 3.4-1.6 9.5 6"/>
        <path d="M108.3 111.5c-8.6 1.9-15.7 5.9-22.3 12.5-12 11.9-15.9 29.9-10.5 47.7l1.6 5.3h16.6l-1.8-5.3c-2.7-7.6-2.5-17.9.5-24.2 2.5-5.5 8-10.9 13.5-13.3 4.6-1.9 14.4-1.9 19.8.1l4.2 1.6 8-8.7 7.9-8.8-3.1-1.8c-9.5-5.5-23.6-7.6-34.4-5.1"/>
        <path d="M107.5 139.7c-7.5 3.9-10.8 9.3-10.8 17.3 0 11.2 7.7 19 18.8 19 2.4 0 5.6-.5 7.2-1.1 6.4-2.4 12.3-10.9 12.3-17.9s-5.9-15.5-12.3-17.9c-4.1-1.6-11.7-1.3-15.2.6m14.6 5.8c11.8 6.1 7.3 24.5-6 24.5-5.8 0-10.7-2.9-12.7-7.5-1.8-4.5-1.8-6.9.3-11.2 3.1-6.6 11.6-9.3 18.4-5.8m-47.3 41.2c-6.5.2-11.8.7-11.8 1.2s.7 2.6 1.6 4.6c.9 2.1 1.4 5 1.1 6.3-.4 1.9 2.7 7.6 12.9 24.2 12.9 20.9 13.5 21.6 16.2 21.2 2.3-.3 3 .1 3.4 1.6.3 1.1 2 2.8 3.8 3.7 3.2 1.6 3.5 1.6 13.9-2.1 11.7-4.1 12.6-4.6 11.8-6.7-.5-1.3-2-1.1-9.4 1.3-4.8 1.5-9.1 2.6-9.5 2.3-.5-.2-.8-1.3-.8-2.3 0-1.6 1.9-2.5 10.3-5 18.7-5.7 17-4.8 16.3-8.3-1-5.1-5.2-9.6-10.1-10.9l-4.4-1.2-6.9-15-7-15.1-9.8-.1c-5.5 0-15.2.1-21.6.3"/>
    </g>
</svg>
