<?xml version="1.0" standalone="no"?>
<!DOCTYPE svg PUBLIC "-//W3C//DTD SVG 20010904//EN"
 "http://www.w3.org/TR/2001/REC-SVG-20010904/DTD/svg10.dtd">
<svg version="1.0" xmlns="http://www.w3.org/2000/svg"
 width="256.000000pt" height="256.000000pt" viewBox="0 0 256.000000 256.000000"
 preserveAspectRatio="xMidYMid meet">
<metadata>
Created by potrace 1.16, written by Peter Selinger 2001-2019
</metadata>
<g transform="translate(0.000000,256.000000) scale(0.100000,-0.100000)"
fill="#f2f2f2" stroke="none">
<path d="M1631 2449 c-42 -18 -45 -18 -63 -2 -18 16 -22 14 -93 -57 -49 -48
-77 -85 -82 -107 -6 -25 -86 -113 -338 -371 -320 -327 -331 -339 -349 -397
-25 -82 -106 -236 -169 -320 -28 -39 -93 -113 -144 -166 -80 -82 -93 -101 -93
-130 0 -19 -5 -54 -11 -79 -9 -41 -8 -47 21 -88 l32 -45 -22 -30 -22 -29 21
-21 21 -22 98 98 97 97 91 0 90 0 -17 67 c-34 128 -19 295 35 401 54 106 169
201 293 243 52 18 91 23 167 23 94 1 99 2 107 24 5 13 81 99 169 190 88 92
160 173 160 181 0 8 16 47 36 88 26 54 57 97 115 156 l80 82 -28 69 c-20 50
-36 74 -58 87 l-30 19 -60 -60 c-34 -33 -73 -62 -90 -66 -27 -6 -22 2 48 73
75 76 77 80 59 96 -22 20 -16 20 -71 -4z m-274 -325 c4 -11 -72 -94 -273 -295
-153 -153 -284 -279 -291 -279 -41 0 -2 46 258 306 156 156 287 284 292 284 4
0 10 -7 14 -16z"/>
<path d="M1839 2103 c-69 -76 -127 -167 -135 -212 -5 -30 -36 -66 -186 -217
-146 -147 -177 -182 -162 -188 14 -5 57 32 196 171 l177 177 27 -20 c60 -44
62 -40 -115 -218 -106 -106 -161 -168 -156 -176 5 -8 63 43 174 154 131 131
169 164 179 154 7 -7 12 -21 12 -33 0 -24 26 -65 43 -65 18 0 67 52 67 72 0
11 7 18 18 18 23 0 42 19 42 42 0 11 7 18 18 18 23 0 52 30 52 53 0 10 8 17
18 17 10 0 30 13 45 28 l28 29 -37 54 c-93 136 -163 199 -219 199 -27 0 -42
-10 -86 -57z m221 -85 c60 -72 73 -109 40 -116 -13 -2 -106 100 -134 146 -8
13 9 42 25 42 4 0 35 -33 69 -72z m-70 -73 c62 -76 70 -105 31 -105 -11 0 -41
27 -75 69 -53 67 -64 89 -49 104 16 17 36 2 93 -68z m-72 -71 c34 -42 62 -80
62 -84 0 -4 -7 -14 -16 -21 -15 -12 -23 -7 -70 45 -62 70 -79 99 -71 120 12
30 34 16 95 -60z"/>
<path d="M1083 1445 c-86 -19 -157 -59 -223 -125 -120 -119 -159 -299 -105
-477 l16 -53 83 0 83 0 -18 53 c-27 76 -25 179 5 242 25 55 80 109 135 133 46
19 144 19 198 -1 l42 -16 80 87 79 88 -31 18 c-95 55 -236 76 -344 51z"/>
<path d="M1075 1163 c-75 -39 -108 -93 -108 -173 0 -112 77 -190 188 -190 24
0 56 5 72 11 64 24 123 109 123 179 0 70 -59 155 -123 179 -41 16 -117 13
-152 -6z m146 -58 c118 -61 73 -245 -60 -245 -58 0 -107 29 -127 75 -18 45
-18 69 3 112 31 66 116 93 184 58z"/>
<path d="M748 693 c-65 -2 -118 -7 -118 -12 0 -5 7 -26 16 -46 9 -21 14 -50
11 -63 -4 -19 27 -76 129 -242 129 -209 135 -216 162 -212 23 3 30 -1 34 -16
3 -11 20 -28 38 -37 32 -16 35 -16 139 21 117 41 126 46 118 67 -5 13 -20 11
-94 -13 -48 -15 -91 -26 -95 -23 -5 2 -8 13 -8 23 0 16 19 25 103 50 187 57
170 48 163 83 -10 51 -52 96 -101 109 l-44 12 -69 150 -70 151 -98 1 c-55 0
-152 -1 -216 -3z"/>
</g>
</svg>
