<?xml version="1.0" standalone="no"?>
<!DOCTYPE svg PUBLIC "-//W3C//DTD SVG 20010904//EN"
 "http://www.w3.org/TR/2001/REC-SVG-20010904/DTD/svg10.dtd">
<svg version="1.0" xmlns="http://www.w3.org/2000/svg"
 width="256.000000pt" height="256.000000pt" viewBox="0 0 256.000000 256.000000"
 preserveAspectRatio="xMidYMid meet">
<metadata>
Created by potrace 1.16, written by Peter Selinger 2001-2019
</metadata>
<g transform="translate(0.000000,256.000000) scale(0.100000,-0.100000)"
fill="#f2f2f2" stroke="none">
<path d="M1190 2328 c-43 -23 -64 -55 -387 -574 -189 -302 -352 -568 -363
-591 -20 -38 -95 -471 -85 -482 3 -2 71 50 152 115 81 66 153 123 160 127 7 5
-22 -47 -64 -114 -55 -86 -109 -155 -181 -230 l-104 -108 -18 -118 c-10 -65
-17 -119 -15 -121 2 -2 110 89 240 202 131 113 241 206 244 206 4 0 58 -52
121 -115 l113 -115 97 94 c52 52 108 98 123 101 l27 7 0 544 0 544 -135 0
c-125 0 -135 1 -145 20 -6 12 -8 31 -4 42 4 12 65 116 137 231 134 215 153
236 200 218 16 -6 67 -79 154 -218 72 -115 133 -219 137 -231 4 -11 2 -30 -4
-42 -10 -19 -20 -20 -145 -20 l-135 0 0 -540 0 -540 38 -15 c20 -9 76 -55 125
-103 l87 -87 114 114 c105 105 116 113 133 100 10 -8 118 -101 241 -207 123
-107 225 -192 227 -190 2 1 -5 56 -15 121 l-18 118 -104 108 c-72 75 -126 144
-181 230 -42 67 -71 119 -64 114 7 -4 79 -61 160 -127 81 -65 149 -117 152
-115 6 6 -62 430 -74 461 -6 15 -169 282 -362 593 -387 621 -374 606 -478 613
-45 3 -65 -1 -101 -20z"/>
<path d="M1182 397 l-83 -83 43 -40 c61 -56 122 -73 192 -51 34 11 65 31 91
57 l39 40 -79 80 c-48 48 -88 80 -100 80 -12 0 -53 -33 -103 -83z"/>
</g>
</svg>
