<svg xmlns="http://www.w3.org/2000/svg" width="85.333" height="85.333" version="1.0" viewBox="0 0 64 64">
    <g fill="#e5e5e5">
        <path d="M12.5 6.2c-.3.8-.4 13.2-.3 27.8l.3 26.5h39v-55l-19.3-.3c-15-.2-19.4 0-19.7 1m8.9 1.7c.9 1.5-.4 4-2.5 4.6-1 .4-2.2 1.7-2.5 3.1-.3 1.3-1 2.1-1.5 1.8-1.5-.9-1-6.6.8-8.6 1.7-1.9 4.8-2.4 5.7-.9m26.8.8c1 .9 1.8 3 1.8 4.9 0 4-1.6 5.3-2.4 2-.3-1.4-1.5-2.7-2.5-3.1-2.1-.6-3.4-3.1-2.5-4.6.8-1.4 3.6-1.1 5.6.8M38.8 11c12.3 7.5 7.5 26-6.8 26-10.8 0-17.5-11.7-12-20.8 4.2-6.8 12.4-9.1 18.8-5.2M23 49.2V59h-7V32.6l3.5 3.4 3.5 3.4zM48 46v13h-7v-9.7c0-9.6 0-9.8 3.2-13 1.8-1.8 3.3-3.3 3.5-3.3s.3 5.8.3 13m-9 3.7V59H25V40.5h14z"/>
        <path d="M25.5 16.5c-1.7 1.7-2.5 3.5-2.5 6 0 4.9 1.5 7.4 5.6 9.1 2.9 1.2 3.9 1.2 6.8 0 4.1-1.7 5.6-4.2 5.6-9.1 0-5.1-3.6-8.5-9-8.5-3 0-4.7.6-6.5 2.5m9.9 3.1c3.2 3.2 1.1 8.4-3.4 8.4-2.9 0-5-2.2-5-5.4 0-2 2.8-4.6 5-4.6 1 0 2.6.7 3.4 1.6M18 48.4c0 4.3.3 5.6 1.5 5.6 1.1 0 1.5-1.2 1.5-4.4 0-2.6-.6-4.8-1.5-5.6-1.3-1.1-1.5-.5-1.5 4.4m26.2-4.2c-1.8 1.8-1.6 9.8.3 9.8 1.2 0 1.5-1.3 1.5-5.5 0-6 0-6.1-1.8-4.3M28 50v4h8v-8h-8z"/>
    </g>
</svg>
