<?xml version="1.0" standalone="no"?>
<!DOCTYPE svg PUBLIC "-//W3C//DTD SVG 20010904//EN"
 "http://www.w3.org/TR/2001/REC-SVG-20010904/DTD/svg10.dtd">
<svg version="1.0" xmlns="http://www.w3.org/2000/svg"
 width="64.000000pt" height="64.000000pt" viewBox="0 0 64.000000 64.000000"
 preserveAspectRatio="xMidYMid meet">
<metadata>
Created by potrace 1.16, written by Peter Selinger 2001-2019
</metadata>
<g transform="translate(0.000000,64.000000) scale(0.100000,-0.100000)"
fill="#f2f2f2" stroke="none">
<path d="M125 578 c-3 -8 -4 -132 -3 -278 l3 -265 195 0 195 0 0 275 0 275
-193 3 c-150 2 -194 0 -197 -10z m89 -17 c9 -15 -4 -40 -25 -46 -10 -4 -22
-17 -25 -31 -3 -13 -10 -21 -15 -18 -15 9 -10 66 8 86 17 19 48 24 57 9z m268
-8 c10 -9 18 -30 18 -49 0 -40 -16 -53 -24 -20 -3 14 -15 27 -25 31 -21 6 -34
31 -25 46 8 14 36 11 56 -8z m-94 -23 c123 -75 75 -260 -68 -260 -108 0 -175
117 -120 208 42 68 124 91 188 52z m-158 -382 l0 -98 -35 0 -35 0 0 132 0 132
35 -34 35 -34 0 -98z m250 32 l0 -130 -35 0 -35 0 0 97 c0 96 0 98 32 130 18
18 33 33 35 33 2 0 3 -58 3 -130z m-90 -37 l0 -93 -70 0 -70 0 0 93 0 92 70 0
70 0 0 -92z"/>
<path d="M255 475 c-17 -17 -25 -35 -25 -60 0 -49 15 -74 56 -91 29 -12 39
-12 68 0 41 17 56 42 56 91 0 51 -36 85 -90 85 -30 0 -47 -6 -65 -25z m99 -31
c32 -32 11 -84 -34 -84 -29 0 -50 22 -50 54 0 20 28 46 50 46 10 0 26 -7 34
-16z"/>
<path d="M180 156 c0 -43 3 -56 15 -56 11 0 15 12 15 44 0 26 -6 48 -15 56
-13 11 -15 5 -15 -44z"/>
<path d="M442 198 c-18 -18 -16 -98 3 -98 12 0 15 13 15 55 0 60 0 61 -18 43z"/>
<path d="M280 140 l0 -40 40 0 40 0 0 40 0 40 -40 0 -40 0 0 -40z"/>
</g>
</svg>
