<?xml version="1.0" standalone="no"?>
<!DOCTYPE svg PUBLIC "-//W3C//DTD SVG 20010904//EN"
 "http://www.w3.org/TR/2001/REC-SVG-20010904/DTD/svg10.dtd">
<svg version="1.0" xmlns="http://www.w3.org/2000/svg"
 width="256.000000pt" height="256.000000pt" viewBox="0 0 256.000000 256.000000"
 preserveAspectRatio="xMidYMid meet">
<metadata>
Created by potrace 1.16, written by Peter Selinger 2001-2019
</metadata>
<g transform="translate(0.000000,256.000000) scale(0.100000,-0.100000)"
fill="#f2f2f2" stroke="none">
<path d="M1211 2423 c-47 -144 -125 -306 -179 -373 -21 -25 -82 -93 -138 -153
-56 -59 -113 -130 -128 -157 -33 -61 -45 -165 -24 -224 16 -47 37 -59 31 -19
-6 40 22 154 53 214 31 62 40 60 18 -4 -23 -66 -12 -79 19 -23 26 47 269 358
275 352 12 -12 -78 -164 -168 -281 -142 -187 -177 -323 -144 -560 8 -55 -4
-41 -71 88 -132 252 -160 420 -90 544 14 25 24 48 21 50 -9 9 -86 -94 -121
-162 -65 -126 -60 -267 16 -433 79 -175 207 -357 370 -529 89 -93 147 -169
226 -297 48 -78 109 -200 70 -142 -118 179 -292 380 -512 592 -190 182 -255
259 -269 317 -12 50 -31 25 -30 -40 1 -46 8 -75 37 -135 21 -42 49 -91 63
-108 15 -17 25 -33 23 -35 -8 -7 -143 52 -209 91 -137 81 -260 241 -260 339 0
26 -6 48 -15 55 -13 11 -18 6 -31 -26 -23 -55 -15 -154 19 -220 78 -155 188
-237 493 -373 84 -37 185 -88 225 -114 110 -69 230 -168 268 -221 l33 -47 -38
7 c-22 4 -50 11 -64 17 -60 23 -140 45 -140 37 0 -4 42 -28 93 -53 141 -69
279 -209 338 -343 l22 -48 23 53 c62 139 205 287 343 354 91 43 91 63 0 27
-65 -26 -159 -50 -159 -41 0 13 79 101 136 151 96 84 208 153 397 244 212 101
294 154 375 240 75 80 111 156 119 244 7 82 -16 153 -42 132 -9 -8 -15 -30
-15 -57 0 -85 -81 -210 -190 -295 -54 -41 -251 -148 -274 -148 -4 0 4 15 18
33 60 78 117 234 108 295 -5 31 -28 28 -37 -5 -15 -61 -115 -182 -251 -305
-140 -126 -411 -448 -489 -582 -54 -93 -36 -31 22 74 64 116 140 223 222 315
246 274 400 535 431 729 15 93 -1 182 -48 270 -34 64 -110 162 -118 153 -2 -2
10 -29 26 -59 65 -120 43 -273 -74 -514 -35 -72 -69 -135 -76 -139 -9 -5 -10
-1 -5 15 4 13 8 73 8 134 1 174 -40 282 -172 449 -39 48 -86 114 -106 146 -36
60 -75 144 -57 126 47 -51 256 -311 280 -350 36 -57 41 -40 12 37 l-19 53 24
-29 c36 -44 67 -133 72 -208 3 -38 9 -68 13 -68 16 0 30 56 30 123 0 101 -27
154 -137 269 -191 200 -206 220 -266 338 -31 63 -74 164 -95 225 -24 72 -43
111 -53 113 -12 2 -26 -27 -58 -125z m89 -365 c36 -98 54 -130 188 -333 166
-251 177 -276 177 -430 l0 -120 -46 -95 c-25 -52 -93 -165 -150 -250 -57 -86
-117 -184 -133 -218 -38 -80 -56 -81 -95 -5 -16 32 -73 121 -126 198 -185 267
-225 353 -225 489 0 130 22 190 123 348 29 46 82 128 117 182 53 83 85 150
133 279 3 9 8 17 10 17 3 0 15 -28 27 -62z"/>
<path d="M1203 1744 c-57 -47 -136 -168 -162 -246 -26 -79 -45 -210 -36 -257
7 -45 25 -91 35 -91 4 0 10 35 14 78 8 84 26 134 26 71 0 -44 43 -195 70 -248
35 -70 90 -225 101 -288 6 -34 17 -70 24 -79 12 -16 13 -16 24 5 7 12 17 50
22 84 11 69 45 181 83 273 32 78 56 181 57 247 l1 52 14 -45 c8 -25 16 -69 17
-97 2 -62 20 -70 38 -16 28 86 -12 276 -87 404 -42 72 -155 189 -182 189 -9 0
-36 -16 -59 -36z"/>
</g>
</svg>
