<svg xmlns="http://www.w3.org/2000/svg" width="341.333" height="341.333" version="1.0" viewBox="0 0 256 256">
    <g fill="#e5e5e5">
        <path d="M121.1 13.7c-4.7 14.4-12.5 30.6-17.9 37.3-2.1 2.5-8.2 9.3-13.8 15.3-5.6 5.9-11.3 13-12.8 15.7-3.3 6.1-4.5 16.5-2.4 22.4 1.6 4.7 3.7 5.9 3.1 1.9s2.2-15.4 5.3-21.4c3.1-6.2 4-6 1.8.4-2.3 6.6-1.2 7.9 1.9 2.3 2.6-4.7 26.9-35.8 27.5-35.2C115 53.6 106 68.8 97 80.5c-14.2 18.7-17.7 32.3-14.4 56 .8 5.5-.4 4.1-7.1-8.8-13.2-25.2-16-42-9-54.4 1.4-2.5 2.4-4.8 2.1-5-.9-.9-8.6 9.4-12.1 16.2-6.5 12.6-6 26.7 1.6 43.3 7.9 17.5 20.7 35.7 37 52.9 8.9 9.3 14.7 16.9 22.6 29.7 4.8 7.8 10.9 20 7 14.2-11.8-17.9-29.2-38-51.2-59.2-19-18.2-25.5-25.9-26.9-31.7-1.2-5-3.1-2.5-3 4 .1 4.6.8 7.5 3.7 13.5 2.1 4.2 4.9 9.1 6.3 10.8 1.5 1.7 2.5 3.3 2.3 3.5-.8.7-14.3-5.2-20.9-9.1-13.7-8.1-26-24.1-26-33.9 0-2.6-.6-4.8-1.5-5.5-1.3-1.1-1.8-.6-3.1 2.6-2.3 5.5-1.5 15.4 1.9 22 7.8 15.5 18.8 23.7 49.3 37.3 8.4 3.7 18.5 8.8 22.5 11.4 11 6.9 23 16.8 26.8 22.1l3.3 4.7-3.8-.7c-2.2-.4-5-1.1-6.4-1.7-6-2.3-14-4.5-14-3.7 0 .4 4.2 2.8 9.3 5.3 14.1 6.9 27.9 20.9 33.8 34.3l2.2 4.8 2.3-5.3c6.2-13.9 20.5-28.7 34.3-35.4 9.1-4.3 9.1-6.3 0-2.7-6.5 2.6-15.9 5-15.9 4.1 0-1.3 7.9-10.1 13.6-15.1 9.6-8.4 20.8-15.3 39.7-24.4 21.2-10.1 29.4-15.4 37.5-24 7.5-8 11.1-15.6 11.9-24.4.7-8.2-1.6-15.3-4.2-13.2-.9.8-1.5 3-1.5 5.7 0 8.5-8.1 21-19 29.5-5.4 4.1-25.1 14.8-27.4 14.8-.4 0 .4-1.5 1.8-3.3 6-7.8 11.7-23.4 10.8-29.5-.5-3.1-2.8-2.8-3.7.5-1.5 6.1-11.5 18.2-25.1 30.5-14 12.6-41.1 44.8-48.9 58.2-5.4 9.3-3.6 3.1 2.2-7.4 6.4-11.6 14-22.3 22.2-31.5 24.6-27.4 40-53.5 43.1-72.9 1.5-9.3-.1-18.2-4.8-27-3.4-6.4-11-16.2-11.8-15.3-.2.2 1 2.9 2.6 5.9 6.5 12 4.3 27.3-7.4 51.4-3.5 7.2-6.9 13.5-7.6 13.9-.9.5-1 .1-.5-1.5.4-1.3.8-7.3.8-13.4.1-17.4-4-28.2-17.2-44.9-3.9-4.8-8.6-11.4-10.6-14.6-3.6-6-7.5-14.4-5.7-12.6 4.7 5.1 25.6 31.1 28 35 3.6 5.7 4.1 4 1.2-3.7l-1.9-5.3 2.4 2.9c3.6 4.4 6.7 13.3 7.2 20.8.3 3.8.9 6.8 1.3 6.8 1.6 0 3-5.6 3-12.3 0-10.1-2.7-15.4-13.7-26.9-19.1-20-20.6-22-26.6-33.8-3.1-6.3-7.4-16.4-9.5-22.5-2.4-7.2-4.3-11.1-5.3-11.3-1.2-.2-2.6 2.7-5.8 12.5m8.9 36.5c3.6 9.8 5.4 13 18.8 33.3 16.6 25.1 17.7 27.6 17.7 43v12l-4.6 9.5c-2.5 5.2-9.3 16.5-15 25-5.7 8.6-11.7 18.4-13.3 21.8-3.8 8-5.6 8.1-9.5.5-1.6-3.2-7.3-12.1-12.6-19.8C93 148.8 89 140.2 89 126.6c0-13 2.2-19 12.3-34.8 2.9-4.6 8.2-12.8 11.7-18.2 5.3-8.3 8.5-15 13.3-27.9.3-.9.8-1.7 1-1.7.3 0 1.5 2.8 2.7 6.2"/>
        <path d="M120.3 81.6c-5.7 4.7-13.6 16.8-16.2 24.6-2.6 7.9-4.5 21-3.6 25.7.7 4.5 2.5 9.1 3.5 9.1.4 0 1-3.5 1.4-7.8.8-8.4 2.6-13.4 2.6-7.1 0 4.4 4.3 19.5 7 24.8 3.5 7 9 22.5 10.1 28.8.6 3.4 1.7 7 2.4 7.9 1.2 1.6 1.3 1.6 2.4-.5.7-1.2 1.7-5 2.2-8.4 1.1-6.9 4.5-18.1 8.3-27.3 3.2-7.8 5.6-18.1 5.7-24.7l.1-5.2 1.4 4.5c.8 2.5 1.6 6.9 1.7 9.7.2 6.2 2 7 3.8 1.6 2.8-8.6-1.2-27.6-8.7-40.4-4.2-7.2-15.5-18.9-18.2-18.9-.9 0-3.6 1.6-5.9 3.6"/>
    </g>
</svg>
