<?xml version="1.0" standalone="no"?>
<!DOCTYPE svg PUBLIC "-//W3C//DTD SVG 20010904//EN"
 "http://www.w3.org/TR/2001/REC-SVG-20010904/DTD/svg10.dtd">
<svg version="1.0" xmlns="http://www.w3.org/2000/svg"
 width="256.000000pt" height="256.000000pt" viewBox="0 0 256.000000 256.000000"
 preserveAspectRatio="xMidYMid meet">
<metadata>
Created by potrace 1.16, written by Peter Selinger 2001-2019
</metadata>
<g transform="translate(0.000000,256.000000) scale(0.100000,-0.100000)"
fill="#f2f2f2" stroke="none">
<path d="M2094 2428 c-55 -57 -95 -110 -127 -168 -40 -76 -67 -107 -224 -261
-169 -166 -249 -229 -290 -229 -10 0 -24 -12 -31 -29 -20 -46 -239 -252 -309
-291 -35 -19 -101 -73 -148 -119 -82 -80 -87 -84 -110 -71 -22 12 -27 11 -45
-5 -18 -16 -19 -21 -6 -39 12 -19 11 -25 -10 -56 -13 -19 -35 -64 -49 -101
-17 -43 -41 -82 -70 -113 -39 -41 -44 -49 -34 -67 9 -18 17 -20 47 -16 60 10
92 52 134 172 11 33 20 42 53 53 22 7 48 22 58 35 70 84 93 107 105 107 12 0
12 -4 -2 -23 -9 -12 -30 -45 -47 -74 -20 -35 -45 -60 -72 -75 -35 -20 -44 -32
-62 -84 -26 -75 -55 -109 -277 -323 l-170 -164 -35 12 -35 13 -82 -79 c-46
-43 -94 -86 -108 -95 -18 -12 -27 -29 -31 -58 -3 -23 -12 -49 -21 -59 -9 -10
-16 -25 -16 -33 0 -9 -7 -21 -15 -28 -17 -14 -19 -43 -5 -71 13 -24 62 -25
115 -3 33 13 39 13 54 0 11 -10 21 -12 33 -5 9 5 45 12 80 15 153 14 240 66
349 206 69 90 102 117 183 153 41 18 68 24 87 20 18 -4 29 -2 29 4 0 14 33 14
46 1 14 -14 42 -3 49 19 3 10 21 25 41 34 83 40 184 167 184 234 0 36 10 51
30 46 12 -3 34 10 65 38 44 41 47 46 42 86 -4 36 -2 42 16 45 30 4 32 25 3 32
-47 12 -55 120 -15 201 21 42 42 61 134 118 22 13 83 64 136 113 52 49 131
116 175 149 43 33 117 94 164 135 47 42 130 114 185 162 90 78 275 262 275
274 0 2 -13 -2 -30 -11 -19 -10 -30 -11 -30 -5 0 6 -13 30 -28 53 -43 63 -44
73 -17 103 25 27 32 44 18 44 -4 0 -44 -36 -89 -81 -57 -56 -87 -80 -100 -77
-15 3 0 24 75 101 71 73 90 97 75 97 -11 0 -31 -11 -44 -25 -34 -36 -55 -32
-68 14 -7 21 -12 45 -12 53 0 19 -62 78 -81 78 -9 0 -51 -37 -95 -82z m66
-205 c0 -9 -53 -69 -118 -132 -343 -338 -790 -771 -796 -771 -33 0 56 117 188
247 49 48 178 178 287 288 108 110 232 229 274 265 42 36 91 77 108 92 37 31
57 35 57 11z m164 -116 c31 -23 11 -50 -117 -166 -184 -164 -601 -520 -606
-515 -6 6 101 145 171 221 141 155 283 293 302 293 24 0 66 38 66 60 0 17 85
104 110 113 27 10 56 7 74 -6z m-933 -949 c1 -13 0 -48 -1 -80 -1 -39 5 -71
19 -103 12 -26 21 -52 21 -58 0 -23 -64 -77 -90 -77 -42 0 -43 11 -3 44 34 31
35 33 25 66 -7 19 -14 68 -17 108 -5 58 -3 79 10 98 19 30 35 31 36 2z m-319
-298 c-1 -19 -16 -56 -33 -82 -27 -42 -33 -46 -51 -37 -27 15 -18 56 24 115
38 54 64 55 60 4z m142 -19 c41 -24 51 -61 36 -129 -10 -44 -22 -64 -59 -101
-27 -27 -62 -51 -86 -58 -64 -20 -170 -43 -191 -43 -11 0 -48 -9 -81 -21 -61
-20 -103 -57 -210 -182 -34 -41 -53 -47 -53 -18 0 10 -7 37 -15 61 -20 56 -11
71 107 186 113 111 146 134 198 139 49 5 70 -19 70 -82 0 -47 3 -49 63 -32 32
9 36 12 27 29 -14 27 -12 86 4 99 7 6 14 22 14 35 0 13 15 49 33 80 32 53 36
55 74 55 22 0 53 -8 69 -18z m-154 -341 c0 -5 -2 -10 -4 -10 -3 0 -8 5 -11 10
-3 6 -1 10 4 10 6 0 11 -4 11 -10z m-522 -207 c4 -59 -10 -80 -69 -97 -44 -14
-55 -14 -85 -1 -19 8 -34 20 -34 27 0 7 23 36 51 64 47 47 55 52 93 51 41 -2
41 -2 44 -44z"/>
</g>
</svg>
