<?xml version="1.0" standalone="no"?>
<!DOCTYPE svg PUBLIC "-//W3C//DTD SVG 20010904//EN"
 "http://www.w3.org/TR/2001/REC-SVG-20010904/DTD/svg10.dtd">
<svg version="1.0" xmlns="http://www.w3.org/2000/svg"
 width="256.000000pt" height="256.000000pt" viewBox="0 0 256.000000 256.000000"
 preserveAspectRatio="xMidYMid meet">
<metadata>
Created by potrace 1.16, written by Peter Selinger 2001-2019
</metadata>
<g transform="translate(0.000000,256.000000) scale(0.100000,-0.100000)"
fill="#f2f2f2" stroke="none">
<path d="M666 2331 c-11 -17 3 -49 25 -56 10 -4 19 -13 19 -20 0 -17 42 -23
205 -29 160 -5 255 -33 176 -51 -29 -6 -71 8 -71 23 0 5 -15 7 -32 5 -18 -1
-112 -5 -208 -8 -96 -3 -219 -8 -273 -11 -89 -6 -100 -5 -120 14 -41 36 -67
44 -123 37 -58 -7 -62 -3 -42 40 9 21 9 28 -1 34 -33 21 -81 -21 -81 -70 0
-14 11 -47 25 -73 14 -26 25 -56 25 -67 0 -29 60 -82 77 -68 16 14 14 23 57
-201 20 -102 61 -306 91 -455 31 -148 76 -373 101 -500 25 -126 49 -233 53
-238 4 -4 21 8 39 26 l31 32 -30 145 c-45 214 -249 1223 -249 1230 0 3 17 6
38 6 20 0 84 6 142 13 105 13 274 8 295 -9 6 -4 37 -16 70 -25 113 -32 163
-49 215 -75 8 -4 16 -17 18 -29 3 -19 8 -21 40 -15 20 4 44 10 52 14 9 5 24 4
33 -2 10 -5 25 -7 34 -4 36 14 117 -26 176 -87 32 -32 61 -57 64 -54 3 3 26
-8 53 -24 26 -16 51 -29 56 -29 11 0 154 142 154 153 0 4 -10 7 -22 7 -13 0
-40 11 -61 24 -33 20 -48 23 -100 19 l-62 -5 -53 51 c-32 31 -52 59 -52 73 0
16 -10 28 -33 38 -17 8 -34 24 -36 35 -6 33 -22 47 -108 87 -122 57 -215 78
-393 88 -85 4 -167 11 -181 15 -16 4 -29 2 -33 -4z m600 -216 c18 -14 17 -15
-15 -13 -19 2 -36 9 -39 16 -5 17 30 15 54 -3z"/>
<path d="M2300 2313 c-92 -14 -89 -12 -121 -68 -18 -32 -143 -173 -319 -360
-160 -168 -290 -310 -290 -314 0 -5 -206 -214 -457 -466 -316 -315 -484 -476
-543 -518 -131 -94 -282 -212 -312 -243 -31 -34 -72 -147 -63 -175 8 -24 20
-24 101 3 60 20 72 29 144 108 43 48 99 121 126 161 46 72 127 154 1189 1207
144 143 438 407 529 475 28 22 53 41 55 42 1 2 6 32 11 67 7 58 0 91 -19 87
-3 -1 -17 -3 -31 -6z"/>
<path d="M1866 1690 c-42 -44 -76 -85 -76 -91 0 -6 16 -29 35 -50 21 -23 35
-50 35 -64 0 -18 7 -28 24 -34 25 -10 74 -67 100 -119 19 -37 26 -144 13 -202
-7 -31 -5 -36 15 -45 29 -13 49 -53 93 -195 51 -159 59 -229 45 -372 -6 -64
-15 -130 -20 -146 -6 -22 -4 -34 8 -46 15 -15 15 -16 -1 -16 -21 0 -831 162
-1161 232 l-240 51 -28 -33 c-15 -19 -25 -37 -20 -41 4 -3 84 -21 177 -38 94
-18 190 -37 215 -43 90 -20 630 -130 817 -166 170 -33 192 -39 187 -55 -8 -26
62 -88 91 -81 15 4 26 0 32 -9 11 -19 47 -37 76 -37 29 0 67 38 67 68 0 30
-16 35 -46 15 l-28 -18 7 25 c18 62 18 79 2 109 -9 18 -25 41 -36 52 -22 22
-23 41 -9 159 6 47 13 173 15 281 5 173 3 197 -10 203 -18 7 -18 77 1 83 18 6
37 -97 43 -246 7 -149 18 -190 56 -205 25 -9 40 22 27 58 -7 18 -12 78 -12
135 0 127 -14 224 -46 321 -38 113 -75 181 -108 200 -17 9 -37 29 -46 46 -10
16 -25 29 -36 29 -21 1 -89 57 -107 90 -7 11 -12 52 -12 92 0 62 -3 75 -22 93
-14 12 -23 33 -23 50 0 16 -4 31 -9 34 -5 3 -43 -30 -85 -74z m324 -513 c0
-10 -5 -17 -12 -15 -19 7 -32 34 -24 54 7 19 8 19 22 0 8 -11 14 -28 14 -39z"/>
</g>
</svg>
