<?xml version="1.0" standalone="no"?>
<!DOCTYPE svg PUBLIC "-//W3C//DTD SVG 20010904//EN"
 "http://www.w3.org/TR/2001/REC-SVG-20010904/DTD/svg10.dtd">
<svg version="1.0" xmlns="http://www.w3.org/2000/svg"
 width="256.000000pt" height="256.000000pt" viewBox="0 0 256.000000 256.000000"
 preserveAspectRatio="xMidYMid meet">
<metadata>
Created by potrace 1.16, written by Peter Selinger 2001-2019
</metadata>
<g transform="translate(0.000000,256.000000) scale(0.100000,-0.100000)"
fill="#f2f2f2" stroke="none">
<path d="M1940 2535 l-22 -23 57 -71 c48 -60 55 -74 45 -86 -11 -13 -9 -20 10
-40 19 -20 21 -30 15 -62 -4 -21 -18 -53 -31 -70 -40 -52 -188 -172 -251 -202
-80 -39 -218 -75 -278 -73 -74 3 -142 -15 -148 -40 -5 -17 -11 -20 -37 -15
-36 8 -70 -10 -70 -36 0 -10 14 -51 31 -90 41 -92 50 -187 24 -238 -15 -28
-15 -32 -3 -21 36 30 75 32 125 6 27 -13 49 -24 49 -24 1 0 5 17 9 37 15 82
50 130 139 189 92 60 170 138 267 266 92 122 161 184 292 267 95 59 115 76
106 87 -15 18 -57 18 -93 -1 -38 -20 -46 -19 -78 12 -34 32 -34 40 -6 70 14
15 19 27 12 31 -5 4 -28 31 -51 60 -23 29 -53 62 -66 72 -24 19 -24 19 -47 -5z
m25 -14 c3 -5 1 -12 -4 -15 -5 -3 -11 1 -15 9 -6 16 9 21 19 6z"/>
<path d="M2194 2180 c-150 -94 -187 -128 -297 -270 -45 -58 -108 -132 -140
-165 -72 -73 -77 -83 -77 -135 0 -44 13 -77 39 -97 31 -24 48 -14 79 45 17 32
49 79 72 104 50 58 298 275 377 331 32 22 61 45 65 51 3 5 5 35 3 67 -4 51 -1
60 22 84 27 26 27 26 7 46 -20 20 -20 20 -150 -61z"/>
<path d="M2461 2132 c-13 -9 -42 -19 -65 -22 -38 -5 -41 -7 -38 -34 4 -39 -18
-69 -85 -114 -71 -48 -290 -239 -359 -313 -27 -30 -74 -98 -104 -152 -86 -157
-135 -186 -289 -176 -43 3 -51 1 -51 -13 0 -19 21 -121 25 -126 2 -2 21 8 42
22 38 26 38 26 52 6 13 -19 71 -30 71 -12 0 4 15 24 34 44 49 53 66 79 67 103
0 19 64 123 123 201 17 22 77 77 135 124 125 102 191 165 191 184 0 7 30 39
66 71 36 32 77 70 92 84 15 14 49 45 76 67 27 24 47 48 45 56 -4 14 -7 14 -28
0z"/>
<path d="M1143 1814 c-7 -19 21 -44 49 -44 17 0 18 2 3 30 -17 33 -42 39 -52
14z"/>
<path d="M1119 1717 c-1 -12 -1 -41 0 -64 1 -33 -4 -45 -20 -53 -14 -8 -18
-17 -14 -30 6 -17 3 -19 -24 -14 l-31 7 0 -50 c0 -69 11 -143 21 -143 5 0 8
10 6 23 -1 14 3 22 13 22 21 0 24 -64 4 -86 -9 -10 -33 -23 -53 -30 -75 -24
-88 -57 -45 -109 l26 -31 -41 -38 c-34 -31 -41 -44 -41 -75 0 -62 -23 -97
-139 -209 -124 -120 -132 -138 -91 -217 26 -50 62 -62 93 -31 19 18 21 31 19
98 -3 98 10 120 112 199 55 42 76 65 76 81 0 30 98 107 157 123 29 9 71 11
123 6 73 -6 80 -5 106 17 l27 24 -18 74 c-10 41 -32 100 -48 133 -16 32 -26
67 -24 77 8 28 -12 23 -25 -7 -10 -21 -9 -31 5 -56 24 -43 22 -48 -24 -48 -47
0 -119 36 -119 59 0 9 23 42 50 74 28 32 53 70 56 84 14 54 -15 201 -36 188
-4 -3 -28 2 -54 9 -45 14 -46 13 -47 -7z m-29 -206 c0 -10 9 -30 20 -44 11
-14 20 -30 20 -37 0 -7 -8 -9 -20 -6 -11 3 -29 9 -40 12 -16 4 -20 14 -20 50
0 37 3 44 20 44 13 0 20 -7 20 -19z m70 -201 c0 -5 -2 -10 -4 -10 -3 0 -8 5
-11 10 -3 6 -1 10 4 10 6 0 11 -4 11 -10z m-80 -55 c0 -14 -29 -73 -38 -79 -9
-5 -47 53 -39 60 13 14 77 29 77 19z"/>
<path d="M1595 1622 c-52 -37 -70 -66 -92 -142 -9 -34 -23 -64 -30 -67 -7 -3
-13 -13 -13 -23 0 -15 12 -18 77 -22 42 -3 92 -2 112 3 53 12 121 99 77 99 -8
0 -28 16 -44 35 -28 31 -36 54 -44 123 l-3 24 -40 -30z"/>
<path d="M1031 1584 c0 -11 3 -14 6 -6 3 7 2 16 -1 19 -3 4 -6 -2 -5 -13z"/>
<path d="M1215 1400 c-32 -34 -31 -37 14 -46 32 -7 33 -6 22 15 -7 12 -9 31
-6 41 9 27 4 25 -30 -10z"/>
<path d="M1360 1420 c-12 -7 -10 -18 13 -67 56 -119 72 -242 38 -284 -16 -19
-26 -23 -62 -19 -24 2 -81 4 -126 4 -71 1 -85 -2 -110 -22 -15 -12 -40 -30
-56 -40 -15 -9 -30 -25 -33 -35 -8 -24 19 -63 57 -83 l31 -16 -7 50 c-6 46 -5
50 25 75 17 15 44 30 58 33 15 3 32 7 37 9 6 1 44 -3 85 -10 62 -11 80 -11
101 0 54 29 64 68 39 169 -9 39 -21 106 -24 149 -6 60 -12 79 -26 87 -22 12
-21 12 -40 0z"/>
<path d="M726 1161 c-10 -11 -31 -61 -47 -112 -16 -51 -41 -110 -55 -130 -17
-25 -24 -45 -19 -58 6 -20 6 -20 50 -1 68 29 173 99 195 130 27 38 25 75 -7
126 -40 63 -85 80 -117 45z"/>
<path d="M1212 981 c-10 -6 -10 -10 2 -20 8 -7 13 -18 10 -26 -3 -7 1 -26 9
-42 9 -18 12 -36 7 -49 -12 -31 22 -84 55 -84 21 0 30 13 70 96 25 53 44 98
42 100 -4 4 -164 34 -177 34 -3 0 -11 -4 -18 -9z"/>
<path d="M933 850 c-86 -69 -93 -81 -93 -168 0 -73 -16 -126 -42 -134 -14 -5
-2 -28 16 -28 7 0 31 16 55 36 29 25 40 42 36 54 -4 12 18 38 80 95 99 89 106
111 52 163 -18 18 -35 32 -37 32 -3 -1 -33 -23 -67 -50z"/>
<path d="M690 835 c-54 -30 -81 -31 -104 -6 -23 25 -47 18 -124 -37 -104 -74
-115 -112 -47 -174 19 -17 35 -35 35 -39 0 -4 -14 -17 -31 -29 -29 -21 -31
-21 -49 -5 -19 17 -20 17 -39 -6 -36 -42 -53 -91 -59 -158 l-5 -66 23 20 c12
11 30 19 39 17 9 -1 44 22 78 53 34 30 67 55 75 55 8 0 22 16 32 36 16 34 16
38 0 55 -14 15 -14 21 -4 34 18 22 32 19 78 -15 45 -32 54 -59 23 -67 -33 -8
-58 -93 -27 -93 13 0 45 -64 111 -228 29 -71 42 -91 54 -88 10 3 27 -11 49
-40 18 -24 37 -44 42 -44 15 0 24 51 12 71 -17 26 -60 153 -82 241 -11 42 -23
84 -27 93 -5 14 -2 16 17 10 21 -7 22 -5 15 27 -12 61 -16 70 -31 64 -9 -3
-18 2 -21 12 -4 9 -18 26 -31 36 -31 24 -61 91 -62 134 0 47 23 86 75 123 66
48 59 54 -15 14z"/>
<path d="M217 588 c-39 -43 -67 -105 -71 -165 -6 -67 -38 -154 -92 -246 -25
-44 -43 -81 -41 -83 6 -6 54 15 100 45 24 15 37 31 37 45 0 22 45 96 58 96 4
0 7 39 7 88 0 96 11 125 71 196 19 22 34 43 34 48 0 4 -16 8 -36 8 -28 0 -43
-8 -67 -32z"/>
</g>
</svg>
