<?xml version="1.0" standalone="no"?>
<!DOCTYPE svg PUBLIC "-//W3C//DTD SVG 20010904//EN"
 "http://www.w3.org/TR/2001/REC-SVG-20010904/DTD/svg10.dtd">
<svg version="1.0" xmlns="http://www.w3.org/2000/svg"
 width="256.000000pt" height="256.000000pt" viewBox="0 0 256.000000 256.000000"
 preserveAspectRatio="xMidYMid meet">
<metadata>
Created by potrace 1.16, written by Peter Selinger 2001-2019
</metadata>
<g transform="translate(0.000000,256.000000) scale(0.100000,-0.100000)"
fill="#f2f2f2" stroke="none">
<path d="M1183 2301 c-17 -11 -34 -28 -37 -39 -5 -13 -22 -21 -64 -29 -98 -19
-225 -71 -320 -133 -51 -33 -92 -63 -92 -68 0 -5 36 -25 80 -45 l80 -36 72 39
c68 35 192 80 224 80 11 0 14 -22 14 -104 0 -97 2 -107 25 -135 47 -55 160
-51 205 6 17 22 20 41 20 129 0 57 4 104 9 104 28 0 156 -47 219 -80 l72 -39
80 36 c44 20 80 40 80 45 0 5 -41 35 -92 68 -92 60 -218 113 -316 132 -41 9
-56 17 -65 35 -24 53 -132 71 -194 34z m117 -70 c6 -11 10 -87 10 -176 0 -89
-4 -165 -10 -176 -12 -21 -50 -25 -68 -7 -17 17 -17 349 0 366 18 18 56 14 68
-7z"/>
<path d="M509 1861 l161 -168 0 -324 c0 -300 1 -326 19 -355 23 -38 140 -164
152 -164 5 0 8 201 7 477 l-3 477 -239 113 c-131 62 -243 113 -248 113 -6 0
62 -76 151 -169z"/>
<path d="M1910 1916 l-235 -112 -3 -477 c-1 -276 2 -477 7 -477 12 0 129 126
152 164 18 29 19 55 19 355 l0 324 161 168 c89 93 155 169 148 168 -8 0 -120
-51 -249 -113z"/>
<path d="M416 1690 c-46 -101 -75 -210 -83 -312 l-6 -78 -66 0 c-88 0 -134
-14 -165 -51 -36 -42 -35 -89 3 -131 29 -33 30 -33 140 -38 l112 -5 28 -81
c45 -131 135 -279 215 -353 25 -24 26 -28 26 -138 l0 -113 33 -20 c41 -25 68
-25 101 1 22 17 26 28 26 69 l0 48 53 -29 c28 -16 55 -29 60 -29 4 0 7 42 7
93 l-1 92 -55 35 c-133 84 -258 249 -310 408 -27 81 -29 98 -29 242 1 144 3
160 28 230 43 115 44 108 -21 178 l-58 64 -38 -82z m-78 -479 c8 -4 12 -19 10
-32 -3 -23 -5 -24 -102 -24 -81 0 -101 3 -109 17 -8 12 -7 21 2 32 10 12 33
16 100 16 47 0 92 -4 99 -9z"/>
<path d="M2006 1705 c-58 -66 -59 -68 -47 -99 50 -123 55 -148 55 -306 1 -144
-1 -161 -28 -242 -52 -159 -177 -324 -310 -408 l-55 -35 -1 -92 c0 -51 3 -93
8 -93 4 0 31 13 60 29 l52 29 0 -48 c0 -41 4 -52 26 -69 33 -26 60 -26 102 -1
l32 20 0 113 c0 110 1 114 26 138 80 74 170 222 215 353 l28 81 112 5 c110 5
111 5 140 38 38 42 39 89 3 131 -31 37 -77 51 -165 51 l-66 0 -6 78 c-8 104
-38 215 -84 313 l-38 81 -59 -67z m375 -501 c9 -11 10 -20 2 -32 -8 -14 -28
-17 -109 -17 -97 0 -99 1 -102 24 -5 34 12 41 109 41 67 0 90 -4 100 -16z"/>
<path d="M1110 1373 c0 -18 151 -916 154 -920 3 -3 143 819 153 895 l6 42
-157 0 c-139 0 -156 -2 -156 -17z"/>
<path d="M1010 434 l0 -177 50 69 51 69 -3 105 -3 105 -47 3 -48 3 0 -177z"/>
<path d="M1417 603 c-4 -3 -7 -52 -7 -107 l0 -101 50 -69 50 -69 0 177 0 176
-43 0 c-24 0 -47 -3 -50 -7z"/>
</g>
</svg>
