<?xml version="1.0" standalone="no"?>
<!DOCTYPE svg PUBLIC "-//W3C//DTD SVG 20010904//EN"
 "http://www.w3.org/TR/2001/REC-SVG-20010904/DTD/svg10.dtd">
<svg version="1.0" xmlns="http://www.w3.org/2000/svg"
 width="128.000000pt" height="128.000000pt" viewBox="0 0 128.000000 128.000000"
 preserveAspectRatio="xMidYMid meet">
<metadata>
Created by potrace 1.16, written by Peter Selinger 2001-2019
</metadata>
<g transform="translate(0.000000,128.000000) scale(0.100000,-0.100000)"
fill="#f2f2f2" stroke="none">
<path d="M583 1142 c-10 -10 -45 -26 -78 -36 -61 -18 -165 -74 -165 -88 0 -5
16 -16 34 -25 34 -16 37 -15 94 10 33 15 69 27 81 27 19 0 21 -6 21 -53 0 -62
11 -77 60 -77 49 0 60 15 60 77 0 47 2 53 21 53 12 0 48 -12 81 -27 57 -25 60
-26 94 -10 18 9 34 20 34 25 0 14 -104 70 -165 88 -33 10 -66 27 -73 36 -17
24 -76 24 -99 0z m67 -118 c0 -86 -2 -95 -17 -92 -15 3 -18 17 -21 92 -2 63 1
92 10 97 23 15 28 -2 28 -97z"/>
<path d="M258 926 l82 -84 0 -166 0 -167 40 -42 39 -42 1 240 0 240 -114 53
c-62 28 -117 52 -121 52 -5 0 28 -38 73 -84z"/>
<path d="M953 957 l-113 -52 0 -240 1 -240 39 42 40 42 0 167 0 166 82 84 c45
46 77 84 72 84 -5 0 -60 -24 -121 -53z"/>
<path d="M202 833 c-11 -27 -23 -66 -27 -88 -16 -101 -12 -95 -60 -95 -35 0
-48 -5 -64 -26 -37 -47 -4 -84 74 -84 l52 0 12 -42 c15 -50 41 -97 87 -154 27
-34 33 -51 36 -100 l3 -59 35 0 c31 0 35 3 38 28 3 20 8 27 18 23 8 -3 21 -9
29 -12 12 -5 15 3 15 37 0 41 -4 47 -47 79 -129 96 -186 277 -135 426 l18 51
-26 32 c-15 17 -29 31 -32 31 -3 0 -15 -21 -26 -47z m-24 -240 c3 -9 -12 -13
-52 -13 -44 0 -56 3 -56 16 0 12 10 14 52 12 30 -2 53 -8 56 -15z"/>
<path d="M1000 847 l-25 -32 17 -50 c51 -148 -7 -329 -135 -425 -43 -32 -47
-38 -47 -79 0 -30 4 -42 13 -38 6 3 20 8 29 12 13 5 17 0 20 -22 3 -25 7 -28
38 -28 l35 0 3 59 c3 49 9 66 36 100 46 57 72 104 87 154 l12 42 52 0 c78 0
111 37 74 84 -16 21 -29 26 -64 26 -43 0 -44 1 -50 38 -14 83 -18 99 -37 145
-11 26 -23 47 -27 47 -3 0 -17 -15 -31 -33z m190 -252 c0 -12 -13 -15 -55 -15
-51 0 -65 7 -48 23 3 4 28 7 55 7 36 0 48 -4 48 -15z"/>
<path d="M558 695 c-5 -6 66 -442 74 -450 4 -4 79 423 78 448 0 8 -144 10
-152 2z"/>
<path d="M500 213 l0 -88 25 30 c19 24 24 42 25 88 0 54 -1 57 -25 57 -25 0
-25 -1 -25 -87z"/>
<path d="M710 243 c1 -46 6 -64 25 -88 l25 -30 0 88 c0 86 0 87 -25 87 -24 0
-25 -3 -25 -57z"/>
</g>
</svg>
