<?xml version="1.0" standalone="no"?>
<!DOCTYPE svg PUBLIC "-//W3C//DTD SVG 20010904//EN"
 "http://www.w3.org/TR/2001/REC-SVG-20010904/DTD/svg10.dtd">
<svg version="1.0" xmlns="http://www.w3.org/2000/svg"
 width="256.000000pt" height="256.000000pt" viewBox="0 0 256.000000 256.000000"
 preserveAspectRatio="xMidYMid meet">
<metadata>
Created by potrace 1.16, written by Peter Selinger 2001-2019
</metadata>
<g transform="translate(0.000000,256.000000) scale(0.100000,-0.100000)"
fill="#f2f2f2" stroke="none">
<path d="M1753 2462 c-52 -48 -78 -83 -97 -124 -14 -32 -29 -58 -34 -58 -4 0
-18 -21 -29 -47 -15 -36 -42 -66 -104 -118 -46 -38 -101 -86 -124 -106 -148
-131 -339 -290 -385 -322 -32 -21 -88 -46 -130 -58 -88 -25 -100 -33 -100 -68
l-1 -26 -20 28 c-11 15 -24 27 -28 27 -5 0 -31 -24 -60 -52 -51 -53 -81 -112
-95 -190 -7 -37 -6 -38 22 -38 16 0 37 -9 48 -21 10 -11 29 -30 40 -42 16 -16
20 -30 17 -55 -6 -38 -1 -39 40 -10 84 57 137 110 137 135 0 41 22 157 33 171
5 6 17 12 26 12 25 0 123 52 173 91 66 52 156 128 363 308 311 271 364 314
380 307 12 -4 14 -10 5 -25 -5 -11 -15 -23 -20 -26 -22 -13 -8 -25 30 -25 25
0 58 -10 88 -27 49 -27 82 -27 82 1 0 8 -32 52 -71 97 -39 46 -76 94 -82 108
-7 14 -18 31 -25 37 -11 8 -12 21 -3 69 13 68 14 115 4 115 -5 0 -40 -31 -80
-68z"/>
<path d="M2212 2110 c-28 -26 -27 -31 1 -58 29 -27 35 -27 58 0 47 53 -7 106
-59 58z"/>
<path d="M2052 2079 c-39 -37 -48 -41 -82 -36 -22 3 -53 15 -69 26 -24 17 -35
20 -50 11 -11 -5 -40 -10 -65 -10 -43 0 -46 -2 -46 -27 0 -16 9 -43 20 -61 25
-41 25 -64 1 -86 -16 -14 -17 -23 -9 -58 5 -23 8 -46 6 -53 -3 -12 -226 -215
-264 -241 -11 -8 -56 -17 -99 -21 l-78 -6 -86 -75 c-47 -40 -92 -81 -98 -90
-19 -23 -16 -70 8 -147 l20 -67 -36 -46 c-24 -31 -34 -54 -31 -67 3 -11 8 -51
12 -88 4 -37 10 -70 14 -72 4 -3 24 30 45 73 21 42 45 85 54 95 8 10 89 76
178 145 145 113 163 130 163 156 0 16 6 37 14 45 7 9 24 48 36 86 29 88 52
117 190 240 164 145 267 222 309 229 109 18 127 18 140 2 14 -17 46 -23 36 -6
-3 5 2 21 11 35 20 31 14 41 -16 25 -31 -17 -51 -6 -119 65 -35 36 -63 65 -64
65 -1 0 -22 -19 -45 -41z"/>
<path d="M2062 1863 c-66 -45 -266 -219 -329 -287 -58 -62 -78 -105 -115 -244
-10 -38 -23 -52 -97 -109 -206 -158 -281 -234 -281 -285 0 -34 -122 -182 -143
-175 -7 2 -17 49 -23 108 -12 111 -46 224 -93 317 -52 102 -49 101 -114 48
l-56 -46 29 -47 c53 -83 110 -260 110 -344 0 -87 -108 -227 -315 -405 -124
-105 -138 -115 -165 -109 -17 4 -30 13 -30 20 0 7 49 47 108 88 128 88 203
156 270 240 90 114 96 142 61 280 -23 91 -56 167 -92 212 l-24 29 -29 -19
c-52 -33 -173 -168 -185 -204 -14 -42 -203 -230 -231 -231 -22 0 -22 -5 -3
-115 9 -49 36 -139 60 -201 25 -63 45 -125 45 -140 0 -18 -18 -44 -60 -88 -47
-49 -60 -70 -60 -93 0 -52 30 -48 107 15 64 53 332 290 447 394 28 26 57 47
64 48 17 0 47 18 121 73 35 26 70 47 77 47 7 0 40 -33 73 -74 34 -41 70 -77
80 -81 11 -3 27 -18 38 -33 15 -23 18 -44 16 -149 -2 -68 1 -123 6 -123 14 0
61 74 81 129 31 81 27 128 -18 197 -22 32 -49 68 -60 78 -12 11 -22 28 -22 39
0 17 5 18 35 13 28 -6 35 -4 35 9 0 8 -4 15 -10 15 -5 0 -28 16 -50 36 -38 35
-39 37 -24 60 9 13 25 24 35 24 22 0 24 16 4 50 -23 41 -18 92 13 136 16 21
71 75 122 119 51 44 128 110 171 148 43 37 83 67 88 67 23 0 9 -29 -34 -68
-38 -35 -44 -44 -36 -64 5 -16 17 -24 37 -26 23 -2 41 9 89 54 33 32 116 107
185 167 69 60 133 124 142 141 9 17 69 80 132 139 97 91 116 113 116 138 0 19
-6 31 -17 35 -10 3 -25 9 -35 14 -12 7 -30 -3 -73 -41 -51 -45 -75 -54 -75
-29 0 5 11 26 25 46 14 20 25 47 25 60 0 22 -4 24 -53 24 -42 0 -63 -6 -95
-27z"/>
<path d="M1600 1727 c-59 -51 -124 -106 -145 -124 -42 -33 -42 -53 0 -37 37
14 264 217 264 237 1 9 -2 17 -6 17 -5 -1 -55 -42 -113 -93z"/>
<path d="M1026 1301 l-27 -29 31 -73 c17 -41 35 -78 39 -82 5 -5 17 3 28 17
l20 25 -26 86 c-14 47 -28 85 -31 85 -4 0 -19 -13 -34 -29z"/>
<path d="M1505 1070 c-167 -147 -176 -168 -100 -249 25 -26 45 -58 45 -70 0
-11 4 -21 9 -21 7 0 103 83 244 210 l39 35 -79 83 -78 82 -80 -70z"/>
<path d="M224 609 c-30 -55 -25 -217 10 -342 15 -53 24 -106 21 -117 -11 -34
13 -23 65 30 59 58 63 82 24 167 -37 83 -84 219 -84 245 0 13 -4 29 -9 37 -7
11 -13 6 -27 -20z"/>
<path d="M1069 561 c-27 -22 -36 -7 111 -175 l95 -109 3 61 c4 75 -7 96 -59
122 -22 12 -55 43 -75 70 -20 28 -39 50 -44 50 -4 0 -18 -8 -31 -19z"/>
</g>
</svg>
