<?xml version="1.0" standalone="no"?>
<!DOCTYPE svg PUBLIC "-//W3C//DTD SVG 20010904//EN"
 "http://www.w3.org/TR/2001/REC-SVG-20010904/DTD/svg10.dtd">
<svg version="1.0" xmlns="http://www.w3.org/2000/svg"
 width="256.000000pt" height="256.000000pt" viewBox="0 0 256.000000 256.000000"
 preserveAspectRatio="xMidYMid meet">
<metadata>
Created by potrace 1.16, written by Peter Selinger 2001-2019
</metadata>
<g transform="translate(0.000000,256.000000) scale(0.100000,-0.100000)"
fill="#f2f2f2" stroke="none">
<path d="M2205 2512 c-22 -9 -74 -34 -115 -55 -41 -20 -87 -37 -102 -37 -69 0
-238 -95 -238 -134 0 -5 -6 -17 -14 -25 -8 -9 -29 -52 -46 -96 l-32 -79 21
-17 c27 -22 27 -61 0 -85 -12 -10 -32 -41 -45 -67 -55 -108 -91 -152 -154
-191 -66 -41 -112 -101 -167 -215 -14 -31 -52 -87 -83 -126 -30 -38 -63 -82
-73 -97 -19 -31 -22 -73 -7 -83 8 -5 7 -11 -1 -21 -6 -8 -9 -17 -5 -21 3 -4
-10 -24 -31 -45 -27 -28 -40 -35 -49 -27 -10 8 -38 -16 -114 -95 -72 -75 -119
-114 -163 -137 -68 -35 -157 -107 -157 -126 0 -7 -9 -13 -20 -13 -11 0 -27
-11 -36 -25 -9 -13 -38 -40 -64 -59 -27 -19 -51 -44 -55 -55 -3 -12 -17 -24
-29 -27 -31 -7 -132 -113 -139 -144 -14 -64 -40 -102 -137 -200 -100 -100
-140 -153 -128 -166 7 -7 43 15 119 72 30 23 83 56 116 72 33 16 91 54 129 84
38 30 104 72 147 93 74 37 78 40 72 67 -9 38 13 37 28 -2 10 -26 16 -30 50
-30 47 0 105 29 133 67 29 39 41 85 49 182 4 46 11 95 16 109 5 13 57 76 115
140 58 63 113 127 122 141 42 69 100 109 116 82 14 -22 64 5 171 90 33 27 101
68 152 93 97 47 155 97 188 160 15 30 40 51 106 90 129 76 142 84 162 98 15
11 20 10 32 -6 8 -10 16 -24 18 -30 2 -7 27 -3 73 13 89 31 146 64 183 106 30
35 91 178 91 217 1 13 17 50 36 83 60 104 83 161 90 224 5 50 4 61 -8 61 -32
0 -78 -62 -78 -105 0 -15 -5 -35 -10 -46 -11 -19 -11 -19 -32 1 -12 11 -25 20
-30 20 -12 0 -78 -61 -78 -72 0 -6 -11 -21 -24 -33 -32 -30 -44 -90 -23 -113
22 -24 41 -103 34 -133 -9 -36 -45 -79 -75 -90 -28 -11 -86 5 -114 30 -18 17
-18 15 12 131 5 19 10 48 10 63 0 16 9 42 21 58 15 22 18 33 10 43 -14 16 42
71 82 80 22 5 27 12 27 36 0 40 -42 60 -71 34 -11 -10 -19 -25 -19 -34 0 -22
-56 -75 -65 -61 -4 7 -18 2 -40 -15 -19 -14 -39 -23 -45 -19 -6 4 -44 -1 -85
-10 -108 -24 -129 -6 -130 108 0 42 4 52 33 78 50 45 124 38 175 -16 23 -26
26 -26 67 -14 23 7 47 21 54 31 6 10 16 18 21 18 17 0 75 64 75 82 0 8 -7 21
-15 28 -33 28 -15 46 42 41 41 -3 126 63 106 83 -13 12 -119 4 -158 -12z
m-129 -467 c9 -22 -5 -53 -15 -37 -5 9 -18 11 -37 6 l-29 -7 24 27 c27 29 49
33 57 11z m-215 -225 c10 0 19 -2 19 -4 0 -2 -43 -46 -96 -99 -65 -65 -97 -91
-101 -81 -3 8 -11 14 -19 14 -20 0 -17 38 4 49 9 5 51 43 92 85 61 61 76 72
78 56 2 -12 11 -20 23 -20z m-1132 -1219 c20 -20 19 -52 -2 -78 -25 -33 -107
1 -107 44 0 48 73 70 109 34z"/>
</g>
</svg>
