<?xml version="1.0" standalone="no"?>
<!DOCTYPE svg PUBLIC "-//W3C//DTD SVG 20010904//EN"
 "http://www.w3.org/TR/2001/REC-SVG-20010904/DTD/svg10.dtd">
<svg version="1.0" xmlns="http://www.w3.org/2000/svg"
 width="256.000000pt" height="256.000000pt" viewBox="0 0 256.000000 256.000000"
 preserveAspectRatio="xMidYMid meet">
<metadata>
Created by potrace 1.16, written by Peter Selinger 2001-2019
</metadata>
<g transform="translate(0.000000,256.000000) scale(0.100000,-0.100000)"
fill="#f2f2f2" stroke="none">
<path d="M2074 2533 c-9 -29 -21 -48 -30 -48 -18 0 -34 -17 -34 -34 0 -11 -30
-43 -72 -77 -40 -32 -187 -152 -326 -267 -139 -115 -269 -218 -288 -229 -32
-19 -36 -19 -53 -4 -25 22 -34 20 -27 -7 4 -18 -1 -25 -25 -36 -16 -7 -42 -11
-57 -8 -30 6 -62 -7 -62 -26 0 -7 -17 -28 -36 -47 -19 -19 -38 -47 -41 -61 -3
-19 -61 -72 -206 -192 -111 -92 -226 -181 -256 -199 -76 -46 -75 -47 61 -81
26 -7 27 -6 16 23 -8 24 -7 35 6 55 14 22 24 25 69 24 28 0 78 -4 109 -8 l57
-7 143 109 c79 59 191 145 251 190 59 45 107 87 107 94 0 6 30 38 67 70 36 32
90 78 118 103 28 25 98 83 155 130 58 47 132 108 166 137 65 54 101 67 128 44
17 -14 25 -11 85 37 24 19 24 21 8 46 -23 34 -21 47 5 42 15 -2 29 6 41 21 10
12 27 23 37 23 27 0 48 36 55 95 6 42 4 54 -15 78 -19 24 -27 27 -86 27 -53 0
-66 -3 -70 -17z"/>
<path d="M2222 2348 c-7 -7 -12 -18 -12 -25 0 -7 -11 -13 -24 -13 -27 0 -41
-27 -31 -59 4 -15 -9 -29 -62 -67 -37 -27 -81 -57 -98 -68 -26 -16 -291 -225
-475 -374 -30 -24 -77 -56 -105 -69 -27 -14 -158 -109 -289 -210 -166 -127
-244 -182 -255 -177 -9 3 -56 10 -104 16 -98 10 -117 3 -117 -38 0 -13 9 -33
19 -43 18 -18 114 -52 189 -67 18 -4 32 -11 32 -16 0 -5 -8 -7 -17 -4 -10 3
-61 17 -113 30 -52 14 -135 36 -184 50 -50 13 -95 22 -101 20 -10 -4 -45 -96
-45 -117 0 -4 16 -25 36 -47 38 -42 37 -61 -7 -75 -20 -7 -25 -30 -9 -40 6 -4
20 5 31 18 29 38 77 50 133 36 61 -15 59 -30 -4 -22 -86 10 -130 -24 -130
-101 0 -43 82 -208 116 -235 17 -14 24 -26 20 -37 -7 -19 -285 -495 -296 -507
-9 -10 -97 48 -148 97 -37 34 -92 137 -92 171 0 18 -7 24 -30 27 -17 3 -30 2
-30 -2 0 -16 49 -129 72 -165 42 -66 105 -131 168 -174 80 -55 92 -53 115 11
10 29 24 62 30 73 7 11 30 54 52 95 22 41 57 103 77 137 20 34 36 64 36 68 0
21 44 65 66 65 18 0 29 11 49 50 14 27 25 60 25 74 0 14 -24 60 -54 103 -66
97 -73 118 -50 144 9 10 25 19 35 19 32 0 69 -23 69 -42 0 -22 59 -98 77 -98
13 0 34 -53 62 -156 26 -96 55 -160 78 -171 10 -5 36 -9 58 -8 54 0 56 20 11
150 -20 57 -36 114 -36 127 0 15 14 36 41 59 l42 36 37 -21 c32 -17 40 -18 54
-7 9 7 16 28 16 46 0 27 -6 37 -35 55 -19 12 -35 25 -35 30 0 4 21 22 48 39
66 43 74 59 72 155 -2 45 -2 91 -1 102 0 12 32 51 72 90 40 38 79 88 89 111
11 23 80 110 155 193 75 82 137 150 138 150 1 0 43 5 93 9 96 10 131 22 177
65 33 30 42 28 50 -12 4 -20 47 -67 144 -158 75 -71 166 -156 201 -189 35 -33
74 -65 86 -72 32 -19 80 -15 110 8 21 17 26 29 26 65 0 52 4 47 -160 190 -152
131 -278 232 -311 249 -16 9 -29 20 -29 26 0 5 43 55 97 110 79 81 101 99 125
99 21 0 31 6 35 20 4 15 13 19 36 17 28 -2 32 2 42 38 26 89 26 92 -1 124 -23
28 -31 31 -83 31 -31 0 -62 -5 -69 -12z m-1265 -1514 c24 -10 43 -22 43 -26 0
-4 -13 -16 -29 -27 l-29 -21 -26 41 c-23 34 -28 67 -8 56 4 -2 26 -12 49 -23z"/>
<path d="M2145 2000 c-51 -49 -62 -66 -54 -77 19 -22 43 -15 78 21 28 29 58
103 46 114 -2 3 -34 -24 -70 -58z"/>
<path d="M1682 1723 c-13 -3 -72 -59 -140 -135 -133 -148 -162 -185 -162 -210
0 -10 -34 -50 -75 -90 -41 -40 -75 -78 -75 -84 0 -6 11 -14 24 -16 20 -4 39 9
101 69 50 49 78 84 82 105 6 29 178 229 237 276 14 11 56 25 93 32 84 16 86
17 73 41 -9 16 -21 19 -73 18 -34 -1 -72 -4 -85 -6z"/>
<path d="M1765 1656 c-74 -18 -82 -25 -198 -150 -76 -82 -109 -126 -116 -153
-8 -29 -28 -54 -76 -97 -63 -55 -73 -76 -37 -76 19 0 228 201 281 271 19 25
76 78 128 119 119 96 123 112 18 86z"/>
<path d="M463 690 c-18 -16 -33 -38 -33 -49 0 -18 84 -121 98 -121 4 0 20 23
35 50 l28 50 -43 50 c-24 27 -45 50 -48 50 -3 0 -20 -14 -37 -30z"/>
<path d="M353 600 c-18 -16 -33 -37 -33 -45 0 -44 92 -165 125 -165 7 0 27 24
44 52 l30 53 -39 38 c-22 20 -47 51 -55 67 -19 37 -31 37 -72 0z"/>
<path d="M242 512 c-40 -33 -40 -53 -2 -128 30 -61 53 -87 102 -119 l27 -17
34 54 34 53 -42 37 c-23 20 -55 62 -71 93 -16 30 -33 55 -39 55 -5 0 -25 -13
-43 -28z"/>
<path d="M148 435 c-34 -30 -37 -71 -8 -131 31 -63 128 -154 165 -154 6 0 20
18 32 39 l22 39 -39 26 c-43 28 -100 108 -121 169 -7 20 -15 37 -19 37 -3 0
-17 -12 -32 -25z"/>
</g>
</svg>
