<?xml version="1.0" standalone="no"?>
<!DOCTYPE svg PUBLIC "-//W3C//DTD SVG 20010904//EN"
 "http://www.w3.org/TR/2001/REC-SVG-20010904/DTD/svg10.dtd">
<svg version="1.0" xmlns="http://www.w3.org/2000/svg"
 width="256.000000pt" height="256.000000pt" viewBox="0 0 256.000000 256.000000"
 preserveAspectRatio="xMidYMid meet">
<metadata>
Created by potrace 1.16, written by Peter Selinger 2001-2019
</metadata>
<g transform="translate(0.000000,256.000000) scale(0.100000,-0.100000)"
fill="#f2f2f2" stroke="none">
<path d="M1725 2399 c-114 -12 -261 -45 -378 -85 -103 -35 -327 -140 -327
-152 0 -4 49 -56 109 -116 l109 -108 123 99 c133 108 298 228 422 308 42 28
77 53 77 58 0 8 -24 8 -135 -4z"/>
<path d="M797 2120 c-102 -55 -267 -222 -317 -321 l-39 -76 173 -172 172 -172
99 25 c181 46 273 139 316 318 l23 99 -169 169 c-94 94 -174 169 -180 169 -5
-1 -41 -18 -78 -39z"/>
<path d="M377 1468 c-99 -201 -162 -431 -174 -632 l-5 -101 90 133 c105 152
182 256 296 395 l79 98 -109 110 c-60 60 -111 109 -115 109 -3 0 -31 -51 -62
-112z"/>
<path d="M1214 1509 c-36 -52 -68 -84 -121 -121 -40 -28 -73 -53 -73 -57 0 -3
245 -251 543 -549 l544 -544 89 16 c49 9 98 18 110 21 18 4 23 19 39 111 l18
106 -544 544 c-299 299 -547 544 -550 544 -3 0 -28 -32 -55 -71z"/>
<path d="M824 915 l-59 -179 -190 -61 -190 -61 194 -65 195 -65 55 -165 c30
-90 56 -159 58 -154 3 6 30 84 61 174 l57 165 145 48 c80 26 152 51 160 54 9
4 -51 28 -139 58 -85 29 -158 59 -163 67 -5 8 -35 93 -67 189 l-58 175 -59
-180z"/>
</g>
</svg>
