<svg xmlns="http://www.w3.org/2000/svg" width="341.333" height="341.333" version="1.0" viewBox="0 0 256 256">
    <path fill="#e5e5e5" d="M172.5 16.1c-11.4 1.2-26.1 4.5-37.8 8.5-10.3 3.5-32.7 14-32.7 15.2 0 .4 4.9 5.6 10.9 11.6l10.9 10.8 12.3-9.9c13.3-10.8 29.8-22.8 42.2-30.8 4.2-2.8 7.7-5.3 7.7-5.8 0-.8-2.4-.8-13.5.4M79.7 44C69.5 49.5 53 66.2 48 76.1l-3.9 7.6 17.3 17.2 17.2 17.2 9.9-2.5c18.1-4.6 27.3-13.9 31.6-31.8l2.3-9.9L105.5 57c-9.4-9.4-17.4-16.9-18-16.9-.5.1-4.1 1.8-7.8 3.9m-42 65.2c-9.9 20.1-16.2 43.1-17.4 63.2l-.5 10.1 9-13.3C39.3 154 47 143.6 58.4 129.7l7.9-9.8-10.9-11c-6-6-11.1-10.9-11.5-10.9-.3 0-3.1 5.1-6.2 11.2m83.7-4.1c-3.6 5.2-6.8 8.4-12.1 12.1-4 2.8-7.3 5.3-7.3 5.7 0 .3 24.5 25.1 54.3 54.9l54.4 54.4 8.9-1.6c4.9-.9 9.8-1.8 11-2.1 1.8-.4 2.3-1.9 3.9-11.1l1.8-10.6-54.4-54.4C152 122.5 127.2 98 126.9 98s-2.8 3.2-5.5 7.1m-39 59.4-5.9 17.9-19 6.1-19 6.1 19.4 6.5 19.5 6.5 5.5 16.5c3 9 5.6 15.9 5.8 15.4.3-.6 3-8.4 6.1-17.4l5.7-16.5 14.5-4.8c8-2.6 15.2-5.1 16-5.4.9-.4-5.1-2.8-13.9-5.8-8.5-2.9-15.8-5.9-16.3-6.7s-3.5-9.3-6.7-18.9l-5.8-17.5z"/>
</svg>
