<?xml version="1.0" standalone="no"?>
<!DOCTYPE svg PUBLIC "-//W3C//DTD SVG 20010904//EN"
 "http://www.w3.org/TR/2001/REC-SVG-20010904/DTD/svg10.dtd">
<svg version="1.0" xmlns="http://www.w3.org/2000/svg"
 width="256.000000pt" height="256.000000pt" viewBox="0 0 256.000000 256.000000"
 preserveAspectRatio="xMidYMid meet">
<metadata>
Created by potrace 1.16, written by Peter Selinger 2001-2019
</metadata>
<g transform="translate(0.000000,256.000000) scale(0.100000,-0.100000)"
fill="#f2f2f2" stroke="none">
<path d="M857 1703 l-577 -578 422 -422 423 -423 578 577 577 578 -85 255 -85
256 -83 82 -82 82 -255 85 c-140 47 -255 85 -255 85 0 0 -260 -260 -578 -577z
m979 201 c73 -35 105 -133 66 -204 -23 -42 -84 -80 -131 -80 -47 0 -105 36
-130 80 -70 126 64 266 195 204z"/>
</g>
</svg>
