<?xml version="1.0" standalone="no"?>
<!DOCTYPE svg PUBLIC "-//W3C//DTD SVG 20010904//EN"
 "http://www.w3.org/TR/2001/REC-SVG-20010904/DTD/svg10.dtd">
<svg version="1.0" xmlns="http://www.w3.org/2000/svg"
 width="512.000000pt" height="512.000000pt" viewBox="0 0 512.000000 512.000000"
 preserveAspectRatio="xMidYMid meet">
<metadata>
Created by potrace 1.16, written by Peter Selinger 2001-2019
</metadata>
<g transform="translate(0.000000,512.000000) scale(0.100000,-0.100000)"
fill="#f2f2f2" stroke="none">
<path d="M469 4169 c-12 -7 -14 -80 -14 -441 l0 -433 24 -60 c33 -83 98 -180
165 -245 l56 -54 0 43 c0 37 -6 50 -51 99 -62 70 -116 178 -129 257 -5 33 -10
234 -10 446 0 403 -1 413 -41 388z"/>
<path d="M2113 3928 c-243 -242 -252 -253 -235 -271 16 -18 26 -9 270 237 140
141 266 263 280 271 27 14 27 14 -18 15 l-44 0 -253 -252z"/>
<path d="M2615 4170 c-3 -6 -2 -10 4 -10 5 0 125 -116 265 -257 244 -247 256
-257 273 -240 17 17 7 28 -228 263 -200 200 -252 247 -277 250 -17 2 -34 -1
-37 -6z"/>
<path d="M4536 4165 c-3 -9 -6 -189 -6 -399 0 -213 -4 -407 -10 -437 -14 -76
-70 -184 -129 -251 -45 -49 -51 -62 -51 -99 l0 -43 56 54 c70 68 134 165 165
250 23 63 24 75 26 395 3 399 -5 538 -28 543 -9 2 -19 -4 -23 -13z"/>
<path d="M997 3871 c-4 -167 -7 -453 -7 -634 0 -292 2 -328 15 -317 13 11 15
83 14 544 -1 661 -11 842 -22 407z"/>
<path d="M4028 4135 c-4 -22 -8 -299 -8 -616 0 -500 2 -578 15 -589 13 -11 15
43 14 481 -1 537 -9 791 -21 724z"/>
<path d="M122 4056 c89 -46 160 -93 228 -150 32 -27 57 -41 59 -34 7 21 -124
116 -236 172 -93 46 -134 56 -51 12z"/>
<path d="M4915 4067 c-118 -51 -285 -166 -285 -194 0 -17 -1 -18 85 53 59 49
114 84 204 130 74 38 72 45 -4 11z"/>
<path d="M550 3706 c0 -10 13 -40 28 -65 75 -122 131 -280 151 -425 6 -43 11
-184 11 -313 0 -235 0 -236 20 -218 19 17 20 31 20 229 0 283 -21 411 -91 577
-32 75 -87 172 -118 210 -18 21 -20 22 -21 5z"/>
<path d="M4452 3677 c-48 -69 -107 -190 -137 -282 -41 -126 -55 -251 -55 -483
0 -196 1 -210 20 -227 20 -18 20 -17 20 218 0 257 9 345 46 475 24 84 101 250
131 284 8 9 13 27 11 40 -3 21 -6 18 -36 -25z"/>
<path d="M1771 3570 c-32 -44 -38 -61 -43 -115 -2 -21 -7 -29 -18 -25 -8 2
-42 4 -75 4 -66 -1 -118 -22 -136 -55 -10 -19 -7 -68 7 -104 3 -7 -3 -16 -15
-20 -12 -3 -43 -24 -71 -46 -42 -33 -50 -45 -50 -72 0 -17 9 -45 20 -62 l19
-29 -33 -28 c-44 -36 -96 -115 -96 -144 0 -13 14 -40 32 -60 29 -32 30 -37 15
-46 -26 -14 -87 -142 -87 -182 0 -36 28 -68 72 -81 17 -6 18 -9 5 -23 -16 -19
-67 -164 -67 -192 0 -32 38 -67 85 -79 29 -7 45 -16 42 -24 -3 -7 -15 -53 -28
-104 -21 -87 -22 -92 -5 -118 22 -33 54 -45 122 -45 63 0 61 5 38 -116 -14
-75 -14 -86 1 -113 19 -38 51 -44 169 -33 l88 8 -6 -45 c-19 -138 -19 -145 4
-173 18 -24 29 -28 70 -28 72 0 200 29 247 56 47 27 96 84 140 162 l30 53 40
-48 c92 -111 103 -140 78 -205 -5 -13 5 -23 46 -44 67 -33 138 -35 198 -4 50
25 57 40 41 80 -11 26 -9 34 13 72 26 45 104 138 115 138 4 0 18 -21 32 -46
29 -57 100 -136 143 -163 35 -21 178 -51 245 -51 78 0 94 41 73 189 l-8 54
107 -7 c99 -6 108 -5 133 14 32 25 35 67 12 170 -8 36 -14 68 -15 71 0 4 34 9
76 11 118 6 133 36 93 188 -11 44 -18 84 -15 89 3 5 21 12 39 15 55 10 77 32
77 75 0 39 -26 124 -54 179 l-17 32 35 16 c32 16 56 49 56 77 0 23 -67 152
-89 171 l-21 19 32 27 c57 48 34 123 -64 211 l-29 26 21 36 c32 54 21 86 -47
136 -30 22 -60 41 -65 41 -6 0 -7 14 -3 38 18 87 0 113 -93 133 -40 8 -68 9
-94 2 -38 -10 -38 -10 -38 21 -1 45 -59 156 -83 156 -16 0 -89 -110 -98 -147
-10 -38 -16 -44 -49 -53 -42 -11 -118 -63 -127 -86 -7 -19 48 -78 87 -94 25
-10 27 -15 23 -49 -6 -46 9 -79 42 -87 16 -4 26 -15 30 -34 3 -15 17 -38 30
-50 21 -20 24 -29 18 -62 -4 -31 -1 -45 16 -68 26 -36 26 -35 1 -60 -24 -24
-26 -74 -5 -110 20 -34 19 -40 -7 -40 -56 -1 -82 -53 -62 -120 8 -25 14 -46
14 -47 0 -2 -25 -3 -55 -3 -80 0 -100 -22 -91 -101 l6 -59 -88 6 c-84 6 -90 6
-110 -17 -24 -25 -27 -47 -13 -97 5 -17 9 -32 8 -32 -2 0 -54 10 -117 23 -63
12 -137 22 -165 21 -62 -2 -219 -30 -244 -44 -18 -9 -19 -6 -14 50 5 50 3 64
-13 81 -18 20 -26 21 -112 15 -83 -5 -93 -4 -88 10 19 49 17 90 -4 117 -19 24
-28 27 -77 27 l-55 0 7 28 c19 76 18 90 -9 116 -14 14 -34 26 -46 26 -23 0
-25 15 -5 50 21 38 18 74 -9 99 l-25 23 27 40 c23 35 24 43 14 70 -10 28 -9
33 18 58 17 16 30 38 30 49 0 13 9 25 23 30 41 16 60 47 54 88 -6 36 -4 39 33
60 21 13 48 36 59 52 l21 29 -42 37 c-24 21 -63 45 -87 54 -39 14 -45 21 -58
63 -8 27 -31 65 -56 94 l-44 48 -32 -44z m1463 -150 c-1 -55 -6 -87 -18 -104
-31 -49 -142 -59 -180 -17 -13 14 -14 20 -4 28 24 19 88 35 116 28 27 -5 27
-5 24 34 -5 51 32 141 51 122 8 -8 12 -41 11 -91z m-1397 58 c9 -18 17 -54 17
-80 l0 -48 35 6 c41 6 106 -22 106 -46 0 -21 -68 -44 -110 -36 -19 4 -47 17
-61 29 -22 19 -27 34 -31 89 -6 70 1 118 17 118 5 0 17 -15 27 -32z m-121
-129 c13 -12 27 -37 30 -56 7 -38 14 -41 39 -13 10 11 20 18 23 15 3 -3 -3
-14 -13 -25 -24 -27 -15 -34 30 -21 49 13 60 7 80 -46 20 -52 16 -58 -47 -68
-47 -8 -55 -3 -69 46 -7 22 -16 38 -21 37 -14 -5 -60 -88 -49 -88 5 0 13 5 16
10 14 23 51 8 78 -31 15 -22 25 -44 23 -48 -12 -19 -84 -61 -97 -56 -8 3 -23
20 -33 37 -21 35 -25 31 -51 -43 l-15 -42 25 27 c24 26 26 27 53 11 15 -9 40
-27 55 -39 l28 -22 -36 -47 c-20 -26 -44 -47 -54 -47 -9 0 -32 11 -51 25 -33
24 -35 25 -42 6 -4 -11 -10 -48 -13 -83 l-6 -63 26 48 c19 35 31 47 49 47 26
0 126 -39 126 -49 0 -4 -12 -31 -27 -61 -24 -47 -32 -55 -60 -58 -17 -2 -45 4
-62 12 -48 26 -54 22 -47 -30 3 -26 11 -65 17 -88 l12 -41 19 45 c32 74 43 82
107 74 78 -9 104 -21 98 -42 -17 -56 -48 -127 -59 -134 -7 -5 -41 -6 -75 -3
-35 4 -63 4 -63 0 0 -10 67 -112 78 -119 6 -3 13 6 17 22 3 15 14 42 25 60
l20 32 89 0 c50 0 92 -4 96 -9 3 -5 -1 -29 -9 -53 -8 -24 -17 -58 -21 -75 -9
-43 -39 -63 -95 -63 l-45 -1 55 -50 c47 -43 56 -48 62 -32 4 10 14 35 22 55
20 52 48 65 150 73 l88 8 -5 -34 c-23 -157 -34 -179 -100 -202 l-37 -12 70
-53 71 -53 14 35 c8 20 15 47 15 62 0 35 25 86 50 102 19 12 163 41 204 42 15
0 17 -5 12 -27 -3 -16 -11 -62 -17 -103 -15 -95 -40 -123 -125 -140 -32 -7
-65 -15 -71 -19 -9 -4 10 -26 55 -64 56 -48 142 -142 174 -190 6 -8 18 0 40
28 17 22 74 82 126 132 60 59 89 95 81 98 -8 2 -36 9 -63 15 -68 15 -101 35
-114 67 -14 38 -36 192 -28 200 11 11 190 -26 216 -45 19 -14 30 -40 46 -101
12 -45 23 -83 25 -85 2 -3 35 19 73 47 l69 51 -41 17 c-22 10 -47 28 -55 41
-15 23 -50 178 -43 186 3 2 45 0 96 -4 108 -8 124 -18 149 -92 l18 -52 52 42
c28 23 51 45 51 50 0 4 -18 8 -39 8 -57 0 -85 30 -105 112 -9 37 -16 72 -16
78 0 6 34 10 89 10 84 0 91 -2 110 -25 11 -14 23 -39 26 -55 4 -17 10 -32 15
-35 9 -6 80 96 80 115 0 9 -15 10 -54 6 -32 -4 -63 -3 -74 3 -18 10 -62 111
-62 144 0 11 18 18 70 27 39 7 78 9 86 6 9 -3 25 -29 37 -56 11 -28 24 -50 28
-50 9 0 29 90 29 130 0 35 0 35 -47 15 -19 -8 -48 -15 -64 -15 -26 0 -32 7
-54 54 -14 30 -25 59 -25 64 0 13 104 55 127 50 9 -2 28 -21 41 -43 l24 -40
-6 74 c-4 41 -8 77 -11 79 -2 2 -19 -8 -38 -22 -19 -14 -43 -26 -53 -26 -17 0
-84 72 -84 90 0 6 62 58 86 73 7 4 24 -3 39 -15 17 -13 26 -16 22 -7 -3 8 -11
31 -18 52 -14 43 -22 46 -37 13 -19 -43 -43 -48 -90 -18 -23 15 -42 32 -42 37
0 6 11 27 25 48 27 38 60 48 83 25 19 -19 14 0 -10 43 -26 46 -36 46 -52 0
-15 -47 -33 -55 -85 -41 -41 11 -43 13 -37 43 3 17 13 42 22 55 16 24 24 25
88 5 13 -4 17 -1 13 8 -3 8 -8 23 -12 34 -6 18 -5 18 13 -2 26 -30 28 -29 42
11 23 70 79 95 164 73 26 -7 28 -11 23 -44 -3 -19 -13 -46 -22 -60 -19 -29
-78 -56 -106 -48 -10 3 -28 7 -38 10 -17 5 -14 -3 16 -55 20 -33 39 -60 44
-60 4 0 17 16 29 35 40 65 100 74 168 24 23 -17 42 -33 42 -36 0 -9 -51 -76
-68 -90 -26 -22 -84 -15 -126 13 -22 15 -37 21 -33 13 3 -8 17 -40 30 -72 13
-31 27 -60 30 -63 3 -4 20 5 37 19 39 33 89 43 126 25 15 -7 43 -34 61 -60
l34 -47 -53 -41 c-46 -37 -57 -41 -91 -37 -24 3 -51 16 -69 34 l-31 28 6 -25
c3 -14 9 -44 13 -68 5 -34 10 -42 23 -36 42 17 84 25 104 19 68 -19 79 -28
108 -92 16 -35 29 -66 29 -68 0 -11 -114 -55 -143 -55 -33 0 -92 32 -106 58
-13 23 -19 14 -26 -43 l-7 -50 69 0 c59 0 76 -4 110 -27 34 -22 45 -38 62 -89
11 -35 21 -71 21 -81 0 -21 -60 -40 -135 -42 -61 -1 -104 26 -145 90 l-27 44
-36 -58 -36 -57 65 -7 c129 -15 190 -67 218 -186 10 -44 16 -84 12 -91 -5 -7
-40 -11 -94 -11 -73 0 -93 4 -124 23 -49 30 -93 87 -113 148 -9 27 -19 49 -23
49 -8 0 -122 -112 -122 -121 0 -3 26 -12 58 -18 77 -17 167 -66 202 -111 22
-27 33 -59 46 -128 12 -63 15 -95 8 -102 -7 -7 -43 -8 -106 -2 -73 7 -103 14
-127 31 -43 31 -97 103 -117 159 -10 26 -23 62 -30 80 l-13 33 -75 -62 c-42
-34 -73 -65 -71 -69 3 -5 23 -11 44 -15 56 -9 160 -81 197 -136 32 -48 38 -72
50 -192 l7 -67 -29 0 c-68 0 -190 31 -228 58 -54 37 -112 125 -132 200 -9 34
-20 62 -24 62 -16 0 -161 -163 -196 -221 -29 -49 -35 -67 -31 -95 7 -41 -11
-54 -73 -54 -61 0 -82 14 -70 46 14 36 15 34 -38 115 -44 68 -174 209 -192
209 -4 0 -10 -19 -14 -42 -10 -62 -63 -153 -117 -202 -42 -38 -58 -45 -131
-60 -110 -21 -148 -21 -148 2 1 44 30 194 44 220 18 36 98 107 146 132 19 10
55 23 78 30 l43 11 -78 64 -78 64 -12 -27 c-6 -15 -19 -49 -28 -75 -20 -57
-65 -118 -117 -160 -32 -26 -49 -31 -130 -38 -51 -5 -99 -7 -105 -4 -14 5 -12
19 14 142 13 64 20 77 58 112 56 51 106 76 183 91 35 7 61 16 60 20 -2 4 -31
33 -65 64 l-62 57 -16 -37 c-8 -20 -15 -40 -15 -44 0 -17 -62 -91 -97 -114
-33 -23 -48 -26 -123 -26 -47 0 -91 4 -98 9 -19 11 22 167 51 199 35 38 112
72 177 79 34 3 59 9 58 12 -2 3 -17 30 -33 58 -29 51 -45 66 -45 41 0 -25 -53
-87 -93 -108 -40 -21 -47 -22 -113 -11 -101 17 -100 16 -74 97 12 38 32 79 43
91 30 34 97 56 156 52 28 -2 51 -3 51 -2 0 1 -5 25 -11 53 l-11 52 -27 -25
c-35 -33 -64 -47 -98 -47 -34 0 -133 45 -133 60 0 24 53 122 73 135 37 23 89
28 137 11 24 -8 45 -14 46 -13 1 1 4 30 8 65 l7 62 -24 -24 c-14 -14 -41 -28
-62 -32 -31 -6 -43 -2 -91 31 -30 21 -54 42 -54 48 0 5 16 31 36 57 53 69 111
76 182 22 18 -14 34 -23 35 -21 11 16 56 133 53 137 -3 2 -17 -5 -32 -17 -17
-14 -41 -21 -69 -21 -44 0 -63 14 -101 74 l-18 29 39 33 c30 26 47 34 78 34
35 0 46 -6 83 -47 24 -26 45 -45 47 -42 20 28 67 112 64 115 -2 2 -17 0 -35
-5 -63 -19 -115 11 -137 80 -10 28 -15 52 -14 54 2 2 20 8 39 14 48 14 98 6
126 -20z m884 -1479 c16 -7 30 -13 30 -14 0 -1 -26 -29 -59 -64 l-59 -63 -60
63 -61 63 40 19 c21 10 48 31 60 47 l20 29 29 -34 c17 -18 43 -39 60 -46z"/>
<path d="M3903 2912 c13 -41 32 -72 58 -98 39 -38 39 -38 59 -18 20 19 20 20
-59 98 l-78 78 20 -60z"/>
<path d="M1057 2872 c-58 -58 -58 -58 -37 -77 20 -18 21 -18 54 14 23 22 36
46 40 73 4 22 5 42 3 44 -2 2 -29 -23 -60 -54z"/>
<path d="M840 2840 c0 -41 5 -50 63 -111 83 -87 168 -193 201 -251 25 -42 30
-46 47 -35 27 17 24 34 -16 74 -23 23 -41 33 -51 29 -15 -6 -16 0 -11 47 l5
54 -119 119 -119 119 0 -45z"/>
<path d="M4071 2755 c-112 -116 -123 -129 -117 -156 4 -21 2 -29 -9 -29 -22 0
-75 -72 -75 -101 0 -28 30 -63 37 -43 20 58 120 192 230 305 61 63 64 68 61
109 l-3 42 -124 -127z"/>
<path d="M782 2596 c-100 -102 -127 -154 -126 -246 0 -99 26 -138 238 -349
l182 -182 19 21 c19 21 18 22 -167 208 -102 103 -194 203 -203 222 -23 44 -23
126 0 170 9 19 54 72 98 117 l82 83 -21 20 -20 20 -82 -84z"/>
<path d="M4155 2660 c-19 -21 -18 -21 62 -103 45 -45 89 -98 99 -117 23 -45
23 -125 0 -170 -10 -19 -102 -119 -204 -222 l-187 -188 21 -20 20 -20 190 192
c111 113 198 210 209 233 14 27 20 62 20 110 0 91 -29 144 -134 249 l-77 77
-19 -21z"/>
<path d="M990 2347 l0 -92 100 -100 c55 -55 100 -94 100 -88 0 7 -15 27 -34
45 -18 18 -44 51 -58 73 -14 22 -37 51 -52 64 -24 22 -26 31 -26 102 0 59 -3
78 -15 83 -13 4 -15 -9 -15 -87z"/>
<path d="M4027 2429 c-14 -8 -17 -24 -17 -83 0 -72 -1 -74 -42 -119 -89 -96
-128 -148 -128 -170 1 -17 24 2 110 92 l109 114 -6 86 c-3 47 -6 87 -7 88 -1
1 -9 -3 -19 -8z"/>
<path d="M735 2010 c18 -122 65 -230 134 -310 l39 -45 23 22 22 22 -41 45
c-47 51 -83 118 -106 197 -10 35 -28 67 -47 85 l-31 29 7 -45z"/>
<path d="M4277 2023 c-15 -16 -34 -54 -43 -83 -23 -79 -59 -145 -106 -196
l-41 -45 22 -22 23 -22 39 45 c54 61 106 170 125 259 8 40 13 78 12 83 -2 5
-16 -4 -31 -19z"/>
<path d="M1122 1739 l-142 -141 0 -684 0 -684 25 0 25 0 0 678 1 677 129 135
c71 74 128 139 127 144 -8 26 -34 6 -165 -125z"/>
<path d="M3763 1854 c-4 -11 32 -54 122 -144 l127 -127 -2 -599 c-3 -821 -5
-754 24 -754 21 0 24 6 30 53 3 28 3 338 0 687 l-6 635 -132 133 c-72 72 -137
132 -144 132 -7 0 -15 -7 -19 -16z"/>
<path d="M1250 1685 c-6 -8 -10 -18 -8 -23 1 -5 253 -262 558 -571 608 -616
605 -613 718 -615 114 -2 111 -4 722 615 305 309 556 567 558 574 2 6 -4 17
-12 24 -12 10 -22 4 -58 -31 -25 -24 -54 -59 -67 -78 -12 -19 -43 -54 -69 -77
-26 -23 -251 -243 -499 -489 -249 -247 -467 -456 -485 -466 -41 -22 -117 -23
-166 -3 -24 11 -151 128 -372 346 -184 182 -344 338 -355 348 -11 9 -59 60
-108 113 -56 62 -97 99 -115 103 -27 6 -142 125 -142 147 0 16 -48 76 -69 88
-14 7 -22 6 -31 -5z"/>
<path d="M1186 1543 c-4 -10 3 -26 21 -45 31 -32 38 -34 47 -11 4 10 -3 26
-21 45 -31 32 -38 34 -47 11z"/>
<path d="M3807 1532 c-18 -19 -25 -35 -21 -45 9 -23 16 -21 47 11 18 19 25 35
21 45 -9 23 -16 21 -47 -11z"/>
<path d="M1120 1491 c0 -52 -18 -32 406 -461 149 -152 280 -291 290 -310 17
-30 20 -64 24 -260 l5 -225 31 -3 c28 -3 32 0 38 29 3 17 6 114 6 214 0 280
38 219 -417 675 l-383 385 0 -44z"/>
<path d="M3534 1148 c-451 -453 -414 -393 -414 -680 0 -96 3 -190 6 -207 6
-29 10 -32 38 -29 l31 3 5 225 c4 196 7 230 24 260 10 19 141 158 290 310 426
432 408 411 404 459 l-3 42 -381 -383z"/>
<path d="M1120 1284 c1 -36 2 -38 15 -20 19 25 19 31 0 46 -13 11 -15 7 -15
-26z"/>
<path d="M3902 1307 c-11 -13 -11 -20 0 -39 l13 -23 3 23 c2 12 2 30 0 39 -3
15 -4 15 -16 0z"/>
<path d="M723 948 c-148 -149 -233 -256 -233 -295 0 -8 14 -13 39 -13 35 0 44
5 67 38 15 20 90 100 166 178 l138 141 0 56 c0 31 -3 57 -8 57 -4 0 -80 -73
-169 -162z"/>
<path d="M4150 1050 l0 -65 121 -120 c66 -66 139 -144 160 -172 36 -48 43 -53
79 -53 26 0 40 5 40 13 0 40 -85 147 -236 298 l-164 164 0 -65z"/>
</g>
</svg>
