<svg xmlns="http://www.w3.org/2000/svg" width="682.667" height="682.667" version="1.0" viewBox="0 0 512 512">
    <g fill="#e5e5e5">
        <path d="M47.8 129.7c-.3 46.9-.3 49.2 1.2 55.3 2.2 9.6 7.5 19 15.5 27.5l7.4 8 .1-4.9c0-4.5-.4-5.2-5.3-10.6-5.8-6.2-9.8-13.7-11.5-21.5-1.5-6.9-2.1-21.8-2.2-56.8V97h-5zm189.6-31.1c-1.7.8-32.7 31.2-68.8 67.5-64.3 64.6-65.7 66.1-64 68 1.8 2 2.4 1.3 34.1-30.3 28-27.9 32.9-33.3 36.5-39.7 5.1-9.3 15.8-20.1 25.4-25.6 5.3-3 11.1-8.2 24.9-22.3 9.9-10.1 17.8-18.5 17.6-18.8-.8-.7-2.5-.4-5.7 1.2m26.6-1.2s8.2 8.5 18.3 18.8c12.4 12.7 20.4 20 25.2 23.1 8.8 5.6 20.2 17 24.9 25 2.6 4.6 12.3 14.9 36.4 39 30.7 30.7 32.9 32.7 34.7 31.3 2.5-1.8 6.6 2.7-66-70.1-68.1-68.2-66.5-66.7-70.4-67-1.7-.1-3.1-.2-3.1-.1m190.6 41.2c-.5 28.4-1.1 42.6-2 46-2 7.7-6.4 15.3-12.2 21.4-5.1 5.3-5.4 6-5.4 10.6l.1 4.9 7.4-8c4.1-4.4 9-10.9 10.9-14.5 6.5-12.4 6.6-13.3 6.6-55.9 0-42-.3-46-3-45.8-1.6.1-1.7 3.3-2.4 41.3m-352.5.9c-.1 23.1-.4 51.4-.8 63-.6 19.5-.5 20.9 1 19.6 1.6-1.2 1.7-6.4 1.6-58 0-31.1-.4-58.9-.9-61.6-.4-2.9-.8 12.8-.9 37m301.6 19.2c-.6 60.7-.6 60.8 1.5 62.8l2 2-.6-44.5c-.3-24.5-.6-52.7-.6-62.8 0-10-.4-18.2-.8-18.2-.5 0-1.2 27.3-1.5 60.7M17 110.1c4.1 2.2 11.9 7.4 17.3 11.5 6.1 4.7 9.7 6.9 9.7 5.9 0-2.1-14.2-12.4-24-17.4-10.5-5.3-12.8-5.3-3 0m470 .5c-10.4 5.6-23 14.9-23 17 0 1.2 1 .8 3.8-1.5 7.2-6.1 15.8-11.9 23.2-16 4.1-2.2 6.8-4.1 6-4.1s-5.3 2.1-10 4.6m-249 24c-22.8 4.3-36.6 10.9-47.8 22.8-8.9 9.4-15.2 26.3-15.2 40.5 0 8.1-.1 8.1 27.8 8.1 23.8 0 24.1 0 25.6-2.2.9-1.2 1.6-3.8 1.6-5.7 0-5.5 3.5-11.6 8.7-15 5.5-3.6 9.2-4.5 17.6-3.9 16.3 1 24.6 13.2 21.9 32.1-1.9 13.4-8.9 22.9-28.7 39.1-12.1 10-18.6 17.2-22 24.1-5 10.2-7.4 31.5-3.9 34.9 1.3 1.4 5.1 1.6 25.5 1.6 28.6 0 27.3.5 28.1-11.6.9-13.2 4.2-18.2 18.8-28.9 24.9-18.3 37.9-41.1 38-66.3 0-28.6-15.4-52.8-40.3-62.9-12.3-5-20.2-6.4-37.2-6.8-8.8-.2-17.1-.1-18.5.1m40.4 10.8c24 6.1 39.8 21 45.2 42.6 2.3 9.1 1.5 29.3-1.4 36.9-5.1 13-16.5 27.4-29.4 37-17.1 12.8-21.7 19.2-23.9 32.9l-1.2 7.2-18.6-.2-18.6-.3.3-4c.5-7.2 2.4-14.9 4.8-19.6 2.7-5.4 11-14.1 21.3-22.3 19.1-15.2 27.5-27.4 30-43.1 2-12.9-1.2-24.9-8.8-32.8-4.2-4.5-7.7-6.5-14.6-8.3-18.6-5-37.4 4.7-41.7 21.3l-1 4.3H184v-3c0-17 12-34.6 29.2-42.9 12.8-6.2 21.5-7.9 39.9-8 13.4-.1 17 .2 25.3 2.3"/>
        <path d="M57 142.8c0 1.3 1.8 5.3 3.9 8.9 8.2 13.5 13.3 29.1 15 45.6.5 5.1.7 18.3.4 29.4-.5 21-.2 23.1 3.3 17.9 1.3-2.2 1.5-5.3 1-23.8-.8-28-1.5-33.6-6.2-47.8-4-12.2-17.4-35.4-17.4-30.2m389.8 3.4c-8.1 12.2-13.9 26.2-16.8 40.3-2.7 13-3.7 54.7-1.5 58.1.9 1.3 1.9 2.4 2.3 2.4.5 0 .8-11.6.8-25.8-.1-17.3.3-27.8 1.2-32.2 2.8-13.9 8.7-28.9 15.9-40.3 1.3-2.1 2.3-4.8 2.1-6-.2-1.7-1-1-4 3.5M86 229.6c0 4.8.2 5.2 6.1 10.9 13.7 13.5 22.1 26 28.3 42.1 3 7.5 5 11 8.4 14.6 2.5 2.6 4.7 4.6 4.9 4.4.2-.1-.8-4.7-2.2-10.2-5.3-20.4-16.6-38.3-36.9-58.4l-8.6-8.5zm324.9 6.1c-12.6 12.9-20.5 23.1-25.6 32.8-4.2 8.2-9.5 22.9-10.7 30l-.7 4 4.8-4.7c3.4-3.3 5.3-6.2 6.3-9.5 2.4-8.4 11.9-26.1 18-33.5 3.2-4 8.8-10.2 12.4-13.8 6.1-5.9 6.6-6.8 6.6-10.7 0-2.4-.4-4.3-.8-4.3-.5 0-5.1 4.4-10.3 9.7M80.3 255.2c-9.6 9.7-12.2 14.7-12.3 23.4 0 9.8 2.5 13.4 23.5 34.4 17.4 17.4 18.6 18.4 20.2 16.7 1.6-1.6.6-2.7-16.5-20.1-20.6-20.8-22.8-24.2-21.9-33.2.7-6.5 2.2-9 11.5-18.6 6.5-6.6 7.4-7.9 6.2-9.2-.7-.9-1.5-1.6-1.9-1.6s-4.3 3.7-8.8 8.2m336.7-6.7c-1 1.2-.2 2.6 4.7 8 3.2 3.6 6.1 6.5 6.5 6.5s2 2.1 3.5 4.7c2.2 3.9 2.8 6 2.8 10.8-.1 3.3-.7 7.2-1.5 8.7-.9 1.5-8.1 9.4-16.1 17.5s-16.3 16.7-18.4 19.1c-3.6 4-3.7 4.4-2.2 6 1.6 1.5 2.9.5 20.2-16.8 21-21 23.5-24.6 23.5-34.4-.1-8.7-2.7-13.7-12.3-23.4-4.5-4.5-8.4-8.2-8.8-8.2s-1.2.7-1.9 1.5"/>
        <path d="M101 278.7v8.8l4.6 5c2.6 2.7 9.8 10.3 16.2 16.7l11.5 11.7-16.1 15.8-16.1 15.8-.7 58.5c-.8 64.3-.3 78 2.5 78s3.1-8.2 2.4-73.9l-.6-59.7 17.1-17.4 17.1-17.5-17-17-16.9-17v-7.1c0-6.5-1-9.4-3.2-9.4-.4 0-.8 3.9-.8 8.7m303.2-7.5c-.7.7-1.2 4.1-1.2 8.2v7.1l-17.2 17.2-17.3 17.3 16.8 16.8 16.7 16.7.2 67 .3 67h5V353l-16.3-16.3-16.2-16.2 16-16 16-16v-9.2c0-9.2-.4-10.5-2.8-8.1M76 311.6c0 8.8 6.3 23.9 13.2 31.8 4.3 4.8 4.3 4.8 6.2 2.8 1.8-2.1 1.7-2.2-2.7-7.9-4.9-6.2-9.1-14.8-10.2-20.6-.4-1.9-2-4.8-3.6-6.3l-2.9-2.8zm352.7.2c-1.5 1.5-3 4.3-3.3 6.2-1 5.6-6 15.3-10.4 20.2-4.6 5.2-4.7 5.8-2.1 8.2 1.8 1.6 2 1.5 5.4-2.6 7.9-9.8 11.9-18.7 13.2-29.2.4-3.1.5-5.6.3-5.6s-1.6 1.3-3.1 2.8m-206.1 18.4c-1.3 1.9-1.6 5.7-1.6 21.8s.3 19.9 1.6 21.8c1.5 2.2 1.8 2.2 26 2.2 15 0 25.3-.4 26.5-1 1.8-1 1.9-2.3 1.9-23s-.1-22-1.9-23c-1.2-.6-11.5-1-26.5-1-24.2 0-24.5 0-26 2.2M268 352v15h-38v-30h38z"/>
        <path d="M126.9 345.6c-1.4 1.7-7.2-4.5 74.6 78.2 39.7 40 41.7 41.7 52.5 41.7 10.5 0 13.7-2.4 43.5-32.8 14.7-14.9 39.8-40.4 55.8-56.4 27.7-27.8 29.1-29.4 27.4-31-1.6-1.7-4.5 1-58.5 54.9-31.2 31.1-58.1 57.3-59.9 58.2-4.4 2.2-12.5 2-17.1-.3-2-1.1-28.9-27.2-59.7-58-30.8-30.9-56.3-56.1-56.6-56.1-.4 0-1.2.7-2 1.6m-5.2 12c-1.5 1.5-.6 4.1 2.2 6.8l2.9 2.8.7-2.2c.5-1.7 0-3-2.2-5.2-1.6-1.6-3.2-2.5-3.6-2.2m260.9 2.3c-2.1 2.2-2.6 3.5-2.1 5.1.7 2.2.7 2.2 3.6-.6 2.8-2.7 3.8-5.8 2.1-6.8-.5-.3-2.1.8-3.6 2.3M114 364c0 5.1-1.8 3 40.6 46.1 15.7 16 28.1 29.3 29.3 31.7 1.9 3.8 2.1 5.8 2.1 24.1 0 11 .3 20.6.6 21.5.8 2.1 6 2.1 6.8 0 .3-.9.6-10.2.6-20.8 0-29.5 4-23-41.6-68.5L114 359.7zm241.3 34.2c-36.3 36.5-38.2 38.6-39.7 43.7-1.2 4.2-1.6 10.2-1.6 26.3V489h3.4c3 0 3.4-.4 4-3.1.3-1.7.6-11.4.6-21.4 0-14.3.3-19.1 1.6-22 1-2.5 13.1-15.5 36-38.7l34.4-35v-4.4c0-2.4-.1-4.4-.3-4.4-.1 0-17.4 17.2-38.4 38.2M114 385.1c0 4 .1 4.1 1.5 2.3 1.9-2.5 1.9-3.9 0-5.4-1.3-1.1-1.5-.7-1.5 3.1m277.7-2.3c-1.4 1.6-1.4 1.9.3 4.2l2 2.5v-4.3c0-2.3-.2-4.2-.3-4.2-.2 0-1.1.8-2 1.8M74.8 418.7c-15.3 15.4-22.8 24.7-22.8 28 0 .9 1.4 1.3 4.3 1.3 3.6 0 4.5-.4 5.9-2.8.9-1.5 8-9.3 15.7-17.3L92 413.5v-5.8c0-3.1-.1-5.7-.3-5.7-.1 0-7.7 7.5-16.9 16.7M416 407.6v6l14.3 14.8c7.8 8.2 14.9 15.9 15.7 17.2 1.2 1.9 2.3 2.4 5.7 2.4 3 0 4.3-.4 4.3-1.4 0-3.3-9-14.2-23.9-29.1l-16.1-16z"/>
    </g>
</svg>
