<svg xmlns="http://www.w3.org/2000/svg" width="682.667" height="682.667" version="1.0" viewBox="0 0 512 512">
    <g fill="#e5e5e5">
        <path d="M47.9 104.2c0 4-.2 21.7-.5 39.3-.4 25.7-.2 33.5 1 39.7 2.2 11.3 6.7 19.7 15.8 29.2l7.7 8.1.1-4.3c0-3.9-.6-5-5.1-10-6.5-7.3-11.7-17.9-12.9-26.2-.5-3.6-1-23.7-1-44.8V97h-2.5c-2.4 0-2.5.2-2.6 7.2m190.6-6.5c-1.2.2-23.6 21.9-50 48.3l-47.9 47.9 2.9 1.1c2.9 1.1 3.2.9 15.9-12.2 7.2-7.3 28.9-29.3 48.3-48.8 19.4-19.6 35.3-35.9 35.3-36.3 0-.7-1-.7-4.5 0m24 .3c1.1.4 3.6 2.3 5.5 4.3 1.9 1.9 23.7 23.7 48.3 48.5 43.2 43.4 44.9 45.1 47.3 44 2.5-1.2 1.2-2.5-45.8-49.5L269.5 97l-4.5.1c-3.4 0-4 .2-2.5.9m193.3-.3c-1.5.4-1.7 4.1-2 42.6-.4 37.9-.6 42.7-2.2 47.1-2.9 7.5-6.4 13.2-11.7 19-4.3 4.8-4.9 5.9-4.9 9.7l.1 4.4 7.7-8.1c8-8.4 11.8-14.4 14.8-23.5 1.6-4.6 1.8-9.5 2-34.9.2-31.4-.5-57.1-1.5-56.9-.3.1-1.4.3-2.3.6m-354 29.3c-1.2 46.2-1.1 56 .7 56 1.3 0 1.5-4.1 1.4-31.8-.1-17.4-.4-36.7-.8-42.7-.5-9.2-.7-6.1-1.3 18.5m302-19.5c-.5 5.5-.8 24.7-.8 42.7 0 28.5.2 32.8 1.5 32.8s1.5-4.2 1.4-32.3c-.1-17.7-.4-36.9-.8-42.7l-.6-10.5zm93.2-1.8c-12.2 4.5-33 18.3-33 22.1 0 .7 2.6-.9 5.8-3.6 7.5-6.4 12.9-10 22.7-15 7.1-3.7 8.9-5.1 4.5-3.5M12.8 108c1.8 1.1 3.5 2 3.8 2 1.3 0 15.4 9.7 20.7 14.2 3.4 3 5.7 4.4 5.7 3.5 0-3-11.1-11.3-23.7-17.6-8.6-4.3-12-5.4-6.5-2.1M242 131.9c-10.5 2.3-17.2 10.7-15.5 19.4.6 2.8 5.1 14.5 9.1 23.4 9.5 21.2 11.8 24.3 17.7 24.3 4.7 0 8.5-5.1 15.1-20.1 3.2-7.4 7-15.8 8.2-18.7 3.5-7.7 3.4-16.9-.2-21.2-4.6-5.4-9.5-7.2-20.8-7.6-5.6-.2-11.7 0-13.6.5m20.2 7.6c5.3.7 9.8 4.8 9.8 9 0 1.4-2.2 7.5-4.9 13.7-12.3 28.5-13.1 30.2-15 28.3-.8-.8-5.1-10-13.1-28-3.7-8.5-5-12.1-5-14.5 0-4 4.8-7.7 10.8-8.5 2.6-.3 5.4-.8 6.2-1 .8-.1 2.6-.1 4 0 1.4.2 4.6.6 7.2 1"/>
        <path d="M57 143.8c0 1.3.9 3.6 2 5.2 3.9 5.5 11 21.7 13.6 31 2.4 8.8 2.7 11.3 3.1 35.7.5 24.9.6 26.3 2.4 26.3s1.9-1.1 1.9-20c0-22.5-1.5-35.2-5.6-47.5-2.9-8.8-11.2-25.5-14.9-30.1-2.4-2.8-2.4-2.9-2.5-.6m388.8 3.4c-5.3 8-9.5 16.7-12.8 26.6-4.6 13.7-6 25-6 47.9 0 19.2.1 20.3 1.9 20.3s1.9-1.4 2.4-25.8c.4-20.8.8-27.1 2.4-33.2 2.7-10.7 6.6-20.3 11.8-29.5 5.6-9.8 5.9-14.7.3-6.3"/>
        <path d="M201 155.1c-9.5 5.8-33.2 28.5-43.9 42.1-2.9 3.8-5.6 6.8-6 6.8-1 0-6.9-1.9-9.6-3-6.6-2.8-36.8-12.2-40.7-12.7-6.3-.8-9.8 1.4-9.8 6 0 4.9 5.6 19.7 8.7 23 4.2 4.4 12.8 8.3 24.9 11.2 6 1.5 11.1 2.9 11.3 3 .1.2-.9 4-2.4 8.5l-2.7 8.1-28.7-.3-28.8-.3-6.8 3.5c-6.2 3.2-7.4 4.3-13.3 12.9-5 7.2-6.5 10.2-6.6 13.1-.2 7.9 5 9.7 23.8 8.1 34.6-2.8 55.5-4.2 59.1-3.9l4 .3 3.7 9c2.1 4.9 3.7 9.3 3.8 9.6 0 .4-6.9 4.1-15.3 8.2-18.3 9-21.7 11.5-21.7 16.2 0 1.9.7 4.1 1.6 5 2.3 2.3 8.4 5.2 13.8 6.6 6.5 1.6 11.6.1 25.3-7.7l11.4-6.5 2.2 2.8c9.6 12.2 21.7 23.8 41.7 40 6.3 5.1 15.3 12.4 19.9 16.2 11.2 9.3 15.5 9.8 18.6 2.4 1.3-3.2 1.3-5.6 0-22.2-.9-10.7-2.3-20.5-3.2-23.1-2.8-7.8-7.9-14.4-16.6-21.2-15.2-12.1-27.8-27.4-32.7-39.8-2.5-6.4-3.6-19.7-2.2-25.5 4-15.7 12.6-27.9 32.4-46.2 11.5-10.5 13.8-19.8 8.8-34.8-3-9.3-5.6-13.8-9-15.8-3.9-2.4-10.7-2.2-15 .4m11.4 6.8c2.2 2.4 7.6 17.6 7.6 21.4 0 6.3-3.7 12.1-12.8 19.7-5.2 4.3-9 8.4-17.6 19.1-3.2 3.9-9.7 15.9-11.6 21.4-8.7 24.9 2.4 51.2 32 75.7 4.7 3.9 9.8 8.5 11.4 10.2 3.8 4.2 7.6 12.3 7.6 16.6 0 1.9.4 5.1.9 7 1.4 5.4 2.4 27.3 1.3 26.9-1.2-.5-28.4-22.8-39.1-32.1-4.3-3.6-9.2-7.9-11-9.5-1.8-1.5-7.4-7.5-12.3-13.3-5-5.8-9.9-10.9-10.8-11.3-1.3-.7-5 1-14.1 6.2-16.3 9.4-18.6 10.1-25.6 7.5-3-1-5.5-2.4-5.6-2.9 0-.6 8.1-5.1 18.2-10 13-6.4 18.3-9.6 18.7-11 .7-2.8-9-26.6-11.8-28.9-2.7-2.1-2.2-2.1-51.1 1.5-18.7 1.4-31.1 1.9-31.7 1.3-.5-.5 1.3-4.2 4.5-9 4.4-6.6 6.4-8.6 10.2-10.5 4.7-2.4 5.3-2.4 35.5-2.4 19.2 0 31-.4 31.6-1 .4-.6 2.1-5.1 3.6-10 1.5-5 3.2-10 3.7-11.3 2.2-5.6 0-8.5-7.6-9.7-2.2-.4-8.9-2-14.8-3.7-9.5-2.7-11.4-3.6-15.3-7.4-2.4-2.4-4.4-5.2-4.4-6.2 0-1.1-.7-3.8-1.5-6.1l-1.5-4.3 3.3.7c1.7.4 12.4 3.8 23.7 7.7s22.4 7.2 24.6 7.5l4.2.5 9.5-11.4c14-16.7 33.4-35.1 41.4-39.3 3.7-1.9 4.6-1.9 6.7.4"/>
        <path d="M113.6 268c.7.7 2.4.7 5 .1l3.9-.9-4.9-.1c-3.4-.1-4.7.2-4 .9m-41.7 1.9c-2.4 2-2.4 2-.3 2.1 1.2 0 2.5-.7 2.8-1.6 1-2.5.1-2.7-2.5-.5M288 156.7c-2.4 2.4-4.3 5.8-5.4 9.3-.9 3-2.1 6.3-2.7 7.2-.5 1-.9 5.3-.9 9.6 0 10.7 1.6 13.6 14.7 26.2 20.9 20.2 29.3 35 29.3 51.5 0 12.2-4.5 22.8-15.4 36.2-3.9 4.8-10.5 11.5-14.6 15-22.7 19.1-23.8 21.4-26 54.6-.9 12.6-.8 15.2.5 17.7 3.5 6.8 7.7 6 18.7-3.3 4.6-3.8 13.7-11.3 20.3-16.5s19.2-16.8 28.1-25.7l16.1-16.2 5.9 3.5c14.3 8.4 19.3 10.5 25.8 10.5 9.8.1 20.6-5.9 20.6-11.3 0-4.4-3.7-7.2-21.8-16.2-18.4-9.3-17.2-7.2-11.8-19.8l3.2-7.5 11 .2c6 .1 23.1 1 37.9 2.1 14.9 1.1 28.4 1.8 30 1.5 9.4-1.5 10.4-8.1 2.9-18.9-8.1-11.7-8.5-12.1-13.3-14.7-7.7-4.1-15.7-4.9-42.8-4.1l-24.3.7v-2.1c0-1.2-.9-4.9-2.1-8.3-1.2-3.3-1.9-6.2-1.8-6.3.2-.1 3.1-1 6.4-2 21.5-6 25.4-7.6 29.1-11.9 4-4.6 9.4-18.1 9.4-23.4 0-4.6-3.5-6.8-9.8-6-2.6.3-12.8 3.3-22.7 6.7-25.8 8.8-28.8 9.6-29.3 8.1-1.5-4.6-25.5-29.9-39.2-41.3-8.4-7.1-11.8-8.8-17.6-8.8-4 0-5.1.5-8.4 3.7m15.1 6.4c10.6 7.7 28.8 25.3 37.8 36.9 8.5 10.9 9.7 12 12.7 12 1.5 0 13.4-3.6 26.5-8 13-4.4 24.2-8 24.9-8 3.2 0-2.5 15-7 18.2-2.2 1.6-16.2 6.1-31 10-5.1 1.3-5.5 1.7-5.8 4.6-.2 1.7.2 4 .8 5.1.6 1.2 2.2 6 3.6 10.8s3 9.3 3.5 10c.8.9 7.2 1 27.3.6 31.6-.7 37.8.1 43.8 5.5 2.2 2 4.6 4.9 5.5 6.6s2.7 4.4 4 6c1.6 1.9 2.1 3.2 1.4 3.9-.6.6-11.2.2-31.3-1.3-48.3-3.5-50-3.6-52.1-1.3-.9 1.1-4 7.5-6.8 14.3-5.4 13.2-5.7 16.4-1.6 17.9 4.1 1.6 33.1 16.1 34.1 17.1 1.1 1.1-6.6 4.9-10 5-4.8 0-18.7-6.6-29.6-14.1-4-2.8-6.2-2.3-9.4 1.8-5.6 7.7-27.3 28.8-39.4 38.6-6.9 5.5-16.4 13.4-21.3 17.5-4.8 4.1-9 7.2-9.3 6.9-1-.9 1.5-29.4 3.2-36.9 1.9-8.2 5.3-13.1 13.6-19.3 3.5-2.6 10.1-8.6 14.8-13.4 13.8-13.9 21-26 23.6-39.6 4.3-21.9-3.9-40.6-28.6-65-6.1-6.1-11.8-12.2-12.6-13.7-2.4-4.6-1.8-13.9 1.6-22.8 2.9-7.3 3.9-8.5 7.6-8.9.6 0 3.1 1.3 5.5 3"/>
        <path d="M388.4 268.1c2.6.6 4.3.6 5-.1q1.05-1.05-3.9-.9l-5 .1zm44.6 1.8c0 .5.5 1.3 1 1.6.6.3 1 .2 1-.4 0-.5-.4-1.3-1-1.6-.5-.3-1-.2-1 .4M86 230.1c0 3.9.5 5 3.9 8.3s4.3 3.7 8 3.4l4.2-.3-8.1-8-8-8zm326.5 3.9-8 8h4.6c3.9 0 5-.5 8.3-3.9s3.7-4.3 3.4-8l-.3-4.2zm-12 1c-.3.5-.2 1 .4 1 .5 0 1.3-.5 1.6-1 .3-.6.2-1-.4-1-.5 0-1.3.4-1.6 1m-151.9 7.7c-4.5 1.2-27.3 13.6-29.3 15.9-2.8 3.1-2.9 6.3-.4 9.6 3.1 3.9 29.3 16.8 34.1 16.8 4.9 0 30.9-12.8 34-16.7 4.9-6.2 1.9-10-15.1-18.8-12.3-6.3-18.6-8.2-23.3-6.8m19.3 13.6c6.8 3.4 12.3 6.7 12.3 7.2.1 1.5-24.3 13.5-27.4 13.5-3.2 0-27.1-12-26.9-13.5s24.2-13.4 27.2-13.5c1.4 0 8.1 2.8 14.8 6.3M125 293.8c0 1 2.1 3.2 3.1 3.2.4 0 .5-.9.2-2-.5-1.9-3.3-2.9-3.3-1.2m252.9 1.8c-1.4 3.8-.7 3.8 2.6.4 2.8-2.9 2.8-3 .7-3-1.5 0-2.6.9-3.3 2.6m-265.8 3.9c4 4.1 6 5.4 7.3 4.9 1.5-.6 1.1-1.4-3-5.5-3.3-3.3-5.7-4.9-7.4-4.9-2.3 0-2.1.4 3.1 5.5m278-1.1c-4.1 4.2-4.7 6.6-1.5 6.6.8 0 2.2-.8 3.2-1.8.9-1.1 3.3-3.5 5.1-5.5l3.5-3.7h-3c-2.2 0-4.1 1.1-7.3 4.4m-315.1-2c0 .2 4.9 5.4 10.9 11.5 10.9 11.2 11 11.2 12.9 9.3 2-2 1.9-2-7.7-11.6-8.2-8.2-10.1-9.6-12.9-9.6-1.7 0-3.2.2-3.2.4m340.7 9.4-9.8 9.8 2.1 1.9c2.1 1.9 2.2 1.9 13-9 6-6.1 11-11.3 11-11.8 0-.4-1.5-.7-3.3-.7-2.8 0-4.6 1.4-13 9.8m-340.1 7.8c1.5 11.3 7.6 24.4 14.3 30.8 3 2.8 3.1 2.9 5 1.2 1.9-1.8 1.9-1.9-2.5-7.2-5.2-6.5-7.7-11-9.8-18.5-1-3.4-2.8-6.7-4.6-8.4l-3-2.9zm352.6-2.1c-1.1 1.4-2.9 5.6-4.1 9.3-2.2 7.2-6.5 14.8-11.2 19.8l-2.9 3 2 1.9c2 1.8 2.1 1.8 4.7-.6 6.8-6.3 13-19.3 14.7-31.2.8-5.3-.2-6-3.2-2.2m-324.1 37.9-4.1 4.2V489h5V354.6l4.1-4.2 4.1-4.1-2.6-.5c-1.9-.4-3.4.4-6.5 3.6m291.7-3.7c-2.6.6-2.3 1.4 2.2 5.8l4 3.9V489h2.4c2 0 2.4-.6 3-4.3.4-2.3.4-33 0-68.2l-.6-64-3.6-3.8c-3.6-3.7-4.1-3.9-7.4-3m-267.1 2.2c-2.6.6.1 3.5 54.5 57.7 61.7 61.6 59.6 59.8 70.3 59.8s8.6 1.8 70.3-59.8l57.2-57.1-3.2-.7c-3.3-.8-3.6-.5-57.8 54.2-38.6 38.9-55.6 55.4-58.2 56.5-5.2 2.1-12.4 1.9-17.2-.5-2.7-1.3-22-20.1-57.9-56.5-29.6-30-54.2-54.4-54.5-54.4-.4.1-2 .4-3.5.8m-8 10.9c-.3 1.4.6 3 2.8 5.2 3 2.9 3.3 3 3.8 1.2.3-1.4-.6-3-2.8-5.2-3-2.9-3.3-3-3.8-1.2m261.5 1.1c-1.8 1.9-2.9 3.8-2.5 4.6.8 2.1 1.6 1.9 4.7-1.4 2.1-2.2 2.6-3.3 1.9-4.6-.9-1.5-1.3-1.3-4.1 1.4m-268 5.2c.3 4.6.4 4.7 33.8 38.8 18.4 18.8 34.4 35.9 35.5 37.9 1.8 3.3 2 6 2.3 25.5l.3 21.7h6.9v-22.8c0-20.6-.2-23.1-2.1-27.2-2-4.5-5.8-8.3-59.7-61.5l-17.3-17zm240.7 33.2c-33.7 33.3-37.8 37.7-39.3 42.1-1.3 4-1.6 9.2-1.6 26.8V489h7l.2-8.8c.1-4.8 0-13.1-.1-18.4-.2-5.3.3-12.3.9-15.4l1.2-5.7 35.4-36.3c33.1-33.9 35.4-36.5 35.4-39.8 0-2-.3-3.6-.7-3.6-.5.1-17.7 16.8-38.4 37.3M114 384.6c.1 3.6.2 3.8 1.5 2 1.9-2.5 1.9-3.1 0-4.6-1.3-1.1-1.5-.7-1.5 2.6m277-2.1c-1 1.2-.9 2 .4 4 2.2 3.4 2.6 3.2 2.6-1.5 0-4.2-.9-5-3-2.5M74.9 417.9C60 432.8 54.2 439.8 52 445.4c-.9 2.6-.9 2.6 3.5 2.6 3.8 0 4.7-.4 6.6-3.3 1.3-1.7 8.5-9.5 16.1-17.3L92 413.3v-5.7c0-3.1-.3-5.6-.7-5.5-.5.1-7.8 7.2-16.4 15.8M416 408v6.4l13.3 13.6c7.3 7.4 14.4 15 15.7 16.8 2.3 3 2.9 3.3 6.8 3l4.3-.3-2.8-5.5c-2-3.9-7.8-10.6-20-23l-17.2-17.5z"/>
    </g>
</svg>
