<?xml version="1.0" standalone="no"?>
<!DOCTYPE svg PUBLIC "-//W3C//DTD SVG 20010904//EN"
 "http://www.w3.org/TR/2001/REC-SVG-20010904/DTD/svg10.dtd">
<svg version="1.0" xmlns="http://www.w3.org/2000/svg"
 width="512.000000pt" height="512.000000pt" viewBox="0 0 512.000000 512.000000"
 preserveAspectRatio="xMidYMid meet">
<metadata>
Created by potrace 1.16, written by Peter Selinger 2001-2019
</metadata>
<g transform="translate(0.000000,512.000000) scale(0.100000,-0.100000)"
fill="#f2f2f2" stroke="none">
<path d="M479 4078 c0 -40 -2 -217 -5 -393 -4 -257 -2 -335 10 -397 22 -113
67 -197 158 -292 l77 -81 1 43 c0 39 -6 50 -51 100 -65 73 -117 179 -129 262
-5 36 -10 237 -10 448 l0 382 -25 0 c-24 0 -25 -2 -26 -72z"/>
<path d="M2385 4143 c-12 -2 -236 -219 -500 -483 l-479 -479 29 -11 c29 -11
32 -9 159 122 72 73 289 293 483 488 194 196 353 359 353 363 0 7 -10 7 -45 0z"/>
<path d="M2625 4140 c11 -4 36 -23 55 -43 19 -19 237 -237 483 -485 432 -434
449 -451 473 -440 25 12 12 25 -458 495 l-483 483 -45 -1 c-34 0 -40 -2 -25
-9z"/>
<path d="M4558 4143 c-15 -4 -17 -41 -20 -426 -4 -379 -6 -427 -22 -471 -29
-75 -64 -132 -117 -190 -43 -48 -49 -59 -49 -97 l1 -44 77 81 c80 84 118 144
148 235 16 46 18 95 20 349 2 314 -5 571 -15 569 -3 -1 -14 -3 -23 -6z"/>
<path d="M1018 3850 c-12 -462 -11 -560 7 -560 13 0 15 41 14 318 -1 174 -4
367 -8 427 -5 92 -7 61 -13 -185z"/>
<path d="M4038 4045 c-5 -55 -8 -247 -8 -427 0 -285 2 -328 15 -328 13 0 15
42 14 323 -1 177 -4 369 -8 427 l-6 105 -7 -100z"/>
<path d="M4970 4063 c-122 -45 -330 -183 -330 -221 0 -7 26 9 58 36 75 64 129
100 227 150 71 37 89 51 45 35z"/>
<path d="M128 4040 c18 -11 35 -20 38 -20 13 0 154 -97 207 -142 34 -30 57
-44 57 -35 0 30 -111 113 -237 176 -86 43 -120 54 -65 21z"/>
<path d="M2420 3801 c-105 -23 -172 -107 -155 -194 6 -28 51 -145 91 -234 95
-212 118 -243 177 -243 47 0 85 51 151 201 32 74 70 158 82 187 35 77 34 169
-2 212 -46 54 -95 72 -208 76 -56 2 -117 0 -136 -5z m202 -76 c53 -7 98 -48
98 -90 0 -14 -22 -75 -49 -137 -123 -285 -131 -302 -150 -283 -8 8 -51 100
-131 280 -37 85 -50 121 -50 145 0 40 48 77 108 85 26 3 54 8 62 10 8 1 26 1
40 0 14 -2 46 -6 72 -10z"/>
<path d="M570 3682 c0 -13 9 -36 20 -52 39 -55 110 -217 136 -310 24 -88 27
-113 31 -357 5 -249 6 -263 24 -263 18 0 19 11 19 200 0 225 -15 352 -56 475
-29 88 -112 255 -149 301 -24 28 -24 29 -25 6z"/>
<path d="M4458 3648 c-53 -80 -95 -167 -128 -266 -46 -137 -60 -250 -60 -479
0 -192 1 -203 19 -203 18 0 19 14 24 258 4 208 8 271 24 332 27 107 66 203
118 295 56 98 59 147 3 63z"/>
<path d="M2010 3569 c-95 -58 -332 -285 -439 -421 -29 -38 -56 -68 -60 -68
-10 0 -69 19 -96 30 -66 28 -368 122 -407 127 -63 8 -98 -14 -98 -60 0 -49 56
-197 87 -230 42 -44 128 -83 249 -112 60 -15 111 -29 113 -30 1 -2 -9 -40 -24
-85 l-27 -81 -287 3 -288 3 -68 -35 c-62 -32 -74 -43 -133 -129 -50 -72 -65
-102 -66 -131 -2 -79 50 -97 238 -81 346 28 555 42 591 39 l40 -3 37 -90 c21
-49 37 -93 38 -96 0 -4 -69 -41 -153 -82 -183 -90 -217 -115 -217 -162 0 -19
7 -41 16 -50 23 -23 84 -52 138 -66 65 -16 116 -1 253 77 l114 65 22 -28 c96
-122 217 -238 417 -400 63 -51 153 -124 199 -162 112 -93 155 -98 186 -24 13
32 13 56 0 222 -9 107 -23 205 -32 231 -28 78 -79 144 -166 212 -152 121 -278
274 -327 398 -25 64 -36 197 -22 255 40 157 126 279 324 462 115 105 138 198
88 348 -30 93 -56 138 -90 158 -39 24 -107 22 -150 -4z m114 -68 c22 -24 76
-176 76 -214 0 -63 -37 -121 -128 -197 -52 -43 -90 -84 -176 -191 -32 -39 -97
-159 -116 -214 -87 -249 24 -512 320 -757 47 -39 98 -85 114 -102 38 -42 76
-123 76 -166 0 -19 4 -51 9 -70 14 -54 24 -273 13 -269 -12 5 -284 228 -391
321 -43 36 -92 79 -110 95 -18 15 -74 75 -123 133 -50 58 -99 109 -108 113
-13 7 -50 -10 -141 -62 -163 -94 -186 -101 -256 -75 -30 10 -55 24 -56 29 0 6
81 51 182 100 130 64 183 96 187 110 7 28 -90 266 -118 289 -27 21 -22 21
-511 -15 -187 -14 -311 -19 -317 -13 -5 5 13 42 45 90 44 66 64 86 102 105 47
24 53 24 355 24 192 0 310 4 316 10 4 6 21 51 36 100 15 50 32 100 37 113 22
56 0 85 -76 97 -22 4 -89 20 -148 37 -95 27 -114 36 -153 74 -24 24 -44 52
-44 62 0 11 -7 38 -15 61 l-15 43 33 -7 c17 -4 124 -38 237 -77 113 -39 224
-72 246 -75 l42 -5 95 114 c140 167 334 351 414 393 37 19 46 19 67 -4z"/>
<path d="M1136 2440 c7 -7 24 -7 50 -1 l39 9 -49 1 c-34 1 -47 -2 -40 -9z"/>
<path d="M719 2421 c-24 -20 -24 -20 -3 -21 12 0 25 7 28 16 10 25 1 27 -25 5z"/>
<path d="M2880 3553 c-24 -24 -43 -58 -54 -93 -9 -30 -21 -63 -27 -72 -5 -10
-9 -53 -9 -96 0 -107 16 -136 147 -262 209 -202 293 -350 293 -515 0 -122 -45
-228 -154 -362 -39 -48 -105 -115 -146 -150 -227 -191 -238 -214 -260 -546 -9
-126 -8 -152 5 -177 35 -68 77 -60 187 33 46 38 137 113 203 165 66 52 192
168 281 257 l161 162 59 -35 c143 -84 193 -105 258 -105 98 -1 206 59 206 113
0 44 -37 72 -218 162 -184 93 -172 72 -118 198 l32 75 110 -2 c60 -1 231 -10
379 -21 149 -11 284 -18 300 -15 94 15 104 81 29 189 -81 117 -85 121 -133
147 -77 41 -157 49 -428 41 l-243 -7 0 21 c0 12 -9 49 -21 83 -12 33 -19 62
-18 63 2 1 31 10 64 20 215 60 254 76 291 119 40 46 94 181 94 234 0 46 -35
68 -98 60 -26 -3 -128 -33 -227 -67 -258 -88 -288 -96 -293 -81 -15 46 -255
299 -392 413 -84 71 -118 88 -176 88 -40 0 -51 -5 -84 -37z m151 -64 c106 -77
288 -253 378 -369 85 -109 97 -120 127 -120 15 0 134 36 265 80 130 44 242 80
249 80 32 0 -25 -150 -70 -182 -22 -16 -162 -61 -310 -100 -51 -13 -55 -17
-58 -46 -2 -17 2 -40 8 -51 6 -12 22 -60 36 -108 14 -48 30 -93 35 -100 8 -9
72 -10 273 -6 316 7 378 -1 438 -55 22 -20 46 -49 55 -66 9 -17 27 -44 40 -60
16 -19 21 -32 14 -39 -6 -6 -112 -2 -313 13 -483 35 -500 36 -521 13 -9 -11
-40 -75 -68 -143 -54 -132 -57 -164 -16 -179 41 -16 331 -161 341 -171 11 -11
-66 -49 -100 -50 -48 0 -187 66 -296 141 -40 28 -62 23 -94 -18 -56 -77 -273
-288 -394 -386 -69 -55 -164 -134 -213 -175 -48 -41 -90 -72 -93 -69 -10 9 15
294 32 369 19 82 53 131 136 193 35 26 101 86 148 134 138 139 210 260 236
396 43 219 -39 406 -286 650 -61 61 -118 122 -126 137 -24 46 -18 139 16 228
29 73 39 85 76 89 6 0 31 -13 55 -30z"/>
<path d="M3884 2439 c26 -6 43 -6 50 1 7 7 -6 10 -39 9 l-50 -1 39 -9z"/>
<path d="M4330 2421 c0 -5 5 -13 10 -16 6 -3 10 -2 10 4 0 5 -4 13 -10 16 -5
3 -10 2 -10 -4z"/>
<path d="M860 2819 c0 -39 5 -50 39 -83 34 -33 43 -37 80 -34 l42 3 -81 80
-80 80 0 -46z"/>
<path d="M4125 2780 l-80 -80 46 0 c39 0 50 5 83 39 33 34 37 43 34 80 l-3 42
-80 -81z"/>
<path d="M4005 2770 c-3 -5 -2 -10 4 -10 5 0 13 5 16 10 3 6 2 10 -4 10 -5 0
-13 -4 -16 -10z"/>
<path d="M2486 2693 c-45 -12 -273 -136 -293 -159 -28 -31 -29 -63 -4 -96 31
-39 293 -168 341 -168 49 0 309 128 340 167 49 62 19 100 -151 188 -123 63
-186 82 -233 68z m193 -136 c68 -34 123 -67 123 -72 1 -15 -243 -135 -274
-135 -32 0 -271 120 -269 135 2 15 242 134 272 135 14 0 81 -28 148 -63z"/>
<path d="M1250 2182 c0 -10 21 -32 31 -32 4 0 5 9 2 20 -5 19 -33 29 -33 12z"/>
<path d="M3779 2164 c-14 -38 -7 -38 26 -4 28 29 28 30 7 30 -15 0 -26 -9 -33
-26z"/>
<path d="M1121 2125 c40 -41 60 -54 73 -49 15 6 11 14 -30 55 -33 33 -57 49
-74 49 -23 0 -21 -4 31 -55z"/>
<path d="M3901 2136 c-41 -42 -47 -66 -15 -66 8 0 22 8 32 18 9 11 33 35 51
55 l35 37 -30 0 c-22 0 -41 -11 -73 -44z"/>
<path d="M750 2156 c0 -2 49 -54 109 -115 109 -112 110 -112 129 -93 20 20 19
20 -77 116 -82 82 -101 96 -129 96 -17 0 -32 -2 -32 -4z"/>
<path d="M4157 2062 l-98 -98 21 -19 c21 -19 22 -19 130 90 60 61 110 113 110
118 0 4 -15 7 -33 7 -28 0 -46 -14 -130 -98z"/>
<path d="M756 1984 c15 -113 76 -244 143 -308 30 -28 31 -29 50 -12 19 18 19
19 -25 72 -52 65 -77 110 -98 185 -10 34 -28 67 -46 84 l-30 29 6 -50z"/>
<path d="M4282 2005 c-11 -14 -29 -56 -41 -93 -22 -72 -65 -148 -112 -198
l-29 -30 20 -19 c20 -18 21 -18 47 6 68 63 130 193 147 312 8 53 -2 60 -32 22z"/>
<path d="M1041 1626 l-41 -42 0 -677 0 -677 25 0 25 0 0 672 0 672 41 42 41
41 -26 5 c-19 4 -34 -4 -65 -36z"/>
<path d="M3958 1663 c-26 -6 -23 -14 22 -58 l40 -39 0 -668 0 -668 24 0 c20 0
24 6 30 43 4 23 4 330 0 682 l-6 640 -36 38 c-36 37 -41 39 -74 30z"/>
<path d="M1287 1641 c-26 -6 1 -35 545 -577 617 -616 596 -598 703 -598 107 0
86 -18 703 598 l572 571 -32 7 c-33 8 -36 5 -578 -542 -386 -389 -556 -554
-582 -565 -52 -21 -124 -19 -172 5 -27 13 -220 201 -579 565 -296 300 -542
544 -545 544 -4 -1 -20 -4 -35 -8z"/>
<path d="M1207 1532 c-3 -14 6 -30 28 -52 30 -29 33 -30 38 -12 3 14 -6 30
-28 52 -30 29 -33 30 -38 12z"/>
<path d="M3822 1521 c-18 -19 -29 -38 -25 -46 8 -21 16 -19 47 14 21 22 26 33
19 46 -9 15 -13 13 -41 -14z"/>
<path d="M1142 1469 c3 -46 4 -47 338 -388 184 -188 344 -359 355 -379 18 -33
20 -60 23 -255 l3 -217 35 0 34 0 0 228 c0 206 -2 231 -21 272 -20 45 -58 83
-597 615 l-173 170 3 -46z"/>
<path d="M3549 1137 c-337 -333 -378 -377 -393 -421 -13 -40 -16 -92 -16 -268
l0 -218 35 0 35 0 2 88 c1 48 0 131 -1 184 -2 53 3 123 9 154 l12 57 354 363
c331 339 354 365 354 398 0 20 -3 36 -7 36 -5 -1 -177 -168 -384 -373z"/>
<path d="M1140 1274 c1 -36 2 -38 15 -20 19 25 19 31 0 46 -13 11 -15 7 -15
-26z"/>
<path d="M3910 1295 c-10 -12 -9 -20 4 -40 22 -34 26 -32 26 15 0 42 -9 50
-30 25z"/>
<path d="M749 941 c-149 -149 -207 -219 -229 -275 -9 -26 -9 -26 35 -26 38 0
47 4 66 33 13 17 85 95 161 173 l138 141 0 57 c0 31 -3 56 -7 55 -5 -1 -78
-72 -164 -158z"/>
<path d="M4160 1040 l0 -64 133 -136 c73 -74 144 -150 157 -168 23 -30 29 -33
68 -30 l43 3 -28 55 c-20 39 -78 106 -200 230 l-172 175 -1 -65z"/>
</g>
</svg>
