<?xml version="1.0" standalone="no"?>
<!DOCTYPE svg PUBLIC "-//W3C//DTD SVG 20010904//EN"
 "http://www.w3.org/TR/2001/REC-SVG-20010904/DTD/svg10.dtd">
<svg version="1.0" xmlns="http://www.w3.org/2000/svg"
 width="512.000000pt" height="512.000000pt" viewBox="0 0 512.000000 512.000000"
 preserveAspectRatio="xMidYMid meet">
<metadata>
Created by potrace 1.16, written by Peter Selinger 2001-2019
</metadata>
<g transform="translate(0.000000,512.000000) scale(0.100000,-0.100000)"
fill="#f2f2f2" stroke="none">
<path d="M478 3823 c-3 -469 -3 -492 12 -553 22 -96 75 -190 155 -275 l74 -80
1 49 c0 45 -4 52 -53 106 -58 62 -98 137 -115 215 -15 69 -21 218 -22 568 l0
297 -25 0 -25 0 -2 -327z"/>
<path d="M2374 4134 c-17 -8 -327 -312 -688 -675 -643 -646 -657 -661 -640
-680 18 -20 24 -13 341 303 280 279 329 333 365 397 51 93 158 201 254 256 53
30 111 82 249 223 99 101 178 185 176 188 -8 7 -25 4 -57 -12z"/>
<path d="M2640 4146 c0 0 82 -85 183 -188 124 -127 204 -200 252 -231 88 -56
202 -170 249 -250 26 -46 123 -149 364 -390 307 -307 329 -327 347 -313 25 18
66 -27 -660 701 -681 682 -665 667 -704 670 -17 1 -31 2 -31 1z"/>
<path d="M4546 3734 c-5 -284 -11 -426 -20 -460 -20 -77 -64 -153 -122 -214
-51 -53 -54 -60 -54 -106 l1 -49 74 80 c41 44 90 109 109 145 65 124 66 133
66 559 0 420 -3 460 -30 458 -16 -1 -17 -33 -24 -413z"/>
<path d="M1021 3725 c-1 -231 -4 -514 -8 -630 -6 -195 -5 -209 10 -196 16 12
17 64 16 580 0 311 -4 589 -9 616 -4 29 -8 -128 -9 -370z"/>
<path d="M4037 3533 c-6 -607 -6 -608 15 -628 l20 -20 -6 445 c-3 245 -6 527
-6 628 0 100 -4 182 -8 182 -5 0 -12 -273 -15 -607z"/>
<path d="M170 4019 c41 -22 119 -74 173 -115 61 -47 97 -69 97 -59 0 21 -142
124 -240 174 -105 53 -128 53 -30 0z"/>
<path d="M4870 4014 c-104 -56 -230 -149 -230 -170 0 -12 10 -8 38 15 72 61
158 119 232 160 41 22 68 41 60 41 -8 0 -53 -21 -100 -46z"/>
<path d="M2380 3774 c-228 -43 -366 -109 -478 -228 -89 -94 -152 -263 -152
-405 0 -81 -1 -81 278 -81 238 0 241 0 256 22 9 12 16 38 16 57 0 55 35 116
87 150 55 36 92 45 176 39 163 -10 246 -132 219 -321 -19 -134 -89 -229 -287
-391 -121 -100 -186 -172 -220 -241 -50 -102 -74 -315 -39 -349 13 -14 51 -16
255 -16 286 0 273 -5 281 116 9 132 42 182 188 289 249 183 379 411 380 663 0
286 -154 528 -403 629 -123 50 -202 64 -372 68 -88 2 -171 1 -185 -1z m404
-108 c240 -61 398 -210 452 -426 23 -91 15 -293 -14 -369 -51 -130 -165 -274
-294 -370 -171 -128 -217 -192 -239 -329 l-12 -72 -186 2 -186 3 3 40 c5 72
24 149 48 196 27 54 110 141 213 223 191 152 275 274 300 431 20 129 -12 249
-88 328 -42 45 -77 65 -146 83 -186 50 -374 -47 -417 -213 l-10 -43 -184 0
-184 0 0 30 c0 170 120 346 292 429 128 62 215 79 399 80 134 1 170 -2 253
-23z"/>
<path d="M570 3692 c0 -13 18 -53 39 -89 82 -135 133 -291 150 -456 5 -51 7
-183 4 -294 -5 -210 -2 -231 33 -179 13 22 15 53 10 238 -8 280 -15 336 -62
478 -40 122 -174 354 -174 302z"/>
<path d="M4468 3658 c-81 -122 -139 -262 -168 -403 -27 -130 -37 -547 -15
-581 9 -13 19 -24 23 -24 5 0 8 116 8 258 -1 173 3 278 12 322 28 139 87 289
159 403 13 21 23 48 21 60 -2 17 -10 10 -40 -35z"/>
<path d="M860 2824 c0 -48 2 -52 61 -109 137 -135 221 -260 283 -421 30 -75
50 -110 84 -146 25 -26 47 -46 49 -44 2 1 -8 47 -22 102 -53 204 -166 383
-369 584 l-86 85 0 -51z"/>
<path d="M4109 2763 c-126 -129 -205 -231 -256 -328 -42 -82 -95 -229 -107
-300 l-7 -40 48 47 c34 33 53 62 63 95 24 84 119 261 180 335 32 40 88 102
124 138 61 59 66 68 66 107 0 24 -4 43 -8 43 -5 0 -51 -44 -103 -97z"/>
<path d="M803 2568 c-96 -97 -122 -147 -123 -234 0 -98 25 -134 235 -344 174
-174 186 -184 202 -167 16 16 6 27 -165 201 -206 208 -228 242 -219 332 7 65
22 90 115 186 65 66 74 79 62 92 -7 9 -15 16 -19 16 -4 0 -43 -37 -88 -82z"/>
<path d="M4170 2635 c-10 -12 -2 -26 47 -80 32 -36 61 -65 65 -65 4 0 20 -21
35 -47 22 -39 28 -60 28 -108 -1 -33 -7 -72 -15 -87 -9 -15 -81 -94 -161 -175
-80 -81 -163 -167 -184 -191 -36 -40 -37 -44 -22 -60 16 -15 29 -5 202 168
210 210 235 246 235 344 -1 87 -27 137 -123 234 -45 45 -84 82 -88 82 -4 0
-12 -7 -19 -15z"/>
<path d="M1010 2333 l0 -88 46 -50 c26 -27 98 -103 162 -167 l115 -117 -161
-158 -161 -158 -7 -585 c-8 -643 -3 -780 25 -780 28 0 31 82 24 739 l-6 597
171 174 171 175 -170 170 -169 170 0 71 c0 65 -10 94 -32 94 -4 0 -8 -39 -8
-87z"/>
<path d="M4042 2408 c-7 -7 -12 -41 -12 -82 l0 -71 -172 -172 -173 -173 168
-168 167 -167 2 -670 3 -670 25 0 25 0 0 677 0 678 -163 163 -162 162 160 160
160 160 0 92 c0 92 -4 105 -28 81z"/>
<path d="M760 2004 c0 -88 63 -239 132 -318 43 -48 43 -48 62 -28 18 21 17 22
-27 79 -49 62 -91 148 -102 206 -4 19 -20 48 -36 63 l-29 28 0 -30z"/>
<path d="M4287 2002 c-15 -15 -30 -43 -33 -62 -10 -56 -60 -153 -104 -202 -46
-52 -47 -58 -21 -82 18 -16 20 -15 54 26 79 98 119 187 132 292 4 31 5 56 3
56 -2 0 -16 -13 -31 -28z"/>
<path d="M2226 1818 c-13 -19 -16 -57 -16 -218 0 -161 3 -199 16 -218 15 -22
18 -22 260 -22 150 0 253 4 265 10 18 10 19 23 19 230 0 207 -1 220 -19 230
-12 6 -115 10 -265 10 -242 0 -245 0 -260 -22z m454 -218 l0 -150 -190 0 -190
0 0 150 0 150 190 0 190 0 0 -150z"/>
<path d="M1269 1664 c-14 -17 -72 45 746 -782 397 -400 417 -417 525 -417 105
0 137 24 435 328 147 149 398 404 558 564 277 278 291 294 274 310 -16 17 -45
-10 -585 -549 -312 -311 -581 -573 -599 -582 -44 -22 -125 -20 -171 3 -20 11
-289 272 -597 580 -308 309 -563 561 -566 561 -4 0 -12 -7 -20 -16z"/>
<path d="M1217 1544 c-15 -15 -6 -41 22 -68 l29 -28 7 22 c5 17 0 30 -22 52
-16 16 -32 25 -36 22z"/>
<path d="M3826 1521 c-21 -22 -26 -35 -21 -51 7 -22 7 -22 36 6 28 27 38 58
21 68 -5 3 -21 -8 -36 -23z"/>
<path d="M1140 1480 c0 -51 -18 -30 406 -461 157 -160 281 -293 293 -317 19
-38 21 -58 21 -241 0 -110 3 -206 6 -215 8 -21 60 -21 68 0 3 9 6 102 6 208 0
295 40 230 -416 685 l-384 384 0 -43z"/>
<path d="M3553 1138 c-363 -365 -382 -386 -397 -437 -12 -42 -16 -102 -16
-263 l0 -208 34 0 c30 0 34 4 40 31 3 17 6 114 6 214 0 143 3 191 16 220 10
25 131 155 360 387 l344 350 0 44 c0 24 -1 44 -3 44 -1 0 -174 -172 -384 -382z"/>
<path d="M1140 1269 c0 -40 1 -41 15 -23 19 25 19 39 0 54 -13 11 -15 7 -15
-31z"/>
<path d="M3917 1292 c-14 -16 -14 -19 3 -42 l20 -25 0 43 c0 23 -2 42 -3 42
-2 0 -11 -8 -20 -18z"/>
<path d="M748 933 c-153 -154 -228 -247 -228 -280 0 -9 14 -13 43 -13 36 0 45
4 59 28 9 15 80 93 157 173 l141 144 0 58 c0 31 -1 57 -3 57 -1 0 -77 -75
-169 -167z"/>
<path d="M4160 1044 l0 -60 143 -148 c78 -82 149 -159 157 -172 12 -19 23 -24
57 -24 30 0 43 4 43 14 0 33 -90 142 -239 291 l-161 160 0 -61z"/>
</g>
</svg>
