<svg xmlns="http://www.w3.org/2000/svg" width="682.667" height="682.667" version="1.0" viewBox="0 0 512 512">
    <g fill="#e5e5e5">
        <path d="M46.9 95.1c-1.2.7-1.4 8-1.4 44.1v43.3l2.4 6c3.3 8.3 9.8 18 16.5 24.5l5.6 5.4v-4.3c0-3.7-.6-5-5.1-9.9-6.2-7-11.6-17.8-12.9-25.7-.5-3.3-1-23.4-1-44.6 0-40.3-.1-41.3-4.1-38.8m164.4 24.1c-24.3 24.2-25.2 25.3-23.5 27.1 1.6 1.8 2.6.9 27-23.7 14-14.1 26.6-26.3 28-27.1 2.7-1.4 2.7-1.4-1.8-1.5h-4.4zM261.5 95c-.3.6-.2 1 .4 1 .5 0 12.5 11.6 26.5 25.7 24.4 24.7 25.6 25.7 27.3 24s.7-2.8-22.8-26.3c-20-20-25.2-24.7-27.7-25-1.7-.2-3.4.1-3.7.6m192.1.5c-.3.9-.6 18.9-.6 39.9 0 21.3-.4 40.7-1 43.7-1.4 7.6-7 18.4-12.9 25.1-4.5 4.9-5.1 6.2-5.1 9.9v4.3l5.6-5.4c7-6.8 13.4-16.5 16.5-25 2.3-6.3 2.4-7.5 2.6-39.5.3-39.9-.5-53.8-2.8-54.3-.9-.2-1.9.4-2.3 1.3M99.7 124.9c-.4 16.7-.7 45.3-.7 63.4 0 29.2.2 32.8 1.5 31.7s1.5-8.3 1.4-54.4c-.1-66.1-1.1-84.2-2.2-40.7m303.1-26.4c-.4 2.2-.8 29.9-.8 61.6 0 50 .2 57.8 1.5 58.9s1.5-4.3 1.4-48.1c-.1-53.7-.9-79.1-2.1-72.4m-390.6 7.9c8.9 4.6 16 9.3 22.8 15 3.2 2.7 5.7 4.1 5.9 3.4.7-2.1-12.4-11.6-23.6-17.2-9.3-4.6-13.4-5.6-5.1-1.2m479.3-1.1c-11.8 5.1-28.5 16.6-28.5 19.4 0 1.7-.1 1.8 8.5-5.3 5.9-4.9 11.4-8.4 20.4-13 7.4-3.8 7.2-4.5-.4-1.1"/>
        <path d="M55 141.4c0 1 1.3 4 2.8 6.5 7.5 12.2 13.1 28 15.1 42.5.6 4.3 1.1 18.4 1.1 31.3 0 23.5 0 23.6 2 21.8 1.9-1.7 2-3.1 2-22.9 0-28.3-2.1-41.1-9.1-57.7-3.2-7.5-8.7-17.2-11.8-21-1.8-2.1-2-2.2-2.1-.5m390.2 2.9c-4.8 6.9-10.7 19-13.7 28.2-4.1 12.6-5.5 25.1-5.5 48.3 0 19.6.1 21 2 22.7 2 1.8 2 1.7 2-21.8 0-25.7.9-34.5 4.6-47.5 2.4-8.4 10.1-25 13.1-28.4.8-.9 1.3-2.7 1.1-4-.3-2.1-.6-1.8-3.6 2.5M177.1 155c-3.2 4.4-3.8 6.1-4.3 11.5-.2 2.1-.7 2.9-1.8 2.5-.8-.2-4.2-.4-7.5-.4-6.6.1-11.8 2.2-13.6 5.5-1 1.9-.7 6.8.7 10.4.3.7-.3 1.6-1.5 2-1.2.3-4.3 2.4-7.1 4.6-4.2 3.3-5 4.5-5 7.2 0 1.7.9 4.5 2 6.2l1.9 2.9-3.3 2.8c-4.4 3.6-9.6 11.5-9.6 14.4 0 1.3 1.4 4 3.2 6 2.9 3.2 3 3.7 1.5 4.6-2.6 1.4-8.7 14.2-8.7 18.2 0 3.6 2.8 6.8 7.2 8.1 1.7.6 1.8.9.5 2.3-1.6 1.9-6.7 16.4-6.7 19.2 0 3.2 3.8 6.7 8.5 7.9 2.9.7 4.5 1.6 4.2 2.4-.3.7-1.5 5.3-2.8 10.4-2.1 8.7-2.2 9.2-.5 11.8 2.2 3.3 5.4 4.5 12.2 4.5 6.3 0 6.1-.5 3.8 11.6-1.4 7.5-1.4 8.6.1 11.3 1.9 3.8 5.1 4.4 16.9 3.3l8.8-.8-.6 4.5c-1.9 13.8-1.9 14.5.4 17.3 1.8 2.4 2.9 2.8 7 2.8 7.2 0 20-2.9 24.7-5.6s9.6-8.4 14-16.2l3-5.3 4 4.8c9.2 11.1 10.3 14 7.8 20.5-.5 1.3.5 2.3 4.6 4.4 6.7 3.3 13.8 3.5 19.8.4 5-2.5 5.7-4 4.1-8-1.1-2.6-.9-3.4 1.3-7.2 2.6-4.5 10.4-13.8 11.5-13.8.4 0 1.8 2.1 3.2 4.6 2.9 5.7 10 13.6 14.3 16.3 3.5 2.1 17.8 5.1 24.5 5.1 7.8 0 9.4-4.1 7.3-18.9l-.8-5.4 10.7.7c9.9.6 10.8.5 13.3-1.4 3.2-2.5 3.5-6.7 1.2-17-.8-3.6-1.4-6.8-1.5-7.1 0-.4 3.4-.9 7.6-1.1 11.8-.6 13.3-3.6 9.3-18.8-1.1-4.4-1.8-8.4-1.5-8.9s2.1-1.2 3.9-1.5c5.5-1 7.7-3.2 7.7-7.5 0-3.9-2.6-12.4-5.4-17.9l-1.7-3.2 3.5-1.6c3.2-1.6 5.6-4.9 5.6-7.7 0-2.3-6.7-15.2-8.9-17.1l-2.1-1.9 3.2-2.7c5.7-4.8 3.4-12.3-6.4-21.1l-2.9-2.6 2.1-3.6c3.2-5.4 2.1-8.6-4.7-13.6-3-2.2-6-4.1-6.5-4.1-.6 0-.7-1.4-.3-3.8 1.8-8.7 0-11.3-9.3-13.3-4-.8-6.8-.9-9.4-.2-3.8 1-3.8 1-3.8-2.1-.1-4.5-5.9-15.6-8.3-15.6-1.6 0-8.9 11-9.8 14.7-1 3.8-1.6 4.4-4.9 5.3-4.2 1.1-11.8 6.3-12.7 8.6-.7 1.9 4.8 7.8 8.7 9.4 2.5 1 2.7 1.5 2.3 4.9-.6 4.6.9 7.9 4.2 8.7 1.6.4 2.6 1.5 3 3.4.3 1.5 1.7 3.8 3 5 2.1 2 2.4 2.9 1.8 6.2-.4 3.1-.1 4.5 1.6 6.8 2.6 3.6 2.6 3.5.1 6-2.4 2.4-2.6 7.4-.5 11 2 3.4 1.9 4-.7 4-5.6.1-8.2 5.3-6.2 12 .8 2.5 1.4 4.6 1.4 4.7 0 .2-2.5.3-5.5.3-8 0-10 2.2-9.1 10.1l.6 5.9-8.8-.6c-8.4-.6-9-.6-11 1.7-2.4 2.5-2.7 4.7-1.3 9.7.5 1.7.9 3.2.8 3.2-.2 0-5.4-1-11.7-2.3-6.3-1.2-13.7-2.2-16.5-2.1-6.2.2-21.9 3-24.4 4.4-1.8.9-1.9.6-1.4-5 .5-5 .3-6.4-1.3-8.1-1.8-2-2.6-2.1-11.2-1.5-8.3.5-9.3.4-8.8-1 1.9-4.9 1.7-9-.4-11.7-1.9-2.4-2.8-2.7-7.7-2.7h-5.5l.7-2.8c1.9-7.6 1.8-9-.9-11.6-1.4-1.4-3.4-2.6-4.6-2.6-2.3 0-2.5-1.5-.5-5 2.1-3.8 1.8-7.4-.9-9.9l-2.5-2.3 2.7-4c2.3-3.5 2.4-4.3 1.4-7-1-2.8-.9-3.3 1.8-5.8 1.7-1.6 3-3.8 3-4.9 0-1.3.9-2.5 2.3-3 4.1-1.6 6-4.7 5.4-8.8-.6-3.6-.4-3.9 3.3-6 2.1-1.3 4.8-3.6 5.9-5.2l2.1-2.9-4.2-3.7c-2.4-2.1-6.3-4.5-8.7-5.4-3.9-1.4-4.5-2.1-5.8-6.3-.8-2.7-3.1-6.5-5.6-9.4l-4.4-4.8zm146.3 15c-.1 5.5-.6 8.7-1.8 10.4-3.1 4.9-14.2 5.9-18 1.7-1.3-1.4-1.4-2-.4-2.8 2.4-1.9 8.8-3.5 11.6-2.8 2.7.5 2.7.5 2.4-3.4-.5-5.1 3.2-14.1 5.1-12.2.8.8 1.2 4.1 1.1 9.1m-139.7-5.8c.9 1.8 1.7 5.4 1.7 8v4.8l3.5-.6c4.1-.6 10.6 2.2 10.6 4.6 0 2.1-6.8 4.4-11 3.6-1.9-.4-4.7-1.7-6.1-2.9-2.2-1.9-2.7-3.4-3.1-8.9-.6-7 .1-11.8 1.7-11.8.5 0 1.7 1.5 2.7 3.2m-12.1 12.9c1.3 1.2 2.7 3.7 3 5.6.7 3.8 1.4 4.1 3.9 1.3 1-1.1 2-1.8 2.3-1.5s-.3 1.4-1.3 2.5c-2.4 2.7-1.5 3.4 3 2.1 4.9-1.3 6-.7 8 4.6 2 5.2 1.6 5.8-4.7 6.8-4.7.8-5.5.3-6.9-4.6-.7-2.2-1.6-3.8-2.1-3.7-1.4.5-6 8.8-4.9 8.8.5 0 1.3-.5 1.6-1 1.4-2.3 5.1-.8 7.8 3.1 1.5 2.2 2.5 4.4 2.3 4.8-1.2 1.9-8.4 6.1-9.7 5.6-.8-.3-2.3-2-3.3-3.7-2.1-3.5-2.5-3.1-5.1 4.3l-1.5 4.2 2.5-2.7c2.4-2.6 2.6-2.7 5.3-1.1 1.5.9 4 2.7 5.5 3.9l2.8 2.2-3.6 4.7c-2 2.6-4.4 4.7-5.4 4.7-.9 0-3.2-1.1-5.1-2.5-3.3-2.4-3.5-2.5-4.2-.6-.4 1.1-1 4.8-1.3 8.3l-.6 6.3 2.6-4.8c1.9-3.5 3.1-4.7 4.9-4.7 2.6 0 12.6 3.9 12.6 4.9 0 .4-1.2 3.1-2.7 6.1-2.4 4.7-3.2 5.5-6 5.8-1.7.2-4.5-.4-6.2-1.2-4.8-2.6-5.4-2.2-4.7 3 .3 2.6 1.1 6.5 1.7 8.8l1.2 4.1 1.9-4.5c3.2-7.4 4.3-8.2 10.7-7.4 7.8.9 10.4 2.1 9.8 4.2-1.7 5.6-4.8 12.7-5.9 13.4-.7.5-4.1.6-7.5.3-3.5-.4-6.3-.4-6.3 0 0 1 6.7 11.2 7.8 11.9.6.3 1.3-.6 1.7-2.2.3-1.5 1.4-4.2 2.5-6l2-3.2h8.9c5 0 9.2.4 9.6.9.3.5-.1 2.9-.9 5.3s-1.7 5.8-2.1 7.5c-.9 4.3-3.9 6.3-9.5 6.3l-4.5.1 5.5 5c4.7 4.3 5.6 4.8 6.2 3.2l2.2-5.5c2-5.2 4.8-6.5 15-7.3l8.8-.8-.5 3.4c-2.3 15.7-3.4 17.9-10 20.2l-3.7 1.2 7 5.3 7.1 5.3 1.4-3.5c.8-2 1.5-4.7 1.5-6.2 0-3.5 2.5-8.6 5-10.2 1.9-1.2 16.3-4.1 20.4-4.2 1.5 0 1.7.5 1.2 2.7-.3 1.6-1.1 6.2-1.7 10.3-1.5 9.5-4 12.3-12.5 14-3.2.7-6.5 1.5-7.1 1.9-.9.4 1 2.6 5.5 6.4 5.6 4.8 14.2 14.2 17.4 19 .6.8 1.8 0 4-2.8 1.7-2.2 7.4-8.2 12.6-13.2 6-5.9 8.9-9.5 8.1-9.8-.8-.2-3.6-.9-6.3-1.5-6.8-1.5-10.1-3.5-11.4-6.7-1.4-3.8-3.6-19.2-2.8-20 1.1-1.1 19 2.6 21.6 4.5 1.9 1.4 3 4 4.6 10.1 1.2 4.5 2.3 8.3 2.5 8.5.2.3 3.5-1.9 7.3-4.7l6.9-5.1-4.1-1.7c-2.2-1-4.7-2.8-5.5-4.1-1.5-2.3-5-17.8-4.3-18.6.3-.2 4.5 0 9.6.4 10.8.8 12.4 1.8 14.9 9.2l1.8 5.2 5.2-4.2c2.8-2.3 5.1-4.5 5.1-5 0-.4-1.8-.8-3.9-.8-5.7 0-8.5-3-10.5-11.2-.9-3.7-1.6-7.2-1.6-7.8s3.4-1 8.9-1c8.4 0 9.1.2 11 2.5 1.1 1.4 2.3 3.9 2.6 5.5.4 1.7 1 3.2 1.5 3.5.9.6 8-9.6 8-11.5 0-.9-1.5-1-5.4-.6-3.2.4-6.3.3-7.4-.3-1.8-1-6.2-11.1-6.2-14.4 0-1.1 1.8-1.8 7-2.7 3.9-.7 7.8-.9 8.6-.6.9.3 2.5 2.9 3.7 5.6 1.1 2.8 2.4 5 2.8 5 .9 0 2.9-9 2.9-13 0-3.5 0-3.5-4.7-1.5-1.9.8-4.8 1.5-6.4 1.5-2.6 0-3.2-.7-5.4-5.4-1.4-3-2.5-5.9-2.5-6.4 0-1.3 10.4-5.5 12.7-5 .9.2 2.8 2.1 4.1 4.3l2.4 4-.6-7.4c-.4-4.1-.8-7.7-1.1-7.9-.2-.2-1.9.8-3.8 2.2s-4.3 2.6-5.3 2.6c-1.7 0-8.4-7.2-8.4-9 0-.6 6.2-5.8 8.6-7.3.7-.4 2.4.3 3.9 1.5 1.7 1.3 2.6 1.6 2.2.7-.3-.8-1.1-3.1-1.8-5.2-1.4-4.3-2.2-4.6-3.7-1.3-1.9 4.3-4.3 4.8-9 1.8-2.3-1.5-4.2-3.2-4.2-3.7 0-.6 1.1-2.7 2.5-4.8 2.7-3.8 6-4.8 8.3-2.5 1.9 1.9 1.4 0-1-4.3-2.6-4.6-3.6-4.6-5.2 0-1.5 4.7-3.3 5.5-8.5 4.1-4.1-1.1-4.3-1.3-3.7-4.3.3-1.7 1.3-4.2 2.2-5.5 1.6-2.4 2.4-2.5 8.8-.5 1.3.4 1.7.1 1.3-.8-.3-.8-.8-2.3-1.2-3.4-.6-1.8-.5-1.8 1.3.2 2.6 3 2.8 2.9 4.2-1.1 2.3-7 7.9-9.5 16.4-7.3 2.6.7 2.8 1.1 2.3 4.4-.3 1.9-1.3 4.6-2.2 6-1.9 2.9-7.8 5.6-10.6 4.8-1-.3-2.8-.7-3.8-1-1.7-.5-1.4.3 1.6 5.5 2 3.3 3.9 6 4.4 6 .4 0 1.7-1.6 2.9-3.5 4-6.5 10-7.4 16.8-2.4 2.3 1.7 4.2 3.3 4.2 3.6 0 .9-5.1 7.6-6.8 9-2.6 2.2-8.4 1.5-12.6-1.3-2.2-1.5-3.7-2.1-3.3-1.3.3.8 1.7 4 3 7.2 1.3 3.1 2.7 6 3 6.3.3.4 2-.5 3.7-1.9 3.9-3.3 8.9-4.3 12.6-2.5 1.5.7 4.3 3.4 6.1 6l3.4 4.7-5.3 4.1c-4.6 3.7-5.7 4.1-9.1 3.7-2.4-.3-5.1-1.6-6.9-3.4l-3.1-2.8.6 2.5c.3 1.4.9 4.4 1.3 6.8.5 3.4 1 4.2 2.3 3.6 4.2-1.7 8.4-2.5 10.4-1.9 6.8 1.9 7.9 2.8 10.8 9.2 1.6 3.5 2.9 6.6 2.9 6.8 0 1.1-11.4 5.5-14.3 5.5-3.3 0-9.2-3.2-10.6-5.8-1.3-2.3-1.9-1.4-2.6 4.3l-.7 5h6.9c5.9 0 7.6.4 11 2.7 3.4 2.2 4.5 3.8 6.2 8.9 1.1 3.5 2.1 7.1 2.1 8.1 0 2.1-6 4-13.5 4.2-6.1.1-10.4-2.6-14.5-9l-2.7-4.4-3.6 5.8-3.6 5.7 6.5.7c12.9 1.5 19 6.7 21.8 18.6 1 4.4 1.6 8.4 1.2 9.1-.5.7-4 1.1-9.4 1.1-7.3 0-9.3-.4-12.4-2.3-4.9-3-9.3-8.7-11.3-14.8-.9-2.7-1.9-4.9-2.3-4.9-.8 0-12.2 11.2-12.2 12.1 0 .3 2.6 1.2 5.8 1.8 7.7 1.7 16.7 6.6 20.2 11.1 2.2 2.7 3.3 5.9 4.6 12.8 1.2 6.3 1.5 9.5.8 10.2s-4.3.8-10.6.2c-7.3-.7-10.3-1.4-12.7-3.1-4.3-3.1-9.7-10.3-11.7-15.9-1-2.6-2.3-6.2-3-8l-1.3-3.3-7.5 6.2c-4.2 3.4-7.3 6.5-7.1 6.9.3.5 2.3 1.1 4.4 1.5 5.6.9 16 8.1 19.7 13.6 3.2 4.8 3.8 7.2 5 19.2l.7 6.7h-2.9c-6.8 0-19-3.1-22.8-5.8-5.4-3.7-11.2-12.5-13.2-20-.9-3.4-2-6.2-2.4-6.2-1.6 0-16.1 16.3-19.6 22.1-2.9 4.9-3.5 6.7-3.1 9.5.7 4.1-1.1 5.4-7.3 5.4-6.1 0-8.2-1.4-7-4.6 1.4-3.6 1.5-3.4-3.8-11.5-4.4-6.8-17.4-20.9-19.2-20.9-.4 0-1 1.9-1.4 4.2-1 6.2-6.3 15.3-11.7 20.2-4.2 3.8-5.8 4.5-13.1 6-11 2.1-14.8 2.1-14.8-.2.1-4.4 3-19.4 4.4-22 1.8-3.6 9.8-10.7 14.6-13.2 1.9-1 5.5-2.3 7.8-3l4.3-1.1-7.8-6.4-7.8-6.4-1.2 2.7c-.6 1.5-1.9 4.9-2.8 7.5-2 5.7-6.5 11.8-11.7 16-3.2 2.6-4.9 3.1-13 3.8-5.1.5-9.9.7-10.5.4-1.4-.5-1.2-1.9 1.4-14.2 1.3-6.4 2-7.7 5.8-11.2 5.6-5.1 10.6-7.6 18.3-9.1 3.5-.7 6.1-1.6 6-2-.2-.4-3.1-3.3-6.5-6.4l-6.2-5.7-1.6 3.7c-.8 2-1.5 4-1.5 4.4 0 1.7-6.2 9.1-9.7 11.4-3.3 2.3-4.8 2.6-12.3 2.6-4.7 0-9.1-.4-9.8-.9-1.9-1.1 2.2-16.7 5.1-19.9 3.5-3.8 11.2-7.2 17.7-7.9 3.4-.3 5.9-.9 5.8-1.2-.2-.3-1.7-3-3.3-5.8-2.9-5.1-4.5-6.6-4.5-4.1s-5.3 8.7-9.3 10.8-4.7 2.2-11.3 1.1c-10.1-1.7-10-1.6-7.4-9.7 1.2-3.8 3.2-7.9 4.3-9.1 3-3.4 9.7-5.6 15.6-5.2 2.8.2 5.1.3 5.1.2s-.5-2.5-1.1-5.3l-1.1-5.2-2.7 2.5c-3.5 3.3-6.4 4.7-9.8 4.7s-13.3-4.5-13.3-6c0-2.4 5.3-12.2 7.3-13.5 3.7-2.3 8.9-2.8 13.7-1.1 2.4.8 4.5 1.4 4.6 1.3s.4-3 .8-6.5l.7-6.2-2.4 2.4c-1.4 1.4-4.1 2.8-6.2 3.2-3.1.6-4.3.2-9.1-3.1-3-2.1-5.4-4.2-5.4-4.8 0-.5 1.6-3.1 3.6-5.7 5.3-6.9 11.1-7.6 18.2-2.2 1.8 1.4 3.4 2.3 3.5 2.1 1.1-1.6 5.6-13.3 5.3-13.7-.3-.2-1.7.5-3.2 1.7-1.7 1.4-4.1 2.1-6.9 2.1-4.4 0-6.3-1.4-10.1-7.4l-1.8-2.9 3.9-3.3c3-2.6 4.7-3.4 7.8-3.4 3.5 0 4.6.6 8.3 4.7 2.4 2.6 4.5 4.5 4.7 4.2 2-2.8 6.7-11.2 6.4-11.5-.2-.2-1.7 0-3.5.5-6.3 1.9-11.5-1.1-13.7-8-1-2.8-1.5-5.2-1.4-5.4.2-.2 2-.8 3.9-1.4 4.8-1.4 9.8-.6 12.6 2M260 325c1.6.7 3 1.3 3 1.4s-2.6 2.9-5.9 6.4l-5.9 6.3-6-6.3-6.1-6.3 4-1.9c2.1-1 4.8-3.1 6-4.7l2-2.9 2.9 3.4c1.7 1.8 4.3 3.9 6 4.6m130.3-104.2c1.3 4.1 3.2 7.2 5.8 9.8 3.9 3.8 3.9 3.8 5.9 1.8 2-1.9 2-2-5.9-9.8l-7.8-7.8zm-284.6 4c-5.8 5.8-5.8 5.8-3.7 7.7 2 1.8 2.1 1.8 5.4-1.4 2.3-2.2 3.6-4.6 4-7.3.4-2.2.5-4.2.3-4.4s-2.9 2.3-6 5.4M84 228c0 4.1.5 5 6.3 11.1 8.3 8.7 16.8 19.3 20.1 25.1 2.5 4.2 3 4.6 4.7 3.5 2.7-1.7 2.4-3.4-1.6-7.4-2.3-2.3-4.1-3.3-5.1-2.9-1.5.6-1.6 0-1.1-4.7l.5-5.4-11.9-11.9L84 223.5zm323.1 8.5c-11.2 11.6-12.3 12.9-11.7 15.6.4 2.1.2 2.9-.9 2.9-2.2 0-7.5 7.2-7.5 10.1 0 2.8 3 6.3 3.7 4.3 2-5.8 12-19.2 23-30.5 6.1-6.3 6.4-6.8 6.1-10.9l-.3-4.2zM78.2 252.4c-10 10.2-12.7 15.4-12.6 24.6 0 9.9 2.6 13.8 23.8 34.9l18.2 18.2 1.9-2.1c1.9-2.1 1.8-2.2-16.7-20.8-10.2-10.3-19.4-20.3-20.3-22.2-2.3-4.4-2.3-12.6 0-17 .9-1.9 5.4-7.2 9.8-11.7l8.2-8.3-2.1-2-2-2zm337.3-6.4c-1.9 2.1-1.8 2.1 6.2 10.3 4.5 4.5 8.9 9.8 9.9 11.7 2.3 4.5 2.3 12.5 0 17-1 1.9-10.2 11.9-20.4 22.2L392.5 326l2.1 2 2 2 19-19.2c11.1-11.3 19.8-21 20.9-23.3 1.4-2.7 2-6.2 2-11 0-9.1-2.9-14.4-13.4-24.9l-7.7-7.7z"/>
        <path d="M99 277.3v9.2l10 10c5.5 5.5 10 9.4 10 8.8 0-.7-1.5-2.7-3.4-4.5-1.8-1.8-4.4-5.1-5.8-7.3s-3.7-5.1-5.2-6.4c-2.4-2.2-2.6-3.1-2.6-10.2 0-5.9-.3-7.8-1.5-8.3-1.3-.4-1.5.9-1.5 8.7m303.7-8.2c-1.4.8-1.7 2.4-1.7 8.3 0 7.2-.1 7.4-4.2 11.9-8.9 9.6-12.8 14.8-12.8 17 .1 1.7 2.4-.2 11-9.2l10.9-11.4-.6-8.6c-.3-4.7-.6-8.7-.7-8.8s-.9.3-1.9.8M73.5 311c1.8 12.2 6.5 23 13.4 31l3.9 4.5 2.3-2.2 2.2-2.2-4.1-4.5c-4.7-5.1-8.3-11.8-10.6-19.7-1-3.5-2.8-6.7-4.7-8.5l-3.1-2.9zm354.2-1.3c-1.5 1.6-3.4 5.4-4.3 8.3-2.3 7.9-5.9 14.5-10.6 19.6l-4.1 4.5 2.2 2.2 2.3 2.2 3.9-4.5c5.4-6.1 10.6-17 12.5-25.9.8-4 1.3-7.8 1.2-8.3-.2-.5-1.6.4-3.1 1.9m-315.5 28.4L98 352.2V489h5v-67.8l.1-67.7L116 340c7.1-7.4 12.8-13.9 12.7-14.4-.8-2.6-3.4-.6-16.5 12.5m264.1-11.5c-.4 1.1 3.2 5.4 12.2 14.4l12.7 12.7-.2 59.9c-.3 82.1-.5 75.4 2.4 75.4 2.1 0 2.4-.6 3-5.3.3-2.8.3-33.8 0-68.7l-.6-63.5-13.2-13.3c-7.2-7.2-13.7-13.2-14.4-13.2s-1.5.7-1.9 1.6"/>
        <path d="M125 343.5c-.6.8-1 1.8-.8 2.3.1.5 25.3 26.2 55.8 57.1 60.8 61.6 60.5 61.3 71.8 61.5 11.4.2 11.1.4 72.2-61.5 30.5-30.9 55.6-56.7 55.8-57.4.2-.6-.4-1.7-1.2-2.4-1.2-1-2.2-.4-5.8 3.1-2.5 2.4-5.4 5.9-6.7 7.8-1.2 1.9-4.3 5.4-6.9 7.7s-25.1 24.3-49.9 48.9c-24.9 24.7-46.7 45.6-48.5 46.6-4.1 2.2-11.7 2.3-16.6.3-2.4-1.1-15.1-12.8-37.2-34.6-18.4-18.2-34.4-33.8-35.5-34.8-1.1-.9-5.9-6-10.8-11.3-5.6-6.2-9.7-9.9-11.5-10.3-2.7-.6-14.2-12.5-14.2-14.7 0-1.6-4.8-7.6-6.9-8.8-1.4-.7-2.2-.6-3.1.5m-6.4 14.2c-.4 1 .3 2.6 2.1 4.5 3.1 3.2 3.8 3.4 4.7 1.1.4-1-.3-2.6-2.1-4.5-3.1-3.2-3.8-3.4-4.7-1.1m262.1 1.1c-1.8 1.9-2.5 3.5-2.1 4.5.9 2.3 1.6 2.1 4.7-1.1 1.8-1.9 2.5-3.5 2.1-4.5-.9-2.3-1.6-2.1-4.7 1.1M112 362.9c0 5.2-1.8 3.2 40.6 46.1 14.9 15.2 28 29.1 29 31 1.7 3 2 6.4 2.4 26l.5 22.5 3.1.3c2.8.3 3.2 0 3.8-2.9.3-1.7.6-11.4.6-21.4 0-28 3.8-21.9-41.7-67.5L112 358.5zm241.4 34.3c-45.1 45.3-41.4 39.3-41.4 68 0 9.6.3 19 .6 20.7.6 2.9 1 3.2 3.8 2.9l3.1-.3.5-22.5c.4-19.6.7-23 2.4-26 1-1.9 14.1-15.8 29-31 42.6-43.2 40.8-41.1 40.4-45.9l-.3-4.2zM112 383.6c.1 3.6.2 3.8 1.5 2 1.9-2.5 1.9-3.1 0-4.6-1.3-1.1-1.5-.7-1.5 2.6m278.2-2.3c-1.1 1.3-1.1 2 0 3.9l1.3 2.3.3-2.3c.2-1.2.2-3 0-3.9-.3-1.5-.4-1.5-1.6 0M72.3 417.2C57.5 432.1 49 442.8 49 446.7c0 .8 1.4 1.3 3.9 1.3 3.5 0 4.4-.5 6.7-3.8 1.5-2 9-10 16.6-17.8L90 412.3v-5.6c0-3.1-.3-5.7-.8-5.7-.4 0-8 7.3-16.9 16.2M415 407v6.5l12.1 12c6.6 6.6 13.9 14.4 16 17.2 3.6 4.8 4.3 5.3 7.9 5.3 2.6 0 4-.5 4-1.3 0-4-8.5-14.7-23.6-29.8L415 400.5z"/>
    </g>
</svg>
