<svg xmlns="http://www.w3.org/2000/svg" width="85.333" height="85.333" version="1.0" viewBox="0 0 64 64">
    <path fill="#e5e5e5" d="M27.7 14.7c-5.3 16-6.1 22-4.2 29.5C25.1 50.4 30.4 61 32 61s6.9-10.6 8.5-16.8c1.3-5 1.4-7.3.5-12.4C39.6 24.3 33.1 4 32 4c-.4 0-2.4 4.8-4.3 10.7m6.8 12.5c1.1 2.9 1.9 7.6 1.9 10.3 0 5.1-2.8 14.5-4.4 14.5s-4.4-9.4-4.4-14.5c0-4.7 3.1-15.5 4.4-15.5.3 0 1.5 2.4 2.5 5.2m-14.4-9.8C15.5 23.2 11.2 27 9.3 27c-.4 0 1-1.5 3-3.4 4-3.7 5.3-7.3 1.5-4C4.5 27.3 2 30.8 2 36.2v3.3l3.1-3.8c3.3-4 7.6-6.7 12.2-7.6 2.5-.5 3.1-1.5 5.6-8.9 1.5-4.5 2.6-8.2 2.5-8.2s-2.5 2.9-5.3 6.4m21 1.6c2.5 7.6 3.1 8.6 5.6 9.1 4.6.9 8.9 3.6 12.2 7.6l3.1 3.8v-3.3c0-5.4-2.5-8.9-11.7-16.6-3.9-3.3-2.6.3 1.4 4 2 1.9 3.2 3.4 2.5 3.4-1.4 0-7.4-5.9-12.4-12l-3.6-4.5zM13.4 32.3c-2.2 1.2-2.2 1.2 1.2 6.2l3.4 5v-6.3c0-6.6-.6-7.2-4.6-4.9M46 37.2v6.3l3.4-5c3.4-5 3.4-5 1.2-6.2-4-2.3-4.6-1.7-4.6 4.9"/>
</svg>
