<?xml version="1.0" standalone="no"?>
<!DOCTYPE svg PUBLIC "-//W3C//DTD SVG 20010904//EN"
 "http://www.w3.org/TR/2001/REC-SVG-20010904/DTD/svg10.dtd">
<svg version="1.0" xmlns="http://www.w3.org/2000/svg"
 width="512.000000pt" height="512.000000pt" viewBox="0 0 512.000000 512.000000"
 preserveAspectRatio="xMidYMid meet">
<metadata>
Created by potrace 1.16, written by Peter Selinger 2001-2019
</metadata>
<g transform="translate(0.000000,512.000000) scale(0.100000,-0.100000)"
fill="#f2f2f2" stroke="none">
<path d="M3555 4220 c-157 -35 -247 -110 -306 -257 -31 -78 -62 -127 -123
-192 -56 -59 -187 -161 -248 -192 -21 -11 -36 -23 -34 -28 3 -4 26 -16 51 -25
l45 -18 82 59 c104 74 258 220 296 281 17 26 35 65 41 87 34 127 155 191 345
183 117 -5 178 -26 239 -86 66 -63 82 -104 82 -208 0 -81 -3 -96 -31 -150 -23
-45 -47 -72 -100 -112 -74 -57 -341 -193 -516 -263 -60 -24 -108 -48 -108 -54
1 -19 56 -110 66 -108 27 5 246 103 389 174 188 93 346 197 391 256 55 72 77
145 72 243 -9 187 -116 316 -315 380 -104 33 -244 47 -318 30z"/>
<path d="M4146 4192 c-9 -17 -23 -35 -33 -40 -14 -8 -12 -14 18 -50 l34 -41
17 22 c23 29 22 75 -1 111 l-19 29 -16 -31z"/>
<path d="M3125 4124 l-90 -54 -93 0 -94 0 -68 -47 c-38 -27 -70 -51 -70 -54 0
-3 30 -14 68 -24 120 -32 126 -36 141 -96 7 -30 17 -60 21 -67 11 -22 115 80
145 144 14 30 37 79 51 110 14 30 41 75 60 100 19 24 31 44 26 43 -4 0 -47
-25 -97 -55z"/>
<path d="M4278 4083 c-28 -31 -52 -74 -61 -114 -10 -40 7 -84 59 -152 95 -125
116 -209 68 -267 -34 -40 -65 -55 -144 -71 -50 -10 -79 -23 -132 -62 -42 -31
-68 -57 -68 -68 0 -17 8 -19 73 -19 136 1 272 42 335 103 45 44 77 148 69 226
-9 84 -34 147 -88 218 -27 35 -49 75 -49 88 0 34 18 76 43 103 18 20 19 24 7
32 -31 20 -85 11 -112 -17z"/>
<path d="M3552 3979 c-36 -18 -49 -34 -79 -93 -82 -162 -138 -223 -320 -345
l-123 -82 69 -60 c38 -32 72 -59 75 -59 3 0 45 26 94 58 185 124 353 210 499
257 128 42 169 104 129 198 -46 110 -238 181 -344 126z"/>
<path d="M2414 3837 c-168 -71 -173 -73 -240 -143 -66 -67 -94 -85 -584 -361
-444 -251 -522 -292 -569 -297 -52 -7 -59 -12 -234 -164 -98 -86 -191 -167
-206 -180 -25 -22 12 -8 177 64 112 49 100 48 117 13 9 -17 15 -34 13 -39 -2
-5 -56 -47 -122 -94 -65 -48 -117 -86 -115 -86 10 0 418 138 432 146 8 5 40
42 71 81 l57 72 449 226 c247 124 475 232 507 240 66 17 150 19 188 5 24 -9
42 -1 173 77 l147 88 12 65 13 64 -50 51 -51 52 8 96 c8 84 7 97 -7 96 -8 0
-92 -33 -186 -72z"/>
<path d="M2715 3867 c-34 -19 -41 -29 -45 -62 -5 -33 -1 -46 22 -76 28 -36 29
-37 70 -27 65 16 88 42 88 100 0 48 0 49 -46 68 -25 11 -46 20 -47 20 -1 0
-20 -10 -42 -23z"/>
<path d="M2806 3447 c-3 -29 -6 -84 -6 -122 0 -65 3 -74 33 -110 l32 -39 10
106 10 107 77 -62 77 -62 3 -94 3 -94 109 -39 c60 -21 113 -37 116 -36 4 2
-16 56 -44 120 l-51 117 -120 99 c-66 55 -148 113 -181 130 l-61 31 -7 -52z"/>
<path d="M4364 3340 l-101 -79 -91 -12 c-91 -11 -92 -12 -153 -67 -68 -62 -67
-65 21 -76 122 -15 115 -11 149 -89 31 -71 31 -73 16 -127 -21 -79 -21 -79 28
-73 35 4 53 16 105 66 l62 61 0 87 0 87 81 76 81 76 -7 50 c-6 41 -13 55 -39
75 -18 14 -37 25 -42 25 -5 0 -55 -36 -110 -80z"/>
<path d="M3764 3242 c-88 -43 -189 -91 -227 -108 -63 -27 -70 -33 -108 -97
-23 -38 -37 -72 -33 -77 5 -4 33 -15 63 -23 l55 -16 180 115 c100 63 203 134
229 158 l49 44 -21 41 c-12 22 -23 41 -25 41 -2 0 -75 -35 -162 -78z"/>
<path d="M2916 3254 c-12 -93 -7 -165 15 -200 23 -38 23 -38 50 -24 17 10 19
22 19 109 l0 99 -35 31 c-20 17 -37 31 -39 31 -2 0 -6 -21 -10 -46z"/>
<path d="M3967 2997 c-32 -28 -37 -38 -37 -75 0 -36 6 -49 31 -72 44 -42 62
-45 114 -15 57 34 75 80 51 137 -19 44 -19 44 -76 51 -41 6 -49 3 -83 -26z"/>
<path d="M3677 2892 c-167 -126 -169 -128 -219 -215 -49 -86 -66 -103 -602
-610 l-552 -522 -74 -20 c-41 -11 -82 -27 -92 -35 -26 -22 -397 -454 -393
-458 1 -2 67 37 146 86 l144 90 35 -35 35 -34 -123 -120 c-68 -65 -121 -119
-117 -119 4 0 113 54 243 120 l237 120 60 107 c53 94 72 117 164 200 185 168
861 747 928 795 80 58 157 88 226 88 l53 0 160 163 c128 129 165 173 183 215
12 30 20 56 18 59 -3 2 -31 -3 -62 -13 -56 -18 -56 -18 -100 6 -84 46 -85 47
-103 158 -9 56 -18 102 -21 101 -4 0 -82 -58 -174 -127z"/>
</g>
</svg>
