<?xml version="1.0" standalone="no"?>
<!DOCTYPE svg PUBLIC "-//W3C//DTD SVG 20010904//EN"
 "http://www.w3.org/TR/2001/REC-SVG-20010904/DTD/svg10.dtd">
<svg version="1.0" xmlns="http://www.w3.org/2000/svg"
 width="512.000000pt" height="512.000000pt" viewBox="0 0 512.000000 512.000000"
 preserveAspectRatio="xMidYMid meet">
<metadata>
Created by potrace 1.16, written by Peter Selinger 2001-2019
</metadata>
<g transform="translate(0.000000,512.000000) scale(0.100000,-0.100000)"
fill="#f2f2f2" stroke="none">
<path d="M2117 3542 c-240 -240 -437 -442 -437 -447 0 -6 198 -208 440 -450
l440 -440 440 440 c242 242 440 444 440 450 0 10 -870 885 -880 885 -3 0 -202
-197 -443 -438z"/>
<path d="M30 2966 c8 -8 158 -122 333 -255 l318 -241 627 0 627 0 -255 255
-255 255 -705 0 c-604 0 -702 -2 -690 -14z"/>
<path d="M3440 2725 l-255 -255 627 0 627 0 318 241 c175 133 325 247 333 255
12 12 -86 14 -690 14 l-705 0 -255 -255z"/>
<path d="M1100 2206 c8 -8 128 -101 265 -205 l250 -191 945 0 945 0 250 191
c138 104 257 197 265 205 12 12 -56 14 -535 14 l-550 0 -187 -187 -188 -188
-188 188 -187 187 -550 0 c-479 0 -547 -2 -535 -14z"/>
<path d="M2030 1546 c0 -2 119 -95 265 -205 l265 -202 265 202 c146 110 265
203 265 205 0 2 -238 4 -530 4 -291 0 -530 -2 -530 -4z"/>
</g>
</svg>
