<svg xmlns="http://www.w3.org/2000/svg" width="682.667" height="682.667" version="1.0" viewBox="0 0 512 512">
    <g fill="#e5e5e5">
        <path d="M355.5 90c-15.7 3.5-24.7 11-30.6 25.7-3.1 7.8-6.2 12.7-12.3 19.2-5.6 5.9-18.7 16.1-24.8 19.2-2.1 1.1-3.6 2.3-3.4 2.8.3.4 2.6 1.6 5.1 2.5l4.5 1.8 8.2-5.9c10.4-7.4 25.8-22 29.6-28.1 1.7-2.6 3.5-6.5 4.1-8.7 3.4-12.7 15.5-19.1 34.5-18.3 11.7.5 17.8 2.6 23.9 8.6 6.6 6.3 8.2 10.4 8.2 20.8 0 8.1-.3 9.6-3.1 15-2.3 4.5-4.7 7.2-10 11.2-7.4 5.7-34.1 19.3-51.6 26.3-6 2.4-10.8 4.8-10.8 5.4.1 1.9 5.6 11 6.6 10.8 2.7-.5 24.6-10.3 38.9-17.4 18.8-9.3 34.6-19.7 39.1-25.6 5.5-7.2 7.7-14.5 7.2-24.3-.9-18.7-11.6-31.6-31.5-38-10.4-3.3-24.4-4.7-31.8-3m59.1 2.8c-.9 1.7-2.3 3.5-3.3 4-1.4.8-1.2 1.4 1.8 5l3.4 4.1 1.7-2.2c2.3-2.9 2.2-7.5-.1-11.1l-1.9-2.9zm-102.1 6.8-9 5.4h-18.7l-6.8 4.7c-3.8 2.7-7 5.1-7 5.4s3 1.4 6.8 2.4c12 3.2 12.6 3.6 14.1 9.6.7 3 1.7 6 2.1 6.7 1.1 2.2 11.5-8 14.5-14.4 1.4-3 3.7-7.9 5.1-11 1.4-3 4.1-7.5 6-10 1.9-2.4 3.1-4.4 2.6-4.3-.4 0-4.7 2.5-9.7 5.5"/>
        <path d="M427.8 103.7c-2.8 3.1-5.2 7.4-6.1 11.4-1 4 .7 8.4 5.9 15.2 9.5 12.5 11.6 20.9 6.8 26.7-3.4 4-6.5 5.5-14.4 7.1-5 1-7.9 2.3-13.2 6.2-4.2 3.1-6.8 5.7-6.8 6.8 0 1.7.8 1.9 7.3 1.9 13.6-.1 27.2-4.2 33.5-10.3 4.5-4.4 7.7-14.8 6.9-22.6-.9-8.4-3.4-14.7-8.8-21.8-2.7-3.5-4.9-7.5-4.9-8.8 0-3.4 1.8-7.6 4.3-10.3 1.8-2 1.9-2.4.7-3.2-3.1-2-8.5-1.1-11.2 1.7m-72.6 10.4c-3.6 1.8-4.9 3.4-7.9 9.3-8.2 16.2-13.8 22.3-32 34.5l-12.3 8.2 6.9 6c3.8 3.2 7.2 5.9 7.5 5.9s4.5-2.6 9.4-5.8c18.5-12.4 35.3-21 49.9-25.7 12.8-4.2 16.9-10.4 12.9-19.8-4.6-11-23.8-18.1-34.4-12.6m-113.8 14.2c-16.8 7.1-17.3 7.3-24 14.3-6.6 6.7-9.4 8.5-58.4 36.1-44.4 25.1-52.2 29.2-56.9 29.7-5.2.7-5.9 1.2-23.4 16.4-9.8 8.6-19.1 16.7-20.6 18-2.5 2.2 1.2.8 17.7-6.4 11.2-4.9 10-4.8 11.7-1.3.9 1.7 1.5 3.4 1.3 3.9s-5.6 4.7-12.2 9.4c-6.5 4.8-11.7 8.6-11.5 8.6 1 0 41.8-13.8 43.2-14.6.8-.5 4-4.2 7.1-8.1l5.7-7.2 44.9-22.6c24.7-12.4 47.5-23.2 50.7-24 6.6-1.7 15-1.9 18.8-.5 2.4.9 4.2.1 17.3-7.7l14.7-8.8 1.2-6.5 1.3-6.4-5-5.1-5.1-5.2.8-9.6c.8-8.4.7-9.7-.7-9.6-.8 0-9.2 3.3-18.6 7.2m30.1-3c-3.4 1.9-4.1 2.9-4.5 6.2-.5 3.3-.1 4.6 2.2 7.6 2.8 3.6 2.9 3.7 7 2.7 6.5-1.6 8.8-4.2 8.8-10 0-4.8 0-4.9-4.6-6.8-2.5-1.1-4.6-2-4.7-2s-2 1-4.2 2.3m9.1 42c-.3 2.9-.6 8.4-.6 12.2 0 6.5.3 7.4 3.3 11l3.2 3.9 1-10.6 1-10.7 7.7 6.2 7.7 6.2.3 9.4.3 9.4 10.9 3.9c6 2.1 11.3 3.7 11.6 3.6.4-.2-1.6-5.6-4.4-12l-5.1-11.7-12-9.9c-6.6-5.5-14.8-11.3-18.1-13l-6.1-3.1zM436.4 178l-10.1 7.9-9.1 1.2c-9.1 1.1-9.2 1.2-15.3 6.7-6.8 6.2-6.7 6.5 2.1 7.6 12.2 1.5 11.5 1.1 14.9 8.9 3.1 7.1 3.1 7.3 1.6 12.7-2.1 7.9-2.1 7.9 2.8 7.3 3.5-.4 5.3-1.6 10.5-6.6l6.2-6.1v-17.4l8.1-7.6 8.1-7.6-.7-5c-.6-4.1-1.3-5.5-3.9-7.5-1.8-1.4-3.7-2.5-4.2-2.5s-5.5 3.6-11 8m-60 9.8c-8.8 4.3-18.9 9.1-22.7 10.8-6.3 2.7-7 3.3-10.8 9.7-2.3 3.8-3.7 7.2-3.3 7.7.5.4 3.3 1.5 6.3 2.3l5.5 1.6 18-11.5c10-6.3 20.3-13.4 22.9-15.8l4.9-4.4-2.1-4.1c-1.2-2.2-2.3-4.1-2.5-4.1s-7.5 3.5-16.2 7.8"/>
        <path d="M291.6 186.6c-1.2 9.3-.7 16.5 1.5 20 2.3 3.8 2.3 3.8 5 2.4 1.7-1 1.9-2.2 1.9-10.9v-9.9l-3.5-3.1c-2-1.7-3.7-3.1-3.9-3.1s-.6 2.1-1 4.6m105.1 25.7c-3.2 2.8-3.7 3.8-3.7 7.5 0 3.6.6 4.9 3.1 7.2 4.4 4.2 6.2 4.5 11.4 1.5 5.7-3.4 7.5-8 5.1-13.7-1.9-4.4-1.9-4.4-7.6-5.1-4.1-.6-4.9-.3-8.3 2.6"/>
        <path d="M367.7 222.8c-16.7 12.6-16.9 12.8-21.9 21.5-4.9 8.6-6.6 10.3-60.2 61l-55.2 52.2-7.4 2c-4.1 1.1-8.2 2.7-9.2 3.5-2.6 2.2-39.7 45.4-39.3 45.8.1.2 6.7-3.7 14.6-8.6l14.4-9 3.5 3.5 3.5 3.4-12.3 12c-6.8 6.5-12.1 11.9-11.7 11.9s11.3-5.4 24.3-12l23.7-12 6-10.7c5.3-9.4 7.2-11.7 16.4-20 18.5-16.8 86.1-74.7 92.8-79.5 8-5.8 15.7-8.8 22.6-8.8h5.3l16-16.3c12.8-12.9 16.5-17.3 18.3-21.5 1.2-3 2-5.6 1.8-5.9-.3-.2-3.1.3-6.2 1.3-5.6 1.8-5.6 1.8-10-.6-8.4-4.6-8.5-4.7-10.3-15.8-.9-5.6-1.8-10.2-2.1-10.1-.4 0-8.2 5.8-17.4 12.7"/>
    </g>
</svg>
