<?xml version="1.0" standalone="no"?>
<!DOCTYPE svg PUBLIC "-//W3C//DTD SVG 20010904//EN"
 "http://www.w3.org/TR/2001/REC-SVG-20010904/DTD/svg10.dtd">
<svg version="1.0" xmlns="http://www.w3.org/2000/svg"
 width="256.000000pt" height="256.000000pt" viewBox="0 0 256.000000 256.000000"
 preserveAspectRatio="xMidYMid meet">
<metadata>
Created by potrace 1.16, written by Peter Selinger 2001-2019
</metadata>
<g transform="translate(0.000000,256.000000) scale(0.100000,-0.100000)"
fill="#f2f2f2" stroke="none">
<path d="M1206 2258 c-116 -309 -206 -597 -267 -855 -25 -105 -32 -157 -36
-288 -6 -184 8 -291 58 -440 57 -170 280 -565 319 -565 39 0 262 395 319 565
50 149 64 256 58 440 -6 175 -24 271 -107 557 -76 260 -254 768 -270 768 -3 0
-37 -82 -74 -182z m122 -665 c154 -335 174 -620 63 -923 -35 -96 -89 -185
-111 -185 -22 0 -76 89 -111 185 -89 245 -93 507 -9 745 37 103 110 265 120
265 4 0 25 -39 48 -87z"/>
<path d="M809 1874 l-234 -295 -70 -34 c-38 -18 -89 -45 -112 -60 -24 -14 -43
-23 -43 -20 0 14 100 111 150 145 47 32 62 52 103 129 27 50 45 91 42 91 -10
0 -125 -79 -210 -145 -101 -78 -229 -214 -275 -290 -48 -81 -79 -178 -80 -248
0 -59 17 -147 29 -147 3 0 22 29 41 63 43 76 184 220 262 265 95 56 208 100
308 120 l94 19 14 54 c26 106 184 567 213 621 32 60 -22 -2 -232 -268z"/>
<path d="M1515 2153 c56 -133 192 -529 217 -632 l14 -54 94 -19 c100 -20 213
-64 308 -120 78 -45 219 -189 262 -265 19 -34 38 -63 41 -63 12 0 29 88 29
147 -1 70 -32 167 -80 248 -46 76 -174 212 -275 290 -85 66 -200 145 -210 145
-3 0 15 -41 42 -91 41 -77 56 -97 103 -129 50 -34 150 -131 150 -145 0 -3 -19
6 -42 20 -24 15 -74 42 -113 60 l-70 34 -234 295 c-129 163 -236 296 -239 296
-2 0 -1 -8 3 -17z"/>
<path d="M630 1306 c-54 -19 -165 -70 -178 -82 -6 -4 262 -394 271 -394 5 0 6
3 4 8 -3 4 -8 113 -11 242 -4 129 -11 238 -14 242 -4 4 -36 -3 -72 -16z"/>
<path d="M1856 1321 c-2 -3 -8 -112 -11 -241 -4 -129 -9 -238 -12 -242 -2 -5
-1 -8 4 -8 7 0 273 382 273 393 0 7 -153 76 -203 91 -26 8 -49 11 -51 7z"/>
</g>
</svg>
