<?xml version="1.0" standalone="no"?>
<!DOCTYPE svg PUBLIC "-//W3C//DTD SVG 20010904//EN"
 "http://www.w3.org/TR/2001/REC-SVG-20010904/DTD/svg10.dtd">
<svg version="1.0" xmlns="http://www.w3.org/2000/svg"
 width="64.000000pt" height="64.000000pt" viewBox="0 0 64.000000 64.000000"
 preserveAspectRatio="xMidYMid meet">
<metadata>
Created by potrace 1.16, written by Peter Selinger 2001-2019
</metadata>
<g transform="translate(0.000000,64.000000) scale(0.100000,-0.100000)"
fill="#f2f2f2" stroke="none">
<path d="M277 493 c-53 -160 -61 -220 -42 -295 16 -62 69 -168 85 -168 16 0
69 106 85 168 13 50 14 73 5 124 -14 75 -79 278 -90 278 -4 0 -24 -48 -43
-107z m68 -125 c11 -29 19 -76 19 -103 0 -51 -28 -145 -44 -145 -16 0 -44 94
-44 145 0 47 31 155 44 155 3 0 15 -24 25 -52z"/>
<path d="M201 466 c-46 -58 -89 -96 -108 -96 -4 0 10 15 30 34 40 37 53 73 15
40 -93 -77 -118 -112 -118 -166 l0 -33 31 38 c33 40 76 67 122 76 25 5 31 15
56 89 15 45 26 82 25 82 -1 0 -25 -29 -53 -64z"/>
<path d="M411 450 c25 -76 31 -86 56 -91 46 -9 89 -36 122 -76 l31 -38 0 33
c0 54 -25 89 -117 166 -39 33 -26 -3 14 -40 20 -19 32 -34 25 -34 -14 0 -74
59 -124 120 l-36 45 29 -85z"/>
<path d="M134 317 c-22 -12 -22 -12 12 -62 l34 -50 0 63 c0 66 -6 72 -46 49z"/>
<path d="M460 268 l0 -63 34 50 c34 50 34 50 12 62 -40 23 -46 17 -46 -49z"/>
</g>
</svg>
