<svg xmlns="http://www.w3.org/2000/svg" width="682.667" height="682.667" version="1.0" viewBox="0 0 512 512">
    <g fill="#e5e5e5">
        <path d="M211.7 157.8c-24 24-43.7 44.2-43.7 44.7 0 .6 19.8 20.8 44 45l44 44 44-44c24.2-24.2 44-44.4 44-45 0-1-87-88.5-88-88.5-.3 0-20.2 19.7-44.3 43.8M3 215.4c.8.8 15.8 12.2 33.3 25.5L68.1 265h125.4L168 239.5 142.5 214H72c-60.4 0-70.2.2-69 1.4m341 24.1L318.5 265h125.4l31.8-24.1c17.5-13.3 32.5-24.7 33.3-25.5 1.2-1.2-8.6-1.4-69-1.4h-70.5z"/>
        <path d="M110 291.4c.8.8 12.8 10.1 26.5 20.5l25 19.1h189l25-19.1c13.8-10.4 25.7-19.7 26.5-20.5 1.2-1.2-5.6-1.4-53.5-1.4h-55l-18.7 18.7-18.8 18.8-18.8-18.8-18.7-18.7h-55c-47.9 0-54.7.2-53.5 1.4m93 66c0 .2 11.9 9.5 26.5 20.5l26.5 20.2 26.5-20.2c14.6-11 26.5-20.3 26.5-20.5s-23.8-.4-53-.4c-29.1 0-53 .2-53 .4"/>
    </g>
</svg>
