<?xml version="1.0" standalone="no"?>
<!DOCTYPE svg PUBLIC "-//W3C//DTD SVG 20010904//EN"
 "http://www.w3.org/TR/2001/REC-SVG-20010904/DTD/svg10.dtd">
<svg version="1.0" xmlns="http://www.w3.org/2000/svg"
 width="256.000000pt" height="256.000000pt" viewBox="0 0 256.000000 256.000000"
 preserveAspectRatio="xMidYMid meet">
<metadata>
Created by potrace 1.16, written by Peter Selinger 2001-2019
</metadata>
<g transform="translate(0.000000,256.000000) scale(0.100000,-0.100000)"
fill="#f2f2f2" stroke="none">
<path d="M761 2016 c-282 -282 -512 -518 -510 -523 8 -19 454 -411 458 -402
13 37 -17 88 -141 240 l-131 161 422 422 421 421 421 -421 422 -422 -131 -161
c-124 -152 -154 -203 -141 -240 4 -9 450 383 458 402 3 9 -1017 1037 -1029
1037 -3 0 -236 -231 -519 -514z"/>
<path d="M1204 1984 l-61 -24 -22 -73 -23 -73 -144 -49 c-121 -42 -144 -53
-144 -70 0 -11 11 -114 25 -229 l24 -209 -34 -49 c-19 -26 -35 -58 -35 -71 0
-39 70 -691 78 -721 6 -23 14 13 36 150 l29 179 42 37 c41 37 44 41 81 190 20
84 39 148 41 143 1 -6 11 -83 22 -171 l19 -161 56 -75 56 -75 0 -156 0 -157
-45 0 c-51 0 -50 2 -31 -87 11 -53 90 -202 106 -202 16 0 95 149 106 202 19
89 20 87 -31 87 l-45 0 0 157 0 156 56 75 56 75 19 161 c11 88 21 165 22 171
2 5 21 -59 41 -143 37 -149 40 -153 81 -190 l42 -37 28 -177 c16 -98 31 -175
33 -173 6 5 81 687 82 732 0 22 -12 49 -35 81 l-34 49 24 209 c14 115 25 218
25 229 0 17 -23 28 -144 70 l-144 49 -23 73 -22 73 -66 25 c-37 14 -71 25 -76
24 -6 0 -37 -12 -71 -25z"/>
</g>
</svg>
