<?xml version="1.0" standalone="no"?>
<!DOCTYPE svg PUBLIC "-//W3C//DTD SVG 20010904//EN"
 "http://www.w3.org/TR/2001/REC-SVG-20010904/DTD/svg10.dtd">
<svg version="1.0" xmlns="http://www.w3.org/2000/svg"
 width="512.000000pt" height="512.000000pt" viewBox="0 0 512.000000 512.000000"
 preserveAspectRatio="xMidYMid meet">
<metadata>
Created by potrace 1.16, written by Peter Selinger 2001-2019
</metadata>
<g transform="translate(0.000000,512.000000) scale(0.100000,-0.100000)"
fill="#f2f2f2" stroke="none">
<path d="M1314 4122 c-108 -86 -263 -242 -335 -337 -559 -731 -559 -1719 0
-2450 72 -95 227 -251 335 -337 l99 -79 46 52 c47 53 65 79 59 83 -32 20 -129
98 -187 149 -286 259 -485 607 -568 996 -25 116 -27 144 -27 361 0 217 2 245
27 361 95 445 345 841 697 1102 30 23 57 42 58 43 6 4 -12 30 -59 83 l-46 52
-99 -79z"/>
<path d="M3653 4139 c-29 -33 -53 -64 -53 -67 0 -4 22 -22 48 -39 26 -18 84
-66 130 -107 297 -266 495 -610 579 -1005 25 -116 27 -144 27 -361 0 -217 -2
-245 -27 -361 -83 -389 -282 -737 -568 -996 -58 -51 -155 -129 -187 -149 -6
-4 12 -30 59 -83 l46 -52 99 79 c108 86 263 242 335 337 559 731 559 1719 0
2450 -72 95 -227 251 -334 337 -54 43 -99 78 -100 78 -1 0 -26 -27 -54 -61z"/>
<path d="M1590 3833 c-41 -31 -118 -100 -170 -153 -218 -221 -363 -493 -431
-810 -20 -90 -23 -134 -23 -310 0 -176 3 -220 23 -310 32 -151 73 -268 141
-405 76 -153 170 -283 290 -405 89 -90 235 -210 256 -210 10 0 89 90 83 94
-64 40 -184 140 -249 206 -196 199 -335 459 -396 740 -27 122 -27 458 0 580
61 281 200 541 396 740 65 66 185 166 249 206 6 5 -73 94 -84 94 -5 0 -44 -26
-85 -57z"/>
<path d="M3396 3844 c-21 -25 -36 -46 -35 -48 64 -40 184 -140 249 -206 196
-199 335 -459 396 -740 27 -122 27 -458 0 -580 -61 -281 -200 -541 -396 -740
-65 -66 -185 -166 -249 -206 -6 -4 73 -94 83 -94 21 0 167 120 256 210 218
221 363 493 431 810 20 90 23 134 23 310 0 176 -3 220 -23 310 -32 151 -73
268 -141 405 -76 153 -170 283 -290 405 -89 90 -235 210 -256 210 -5 0 -27
-21 -48 -46z"/>
<path d="M1865 3558 c-145 -101 -302 -279 -382 -433 -96 -186 -137 -354 -137
-565 0 -211 41 -379 137 -565 81 -156 240 -335 386 -434 l63 -43 29 28 c16 15
29 30 29 33 0 3 -28 24 -63 46 -34 22 -105 82 -158 135 -154 152 -250 317
-306 528 -24 87 -26 115 -26 272 0 157 2 185 26 272 55 207 152 376 301 524
50 50 120 110 156 134 36 24 67 45 69 47 5 4 -50 63 -58 62 -3 0 -33 -19 -66
-41z"/>
<path d="M3155 3570 c-16 -16 -27 -31 -24 -33 2 -2 33 -23 69 -47 36 -24 106
-84 156 -134 149 -148 246 -317 301 -524 24 -87 26 -115 26 -272 0 -157 -2
-185 -26 -272 -56 -211 -152 -376 -306 -528 -53 -53 -124 -113 -158 -135 -35
-22 -63 -43 -63 -46 0 -3 13 -18 29 -33 l29 -28 63 43 c146 99 305 278 386
434 96 185 137 358 137 570 -1 338 -128 635 -375 871 -69 66 -196 164 -212
164 -2 0 -16 -13 -32 -30z"/>
<path d="M2476 3217 c-44 -182 -80 -334 -82 -335 -1 -2 -99 61 -216 140 -117
80 -219 148 -227 153 -19 11 -22 16 147 -233 79 -117 142 -215 140 -216 -1 -2
-153 -38 -335 -82 -183 -43 -333 -81 -333 -84 0 -3 150 -41 333 -84 182 -44
334 -80 335 -82 2 -1 -61 -99 -140 -216 -80 -117 -148 -219 -153 -227 -11 -19
-16 -22 233 147 117 79 215 142 216 140 2 -1 38 -153 82 -335 43 -183 81 -333
84 -333 3 0 41 150 84 333 44 182 80 334 82 335 1 2 99 -61 216 -140 249 -169
244 -166 233 -147 -5 8 -73 110 -153 227 -79 117 -142 215 -140 216 1 2 153
38 335 82 183 43 333 81 333 84 0 3 -150 41 -333 84 -182 44 -334 80 -335 82
-2 1 61 99 140 216 80 117 148 219 153 227 11 19 16 22 -233 -147 -117 -79
-215 -142 -216 -140 -2 1 -38 153 -82 335 -43 183 -81 333 -84 333 -3 0 -41
-150 -84 -333z"/>
</g>
</svg>
