<?xml version="1.0" standalone="no"?>
<!DOCTYPE svg PUBLIC "-//W3C//DTD SVG 20010904//EN"
 "http://www.w3.org/TR/2001/REC-SVG-20010904/DTD/svg10.dtd">
<svg version="1.0" xmlns="http://www.w3.org/2000/svg"
 width="512.000000pt" height="512.000000pt" viewBox="0 0 512.000000 512.000000"
 preserveAspectRatio="xMidYMid meet">
<metadata>
Created by potrace 1.16, written by Peter Selinger 2001-2019
</metadata>
<g transform="translate(0.000000,512.000000) scale(0.100000,-0.100000)"
fill="#f2f2f2" stroke="none">
<path d="M2346 2756 l-208 -1785 207 -203 c114 -112 211 -203 215 -203 4 0
101 91 215 203 l207 203 -208 1785 c-115 981 -211 1784 -214 1784 -3 0 -99
-803 -214 -1784z"/>
<path d="M1890 3332 c-216 -466 -402 -866 -414 -890 l-20 -43 56 -56 c41 -41
59 -53 62 -42 3 7 166 432 361 943 195 511 353 931 352 933 -2 1 -181 -379
-397 -845z"/>
<path d="M2834 4165 c4 -11 162 -425 351 -920 189 -495 349 -913 355 -929 l11
-29 54 53 c30 30 55 57 55 61 0 9 -820 1772 -827 1779 -3 3 -3 -4 1 -15z"/>
<path d="M1940 2587 c-128 -370 -237 -676 -242 -682 -5 -6 -140 122 -344 325
l-335 335 436 -660 c241 -363 443 -667 451 -675 12 -12 14 -12 14 5 0 11 59
470 130 1020 71 549 128 1000 127 1002 -2 1 -108 -300 -237 -670z"/>
<path d="M2944 3225 c12 -79 256 -1974 256 -1991 0 -16 2 -16 14 -4 8 8 210
312 451 675 l436 660 -335 -335 c-203 -203 -339 -331 -344 -325 -5 6 -113 312
-242 680 -128 369 -235 672 -237 675 -3 3 -2 -13 1 -35z"/>
</g>
</svg>
