<?xml version="1.0" standalone="no"?>
<!DOCTYPE svg PUBLIC "-//W3C//DTD SVG 20010904//EN"
 "http://www.w3.org/TR/2001/REC-SVG-20010904/DTD/svg10.dtd">
<svg version="1.0" xmlns="http://www.w3.org/2000/svg"
 width="256.000000pt" height="256.000000pt" viewBox="0 0 256.000000 256.000000"
 preserveAspectRatio="xMidYMid meet">
<metadata>
Created by potrace 1.16, written by Peter Selinger 2001-2019
</metadata>
<g transform="translate(0.000000,256.000000) scale(0.100000,-0.100000)"
fill="#f2f2f2" stroke="none">
<path d="M1240 2453 c-47 -85 -1036 -1076 -1127 -1129 -34 -20 -63 -40 -63
-43 0 -4 30 -30 68 -59 86 -65 1078 -1061 1121 -1124 18 -27 36 -48 40 -48 5
0 31 30 59 68 63 83 1036 1054 1114 1111 32 23 58 45 58 50 0 5 -30 27 -67 49
-95 57 -1074 1038 -1122 1125 -18 31 -36 57 -41 57 -4 0 -22 -26 -40 -57z
m105 -427 c28 -43 67 -98 88 -121 61 -70 42 -76 -47 -15 -96 65 -116 65 -213
-1 -34 -22 -67 -39 -73 -37 -6 2 26 55 71 117 45 63 85 128 90 145 5 17 9 81
9 142 0 61 3 114 8 118 4 4 9 -54 12 -131 l5 -138 50 -79z m-37 -440 c15 -8
84 -72 155 -144 132 -134 147 -160 111 -196 -33 -33 -56 -19 -201 126 -153
153 -168 179 -121 212 27 19 23 19 56 2z m-840 -140 c18 -30 32 -38 108 -63
106 -34 118 -48 81 -96 -43 -56 -37 -82 34 -150 208 -198 466 -436 496 -457
46 -32 133 -35 180 -5 17 11 151 132 297 268 247 230 266 250 266 282 0 22 -9
45 -27 65 -37 44 -24 59 76 92 90 29 109 41 122 76 5 13 13 22 18 20 5 -2 58
-51 119 -109 l110 -106 -481 -481 c-436 -435 -486 -482 -527 -492 -52 -14
-103 -9 -151 14 -19 9 -245 227 -504 486 l-470 470 110 110 c60 60 113 110
116 110 4 0 16 -15 27 -34z m849 -118 c150 -149 165 -174 127 -212 -32 -33
-55 -19 -201 126 -150 149 -162 170 -126 210 31 35 53 21 200 -124z m-123
-138 c107 -107 147 -154 142 -165 -3 -9 -6 -21 -6 -26 0 -5 -12 -14 -26 -19
-38 -15 -71 9 -212 155 -126 129 -138 150 -105 187 33 36 54 23 207 -132z"/>
<path d="M647 1001 c-85 -31 -95 -37 -81 -50 12 -11 196 49 202 67 6 19 -36
14 -121 -17z"/>
<path d="M1792 1018 c6 -16 193 -77 208 -68 16 10 -10 25 -103 56 -77 26 -111
30 -105 12z"/>
<path d="M835 895 c-5 -2 -43 -13 -82 -24 -46 -14 -73 -27 -73 -36 0 -26 38
-26 132 0 132 37 122 33 108 50 -11 13 -58 19 -85 10z"/>
<path d="M1641 886 c-10 -12 -9 -16 6 -24 35 -18 201 -55 217 -49 38 15 13 34
-79 60 -109 31 -128 33 -144 13z"/>
<path d="M931 719 c-47 -10 -89 -23 -93 -27 -5 -5 0 -19 10 -32 l19 -24 104
18 c57 10 118 21 134 25 l30 7 -29 27 c-34 32 -57 33 -175 6z"/>
<path d="M1460 714 c-21 -21 -22 -27 -10 -34 8 -5 26 -10 39 -10 13 0 64 -8
113 -17 l88 -17 22 22 c15 14 19 25 12 32 -9 9 -190 50 -223 50 -10 0 -28 -11
-41 -26z"/>
<path d="M1140 540 c-52 -5 -106 -13 -119 -18 l-24 -9 35 -38 35 -38 212 -1
212 -1 36 37 c20 21 34 40 31 43 -21 21 -278 37 -418 25z"/>
<path d="M1177 339 c30 -31 143 -40 191 -15 43 22 42 40 0 29 -43 -10 -133
-10 -178 0 l-35 9 22 -23z"/>
</g>
</svg>
