<svg xmlns="http://www.w3.org/2000/svg" width="341.333" height="341.333" version="1.0" viewBox="0 0 256 256">
    <g fill="#e5e5e5">
        <path d="M124 10.7c-4.7 8.5-103.6 107.6-112.7 112.9-3.4 2-6.3 4-6.3 4.3 0 .4 3 3 6.8 5.9 8.6 6.5 107.8 106.1 112.1 112.4 1.8 2.7 3.6 4.8 4 4.8.5 0 3.1-3 5.9-6.8 6.3-8.3 103.6-105.4 111.4-111.1 3.2-2.3 5.8-4.5 5.8-5s-3-2.7-6.7-4.9c-9.5-5.7-107.4-103.8-112.2-112.5-1.8-3.1-3.6-5.7-4.1-5.7-.4 0-2.2 2.6-4 5.7m10.5 42.7c2.8 4.3 6.7 9.8 8.8 12.1 6.1 7 4.2 7.6-4.7 1.5-9.6-6.5-11.6-6.5-21.3.1-3.4 2.2-6.7 3.9-7.3 3.7s2.6-5.5 7.1-11.7c4.5-6.3 8.5-12.8 9-14.5s.9-8.1.9-14.2.3-11.4.8-11.8c.4-.4.9 5.4 1.2 13.1l.5 13.8zm-3.7 44c1.5.8 8.4 7.2 15.5 14.4 13.2 13.4 14.7 16 11.1 19.6-3.3 3.3-5.6 1.9-20.1-12.6-15.3-15.3-16.8-17.9-12.1-21.2 2.7-1.9 2.3-1.9 5.6-.2m-84 14c1.8 3 3.2 3.8 10.8 6.3 10.6 3.4 11.8 4.8 8.1 9.6-4.3 5.6-3.7 8.2 3.4 15 20.8 19.8 46.6 43.6 49.6 45.7 4.6 3.2 13.3 3.5 18 .5 1.7-1.1 15.1-13.2 29.7-26.8 24.7-23 26.6-25 26.6-28.2 0-2.2-.9-4.5-2.7-6.5-3.7-4.4-2.4-5.9 7.6-9.2 9-2.9 10.9-4.1 12.2-7.6.5-1.3 1.3-2.2 1.8-2s5.8 5.1 11.9 10.9l11 10.6-48.1 48.1C143.1 221.3 138.1 226 134 227c-5.2 1.4-10.3.9-15.1-1.4-1.9-.9-24.5-22.7-50.4-48.6l-47-47 11-11c6-6 11.3-11 11.6-11 .4 0 1.6 1.5 2.7 3.4m84.9 11.8c15 14.9 16.5 17.4 12.7 21.2-3.2 3.3-5.5 1.9-20.1-12.6-15-14.9-16.2-17-12.6-21 3.1-3.5 5.3-2.1 20 12.4M119.4 137c10.7 10.7 14.7 15.4 14.2 16.5-.3.9-.6 2.1-.6 2.6s-1.2 1.4-2.6 1.9c-3.8 1.5-7.1-.9-21.2-15.5-12.6-12.9-13.8-15-10.5-18.7 3.3-3.6 5.4-2.3 20.7 13.2"/>
        <path d="M64.7 155.9c-8.5 3.1-9.5 3.7-8.1 5 1.2 1.1 19.6-4.9 20.2-6.7.6-1.9-3.6-1.4-12.1 1.7m114.5-1.7c.6 1.6 19.3 7.7 20.8 6.8 1.6-1-1-2.5-10.3-5.6-7.7-2.6-11.1-3-10.5-1.2m-95.7 12.3c-.5.2-4.3 1.3-8.2 2.4-4.6 1.4-7.3 2.7-7.3 3.6 0 2.6 3.8 2.6 13.2 0 13.2-3.7 12.2-3.3 10.8-5-1.1-1.3-5.8-1.9-8.5-1m80.6.9c-1 1.2-.9 1.6.6 2.4 3.5 1.8 20.1 5.5 21.7 4.9 3.8-1.5 1.3-3.4-7.9-6-10.9-3.1-12.8-3.3-14.4-1.3m-71 16.7c-4.7 1-8.9 2.3-9.3 2.7-.5.5 0 1.9 1 3.2l1.9 2.4 10.4-1.8c5.7-1 11.8-2.1 13.4-2.5l3-.7-2.9-2.7c-3.4-3.2-5.7-3.3-17.5-.6m52.9.5c-2.1 2.1-2.2 2.7-1 3.4.8.5 2.6 1 3.9 1s6.4.8 11.3 1.7l8.8 1.7 2.2-2.2c1.5-1.4 1.9-2.5 1.2-3.2-.9-.9-19-5-22.3-5-1 0-2.8 1.1-4.1 2.6M114 202c-5.2.5-10.6 1.3-11.9 1.8l-2.4.9 3.5 3.8 3.5 3.8 21.2.1 21.2.1 3.6-3.7c2-2.1 3.4-4 3.1-4.3-2.1-2.1-27.8-3.7-41.8-2.5m3.7 20.1c3 3.1 14.3 4 19.1 1.5 4.3-2.2 4.2-4 0-2.9-4.3 1-13.3 1-17.8 0l-3.5-.9z"/>
    </g>
</svg>
