<svg xmlns="http://www.w3.org/2000/svg" width="341.333" height="341.333" version="1.0" viewBox="0 0 256 256">
    <g fill="#e5e5e5">
        <path d="M146.6 17.7C137 28.8 133.4 32 130.4 32c-1.6 0-7.2-1.5-12.4-3.4-5.2-1.8-13.6-4.4-18.6-5.6-7.8-2.1-9.5-2.2-12.2-1.1-3.2 1.3-4 2.9-6.7 12.6-3.5 12.3-11.2 21-24.4 27.1-4.2 1.9-8.3 3.9-9.1 4.3-2.2 1.2-5.2 6.8-12.9 24.6-6.8 15.9-6.9 16.1-7.6 27.5-.6 10.1-1.1 12.5-4.1 19.3-3.4 7.8-4.1 11.1-2.6 13.4 1.1 1.7 6.7 3.9 13.7 5.3 10.6 2.2 14.4 5.2 17.1 13.4 1.3 4.1 3.4 6.8 10.3 13.6 7.2 7 9 9.5 10.9 14.5 2.6 7.2 4.7 9.4 21.2 21.6 17.8 13.1 16.1 12.6 34.8 8.9 9.8-1.9 18.8-4.4 24.6-6.8 8.3-3.4 9.9-3.7 18.6-3.7 8.5 0 10.1.3 14.9 2.9 8.5 4.4 10 3.5 16.1-9.4 5.3-11.2 5.8-14.2 4.5-25.3-.9-7.8-.1-9.4 7.5-13.2 6.1-3.2 10.1-7.7 14.4-16.2 5.2-10.4 5.1-10.7-4.1-22.1-6.1-7.6-5.9-9.1 3.2-17.8 4.1-4 7.7-8.4 8.1-9.9.3-1.4.1-5.2-.5-8.3s-2-11.8-3.1-19.2c-2.6-17-3.8-19-14.9-24.9-4.4-2.4-15.2-9.8-23.8-16.4-23.5-17.8-34.6-24.6-40.2-24.7-1.7 0-3.7 1.5-6.5 4.7m25.3 44c1.3 3.9 1.3 4.5-.4 6.3-1.9 2.1-1.9 2.1-4.6-1-1.5-1.6-3.4-3-4.1-3s-4.2 3.1-7.8 6.8c-5.7 6.1-9.6 9.2-11.4 9.2-1.2 0-.5-3.3 2.5-10.7 2.3-5.8 3-9 2.7-12.5l-.3-4.7 8-.3c7.7-.3 8.1-.2 11 2.7 1.7 1.6 3.7 4.9 4.4 7.2M71.1 87.2c7 11 13.3 15.8 20.3 15.8 5.2 0 7.6-1.2 16.2-8.4 6.6-5.5 10.4-7.8 10.4-6.3 0 1-7.1 21.1-8.5 24.1-1.8 3.7-4.9 5.3-9 4.7-1.1-.2-4.3-2.5-7.2-5.2-5-4.7-5.4-4.9-11-4.9-3.2 0-6.3.4-6.9.8-.7.5-.3 4 1.2 11.2 1.2 5.8 2.2 9.5 2.3 8.2.1-3.1 1.6-2.7 3.1.8 1.1 2.7 1.6 3 4.5 2.4 4-.7 9.9 1.7 14.1 5.7l3.2 3.1 4.8-4.9c2.7-2.6 7.6-6.2 10.9-8l6-3.1 3.5 2c5 2.9 8.1 1.9 12.2-4 4.5-6.6 7.9-9.6 9-8 .4.7.8 2.6.8 4.3 0 1.6.5 4.7 1.1 6.8.8 3 1.8 4.1 5.5 5.8 7.1 3.4 9.4 6.9 9.4 14.4 0 3.5.4 6.6.9 6.9.4.3 3.4-3.3 6.5-7.9 5.5-8.3 5.7-8.5 9.7-8.5 2.2 0 4.9-.4 5.9-1 1.1-.6 3.4-5.1 5.6-10.7 6.9-18.2 13-28.3 16.9-28.3 2.1 0 5.4 7.4 5.5 12 0 4.6-1.6 6.7-9.5 12.5-3.6 2.7-7.9 6.8-9.5 9.3-2.8 4.3-4.8 10.7-3.7 11.8.3.3 2.2.1 4.4-.5 5.9-1.7 7.9-1.4 9.1 1.4 1.3 2.8 1.4 2.7-5.8 5-10.9 3.5-13 5.6-14.5 14.2-.7 4.2-.6 4.3 2 4.3 1.4 0 5.6-1.6 9.2-3.5 7-3.7 11.3-4.3 15.2-2.1 2.4 1.3 2.3 1.4-4.9 6.2-11.2 7.4-11.5 8.1-11.5 23.2 0 12.5-.1 12.8-3.4 19.2-1.8 3.6-3.5 6.6-3.6 6.8-.2.2-2-.8-4.2-2.1-9.6-6.2-19.4-6.1-35.2.2-14.8 6-37.8 10.4-42.2 8.1-4.3-2.3-22.3-15.7-25.6-19.2-1.7-1.8-4.2-6-5.4-9.3-1.7-4.7-3.7-7.4-8.9-12.5-9.5-9.2-13.4-15.2-12.6-19.4.4-1.8 1.5-4.1 2.5-5 1.6-1.5 1.9-1.5 3.5.3.9 1 2.3 5.3 3 9.5 2.1 12.3 2.9 12.3 10.9-.2 5.3-8.5 6.6-11.2 6.2-13.3-.5-2.1 0-3.1 2.1-4.8 1.5-1.1 3.3-2.1 4-2.1 2.1 0 1.7-2.2-1-5.5l-2.5-3-3.2 1.8c-3 1.6-3.3 1.7-5 .1-1.8-1.6-2-1.4-3.9 3l-2 4.8-5.1-4.1c-4-3.2-6-4.1-9-4.1-6.9 0-11.9 3.1-11.9 7.5 0 2 .8 2.7 4 3.6 2.8.9 4 1.8 4 3.1 0 1-.3 1.8-.7 1.8-.5 0-5.7-1.6-11.6-3.6l-10.8-3.6 5.2-9.6c2.8-5.4 7.3-12 10-14.8 2.6-2.8 6.4-7.8 8.5-11 5.2-8.4 7.3-10.4 10.6-10.4 3.2 0 3.2.2 1.7-9.1-1-6.2-.8-9.9.5-9.9.2 0 1.9 2.4 3.7 5.2"/>
        <path d="M133 141c-.8.5-4.1 1.7-7.4 2.7-5.3 1.5-6.4 2.3-11.9 9-5.9 7.3-6.1 7.4-7.4 5.1-1.7-3.1-1.6-6.9.3-9.6 1.8-2.6.6-2.8-3.6-.7-3.7 1.9-6 6.3-6 11.4 0 3.5.6 4.4 5.2 8.5l5.3 4.6 3.5-7c2-3.9 3.9-6.8 4.3-6.4 1.2 1.2.8 10.3-.7 13.7-1.6 3.9-4.2 6.2-8 7.1l-2.9.7 5.9 6c8.4 8.6 8.2 8.5 14.3 3.2 5.6-4.9 7.9-8.6 10.7-17.6l1.8-5.8-3-2.4c-1.6-1.3-2.7-2.5-2.4-2.8.3-.2 2.6-1.6 5.2-3.1 6.7-3.9 14.1-4.5 19.6-1.7 2.4 1.2 4.7 1.9 5.2 1.6 1.7-1.1 1.2-10.1-.7-12.2-3.2-3.5-23.6-6.7-27.3-4.3m20 30.5c-3.8 1.4-3.8 1.7-.9 8.3 1.1 2.5 2.4 4.2 3.1 4 1.7-.6 3.9-13.8 2.4-13.7-.6 0-2.7.6-4.6 1.4m-73 11.9c0 2.8.8 4.1 4.4 7.3 2.4 2.1 6 4.7 8 5.8l3.5 1.9 3.1-2.9c1.7-1.6 3-3.9 3-5.2 0-2.3-.2-2.3-5-1.7-6.3.8-10.3-.8-13.1-5.2q-3.9-6.45-3.9 0"/>
    </g>
</svg>
