<?xml version="1.0" standalone="no"?>
<!DOCTYPE svg PUBLIC "-//W3C//DTD SVG 20010904//EN"
 "http://www.w3.org/TR/2001/REC-SVG-20010904/DTD/svg10.dtd">
<svg version="1.0" xmlns="http://www.w3.org/2000/svg"
 width="256.000000pt" height="256.000000pt" viewBox="0 0 256.000000 256.000000"
 preserveAspectRatio="xMidYMid meet">
<metadata>
Created by potrace 1.16, written by Peter Selinger 2001-2019
</metadata>
<g transform="translate(0.000000,256.000000) scale(0.100000,-0.100000)"
fill="#f2f2f2" stroke="none">
<path d="M1466 2383 c-96 -111 -132 -143 -162 -143 -16 0 -72 15 -124 34 -52
18 -136 44 -186 56 -78 21 -95 22 -122 11 -32 -13 -40 -29 -67 -126 -35 -123
-112 -210 -244 -271 -42 -19 -83 -39 -91 -43 -22 -12 -52 -68 -129 -246 -68
-159 -69 -161 -76 -275 -6 -101 -11 -125 -41 -193 -34 -78 -41 -111 -26 -134
11 -17 67 -39 137 -53 106 -22 144 -52 171 -134 13 -41 34 -68 103 -136 72
-70 90 -95 109 -145 26 -72 47 -94 212 -216 178 -131 161 -126 348 -89 98 19
188 44 246 68 83 34 99 37 186 37 85 0 101 -3 149 -29 85 -44 100 -35 161 94
53 112 58 142 45 253 -9 78 -1 94 75 132 61 32 101 77 144 162 52 104 51 107
-41 221 -61 76 -59 91 32 178 41 40 77 84 81 99 3 14 1 52 -5 83 -6 31 -20
118 -31 192 -26 170 -38 190 -149 249 -44 24 -152 98 -238 164 -235 178 -346
246 -402 247 -17 0 -37 -15 -65 -47z m253 -440 c13 -39 13 -45 -4 -63 -19 -21
-19 -21 -46 10 -15 16 -34 30 -41 30 -7 0 -42 -31 -78 -68 -57 -61 -96 -92
-114 -92 -12 0 -5 33 25 107 23 58 30 90 27 125 l-3 47 80 3 c77 3 81 2 110
-27 17 -16 37 -49 44 -72z m-1008 -255 c70 -110 133 -158 203 -158 52 0 76 12
162 84 66 55 104 78 104 63 0 -10 -71 -211 -85 -241 -18 -37 -49 -53 -90 -47
-11 2 -43 25 -72 52 -50 47 -54 49 -110 49 -32 0 -63 -4 -69 -8 -7 -5 -3 -40
12 -112 12 -58 22 -95 23 -82 1 31 16 27 31 -8 11 -27 16 -30 45 -24 40 7 99
-17 141 -57 l32 -31 48 49 c27 26 76 62 109 80 l60 31 35 -20 c50 -29 81 -19
122 40 45 66 79 96 90 80 4 -7 8 -26 8 -43 0 -16 5 -47 11 -68 8 -30 18 -41
55 -58 71 -34 94 -69 94 -144 0 -35 4 -66 9 -69 4 -3 34 33 65 79 55 83 57 85
97 85 22 0 49 4 59 10 11 6 34 51 56 107 69 182 130 283 169 283 21 0 54 -74
55 -120 0 -46 -16 -67 -95 -125 -36 -27 -79 -68 -95 -93 -28 -43 -48 -107 -37
-118 3 -3 22 -1 44 5 59 17 79 14 91 -14 13 -28 14 -27 -58 -50 -109 -35 -130
-56 -145 -142 -7 -42 -6 -43 20 -43 14 0 56 16 92 35 70 37 113 43 152 21 24
-13 23 -14 -49 -62 -112 -74 -115 -81 -115 -232 0 -125 -1 -128 -34 -192 -18
-36 -35 -66 -36 -68 -2 -2 -20 8 -42 21 -96 62 -194 61 -352 -2 -148 -60 -378
-104 -422 -81 -43 23 -223 157 -256 192 -17 18 -42 60 -54 93 -17 47 -37 74
-89 125 -95 92 -134 152 -126 194 4 18 15 41 25 50 16 15 19 15 35 -3 9 -10
23 -53 30 -95 21 -123 29 -123 109 2 53 85 66 112 62 133 -5 21 0 31 21 48 15
11 33 21 40 21 21 0 17 22 -10 55 l-25 30 -32 -18 c-30 -16 -33 -17 -50 -1
-18 16 -20 14 -39 -30 l-20 -48 -51 41 c-40 32 -60 41 -90 41 -69 0 -119 -31
-119 -75 0 -20 8 -27 40 -36 28 -9 40 -18 40 -31 0 -10 -3 -18 -7 -18 -5 0
-57 16 -116 36 l-108 36 52 96 c28 54 73 120 100 148 26 28 64 78 85 110 52
84 73 104 106 104 32 0 32 -2 17 91 -10 62 -8 99 5 99 2 0 19 -24 37 -52z"/>
<path d="M1330 1150 c-8 -5 -41 -17 -74 -27 -53 -15 -64 -23 -119 -90 -59 -73
-61 -74 -74 -51 -17 31 -16 69 3 96 18 26 6 28 -36 7 -37 -19 -60 -63 -60
-114 0 -35 6 -44 52 -85 l53 -46 35 70 c20 39 39 68 43 64 12 -12 8 -103 -7
-137 -16 -39 -42 -62 -80 -71 l-29 -7 59 -60 c84 -86 82 -85 143 -32 56 49 79
86 107 176 l18 58 -30 24 c-16 13 -27 25 -24 28 3 2 26 16 52 31 67 39 141 45
196 17 24 -12 47 -19 52 -16 17 11 12 101 -7 122 -32 35 -236 67 -273 43z"/>
<path d="M1530 845 c-38 -14 -38 -17 -9 -83 11 -25 24 -42 31 -40 17 6 39 138
24 137 -6 0 -27 -6 -46 -14z"/>
<path d="M800 726 c0 -28 8 -41 44 -73 24 -21 60 -47 80 -58 l35 -19 31 29
c17 16 30 39 30 52 0 23 -2 23 -50 17 -63 -8 -103 8 -131 52 -26 43 -39 43
-39 0z"/>
</g>
</svg>
