<svg xmlns="http://www.w3.org/2000/svg" width="341.333" height="341.333" version="1.0" viewBox="0 0 256 256">
    <g fill="#e5e5e5">
        <path d="M125.6 1.2c-.3.7-.7 7.5-.9 15.2l-.5 13.9-12.8 21.1c-9.2 15.2-12.8 22.2-13.2 25.1-.4 3.6.6 6.2 7.8 20.4 4.4 9 7.9 16.5 7.6 16.8-.2.3-7.6-3.2-16.3-7.6-20.7-10.5-21-10.5-36.3-.6-3.6 2.4-12.1 7.6-18.9 11.6l-12.5 7.3-14 .3c-7.7.2-14.5.8-15.1 1.4s-.6 1.5.1 2.7c1 1.4 3.1 1.7 14.9 2l13.7.3 21.7 13c15.3 9.3 22.8 13.3 25.6 13.6 3.5.4 6.1-.5 20.3-7.7 9-4.5 16.6-7.9 16.8-7.7.3.3-3.2 7.8-7.6 16.8-7.2 14.3-8.2 16.8-7.7 20.4.3 3 3.1 8.5 10 19.7 5.3 8.5 11.1 18.4 13 22 3.4 6.4 3.4 6.5 3.2 18.7-.2 10.3.1 12.6 1.5 14.4 1.5 1.8 2 1.9 3.3.9 1.2-1.1 1.6-4.2 1.9-15.5l.3-14.2 11.8-19.3c12.5-20.3 14.7-24.6 14.7-28.6 0-1.3-3.6-9.7-8-18.6-4.5-8.9-7.9-16.4-7.7-16.7.3-.2 7.8 3.2 16.7 7.7 10 4.9 17.4 8 19.4 8 3.4 0 5.8-1.3 30.7-16.5l16.4-10 14.2-.3c14.6-.4 17.3-1.1 15.9-4.7-.4-1.2-2.9-1.5-14.4-1.5h-13.8l-18-10.6c-26.8-16-27.5-16.4-31.6-16.4-2.6 0-7.9 2.2-19.3 8.1-8.6 4.4-15.9 7.9-16.2 7.6-.2-.3 3.2-7.9 7.7-16.9 10.2-20.3 10.2-19.7-.8-37.6-4.3-7-10-16.5-12.8-21.2l-4.9-8.5L131 15C130.5.9 130.4.5 128.2.2c-1.2-.2-2.4.3-2.6 1m4.2 37.2c.9 2 .8 2.5-.4 3-2.4.9-1.1 3 2.2 3.6 4.2.7 4.4 3.8.3 4.2-5.1.5-4.9 2.8.2 2.8 3.9 0 7.9 2.1 7.9 4.1 0 .4-2.6.9-5.7 1.1-3.4.2-5.8.8-6.1 1.5-.3 1 1.5 1.3 6.7 1.3 6.1 0 7.2.3 8.6 2.2l1.6 2.3-8.1.5c-4.4.3-8 .9-8 1.5s3.9 1.1 9 1.3c7.1.2 9.2.6 9.7 1.8 1 2.6-1.7 3.4-11 3.4-6.6 0-8.8.3-8.5 1.2.3.8 2.8 1.4 6.6 1.6 3.4.2 6.2.7 6.2 1.2 0 1.9-4.6 4-8.8 4-4.6 0-5.6 2.2-1.3 2.8 2.8.4 2.4 1.9-1.1 4l-2.7 1.6-9.3-8.9c-5.1-5-9.3-9.7-9.2-10.5 0-1.8 18.5-34 19.4-34 .4 0 1.2 1.1 1.8 2.4m2.4 68.3c2.6 2.6 4.8 5.2 4.8 5.8 0 1.6-8.3 9.5-10 9.5-1.6 0-10-7.9-10-9.4 0-1 9-10.6 9.9-10.6.3 0 2.7 2.1 5.3 4.7m-51.9 10.7c4.8 5.2 8.7 9.8 8.7 10.3s-1.1 2-2.5 3.3l-2.5 2.3v-2.6c0-1.7-.5-2.7-1.5-2.7-1.1 0-1.5 1.2-1.5 4.7 0 4.3-2 8.3-4.1 8.3-.4 0-.9-2.8-1.1-6.3-.4-9.3-2.3-7.6-2.6 2.5-.2 6.2-.7 9-1.8 9.9-2.5 2-3.3-.1-3.6-9.5-.2-6-.7-9.1-1.5-9.4-1-.3-1.3 1.8-1.3 8.3v8.7l-2.2-1.4c-2-1.3-2.3-2.6-2.6-8.7-.4-8.9-2.5-9.4-3-.8-.2 3.1-.6 5.7-.9 5.7-2.2 0-4.3-3.7-4.3-7.7 0-4.3-1.2-5.7-2.4-2.7-.3.9-.6 2.7-.6 4 0 2.2-.2 2.3-2 1.2-1.1-.7-2-2-2-2.8s-.5-2.2-1-3c-.9-1.3-1.2-1.3-2 .2-.9 1.4-1.5 1.5-3.5.6-1.4-.6-2.5-1.4-2.5-1.8 0-.8 33.1-20 34.5-20 .6 0 4.9 4.3 9.8 9.4m122.9.3 16.9 9.8-2.3 1.8c-2.1 1.7-2.3 1.7-3.4.2-1.5-2-3.4-1.2-3.4 1.4 0 2.2-2.5 4.5-4 3.6-.5-.3-1-2-1-3.6 0-4.8-2.5-2.9-2.8 2.2-.3 4.2-1.6 6.9-3.3 6.9-.4 0-.9-2.6-1.1-5.7-.2-3.4-.8-5.8-1.5-6.1-1-.3-1.3 1.5-1.3 6.7 0 6.1-.3 7.2-2.2 8.6l-2.3 1.6-.5-8.2c-.3-5.2-1-8.4-1.7-8.6-.9-.3-1.3 2.2-1.5 9.4-.3 9-.5 9.8-2.3 9.8s-2-.8-2.3-9.8c-.2-7.7-.6-9.7-1.7-9.7-1.2 0-1.5 1.5-1.5 6.5 0 3.6-.4 6.5-.9 6.5-2 0-4.1-4.6-4.1-8.8 0-3-.4-4.2-1.2-4-.7.3-1.4 1.4-1.6 2.6s-.6 2.2-.9 2.2c-1.3 0-4.3-3.4-4.3-4.7 0-1.6 17-20.3 18.4-20.3.5 0 8.5 4.4 17.8 9.7m-53.3 4.7 5.4 5.4-4.8 5.1c-2.6 2.8-5.3 5.1-5.9 5.1-1.3 0-10.6-9.1-10.6-10.4 0-1.1 9-10.6 10-10.6.3 0 3 2.4 5.9 5.4m-33.4.6 5 5-5.3 5.3-5.2 5.2-5.2-5.2-5.3-5.3 5-5c2.7-2.7 5.2-5 5.5-5s2.8 2.3 5.5 5m15.7 14.7c2.6 2.6 4.8 5.2 4.8 5.8s-2.2 3.3-5 6l-5 4.9-5-4.9c-2.7-2.7-5-5.4-5-5.9 0-1 9-10.6 9.9-10.6.3 0 2.7 2.1 5.3 4.7m6.1 37.9c5.1 4.7 9.4 9 9.5 9.5.4.9-13.8 25.9-18.1 32.3l-2 2.8-1.3-2.3c-1.8-3.2-1.7-3.9.2-3.9 2.6 0 .9-2.5-1.9-2.8-3.3-.4-5.5-3.7-3.1-4.6.9-.3 2.7-.6 4-.6 4.5 0 2.4-1.7-2.7-2.2-4.5-.5-6.8-1.8-6.9-4 0-.4 2.6-.8 5.7-1 3.4-.2 5.8-.8 6.1-1.6.3-.9-1.5-1.2-6.7-1.2-6.1 0-7.2-.3-8.6-2.3l-1.6-2.2 8.1-.5c11.2-.7 10.6-2.4-1-3-8.7-.5-9.5-.7-9.5-2.5s.8-2 9.8-2.3c7.7-.2 9.7-.6 9.7-1.7 0-1.2-1.5-1.5-6.5-1.5-3.6 0-6.5-.3-6.5-.7 0-.3.7-1.5 1.7-2.5 1.1-1.3 3-1.8 6.5-1.8 3.6 0 4.8-.4 4.8-1.5 0-1-1-1.5-3.2-1.5h-3.1l2.3-2.5c1.3-1.4 3-2.5 3.8-2.5s5.5 3.9 10.5 8.6"/>
        <path d="M66.7 22.2c-.9.5-1.7 1.4-1.7 2 0 1.7 21.2 33 21.8 32.3.8-.8-15.9-34.3-17.3-34.9-.6-.2-1.9 0-2.8.6m109.8 17.5c-4.7 9.7-8.3 17.8-8.1 18.1 1 .9 22.5-32.8 22-34.3-.4-.8-1.7-1.5-3-1.5-2 0-3.4 2.3-10.9 17.7M22.4 66.4c-1.1 2.9.4 4.5 7.7 8.2 13.8 6.9 28 13.3 27.3 12.3-.9-1.4-30.5-21.1-32.6-21.7-1-.2-2 .2-2.4 1.2m191.9 9.3c-8.9 5.9-16.3 11.1-16.3 11.5 0 .7 23.7-10.3 31.5-14.5 3-1.7 4-2.9 4-4.7 0-1.4-.6-2.6-1.5-2.8-.9-.1-8.8 4.6-17.7 10.5m-166 109.9c-13.6 8.8-16.3 11-16.3 13 0 4.2 3.9 2.9 11.5-3.7C61.1 179.5 66 175 65.3 175c-.4 0-8.1 4.8-17 10.6m152.2-1.2c16 14.4 19.2 16.8 21.2 16.4 1-.2 1.9-1.3 2.1-2.4.2-1.8-2.5-4-15.3-12.3-8.6-5.6-16.4-10.5-17.3-10.9-1-.3 3.3 3.8 9.3 9.2M95.7 202.3C93.4 205.8 79 234.8 79 236c0 1.4 3.4 3 4.8 2.1 1-.6 14.6-38.1 13.8-38.1-.2 0-1.1 1-1.9 2.3m63.3-.8c0 2.3 11.3 34.7 12.7 36 1.6 1.7 5.3.4 5.3-1.8-.1-1.5-17.9-35.6-18-34.2"/>
    </g>
</svg>
