<?xml version="1.0" standalone="no"?>
<!DOCTYPE svg PUBLIC "-//W3C//DTD SVG 20010904//EN"
 "http://www.w3.org/TR/2001/REC-SVG-20010904/DTD/svg10.dtd">
<svg version="1.0" xmlns="http://www.w3.org/2000/svg"
 width="256.000000pt" height="256.000000pt" viewBox="0 0 256.000000 256.000000"
 preserveAspectRatio="xMidYMid meet">
<metadata>
Created by potrace 1.16, written by Peter Selinger 2001-2019
</metadata>
<g transform="translate(0.000000,256.000000) scale(0.100000,-0.100000)"
fill="#f2f2f2" stroke="none">
<path d="M1200 2390 c-56 -19 -100 -58 -100 -89 0 -42 104 -101 180 -101 45 0
131 30 156 55 49 49 19 103 -74 137 -62 22 -95 21 -162 -2z"/>
<path d="M855 2331 c-102 -43 -176 -85 -252 -142 l-53 -39 29 -48 c16 -26 33
-59 36 -75 4 -15 10 -29 14 -32 4 -2 36 37 72 88 35 50 108 135 162 189 55 54
95 98 90 98 -4 0 -48 -18 -98 -39z"/>
<path d="M1699 2273 c90 -90 221 -252 221 -274 0 -22 19 -6 25 20 3 16 19 50
36 75 16 26 29 50 29 54 -1 12 -112 88 -190 131 -61 33 -198 91 -215 91 -2 0
40 -44 94 -97z"/>
<path d="M857 2099 c-69 -70 -131 -137 -137 -149 l-12 -23 31 23 c47 33 168
98 236 127 74 31 72 29 52 51 -9 10 -23 36 -31 58 l-14 39 -125 -126z"/>
<path d="M1558 2161 c-15 -31 -22 -58 -17 -60 32 -11 230 -112 259 -133 61
-42 65 -43 43 -12 -32 44 -179 199 -221 232 l-37 30 -27 -57z"/>
<path d="M1019 2036 c-106 -46 -201 -99 -286 -160 -68 -47 -75 -56 -104 -125
-58 -138 -81 -250 -86 -422 -6 -183 10 -340 33 -317 8 7 62 81 121 163 l108
149 84 28 c46 15 85 29 87 30 1 2 -6 43 -16 92 l-18 89 23 87 c25 91 107 326
131 372 16 30 18 48 7 48 -5 0 -42 -15 -84 -34z"/>
<path d="M1220 1939 c-38 -99 -110 -323 -110 -345 0 -2 21 7 48 19 60 27 178
29 236 4 22 -10 41 -15 44 -12 15 14 -140 465 -160 465 -4 0 -30 -59 -58 -131z"/>
<path d="M1455 2061 c-3 -5 9 -45 26 -88 50 -126 80 -212 109 -314 26 -91 27
-98 14 -165 -22 -114 -25 -107 74 -143 l87 -31 114 -161 c96 -135 116 -158
122 -141 17 46 31 231 25 327 -13 201 -80 432 -143 492 -49 47 -204 140 -316
190 -109 48 -104 46 -112 34z"/>
<path d="M433 2017 c-147 -160 -243 -355 -283 -579 -11 -61 -20 -113 -20 -114
0 -1 26 -10 57 -19 76 -22 152 -66 208 -121 25 -24 47 -44 48 -44 1 0 2 75 2
168 0 194 14 278 77 444 l40 107 -21 63 c-12 35 -31 80 -44 101 l-23 38 -41
-44z"/>
<path d="M2068 2025 c-14 -22 -35 -70 -47 -107 -22 -66 -22 -67 -3 -105 29
-55 78 -216 93 -303 7 -41 13 -141 14 -221 l0 -146 54 49 c58 53 120 88 191
109 25 7 49 16 53 20 12 9 -10 147 -39 248 -45 155 -138 322 -247 446 l-44 49
-25 -39z"/>
<path d="M1213 1471 c-79 -36 -120 -135 -89 -216 32 -82 108 -126 192 -111 45
9 109 67 125 113 27 83 -14 177 -95 214 -52 23 -80 23 -133 0z"/>
<path d="M790 1078 c-74 -104 -137 -195 -139 -201 -2 -6 14 3 35 19 46 36 149
99 184 113 14 5 51 21 82 35 l57 25 -29 58 c-16 32 -32 77 -36 101 -3 23 -9
42 -13 41 -3 0 -67 -86 -141 -191z"/>
<path d="M1616 1223 c-3 -26 -20 -72 -36 -101 l-29 -53 37 -15 c91 -37 167
-76 234 -121 40 -26 80 -52 88 -57 8 -5 -2 13 -22 40 -19 27 -84 117 -142 199
-59 83 -111 151 -115 153 -5 1 -11 -19 -15 -45z"/>
<path d="M140 1193 c0 -16 7 -72 16 -124 26 -148 91 -316 167 -429 39 -59 129
-171 134 -167 1 2 -24 62 -56 133 -72 158 -85 203 -33 108 128 -230 255 -394
342 -443 l43 -24 -46 65 c-62 86 -187 291 -181 297 2 2 5 2 7 0 79 -113 232
-277 312 -334 95 -67 95 -64 -1 37 -104 109 -195 240 -256 366 -62 132 -294
422 -410 513 l-38 31 0 -29z"/>
<path d="M2322 1129 c-128 -125 -293 -342 -351 -460 -73 -146 -152 -258 -280
-393 l-56 -59 65 44 c77 52 177 152 268 266 36 46 67 81 69 79 6 -5 -61 -118
-141 -236 -87 -129 -85 -125 -43 -100 85 51 209 206 321 406 31 54 56 94 56
87 0 -7 -27 -71 -60 -144 -33 -73 -58 -134 -56 -136 5 -6 76 82 126 156 87
130 161 330 175 475 4 34 8 71 11 84 2 12 1 22 -4 22 -5 0 -50 -41 -100 -91z"/>
<path d="M1108 915 c-11 -42 -15 -46 -78 -70 -68 -27 -182 -91 -237 -133 l-32
-24 -36 27 c-19 15 -35 23 -35 18 0 -31 235 -313 260 -313 5 0 18 20 30 45 28
58 78 101 165 141 l71 33 12 114 c16 154 16 167 -5 167 -10 0 -37 9 -61 20
l-42 19 -12 -44z"/>
<path d="M1382 936 c-28 -13 -54 -25 -57 -28 -3 -3 1 -63 10 -134 8 -71 15
-132 15 -135 0 -4 27 -16 60 -28 72 -26 163 -106 180 -156 6 -19 15 -35 19
-35 15 0 177 175 217 235 57 85 60 90 43 80 -8 -5 -26 -16 -40 -27 l-27 -18
-68 47 c-38 25 -107 64 -154 85 -47 21 -92 43 -100 47 -8 4 -19 27 -24 50 -5
22 -12 40 -15 40 -3 -1 -30 -11 -59 -23z"/>
<path d="M1221 449 c-54 -10 -123 -50 -145 -83 -39 -60 -7 -134 78 -179 62
-33 193 -31 261 4 53 27 95 77 95 114 0 89 -162 170 -289 144z m174 -84 c33
-13 65 -41 65 -55 0 -5 -14 -1 -31 7 -53 26 -202 29 -272 6 l-57 -20 13 21
c38 58 189 80 282 41z"/>
</g>
</svg>
