<?xml version="1.0" standalone="no"?>
<!DOCTYPE svg PUBLIC "-//W3C//DTD SVG 20010904//EN"
 "http://www.w3.org/TR/2001/REC-SVG-20010904/DTD/svg10.dtd">
<svg version="1.0" xmlns="http://www.w3.org/2000/svg"
 width="256.000000pt" height="256.000000pt" viewBox="0 0 256.000000 256.000000"
 preserveAspectRatio="xMidYMid meet">
<metadata>
Created by potrace 1.16, written by Peter Selinger 2001-2019
</metadata>
<g transform="translate(0.000000,256.000000) scale(0.100000,-0.100000)"
fill="#f2f2f2" stroke="none">
<path d="M1138 2299 c-147 -6 -174 -10 -221 -32 -72 -33 -167 -126 -167 -164
0 -23 -9 -34 -48 -58 -26 -16 -120 -100 -210 -185 -222 -211 -242 -254 -240
-502 0 -68 -5 -173 -12 -233 -18 -158 -11 -178 128 -323 100 -105 110 -113
156 -121 55 -10 76 -30 76 -73 0 -16 5 -28 13 -28 6 0 36 -37 66 -82 43 -63
63 -84 92 -96 25 -9 42 -25 50 -44 14 -34 55 -55 170 -86 222 -61 426 -54 649
21 86 29 95 35 100 61 3 18 16 34 36 44 16 10 143 132 280 272 283 288 283
289 270 418 -4 37 -11 155 -15 262 -12 274 -20 293 -198 463 -81 77 -96 87
-128 87 -20 0 -45 5 -57 11 -17 9 -19 17 -14 54 6 38 4 45 -20 64 -15 12 -35
21 -45 21 -22 0 -39 29 -39 64 0 29 -83 102 -159 141 -114 57 -155 61 -513 44z
m-148 -277 c12 -31 24 -79 26 -107 l5 -50 -36 39 c-50 56 -85 133 -91 202 l-5
59 40 -43 c22 -24 50 -69 61 -100z m657 84 c-3 -29 -15 -73 -27 -97 -27 -53
-82 -128 -94 -129 -16 0 3 100 29 158 29 64 71 122 87 122 7 0 9 -18 5 -54z
m-594 -570 c-4 -6 -26 -40 -48 -76 -90 -140 -86 -196 14 -219 37 -8 108 -58
97 -68 -1 -2 -32 6 -67 16 -35 11 -65 18 -67 16 -8 -7 46 -72 77 -95 71 -50
143 -74 221 -75 66 0 85 5 143 33 64 32 137 100 137 129 0 17 3 18 -75 -18
-37 -16 -70 -28 -73 -25 -12 12 70 75 106 81 62 11 93 27 103 54 14 37 5 61
-61 164 -32 51 -55 94 -49 96 13 4 269 -257 269 -275 0 -8 -17 -48 -37 -91
-40 -80 -91 -131 -210 -211 -29 -19 -53 -41 -53 -48 0 -18 64 11 220 96 l115
63 55 -11 c113 -24 240 -104 240 -152 0 -27 -38 -68 -83 -91 -56 -29 -143
-113 -175 -171 -15 -26 -32 -48 -39 -48 -20 0 -73 -51 -94 -91 -11 -22 -22
-39 -25 -39 -21 0 -63 35 -84 70 -69 114 -101 160 -111 160 -14 0 -4 -63 22
-139 11 -30 19 -71 19 -92 0 -62 -10 -64 -290 -60 -135 1 -246 4 -247 4 0 1
12 60 27 132 16 71 26 132 24 134 -11 12 -42 -20 -80 -84 -47 -77 -79 -100
-118 -85 -15 5 -31 20 -37 33 -6 13 -26 32 -45 42 -19 10 -59 51 -89 91 -63
83 -125 139 -163 149 -77 19 -94 66 -40 115 17 16 83 55 147 88 l116 59 36
-36 c21 -22 63 -48 105 -65 38 -16 97 -41 130 -57 34 -16 64 -29 68 -29 21 0
-6 26 -91 90 -157 117 -190 155 -207 237 -7 29 1 40 121 176 71 80 134 142
140 140 7 -3 10 -10 6 -17z m-512 -106 c141 -38 191 -73 147 -104 -18 -13 -19
-18 -9 -47 6 -17 11 -43 11 -56 0 -32 -42 -73 -75 -73 -20 0 -29 -8 -41 -36
-15 -36 -60 -64 -104 -64 -13 0 -28 -12 -38 -30 -9 -16 -20 -30 -23 -30 -4 0
-12 27 -19 60 -9 45 -10 95 -4 197 5 76 8 166 7 201 l-2 63 33 -29 c22 -19 61
-37 117 -52z m1650 -72 c14 -125 4 -240 -28 -333 l-16 -48 -13 31 c-15 36 -41
52 -86 52 -27 0 -36 6 -48 33 -10 21 -34 42 -70 62 -61 34 -70 53 -50 118 10
35 10 40 -9 54 -35 24 -10 47 91 87 51 20 118 50 148 65 67 35 63 40 81 -121z"/>
<path d="M1410 1033 c-82 -39 -178 -43 -259 -10 l-62 25 24 -31 c62 -80 132
-110 222 -93 36 7 82 46 124 105 27 37 23 37 -49 4z"/>
<path d="M1171 840 c-114 -24 -53 -55 109 -55 95 0 121 3 150 19 l35 20 -35 8
c-58 13 -212 18 -259 8z"/>
</g>
</svg>
