<?xml version="1.0" standalone="no"?>
<!DOCTYPE svg PUBLIC "-//W3C//DTD SVG 20010904//EN"
 "http://www.w3.org/TR/2001/REC-SVG-20010904/DTD/svg10.dtd">
<svg version="1.0" xmlns="http://www.w3.org/2000/svg"
 width="256.000000pt" height="256.000000pt" viewBox="0 0 256.000000 256.000000"
 preserveAspectRatio="xMidYMid meet">
<metadata>
Created by potrace 1.16, written by Peter Selinger 2001-2019
</metadata>
<g transform="translate(0.000000,256.000000) scale(0.100000,-0.100000)"
fill="#f2f2f2" stroke="none">
<path d="M1256 2548 c-3 -7 -7 -75 -9 -152 l-5 -139 -128 -211 c-92 -152 -128
-222 -132 -251 -4 -36 6 -62 78 -204 44 -90 79 -165 76 -168 -2 -3 -76 32
-163 76 -207 105 -210 105 -363 6 -36 -24 -121 -76 -189 -116 l-125 -73 -140
-3 c-77 -2 -145 -8 -151 -14 -6 -6 -6 -15 1 -27 10 -14 31 -17 149 -20 l137
-3 217 -130 c153 -93 228 -133 256 -136 35 -4 61 5 203 77 90 45 166 79 168
77 3 -3 -32 -78 -76 -168 -72 -143 -82 -168 -77 -204 3 -30 31 -85 100 -197
53 -85 111 -184 130 -220 34 -64 34 -65 32 -187 -2 -103 1 -126 15 -144 15
-18 20 -19 33 -9 12 11 16 42 19 155 l3 142 118 193 c125 203 147 246 147 286
0 13 -36 97 -80 186 -45 89 -79 164 -77 167 3 2 78 -32 167 -77 100 -49 174
-80 194 -80 34 0 58 13 307 165 l164 100 142 3 c146 4 173 11 159 47 -4 12
-29 15 -144 15 l-138 0 -180 106 c-268 160 -275 164 -316 164 -26 0 -79 -22
-193 -81 -86 -44 -159 -79 -162 -76 -2 3 32 79 77 169 102 203 102 197 -8 376
-43 70 -100 165 -128 212 l-49 85 -5 145 c-5 141 -6 145 -28 148 -12 2 -24 -3
-26 -10z m42 -372 c9 -20 8 -25 -4 -30 -24 -9 -11 -30 22 -36 42 -7 44 -38 3
-42 -51 -5 -49 -28 2 -28 39 0 79 -21 79 -41 0 -4 -26 -9 -57 -11 -34 -2 -58
-8 -61 -15 -3 -10 15 -13 67 -13 61 0 72 -3 86 -22 l16 -23 -81 -5 c-44 -3
-80 -9 -80 -15 0 -6 39 -11 90 -13 71 -2 92 -6 97 -18 10 -26 -17 -34 -110
-34 -66 0 -88 -3 -85 -12 3 -8 28 -14 66 -16 34 -2 62 -7 62 -12 0 -19 -46
-40 -88 -40 -46 0 -56 -22 -13 -28 28 -4 24 -19 -11 -40 l-27 -16 -93 89 c-51
50 -93 97 -92 105 0 18 185 340 194 340 4 0 12 -11 18 -24z m24 -683 c26 -26
48 -52 48 -58 0 -16 -83 -95 -100 -95 -16 0 -100 79 -100 94 0 10 90 106 99
106 3 0 27 -21 53 -47z m-519 -107 c48 -52 87 -98 87 -103 0 -5 -11 -20 -25
-33 l-25 -23 0 26 c0 17 -5 27 -15 27 -11 0 -15 -12 -15 -47 0 -43 -20 -83
-41 -83 -4 0 -9 28 -11 63 -4 93 -23 76 -26 -25 -2 -62 -7 -90 -18 -99 -25
-20 -33 1 -36 95 -2 60 -7 91 -15 94 -10 3 -13 -18 -13 -83 l0 -87 -22 14
c-20 13 -23 26 -26 87 -4 89 -25 94 -30 8 -2 -31 -6 -57 -9 -57 -22 0 -43 37
-43 77 0 43 -12 57 -24 27 -3 -9 -6 -27 -6 -40 0 -22 -2 -23 -20 -12 -11 7
-20 20 -20 28 0 8 -5 22 -10 30 -9 13 -12 13 -20 -2 -9 -14 -15 -15 -35 -6
-14 6 -25 14 -25 18 0 8 331 200 345 200 6 0 49 -43 98 -94z m1229 -3 l169
-98 -23 -18 c-21 -17 -23 -17 -34 -2 -15 20 -34 12 -34 -14 0 -22 -25 -45 -40
-36 -5 3 -10 20 -10 36 0 48 -25 29 -28 -22 -3 -42 -16 -69 -33 -69 -4 0 -9
26 -11 57 -2 34 -8 58 -15 61 -10 3 -13 -15 -13 -67 0 -61 -3 -72 -22 -86
l-23 -16 -5 82 c-3 52 -10 84 -17 86 -9 3 -13 -22 -15 -94 -3 -90 -5 -98 -23
-98 -18 0 -20 8 -23 98 -2 77 -6 97 -17 97 -12 0 -15 -15 -15 -65 0 -36 -4
-65 -9 -65 -20 0 -41 46 -41 88 0 30 -4 42 -12 40 -7 -3 -14 -14 -16 -26 -2
-12 -6 -22 -9 -22 -13 0 -43 34 -43 47 0 16 170 203 184 203 5 0 85 -44 178
-97z m-533 -47 l54 -54 -48 -51 c-26 -28 -53 -51 -59 -51 -13 0 -106 91 -106
104 0 11 90 106 100 106 3 0 30 -24 59 -54z m-334 -6 l50 -50 -53 -53 -52 -52
-52 52 -53 53 50 50 c27 27 52 50 55 50 3 0 28 -23 55 -50z m157 -147 c26 -26
48 -52 48 -58 0 -6 -22 -33 -50 -60 l-50 -49 -50 49 c-27 27 -50 54 -50 59 0
10 90 106 99 106 3 0 27 -21 53 -47z m61 -379 c51 -47 94 -90 95 -95 4 -9
-138 -259 -181 -323 l-20 -28 -13 23 c-18 32 -17 39 2 39 26 0 9 25 -19 28
-33 4 -55 37 -31 46 9 3 27 6 40 6 45 0 24 17 -27 22 -45 5 -68 18 -69 40 0 4
26 8 57 10 34 2 58 8 61 16 3 9 -15 12 -67 12 -61 0 -72 3 -86 23 l-16 22 81
5 c112 7 106 24 -10 30 -87 5 -95 7 -95 25 0 18 8 20 98 23 77 2 97 6 97 17 0
12 -15 15 -65 15 -36 0 -65 3 -65 7 0 3 7 15 17 25 11 13 30 18 65 18 36 0 48
4 48 15 0 10 -10 15 -32 15 l-31 0 23 25 c13 14 30 25 38 25 8 0 55 -39 105
-86z"/>
<path d="M667 2338 c-9 -5 -17 -14 -17 -20 0 -17 212 -330 218 -323 8 8 -159
343 -173 349 -6 2 -19 0 -28 -6z"/>
<path d="M1765 2163 c-47 -97 -83 -178 -81 -181 10 -9 225 328 220 343 -4 8
-17 15 -30 15 -20 0 -34 -23 -109 -177z"/>
<path d="M224 1896 c-11 -29 4 -45 77 -82 138 -69 280 -133 273 -123 -9 14
-305 211 -326 217 -10 2 -20 -2 -24 -12z"/>
<path d="M2143 1803 c-89 -59 -163 -111 -163 -115 0 -7 237 103 315 145 30 17
40 29 40 47 0 14 -6 26 -15 28 -9 1 -88 -46 -177 -105z"/>
<path d="M483 704 c-136 -88 -163 -110 -163 -130 0 -42 39 -29 115 37 176 154
225 199 218 199 -4 0 -81 -48 -170 -106z"/>
<path d="M2005 716 c160 -144 192 -168 212 -164 10 2 19 13 21 24 2 18 -25 40
-153 123 -86 56 -164 105 -173 109 -10 3 33 -38 93 -92z"/>
<path d="M957 537 c-23 -35 -167 -325 -167 -337 0 -14 34 -30 48 -21 10 6 146
381 138 381 -2 0 -11 -10 -19 -23z"/>
<path d="M1590 545 c0 -23 113 -347 127 -360 16 -17 53 -4 53 18 -1 15 -179
356 -180 342z"/>
</g>
</svg>
