<svg xmlns="http://www.w3.org/2000/svg" width="341.333" height="341.333" version="1.0" viewBox="0 0 256 256">
    <path fill="#e5e5e5" d="M120 17c-5.6 1.9-10 5.8-10 8.9 0 4.2 10.4 10.1 18 10.1 4.5 0 13.1-3 15.6-5.5 4.9-4.9 1.9-10.3-7.4-13.7-6.2-2.2-9.5-2.1-16.2.2m-34.5 5.9c-10.2 4.3-17.6 8.5-25.2 14.2L55 41l2.9 4.8c1.6 2.6 3.3 5.9 3.6 7.5.4 1.5 1 2.9 1.4 3.2.4.2 3.6-3.7 7.2-8.8 3.5-5 10.8-13.5 16.2-18.9 5.5-5.4 9.5-9.8 9-9.8-.4 0-4.8 1.8-9.8 3.9m84.4 5.8c9 9 22.1 25.2 22.1 27.4s1.9.6 2.5-2c.3-1.6 1.9-5 3.6-7.5 1.6-2.6 2.9-5 2.9-5.4-.1-1.2-11.2-8.8-19-13.1-6.1-3.3-19.8-9.1-21.5-9.1-.2 0 4 4.4 9.4 9.7M85.7 46.1C78.8 53.1 72.6 59.8 72 61l-1.2 2.3 3.1-2.3c4.7-3.3 16.8-9.8 23.6-12.7 7.4-3.1 7.2-2.9 5.2-5.1-.9-1-2.3-3.6-3.1-5.8l-1.4-3.9zm70.1-6.2c-1.5 3.1-2.2 5.8-1.7 6 3.2 1.1 23 11.2 25.9 13.3 6.1 4.2 6.5 4.3 4.3 1.2-3.2-4.4-17.9-19.9-22.1-23.2l-3.7-3zm-53.9 12.5c-10.6 4.6-20.1 9.9-28.6 16-6.8 4.7-7.5 5.6-10.4 12.5-5.8 13.8-8.1 25-8.6 42.2-.6 18.3 1 34 3.3 31.7.8-.7 6.2-8.1 12.1-16.3l10.8-14.9 8.4-2.8c4.6-1.5 8.5-2.9 8.7-3 .1-.2-.6-4.3-1.6-9.2l-1.8-8.9 2.3-8.7c2.5-9.1 10.7-32.6 13.1-37.2 1.6-3 1.8-4.8.7-4.8-.5 0-4.2 1.5-8.4 3.4m20.1 9.7c-3.8 9.9-11 32.3-11 34.5 0 .2 2.1-.7 4.8-1.9 6-2.7 17.8-2.9 23.6-.4 2.2 1 4.1 1.5 4.4 1.2 1.5-1.4-14-46.5-16-46.5-.4 0-3 5.9-5.8 13.1m23.5-12.2c-.3.5.9 4.5 2.6 8.8 5 12.6 8 21.2 10.9 31.4 2.6 9.1 2.7 9.8 1.4 16.5-2.2 11.4-2.5 10.7 7.4 14.3l8.7 3.1 11.4 16.1c9.6 13.5 11.6 15.8 12.2 14.1 1.7-4.6 3.1-23.1 2.5-32.7-1.3-20.1-8-43.2-14.3-49.2-4.9-4.7-20.4-14-31.6-19-10.9-4.8-10.4-4.6-11.2-3.4M43.3 54.3C28.6 70.3 19 89.8 15 112.2c-1.1 6.1-2 11.3-2 11.4s2.6 1 5.7 1.9c7.6 2.2 15.2 6.6 20.8 12.1 2.5 2.4 4.7 4.4 4.8 4.4s.2-7.5.2-16.8c0-19.4 1.4-27.8 7.7-44.4l4-10.7-2.1-6.3c-1.2-3.5-3.1-8-4.4-10.1l-2.3-3.8zm163.5-.8c-1.4 2.2-3.5 7-4.7 10.7-2.2 6.6-2.2 6.7-.3 10.5 2.9 5.5 7.8 21.6 9.3 30.3.7 4.1 1.3 14.1 1.4 22.1v14.6l5.4-4.9c5.8-5.3 12-8.8 19.1-10.9 2.5-.7 4.9-1.6 5.3-2 1.2-.9-1-14.7-3.9-24.8-4.5-15.5-13.8-32.2-24.7-44.6l-4.4-4.9zm-85.5 55.4c-7.9 3.6-12 13.5-8.9 21.6 3.2 8.2 10.8 12.6 19.2 11.1 4.5-.9 10.9-6.7 12.5-11.3 2.7-8.3-1.4-17.7-9.5-21.4-5.2-2.3-8-2.3-13.3 0M79 148.2c-7.4 10.4-13.7 19.5-13.9 20.1s1.4-.3 3.5-1.9c4.6-3.6 14.9-9.9 18.4-11.3 1.4-.5 5.1-2.1 8.2-3.5l5.7-2.5-2.9-5.8c-1.6-3.2-3.2-7.7-3.6-10.1-.3-2.3-.9-4.2-1.3-4.1-.3 0-6.7 8.6-14.1 19.1m82.6-14.5c-.3 2.6-2 7.2-3.6 10.1l-2.9 5.3 3.7 1.5c9.1 3.7 16.7 7.6 23.4 12.1 4 2.6 8 5.2 8.8 5.7s-.2-1.3-2.2-4c-1.9-2.7-8.4-11.7-14.2-19.9-5.9-8.3-11.1-15.1-11.5-15.3-.5-.1-1.1 1.9-1.5 4.5m-147.6 3c0 1.6.7 7.2 1.6 12.4 2.6 14.8 9.1 31.6 16.7 42.9 3.9 5.9 12.9 17.1 13.4 16.7.1-.2-2.4-6.2-5.6-13.3-7.2-15.8-8.5-20.3-3.3-10.8 12.8 23 25.5 39.4 34.2 44.3l4.3 2.4-4.6-6.5c-6.2-8.6-18.7-29.1-18.1-29.7.2-.2.5-.2.7 0 7.9 11.3 23.2 27.7 31.2 33.4 9.5 6.7 9.5 6.4-.1-3.7-10.4-10.9-19.5-24-25.6-36.6-6.2-13.2-29.4-42.2-41-51.3l-3.8-3.1zm218.2 6.4c-12.8 12.5-29.3 34.2-35.1 46-7.3 14.6-15.2 25.8-28 39.3l-5.6 5.9 6.5-4.4c7.7-5.2 17.7-15.2 26.8-26.6 3.6-4.6 6.7-8.1 6.9-7.9.6.5-6.1 11.8-14.1 23.6-8.7 12.9-8.5 12.5-4.3 10 8.5-5.1 20.9-20.6 32.1-40.6 3.1-5.4 5.6-9.4 5.6-8.7s-2.7 7.1-6 14.4-5.8 13.4-5.6 13.6c.5.6 7.6-8.2 12.6-15.6 8.7-13 16.1-33 17.5-47.5.4-3.4.8-7.1 1.1-8.4.2-1.2.1-2.2-.4-2.2s-5 4.1-10 9.1m-121.4 21.4c-1.1 4.2-1.5 4.6-7.8 7-6.8 2.7-18.2 9.1-23.7 13.3l-3.2 2.4-3.6-2.7c-1.9-1.5-3.5-2.3-3.5-1.8 0 3.1 23.5 31.3 26 31.3.5 0 1.8-2 3-4.5 2.8-5.8 7.8-10.1 16.5-14.1l7.1-3.3 1.2-11.4c1.6-15.4 1.6-16.7-.5-16.7-1 0-3.7-.9-6.1-2l-4.2-1.9zm27.4-2.1c-2.8 1.3-5.4 2.5-5.7 2.8s.1 6.3 1 13.4c.8 7.1 1.5 13.2 1.5 13.5 0 .4 2.7 1.6 6 2.8 7.2 2.6 16.3 10.6 18 15.6.6 1.9 1.5 3.5 1.9 3.5 1.5 0 17.7-17.5 21.7-23.5 5.7-8.5 6-9 4.3-8-.8.5-2.6 1.6-4 2.7l-2.7 1.8-6.8-4.7c-3.8-2.5-10.7-6.4-15.4-8.5s-9.2-4.3-10-4.7-1.9-2.7-2.4-5c-.5-2.2-1.2-4-1.5-4-.3.1-3 1.1-5.9 2.3m-16.1 48.7c-5.4 1-12.3 5-14.5 8.3-3.9 6-.7 13.4 7.8 17.9 6.2 3.3 19.3 3.1 26.1-.4 5.3-2.7 9.5-7.7 9.5-11.4 0-8.9-16.2-17-28.9-14.4m17.4 8.4c3.3 1.3 6.5 4.1 6.5 5.5 0 .5-1.4.1-3.1-.7-5.3-2.6-20.2-2.9-27.2-.6l-5.7 2 1.3-2.1c3.8-5.8 18.9-8 28.2-4.1"/>
</svg>
