<?xml version="1.0" standalone="no"?>
<!DOCTYPE svg PUBLIC "-//W3C//DTD SVG 20010904//EN"
 "http://www.w3.org/TR/2001/REC-SVG-20010904/DTD/svg10.dtd">
<svg version="1.0" xmlns="http://www.w3.org/2000/svg"
 width="256.000000pt" height="256.000000pt" viewBox="0 0 256.000000 256.000000"
 preserveAspectRatio="xMidYMid meet">
<metadata>
Created by potrace 1.16, written by Peter Selinger 2001-2019
</metadata>
<g transform="translate(0.000000,256.000000) scale(0.100000,-0.100000)"
fill="#f2f2f2" stroke="none">
<path d="M1318 2523 c-8 -10 -22 -66 -31 -126 -9 -59 -21 -116 -26 -126 -8
-14 -27 -19 -93 -24 -46 -3 -104 -9 -129 -13 l-47 -6 -17 58 c-22 78 -40 104
-70 104 -31 0 -43 -41 -37 -132 4 -66 4 -66 -28 -83 -23 -12 -35 -13 -45 -5
-19 16 -58 118 -90 235 -15 55 -29 106 -31 113 -5 19 -42 14 -54 -7 -5 -11
-10 -51 -10 -88 0 -108 -20 -332 -33 -369 -7 -18 -51 -73 -98 -122 l-86 -90
-5 96 c-7 137 -37 188 -82 142 -19 -19 -21 -36 -26 -223 -5 -178 -9 -211 -30
-279 -14 -43 -28 -78 -31 -78 -3 0 -10 23 -15 52 -11 61 -34 82 -61 55 -15
-15 -19 -39 -21 -143 -4 -142 11 -251 59 -434 119 -450 401 -743 819 -848 48
-12 110 -16 240 -16 157 1 185 3 275 27 190 51 365 155 500 298 56 60 199 264
245 349 32 59 92 302 146 585 34 183 42 265 24 265 -21 0 -40 -51 -60 -165
-27 -155 -51 -266 -60 -285 -5 -9 -11 8 -15 45 -11 104 -36 219 -57 265 -31
68 -34 191 -9 409 14 117 18 188 12 194 -19 19 -39 -3 -61 -70 -28 -83 -86
-202 -103 -209 -7 -2 -55 38 -108 90 -112 108 -119 126 -119 291 0 133 -16
166 -76 151 -17 -5 -31 -20 -43 -49 -27 -61 -76 -124 -112 -142 -28 -15 -37
-15 -93 -1 -33 8 -73 18 -87 20 l-27 6 -3 129 c-3 110 -7 132 -23 150 -23 26
-48 27 -68 4z m57 -424 c171 -64 189 -201 37 -276 -52 -26 -66 -28 -173 -28
-109 0 -119 2 -174 30 -71 37 -100 72 -100 125 0 96 119 169 277 170 54 0 94
-6 133 -21z m-586 -170 c26 -47 2 -100 -77 -165 -99 -82 -146 -108 -171 -94
-24 12 -28 49 -9 83 20 39 102 129 152 169 56 44 83 46 105 7z m1013 -13 c54
-44 126 -124 146 -163 18 -34 15 -71 -8 -83 -26 -14 -62 5 -153 78 -101 80
-128 137 -91 190 22 32 46 27 106 -22z m-981 -307 c49 -26 44 -75 -16 -164
-19 -27 -39 -69 -44 -91 -17 -64 -33 -72 -79 -40 -26 18 -51 26 -80 26 -71 0
-99 49 -72 127 15 42 52 58 90 38 16 -8 32 -19 35 -25 12 -20 26 -9 46 38 23
53 45 81 74 93 26 10 24 10 46 -2z m913 -18 c10 -9 29 -40 42 -68 13 -29 26
-53 28 -53 3 0 22 11 42 25 46 31 49 31 85 -4 23 -23 29 -38 29 -72 0 -59 -21
-79 -83 -79 -38 0 -56 -6 -79 -25 -16 -14 -33 -25 -38 -25 -17 0 -40 32 -40
56 0 27 -33 99 -50 109 -14 9 -50 81 -50 100 0 9 11 27 25 41 27 27 53 26 89
-5z m-1234 -11 c0 -5 -4 -10 -10 -10 -16 0 -80 -61 -96 -91 -7 -15 -14 -44
-14 -63 0 -31 5 -38 38 -55 76 -39 76 -38 84 -278 6 -180 10 -219 25 -245 27
-45 54 -61 77 -45 18 13 18 16 -8 80 -32 81 -55 264 -37 303 16 35 57 49 88
29 32 -22 41 -49 52 -161 11 -126 21 -136 93 -106 30 12 65 22 80 22 26 0 38
16 38 51 0 21 -65 59 -102 59 -22 1 -22 1 -4 15 11 8 37 15 59 15 31 0 46 -7
73 -34 53 -53 50 -67 -50 -199 -79 -106 -105 -176 -87 -237 18 -61 81 -88 129
-54 22 15 24 14 68 -35 25 -28 67 -65 94 -82 35 -23 57 -47 79 -89 48 -90 94
-90 141 -1 21 40 45 66 81 91 29 19 71 57 94 84 42 47 44 48 66 32 34 -23 65
-20 101 13 28 25 32 35 32 77 -1 61 -27 121 -90 202 -99 128 -103 145 -50 198
37 37 72 43 123 23 l28 -12 -41 -9 c-53 -11 -86 -42 -82 -76 2 -20 9 -28 28
-30 14 -2 51 -12 83 -24 78 -28 86 -19 98 98 12 122 24 158 54 172 30 14 69 2
84 -27 19 -34 -4 -229 -35 -307 -26 -64 -26 -68 -8 -81 23 -17 50 0 78 46 16
27 19 61 24 242 6 236 7 241 83 279 33 18 39 25 39 53 0 42 -50 122 -90 145
-41 23 -38 36 7 29 76 -13 161 -117 184 -226 15 -72 6 -289 -16 -395 -23 -110
-70 -235 -114 -304 -120 -185 -363 -336 -636 -394 -98 -21 -334 -16 -435 9
-289 72 -529 246 -629 456 -98 205 -133 558 -69 698 43 95 112 158 176 159 12
0 22 -4 22 -10z m905 -59 c106 -53 145 -121 110 -195 -21 -43 -89 -93 -153
-112 -59 -18 -186 -18 -248 1 -102 30 -173 110 -160 180 9 44 38 79 94 112
107 63 246 68 357 14z m-46 -588 c81 -51 130 -167 107 -258 -9 -37 -75 -105
-121 -126 -50 -23 -152 -25 -203 -3 -43 17 -97 67 -118 106 -23 44 -18 127 12
186 61 123 207 166 323 95z"/>
</g>
</svg>
