<?xml version="1.0" standalone="no"?>
<!DOCTYPE svg PUBLIC "-//W3C//DTD SVG 20010904//EN"
 "http://www.w3.org/TR/2001/REC-SVG-20010904/DTD/svg10.dtd">
<svg version="1.0" xmlns="http://www.w3.org/2000/svg"
 width="512.000000pt" height="512.000000pt" viewBox="0 0 512.000000 512.000000"
 preserveAspectRatio="xMidYMid meet">
<metadata>
Created by potrace 1.16, written by Peter Selinger 2001-2019
</metadata>
<g transform="translate(0.000000,512.000000) scale(0.100000,-0.100000)"
fill="#f2f2f2" stroke="none">
<path d="M680 2560 l0 -1850 1850 0 1850 0 0 877 0 878 -160 -160 -160 -160 0
-564 0 -564 -1530 5 c-842 3 -1533 8 -1536 11 -3 3 -2 694 2 1535 l7 1530
1356 -5 1356 -4 160 160 160 161 -1678 0 -1677 0 0 -1850z"/>
<path d="M3407 3262 l-837 -837 -370 370 -370 370 -237 -238 -238 -237 643
-643 642 -642 1075 1075 1075 1075 -273 273 -272 272 -838 -838z"/>
</g>
</svg>
