<?xml version="1.0" standalone="no"?>
<!DOCTYPE svg PUBLIC "-//W3C//DTD SVG 20010904//EN"
 "http://www.w3.org/TR/2001/REC-SVG-20010904/DTD/svg10.dtd">
<svg version="1.0" xmlns="http://www.w3.org/2000/svg"
 width="512.000000pt" height="512.000000pt" viewBox="0 0 512.000000 512.000000"
 preserveAspectRatio="xMidYMid meet">
<metadata>
Created by potrace 1.16, written by Peter Selinger 2001-2019
</metadata>
<g transform="translate(0.000000,512.000000) scale(0.100000,-0.100000)"
fill="#f2f2f2" stroke="none">
<path d="M1133 4750 c-58 -35 -65 -56 -62 -182 2 -62 2 -183 1 -268 -7 -346
85 -521 343 -652 79 -39 115 -63 127 -85 23 -39 38 -144 38 -278 0 -60 5 -161
10 -223 6 -75 6 -122 -1 -140 -6 -15 -50 -65 -99 -112 -133 -129 -200 -246
-234 -413 -42 -204 0 -367 130 -494 76 -74 168 -122 359 -183 149 -48 171 -59
221 -102 94 -83 113 -151 123 -433 7 -211 9 -222 35 -277 38 -79 101 -133 188
-159 77 -24 125 -20 154 12 17 19 17 28 6 142 -7 67 -15 219 -18 337 -6 224
-14 276 -42 282 -32 7 -72 -13 -79 -40 -7 -29 3 -307 17 -466 11 -121 6 -136
-40 -136 -38 0 -77 34 -89 77 -6 20 -15 111 -21 202 -15 236 -25 295 -65 379
-41 87 -126 177 -204 217 -30 15 -114 46 -188 70 -155 51 -229 90 -296 157
-69 69 -100 142 -105 250 -11 218 98 436 280 559 86 59 92 79 61 211 -12 55
-17 128 -18 293 -1 137 -7 236 -14 263 -13 46 -73 120 -113 139 -13 6 -58 28
-101 48 -89 43 -168 115 -209 191 -50 92 -58 148 -65 434 -6 261 -5 265 15
284 18 16 32 18 84 13 52 -5 67 -10 87 -33 22 -27 23 -33 17 -119 -3 -49 -9
-183 -12 -296 -7 -202 -7 -206 14 -227 25 -25 50 -28 76 -9 16 12 18 32 20
166 1 139 3 154 20 167 26 18 56 18 84 -2 19 -13 22 -24 22 -89 0 -224 58
-377 168 -445 94 -58 86 -42 105 -212 19 -170 57 -339 86 -378 22 -30 53 -37
70 -16 11 13 8 33 -12 113 -32 123 -44 205 -53 363 -3 69 -10 131 -14 138 -3
8 -40 30 -81 50 -80 40 -129 92 -150 160 -6 20 -14 105 -18 187 -4 86 -12 159
-19 172 -22 39 -62 62 -122 69 -86 10 -85 8 -85 126 0 90 -3 108 -23 140 -34
55 -90 78 -193 78 -66 0 -91 -4 -116 -20z"/>
<path d="M2200 4640 c-19 -4 -43 -19 -53 -32 -18 -21 -19 -38 -13 -283 14
-554 36 -957 57 -1036 10 -40 41 -84 68 -99 10 -5 54 -19 97 -30 240 -65 402
-248 404 -460 l1 -45 49 52 c38 42 51 65 61 108 13 57 13 51 -28 234 -5 20 -3
22 14 13 40 -22 107 -99 131 -151 21 -46 24 -63 20 -135 -5 -95 -35 -164 -92
-214 -34 -29 -117 -62 -158 -62 -28 0 -90 -28 -117 -53 -55 -50 -77 -159 -48
-230 18 -42 84 -101 133 -118 55 -19 178 -17 244 5 98 33 193 89 256 152 171
170 190 412 52 649 -56 97 -256 293 -433 427 -189 142 -248 209 -301 338 -48
118 -57 195 -64 545 -8 427 -7 424 -164 431 -45 2 -97 -1 -116 -6z"/>
<path d="M2685 4380 c-47 -18 -50 -32 -37 -163 7 -67 15 -219 18 -337 6 -224
14 -276 42 -282 32 -7 72 13 79 40 7 29 -3 309 -17 468 -11 119 -6 134 40 134
38 0 77 -34 89 -77 6 -20 15 -111 21 -202 15 -236 25 -295 65 -379 41 -87 126
-177 204 -217 30 -15 114 -46 188 -70 155 -51 229 -90 296 -157 69 -69 100
-142 105 -250 11 -218 -98 -436 -280 -559 -86 -59 -92 -79 -61 -211 12 -55 17
-128 18 -293 1 -137 7 -236 14 -263 13 -46 73 -120 113 -139 13 -6 58 -28 101
-48 89 -43 168 -115 209 -191 50 -92 58 -148 65 -434 6 -261 5 -265 -15 -284
-18 -16 -32 -18 -84 -13 -52 5 -67 10 -87 33 -23 27 -23 33 -17 124 3 52 9
185 13 296 6 197 6 201 -15 222 -25 25 -50 28 -76 9 -16 -12 -18 -32 -20 -166
-1 -139 -3 -154 -20 -167 -26 -18 -56 -18 -84 2 -19 13 -22 24 -22 89 0 224
-58 377 -168 445 -94 58 -86 42 -105 212 -19 170 -57 339 -86 378 -22 30 -53
37 -70 16 -11 -13 -8 -33 12 -113 32 -123 44 -205 53 -363 3 -69 10 -131 14
-138 3 -8 40 -30 81 -50 80 -40 129 -92 150 -160 6 -20 14 -105 17 -189 6
-132 10 -155 28 -180 26 -36 61 -52 123 -60 76 -9 76 -9 76 -125 0 -90 3 -108
23 -140 34 -55 90 -78 193 -78 66 0 91 4 116 20 58 35 65 57 62 182 -1 62 -3
199 -3 303 -1 179 -3 195 -29 272 -54 161 -144 259 -317 347 -74 37 -110 62
-122 83 -23 39 -38 144 -38 278 0 61 -5 161 -10 223 -6 75 -6 122 1 140 6 15
50 65 99 112 133 129 200 246 234 413 42 204 0 367 -130 494 -76 74 -168 122
-359 183 -149 48 -171 59 -221 102 -94 83 -113 151 -123 433 -7 211 -9 222
-35 277 -37 77 -101 133 -184 158 -69 21 -95 24 -127 10z"/>
<path d="M3630 4135 c-255 -16 -299 -21 -351 -42 -73 -29 -79 -45 -79 -215 0
-161 10 -207 51 -228 25 -14 67 -10 224 20 90 18 160 23 385 27 371 7 383 3
413 -129 42 -189 29 -242 -28 -113 -47 105 -87 153 -137 164 -65 15 -178 -18
-178 -52 0 -6 9 -30 19 -53 25 -55 67 -234 87 -374 22 -156 15 -436 -15 -563
-29 -124 -91 -274 -165 -397 -71 -118 -97 -182 -120 -293 -29 -138 -17 -211
40 -256 16 -13 89 -61 163 -107 74 -47 173 -114 220 -150 138 -103 161 -90
141 79 -35 302 -11 474 131 937 79 258 113 401 130 550 26 228 -20 762 -82
955 -79 249 -186 279 -849 240z"/>
<path d="M820 3794 c-11 -12 -11 -36 0 -127 35 -302 11 -474 -131 -937 -127
-414 -146 -538 -130 -857 29 -584 88 -796 241 -862 102 -44 253 -50 671 -26
335 19 394 31 433 87 22 31 23 302 2 353 -27 63 -51 66 -261 25 -90 -18 -160
-23 -385 -27 -371 -7 -383 -3 -413 129 -42 189 -29 242 28 113 47 -105 87
-153 137 -164 65 -15 178 18 178 52 0 6 -9 30 -19 53 -25 55 -67 234 -87 374
-22 156 -15 436 15 563 29 124 91 274 165 397 71 118 97 182 120 293 29 138
17 211 -40 256 -16 13 -89 61 -163 107 -74 47 -173 114 -220 150 -88 65 -119
76 -141 48z"/>
<path d="M2170 3025 c-152 -43 -306 -158 -364 -272 -96 -190 -66 -408 82 -603
73 -96 219 -232 377 -352 197 -149 262 -221 314 -354 45 -115 54 -194 61 -534
7 -345 10 -371 58 -414 45 -39 226 -33 269 10 l24 24 -6 273 c-12 546 -39
1005 -64 1069 -15 40 -47 59 -137 85 -164 46 -278 120 -344 224 -39 59 -70
164 -70 231 0 27 -4 48 -9 48 -5 0 -27 -20 -49 -44 -60 -66 -70 -126 -43 -263
12 -58 20 -108 17 -110 -9 -10 -87 61 -121 111 -42 62 -55 103 -55 177 0 149
86 262 215 284 157 26 224 99 213 231 -6 72 -46 129 -112 162 -62 31 -177 39
-256 17z"/>
</g>
</svg>
