<svg xmlns="http://www.w3.org/2000/svg" width="341.333" height="341.333" version="1.0" viewBox="0 0 256 256">
    <g fill="#e5e5e5">
        <path d="M91.3 16.1c-2.9 3.3-5.3 6.4-5.3 6.8s3.4 5.6 7.5 11.6l7.5 10.9v25.3L89.4 90.6c-6.4 10.9-12.5 21.2-13.6 22.7-1.1 1.6-1.8 3-1.6 3.3.9.8 21.4-13.7 28.5-20.1 7.7-7 11.5-12 12.7-16.8.8-3.5 4.8-7.3 8.2-8 3.3-.6 9.3 1 11.7 3.1.9.8 2.2 3.2 2.7 5.3 1.4 5.2 6.2 11.2 14.4 18.1 7 5.9 23.2 17.3 26 18.4.9.3-4.5-9.8-11.9-22.5l-13.5-23V44.8l7.2-10.2c3.9-5.5 7.1-10.6 7.2-11.3s-2.1-3.9-4.9-7.2l-5-6H127L96.5 10z"/>
        <path d="M124.1 89.4c-5.3 11-23.1 25.5-51.8 42.3-8.7 5.1-16.4 9.6-17.1 10-2 1.2-1.9 18 .3 28.2 2.6 12.6 9.7 27.1 17.3 35.4 1.4 1.5 2.2 2.7 1.6 2.7-.9 0-26.5-10-27.3-10.7-.3-.2.2-1.6 1.1-3.1 1.5-2.5 1.4-3.2-1.3-11.2-1.6-4.7-2.9-9.5-2.9-10.8 0-1.2-.3-2.2-.7-2.2-.9.1-21.5 35.1-21 35.7.4.3 35.2 14 58.2 22.8 7.7 3 21 8.1 29.5 11.4 8.5 3.4 16.4 6.1 17.5 6.1s11.9-3.9 24-8.6c61.8-24.3 80-31.6 80.3-31.9.2-.2-.4-1.4-1.3-2.7s-5.8-9.4-10.9-18.2c-5.2-8.7-9.6-15.4-9.8-15-.3.5-.9 2.7-1.3 4.9s-1.6 6.8-2.8 10.3c-1.9 6-1.9 6.5-.4 9.2.9 1.5 1.7 3 1.7 3.2 0 .3-1.8 1.1-4 1.8s-4.5 1.9-5.1 2.7c-.6.7-2 1.3-2.9 1.3-1.7 0-18.8 6.5-51.5 19.4-7.7 3.1-14.9 5.6-16 5.6s-7.6-2.2-14.5-4.8c-11.2-4.3-12.5-5-13.2-7.7-1.2-4.2-.2-8.8 2.5-11.2 1.2-1.2 7.2-5 13.3-8.5l11.1-6.5 12.4 7.3c13.4 7.9 15.6 10.5 14.6 17.1-.3 1.8-.2 3.3.2 3.3 1.6 0 3.4-5.8 3.9-12.7l.5-7.2-3.3-1.8c-13.7-7.5-28-19-28-22.6 0-.6-.8.2-1.9 1.9-2.8 4.6-11.4 11.6-21.3 17.5l-9 5.3.4 6.6c.2 3.6 1.1 8 2 9.8.9 1.7 1.3 3.2.8 3.2-2 0-22-8.3-22-9.1 0-.5-1.6-3.1-3.5-5.8-8.4-11.7-11.3-23.7-8.1-34.2.9-3 2.6-6.6 3.9-8.1 1.2-1.5 13.9-9.6 28.2-18.1 14.3-8.4 26.9-15.9 28-16.6 1.8-1.1 4.8.4 27.5 13.7 32.5 19.2 32.2 18.9 35.4 25.3 2.1 4.3 2.6 6.7 2.6 12.6 0 8.5-2.2 14.9-8.1 23.5-4.4 6.5-4.9 8-1.8 5.2 5.8-5.2 14.1-20.8 16.9-31.8 2.3-9.1 3.4-21.7 2.3-27.6-.8-4.4-.9-4.5-10.8-9.8-12.9-7-36.3-22.5-44.1-29.4-8.9-7.8-16.4-17-16.4-20.1 0-3.3-1.6-2.2-3.9 2.7"/>
        <path d="M124.1 140.6c-3.8 7.1-15.8 16.7-34.1 27.2l-10.5 6-.3 7.2c-.2 4.2.4 9.6 1.3 13.3 1.7 6.8 7.4 17.8 9.4 18.5.7.2.1-1.7-1.5-4.4-2.5-4.2-2.9-6-2.9-12.1 0-5.7.4-7.7 2.1-10s18.3-12.8 35.3-22.4l3.8-2.1 17.4 10.2c9.6 5.7 18.2 11 19.3 11.9 5.7 5 6.4 14.2 1.8 23.3-1.7 3.3-2.6 5.8-1.9 5.6s3.2-4.4 5.7-9.3c4.2-8.6 4.5-9.5 4.8-19.1l.4-10.2-7.3-4.2c-20.1-11.5-34.8-23-38.6-30.3l-1.8-3.7z"/>
    </g>
</svg>
