<svg xmlns="http://www.w3.org/2000/svg" width="341.333" height="341.333" version="1.0" viewBox="0 0 256 256">
    <g fill="#e5e5e5">
        <path d="M91.3 16.1c-2.9 3.3-5.3 6.4-5.3 6.8s3.4 5.6 7.5 11.6l7.5 10.9v8.8c0 4.8.4 8.8.9 8.8.6 0 4-.7 7.8-1.6 5.2-1.2 10.2-1.5 21.8-1.1 8.3.3 16.5.8 18.3 1.2l3.2.7V44.8l7.2-10.2c3.9-5.5 7.1-10.6 7.2-11.3s-2.1-3.9-4.9-7.2l-5-6H127L96.5 10zm25.1 56c-15.3 1.9-30.6 10-42.9 22.4-6.7 6.7-9 9.9-13.3 18.5-6.9 13.8-8.2 19.5-8.2 35 0 15.2 1.6 22.4 7.4 34.5 7.7 15.7 7.8 15.8 39.7 28 15.2 5.8 28.1 10.5 28.7 10.5.7 0 14.6-5.5 30.9-12.1 33.5-13.7 32.9-13.2 39.4-26.4 5.5-11.3 7.9-21.5 7.9-34.2 0-24.6-10.8-46.7-30-61.2-17.5-13.2-36.6-18-59.6-15m31.1 21.3c10.1 3.4 15.8 7 23.4 14.5 5.1 5.1 7.8 8.8 10.9 15.2 2.3 4.6 4.4 9.9 4.7 11.6l.7 3.3h-48.9l-4.8-5.1-4.8-5.1-5.1 5.1-5.2 5.1H94.7c-13 0-23.7-.2-23.7-.3 0-.2.9-2.9 2-6.1 7.1-20.7 23.3-35.5 44-40.1 8.9-2 21.5-1.2 30.5 1.9M114 142.6c0 .4-.8 1.3-1.7 2-2.6 1.9-42.3 2-42.3.1 0-.8.3-1.7.7-2 .8-.9 43.3-.9 43.3-.1m74 1.4c0 1.9-.7 2-20.7 2-15.7-.1-21.2-.4-22.5-1.4-1-.7-1.8-1.6-1.8-2 0-.3 10.1-.6 22.5-.6 21.8 0 22.5.1 22.5 2m-91.8 17.3c-4.5 4.5-8.2 8.5-8.2 8.7 0 .3 18.2.5 40.5.5s40.5-.2 40.5-.5c0-.2-3.7-4.2-8.2-8.7l-8.3-8.3h35.8l-.7 5.2c-3 22.5-21.2 42.6-43.7 48.4-5 1.3-8.7 1.5-16.7.9-19.2-1.2-27.5-4.7-39.2-16.5-8.5-8.4-12.8-15.8-15.9-27-3.4-12-4.7-11 15.1-11h17.3z"/>
        <path d="M41 172c0 .5-4.3 8.2-9.5 17.1s-9.4 16.4-9.2 16.6c.4.3 35 13.9 58.2 22.8 7.7 3 21 8.1 29.5 11.4 8.5 3.4 16.4 6.1 17.5 6.1s11.9-3.9 24-8.6c61.5-24.2 80-31.6 80.3-31.9.2-.2-.5-1.6-1.6-3.2-1.1-1.5-5.2-8.4-9.1-15.2-6.8-11.9-7.1-12.3-8.1-9.7-.5 1.5-1 3-1 3.2 0 .3-1.4 3.6-3 7.4-1.7 3.8-2.8 7.4-2.5 8.2.4.9-10.1 5.5-37.2 16.2-20.8 8.2-39 15.1-40.5 15.3-1.9.4-14.6-4.1-42-14.7-21.6-8.4-39.5-15.4-39.7-15.6s.2-1.5.9-2.9c1.5-2.8 1.5-3-3.2-16.8-2-5.9-3.8-8.6-3.8-5.7"/>
    </g>
</svg>
