<?xml version="1.0" standalone="no"?>
<!DOCTYPE svg PUBLIC "-//W3C//DTD SVG 20010904//EN"
 "http://www.w3.org/TR/2001/REC-SVG-20010904/DTD/svg10.dtd">
<svg version="1.0" xmlns="http://www.w3.org/2000/svg"
 width="256.000000pt" height="256.000000pt" viewBox="0 0 256.000000 256.000000"
 preserveAspectRatio="xMidYMid meet">
<metadata>
Created by potrace 1.16, written by Peter Selinger 2001-2019
</metadata>
<g transform="translate(0.000000,256.000000) scale(0.100000,-0.100000)"
fill="#f2f2f2" stroke="none">
<path d="M913 2399 c-29 -33 -53 -64 -53 -68 0 -4 34 -56 75 -116 l75 -109 0
-126 0 -127 -116 -199 c-64 -109 -125 -212 -136 -227 -11 -16 -18 -30 -16 -33
9 -8 214 137 285 201 77 70 115 120 127 168 8 35 48 73 82 80 33 6 93 -10 117
-31 9 -8 22 -32 27 -53 14 -52 62 -112 144 -181 70 -59 232 -173 260 -184 9
-3 -45 98 -119 225 l-135 230 0 132 0 131 72 102 c39 55 71 106 72 113 1 7
-21 39 -49 72 l-50 60 -305 0 -305 1 -52 -61z"/>
<path d="M1241 1666 c-53 -110 -231 -255 -518 -423 -87 -51 -164 -96 -171
-100 -20 -12 -19 -180 3 -282 26 -126 97 -271 173 -354 14 -15 22 -27 16 -27
-9 0 -265 100 -273 107 -3 2 2 16 11 31 15 25 14 32 -13 112 -16 47 -29 95
-29 108 0 12 -3 22 -7 22 -9 -1 -215 -351 -210 -357 4 -3 352 -140 582 -228
77 -30 210 -81 295 -114 85 -34 164 -61 175 -61 11 0 119 39 240 86 618 243
800 316 803 319 2 2 -4 14 -13 27 -9 13 -58 94 -109 182 -52 87 -96 154 -98
150 -3 -5 -9 -27 -13 -49 -4 -22 -16 -68 -28 -103 -19 -60 -19 -65 -4 -92 9
-15 17 -30 17 -32 0 -3 -18 -11 -40 -18 -22 -7 -45 -19 -51 -27 -6 -7 -20 -13
-29 -13 -17 0 -188 -65 -515 -194 -77 -31 -149 -56 -160 -56 -11 0 -76 22
-145 48 -112 43 -125 50 -132 77 -12 42 -2 88 25 112 12 12 72 50 133 85 l111
65 124 -73 c134 -79 156 -105 146 -171 -3 -18 -2 -33 2 -33 16 0 34 58 39 127
l5 72 -33 18 c-137 75 -280 190 -280 226 0 6 -8 -2 -19 -19 -28 -46 -114 -116
-213 -175 l-90 -53 4 -66 c2 -36 11 -80 20 -98 9 -17 13 -32 8 -32 -20 0 -220
83 -220 91 0 5 -16 31 -35 58 -84 117 -113 237 -81 342 9 30 26 66 39 81 12
15 139 96 282 181 143 84 269 159 280 166 18 11 48 -4 275 -137 325 -192 322
-189 354 -253 21 -43 26 -67 26 -126 0 -85 -22 -149 -81 -235 -44 -65 -49 -80
-18 -52 58 52 141 208 169 318 23 91 34 217 23 276 -8 44 -9 45 -108 98 -129
70 -363 225 -441 294 -89 78 -164 170 -164 201 0 33 -16 22 -39 -27z"/>
<path d="M1241 1154 c-38 -71 -158 -167 -341 -272 l-105 -60 -3 -72 c-2 -42 4
-96 13 -133 17 -68 74 -178 94 -185 7 -2 1 17 -15 44 -25 42 -29 60 -29 121 0
57 4 77 21 100 17 23 183 128 353 224 l38 21 174 -102 c96 -57 182 -110 193
-119 57 -50 64 -142 18 -233 -17 -33 -26 -58 -19 -56 7 2 32 44 57 93 42 86
45 95 48 191 l4 102 -73 42 c-201 115 -348 230 -386 303 l-18 37 -24 -46z"/>
</g>
</svg>
