<?xml version="1.0" standalone="no"?>
<!DOCTYPE svg PUBLIC "-//W3C//DTD SVG 20010904//EN"
 "http://www.w3.org/TR/2001/REC-SVG-20010904/DTD/svg10.dtd">
<svg version="1.0" xmlns="http://www.w3.org/2000/svg"
 width="256.000000pt" height="256.000000pt" viewBox="0 0 256.000000 256.000000"
 preserveAspectRatio="xMidYMid meet">
<metadata>
Created by potrace 1.16, written by Peter Selinger 2001-2019
</metadata>
<g transform="translate(0.000000,256.000000) scale(0.100000,-0.100000)"
fill="#f2f2f2" stroke="none">
<path d="M913 2399 c-29 -33 -53 -64 -53 -68 0 -4 34 -56 75 -116 68 -99 75
-113 75 -158 l0 -49 48 8 c26 5 66 9 89 9 30 1 50 8 68 25 38 35 122 36 159 1
20 -19 38 -25 91 -27 l65 -3 0 45 c0 41 8 57 72 148 39 55 71 106 72 113 1 7
-21 39 -49 72 l-50 60 -305 0 -305 1 -52 -61z"/>
<path d="M990 1885 c-136 -26 -291 -43 -412 -47 -43 -2 -78 -6 -78 -9 0 -4 25
-47 56 -95 56 -89 153 -277 211 -410 l31 -70 93 45 c89 43 107 65 33 41 -19
-7 -37 -10 -40 -8 -11 12 -109 318 -101 318 5 0 36 -15 70 -32 75 -40 176
-138 206 -201 26 -53 41 -60 41 -19 0 57 22 106 72 159 l51 53 -60 -6 c-33 -4
-91 -1 -128 5 -69 12 -225 76 -225 92 0 5 2 9 5 9 2 0 73 20 157 44 83 25 155
43 160 40 4 -3 12 -23 18 -44 6 -22 16 -40 21 -40 6 0 9 7 5 15 -3 8 -11 53
-18 100 -9 66 -16 85 -28 84 -8 -1 -71 -12 -140 -24z"/>
<path d="M1422 1825 c-7 -47 -15 -92 -18 -100 -4 -8 -2 -15 4 -15 6 0 16 17
22 38 7 20 15 40 19 44 3 4 75 -13 159 -37 84 -25 155 -45 157 -45 3 0 5 -4 5
-8 0 -17 -156 -81 -224 -93 -38 -6 -96 -9 -129 -5 l-59 6 43 -45 c54 -56 67
-79 75 -138 4 -26 10 -50 14 -52 5 -3 18 14 29 36 47 89 135 172 235 221 49
23 64 21 47 -9 -6 -10 -31 -78 -56 -152 -25 -74 -47 -136 -49 -139 -3 -2 -21
1 -40 8 -74 24 -58 2 28 -38 49 -23 92 -42 95 -42 3 0 12 15 20 33 45 108 188
385 234 455 30 45 54 82 53 83 -1 0 -87 6 -211 14 -49 4 -168 20 -263 36 -95
16 -174 29 -175 29 -2 0 -9 -38 -15 -85z"/>
<path d="M1277 1743 c-8 -121 -46 -279 -88 -370 -39 -82 -138 -187 -187 -197
-51 -12 -53 -30 -1 -23 34 4 54 0 89 -18 l45 -23 -43 -17 c-57 -23 -47 -30 21
-15 41 10 59 10 76 1 17 -9 21 -9 19 1 -2 10 19 14 85 16 76 2 87 1 87 -14 0
-13 3 -14 15 -4 14 12 37 10 115 -7 24 -5 25 -5 5 10 -11 9 -28 17 -37 17 -30
0 -20 19 21 40 31 15 51 18 88 14 57 -8 49 5 -19 30 -94 35 -185 173 -227 346
-24 98 -41 207 -41 268 0 81 -17 41 -23 -55z m64 -353 c21 -64 61 -148 96
-202 16 -26 16 -28 -1 -46 -15 -18 -20 -18 -44 -7 -104 50 -92 49 -164 16 -65
-29 -67 -29 -84 -10 -12 13 -14 22 -6 31 45 55 128 266 138 352 9 84 16 85 30
6 7 -41 23 -104 35 -140z"/>
<path d="M1265 1295 c-25 -24 -26 -28 -12 -48 18 -28 50 -33 71 -11 22 21 17
53 -11 71 -20 14 -24 13 -48 -12z"/>
<path d="M441 883 c-122 -207 -220 -378 -218 -380 4 -3 350 -139 582 -228 77
-30 210 -81 295 -114 85 -34 164 -61 175 -61 11 0 119 39 240 86 615 242 800
316 803 319 2 2 -5 16 -16 32 -11 15 -97 161 -192 323 -95 162 -181 309 -192
327 l-19 32 -28 -31 c-15 -17 -43 -36 -62 -42 -18 -6 -35 -18 -37 -27 -1 -8
65 -131 149 -273 83 -141 149 -259 147 -260 -1 -2 -138 -56 -303 -120 -165
-65 -318 -126 -340 -136 -78 -36 -118 -50 -144 -50 -14 0 -136 43 -271 96
-135 52 -310 120 -390 151 -80 30 -147 57 -150 60 -2 2 2 14 10 26 45 72 302
514 303 522 1 5 -8 11 -20 13 -25 4 -83 65 -83 87 0 7 -4 16 -9 19 -5 3 -108
-164 -230 -371z"/>
<path d="M1189 1004 c17 -27 40 -76 51 -109 23 -67 38 -219 23 -228 -5 -3 -58
46 -116 111 l-107 116 30 31 c17 17 30 34 30 38 0 7 -119 -72 -147 -97 -9 -8
13 -44 86 -143 96 -128 231 -340 231 -362 0 -6 7 -11 15 -11 8 0 15 5 15 11 0
21 144 237 242 361 55 71 99 130 97 132 -2 1 -22 16 -44 31 -22 16 -55 42 -74
58 -45 38 -53 25 -11 -18 l33 -34 -108 -113 c-59 -62 -112 -115 -118 -117 -17
-6 1 163 23 227 11 31 34 79 50 105 35 57 36 61 10 47 -48 -26 -153 -23 -223
5 -14 6 -11 -3 12 -41z"/>
</g>
</svg>
