<?xml version="1.0" standalone="no"?>
<!DOCTYPE svg PUBLIC "-//W3C//DTD SVG 20010904//EN"
 "http://www.w3.org/TR/2001/REC-SVG-20010904/DTD/svg10.dtd">
<svg version="1.0" xmlns="http://www.w3.org/2000/svg"
 width="256.000000pt" height="256.000000pt" viewBox="0 0 256.000000 256.000000"
 preserveAspectRatio="xMidYMid meet">
<metadata>
Created by potrace 1.16, written by Peter Selinger 2001-2019
</metadata>
<g transform="translate(0.000000,256.000000) scale(0.100000,-0.100000)"
fill="#f2f2f2" stroke="none">
<path d="M913 2399 c-29 -33 -53 -64 -53 -68 0 -4 34 -56 75 -116 l75 -109 0
-118 c0 -65 1 -118 3 -118 2 0 28 8 58 17 76 24 302 24 378 0 85 -27 81 -32
81 104 l0 121 72 102 c39 55 71 106 72 113 1 7 -21 39 -49 72 l-50 60 -305 0
-305 1 -52 -61z"/>
<path d="M1101 1775 c-155 -34 -311 -140 -403 -273 -106 -154 -163 -405 -107
-476 19 -25 25 -26 109 -26 85 0 88 -1 94 -25 7 -26 -22 -58 -109 -124 -19
-14 -34 -28 -35 -31 0 -3 28 -23 62 -45 112 -72 252 -182 324 -254 62 -61 185
-221 170 -221 -3 0 -78 29 -168 64 -90 35 -217 85 -283 110 -66 26 -157 61
-202 79 -46 18 -83 35 -83 38 0 4 18 37 41 75 39 64 41 69 29 106 -11 38 -6
92 10 113 5 6 -7 23 -29 41 l-37 31 -132 -225 c-73 -124 -131 -227 -129 -229
4 -3 350 -139 582 -228 77 -30 210 -81 295 -114 85 -34 164 -61 175 -61 11 0
119 39 240 86 615 242 800 316 803 319 2 2 -5 16 -16 32 -11 15 -70 114 -130
218 -61 105 -115 196 -119 202 -6 9 -19 3 -46 -23 -37 -34 -38 -37 -26 -71 6
-19 8 -53 5 -75 -6 -35 -1 -50 39 -120 26 -44 45 -81 43 -83 -2 -1 -127 -51
-278 -110 -151 -59 -324 -127 -383 -151 -113 -46 -132 -52 -107 -31 8 7 33 39
54 72 78 120 281 302 468 420 27 17 48 32 47 35 0 3 -33 32 -72 66 -53 44 -72
67 -72 85 0 23 2 24 98 29 128 6 131 10 124 140 -9 154 -55 275 -154 402 -87
111 -237 203 -378 233 -86 18 -229 18 -314 0z m308 -110 c193 -46 363 -218
416 -422 8 -32 15 -74 15 -95 l0 -38 -54 0 -54 0 -16 66 c-56 224 -221 347
-463 346 -229 0 -400 -129 -449 -337 l-18 -75 -53 0 c-52 0 -53 1 -53 29 0 62
22 140 62 221 72 149 216 268 364 304 78 19 224 19 303 1z m-86 -255 c86 -13
151 -46 206 -105 70 -76 86 -122 86 -245 0 -95 -3 -110 -27 -157 -16 -29 -42
-68 -58 -87 -30 -33 -120 -86 -147 -86 -10 0 -13 25 -13 105 0 90 3 110 20
133 53 72 26 193 -51 232 -85 44 -195 13 -230 -63 -25 -56 -24 -94 6 -153 22
-43 25 -62 25 -151 0 -76 -3 -103 -12 -103 -25 0 -115 59 -146 94 -45 52 -69
104 -82 178 -35 199 92 379 287 407 32 5 60 9 63 10 3 0 36 -4 73 -9z m-53
-605 c0 -78 -3 -95 -15 -95 -12 0 -15 17 -15 95 0 78 3 95 15 95 12 0 15 -17
15 -95z"/>
</g>
</svg>
