<?xml version="1.0" standalone="no"?>
<!DOCTYPE svg PUBLIC "-//W3C//DTD SVG 20010904//EN"
 "http://www.w3.org/TR/2001/REC-SVG-20010904/DTD/svg10.dtd">
<svg version="1.0" xmlns="http://www.w3.org/2000/svg"
 width="256.000000pt" height="256.000000pt" viewBox="0 0 256.000000 256.000000"
 preserveAspectRatio="xMidYMid meet">
<metadata>
Created by potrace 1.16, written by Peter Selinger 2001-2019
</metadata>
<g transform="translate(0.000000,256.000000) scale(0.100000,-0.100000)"
fill="#f2f2f2" stroke="none">
<path d="M913 2399 c-29 -33 -53 -64 -53 -68 0 -4 34 -56 75 -116 68 -99 75
-113 75 -158 l0 -49 48 8 c26 5 66 9 89 8 l43 0 35 91 c19 50 42 100 49 111
14 18 17 15 45 -47 16 -36 33 -78 36 -92 11 -44 39 -60 110 -63 l65 -3 0 45
c0 41 8 57 72 148 39 55 71 106 72 113 1 7 -21 39 -49 72 l-50 60 -305 0 -305
1 -52 -61z"/>
<path d="M1232 1928 c-105 -279 -195 -602 -207 -743 -13 -152 26 -325 108
-485 63 -122 134 -230 152 -230 18 0 89 108 152 230 82 160 121 333 108 485
-12 142 -110 490 -212 755 -24 63 -45 116 -47 117 -2 2 -26 -56 -54 -129z m88
-453 c67 -150 84 -220 84 -360 1 -110 -3 -142 -22 -205 -28 -88 -80 -190 -97
-190 -17 0 -69 102 -97 190 -19 63 -23 95 -22 205 0 114 4 140 28 213 30 91
82 212 91 212 3 0 19 -29 35 -65z"/>
<path d="M1104 1853 c-6 -10 -76 -100 -155 -200 -141 -177 -146 -182 -222
-221 -76 -40 -77 -40 -57 -13 10 16 41 43 68 62 33 22 59 52 81 92 18 32 31
61 28 63 -10 10 -182 -124 -246 -191 -94 -99 -135 -184 -135 -276 0 -93 13
-103 53 -40 77 119 221 215 372 247 53 12 79 22 79 31 0 20 83 272 124 376 32
81 36 111 10 70z"/>
<path d="M1475 1785 c42 -105 125 -358 125 -378 0 -9 26 -19 79 -31 151 -32
295 -128 372 -247 40 -63 53 -53 53 40 0 92 -41 177 -135 276 -64 67 -236 201
-246 191 -3 -2 10 -31 28 -63 22 -40 48 -70 81 -92 27 -19 58 -46 68 -62 20
-27 19 -27 -57 13 -76 39 -81 44 -221 221 -191 242 -189 240 -147 132z"/>
<path d="M835 1281 c-68 -24 -117 -50 -113 -61 8 -22 174 -259 182 -260 4 0 6
6 3 14 -3 8 -7 83 -8 166 -1 83 -5 152 -8 154 -4 3 -29 -4 -56 -13z"/>
<path d="M1676 1292 c-2 -4 -4 -74 -5 -155 -1 -82 -5 -155 -8 -163 -3 -8 -1
-14 3 -14 8 1 174 239 182 261 6 17 -163 86 -172 71z"/>
<path d="M407 828 c-103 -177 -186 -323 -184 -325 4 -3 350 -140 582 -228 77
-30 210 -81 295 -114 85 -34 164 -61 175 -61 11 0 119 39 240 86 615 242 800
316 803 319 2 2 -5 16 -16 32 -11 15 -96 158 -188 316 l-169 289 -34 -39 c-18
-21 -44 -52 -57 -69 l-25 -32 122 -207 c66 -113 119 -208 117 -209 -1 -2 -138
-56 -303 -120 -165 -65 -318 -126 -340 -136 -78 -36 -118 -50 -144 -50 -14 0
-136 43 -271 96 -135 52 -310 120 -390 151 -80 30 -147 57 -150 60 -2 2 2 14
10 26 7 12 65 109 127 215 l113 193 -56 65 c-31 35 -59 64 -63 64 -3 -1 -90
-145 -194 -322z"/>
</g>
</svg>
