<svg xmlns="http://www.w3.org/2000/svg" width="341.333" height="341.333" version="1.0" viewBox="0 0 256 256">
    <g fill="#e5e5e5">
        <path d="M91.3 16.1c-2.9 3.3-5.3 6.4-5.3 6.8s3.4 5.6 7.5 11.6c6.8 9.9 7.5 11.3 7.5 15.8v4.9l4.8-.8c2.6-.5 6.6-.9 8.9-.9 3-.1 5-.8 6.8-2.5 3.8-3.5 12.2-3.6 15.9-.1 2 1.9 3.8 2.5 9.1 2.7l6.5.3v-4.5c0-4.1.8-5.7 7.2-14.8 3.9-5.5 7.1-10.6 7.2-11.3s-2.1-3.9-4.9-7.2l-5-6H127L96.5 10zM99 67.5c-13.6 2.6-29.1 4.3-41.2 4.7-4.3.2-7.8.6-7.8.9 0 .4 2.5 4.7 5.6 9.5 5.6 8.9 15.3 27.7 21.1 41l3.1 7 9.3-4.5c8.9-4.3 10.7-6.5 3.3-4.1-1.9.7-3.7 1-4 .8C87.3 121.6 77.5 91 78.3 91c.5 0 3.6 1.5 7 3.2 7.5 4 17.6 13.8 20.6 20.1 2.6 5.3 4.1 6 4.1 1.9 0-5.7 2.2-10.6 7.2-15.9l5.1-5.3-6 .6c-3.3.4-9.1.1-12.8-.5-6.9-1.2-22.5-7.6-22.5-9.2 0-.5.2-.9.5-.9.2 0 7.3-2 15.7-4.4 8.3-2.5 15.5-4.3 16-4 .4.3 1.2 2.3 1.8 4.4.6 2.2 1.6 4 2.1 4 .6 0 .9-.7.5-1.5-.3-.8-1.1-5.3-1.8-10-.9-6.6-1.6-8.5-2.8-8.4-.8.1-7.1 1.2-14 2.4m43.2 6c-.7 4.7-1.5 9.2-1.8 10-.4.8-.2 1.5.4 1.5s1.6-1.7 2.2-3.8c.7-2 1.5-4 1.9-4.4.3-.4 7.5 1.3 15.9 3.7 8.4 2.5 15.5 4.5 15.7 4.5.3 0 .5.4.5.8 0 1.7-15.6 8.1-22.4 9.3-3.8.6-9.6.9-12.9.5l-5.9-.6 4.3 4.5c5.4 5.6 6.7 7.9 7.5 13.8.4 2.6 1 5 1.4 5.2.5.3 1.8-1.4 2.9-3.6 4.7-8.9 13.5-17.2 23.5-22.1 4.9-2.3 6.4-2.1 4.7.9-.6 1-3.1 7.8-5.6 15.2s-4.7 13.6-4.9 13.9c-.3.2-2.1-.1-4-.8-7.4-2.4-5.8-.2 2.8 3.8 4.9 2.3 9.2 4.2 9.5 4.2s1.2-1.5 2-3.3c4.5-10.8 18.8-38.5 23.4-45.5 3-4.5 5.4-8.2 5.3-8.3-.1 0-8.7-.6-21.1-1.4-4.9-.4-16.8-2-26.3-3.6S143.8 65 143.7 65c-.2 0-.9 3.8-1.5 8.5"/>
        <path d="M127.7 81.7c-.8 12.1-4.6 27.9-8.8 37-3.9 8.2-13.8 18.7-18.7 19.7-5.1 1.2-5.3 3-.1 2.3 3.4-.4 5.4 0 8.9 1.8l4.5 2.3-4.3 1.7c-5.7 2.3-4.7 3 2.1 1.5 4.1-1 5.9-1 7.6-.1s2.1.9 1.9-.1 1.9-1.4 8.5-1.6c7.6-.2 8.7-.1 8.7 1.4 0 1.3.3 1.4 1.5.4 1.4-1.2 3.7-1 11.5.7 2.4.5 2.5.5.5-1-1.1-.9-2.8-1.7-3.7-1.7-3 0-2-1.9 2.1-4 3.1-1.5 5.1-1.8 8.8-1.4 5.7.8 4.9-.5-1.9-3-9.4-3.5-18.5-17.3-22.7-34.6-2.4-9.8-4.1-20.7-4.1-26.8 0-8.1-1.7-4.1-2.3 5.5m6.4 35.3c2.1 6.4 6.1 14.8 9.6 20.2 1.6 2.6 1.6 2.8-.1 4.6-1.5 1.8-2 1.8-4.4.7-10.4-5-9.2-4.9-16.4-1.6-6.5 2.9-6.7 2.9-8.4 1-1.2-1.3-1.4-2.2-.6-3.1 4.5-5.5 12.8-26.6 13.8-35.2.9-8.4 1.6-8.5 3-.6.7 4.1 2.3 10.4 3.5 14"/>
        <path d="M126.5 126.5c-2.5 2.4-2.6 2.8-1.2 4.8 1.8 2.8 5 3.3 7.1 1.1 2.2-2.1 1.7-5.3-1.1-7.1-2-1.4-2.4-1.3-4.8 1.2"/>
        <path d="M44.1 167.7c-12.2 20.7-22 37.8-21.8 38 .4.3 35 13.9 58.2 22.8 7.7 3 21 8.1 29.5 11.4 8.5 3.4 16.4 6.1 17.5 6.1s11.9-3.9 24-8.6c61.5-24.2 80-31.6 80.3-31.9.2-.2-.5-1.6-1.6-3.2-1.1-1.5-9.7-16.1-19.2-32.3s-18.1-30.9-19.2-32.7l-1.9-3.2-2.8 3.1c-1.5 1.7-4.3 3.6-6.2 4.2-1.8.6-3.5 1.8-3.7 2.7-.1.8 6.5 13.1 14.9 27.3 8.3 14.1 14.9 25.9 14.7 26-.1.2-13.8 5.6-30.3 12-16.5 6.5-31.8 12.6-34 13.6-7.8 3.6-11.8 5-14.4 5-1.4 0-13.6-4.3-27.1-9.6-13.5-5.2-31-12-39-15.1-8-3-14.7-5.7-15-6-.2-.2.2-1.4 1-2.6 4.5-7.2 30.2-51.4 30.3-52.2.1-.5-.8-1.1-2-1.3-2.5-.4-8.3-6.5-8.3-8.7 0-.7-.4-1.6-.9-1.9s-10.8 16.4-23 37.1"/>
        <path d="M118.9 155.6c1.7 2.7 4 7.6 5.1 10.9 2.3 6.7 3.8 21.9 2.3 22.8-.5.3-5.8-4.6-11.6-11.1L104 166.6l3-3.1c1.7-1.7 3-3.4 3-3.8 0-.7-11.9 7.2-14.7 9.7-.9.8 1.3 4.4 8.6 14.3 9.6 12.8 23.1 34 23.1 36.2 0 .6.7 1.1 1.5 1.1s1.5-.5 1.5-1.1c0-2.1 14.4-23.7 24.2-36.1 5.5-7.1 9.9-13 9.7-13.2-.2-.1-2.2-1.6-4.4-3.1-2.2-1.6-5.5-4.2-7.4-5.8-4.5-3.8-5.3-2.5-1.1 1.8l3.3 3.4-10.8 11.3c-5.9 6.2-11.2 11.5-11.8 11.7-1.7.6.1-16.3 2.3-22.7 1.1-3.1 3.4-7.9 5-10.5 3.5-5.7 3.6-6.1 1-4.7-4.8 2.6-15.3 2.3-22.3-.5-1.4-.6-1.1.3 1.2 4.1"/>
    </g>
</svg>
