<svg xmlns="http://www.w3.org/2000/svg" width="341.333" height="341.333" version="1.0" viewBox="0 0 256 256">
    <path fill="#e5e5e5" d="M91.3 16.1c-2.9 3.3-5.3 6.4-5.3 6.8s3.4 5.6 7.5 11.6l7.5 10.9v11.8c0 6.5.1 11.8.3 11.8s2.8-.8 5.8-1.7c7.6-2.4 30.2-2.4 37.8 0 8.5 2.7 8.1 3.2 8.1-10.4V44.8l7.2-10.2c3.9-5.5 7.1-10.6 7.2-11.3s-2.1-3.9-4.9-7.2l-5-6H127L96.5 10zm18.8 62.4c-15.5 3.4-31.1 14-40.3 27.3-10.6 15.4-16.3 40.5-10.7 47.6 1.9 2.5 2.5 2.6 10.9 2.6 8.5 0 8.8.1 9.4 2.5.7 2.6-2.2 5.8-10.9 12.4-1.9 1.4-3.4 2.8-3.5 3.1 0 .3 2.8 2.3 6.2 4.5 11.2 7.2 25.2 18.2 32.4 25.4 6.2 6.1 18.5 22.1 17 22.1-.3 0-7.8-2.9-16.8-6.4s-21.7-8.5-28.3-11c-6.6-2.6-15.7-6.1-20.2-7.9-4.6-1.8-8.3-3.5-8.3-3.8 0-.4 1.8-3.7 4.1-7.5 3.9-6.4 4.1-6.9 2.9-10.6-1.1-3.8-.6-9.2 1-11.3.5-.6-.7-2.3-2.9-4.1l-3.7-3.1-13.2 22.5c-7.3 12.4-13.1 22.7-12.9 22.9.4.3 35 13.9 58.2 22.8 7.7 3 21 8.1 29.5 11.4 8.5 3.4 16.4 6.1 17.5 6.1s11.9-3.9 24-8.6c61.5-24.2 80-31.6 80.3-31.9.2-.2-.5-1.6-1.6-3.2-1.1-1.5-7-11.4-13-21.8-6.1-10.5-11.5-19.6-11.9-20.2-.6-.9-1.9-.3-4.6 2.3-3.7 3.4-3.8 3.7-2.6 7.1.6 1.9.8 5.3.5 7.5-.6 3.5-.1 5 3.9 12 2.6 4.4 4.5 8.1 4.3 8.3-.2.1-12.7 5.1-27.8 11s-32.4 12.7-38.3 15.1c-11.3 4.6-13.2 5.2-10.7 3.1.8-.7 3.3-3.9 5.4-7.2 7.8-12 28.1-30.2 46.8-42 2.7-1.7 4.8-3.2 4.7-3.5 0-.3-3.3-3.2-7.2-6.6-5.3-4.4-7.2-6.7-7.2-8.5 0-2.3.2-2.4 9.8-2.9 12.8-.6 13.1-1 12.4-14-.9-15.4-5.5-27.5-15.4-40.2-8.7-11.1-23.7-20.3-37.8-23.3-8.6-1.8-22.9-1.8-31.4 0m30.8 11c19.3 4.6 36.3 21.8 41.6 42.2.8 3.2 1.5 7.4 1.5 9.5v3.8h-10.8l-1.6-6.6c-5.6-22.4-22.1-34.7-46.3-34.6-22.9 0-40 12.9-44.9 33.7l-1.8 7.5h-5.3c-5.2 0-5.3-.1-5.3-2.9 0-6.2 2.2-14 6.2-22.1 7.2-14.9 21.6-26.8 36.4-30.4 7.8-1.9 22.4-1.9 30.3-.1m-8.6 25.5c8.6 1.3 15.1 4.6 20.6 10.5 7 7.6 8.6 12.2 8.6 24.5 0 9.5-.3 11-2.7 15.7-1.6 2.9-4.2 6.8-5.8 8.7-3 3.3-12 8.6-14.7 8.6-1 0-1.3-2.5-1.3-10.5 0-9 .3-11 2-13.3 5.3-7.2 2.6-19.3-5.1-23.2-8.5-4.4-19.5-1.3-23 6.3-2.5 5.6-2.4 9.4.6 15.3 2.2 4.3 2.5 6.2 2.5 15.1 0 7.6-.3 10.3-1.2 10.3-2.5 0-11.5-5.9-14.6-9.4-4.5-5.2-6.9-10.4-8.2-17.8-3.5-19.9 9.2-37.9 28.7-40.7 3.2-.5 6-.9 6.3-1 .3 0 3.6.4 7.3.9m-5.3 60.5c0 7.8-.3 9.5-1.5 9.5s-1.5-1.7-1.5-9.5.3-9.5 1.5-9.5 1.5 1.7 1.5 9.5"/>
</svg>
