<svg xmlns="http://www.w3.org/2000/svg" width="341.333" height="341.333" version="1.0" viewBox="0 0 256 256">
    <g fill="#e5e5e5">
        <path d="m91.2 16.5-5.3 6.4 7.5 10.9 7.6 11V61h52V45.3l7.5-10.7c4.1-5.9 7.5-11.2 7.5-11.7 0-.6-2.4-3.7-5.2-7l-5.2-5.9-30.6.1H96.5zm30.9 91.4 35.4 34.9-32 32.1C108 192.5 93.8 207.1 94 207.3c.3.2 3.5 1.6 7.3 3 6.4 2.6 7.5 2.7 25 2.7l18.2-.1 10-3.8 10-3.8.3-66.1.2-66.2H86.7z"/>
        <path d="M84.3 99.5c-2.4 4.1-4.3 7.8-4.3 8.2 0 .5 4.3.6 9.6.3 13.3-.7 14-1.8 5.9-10-3.3-3.3-6.2-6-6.5-6s-2.4 3.4-4.7 7.5m92.7 29v16.7l15 25.5c8.3 14.1 15 25.9 15 26.2 0 .7-54.9 23-69.8 28.4-4.5 1.6-9 2.6-10.7 2.4-3.4-.5-77.3-29.1-78.7-30.5-.5-.5.1-2.3 1.5-4.3 1.2-1.9 6.6-10.9 12-20.1l9.7-16.6v-16.1c0-10.1-.4-16.1-1-16.1-.5 0-1 .4-1 .9 0 1-42 73-45.1 77.4-1.2 1.6-1.9 3-1.7 3.2.3.4 17.5 7.1 74.9 29.4 15.8 6.1 29.6 11.1 30.7 11.1 1.2 0 11.9-3.8 23.9-8.5 52.1-20.4 80.3-31.7 80.3-32 0-.1-11.9-20.6-26.5-45.5S179 114.4 179 114c0-.5-.4-1.2-1-1.5-.7-.4-1 5.2-1 16"/>
        <path d="M83 120.7c-.1.5-.1 10.7-.1 22.8v22l23.6.3 23.6.2-.3-6.2-.3-6.3-9.2-.3-9.3-.3V132h19v-12h-23.5c-12.9 0-23.5.3-23.5.7"/>
        <path d="M115.4 135.9c-.2.2-.4 3.5-.4 7.3v6.8h15.1l-.3-7.2-.3-7.2h-6.8c-3.8-.1-7.1.1-7.3.3"/>
    </g>
</svg>
