<?xml version="1.0" standalone="no"?>
<!DOCTYPE svg PUBLIC "-//W3C//DTD SVG 20010904//EN"
 "http://www.w3.org/TR/2001/REC-SVG-20010904/DTD/svg10.dtd">
<svg version="1.0" xmlns="http://www.w3.org/2000/svg"
 width="256.000000pt" height="256.000000pt" viewBox="0 0 256.000000 256.000000"
 preserveAspectRatio="xMidYMid meet">
<metadata>
Created by potrace 1.16, written by Peter Selinger 2001-2019
</metadata>
<g transform="translate(0.000000,256.000000) scale(0.100000,-0.100000)"
fill="#f2f2f2" stroke="none">
<path d="M913 2399 c-29 -33 -53 -64 -53 -68 0 -4 34 -56 75 -116 l75 -109 0
-88 c0 -48 4 -88 9 -88 6 0 40 7 78 16 52 12 102 15 218 11 83 -3 165 -8 183
-12 l32 -7 0 87 0 87 72 102 c39 55 71 106 72 113 1 7 -21 39 -49 72 l-50 60
-305 0 -305 1 -52 -61z"/>
<path d="M1164 1839 c-153 -19 -306 -100 -429 -224 -67 -67 -90 -99 -133 -185
-69 -138 -82 -195 -82 -350 0 -152 16 -224 74 -345 77 -157 78 -158 397 -280
152 -58 281 -105 287 -105 7 0 146 55 309 121 335 137 329 132 394 264 55 113
79 215 79 342 0 246 -108 467 -300 612 -175 132 -366 180 -596 150z m311 -213
c101 -34 158 -70 234 -145 51 -51 78 -88 109 -152 23 -46 44 -99 47 -116 l7
-33 -245 0 -244 0 -48 51 -48 51 -51 -51 -52 -51 -237 0 c-130 0 -237 2 -237
3 0 2 9 29 20 61 71 207 233 355 440 401 89 20 215 12 305 -19z m-335 -492 c0
-4 -8 -13 -17 -20 -26 -19 -423 -20 -423 -1 0 8 3 17 7 20 8 9 433 9 433 1z
m740 -14 c0 -19 -7 -20 -207 -20 -157 1 -212 4 -225 14 -10 7 -18 16 -18 20 0
3 101 6 225 6 218 0 225 -1 225 -20z m-918 -173 c-45 -45 -82 -85 -82 -87 0
-3 182 -5 405 -5 223 0 405 2 405 5 0 2 -37 42 -82 87 l-83 83 179 0 179 0 -7
-52 c-30 -225 -212 -426 -437 -484 -50 -13 -87 -15 -167 -9 -192 12 -275 47
-392 165 -85 84 -128 158 -159 270 -34 120 -47 110 151 110 l173 0 -83 -83z"/>
<path d="M410 840 c0 -5 -43 -82 -95 -171 -52 -89 -94 -164 -92 -166 4 -3 350
-139 582 -228 77 -30 210 -81 295 -114 85 -34 164 -61 175 -61 11 0 119 39
240 86 615 242 800 316 803 319 2 2 -5 16 -16 32 -11 15 -52 84 -91 152 -68
119 -71 123 -81 97 -5 -15 -10 -30 -10 -32 0 -3 -14 -36 -30 -74 -17 -38 -28
-74 -25 -82 4 -9 -101 -55 -372 -162 -208 -82 -390 -151 -405 -153 -19 -4
-146 41 -420 147 -216 84 -395 154 -397 156 -2 2 2 15 9 29 15 28 15 30 -32
168 -20 59 -38 86 -38 57z"/>
</g>
</svg>
