<svg xmlns="http://www.w3.org/2000/svg" width="341.333" height="341.333" version="1.0" viewBox="0 0 256 256">
    <g fill="#e5e5e5">
        <path d="M91.3 16.1c-2.9 3.3-5.3 6.4-5.3 6.8s3.4 5.6 7.5 11.6c6.8 9.9 7.5 11.3 7.5 15.8v4.9l4.8-.8c2.6-.5 6.6-.9 8.9-.8h4.3l3.5-9.1c1.9-5 4.2-10 4.9-11.1 1.4-1.8 1.7-1.5 4.5 4.7 1.6 3.6 3.3 7.8 3.6 9.2 1.1 4.4 3.9 6 11 6.3l6.5.3v-4.5c0-4.1.8-5.7 7.2-14.8 3.9-5.5 7.1-10.6 7.2-11.3s-2.1-3.9-4.9-7.2l-5-6H127L96.5 10z"/>
        <path d="M123.2 63.2c-10.5 27.9-19.5 60.2-20.7 74.3-1.3 15.2 2.6 32.5 10.8 48.5 6.3 12.2 13.4 23 15.2 23s8.9-10.8 15.2-23c8.2-16 12.1-33.3 10.8-48.5-1.2-14.2-11-49-21.2-75.5-2.4-6.3-4.5-11.6-4.7-11.7-.2-.2-2.6 5.6-5.4 12.9m8.8 45.3c6.7 15 8.4 22 8.4 36 .1 11-.3 14.2-2.2 20.5-2.8 8.8-8 19-9.7 19s-6.9-10.2-9.7-19c-1.9-6.3-2.3-9.5-2.2-20.5 0-11.4.4-14 2.8-21.3 3-9.1 8.2-21.2 9.1-21.2.3 0 1.9 2.9 3.5 6.5m-21.6-37.8c-.6 1-7.6 10-15.5 20-14.1 17.7-14.6 18.2-22.2 22.1-7.6 4-7.7 4-5.7 1.3 1-1.6 4.1-4.3 6.8-6.2 3.3-2.2 5.9-5.2 8.1-9.2 1.8-3.2 3.1-6.1 2.8-6.3-1-1-18.2 12.4-24.6 19.1-9.4 9.9-13.5 18.4-13.5 27.6 0 9.3 1.3 10.3 5.3 4 7.7-11.9 22.1-21.5 37.2-24.7 5.3-1.2 7.9-2.2 7.9-3.1 0-2 8.3-27.2 12.4-37.6 3.2-8.1 3.6-11.1 1-7m37.1 6.8c4.2 10.5 12.5 35.8 12.5 37.8 0 .9 2.6 1.9 7.9 3.1 15.1 3.2 29.5 12.8 37.2 24.7 4 6.3 5.3 5.3 5.3-4 0-9.2-4.1-17.7-13.5-27.6-6.4-6.7-23.6-20.1-24.6-19.1-.3.2 1 3.1 2.8 6.3 2.2 4 4.8 7 8.1 9.2 2.7 1.9 5.8 4.6 6.8 6.2 2 2.7 1.9 2.7-5.7-1.3-7.6-3.9-8.1-4.4-22.1-22.1-19.1-24.2-18.9-24-14.7-13.2m-64 50.4c-6.8 2.4-11.7 5-11.3 6.1.8 2.2 17.4 25.9 18.2 26 .4 0 .6-.6.3-1.4s-.7-8.3-.8-16.6-.5-15.2-.8-15.4c-.4-.3-2.9.4-5.6 1.3m84.1-1.1c-.2.4-.4 7.4-.5 15.5-.1 8.2-.5 15.5-.8 16.3s-.1 1.4.3 1.4c.8-.1 17.4-23.9 18.2-26.1.6-1.7-16.3-8.6-17.2-7.1"/>
        <path d="M40.7 173.2c-10.3 17.7-18.6 32.3-18.4 32.5.4.3 35 14 58.2 22.8 7.7 3 21 8.1 29.5 11.4 8.5 3.4 16.4 6.1 17.5 6.1s11.9-3.9 24-8.6c61.5-24.2 80-31.6 80.3-31.9.2-.2-.5-1.6-1.6-3.2-1.1-1.5-9.6-15.8-18.8-31.6l-16.9-28.9-3.4 3.9c-1.8 2.1-4.4 5.2-5.7 6.9l-2.5 3.2 12.2 20.7c6.6 11.3 11.9 20.8 11.7 20.9-.1.2-13.8 5.6-30.3 12-16.5 6.5-31.8 12.6-34 13.6-7.8 3.6-11.8 5-14.4 5-1.4 0-13.6-4.3-27.1-9.6-13.5-5.2-31-12-39-15.1-8-3-14.7-5.7-15-6-.2-.2.2-1.4 1-2.6.7-1.2 6.5-10.9 12.7-21.5L72 153.9l-5.6-6.5c-3.1-3.5-5.9-6.4-6.3-6.4-.3.1-9 14.5-19.4 32.2"/>
    </g>
</svg>
