<?xml version="1.0" standalone="no"?>
<!DOCTYPE svg PUBLIC "-//W3C//DTD SVG 20010904//EN"
 "http://www.w3.org/TR/2001/REC-SVG-20010904/DTD/svg10.dtd">
<svg version="1.0" xmlns="http://www.w3.org/2000/svg"
 width="256.000000pt" height="256.000000pt" viewBox="0 0 256.000000 256.000000"
 preserveAspectRatio="xMidYMid meet">
<metadata>
Created by potrace 1.16, written by Peter Selinger 2001-2019
</metadata>
<g transform="translate(0.000000,256.000000) scale(0.100000,-0.100000)"
fill="#f2f2f2" stroke="none">
<path d="M912 2395 l-53 -64 75 -109 76 -110 0 -81 0 -81 260 0 260 0 0 78 0
79 75 107 c41 59 75 112 75 117 0 6 -24 37 -52 70 l-52 59 -306 -1 -305 0 -53
-64z"/>
<path d="M1221 1481 l354 -349 -320 -321 c-175 -176 -317 -322 -315 -324 3 -2
35 -16 73 -30 64 -26 75 -27 250 -27 l182 1 100 38 100 38 3 661 2 662 -391 0
-392 0 354 -349z"/>
<path d="M843 1565 c-24 -41 -43 -78 -43 -82 0 -5 43 -6 96 -3 133 7 140 18
59 100 -33 33 -62 60 -65 60 -3 0 -24 -34 -47 -75z"/>
<path d="M1770 1275 l0 -167 150 -255 c83 -141 150 -259 150 -262 0 -7 -549
-230 -698 -284 -45 -16 -90 -26 -107 -24 -34 5 -773 291 -787 305 -5 5 1 23
15 43 12 19 66 109 120 201 l97 166 0 161 c0 101 -4 161 -10 161 -5 0 -10 -4
-10 -9 0 -10 -420 -730 -451 -774 -12 -16 -19 -30 -17 -32 3 -4 175 -71 749
-294 158 -61 296 -111 307 -111 12 0 119 38 239 85 521 204 803 317 803 320 0
1 -119 206 -265 455 -146 249 -265 456 -265 460 0 5 -4 12 -10 15 -7 4 -10
-52 -10 -160z"/>
<path d="M830 1353 c-1 -5 -1 -107 -1 -228 l0 -220 236 -3 236 -2 -3 62 -3 63
-92 3 -93 3 0 104 0 105 95 0 95 0 0 60 0 60 -235 0 c-129 0 -235 -3 -235 -7z"/>
<path d="M1154 1201 c-2 -2 -4 -35 -4 -73 l0 -68 75 0 76 0 -3 72 -3 72 -68 0
c-38 1 -71 -1 -73 -3z"/>
</g>
</svg>
