<?xml version="1.0" standalone="no"?>
<!DOCTYPE svg PUBLIC "-//W3C//DTD SVG 20010904//EN"
 "http://www.w3.org/TR/2001/REC-SVG-20010904/DTD/svg10.dtd">
<svg version="1.0" xmlns="http://www.w3.org/2000/svg"
 width="256.000000pt" height="256.000000pt" viewBox="0 0 256.000000 256.000000"
 preserveAspectRatio="xMidYMid meet">
<metadata>
Created by potrace 1.16, written by Peter Selinger 2001-2019
</metadata>
<g transform="translate(0.000000,256.000000) scale(0.100000,-0.100000)"
fill="#f2f2f2" stroke="none">
<path d="M380 2395 c-14 -2 -64 -7 -112 -10 l-88 -7 0 -29 0 -29 385 0 385 0
0 29 c0 26 -3 29 -47 35 -55 7 -485 16 -523 11z"/>
<path d="M70 2125 l0 -145 493 2 492 3 3 143 3 142 -496 0 -495 0 0 -145z"/>
<path d="M143 1829 c76 -70 77 -71 77 -120 l0 -49 300 0 300 0 0 48 c0 48 0
49 41 61 44 13 129 90 129 116 0 13 -54 15 -462 15 l-463 0 78 -71z"/>
<path d="M918 1704 c-5 -4 -8 -46 -8 -94 l0 -87 58 -6 c110 -10 206 -72 251
-161 l22 -46 441 0 440 0 -7 38 c-18 97 -118 211 -238 270 -37 18 -111 45
-164 59 -95 26 -109 27 -443 31 -190 2 -348 0 -352 -4z"/>
<path d="M220 1430 l0 -150 194 0 193 0 17 44 c23 60 88 132 147 162 45 22 49
28 49 59 l0 35 -300 0 -300 0 0 -150z"/>
<path d="M863 1470 c-77 -18 -145 -76 -189 -160 -23 -45 -24 -160 -2 -211 22
-50 83 -116 132 -142 56 -30 183 -31 241 -2 97 48 155 143 155 254 0 170 -170
301 -337 261z m184 -106 c104 -83 109 -224 10 -311 -129 -114 -327 -24 -327
148 0 74 31 134 89 171 42 27 52 29 118 26 62 -3 77 -7 110 -34z"/>
<path d="M805 1284 c-21 -33 -23 -30 115 -124 l105 -71 22 28 c13 15 23 30 23
33 0 8 -227 160 -238 160 -5 0 -17 -12 -27 -26z"/>
<path d="M1253 1190 c-3 -78 -29 -144 -81 -201 -53 -60 -146 -109 -204 -109
l-38 0 0 -49 c0 -86 42 -91 178 -20 l77 41 503 -4 502 -5 0 24 c0 32 -26 80
-50 93 -18 10 -20 21 -20 145 l0 135 -432 0 -433 0 -2 -50z m205 -32 c19 -19
16 -173 -4 -192 -18 -19 -20 -19 -45 -6 -17 9 -19 22 -19 104 0 51 3 96 7 99
11 11 48 8 61 -5z m136 -4 c9 -24 7 -167 -3 -182 -5 -8 -21 -12 -37 -10 l-29
3 -3 89 c-2 49 -1 95 2 103 8 19 62 17 70 -3z m124 4 c7 -7 12 -43 12 -93 0
-86 -8 -105 -47 -105 -31 0 -43 28 -43 105 0 36 5 75 10 86 12 21 50 25 68 7z"/>
<path d="M2200 1112 l0 -127 30 -28 c19 -19 32 -43 36 -68 5 -29 11 -39 25
-39 16 0 19 8 19 53 0 44 -5 58 -30 87 -24 29 -29 44 -30 88 0 45 2 52 20 52
18 0 20 7 20 55 l0 55 -45 0 -45 0 0 -128z"/>
<path d="M2320 1125 l0 -115 30 0 30 0 0 115 0 115 -30 0 -30 0 0 -115z"/>
<path d="M220 780 l0 -430 315 0 315 0 0 264 0 263 -65 32 c-100 50 -169 145
-182 252 l-6 49 -188 0 -189 0 0 -430z"/>
<path d="M2320 930 c0 -18 7 -20 85 -20 78 0 85 2 85 20 0 18 -7 20 -85 20
-78 0 -85 -2 -85 -20z"/>
<path d="M1761 618 l1 -163 52 -85 c46 -75 56 -85 84 -88 l32 -3 0 250 0 251
-85 0 -85 0 1 -162z"/>
<path d="M1999 483 c-9 -10 -14 -43 -14 -95 0 -108 -1 -108 186 -108 141 0
149 1 163 22 20 28 22 168 4 186 -8 8 -60 12 -169 12 -133 0 -159 -2 -170 -17z
m299 -90 c-3 -70 -5 -78 -23 -78 -18 0 -20 8 -23 64 -4 77 1 91 28 91 20 0 21
-5 18 -77z"/>
<path d="M222 233 c2 -23 13 -31 63 -51 169 -68 344 -68 513 -1 46 19 52 25
52 50 l0 29 -316 0 -315 0 3 -27z"/>
</g>
</svg>
