<?xml version="1.0" standalone="no"?>
<!DOCTYPE svg PUBLIC "-//W3C//DTD SVG 20010904//EN"
 "http://www.w3.org/TR/2001/REC-SVG-20010904/DTD/svg10.dtd">
<svg version="1.0" xmlns="http://www.w3.org/2000/svg"
 width="256.000000pt" height="256.000000pt" viewBox="0 0 256.000000 256.000000"
 preserveAspectRatio="xMidYMid meet">
<metadata>
Created by potrace 1.16, written by Peter Selinger 2001-2019
</metadata>
<g transform="translate(0.000000,256.000000) scale(0.100000,-0.100000)"
fill="#f2f2f2" stroke="none">
<path d="M1602 2437 c-51 -51 -52 -54 -52 -112 0 -50 -4 -63 -27 -87 l-27 -28
97 -98 c85 -86 97 -102 97 -132 0 -33 -27 -62 -412 -447 -360 -360 -410 -414
-398 -428 12 -14 15 -14 32 2 14 12 21 14 30 5 9 -9 7 -17 -7 -32 -24 -26 -11
-39 15 -15 19 17 22 18 37 2 16 -15 15 -18 -1 -36 -10 -11 -16 -24 -13 -28 3
-5 11 -58 17 -119 19 -189 12 -174 78 -174 54 0 61 3 95 38 30 31 37 45 37 78
0 98 18 127 187 296 l157 157 -29 31 -29 31 262 261 261 262 31 -29 31 -29 67
67 67 67 -115 115 c-88 89 -119 113 -135 109 -29 -7 -244 208 -227 229 9 10 3
22 -31 55 l-43 42 -52 -53z m292 -594 c4 -9 1 -23 -7 -30 -7 -8 -21 -11 -30
-7 -17 6 -23 35 -10 47 12 13 41 7 47 -10z m-370 -386 c8 -12 7 -21 -5 -32
-21 -21 -49 -9 -49 20 0 36 34 44 54 12z"/>
<path d="M2120 2232 c0 -4 18 -25 39 -46 53 -52 77 -38 25 15 -35 36 -64 50
-64 31z"/>
<path d="M2067 2182 c-10 -10 -17 -23 -17 -28 0 -5 35 -44 78 -87 l78 -78 24
26 24 26 -79 79 c-44 44 -82 80 -86 80 -3 0 -13 -8 -22 -18z"/>
<path d="M1072 1777 l-392 -392 0 -110 0 -111 -45 -44 -45 -44 0 -76 c0 -74
-1 -77 -35 -110 -19 -18 -32 -37 -28 -43 7 -12 -247 -267 -267 -267 -9 0 -39
-24 -67 -52 l-52 -53 30 -105 c16 -58 32 -112 35 -119 3 -10 123 103 349 329
336 336 345 346 345 384 0 34 -7 47 -59 101 l-59 61 -7 80 c-5 50 -4 99 4 134
11 55 12 55 373 417 l363 363 -25 25 -25 25 -393 -393z"/>
<path d="M2177 1832 l-68 -68 24 -22 c13 -12 28 -22 33 -22 5 0 38 28 72 63
l62 63 -28 27 -28 27 -67 -68z"/>
<path d="M1840 1495 l-235 -235 28 -27 27 -28 237 237 237 237 -24 26 c-13 14
-26 25 -29 25 -4 0 -112 -106 -241 -235z"/>
<path d="M502 1317 l-52 -53 73 -72 73 -72 27 28 c26 27 27 33 27 125 0 53 -3
97 -7 97 -3 0 -15 -7 -25 -17 -17 -15 -19 -15 -36 0 -10 10 -21 17 -23 17 -3
0 -28 -24 -57 -53z m106 -125 c3 -16 -2 -22 -16 -22 -24 0 -35 23 -19 39 16
16 31 8 35 -17z"/>
<path d="M1507 1162 l-67 -68 28 -27 28 -27 67 68 67 68 -28 27 -28 27 -67
-68z"/>
<path d="M872 724 c-12 -8 -22 -25 -22 -37 0 -15 -81 -102 -267 -289 -266
-266 -267 -267 -248 -288 l19 -21 271 271 c148 148 278 270 287 270 24 0 48
28 48 55 0 23 -32 55 -55 55 -6 0 -21 -7 -33 -16z m56 -42 c3 -16 -2 -22 -17
-22 -24 0 -35 15 -27 36 9 23 40 13 44 -14z"/>
<path d="M1053 652 c-8 -5 34 -54 130 -150 l143 -143 19 21 c19 21 18 21 -110
150 -125 125 -150 142 -182 122z"/>
<path d="M962 607 l-32 -33 153 -152 153 -152 37 38 37 38 -148 147 c-81 81
-152 147 -158 147 -5 0 -24 -15 -42 -33z m283 -223 c19 -20 16 -43 -7 -58 -38
-23 -78 35 -42 61 23 17 29 16 49 -3z"/>
<path d="M893 534 c-4 -11 37 -59 143 -165 132 -132 150 -147 164 -134 13 14
-2 32 -135 165 -82 83 -153 150 -158 150 -4 0 -10 -7 -14 -16z"/>
</g>
</svg>
