<svg xmlns="http://www.w3.org/2000/svg" width="341.333" height="341.333" version="1.0" viewBox="0 0 256 256">
    <g fill="#e5e5e5">
        <path d="M160.2 12.3c-5.1 5.1-5.2 5.4-5.2 11.2 0 5-.4 6.3-2.7 8.7l-2.7 2.8 9.7 9.8C167.8 53.4 169 55 169 58c0 3.3-2.7 6.2-41.2 44.7-36 36-41 41.4-39.8 42.8s1.5 1.4 3.2-.2c1.4-1.2 2.1-1.4 3-.5s.7 1.7-.7 3.2c-2.4 2.6-1.1 3.9 1.5 1.5 1.9-1.7 2.2-1.8 3.7-.2 1.6 1.5 1.5 1.8-.1 3.6-1 1.1-1.6 2.4-1.3 2.8.3.5 1.1 5.8 1.7 11.9 1.9 18.9 1.2 17.4 7.8 17.4 5.4 0 6.1-.3 9.5-3.8 3-3.1 3.7-4.5 3.7-7.8 0-9.8 1.8-12.7 18.7-29.6l15.7-15.7-2.9-3.1-2.9-3.1 26.2-26.1 26.1-26.2 3.1 2.9 3.1 2.9 6.7-6.7 6.7-6.7L209 50.5c-8.8-8.9-11.9-11.3-13.5-10.9-2.9.7-24.4-20.8-22.7-22.9.9-1 .3-2.2-3.1-5.5L165.4 7zm29.2 59.4c.4.9.1 2.3-.7 3-.7.8-2.1 1.1-3 .7-1.7-.6-2.3-3.5-1-4.7 1.2-1.3 4.1-.7 4.7 1m-37 38.6c.8 1.2.7 2.1-.5 3.2-2.1 2.1-4.9.9-4.9-2 0-3.6 3.4-4.4 5.4-1.2M212 32.8c0 .4 1.8 2.5 3.9 4.6 5.3 5.2 7.7 3.8 2.5-1.5-3.5-3.6-6.4-5-6.4-3.1m-5.3 5c-1 1-1.7 2.3-1.7 2.8s3.5 4.4 7.8 8.7l7.8 7.8 2.4-2.6 2.4-2.6-7.9-7.9c-4.4-4.4-8.2-8-8.6-8-.3 0-1.3.8-2.2 1.8"/>
        <path d="M107.2 78.3 68 117.5v22.1l-4.5 4.4-4.5 4.4v7.6c0 7.4-.1 7.7-3.5 11-1.9 1.8-3.2 3.7-2.8 4.3C53.4 172.5 28 198 26 198c-.9 0-3.9 2.4-6.7 5.2l-5.2 5.3 3 10.5c1.6 5.8 3.2 11.2 3.5 11.9.3 1 12.3-10.3 34.9-32.9C89.1 164.4 90 163.4 90 159.6c0-3.4-.7-4.7-5.9-10.1l-5.9-6.1-.7-8c-.5-5-.4-9.9.4-13.4 1.1-5.5 1.2-5.5 37.3-41.7L151.5 44l-2.5-2.5-2.5-2.5zm110.5-5.5-6.8 6.8 2.4 2.2c1.3 1.2 2.8 2.2 3.3 2.2s3.8-2.8 7.2-6.3l6.2-6.3-2.8-2.7-2.8-2.7zM184 106.5 160.5 130l2.8 2.7 2.7 2.8 23.7-23.7 23.7-23.7-2.4-2.6c-1.3-1.4-2.6-2.5-2.9-2.5-.4 0-11.2 10.6-24.1 23.5"/>
        <path d="m50.2 124.3-5.2 5.3 7.3 7.2 7.3 7.2 2.7-2.8c2.6-2.7 2.7-3.3 2.7-12.5 0-5.3-.3-9.7-.7-9.7-.3 0-1.5.7-2.5 1.7-1.7 1.5-1.9 1.5-3.6 0-1-1-2.1-1.7-2.3-1.7-.3 0-2.8 2.4-5.7 5.3m10.6 12.5c.3 1.6-.2 2.2-1.6 2.2-2.4 0-3.5-2.3-1.9-3.9s3.1-.8 3.5 1.7m89.9 3-6.7 6.8 2.8 2.7 2.8 2.7 6.7-6.8 6.7-6.8-2.8-2.7-2.8-2.7zm-63.5 43.8c-1.2.8-2.2 2.5-2.2 3.7 0 1.5-8.1 10.2-26.7 28.9-26.6 26.6-26.7 26.7-24.8 28.8l1.9 2.1L62.5 220c14.8-14.8 27.8-27 28.7-27 2.4 0 4.8-2.8 4.8-5.5 0-2.3-3.2-5.5-5.5-5.5-.6 0-2.1.7-3.3 1.6m5.6 4.2c.3 1.6-.2 2.2-1.7 2.2-2.4 0-3.5-1.5-2.7-3.6.9-2.3 4-1.3 4.4 1.4m12.5 3c-.8.5 3.4 5.4 13 15l14.3 14.3 1.9-2.1c1.9-2.1 1.8-2.1-11-15-12.5-12.5-15-14.2-18.2-12.2m-9.1 4.5-3.2 3.3 15.3 15.2 15.3 15.2 3.7-3.8 3.7-3.8-14.8-14.7c-8.1-8.1-15.2-14.7-15.8-14.7-.5 0-2.4 1.5-4.2 3.3m28.3 22.3c1.9 2 1.6 4.3-.7 5.8-3.8 2.3-7.8-3.5-4.2-6.1 2.3-1.7 2.9-1.6 4.9.3m-35.2-15c-.4 1.1 3.7 5.9 14.3 16.5 13.2 13.2 15 14.7 16.4 13.4 1.3-1.4-.2-3.2-13.5-16.5-8.2-8.3-15.3-15-15.8-15-.4 0-1 .7-1.4 1.6"/>
    </g>
</svg>
