<?xml version="1.0" standalone="no"?>
<!DOCTYPE svg PUBLIC "-//W3C//DTD SVG 20010904//EN"
 "http://www.w3.org/TR/2001/REC-SVG-20010904/DTD/svg10.dtd">
<svg version="1.0" xmlns="http://www.w3.org/2000/svg"
 width="256.000000pt" height="256.000000pt" viewBox="0 0 256.000000 256.000000"
 preserveAspectRatio="xMidYMid meet">
<metadata>
Created by potrace 1.16, written by Peter Selinger 2001-2019
</metadata>
<g transform="translate(0.000000,256.000000) scale(0.100000,-0.100000)"
fill="#f2f2f2" stroke="none">
<path d="M1230 2066 c-17 -62 -35 -118 -39 -124 -5 -8 -25 -8 -76 -1 -49 8
-84 8 -123 0 -96 -19 -160 -15 -194 14 -28 24 -31 24 -65 10 -19 -8 -61 -22
-91 -30 l-56 -14 -230 109 c-126 61 -231 109 -232 107 -2 -1 73 -83 166 -182
161 -172 169 -182 170 -221 0 -36 5 -44 43 -71 79 -58 88 -70 81 -112 -5 -31
0 -46 26 -89 17 -29 40 -58 49 -65 24 -17 41 -50 41 -82 0 -15 14 -44 30 -65
17 -21 30 -42 30 -46 0 -5 -40 -65 -89 -134 -49 -69 -88 -126 -88 -126 1 -1
81 -4 177 -7 210 -6 230 -11 230 -65 0 -33 6 -43 38 -69 47 -38 94 -125 120
-219 13 -48 34 -92 67 -140 92 -131 74 -130 144 -6 34 60 61 113 61 119 0 6
11 18 24 26 13 9 36 37 51 63 22 38 26 54 21 86 -6 35 -3 43 36 89 23 27 56
59 74 70 21 12 35 31 39 50 5 23 11 29 23 24 40 -16 85 -16 212 0 74 9 136 17
137 19 1 1 -42 35 -97 75 -68 49 -106 84 -119 109 -19 36 -19 38 1 87 11 27
26 57 34 66 8 9 19 33 25 53 8 28 23 45 70 76 51 35 58 44 54 65 -3 14 -7 35
-10 48 -4 19 2 27 30 40 39 18 85 97 85 145 0 25 19 44 146 145 81 64 140 117
131 117 -9 0 -94 -16 -189 -36 -181 -38 -258 -43 -313 -20 -40 17 -209 15
-241 -2 -14 -7 -59 -9 -140 -4 l-119 7 -54 113 c-30 61 -58 112 -61 112 -4 0
-22 -51 -40 -114z m643 -292 c54 -8 59 -17 19 -33 -36 -15 -92 -109 -85 -143
4 -21 -3 -30 -46 -57 -49 -32 -51 -35 -51 -79 l0 -45 -30 29 c-16 16 -30 39
-30 52 0 41 -47 118 -78 131 -23 10 -37 28 -56 72 -14 33 -26 63 -26 66 0 3
19 2 43 -2 56 -10 113 -7 149 8 29 12 103 12 191 1z m-1108 -24 c19 -18 27
-19 76 -10 81 14 231 31 235 27 2 -2 -4 -24 -14 -49 -11 -30 -35 -62 -65 -88
-42 -37 -47 -46 -47 -82 0 -35 -6 -47 -42 -80 l-43 -39 -15 23 c-8 12 -31 40
-50 61 -28 32 -34 46 -31 76 2 39 -32 113 -70 147 -19 17 -19 19 -2 25 30 12
46 10 68 -11z m569 -75 c50 -123 71 -158 105 -178 27 -16 31 -24 31 -62 0 -39
4 -47 40 -77 53 -41 87 -95 71 -111 -6 -6 -11 -27 -11 -46 -1 -23 -10 -47 -25
-66 l-24 -29 -55 18 c-49 17 -64 17 -148 7 -96 -12 -218 -14 -277 -4 l-34 6 6
95 c5 94 6 97 40 126 43 39 77 95 77 129 0 18 13 36 45 63 26 21 45 45 45 56
0 26 62 159 73 155 4 -1 23 -38 41 -82z m73 -723 c8 -5 6 -14 -8 -32 -56 -70
-73 -106 -74 -150 0 -71 -24 -63 -68 24 -21 41 -49 86 -63 101 -13 14 -24 30
-24 34 0 4 42 12 93 18 128 14 131 14 144 5z"/>
<path d="M1267 1525 c-9 -20 -17 -42 -17 -50 0 -7 -10 -22 -23 -32 -13 -10
-27 -31 -31 -46 -4 -16 -18 -39 -31 -51 -14 -13 -25 -31 -25 -41 0 -9 -9 -28
-20 -42 -11 -14 -20 -30 -20 -35 0 -6 53 -9 133 -7 72 1 146 -1 162 -5 20 -5
36 -3 49 7 16 12 17 18 7 49 -6 19 -25 48 -41 63 -17 16 -30 39 -30 52 0 12
-8 27 -19 32 -10 6 -29 36 -41 68 -31 77 -33 79 -53 38z"/>
</g>
</svg>
