<svg xmlns="http://www.w3.org/2000/svg" width="682.667" height="682.667" version="1.0" viewBox="0 0 512 512">
    <g fill="#e5e5e5">
        <path d="M181.9 35.2c-1.6 1.8-2.9 3.6-2.9 4.1 0 1 9.6 15.5 12.3 18.4 1.3 1.5 3.2 2.3 5.1 2.3 3.8 0 9.6-3.4 9.6-5.6 0-1.6-10.8-17.2-14.2-20.6-2.8-2.8-6.5-2.2-9.9 1.4m-18.6 22.3c-5.7 2.9-7.8 4.9-6.8 6.5.8 1.3 4.2 1.3 5 0 1.9-3 14.5-6.7 14.5-4.3 0 .4-1.2 2-2.7 3.7-2.3 2.5-2 2.3 2-.8 5.2-4.2 5.8-6.1 2.5-7-4.6-1.2-9.5-.5-14.5 1.9m44.5 8.3c-.4 5.7-1.4 8.9-4.7 15.8-3.7 7.8-5.6 10.1-19.1 23.9-8.3 8.3-15 15.5-15 16s2.3 4.4 5.1 8.6q5.1 7.8 4.5 9.6c-.8 2.3-13.3 12.2-16.6 13-2.1.5-3.3-.4-9-6.6-3.6-3.9-6.8-7.1-7.2-7.1s-5.2 2.9-10.6 6.5c-24.9 16.3-39.1 21-54.7 18.3l-4-.7 3.5 1.6c12.3 5.7 31.7.3 54.3-15 5.4-3.7 10.4-6.7 11-6.7.7 0 4 3.2 7.5 7 3.5 3.9 6.9 7 7.6 7 2 0 12.7-7.3 17.4-11.8 2.3-2.3 4.2-5.1 4.2-6.2s-2.3-5.4-5.1-9.7l-5-7.7 11.9-11.3c13-12.3 20-21.5 23.3-30.8 2.5-7.2 3.4-15.1 2.1-18.5-.7-2-1-1.1-1.4 4.8"/>
        <path d="M142.7 62.5c-8.6 2.4-12.4 6.2-13.4 13.4-.5 3.6-1.4 4.7-7.1 9.1-5.8 4.5-7 5-11.6 5-5.9 0-10.1 2.2-14 7.3-3.5 4.6-4.3 9.6-2.1 13l1.7 2.6 3.9-3.1c5.5-4.4 5.7-3.1.4 2.6-3.4 3.6-4.5 5.5-4.5 7.9.1 6.3 5.5 9.4 12.3 6.8 3.5-1.4 8.5-6.7 11.3-12.2 4.1-8.3 23.2-23 33-25.5 7.7-2 12.7-5.3 14.9-10 1.6-3.4 1.6-3.9.1-7-2.5-5.4-8.3-5.7-15.8-.8-4.5 2.9-5.1 1.4-.8-1.8 1.7-1.2 3-2.7 3-3.4 0-1.2-4.7-5.5-5.9-5.3-.3 0-2.8.7-5.4 1.4m4.3 4c1.1 1.3.7 2.2-2.4 5.4-3.3 3.4-3.6 4.2-2.7 6 1.5 2.7 2.1 2.7 1.4.1-.4-1.6-.2-1.9 1.3-1.4 1.1.4 2.6 1.3 3.5 2.1 1.4 1.2 1.6 1.1 1.2-.9-.7-4 8.7-9 12.2-6.5 1.7 1.3 1.7 1.5 0 4.5-2.2 3.6-7.4 6.7-13 7.7-5.3 1-7.7 2.3-16.5 9-10.9 8.4-14.8 12.3-18.2 18.8-3.3 6-6.6 9.1-11.1 10.2-3.6 1-4.6-1.7-2.2-6.1 2.4-4.6 5.9-6.8 8.5-5.4 1.8 1 1.8.9.4-1.7-1.9-3.8-1.8-5.4.4-4.6 1.6.5 1.6.5 0-1.2-1.5-1.7-1.8-1.6-5.2 1-4.6 3.5-7.2 3-6.9-1.4.1-3.6 3.1-7.4 7.5-9.7 3.8-2 6.1-1.8 9.4.8 1.6 1.2 2.3 1.5 1.6.6-1.1-1.4-.4-2.4 5.8-7.3 4.6-3.8 7.6-5.6 8.9-5.2 1.7.4 1.7.2.4-2.4s-1.3-3.3.4-6.2c3.7-6.3 12.3-9.8 15.3-6.2m32.4-1.9-3.9 3.5 4-2.5c2.2-1.4 4.3-2.6 4.7-2.6 2.1 0 .5 8.2-2.7 14.8-2.9 5.7-5.2 8.4-11.5 13.9-4.3 3.7-7.9 7.1-7.9 7.6-.2 1.5 7.3 10.7 8.7 10.7 2.5 0 11-8 17.1-16.1 7.9-10.4 12.1-19.4 12.7-26.7l.4-5.7-1.5 6.3c-.8 3.5-3.1 9.4-5 13.1C191 87.6 180.6 101 179 101c-.5 0-1.6-1-2.4-2.2-1.4-2-1.2-2.4 3.8-7.8 5.7-6.2 9.6-13.4 10.4-19.2.4-3-.1-4.5-2.2-7.3-1.5-1.9-3.3-3.5-4-3.5s-3 1.6-5.2 3.6"/>
        <path d="M110.9 72.8c-3.6 3.2-3.5 4.8 1.1 10.1l2.9 3.4 4-2.8c6.2-4.3 6.3-4.6 2.8-9.2-3.8-5.1-6.4-5.4-10.8-1.5m92.5 23.9c-2.1 3.2-8.6 10.6-14.3 16.5L178.7 124l5.2 7.9c4.2 6.3 5.1 8.3 4.3 9.8-2 3.6-12.3 12.9-18.4 16.6-9.9 6-10.1 6-17-1.7-3.3-3.6-6.4-6.6-7-6.6s-4.5 2.2-8.7 4.9c-9.4 6-12.5 7.6-22.6 11.7-4.4 1.8-7.3 3.5-6.5 3.7.8.3 9.2 1.2 18.6 2.1l17.2 1.7 6.3-2.4c21.7-8.2 37.1-20.3 48.9-38.4 4.2-6.4 4.9-8.1 5.5-14.5.3-4 1.3-11.8 2.1-17.2.8-5.5 1.2-10.1 1.1-10.3-.2-.2-2.1 2.3-4.3 5.4"/>
        <path d="M137.2 105.6c-2.3 1.9-4.2 3.9-4.2 4.4 0 1 19.7 27.2 24.8 33 3.5 4 4.2 4.3 6.3 3.3 3-1.3 8.9-6.2 8.9-7.3 0-2.8-27.8-37-30.1-37-.8 0-3.4 1.6-5.7 3.6M85.9 118c-3.8 4-5.9 9-5.9 14.2 0 3.5 1.4 3.5 6.2.2 4.6-3.2 4.9-4 .8-1.9-2.8 1.4-3 1.4-3-.2 0-2.5 3.4-7.8 7.1-11.1 3.2-2.9 3.3-5.2.2-5.2-.9 0-3.3 1.8-5.4 4m30.7 15.5c-8.6 6.1-15.4 8.5-23 8.5-8.2 0-8.9-1.3-3.6-6.2l4.5-4-5.7 3.8c-3.2 2.2-5.8 4.4-5.8 5 0 .5 1.5 2.7 3.4 4.7 2.9 3.2 4 3.7 7.8 3.7 5.8 0 13.9-2.4 21-6.3 5.7-3.1 5.8-3.1 7.2-1.2.9 1.1 1.6 2.3 1.6 2.6 0 1-16.3 8.7-21.9 10.3-3 .9-9.1 1.7-13.5 1.7-8 .2-8 .2-2.6.9 3 .4 8.2.3 11.4-.2 10.8-1.6 30.1-10.5 35.5-16.2l2.3-2.5-3.7-5c-2-2.8-4.4-5.1-5.3-5-1 0-5.2 2.5-9.6 5.4"/>
        <path d="M59.5 131.2c-4.1 2.4-5.8 6-4.3 9 1.1 2.3 14.8 18.1 16.5 19.1.9.6 2.5-.3 4.8-2.6 5.8-5.8 5.1-8.5-4.8-19l-8.2-8.7zm145.4 3.5c-.9 1-3.6 4.7-6.1 8.3-9.8 14-24.8 25.4-42.5 32-7.9 3-8.5 3.4-6.8 4.7 1.1.7 4.3 2.1 7.2 3l5.3 1.7 11.7-5.9c10.7-5.2 12.7-6.8 22-15.9 11.6-11.5 13.7-15.3 12.7-22.4-.9-6.6-1.7-7.7-3.5-5.5m16.5 20.1c2.6 5 9.5 13 14.6 17.1 6.8 5.3 12 7.2 44 15.3 36.4 9.2 46.4 12.1 57.1 16.9 25.7 11.2 49.9 28.7 66.1 47.5 23.6 27.6 33.3 46.4 38.3 74.7 3.1 17.7.5 32.9-9.1 51.9-10.3 20.5-30.3 42.6-50.7 56.1-10.8 7.1-32.1 17.4-41.8 20.1-16.6 4.7-35.4 5.9-46.4 3.1-21.5-5.6-46.1-21.8-62.3-41.1-27-31.9-42.8-68.5-46.2-106.4-.5-6.2-1.2-27.4-1.6-46.9-.6-39.4-.9-41.5-7.1-52-3.7-6.2-12-15.8-12.9-14.9-.2.3 1.8 6.8 4.6 14.6 7.6 21.6 8.6 28.6 10.5 67.7 1.6 35.6 2.7 45.5 7 62 6.4 24.8 14.2 43.8 26.5 64.5 19 32.2 46.9 56.5 75.6 65.9 25.4 8.3 47.1 7.9 75.2-1.5 42-13.9 76.6-48.4 90.6-90.4 6.4-19.4 6.1-44.6-1-65.9-8.1-24.3-18.6-41.2-38.3-61.4-19.1-19.5-35.1-31.5-58.3-43.6-18.9-9.9-24.2-11.9-56-21.1-15.5-4.5-31.1-9.3-34.5-10.5-9.2-3.5-24.7-11.7-35.1-18.5-5-3.3-9.3-6-9.7-6-.3 0 .1 1.3.9 2.8"/>
        <path d="M206.8 164.1c-6.4 7.7-16.5 15.8-26.7 21.2l-8.4 4.5 4.8 3.4c26.9 18.5 52.7 43 76.2 72.3 8.4 10.5 9.2 11.2 17.3 15.2 7.8 3.8 9 4.1 13.8 3.5l5.2-.7-15.5-19.5c-17.1-21.5-28.5-37.9-39.4-57.2-7.3-12.7-16.4-32.1-19.5-41.3-.9-2.8-2-5.5-2.4-6.1s-2.6 1.2-5.4 4.7"/>
        <path d="M346 247.7c-1.9.3-9.6 2.9-17 5.8-16.8 6.7-22.7 8.3-36.3 9.7l-10.7 1.1 2.4 3.2c8.9 11.6 13.7 19.1 13.4 20.9-.5 3.7-4.4 4.8-15.1 4.1-9.4-.5-10.3-.8-16.9-4.7-5.5-3.3-8.5-6-13.6-12.5-7.3-9.3-8-9.6-15.7-5.9-9 4.1-14 11-19.1 25.8-3.7 11-4.7 20.1-4.1 38.5.6 19.6 2.3 27.4 9.1 41.9 14 29.5 31.5 46.5 61.8 59.9 16.9 7.5 27.8 9.5 42.4 7.5 18.5-2.4 33.7-9.3 53.9-24.3 27.9-20.8 43.5-45.1 45.2-70.8 1-15.4-4-38.4-12.3-55.9-3.9-8.1-5.7-10.6-13.1-17.8-20-19.5-38.3-28.4-54.3-26.5m37.4 20.3c5.9 5.2 10.1 17.4 11.2 33.1.9 12.1 0 17.3-4 21.7-1.9 2-4.7 6.4-6.4 9.7-2.1 4.3-5.2 8-10.7 12.9-4.8 4.3-9.6 10-12.9 15-6.5 10.1-12 14.9-25.4 22.1-8.4 4.5-12.1 5.9-19.1 7.1-4.7.9-11.3 2.7-14.6 4.1-11.8 4.9-14.1 5.6-21 5.6-12 .1-34.6-7.3-39.8-13.1-1.3-1.4-.3-1.2 4.1 1 7.9 3.9 15.4 5.8 23.8 5.8 8.8 0 15.5-2 25.9-7.6 4.4-2.4 12.9-6.1 18.8-8.3 19.7-7.3 23-9.6 44.9-30.5 27-25.9 29.3-29.8 29.3-51.1 0-17.9-.3-18.6-9.8-27.9l-8.2-7.9 5.2 2.7c2.9 1.4 6.8 3.9 8.7 5.6m62.5 142.2c-3.8 7.5-10.4 17.2-16.8 24.6-16.3 19-43.4 36-66.3 41.8-12.5 3.1-6.2 4.7 7.5 1.9 14-2.9 32.3-11.3 43.6-19.9 7.7-6 19-18.1 24.7-26.7 3.9-6 11.4-22.4 11.4-25.1 0-2.2-2.2-.4-4.1 3.4"/>
    </g>
</svg>
