<?xml version="1.0" standalone="no"?>
<!DOCTYPE svg PUBLIC "-//W3C//DTD SVG 20010904//EN"
 "http://www.w3.org/TR/2001/REC-SVG-20010904/DTD/svg10.dtd">
<svg version="1.0" xmlns="http://www.w3.org/2000/svg"
 width="512.000000pt" height="512.000000pt" viewBox="0 0 512.000000 512.000000"
 preserveAspectRatio="xMidYMid meet">
<metadata>
Created by potrace 1.16, written by Peter Selinger 2001-2019
</metadata>
<g transform="translate(0.000000,512.000000) scale(0.100000,-0.100000)"
fill="#f2f2f2" stroke="none">
<path d="M1819 4768 c-16 -18 -29 -36 -29 -41 0 -10 96 -155 123 -184 13 -15
32 -23 51 -23 38 0 96 34 96 56 0 16 -108 172 -142 206 -28 28 -65 22 -99 -14z"/>
<path d="M1633 4545 c-57 -29 -78 -49 -68 -65 8 -13 42 -13 50 0 19 30 145 67
145 43 0 -4 -12 -20 -27 -37 -23 -25 -20 -23 20 8 52 42 58 61 25 70 -46 12
-95 5 -145 -19z"/>
<path d="M2078 4462 c-4 -57 -14 -89 -47 -158 -37 -78 -56 -101 -191 -239 -83
-83 -150 -155 -150 -160 0 -5 23 -44 51 -86 34 -52 49 -84 45 -96 -8 -23 -133
-122 -166 -130 -21 -5 -33 4 -90 66 -36 39 -68 71 -72 71 -4 0 -52 -29 -106
-65 -249 -163 -391 -210 -547 -183 l-40 7 35 -16 c123 -57 317 -3 543 150 54
37 104 67 110 67 7 0 40 -32 75 -70 35 -39 69 -70 76 -70 20 0 127 73 174 118
23 23 42 51 42 62 0 11 -23 54 -51 97 l-50 77 119 113 c130 123 200 215 233
308 25 72 34 151 21 185 -7 20 -10 11 -14 -48z"/>
<path d="M1427 4495 c-86 -24 -124 -62 -134 -134 -5 -36 -14 -47 -71 -91 -58
-45 -70 -50 -116 -50 -59 0 -101 -22 -140 -73 -35 -46 -43 -96 -21 -130 l17
-26 39 31 c55 44 57 31 4 -26 -34 -36 -45 -55 -45 -79 1 -63 55 -94 123 -68
35 14 85 67 113 122 41 83 232 230 330 255 77 20 127 53 149 100 16 34 16 39
1 70 -25 54 -83 57 -158 8 -45 -29 -51 -14 -8 18 17 12 30 27 30 34 0 12 -47
55 -59 53 -3 0 -28 -7 -54 -14z m43 -40 c11 -13 7 -22 -24 -54 -33 -34 -36
-42 -27 -60 15 -27 21 -27 14 -1 -4 16 -2 19 13 14 11 -4 26 -13 35 -21 14
-12 16 -11 12 9 -7 40 87 90 122 65 17 -13 17 -15 0 -45 -22 -36 -74 -67 -130
-77 -53 -10 -77 -23 -165 -90 -109 -84 -148 -123 -182 -188 -33 -60 -66 -91
-111 -102 -36 -10 -46 17 -22 61 24 46 59 68 85 54 18 -10 18 -9 4 17 -19 38
-18 54 4 46 16 -5 16 -5 0 12 -15 17 -18 16 -52 -10 -46 -35 -72 -30 -69 14 1
36 31 74 75 97 38 20 61 18 94 -8 16 -12 23 -15 16 -6 -11 14 -4 24 58 73 46
38 76 56 89 52 17 -4 17 -2 4 24 -13 26 -13 33 4 62 37 63 123 98 153 62z"/>
<path d="M1794 4474 l-39 -35 40 25 c22 14 43 26 47 26 21 0 5 -82 -27 -148
-29 -57 -52 -84 -115 -139 -43 -37 -79 -71 -79 -76 -2 -15 73 -107 87 -107 25
0 110 80 171 161 79 104 121 194 127 267 l4 57 -15 -63 c-8 -35 -31 -94 -50
-131 -35 -67 -139 -201 -155 -201 -5 0 -16 10 -24 22 -14 20 -12 24 38 78 57
62 96 134 104 192 4 30 -1 45 -22 73 -15 19 -33 35 -40 35 -7 0 -30 -16 -52
-36z"/>
<path d="M1109 4392 c-36 -32 -35 -48 11 -101 l29 -34 40 28 c62 43 63 46 28
92 -38 51 -64 54 -108 15z"/>
<path d="M2034 4153 c-21 -32 -86 -106 -143 -165 l-104 -108 52 -79 c42 -63
51 -83 43 -98 -20 -36 -123 -129 -184 -166 -99 -60 -101 -60 -170 17 -33 36
-64 66 -70 66 -6 0 -45 -22 -87 -49 -94 -60 -125 -76 -226 -117 -44 -18 -73
-35 -65 -37 8 -3 92 -12 186 -21 l172 -17 63 24 c217 82 371 203 489 384 42
64 49 81 55 145 3 40 13 118 21 172 8 55 12 101 11 103 -2 2 -21 -23 -43 -54z"/>
<path d="M1372 4064 c-23 -19 -42 -39 -42 -44 0 -10 197 -272 248 -330 35 -40
42 -43 63 -33 30 13 89 62 89 73 0 28 -278 370 -301 370 -8 0 -34 -16 -57 -36z"/>
<path d="M859 3940 c-38 -40 -59 -90 -59 -142 0 -35 14 -35 62 -2 46 32 49 40
8 19 -28 -14 -30 -14 -30 2 0 25 34 78 71 111 32 29 33 52 2 52 -9 0 -33 -18
-54 -40z"/>
<path d="M1166 3785 c-86 -61 -154 -85 -230 -85 -82 0 -89 13 -36 62 l45 40
-57 -38 c-32 -22 -58 -44 -58 -50 0 -5 15 -27 34 -47 29 -32 40 -37 78 -37 58
0 139 24 210 63 57 31 58 31 72 12 9 -11 16 -23 16 -26 0 -10 -163 -87 -219
-103 -30 -9 -91 -17 -135 -17 -80 -2 -80 -2 -26 -9 30 -4 82 -3 114 2 108 16
301 105 355 162 l23 25 -37 50 c-20 28 -44 51 -53 50 -10 0 -52 -25 -96 -54z"/>
<path d="M595 3808 c-41 -24 -58 -60 -43 -90 11 -23 148 -181 165 -191 9 -6
25 3 48 26 58 58 51 85 -48 190 l-82 87 -40 -22z"/>
<path d="M2049 3773 c-9 -10 -36 -47 -61 -83 -98 -140 -248 -254 -425 -320
-79 -30 -85 -34 -68 -47 11 -7 43 -21 72 -30 l53 -17 117 59 c107 52 127 68
220 159 116 115 137 153 127 224 -9 66 -17 77 -35 55z"/>
<path d="M2214 3572 c26 -50 95 -130 146 -171 68 -53 120 -72 440 -153 364
-92 464 -121 571 -169 257 -112 499 -287 661 -475 236 -276 333 -464 383 -747
31 -177 5 -329 -91 -519 -103 -205 -303 -426 -507 -561 -108 -71 -321 -174
-418 -201 -166 -47 -354 -59 -464 -31 -215 56 -461 218 -623 411 -270 319
-428 685 -462 1064 -5 62 -12 274 -16 469 -6 394 -9 415 -71 520 -37 62 -120
158 -129 149 -2 -3 18 -68 46 -146 76 -216 86 -286 105 -677 16 -356 27 -455
70 -620 64 -248 142 -438 265 -645 190 -322 469 -565 756 -659 254 -83 471
-79 752 15 420 139 766 484 906 904 64 194 61 446 -10 659 -81 243 -186 412
-383 614 -191 195 -351 315 -583 436 -189 99 -242 119 -560 211 -155 45 -311
93 -345 105 -92 35 -247 117 -351 185 -50 33 -93 60 -97 60 -3 0 1 -13 9 -28z"/>
<path d="M2068 3479 c-64 -77 -165 -158 -267 -212 l-84 -45 48 -34 c269 -185
527 -430 762 -723 84 -105 92 -112 173 -152 78 -38 90 -41 138 -35 l52 7 -155
195 c-171 215 -285 379 -394 572 -73 127 -164 321 -195 413 -9 28 -20 55 -24
61 -4 6 -26 -12 -54 -47z"/>
<path d="M3460 2643 c-19 -3 -96 -29 -170 -58 -168 -67 -227 -83 -363 -97
l-107 -11 24 -32 c89 -116 137 -191 134 -209 -5 -37 -44 -48 -151 -41 -94 5
-103 8 -169 47 -55 33 -85 60 -136 125 -73 93 -80 96 -157 59 -90 -41 -140
-110 -191 -258 -37 -110 -47 -201 -41 -385 6 -196 23 -274 91 -419 140 -295
315 -465 618 -599 169 -75 278 -95 424 -75 185 24 337 93 539 243 279 208 435
451 452 708 10 154 -40 384 -123 559 -39 81 -57 106 -131 178 -200 195 -383
284 -543 265z m374 -203 c59 -52 101 -174 112 -331 9 -121 0 -173 -40 -217
-19 -20 -47 -64 -64 -97 -21 -43 -52 -80 -107 -129 -48 -43 -96 -100 -129
-150 -65 -101 -120 -149 -254 -221 -84 -45 -121 -59 -191 -71 -47 -9 -113 -27
-146 -41 -118 -49 -141 -56 -210 -56 -120 -1 -346 73 -398 131 -13 14 -3 12
41 -10 79 -39 154 -58 238 -58 88 0 155 20 259 76 44 24 129 61 188 83 197 73
230 96 449 305 270 259 293 298 293 511 0 179 -3 186 -98 279 l-82 79 52 -27
c29 -14 68 -39 87 -56z"/>
<path d="M4459 1018 c-38 -75 -104 -172 -168 -246 -163 -190 -434 -360 -663
-418 -125 -31 -62 -47 75 -19 140 29 323 113 436 199 77 60 190 181 247 267
39 60 114 224 114 251 0 22 -22 4 -41 -34z"/>
</g>
</svg>
