<?xml version="1.0" standalone="no"?>
<!DOCTYPE svg PUBLIC "-//W3C//DTD SVG 20010904//EN"
 "http://www.w3.org/TR/2001/REC-SVG-20010904/DTD/svg10.dtd">
<svg version="1.0" xmlns="http://www.w3.org/2000/svg"
 width="256.000000pt" height="256.000000pt" viewBox="0 0 256.000000 256.000000"
 preserveAspectRatio="xMidYMid meet">
<metadata>
Created by potrace 1.16, written by Peter Selinger 2001-2019
</metadata>
<g transform="translate(0.000000,256.000000) scale(0.100000,-0.100000)"
fill="#f2f2f2" stroke="none">
<path d="M1187 2426 l-88 -71 91 -3 c49 -1 131 -1 181 0 l91 3 -89 70 c-48 39
-90 71 -93 71 -3 1 -45 -30 -93 -70z"/>
<path d="M1080 2240 c-47 -10 -116 -30 -155 -44 -69 -26 -175 -85 -175 -96 0
-4 29 -22 64 -42 l63 -35 36 18 c19 10 75 31 124 46 80 24 103 27 243 27 140
0 163 -3 243 -27 49 -15 105 -36 124 -46 l36 -18 63 35 c35 20 64 38 64 42 0
13 -110 71 -186 99 -170 62 -375 78 -544 41z"/>
<path d="M495 2060 c173 -280 258 -454 301 -616 1 -7 27 -20 56 -29 60 -20
191 -86 228 -115 l25 -20 -25 -20 c-37 -29 -168 -95 -228 -115 -29 -9 -55 -22
-56 -29 -43 -162 -128 -336 -301 -616 -6 -9 -4 -11 5 -5 280 173 454 258 616
301 7 1 20 27 29 56 20 60 86 191 115 228 l20 25 20 -25 c29 -37 95 -168 115
-228 9 -29 22 -55 29 -56 162 -43 336 -128 616 -301 9 -6 11 -4 5 5 -173 280
-258 454 -301 616 -1 7 -27 20 -56 29 -60 20 -191 86 -228 115 l-25 20 25 20
c37 29 168 95 228 115 29 9 55 22 56 29 43 162 128 336 301 616 6 9 4 11 -5 5
-280 -173 -454 -258 -616 -301 -7 -1 -20 -27 -29 -56 -20 -60 -86 -191 -115
-228 l-20 -25 -20 25 c-29 37 -95 168 -115 228 -9 29 -22 55 -29 56 -162 43
-336 128 -616 301 -9 6 -11 4 -5 -5z m555 -432 c1 -7 15 -51 33 -98 l33 -86
-86 33 c-47 18 -91 32 -97 33 -22 0 -14 13 44 72 58 59 73 68 73 46z m532 -45
c59 -58 68 -73 46 -73 -7 -1 -51 -15 -98 -33 l-86 -33 33 86 c18 47 32 91 33
98 0 21 13 13 72 -45z m-498 -550 c-18 -49 -33 -94 -34 -100 0 -7 -4 -13 -8
-13 -10 0 -127 118 -121 123 2 2 40 16 84 31 44 16 87 32 95 37 8 5 16 9 16 9
1 0 -14 -39 -32 -87z m544 17 c21 0 13 -13 -45 -72 -58 -59 -73 -68 -73 -45
-1 6 -15 50 -33 97 l-33 86 86 -33 c47 -18 91 -32 98 -33z"/>
<path d="M1278 1990 c-4 -8 -16 -47 -28 -87 l-22 -72 21 -71 c12 -38 25 -70
30 -70 11 0 25 34 41 96 12 45 11 57 -8 115 -11 35 -23 73 -25 84 -3 15 -5 17
-9 5z"/>
<path d="M422 1757 c-42 -70 -87 -194 -106 -297 -32 -166 -15 -359 45 -524 28
-76 86 -186 99 -186 4 0 22 29 42 64 l35 63 -18 36 c-10 19 -31 75 -46 124
-24 80 -27 103 -27 243 0 140 3 163 27 243 15 49 36 105 45 124 l19 35 -34 64
c-19 35 -38 64 -42 64 -4 0 -21 -24 -39 -53z"/>
<path d="M2058 1746 l-35 -63 18 -36 c10 -19 31 -75 46 -124 24 -80 27 -103
27 -243 0 -140 -3 -163 -27 -243 -15 -49 -36 -105 -46 -124 l-18 -36 35 -63
c20 -35 38 -64 42 -64 13 0 71 110 99 186 81 222 81 466 0 688 -28 76 -86 186
-99 186 -4 0 -22 -29 -42 -64z"/>
<path d="M133 1370 l-72 -90 72 -90 72 -91 3 91 c1 49 1 131 0 180 l-3 91 -72
-91z"/>
<path d="M2350 1280 c0 -106 4 -180 9 -175 5 6 38 47 75 93 l66 82 -66 83
c-37 45 -70 86 -75 92 -5 5 -9 -69 -9 -175z"/>
<path d="M680 1319 c-14 -6 -47 -16 -75 -24 -27 -7 -43 -15 -35 -18 8 -3 47
-15 87 -27 l72 -22 71 21 c38 12 70 25 70 30 0 9 -24 19 -89 40 -41 13 -68 13
-101 0z"/>
<path d="M1750 1310 c-30 -11 -56 -20 -57 -20 -2 0 -3 -4 -3 -10 0 -5 32 -19
70 -31 l71 -21 72 22 c40 12 79 24 87 27 8 3 -7 11 -35 18 -27 8 -63 18 -78
24 -38 15 -62 13 -127 -9z"/>
<path d="M1249 800 l-21 -71 22 -72 c32 -104 32 -105 37 -82 2 11 14 49 25 84
19 58 20 70 8 115 -16 62 -30 96 -41 96 -5 0 -18 -32 -30 -70z"/>
<path d="M813 502 c-35 -20 -63 -38 -63 -42 0 -13 110 -71 186 -99 222 -81
466 -81 688 0 76 28 186 86 186 99 0 4 -29 22 -64 42 -57 31 -66 34 -87 22
-38 -21 -168 -62 -233 -73 -161 -29 -374 0 -516 69 -35 17 -35 17 -97 -18z"/>
<path d="M1106 201 c5 -5 46 -38 92 -75 l82 -66 83 66 c45 37 86 70 92 75 5 5
-69 9 -175 9 -106 0 -180 -4 -174 -9z"/>
</g>
</svg>
