<?xml version="1.0" standalone="no"?>
<!DOCTYPE svg PUBLIC "-//W3C//DTD SVG 20010904//EN"
 "http://www.w3.org/TR/2001/REC-SVG-20010904/DTD/svg10.dtd">
<svg version="1.0" xmlns="http://www.w3.org/2000/svg"
 width="256.000000pt" height="256.000000pt" viewBox="0 0 256.000000 256.000000"
 preserveAspectRatio="xMidYMid meet">
<metadata>
Created by potrace 1.16, written by Peter Selinger 2001-2019
</metadata>
<g transform="translate(0.000000,256.000000) scale(0.100000,-0.100000)"
fill="#f2f2f2" stroke="none">
<path d="M287 2373 c-14 -14 -5 -51 38 -153 l43 -105 156 -3 c95 -1 156 1 156
7 0 5 -41 31 -91 58 -92 48 -213 147 -224 183 -5 15 -15 20 -39 20 -18 0 -36
-3 -39 -7z"/>
<path d="M2190 2372 c0 -6 -20 -32 -45 -60 -46 -51 -125 -107 -222 -156 -29
-14 -53 -31 -53 -36 0 -7 56 -10 156 -8 l156 3 44 109 c54 131 54 150 2 154
-21 2 -38 -1 -38 -6z"/>
<path d="M740 2051 c0 -21 -6 -32 -20 -36 -28 -9 -25 -34 6 -45 32 -13 219
-13 262 -1 30 9 38 6 98 -40 36 -27 70 -49 77 -49 13 1 62 39 56 43 -2 2 -32
25 -66 51 -52 39 -63 52 -63 77 l0 29 -175 0 -175 0 0 -29z"/>
<path d="M1480 2051 c0 -25 -11 -37 -65 -77 -36 -26 -65 -51 -65 -55 0 -8 46
-39 58 -39 5 0 38 22 75 50 60 46 67 48 98 40 38 -11 221 -12 259 -1 24 7 42
41 21 41 -19 0 -42 32 -36 51 6 18 -1 19 -169 19 l-176 0 0 -29z"/>
<path d="M254 1959 c8 -49 25 -84 60 -122 23 -25 26 -36 26 -107 l0 -80 37
-15 c77 -32 73 -13 73 -354 l0 -306 -56 -35 -56 -35 5 -63 c5 -62 5 -63 -27
-76 -57 -24 -105 -99 -121 -188 l-7 -38 216 0 216 0 68 73 c38 39 112 119 164
176 l96 104 -20 46 c-75 173 -76 382 -2 567 14 36 24 81 24 110 l0 49 -163
168 -162 168 -189 -1 -189 0 7 -41z"/>
<path d="M1781 1833 l-160 -168 -1 -49 c0 -29 10 -74 24 -110 74 -185 73 -394
-2 -567 l-20 -46 96 -104 c52 -57 126 -137 164 -176 l68 -73 216 0 216 0 -7
37 c-16 90 -64 165 -121 189 -32 13 -32 14 -27 76 l5 63 -56 35 -56 35 0 306
c0 341 -4 322 73 354 l37 15 0 80 c0 71 3 82 26 107 35 38 52 73 60 122 l7 41
-191 0 -190 0 -161 -167z"/>
<path d="M1199 1575 c-92 -30 -179 -134 -195 -234 -5 -32 -11 -41 -26 -41 -30
0 -58 -19 -58 -38 0 -27 20 -42 55 -42 28 0 34 -6 51 -42 27 -60 79 -115 138
-146 74 -39 178 -38 258 1 64 31 112 81 140 144 13 29 25 43 38 43 33 0 50 12
50 34 0 26 -18 46 -41 46 -12 0 -19 12 -24 38 -26 142 -135 241 -275 248 -39
2 -83 -2 -111 -11z m191 -46 c54 -24 105 -71 130 -119 22 -45 35 -110 20 -110
-5 0 -10 13 -10 28 0 49 -48 130 -96 163 -101 69 -225 59 -309 -26 -28 -28
-48 -58 -55 -87 -19 -67 -31 -90 -24 -43 24 160 200 259 344 194z m29 -43 c48
-33 89 -97 98 -150 5 -33 4 -36 -20 -36 -14 0 -32 -3 -41 -6 -11 -4 -17 2 -22
23 -25 108 -137 155 -223 94 -33 -24 -61 -77 -61 -116 0 -25 -1 -25 -22 -11
-12 9 -30 16 -40 16 -36 0 -15 86 36 146 45 54 100 76 182 72 59 -3 78 -8 113
-32z m-62 -96 c37 -22 65 -92 45 -112 -9 -9 -12 -5 -12 19 0 46 -36 83 -87 90
-37 5 -45 2 -73 -25 -20 -21 -30 -40 -30 -61 0 -17 -4 -31 -10 -31 -5 0 -10
16 -10 36 0 28 8 44 34 70 40 40 92 46 143 14z m-28 -35 c30 -15 41 -33 41
-66 0 -18 -6 -20 -77 -17 -77 3 -78 3 -75 28 2 27 44 70 68 70 8 0 28 -7 43
-15z m-152 -139 c13 -20 37 -40 58 -47 33 -12 35 -16 35 -56 0 -51 -7 -53 -79
-17 -38 19 -62 40 -83 73 -27 43 -28 46 -9 49 11 2 25 10 31 18 17 20 22 18
47 -20z m52 9 c13 -14 27 -25 32 -25 5 0 9 -4 9 -10 0 -5 -8 -7 -17 -3 -22 7
-63 43 -63 55 0 15 15 8 39 -17z m41 10 c0 -8 -4 -15 -9 -15 -5 0 -14 7 -21
15 -10 13 -9 15 9 15 12 0 21 -6 21 -15z m80 6 c0 -5 -7 -11 -15 -15 -9 -3
-15 0 -15 9 0 8 7 15 15 15 8 0 15 -4 15 -9z m38 -10 c-11 -19 -68 -57 -68
-46 0 8 63 64 73 65 4 0 2 -8 -5 -19z m98 -11 c24 0 24 -1 10 -28 -21 -41 -66
-82 -111 -103 -59 -27 -65 -25 -65 25 0 38 3 45 24 50 14 3 40 24 57 45 28 33
35 36 47 25 7 -8 24 -14 38 -14z m-391 -52 c94 -160 328 -145 418 27 9 17 16
24 17 17 0 -22 -27 -66 -62 -98 -55 -53 -95 -68 -173 -68 -100 0 -180 48 -226
137 -29 55 -9 44 26 -15z m202 -80 c-2 -13 -4 -3 -4 22 0 25 2 35 4 23 2 -13
2 -33 0 -45z"/>
<path d="M937 547 l-138 -152 141 -3 c139 -3 141 -3 152 -27 l11 -25 174 0
173 0 12 25 c11 24 13 25 152 27 l140 3 -138 150 c-76 83 -145 152 -154 154
-8 1 -33 -8 -56 -20 -35 -20 -55 -24 -133 -24 -79 0 -95 3 -122 23 -54 40 -65
33 -214 -131z"/>
<path d="M415 396 c-29 -50 -60 -132 -70 -188 l-7 -38 45 0 c40 0 47 4 68 36
32 47 126 117 222 166 45 22 77 44 74 51 -2 8 -48 13 -155 15 l-151 3 -26 -45z"/>
<path d="M1820 422 c0 -12 23 -29 73 -54 93 -46 191 -118 219 -163 20 -31 28
-35 66 -35 36 0 42 3 42 21 0 33 -48 166 -75 209 l-25 40 -150 0 c-137 0 -150
-2 -150 -18z"/>
</g>
</svg>
