<?xml version="1.0" standalone="no"?>
<!DOCTYPE svg PUBLIC "-//W3C//DTD SVG 20010904//EN"
 "http://www.w3.org/TR/2001/REC-SVG-20010904/DTD/svg10.dtd">
<svg version="1.0" xmlns="http://www.w3.org/2000/svg"
 width="256.000000pt" height="256.000000pt" viewBox="0 0 256.000000 256.000000"
 preserveAspectRatio="xMidYMid meet">
<metadata>
Created by potrace 1.16, written by Peter Selinger 2001-2019
</metadata>
<g transform="translate(0.000000,256.000000) scale(0.100000,-0.100000)"
fill="#f2f2f2" stroke="none">
<path d="M1950 2475 c-6 -8 -9 -23 -5 -36 6 -18 -18 -47 -159 -188 l-166 -166
104 -104 105 -104 169 161 c99 94 178 162 189 162 27 0 43 19 43 53 0 24 -19
49 -102 133 -87 89 -106 104 -134 104 -17 0 -37 -7 -44 -15z"/>
<path d="M1188 2029 c-2 -27 1 -43 10 -48 11 -6 13 -36 10 -139 l-3 -132 -100
-100 c-88 -88 -104 -100 -134 -100 -31 0 -50 -16 -202 -167 -140 -138 -166
-169 -158 -184 5 -10 9 -41 9 -70 0 -50 -2 -55 -60 -115 -33 -34 -60 -69 -60
-77 0 -7 9 -22 20 -32 21 -19 20 -20 -140 -180 l-161 -161 20 -25 20 -24 354
353 353 353 19 -21 c19 -21 18 -22 -356 -396 l-374 -375 78 -75 c139 -132 245
-204 300 -204 31 0 77 42 77 70 0 10 -22 38 -50 64 -27 26 -50 52 -50 59 0 7
35 114 77 239 l78 226 54 11 c75 15 76 15 89 -22 6 -18 30 -50 52 -72 l40 -39
52 51 51 52 -29 33 c-16 18 -46 77 -68 131 -37 96 -38 98 -20 118 16 18 26 20
72 14 43 -5 57 -3 72 10 16 15 30 15 140 4 l122 -12 221 221 220 220 -27 164
-27 163 -112 112 -112 112 -166 15 c-92 9 -173 16 -182 16 -10 0 -16 -13 -19
-41z m409 -201 l63 -62 0 -129 0 -129 -72 -74 c-39 -41 -79 -74 -89 -74 -19 0
-69 54 -69 75 0 7 12 28 27 45 25 30 27 41 40 208 13 180 17 202 30 202 4 0
36 -28 70 -62z m-337 -315 l-12 -168 -40 -42 c-40 -41 -42 -42 -70 -27 -16 8
-32 22 -35 30 -3 8 2 68 12 132 l17 117 66 67 c36 37 68 66 70 63 3 -2 -1 -80
-8 -172z m-439 -417 c-104 -104 -133 -128 -143 -118 -18 18 240 276 260 260
11 -9 -12 -37 -117 -142z"/>
<path d="M1015 1837 c-4 -24 -5 -56 -3 -73 3 -29 4 -29 71 -32 l67 -3 0 76 0
75 -64 0 -65 0 -6 -43z"/>
</g>
</svg>
