<?xml version="1.0" standalone="no"?>
<!DOCTYPE svg PUBLIC "-//W3C//DTD SVG 20010904//EN"
 "http://www.w3.org/TR/2001/REC-SVG-20010904/DTD/svg10.dtd">
<svg version="1.0" xmlns="http://www.w3.org/2000/svg"
 width="256.000000pt" height="256.000000pt" viewBox="0 0 256.000000 256.000000"
 preserveAspectRatio="xMidYMid meet">
<metadata>
Created by potrace 1.16, written by Peter Selinger 2001-2019
</metadata>
<g transform="translate(0.000000,256.000000) scale(0.100000,-0.100000)"
fill="#f2f2f2" stroke="none">
<path d="M1076 2334 c-210 -41 -385 -134 -543 -287 -208 -202 -329 -483 -321
-743 3 -83 5 -89 25 -92 73 -11 247 170 435 452 45 67 108 158 141 204 l60 83
25 -23 c13 -13 72 -70 130 -128 l105 -105 23 50 c13 28 24 55 24 60 0 6 -54
64 -119 129 l-120 120 30 38 c17 21 34 38 39 38 4 0 55 -47 113 -106 l105
-105 21 63 21 62 -92 93 -92 93 34 35 c19 19 37 35 40 35 4 0 36 -29 72 -65
74 -72 78 -71 78 21 0 86 -8 94 -93 93 -40 0 -103 -7 -141 -15z"/>
<path d="M1753 2175 c-172 -74 -420 -348 -721 -795 -61 -91 -154 -217 -206
-281 l-95 -117 -117 119 c-65 65 -121 119 -125 119 -3 0 -16 -25 -28 -56 l-21
-57 105 -104 c58 -58 105 -108 105 -112 0 -3 -14 -24 -31 -45 l-32 -38 -93 93
-92 92 -11 -39 c-26 -100 -29 -89 43 -161 l67 -66 -28 -19 c-15 -10 -40 -18
-55 -18 -16 0 -28 -3 -28 -7 0 -27 174 -210 256 -269 75 -53 107 -56 190 -14
162 81 397 342 659 730 118 176 258 362 297 396 12 11 18 13 14 6 -6 -9 32
-53 117 -137 l125 -124 21 51 c11 28 21 56 21 62 0 6 -50 61 -111 122 l-112
112 21 29 c43 61 41 62 149 -46 l100 -100 16 53 c9 29 17 59 17 67 0 7 -35 48
-77 91 -83 84 -84 85 -22 129 l28 19 51 -52 52 -53 -5 46 c-5 58 -44 117 -146
223 -145 150 -217 186 -298 151z"/>
<path d="M787 1815 c-15 -25 -27 -51 -27 -57 0 -13 254 -268 267 -268 5 0 20
23 33 51 l24 50 -135 135 -134 134 -28 -45z"/>
<path d="M665 1600 l-26 -51 136 -136 c79 -80 139 -133 144 -127 4 5 19 28 32
52 l23 43 -134 134 c-74 74 -138 135 -142 135 -4 0 -19 -23 -33 -50z"/>
<path d="M562 1395 c-12 -25 -22 -50 -22 -56 0 -12 248 -265 253 -258 24 35
57 90 57 96 0 9 -252 263 -261 263 -3 0 -15 -20 -27 -45z"/>
<path d="M1703 1378 l-32 -52 135 -134 c74 -74 136 -133 138 -131 2 2 15 27
29 55 l26 51 -132 131 -132 132 -32 -52z"/>
<path d="M2255 1325 c-97 -65 -225 -217 -395 -469 -61 -91 -116 -169 -122
-172 -7 -4 -2 6 10 23 12 17 22 35 22 40 0 4 -60 69 -134 142 l-135 134 -27
-56 -28 -56 110 -109 c60 -60 120 -121 133 -135 l24 -26 -28 -38 c-16 -21 -30
-40 -32 -43 -2 -2 -60 52 -128 120 -68 68 -126 122 -128 120 -2 -3 -13 -29
-25 -59 l-22 -54 115 -115 115 -114 -31 -39 c-17 -21 -34 -39 -38 -39 -3 0
-49 43 -101 95 -52 52 -97 91 -101 87 -4 -4 -14 -31 -23 -61 l-16 -54 63 -62
c110 -110 105 -99 56 -135 l-43 -31 -48 48 -48 47 0 -33 c0 -60 13 -71 84 -71
124 0 295 44 426 110 199 100 379 279 477 475 76 150 116 317 111 461 -3 87
-4 89 -28 92 -15 2 -42 -8 -65 -23z"/>
<path d="M1587 1182 c-15 -27 -27 -53 -27 -57 0 -9 269 -279 273 -274 2 2 16
26 31 53 l28 49 -139 139 -139 139 -27 -49z"/>
</g>
</svg>
