<?xml version="1.0" standalone="no"?>
<!DOCTYPE svg PUBLIC "-//W3C//DTD SVG 20010904//EN"
 "http://www.w3.org/TR/2001/REC-SVG-20010904/DTD/svg10.dtd">
<svg version="1.0" xmlns="http://www.w3.org/2000/svg"
 width="256.000000pt" height="256.000000pt" viewBox="0 0 256.000000 256.000000"
 preserveAspectRatio="xMidYMid meet">
<metadata>
Created by potrace 1.16, written by Peter Selinger 2001-2019
</metadata>
<g transform="translate(0.000000,256.000000) scale(0.100000,-0.100000)"
fill="#f2f2f2" stroke="none">
<path d="M1198 1538 l-3 -763 -70 -52 c-103 -77 -235 -141 -330 -159 -118 -22
-261 -29 -325 -15 -80 17 -198 79 -251 131 -113 112 -143 299 -63 386 18 19
22 30 15 42 -8 15 -16 10 -59 -34 -71 -73 -95 -131 -96 -223 0 -101 31 -170
116 -255 443 -442 1853 -442 2296 0 85 85 116 154 116 255 -1 92 -25 150 -96
223 -43 44 -51 49 -59 34 -7 -12 -3 -23 15 -42 80 -87 50 -274 -63 -386 -53
-52 -171 -114 -251 -131 -65 -14 -221 -6 -325 16 -112 24 -268 107 -370 197
l-35 30 0 754 0 754 -80 0 -80 0 -2 -762z"/>
<path d="M1045 2078 c-10 -43 -205 -1073 -205 -1085 0 -8 167 -117 263 -170 4
-2 7 284 7 636 l0 641 -30 0 c-22 0 -31 -5 -35 -22z"/>
<path d="M1460 1461 l0 -639 133 81 134 80 -12 61 c-6 34 -54 285 -105 559
l-95 497 -27 0 -28 0 0 -639z"/>
<path d="M620 1864 c-30 -20 -56 -37 -56 -38 -4 -3 33 -326 37 -329 4 -3 202
-127 225 -140 7 -4 19 30 34 102 l22 108 -90 149 c-127 208 -107 191 -172 148z"/>
<path d="M1781 1732 l-101 -167 22 -103 c13 -56 27 -102 31 -102 5 0 60 32
122 70 l112 70 12 123 c7 67 15 140 18 162 5 40 4 41 -51 78 -31 20 -57 37
-59 37 -2 0 -50 -75 -106 -168z"/>
<path d="M126 1586 l-75 -82 189 -345 c104 -189 191 -348 192 -352 3 -6 284
148 326 179 2 1 14 58 28 126 13 67 26 133 29 145 4 19 -20 37 -198 149 -111
70 -250 158 -309 195 l-107 68 -75 -83z"/>
<path d="M2055 1475 c-159 -101 -294 -186 -300 -188 -11 -4 30 -249 48 -285 7
-14 73 -58 167 -112 l155 -89 16 27 c9 15 96 173 193 351 l177 323 -23 27
c-58 66 -123 131 -133 130 -5 0 -140 -83 -300 -184z"/>
</g>
</svg>
