<svg xmlns="http://www.w3.org/2000/svg" width="341.333" height="341.333" version="1.0" viewBox="0 0 256 256">
    <g fill="#e5e5e5">
        <path d="m119.8 102.2-.3 76.3-7 5.2c-10.3 7.7-23.5 14.1-33 15.9-11.8 2.2-26.1 2.9-32.5 1.5-8-1.7-19.8-7.9-25.1-13.1-11.3-11.2-14.3-29.9-6.3-38.6 1.8-1.9 2.2-3 1.5-4.2-.8-1.5-1.6-1-5.9 3.4-7.1 7.3-9.5 13.1-9.6 22.3 0 10.1 3.1 17 11.6 25.5 44.3 44.2 185.3 44.2 229.6 0 8.5-8.5 11.6-15.4 11.6-25.5-.1-9.2-2.5-15-9.6-22.3-4.3-4.4-5.1-4.9-5.9-3.4-.7 1.2-.3 2.3 1.5 4.2 8 8.7 5 27.4-6.3 38.6-5.3 5.2-17.1 11.4-25.1 13.1-6.5 1.4-22.1.6-32.5-1.6-11.2-2.4-26.8-10.7-37-19.7l-3.5-3V26h-16z"/>
        <path d="M104.5 48.2c-1 4.3-20.5 107.3-20.5 108.5 0 .8 16.7 11.7 26.3 17 .4.2.7-28.4.7-63.6V46h-3c-2.2 0-3.1.5-3.5 2.2m41.5 61.7v63.9l13.3-8.1 13.4-8-1.2-6.1c-.6-3.4-5.4-28.5-10.5-55.9L151.5 46H146zM62 69.6c-3 2-5.6 3.7-5.6 3.8-.4.3 3.3 32.6 3.7 32.9s20.2 12.7 22.5 14c.7.4 1.9-3 3.4-10.2l2.2-10.8-9-14.9C66.5 63.6 68.5 65.3 62 69.6m116.1 13.2L168 99.5l2.2 10.3c1.3 5.6 2.7 10.2 3.1 10.2.5 0 6-3.2 12.2-7l11.2-7 1.2-12.3c.7-6.7 1.5-14 1.8-16.2.5-4 .4-4.1-5.1-7.8-3.1-2-5.7-3.7-5.9-3.7s-5 7.5-10.6 16.8M12.6 97.4l-7.5 8.2L24 140.1c10.4 18.9 19.1 34.8 19.2 35.2.3.6 28.4-14.8 32.6-17.9.2-.1 1.4-5.8 2.8-12.6 1.3-6.7 2.6-13.3 2.9-14.5.4-1.9-2-3.7-19.8-14.9-11.1-7-25-15.8-30.9-19.5l-10.7-6.8zm192.9 11.1c-15.9 10.1-29.4 18.6-30 18.8-1.1.4 3 24.9 4.8 28.5.7 1.4 7.3 5.8 16.7 11.2l15.5 8.9 1.6-2.7c.9-1.5 9.6-17.3 19.3-35.1l17.7-32.3-2.3-2.7c-5.8-6.6-12.3-13.1-13.3-13-.5 0-14 8.3-30 18.4"/>
    </g>
</svg>
