<?xml version="1.0" standalone="no"?>
<!DOCTYPE svg PUBLIC "-//W3C//DTD SVG 20010904//EN"
 "http://www.w3.org/TR/2001/REC-SVG-20010904/DTD/svg10.dtd">
<svg version="1.0" xmlns="http://www.w3.org/2000/svg"
 width="256.000000pt" height="256.000000pt" viewBox="0 0 256.000000 256.000000"
 preserveAspectRatio="xMidYMid meet">
<metadata>
Created by potrace 1.16, written by Peter Selinger 2001-2019
</metadata>
<g transform="translate(0.000000,256.000000) scale(0.100000,-0.100000)"
fill="#f2f2f2" stroke="none">
<path d="M931 2145 c-155 -112 -287 -207 -291 -212 -7 -7 83 -180 106 -203 6
-6 79 4 188 25 98 19 182 33 186 30 4 -3 20 -26 36 -53 15 -26 28 -48 30 -50
2 -3 269 172 288 189 8 7 -211 416 -247 462 -10 13 -53 -14 -296 -188z"/>
<path d="M938 2307 l-146 -32 -242 -165 c-133 -90 -238 -166 -234 -167 5 -2
71 5 146 16 l137 19 245 177 c205 146 265 193 244 184 -2 -1 -69 -15 -150 -32z"/>
<path d="M1803 1796 c-161 -110 -291 -207 -290 -214 4 -22 382 -721 390 -722
5 0 134 102 288 226 l279 225 -17 32 c-51 101 -346 643 -351 648 -4 4 -138
-84 -299 -195z"/>
<path d="M1818 1959 l-147 -28 -226 -151 c-124 -82 -225 -154 -225 -160 0 -5
4 -12 10 -15 14 -9 211 16 236 29 35 19 493 337 499 347 4 5 5 8 3 8 -2 -1
-69 -14 -150 -30z"/>
<path d="M380 1891 c-96 -15 -174 -30 -173 -34 4 -20 178 -317 185 -317 5 0
63 37 130 81 67 45 130 84 140 87 10 2 18 7 18 9 0 11 -113 203 -119 202 -3
-1 -85 -13 -181 -28z"/>
<path d="M803 1516 c-161 -111 -292 -205 -293 -209 0 -5 88 -172 196 -372
l197 -364 156 126 c306 248 411 334 411 337 0 6 -362 672 -368 677 -4 3 -138
-85 -299 -195z"/>
<path d="M818 1679 l-146 -28 -257 -170 c-140 -94 -248 -171 -238 -171 10 1
77 9 149 19 l131 17 244 168 c216 149 285 199 269 195 -3 -1 -71 -14 -152 -30z"/>
<path d="M1358 1556 c-42 -6 -80 -14 -83 -18 -4 -4 54 -120 129 -259 75 -139
136 -256 136 -260 0 -4 -27 -29 -60 -55 -33 -26 -60 -51 -60 -55 0 -4 5 -19
11 -32 10 -23 17 -24 131 -31 128 -6 278 -8 278 -3 0 12 -389 722 -396 723 -5
0 -44 -4 -86 -10z"/>
<path d="M262 1265 c-95 -12 -175 -24 -176 -26 -2 -2 78 -153 177 -336 l181
-331 171 -7 c93 -4 182 -5 198 -4 27 4 27 4 -167 364 -106 197 -197 360 -202
361 -5 1 -87 -9 -182 -21z"/>
<path d="M1983 844 l-83 -66 -244 8 -244 7 -22 38 c-23 42 -29 42 -78 0 l-22
-19 157 -251 c87 -138 161 -251 165 -251 11 0 528 482 528 493 0 13 -60 107
-69 107 -3 0 -43 -30 -88 -66z"/>
<path d="M1103 664 l-133 -105 52 -82 c28 -45 68 -109 88 -142 l37 -60 199 4
c109 2 200 4 202 6 4 4 -297 480 -306 482 -4 1 -67 -45 -139 -103z"/>
</g>
</svg>
