<?xml version="1.0" standalone="no"?>
<!DOCTYPE svg PUBLIC "-//W3C//DTD SVG 20010904//EN"
 "http://www.w3.org/TR/2001/REC-SVG-20010904/DTD/svg10.dtd">
<svg version="1.0" xmlns="http://www.w3.org/2000/svg"
 width="256.000000pt" height="256.000000pt" viewBox="0 0 256.000000 256.000000"
 preserveAspectRatio="xMidYMid meet">
<metadata>
Created by potrace 1.16, written by Peter Selinger 2001-2019
</metadata>
<g transform="translate(0.000000,256.000000) scale(0.100000,-0.100000)"
fill="#f2f2f2" stroke="none">
<path d="M640 1825 c0 -253 -4 -455 -9 -455 -5 0 -27 7 -50 15 l-42 15 3 -26
c2 -22 41 -51 238 -180 129 -84 238 -154 243 -154 4 0 6 222 5 493 l-3 492
-175 118 c-96 65 -183 123 -192 128 -17 9 -18 -15 -18 -446z"/>
<path d="M1725 2153 l-190 -128 -3 -492 c-1 -271 1 -493 5 -493 5 0 114 70
243 154 197 129 236 158 238 180 l3 26 -42 -15 c-23 -8 -45 -15 -50 -15 -5 0
-10 205 -11 455 l-3 455 -190 -127z"/>
<path d="M1347 1903 l-68 -45 -65 41 c-36 23 -67 41 -70 41 -2 0 -4 -269 -4
-599 l0 -599 63 -41 c35 -22 66 -41 70 -41 4 0 7 20 7 44 0 43 1 45 70 92 l70
48 0 553 c0 304 -1 553 -2 552 -2 0 -34 -21 -71 -46z"/>
<path d="M529 1183 c-7 -32 -13 -105 -12 -163 3 -362 257 -667 617 -741 115
-24 177 -24 292 0 232 48 425 193 534 402 57 110 82 211 83 339 1 101 -16 220
-32 220 -4 0 -29 -14 -56 -31 -48 -30 -48 -31 -24 -43 19 -9 25 -22 30 -61 10
-80 -5 -249 -21 -243 -4 2 -47 49 -96 106 -48 56 -92 102 -96 102 -11 0 -78
-44 -77 -50 0 -3 56 -54 124 -115 69 -60 125 -114 125 -119 0 -4 -16 -39 -36
-77 -39 -73 -162 -216 -174 -202 -5 4 -41 104 -81 221 -40 116 -78 212 -84
212 -24 0 -35 -27 -35 -86 0 -57 7 -78 75 -226 71 -152 75 -164 58 -176 -63
-47 -222 -102 -297 -102 l-39 0 6 104 7 104 -36 21 c-19 12 -38 21 -41 21 -3
0 -2 -56 2 -125 l7 -125 -38 0 c-59 0 -181 37 -254 77 -36 19 -66 36 -68 37
-1 2 34 78 78 171 77 159 81 170 78 228 -2 47 -7 63 -23 73 -20 13 -23 6 -95
-197 -41 -116 -79 -216 -83 -222 -12 -19 -129 112 -171 192 -20 38 -36 71 -36
73 0 3 56 55 125 117 69 62 125 115 125 119 0 4 -17 18 -37 31 l-36 23 -44
-48 c-23 -27 -66 -77 -95 -111 -29 -34 -56 -59 -60 -55 -12 12 -26 144 -22
207 5 81 12 105 29 105 28 0 15 19 -28 45 -24 14 -46 25 -50 25 -3 0 -11 -26
-18 -57z"/>
</g>
</svg>
