<svg xmlns="http://www.w3.org/2000/svg" width="682.667" height="682.667" version="1.0" viewBox="0 0 512 512">
    <g fill="#e5e5e5">
        <path d="M193.3 33.1c-2.8 2.8-1.2 4.6 8.1 9.7 5.1 2.9 10 5.2 10.9 5.2.8 0 2.5-.8 3.8-1.8l2.2-1.9-10.3-5.8c-11.8-6.6-13-7.1-14.7-5.4m-5 17.7c-3.2 2.7-13.4 10.8-22.8 18.2-9.3 7.3-17.6 13.9-18.4 14.6-2.9 2.7 11.8 18.2 16.3 17.2 2.1-.4 49.6-37.7 50.3-39.4 1.2-3.2-13-15.4-17.9-15.4-.9 0-4.3 2.2-7.5 4.8"/>
        <path d="M218.2 48.2c-1.8 1.8-1.4 4.5 1.4 9.3 1.6 2.9 2.3 4.9 1.7 5.9-.9 1.5-53.8 43.5-55.9 44.3-.7.3-3.1-.5-5.3-1.7-5-2.8-7.6-2.2-5.9 1.4 1.4 3.2.9 3.8-8.8 11.2-5.7 4.4-7.7 5.5-8.6 4.6-.7-.7-2.3-1.2-3.6-1.2-1.9 0-2.3.4-1.7 1.7.4 1 .9 3.6 1.2 5.8l.5 4-27.3 21.4c-15 11.8-28.1 21.6-29.1 21.9-1.2.3-3.4-1-6.3-3.7-4.9-4.5-5.3-4.7-7.9-2.8-2.4 1.7-1.6 3.3 7.1 14.4l6.4 8.3 6.7-5.7c3.7-3.1 7.2-6.6 7.9-7.8 1.4-2.5 10.1-9.5 11.8-9.5.6 0 2.2 1.1 3.5 2.5s3.1 2.5 4.1 2.5c1.8 0 31.8-23 33.1-25.4.5-.8-.3-2.9-1.7-5-1.4-2-2.5-4-2.5-4.4s1.9-2 4.3-3.6c2.3-1.7 9.5-7.2 16-12.4l11.8-9.5 3 3.6c1.7 2.1 3.5 3.7 4.1 3.7 1.4 0 30.7-23 32.4-25.4 1.2-1.7 1.1-2.4-.6-5.4-1.1-1.8-2-3.7-2-4.2 0-1.3 10-8.6 13-9.5 2-.6 15.5-10.2 15.5-11 0-1-15.2-19.4-16-19.5-.6 0-1.6.5-2.3 1.2m-17.8 43.9c1.4 1.7 2.6 3.5 2.6 4 0 .9-19.4 16.7-21.7 17.6-1.5.6-5.3-2.4-5.3-4.1 0-.7 2.3-2.9 5-4.9 2.8-2.1 5.8-5.2 6.6-7 1.4-2.8 7.7-8.6 9.6-8.7.3 0 1.8 1.4 3.2 3.1m-66.2 53.6c1 .9 1.8 2.2 1.8 2.9 0 1.3-21.3 18.4-22.9 18.4s-6-6-5.5-7.5c.8-2.1 7-6.5 9.2-6.5 2 0 10.1-5 12.2-7.5 1.6-1.9 2.9-1.9 5.2.2m93.8-96c0 .4 2.4 3.8 5.4 7.7s6.4 8.9 7.7 11.1C244 73.6 249.9 81 251 81c1.8 0-.2-6.5-3.5-11.5C241 59.5 232 49 230 49c-1.1 0-2 .3-2 .7m10 21.9c0 .4 1.6 2.9 3.6 5.6 4.8 6.4 3.3 8.5-2 2.8-4.1-4.5-3.9-4.5-11.1 1.4-5.8 4.7-6.5 5.5-6.5 7.8 0 2.6 7.8 11.8 9.5 11.2 2.2-.9 1.8-2.6-1.5-6.4-1.6-1.9-2.9-4-3-4.6 0-1.3 4.2-5.4 5.6-5.4.5 0 2.7 2.2 4.8 5 2.1 2.7 4.1 5 4.4 5 .8 0 9.1-6.4 9.2-7.1 0-.7-12-15.9-12.6-15.9-.2 0-.4.3-.4.6"/>
        <path d="M126 91.5c-5.8 4.6-10.4 8.9-10.2 9.6.5 2.2 10.7 14.8 12 14.8.7.1 2.1-.4 3.1-1.1 1.4-.9 2.3-.8 4.2.5 3.4 2.4 4.9 2.1 9.8-2.1l4.3-3.8-1.5-3.1c-1.5-2.9-1.5-3.2.3-4.8 1.1-1 2-2.3 2-2.8 0-1.7-11.1-15.7-12.4-15.6-.6 0-5.8 3.8-11.6 8.4m129-5.2q0 2.85 4.8 9c4.1 5.5 4.7 5.9 5 3.9.3-2.3-1.9-6.3-7.3-12.7l-2.4-3zM242.4 100c-4.9 3.8-9.6 7-10.4 7s-3.3-1.9-5.6-4.1l-4.2-4.1-1.5 2.3c-1.5 2.3-9.2 39.7-8.4 40.5.6.6 46.8-35.7 47.4-37.3.5-1.2-6.4-11.3-7.7-11.3-.4 0-4.7 3.1-9.6 7m-46.8 15c-9.8 7.7-18.5 14-19.3 14s-2.7-1.4-4.2-3l-2.8-3.1-10.4 8.2c-5.7 4.5-10.8 8.5-11.3 8.9-.4.5.2 2.1 1.4 3.8 1.4 1.9 2 3.7 1.6 5-.4 1.1-8.8 8.5-18.8 16.3-15 11.8-17.8 14.4-16.1 15 1 .4 11.1 1 22.4 1.4l20.4.6 23-18c12.7-9.9 23.8-19.1 24.7-20.3 1-1.4 3.1-10.1 5.2-21.3 3.9-20.4 4-21.5 2.9-21.5-.5 0-8.8 6.3-18.7 14M92.5 126.1C66.6 146.2 66 146.7 66 149.5c0 6.2 6.8 19.5 10 19.5 1.9 0 48.6-36.4 50.4-39.2.8-1.3.4-3.1-1.8-7.5-2.8-5.8-8.2-13.3-9.4-13.3-.4 0-10.6 7.7-22.7 17.1m145.1 6c-14.1 11.1-25.6 20.7-25.6 21.4s.7 1.8 1.5 2.5c1.3 1 2.2.8 5.3-1.4 2.1-1.4 4-2.6 4.3-2.6s3.4 3.6 6.8 8 6.5 8 7 8c1.1 0 18.5-14 19.4-15.7 1.4-2.4 0-5.7-5.3-12.3-2.7-3.4-5-6.7-5-7.3 0-1.1 0-1.1 9.8-8.5 6-4.6 9.2-8.7 9.2-11.8 0-1.5-4.7 2-27.4 19.7m-184 11.1c-1.3 2.1-1.1 3.5 1.7 14 1.8 6.5 3.4 11.8 3.7 11.8s1.6-.9 3-1.9l2.4-1.9-2.8-10.9c-3.5-13.7-5-15.7-8-11.1"/>
        <path d="M260 141.7c0 .3 1.6 3.5 3.6 7 1.9 3.5 3.4 7.4 3.2 8.6-.2 1.4-4.2 5.3-11.3 11-10.2 8.1-13.4 11.7-10.5 11.7.6 0 6.5-3.2 13-7.1 7.2-4.3 13.4-7.3 15.7-7.6 2.1-.2 18.4.9 36.2 2.7 37.9 3.6 38.7 3.8 48.3 13.8 14.9 15.5 61.2 77 74.6 99.2 11 18.2 15.6 28.3 16 35.5.2 3.5-.1 8-.8 10-1.1 3.3-1 3.9 1 6 2.7 2.9 3.4 2.6 6.1-2.8 3.1-5.9 2.8-14.3-.5-23.2-5.7-14.9-19.5-34.6-67.3-95.7-29.2-37.2-31.5-39.8-44-50.2-16.3-13.5-17.5-13.9-49.2-17.1-24.8-2.5-34.1-3-34.1-1.8m51 7.8c11.4 1.9 16.7 3.9 21.8 8.5 4.7 4.3 4.2 5.3-2 4.6-2.9-.3-14.3-1.3-25.3-2.1-29.3-2.1-27.9-1.8-32-7.2-1.9-2.5-3.5-5-3.5-5.6 0-1.5 28.2-.2 41 1.8m-113.2 7.9c-2 1.3-9 6.7-15.7 12-11.1 8.9-12.1 9.9-12.1 13 0 2 .8 4 2 5.1 1.9 1.7 2.1 1.7 5.7-1.1 12.6-9.5 32.3-25.5 32.3-26.3 0-1.4-5-5.1-7-5.1-.9 0-3.3 1.1-5.2 2.4m3.7 24.7c-18.4 14.4-22.5 17.8-22.5 18.8 0 .3 3.1 4.5 6.9 9.3l6.8 8.7 6.4-4.9c3.5-2.7 7.3-5 8.3-5 1.1 0 3.2 1.1 4.6 2.5l2.6 2.5 4.7-3.6c5.1-3.9 5.4-4.9 3.2-7.8-3-4-2.1-5.3 9.5-14.4l2.4-1.9-5.8-7.6c-9.4-12.3-6.5-12.6-27.1 3.4m-140.5.6c0 2 1.4 4.6 4.7 8.4 2.5 3 6.4 7.7 8.5 10.6 2.4 3.1 5.6 5.9 8.1 7.1 2.3 1.1 4.4 1.8 4.6 1.7.5-.6-9-12.6-10.4-13.2-.8-.2-3.9-3.8-7-7.8-7.4-9.7-8.5-10.6-8.5-6.8m30.8 5.9c-3.2 2.5-5.8 5.1-5.8 5.8s1.1 2.7 2.5 4.6c2.8 3.8 3.1 5 1.1 5-.7 0-3-2-5.1-4.6-2-2.5-3.9-4.3-4.2-4-.7.6 9.8 14.3 11.6 15.1 1.5.6 7.9-3.8 8.8-6.1.3-.7-1.1-3.3-3.1-5.7-4.3-5.2-4.4-6-1.1-8.1 3.6-2.3 4.7-2 7.8 2.4 3.1 4.3 3.9 4.7 5.6 2.6.9-1.1.3-2.5-2.9-6.5-5.2-6.5-7.4-6.6-15.2-.5"/>
        <path d="m113.2 185.7-2.3 1.8 3.1 4.2c2 2.7 2.9 4.9 2.5 6-.3 1-4.6 4.9-9.5 8.7-5 3.8-9 7.1-9 7.4 0 .7 8.1 11.2 8.7 11.2.7 0 47.8-37.2 48.1-38 .2-.4-6.8-1.1-15.5-1.4-8.7-.4-17.6-.9-19.8-1.2-3-.4-4.7-.1-6.3 1.3m27.7 22.4c-13.4 10.5-25.3 19.9-26.4 21-1.9 1.9-1.9 1.9 1.6 1.9 2.9 0 5.2-1.3 12.5-7 4.9-3.9 9.1-7 9.4-7s3.2 3.4 6.3 7.5c7.7 9.9 8.7 9.9 20.7.4 5-3.9 9-7.6 9-8.3 0-.8-2.5-4.4-5.5-8.2s-5.5-7.6-5.5-8.4 1.4-2.7 3.2-4.2c2.7-2.2 3.1-3 2.2-4.4-.6-1-1.5-1.9-2-2.1-.6-.2-12 8.3-25.5 18.8m91.7-14.9c-6 4.4-6.6 6-3.9 10.7 1 1.6 1.5 3.1 1.3 3.4-14.9 12.1-16.6 13-19 10.1-3.1-3.6-4.6-3.5-10.4.8-4 2.9-5.6 4.8-5.6 6.4 0 1.5 4.5 7.9 11.8 17.1 6.4 8.1 16.6 20.9 22.5 28.4s11.3 13.9 12.2 14.2c2 .8 14.5-8.9 14.5-11.4 0-.4-6.3-8.9-14-18.9s-14-19-14-19.9c0-2.1 10.5-10.3 12.8-9.9.9.2 8 8.2 15.8 17.8 7.7 9.6 14.9 17.6 15.8 17.8 3.2.7 14.8-9.1 13.8-11.6-.7-2-42.9-56.3-45-58-2.2-1.7-2.3-1.7-8.6 3m10.1 9.1c5.5 7.3 6.1 6.3-11.9 20.6-8.9 7.2-17.2 13-18.3 13-1.2 0-3.5-1.9-5.9-5-3.7-4.8-3.8-5.1-2.1-6.9 2.4-2.7 3.9-2.5 5.9.5.9 1.4 2.6 2.5 3.7 2.5 1.9 0 20.1-13.6 22.6-16.9.9-1.3.7-2.4-1-5.4-2.1-3.8-2.1-3.9-.2-5.3 2.8-2.1 3.7-1.7 7.2 2.9m23 29.2c13.3 17 13.2 16.9 10.3 20-1.3 1.4-3.1 2.5-4 2.5-1.5 0-20.2-22.4-24.1-28.8-1.3-2.2-1.2-2.5 1.6-4.8 1.7-1.3 3.7-2.3 4.5-2.2.8.2 6 6.2 11.7 13.3m-32.5 16.7c10.8 13.7 16.8 21.9 16.8 22.9 0 1.6-3.9 4.9-5.9 4.9S219 247.9 219 245.5c0-1.4 4.8-5.4 6.6-5.5.6 0 4 3.7 7.6 8.2m-143.6-32c2.1 3.8 7.9 10 10.5 11.3 1.6.9 2.9 1.3 2.9 1 0-1.2-8.4-11.6-10.1-12.5-2.5-1.4-4.2-1.2-3.3.2"/>
        <path d="M176.5 230.3c-8.8 7.3-17.7 13.7-19 13.7-.8 0-4.4-2.5-7.9-5.5-3.6-3-6.7-5.1-6.9-4.7-1.4 2.4-8.7 52.9-8.7 59.5.1 6.7 1.8 12.5 7 23.4 6.9 14.5 10.9 20.3 36 52.3 54.5 69.3 72 88.7 86.2 95.5 8 3.9 13.6 4.4 19.4 2 3-1.2 3.4-1.7 2.4-3.4-1.5-2.8-2.8-3.4-7-3.3-10.3.4-20.1-5.8-39.6-25.2-18.4-18.4-41.5-45.8-66.3-78.6-15.5-20.5-19.1-27-19.1-34.6 0-6.8 8.6-66 10.2-69.9.7-1.7 5.9-7.8 11.7-13.8 8.8-9 10-10.7 8-10.7-1.3 0-4.2 1.5-6.4 3.3m-24.7 19.1c1.8 2.4 3.2 5.3 3.2 6.3 0 1.9-7.6 50.2-8.5 54-.9 3.6-2.4 2.7-5-3-3.8-8.4-3.9-12.3-.6-35.2 4.1-28.8 4.9-30.5 10.9-22.1m83.4-18.6c-3.8 3.2-4 4.8-.7 8.5 2.9 3.2 4.4 3 9.2-1.1l3.2-2.8-2.6-3.7c-3.1-4.4-4.7-4.6-9.1-.9"/>
        <path d="M416.1 294.8c-1.7 2.2-3.1 4.5-3.1 5.2 0 1-.3 1-1.4.1-.9-.8-2.8-1-4.9-.6-2.3.5-4.5.1-6.5-.9-4.5-2.3-8.5-2-11.2.9-1.3 1.4-3.2 2.5-4.2 2.5s-3.9 1.9-6.3 4.1c-2.5 2.3-4.8 3.9-5.1 3.6s-1.3-2-2.2-3.8c-2.1-4.1-8.5-6.5-12.3-4.5-2.1 1-2.4 1.9-2.5 7.3 0 4-.6 7-1.8 8.8-1.6 2.4-2.2 2.6-5.4 2-2.1-.3-5.6-.6-7.8-.6-2.3.1-5.5-.6-7-1.4-1.6-.8-3.6-1.5-4.5-1.5-1 0-2-1.3-2.5-3.2-.8-2.7-1.7-3.5-5.5-4.5-3.8-1.1-4.7-1.9-6.4-5.5-1.9-4-2.3-4.3-6.4-4.6-2.4-.2-4.9.2-5.4.7-1.6 1.6-3.5 1.3-6.8-1.1l-3-2.2-4.5 2.3c-3.7 2-4.8 2.2-7 1.3-2.2-1.1-2.8-.9-5 1.5-2.3 2.5-2.5 2.5-4.3.9-1.1-1-3.4-2.1-5.3-2.6-1.8-.5-4.8-1.4-6.6-2.1-4.3-1.8-6.6-.3-7 4.5l-.3 3.6h-5c-6.7 0-8.2.9-11.3 7.5-4 8-9.9 10.8-13 6-1.8-2.8-4.7-3.2-6.6-1-1.1 1.3-1.5 1.2-3.7-.5-1.4-1.1-3.8-2-5.2-2-1.5 0-3.6-.7-4.7-1.5-2.9-2.2-5.8-1.8-8.5 1.1-2.2 2.3-3 2.5-9.6 2.2-4-.1-7.4 0-7.7.3-.8.7-.9 3.4-.8 10.7.2 5.9.4 6.5 4.2 10.2 2.9 2.8 4 4.7 4 6.9 0 3.8 4.1 8.8 8 9.6 3.4.7 4.6 2 5.5 5.8.4 1.5 1.6 3.2 2.6 3.8 1 .5 3.9 2.9 6.4 5.3 3.6 3.6 4.5 5.1 4.5 7.9 0 2.5 1.2 5.1 4.3 9.3 6 8.1 11.1 13.4 13 13.4 1.8 0 3.7 2.9 3.7 5.5 0 .9 5.7 8.5 12.6 17 10.9 13.3 13 15.5 15.4 15.5 2 0 3.5.9 5 3 1.9 2.7 2.7 3 7.6 3 6.2 0 11.2-2.2 18.8-8.1 7.1-5.7 14-5.3 20.5 1 2.4 2.3 3.8 2.9 5.9 2.6 1.5-.3 11.9-1.4 23.2-2.5 26.4-2.6 26.8-2.7 27.5-5 .8-2.4 25.2-21.6 28.7-22.5 2.3-.6 3.3-2.9 11.2-24.9 4.7-13.3 8.6-24.8 8.6-25.5s-.9-2.4-2-3.8c-1.5-2-2-4.1-2-8.9v-6.3l8.3-7.2c4.5-4 8.7-8.2 9.4-9.3 1.9-3.6 1.9-10.2-.1-12.5-1-1.1-1.7-3.2-1.6-4.8.3-4.8.1-5.3-3.5-7-1.9-.9-3.7-2.4-4-3.3-.3-1-1.4-2.5-2.4-3.4-1.8-1.6-2-1.5-5 2.2m-4.7 27.9c-1.1 1.5-5.4 4.5-9.5 6.8-5.1 2.8-7.8 5-8.8 7-2 4.5-4.1 6.5-9.2 9.1-3.1 1.5-7.6 5.7-13.5 12.4l-8.9 10-8.5-.2c-5.6-.1-10.5.5-14.4 1.6-3.3 1-7.3 1.5-8.8 1.2-4.6-.9-7.5.9-10.2 6.3-4.8 9.3-10.5 11.2-20.1 6.7-2.8-1.2-6.6-2.6-8.6-3-2-.3-4.4-1.5-5.4-2.6-1.2-1.3-3.1-2-5.6-2-6.2 0-13.7-2.2-16-4.6l-2.2-2.3-4.7 3.4c-4.2 3.1-5.5 3.5-10.6 3.5-7 0-13.3-2.6-16-6.5-6-8.5-8.3-11.2-11.3-13.2-3.2-2.2-3.2-2.3-1-2.3 2.8 0 9.8 5.3 15.4 11.6 3.7 4.1 4.5 4.6 9.8 5.1 5.8.6 5.8.6 9.9-3.7l4.1-4.2 6.1.6c3.4.4 9.5 1.1 13.6 1.5 4.6.5 11.9 2.4 18.8 5 6.3 2.3 11.8 3.9 12.3 3.5.5-.3 1.8-2.3 3-4.5 1.1-2.2 3.2-4.5 4.7-5.2 1.5-.6 4.5-2.4 6.6-3.9 4.3-3.1 8.9-3.5 24.1-1.8 10 1 11.2.5 23-9 4.9-4 10.5-7.9 12.4-8.7 1.8-.8 5.2-3.4 7.4-5.9 2.3-2.5 6.7-5.7 10.1-7.4 3.4-1.6 7.7-4 9.6-5.3 4.2-3 5.1-2.6 2.4 1"/>
        <path d="M434.5 337.6c-1.6 1.5-4.2 3.7-5.7 5-1.6 1.3-2.8 3.5-2.8 4.7 0 1.3 2.5 5.7 5.5 9.7s5.5 8 5.5 8.7c0 .8-1.3 3.1-2.9 5.1-2.4 3.1-8.2 17.2-22.1 53.6-1 2.7-1.2 2.8-2.9 1.2-3-2.7-6.1-1.8-13.8 4.1-12.2 9.3-12.6 9.9-11.9 14.2l.6 3.8-25.8 3.2c-14.1 1.8-27.7 3.9-30.2 4.8-9.6 3.2-9.8 3.1-16.8-5.2-4.1-5-6.9-7.5-8.3-7.5-2.2 0-10 5.2-13.3 8.9-1.8 2-1.8 2.1-.1 4.8 2.5 3.9 15.3 19.4 17.7 21.5 1.5 1.4 3.8 1.8 9.3 1.8 6.2 0 7.8-.4 10.2-2.4 1.5-1.2 3.7-2.8 4.9-3.4 1.7-.9 48.6-5.2 56.7-5.2 1.7 0 8.1-4.4 19.9-13.6 9.5-7.5 18.3-14.5 19.6-15.7 1.6-1.5 4.8-9.8 10.9-28.7 8.5-26.3 8.6-26.5 13.4-31.2 3.9-3.8 5.1-5.9 6.4-10.7.8-3.2 1.5-6.8 1.5-7.9 0-3-17.7-25.7-20.3-25.9-1.2-.2-3.5.9-5.2 2.3m11.9 17.1c6.2 8 6.7 9.1 6.1 12.3-.5 2.4-2.3 5-5.9 8.5l-5.3 5-10.3 29.3c-5.6 16.1-11.1 30.4-12.2 31.7-1.1 1.4-3.2 3.2-4.8 4-2.4 1.2-3 1.2-4.6 0-4-3-8.6-.6-6.4 3.5 1.7 3.1.3 5.7-4.3 8.5-3.6 2.1-6.7 2.7-20.7 4-9.1.9-22.7 2.2-30.4 3-7.6.8-14.4 1.5-15.1 1.5s-3.7 1.8-6.6 4c-5.2 3.9-9.7 5.1-12.5 3.2-1.5-.9-14.4-17.3-14.4-18.3 0-.4.7-.9 1.5-1.3 1.8-.7 3.7 1.1 9.4 8.7 2.3 3 5.1 5.7 6.2 6 2.4.6 6.4-.6 7.4-2.2 1.9-3.2 7.7-4.3 35.6-7.1 24.7-2.5 29.5-3.2 32.4-5 3.8-2.4 4.4-4.7 2-8.4-2.1-3.1-1.2-4.9 4.6-9.2 5.2-3.8 8-3.9 9.9-.3 1.5 2.7 4.4 2.4 7.7-.9 2.1-2.2 5.1-9.3 12.7-31 9.7-27.7 9.9-28.2 14.2-31.7 6-5 5.9-7.8-.4-15.9-6-7.5-6.5-8.3-5.7-9.6 1.4-2.3 3.5-.6 9.9 7.7"/>
    </g>
</svg>
