<?xml version="1.0" standalone="no"?>
<!DOCTYPE svg PUBLIC "-//W3C//DTD SVG 20010904//EN"
 "http://www.w3.org/TR/2001/REC-SVG-20010904/DTD/svg10.dtd">
<svg version="1.0" xmlns="http://www.w3.org/2000/svg"
 width="512.000000pt" height="512.000000pt" viewBox="0 0 512.000000 512.000000"
 preserveAspectRatio="xMidYMid meet">
<metadata>
Created by potrace 1.16, written by Peter Selinger 2001-2019
</metadata>
<g transform="translate(0.000000,512.000000) scale(0.100000,-0.100000)"
fill="#f2f2f2" stroke="none">
<path d="M1933 4789 c-28 -28 -12 -46 81 -97 51 -29 100 -52 109 -52 8 0 25 8
38 18 l22 19 -103 58 c-118 66 -130 71 -147 54z"/>
<path d="M1883 4612 c-32 -27 -134 -108 -228 -182 -93 -73 -176 -139 -184
-146 -29 -27 118 -182 163 -172 21 4 496 377 503 394 12 32 -130 154 -179 154
-9 0 -43 -22 -75 -48z"/>
<path d="M2182 4638 c-18 -18 -14 -45 14 -93 16 -29 23 -49 17 -59 -9 -15
-538 -435 -559 -443 -7 -3 -31 5 -53 17 -50 28 -76 22 -59 -14 14 -32 9 -38
-88 -112 -57 -44 -77 -55 -86 -46 -7 7 -23 12 -36 12 -19 0 -23 -4 -17 -17 4
-10 9 -36 12 -58 l5 -40 -273 -214 c-150 -118 -281 -216 -291 -219 -12 -3 -34
10 -63 37 -49 45 -53 47 -79 28 -24 -17 -16 -33 71 -144 l64 -83 67 57 c37 31
72 66 79 78 14 25 101 95 118 95 6 0 22 -11 35 -25 13 -14 31 -25 41 -25 18 0
318 230 331 254 5 8 -3 29 -17 50 -14 20 -25 40 -25 44 0 4 19 20 43 36 23 17
95 72 160 124 l118 95 30 -36 c17 -21 35 -37 41 -37 14 0 307 230 324 254 12
17 11 24 -6 54 -11 18 -20 37 -20 42 0 13 100 86 130 95 20 6 155 102 155 110
0 10 -152 194 -160 195 -6 0 -16 -5 -23 -12z m-178 -439 c14 -17 26 -35 26
-40 0 -9 -194 -167 -217 -176 -15 -6 -53 24 -53 41 0 7 23 29 50 49 28 21 58
52 66 70 14 28 77 86 96 87 3 0 18 -14 32 -31z m-662 -536 c10 -9 18 -22 18
-29 0 -13 -213 -184 -229 -184 -16 0 -60 60 -55 75 8 21 70 65 92 65 20 0 101
50 122 75 16 19 29 19 52 -2z"/>
<path d="M2280 4623 c0 -4 24 -38 54 -77 30 -39 64 -89 77 -111 29 -51 88
-125 99 -125 18 0 -2 65 -35 115 -65 100 -155 205 -175 205 -11 0 -20 -3 -20
-7z"/>
<path d="M2380 4404 c0 -4 16 -29 36 -56 48 -64 33 -85 -20 -28 -41 45 -39 45
-111 -14 -58 -47 -65 -55 -65 -78 0 -26 78 -118 95 -112 22 9 18 26 -15 64
-16 19 -29 40 -30 46 0 13 42 54 56 54 5 0 27 -22 48 -50 21 -27 41 -50 44
-50 8 0 91 64 92 71 0 7 -120 159 -126 159 -2 0 -4 -3 -4 -6z"/>
<path d="M1260 4205 c-58 -46 -104 -89 -102 -96 5 -22 107 -148 120 -148 7 -1
21 4 31 11 14 9 23 8 42 -5 34 -24 49 -21 98 21 l43 38 -15 31 c-15 29 -15 32
3 48 11 10 20 23 20 28 0 17 -111 157 -124 156 -6 0 -58 -38 -116 -84z"/>
<path d="M2550 4257 c0 -19 16 -49 48 -90 41 -55 47 -59 50 -39 3 23 -19 63
-73 127 l-24 30 -1 -28z"/>
<path d="M2424 4120 c-49 -38 -96 -70 -104 -70 -8 0 -33 19 -56 41 l-42 41
-15 -23 c-15 -23 -92 -397 -84 -405 6 -6 468 357 474 373 5 12 -64 113 -77
113 -4 0 -47 -31 -96 -70z"/>
<path d="M1956 3970 c-98 -77 -185 -140 -193 -140 -8 0 -27 14 -42 30 l-28 31
-104 -82 c-57 -45 -108 -85 -113 -89 -4 -5 2 -21 14 -38 14 -19 20 -37 16 -50
-4 -11 -88 -85 -188 -163 -150 -118 -178 -144 -161 -150 10 -4 111 -10 224
-14 l204 -6 230 180 c127 99 238 191 247 203 10 14 31 101 52 213 39 204 40
215 29 215 -5 0 -88 -63 -187 -140z"/>
<path d="M925 3859 c-259 -201 -265 -206 -265 -234 0 -62 68 -195 100 -195 19
0 486 364 504 392 8 13 4 31 -18 75 -28 58 -82 133 -94 133 -4 0 -106 -77
-227 -171z"/>
<path d="M2376 3799 c-141 -111 -256 -207 -256 -214 0 -7 7 -18 15 -25 13 -10
22 -8 53 14 21 14 40 26 43 26 3 0 34 -36 68 -80 34 -44 65 -80 70 -80 11 0
185 140 194 157 14 24 0 57 -53 123 -27 34 -50 67 -50 73 0 11 0 11 98 85 60
46 92 87 92 118 0 15 -47 -20 -274 -197z"/>
<path d="M536 3688 c-13 -21 -11 -35 17 -140 18 -65 34 -118 37 -118 3 0 16 9
30 19 l24 19 -28 109 c-35 137 -50 157 -80 111z"/>
<path d="M2600 3703 c0 -3 16 -35 36 -70 19 -35 34 -74 32 -86 -2 -14 -42 -53
-113 -110 -102 -81 -134 -117 -105 -117 6 0 65 32 130 71 72 43 134 73 157 76
21 2 184 -9 362 -27 379 -36 387 -38 483 -138 149 -155 612 -770 746 -992 110
-182 156 -283 160 -355 2 -35 -1 -80 -8 -100 -11 -33 -10 -39 10 -60 27 -29
34 -26 61 28 31 59 28 143 -5 232 -57 149 -195 346 -673 957 -292 372 -315
398 -440 502 -163 135 -175 139 -492 171 -248 25 -341 30 -341 18z m510 -78
c114 -19 167 -39 218 -85 47 -43 42 -53 -20 -46 -29 3 -143 13 -253 21 -293
21 -279 18 -320 72 -19 25 -35 50 -35 56 0 15 282 2 410 -18z"/>
<path d="M1978 3546 c-20 -13 -90 -67 -157 -120 -111 -89 -121 -99 -121 -130
0 -20 8 -40 20 -51 19 -17 21 -17 57 11 126 95 323 255 323 263 0 14 -50 51
-70 51 -9 0 -33 -11 -52 -24z"/>
<path d="M2015 3299 c-184 -144 -225 -178 -225 -188 0 -3 31 -45 69 -93 l68
-87 64 49 c35 27 73 50 83 50 11 0 32 -11 46 -25 l26 -25 47 36 c51 39 54 49
32 78 -30 40 -21 53 95 144 l24 19 -58 76 c-94 123 -65 126 -271 -34z"/>
<path d="M610 3293 c0 -20 14 -46 47 -84 25 -30 64 -77 85 -106 24 -31 56 -59
81 -71 23 -11 44 -18 46 -17 5 6 -90 126 -104 132 -8 2 -39 38 -70 78 -74 97
-85 106 -85 68z"/>
<path d="M918 3234 c-32 -25 -58 -51 -58 -58 0 -7 11 -27 25 -46 28 -38 31
-50 11 -50 -7 0 -30 20 -51 46 -20 25 -39 43 -42 40 -7 -6 98 -143 116 -151
15 -6 79 38 88 61 3 7 -11 33 -31 57 -43 52 -44 60 -11 81 36 23 47 20 78 -24
31 -43 39 -47 56 -26 9 11 3 25 -29 65 -52 65 -74 66 -152 5z"/>
<path d="M1132 3263 l-23 -18 31 -42 c20 -27 29 -49 25 -60 -3 -10 -46 -49
-95 -87 -50 -38 -90 -71 -90 -74 0 -7 81 -112 87 -112 7 0 478 372 481 380 2
4 -68 11 -155 14 -87 4 -176 9 -198 12 -30 4 -47 1 -63 -13z"/>
<path d="M1409 3039 c-134 -105 -253 -199 -264 -210 -19 -19 -19 -19 16 -19
29 0 52 13 125 70 49 39 91 70 94 70 3 0 32 -34 63 -75 77 -99 87 -99 207 -4
50 39 90 76 90 83 0 8 -25 44 -55 82 -30 38 -55 76 -55 84 0 8 14 27 32 42 27
22 31 30 22 44 -6 10 -15 19 -20 21 -6 2 -120 -83 -255 -188z"/>
<path d="M2326 3188 c-60 -44 -66 -60 -39 -107 10 -16 15 -31 13 -34 -149
-121 -166 -130 -190 -101 -31 36 -46 35 -104 -8 -40 -29 -56 -48 -56 -64 0
-15 45 -79 118 -171 64 -81 166 -209 225 -284 59 -75 113 -139 122 -142 20 -8
145 89 145 114 0 4 -63 89 -140 189 -77 100 -140 190 -140 199 0 21 105 103
128 99 9 -2 80 -82 158 -178 77 -96 149 -176 158 -178 32 -7 148 91 138 116
-7 20 -429 563 -450 580 -22 17 -23 17 -86 -30z m101 -91 c55 -73 61 -63 -119
-206 -89 -72 -172 -130 -183 -130 -12 0 -35 19 -59 50 -37 48 -38 51 -21 69
24 27 39 25 59 -5 9 -14 26 -25 37 -25 19 0 201 136 226 169 9 13 7 24 -10 54
-21 38 -21 39 -2 53 28 21 37 17 72 -29z m230 -292 c133 -170 132 -169 103
-200 -13 -14 -31 -25 -40 -25 -15 0 -202 224 -241 288 -13 22 -12 25 16 48 17
13 37 23 45 22 8 -2 60 -62 117 -133z m-325 -167 c108 -137 168 -219 168 -229
0 -16 -39 -49 -59 -49 -20 0 -251 281 -251 305 0 14 48 54 66 55 6 0 40 -37
76 -82z"/>
<path d="M896 2958 c21 -38 79 -100 105 -113 16 -9 29 -13 29 -10 0 12 -84
116 -101 125 -25 14 -42 12 -33 -2z"/>
<path d="M1765 2817 c-88 -73 -177 -137 -190 -137 -8 0 -44 25 -79 55 -36 30
-67 51 -69 47 -14 -24 -87 -529 -87 -595 1 -67 18 -125 70 -234 69 -145 109
-203 360 -523 545 -693 720 -887 862 -955 80 -39 136 -44 194 -20 30 12 34 17
24 34 -15 28 -28 34 -70 33 -103 -4 -201 58 -396 252 -184 184 -415 458 -663
786 -155 205 -191 270 -191 346 0 68 86 660 102 699 7 17 59 78 117 138 88 90
100 107 80 107 -13 0 -42 -15 -64 -33z m-247 -191 c18 -24 32 -53 32 -63 0
-19 -76 -502 -85 -540 -9 -36 -24 -27 -50 30 -38 84 -39 123 -6 352 41 288 49
305 109 221z"/>
<path d="M2352 2812 c-38 -32 -40 -48 -7 -85 29 -32 44 -30 92 11 l32 28 -26
37 c-31 44 -47 46 -91 9z"/>
<path d="M4161 2172 c-17 -22 -31 -45 -31 -52 0 -10 -3 -10 -14 -1 -9 8 -28
10 -49 6 -23 -5 -45 -1 -65 9 -45 23 -85 20 -112 -9 -13 -14 -32 -25 -42 -25
-10 0 -39 -19 -63 -41 -25 -23 -48 -39 -51 -36 -3 3 -13 20 -22 38 -21 41 -85
65 -123 45 -21 -10 -24 -19 -25 -73 0 -40 -6 -70 -18 -88 -16 -24 -22 -26 -54
-20 -21 3 -56 6 -78 6 -23 -1 -55 6 -70 14 -16 8 -36 15 -45 15 -10 0 -20 13
-25 32 -8 27 -17 35 -55 45 -38 11 -47 19 -64 55 -19 40 -23 43 -64 46 -24 2
-49 -2 -54 -7 -16 -16 -35 -13 -68 11 l-30 22 -45 -23 c-37 -20 -48 -22 -70
-13 -22 11 -28 9 -50 -15 -23 -25 -25 -25 -43 -9 -11 10 -34 21 -53 26 -18 5
-48 14 -66 21 -43 18 -66 3 -70 -45 l-3 -36 -50 0 c-67 0 -82 -9 -113 -75 -40
-80 -99 -108 -130 -60 -18 28 -47 32 -66 10 -11 -13 -15 -12 -37 5 -14 11 -38
20 -52 20 -15 0 -36 7 -47 15 -29 22 -58 18 -85 -11 -22 -23 -30 -25 -96 -22
-40 1 -74 0 -77 -3 -8 -7 -9 -34 -8 -107 2 -59 4 -65 42 -102 29 -28 40 -47
40 -69 0 -38 41 -88 80 -96 34 -7 46 -20 55 -58 4 -15 16 -32 26 -38 10 -5 39
-29 64 -53 36 -36 45 -51 45 -79 0 -25 12 -51 43 -93 60 -81 111 -134 130
-134 18 0 37 -29 37 -55 0 -9 57 -85 126 -170 109 -133 130 -155 154 -155 20
0 35 -9 50 -30 19 -27 27 -30 76 -30 62 0 112 22 188 81 71 57 140 53 205 -10
24 -23 38 -29 59 -26 15 3 119 14 232 25 264 26 268 27 275 50 8 24 252 216
287 225 23 6 33 29 112 249 47 133 86 248 86 255 0 7 -9 24 -20 38 -15 20 -20
41 -20 89 l0 63 83 72 c45 40 87 82 94 93 19 36 19 102 -1 125 -10 11 -17 32
-16 48 3 48 1 53 -35 70 -19 9 -37 24 -40 33 -3 10 -14 25 -24 34 -18 16 -20
15 -50 -22z m-47 -279 c-11 -15 -54 -45 -95 -68 -51 -28 -78 -50 -88 -70 -20
-45 -41 -65 -92 -91 -31 -15 -76 -57 -135 -124 l-89 -100 -85 2 c-56 1 -105
-5 -144 -16 -33 -10 -73 -15 -88 -12 -46 9 -75 -9 -102 -63 -48 -93 -105 -112
-201 -67 -28 12 -66 26 -86 30 -20 3 -44 15 -54 26 -12 13 -31 20 -56 20 -62
0 -137 22 -160 46 l-22 23 -47 -34 c-42 -31 -55 -35 -106 -35 -70 0 -133 26
-160 65 -60 85 -83 112 -113 132 -32 22 -32 23 -10 23 28 0 98 -53 154 -116
37 -41 45 -46 98 -51 58 -6 58 -6 99 37 l41 42 61 -6 c34 -4 95 -11 136 -15
46 -5 119 -24 188 -50 63 -23 118 -39 123 -35 5 3 18 23 30 45 11 22 32 45 47
52 15 6 45 24 66 39 43 31 89 35 241 18 100 -10 112 -5 230 90 49 40 105 79
124 87 18 8 52 34 74 59 23 25 67 57 101 74 34 16 77 40 96 53 42 30 51 26 24
-10z"/>
<path d="M4345 1744 c-16 -15 -42 -37 -57 -50 -16 -13 -28 -35 -28 -47 0 -13
25 -57 55 -97 30 -40 55 -80 55 -87 0 -8 -13 -31 -29 -51 -24 -31 -82 -172
-221 -536 -10 -27 -12 -28 -29 -12 -30 27 -61 18 -138 -41 -122 -93 -126 -99
-119 -142 l6 -38 -258 -32 c-141 -18 -277 -39 -302 -48 -96 -32 -98 -31 -168
52 -41 50 -69 75 -83 75 -22 0 -100 -52 -133 -89 -18 -20 -18 -21 -1 -48 25
-39 153 -194 177 -215 15 -14 38 -18 93 -18 62 0 78 4 102 24 15 12 37 28 49
34 17 9 486 52 567 52 17 0 81 44 199 136 95 75 183 145 196 157 16 15 48 98
109 287 85 263 86 265 134 312 39 38 51 59 64 107 8 32 15 68 15 79 0 30 -177
257 -203 259 -12 2 -35 -9 -52 -23z m119 -171 c62 -80 67 -91 61 -123 -5 -24
-23 -50 -59 -85 l-53 -50 -103 -293 c-56 -161 -111 -304 -122 -317 -11 -14
-32 -32 -48 -40 -24 -12 -30 -12 -46 0 -40 30 -86 6 -64 -35 17 -31 3 -57 -43
-85 -36 -21 -67 -27 -207 -40 -91 -9 -227 -22 -304 -30 -76 -8 -144 -15 -151
-15 -7 0 -37 -18 -66 -40 -52 -39 -97 -51 -125 -32 -15 9 -144 173 -144 183 0
4 7 9 15 13 18 7 37 -11 94 -87 23 -30 51 -57 62 -60 24 -6 64 6 74 22 19 32
77 43 356 71 247 25 295 32 324 50 38 24 44 47 20 84 -21 31 -12 49 46 92 52
38 80 39 99 3 15 -27 44 -24 77 9 21 22 51 93 127 310 97 277 99 282 142 317
60 50 59 78 -4 159 -60 75 -65 83 -57 96 14 23 35 6 99 -77z"/>
</g>
</svg>
