<?xml version="1.0" standalone="no"?>
<!DOCTYPE svg PUBLIC "-//W3C//DTD SVG 20010904//EN"
 "http://www.w3.org/TR/2001/REC-SVG-20010904/DTD/svg10.dtd">
<svg version="1.0" xmlns="http://www.w3.org/2000/svg"
 width="256.000000pt" height="256.000000pt" viewBox="0 0 256.000000 256.000000"
 preserveAspectRatio="xMidYMid meet">
<metadata>
Created by potrace 1.16, written by Peter Selinger 2001-2019
</metadata>
<g transform="translate(0.000000,256.000000) scale(0.100000,-0.100000)"
fill="#f2f2f2" stroke="none">
<path d="M2104 2206 c-109 -528 -559 -942 -1244 -1141 -129 -37 -351 -85 -490
-106 l-85 -13 55 -8 c30 -5 143 -8 250 -9 283 -1 491 31 714 108 431 149 707
465 790 902 16 81 41 359 34 366 -2 2 -13 -42 -24 -99z"/>
<path d="M1174 2150 c-191 -38 -323 -229 -293 -424 5 -32 15 -69 22 -82 10
-20 12 -11 12 59 0 69 5 90 27 133 53 101 144 156 260 156 115 0 204 -57 259
-164 26 -51 35 -139 20 -195 -26 -96 -113 -183 -208 -209 -48 -13 -48 -13 -12
-13 55 -1 158 35 211 74 181 133 197 409 34 564 -99 92 -207 125 -332 101z"/>
<path d="M2218 1285 c-86 -30 -252 -114 -393 -198 -155 -92 -166 -105 -45 -48
350 164 476 75 364 -257 -25 -77 -110 -270 -125 -287 -5 -5 -9 -14 -9 -19 0
-12 108 133 190 254 145 217 228 384 237 481 5 49 3 59 -16 78 -29 29 -114 27
-203 -4z"/>
<path d="M1330 849 c-383 -104 -842 -311 -1160 -522 -99 -66 -106 -73 -40 -44
158 70 570 185 1043 292 82 18 151 36 154 38 5 6 53 214 53 233 0 16 -2 16
-50 3z"/>
</g>
</svg>
