<?xml version="1.0" standalone="no"?>
<!DOCTYPE svg PUBLIC "-//W3C//DTD SVG 20010904//EN"
 "http://www.w3.org/TR/2001/REC-SVG-20010904/DTD/svg10.dtd">
<svg version="1.0" xmlns="http://www.w3.org/2000/svg"
 width="256.000000pt" height="256.000000pt" viewBox="0 0 256.000000 256.000000"
 preserveAspectRatio="xMidYMid meet">
<metadata>
Created by potrace 1.16, written by Peter Selinger 2001-2019
</metadata>
<g transform="translate(0.000000,256.000000) scale(0.100000,-0.100000)"
fill="#f2f2f2" stroke="none">
<path d="M203 2348 c71 -88 90 -141 96 -268 l6 -116 40 -35 c22 -20 164 -145
315 -279 l274 -242 21 25 c11 14 28 37 37 50 10 14 38 35 63 47 51 25 62 37
46 53 -7 7 -8 36 -4 82 5 70 -5 115 -27 115 -5 0 -12 -15 -16 -34 -3 -19 -15
-43 -25 -52 -18 -16 -22 -16 -52 -2 -17 9 -205 169 -415 357 -211 187 -386
341 -389 341 -2 0 11 -19 30 -42z"/>
<path d="M1998 2049 c-210 -188 -398 -348 -415 -357 -30 -14 -34 -14 -52 2
-10 9 -22 33 -25 52 -8 39 -20 43 -37 12 -8 -14 -10 -47 -5 -95 5 -65 4 -74
-13 -83 -48 -25 -91 3 -91 60 0 33 -1 33 -17 17 -14 -14 -18 -36 -19 -100 -2
-111 -1 -107 -29 -107 -37 0 -65 33 -65 77 0 35 0 36 -20 18 -33 -30 -44 -80
-30 -142 9 -42 9 -57 0 -68 -31 -37 -90 11 -90 72 l-1 38 -25 -29 c-25 -28
-26 -35 -23 -120 l4 -91 -27 -3 c-38 -4 -68 29 -68 75 0 35 0 36 -20 18 -31
-28 -42 -84 -29 -145 10 -47 9 -54 -9 -72 -14 -14 -26 -18 -42 -13 -28 9 -53
66 -44 101 11 43 -17 24 -45 -30 -23 -45 -24 -50 -12 -113 13 -70 6 -93 -30
-93 -35 0 -51 29 -47 87 1 29 0 53 -3 53 -14 0 -58 -59 -69 -93 -9 -29 -9 -49
0 -88 7 -27 9 -56 6 -65 -4 -9 17 -45 56 -95 l61 -79 41 35 c23 20 63 48 90
63 63 35 18 -3 756 646 349 308 637 561 640 563 3 3 8 57 11 121 6 129 25 182
96 270 19 23 32 42 30 42 -3 0 -178 -154 -389 -341z"/>
<path d="M295 1825 c3 -22 26 -80 49 -130 39 -81 54 -101 157 -200 63 -61 144
-136 181 -168 l67 -58 40 25 c80 51 87 40 -182 282 -133 120 -259 234 -281
253 l-38 36 7 -40z"/>
<path d="M2020 1638 c-547 -493 -971 -881 -967 -884 2 -2 26 3 54 11 86 26
199 108 478 350 55 47 127 100 160 117 63 32 225 170 357 305 61 62 85 96 117
163 34 73 61 161 50 160 -2 -1 -114 -100 -249 -222z"/>
<path d="M1785 1167 c-34 -18 -121 -85 -195 -148 -302 -259 -350 -292 -499
-334 -52 -14 -115 -37 -140 -50 -47 -24 -131 -91 -131 -104 0 -4 11 -13 24
-19 18 -8 30 -27 42 -66 15 -48 16 -65 6 -118 -6 -34 -10 -63 -9 -65 2 -1 160
149 353 334 479 461 624 603 616 603 -4 0 -34 -15 -67 -33z"/>
<path d="M1888 1017 c3 -40 -1 -58 -13 -70 -35 -36 -83 -9 -71 39 6 23 -7 14
-82 -54 -124 -114 -122 -110 -90 -136 14 -11 47 -33 74 -48 27 -15 67 -43 90
-63 l41 -35 61 79 c40 51 60 85 56 96 -4 8 -1 36 5 61 14 57 0 117 -37 157
-14 15 -28 27 -31 27 -3 0 -4 -24 -3 -53z"/>
<path d="M534 753 c-3 -10 -15 -23 -26 -28 -12 -6 -30 -22 -41 -37 l-20 -27
57 -52 c52 -47 127 -145 142 -184 5 -12 -2 -15 -29 -15 -28 0 -42 -8 -71 -40
-20 -22 -36 -42 -36 -44 0 -2 20 -16 45 -30 25 -15 63 -51 85 -81 22 -30 45
-55 50 -55 13 0 118 59 125 70 3 4 11 38 19 75 13 60 12 72 -3 117 -11 32 -25
53 -41 61 -14 7 -71 73 -128 147 -57 74 -108 137 -114 139 -5 2 -12 -5 -14
-16z"/>
<path d="M1900 633 c-58 -76 -116 -143 -130 -150 -16 -8 -30 -29 -41 -61 -15
-45 -16 -57 -3 -117 8 -37 16 -71 19 -75 7 -11 112 -70 125 -70 5 0 28 25 50
55 22 30 60 66 85 81 25 14 45 28 45 30 0 2 -16 22 -36 44 -29 32 -43 40 -71
40 -27 0 -34 3 -29 15 15 39 90 137 142 184 l57 52 -20 27 c-11 15 -29 31 -41
37 -11 5 -23 17 -25 27 -3 10 -9 18 -14 18 -4 0 -55 -62 -113 -137z"/>
<path d="M1405 629 l-58 -54 164 -157 c90 -86 164 -156 166 -155 1 2 -3 31 -9
65 -10 53 -9 70 6 118 12 39 24 58 42 66 13 6 24 15 24 19 0 16 -88 83 -146
111 -106 50 -121 49 -189 -13z"/>
</g>
</svg>
