<svg xmlns="http://www.w3.org/2000/svg" width="341.333" height="341.333" version="1.0" viewBox="0 0 256 256">
    <path fill="#e5e5e5" d="M20.3 21.2c7.1 8.8 9 14.1 9.6 26.8l.6 11.6 4 3.5c2.2 2 16.4 14.5 31.5 27.9l27.4 24.2 2.1-2.5c1.1-1.4 2.8-3.7 3.7-5 1-1.4 3.8-3.5 6.3-4.7 5.1-2.5 6.2-3.7 4.6-5.3-.7-.7-.8-3.6-.4-8.2.5-7-.5-11.5-2.7-11.5-.5 0-1.2 1.5-1.6 3.4-.3 1.9-1.5 4.3-2.5 5.2-1.8 1.6-2.2 1.6-5.2.2-1.7-.9-20.5-16.9-41.5-35.7C35.1 32.4 17.6 17 17.3 17c-.2 0 1.1 1.9 3 4.2m179.5 29.9c-21 18.8-39.8 34.8-41.5 35.7-3 1.4-3.4 1.4-5.2-.2-1-.9-2.2-3.3-2.5-5.2-.8-3.9-2-4.3-3.7-1.2-.8 1.4-1 4.7-.5 9.5.5 6.5.4 7.4-1.3 8.3-4.8 2.5-9.1-.3-9.1-6 0-3.3-.1-3.3-1.7-1.7-1.4 1.4-1.8 3.6-1.9 10-.2 11.1-.1 10.7-2.9 10.7-3.7 0-6.5-3.3-6.5-7.7 0-3.5 0-3.6-2-1.8-3.3 3-4.4 8-3 14.2.9 4.2.9 5.7 0 6.8-3.1 3.7-9-1.1-9-7.2l-.1-3.8-2.5 2.9c-2.5 2.8-2.6 3.5-2.3 12l.4 9.1-2.7.3c-3.8.4-6.8-2.9-6.8-7.5 0-3.5 0-3.6-2-1.8-3.1 2.8-4.2 8.4-2.9 14.5 1 4.7.9 5.4-.9 7.2-1.4 1.4-2.6 1.8-4.2 1.3-2.8-.9-5.3-6.6-4.4-10.1 1.1-4.3-1.7-2.4-4.5 3-2.3 4.5-2.4 5-1.2 11.3 1.3 7 .6 9.3-3 9.3-3.5 0-5.1-2.9-4.7-8.7.1-2.9 0-5.3-.3-5.3-1.4 0-5.8 5.9-6.9 9.3-.9 2.9-.9 4.9 0 8.8.7 2.7.9 5.6.6 6.5-.4.9 1.7 4.5 5.6 9.5l6.1 7.9 4.1-3.5c2.3-2 6.3-4.8 9-6.3 6.3-3.5 1.8.3 75.6-64.6 34.9-30.8 63.7-56.1 64-56.3.3-.3.8-5.7 1.1-12.1.6-12.9 2.5-18.2 9.6-27 1.9-2.3 3.2-4.2 3-4.2-.3 0-17.8 15.4-38.9 34.1M29.5 73.5c.3 2.2 2.6 8 4.9 13 3.9 8.1 5.4 10.1 15.7 20 6.3 6.1 14.4 13.6 18.1 16.8l6.7 5.8 4-2.5c8-5.1 8.7-4-18.2-28.2-13.3-12-25.9-23.4-28.1-25.3l-3.8-3.6zM202 92.2c-54.7 49.3-97.1 88.1-96.7 88.4.2.2 2.6-.3 5.4-1.1 8.6-2.6 19.9-10.8 47.8-35 5.5-4.7 12.7-10 16-11.7 6.3-3.2 22.5-17 35.7-30.5 6.1-6.2 8.5-9.6 11.7-16.3 3.4-7.3 6.1-16.1 5-16-.2.1-11.4 10-24.9 22.2m-23.5 47.1c-3.4 1.8-12.1 8.5-19.5 14.8-30.2 25.9-35 29.2-49.9 33.4-5.2 1.4-11.5 3.7-14 5-4.7 2.4-13.1 9.1-13.1 10.4 0 .4 1.1 1.3 2.4 1.9 1.8.8 3 2.7 4.2 6.6 1.5 4.8 1.6 6.5.6 11.8-.6 3.4-1 6.3-.9 6.5.2.1 16-14.9 35.3-33.4 47.9-46.1 62.4-60.3 61.6-60.3-.4 0-3.4 1.5-6.7 3.3m10.3 15c.3 4-.1 5.8-1.3 7-3.5 3.6-8.3.9-7.1-3.9.6-2.3-.7-1.4-8.2 5.4-12.4 11.4-12.2 11-9 13.6 1.4 1.1 4.7 3.3 7.4 4.8s6.7 4.3 9 6.3l4.1 3.5 6.1-7.9c4-5.1 6-8.5 5.6-9.6-.4-.8-.1-3.6.5-6.1 1.4-5.7 0-11.7-3.7-15.7-1.4-1.5-2.8-2.7-3.1-2.7s-.4 2.4-.3 5.3M53.4 180.7c-.3 1-1.5 2.3-2.6 2.8-1.2.6-3 2.2-4.1 3.7l-2 2.7 5.7 5.2c5.2 4.7 12.7 14.5 14.2 18.4.5 1.2-.2 1.5-2.9 1.5-2.8 0-4.2.8-7.1 4-2 2.2-3.6 4.2-3.6 4.4s2 1.6 4.5 3c2.5 1.5 6.3 5.1 8.5 8.1s4.5 5.5 5 5.5c1.3 0 11.8-5.9 12.5-7 .3-.4 1.1-3.8 1.9-7.5 1.3-6 1.2-7.2-.3-11.7-1.1-3.2-2.5-5.3-4.1-6.1-1.4-.7-7.1-7.3-12.8-14.7s-10.8-13.7-11.4-13.9c-.5-.2-1.2.5-1.4 1.6m136.6 12c-5.8 7.6-11.6 14.3-13 15-1.6.8-3 2.9-4.1 6.1-1.5 4.5-1.6 5.7-.3 11.7.8 3.7 1.6 7.1 1.9 7.5.7 1.1 11.2 7 12.5 7 .5 0 2.8-2.5 5-5.5s6-6.6 8.5-8.1c2.5-1.4 4.5-2.8 4.5-3s-1.6-2.2-3.6-4.4c-2.9-3.2-4.3-4-7.1-4-2.7 0-3.4-.3-2.9-1.5 1.5-3.9 9-13.7 14.2-18.4l5.7-5.2-2-2.7c-1.1-1.5-2.9-3.1-4.1-3.7-1.1-.5-2.3-1.7-2.5-2.7-.3-1-.9-1.8-1.4-1.8-.4 0-5.5 6.2-11.3 13.7m-49.5.4-5.8 5.4 16.4 15.7c9 8.6 16.4 15.6 16.6 15.5.1-.2-.3-3.1-.9-6.5-1-5.3-.9-7 .6-11.8 1.2-3.9 2.4-5.8 4.2-6.6 1.3-.6 2.4-1.5 2.4-1.9 0-1.6-8.8-8.3-14.6-11.1-10.6-5-12.1-4.9-18.9 1.3"/>
</svg>
