<?xml version="1.0" standalone="no"?>
<!DOCTYPE svg PUBLIC "-//W3C//DTD SVG 20010904//EN"
 "http://www.w3.org/TR/2001/REC-SVG-20010904/DTD/svg10.dtd">
<svg version="1.0" xmlns="http://www.w3.org/2000/svg"
 width="256.000000pt" height="256.000000pt" viewBox="0 0 256.000000 256.000000"
 preserveAspectRatio="xMidYMid meet">
<metadata>
Created by potrace 1.16, written by Peter Selinger 2001-2019
</metadata>
<g transform="translate(0.000000,256.000000) scale(0.100000,-0.100000)"
fill="#f2f2f2" stroke="none">
<path d="M40 2210 l0 -150 150 0 150 0 0 150 0 150 -150 0 -150 0 0 -150z"/>
<path d="M400 2210 l0 -150 150 0 150 0 0 150 0 150 -150 0 -150 0 0 -150z"/>
<path d="M740 2210 l0 -151 153 3 152 3 3 148 3 147 -156 0 -155 0 0 -150z"/>
<path d="M1150 1739 c0 -342 2 -620 4 -618 2 2 111 249 241 548 130 300 238
549 241 553 11 17 -182 87 -306 111 -41 9 -99 18 -127 22 l-53 7 0 -623z"/>
<path d="M1442 1532 c-288 -637 -293 -648 -290 -705 l3 -59 486 524 486 523
-21 30 c-61 88 -232 246 -342 315 l-30 19 -292 -647z"/>
<path d="M40 1870 l0 -150 150 0 150 0 0 150 0 150 -150 0 -150 0 0 -150z"/>
<path d="M400 1870 l0 -150 150 0 151 0 -3 148 -3 147 -147 3 -148 3 0 -151z"/>
<path d="M747 2014 c-4 -4 -7 -72 -7 -151 l0 -143 155 0 156 0 -3 148 -3 147
-146 3 c-80 1 -148 -1 -152 -4z"/>
<path d="M1670 1179 l-515 -540 -3 -94 -3 -94 643 351 c354 193 644 352 646
353 7 6 -67 213 -111 314 -47 105 -126 251 -136 251 -3 0 -238 -244 -521 -541z"/>
<path d="M47 1654 c-4 -4 -7 -72 -7 -151 l0 -143 155 0 156 0 -3 148 -3 147
-146 3 c-80 1 -148 -1 -152 -4z"/>
<path d="M400 1510 l0 -150 150 0 150 0 0 150 0 150 -150 0 -150 0 0 -150z"/>
<path d="M750 1510 l0 -150 150 0 150 0 0 150 0 150 -150 0 -150 0 0 -150z"/>
<path d="M40 1170 l0 -150 150 0 150 0 0 150 0 150 -150 0 -150 0 0 -150z"/>
<path d="M400 1170 l0 -150 150 0 150 0 0 150 0 150 -150 0 -150 0 0 -150z"/>
<path d="M747 1314 c-4 -4 -7 -72 -7 -151 l0 -143 155 0 156 0 -3 148 -3 147
-146 3 c-80 1 -148 -1 -152 -4z"/>
<path d="M1810 701 c-544 -288 -656 -350 -658 -368 l-3 -23 705 0 706 0 0 58
c0 149 -50 532 -83 639 l-12 40 -655 -346z"/>
<path d="M40 820 l0 -150 150 0 150 0 0 150 0 150 -150 0 -150 0 0 -150z"/>
<path d="M400 820 l0 -150 150 0 150 0 0 150 0 150 -150 0 -150 0 0 -150z"/>
<path d="M740 820 l0 -151 153 3 152 3 3 148 3 147 -156 0 -155 0 0 -150z"/>
<path d="M42 463 l3 -148 150 0 150 0 3 148 3 147 -156 0 -156 0 3 -147z"/>
<path d="M402 463 l3 -148 148 -3 147 -3 0 151 0 150 -150 0 -151 0 3 -147z"/>
<path d="M750 460 l0 -150 150 0 150 0 0 150 0 150 -150 0 -150 0 0 -150z
m197 34 c15 -24 15 -29 2 -53 -26 -46 -109 -33 -109 18 0 58 75 83 107 35z"/>
</g>
</svg>
