<svg xmlns="http://www.w3.org/2000/svg" width="341.333" height="341.333" version="1.0" viewBox="0 0 256 256">
    <path fill="#e5e5e5" d="M4 35v15h30V20H4zm36 0v15h30V20H40zm34 0v15.1l15.3-.3 15.2-.3.3-14.8.3-14.7H74zm41 47.1c0 34.2.2 62 .4 61.8s11.1-24.9 24.1-54.8c13-30 23.8-54.9 24.1-55.3 1.1-1.7-18.2-8.7-30.6-11.1-4.1-.9-9.9-1.8-12.7-2.2l-5.3-.7zm29.2 20.7c-28.8 63.7-29.3 64.8-29 70.5l.3 5.9 48.6-52.4 48.6-52.3-2.1-3c-6.1-8.8-23.2-24.6-34.2-31.5l-3-1.9zM4 69v15h30V54H4zm36 0v15h30.1l-.3-14.8-.3-14.7-14.7-.3-14.8-.3zm34.7-14.4c-.4.4-.7 7.2-.7 15.1V84h31.1l-.3-14.8-.3-14.7-14.6-.3c-8-.1-14.8.1-15.2.4m92.3 83.5-51.5 54-.3 9.4-.3 9.4 64.3-35.1c35.4-19.3 64.4-35.2 64.6-35.3.7-.6-6.7-21.3-11.1-31.4C228 98.6 220.1 84 219.1 84c-.3 0-23.8 24.4-52.1 54.1M4.7 90.6c-.4.4-.7 7.2-.7 15.1V120h31.1l-.3-14.8-.3-14.7-14.6-.3c-8-.1-14.8.1-15.2.4M40 105v15h30V90H40zm35 0v15h30V90H75zM4 139v15h30v-30H4zm36 0v15h30v-30H40zm34.7-14.4c-.4.4-.7 7.2-.7 15.1V154h31.1l-.3-14.8-.3-14.7-14.6-.3c-8-.1-14.8.1-15.2.4M181 185.9c-54.4 28.8-65.6 35-65.8 36.8l-.3 2.3H256v-5.8c0-14.9-5-53.2-8.3-63.9l-1.2-4zM4 174v15h30v-30H4zm36 0v15h30v-30H40zm34 0v15.1l15.3-.3 15.2-.3.3-14.8.3-14.7H74zM4.2 209.7l.3 14.8h30l.3-14.8.3-14.7H3.9zm36 0 .3 14.8 14.8.3 14.7.3V195H39.9zm34.8.3v15h30v-30H75zm19.7-3.4c1.5 2.4 1.5 2.9.2 5.3-2.6 4.6-10.9 3.3-10.9-1.8 0-5.8 7.5-8.3 10.7-3.5"/>
</svg>
