<svg xmlns="http://www.w3.org/2000/svg" width="341.333" height="341.333" version="1.0" viewBox="0 0 256 256">
    <g fill="#e5e5e5">
        <path d="M133.1 86c-27.5 27-50.1 49.3-50.2 49.7-.1.6 10 6 50.3 27.1l13.7 7.1 43.7-46.7c24.1-25.7 44.6-47.7 45.7-48.9 1.8-2 1.9-2.7.7-8.8-.7-3.6-1.7-6.9-2.4-7.3-1.5-1-49.8-21.2-50.7-21.2-.3 0-23.2 22.1-50.8 49M38.2 56.1c-13 6.6-13.1 24.3-.1 30.9 4.8 2.5 10.2 2.5 15.5.1 4.2-1.9 8.4-6.3 8.4-8.8 0-.7 1.1-1.8 2.5-2.3 2.1-.8 2.5-1.6 2.5-4.9 0-3.2-.4-4-2.2-4.5-1.3-.3-2.9-1.9-3.7-3.6-3.2-7.5-14.9-11-22.9-6.9m11.1 9c3 1.6 3.7 2.8 3.7 6.6 0 2-.8 4-2.2 5.3-5.5 5.1-14.2-.6-11.7-7.8 1.5-4.4 6.1-6.2 10.2-4.1m59.4-1.8c-2.1.8-2.1.8.3 2 1.6.8 2.8 2.6 3.5 5.1.8 3.2.6 4.5-1.2 7.7l-2.1 3.9h2.6c1.5 0 6.4-.7 10.8-1.6 8.1-1.6 8.3-1.7 15-8.5 3.7-3.8 6.6-7 6.3-7.3-.9-.8-33.1-2.1-35.2-1.3m-36.2 8.5v7.1l14.9.3c16.7.3 17.6 0 17.6-5.8 0-5.4-2.8-7.4-10.2-7.4-3.5 0-9.9-.3-14.3-.6l-8-.7zm134.8 43.9c-15.3 16.2-27.8 30-27.8 30.6s.5 1.2 1.1 1.4c1 .3 57.4-58.7 57.4-60 0-.3-.7-.7-1.5-1.1-1-.4-10.2 8.7-29.2 29.1M106 91.2c-7.4 1.6-14.2 3.5-15 4.3-1.2 1.3-1.2 1.5.2 1.5 2.5 0 6.8 5.8 6.8 9.1 0 1.6.3 2.9.8 2.8 1 0 21.7-19.7 21.2-20.2-.3-.2-6.6.9-14 2.5m126.1 12.5c-4.9 5.3-6.9 8.2-6.5 9.3 3.1 7.1 3.7 10.3 3.7 18.7.1 8.9-.1 9.6-4.1 17.7-4.9 9.9-10.9 15.9-20.8 20.7-5.7 2.8-7.8 3.3-16.9 3.7l-10.3.5-7.2 7.9c-4 4.3-7 8.1-6.7 8.4.7.8 16.7 4.3 19.4 4.4 1.6 0 2.4-1 3.5-4.3l1.3-4.2 6-.7c3.3-.3 7.2-1.1 8.7-1.7 2.4-.9 2.9-.7 5.3 2.5 1.4 1.8 3.1 3.4 3.7 3.4 2.2 0 18.8-11.4 18.8-12.9 0-.9-.9-2.9-1.9-4.5l-2-3 2.9-3.3c1.6-1.8 4-5.1 5.2-7.4 2.2-3.9 2.4-4 6.4-3.4 2.8.4 4.4.2 5.1-.7.6-.7 1.9-5.1 2.8-9.7.9-4.7 1.9-9 2.1-9.5.7-1.9-1.3-3.8-4.7-4.5-3.2-.6-3.4-.9-4.5-7.1-.6-3.6-1.5-7.9-1.8-9.5-.6-2.6-.3-3.2 2.3-4.7 3.8-2.1 3.9-4.6.5-9.8-1.5-2.2-2.8-4-2.9-4-.2 0-3.5 3.5-7.4 7.7m-165.3 1.1-15.7 3.6 1.9 3.1c1.2 1.9 2 5 2 7.4 0 3.6.3 4.2 1.8 3.7.9-.3 8.6-2.1 17-4.1 13.9-3.3 15.3-3.9 15.8-6.1.8-3.2-.2-7-2.6-9.4s-1.1-2.5-20.2 1.8m-50.3.8c-7.6 3.9-12.4 12.7-11 20.2 3.1 16.6 21.7 22.7 33.5 11 2.9-2.9 4.2-5.3 5.1-9.4.8-3.3 1.7-5.4 2.6-5.4 2.2 0 2.5-2.5.9-6.4-1.1-2.7-2.1-3.6-3.9-3.6-1.3 0-3.4-1.2-4.8-2.6-1.3-1.5-3.8-3.3-5.6-4-4.3-1.9-13.1-1.8-16.8.2m14.2 11.6c3 3.4 3.4 5.5 1.9 9.2-1.8 4.4-6.4 6.3-10.6 4.6-3.7-1.5-5-3.7-5-8.4 0-6.7 9.2-10.3 13.7-5.4m30 32.2c-8.1 7.8-8.7 8.6-7.8 10.9 1.3 3.4 66.9 42.8 70.9 42.6 5.1-.2 6.9-1.4 15.2-10.2l8.3-8.8-1.1-3.7c-1.2-3.6-1.9-4.1-35.2-21.5-26.9-14-34.8-17.7-37.7-17.7-3.4.1-4.8 1.1-12.6 8.4m108.3 7.3c-3.6 3.8-8.9 9.3-11.8 12.4l-5.4 5.6 1.3 4.4c.7 2.4 1.8 5.1 2.6 5.9 1.5 1.7.4 2.7 17.7-16.3 6.4-7.1 11.6-13.2 11.6-13.5 0-.8-7.5-5.2-8.7-5.2-.5 0-3.8 3-7.3 6.7"/>
        <path d="M58 175.3c0 .9.6 2.2 1.3 2.9.8.7 16.3 10.3 34.5 21.2 32.9 19.7 33.2 19.8 37.6 19.2 4.1-.6 5.3-1.6 12.8-9.8 4.6-5 8.2-9.7 8-10.6-.2-.8-.8-2.6-1.3-4.1-1-2.6-1-2.5-9.2 5.8-7.9 8.1-8.4 8.4-14.6 9.5l-6.5 1.2-30.1-17.9c-16.5-9.9-30.6-18.2-31.2-18.4-.7-.3-1.3.2-1.3 1"/>
    </g>
</svg>
