<?xml version="1.0" standalone="no"?>
<!DOCTYPE svg PUBLIC "-//W3C//DTD SVG 20010904//EN"
 "http://www.w3.org/TR/2001/REC-SVG-20010904/DTD/svg10.dtd">
<svg version="1.0" xmlns="http://www.w3.org/2000/svg"
 width="256.000000pt" height="256.000000pt" viewBox="0 0 256.000000 256.000000"
 preserveAspectRatio="xMidYMid meet">
<metadata>
Created by potrace 1.16, written by Peter Selinger 2001-2019
</metadata>
<g transform="translate(0.000000,256.000000) scale(0.100000,-0.100000)"
fill="#f2f2f2" stroke="none">
<path d="M1331 1700 c-275 -270 -501 -493 -502 -497 -1 -6 100 -60 503 -271
l137 -71 437 467 c241 257 446 477 457 489 18 20 19 27 7 88 -7 36 -17 69 -24
73 -15 10 -498 212 -507 212 -3 0 -232 -221 -508 -490z"/>
<path d="M382 1999 c-130 -66 -131 -243 -1 -309 48 -25 102 -25 155 -1 42 19
84 63 84 88 0 7 11 18 25 23 21 8 25 16 25 49 0 32 -4 40 -22 45 -13 3 -29 19
-37 36 -32 75 -149 110 -229 69z m111 -90 c30 -16 37 -28 37 -66 0 -20 -8 -40
-22 -53 -55 -51 -142 6 -117 78 15 44 61 62 102 41z"/>
<path d="M1087 1927 c-21 -8 -21 -8 3 -20 16 -8 28 -26 35 -51 8 -32 6 -45
-12 -77 l-21 -39 26 0 c15 0 64 7 108 16 81 16 83 17 150 85 37 38 66 70 63
73 -9 8 -331 21 -352 13z"/>
<path d="M725 1842 l0 -71 149 -3 c167 -3 176 0 176 58 0 54 -28 74 -102 74
-35 0 -99 3 -143 6 l-80 7 0 -71z"/>
<path d="M2073 1403 c-153 -162 -278 -300 -278 -306 0 -6 5 -12 11 -14 10 -3
574 587 574 600 0 3 -7 7 -15 11 -10 4 -102 -87 -292 -291z"/>
<path d="M1060 1648 c-74 -16 -142 -35 -150 -43 -12 -13 -12 -15 2 -15 25 0
68 -58 68 -91 0 -16 3 -29 8 -28 10 0 217 197 212 202 -3 2 -66 -9 -140 -25z"/>
<path d="M2321 1523 c-49 -53 -69 -82 -65 -93 31 -71 37 -103 37 -187 1 -89
-1 -96 -41 -177 -49 -99 -109 -159 -208 -207 -57 -28 -78 -33 -169 -37 l-103
-5 -72 -79 c-40 -43 -70 -81 -67 -84 7 -8 167 -43 194 -44 16 0 24 10 35 43
l13 42 60 7 c33 3 72 11 87 17 24 9 29 7 53 -25 14 -18 31 -34 37 -34 22 0
188 114 188 129 0 9 -9 29 -19 45 l-20 30 29 33 c16 18 40 51 52 74 22 39 24
40 64 34 28 -4 44 -2 51 7 6 7 19 51 28 97 9 47 19 90 21 95 7 19 -13 38 -47
45 -32 6 -34 9 -45 71 -6 36 -15 79 -18 95 -6 26 -3 32 23 47 38 21 39 46 5
98 -15 22 -28 40 -29 40 -2 0 -35 -35 -74 -77z"/>
<path d="M668 1512 l-157 -36 19 -31 c12 -19 20 -50 20 -74 0 -36 3 -42 18
-37 9 3 86 21 170 41 139 33 153 39 158 61 8 32 -2 70 -26 94 -24 24 -11 25
-202 -18z"/>
<path d="M165 1504 c-76 -39 -124 -127 -110 -202 31 -166 217 -227 335 -110
29 29 42 53 51 94 8 33 17 54 26 54 22 0 25 25 9 64 -11 27 -21 36 -39 36 -13
0 -34 12 -48 26 -13 15 -38 33 -56 40 -43 19 -131 18 -168 -2z m142 -116 c30
-34 34 -55 19 -92 -18 -44 -64 -63 -106 -46 -37 15 -50 37 -50 84 0 67 92 103
137 54z"/>
<path d="M607 1066 c-81 -78 -87 -86 -78 -109 13 -34 669 -428 709 -426 51 2
69 14 152 102 l83 88 -11 37 c-12 36 -19 41 -352 215 -269 140 -348 177 -377
177 -34 -1 -48 -11 -126 -84z"/>
<path d="M1690 993 c-36 -38 -89 -93 -118 -124 l-54 -56 13 -44 c7 -24 18 -51
26 -59 15 -17 4 -27 177 163 64 71 116 132 116 135 0 8 -75 52 -87 52 -5 0
-38 -30 -73 -67z"/>
<path d="M580 807 c0 -9 6 -22 13 -29 8 -7 163 -103 345 -212 329 -197 332
-198 376 -192 41 6 53 16 128 98 46 50 82 97 80 106 -2 8 -8 26 -13 41 -10 26
-10 25 -92 -58 -79 -81 -84 -84 -146 -95 l-65 -12 -301 179 c-165 99 -306 182
-312 184 -7 3 -13 -2 -13 -10z"/>
</g>
</svg>
