<?xml version="1.0" standalone="no"?>
<!DOCTYPE svg PUBLIC "-//W3C//DTD SVG 20010904//EN"
 "http://www.w3.org/TR/2001/REC-SVG-20010904/DTD/svg10.dtd">
<svg version="1.0" xmlns="http://www.w3.org/2000/svg"
 width="256.000000pt" height="256.000000pt" viewBox="0 0 256.000000 256.000000"
 preserveAspectRatio="xMidYMid meet">
<metadata>
Created by potrace 1.16, written by Peter Selinger 2001-2019
</metadata>
<g transform="translate(0.000000,256.000000) scale(0.100000,-0.100000)"
fill="#f2f2f2" stroke="none">
<path d="M432 2227 l-142 -81 0 -166 0 -165 93 -52 c50 -29 115 -66 143 -82
l51 -30 57 35 c32 19 61 32 65 30 16 -10 142 -236 136 -245 -3 -6 -28 -22 -55
-37 l-50 -27 0 -164 0 -163 46 -28 c84 -49 81 -39 28 -128 -26 -43 -48 -80
-49 -82 -1 -1 -30 14 -63 34 -34 20 -65 34 -69 32 -5 -1 -70 -38 -146 -82
l-137 -78 0 -163 0 -163 140 -82 c78 -45 147 -80 154 -78 7 2 72 37 144 78
l132 75 0 167 c0 187 9 162 -77 214 l-31 19 48 80 c26 44 52 79 58 78 5 -1 32
-15 60 -32 l49 -29 141 82 142 81 0 68 0 67 200 0 200 0 0 -69 0 -69 139 -81
c77 -45 142 -81 146 -81 4 0 69 36 146 81 l139 81 0 163 0 164 -92 55 c-51 29
-116 66 -144 82 l-50 28 -140 -80 -139 -80 -3 -67 -3 -67 -199 0 -200 0 0 69
0 70 -50 28 c-27 15 -50 32 -50 36 0 15 82 147 91 147 4 0 34 -15 66 -34 l57
-34 51 29 c27 16 92 53 142 82 l93 52 0 166 0 166 -143 82 -143 82 -142 -83
-142 -82 0 -166 0 -165 53 -29 c28 -16 53 -30 55 -31 2 -2 -82 -142 -92 -152
-2 -3 -32 11 -66 31 l-62 37 -63 -35 -62 -35 -66 112 c-36 61 -68 119 -71 127
-4 11 10 24 49 45 l55 29 0 166 0 166 -137 78 c-76 44 -141 81 -144 82 -3 2
-69 -34 -147 -79z"/>
</g>
</svg>
