<?xml version="1.0" standalone="no"?>
<!DOCTYPE svg PUBLIC "-//W3C//DTD SVG 20010904//EN"
 "http://www.w3.org/TR/2001/REC-SVG-20010904/DTD/svg10.dtd">
<svg version="1.0" xmlns="http://www.w3.org/2000/svg"
 width="256.000000pt" height="256.000000pt" viewBox="0 0 256.000000 256.000000"
 preserveAspectRatio="xMidYMid meet">
<metadata>
Created by potrace 1.16, written by Peter Selinger 2001-2019
</metadata>
<g transform="translate(0.000000,256.000000) scale(0.100000,-0.100000)"
fill="#f2f2f2" stroke="none">
<path d="M840 1838 l-1 -221 221 -221 220 -221 220 221 221 221 -1 221 c-1
122 -5 222 -9 222 -4 0 -45 -38 -90 -85 l-83 -85 4 -65 4 -65 -72 0 c-83 0
-75 -11 -95 132 -11 83 -14 89 -55 129 l-44 43 -44 -43 c-41 -40 -44 -46 -55
-129 -20 -143 -12 -132 -95 -132 l-72 0 4 65 4 65 -83 85 c-45 47 -86 85 -90
85 -4 0 -8 -100 -9 -222z"/>
<path d="M410 1825 l0 -180 435 -435 435 -435 440 440 440 440 0 172 c0 95 -3
173 -8 173 -4 0 -49 -42 -100 -93 l-92 -92 0 -85 0 -85 -340 -340 -340 -340
-340 340 -340 340 0 85 0 85 -95 95 -95 95 0 -180z"/>
<path d="M410 1425 l0 -60 435 -435 435 -435 440 440 440 440 0 52 c0 29 -3
53 -8 53 -4 0 -202 -195 -440 -433 l-432 -433 -435 436 -435 435 0 -60z"/>
</g>
</svg>
