<svg xmlns="http://www.w3.org/2000/svg" width="341.333" height="341.333" version="1.0" viewBox="0 0 256 256">
    <g fill="#e5e5e5">
        <path d="M119.9 21.9c-5.3 3.3-8.9 10.3-8.9 17.4 0 6.8 4.4 14.5 9.9 17.4 5.6 2.9 9.6 2.9 15.2 0 12.6-6.7 13-27.9.7-35.1-6-3.5-11.1-3.4-16.9.3"/>
        <path d="M53 42.6c-15.5 4.5-27.4 11-31 16.9-4.9 8-.3 15.8 13.5 22.8 10.2 5.1 34.3 11.2 52.3 13.2 3.4.4 6.2.9 6.2 1 0 .2-1.6 8.5-3.5 18.5S87 133.5 87 134.1c0 .5 3.5.9 7.9.9h7.9l.6-5.8c.9-7.5 1.5-9.2 3-9.2 1.4 0 2 4.2 3.2 22.9l.7 10.4-7.9-.7c-30.7-2.7-55-11.1-60-20.7-3.4-6.6 1.9-13.3 15-18.8 8.8-3.7 7.7-3.9-3.9-.5-29.9 8.6-40.9 21.9-27.8 33.4 11.4 10 42.5 18.6 75.4 20.8l10.4.7 1.7 19.5c.9 10.7 1.7 19.8 1.7 20.2.1.5 6.2.8 13.6.8s13.5-.3 13.6-.8c0-.4.8-9.5 1.7-20.2l1.7-19.5 10.4-.7c32.9-2.2 64-10.8 75.4-20.8 13.1-11.5 2.1-24.8-27.8-33.4-11.6-3.4-12.7-3.2-3.9.5 29.8 12.6 16.8 29.6-28.6 37.4-4.7.8-12.1 1.7-16.4 2.1l-7.9.7.7-10.4c1.3-20.2 1.7-23 3.5-22.7 1.1.2 1.9 2.2 2.6 7.3l1 7 7.8.3c4.6.2 7.7-.1 7.7-.7s-1.6-9.1-3.5-19.1-3.5-18.3-3.5-18.5c0-.1 2.8-.6 6.3-1 10.9-1.2 26.9-4.5 37.2-7.6 40.3-12.4 40.7-31.7 1-44.2-11.9-3.7-16.4-4.4-9.4-1.4 15.3 6.5 20.5 13.1 15.9 20.5-4.8 7.8-23 14.7-49.6 18.7-3.9.6-4.3.4-6.3-2.9-3-4.9-8.6-9.5-15.1-12.5-4.6-2.2-6.9-2.6-14.5-2.6s-9.9.4-14.5 2.6c-6.5 3-12.1 7.6-15.1 12.5-2 3.3-2.4 3.5-6.3 2.9C66 77.5 47.8 70.6 43 62.8q-6.9-11.1 15.9-20.4c7.3-3 4.8-2.9-5.9.2"/>
        <path d="M53.7 182.6C29.7 189.1 16.8 200 21 210c6.5 15.6 54 28 107.5 28s101-12.4 107.5-28c4.2-10.1-8.9-21-33.2-27.5-11.5-3.1-13.2-3.1-5-.1 12.2 4.6 18.9 11 17.7 17.1-1.8 9.4-20.8 17.7-51.2 22.2-16.5 2.4-55.1 2.4-71.6 0-30.4-4.5-49.4-12.8-51.2-22.2-1.2-6.1 5.5-12.5 17.7-17.1 8.1-3 5.7-2.9-5.5.2"/>
    </g>
</svg>
