<?xml version="1.0" standalone="no"?>
<!DOCTYPE svg PUBLIC "-//W3C//DTD SVG 20010904//EN"
 "http://www.w3.org/TR/2001/REC-SVG-20010904/DTD/svg10.dtd">
<svg version="1.0" xmlns="http://www.w3.org/2000/svg"
 width="256.000000pt" height="256.000000pt" viewBox="0 0 256.000000 256.000000"
 preserveAspectRatio="xMidYMid meet">
<metadata>
Created by potrace 1.16, written by Peter Selinger 2001-2019
</metadata>
<g transform="translate(0.000000,256.000000) scale(0.100000,-0.100000)"
fill="#f2f2f2" stroke="none">
<path d="M1199 2341 c-53 -33 -89 -103 -89 -174 0 -68 44 -145 99 -174 56 -29
96 -29 152 0 126 67 130 279 7 351 -60 35 -111 34 -169 -3z"/>
<path d="M530 2134 c-155 -45 -274 -110 -310 -169 -49 -80 -3 -158 135 -228
102 -51 343 -112 523 -132 34 -4 62 -9 62 -10 0 -2 -16 -85 -35 -185 -19 -100
-35 -185 -35 -191 0 -5 35 -9 79 -9 l79 0 6 58 c9 75 15 92 30 92 14 0 20 -42
32 -229 l7 -104 -79 7 c-307 27 -550 111 -600 207 -34 66 19 133 150 188 88
37 77 39 -39 5 -299 -86 -409 -219 -278 -334 114 -100 425 -186 754 -208 l104
-7 17 -195 c9 -107 17 -198 17 -202 1 -5 62 -8 136 -8 74 0 135 3 136 8 0 4 8
95 17 202 l17 195 104 7 c329 22 640 108 754 208 131 115 21 248 -278 334
-116 34 -127 32 -39 -5 298 -126 168 -296 -286 -374 -47 -8 -121 -17 -164 -21
l-79 -7 7 104 c13 202 17 230 35 227 11 -2 19 -22 26 -73 l10 -70 78 -3 c46
-2 77 1 77 7 0 6 -16 91 -35 191 -19 100 -35 183 -35 185 0 1 28 6 63 10 109
12 269 45 372 76 403 124 407 317 10 442 -119 37 -164 44 -94 14 153 -65 205
-131 159 -205 -48 -78 -230 -147 -496 -187 -39 -6 -43 -4 -63 29 -30 49 -86
95 -151 125 -46 22 -69 26 -145 26 -76 0 -99 -4 -145 -26 -65 -30 -121 -76
-151 -125 -20 -33 -24 -35 -63 -29 -266 40 -448 109 -496 187 -46 74 7 142
159 204 73 30 48 29 -59 -2z"/>
<path d="M537 734 c-240 -65 -369 -174 -327 -274 65 -156 540 -280 1075 -280
535 0 1010 124 1075 280 42 101 -89 210 -332 275 -115 31 -132 31 -50 1 122
-46 189 -110 177 -171 -18 -94 -208 -177 -512 -222 -165 -24 -551 -24 -716 0
-304 45 -494 128 -512 222 -12 61 55 125 177 171 81 30 57 29 -55 -2z"/>
</g>
</svg>
