<?xml version="1.0" standalone="no"?>
<!DOCTYPE svg PUBLIC "-//W3C//DTD SVG 20010904//EN"
 "http://www.w3.org/TR/2001/REC-SVG-20010904/DTD/svg10.dtd">
<svg version="1.0" xmlns="http://www.w3.org/2000/svg"
 width="256.000000pt" height="256.000000pt" viewBox="0 0 256.000000 256.000000"
 preserveAspectRatio="xMidYMid meet">
<metadata>
Created by potrace 1.16, written by Peter Selinger 2001-2019
</metadata>
<g transform="translate(0.000000,256.000000) scale(0.100000,-0.100000)"
fill="#f2f2f2" stroke="none">
<path d="M1031 2469 c-674 -142 -1095 -826 -920 -1494 29 -113 69 -209 82
-196 6 6 38 60 72 121 l61 110 -18 87 c-61 298 29 620 238 852 103 115 283
232 424 276 l55 17 65 115 c36 63 67 119 68 124 5 13 -19 10 -127 -12z"/>
<path d="M1450 2432 c115 -203 112 -200 155 -212 171 -50 380 -210 493 -377
144 -213 203 -487 157 -729 l-15 -77 66 -116 c36 -64 69 -120 73 -124 5 -5 20
25 35 65 156 437 64 904 -245 1242 -187 204 -420 327 -717 380 l-34 6 32 -58z"/>
<path d="M789 1532 l-497 -877 996 -3 c547 -1 997 -1 999 1 5 5 -985 1751
-994 1754 -5 2 -231 -392 -504 -875z m892 -29 c211 -373 392 -693 402 -710
l19 -33 -807 0 c-742 0 -807 1 -801 16 13 33 791 1404 797 1404 4 0 179 -305
390 -677z"/>
<path d="M1231 1892 c-30 -53 -67 -120 -83 -149 l-29 -51 58 13 c74 18 153 18
226 1 32 -7 57 -11 55 -7 -16 37 -161 291 -166 291 -4 0 -31 -44 -61 -98z"/>
<path d="M1189 1477 c-54 -29 -105 -101 -115 -163 -25 -170 164 -308 316 -229
131 68 160 258 54 357 -66 62 -175 77 -255 35z"/>
<path d="M760 1048 c-41 -67 -81 -132 -88 -145 l-13 -23 171 0 172 0 -45 53
c-50 58 -79 111 -98 177 -7 25 -15 48 -19 52 -3 5 -40 -47 -80 -114z"/>
<path d="M1727 1163 c-2 -4 -14 -37 -26 -74 -21 -65 -37 -92 -99 -168 l-34
-41 172 0 172 0 -14 23 c-8 12 -48 76 -88 142 -86 141 -77 128 -83 118z"/>
<path d="M360 501 c0 -5 35 -43 78 -86 461 -458 1223 -458 1685 0 42 43 77 81
77 86 0 5 -66 9 -147 9 l-147 0 -58 -41 c-80 -56 -227 -123 -328 -150 -123
-33 -357 -33 -480 0 -101 27 -248 94 -328 150 l-58 41 -147 0 c-81 0 -147 -4
-147 -9z"/>
</g>
</svg>
