<?xml version="1.0" standalone="no"?>
<!DOCTYPE svg PUBLIC "-//W3C//DTD SVG 20010904//EN"
 "http://www.w3.org/TR/2001/REC-SVG-20010904/DTD/svg10.dtd">
<svg version="1.0" xmlns="http://www.w3.org/2000/svg"
 width="64.000000pt" height="64.000000pt" viewBox="0 0 64.000000 64.000000"
 preserveAspectRatio="xMidYMid meet">
<metadata>
Created by potrace 1.16, written by Peter Selinger 2001-2019
</metadata>
<g transform="translate(0.000000,64.000000) scale(0.100000,-0.100000)"
fill="#f2f2f2" stroke="none">
<path d="M132 468 c-15 -17 -18 -27 -11 -40 12 -21 -6 -54 -33 -61 -26 -7 -25
-64 2 -72 29 -9 45 -42 29 -61 -18 -21 17 -57 48 -49 13 3 34 -1 48 -11 24
-16 25 -16 25 10 0 16 -16 44 -45 76 -55 62 -57 87 -9 140 36 40 42 77 12 72
-9 -1 -19 2 -23 8 -9 15 -19 12 -43 -12z"/>
<path d="M465 480 c-4 -6 -14 -9 -23 -8 -30 5 -24 -32 12 -72 48 -53 46 -78
-9 -140 -29 -32 -45 -60 -45 -76 0 -26 1 -26 25 -10 14 10 35 14 48 11 31 -8
66 28 48 49 -16 19 0 52 29 61 27 8 28 65 2 72 -27 7 -44 40 -33 62 8 14 5 23
-13 40 -25 24 -32 26 -41 11z"/>
<path d="M276 411 c-54 -56 -35 -101 21 -49 l23 21 24 -23 c26 -23 56 -22 56
3 0 12 -70 87 -81 87 -3 0 -22 -18 -43 -39z"/>
<path d="M277 312 c-20 -21 -37 -45 -37 -54 0 -30 21 -31 51 -2 l29 28 29 -28
c30 -29 51 -28 51 3 0 15 -67 91 -81 91 -3 0 -22 -17 -42 -38z"/>
</g>
</svg>
