<?xml version="1.0" standalone="no"?>
<!DOCTYPE svg PUBLIC "-//W3C//DTD SVG 20010904//EN"
 "http://www.w3.org/TR/2001/REC-SVG-20010904/DTD/svg10.dtd">
<svg version="1.0" xmlns="http://www.w3.org/2000/svg"
 width="256.000000pt" height="256.000000pt" viewBox="0 0 256.000000 256.000000"
 preserveAspectRatio="xMidYMid meet">
<metadata>
Created by potrace 1.16, written by Peter Selinger 2001-2019
</metadata>
<g transform="translate(0.000000,256.000000) scale(0.100000,-0.100000)"
fill="#f2f2f2" stroke="none">
<path d="M374 1976 c-52 -52 -94 -100 -94 -108 0 -8 23 -46 50 -86 l51 -71
-50 -83 c-27 -46 -55 -95 -61 -109 -11 -23 -21 -28 -86 -39 -41 -6 -81 -18
-89 -26 -21 -21 -22 -276 -2 -293 8 -6 49 -17 92 -26 43 -8 79 -16 80 -17 1
-2 10 -19 20 -38 10 -19 36 -61 57 -93 22 -32 37 -64 34 -70 -3 -7 -26 -41
-51 -76 -25 -35 -45 -68 -45 -73 0 -16 181 -197 203 -204 14 -4 42 9 94 45
l74 52 47 -37 c26 -21 70 -59 99 -86 60 -56 97 -63 115 -22 10 22 6 44 -31
157 l-43 132 -65 60 c-176 161 -229 220 -265 292 -46 92 -55 152 -33 235 23
91 66 158 185 282 118 124 140 161 140 235 0 42 -5 57 -25 76 -28 29 -65 32
-104 9 -27 -16 -29 -15 -93 30 -36 25 -76 46 -88 46 -14 0 -54 -32 -116 -94z"/>
<path d="M1981 2024 c-63 -45 -65 -46 -92 -30 -39 23 -76 20 -104 -9 -20 -19
-25 -34 -25 -76 0 -74 22 -111 140 -235 119 -124 162 -191 185 -282 22 -83 13
-143 -33 -235 -36 -72 -89 -131 -265 -292 l-65 -60 -43 -132 c-37 -113 -41
-135 -31 -157 18 -41 55 -34 115 22 29 27 73 65 99 86 l47 37 74 -52 c52 -36
80 -49 94 -45 22 7 203 188 203 204 0 5 -20 38 -45 73 -25 35 -48 69 -51 76
-3 6 12 38 34 70 21 32 47 74 57 93 10 19 19 36 20 38 1 1 37 9 80 17 43 9 84
20 92 26 20 17 19 272 -2 293 -8 8 -48 20 -89 26 -65 11 -75 16 -86 39 -6 14
-34 63 -61 109 l-50 83 51 71 c27 40 50 78 50 86 0 8 -42 56 -94 108 -66 66
-101 94 -118 94 -12 -1 -52 -21 -87 -46z"/>
<path d="M1081 1715 l-166 -164 -3 -80 c-4 -78 -3 -81 26 -111 53 -53 70 -45
212 95 69 69 129 125 134 125 4 0 56 -51 117 -114 60 -62 122 -119 138 -126
37 -15 79 2 98 40 15 30 17 129 3 162 -5 13 -78 94 -162 181 -205 211 -177
211 -397 -8z"/>
<path d="M1087 1222 l-172 -171 -3 -73 c-2 -47 2 -82 10 -98 17 -32 61 -53 91
-44 12 3 78 62 147 130 l126 124 124 -125 c126 -127 145 -138 195 -119 42 16
62 153 31 212 -8 15 -81 93 -163 174 -112 112 -156 149 -181 154 -32 7 -38 2
-205 -164z"/>
</g>
</svg>
