<svg xmlns="http://www.w3.org/2000/svg" width="682.667" height="682.667" version="1.0" viewBox="0 0 512 512">
    <g fill="#e5e5e5">
        <path d="M330.6 207.9c-.8 1.2-2.5 17.4-2 18.3 2.4 3.9 4.7-8 3-15.7l-.6-3 1.1 2.7 1.1 2.8h67.9l-1.8-3-1.7-3h-33.3c-18.2 0-33.4.4-33.7.9m72.9 5.7c3.4 4.9 4.5 7.3 4.1 9-.6 2.1-.4 2.2 2.6 1.3 1.8-.5 3.4-.9 3.5-.9.2 0 .3-.9.3-2.1 0-2.8-1.8-5.9-3.4-5.9-.8 0-2.2-1.2-3.2-2.8-2.2-3.5-4.4-5.1-6.7-5.2-1.5 0-1 1.3 2.8 6.6"/>
        <path d="M333.5 216.2c-.2.7-.5 3.4-.7 6l-.3 4.8h34c18.7 0 35-.3 36.3-.7 3.7-.9 4.6-4.9 2.1-8.4l-2-2.9h-34.5c-26.7 0-34.6.3-34.9 1.2"/>
        <path d="M408 226.6c-7 2.2-9.1 2.4-29.2 2.4-12 0-21.8.3-21.8.7 0 .5 1.7 4.7 3.7 9.5l3.8 8.8h23.6c19.2 0 24.5-.3 28.5-1.6 3.1-1.1 10.2-1.9 19.2-2.3l14.4-.6-7.8-9.8-7.7-9.7-9.6.1c-7.2.1-11.5.7-17.1 2.5m-198.4 2c-1.5 3.9-.7 5.4 2.9 5.4 2.9 0 3.7-.5 4.5-2.6 1.5-4 1.3-4.4-2.9-4.4-2.6 0-4.1.5-4.5 1.6m75 1.1c1 4.1 1.2 4.3 5 4.3 3.4 0 3.5-.1 3.2-3.3-.3-3-.6-3.2-4.6-3.5-4.2-.3-4.3-.3-3.6 2.5m-188.8-.5c-.9.7-10.2 13.4-20.7 28.2-18.1 25.5-19 27-17.5 28.8 1.6 1.7 4.4 1.8 48.5 1.8h46.7l18.3-3.5c10.1-1.9 20.3-3.5 22.6-3.5h4.3v-9h-49c-26.9 0-49-.3-49-.6s4.8-8.8 10.7-19l10.8-18.4 42.5-.2c42.3-.3 42.5-.3 42.8-2.4.3-2-.2-2.1-14-2.7-26.6-1.3-95.2-.8-97 .5m123.2 2.3v2.5l31.8-.2c30.9-.3 31.7-.3 31.7-2.3s-.8-2-31.7-2.3L219 229zm76.2-.3c.3 2.3.5 2.3 17.9 2.6l17.5.2 6.1 19 6 19H302l.3 4.2.3 4.3 21.7.3c11.9.1 21.7.1 21.7 0 0-.2.7-4.1 1.5-8.8s1.5-8.6 1.5-8.8c0-.1 2.5-.2 5.5-.2s5.5-.2 5.5-.6c0-.3-1.8-4.8-4.1-10.1-4-9.4-4-9.7-3-15.8.6-3.4 1.1-6.5 1.1-6.8 0-.4-13.3-.7-29.6-.7h-29.5z"/>
        <path d="M354.4 236.6c-.7 5.1.1 8.6 5 19.5l2.4 5.4.7-6.5c.6-6 .4-7.2-2.6-14-1.8-4.1-3.6-7.9-4-8.4-.4-.4-1.1 1.3-1.5 4M119.8 251l-7.6 14h220.5l-4.1-14-4-14H127.5zm299.2-3c-5.5 1.7-10 1.9-30.2 2h-23.6l-.6 2.7c-.3 1.6-.8 4.5-1.2 6.5l-.6 3.8h34c21.7 0 34.3.4 34.7 1 .3.5 2.6 1 5.1 1 3.7 0 4.4-.3 4.4-1.9 0-1.3.8-2.1 2.3-2.3 2.2-.3 2.4-.7 6.3-13.1.5-1.6-.5-1.7-11.8-1.6-8.9 0-14.1.6-18.8 1.9m-66.6 20.2c.7 1.8 2.1 5.4 3 8l1.8 4.8h41.4c22.8 0 41.4-.2 41.4-.5s-2.3-3.9-5-8l-5.1-7.5h-78.8z"/>
        <path d="M434 267.1c0 1.8 6 10.2 11.3 15.6l5 5.1-1.7 4.1c-2.1 5.4-2.1 5.3 1.6 4.9 2.7-.3 3.3-.9 4.5-4.5l1.5-4.3-4.1-4.8c-2.7-3.2-3.9-5.4-3.5-6.7.3-1.3-.7-3.6-2.6-6.3-2.9-3.8-3.6-4.2-7.6-4.2-2.5 0-4.4.5-4.4 1.1m-86 10.5c-1.2 9.2-1.2 9.9 1.1 17.1 2.6 8.5 2.9 8.2 4.9-4.5 1.2-7.9 1.2-8.7-1.1-15.3-1.3-3.8-2.6-6.9-3-6.9s-1.2 4.3-1.9 9.6m-147.4-4c-.8 2-.8 8.2 0 11.1.5 1.9 1.3 2.3 5 2.3h4.4l-.2-7.5-.1-7.5h-4.2c-3 0-4.5.5-4.9 1.6m11.4 2.9v4.5h37.4c25.4 0 37.7-.3 38.1-1.1.4-.6.4-2.6.1-4.5l-.7-3.4H212zm78 2.9v7.6h4.5c5.2 0 5.8-1.2 5.3-9.6l-.3-4.9-4.7-.3-4.8-.3zm-118.5 6.2-17 3.3-47.4.1c-43.8 0-47.6-.1-49.4-1.8-1.9-1.6-1.9-1.6-1.2.8 1.5 5.1.7 5 51 5h47.2l19.2-4c10.5-2.2 20.5-4 22.1-4 2.2 0 2.8-.4 2.4-1.5-.9-2.3-7.6-1.8-26.9 2.1m40.5-2.1c0 1.3 4.8 1.5 37.4 1.5 32.3 0 37.5-.2 38-1.5s-4.1-1.5-37.4-1.5c-33.1 0-38 .2-38 1.5m90 0c0 1.3 2.8 1.5 21.7 1.3 16.2-.2 21.7-.6 22.1-1.6.3-.9-4.5-1.2-21.7-1.2-19.1 0-22.1.2-22.1 1.5"/>
        <path d="M357 282.2c0 .2-.7 4.1-1.5 8.8-2.3 13.3-2.4 13 3.9 13 6 0 5.8.4 7.6-9.3l1.4-6.7H438l1.6 2.5c1.2 1.8 1.4 3.5.9 6.2l-.7 3.8 2.5-2.3c1.3-1.2 3-4.1 3.7-6.3 1.3-3.8 1.2-4.1-1.5-6.9l-2.9-3h-42.3c-23.3 0-42.3.1-42.3.2"/>
        <path d="M369.2 296.2c-1.6 8.5-1.2 8.8 11.3 8.8h10.3l1.2-5c.7-2.8.9-6.2.6-7.5-.6-2.5-.8-2.5-11.4-2.5h-10.8zM395 292c1 1.9.4 6.3-1.7 11.6-.4 1.2 1.3 1.4 9.9 1.4h10.4l1.3-5c.7-2.8 1-6.2.7-7.5-.6-2.5-.8-2.5-11.2-2.5-10.2 0-10.4.1-9.4 2m23 0c1 1.9.4 6.3-1.7 11.6-.9 2.3 16.9 2 18.9-.4 2.5-2.9 3.9-9.1 2.5-11.3-1-1.7-2.5-1.9-11-1.9-9.5 0-9.7.1-8.7 2"/>
    </g>
</svg>
