<?xml version="1.0" standalone="no"?>
<!DOCTYPE svg PUBLIC "-//W3C//DTD SVG 20010904//EN"
 "http://www.w3.org/TR/2001/REC-SVG-20010904/DTD/svg10.dtd">
<svg version="1.0" xmlns="http://www.w3.org/2000/svg"
 width="512.000000pt" height="512.000000pt" viewBox="0 0 512.000000 512.000000"
 preserveAspectRatio="xMidYMid meet">
<metadata>
Created by potrace 1.16, written by Peter Selinger 2001-2019
</metadata>
<g transform="translate(0.000000,512.000000) scale(0.100000,-0.100000)"
fill="#f2f2f2" stroke="none">
<path d="M3306 3041 c-8 -12 -25 -174 -20 -183 24 -39 47 80 30 157 l-6 30 11
-27 11 -28 339 0 340 0 -18 30 -17 30 -333 0 c-182 0 -334 -4 -337 -9z"/>
<path d="M4035 2984 c34 -49 45 -73 41 -90 -6 -21 -4 -22 26 -13 18 5 34 9 35
9 2 0 3 9 3 21 0 28 -18 59 -34 59 -8 0 -22 12 -32 28 -22 35 -44 51 -67 52
-15 0 -10 -13 28 -66z"/>
<path d="M3335 2958 c-2 -7 -5 -34 -7 -60 l-3 -48 340 0 c187 0 350 3 363 7
37 9 46 49 21 84 l-20 29 -345 0 c-267 0 -346 -3 -349 -12z"/>
<path d="M4080 2854 c-70 -22 -91 -24 -292 -24 -120 0 -218 -3 -218 -7 0 -5
17 -47 37 -95 l38 -88 236 0 c192 0 245 3 285 16 31 11 102 19 192 23 l144 6
-78 98 -77 97 -96 -1 c-72 -1 -115 -7 -171 -25z"/>
<path d="M2096 2834 c-15 -39 -7 -54 29 -54 29 0 37 5 45 26 15 40 13 44 -29
44 -26 0 -41 -5 -45 -16z"/>
<path d="M2846 2823 c10 -41 12 -43 50 -43 34 0 35 1 32 33 -3 30 -6 32 -46
35 -42 3 -43 3 -36 -25z"/>
<path d="M958 2828 c-9 -7 -102 -134 -207 -282 -181 -255 -190 -270 -175 -288
16 -17 44 -18 485 -18 l467 0 183 35 c101 19 203 35 226 35 l43 0 0 45 0 45
-490 0 c-269 0 -490 3 -490 6 0 3 48 88 107 190 l108 184 425 2 c423 3 425 3
428 24 3 20 -2 21 -140 27 -266 13 -952 8 -970 -5z"/>
<path d="M2190 2805 l0 -25 318 2 c309 3 317 3 317 23 0 20 -8 20 -317 23
l-318 2 0 -25z"/>
<path d="M2952 2808 c3 -23 5 -23 179 -26 l175 -2 61 -190 60 -190 -203 0
-204 0 3 -42 3 -43 217 -3 c119 -1 217 -1 217 0 0 2 7 41 15 88 8 47 15 86 15
88 0 1 25 2 55 2 30 0 55 2 55 6 0 3 -18 48 -41 101 -40 94 -40 97 -30 158 6
34 11 65 11 68 0 4 -133 7 -296 7 l-295 0 3 -22z"/>
<path d="M3544 2754 c-7 -51 1 -86 50 -195 l24 -54 7 65 c6 60 4 72 -26 140
-18 41 -36 79 -40 84 -4 4 -11 -13 -15 -40z"/>
<path d="M1198 2610 l-76 -140 1102 0 1103 0 -41 140 -40 140 -986 0 -985 0
-77 -140z"/>
<path d="M4190 2640 c-55 -17 -100 -19 -302 -20 l-236 0 -6 -27 c-3 -16 -8
-45 -12 -65 l-6 -38 340 0 c217 0 343 -4 347 -10 3 -5 26 -10 51 -10 37 0 44
3 44 19 0 13 8 21 23 23 22 3 24 7 63 131 5 16 -5 17 -118 16 -89 0 -141 -6
-188 -19z"/>
<path d="M3524 2438 c7 -18 21 -54 30 -80 l18 -48 414 0 c228 0 414 2 414 5 0
3 -23 39 -50 80 l-51 75 -394 0 -394 0 13 -32z"/>
<path d="M4340 2449 c0 -18 60 -102 113 -156 l50 -51 -17 -41 c-21 -54 -21
-53 16 -49 27 3 33 9 45 45 l15 43 -41 48 c-27 32 -39 54 -35 67 3 13 -7 36
-26 63 -29 38 -36 42 -76 42 -25 0 -44 -5 -44 -11z"/>
<path d="M3480 2344 c-12 -92 -12 -99 11 -171 26 -85 29 -82 49 45 12 79 12
87 -11 153 -13 38 -26 69 -30 69 -4 0 -12 -43 -19 -96z"/>
<path d="M2006 2384 c-8 -20 -8 -82 0 -111 5 -19 13 -23 50 -23 l44 0 -2 75
-1 75 -42 0 c-30 0 -45 -5 -49 -16z"/>
<path d="M2120 2355 l0 -45 374 0 c254 0 377 3 381 11 4 6 4 26 1 45 l-7 34
-374 0 -375 0 0 -45z"/>
<path d="M2900 2326 l0 -76 45 0 c52 0 58 12 53 96 l-3 49 -47 3 -48 3 0 -75z"/>
<path d="M1715 2264 l-170 -33 -474 -1 c-438 0 -476 1 -494 18 -19 16 -19 16
-12 -8 15 -51 7 -50 510 -50 l472 0 192 40 c105 22 205 40 221 40 22 0 28 4
24 15 -9 23 -76 18 -269 -21z"/>
<path d="M2120 2285 c0 -13 48 -15 374 -15 323 0 375 2 380 15 5 13 -41 15
-374 15 -331 0 -380 -2 -380 -15z"/>
<path d="M3020 2285 c0 -13 28 -15 217 -13 162 2 217 6 221 16 3 9 -45 12
-217 12 -191 0 -221 -2 -221 -15z"/>
<path d="M3570 2298 c0 -2 -7 -41 -15 -88 -23 -133 -24 -130 39 -130 60 0 58
-4 76 93 l14 67 348 0 348 0 16 -25 c12 -18 14 -35 9 -62 l-7 -38 25 23 c13
12 30 41 37 63 13 38 12 41 -15 69 l-29 30 -423 0 c-233 0 -423 -1 -423 -2z"/>
<path d="M3692 2158 c-16 -85 -12 -88 113 -88 l103 0 12 50 c7 28 9 62 6 75
-6 25 -8 25 -114 25 l-108 0 -12 -62z"/>
<path d="M3950 2200 c10 -19 4 -63 -17 -116 -4 -12 13 -14 99 -14 l104 0 13
50 c7 28 10 62 7 75 -6 25 -8 25 -112 25 -102 0 -104 -1 -94 -20z"/>
<path d="M4180 2200 c10 -19 4 -63 -17 -116 -9 -23 169 -20 189 4 25 29 39 91
25 113 -10 17 -25 19 -110 19 -95 0 -97 -1 -87 -20z"/>
</g>
</svg>
