<?xml version="1.0" standalone="no"?>
<!DOCTYPE svg PUBLIC "-//W3C//DTD SVG 20010904//EN"
 "http://www.w3.org/TR/2001/REC-SVG-20010904/DTD/svg10.dtd">
<svg version="1.0" xmlns="http://www.w3.org/2000/svg"
 width="256.000000pt" height="256.000000pt" viewBox="0 0 256.000000 256.000000"
 preserveAspectRatio="xMidYMid meet">
<metadata>
Created by potrace 1.16, written by Peter Selinger 2001-2019
</metadata>
<g transform="translate(0.000000,256.000000) scale(0.100000,-0.100000)"
fill="#f2f2f2" stroke="none">
<path d="M2130 2310 c-19 -5 -75 -14 -125 -20 -49 -6 -119 -20 -155 -32 -78
-25 -672 -329 -821 -421 -58 -35 -124 -74 -147 -86 -81 -41 -139 -23 -238 77
l-63 64 -57 -27 c-46 -22 -78 -28 -178 -35 -179 -13 -289 -42 -301 -81 -9 -27
90 -172 188 -275 43 -46 116 -108 163 -140 149 -100 233 -205 354 -443 43 -82
92 -163 116 -190 42 -45 43 -46 70 -31 21 11 32 30 46 75 25 87 41 96 144 89
92 -8 126 5 144 51 5 13 22 30 37 38 48 25 215 79 221 72 4 -4 7 -79 7 -168
-1 -175 -9 -213 -62 -289 -27 -40 -110 -88 -150 -88 -13 0 -46 -12 -74 -26
-28 -14 -54 -23 -57 -20 -3 4 13 22 35 40 24 21 51 59 69 98 25 56 29 77 32
182 l4 120 -23 -17 c-64 -47 -110 -60 -190 -54 l-77 6 -11 -31 c-6 -17 -11
-44 -11 -60 0 -22 -8 -33 -30 -46 -16 -9 -32 -23 -35 -31 -3 -8 10 -40 30 -70
71 -110 89 -159 89 -243 1 -42 4 -79 8 -83 14 -14 54 5 107 50 62 53 142 96
223 119 109 32 191 146 208 292 13 111 21 145 34 141 21 -7 37 -100 33 -189
-3 -72 -7 -93 -26 -118 -32 -44 -25 -64 23 -68 28 -2 57 5 102 28 110 54 175
153 190 288 4 31 14 91 24 132 16 65 24 81 67 125 26 28 54 68 62 90 8 23 15
106 18 200 l5 160 40 89 c83 183 93 426 18 426 -11 0 -27 -12 -37 -27 -10 -16
-30 -44 -45 -63 -14 -19 -28 -48 -30 -64 -3 -25 -7 -29 -42 -32 -60 -5 -218
-88 -271 -141 -24 -25 -65 -84 -90 -132 -26 -47 -57 -104 -70 -126 -31 -50
-71 -169 -86 -258 l-13 -67 -110 -35 c-60 -19 -111 -33 -113 -31 -2 1 4 29 12
61 22 83 75 179 153 274 37 45 76 93 86 107 16 19 21 47 26 132 7 110 20 150
59 186 l21 19 0 -40 c0 -21 7 -48 15 -59 14 -18 14 -18 15 7 0 15 17 51 37 80
45 65 126 244 143 316 10 44 9 57 -4 83 -15 30 -14 31 11 41 34 13 50 6 65
-25 9 -22 6 -35 -24 -93 -28 -54 -37 -84 -41 -144 -4 -42 -9 -83 -13 -92 -3
-9 2 -19 14 -26 16 -8 25 -6 45 9 14 11 32 20 40 20 26 0 76 68 93 126 11 40
15 84 13 148 l-4 91 30 6 c17 4 62 7 100 8 83 1 129 -21 149 -72 7 -17 16 -86
20 -152 7 -144 25 -225 68 -308 38 -71 40 -105 18 -261 -11 -78 -11 -110 -2
-155 16 -78 15 -99 -8 -172 -18 -57 -39 -87 -186 -259 -91 -107 -213 -256
-272 -330 -58 -74 -122 -155 -141 -180 l-36 -45 53 44 c55 45 214 211 471 491
186 203 196 222 187 380 -8 148 -8 154 10 264 20 122 14 176 -27 257 -52 104
-60 137 -73 310 -13 186 -23 211 -93 244 -43 21 -152 28 -203 15z m-1049 -547
c-124 -125 -267 -292 -300 -351 -8 -14 -14 -12 -46 12 -52 40 -107 129 -137
222 -37 115 -39 128 -24 150 13 18 17 16 74 -39 67 -63 94 -77 153 -77 55 0
81 13 264 128 88 56 161 102 161 102 1 0 -64 -66 -145 -147z"/>
</g>
</svg>
