<?xml version="1.0" standalone="no"?>
<!DOCTYPE svg PUBLIC "-//W3C//DTD SVG 20010904//EN"
 "http://www.w3.org/TR/2001/REC-SVG-20010904/DTD/svg10.dtd">
<svg version="1.0" xmlns="http://www.w3.org/2000/svg"
 width="256.000000pt" height="256.000000pt" viewBox="0 0 256.000000 256.000000"
 preserveAspectRatio="xMidYMid meet">
<metadata>
Created by potrace 1.16, written by Peter Selinger 2001-2019
</metadata>
<g transform="translate(0.000000,256.000000) scale(0.100000,-0.100000)"
fill="#f2f2f2" stroke="none">
<path d="M730 2391 c0 -16 77 -91 132 -128 26 -17 59 -51 75 -74 35 -53 37
-125 4 -221 -18 -55 -20 -71 -10 -89 11 -22 13 -21 57 30 90 105 171 110 221
14 18 -35 13 -50 -26 -94 -68 -75 -123 -87 -204 -42 -36 19 -48 31 -44 43 6
18 -30 40 -67 40 -11 0 -40 18 -64 40 -46 42 -99 55 -110 25 -9 -23 14 -80 46
-110 24 -23 30 -37 30 -72 0 -33 4 -45 18 -49 35 -11 47 -22 69 -60 30 -51 29
-86 -3 -134 -48 -72 -113 -97 -173 -65 -61 31 -55 70 24 166 36 43 65 80 65
83 0 15 -66 13 -154 -5 -92 -19 -108 -20 -137 -9 -46 19 -97 66 -119 110 -17
34 -105 120 -122 120 -4 0 -1 -18 7 -40 8 -22 19 -80 25 -128 22 -170 40 -273
55 -301 27 -53 115 -120 224 -172 115 -55 167 -96 176 -140 4 -16 11 -31 16
-35 12 -7 221 17 216 25 -56 104 -66 159 -36 208 33 53 87 112 119 128 24 12
30 12 57 -5 17 -10 60 -53 94 -94 35 -41 75 -80 91 -87 15 -6 28 -15 28 -18 0
-11 -42 -47 -72 -62 -15 -8 -127 -117 -249 -244 l-222 -230 -52 0 c-58 0 -81
-14 -90 -54 -7 -32 -55 -84 -55 -60 -1 8 -25 41 -55 74 -51 55 -56 59 -71 43
-15 -15 -13 -21 37 -77 29 -34 59 -61 65 -61 9 0 8 -15 -3 -52 -14 -46 -30
-67 -117 -153 -55 -55 -129 -118 -164 -138 -34 -21 -62 -42 -62 -46 0 -22 32
-31 99 -29 56 2 70 6 68 18 -1 9 9 17 28 21 17 4 26 7 21 8 -16 2 16 31 34 31
10 0 20 10 24 23 3 13 17 29 31 35 20 9 25 17 20 32 -11 34 20 75 74 99 27 11
54 21 60 21 15 0 14 17 -1 23 -24 10 40 57 76 57 36 0 86 -33 86 -56 0 -8 5
-14 10 -14 6 0 10 5 10 10 0 6 11 10 24 10 14 0 28 5 31 10 4 6 -6 10 -24 10
-16 0 -33 5 -37 11 -7 12 43 69 60 69 6 0 133 122 283 272 l272 271 70 -62
c115 -102 259 -260 280 -305 14 -33 51 -69 169 -165 82 -67 164 -143 182 -167
28 -40 31 -50 26 -88 -6 -40 -4 -46 27 -77 36 -35 91 -79 100 -79 12 0 57 95
57 120 0 16 -16 57 -35 92 -19 34 -44 84 -56 111 -21 45 -23 47 -54 41 -31 -5
-39 0 -123 83 -50 48 -111 104 -137 123 -25 19 -134 124 -242 233 l-195 199
86 88 c47 48 86 93 86 99 0 7 46 61 103 119 189 198 327 364 427 517 58 89
146 263 137 272 -7 6 -823 -791 -905 -884 -31 -35 -59 -63 -64 -63 -5 0 -16
16 -25 35 -9 19 -22 35 -29 35 -17 0 -164 144 -164 161 1 44 134 163 194 175
37 6 101 -20 135 -57 l20 -21 5 33 c3 19 8 63 11 99 3 36 9 75 11 87 4 15 0
23 -16 28 -36 11 -88 63 -123 123 -153 260 -147 250 -201 277 -35 17 -89 29
-176 40 -113 15 -216 34 -277 51 -14 4 -23 2 -23 -5z m90 -41 c19 -6 91 -17
160 -26 148 -18 164 -21 210 -45 51 -25 80 -60 155 -184 37 -60 90 -133 117
-161 34 -35 46 -54 38 -59 -22 -13 -63 30 -161 169 -53 75 -111 153 -130 172
-42 43 -99 61 -226 70 -98 6 -180 31 -204 60 -14 17 -6 17 41 4z m-480 -566
c0 -6 24 -37 54 -67 69 -70 97 -76 226 -48 51 12 95 19 98 17 7 -7 -60 -38
-113 -52 -68 -18 -137 -17 -178 2 -35 17 -92 93 -137 184 l-22 45 36 -34 c20
-19 36 -40 36 -47z m1604 4 c-8 -14 -203 -239 -282 -327 -35 -39 -54 -53 -65
-48 -10 4 -17 12 -17 19 0 9 357 366 368 368 2 0 0 -6 -4 -12z m-1044 -304
c-36 -93 -175 -147 -244 -93 -33 26 -34 41 0 29 68 -26 153 -1 216 64 18 18
34 32 36 31 1 -1 -2 -15 -8 -31z m651 -110 c11 -13 7 -21 -24 -51 -30 -31 -38
-35 -51 -23 -14 11 -12 17 16 50 38 44 41 45 59 24z m-102 -107 c8 -10 2 -22
-28 -51 -34 -33 -39 -35 -51 -21 -11 14 -8 21 20 50 38 39 43 41 59 22z m-131
-154 c-32 -31 -39 -35 -53 -23 -14 12 -12 17 22 52 33 34 39 36 52 23 14 -14
12 -19 -21 -52z m-256 -245 c-33 -48 -139 -169 -157 -180 -7 -4 -21 -1 -31 7
-18 13 -17 16 26 60 62 65 181 167 187 161 3 -2 -8 -24 -25 -48z m-336 -189
c6 -10 -42 -69 -58 -69 -4 0 -11 12 -14 27 -5 19 -2 30 11 40 23 16 51 17 61
2z m121 -35 c8 -21 -30 -59 -51 -51 -19 7 -21 38 -4 55 17 17 48 15 55 -4z
m1443 -309 c16 -19 9 -49 -12 -53 -19 -4 -42 33 -34 54 7 18 30 18 46 -1z"/>
</g>
</svg>
