<svg xmlns="http://www.w3.org/2000/svg" width="341.333" height="341.333" version="1.0" viewBox="0 0 256 256">
    <g fill="#e5e5e5">
        <path d="M126.5 22.4C76 30.7 40.5 62.1 28 109.5c-5.4 20.7-7.4 50.5-4.9 74.1 1.8 17.8 1.7 19.8-1.9 28.7l-3.2 7.8 2.5 11.6c1.4 6.4 2.7 11.8 2.8 11.9.1.2 2.5-2.5 5.3-5.9 3.4-4.1 5.3-7.6 5.8-10.2 1-5.5 5-12 8.6-14.2 3.1-1.8 3.4-2.9 2.4-8.1-.4-2.1-1.5-3.4-3.6-4.3-3.1-1.3-5.8-5.4-5.8-9.1 0-1.3.9-3.7 1.9-5.4 4.1-6.7 13.5-7 17.9-.4 3.1 4.5 2.4 9.1-1.9 13.6-2.7 2.8-3.1 3.7-2.5 6.8.5 2.8 1.2 3.6 2.9 3.6 3.5.1 10.2 3.5 12.5 6.5 1.2 1.5 2.7 4.4 3.3 6.4.8 2.5 3.4 5.6 8.6 10.1 4.1 3.6 7.8 6.6 8.1 6.7.4.1 2.9-2.5 5.5-5.7l4.8-5.9-5.6-5.8C80.1 210.4 71.2 195 67.1 180c-4.2-15.1-4.6-36.4-1.1-52.6 1.6-7.4 6.1-21.7 6.6-21.1.2.2-.5 4.2-1.6 8.8-6.5 26.4-2 54.8 12.1 77.4 5.1 8.2 19.7 24.5 21.9 24.5.6 0 1-5 1-13.1v-13l-6.3-8.2c-15.9-20.6-22.7-37.9-22.7-58 0-34.9 24.7-65 59.2-72.1 18-3.7 36.8-.4 53.5 9.5 7.6 4.5 19 16 23.7 23.7 3.1 5.1 4.1 6.1 5.9 5.7 1.2-.2 4.9-.9 8.1-1.5 3.3-.5 6.1-1.2 6.4-1.4.2-.3-1.7-4.8-4.2-10.1-13.5-28.5-32.9-45.9-60.3-54.1-10.7-3.2-30.1-4.1-42.8-2"/>
        <path d="M137.2 74.1c-3.5.4-8 1.3-10 2-4.9 1.5-16 7.3-19.5 10.2l-2.9 2.2 2.7 6.8c1.5 3.7 2.9 6.7 3.1 6.7s2.5-1.4 5.1-3c19.4-12.3 44.6-9.9 60.2 5.9 3.1 3.1 6.5 6.9 7.6 8.5 2 2.8 2.2 2.9 8.7 2.2l6.7-.7-2.5-5.7c-11-25.1-33.7-38.5-59.2-35.1m89 22.1c-5.3.8-6.2 1.3-5.7 2.6.4 1 1.6 5.3 2.7 9.6 1.7 6.6 1.9 10.1 1.6 20-.5 11.7-1.1 14.4-6.3 29.1-1.4 4.1 5.7-5.1 8.5-11.1 4.6-9.5 7-21.1 7.7-37.2.5-11.8.4-14.2-.8-14.1-.8.1-4.2.6-7.7 1.1M123 109.7c-5.9 1-9.1 2.5-8.6 4 .4.8.9 2.5 1.2 3.8.5 2.1.9 2.2 7.3 1.7 12.4-.9 22.9 4.6 27.7 14.4 2.1 4.3 3.3 5.6 5.8 6.2 2.9.8 3.1.7 3.4-2 .8-7.1-5.7-18.8-12.8-23.3-6.3-4-16.7-6-24-4.8m65 10.9c0 .3.7 3.1 1.6 6.1 1.2 4 1.5 8.3 1.2 15.5-.4 9.6-.3 9.8 1.4 7.6 2.7-3.4 5.6-13.7 6.4-22.3l.7-7.5h-5.7c-3.1 0-5.6.3-5.6.6m-34.1 22.8s-.2 2.3-.5 5-1.1 6.4-2 8.4c-.8 1.9-1.2 3.7-1 3.9 1.2 1.3 10.1-14.1 9-15.8-.3-.5-5.2-1.9-5.5-1.5M42.1 187.6c-1.2 1.5-2.1 3.5-2.1 4.6 0 2.4 4.4 6.8 6.8 6.8 3.2 0 7.2-3.8 7.2-6.9 0-6.9-7.7-9.8-11.9-4.5"/>
    </g>
</svg>
