<?xml version="1.0" standalone="no"?>
<!DOCTYPE svg PUBLIC "-//W3C//DTD SVG 20010904//EN"
 "http://www.w3.org/TR/2001/REC-SVG-20010904/DTD/svg10.dtd">
<svg version="1.0" xmlns="http://www.w3.org/2000/svg"
 width="256.000000pt" height="256.000000pt" viewBox="0 0 256.000000 256.000000"
 preserveAspectRatio="xMidYMid meet">
<metadata>
Created by potrace 1.16, written by Peter Selinger 2001-2019
</metadata>
<g transform="translate(0.000000,256.000000) scale(0.100000,-0.100000)"
fill="#f2f2f2" stroke="none">
<path d="M1265 2336 c-505 -83 -860 -397 -985 -871 -54 -207 -74 -505 -49
-741 18 -178 17 -198 -19 -287 l-32 -78 25 -116 c14 -64 27 -118 28 -119 1 -2
25 25 53 59 34 41 53 76 58 102 10 55 50 120 86 142 31 18 34 29 24 81 -4 21
-15 34 -36 43 -31 13 -58 54 -58 91 0 13 9 37 19 54 41 67 135 70 179 4 31
-45 24 -91 -19 -136 -27 -28 -31 -37 -25 -68 5 -28 12 -36 29 -36 35 -1 102
-35 125 -65 12 -15 27 -44 33 -64 8 -25 34 -56 86 -101 41 -36 78 -66 81 -67
4 -1 29 25 55 57 l48 59 -56 58 c-114 119 -203 273 -244 423 -42 151 -46 364
-11 526 16 74 61 217 66 211 2 -2 -5 -42 -16 -88 -65 -264 -20 -548 121 -774
51 -82 197 -245 219 -245 6 0 10 50 10 131 l0 130 -63 82 c-159 206 -227 379
-227 580 0 349 247 650 592 721 180 37 368 4 535 -95 76 -45 190 -160 237
-237 31 -51 41 -61 59 -57 12 2 49 9 81 15 33 5 61 12 64 14 2 3 -17 48 -42
101 -135 285 -329 459 -603 541 -107 32 -301 41 -428 20z"/>
<path d="M1372 1819 c-35 -4 -80 -13 -100 -20 -49 -15 -160 -73 -195 -102
l-29 -22 27 -68 c15 -37 29 -67 31 -67 2 0 25 14 51 30 194 123 446 99 602
-59 31 -31 65 -69 76 -85 20 -28 22 -29 87 -22 l67 7 -25 57 c-110 251 -337
385 -592 351z"/>
<path d="M2262 1598 c-53 -8 -62 -13 -57 -26 4 -10 16 -53 27 -96 17 -66 19
-101 16 -200 -5 -117 -11 -144 -63 -291 -14 -41 57 51 85 111 46 95 70 211 77
372 5 118 4 142 -8 141 -8 -1 -42 -6 -77 -11z"/>
<path d="M1230 1463 c-59 -10 -91 -25 -86 -40 4 -8 9 -25 12 -38 5 -21 9 -22
73 -17 124 9 229 -46 277 -144 21 -43 33 -56 58 -62 29 -8 31 -7 34 20 8 71
-57 188 -128 233 -63 40 -167 60 -240 48z"/>
<path d="M1880 1354 c0 -3 7 -31 16 -61 12 -40 15 -83 12 -155 -4 -96 -3 -98
14 -76 27 34 56 137 64 223 l7 75 -57 0 c-31 0 -56 -3 -56 -6z"/>
<path d="M1539 1126 c0 0 -2 -23 -5 -50 -3 -27 -11 -64 -20 -84 -8 -19 -12
-37 -10 -39 12 -13 101 141 90 158 -3 5 -52 19 -55 15z"/>
<path d="M421 684 c-12 -15 -21 -35 -21 -46 0 -24 44 -68 68 -68 32 0 72 38
72 69 0 69 -77 98 -119 45z"/>
</g>
</svg>
