<?xml version="1.0" standalone="no"?>
<!DOCTYPE svg PUBLIC "-//W3C//DTD SVG 20010904//EN"
 "http://www.w3.org/TR/2001/REC-SVG-20010904/DTD/svg10.dtd">
<svg version="1.0" xmlns="http://www.w3.org/2000/svg"
 width="512.000000pt" height="512.000000pt" viewBox="0 0 512.000000 512.000000"
 preserveAspectRatio="xMidYMid meet">
<metadata>
Created by potrace 1.16, written by Peter Selinger 2001-2019
</metadata>
<g transform="translate(0.000000,512.000000) scale(0.100000,-0.100000)"
fill="#f2f2f2" stroke="none">
<path d="M4410 4360 c-76 -47 -178 -166 -229 -267 -33 -67 -205 -464 -228
-528 -7 -22 -18 -71 -24 -110 -5 -38 -41 -181 -80 -316 l-70 -246 2 -174 c1
-96 -1 -185 -5 -199 -10 -40 7 -124 25 -128 24 -4 79 47 100 93 23 49 23 85 3
172 -20 86 -6 171 42 259 19 33 34 70 34 80 0 11 11 42 25 70 46 94 75 199 96
348 11 82 18 154 16 160 -11 33 -78 -154 -97 -269 -18 -116 -30 -112 -30 9 0
109 0 109 46 210 37 80 48 115 52 171 6 91 22 120 80 148 54 26 62 45 33 86
-39 54 -27 93 39 126 27 14 57 39 68 57 12 18 32 44 46 57 14 14 26 32 26 41
0 29 39 70 66 70 29 0 75 -22 94 -45 18 -21 57 -41 98 -48 29 -6 32 -4 32 19
0 19 -19 46 -68 96 -60 62 -73 71 -113 75 -33 3 -52 -1 -79 -17z"/>
<path d="M2873 4230 c-26 -11 -45 -43 -37 -64 7 -19 85 -84 105 -86 34 -5 39
1 39 45 0 35 -6 51 -31 80 -33 37 -40 39 -76 25z"/>
<path d="M4427 4233 c-12 -11 -8 -22 14 -33 23 -13 49 2 49 26 0 14 -51 20
-63 7z"/>
<path d="M2540 4164 c-56 -20 -90 -50 -90 -81 0 -31 27 -30 70 2 46 34 88 32
134 -4 24 -19 55 -32 84 -36 85 -12 126 -26 181 -62 45 -29 60 -34 90 -29 46
7 76 -12 84 -54 4 -18 13 -30 23 -30 25 0 74 -55 74 -84 0 -15 14 -45 30 -68
17 -22 30 -47 30 -53 0 -7 24 -48 53 -91 102 -150 169 -287 181 -374 6 -41 4
-38 -27 35 -18 44 -40 92 -48 107 -22 42 -184 249 -187 240 -2 -8 190 -449
222 -509 8 -16 32 -47 54 -70 21 -23 56 -77 78 -120 34 -70 38 -86 38 -153 0
-41 -4 -97 -8 -125 -16 -97 50 -220 113 -213 l26 3 -4 235 -4 235 -33 94 c-18
52 -56 133 -83 180 -27 47 -54 106 -61 131 -6 25 -27 92 -46 150 -31 94 -42
114 -107 191 -40 48 -92 122 -117 165 -73 130 -180 257 -248 293 -19 10 -22 9
-22 -8 0 -11 -8 -25 -18 -30 -33 -18 -74 1 -143 66 -37 35 -82 68 -101 73 -50
15 -167 11 -218 -6z"/>
<path d="M4570 4133 c0 -21 29 -71 72 -125 34 -44 71 -50 109 -19 19 15 24 28
23 63 0 24 -9 56 -18 71 l-18 26 -28 -21 -28 -21 -35 22 c-42 26 -77 28 -77 4z"/>
<path d="M2311 4053 c-49 -49 -64 -99 -50 -165 6 -28 20 -59 30 -69 19 -19 20
-19 58 1 22 11 68 51 103 90 35 39 85 85 111 101 47 29 57 51 26 57 -9 1 -35
-13 -60 -33 -24 -19 -52 -35 -61 -35 -9 0 -29 19 -45 43 -38 57 -63 59 -112
10z"/>
<path d="M4220 4005 c-26 -32 13 -81 48 -59 34 22 22 74 -18 74 -10 0 -23 -7
-30 -15z"/>
<path d="M3000 3910 c-17 -33 -3 -62 28 -58 33 4 41 32 16 59 -22 24 -31 24
-44 -1z"/>
<path d="M3078 3843 c-31 -8 -33 -44 -4 -70 33 -28 62 -30 76 -4 14 28 13 38
-10 61 -20 20 -29 22 -62 13z"/>
<path d="M4145 3786 c-31 -31 -34 -92 -6 -127 l19 -24 29 21 c37 28 53 86 32
122 -20 36 -43 38 -74 8z"/>
<path d="M3136 3704 c-19 -18 -20 -28 -6 -55 19 -34 70 -18 70 22 0 18 -25 49
-40 49 -5 0 -16 -7 -24 -16z"/>
<path d="M3610 3442 c-16 -17 -30 -37 -30 -44 0 -35 34 -139 64 -193 18 -33
45 -90 61 -127 15 -38 31 -68 36 -68 11 0 27 54 44 155 11 59 28 113 51 159
l34 68 -18 32 c-18 30 -20 31 -93 32 -41 0 -84 4 -96 8 -18 6 -29 2 -53 -22z"/>
<path d="M2860 3235 c0 -3 18 -16 40 -30 22 -14 50 -41 62 -61 l23 -35 60 7
c66 7 132 32 154 57 12 15 9 17 -28 17 -23 0 -97 11 -163 25 -122 25 -148 29
-148 20z"/>
<path d="M1981 3118 c18 -24 53 -65 78 -91 l46 -48 -70 25 c-68 25 -308 61
-326 50 -31 -19 30 -75 109 -101 56 -19 82 -39 37 -29 -32 6 -131 13 -310 20
l-110 5 35 -30 c19 -16 37 -29 41 -29 4 0 20 -5 36 -12 l28 -11 -40 -8 c-22
-4 -76 -8 -120 -9 -44 -1 -100 -5 -125 -9 l-45 -7 37 -19 c20 -10 35 -22 33
-26 -3 -4 -33 -10 -67 -14 -51 -6 -85 -19 -180 -72 -65 -35 -121 -69 -124 -75
-5 -7 16 -9 63 -6 74 4 158 39 296 121 31 19 88 43 125 52 37 10 114 30 171
46 101 28 111 29 335 29 222 0 233 1 282 24 28 13 66 27 85 31 19 3 68 17 109
29 41 13 104 29 140 36 36 6 103 27 150 47 93 38 124 59 75 49 -90 -17 -128
-16 -248 3 -157 26 -161 26 -152 4 22 -53 22 -53 -51 -47 -101 8 -168 27 -263
73 -109 53 -121 52 -80 -1z"/>
<path d="M3268 3060 c-20 -17 -53 -37 -72 -45 -47 -20 -48 -49 -3 -71 17 -9
59 -42 92 -74 49 -47 71 -62 120 -75 33 -10 74 -26 91 -36 35 -21 54 -24 54
-8 0 6 -14 44 -32 86 -26 64 -45 90 -119 164 -48 49 -89 89 -91 89 -2 0 -20
-14 -40 -30z"/>
<path d="M4082 3057 c-6 -7 -15 -32 -21 -56 -5 -24 -23 -63 -40 -87 -34 -47
-83 -145 -76 -153 3 -2 22 8 42 22 21 14 68 39 105 56 70 31 85 48 144 159 33
61 22 72 -71 72 -47 0 -76 -5 -83 -13z"/>
<path d="M2965 3040 c-52 -5 -89 -16 -145 -45 -70 -36 -73 -38 -50 -47 14 -5
52 -23 85 -39 65 -31 229 -74 246 -63 7 4 5 12 -4 22 -22 26 -57 99 -57 120 0
11 7 25 15 32 16 13 11 31 -8 29 -7 -1 -43 -5 -82 -9z"/>
<path d="M2580 2928 c-14 -5 -75 -20 -136 -33 -100 -20 -116 -26 -147 -57 -35
-35 -71 -48 -135 -48 -33 0 -34 -1 -20 -17 30 -34 70 -126 83 -191 16 -74 32
-94 93 -111 23 -6 57 -25 76 -41 45 -40 96 -60 150 -60 40 0 51 6 108 56 35
30 98 76 141 101 43 26 74 49 70 53 -4 4 -54 23 -110 41 -57 18 -103 36 -103
40 0 14 59 50 157 96 101 48 103 52 32 67 -14 3 -43 22 -63 41 -71 67 -137 88
-196 63z"/>
<path d="M1768 2793 l-28 -4 17 -32 c11 -20 17 -54 17 -92 -1 -106 -36 -157
-289 -413 -122 -122 -214 -220 -206 -217 9 4 127 44 262 90 135 46 264 92 285
103 21 11 69 51 106 89 76 78 101 137 120 284 11 77 10 89 -8 125 -11 22 -32
45 -49 54 -30 14 -171 23 -227 13z"/>
<path d="M4114 2780 c-113 -39 -148 -76 -142 -148 l3 -37 39 38 c21 22 51 43
67 49 25 8 98 103 88 112 -2 2 -27 -4 -55 -14z"/>
<path d="M1507 2745 c-131 -44 -286 -116 -310 -144 -23 -26 -26 -58 -8 -74 25
-23 86 -46 205 -77 65 -18 118 -38 131 -50 l22 -21 71 81 c90 104 107 138 107
218 0 57 -3 66 -28 88 -15 13 -36 23 -45 23 -9 -1 -74 -21 -145 -44z"/>
<path d="M3075 2759 c-33 -5 -110 -25 -170 -44 -61 -19 -119 -35 -130 -35 -34
0 -9 -10 116 -47 108 -33 137 -38 226 -38 118 1 133 8 109 53 -25 48 -77 122
-84 121 -4 -1 -34 -5 -67 -10z"/>
<path d="M3310 2761 c0 -48 95 -131 151 -131 14 0 43 -11 64 -25 20 -15 39
-24 42 -21 8 8 -26 70 -56 104 -16 17 -42 34 -58 37 -31 7 -99 28 -125 40 -11
4 -18 3 -18 -4z"/>
<path d="M2147 2538 c-20 -132 -53 -211 -121 -286 -25 -29 -46 -54 -46 -57 0
-2 33 -20 73 -39 46 -23 107 -67 170 -122 l98 -86 47 17 c133 50 186 83 222
136 69 103 110 148 176 190 l67 44 -34 7 c-56 12 -120 11 -200 -2 -91 -15
-120 -8 -219 51 -36 21 -87 48 -113 59 -52 23 -59 34 -76 124 -6 33 -14 63
-19 68 -4 4 -15 -43 -25 -104z"/>
<path d="M1005 2536 c-107 -34 -139 -56 -340 -224 -55 -46 -124 -98 -153 -114
-63 -36 -58 -48 22 -57 l55 -6 -71 -80 c-126 -143 -198 -274 -198 -364 0 -87
84 -376 102 -349 4 7 8 56 8 108 1 52 7 124 15 160 l14 65 -3 -80 c-6 -136 8
-214 52 -302 22 -43 53 -91 70 -106 16 -15 69 -43 118 -61 160 -61 359 -161
410 -207 45 -42 47 -43 41 -17 -16 63 -33 88 -130 182 l-102 98 76 -51 c43
-29 128 -98 190 -155 121 -110 176 -143 324 -196 70 -25 107 -33 170 -34 75
-1 165 16 165 32 0 4 -13 14 -29 23 -17 10 -56 62 -99 130 -82 133 -109 160
-257 262 -60 42 -121 86 -135 97 l-25 21 42 -21 c50 -24 252 -74 261 -65 4 3
2 9 -4 13 -5 4 -39 28 -75 53 -95 68 -280 176 -397 230 -186 87 -218 122 -248
268 -30 151 -6 275 76 397 22 33 57 84 77 114 45 67 83 167 83 220 0 48 -5 49
-105 16z"/>
<path d="M2965 2537 c-41 -16 -235 -121 -235 -127 0 -3 46 -3 103 0 109 5 123
10 192 71 38 34 44 53 19 63 -22 8 -44 6 -79 -7z"/>
<path d="M3313 2515 c-12 -8 -56 -22 -99 -30 -57 -11 -93 -25 -139 -55 -68
-44 -126 -100 -90 -85 79 31 98 34 228 35 139 0 274 14 291 30 19 18 -42 78
-96 96 -29 9 -58 19 -63 21 -6 2 -20 -4 -32 -12z"/>
<path d="M1176 2442 c-3 -3 -6 -17 -6 -31 -1 -39 -29 -94 -125 -241 -54 -83
-88 -145 -87 -160 0 -14 1 -67 2 -117 2 -80 4 -92 18 -84 8 5 118 111 244 236
178 178 231 237 240 266 8 29 8 42 -1 53 -10 11 -97 38 -248 76 -17 4 -34 5
-37 2z"/>
<path d="M3684 2341 c-10 -10 31 -41 62 -47 25 -5 41 -1 64 16 16 12 30 24 30
28 0 7 -149 10 -156 3z"/>
<path d="M3415 2320 c-16 -4 -82 -8 -145 -9 -103 -1 -125 -5 -228 -38 l-115
-38 -126 -140 c-158 -175 -164 -180 -231 -205 -44 -17 -69 -36 -119 -91 -35
-39 -61 -72 -58 -75 3 -3 40 -14 82 -25 81 -20 107 -34 132 -69 9 -12 43 -35
77 -51 33 -16 69 -34 78 -41 14 -10 27 -9 68 6 68 25 155 17 280 -23 68 -21
108 -41 138 -67 46 -39 60 -40 157 -13 l39 11 -26 23 c-37 32 -122 62 -253 91
-65 14 -140 39 -183 60 -80 39 -91 53 -22 29 24 -9 123 -31 219 -51 185 -38
254 -60 311 -104 47 -37 58 -39 186 -44 93 -3 118 -8 153 -27 24 -13 57 -32
74 -41 34 -19 87 -24 87 -9 0 11 -50 49 -126 96 -56 35 -57 37 -24 32 19 -3
50 -9 69 -13 24 -5 32 -4 27 4 -6 10 -223 83 -333 111 -24 7 -67 33 -103 62
-51 43 -69 52 -108 55 -26 2 -94 19 -151 39 l-105 35 -38 -20 c-30 -15 -57
-20 -116 -19 -55 1 -69 3 -47 8 75 19 185 74 236 119 30 27 92 77 139 112 124
92 159 128 191 195 55 114 27 154 -86 125z"/>
<path d="M3538 2111 c-51 -69 -116 -125 -199 -172 -101 -58 -98 -54 -66 -86
l28 -28 147 0 c170 0 177 -2 216 -82 29 -60 41 -64 136 -38 33 9 100 15 166
15 95 0 122 -4 195 -29 46 -15 112 -42 146 -60 34 -17 77 -31 94 -31 30 0 31
1 16 18 -10 10 -17 33 -17 50 0 28 -4 32 -35 37 -19 3 -51 8 -71 11 -20 3 -73
25 -118 49 -82 44 -162 65 -254 65 -42 0 -243 60 -272 81 -12 9 -11 10 5 4 75
-25 210 -48 325 -56 74 -4 158 -11 187 -15 57 -7 107 1 98 16 -3 6 -24 10 -45
10 -22 0 -57 6 -77 14 -21 8 -72 16 -113 19 -60 3 -94 13 -170 46 -52 22 -105
41 -117 41 -16 0 -34 17 -62 58 -23 31 -54 72 -69 90 l-29 33 -45 -60z"/>
<path d="M1440 2041 c-62 -17 -131 -48 -198 -86 -86 -49 -118 -75 -188 -149
-46 -50 -84 -99 -84 -108 0 -28 36 -42 68 -25 15 8 63 33 108 55 46 23 89 53
99 68 33 50 217 219 269 246 64 34 46 34 -74 -1z"/>
<path d="M1760 1986 c-58 -23 -120 -50 -138 -60 -41 -21 -152 -132 -152 -152
0 -11 16 -14 68 -14 53 0 94 -9 187 -41 112 -37 125 -40 195 -34 57 5 98 2
170 -14 52 -12 115 -21 140 -21 l45 1 -43 26 -43 26 23 24 c12 13 37 33 55 44
18 12 33 25 33 30 0 5 -32 9 -71 9 -38 0 -114 9 -167 19 -53 11 -141 23 -194
26 l-97 7 56 71 c31 40 61 78 66 85 17 22 -23 12 -133 -32z"/>
<path d="M4490 1915 c-25 -19 -52 -35 -61 -35 -9 0 -28 -11 -43 -25 -47 -44 4
-31 85 21 50 32 86 48 118 52 35 4 41 7 26 13 -41 16 -80 8 -125 -26z"/>
<path d="M4504 1850 c-51 -27 -90 -51 -87 -53 2 -3 32 4 66 14 122 38 141 40
227 23 45 -8 84 -13 87 -11 2 3 -22 21 -54 41 -82 51 -121 49 -239 -14z"/>
<path d="M4270 1814 c-20 -7 -53 -11 -75 -8 l-40 5 39 -25 c21 -13 62 -27 90
-31 28 -3 63 -8 79 -11 38 -8 36 19 -4 57 -34 32 -38 33 -89 13z"/>
<path d="M4503 1784 c-29 -13 -53 -27 -53 -31 0 -5 28 -8 62 -9 35 0 110 -7
168 -16 58 -8 106 -14 108 -13 5 4 -48 40 -103 69 -62 32 -112 33 -182 0z"/>
<path d="M4453 1710 c-31 -13 -39 -48 -17 -71 18 -17 22 -17 66 -2 44 14 52
14 113 -5 l66 -20 -14 21 c-8 12 -33 37 -56 55 -35 26 -51 32 -89 31 -26 0
-57 -4 -69 -9z"/>
<path d="M1143 1675 c-81 -41 -84 -51 -27 -76 137 -60 200 -92 309 -159 66
-40 131 -73 145 -72 14 0 80 10 147 23 122 22 123 22 235 5 62 -10 138 -27
168 -37 71 -25 85 -24 109 7 27 34 26 44 -1 44 -13 0 -31 7 -41 15 -11 7 -25
11 -32 9 -24 -10 -199 44 -214 66 -11 16 -24 20 -75 20 -48 0 -87 9 -170 40
-59 23 -157 52 -219 66 -62 14 -140 36 -175 50 -78 30 -96 30 -159 -1z"/>
<path d="M2358 1525 c-44 -43 -50 -45 -88 -39 -33 5 -40 4 -40 -10 0 -9 8 -20
17 -23 24 -9 138 22 172 48 32 23 53 26 126 16 l50 -6 -54 26 c-30 14 -73 28
-95 30 -37 4 -45 0 -88 -42z"/>
<path d="M4166 1534 c-47 -35 -50 -36 -87 -24 -44 15 -45 15 -54 -22 l-7 -27
54 5 c29 3 75 10 101 15 68 13 126 11 181 -5 42 -13 46 -13 34 1 -24 29 -127
93 -150 93 -13 0 -45 -17 -72 -36z"/>
<path d="M2447 1455 c-49 -13 -91 -26 -94 -28 -2 -3 47 -4 109 -3 l113 1 84
-48 c46 -26 86 -45 89 -43 10 11 -84 107 -123 126 -51 24 -66 24 -178 -5z"/>
<path d="M4137 1428 c-8 -5 -7 -8 3 -12 33 -11 127 -35 165 -41 28 -5 69 -28
133 -76 50 -38 92 -65 92 -60 0 21 -58 109 -101 154 l-46 48 -117 -3 c-65 -2
-122 -6 -129 -10z"/>
<path d="M3598 1415 c-2 -3 -63 -9 -134 -14 -71 -5 -141 -15 -156 -21 -27 -13
-43 -36 -30 -43 4 -3 68 0 142 5 111 8 152 6 235 -8 55 -9 109 -20 120 -24 11
-5 50 -38 87 -74 37 -36 72 -66 77 -66 12 0 -10 58 -51 137 -31 57 -35 60
-185 93 -105 23 -98 22 -105 15z"/>
<path d="M2430 1380 c-14 -4 -51 -8 -82 -9 -31 -1 -60 -5 -63 -11 -3 -5 0 -10
7 -10 68 -2 155 -22 186 -43 20 -13 60 -27 87 -31 28 -4 74 -18 104 -32 30
-13 56 -23 58 -20 2 2 -27 32 -64 66 -98 90 -159 114 -233 90z"/>
<path d="M1735 1366 l-40 -12 37 -22 c66 -41 397 -117 411 -95 9 15 -30 71
-61 87 -32 16 -232 56 -277 55 -16 0 -48 -6 -70 -13z"/>
<path d="M4065 1360 c3 -5 14 -10 23 -10 36 -1 156 -61 200 -101 53 -47 165
-129 170 -124 2 2 -11 31 -28 64 -34 69 -90 136 -129 155 -33 17 -245 31 -236
16z"/>
<path d="M2250 1288 c-25 -6 -47 -12 -49 -14 -6 -5 20 -67 37 -86 19 -22 42
-23 101 -2 61 22 123 13 206 -31 l64 -33 -20 28 c-26 34 -144 125 -182 139
-34 13 -95 13 -157 -1z"/>
<path d="M3970 1257 c0 -65 55 -101 138 -90 59 8 110 -14 176 -76 l59 -56 -27
51 c-43 80 -122 171 -170 193 -30 15 -62 21 -109 21 l-67 0 0 -43z"/>
</g>
</svg>
