<?xml version="1.0" standalone="no"?>
<!DOCTYPE svg PUBLIC "-//W3C//DTD SVG 20010904//EN"
 "http://www.w3.org/TR/2001/REC-SVG-20010904/DTD/svg10.dtd">
<svg version="1.0" xmlns="http://www.w3.org/2000/svg"
 width="512.000000pt" height="512.000000pt" viewBox="0 0 512.000000 512.000000"
 preserveAspectRatio="xMidYMid meet">
<metadata>
Created by potrace 1.16, written by Peter Selinger 2001-2019
</metadata>
<g transform="translate(0.000000,512.000000) scale(0.100000,-0.100000)"
fill="#f2f2f2" stroke="none">
<path d="M3439 4501 c-16 -54 7 -212 52 -350 35 -110 47 -120 30 -25 -6 32
-11 129 -11 216 0 165 -7 198 -40 198 -14 0 -23 -11 -31 -39z"/>
<path d="M4300 4470 c-38 -41 -132 -280 -128 -323 l4 -32 21 45 c21 46 66 105
147 195 51 55 60 99 28 128 -26 24 -40 21 -72 -13z"/>
<path d="M4096 4417 c-8 -12 -22 -67 -31 -121 -24 -149 -71 -327 -122 -458
-31 -81 -43 -125 -39 -142 8 -33 66 -88 116 -111 37 -17 42 -17 57 -3 13 14
14 25 4 80 -18 102 -13 194 13 293 51 188 69 349 50 443 -8 39 -30 48 -48 19z"/>
<path d="M3571 4367 c-7 -7 -11 -67 -11 -173 0 -211 -13 -278 -86 -435 -48
-103 -58 -133 -59 -179 l0 -55 35 -2 c49 -4 146 50 187 105 65 86 67 132 19
542 -18 157 -50 232 -85 197z"/>
<path d="M4385 4233 c-109 -58 -198 -162 -254 -298 -33 -80 -38 -126 -6 -65
59 116 126 197 214 259 53 38 90 39 129 6 17 -14 37 -25 45 -25 33 0 37 75 6
114 -16 21 -29 26 -62 26 -23 -1 -55 -8 -72 -17z"/>
<path d="M3302 4154 c-13 -9 -22 -25 -22 -42 0 -46 12 -54 63 -47 41 6 48 4
71 -19 13 -15 36 -56 52 -91 29 -70 47 -85 38 -32 -19 108 -72 204 -127 230
-43 21 -47 21 -75 1z"/>
<path d="M3803 3903 c-32 -3 -53 -9 -54 -16 0 -7 0 -31 1 -53 1 -23 -5 -65
-14 -93 -18 -61 -15 -64 59 -59 l47 3 17 65 c9 36 26 79 39 97 12 17 22 36 22
41 0 12 -26 23 -48 20 -9 -1 -41 -3 -69 -5z"/>
<path d="M4325 3902 c-22 -4 -129 -66 -157 -90 -15 -12 -17 -31 -15 -118 1
-57 6 -104 10 -104 25 0 51 29 88 101 48 93 77 118 114 101 34 -16 31 -27 -7
-27 -30 0 -35 -5 -73 -80 -23 -44 -61 -100 -84 -124 -38 -39 -42 -46 -32 -67
14 -32 29 -30 111 11 90 45 165 55 201 26 15 -11 29 -32 31 -46 6 -31 3 -31
-35 1 -44 37 -71 31 -217 -47 -25 -13 -47 -25 -49 -26 -2 -2 4 -21 14 -43 19
-43 24 -45 140 -54 76 -6 90 -11 104 -42 15 -34 14 -52 -9 -99 l-19 -40 6 56
c7 77 -6 89 -101 89 l-73 0 5 -29 c2 -15 -4 -43 -13 -60 -15 -30 -15 -35 4
-91 11 -32 23 -86 27 -121 6 -62 5 -66 -41 -154 -26 -49 -74 -134 -106 -187
-33 -54 -59 -105 -59 -115 0 -35 -37 -81 -77 -93 -92 -29 -104 -61 -50 -128
25 -33 115 -102 131 -102 2 0 6 33 9 74 9 102 38 173 111 269 34 45 73 109 88
142 14 33 56 125 93 205 98 211 109 240 155 400 58 201 59 214 23 253 -47 51
-69 87 -96 164 -54 148 -99 207 -152 195z"/>
<path d="M3235 3864 c-103 -17 -237 -68 -281 -107 -40 -34 -87 -116 -139 -237
-20 -47 -52 -119 -72 -162 -42 -88 -45 -68 43 -253 57 -121 81 -152 122 -161
101 -23 104 -24 217 -138 62 -62 142 -138 178 -168 37 -30 82 -74 100 -99 49
-63 123 -214 143 -293 10 -36 21 -66 25 -66 23 0 26 248 4 335 -18 68 -49 116
-154 240 -64 76 -77 98 -96 164 -20 67 -55 169 -62 180 -5 7 -107 -51 -135
-77 -33 -31 -35 -53 -7 -101 l21 -36 -36 37 c-67 70 -47 114 93 203 80 51 91
61 106 103 9 26 18 58 18 72 2 22 -1 25 -30 22 -31 -3 -219 24 -235 34 -22 14
-141 4 -182 -15 -38 -16 -46 -25 -51 -54 -4 -20 -4 -50 0 -69 l6 -33 -20 30
c-12 17 -21 44 -21 60 0 37 30 88 64 111 38 24 171 29 288 10 137 -22 166 -21
213 11 48 32 54 40 48 63 -7 27 -42 37 -110 32 -54 -4 -68 -1 -106 22 -25 14
-64 49 -88 77 -24 28 -61 60 -83 70 -41 19 -41 19 -8 14 18 -2 49 -18 70 -35
76 -61 223 -101 249 -67 6 6 13 29 16 50 3 21 29 77 56 126 28 49 51 91 51 94
0 10 -64 27 -99 26 -20 -1 -72 -7 -116 -15z"/>
<path d="M3751 3609 c-30 -6 -58 -22 -95 -55 -28 -26 -65 -60 -83 -76 -18 -16
-47 -34 -65 -40 -18 -6 -47 -23 -65 -37 -17 -14 -42 -33 -54 -42 -21 -15 -22
-18 -10 -61 28 -99 86 -148 176 -148 43 0 47 -2 75 -47 32 -50 37 -90 19 -142
-14 -41 -2 -86 40 -153 25 -40 36 -48 60 -48 55 0 78 16 95 66 20 58 20 74 2
116 -8 18 -20 48 -27 66 -6 18 -24 39 -39 47 -21 11 -31 26 -40 66 -10 39 -24
63 -56 95 -54 54 -64 73 -64 119 0 30 9 46 54 93 29 31 59 67 65 80 7 12 16
20 20 17 5 -2 23 -45 41 -95 18 -50 35 -89 37 -86 4 4 -5 73 -23 176 l-6 35
33 -31 c19 -18 54 -42 79 -54 73 -36 90 -57 90 -109 -1 -25 -7 -57 -15 -71 -8
-14 -14 -47 -15 -75 0 -33 -7 -60 -20 -80 -11 -16 -20 -44 -20 -61 0 -17 -7
-37 -15 -44 -21 -18 -21 -157 1 -188 19 -27 58 -48 106 -57 48 -9 58 10 58
108 0 72 -2 77 -36 118 -33 39 -36 48 -30 86 10 72 29 97 95 126 57 25 61 29
61 60 0 47 -26 129 -50 160 -12 15 -47 36 -82 48 -33 13 -88 42 -120 66 -59
44 -99 64 -121 62 -7 -1 -32 -5 -56 -10z"/>
<path d="M2620 3357 c-25 -17 -63 -52 -85 -78 -68 -80 -158 -147 -268 -199
-60 -28 -114 -61 -126 -76 -31 -40 -27 -88 18 -179 21 -44 41 -89 45 -100 17
-58 56 -309 56 -366 0 -112 35 -113 141 -2 105 109 190 227 284 393 122 216
115 200 86 200 -10 0 -35 -20 -55 -45 -66 -80 -99 -82 -142 -9 -24 41 -26 52
-22 122 3 52 12 91 26 119 12 23 22 59 22 80 0 26 12 57 35 97 20 32 35 62 33
66 -2 4 -23 -6 -48 -23z"/>
<path d="M4637 3235 c15 -82 13 -119 -19 -273 -10 -44 -9 -55 4 -68 20 -21 43
-9 65 34 39 79 11 293 -47 364 -18 22 -18 21 -3 -57z"/>
<path d="M4113 3165 c-23 -16 -51 -90 -39 -102 4 -4 19 -1 33 7 31 17 49 63
37 91 -8 18 -11 18 -31 4z"/>
<path d="M3364 3163 c-15 -11 -34 -70 -34 -104 0 -46 77 -179 145 -249 34 -36
71 -81 83 -100 11 -20 32 -45 45 -58 l24 -22 30 59 31 60 -25 33 c-13 18 -40
64 -59 101 -30 58 -41 71 -78 87 -48 20 -72 48 -86 100 -12 43 -61 103 -76 93z"/>
<path d="M2675 3133 c-55 -55 -86 -166 -49 -180 24 -9 42 17 63 92 10 39 22
80 26 93 10 30 -6 28 -40 -5z"/>
<path d="M3527 3113 c-25 -24 16 -83 58 -83 32 0 32 20 -1 59 -25 30 -44 38
-57 24z"/>
<path d="M4165 3032 c-10 -26 -22 -87 -27 -137 -4 -49 -10 -106 -13 -125 l-6
-35 25 30 c14 17 40 56 57 89 27 50 30 65 25 104 -8 61 -25 122 -34 122 -4 0
-16 -21 -27 -48z"/>
<path d="M1847 2984 c-177 -15 -367 -46 -426 -70 -28 -11 -80 -60 -183 -172
-80 -86 -155 -162 -169 -169 -13 -7 -58 -26 -100 -43 -79 -32 -123 -63 -116
-83 11 -34 170 -49 237 -23 95 37 211 79 265 96 40 13 93 43 155 89 52 39 124
83 160 98 59 25 77 28 197 29 73 1 142 4 155 7 13 4 36 0 52 -8 15 -8 32 -13
36 -10 11 7 -2 49 -31 105 -16 32 -23 62 -24 105 0 72 16 68 -208 49z"/>
<path d="M4488 2923 c-3 -56 -12 -85 -50 -163 -44 -91 -50 -120 -23 -120 19 0
42 30 71 94 33 73 47 223 21 244 -13 11 -15 4 -19 -55z"/>
<path d="M2845 2834 c-15 -20 -42 -66 -60 -103 -18 -36 -57 -94 -87 -128 -29
-34 -87 -101 -128 -150 -41 -48 -102 -118 -137 -155 -35 -36 -63 -71 -63 -77
0 -6 -25 -27 -55 -46 -61 -39 -102 -96 -159 -219 -19 -42 -44 -89 -55 -105
-12 -16 -21 -35 -21 -43 0 -16 50 -65 92 -91 15 -10 38 -35 50 -57 25 -44 69
-65 119 -58 46 7 136 -10 182 -34 23 -11 72 -31 110 -44 37 -13 80 -32 96 -43
68 -49 294 -111 516 -142 106 -14 271 -83 369 -153 78 -55 143 -88 151 -77 3
6 4 45 3 88 -1 43 3 87 9 98 9 16 12 10 18 -40 4 -39 21 -89 47 -143 l40 -82
-7 -103 c-9 -126 -4 -132 82 -121 106 15 136 7 246 -68 64 -43 82 -42 73 6 -4
17 -11 54 -15 81 -11 60 -26 101 -41 110 -16 10 -2 24 20 18 54 -14 58 22 10
76 -20 21 -24 31 -14 31 8 0 25 -11 37 -26 12 -14 52 -55 89 -92 37 -37 84
-89 104 -117 48 -65 74 -89 84 -79 16 18 31 83 24 110 -3 16 -17 47 -30 70
-12 22 -28 72 -35 110 -6 38 -17 84 -25 102 -13 32 -13 32 14 26 44 -11 70
-22 77 -33 15 -25 24 -8 10 19 -40 77 -117 129 -217 145 -24 4 -83 36 -156 85
-122 82 -147 108 -227 243 -44 75 -76 93 -182 101 -97 7 -182 33 -254 78 -26
15 -72 37 -103 48 -91 31 -186 90 -263 162 -40 38 -82 72 -95 77 -39 14 -129
-5 -221 -48 -95 -44 -166 -53 -224 -30 -27 11 -25 13 43 25 66 11 136 42 274
119 56 31 60 31 142 -4 49 -21 84 -46 128 -90 33 -34 66 -61 73 -61 15 0 120
105 136 136 6 13 8 43 4 73 -7 58 -18 63 -77 34 -48 -22 -77 -8 -107 54 -21
43 -24 62 -24 170 0 121 0 122 -29 152 -16 17 -50 38 -75 47 -48 17 -63 31
-150 138 -65 80 -93 87 -136 30z"/>
<path d="M3880 2814 c-6 -16 -12 -34 -14 -40 -3 -6 -25 -21 -49 -33 -81 -39
-83 -61 -8 -102 20 -10 48 -29 63 -41 25 -19 30 -20 53 -8 14 7 25 20 25 27 0
8 18 32 40 54 43 43 50 66 23 75 -58 19 -77 31 -98 62 l-24 35 -11 -29z m48
-105 c-17 -13 -28 -15 -50 -7 l-29 10 26 28 26 27 24 -21 24 -21 -21 -16z m72
11 c0 -5 -16 -20 -35 -32 -19 -13 -40 -33 -46 -46 -11 -19 -14 -20 -21 -7 -5
8 -29 20 -54 26 -44 11 -62 24 -50 36 3 4 30 -6 58 -20 l52 -27 41 40 c40 40
55 48 55 30z"/>
<path d="M4060 2708 c-7 -13 -41 -53 -77 -89 -55 -56 -62 -67 -49 -78 19 -16
78 2 114 34 33 28 64 91 60 123 -4 35 -33 41 -48 10z"/>
<path d="M3680 2650 c-21 -79 17 -150 80 -150 51 0 140 28 140 44 0 8 -25 26
-56 41 -30 15 -71 45 -91 66 -20 21 -42 39 -49 39 -7 0 -18 -18 -24 -40z"/>
<path d="M1691 2656 c-46 -16 -91 -51 -91 -73 0 -18 29 -29 124 -48 43 -8 93
-24 111 -35 68 -42 196 -200 213 -262 6 -21 8 -90 5 -155 l-5 -118 20 24 c11
14 23 47 26 73 4 27 23 80 43 118 35 68 36 70 25 126 -7 32 -12 75 -12 96 0
72 -30 178 -60 211 -24 27 -37 32 -96 39 -161 17 -259 18 -303 4z"/>
<path d="M3336 2486 c-7 -74 2 -116 25 -116 18 0 21 30 11 102 -15 99 -28 104
-36 14z"/>
<path d="M3969 2520 c-9 -5 -52 -15 -95 -21 -44 -6 -82 -15 -87 -18 -12 -11
32 -51 55 -51 39 0 153 32 171 48 25 22 22 52 -5 52 -13 0 -30 -5 -39 -10z"/>
<path d="M1391 2484 c-97 -28 -190 -68 -276 -116 -101 -57 -175 -188 -175
-309 0 -63 12 -99 33 -99 7 0 39 20 72 45 92 69 177 91 254 64 32 -11 42 -29
16 -29 -9 0 -73 -23 -143 -50 -117 -46 -133 -55 -187 -111 -92 -93 -105 -98
-280 -98 -111 0 -153 -4 -170 -15 -54 -36 -123 -253 -97 -310 6 -14 44 -48 84
-76 100 -70 154 -146 193 -272 31 -101 70 -111 150 -37 28 26 45 35 48 27 6
-19 -28 -82 -63 -114 -66 -60 -59 -101 24 -145 40 -21 48 -22 56 -9 5 8 10 26
10 39 0 19 56 136 76 160 9 10 108 -46 134 -76 16 -18 36 -33 43 -33 15 0 47
72 47 107 0 11 -6 39 -14 61 l-15 41 27 -10 c48 -19 96 -51 149 -102 40 -38
56 -48 70 -42 10 5 23 9 28 9 25 2 5 34 -48 74 -70 53 -110 100 -157 183 -27
49 -54 78 -110 121 -144 111 -196 145 -273 178 -74 32 -117 63 -104 76 11 11
65 -7 122 -42 61 -36 102 -42 165 -24 19 6 107 22 195 35 249 39 431 83 518
127 48 24 88 86 124 192 50 147 34 266 -58 418 -55 90 -101 128 -196 161 -97
34 -160 34 -272 1z"/>
<path d="M3695 2378 c-2 -7 -8 -47 -14 -88 -20 -148 -65 -250 -109 -250 -9 0
-30 9 -46 19 -26 18 -32 18 -57 6 -37 -20 -81 -74 -77 -97 2 -13 43 -37 143
-84 150 -71 195 -80 295 -58 48 10 55 21 80 122 6 23 15 42 20 42 4 0 22 -18
38 -40 21 -29 31 -57 36 -100 7 -58 8 -60 35 -60 42 0 51 -16 40 -78 -6 -29
-9 -70 -7 -90 3 -35 7 -39 78 -74 41 -20 78 -37 83 -37 4 -1 17 14 28 32 21
34 21 26 4 222 l-6 60 32 -60 c17 -33 55 -89 84 -123 57 -69 80 -127 91 -229
6 -61 8 -63 34 -63 27 0 29 4 43 73 8 39 20 107 26 149 10 70 9 83 -10 129
-11 29 -26 61 -34 73 -17 23 -20 40 -5 31 5 -3 32 -37 61 -75 28 -39 56 -70
60 -70 19 0 7 50 -26 111 -20 35 -46 87 -59 114 -24 50 -142 197 -246 308 -39
40 -63 58 -83 60 -26 2 -30 -3 -59 -76 -17 -43 -39 -82 -49 -88 -25 -13 -76
14 -180 94 -45 34 -96 72 -114 84 -17 12 -46 44 -64 72 -32 49 -57 64 -66 39z"/>
<path d="M802 2371 c-15 -4 -31 -23 -47 -58 -13 -29 -29 -53 -34 -53 -17 0
-42 -46 -35 -64 11 -29 59 -46 128 -46 76 0 111 22 145 93 29 60 28 105 -3
116 -31 12 -125 19 -154 12z"/>
<path d="M552 2020 c-138 -140 -258 -354 -237 -420 12 -39 33 -19 79 78 52
106 82 144 138 173 31 16 56 18 168 16 l132 -2 24 30 c13 17 27 45 30 63 7 37
-9 104 -29 120 -6 5 -61 11 -122 13 l-110 4 -73 -75z"/>
<path d="M3926 1932 c-3 -4 -8 -31 -12 -60 -5 -39 -3 -57 9 -75 38 -59 86 -81
67 -31 -6 14 -10 41 -10 60 0 56 -38 131 -54 106z"/>
<path d="M1905 1719 c-43 -43 -86 -69 -150 -88 -70 -22 -72 -23 -42 -32 50
-14 346 26 370 50 5 5 6 15 2 21 -8 13 -124 90 -135 90 -3 0 -24 -18 -45 -41z"/>
<path d="M4313 1534 c-21 -81 -22 -87 -6 -127 22 -58 32 -68 62 -65 22 3 27
10 39 58 7 30 10 75 7 100 -5 45 -48 120 -69 120 -6 0 -21 -38 -33 -86z"/>
<path d="M4613 1583 c-9 -21 -19 -73 -21 -116 -4 -77 -3 -80 31 -130 20 -29
41 -64 48 -79 7 -16 16 -28 20 -28 9 0 35 112 44 193 6 43 3 69 -10 102 -15
42 -64 95 -86 95 -6 0 -17 -17 -26 -37z"/>
<path d="M1460 1558 c-30 -11 -93 -26 -139 -34 -133 -22 -168 -58 -86 -90 34
-12 47 -24 52 -43 22 -94 90 -160 187 -185 38 -9 87 -26 109 -38 27 -13 66
-22 112 -24 48 -3 86 -12 121 -29 64 -31 68 -31 83 2 17 37 -5 56 -66 60 -27
1 -50 2 -53 3 -15 2 37 30 57 30 13 0 23 4 23 10 0 18 -40 30 -104 30 -65 0
-94 13 -56 25 31 10 37 53 12 98 l-21 38 28 31 c24 27 34 31 99 36 48 3 72 9
72 17 0 17 -23 25 -68 25 -35 0 -54 5 -163 41 -70 24 -129 23 -199 -3z"/>
<path d="M1780 1443 c-20 -8 -30 -24 -30 -48 0 -30 69 -125 91 -125 48 0 50
102 3 151 -28 29 -37 32 -64 22z"/>
<path d="M1934 1402 c-6 -4 -14 -35 -17 -69 l-5 -62 83 -76 c76 -69 83 -73 89
-52 10 39 6 161 -7 187 -19 37 -119 88 -143 72z"/>
<path d="M1945 1129 c-8 -25 0 -35 38 -44 27 -7 32 -1 27 35 -5 34 -55 41 -65
9z"/>
<path d="M4567 1033 c9 -108 21 -128 93 -154 34 -12 82 -38 107 -57 l46 -35
-7 42 c-3 23 -18 71 -32 107 -28 70 -67 109 -141 144 -70 33 -73 30 -66 -47z"/>
<path d="M1290 990 c0 -22 -11 -67 -25 -100 -14 -33 -25 -67 -25 -76 0 -22 82
-154 97 -154 22 0 57 130 58 212 0 76 0 77 -40 117 -50 52 -65 53 -65 1z"/>
<path d="M1480 945 c-22 -59 -13 -102 40 -177 28 -39 50 -78 50 -85 0 -8 6
-13 13 -10 8 3 12 30 12 89 0 77 -3 89 -30 133 -16 26 -40 54 -52 63 -21 13
-23 12 -33 -13z"/>
<path d="M1035 920 c-12 -13 -18 -36 -18 -66 0 -45 2 -49 74 -115 40 -38 78
-69 83 -69 13 0 -1 126 -20 183 -16 48 -54 87 -84 87 -9 0 -25 -9 -35 -20z"/>
<path d="M4300 866 c0 -13 9 -35 20 -49 16 -20 37 -97 40 -143 0 0 18 -6 40
-13 22 -7 67 -28 99 -46 70 -41 85 -44 75 -12 -22 72 -107 185 -185 247 -59
46 -89 52 -89 16z"/>
<path d="M4621 803 c-17 -61 -14 -91 12 -104 12 -7 38 -25 57 -41 31 -25 35
-26 41 -10 4 9 4 41 1 70 -4 45 -10 57 -43 87 -22 19 -43 35 -49 35 -5 0 -14
-17 -19 -37z"/>
</g>
</svg>
