<svg xmlns="http://www.w3.org/2000/svg" width="682.667" height="682.667" version="1.0" viewBox="0 0 512 512">
    <g fill="#e5e5e5">
        <path d="M441 76c-7.6 4.7-17.8 16.6-22.9 26.7-3.3 6.7-20.5 46.4-22.8 52.8-.7 2.2-1.8 7.1-2.4 11-.5 3.8-4.1 18.1-8 31.6l-7 24.6.2 17.4c.1 9.6-.1 18.5-.5 19.9-1 4 .7 12.4 2.5 12.8 2.4.4 7.9-4.7 10-9.3 2.3-4.9 2.3-8.5.3-17.2-2-8.6-.6-17.1 4.2-25.9 1.9-3.3 3.4-7 3.4-8 0-1.1 1.1-4.2 2.5-7 4.6-9.4 7.5-19.9 9.6-34.8 1.1-8.2 1.8-15.4 1.6-16-1.1-3.3-7.8 15.4-9.7 26.9-1.8 11.6-3 11.2-3-.9 0-10.9 0-10.9 4.6-21 3.7-8 4.8-11.5 5.2-17.1.6-9.1 2.2-12 8-14.8 5.4-2.6 6.2-4.5 3.3-8.6-3.9-5.4-2.7-9.3 3.9-12.6 2.7-1.4 5.7-3.9 6.8-5.7 1.2-1.8 3.2-4.4 4.6-5.7 1.4-1.4 2.6-3.2 2.6-4.1 0-2.9 3.9-7 6.6-7 2.9 0 7.5 2.2 9.4 4.5 1.8 2.1 5.7 4.1 9.8 4.8 2.9.6 3.2.4 3.2-1.9 0-1.9-1.9-4.6-6.8-9.6-6-6.2-7.3-7.1-11.3-7.5-3.3-.3-5.2.1-7.9 1.7M287.3 89c-2.6 1.1-4.5 4.3-3.7 6.4.7 1.9 8.5 8.4 10.5 8.6 3.4.5 3.9-.1 3.9-4.5 0-3.5-.6-5.1-3.1-8-3.3-3.7-4-3.9-7.6-2.5"/>
        <path d="M442.7 88.7c-1.2 1.1-.8 2.2 1.4 3.3 2.3 1.3 4.9-.2 4.9-2.6 0-1.4-5.1-2-6.3-.7M254 95.6c-5.6 2-9 5-9 8.1s2.7 3 7-.2c4.6-3.4 8.8-3.2 13.4.4 2.4 1.9 5.5 3.2 8.4 3.6 8.5 1.2 12.6 2.6 18.1 6.2 4.5 2.9 6 3.4 9 2.9 4.6-.7 7.6 1.2 8.4 5.4.4 1.8 1.3 3 2.3 3 2.5 0 7.4 5.5 7.4 8.4 0 1.5 1.4 4.5 3 6.8 1.7 2.2 3 4.7 3 5.3 0 .7 2.4 4.8 5.3 9.1 10.2 15 16.9 28.7 18.1 37.4.6 4.1.4 3.8-2.7-3.5-1.8-4.4-4-9.2-4.8-10.7-2.2-4.2-18.4-24.9-18.7-24-.2.8 19 44.9 22.2 50.9.8 1.6 3.2 4.7 5.4 7 2.1 2.3 5.6 7.7 7.8 12 3.4 7 3.8 8.6 3.8 15.3 0 4.1-.4 9.7-.8 12.5-1.6 9.7 5 22 11.3 21.3l2.6-.3-.4-23.5-.4-23.5-3.3-9.4c-1.8-5.2-5.6-13.3-8.3-18s-5.4-10.6-6.1-13.1c-.6-2.5-2.7-9.2-4.6-15-3.1-9.4-4.2-11.4-10.7-19.1-4-4.8-9.2-12.2-11.7-16.5-7.3-13-18-25.7-24.8-29.3-1.9-1-2.2-.9-2.2.8 0 1.1-.8 2.5-1.8 3-3.3 1.8-7.4-.1-14.3-6.6-3.7-3.5-8.2-6.8-10.1-7.3-5-1.5-16.7-1.1-21.8.6m203 3.1c0 2.1 2.9 7.1 7.2 12.5 3.4 4.4 7.1 5 10.9 1.9 1.9-1.5 2.4-2.8 2.3-6.3 0-2.4-.9-5.6-1.8-7.1l-1.8-2.6-2.8 2.1-2.8 2.1-3.5-2.2c-4.2-2.6-7.7-2.8-7.7-.4"/>
        <path d="M231.1 106.7c-4.9 4.9-6.4 9.9-5 16.5.6 2.8 2 5.9 3 6.9 1.9 1.9 2 1.9 5.8-.1 2.2-1.1 6.8-5.1 10.3-9s8.5-8.5 11.1-10.1c4.7-2.9 5.7-5.1 2.6-5.7-.9-.1-3.5 1.3-6 3.3-2.4 1.9-5.2 3.5-6.1 3.5s-2.9-1.9-4.5-4.3c-3.8-5.7-6.3-5.9-11.2-1m190.9 4.8c-2.6 3.2 1.3 8.1 4.8 5.9 3.4-2.2 2.2-7.4-1.8-7.4-1 0-2.3.7-3 1.5M300 121c-1.7 3.3-.3 6.2 2.8 5.8 3.3-.4 4.1-3.2 1.6-5.9-2.2-2.4-3.1-2.4-4.4.1m7.8 6.7c-3.1.8-3.3 4.4-.4 7 3.3 2.8 6.2 3 7.6.4 1.4-2.8 1.3-3.8-1-6.1-2-2-2.9-2.2-6.2-1.3m106.7 5.7c-3.1 3.1-3.4 9.2-.6 12.7l1.9 2.4 2.9-2.1c3.7-2.8 5.3-8.6 3.2-12.2-2-3.6-4.3-3.8-7.4-.8m-100.9 8.2c-1.9 1.8-2 2.8-.6 5.5 1.9 3.4 7 1.8 7-2.2 0-1.8-2.5-4.9-4-4.9-.5 0-1.6.7-2.4 1.6m47.4 26.2c-1.6 1.7-3 3.7-3 4.4 0 3.5 3.4 13.9 6.4 19.3 1.8 3.3 4.5 9 6.1 12.7 1.5 3.8 3.1 6.8 3.6 6.8 1.1 0 2.7-5.4 4.4-15.5 1.1-5.9 2.8-11.3 5.1-15.9l3.4-6.8-1.8-3.2c-1.8-3-2-3.1-9.3-3.2-4.1 0-8.4-.4-9.6-.8-1.8-.6-2.9-.2-5.3 2.2m-75 20.7c0 .3 1.8 1.6 4 3s5 4.1 6.2 6.1l2.3 3.5 6-.7c6.6-.7 13.2-3.2 15.4-5.7 1.2-1.5.9-1.7-2.8-1.7-2.3 0-9.7-1.1-16.3-2.5-12.2-2.5-14.8-2.9-14.8-2m-87.9 11.7c1.8 2.4 5.3 6.5 7.8 9.1l4.6 4.8-7-2.5c-6.8-2.5-30.8-6.1-32.6-5-3.1 1.9 3 7.5 10.9 10.1 5.6 1.9 8.2 3.9 3.7 2.9-3.2-.6-13.1-1.3-31-2l-11-.5 3.5 3c1.9 1.6 3.7 2.9 4.1 2.9s2 .5 3.6 1.2l2.8 1.1-4 .8c-2.2.4-7.6.8-12 .9s-10 .5-12.5.9l-4.5.7 3.7 1.9c2 1 3.5 2.2 3.3 2.6-.3.4-3.3 1-6.7 1.4-5.1.6-8.5 1.9-18 7.2-6.5 3.5-12.1 6.9-12.4 7.5q-.75 1.05 6.3.6c7.4-.4 15.8-3.9 29.6-12.1 3.1-1.9 8.8-4.3 12.5-5.2 3.7-1 11.4-3 17.1-4.6 10.1-2.8 11.1-2.9 33.5-2.9 22.2 0 23.3-.1 28.2-2.4 2.8-1.3 6.6-2.7 8.5-3.1 1.9-.3 6.8-1.7 10.9-2.9 4.1-1.3 10.4-2.9 14-3.6 3.6-.6 10.3-2.7 15-4.7 9.3-3.8 12.4-5.9 7.5-4.9-9 1.7-12.8 1.6-24.8-.3-15.7-2.6-16.1-2.6-15.2-.4 2.2 5.3 2.2 5.3-5.1 4.7-10.1-.8-16.8-2.7-26.3-7.3-10.9-5.3-12.1-5.2-8 .1m128.7 5.8c-2 1.7-5.3 3.7-7.2 4.5-4.7 2-4.8 4.9-.3 7.1 1.7.9 5.9 4.2 9.2 7.4 4.9 4.7 7.1 6.2 12 7.5 3.3 1 7.4 2.6 9.1 3.6 3.5 2.1 5.4 2.4 5.4.8 0-.6-1.4-4.4-3.2-8.6-2.6-6.4-4.5-9-11.9-16.4-4.8-4.9-8.9-8.9-9.1-8.9s-2 1.4-4 3m81.4.3c-.6.7-1.5 3.2-2.1 5.6-.5 2.4-2.3 6.3-4 8.7-3.4 4.7-8.3 14.5-7.6 15.3.3.2 2.2-.8 4.2-2.2 2.1-1.4 6.8-3.9 10.5-5.6 7-3.1 8.5-4.8 14.4-15.9 3.3-6.1 2.2-7.2-7.1-7.2-4.7 0-7.6.5-8.3 1.3M296.5 208c-5.2.5-8.9 1.6-14.5 4.5-7 3.6-7.3 3.8-5 4.7 1.4.5 5.2 2.3 8.5 3.9 6.5 3.1 22.9 7.4 24.6 6.3.7-.4.5-1.2-.4-2.2-2.2-2.6-5.7-9.9-5.7-12 0-1.1.7-2.5 1.5-3.2 1.6-1.3 1.1-3.1-.8-2.9-.7.1-4.3.5-8.2.9M258 219.2c-1.4.5-7.5 2-13.6 3.3-10 2-11.6 2.6-14.7 5.7-3.5 3.5-7.1 4.8-13.5 4.8-3.3 0-3.4.1-2 1.7 3 3.4 7 12.6 8.3 19.1 1.6 7.4 3.2 9.4 9.3 11.1 2.3.6 5.7 2.5 7.6 4.1 4.5 4 9.6 6 15 6 4 0 5.1-.6 10.8-5.6 3.5-3 9.8-7.6 14.1-10.1 4.3-2.6 7.4-4.9 7-5.3s-5.4-2.3-11-4.1c-5.7-1.8-10.3-3.6-10.3-4 0-1.4 5.9-5 15.7-9.6 10.1-4.8 10.3-5.2 3.2-6.7-1.4-.3-4.3-2.2-6.3-4.1-7.1-6.7-13.7-8.8-19.6-6.3"/>
        <path d="m176.8 232.7-2.8.4 1.7 3.2c1.1 2 1.7 5.4 1.7 9.2-.1 10.6-3.6 15.7-28.9 41.3-12.2 12.2-21.4 22-20.6 21.7.9-.4 12.7-4.4 26.2-9s26.4-9.2 28.5-10.3 6.9-5.1 10.6-8.9c7.6-7.8 10.1-13.7 12-28.4 1.1-7.7 1-8.9-.8-12.5-1.1-2.2-3.2-4.5-4.9-5.4-3-1.4-17.1-2.3-22.7-1.3m234.6 1.3c-11.3 3.9-14.8 7.6-14.2 14.8l.3 3.7 3.9-3.8c2.1-2.2 5.1-4.3 6.7-4.9 2.5-.8 9.8-10.3 8.8-11.2-.2-.2-2.7.4-5.5 1.4"/>
        <path d="M150.7 237.5c-13.1 4.4-28.6 11.6-31 14.4-2.3 2.6-2.6 5.8-.8 7.4 2.5 2.3 8.6 4.6 20.5 7.7 6.5 1.8 11.8 3.8 13.1 5l2.2 2.1 7.1-8.1c9-10.4 10.7-13.8 10.7-21.8 0-5.7-.3-6.6-2.8-8.8-1.5-1.3-3.6-2.3-4.5-2.3-.9.1-7.4 2.1-14.5 4.4m156.8-1.4c-3.3.5-11 2.5-17 4.4-6.1 1.9-11.9 3.5-13 3.5-3.4 0-.9 1 11.6 4.7 10.8 3.3 13.7 3.8 22.6 3.8 11.8-.1 13.3-.8 10.9-5.3-2.5-4.8-7.7-12.2-8.4-12.1-.4.1-3.4.5-6.7 1m23.5-.2c0 4.8 9.5 13.1 15.1 13.1 1.4 0 4.3 1.1 6.4 2.5 2 1.5 3.9 2.4 4.2 2.1.8-.8-2.6-7-5.6-10.4-1.6-1.7-4.2-3.4-5.8-3.7-3.1-.7-9.9-2.8-12.5-4-1.1-.4-1.8-.3-1.8.4m-116.3 22.3c-2 13.2-5.3 21.1-12.1 28.6-2.5 2.9-4.6 5.4-4.6 5.7 0 .2 3.3 2 7.3 3.9 4.6 2.3 10.7 6.7 17 12.2l9.8 8.6 4.7-1.7c13.3-5 18.6-8.3 22.2-13.6 6.9-10.3 11-14.8 17.6-19l6.7-4.4-3.4-.7c-5.6-1.2-12-1.1-20 .2-9.1 1.5-12 .8-21.9-5.1-3.6-2.1-8.7-4.8-11.3-5.9-5.2-2.3-5.9-3.4-7.6-12.4-.6-3.3-1.4-6.3-1.9-6.8-.4-.4-1.5 4.3-2.5 10.4m-114.2.2c-10.7 3.4-13.9 5.6-34 22.4-5.5 4.6-12.4 9.8-15.3 11.4-6.3 3.6-5.8 4.8 2.2 5.7l5.5.6-7.1 8C39.2 320.8 32 333.9 32 342.9c0 8.7 8.4 37.6 10.2 34.9.4-.7.8-5.6.8-10.8.1-5.2.7-12.4 1.5-16l1.4-6.5-.3 8c-.6 13.6.8 21.4 5.2 30.2 2.2 4.3 5.3 9.1 7 10.6 1.6 1.5 6.9 4.3 11.8 6.1 16 6.1 35.9 16.1 41 20.7 4.5 4.2 4.7 4.3 4.1 1.7-1.6-6.3-3.3-8.8-13-18.2l-10.2-9.8 7.6 5.1c4.3 2.9 12.8 9.8 19 15.5 12.1 11 17.6 14.3 32.4 19.6 7 2.5 10.7 3.3 17 3.4 7.5.1 16.5-1.6 16.5-3.2 0-.4-1.3-1.4-2.9-2.3-1.7-1-5.6-6.2-9.9-13-8.2-13.3-10.9-16-25.7-26.2-6-4.2-12.1-8.6-13.5-9.7l-2.5-2.1 4.2 2.1c5 2.4 25.2 7.4 26.1 6.5.4-.3.2-.9-.4-1.3-.5-.4-3.9-2.8-7.5-5.3-9.5-6.8-28-17.6-39.7-23-18.6-8.7-21.8-12.2-24.8-26.8-3-15.1-.6-27.5 7.6-39.7 2.2-3.3 5.7-8.4 7.7-11.4 4.5-6.7 8.3-16.7 8.3-22 0-4.8-.5-4.9-10.5-1.6m196-.1c-4.1 1.6-23.5 12.1-23.5 12.7 0 .3 4.6.3 10.3 0 10.9-.5 12.3-1 19.2-7.1 3.8-3.4 4.4-5.3 1.9-6.3-2.2-.8-4.4-.6-7.9.7m34.8 2.2c-1.2.8-5.6 2.2-9.9 3-5.7 1.1-9.3 2.5-13.9 5.5-6.8 4.4-12.6 10-9 8.5 7.9-3.1 9.8-3.4 22.8-3.5 13.9 0 27.4-1.4 29.1-3 1.9-1.8-4.2-7.8-9.6-9.6-2.9-.9-5.8-1.9-6.3-2.1-.6-.2-2 .4-3.2 1.2"/>
        <path d="M117.6 267.8c-.3.3-.6 1.7-.6 3.1-.1 3.9-2.9 9.4-12.5 24.1-5.4 8.3-8.8 14.5-8.7 16 0 1.4.1 6.7.2 11.7.2 8 .4 9.2 1.8 8.4.8-.5 11.8-11.1 24.4-23.6 17.8-17.8 23.1-23.7 24-26.6.8-2.9.8-4.2-.1-5.3-1-1.1-9.7-3.8-24.8-7.6-1.7-.4-3.4-.5-3.7-.2m250.8 10.1c-1 1 3.1 4.1 6.2 4.7 2.5.5 4.1.1 6.4-1.6 1.6-1.2 3-2.4 3-2.8 0-.7-14.9-1-15.6-.3m-26.9 2.1c-1.6.4-8.2.8-14.5.9-10.3.1-12.5.5-22.8 3.8l-11.5 3.8-12.6 14c-15.8 17.5-16.4 18-23.1 20.5-4.4 1.7-6.9 3.6-11.9 9.1-3.5 3.9-6.1 7.2-5.8 7.5s4 1.4 8.2 2.5c8.1 2 10.7 3.4 13.2 6.9.9 1.2 4.3 3.5 7.7 5.1 3.3 1.6 6.9 3.4 7.8 4.1 1.4 1 2.7.9 6.8-.6 6.8-2.5 15.5-1.7 28 2.3 6.8 2.1 10.8 4.1 13.8 6.7 4.6 3.9 6 4 15.7 1.3l3.9-1.1-2.6-2.3c-3.7-3.2-12.2-6.2-25.3-9.1-6.5-1.4-14-3.9-18.3-6-8-3.9-9.1-5.3-2.2-2.9 2.4.9 12.3 3.1 21.9 5.1 18.5 3.8 25.4 6 31.1 10.4 4.7 3.7 5.8 3.9 18.6 4.4 9.3.3 11.8.8 15.3 2.7 2.4 1.3 5.7 3.2 7.4 4.1 3.4 1.9 8.7 2.4 8.7.9 0-1.1-5-4.9-12.6-9.6-5.6-3.5-5.7-3.7-2.4-3.2 1.9.3 5 .9 6.9 1.3 2.4.5 3.2.4 2.7-.4-.6-1-22.3-8.3-33.3-11.1-2.4-.7-6.7-3.3-10.3-6.2-5.1-4.3-6.9-5.2-10.8-5.5-2.6-.2-9.4-1.9-15.1-3.9l-10.5-3.5-3.8 2c-3 1.5-5.7 2-11.6 1.9-5.5-.1-6.9-.3-4.7-.8 7.5-1.9 18.5-7.4 23.6-11.9 3-2.7 9.2-7.7 13.9-11.2 12.4-9.2 15.9-12.8 19.1-19.5 5.5-11.4 2.7-15.4-8.6-12.5"/>
        <path d="M353.8 300.9c-5.1 6.9-11.6 12.5-19.9 17.2-10.1 5.8-9.8 5.4-6.6 8.6l2.8 2.8h14.7c17 0 17.7.2 21.6 8.2 2.9 6 4.1 6.4 13.6 3.8 3.3-.9 10-1.5 16.6-1.5 9.5 0 12.2.4 19.5 2.9 4.6 1.5 11.2 4.2 14.6 6 3.4 1.7 7.7 3.1 9.4 3.1 3 0 3.1-.1 1.6-1.8-1-1-1.7-3.3-1.7-5 0-2.8-.4-3.2-3.5-3.7-1.9-.3-5.1-.8-7.1-1.1s-7.3-2.5-11.8-4.9c-8.2-4.4-16.2-6.5-25.4-6.5-4.2 0-24.3-6-27.2-8.1-1.2-.9-1.1-1 .5-.4 7.5 2.5 21 4.8 32.5 5.6 7.4.4 15.8 1.1 18.7 1.5 5.7.7 10.7-.1 9.8-1.6-.3-.6-2.4-1-4.5-1-2.2 0-5.7-.6-7.7-1.4-2.1-.8-7.2-1.6-11.3-1.9-6-.3-9.4-1.3-17-4.6-5.2-2.2-10.5-4.1-11.7-4.1-1.6 0-3.4-1.7-6.2-5.8-2.3-3.1-5.4-7.2-6.9-9l-2.9-3.3zm-209.8 7c-6.2 1.7-13.1 4.8-19.8 8.6-8.6 4.9-11.8 7.5-18.8 14.9-4.6 5-8.4 9.9-8.4 10.8 0 2.8 3.6 4.2 6.8 2.5 1.5-.8 6.3-3.3 10.8-5.5 4.6-2.3 8.9-5.3 9.9-6.8 3.3-5 21.7-21.9 26.9-24.6 6.4-3.4 4.6-3.4-7.4.1m32 5.5c-5.8 2.3-12 5-13.8 6-4.1 2.1-15.2 13.2-15.2 15.2 0 1.1 1.6 1.4 6.8 1.4 5.3 0 9.4.9 18.7 4.1 11.2 3.7 12.5 4 19.5 3.4 5.7-.5 9.8-.2 17 1.4 5.2 1.2 11.5 2.1 14 2.1l4.5-.1-4.3-2.6-4.3-2.6 2.3-2.4c1.2-1.3 3.7-3.3 5.5-4.4 1.8-1.2 3.3-2.5 3.3-3s-3.2-.9-7.1-.9c-3.8 0-11.4-.9-16.7-1.9-5.3-1.1-14.1-2.3-19.4-2.6l-9.7-.7 5.6-7.1c3.1-4 6.1-7.8 6.6-8.5 1.7-2.2-2.3-1.2-13.3 3.2m273 7.1c-2.5 1.9-5.2 3.5-6.1 3.5s-2.8 1.1-4.3 2.5c-4.7 4.4.4 3.1 8.5-2.1 5-3.2 8.6-4.8 11.8-5.2 3.5-.4 4.1-.7 2.6-1.3-4.1-1.6-8-.8-12.5 2.6m1.4 6.5c-5.1 2.7-9 5.1-8.7 5.3.2.3 3.2-.4 6.6-1.4 12.2-3.8 14.1-4 22.7-2.3 4.5.8 8.4 1.3 8.7 1.1.2-.3-2.2-2.1-5.4-4.1-8.2-5.1-12.1-4.9-23.9 1.4"/>
        <path d="M427 330.6c-2 .7-5.3 1.1-7.5.8l-4-.5 3.9 2.5c2.1 1.3 6.2 2.7 9 3.1 2.8.3 6.3.8 7.9 1.1 3.8.8 3.6-1.9-.4-5.7-3.4-3.2-3.8-3.3-8.9-1.3m23.3 3c-2.9 1.3-5.3 2.7-5.3 3.1 0 .5 2.8.8 6.2.9 3.5 0 11 .7 16.8 1.6 5.8.8 10.6 1.4 10.8 1.3.5-.4-4.8-4-10.3-6.9-6.2-3.2-11.2-3.3-18.2 0m-5 7.4c-3.1 1.3-3.9 4.8-1.7 7.1 1.8 1.7 2.2 1.7 6.6.2 4.4-1.4 5.2-1.4 11.3.5l6.6 2-1.4-2.1c-.8-1.2-3.3-3.7-5.6-5.5-3.5-2.6-5.1-3.2-8.9-3.1-2.6 0-5.7.4-6.9.9m-331 3.5c-8.1 4.1-8.4 5.1-2.7 7.6 13.7 6 20 9.2 30.9 15.9 6.6 4 13.1 7.3 14.5 7.2 1.4 0 8-1 14.7-2.3 12.2-2.2 12.3-2.2 23.5-.5 6.2 1 13.8 2.7 16.8 3.7 7.1 2.5 8.5 2.4 10.9-.7 2.7-3.4 2.6-4.4-.1-4.4-1.3 0-3.1-.7-4.1-1.5-1.1-.7-2.5-1.1-3.2-.9-2.4 1-19.9-4.4-21.4-6.6-1.1-1.6-2.4-2-7.5-2-4.8 0-8.7-.9-17-4-5.9-2.3-15.7-5.2-21.9-6.6s-14-3.6-17.5-5c-7.8-3-9.6-3-15.9.1m121.5 15c-4.4 4.3-5 4.5-8.8 3.9-3.3-.5-4-.4-4 1 0 .9.8 2 1.7 2.3 2.4.9 13.8-2.2 17.2-4.8 3.2-2.3 5.3-2.6 12.6-1.6l5 .6-5.4-2.6c-3-1.4-7.3-2.8-9.5-3-3.7-.4-4.5 0-8.8 4.2m180.8-.9c-4.7 3.5-5 3.6-8.7 2.4-4.4-1.5-4.5-1.5-5.4 2.2l-.7 2.7 5.4-.5c2.9-.3 7.5-1 10.1-1.5 6.8-1.3 12.6-1.1 18.1.5 4.2 1.3 4.6 1.3 3.4-.1-2.4-2.9-12.7-9.3-15-9.3-1.3 0-4.5 1.7-7.2 3.6m-171.9 7.9c-4.9 1.3-9.1 2.6-9.4 2.8-.2.3 4.7.4 10.9.3l11.3-.1 8.4 4.8c4.6 2.6 8.6 4.5 8.9 4.3 1-1.1-8.4-10.7-12.3-12.6-5.1-2.4-6.6-2.4-17.8.5m169 2.7c-.8.5-.7.8.3 1.2 3.3 1.1 12.7 3.5 16.5 4.1 2.8.5 6.9 2.8 13.3 7.6 5 3.8 9.2 6.5 9.2 6 0-2.1-5.8-10.9-10.1-15.4l-4.6-4.8-11.7.3c-6.5.2-12.2.6-12.9 1m-53.9 1.3c-.2.3-6.3.9-13.4 1.4s-14.1 1.5-15.6 2.1c-2.7 1.3-4.3 3.6-3 4.3.4.3 6.8 0 14.2-.5 11.1-.8 15.2-.6 23.5.8 5.5.9 10.9 2 12 2.4 1.1.5 5 3.8 8.7 7.4s7.2 6.6 7.7 6.6c1.2 0-1-5.8-5.1-13.7-3.1-5.7-3.5-6-18.5-9.3-10.5-2.3-9.8-2.2-10.5-1.5"/>
        <path d="M243 374c-1.4.4-5.1.8-8.2.9s-6 .5-6.3 1.1c-.3.5 0 1 .7 1 6.8.2 15.5 2.2 18.6 4.3 2 1.3 6 2.7 8.7 3.1 2.8.4 7.4 1.8 10.4 3.2 3 1.3 5.6 2.3 5.8 2 .2-.2-2.7-3.2-6.4-6.6-9.8-9-15.9-11.4-23.3-9m-69.5 1.4-4 1.2 3.7 2.2c6.6 4.1 39.7 11.7 41.1 9.5.9-1.5-3-7.1-6.1-8.7-3.2-1.6-23.2-5.6-27.7-5.5-1.6 0-4.8.6-7 1.3m233 .6c.3.5 1.4 1 2.3 1 3.6.1 15.6 6.1 20 10.1 5.3 4.7 16.5 12.9 17 12.4.2-.2-1.1-3.1-2.8-6.4-3.4-6.9-9-13.6-12.9-15.5-3.3-1.7-24.5-3.1-23.6-1.6M225 383.2c-2.5.6-4.7 1.2-4.9 1.4-.6.5 2 6.7 3.7 8.6 1.9 2.2 4.2 2.3 10.1.2 6.1-2.2 12.3-1.3 20.6 3.1l6.4 3.3-2-2.8c-2.6-3.4-14.4-12.5-18.2-13.9-3.4-1.3-9.5-1.3-15.7.1m172 3.1c0 6.5 5.5 10.1 13.8 9 5.9-.8 11 1.4 17.6 7.6l5.9 5.6-2.7-5.1c-4.3-8-12.2-17.1-17-19.3-3-1.5-6.2-2.1-10.9-2.1H397z"/>
    </g>
</svg>
