<svg xmlns="http://www.w3.org/2000/svg" width="682.667" height="682.667" version="1.0" viewBox="0 0 512 512">
    <g fill="#e5e5e5">
        <path d="M343.9 61.9c-1.6 5.4.7 21.2 5.2 35 3.5 11 4.7 12 3 2.5-.6-3.2-1.1-12.9-1.1-21.6 0-16.5-.7-19.8-4-19.8-1.4 0-2.3 1.1-3.1 3.9M430 65c-3.8 4.1-13.2 28-12.8 32.3l.4 3.2 2.1-4.5c2.1-4.6 6.6-10.5 14.7-19.5 5.1-5.5 6-9.9 2.8-12.8-2.6-2.4-4-2.1-7.2 1.3m-20.4 5.3c-.8 1.2-2.2 6.7-3.1 12.1-2.4 14.9-7.1 32.7-12.2 45.8-3.1 8.1-4.3 12.5-3.9 14.2.8 3.3 6.6 8.8 11.6 11.1 3.7 1.7 4.2 1.7 5.7.3 1.3-1.4 1.4-2.5.4-8-1.8-10.2-1.3-19.4 1.3-29.3 5.1-18.8 6.9-34.9 5-44.3-.8-3.9-3-4.8-4.8-1.9"/>
        <path d="M357.1 75.3c-.7.7-1.1 6.7-1.1 17.3 0 21.1-1.3 27.8-8.6 43.5-4.8 10.3-5.8 13.3-5.9 17.9v5.5l3.5.2c4.9.4 14.6-5 18.7-10.5 6.5-8.6 6.7-13.2 1.9-54.2-1.8-15.7-5-23.2-8.5-19.7m81.4 13.4c-10.9 5.8-19.8 16.2-25.4 29.8-3.3 8-3.8 12.6-.6 6.5 5.9-11.6 12.6-19.7 21.4-25.9 5.3-3.8 9-3.9 12.9-.6 1.7 1.4 3.7 2.5 4.5 2.5 3.3 0 3.7-7.5.6-11.4-1.6-2.1-2.9-2.6-6.2-2.6-2.3.1-5.5.8-7.2 1.7"/>
        <path d="M330.2 96.6c-1.3.9-2.2 2.5-2.2 4.2 0 4.6 1.2 5.4 6.3 4.7 4.1-.6 4.8-.4 7.1 1.9 1.3 1.5 3.6 5.6 5.2 9.1 2.9 7 4.7 8.5 3.8 3.2-1.9-10.8-7.2-20.4-12.7-23-4.3-2.1-4.7-2.1-7.5-.1m50.1 25.1c-3.2.3-5.3.9-5.4 1.6 0 .7 0 3.1.1 5.3.1 2.3-.5 6.5-1.4 9.3-1.8 6.1-1.5 6.4 5.9 5.9l4.7-.3 1.7-6.5c.9-3.6 2.6-7.9 3.9-9.7 1.2-1.7 2.2-3.6 2.2-4.1 0-1.2-2.6-2.3-4.8-2-.9.1-4.1.3-6.9.5m52.2.1c-2.2.4-12.9 6.6-15.7 9-1.5 1.2-1.7 3.1-1.5 11.8.1 5.7.6 10.4 1 10.4 2.5 0 5.1-2.9 8.8-10.1 4.8-9.3 7.7-11.8 11.4-10.1 3.4 1.6 3.1 2.7-.7 2.7-3 0-3.5.5-7.3 8-2.3 4.4-6.1 10-8.4 12.4-3.8 3.9-4.2 4.6-3.2 6.7 1.4 3.2 2.9 3 11.1-1.1 9-4.5 16.5-5.5 20.1-2.6 1.5 1.1 2.9 3.2 3.1 4.6.6 3.1.3 3.1-3.5-.1-4.4-3.7-7.1-3.1-21.7 4.7-2.5 1.3-4.7 2.5-4.9 2.6-.2.2.4 2.1 1.4 4.3 1.9 4.3 2.4 4.5 14 5.4 7.6.6 9 1.1 10.4 4.2 1.5 3.4 1.4 5.2-.9 9.9l-1.9 4 .6-5.6c.7-7.7-.6-8.9-10.1-8.9h-7.3l.5 2.9c.2 1.5-.4 4.3-1.3 6-1.5 3-1.5 3.5.4 9.1 1.1 3.2 2.3 8.6 2.7 12.1.6 6.2.5 6.6-4.1 15.4-2.6 4.9-7.4 13.4-10.6 18.7-3.3 5.4-5.9 10.5-5.9 11.5 0 3.5-3.7 8.1-7.7 9.3-9.2 2.9-10.4 6.1-5 12.8 2.5 3.3 11.5 10.2 13.1 10.2.2 0 .6-3.3.9-7.4.9-10.2 3.8-17.3 11.1-26.9 3.4-4.5 7.3-10.9 8.8-14.2 1.4-3.3 5.6-12.5 9.3-20.5 9.8-21.1 10.9-24 15.5-40 5.8-20.1 5.9-21.4 2.3-25.3-4.7-5.1-6.9-8.7-9.6-16.4-5.4-14.8-9.9-20.7-15.2-19.5m-109 3.8c-10.3 1.7-23.7 6.8-28.1 10.7-4 3.4-8.7 11.6-13.9 23.7-2 4.7-5.2 11.9-7.2 16.2-4.2 8.8-4.5 6.8 4.3 25.3 5.7 12.1 8.1 15.2 12.2 16.1 10.1 2.3 10.4 2.4 21.7 13.8 6.2 6.2 14.2 13.8 17.8 16.8 3.7 3 8.2 7.4 10 9.9 4.9 6.3 12.3 21.4 14.3 29.3 1 3.6 2.1 6.6 2.5 6.6 2.3 0 2.6-24.8.4-33.5-1.8-6.8-4.9-11.6-15.4-24-6.4-7.6-7.7-9.8-9.6-16.4-2-6.7-5.5-16.9-6.2-18-.5-.7-10.7 5.1-13.5 7.7-3.3 3.1-3.5 5.3-.7 10.1l2.1 3.6-3.6-3.7c-6.7-7-4.7-11.4 9.3-20.3 8-5.1 9.1-6.1 10.6-10.3.9-2.6 1.8-5.8 1.8-7.2.2-2.2-.1-2.5-3-2.2-3.1.3-21.9-2.4-23.5-3.4-2.2-1.4-14.1-.4-18.2 1.5-3.8 1.6-4.6 2.5-5.1 5.4-.4 2-.4 5 0 6.9l.6 3.3-2-3c-1.2-1.7-2.1-4.4-2.1-6 0-3.7 3-8.8 6.4-11.1 3.8-2.4 17.1-2.9 28.8-1 13.7 2.2 16.6 2.1 21.3-1.1 4.8-3.2 5.4-4 4.8-6.3-.7-2.7-4.2-3.7-11-3.2-5.4.4-6.8.1-10.6-2.2-2.5-1.4-6.4-4.9-8.8-7.7s-6.1-6-8.3-7c-4.1-1.9-4.1-1.9-.8-1.4 1.8.2 4.9 1.8 7 3.5 7.6 6.1 22.3 10.1 24.9 6.7.6-.6 1.3-2.9 1.6-5s2.9-7.7 5.6-12.6c2.8-4.9 5.1-9.1 5.1-9.4 0-1-6.4-2.7-9.9-2.6-2 .1-7.2.7-11.6 1.5"/>
        <path d="M375.1 151.1c-3 .6-5.8 2.2-9.5 5.5-2.8 2.6-6.5 6-8.3 7.6s-4.7 3.4-6.5 4-4.7 2.3-6.5 3.7c-1.7 1.4-4.2 3.3-5.4 4.2-2.1 1.5-2.2 1.8-1 6.1 2.8 9.9 8.6 14.8 17.6 14.8 4.3 0 4.7.2 7.5 4.7 3.2 5 3.7 9 1.9 14.2-1.4 4.1-.2 8.6 4 15.3 2.5 4 3.6 4.8 6 4.8 5.5 0 7.8-1.6 9.5-6.6 2-5.8 2-7.4.2-11.6-.8-1.8-2-4.8-2.7-6.6-.6-1.8-2.4-3.9-3.9-4.7-2.1-1.1-3.1-2.6-4-6.6-1-3.9-2.4-6.3-5.6-9.5-5.4-5.4-6.4-7.3-6.4-11.9 0-3 .9-4.6 5.4-9.3 2.9-3.1 5.9-6.7 6.5-8 .7-1.2 1.6-2 2-1.7.5.2 2.3 4.5 4.1 9.5s3.5 8.9 3.7 8.6c.4-.4-.5-7.3-2.3-17.6l-.6-3.5 3.3 3.1c1.9 1.8 5.4 4.2 7.9 5.4 7.3 3.6 9 5.7 9 10.9-.1 2.5-.7 5.7-1.5 7.1s-1.4 4.7-1.5 7.5c0 3.3-.7 6-2 8-1.1 1.6-2 4.4-2 6.1s-.7 3.7-1.5 4.4c-2.1 1.8-2.1 15.7.1 18.8 1.9 2.7 5.8 4.8 10.6 5.7s5.8-1 5.8-10.8c0-7.2-.2-7.7-3.6-11.8-3.3-3.9-3.6-4.8-3-8.6 1-7.2 2.9-9.7 9.5-12.6 5.7-2.5 6.1-2.9 6.1-6 0-4.7-2.6-12.9-5-16-1.2-1.5-4.7-3.6-8.2-4.8-3.3-1.3-8.8-4.2-12-6.6-5.9-4.4-9.9-6.4-12.1-6.2-.7.1-3.2.5-5.6 1M262 176.3c-2.5 1.7-6.3 5.2-8.5 7.8-6.8 8-15.8 14.7-26.8 19.9-6 2.8-11.4 6.1-12.6 7.6-3.1 4-2.7 8.8 1.8 17.9 2.1 4.4 4.1 8.9 4.5 10 1.7 5.8 5.6 30.9 5.6 36.6 0 11.2 3.5 11.3 14.1.2 10.5-10.9 19-22.7 28.4-39.3 12.2-21.6 11.5-20 8.6-20-1 0-3.5 2-5.5 4.5-6.6 8-9.9 8.2-14.2.9-2.4-4.1-2.6-5.2-2.2-12.2.3-5.2 1.2-9.1 2.6-11.9 1.2-2.3 2.2-5.9 2.2-8 0-2.6 1.2-5.7 3.5-9.7 2-3.2 3.5-6.2 3.3-6.6s-2.3.6-4.8 2.3m201.7 12.2c1.5 8.2 1.3 11.9-1.9 27.3-1 4.4-.9 5.5.4 6.8 2 2.1 4.3.9 6.5-3.4 3.9-7.9 1.1-29.3-4.7-36.4-1.8-2.2-1.8-2.1-.3 5.7"/>
        <path d="M411.3 195.5c-2.3 1.6-5.1 9-3.9 10.2.4.4 1.9.1 3.3-.7 3.1-1.7 4.9-6.3 3.7-9.1-.8-1.8-1.1-1.8-3.1-.4m-74.9.2c-1.5 1.1-3.4 7-3.4 10.4 0 4.6 7.7 17.9 14.5 24.9 3.4 3.6 7.1 8.1 8.3 10 1.1 2 3.2 4.5 4.5 5.8l2.4 2.2 3-5.9 3.1-6-2.5-3.3c-1.3-1.8-4-6.4-5.9-10.1-3-5.8-4.1-7.1-7.8-8.7-4.8-2-7.2-4.8-8.6-10-1.2-4.3-6.1-10.3-7.6-9.3m-68.9 3c-5.5 5.5-8.6 16.6-4.9 18 2.4.9 4.2-1.7 6.3-9.2 1-3.9 2.2-8 2.6-9.3 1-3-.6-2.8-4 .5m85.2 2c-2.5 2.4 1.6 8.3 5.8 8.3 3.2 0 3.2-2-.1-5.9q-3.75-4.5-5.7-2.4m63.8 8.1c-1 2.6-2.2 8.7-2.7 13.7-.4 4.9-1 10.6-1.3 12.5l-.6 3.5 2.5-3c1.4-1.7 4-5.6 5.7-8.9 2.7-5 3-6.5 2.5-10.4-.8-6.1-2.5-12.2-3.4-12.2-.4 0-1.6 2.1-2.7 4.8m-231.8 4.8c-17.7 1.5-36.7 4.6-42.6 7-2.8 1.1-8 6-18.3 17.2-8 8.6-15.5 16.2-16.9 16.9-1.3.7-5.8 2.6-10 4.3-7.9 3.2-12.3 6.3-11.6 8.3 1.1 3.4 17 4.9 23.7 2.3 9.5-3.7 21.1-7.9 26.5-9.6 4-1.3 9.3-4.3 15.5-8.9 5.2-3.9 12.4-8.3 16-9.8 5.9-2.5 7.7-2.8 19.7-2.9 7.3-.1 14.2-.4 15.5-.7 1.3-.4 3.6 0 5.2.8 1.5.8 3.2 1.3 3.6 1 1.1-.7-.2-4.9-3.1-10.5-1.6-3.2-2.3-6.2-2.4-10.5 0-7.2 1.6-6.8-20.8-4.9m264.1 6.1c-.3 5.6-1.2 8.5-5 16.3-4.4 9.1-5 12-2.3 12 1.9 0 4.2-3 7.1-9.4 3.3-7.3 4.7-22.3 2.1-24.4-1.3-1.1-1.5-.4-1.9 5.5m-164.3 8.9c-1.5 2-4.2 6.6-6 10.3-1.8 3.6-5.7 9.4-8.7 12.8-2.9 3.4-8.7 10.1-12.8 15-4.1 4.8-10.2 11.8-13.7 15.5-3.5 3.6-6.3 7.1-6.3 7.7s-2.5 2.7-5.5 4.6c-6.1 3.9-10.2 9.6-15.9 21.9-1.9 4.2-4.4 8.9-5.5 10.5-1.2 1.6-2.1 3.5-2.1 4.3 0 1.6 5 6.5 9.2 9.1 1.5 1 3.8 3.5 5 5.7 2.5 4.4 6.9 6.5 11.9 5.8 4.6-.7 13.6 1 18.2 3.4 2.3 1.1 7.2 3.1 11 4.4 3.7 1.3 8 3.2 9.6 4.3 6.8 4.9 29.4 11.1 51.6 14.2 10.6 1.4 27.1 8.3 36.9 15.3 7.8 5.5 14.3 8.8 15.1 7.7.3-.6.4-4.5.3-8.8s.3-8.7.9-9.8c.9-1.6 1.2-1 1.8 4 .4 3.9 2.1 8.9 4.7 14.3l4 8.2-.7 10.3c-.9 12.6-.4 13.2 8.2 12.1 10.6-1.5 13.6-.7 24.6 6.8 6.4 4.3 8.2 4.2 7.3-.6-.4-1.7-1.1-5.4-1.5-8.1-1.1-6-2.6-10.1-4.1-11-1.6-1-.2-2.4 2-1.8 5.4 1.4 5.8-2.2 1-7.6-2-2.1-2.4-3.1-1.4-3.1.8 0 2.5 1.1 3.7 2.6 1.2 1.4 5.2 5.5 8.9 9.2s8.4 8.9 10.4 11.7c4.8 6.5 7.4 8.9 8.4 7.9 1.6-1.8 3.1-8.3 2.4-11-.3-1.6-1.7-4.7-3-7-1.2-2.2-2.8-7.2-3.5-11-.6-3.8-1.7-8.4-2.5-10.2-1.3-3.2-1.3-3.2 1.4-2.6 4.4 1.1 7 2.2 7.7 3.3 1.5 2.5 2.4.8 1-1.9-4-7.7-11.7-12.9-21.7-14.5-2.4-.4-8.3-3.6-15.6-8.5-12.2-8.2-14.7-10.8-22.7-24.3-4.4-7.5-7.6-9.3-18.2-10.1-9.7-.7-18.2-3.3-25.4-7.8-2.6-1.5-7.2-3.7-10.3-4.8-9.1-3.1-18.6-9-26.3-16.2-4-3.8-8.2-7.2-9.5-7.7-3.9-1.4-12.9.5-22.1 4.8-9.5 4.4-16.6 5.3-22.4 3-2.7-1.1-2.5-1.3 4.3-2.5 6.6-1.1 13.6-4.2 27.4-11.9 5.6-3.1 6-3.1 14.2.4 4.9 2.1 8.4 4.6 12.8 9 3.3 3.4 6.6 6.1 7.3 6.1 1.5 0 12-10.5 13.6-13.6.6-1.3.8-4.3.4-7.3-.7-5.8-1.8-6.3-7.7-3.4-4.8 2.2-7.7.8-10.7-5.4-2.1-4.3-2.4-6.2-2.4-17 0-12.1 0-12.2-2.9-15.2-1.6-1.7-5-3.8-7.5-4.7-4.8-1.7-6.3-3.1-15-13.8-6.5-8-9.3-8.7-13.6-3m103.5 2c-.6 1.6-1.2 3.4-1.4 4-.3.6-2.5 2.1-4.9 3.3-8.1 3.9-8.3 6.1-.8 10.2 2 1 4.8 2.9 6.3 4.1 2.5 1.9 3 2 5.3.8 1.4-.7 2.5-2 2.5-2.7 0-.8 1.8-3.2 4-5.4 4.3-4.3 5-6.6 2.3-7.5-5.8-1.9-7.7-3.1-9.8-6.2l-2.4-3.5zm4.8 10.5c-1.7 1.3-2.8 1.5-5 .7l-2.9-1 2.6-2.8 2.6-2.7 2.4 2.1 2.4 2.1zm7.2-1.1c0 .5-1.6 2-3.5 3.2-1.9 1.3-4 3.3-4.6 4.6-1.1 1.9-1.4 2-2.1.7-.5-.8-2.9-2-5.4-2.6-4.4-1.1-6.2-2.4-5-3.6.3-.4 3 .6 5.8 2l5.2 2.7 4.1-4c4-4 5.5-4.8 5.5-3m6 1.2c-.7 1.3-4.1 5.3-7.7 8.9-5.5 5.6-6.2 6.7-4.9 7.8 1.9 1.6 7.8-.2 11.4-3.4 3.3-2.8 6.4-9.1 6-12.3-.4-3.5-3.3-4.1-4.8-1m-38 5.8c-2.1 7.9 1.7 15 8 15 5.1 0 14-2.8 14-4.4 0-.8-2.5-2.6-5.6-4.1-3-1.5-7.1-4.5-9.1-6.6s-4.2-3.9-4.9-3.9-1.8 1.8-2.4 4"/>
        <path d="M169.1 246.4c-4.6 1.6-9.1 5.1-9.1 7.3 0 1.8 2.9 2.9 12.4 4.8 4.3.8 9.3 2.4 11.1 3.5 6.8 4.2 19.6 20 21.3 26.2.6 2.1.8 9 .5 15.5l-.5 11.8 2-2.4c1.1-1.4 2.3-4.7 2.6-7.3.4-2.7 2.3-8 4.3-11.8 3.5-6.8 3.6-7 2.5-12.6-.7-3.2-1.2-7.5-1.2-9.6 0-7.2-3-17.8-6-21.1-2.4-2.7-3.7-3.2-9.6-3.9-16.1-1.7-25.9-1.8-30.3-.4m164.5 17c-.7 7.4.2 11.6 2.5 11.6 1.8 0 2.1-3 1.1-10.2-1.5-9.9-2.8-10.4-3.6-1.4m63.3-3.4c-.9.5-5.2 1.5-9.5 2.1-4.4.6-8.2 1.5-8.7 1.8-1.2 1.1 3.2 5.1 5.5 5.1 3.9 0 15.3-3.2 17.1-4.8 2.5-2.2 2.2-5.2-.5-5.2-1.3 0-3 .5-3.9 1"/>
        <path d="M139.1 263.6c-9.7 2.8-19 6.8-27.6 11.6C101.4 280.9 94 294 94 306.1c0 6.3 1.2 9.9 3.3 9.9.7 0 3.9-2 7.2-4.5 9.2-6.9 17.7-9.1 25.4-6.4 3.2 1.1 4.2 2.9 1.6 2.9-.9 0-7.3 2.3-14.3 5-11.7 4.6-13.3 5.5-18.7 11.1-9.2 9.3-10.5 9.8-28 9.8-11.1 0-15.3.4-17 1.5-5.4 3.6-12.3 25.3-9.7 31 .6 1.4 4.4 4.8 8.4 7.6 10 7 15.4 14.6 19.3 27.2 3.1 10.1 7 11.1 15 3.7 2.8-2.6 4.5-3.5 4.8-2.7.6 1.9-2.8 8.2-6.3 11.4-6.6 6-5.9 10.1 2.4 14.5 4 2.1 4.8 2.2 5.6.9.5-.8 1-2.6 1-3.9 0-1.9 5.6-13.6 7.6-16 .9-1 10.8 4.6 13.4 7.6 1.6 1.8 3.6 3.3 4.3 3.3 1.5 0 4.7-7.2 4.7-10.7 0-1.1-.6-3.9-1.4-6.1l-1.5-4.1 2.7 1c4.8 1.9 9.6 5.1 14.9 10.2 4 3.8 5.6 4.8 7 4.2 1-.5 2.3-.9 2.8-.9 2.5-.2.5-3.4-4.8-7.4-7-5.3-11-10-15.7-18.3-2.7-4.9-5.4-7.8-11-12.1-14.4-11.1-19.6-14.5-27.3-17.8-7.4-3.2-11.7-6.3-10.4-7.6 1.1-1.1 6.5.7 12.2 4.2 6.1 3.6 10.2 4.2 16.5 2.4 1.9-.6 10.7-2.2 19.5-3.5 24.9-3.9 43.1-8.3 51.8-12.7 4.8-2.4 8.8-8.6 12.4-19.2 5-14.7 3.4-26.6-5.8-41.8-5.5-9-10.1-12.8-19.6-16.1-9.7-3.4-16-3.4-27.2-.1m230.4 10.6c-.2.7-.8 4.7-1.4 8.8-2 14.8-6.5 25-10.9 25-.9 0-3-.9-4.6-1.9-2.6-1.8-3.2-1.8-5.7-.6-3.7 2-8.1 7.4-7.7 9.7.2 1.3 4.3 3.7 14.3 8.4 15 7.1 19.5 8 29.5 5.8 4.8-1 5.5-2.1 8-12.2.6-2.3 1.5-4.2 2-4.2.4 0 2.2 1.8 3.8 4 2.1 2.9 3.1 5.7 3.6 10 .7 5.8.8 6 3.5 6 4.2 0 5.1 1.6 4 7.8-.6 2.9-.9 7-.7 9 .3 3.5.7 3.9 7.8 7.4 4.1 2 7.8 3.7 8.3 3.7.4.1 1.7-1.4 2.8-3.2 2.1-3.4 2.1-2.6.4-22.2l-.6-6 3.2 6c1.7 3.3 5.5 8.9 8.4 12.3 5.7 6.9 8 12.7 9.1 22.9.6 6.1.8 6.3 3.4 6.3 2.7 0 2.9-.4 4.3-7.3.8-3.9 2-10.7 2.6-14.9 1-7 .9-8.3-1-12.9-1.1-2.9-2.6-6.1-3.4-7.3-1.7-2.3-2-4-.5-3.1.5.3 3.2 3.7 6.1 7.5 2.8 3.9 5.6 7 6 7 1.9 0 .7-5-2.6-11.1-2-3.5-4.6-8.7-5.9-11.4-2.4-5-14.2-19.7-24.6-30.8-3.9-4-6.3-5.8-8.3-6-2.6-.2-3 .3-5.9 7.6-1.7 4.3-3.9 8.2-4.9 8.8-2.5 1.3-7.6-1.4-18-9.4-4.5-3.4-9.6-7.2-11.4-8.4-1.7-1.2-4.6-4.4-6.4-7.2-3.2-4.9-5.7-6.4-6.6-3.9"/>
        <path d="M80.2 274.9c-1.5.4-3.1 2.3-4.7 5.8-1.3 2.9-2.9 5.3-3.4 5.3-1.7 0-4.2 4.6-3.5 6.4 1.1 2.9 5.9 4.6 12.8 4.6 7.6 0 11.1-2.2 14.5-9.3 2.9-6 2.8-10.5-.3-11.6-3.1-1.2-12.5-1.9-15.4-1.2m-25 35.1c-13.8 14-25.8 35.4-23.7 42 1.2 3.9 3.3 1.9 7.9-7.8 5.2-10.6 8.2-14.4 13.8-17.3 3.1-1.6 5.6-1.8 16.8-1.6l13.2.2 2.4-3c1.3-1.7 2.7-4.5 3-6.3.7-3.7-.9-10.4-2.9-12-.6-.5-6.1-1.1-12.2-1.3l-11-.4zm337.4 8.8c-.3.4-.8 3.1-1.2 6-.5 3.9-.3 5.7.9 7.5 3.8 5.9 8.6 8.1 6.7 3.1-.6-1.4-1-4.1-1-6 0-5.6-3.8-13.1-5.4-10.6m-202.1 21.3c-4.3 4.3-8.6 6.9-15 8.8-7 2.2-7.2 2.3-4.2 3.2 5 1.4 34.6-2.6 37-5 .5-.5.6-1.5.2-2.1-.8-1.3-12.4-9-13.5-9-.3 0-2.4 1.8-4.5 4.1m240.8 18.5c-2.1 8.1-2.2 8.7-.6 12.7 2.2 5.8 3.2 6.8 6.2 6.5 2.2-.3 2.7-1 3.9-5.8.7-3 1-7.5.7-10-.5-4.5-4.8-12-6.9-12-.6 0-2.1 3.8-3.3 8.6m30-4.9c-.9 2.1-1.9 7.3-2.1 11.6-.4 7.7-.3 8 3.1 13 2 2.9 4.1 6.4 4.8 7.9.7 1.6 1.6 2.8 2 2.8.9 0 3.5-11.2 4.4-19.3.6-4.3.3-6.9-1-10.2-1.5-4.2-6.4-9.5-8.6-9.5-.6 0-1.7 1.7-2.6 3.7M146 356.2c-3 1.1-9.3 2.6-13.9 3.4-13.3 2.2-16.8 5.8-8.6 9 3.4 1.2 4.7 2.4 5.2 4.3 2.2 9.4 9 16 18.7 18.5 3.8.9 8.7 2.6 10.9 3.8 2.7 1.3 6.6 2.2 11.2 2.4 4.8.3 8.6 1.2 12.1 2.9 6.4 3.1 6.8 3.1 8.3-.2 1.7-3.7-.5-5.6-6.6-6-2.7-.1-5-.2-5.3-.3-1.5-.2 3.7-3 5.7-3 1.3 0 2.3-.4 2.3-1 0-1.8-4-3-10.4-3-6.5 0-9.4-1.3-5.6-2.5 3.1-1 3.7-5.3 1.2-9.8l-2.1-3.8 2.8-3.1c2.4-2.7 3.4-3.1 9.9-3.6 4.8-.3 7.2-.9 7.2-1.7 0-1.7-2.3-2.5-6.8-2.5-3.5 0-5.4-.5-16.3-4.1-7-2.4-12.9-2.3-19.9.3"/>
        <path d="M178 367.7q-3 1.2-3 4.8c0 3 6.9 12.5 9.1 12.5 4.8 0 5-10.2.3-15.1-2.8-2.9-3.7-3.2-6.4-2.2m15.4 4.1c-.6.4-1.4 3.5-1.7 6.9l-.5 6.2 8.3 7.6c7.6 6.9 8.3 7.3 8.9 5.2 1-3.9.6-16.1-.7-18.7-1.9-3.7-11.9-8.8-14.3-7.2m1.1 27.3c-.8 2.5 0 3.5 3.8 4.4 2.7.7 3.2.1 2.7-3.5-.5-3.4-5.5-4.1-6.5-.9m262.2 9.6c.9 10.8 2.1 12.8 9.3 15.4 3.4 1.2 8.2 3.8 10.7 5.7l4.6 3.5-.7-4.2c-.3-2.3-1.8-7.1-3.2-10.7-2.8-7-6.7-10.9-14.1-14.4-7-3.3-7.3-3-6.6 4.7M129 413c0 2.2-1.1 6.7-2.5 10s-2.5 6.7-2.5 7.6c0 2.2 8.2 15.4 9.7 15.4 2.2 0 5.7-13 5.8-21.2 0-7.6 0-7.7-4-11.7-5-5.2-6.5-5.3-6.5-.1m19 4.5c-2.2 5.9-1.3 10.2 4 17.7 2.8 3.9 5 7.8 5 8.5 0 .8.6 1.3 1.3 1 .8-.3 1.2-3 1.2-8.9 0-7.7-.3-8.9-3-13.3-1.6-2.6-4-5.4-5.2-6.3-2.1-1.3-2.3-1.2-3.3 1.3m-44.5 2.5c-1.2 1.3-1.8 3.6-1.8 6.6 0 4.5.2 4.9 7.4 11.5 4 3.8 7.8 6.9 8.3 6.9 1.3 0-.1-12.6-2-18.3-1.6-4.8-5.4-8.7-8.4-8.7-.9 0-2.5.9-3.5 2m326.5 5.4c0 1.3.9 3.5 2 4.9 1.6 2 3.7 9.7 4 14.3 0 0 1.8.6 4 1.3s6.7 2.8 9.9 4.6c7 4.1 8.5 4.4 7.5 1.2-2.2-7.2-10.7-18.5-18.5-24.7-5.9-4.6-8.9-5.2-8.9-1.6m32.1 6.3c-1.7 6.1-1.4 9.1 1.2 10.4 1.2.7 3.8 2.5 5.7 4.1 3.1 2.5 3.5 2.6 4.1 1 .4-.9.4-4.1.1-7-.4-4.5-1-5.7-4.3-8.7-2.2-1.9-4.3-3.5-4.9-3.5-.5 0-1.4 1.7-1.9 3.7"/>
    </g>
</svg>
