<svg xmlns="http://www.w3.org/2000/svg" width="341.333" height="341.333" version="1.0" viewBox="0 0 256 256">
    <path fill="#e5e5e5" d="M102.7 5.8c-3.8 2.3-3.5 7.6.6 10 2.5 1.6 2.9 1.6 5.5 0 1.9-1.2 2.8-2.6 3-5 .2-2.8-.2-3.6-2.7-5.1-3.4-2-2.8-2-6.4.1m14.1 9-9.8 5.6V44l4 2c4.9 2.5 5.1 2.5 9.6-.2l3.6-2.1-5.1-3.1-5.1-3.1v-11l6.6-3.7 6.6-3.8 6.4 3.6 6.4 3.6v11.7l-6.7 3.9c-3.8 2.1-11.2 6.3-16.5 9.3l-9.8 5.4v23l10.2 5.8 10.1 5.7 9.8-5.6 9.9-5.6V56.2l-3.7-2.2-3.7-2.2-4.4 2.1c-2.4 1.2-4.1 2.5-3.8 3 .4.5 3.1 2.3 6.1 4l5.6 3.2-.3 7-.3 7.1-7.6 4.4-7.6 4.4-8.2-4.6-8.1-4.6V64.4l18-10.3 18-10.3V20.2l-9.6-5.6c-5.3-3.1-9.9-5.6-10.3-5.5-.3 0-5 2.6-10.3 5.7m90.3 13.3c-2.4 1.4-3.1 2.6-3.1 4.9s.7 3.5 3.1 4.9c2.9 1.8 3.3 1.8 6 .2 2.3-1.3 2.9-2.3 2.9-5.1s-.6-3.8-2.9-5.1c-2.7-1.6-3.1-1.6-6 .2M44.5 42.7c-3.3 1.9-7.7 4.6-9.7 5.9L31 51v22.6l9.8 5.7C46.3 82.4 51 85 51.3 85s8.3-4.5 17.8-10c9.4-5.5 17.7-10 18.3-10s3.5 1.4 6.4 3l5.2 3v18.6l-8.1 4.7-8 4.7-5.7-3.3-5.7-3.3-.3-7.7-.3-7.6-4.4 2.7C62.2 82.3 62 82.7 62 87v4.5l9.9 5.7c5.5 3.2 10.2 5.8 10.6 5.8.3 0 4.9-2.5 10.1-5.6l9.4-5.5V68.2l-9.7-5.5-9.7-5.6-5.3 3-5.2 3-.3-6.3-.3-6.2-10-5.8C56 41.6 51.3 39.1 51 39.1s-3.2 1.6-6.5 3.6m148.3 2.1-9.8 5.6v6.3c0 3.5-.2 6.3-.5 6.3-.2 0-2.7-1.3-5.5-3l-5.1-3-9.9 5.7-10 5.7v23.5l10 5.6 9.9 5.7 10.1-5.7 10-5.7V87c0-4.4-.3-5-3.6-6.9-1.9-1.2-3.9-2.1-4.5-2.1-.5 0-.9 3.3-.9 7.3v7.2l-5.8 3.2-5.8 3.2-8-4.7-7.9-4.7-.3-9.2-.3-9.1 5.4-3.1c3-1.7 6-3.1 6.6-3.1s9 4.5 18.6 10.1L203 85.2l10-5.7 10-5.6V50.5l-9.9-5.8c-5.4-3.1-10-5.7-10.2-5.6-.2 0-4.8 2.6-10.1 5.7m-102-1C88.4 45.3 88 46.2 88 50c0 4.1.3 4.7 3.3 6.3 3.2 1.8 3.5 1.8 7 .1s3.7-2.1 3.7-6.4-.2-4.7-3.5-6.3c-4.2-2-4.2-2-7.7.1m64.5.3c-2.8 1.8-3.3 2.7-3.3 5.9 0 3.3.5 4.1 3.7 6.1 3.6 2.3 3.6 2.3 7.2.3 3.1-1.7 3.6-2.4 3.9-6.1.3-3.9 0-4.4-3-6.3-4.1-2.5-4.5-2.5-8.5.1M19.7 64.8C17.6 66.1 17 67.2 17 70s.6 3.8 2.9 5.1c2.6 1.5 3 1.5 5.5 0 2.1-1.2 2.6-2.3 2.6-5.3 0-3.1-.5-4-2.8-5.2-2.5-1.3-3.1-1.2-5.5.2M50.3 93c-2.9 1.7-3.3 2.5-3.3 6.3s.3 4.4 3.6 6.2c3.4 1.8 3.6 1.8 7 0 3.1-1.7 3.4-2.2 3.4-6.5s-.2-4.7-3.5-6.3c-4.3-2-3.4-2.1-7.2.3m147 0c-2.9 1.7-3.3 2.5-3.3 6.3 0 4 .3 4.6 3.5 6.3 3.4 1.8 3.6 1.8 7 0 3.2-1.8 3.5-2.3 3.5-6.6s-.2-4.7-3.5-6.3c-4.3-2-3.4-2.1-7.2.3M113 103.8l-13.5 7.8v32.8l13.5 7.8c7.4 4.3 13.9 7.8 14.3 7.8s6.8-3.5 14.2-7.8l13.5-7.7v-33l-13.4-7.8c-7.4-4.2-13.9-7.7-14.3-7.7-.5 0-6.9 3.5-14.3 7.8m122.1 1c-.9 2.2-.9 3.5 0 5.5 1 2.2 1.9 2.7 5 2.7 3.3 0 4.1-.5 5.4-3 1.4-2.7 1.4-3.2-.1-5.5-1.3-1.9-2.5-2.5-5.4-2.5-3.2 0-3.9.4-4.9 2.8M18.5 118l-5.7 10.1 5.7 9.9 5.6 10h23.5l10.3-18 10.3-18h13.6l4.6 8 4.7 8-4.7 8-4.6 8H68.1l-3.3-5.6c-1.8-3.1-3.7-5.7-4.1-5.8s-1.8 1.6-2.9 3.6l-2.2 3.8 2.1 3.7 2.2 3.8 11.8.3 11.8.3 5.8-10 5.8-10-5.8-10.1-5.8-10h-23l-6.9 12.3c-3.8 6.7-8.1 14.1-9.4 16.4-2.4 4.3-2.4 4.3-8.1 4.3h-5.7l-3.7-6.5-3.8-6.5 3.8-6.5 3.7-6.5h5.8c5.6 0 5.8.1 7.7 3.7 3.8 7.1 3.7 7.1 6.2 2l2.3-4.7-2.1-3.7-2.2-3.8-11.9-.3-12-.3zm147.2 0-5.8 10.1 5.7 9.9 5.6 10H195l2.1-4.3 2.1-4.3-2.2-3.7c-1.2-2-2.5-3.7-2.8-3.7-.4 0-2.2 2.7-4 6l-3.3 6h-13.7l-4.6-8-4.7-8 4.7-8 4.6-8h13.6l7.5 13.2c4.1 7.3 8.7 15.4 10.3 18l2.9 4.8h23.3l5.7-10 5.6-10-5.6-10-5.7-10h-23.6l-2.4 4.1-2.5 4.2 2.5 4.4c2.7 4.8 2.7 4.8 6.3-2 1.9-3.6 2.1-3.7 7.7-3.7h5.8l3.7 6.5 3.8 6.5-3.8 6.5-3.7 6.5h-5.7c-6.6 0-4.7 2.2-17-19.7l-7.4-13.3h-23.1zM9.6 145.7c-1.2 2.4-1.2 3.1.2 6 1 2.1 2.1 3.2 3 2.8.7-.3 2.4-.5 3.7-.5 3.4 0 5.3-5.1 3.1-8.5-2.4-3.6-8-3.5-10 .2m40.2 5.1c-2.3 1.4-2.8 2.4-2.8 5.9 0 3.7.4 4.4 3.5 6.3 3.5 2.2 3.6 2.2 6.8.3 2.8-1.7 3.2-2.5 3.5-6.5.3-4.3.1-4.8-2.7-6.2-3.8-2-4.9-2-8.3.2m146.9 0c-2.5 1.5-2.7 2.2-2.5 6.2.3 3.8.8 4.7 3.6 6.3 3.1 1.8 3.3 1.8 6.5 0 2.7-1.6 3.2-2.5 3.5-6.4.3-4 0-4.6-2.7-6.2-3.6-2.1-4.9-2.1-8.4.1m-124.9 8-9.8 5.7v4.5c0 4.3.2 4.7 4.5 7.2l4.4 2.7.3-7.6.3-7.7 5.7-3.3 5.7-3.3 8 4.7 8.1 4.7V185l-5.2 3c-2.9 1.6-5.8 3-6.4 3s-8.9-4.5-18.3-10c-9.5-5.5-17.5-10-17.8-10s-5 2.6-10.5 5.7l-9.8 5.7v11.2c0 7.7.4 11.5 1.3 12.2.6.6 5.2 3.3 10.1 6.1l8.8 5.1 10.2-5.8 10.1-5.8.3-6.2.3-6.3 5.2 3 5.3 3 9.7-5.6 9.7-5.5v-23.7l-9.4-5.5c-5.2-3.1-9.9-5.6-10.3-5.6-.4.1-5.2 2.7-10.5 5.8m90-.2-9.8 5.5v23.5l10 5.7 9.9 5.7 5.1-3c2.8-1.7 5.3-3 5.5-3 .3 0 .5 2.8.5 6.3v6.3l10.1 5.7 10 5.8 10-5.8 9.9-5.8v-23.4l-10-5.6-10-5.7-17.5 10.1c-9.6 5.6-18 10.1-18.6 10.1s-3.6-1.4-6.6-3.1l-5.4-3.1.3-9.1.3-9.2 7.9-4.7 8-4.7 5.8 3.2 5.8 3.2v7.2c0 4 .4 7.3.9 7.3.6 0 2.6-.9 4.5-2.1 3.3-1.9 3.6-2.5 3.6-6.9v-4.8l-9.9-5.6c-5.4-3.1-10.1-5.6-10.3-5.6-.1 0-4.7 2.5-10 5.6m-45 12.2-9.8 5.7v23l9.8 5.4c5.3 3 12.7 7.2 16.5 9.3l6.7 3.9v11.7l-6.4 3.6-6.4 3.6-6.6-3.8-6.6-3.7v-11l5.1-3.1 5.1-3.1-3.6-2.1c-4.5-2.7-4.7-2.7-9.6-.2l-4 2v23.6l10.1 5.7c5.5 3.2 10.4 5.7 10.8 5.5.3-.2 4.8-2.7 9.9-5.6l9.2-5.4v-23.6l-18-10.3-18-10.3v-13.4l8.1-4.6 8.2-4.6 7.6 4.4 7.6 4.4.3 7.1.3 7-5.6 3.2c-3 1.7-5.7 3.5-6.1 4-.3.5 1.4 1.8 3.8 3l4.4 2.1 3.7-2.2 3.7-2.2v-23.6l-9.8-5.6c-5.4-3.1-10-5.6-10.3-5.5-.2 0-4.8 2.6-10.1 5.7m111.4 10.8c-3.4 2.4-3 7.5.8 9.7 2.9 1.8 3.1 1.8 6-.3 3.9-2.7 4.1-7 .5-9.4-3-2-4.5-2-7.3 0M90.8 199.8c-2.4 1.5-2.8 2.4-2.8 6.2 0 4.1.3 4.7 3.3 6.3 3.2 1.8 3.5 1.8 7 .1s3.7-2.1 3.7-6.4-.2-4.7-3.5-6.3c-4.2-2-4.2-2-7.7.1m64.5.3c-2.8 1.8-3.3 2.7-3.3 5.9 0 3.3.5 4.1 3.7 6.1 3.6 2.3 3.6 2.3 7.2.3 3.1-1.7 3.6-2.4 3.9-6.1.3-3.9 0-4.4-3-6.3-4.1-2.5-4.5-2.5-8.5.1M41.8 218.8c-3.8 2.3-3.9 7.4-.2 9.8 2.3 1.6 2.8 1.6 6 .1 4.5-2.2 4.8-6.6.5-9.6-3.4-2.5-2.9-2.5-6.3-.3m102.5 21.9c-1.6 1.1-2.3 2.6-2.3 4.9 0 2.7.6 3.6 3.1 5 3 1.5 3.3 1.5 5.8-.4 1.6-1.2 2.7-3.1 2.9-5 .3-2.6-.2-3.3-2.7-4.6-3.6-1.9-4-1.9-6.8.1"/>
</svg>
