<svg xmlns="http://www.w3.org/2000/svg" width="341.333" height="341.333" version="1.0" viewBox="0 0 256 256">
    <g fill="#e5e5e5">
        <path d="M128 5.9v3.9L90.3 31.6c-20.8 12-39 22.6-40.6 23.6L47 57.1l.2 75.5.3 75.5 6 3.4c3.3 1.8 21.3 12.1 40 22.9l34 19.7.3-4 .3-4 37.7-21.7c20.7-12 38.9-22.6 40.5-23.6l2.7-1.9-.2-75.5-.3-75.5-5.3-3c-2.9-1.6-20-11.4-38-21.8-18-10.3-33.7-19.3-34.9-20-2.2-1.1-2.3-1-2.3 2.8m42 28.2 30.5 17.6.3 72.1.2 72-36.2 20.9-36.3 21-.5 4.1-.5 4.1-36-20.8-36-20.8-.3-72-.2-72.1 36.2-20.9 36.3-21 .3-4.2.3-4.2 5.7 3.3c3.1 1.8 19.4 11.2 36.2 20.9"/>
        <path d="M115 39.4c-6.9 4.1-21 12.3-31.5 18.3l-19 11-.3 49.4-.2 49.4 3.2 1.9c1.8 1 14.3 8.1 27.8 15.8s26.3 15.1 28.6 16.3l4 2.4 14-8.3c7.6-4.6 18.9-11.2 24.9-14.7l11-6.5V97.5L159 86.8c-10.2-5.9-20.5-11.9-22.9-13.3l-4.4-2.6 3.1-2c2.5-1.4 3.2-2.6 3.2-4.9 0-1.6.3-3 .8-3 .4 0 11.5 6.3 24.7 13.9l24 13.8.3 47.4.2 47.5-5.7 3.3c-3.2 1.9-15.2 8.7-26.6 15.3l-20.8 11.9-3.4-2.6c-3.1-2.5-3.5-2.5-5.7-1.1-2.3 1.5-3.3 1-30.4-14.6-15.3-8.8-28.7-16.3-29.7-16.6-1.6-.4-1.8.1-1.5 3.3l.3 3.7 31 17.9c17.1 9.8 31.7 17.9 32.5 17.9.9 0 2.5-.7 3.7-1.5s6.5-4 12-7.1c34.8-19.9 45-25.9 46.6-27.2 1.6-1.4 1.7-5.1 1.7-50.3V87.2l-17.7-10.3c-9.8-5.6-24.2-14-32-18.5l-14.2-8.2-7.8 4.7c-4.3 2.6-15.6 9.1-25 14.6L78 79.4v77.2l22.5 13c12.4 7.1 22.5 13.2 22.5 13.5s-1.1 1.2-2.4 1.9c-1.9 1-2.6 2.2-2.8 5.1l-.3 3.9L96 181.6c-11.8-6.8-23-13.2-24.7-14.2l-3.3-1.9V71.1l9.3-5.5c32.2-18.9 44.2-25.4 44.9-24.2 1.3 2.2 6.7 4.1 8.1 2.7.6-.6 1.6-1.1 2.3-1.1.6 0 13.9 7.4 29.5 16.4l28.4 16.4.3-3.5c.2-2.1-.2-4.1-1-4.8C188.1 66 129 32 128.2 32.1c-.4 0-6.3 3.3-13.2 7.3m3 24.8c0 3.3.4 3.5 28 19.3l27.9 16 .1 36.5v36.5l-17.5 10c-9.5 5.5-17.7 9.9-18.2 9.7-.4-.1-.8-1.4-.8-2.9 0-2.4-2.4-4-27.4-18.4-15.1-8.7-27.8-16.2-28.3-16.7s-.5-17.1-.2-37l.7-36.1 17.1-9.9c9.4-5.5 17.4-10.1 17.9-10.1.4-.1.7 1.4.7 3.1"/>
        <path d="M112.3 88.6c-4.3 2.5-4.3 2.6-4.3 8.3v5.8l5 2.7 5 2.7 4.8-2.9c4.6-2.8 4.7-3 5-8.4l.3-5.6-4.7-2.6c-5.7-3.2-5.9-3.2-11.1 0m31 6c-4.2 2.6-4.3 2.7-4.3 8.3v5.6l5 2.8 5 2.8 5-2.8 5-2.8v-5.7c0-5.6 0-5.6-4.4-8.2-5.4-3.2-6-3.2-11.3 0m-25.6 15.2-9.8 5.7.3 11.4.3 11.5 9.8 5.8 9.8 5.8 10-5.7 9.9-5.7v-23.4l-9.8-5.6c-5.4-3.1-10-5.6-10.3-5.5-.2 0-4.8 2.6-10.2 5.7m17.2 5.7 6.1 3.6v15.7l-6.5 3.7-6.5 3.6-6.5-3.8-6.5-3.7v-15.5l6.3-3.5c3.4-2 6.5-3.6 6.9-3.6s3.4 1.6 6.7 3.5"/>
        <path d="M123.3 118.6c-4.2 2.6-4.3 2.7-4.3 8.3v5.6l4.5 2.5 4.5 2.5 4.5-2.4 4.5-2.4v-5.8c0-5.8 0-5.8-4.3-8.4-2.4-1.4-4.6-2.5-4.8-2.5-.2.1-2.3 1.2-4.6 2.6m-32-5.9c-4.3 2.4-4.3 2.5-4.3 8.2v5.8l5 2.7 5 2.7 5-2.7 5-2.7v-5.8c0-5.7 0-5.7-4.4-8.3-5.3-3.1-5.9-3.1-11.3.1m63.2 11.6-4 2.3v12.5l4.5 2.6 4.5 2.5 4.8-2.7 4.7-2.7V133c0-5.9 0-5.9-4.3-8.5-5.3-3-5.2-3-10.2-.2m-52.2 18.3c-4.3 2.5-4.3 2.5-4.3 8.4v5.9l4.6 2.7 4.7 2.8 4.6-2.6c4.6-2.6 4.6-2.7 4.9-8.6l.3-6-4.5-2.6c-2.4-1.4-4.8-2.6-5.3-2.6-.4 0-2.7 1.2-5 2.6m30.9 6.1-4.3 2.6.3 5.9c.3 5.9.3 6 4.9 8.6l4.6 2.6 4.7-2.8 4.6-2.7v-11.8l-4.3-2.6c-2.4-1.4-4.8-2.5-5.3-2.5-.5.1-2.8 1.2-5.2 2.7"/>
    </g>
</svg>
