<svg xmlns="http://www.w3.org/2000/svg" width="341.333" height="341.333" version="1.0" viewBox="0 0 256 256">
    <g fill="#e5e5e5">
        <path d="m64.2 10.1-3.9 7.1 2.4 4.4c2 3.6 3 4.4 5.4 4.4 1.6 0 2.9.3 2.9.7s-2.2 4.7-5 9.5c-2.7 4.8-5 9.4-5 10 0 .7 2.5 5.5 5.5 10.7 3.1 5.2 5.3 9.6 5.1 9.8-.2.3-3.2-1.1-6.6-3.1-3.3-2-6.4-3.6-6.7-3.6s-4.7 2.5-9.8 5.5c-5.2 3-9.6 5.5-9.9 5.5s-.6-1-.6-2.3c0-1.6-1.3-2.9-4.6-4.8l-4.7-2.6-6.8 3.9-6.9 4v15.7l4.6 2.7c4.5 2.6 4.7 2.7 7.5 1l3-1.8-.3 11.8-.3 11.8-5.5 3.1-5.5 3.1-.3 11.6-.3 11.6 6.1 3.3 6 3.2v22.8l-2.9-1.7c-2.8-1.7-3-1.6-7.5 1l-4.6 2.7v15.7l6.9 4 6.8 3.9 4.7-2.6c2.7-1.5 4.6-3.3 4.6-4.4 0-.9.3-1.7.8-1.7.4 0 5 2.5 10.2 5.5l9.5 5.4 3-1.8c1.6-1 4.7-2.8 6.8-4 2-1.3 3.7-2 3.7-1.6 0 .3-2.6 5.2-5.8 10.9l-5.8 10.2 5.3 9.2c2.9 5.1 5.3 9.5 5.3 9.8 0 .2-1.2.3-2.7.2-2.2-.3-3.1.5-5.3 4.3l-2.8 4.6 4 7.2 4 7.1h15.6l3.1-5.2c1.9-3.4 2.6-5.7 2-6.2-2.1-2.2-.4-2.6 9.5-2.6h10.5l2.7 5 2.7 5h27.4l2.7-5 2.7-5h10.5c9.9 0 11.6.4 9.5 2.6-.6.5.1 2.8 2 6.1l3.1 5.3h15.6l4-7.1 4-7.2-2.8-4.6c-2.2-3.8-3.1-4.6-5.3-4.3-1.5.1-2.7 0-2.7-.2 0-.3 2.4-4.7 5.3-9.8l5.3-9.2-5.8-10.2c-3.2-5.7-5.8-10.6-5.8-10.9 0-.4 1.7.3 3.8 1.6 2 1.2 5.1 3 6.7 4l3 1.8 9.5-5.4c5.2-3 9.8-5.5 10.3-5.5.4 0 .7.8.7 1.7 0 1.1 1.9 2.9 4.6 4.4l4.7 2.6 6.8-3.9 6.9-4v-15.7l-4.6-2.7c-4.5-2.6-4.7-2.7-7.5-1l-2.9 1.7v-22.8l6-3.2 6.1-3.3-.3-11.6-.3-11.6-5.5-3.1-5.5-3.1-.3-11.8-.3-11.8 3 1.8c2.8 1.7 3 1.6 7.5-1l4.6-2.7V69.2l-6.9-4-6.8-3.9-4.7 2.6c-3.3 1.9-4.6 3.2-4.6 4.8 0 1.3-.3 2.3-.6 2.3s-4.7-2.5-9.9-5.5c-5.1-3-9.5-5.5-9.8-5.5s-3.4 1.6-6.7 3.6c-3.4 2-6.4 3.4-6.6 3.1-.2-.2 2-4.6 5.1-9.8 3-5.2 5.5-10 5.5-10.7 0-.6-2.2-5.2-5-10-2.7-4.8-5-9.1-5-9.5s1.3-.7 2.9-.7c2.4 0 3.4-.8 5.4-4.4l2.4-4.4-3.9-7.1-4-7.1h-15.6l-3.1 5.2c-2.6 4.6-2.8 5.5-1.5 6.9.8.8 1.4 1.9 1.4 2.2 0 .4-4.8.7-10.7.7h-10.8l-3-5.3-3.1-5.2h-26.8l-3.1 5.2-3 5.3H86.8l1.5-2.3c1.4-2.2 1.3-2.7-1.5-7.5l-3-5.2H68.2zM85 8.7c1.8 3.1 1.9 4 .9 6.5-1 2.4-1.7 2.8-5.3 2.8-3.5 0-4.3.4-5.8 3-1.4 2.4-2.4 3-5.2 3-2.9 0-3.8-.5-5.1-3-2-3.9-2-4 1.7-10.4L69.4 5h6.7c6.7 0 6.7 0 8.9 3.7m104.8 1.9c3.7 6.4 3.7 6.5 1.7 10.4-1.3 2.5-2.2 3-5.1 3-2.8 0-3.8-.6-5.2-3-1.5-2.6-2.3-3-5.8-3-3.6 0-4.3-.4-5.3-2.8-1-2.5-.9-3.4.9-6.5 2.2-3.7 2.2-3.7 8.9-3.7h6.7zM142.9 15l3.1 5h11.7c9.4 0 12 .3 13.5 1.7 1 .9 1.8 2 1.8 2.4 0 .5-5.2 1-11.6 1.1l-11.6.3-6 10.3-5.9 10.3 6.2 10.5 6.1 10.5 12.7-.3 12.6-.3 5.8-10.2 5.9-10.2-5.6-9.8c-5.2-9.1-5.4-9.8-3.5-10.1 2.8-.5 3.2 0 9.4 10.8l5.3 9.2-6.9 11.8c-10.3 17.7-10.3 17.6 2.5 10 4.7-2.7 8.8-5 9.2-5s5.1 2.6 10.5 5.7c7.9 4.6 9.9 6.2 9.9 8 0 1.3-.3 2.3-.7 2.3-.5 0-4.9-2.4-9.9-5.3l-9.1-5.4-10.6 6.1-10.6 6.1L177 93v12.6l6.8 3.8c3.7 2.1 8.5 4.9 10.7 6.2l4 2.3 10.5-6.2 10.5-6.3.3-10.8c.2-7.9.6-10.6 1.5-10.3.8.2 1.4 4.5 1.7 13.7l.5 13.4 5.8 3.4 5.7 3.4v20.3l-6 3.3-5.9 3.3-.3 13.1c-.2 9.4-.7 13.3-1.5 13.6-1 .3-1.3-2.2-1.3-10.1 0-12.2 1-10.7-13.6-18.9l-8.1-4.5-10.7 6-10.6 6.1V163l.1 12.5 10.7 6 10.7 6.1 9-5.3c5-2.9 9.4-5.3 9.8-5.3.5 0 .7 1.2.5 2.7-.3 2.7-1.3 3.5-15.3 11.4l-5 2.8-9.3-5.4c-5-2.9-9.4-5-9.7-4.5s2.6 6.4 6.5 13.1 7.2 12.5 7.3 12.9-2.3 5.1-5.2 10.4c-4.5 7.8-5.9 9.6-7.8 9.6-1.3 0-2.3-.2-2.3-.5 0-.2 2.3-4.3 5-8.9 2.8-4.7 5.3-9.2 5.6-10.1.4-.8-1.8-5.8-5.1-11.5l-5.6-10h-25.7l-2.9 4.7c-5.4 8.7-8.3 14.1-8.3 15.6 0 .9 2.6 6 5.8 11.4l5.8 9.8 10.7.3c5.9.1 10.7.6 10.7 1s-.7 1.5-1.4 2.5c-1.1 1.4-3.1 1.7-13.4 1.7h-12.1l-3.1 5.5-3.1 5.5h-23.8l-3.1-5.5-3.1-5.5H97.8c-10.3 0-12.3-.3-13.4-1.7-.7-1-1.4-2.1-1.4-2.5s5.3-.9 11.7-1l11.8-.3 5.7-10c3.2-5.5 5.8-10.6 5.8-11.3s-2.5-5.6-5.6-10.8l-5.5-9.4H81.1l-4.2 7.2c-2.3 4-4.9 8.6-5.8 10.1-1.8 3.1-2.3 1.6 6.3 16.9l3.8 6.8h-3.4c-3.3 0-3.6-.4-8.9-9.6-2.9-5.3-5.3-10-5.2-10.4s3.4-6.2 7.3-12.9 6.8-12.6 6.5-13.1-4.7 1.6-9.7 4.5l-9.3 5.4-5-2.8c-14-7.9-15-8.7-15.3-11.4-.5-3.8.9-3.5 11.2 2.7l8.9 5.3 10.6-6.2 10.6-6.3v-24.6L69 144.4c-9.2-5.5-10.8-6.1-12.5-5-1.1.7-5.9 3.4-10.7 6.1l-8.8 4.9v11.3c0 11.1-.1 11.3-2 10.3-1.8-1-2-2.1-2-14v-12.9l-6-3.3-6-3.3v-20.3l5.8-3.4 5.7-3.4.3-13.2c.2-11.9.4-13.3 2.2-14.2 1.9-1 2-.7 2 10.3v11.3l6.8 3.8c3.7 2.1 8.5 4.9 10.7 6.2l4 2.2 10.5-6.2 10.5-6.3V80.6l-10.6-6.1-10.6-6.2-8.9 5.3c-4.9 2.9-9.5 5.3-10.1 5.4-.7 0-1.3-1-1.3-2.3 0-1.8 2-3.4 9.9-8C53.3 65.6 58 63 58.4 63s4.5 2.2 9.2 5c12.8 7.6 12.8 7.7 2.5-10l-6.9-11.8 5.7-9.9c4.7-8.2 6.1-9.9 8.4-10.1 1.5-.2 2.7.1 2.7.6 0 .6-2.2 4.8-5 9.5-2.7 4.7-5 9.1-5 9.7 0 .7 2.6 5.7 5.7 11.1l5.8 9.9h25l5.8-9.9c3.1-5.4 5.7-10.4 5.7-11.1s-2.6-5.7-5.7-11.1l-5.8-9.9H94.8c-6.5 0-11.8-.3-11.8-.7 0-.3.7-1.5 1.7-2.5C86.1 20.3 88 20 98.2 20H110l3.1-5 3.1-5h23.6zm-34.7 19 3.1 5.5-4.9 8.7-4.9 8.8h-22l-3.3-5.4-3.2-5.4 5.3-9.1 5.2-9.1 10.8.2 10.9.3zm70.4 3.4 5.2 9-3.2 5-3.2 5.1-11 .3-11 .3-4.7-8.4c-2.6-4.6-4.7-8.9-4.7-9.5 0-.7 1.4-3.4 3.1-6.2l3.1-5.1 10.6.3 10.6.3zM33.1 65.7c4.1 2.4 4 6.7-.1 8.8-2.6 1.4-3 2.1-3 5.8s-.4 4.4-3.1 6c-3 1.7-3.2 1.7-6.5-.4-3.3-2-3.4-2.2-3.4-8.9v-6.8l5.3-3c6.1-3.6 7-3.7 10.8-1.5m200.4 1.4 5.5 3.1V77c0 6.7-.1 6.9-3.4 8.9-3.3 2.1-3.5 2.1-6.5.4-2.7-1.6-3.1-2.3-3.1-6s-.4-4.4-3-5.8c-4-2.1-4.2-6.3-.2-8.7 3.7-2.4 4.4-2.3 10.7 1.3M64.6 75.2l5.5 3.3-.3 10.9-.3 10.9-9 5.3c-9.8 5.6-9 5.6-16.7.7L40 104V82.3l8.8-5.1c4.8-2.8 9.1-5.2 9.5-5.2.5 0 3.3 1.5 6.3 3.2m143.3 2 9.1 5.2v21.5l-6 3.5-5.9 3.5-9.3-5.3-9.3-5.2V78.6l5.5-3.3c3-1.8 5.8-3.3 6.1-3.3.4 0 4.8 2.3 9.8 5.2M60.6 150.4l8.9 5.3v22.4l-5.6 3.1-5.6 3.1-9.2-5.2-9.2-5.3.3-11.1.3-11.1 5.5-3.2c3-1.8 5.5-3.3 5.6-3.4.1 0 4.1 2.4 9 5.4m150.3-1.9 6.1 3.6v21.7l-9.2 5.2c-10 5.7-9.6 5.7-17.7.5L186 177v-20.8l8.8-5.5c4.8-3 9-5.6 9.4-5.6.4-.1 3.4 1.5 6.7 3.4M27.3 169.9c2.4 1.2 2.7 2 2.7 6 0 4.1.4 4.9 3 6.4 4.2 2.5 4 5.8-.5 8.3l-3.5 1.9-5.8-3.2-5.7-3.2-.3-6.9c-.3-6.9-.3-7 3-9.1 1.8-1.1 3.5-1.9 3.8-1.8s1.7.9 3.3 1.6m208.4.2c3.4 2.1 3.4 2.1 3.1 9.1l-.3 6.9-5.7 3.2-5.8 3.2-3.5-1.9c-4.5-2.5-4.7-5.8-.5-8.3 2.6-1.5 3-2.3 3-6.3 0-3.8.4-4.7 2.8-6.2 3.5-2.1 2.9-2.1 6.9.3m-130.5 35.1c6.5 11.3 6.3 10.2 2.6 16.8l-3.3 6H83.2l-5.2-9.2-5.3-9.3 2.8-5.2 2.7-5.3h23.4zm76.7-1.2 3.1 5.1-5.3 9.2-5.3 9.2-10.5.3-10.4.3-3.3-6.1-3.3-6 3.2-5.8c6.8-12 5.6-11.2 17.9-11.2h10.8zm-107 31.5c1.8 3.1 2.5 3.5 6.1 3.5 3.3 0 4.2.4 5.1 2.3.8 1.9.6 3.1-1.1 6-2.2 3.7-2.2 3.7-8.9 3.7h-6.7l-3.2-5.6c-3.7-6.4-3.7-6.5-1.7-10.4 1.3-2.4 2.2-3 4.9-3 2.8 0 3.8.6 5.5 3.5m116.6-.5c2 3.9 2 4-1.7 10.4l-3.2 5.6h-6.7c-6.7 0-6.7 0-8.9-3.7-1.7-2.9-1.9-4.1-1.1-6 .9-1.9 1.8-2.3 5.1-2.3 3.6 0 4.3-.4 6.1-3.5 1.7-2.9 2.7-3.5 5.5-3.5 2.7 0 3.6.6 4.9 3"/>
        <path d="M117 19.5c-3.6 6.3-3.5 7.6 1 14.8l3.1 4.8 7.1-.3 7.1-.3 3.8-6.2 3.8-6.2-3.5-6.1-3.6-6h-15.7zm6.8 29c-1.7 3.9.3 7.5 4.2 7.5 2.3 0 3.3-.6 4.2-2.5 1.7-3.9-.3-7.5-4.2-7.5-2.3 0-3.3.6-4.2 2.5M126 63c0 1.3.7 2 2 2s2-.7 2-2-.7-2-2-2-2 .7-2 2M93.3 77.8 85 82.5v33.7l3.2 5.8 3.1 5.7-3.1 5.5-3.2 5.5v34.8l8.4 4.8 8.3 4.8 8.2-4.8 8.1-4.7v-12.8l4.6 2.6 4.7 2.6 4.5-2.5c2.4-1.4 4.6-2.5 4.8-2.5s.4 2.7.4 5.9c0 6.7 0 6.7 11.1 12.9l5.6 3.2 8.2-4.6 8.1-4.6v-36.1l-3-4.9-3.1-4.9 3.1-5.3 3-5.3V82.2l-8.1-4.6-8.2-4.6-5.6 3.2c-11 6.2-11.1 6.3-11.1 12.5 0 3-.3 5.3-.7 5.1-.5-.2-2.5-1.2-4.7-2.3l-3.8-2-4.9 2.8L118 95V82.4l-7.7-4.5c-4.2-2.4-7.9-4.5-8.2-4.6-.3-.2-4.3 1.8-8.8 4.5m15.2 1.9 6.5 3.8v7.2c0 8.5.4 8.8 8 4.3l5-2.9 5 2.9c2.8 1.7 5.5 3 6 3 .6 0 1-3.3 1-7.3v-7.2l7-3.8 7-3.8 7 4.1 7 4.1v31.2l-3.4 6.2-3.4 6.2 3.4 5.9 3.3 5.9.1 16.2v16.2l-7 4.1-7 4.1-7-3.8-7-3.8v-7.8c0-4.2-.4-7.7-1-7.7-.5 0-3.3 1.4-6.2 3.1l-5.3 3.1-5.6-3.1c-3.1-1.7-5.9-2.8-6.2-2.4-.4.3-.7 3.8-.7 7.7v7.1l-6.7 3.9-6.6 3.8-3.6-2.1c-2-1.2-5.1-2.9-6.8-3.8l-3.3-1.7v-33.8l3.1-5.7 3.1-5.6-3.1-5.3-3.1-5.3v-16.7l.1-16.7 6.2-3.6c3.4-2.1 6.6-3.7 7-3.8.5-.1 3.7 1.6 7.2 3.6"/>
        <path d="m96.7 85.1-4.8 3 .3 5.1c.3 5 .5 5.3 4.8 7.9l4.5 2.6 4.7-2.6 4.8-2.6V87.2l-4.6-2.6c-2.6-1.4-4.7-2.6-4.8-2.6 0 0-2.3 1.4-4.9 3.1m52 0-4.8 3 .3 5.1c.3 4.9.4 5.2 5 7.7l4.7 2.6 4.6-2.4 4.5-2.4V87.2l-4.6-2.6c-2.6-1.4-4.7-2.6-4.8-2.6 0 0-2.3 1.4-4.9 3.1m-34.5 21.2-12.2 7.1.2 15.1.3 15 12.8 7.4 12.8 7.3 9.2-5.3c5-2.9 10.9-6.3 13-7.6l3.7-2.3v-29.7l-12.4-7.2c-6.8-3.9-13-7.1-13.7-7.1-.8.1-6.9 3.3-13.7 7.3m-17.9 49.3c-4.2 2.4-4.3 2.6-4.3 7.8v5.3l5 2.7 5 2.7 4.5-2.6c4.5-2.7 4.5-2.7 4.5-8.1 0-5.2-.1-5.5-4-7.9-4.9-3.1-5.5-3.1-10.7.1m51.9.1c-4.2 2.5-4.3 2.6-4 7.6.3 4.9.5 5.3 5 8l4.6 2.9 4.6-2.7 4.6-2.7v-5.6c0-5.6-.1-5.7-4-8-4.9-2.8-5.5-2.7-10.8.5M31.8 117.6l-5.8 3.5v15.8l6.1 3.4 6.1 3.5 6.4-3.7 6.4-3.6v-15.1l-6.3-3.7c-3.5-2-6.6-3.7-6.8-3.6-.2 0-3 1.6-6.1 3.5m180.5.1-6.3 3.5v15.4l5.9 3.4c3.3 1.8 6.2 3.3 6.6 3.3s3.3-1.5 6.6-3.3l5.9-3.4V129c0-7.5 0-7.6-3.2-9.4-1.8-1-4.6-2.7-6.3-3.7-3-1.7-3-1.7-9.2 1.8m-151.1 6.6c-5.7 2.6-2.4 11.2 3.5 9.1 2.3-.8 2.8-1.5 2.8-4.3 0-4.2-2.9-6.4-6.3-4.8m129.5.3c-6 3.2-1.4 11.4 4.8 8.6 3.3-1.5 3.5-6.3.2-8.5-2-1.3-2.6-1.3-5-.1M73 129c0 1.6.5 2.1 2.3 1.8 1.2-.2 2.2-1 2.2-1.8s-1-1.6-2.2-1.8c-1.8-.3-2.3.2-2.3 1.8m106.2-.3c.4 2.2 4.3 2.5 4.3.3 0-.8-1.1-1.6-2.3-1.8-1.9-.3-2.3 0-2 1.5m-53 63.5c.2 1.3 1 2.3 1.8 2.3s1.6-1 1.8-2.3c.3-1.7-.2-2.2-1.8-2.2s-2.1.5-1.8 2.2m-2.6 9.5c-1.2 2.4-1.2 3 .1 5 1 1.5 2.5 2.3 4.3 2.3s3.3-.8 4.3-2.3c2.2-3.4-.2-7.7-4.3-7.7-2.2 0-3.3.7-4.4 2.7m-6.9 21.5-3.5 6.3 3.1 5.7 3.2 5.8h17l3.2-5.8 3.1-5.7-3.5-6.3-3.5-6.2h-15.6z"/>
    </g>
</svg>
