<svg xmlns="http://www.w3.org/2000/svg" width="341.333" height="341.333" version="1.0" viewBox="0 0 256 256">
    <g fill="#e5e5e5">
        <path d="M113.2 6.7c.3 3.6.8 4.1 8.6 8.7 7.9 4.8 8.2 5.1 8.2 8.6v3.7l-15 8.7c-8.3 4.7-15.3 8.6-15.5 8.6-.3 0-.5-1.8-.5-3.9 0-3.8-.2-4-8-8.5-4.3-2.5-8.2-4.6-8.5-4.6s-.5 1.7-.5 3.7c0 3.7.3 3.9 8.5 8.8l8.5 5V61l3.8 2.3c2 1.3 5.2 3.2 7 4.1l3.2 1.7v-4c0-3.9-.2-4.1-6.6-7.7-3.6-2-6.2-4-5.7-4.4.9-.7 23.5-14.1 27.1-15.9 1.6-.9 2.2-2.1 2.2-4.6 0-1.9.5-3.5 1-3.5.6 0 5.8 2.7 11.5 6.1l10.5 6.1v39.3l-5 2.7-5 2.8v16l3.8 2.3c10.3 6.5 8.9 6.3 16.5 2l6.7-3.8-.2-8.4-.3-8.5L165 83l-4.5-2.6-.5-21.8-.5-21.8L146 29c-7.4-4.3-14.1-8.3-14.7-9-.7-.6-1.3-2.6-1.3-4.5 0-3.2-.5-3.7-7.7-8C118 5 114.2 3 113.7 3c-.4 0-.7 1.7-.5 3.7m54.6 18c-7.5 4.5-7.8 4.8-7.8 8.5 0 2.1.3 3.8.6 3.8.4 0 4.2-2.1 8.5-4.7 7.7-4.5 7.9-4.8 7.9-8.5 0-2.1-.3-3.8-.7-3.8-.5 0-4.3 2.2-8.5 4.7"/>
        <path d="M59 40.9c0 5.6.3 10.1.8 10.1.4 0 1.8.9 3.1 1.9l2.4 1.8-14.1 8.2C43.5 67.3 36.6 71 36 71s-2.2-.7-3.5-1.6c-2.3-1.5-2.8-1.4-11 3.1-4.7 2.5-8.3 5.1-8 5.6.4.5 1.8 1.5 3.3 2.3 2.5 1.3 3.2 1.1 10.2-3 8.3-4.8 8.8-4.9 12.5-3.2l2.5 1.1v35.9l-2.5-1.6c-3.5-2.3-4.1-2.1-12.9 3l-7.9 4.6 3.3 2.1c3.6 2.3 3.9 2.2 15.2-4.6 4.5-2.7 4.8-2.7 7.7-1.3 1.6.9 3.2 1.6 3.6 1.6.3 0 .5-8 .5-17.8V79.4l-3.1-1.8-3-1.8 11-6.4C60 65.9 65.3 63 65.6 63c.8 0 27.9 15.6 31.7 18.2 2.4 1.7 2.7 2.6 2.7 7.3v5.4l6.2 3.7c3.3 2.1 6.6 3.7 7.2 3.7s3.9-1.7 7.4-3.7l6.2-3.7V77.5l-6.2-3.5c-3.5-1.9-6.6-3.6-6.9-3.8-.4-.2-3 1.1-5.9 2.8l-5.2 3.1-18.4-10.6-18.3-10.7-.3-10.1-.3-10.1-3.2-1.9-3.3-1.9zm128.8-1.1c-2.7 1.6-2.8 1.9-2.8 11.2v9.5l-7 4.4-7 4.3v7.9c0 4.3.2 7.9.5 7.9.4 0 1.9-.7 3.5-1.5 2.9-1.5 3-1.7 3-9.5 0-5.8.4-8 1.3-8 .6.1 7.7 3.9 15.7 8.5 13.5 7.8 14.7 8.3 16.7 6.9 1.2-.8 2.7-1.4 3.3-1.4s1 4.5 1 12.5V105l-3.7 2.4c-7.4 4.7-30.2 17.6-31.1 17.6-.5 0-3-1.2-5.6-2.6l-4.6-2.6-6.7 3.9-6.8 3.9-.3 8-.3 7.9 6.4 3.8c3.5 2 7 3.7 7.8 3.7s4.1-1.6 7.4-3.5l5.9-3.4 3.7 2.1 3.6 2 6.7-3.8c3.6-2.1 6.6-4.2 6.6-4.6s-1.4-1.5-3.1-2.3c-2.9-1.6-3.2-1.5-9.4 1.9-3.5 2-6.6 3.6-6.9 3.6s-.6-2.6-.6-5.9v-5.8l18.5-10.7L222 110l8 4.6c7.9 4.6 10.1 5 14 2.5 1.9-1.3 1.2-2-7.8-7-7-4-7.3-4.1-10.2-2.6l-3 1.6V75.4l3-1.7 3-1.8v-20l-3 1.8c-3 1.7-3 1.8-3 10.9 0 8.8-.1 9.4-2.6 11.3-1.5 1.2-3.2 2.1-3.9 2.1-1.2 0-28.1-15.2-29.7-16.8-.5-.5.3-1.4 2.1-2.2l3.1-1.2v-9.9c0-5.5-.3-9.9-.7-9.9-.5 0-2 .8-3.5 1.8m-74.5 64-13.3 7.7.3 16 .2 15.9 13.5 7.9 13.5 7.9 5-2.6c2.8-1.4 9-5 13.8-7.9l8.9-5.2v-32l-12.9-7.7c-7-4.2-13.5-7.6-14.3-7.6s-7.5 3.4-14.7 7.6m21.7 11.5 5.5 3.3v16.8l-5.5 3.2c-3 1.8-6.1 3.3-6.9 3.4-.8 0-4.3-1.6-7.8-3.5l-6.3-3.6v-15.8l6.3-3.5c3.4-2 6.9-3.6 7.7-3.6s4 1.5 7 3.3"/>
        <path d="M123.2 121c-3 1.8-3.3 2.4-3 6.1.3 3.5.8 4.4 3.9 6.2l3.6 2.1 3.6-2.3c3.2-2 3.7-2.7 3.7-6.2 0-3.4-.5-4.2-3.2-5.9-4.1-2.5-4.5-2.5-8.6 0M78 107.1l-6.5 3.9-.5 6.1-.5 6.1L51.9 134l-18.6 10.7-7.9-4.4c-7.9-4.5-10-4.8-13.8-2-1.8 1.3-1.3 1.7 6.5 6.1 8.3 4.7 8.4 4.7 11.6 3.2L33 146v32.1l-2.9 1.7c-2.9 1.6-3 1.8-3.3 11.4-.3 10.3 0 11 4 8.2 2-1.4 2.2-2.4 2.2-10.4 0-8.7 0-8.9 3-11l3.1-2.2 13.2 7.5c7.3 4.2 14 7.9 15 8.3 2.4.9 2.1 1.8-.8 3.4-2.4 1.3-2.5 1.7-2.5 11.3v9.9l3.3-1.9 3.2-1.9.3-9.5.3-9.4 6.2-3.5 6.2-3.5.3-8.3c.2-4.5 0-8.2-.4-8.2-.3 0-1.9.8-3.5 1.7-2.8 1.7-2.9 2-2.9 9.5 0 4.3-.3 7.8-.6 7.8s-7.1-3.9-15.1-8.6l-14.6-8.6-3.4 1.6-3.4 1.6.3-13.2.3-13.2 16.9-9.7 16.9-9.7 5.3 2.9 5.3 3 6.5-3.8 6.6-3.7v-8.2c0-9 .3-8.5-8-13.2l-5.5-3z"/>
        <path d="M57.7 110.4c-8.3 4.8-8.6 5.2-4.5 7.2 3.5 1.6 3.5 1.6 10.1-2.2 3.7-2.1 6.7-4.1 6.7-4.5 0-.3-1.2-1.2-2.7-2-1.6-.7-3-1.4-3.3-1.6-.3-.1-3.1 1.3-6.3 3.1m163.9 28.1c-8.8 5-9.2 5.1-12 3-1.1-.8-2.3-1.5-2.8-1.5-1 0-1.1 36 0 36 .4 0 1.8.9 3 1.8l2.4 1.8-10.7 6.2c-5.9 3.4-11.2 6.2-11.8 6.2-.7-.1-8.4-4.2-17.2-9.3l-16-9.3-.5-6.3-.5-6.3-6.5-3.8-6.4-3.8-5.6 3.1c-8.9 4.9-9 5.1-9 13.3v7.2l7.1 4.1 7.2 4.1 5.1-2.9 5.2-2.9 18.2 10.5 18.2 10.6v9.6c0 9.6 0 9.7 2.9 11.4 1.6.9 3.2 1.7 3.5 1.7s.6-4.3.6-9.5c0-9-.1-9.5-2.6-11.1-1.4-.9-2.1-2-1.7-2.5.4-.4 6.8-4.2 14.2-8.4l13.3-7.7 3.3 1.8 3.3 1.8 7.7-4.5c4.2-2.4 7.5-4.9 7.5-5.4-.1-.6-1.2-1.7-2.5-2.5-2.2-1.3-2.9-1.2-6.7.7-2.4 1.2-6.1 3.3-8.4 4.7l-4 2.5-3.2-1.9-3.2-2v-17c0-9.3.3-17 .8-17 .4.1 1.8.7 3.2 1.4 2.2 1.3 2.9 1.1 7.5-1.4 9.7-5.4 11.5-6.5 11.5-7s-5.4-4-6.2-4c-.2 0-3.9 2-8.2 4.5"/>
        <path d="m91.8 149.1-6.8 4v7.2c0 4 .4 7.7.8 8.2.4.6 2.8 2.3 5.5 3.9l4.7 2.7-.2 21.7-.3 21.6-8.2 4.9c-8.1 4.8-8.3 5-8.3 8.8 0 2.2.2 3.9.5 3.9s4.3-2.3 9-5.1c7.5-4.5 8.5-5.4 8.5-8 0-1.6.3-2.9.8-2.8.4 0 6.6 3.5 13.7 7.7 13 7.7 13 7.7 13.3 11.7.3 3.9.5 4.1 8.5 8.7l8.2 4.7.3-3.1c.2-1.6.1-3.5-.1-4.1-.2-.7-3.9-3.2-8.1-5.7-7.2-4.3-7.6-4.7-7.6-8.1 0-3.6 0-3.6 14.8-12.1l14.7-8.5.3 3.8c.3 3.6.8 4 8.1 8.3 4.3 2.5 8.1 4.6 8.4 4.6.4 0 .7-1.7.7-3.8 0-3.6-.3-3.9-8-8.5l-8-4.8v-15.8l-6.7-4c-3.7-2.2-7-3.8-7.5-3.5-.4.3-.8 2-.8 3.7 0 3 .6 3.6 6.5 7 3.6 2.1 6.5 4.1 6.5 4.5s-1.7 1.6-3.8 2.8c-2 1.1-8.5 4.9-14.4 8.4-10.3 6-10.8 6.4-10.8 9.6 0 1.9-.5 3.4-1 3.4-.6 0-5.8-2.7-11.5-6.1l-10.5-6.1v-40.3l5-2.8 5.1-2.9-.3-8.1-.3-8.1-6.5-3.8c-3.6-2.1-6.7-3.8-7-3.7-.3 0-3.5 1.8-7.2 4"/>
    </g>
</svg>
