<svg xmlns="http://www.w3.org/2000/svg" width="341.333" height="341.333" version="1.0" viewBox="0 0 256 256">
    <g fill="#e5e5e5">
        <path d="M160 5.4c0 3.2.5 3.7 7.8 8 4.3 2.5 8.2 4.6 8.6 4.6s.6-1.7.4-3.7c-.3-3.4-.8-4.1-7.3-7.9-3.8-2.4-7.6-4.3-8.2-4.3-.8-.1-1.3 1.2-1.3 3.3m-47 .9c0 3.1.6 3.7 7.9 8 4.3 2.6 8.1 4.7 8.5 4.7.3 0 .6-1.7.6-3.8 0-3.6-.3-3.9-7.4-8-4-2.3-7.8-4.2-8.4-4.2-.7 0-1.2 1.5-1.2 3.3"/>
        <path d="m89.7 14.6-7.8 4.7.3 7.9.3 8 8.3 5 8.2 5v15.6l7 4.1 7 4V65c0-3.8-.2-4.1-6.5-7.7-3.6-2-6.5-4-6.5-4.3.1-.3 6.7-4.4 14.8-9.1 14.4-8.4 14.7-8.6 15-12.2.2-2 .6-3.7.9-3.7.4 0 5.7 3 12 6.6l11.3 6.6v18.6c0 10.3-.4 19.2-.8 19.7-.4.6-2.8 2.3-5.4 3.8l-4.8 2.8v15.7l6.8 4 6.7 4 6.7-3.6 6.8-3.7v-17l-5-2.7-5-2.8-.2-21.7-.3-21.7-7.8-4.7-7.8-4.7 8-4.8c7.9-4.7 8.1-4.9 8.1-8.6V9.9l-3.2 1.7c-1.8.9-5.7 3.2-8.5 5-4.7 3-5.3 3.7-5.3 6.9v3.4l-5.9-3.4c-3.3-1.9-6.2-3.5-6.5-3.5s-.6 1.7-.6 3.7c0 3.6-.3 4-6.3 7.3-3.4 1.9-6.5 3.6-6.9 3.8-.5.2-.8-1.4-.8-3.5 0-3.7-.2-3.9-7.6-8.3-4.3-2.5-8.1-4.7-8.5-4.8-.5-.2-.9 1.4-.9 3.5 0 3.7.2 3.9 7.5 8.2 4.2 2.4 7.8 4.7 8 5.2.4.6-13.8 9.9-15.1 9.9-.2 0-.4-1.8-.4-3.9 0-3.9-.2-4-8-8.7-4.4-2.6-8-5-8-5.3s3.5-2.6 7.8-5.1c7.2-4.2 7.7-4.7 8-8.3.2-2 0-3.7-.5-3.7-.4 0-4.3 2.1-8.6 4.6M161 87c3.8 1.9 4 2.3 4 6.8 0 4.4-.2 4.8-4 7l-4.1 2.3-3.9-2.2c-3.8-2.1-4-2.5-4-7 0-4.2.3-4.9 3.3-6.8 4-2.6 3.9-2.6 8.7-.1"/>
        <path d="M167.8 24.6c-7.3 4.3-7.8 4.8-7.8 8 0 2.1.5 3.4 1.3 3.3.6 0 4.4-1.9 8.2-4.3 6.5-3.8 7-4.5 7.3-7.9.2-2 0-3.7-.5-3.7-.4 0-4.3 2.1-8.5 4.6M43.3 31.3c-4 2.3-7.3 4.5-7.3 4.9s1.3 1.4 3 2.3c2.9 1.5 3.2 1.4 11-3 4.3-2.5 8.2-4.5 8.5-4.5s.5 4.4.5 9.8v9.8l3.5 1.7L66 54V35l-6.2-4c-3.3-2.2-6.8-4-7.7-3.9s-4.9 2-8.8 4.2m148.6 6c-5.5 3.1-5.7 3.3-6.3 8.2-.3 2.7-.6 7.3-.6 10v5.1l-6.5 3.9-6.5 4v16.7l3.3-2.1 3.4-2.1 7.9 4.5c4.3 2.5 8.2 4.5 8.7 4.5.4 0 2.2-.7 3.9-1.6l3.2-1.6-4-2.5c-2.1-1.3-6.1-3.5-8.7-4.9-4.6-2.4-5-2.4-7.4-.9-1.3.9-2.7 1.5-2.9 1.2-.3-.3-.4-3.7-.2-7.6l.3-7.1 15 8.6 15 8.5 3.2-1.5L216 79v26.7l-16.8 9.6c-9.3 5.3-17.4 9.7-18.1 9.7s-3.2-1.1-5.5-2.5l-4.3-2.5-6.7 3.7-6.6 3.8v16.4l6.6 3.9 6.6 4 6.9-4 6.9-4v-12.5l17.2-9.9c9.4-5.4 17.9-10.3 18.8-10.7 1.3-.6 4 .4 9.9 3.8 7.6 4.5 8.3 4.7 11.1 3.5 1.7-.7 3.3-1.6 3.5-2.1.3-.4-3.3-2.9-8-5.4-8.3-4.6-8.6-4.7-11.1-3-1.4.9-2.8 1.5-3 1.2-.3-.2-.4-4.3-.2-9l.3-8.6 8 4.5 8 4.5 3.5-1.6c3.3-1.6 3.4-1.7 1.5-3.2-1.1-.8-4.9-3-8.3-5-6.3-3.5-6.4-3.6-9.8-2L223 90v-7.4c0-7.4 0-7.4 3.5-9.5l3.5-2v-9.6c0-5.3-.3-9.5-.7-9.3-6.8 3.3-6.3 2.2-6.3 13V75l-3.3 1.6c-3.3 1.6-3.5 1.6-10-2.2l-6.7-3.8 3-1.9c3-1.9 3-1.9 3-11.3 0-5.2-.2-9.4-.5-9.4-.4 0-1.9.7-3.5 1.5-2.9 1.5-2.9 1.7-3.2 10.9l-.3 9.3-7.8-4.5-7.8-4.5 3-2c3.1-1.9 3.1-1.9 3.1-11.3 0-5.2.2-9.4.5-9.4s4.2 2 8.5 4.5c7.8 4.4 8.1 4.5 11 3 1.7-.9 3-1.9 3-2.3 0-.9-14.9-9.2-16.4-9.1-.6 0-3.6 1.5-6.7 3.2m-16.5 91.8c3.3 1.9 3.6 2.5 3.6 6.9 0 4.5-.2 4.9-3.7 7l-3.8 2.2-4.2-2.2c-4.1-2.2-4.3-2.5-4.3-6.9s.3-4.9 3.8-6.9c4.6-2.7 4.3-2.7 8.6-.1"/>
        <path d="M42 50.5v9.4l3 1.6c1.7.9 3 1.9 3 2.3s-2.8 2.3-6.1 4.1c-6.2 3.4-6.2 3.4-9.5 1.6l-3.3-1.7-6.3 3.5c-3.5 2-7.1 4.2-8.2 4.9-1.7 1.4-1.7 1.5 1 3.3l2.9 1.9 8.8-4.8 8.7-4.7 3 1.8c2.9 1.7 3 1.9 3 9.5v7.9l-3.1-1.6C36 87.9 35.7 88 28.2 92c-4.2 2.3-8.1 4.5-8.6 5s.6 1.6 2.6 2.6l3.6 1.7 7.5-4.2c4.1-2.2 7.7-4.1 8.1-4.1.3 0 .6 4 .6 9v9l-3.4-1.7c-3.4-1.6-3.5-1.6-11 2.6-4.1 2.2-7.9 4.1-8.3 4.1-.5 0-.9-4.1-.9-9.1 0-8.5-.2-9.2-2.5-11-5-3.8-5.7-1.9-4.3 11.8.6 5.5 1 6.2 3.8 7.7 1.7.9 4.6 2.6 6.4 3.7l3.2 2.1 8.3-4.7c8.1-4.6 8.2-4.6 11.5-3.1 1.8.9 3.5 1.6 3.7 1.6.3 0 .5-7.8.5-17.3V80.5l-3.1-2.6-3.2-2.6 10.5-6.1c5.7-3.3 10.9-6.2 11.5-6.4.5-.2 8.7 4.1 18.1 9.5l17.1 9.8.3 6.1.3 6 6.5 3.6 6.5 3.6 6.8-3.8 6.7-3.8V77.5l-6.2-3.5c-3.5-1.9-6.6-3.7-7-3.8-.5-.2-3.1 1-5.9 2.7l-5 3.1-18.3-10.5C74.6 59.7 65.8 55 65.3 55c-.6 0-4.2 1.8-8.1 4-3.8 2.2-7.2 4-7.6 4-.3 0-.6-4.3-.6-9.5v-9.4l-3-1.6c-1.6-.8-3.1-1.5-3.5-1.5-.3 0-.5 4.3-.5 9.5m78.8 35.1c.2 4.8.2 5-3.8 7.2l-4 2.2-4-2.5c-3.7-2.3-4-2.9-4-7s.3-4.6 4.2-6.9l4.1-2.4 3.6 2.2c3.2 2.1 3.6 2.8 3.9 7.2m.7-37.8c-7.6 4.5-8 5-8.3 8.6-.4 4.6-.4 4.6 9.9-1.4 6.7-4 6.9-4.2 6.9-8 0-2.2-.1-4-.2-4-.2 0-3.9 2.2-8.3 4.8m8.5 7.6c0 3.2.5 3.7 7.8 8 4.3 2.5 8.2 4.6 8.6 4.6s.6-1.7.4-3.7c-.3-3.5-.9-4.1-7.3-8-3.8-2.4-7.5-4.3-8.2-4.3-.8 0-1.3 1.3-1.3 3.4"/>
        <path d="M76 80.7c-2.5 1.4-6.3 3.6-8.4 4.8l-3.9 2.3 3.2 2 3.2 2 8.4-4.6c4.6-2.5 8.2-5 7.9-5.4s-1.7-1.4-3.2-2.2c-2.5-1.3-3.1-1.2-7.2 1.1M56 93.5v9.6l3 1.7c1.6.9 3 2 3 2.4 0 .3-2.5 2.1-5.5 3.8s-5.7 3.5-6 4 .8 1.6 2.5 2.5c3 1.5 3.2 1.5 9.5-2 3.6-2 6.5-4.1 6.5-4.6 0-.4-1.3-1.5-3-2.4l-3-1.6v-9.8c0-10.7.5-9.6-6.2-12.9-.5-.2-.8 4-.8 9.3m135.3-.5-3.3 2v9.5c0 5.2.3 9.5.6 9.5s1.9-.8 3.5-1.7c2.9-1.7 2.9-1.8 2.9-11.5 0-5.4-.1-9.8-.2-9.8-.2 0-1.8.9-3.5 2m58 1.7c-2.1 1.4-2.3 2.3-2.3 10.9 0 5.2.2 9.4.5 9.4.4 0 1.9-.7 3.5-1.5l3-1.6v-9.4c0-10.1-.4-10.8-4.7-7.8m-136 9.1-13.3 7.7v32l13.5 7.7c7.4 4.3 14.1 7.8 14.8 7.7.6 0 7.1-3.5 14.2-7.7l13-7.7.2-16 .3-16-13.5-7.8c-7.4-4.2-14-7.7-14.7-7.7-.7.1-7.3 3.6-14.5 7.8m26.2 5.3 10.5 6.1v24.7l-10.2 6c-5.7 3.3-11 6.1-11.8 6.1s-6.1-2.8-11.7-6.1l-10.3-6v-24.7l10.3-6c5.6-3.4 10.8-6.1 11.5-6.1.7-.1 6 2.6 11.7 6"/>
        <path d="m120.3 114.3-7.3 4.2v18.3l7.1 4.1c3.9 2.3 7.6 4.1 8.2 4.1.7 0 4.4-2 8.2-4.4l7-4.3.3-8.5.3-8.6-7.9-4.6c-4.3-2.5-8.1-4.6-8.3-4.5-.2 0-3.7 1.9-7.6 4.2m13.3 5.3c4.4 2.6 4.4 2.6 4.4 8.2v5.7l-5 2.8-5 2.8-4.8-2.9c-4.6-2.8-4.7-3-5-8.3l-.3-5.5 4.8-2.7c2.6-1.5 5.2-2.7 5.6-2.7.5 0 2.8 1.2 5.3 2.6M78 107.1l-6.5 3.9-.5 6.1-.5 6.1-18.9 10.9L32.8 145l-8.2-4.6-8.1-4.6-5 2.7c-9.1 4.8-8.8 4.3-8.6 18.8l.1 5.8 2.9-1.6c3.1-1.5 3.4-2.8 4.4-17.6l.2-3.7 7.8 4.5c7.3 4.2 8 4.5 10.5 3.2 1.5-.7 3-1.5 3.5-1.7.4-.2.7 3.7.7 8.7s-.2 9.1-.4 9.1-3.8-2-8.1-4.4c-7.6-4.3-7.7-4.4-10.6-2.7-1.6.9-2.7 2-2.6 2.5.2.5 3.8 2.9 8.2 5.3 7.3 4.1 7.9 4.2 10.1 2.8 1.3-.8 2.6-1.5 2.9-1.5s.5 2.7.5 6c0 5.7-.1 6.1-3.5 8.2l-3.5 2.3v19.7l3.2-1.9 3.3-1.9.3-9.5c.3-9.4.3-9.5 3.2-11.3 3-1.7 3-1.7 9.5 1.9 3.6 2 6.5 4 6.5 4.4s-1.1 1.3-2.5 1.9c-2.4 1.1-2.5 1.5-2.5 10.7 0 5.2.2 9.5.5 9.5.4 0 1.9-.7 3.5-1.5 3-1.5 3-1.6 3-10.6 0-5 .3-8.9.8-8.7.4.2 3.8 2.1 7.6 4.2 6.2 3.5 6.7 4.1 5.1 5.2-1 .7-2.2 1.5-2.7 1.6-.5.2-1.2 4.7-1.5 10.1-.3 5.3-.7 9.7-.8 9.7s-3.7-2-8-4.5c-7.4-4.2-7.9-4.3-10.6-3-1.5.8-3 1.9-3.3 2.3-.3.5 3.1 2.8 7.5 5.1 8.2 4.4 11.1 4.7 14.1 1.7.8-.7 2.8-2.1 4.6-3l3.2-1.7V194l3.5-1.7c1.9-.9 3.5-2 3.5-2.4s1.6-1.6 3.5-2.8l3.5-2V177c0-4.5-.3-8-.7-7.8-.5.2-2 1-3.5 1.7-3.1 1.6-3.2 1.5-13.4-4.2l-6.1-3.5-3.2 2c-1.7 1.1-3.1 2.2-2.9 2.3s4 2.3 8.6 4.9c7.7 4.4 8.4 4.6 10.5 3.1 1.2-.8 2.5-1.5 2.9-1.5.5 0 .8 3.4.8 7.5s-.2 7.5-.5 7.5c-.7 0-17.4-9.3-24.8-13.7-5.5-3.3-5.9-3.4-8.2-1.9-1.3.9-2.9 1.6-3.5 1.6s-1-4.7-1-12.9v-12.9l17.5-10.1L74.1 129l5.1 2.9 5.2 3 6.8-3.7 6.8-3.7v-16.3l-3.5-2.1c-1.9-1.2-5-3-6.7-4l-3.3-1.9zm11.1 5.1c3.7 2 3.9 2.5 3.9 6.8 0 4.5-.2 4.8-4.4 7l-4.3 2.3-3.7-2.2c-3.3-2.1-3.6-2.6-3.6-7.1 0-4.3.3-5 3.3-6.9 4-2.6 4.1-2.6 8.8.1m132.6 26.5c-7.9 4.6-7.9 4.6-11.3 3L207 140v36l3.1 1.9 3 1.9-11.5 6.6L190 193l-16.9-9.7-17-9.8-.3-6.3-.3-6.3-6.6-3.7-6.6-3.6-6.6 3.8-6.7 3.7v16.4l6.2 3.5c3.5 1.9 6.6 3.6 6.9 3.8.4.2 2.9-1 5.6-2.6l4.9-2.9 18.5 10.6 18.4 10.7v5.9c.1 13.4.2 14 3.8 15.8 1.7 1 4.6 2.7 6.4 3.8l3.2 2 7.3-4.1c9-5.1 9.7-5.8 7.8-7.1-3.6-2.3-5.7-1.9-12.8 2-3.9 2.3-7.6 4.1-8.2 4.1s-1-3.7-1-9.5c0-9.2-.1-9.6-2.5-10.7-1.4-.6-2.5-1.4-2.5-1.8 0-.3 3.3-2.5 7.3-4.8l7.2-4.2.3 9.4c.3 10-.2 9.2 6.5 12.4.4.2.7-3.9.7-9.2 0-9.1-.1-9.6-2.5-11.2-1.4-.9-2.5-1.9-2.5-2.3 0-.3 2.7-2.1 6-4 5.8-3.1 6.2-3.2 8.5-1.7 1.3.9 3 1.6 3.6 1.6.7 0 4.8-2.1 9.1-4.6l7.9-4.7-3.3-1.9-3.2-2-6.1 3.3c-3.3 1.8-7.2 4-8.6 4.8-2.4 1.3-2.9 1.3-5.3-.2-2.4-1.6-2.6-2.2-2.6-9.7v-8.1l2.8 1.4c2.5 1.3 3.2 1.1 11.1-3.4l8.4-4.7-3.3-2.1-3.4-2-5.6 3.1c-3 1.7-6.5 3.7-7.6 4.5-2.1 1.3-2.1 1.2-2.6-6.9-.3-4.6-.3-8.5-.1-8.8.2-.2 1.7.3 3.3 1.2 2.8 1.6 3 1.5 10.6-2.8 4.3-2.4 8.1-4.4 8.6-4.4.4 0 .8 4.2.8 9.3 0 10.2-.5 9.2 6.3 12.5.9.4.9-7.4.1-14.5-.7-5.3-.7-5.3-7.1-8.8-3.5-1.9-6.5-3.5-6.6-3.4s-3.7 2.1-8 4.6m-75.6 23.8c3.8 2.5 4 2.8 3.7 7.1-.3 4.2-.7 4.8-4.3 6.9l-4 2.3-3.7-2.4c-3.5-2.2-3.8-2.8-3.8-7.2s.3-4.9 3.8-6.9c2-1.2 3.8-2.2 4-2.3.1 0 2.1 1.1 4.3 2.5"/>
        <path d="M192.3 139.8c-3.5 2.1-6.3 4-6.3 4.4s1.3 1.4 3 2.3c2.9 1.5 3.2 1.4 9.5-2.2 3.6-2 6.5-4.1 6.5-4.5 0-.7-5.5-3.9-6.2-3.7-.2 0-3.1 1.7-6.5 3.7m-128.5 1.8C61 143 61 143.2 61 153.1v10.1l3.3-2.1 3.2-2 .3-9.6c.1-5.2-.1-9.5-.5-9.5-.4.1-2 .8-3.5 1.6m28 7.6-6.8 4v15.7l5.5 3.1 5.5 3.1v43.6l-8.2 4.9c-7.8 4.7-8.3 5.2-8.6 8.7-.2 2 0 3.7.3 3.7s4.2-2.1 8.5-4.6c7.5-4.3 8-4.8 8-8 0-1.9.3-3.4.8-3.4.4 0 4 2 8 4.4l7.3 4.3-8 4.8c-7.6 4.4-8.1 4.9-8.1 8.1 0 2.1.5 3.4 1.3 3.4.7 0 4.4-1.9 8.2-4.3 6.1-3.7 7-4.7 7.3-7.5.2-1.7.6-3.2 1-3.2s3.1 1.4 6 3c4.8 2.8 5.2 3.3 5.2 6.8 0 3.7.3 4 7.9 8.5 4.3 2.6 8.1 4.7 8.5 4.7.3 0 .6-1.7.6-3.8 0-3.6-.2-3.8-8-8.2-7.9-4.4-8-4.5-8-8.5 0-3.9.2-4.1 6.3-7.5 8.4-4.7 8.5-4.7 8.9-.3.3 3.5.8 4.1 7.3 8 3.9 2.3 7.6 4.3 8.3 4.3s1.2-1.3 1.2-3.4c0-3.2-.5-3.7-8-8.1-4.4-2.6-8-5-8-5.4 0-.6 12.3-8.1 13.5-8.1.3 0 .5 1.5.5 3.4 0 3.1.5 3.7 8.6 8.5l8.5 5.1-.3-4.1c-.3-4-.6-4.3-8-8.8l-7.8-4.6v-16.1l-6.3-3.7c-3.5-2-6.7-3.7-7.1-3.7s-.6 1.7-.4 3.7c.3 3.5.8 4.1 6.5 7.3 3.4 1.9 6.2 3.7 6.2 4s-6.6 4.4-14.7 9.1c-14.4 8.4-14.7 8.6-15 12.2-.2 2-.6 3.7-.9 3.7-.4 0-5.7-3-12-6.6l-11.3-6.6v-19.1c0-10.6.4-19.7.8-20.3s2.8-2.3 5.5-3.8l4.7-2.8v-15.6l-7.1-4.1c-3.9-2.3-7.1-4.1-7.2-4-.1 0-3.2 1.9-6.9 4.1m11.2 4.3c3.7 2.3 4 2.9 4 7s-.3 4.7-3.9 6.9l-3.9 2.5-4.1-2.2c-3.9-2.1-4.1-2.4-4.1-6.9 0-4.4.3-5 3.8-7.2 2-1.4 3.8-2.5 4-2.5.1-.1 2 1 4.2 2.4m89.2 5 .3 9.6 3.3 2 3.2 2.1v-20.1l-3-1.6c-1.6-.8-3.2-1.5-3.5-1.5s-.4 4.3-.3 9.5m-15.7 10.1c-4.4 2.5-8.1 4.7-8.4 4.9-.2.2 1.2 1.2 3.2 2.1l3.5 1.7 8.1-4.4c4.4-2.3 8.1-4.6 8.1-4.9 0-.5-5.4-4-6.2-4-.1 0-3.9 2.1-8.3 4.6"/>
        <path d="M109 190.8c0 4 .1 4.1 13.8 11.8 2.7 1.6 3.2 2.4 3.2 5.6 0 2.1.2 3.8.5 3.8.6 0 10.5-5.9 13.8-8.2 2-1.5 2.7-2.8 2.7-5.4 0-1.9-.2-3.4-.5-3.4s-3.9 2-7.9 4.5c-4.1 2.5-7.7 4.5-8 4.5s-.6-1.6-.6-3.5c0-2.9-.6-3.8-4.2-6.3-2.4-1.6-6.2-3.9-8.5-5.1L109 187zm59 41.3c-9.2 5-10.2 6-9.8 10.2l.3 3.6 8-4.8c7.4-4.5 8-5.1 8.3-8.5.2-2 0-3.6-.5-3.6-.4 0-3.3 1.4-6.3 3.1m-89 8.4c0 3.1.6 3.8 5.4 6.9 3 1.9 6.8 4.2 8.5 5l3.1 1.7v-3.9c0-3.7-.2-4-7.9-8.5-4.3-2.6-8.1-4.7-8.5-4.7-.3 0-.6 1.6-.6 3.5"/>
    </g>
</svg>
