<svg xmlns="http://www.w3.org/2000/svg" width="341.333" height="341.333" version="1.0" viewBox="0 0 256 256">
    <g fill="#e5e5e5">
        <path d="M135.5 57c1.2 10.6 1.6 11.1 7.1 9l2.7-1.1-3-3.2c-1.7-1.8-4.1-4.8-5.3-6.7l-2.2-3.5zM119 55.1c-.7 1.1-2.7 3.8-4.6 5.9-3.7 4.1-3.6 4.4 1.3 5.4 3.4.8 3.3 1 4.8-9.2.7-4.6.2-5.4-1.5-2.1m-47 9c20 5.5 33.9 11.7 41.9 18.6 2.3 2 4.6 3.2 5 2.7.5-.5 1.4-3.1 2-5.8 1-4 1-5.1-.1-5.8-4.8-3.1-29.9-8.6-46.8-10.2-4.8-.4-5-.4-2 .5m97.5 1c-11.7 1.7-25.2 4.9-32.7 7.8-3.2 1.2-3.3 1.9-1.3 8.9l1.6 5.2 5.5-4.5c8.9-7.3 21.4-13 36.9-17 10.9-2.8 7.5-3-10-.4m30.5.1c-9.9 2-25 7.2-33.9 11.5l-9.3 4.6.6 4.4c.9 6.4 1.4 6.8 5 3.5 8.8-8.3 20.9-15.5 35.4-21.3 9.8-3.9 10.3-4.4 2.2-2.7M59.6 68.3C69.9 72.5 81.2 79 88.5 84.9c9.8 7.8 9.2 7.8 10.1 1l.6-4.4-7.3-3.7c-10-5-16.7-7.5-27.4-10.4-12.5-3.3-14.5-3-4.9.9m66.6 3.6c-.6 3.8-2.2 10.2-3.5 14.3l-2.4 7.5 2.4 2.9c1.9 2.4 2.5 2.7 3.3 1.4.5-.8 1-2.1 1-2.8 0-.6.5-1.2 1-1.2.6 0 1 .6 1 1.2 0 .7.5 2 1 2.8.8 1.3 1.4 1 3.3-1.4l2.4-2.9-2.4-7.5c-1.3-4.1-2.9-10.5-3.5-14.3-.7-3.8-1.5-6.9-1.8-6.9s-1.1 3.1-1.8 6.9M22 71.3c0 .3 3.5 1.7 7.8 3.2 11.8 4.1 31.7 14.8 41.7 22.2 5 3.7 13.3 11.1 18.6 16.5l9.6 9.7 2-2.2c5.4-6 5.5-6.6 2-11.5C95.9 98.4 81.1 88.9 59 80.7c-11.8-4.4-37-10.8-37-9.4m195.5 3.2c-19.9 5.1-31.2 9.5-46.2 17.9-8.6 4.9-12.2 8.1-18.5 16.4l-4 5.2 3.6 4.5c2.1 2.5 4 4.5 4.4 4.4.4 0 2.7-2.5 5.2-5.5 13.6-16.4 38-32.8 63.5-42.5 12.3-4.7 9.2-4.9-8-.4M102 83.1c0 1.1-.8 4.9-1.7 8.5L98.6 98l2.9 3c1.6 1.6 3.3 3 3.7 3 1.3 0 7.9-15 7.2-16.1-.8-1.4-8.5-6.9-9.6-6.9-.4 0-.8.9-.8 2.1m45.7 1.1c-2.6 1.8-4.7 3.7-4.7 4.1 0 1 7.2 16.7 7.6 16.7.2 0 1.9-1.6 3.7-3.7l3.4-3.6-1.9-6c-1-3.2-1.8-7-1.8-8.3 0-3.1-.7-3-6.3.8"/>
        <path d="m111.5 99.3-2.6 5.5 3.6 5.7c5.2 8.1 10.9 20.2 13.1 27.9 1 3.6 2.1 6.6 2.4 6.6s1.4-3 2.4-6.6c2.2-7.7 7.9-19.8 13.1-27.9l3.6-5.7-2.6-5.5-2.7-5.5-3.7 3.6c-2 2-5 5.8-6.6 8.6-1.7 2.7-3.2 5-3.5 5s-1.8-2.3-3.5-5c-1.6-2.8-4.6-6.6-6.6-8.6l-3.7-3.6zm-29 20.3c-6.7 6.1-15.2 11.9-22.6 15.4l-6.1 2.9 7.3 3.7c22.5 11.2 42.5 30.1 56.1 52.8 5.4 8.9 6 8.8 2.2-.5-8.7-21.4-23-39.6-39.8-51-3.6-2.4-6.6-4.7-6.6-5s1-1.1 2.3-1.6c3.2-1.5 17.7-13.2 17.7-14.4 0-.5-1.2-2.2-2.7-3.8l-2.8-3z"/>
        <path d="M107.6 118.9c-4 5.7-12.5 13.5-17.7 16.1-4 2.1-4.2 2.4-2.5 3.4 9.6 5.7 18.2 14.2 24.4 24.1 4 6.3 4.1 5.2.3-2.3-3.5-7-11.2-17.4-14.9-20.1l-2.7-2 5-4.3c6.4-5.4 13.5-13 13.5-14.4 0-.5-.6-1.8-1.3-2.8-1.2-1.6-1.5-1.5-4.1 2.3m36.4-1.7c-1.1 2.4-.9 3 2 6.6 1.8 2.3 5.9 6.2 9.1 8.8 3.3 2.6 5.9 4.8 5.9 4.9 0 .2-2.6 3-5.9 6.4-3.4 3.6-7.6 9.4-10 14-4.9 9.4-5.3 11.6-.9 4.6 6.3-10.2 10.2-14 24.6-24.1 1.4-1 1-1.5-2.8-3.4-4.3-2.2-14.7-11.9-18.6-17.5l-2.2-3z"/>
        <path d="M165.6 118.1c-1.4 1.7-2.6 3.4-2.6 3.9 0 1.1 14.6 12.9 17.7 14.3 1.3.5 2.3 1.3 2.3 1.6s-3 2.6-6.6 5c-16.8 11.4-31.1 29.6-39.8 51-3.8 9.3-3.2 9.4 2.2.5 13.6-22.7 33.6-41.6 56.1-52.8l7.3-3.7-6.1-2.9c-7.7-3.7-13.9-7.8-21.8-14.7l-6.1-5.3zm-55.9 10.7c-3.3 3.4-3.3 4.2-.3 9 4.6 7.4 11 20.8 14.2 30.2 3.7 10.7 4.1 10.2 1.9-2.6-2.6-14.9-10.3-39.4-12.4-39.4-.4 0-1.9 1.3-3.4 2.8m31.3-.1c-4.5 9.8-10.1 31.2-11.5 43.8l-.6 6 3.5-10.2c3.4-9.8 9.9-23.6 15-31.8l2.5-4-3.2-3.3c-1.7-1.7-3.4-3.2-3.7-3.2-.4 0-1.3 1.2-2 2.7"/>
    </g>
</svg>
