<svg xmlns="http://www.w3.org/2000/svg" width="341.333" height="341.333" version="1.0" viewBox="0 0 256 256">
    <g fill="#e5e5e5">
        <path d="M52.5 72c1.1.5 6.2 2.7 11.2 4.8 25.6 11 47.1 32.3 57.9 57.1 1.9 4.3 3.9 10.2 4.6 13 .6 2.8 1.4 5.1 1.8 5.1s1.2-2.3 1.8-5.1c2.9-12.6 13.6-31.7 24.1-43.1 10.7-11.7 27.2-22.9 42.5-28.8 4.7-1.8 8.4-3.5 8.2-3.7-.2-.3-4.2.5-8.7 1.6-29.6 7-54.7 22.7-65.5 41-1 1.7-2.1 3.1-2.4 3.1s-1.4-1.4-2.4-3.1c-10.7-18.2-35.7-33.9-65.1-41-8.5-2-11.3-2.3-8-.9"/>
        <path d="M126.2 77.7c-.6 3.8-2.2 10.5-3.5 14.9l-2.3 8.1 2.4 2.8c1.9 2.3 2.6 2.5 3.3 1.4.5-.8.9-2 .9-2.7 0-.6.5-1.2 1-1.2.6 0 1 .6 1 1.2 0 .7.4 1.9.9 2.7.7 1.1 1.4.9 3.3-1.4l2.4-2.8-2.3-8.1c-1.3-4.4-2.9-11.1-3.5-14.9-.7-3.7-1.5-6.7-1.8-6.7s-1.1 3-1.8 6.7m-95.6 3.6c22.6 8.4 45.1 23.1 60.6 39.6 9.4 10 8.5 9.9 13.6 2.4l2.2-3.1-5.5-7c-5.7-7.3-11.9-11.8-25-18.5-13.9-6.9-37.6-14.6-50-16.1-4.6-.6-4.3-.4 4.1 2.7M221.3 80c-11.2 2.6-27.9 8.3-38.2 13.1-14.9 7-22.5 12.3-28.6 20.1l-5.5 7 2.2 3.1c5.1 7.5 4.2 7.6 13.6-2.4 15.6-16.5 38.4-31.4 60.6-39.5 10.1-3.7 8.4-4.2-4.1-1.4m-115.2 47.5c-4.2 5.6-12 12.4-17.3 15.1l-2.9 1.5 6 4c7.2 4.8 16.1 14.2 20.1 21.2 3.3 5.8 3.8 5.8 1.4.1-2.5-6-8.1-14.2-13.7-20.1l-5.1-5.4 2.5-1.6c4.9-3.4 15.9-14.7 15.9-16.3 0-1-.6-2.3-1.4-2.9-1.1-.9-2.2 0-5.5 4.4m38.2-4.4c-.7.7-1.3 2-1.3 2.9 0 1.6 11.1 13 15.9 16.3l2.5 1.6-5.1 5.4c-5.6 5.9-11.2 14.1-13.7 20.1-2.4 5.7-1.9 5.7 1.4-.1 4-7 12.9-16.4 20-21.1l5.8-3.9-6.4-4.2c-5.6-3.7-9.9-7.9-16.1-15.9-1.4-1.8-2-2.1-3-1.1"/>
        <path d="m109.4 136.1-3.1 3.1 4 6.7c5.3 8.6 10.1 19 13.7 29.9 3 8.7 3 8.7 2.4 3.2-.8-7.6-4.1-22.7-6.5-30.3-2.7-8-6-15.7-6.8-15.7-.3 0-2 1.4-3.7 3.1m30.8 1.6c-4.6 11-9.3 28.9-10.6 41.3-.6 5.5-.6 5.5 2.4-3.2 3.6-10.9 8.4-21.3 13.7-30l4.1-6.6-3.2-3.1c-1.8-1.7-3.5-3.1-3.8-3.1s-1.5 2.1-2.6 4.7"/>
    </g>
</svg>
