<svg xmlns="http://www.w3.org/2000/svg" width="341.333" height="341.333" version="1.0" viewBox="0 0 256 256">
    <g fill="#e5e5e5">
        <path d="M125 10.7c-2 9-6.6 20.7-13.1 33.3-19.2 37.1-53.3 65.8-95.6 80.6-4.6 1.6-8.3 3.1-8.3 3.4s3.7 1.8 8.3 3.4c42.3 14.8 76.4 43.5 95.6 80.6 6.5 12.6 11.1 24.3 13.1 33.2 1.3 5.7 3 7.8 3 3.7 0-3.6 6.8-22.9 11.5-32.6 11.6-24 33-48.6 55-63.3 12.6-8.3 30.3-17.3 42.9-21.5 4.7-1.7 8.6-3.2 8.6-3.5s-3.9-1.8-8.6-3.5c-42.2-14.3-79.2-46.4-97.9-84.8-4.7-9.7-11.5-29-11.5-32.6 0-4.1-1.7-2-3 3.6m6.5 56c5.5 12 14.2 23.8 25.1 34.2 9.2 8.8 24.4 19.8 33.7 24.2 2.6 1.3 4.7 2.6 4.7 2.9s-2.1 1.6-4.7 2.9c-9.3 4.4-24.5 15.4-33.7 24.2-10.9 10.4-19.6 22.2-25.1 34.2-2.2 4.7-4.2 8.6-4.5 8.7-.3 0-1.9-3-3.5-6.7-9.9-22.9-35.4-48.6-59.3-59.9-3.4-1.6-6.1-3.1-6.1-3.4s2.7-1.8 6.1-3.4c23.9-11.3 49.4-37 59.3-59.9 1.6-3.7 3.2-6.7 3.5-6.7.3.1 2.3 4 4.5 8.7"/>
        <path d="M126 103.7c0 3.2-5.8 11.9-10.5 16.1-2.5 2.2-6.6 4.9-9 5.9-2.5 1-4.5 2-4.5 2.3s2 1.3 4.5 2.3c8.1 3.4 16.1 11.9 19 20.5l1.2 3.5 2.8-6.2c3.3-7.2 11-14.9 17.9-17.7 2.5-1.1 4.6-2.1 4.6-2.4s-2.1-1.3-4.6-2.4c-6.8-2.8-14.6-10.5-17.8-17.6-2.8-6.3-3.6-7.2-3.6-4.3"/>
    </g>
</svg>
