<svg xmlns="http://www.w3.org/2000/svg" width="341.333" height="341.333" version="1.0" viewBox="0 0 256 256">
    <g fill="#e5e5e5">
        <path d="M106.4 4.1c-1.7.5-3.9 1.8-5 3-1.8 2-1.8 2.1.1 3.6 2.4 1.8 9.4 1.2 17-1.3 6.5-2.2 7.9-3.2 6.4-5-1.3-1.6-13.4-1.8-18.5-.3m25.9-.5c-4.3 1.9 4.2 6.6 14.5 8 8.5 1.1 12.3-2.9 6-6.3-3.3-1.6-17.9-2.9-20.5-1.7M86.5 9.2c-4.4 1.6-10.5 5.9-12.9 9.1-1.8 2.4-1.8 2.9-.6 3.7 2.2 1.4 5.5.4 15-4.4 9.1-4.7 11.5-7 9-8.6-1.9-1.2-6.7-1.1-10.5.2m72.4.4c-1.1 1.4-.9 1.9 1.1 3.4 4.5 3.4 16.5 8.9 20 9.2 4.8.4 4.9-1.9.4-6.5-6.2-6.1-18.5-9.7-21.5-6.1M121 11.8c-2.4 1.1-4.3 3.2-5.9 6.6-2.2 4.4-2.3 5.3-1.3 9.3 1.7 6.3 3.7 8.9 8.8 11.3 13.1 6.4 26.1-10.8 17.4-23.1-4.1-5.7-12.3-7.5-19-4.1m-22 3.1c-4.5 1.5-12.5 5.8-14.3 7.9-2.8 3-1.9 6.6 1.8 7.2 6.6 1.2 18.5-2.2 22.9-6.5 2-2 2.1-5.9.2-7.4-1.9-1.6-7.5-2.2-10.6-1.2m48.8.6c-9.4 5.3 5.2 15.2 21.4 14.6 4.4-.2 5.3-3.3 2.2-7.1-5.6-6.6-18.2-10.6-23.6-7.5m-87 2c-.2.3-4.9.9-10.3 1.5-6.3.6-11.6 1.8-14.3 3.1-7.7 3.8-12 12-14 26.6-.5 3.5-.8 6.3-.6 6.3.1 0 2.5-1.1 5.2-2.5l4.9-2.5.7-7c1-10.7 3.1-14.8 8.5-16.5 2.1-.6 1.9-.3-1 2.3-1.9 1.7-3.2 3.3-2.9 3.5.3.3 3-.3 6-1.3 3-1.1 6.6-1.9 8-2 1.8 0 4.4-1.9 8.5-6 4.7-4.8 5.5-6 3.9-6-1.1 0-2.3.2-2.6.5m135.9 5.4c3.9 3.9 6.9 6.1 8.5 6.1 1.2.1 4.8.9 7.8 2 3 1 5.7 1.7 5.9 1.4.3-.2-.9-1.8-2.5-3.5-2.8-2.9-2.8-3-.4-2.1 4.7 1.8 6.4 5.7 8.5 20.3.5 3.1 1.1 3.9 4.8 5.4 2.3 1 4.5 2 4.9 2.2 1.8 1.1-2-17.3-4.7-22.7-4.4-8.6-9.5-11.5-23.2-13-4.9-.5-10.4-1.2-12.3-1.5l-3.5-.7zM62.5 28.4c-4.1 3.9-4.6 4.8-4.3 8.1.2 2.3 1 4.2 2.1 4.9 4.8 3 15.5-9.2 12.9-14.9-1.8-3.9-5.4-3.2-10.7 1.9m14.7-2.1c-2 2.1-2.9 4.7-1.8 4.7 2.4 0 5.4-2.3 5.8-4.4.7-3.3-1.1-3.4-4-.3m97.6.3c.4 2.1 3.4 4.4 5.8 4.4 1.2 0 .1-2.9-1.9-4.8-3.1-2.9-4.5-2.8-3.9.4m8.9-1.9c-1.3 1.3-.7 6.4 1.2 10.1 2.4 4.7 8.3 8.2 10.9 6.6 2.3-1.5 2.7-6.3.8-9.9-2.8-5.1-10.6-9.2-12.9-6.8M101 30.9c-10.4 3.2-13.9 9.3-8.5 14.7 2.3 2.2 3.1 2.5 6.8 1.9 6-1 12.2-4.2 13.7-7 1.8-3.3.5-7.2-3-9-3.1-1.6-5.1-1.8-9-.6m44.9.6c-1.5.8-3 2.7-3.3 4.1-1.3 5.2 4.8 10.3 14.1 11.9 3.7.6 4.5.3 6.8-1.9 5.2-5.2 2.4-10.9-6.8-14-5.8-1.9-7.4-1.9-10.8-.1m-70.5 2.4c-6.8 4.2-8.2 14.2-2 14.9S88 42.8 88 37c0-5-6.7-6.7-12.6-3.1"/>
        <path d="M169.8 33.1c-3.3 1.9-2.3 6.8 2.2 11 6.4 6.1 14.1 6.5 14.8.6 1-7.9-10.3-15.6-17-11.6m-117 8.6c-2.3 2.7-3.8 5.9-3.8 8.2 0 3.3 3.7 2.6 6-1.2 3.6-5.9 1.8-11.6-2.2-7m146.2.2c0 4.6 3.7 10.1 6.7 10.1 2 0 1.2-5.6-1.2-9.4-2.1-3.1-5.5-3.5-5.5-.7m-84.8 3.9c-3.2 2.6-3.3 2.8-1.5 4.4 4 3.4 6.9 4.2 15.3 4.2 6.8 0 9.3-.4 12.8-2.2 2.3-1.2 4.2-2.6 4.2-3.1s-1.4-2-3.1-3.4c-2.9-2.2-3.4-2.3-6.7-1.1-4.9 1.8-9.5 1.7-13.9-.1-1.9-.8-3.6-1.5-3.7-1.5 0 0-1.6 1.3-3.4 2.8M63.4 45c-3.7 1.4-7.5 7-7.2 10.4.4 4.6 3.7 4.6 7.6.1 1.8-1.9 3.5-4.7 3.8-6.1.8-3.3-1.3-5.5-4.2-4.4m125.6.5c-2.7 3.2 4.4 14.2 8.7 13.3 4.3-.8 1.8-9.9-3.7-13.1-3.4-2.1-3.5-2.1-5-.2M83.1 48c-3.9 2.5-4.2 2.8-2.3 3.4 2.5.8 5.7-1 7.1-4.1 1.3-2.9.6-2.8-4.8.7m85-1.5c.6 2.9 5.3 5.9 7.4 4.7 1.7-.9 1.6-1.1-.6-2.2-1.3-.7-3.5-2-4.8-2.8-2.1-1.5-2.3-1.4-2 .3"/>
        <path d="M35.2 52.2C16.1 59.2 7 75.1 10 95.9c1.2 8 9.1 32.8 14.2 44.6 5.6 12.8 13.9 28.8 17.5 33.7 5.6 7.7 16.6 12.7 27.7 12.8 5.1 0 4.1-.9-2.1-2l-4.8-.8 5-.1c8.9-.2 12.8 2.6 25.6 18.3 22.4 27.3 27.1 33.2 30.7 38.8 2 3.1 3.9 5.7 4.2 5.7.3.1 1.8-2 3.5-4.6 3.2-5.1 13.6-18.2 31.8-40.2 13.3-15.9 16.4-18.1 25.2-18l5 .1-4.8.8c-2.7.5-5.2 1.2-5.5 1.6-.9.9 11.4-.3 16-1.6 5.8-1.7 12.9-7.1 17-13 8.7-12.7 25.7-54.9 29.4-73 1.8-9.1 1.4-17.1-1.3-25.5-1.2-3.7-3.3-6.7-8.2-11.6-5.8-5.8-7.7-6.9-15.4-9.7-4.8-1.8-9.2-3.2-9.6-3.2-.5 0 .4 3 1.9 6.7 2.3 5.8 3.3 7.2 7.1 9.3 5.3 3.1 10.4 10.4 11.5 16.2l.7 4.3.9-3.5c.7-3.3.4-7.9-.9-12.5-.3-1.3-.2-1.7.5-1 .5.5 1.5 3.4 2.1 6.3 1.5 7.4-.5 19.3-7.1 41.7-5.7 19.5-19.5 36.3-37 45.1-10.7 5.4-16.4 6.5-31.4 6.2l-13.1-.2-3.4 3.8c-1.9 2.1-4.5 5.4-5.8 7.3-2.5 3.4-2.5 3.4-.5 5.4 2 1.9 2 1.9 5.9-3.7 4.8-6.9 9-10.3 10.6-8.7.8.8.5 1.3-1.1 1.8s-1.9 1-1 2c1.4 1.6 1.4 1.6-6.3 11.9-3.2 4.4-6.7 9.7-7.8 11.7l-1.9 3.8 2.2 1.6c2.7 1.8 3 1.6 11-11.5 7.8-12.9 10.5-16 13.6-15.9 2.6 0 2.6.1.5.9-2.7 1.1-2.8 1.8-.7 4.2 1.6 1.7 1.8 1.7 5-.3 1.9-1.1 4-1.9 4.7-1.6.7.2 0 1-1.6 1.8-1.5.7-5.1 4.4-7.9 8.3s-7.4 10-10.3 13.6-9.2 11.9-14 18.5-9.1 12-9.5 12-4.5-5.2-9-11.5-10.8-14.7-13.9-18.5c-3.1-3.9-7.9-10.1-10.5-13.8-2.6-3.8-6.2-7.7-8-8.8-1.7-1-2.4-1.9-1.6-1.9s3 .9 4.9 2.1c3.2 1.9 3.4 1.9 4.7.2 1.8-2.4 1.7-3-.3-4.2-1.6-.9-1.6-1 .3-1.1 2.8 0 5 2.6 12.5 14.5 3.4 5.5 7 11 7.9 12.2 1.7 2.2 1.8 2.3 4 .5l2.3-1.9-2.8-4.6c-1.5-2.6-5.3-8.2-8.6-12.4-4.8-6.3-5.6-7.9-4.8-9.5.9-1.6.7-2-1-2.5-2-.5-2-2.3-.1-2.3 1.7 0 7.9 6.1 10.7 10.5 1.5 2.5 3.1 4.5 3.4 4.5s1.2-1.1 1.9-2.5c1.2-2.2 1-2.8-2.6-7.1-2.1-2.5-4.7-5.6-5.6-6.8-1.6-1.9-2.4-2-14.5-1.8-14.9.4-19.6-.5-30.8-5.9-18.6-8.9-31.8-24.5-37.9-44.9-7.4-24.9-9.4-39.2-6.2-46.5 1.1-2.7 1.2-2.1.9 6l-.3 9 1.9-5.8c2.5-7.5 6.2-12.3 11.7-15 2.4-1.1 4.4-2.6 4.4-3.1 0-.6 1.1-3.7 2.4-6.9 1.5-3.5 1.9-5.7 1.2-5.6-.6 0-4.8 1.4-9.4 3.1M32 134.9c9 13.8 27.1 29.6 42.9 37.6 4.7 2.3 5.2 2.9 3.7 3.7-3.3 1.9-10.8 1.3-15.6-1.2-5-2.5-16.6-14.1-23.7-23.5-5.1-6.8-14.4-24.5-12.9-24.5.2 0 2.7 3.6 5.6 7.9m193.5 2.3c-2.6 5.1-6.5 11.7-8.8 14.7-6.7 8.7-19.9 21.6-24.2 23.7-4.3 2-12.1 2.3-15.1.6-1.5-.8-.8-1.5 4.7-4.2 16.6-8.4 33-22.6 41.4-36 3.2-5 5.9-8.9 6.2-8.6.2.2-1.6 4.6-4.2 9.8"/>
        <path d="M52.4 161.1c1.4 2.2 6.6 5.7 6.6 4.5 0-.3-1.9-1.9-4.2-3.7-3.8-3-4-3.1-2.4-.8m148.1 1.5c-3.9 3.4-3.9 3.5-.8 2 1.8-.9 3.7-2.5 4.3-3.6 1.4-2.6 1.2-2.5-3.5 1.6M69.9 53.3c-3.9 2.6-8.1 8.4-7.7 10.6.5 2.6 5.9 2.5 9.8-.1 4.4-2.9 7.3-8.4 5.9-11-1.3-2.4-3.9-2.3-8 .5m108.8-1.6c-1.2 1.2-.7 5.3.9 7.8 3.7 5.7 14.4 9 14.4 4.5 0-6-12-15.7-15.3-12.3M48.3 54.8c-1.8 1.2-5 9.1-5.8 14.3-.9 6.4.6 9.1 4.8 8.7 2.6-.2 3.6-1 5.1-4.3 4.7-9.5 1.8-22.5-4.1-18.7m154.6.8c-2 2.5-1.7 12.3.5 17.2 3.1 6.9 9.8 7 10.4.3.5-4.7-3.4-16.8-5.8-18.1-2.6-1.4-3.5-1.3-5.1.6M94 56.6c-5.3 1-9.6 2.7-12.5 4.9-4 2.9-7.6 10.4-7.8 16-.2 5.2-.8 5.6-2.7 1.7-1.1-2.3-1.4-2.4-1.8-.9C67.3 87 80.5 101 90.6 101c4.8 0 14.2-1.8 14.8-2.8.2-.4-2-.7-5-.8-5.2-.1-10.1-2.5-8.9-4.4.3-.4-.2-1.4-1.1-2.1-.8-.7-2.4-3-3.5-5.1S84.3 82 83.5 82c-4.1 0-3.7-8.6.6-10.7 3.4-1.8 16.5-1.6 22.7.2 6 1.8 13.2 7 15 10.9 1.7 3.3.8 4.7-1.3 2-1.3-1.7-1.4-1.5-1.5 3 0 10.1-6.9 16.5-17.6 16.7h-5.9l4.4 1.4c2.4.8 5.8 2.8 7.6 4.5l3.3 3.2 1.6-2.3c1.9-2.7 2.1-1.2.4 2.6-1.5 3.4-2.5 3.2-6.5-1.4-2.7-3.2-4.3-4.1-7.9-4.7-6.2-.9-7.2.4-4 5.1 2.9 4.2 2.7 5.8-.4 3-3-2.7-3.5-1.2-.7 2.1l2.5 2.8 4-1.8c2.3-1 4.8-1.6 5.6-1.3 2 .8 2.1 5.6.2 11.8-1.1 3.6-1.2 5.1-.3 6.9 1.8 3.5 3.4 3.5 5.4-.2l1.8-3.3.3 5.5c.5 8.2 3.3 9.3 7.2 2.7l2.5-4.2.3 5.8.3 5.8 4.7-.3 4.7-.3.5-5.5.5-5.5 2.2 3.5c1.3 1.9 2.4 3.9 2.6 4.4s1.3.6 2.5.2c1.9-.7 2.2-1.5 2.3-6.9v-6.2l2 4.5 2 4.5 2-2.4c2.3-2.8 2.4-5.9.4-12.4-2.3-7.7.4-10.7 6.5-7.2 3.4 2 4.6 1.8 7-.7 2.8-3 2.5-4.2-.5-2.2-3.5 2.3-4.1 1.2-1.6-2.9 3.2-5.3 2.8-6.1-2.6-5.4-3.9.5-5.5 1.4-8.4 4.7-2 2.2-4.1 4-4.6 4-1 0-3.3-4.3-3.3-6.3 0-.6.7-.1 1.6 1.1l1.5 2.2 4.2-3.4c2.3-1.9 5.6-3.8 7.2-4.2 2.6-.8 2.2-.9-3.3-1.5-9.7-.9-15.1-6-16-14.8-.2-2.8-.8-5.1-1.3-5.1s-.9.4-.9 1c0 .5-.4 1-.9 1-2 0 .4-5.2 3.7-8.1 6.1-5.4 11.6-7.2 22.4-7.7 12.1-.5 14.8.7 14.8 6.7 0 2.4-.6 4.4-1.7 5.2-.9.8-1.7 1.2-1.9.9s-1.7 1.6-3.4 4.2c-1.8 2.7-3.7 4.8-4.3 4.9-.7 0-.3.4.8.8 3.5 1.4-2.9 4.6-9.1 4.6-6.4 0-6.1 1 .7 2.4 11 2.4 15.6 1.2 23.6-6.2 5.5-5 7.3-8.4 7.3-13.4l-.1-3.8-1.5 2.7c-2.1 4-2.9 3.5-3.1-2.1-.3-8.7-5.6-16-13.6-18.8-6.6-2.2-20.4-2.2-30 .1-8.3 2-13.3 2-21.2.1-6.6-1.6-19.6-2.6-23.5-1.9m37.6 50.4c2.6 4.8 4.4 6.3 4.4 3.7 0-.6.5-.4 1.1.6 1.5 2.6.1 7.4-2.9 9.7q-5.1 4.05-6.3-1.5l-.7-3-.1 3.2c-.1 2.5-.6 3.3-1.9 3.3-4.1 0-7.8-7.3-6-11.8 1.1-2.6 1.1-2.7 1.7-.4.5 1.9 1 1.5 3.5-3.3 1.6-3 3.2-5.5 3.7-5.5.4 0 2 2.2 3.5 5M57.4 67.6c-2.9 2.9-5 10-3.5 11.8 3.5 4.2 10.1-7.3 6.8-11.8-1.4-1.9-1.4-1.9-3.3 0m138.2-.8c-1.1 1.1-.6 7.3.9 10.1 1.8 3.5 4 4.5 5.6 2.5 2.6-3.2-3.7-15.4-6.5-12.6M39.8 71c-1.1 3.8-1 5.6.3 4.3.6-.6.9-2.3.7-3.9l-.3-2.9zm175.3-.5c0 1.1.4 2.9.9 4 .8 1.8.9 1.8.9-.5 0-1.4-.4-3.2-.9-4-.8-1.2-1-1.2-.9.5M46.8 80.6c-3.1 1.6-6.6 8.3-7.4 14.5-.5 3.9-.3 4.9 1.9 7.4 2.4 2.8 2.5 2.9 5 1.2 5-3.3 8.7-14.3 6.7-20.2-1.3-4-2.8-4.7-6.2-2.9m157.9.2c-3.6 3.9-1 18.3 4 22.2 3.2 2.5 3.7 2.5 6.4-.3 1.7-1.8 2-3 1.6-7.3-.6-6-3.7-12.6-6.9-14.8-2.8-2-3.1-2-5.1.2"/>
        <path d="M193 81.3c0 4-7.5 16.2-15.5 25.1-4.8 5.5-9.4 11.5-10.3 13.5-.8 2-1.8 7.5-2.2 12.2-.4 5.7-1.2 9.6-2.4 11.4-2.4 3.7-3 2.6-1.1-2 .9-2 1.4-4 1-4.3-.3-.3-2.7 1.5-5.3 4-8.2 8-26.5 21.8-29 21.8s-18.6-11.8-28.3-20.8c-3.1-2.8-5.9-5.2-6.3-5.2-.3 0 .3 2.3 1.3 5 1.1 2.8 1.8 5 1.6 5s-1.4-1.4-2.6-3.2c-1.9-2.6-2.4-4.7-2.5-10.9-.2-10.5-3-16.1-13.3-27.3-7.6-8.2-14.1-18.4-14.1-22 0-.8-.5-1.8-1.1-2.2-1.7-1-.2 9.8 2.3 16.3 1 2.9 5 9.6 8.8 14.9 5.3 7.4 7.2 11 8.1 15.3 1.7 8.7 2.5 10.7 6.4 16.6 8.7 13 17.9 20 31.9 24 7.4 2.2 12.5 1.6 23.1-2.7 6.6-2.7 9.2-4.5 15-10.3 8.6-8.7 13.2-16.3 15-24.8 1.6-7.8 3.3-11.2 9.4-19.2 6.2-8.1 10-16.9 10.8-24.9.3-3.7.3-6.6-.1-6.6-.3 0-.6.6-.6 1.3M36.9 84.2c-1.6 3-2.5 16.8-1.1 16.8.5 0 1.2-1.9 1.6-4.3 2.1-15.2 2-17.2-.5-12.5m180.4 1.5c.4 2.1.9 6.4 1.3 9.5.4 3.2 1 5.8 1.4 5.8 1.5 0 2-4.9 1-9.9-1.5-8.1-4.9-13-3.7-5.4m-160.7-.5c-2.3 3.2-2 6.1.9 8.8 1.4 1.3 2.6 2.2 2.8 1.9.7-1-.6-12.9-1.3-12.9-.5 0-1.6 1-2.4 2.2m139.2 4.3c-.1 3.6 0 6.5.5 6.5 1.6 0 4.7-4.1 4.7-6.3 0-2.4-2.5-6.7-4-6.7-.4 0-1 2.9-1.2 6.5m-143.5 10c-2.4 1.7-6.3 11.1-6.3 15.1 0 6.9 5.2 8.6 9.3 3.1 5.7-7.6 7.1-13.3 4.1-17.5-1.8-2.6-4.1-2.8-7.1-.7m144.9-.2c-3.3 3.9-2.2 10.6 2.9 17.6 5.2 7.2 10.8 4.6 9.5-4.6-1.3-10-8.6-17.6-12.4-13m-161.6 5.9c-1.1 1.6-1.6 4.6-1.6 9.8s.5 8.2 1.6 9.8c2.1 3 3.1 2.8 5.4-1.1 2.8-4.6 2.8-15.9 0-18.7-2.6-2.6-3.5-2.5-5.4.2m180.8-1.4c-3.7 2.4-4.6 13.3-1.6 19.1 1.9 3.8 3 4.5 5 3.2 3.5-2.2 3.8-17.6.4-21.4-1.7-1.9-2.2-2-3.8-.9m-153.8 2.8c-1 2.6 2 6.4 5 6.4h2.6l-2.6-3.1c-1.4-1.7-2.6-3.5-2.6-4 0-1.5-1.7-1-2.4.7m127.1 1.8c-3.4 4.3-3.4 4.8 0 4.4 2-.2 3-1.1 3.7-3.1 1.6-4.6-.6-5.4-3.7-1.3m-131.6 9.2c-2.7 3.4-4.7 12.7-3.5 16.2 1.1 3.1 4.9 4.8 8.7 3.8 5.1-1.3 9.1-11.7 6.7-17.6-2.3-5.5-8.4-6.8-11.9-2.4"/>
        <path d="M72 116.8c0 4.4 4 9.6 5.8 7.7.7-.7-2.6-7.1-4.5-8.6-1-.9-1.3-.7-1.3.9m108.5 1.9c-3.9 5.8-2.9 8.7 1.5 4.3 1.7-1.7 2.9-8 1.5-8-.2 0-1.6 1.7-3 3.7m7.8-1.5c-4.5 4.9-4.1 11.7.9 17.3 3.3 3.9 6.9 4.5 10.6 1.9 2.6-1.8 2.9-7.6.8-13.7-2.8-7.7-8.1-10-12.3-5.5m-142 6.8c-2.8 1.2-6.3 6.7-6.3 10 0 2.9 5.7 10.3 7.2 9.4 1.9-1.2 4.8-8.9 4.8-13.1 0-2.5-.6-4.8-1.6-5.7-.8-.9-1.6-1.6-1.7-1.5-.1 0-1.2.4-2.4.9m159.1.7c-1.3 1.3-1.5 2.8-1.1 6.6.7 5.1 3.5 11.9 5.2 12.4.6.2 2.5-1.9 4.3-4.6 3.2-4.7 3.3-5 1.9-8.2-2.5-5.9-7.5-8.9-10.3-6.2m-134.4 7c-3.2 4.1-2.5 12.6 1.4 16 3.4 2.9 5 2.9 7.7.2 1.9-1.9 2.1-2.9 1.6-7.7-1-9.7-6.4-14-10.7-8.5m107.1-1.4c-1.8 2.2-4.1 8.5-4.1 11.1 0 6 3.9 9.8 8 7.6 5.1-2.7 6.8-10.6 3.6-16.8-1.8-3.4-5.4-4.4-7.5-1.9M15.5 142c-2.8 3.1-3.2 13.3-.8 18 4.1 7.9 9.3 3.3 9.3-8.2 0-10.1-4-14.7-8.5-9.8m217.8 1.7c-3.1 7.5-.4 20.3 4.4 20.3 2.6 0 5.3-6.2 5.3-12.3 0-7.3-2.1-11.7-5.6-11.7-1.9 0-2.8.8-4.1 3.7m-179.5-1.2c-4.5 2.5-4.6 5.3-.2 9.1 5 4.2 13.1 8.7 14.4 7.9 1.5-1 1.2-9.3-.5-13-2.5-5.2-8.3-6.9-13.7-4m137 1.4c-2.7 2.4-3.2 3.6-3.6 8.9-.3 4.9-.1 6.3 1.1 6.8 1.7.6 7.8-2.9 14.4-8.3 3.6-2.9 4.1-3.7 3.3-5.4-1.3-2.4-6.1-4.9-9.4-4.9-1.4 0-4 1.3-5.8 2.9m-22.2 3.3c-3.1 4.1-3.3 5.2-.7 3.8 1.1-.5 2.9-1 4-1 2.4 0 2.5-.6.7-3.9l-1.3-2.4zM83 147c-.9 1.7-.8 2.1.7 2.6 1 .3 2.8 1 4.1 1.5 2.8 1.1 2.8-.1.1-3.5-2.5-3.1-3.5-3.3-4.9-.6m-57.3 6.5c-.8 1.8.8 5.5 2.3 5.5 1.4 0 1.2-2-.4-4.9-1.1-2-1.4-2.1-1.9-.6m49.6.5c-3.3 1.9-5.3 6.4-3.7 8 1.4 1.3 11.4 4 15 4 3.4 0 4.4-1.3 4.4-6 0-3.7-5-8-9.3-8-1.8 0-4.7.9-6.4 2m92.6.9c-4.7 4.8-3.8 11.1 1.6 11.1 3.7 0 16.5-3.7 16.5-4.8 0-.4-.9-2.2-2-4-3.6-5.9-11.3-7-16.1-2.3m60.1.1c-.7 1.7-1 3.3-.7 3.7 1 1 3.7-1.8 3.7-3.8 0-3.1-1.7-3-3 .1M6.9 162.1c-2.4 4.6 2.1 18.9 6 18.9 4.7 0 6.8-9.8 3.3-15.3-2.1-3.1-5.1-5.6-6.9-5.7-.7 0-1.7 1-2.4 2.1m235.9.6c-5.1 5.5-6.3 11.7-3.2 16.1 3.7 5.3 9.1-.7 10.2-11 .7-7.7-2.4-10-7-5.1m-219.1 1.2c-3.3 5.6-1 18.1 3.5 18.9 4.7.9 7.9-14.3 4.2-19.6-2.2-3.1-5.6-2.8-7.7.7m70.3-2c0 .5-.3 1.6-.6 2.5-.5 1.3.2 1.6 3.5 1.6 4.5 0 5.1-.8 2.3-3.3-2-1.8-5.2-2.3-5.2-.8m63.2.7c-2.9 2-2 3.4 2.4 3.4 3.4 0 3.9-.5 2.8-3.4-.8-2-2.3-2-5.2 0m67.7 0c-2.1 2.6-2.3 12.4-.2 16.4 2.4 4.7 4.7 5 7.3.8 3.9-6.5 1.7-18.8-3.4-18.8-1.3 0-2.9.7-3.7 1.6M35.6 172.9c-1.6 2.6 1.7 7.2 6.2 8.5 3.1 1 2.7-.2-1.7-5.3-2.4-2.7-4.1-3.9-4.5-3.2m180.1 3.8c-2 2.5-3.6 4.8-3.4 5 .9.8 6.8-2.1 7.7-3.7 1.2-2.2 1.3-6 .3-6-.5 0-2.5 2.1-4.6 4.7m-198.2 4.2c-.3 1-1.2 2.2-2 2.5s-1.5 1.4-1.5 2.4c0 2.1 6.9 13.2 8.2 13.2s2.8-4.8 2.8-8.8c0-7.1-5.8-14.4-7.5-9.3m216.1.6c-3.1 4.7-3 16.2.1 17.2 1.3.5 8.3-10.4 8.3-12.7-.1-1.7-4.4-7-5.8-7-.6 0-1.7 1.1-2.6 2.5m-201.9 1.3c-5.3 5.8-2.9 18.2 3.4 18.2 2.6 0 5.3-6.2 4.6-10.7-.8-4.6-2.9-8.7-4.8-9.1-.8-.1-2.3.6-3.2 1.6m186.7 1.4c-2 3.7-2.2 11.4-.5 14.6.7 1.3 2.1 2.2 3.6 2.2 5.8 0 8.3-12.4 3.5-17.5-3.1-3.3-4.6-3.2-6.6.7m-173.8.4c-2.2 2.1-2.1 11.6 0 14.9 2.8 4.3 7.8 3.1 9.3-2.3 1.3-4.3-.3-9.6-3.6-12.2-3.1-2.4-3.7-2.5-5.7-.4m160.3 1.3c-2.4 2.5-2.9 3.8-2.9 7.9 0 10.6 9 11.3 11.4.9.8-3.6-1-10.3-3-11.1-2.3-.9-2.3-.9-5.5 2.3M56 189.5c0 2 2.3 2.9 5.6 2.1 3.2-.8 2.2-2.1-2.3-3.1-2.7-.5-3.3-.3-3.3 1m139.5-.8c-3.5.9-3.9 2.2-1 2.9 2.8.7 6.2-.6 5.8-2.2-.2-1.1-2.1-1.4-4.8-.7m-133.1 5.8c-2 3.1-1.2 9.1 2 13.7 5.6 8.4 12.4.4 8.2-9.6-1.4-3.4-5-6.6-7.3-6.6-.7 0-2 1.1-2.9 2.5m13.3-1.8c-2.1 2-.2 9.4 3.2 13 2.8 2.9 4.7 2.9 6.6-.1 1.4-2.1 1.4-2.8.2-5.8-2.2-5.1-7.9-9.2-10-7.1m97.7 2.7c-2.6 2.6-3.4 4.3-3.4 6.9 0 4 2 6.1 4.9 5.2 3.9-1.2 7.9-10.2 6-13.6-1.4-2.8-3.7-2.3-7.5 1.5m13.9-1.9c-4.6 3.2-6.4 13.3-3.1 17.2 4.9 5.9 13.8-9.5 9.4-16.2-1.9-2.9-3.3-3.1-6.3-1m-161.8 6.6c-.5 1.6.2 3 3.1 6 4.4 4.5 5 4.7 5.7 1.7.5-1.6-.4-3.1-3.4-6-2.1-2.1-4.1-3.8-4.3-3.8-.3 0-.8.9-1.1 2.1m199.8 1.4c-3 3.1-4.6 8.5-2.5 8.5 1.7 0 8.4-7.9 8-9.6-.5-2.8-2.1-2.5-5.5 1.1M53 203.2c-2.5 4.1-2.7 12.4-.4 15.6 5.2 7.5 11.1-5.4 7-15.3-1.9-4.4-4.1-4.4-6.6-.3"/>
        <path d="M196.9 202.1c-.6 1.2-1.3 4.7-1.6 7.8-.5 5.1-.3 6 2 8.7 2.1 2.4 2.9 2.7 4.4 1.8 1-.6 2.4-2.8 3.1-4.9 2.7-8.2-4.2-20.2-7.9-13.4m-159.5 2.6c-2.1 4.8-.5 10.8 3.2 12.5 6 2.7 9.5-8.2 4.5-13.6-3.5-3.7-5.9-3.3-7.7 1.1m173.6-1.3c-3.1 3.5-3.3 9.8-.2 12.8 2.1 2.1 2.4 2.2 5 .8 3.8-2.2 5.1-7.8 2.9-12.5-2-4.2-4.4-4.5-7.7-1.1m-123 1c0 1.6 2.4 3.8 3.3 3 .8-.9-1.1-4.4-2.3-4.4-.6 0-1 .6-1 1.4m77.3.5c-1.3 2.1-.8 3.2 1.3 2.4 1.4-.5 2-4.3.6-4.3-.4 0-1.3.9-1.9 1.9m-41 5.4-3.2 4.2 3.2 5.7c1.7 3.2 3.4 5.8 3.7 5.8 1.3 0 6.9-11.3 6.2-12.4-.9-1.7-6-7.6-6.4-7.6-.2.1-1.7 2-3.5 4.3m-35 .9c-4.7 5.2-5.8 12.1-2.4 15.2 2.9 2.6 5.2 1.6 7.8-3.3 5-9.5.8-18.7-5.4-11.9m70.9-1c-1.9 1.9-1.4 7 1.4 12.6 2 4.1 3.1 5.2 5 5.2 2.9 0 4.4-2.6 4.4-7.9 0-3.1-.7-4.9-3.1-7.6-3.2-3.6-5.6-4.4-7.7-2.3M76 212c-4.4 4.4-5.5 13.4-2 16.5 1.8 1.6 2.2 1.6 4.3.2 3.8-2.5 6-12.4 3.7-16.8-1.4-2.5-3.5-2.4-6 .1m99.2-1.2c-3.6 2.4-1.6 15.9 2.8 18.2 2.4 1.3 2.6 1.3 4.4-.6 3.4-3.4 1.2-14.9-3.3-17.4-2.3-1.2-2.3-1.2-3.9-.2m-112.9 7.6c-2.8 3.5-4.6 8.3-3.9 10.1.3.8 2 2.4 3.8 3.5l3.3 2 1.7-2c2.4-2.9 3.2-9.3 1.6-12.7-1.7-3.7-4.1-4-6.5-.9m36.3-.6c-1 2.9.3 5.2 3 5.2 3.1 0 3.1-2 0-4.9-2.3-2.2-2.4-2.2-3-.3m89.4-.2c-1.8 2.1-1.5 11 .5 14l1.6 2.5 3.9-2.2c4.4-2.5 4.8-4 2.6-9.2-2.5-6.1-6.1-8.2-8.6-5.1m-34.4 1.9c-2.1 3.2-2 3.5.8 3.5 2.5 0 4.3-3 3.1-5-1-1.6-2.2-1.2-3.9 1.5m-48.1 6.6c-2.1 3.4 3.9 9.9 6.7 7.1.8-.8.4-2-1.6-4.7-2.8-3.6-4-4.2-5.1-2.4m40 2.4c-2.1 2.8-2.4 4-1.6 4.8 2 2 6.6-1.3 6.6-4.8 0-4.1-1.8-4.1-5 0m-49.7-.8c-2.8 3.2-3.8 6.1-3.8 10.7 0 3.6.5 4.8 2.6 6.5 2 1.6 3.1 1.8 4.5 1 4.7-2.5 6.8-14.9 3.1-18.2-2.4-2.2-4.5-2.1-6.4 0m57.8.5c-3.2 4.5-1.1 15.4 3.3 17.8 2.4 1.2 5.5 0 6.5-2.6 3.4-8.9-5-22.1-9.8-15.2M81 230.9c-2.4 4.6-.3 12.1 3.4 12.1 3.4 0 6.3-7.1 4.6-11.4-1.2-3.3-6.3-3.7-8-.7m87.2-.7c-1.7 1.7-1.5 7.9.4 10.6 1.7 2.4 4.3 2.9 6.2 1 1.5-1.5 1.6-8.2.2-10.9-1.2-2.1-5-2.5-6.8-.7m-61 6.4c-4.9 3.4-.4 12.9 7.3 15.4 9.7 3.2 10.9-6 1.9-14-3.9-3.4-6-3.7-9.2-1.4m32.8 1c-3.9 3.3-7.3 9.9-6.5 12.5 1.5 4.6 9.3 3.1 14.5-2.8 3.7-4.1 4-8.5.8-10.7s-5.2-2-8.8 1"/>
    </g>
</svg>
