<svg xmlns="http://www.w3.org/2000/svg" width="341.333" height="341.333" version="1.0" viewBox="0 0 256 256">
    <g fill="#e5e5e5">
        <path d="M76 9.5c6.7 9.7 7.7 16.9 3.6 24-2.5 4.1-6.7 7.7-20.1 17-13 9-19.8 14.9-25.7 22.3-11.1 14-15.2 25.9-15.1 43.7 0 10.3.2 11.6 3.7 20.4 3.6 9.2 4 11.9 2.1 16.6-.8 2-.8 2 1.4 0 5.5-4.8 6.5-11.3 2.7-17-4.8-7-4.5-17.2.6-23 2.4-2.8 2.7-3.8 1.9-5.4-1.7-3.1-1.3-6.2 1.8-12.6C35.8 89.3 43.6 81 46.5 81c.9 0 2.4.4 3.4 1 1.7.8 1.8.5 1.3-3.5-.4-3.9-.1-4.7 2.7-7.5 2.8-2.9 3.6-3.1 9-2.9 7.8.3 11.1-1.7 11.1-6.7 0-5.2 4.8-9.9 9.5-9.1 3.2.5 3.5.3 7.6-6.1 3.8-5.8 4.4-7.5 4.7-13.3.3-5.5 0-7.4-2.1-11.5C89.9 14 79.4 5 74.5 5c-1.2 0-.9 1 1.5 4.5m13.6 17.1c.5 3.4.1 5.4-1.9 9.9-3.1 6.7-9 12.7-25.7 26.2C40 80.4 31 91.6 26.4 107c-4.1 13.5-4.5 14.2-3.8 7.5C24.9 90.1 37.7 69 57.3 57.6c8.9-5.2 23.5-19 27.1-25.6 2.3-4.2 2.7-6 2.3-9.4-.5-3.7-.4-3.9.8-2.2.8 1 1.7 3.8 2.1 6.2m85.7-19.5c-5.1 2.5-11.8 9.6-14.4 15.2-2.5 5.5-2.4 13.1.1 18.2 5.3 10.4 7.3 12.6 11.1 11.8 2.3-.4 3.5.1 6.5 3.1s3.5 4 2.9 6.4c-.9 4.3 3.1 6.6 10.7 6.3 5.3-.2 6.1 0 8.9 2.9 2.7 2.7 3.1 3.6 2.7 7.5-.3 4.7 0 5.3 1.9 3.4 3.2-3.2 12.7 4.4 16.9 13.4 2.6 5.6 3.1 11.6 1.3 13.4-.9.9-.4 2.1 1.9 4.7 1.7 2 3.4 5.2 3.8 7.2.9 5-.2 12.1-2.6 15.9-3.1 5-2.7 11.7.8 15.6l2.8 3.2-.4-5.9c-.3-5 .1-7.1 2.8-13.3 8.1-18.9 3.4-44.8-11.6-63.3-6.4-7.9-14-14.4-26.8-23-22.9-15.4-26.3-23.4-16.6-38.3 4.1-6.2 4.2-6.5 2.8-6.5-.7 0-3.2.9-5.5 2.1m-6.9 15.4c-1.6 8.7 12.9 25.3 32.3 36.9 9 5.4 18.2 15.8 23.7 26.9 4.6 9.3 8.6 23.3 8.5 29.7 0 2.6-.8.8-3.3-7.2-5.4-17.5-13.1-27.3-37.1-46.9-17-13.9-19-15.8-23-21.8-2.9-4.4-3.5-6.2-3.5-10.7 0-4.6 1.5-10.4 2.7-10.4.2 0 .1 1.6-.3 3.5"/>
        <path d="M61 8.6c2.4 6.2.7 14.1-4.5 20.2-5 6-6.7 5.7-2.9-.5 3-5.1 5.8-12.2 5.1-13-.2-.1-3.1 3-6.6 6.9s-8.3 8.5-10.7 10.1-4.6 3.2-4.9 3.6c-.2.4.1 2.5.6 4.6C39.4 48.6 33.9 58 26.9 58c-2 0-4.2-.7-4.9-1.5-2.1-2.5-3-1.8-6.5 5.7-4.4 9.3-6.4 17.2-7.1 27.3l-.5 8L9.8 92c1.8-5.2 7.1-16.2 7.2-14.9 0 .4-1.2 3.8-2.7 7.5-2.2 5.7-2.7 9-3.1 19.3-.3 9-.1 12.2.7 11.7.6-.4 1.1-2.2 1.1-4.1 0-5.1 5.5-25.8 8.5-31.7 5.5-11 13.9-19.7 29.4-30.6 3.6-2.5 9-6.4 12-8.6C72 33.7 74 25.8 69 16c-3.7-7.3-10.2-13.4-8-7.4m128.4 2.5c-4.6 6.4-6.8 13.8-5.4 18.9 1.3 4.8 4.9 8.3 18.3 17.8 14.8 10.4 21.6 16.8 27.7 25.8 5.5 8.3 8 15.5 11.2 31.7 1.8 8.9 2.4 10.5 3.1 8.5.5-1.2.6-6.3.3-11.1-.5-7.9-1.3-11.2-6.1-24.2-.4-1.1.5 0 2.1 2.4 1.5 2.5 3.5 7 4.5 10l1.8 5.6V91c0-3-.6-8.7-1.4-12.5-1.5-7.2-8.7-23.5-10.3-23.5-.5 0-1.5.7-2.2 1.5-1.6 2-7 1.9-9.8-.1-3.9-2.7-5.4-7-5-14.1l.3-6.5-5.4-4.2c-3-2.3-8-7-11-10.6l-5.4-6.4.6 3.8c.3 2.1 2.3 6.6 4.3 10 3.5 5.9 3.5 6 .8 3.6-8.6-7.7-11.3-15.9-7.9-24.3 1.4-3.5-1.4-1.6-5.1 3.4m-87.2 6.1c-1.8 1.8-1.5 3.8 1.3 8.7 1.6 2.7 2.5 5.9 2.5 8.4v4.2l2.6-2.6c4.4-4.5 4.9-13.5.9-17.9-2-2.2-5.5-2.6-7.3-.8m45-.6c-2 .9-4.2 6-4.2 9.9s1.9 8.3 4.4 10.4c1.4 1.2 1.6.9 1.6-2.3 0-2 1.2-5.9 2.6-8.6 3.1-6 2.9-9.4-.6-9.7-1.4-.1-3.1.1-3.8.3M36.5 24c-1.8 2-1.5 5 .5 5 2.6 0 5-2.2 5-4.5 0-3.1-2.9-3.4-5.5-.5m176.8-.5c-.7 2 2.4 5.5 4.9 5.5 2.4 0 2.4-3.2 0-5.3-2.3-2.1-4.1-2.2-4.9-.2"/>
        <path d="M25.5 38c-2.5 2.7-2.4 11.8.1 13.7 2.6 1.9 3.2 1.7 5.4-2 2.2-3.6 2.7-10.6.8-12.5-1.8-1.8-4.3-1.5-6.3.8m4.9 1.6c.6 1.7-2.7 6.8-3.8 5.7-1-1.1-.7-4.8.6-6.1 1.6-1.6 2.5-1.5 3.2.4m192.5-1.5c-2 3.8 1.1 14.9 4.1 14.9.6 0 1.9-.9 3-2 2.4-2.4 2.6-6.7.6-11.5-1.8-4.2-5.8-4.9-7.7-1.4m5.5 1.5c.9 2.3.7 6.4-.2 6.4-1.4 0-3.5-4.8-2.9-6.4.8-2 2.3-2 3.1 0m-122.7 4.6c-2.6 2-3.7 6.1-2.4 8.8.7 1.3 5.2 5.7 10.1 9.9 4.9 4.1 10.1 9.2 11.6 11.3l2.8 3.8 2.8-4.1c1.5-2.3 6.7-7.2 11.4-10.9 9.8-8 11.4-10 10.5-14.1-.9-4-4.5-6.3-8.6-5.4-4.4 1-11.2 8.1-13.4 14.1-2.5 6.8-3.1 7.1-4.5 2.7-2.5-7.6-8-14.2-13.3-16.2-3.7-1.4-5-1.4-7 .1m8.9 5.5c2.8 3 4.7 6.3 5.9 10.1.6 2.1-.2 1.7-5.9-2.5-3.6-2.6-6.8-5.6-7.1-6.5-1.6-4.5 3.3-5.1 7.1-1.1m33.2-.1c.2 1.5-.7 2.9-3 4.4-1.8 1.3-5 3.9-7 5.9-4.3 4-4.8 3-1.7-3.2 4.3-8.6 10.9-12.6 11.7-7.1m-55.9-1.5c-1.5 2.9 1.2 6 3.9 4.3 1.8-1.2 1.7-4.4-.1-5.6-1.9-1.2-2.6-.9-3.8 1.3m67.3-.9c-1.7 1.7-1.5 4.7.4 5.5 2.3.9 5.1-2.3 3.8-4.4-1.4-2.2-2.7-2.6-4.2-1.1m-146.8.9c-.9 1.6 1.8 3 3.3 1.7.7-.6 1-1.4.7-1.9-.7-1.3-3.1-1.1-4 .2m226.8.6c.4 2.1 3.3 2.5 3.3.3 0-.8-.8-1.6-1.8-1.8-1.4-.3-1.8.1-1.5 1.5M77.5 56.5c-3 2.9-3.1 4.1-.5 5.5 1.6.8 2.5.5 5.1-1.8 2.2-1.9 3-3.4 2.6-4.5-.9-2.5-4.4-2.1-7.2.8m93-1.5c-.9 1.4 1 4.5 4 6.4 2.1 1.4 2.9 1.5 4.1.5 2-1.6 1.8-3.2-.9-5.7-2.4-2.3-6.1-2.9-7.2-1.2"/>
        <path d="M86.9 63.9c-6.4 6.5-2.2 13.6 11.1 18.6 4.1 1.5 9.1 3.6 11 4.5 4 2 15 10.8 15 12.1 0 .4-2.6-.6-5.7-2.2-3.2-1.6-9.5-3.8-14.1-4.9-11.5-2.9-12.9-3.5-15.2-7.2-1.5-2.5-2-2.9-2.5-1.6-.4.9-.5 2.9-.3 4.4.4 3.7 4 5.7 15.8 8.8 9.2 2.5 9.7 2.7 15.6 8.9 6.2 6.5 9.3 12.7 9.5 19.1 0 2.3.4 1.7 1.3-2.4 1.6-7.3 3.8-11.3 9.8-17.6 4.6-4.8 5.5-5.4 14.7-7.9 13.1-3.6 16.1-5.4 16.1-9.9 0-1.9-.4-3.8-1-4.1-.5-.3-1 0-1 .8 0 3.1-4.9 5.8-16 8.8-6.3 1.6-13.4 4.1-15.9 5.5l-4.6 2.7 3.5-3.8c5.3-5.7 12.5-10.1 21.2-13.1 14.8-5.2 19.7-12.6 12.9-19.5-2.6-2.5-3.7-2.9-8.6-2.9-7 0-11.2 1.7-16.9 7-4.5 4.2-11.7 14.6-13.7 19.8-1 2.6-1.1 2.6-4.3-3.5-9-16.8-17.1-23.3-29.2-23.3-4.8 0-6 .4-8.5 2.9m6.2 2.7c.7.9 4.5 3.8 8.4 6.4 3.8 2.6 9.1 7 11.8 9.8 4.8 5.2 6.5 8.1 2.6 4.6-1.1-1-7.5-4.6-14.2-7.9-6.6-3.3-12.5-6.8-13.1-7.7-.7-1.1-.6-2.5.2-4.2 1.3-3 2.4-3.2 4.3-1m72.7-.4c1.9 1.9 1.4 5.3-1 7.5-1.3 1.2-5.8 3.5-10.1 5.3s-10.1 4.8-12.9 6.7l-5.1 3.5 2.2-3c3-4.3 10.5-10.7 17.2-14.8 3.1-1.9 6-4.1 6.3-4.9.7-1.8 1.8-1.9 3.4-.3m-108.3 5C54.8 72.7 54 74 54 77.1c0 6.3 8.5 11.3 21.4 12.7 4.2.5 7.6.6 7.6.3-.1-1.9-2.2-3-7.2-4-7.2-1.3-11.5-3.5-12.3-6.2-1.2-3.8 4.4-5.2 9.8-2.5 1.5.8 2.7 1.1 2.7.7 0-1.3-5.4-5.9-8.3-7-3.6-1.4-7.7-1.3-10.2.1m6.8 1.4c.3.4-.5 1.5-1.8 2.6-1.4 1.1-2.5 2.9-2.5 4 0 2-.1 2.1-2 .3-1.1-1-2-2.4-2-3.1 0-2.6 6.5-5.6 8.3-3.8m122-1c-3.6 1.8-6.9 5.1-6 6 .3.3 1.5 0 2.7-.6 3-1.6 8.4-.9 8.8 1.2.6 3.3-4 6.5-11.6 7.8-4.5.8-7.3 1.9-7.7 2.8-.5 1.3.5 1.4 6.7.9 9.3-.7 15.8-3 19.3-6.7 3.2-3.3 3.8-8.2 1.3-10.7-2.3-2.3-9.7-2.7-13.5-.7m11.1 2c1.9 1.8 2.1 4.5.4 6.2-1.8 1.8-2.5 1.5-3.1-1.7-.4-1.8-1.4-3.2-2.8-3.6-1.7-.6-1.9-.9-.8-1.6 2.1-1.3 4.6-1.1 6.3.7M41.8 87.7C35 94.9 31.9 105 35.5 108s11.3-4.9 14.1-14.7c2.8-9.7-1.1-12.5-7.8-5.6m.6 15.4c-3.2 3.5-8.7 1.6-6.3-2.2.7-1.1 1.1-1.1 1.7-.1.6.9 1.5.6 3.3-1.4 2.4-2.6 2.4-2.6 2.7-.4.2 1.2-.4 3-1.4 4.1m163.3-18.4c-.4.3-.7 2.5-.7 4.7 0 5.9 5.5 15.5 10.4 18.1 3.7 2 3.7 2 5.2 0 4.7-6.3-9.6-28.2-14.9-22.8m9 15.5c1.9 1.8 2.6 2 3.2.9 1.1-1.7 2.5.4 1.7 2.4-1.4 3.6-8.6.1-8.6-4.2 0-1.9 1-1.6 3.7.9"/>
        <path d="M63.8 97.1c-5.2 1.2-14.9 6.2-17.3 8.9l-2 2.3 2.2-1.2c1.2-.6 3.9-1.1 6-1.1h3.8l-3 1.8c-4.5 2.8-10.1 9.4-11.5 13.7-1.9 5.7-.9 15.6 2 19.9 4.8 6.9 14.5 13.7 25.9 17.8 11.9 4.3 16.8 7.2 20.5 12.1 3.4 4.5 3.4 6.8-.1 3.6l-2.6-2.4 2.6 4.5c4.2 7.2 7.5 10.9 11.7 13 5.4 2.8 6 2.6 6-1.9 0-4.7 2.6-7.7 3.4-3.9.3 1.2.7 4.3.8 6.8.3 3.9.6 4.6 2.8 5 1.4.3 4.4 1.5 6.8 2.8l4.2 2.3.9-2.3.8-2.3.7 2.2.7 2.2 5.2-2.4c2.9-1.3 6-2.6 7-2.9 1.3-.4 1.7-1.7 1.8-5.8 0-2.9.4-6.2.8-7.3.8-1.9.8-1.9 1.9.2.7 1.2 1.2 3.8 1.2 5.7 0 4.3 1.2 4.5 7.1 1.6 2.8-1.5 5.2-4.1 8.4-9 5.1-8 5.6-9.4 2-6-3 2.9-3.2 1.9-.4-2.6 3.1-5.1 9.2-8.9 20.7-13 21.6-7.7 32.7-19.6 30.8-32.8-1-6.4-6-14.3-11.3-17.7l-4.7-2.9h3.3c1.8 0 4.1.5 5.2 1 3 1.7 2.3-.6-1-3-1.7-1.1-5.6-3.3-8.8-4.8-5.3-2.4-6.8-2.7-16.3-2.5-6.9.1-13.1.8-18 2.1-21.4 5.7-27.6 10.6-33 26-1.5 4-3 7.3-3.5 7.3s-1.6-2.5-2.6-5.5c-4.2-13.9-11.2-20.7-25.6-25.4-14.5-4.7-26.9-6.2-35.5-4.1m29.2 9.5c2.9 1.6 7.8 5.1 10.8 7.9 4.9 4.4 5.5 4.7 5 2.5-.3-1.4-.9-3.4-1.3-4.5l-.8-2 2 2c3.2 3.1 6.3 13 7 21.8.8 10.1-.9 10.1-4.6.2-1.8-4.7-4.1-8.4-7.4-11.9-4.8-5-4.8-5.1-2.6-1.2l2.2 3.9-2.4-1.6c-3.6-2.3-9.5-3.1-12.8-1.7-3.5 1.4-5.4 5.4-5 10.9.4 5-.3 5.7-4 4.1-4-1.6-6.1-5.1-6.1-9.9 0-3.3.7-4.7 3.5-7.6 3.9-3.8 3.4-4.3-2-2.1-6.2 2.6-9.5 11.9-6.4 17.9C72 142.9 81.8 147.9 89 146c5.9-1.6 10-7.2 10-13.6v-3.7l2.5 2.3c3 2.8 5.5 10.5 5.5 16.8v4.5l-2.2-1.9-2.1-1.9.6 3.2c.6 3 .4 3.3-1.7 3.3-1.3 0-4.3-.9-6.7-2s-5.5-1.9-6.9-1.9c-2.4 0-2.4.1-.3.9 1.2.5 2.7 1.9 3.3 3.1 1.2 2.1 1.1 2.2-2.4 1.6-13.5-2.2-28.6-16.2-28.6-26.5 0-1.8-.5-3.2-1.1-3.2-1.9 0-.2 9.9 2.7 15.5l2.6 5-3.1-2.9c-4.2-4-6.6-10.8-6.5-18.4 0-6.2-.9-8.1-1.9-4-.4 1.2-.9 1.9-1.2 1.6-1-1 2.1-7.2 4.9-9.8 2.6-2.3 3.4-2.5 13.4-2.5 5.9 0 12.3.4 14.2.9l3.5.8-2-2.2c-2.1-2.3-5.8-4.6-11-6.7-2.7-1.2-2.2-1.3 5-1 6.7.3 9 .9 13.5 3.3m87.4-2c-5 1.8-13.6 9-9.4 7.9 5.2-1.5 23-1.8 26-.5 3.5 1.5 6.6 5.4 7.5 9.6l.6 2.9-1.5-2.5-1.5-2.5-.1 2.5c-.5 10.2-2.6 17.2-6.6 21.7l-3.4 3.8 2.4-5.5c2.6-6.1 4-13 2.5-13-.5 0-.9 1.2-.9 2.6 0 7-8.6 16.4-20.2 21.9-8.1 3.9-12.1 4.5-11.6 1.8.2-1 1.4-2.3 2.8-3l2.5-1.3H167c-1.4 0-4.5.9-6.9 2-6.5 3-8.2 2.7-7.4-1.3l.6-3.2-2.1 1.9c-2 1.7-2.2 1.7-2.8.2-1.5-4 2.4-17.5 5.9-20.4 1.9-1.6 3.9-.8 3.1 1.2-.9 2.3 1.4 9.1 3.9 11.4 3.8 3.6 8.4 4.4 14.3 2.7 16.2-4.7 17.9-26.1 2.4-29l-3.5-.6 2.9 2c6.2 4.2 7.4 11.1 2.9 16-1.6 1.6-3.9 3.3-5.2 3.6-2.3.7-2.3.6-1.7-3.1.5-2.6.3-4.8-.9-7.5-2.6-5.8-8.1-7.4-15.2-4.4-4.7 2-4.8 2-2.2-1.8 1.9-2.8 1.6-2.6-2.4 1.2-3.4 3.2-5.5 6.5-7.8 12.3-1.7 4.3-3.5 8.1-3.9 8.3-1.3.8-2.2-5-1.5-10.2 1-7.2 4.6-17 7.2-19.5l2.4-2.2-1.5 4.2c-.8 2.3-1.4 4.2-1.2 4.2.1 0 2.5-2 5.2-4.5s8-6.1 11.8-8c6-3.1 7.8-3.5 14-3.4l7.1.1zm-87.6 22.1c.1 1 .4 3.4.8 5.4.8 4.6-1.7 9.6-5.2 10.5-3.1.8-4.1-.1-2.4-2.1.8-.9 1-2.7.6-4.9-.9-4.5 1.6-10.6 4.1-10.6 1 0 2 .8 2.1 1.7m74.3 0c.8.9 1.4 4.1 1.5 7.6 0 3.8.5 6.2 1.2 6.5 2.2.7 1.3 2.2-1.3 2.2-5.2 0-8.8-7.4-6.6-13.3.6-1.6.9-3.3.5-3.8-1-1.6 3.3-.9 4.7.8m-23.3 35.1c1.5 2.3 1.4 2.5-4.7 8.5l-6.3 6.2.6-5.5.7-5.5-2.2 3.5c-1.2 1.9-2.6 4.7-3.1 6.3-1 2.7-1 2.7-3.9-3.3-1.5-3.3-3-6-3.3-6s-.2 2.3.1 5l.6 5.1-6.3-6.1c-5.7-5.5-6.1-6.2-4.8-7.8.8-.9 4.8-5.5 8.9-10.1l7.4-8.3 7.3 7.8c4.1 4.4 8.1 8.9 9 10.2m-111.9-47c-3.1 2.7-3.4 3.5-3.2 8.1.2 7.9 5.8 18 8.5 15.3.7-.7.6-2.4-.6-5.8-1.3-3.9-1.4-5.8-.4-11.6 1.4-8.8.4-10.2-4.3-6m186.5-1.3c-.3.8-.1 2.9.5 4.6 1.6 4.5 1.4 10.2-.5 14.9-1.2 3-1.4 4.4-.6 5.2 2.5 2.5 7.9-6.1 8.9-14.1.5-4.3.2-5.1-2.7-8.4-3.5-4-4.8-4.5-5.6-2.2m-184 31c-2 2-2.4 3.4-2.4 8.8 0 13 6.1 19.3 13.3 13.7 3.7-2.9 4.3-7.4 1.8-14.1-3.4-9.1-8.6-12.5-12.7-8.4M41 149c0 .5-.9 2.4-2 4.3-1.9 3.2-1.9 3.8-.7 7.5 1 2.7 1 3.9.3 3.6-2-.8-3.7-4.5-4.3-9.5-.5-3.9-.2-5.3 1.2-6.9 1.3-1.5 2.2-1.7 3.6-.9 1.1.5 1.9 1.4 1.9 1.9m175.4-6c-3.3 1.3-7.2 6.7-8.8 12.1-1.3 4.4-1.4 5.5-.2 8.4 3.9 9.3 14.2 6.2 16.7-5.1 1.1-4.7 1-6.3-.2-9.7-1.7-4.7-4.5-6.9-7.5-5.7m4 4.6c3.2 3.1.8 15.9-3.2 17.2-1.1.3-1-.3.2-2.6 2.1-4.1 2-6.4-.4-9.5-2.5-3.1-2.5-4.3-.2-5.6.9-.6 1.8-1.1 1.9-1.1s.9.7 1.7 1.6m-165.3 17c-4.2 5.3-2.6 17.9 2.1 17.2 7.1-1.1 9.4-19.8 2.4-19.8-1.5 0-3.3 1.1-4.5 2.6m136.9.4c-2.4 5.8.9 15.9 5.4 16.8 4.8 1 7-7.8 3.8-15.2-1.8-4-2.5-4.6-5-4.6-2.3 0-3.2.6-4.2 3m-166.7 1.6c-.9 2.5 2.3 8.4 4.7 8.4 2.5 0 2.7-2.8.5-7-1.7-3.3-4.2-3.9-5.2-1.4m200.8 1c-2.5 3.2-2.7 6.2-.4 7.1 2.2.9 5.5-3.3 5.1-6.5-.4-3.5-2.2-3.8-4.7-.6M2 168.5c0 .3.9 1.8 2 3.3 1.2 1.6 2.9 7 4.1 12.7 1.2 6.2 3 11.4 4.5 13.7 2.4 3.7 8.9 7.8 14.7 9.2l2.8.7-1.6-3c-2.3-4.5-1.9-4.5 2.1-.2 2.6 3 5 4.4 9.2 5.6 9.6 2.7 13.2 4.4 22.1 10.4l8.6 5.8 18.8 3.8c13.7 2.7 20 3.5 23.2 3 2.5-.3 4.7-1 4.9-1.4.3-.4-3.9-1.8-9.2-3-21.3-5.1-44.5-15-53-22.6-2.6-2.3-6.1-4.6-7.9-4.9-1.8-.4-4.8-1.8-6.8-3.1-4.2-2.9-4.4-2.4-.9 2.2 3.4 4.5 1.3 4.2-3.5-.6-4.2-4.2-11.6-18.1-12.7-23.7-.9-4.9-2.1-5.1-3.4-.4-.6 2.2-1.3 4-1.5 4-.3 0-1.4-1.8-2.5-4-2.3-4.6-7.1-8-11.2-8-1.6 0-2.8.2-2.8.5m8.4 5c2.9 4.4 7.3 16.9 7.9 22.4l.6 5.4-2.3-2.3c-3.1-2.8-4.3-5.8-6.5-16.1-1-4.6-2.1-9.2-2.5-10.2-1.2-2.6.9-2.1 2.8.8m235.6-3.7c-2.2 1.1-4.2 3.2-5.5 5.9-1.1 2.3-2.3 4.2-2.6 4.3-.3 0-1.1-1.9-1.8-4.2l-1.3-4.2-3.2 8.6c-3.7 9.7-8.4 17.6-12.8 21.3-3.7 3.1-5.8 3.3-3.2.2 4.9-5.5 4.8-5.8-1.1-2.7-3.1 1.6-6.4 3-7.2 3-.9 0-3.3 1.8-5.5 3.9-8.9 9-38.6 20.4-68 26.2-9.2 1.8-16.5 3.5-16.3 3.7s2.2.8 4.4 1.3c3.3.7 8.6-.1 30.4-4.5 14.5-3 27.7-5.4 29.3-5.4 3.5.1 6.1-1.2 12.9-6.3 6-4.5 14-8.3 21-10 3.5-.8 6.3-2.4 9.4-5.3 4-3.7 4.3-3.6 2.5.9-.5 1.1 0 1.3 2.4.6 10-2.9 15.5-8.3 17.3-17 2.6-13.3 3.3-15.4 5.5-18 1.3-1.6 2.1-3.1 1.7-3.5-1.1-1.1-4.7-.6-8.3 1.2m3.1 2.6c-.7.8-2.1 5.8-3.1 11.1-2.2 10.8-2.7 12-6.6 15.5-2.2 2-2.6 2.1-2.1.7.4-1 1-3.7 1.3-6 1.3-9 9.1-25.3 11.2-23.3.3.3-.1 1.2-.7 2M69 172c-1 2.3-1 3.7-.2 5.5 2.3 5 6.6 1.5 6-4.8-.4-4.6-4-5-5.8-.7"/>
        <path d="M180.5 171.2c-.9 3.7.8 8.3 3.3 8.6 2.6.4 4-3.7 2.6-7.7-1.3-3.5-5.1-4.1-5.9-.9m-100.1 3.3c.5 1.1 1 4.2 1.3 7 .3 3.8-.1 5.6-1.5 7.4l-1.9 2.4.5-5.3c.3-3.8.2-5.1-.7-4.6-.6.4-1.1 1.3-1.1 2.1 0 .7-1.1 2.2-2.5 3.3-1.8 1.4-2.5 3-2.5 5.4 0 7.8 6.5 10.4 12.1 4.9 2.5-2.5 2.9-3.7 2.9-8.3 0-5.7-2.5-12.4-5.5-14.8-1.7-1.4-1.8-1.3-1.1.5m90.9 2.6c-2.4 3.6-2.8 5.3-2.8 11 0 8.1 1.9 10.7 8.3 11.6 3.5.5 4.2.2 5.7-2.1 2.2-3.3 1.4-8-1.8-11.1-1.2-1.1-2.8-3-3.5-4.1-1.1-1.6-1.2-1.1-.8 3.6.5 5.1.4 5.3-1 3.5-2.3-3.1-2.7-6.1-1.5-11.1.7-2.6 1-4.9.7-5.1-.2-.3-1.7 1.4-3.3 3.8m-135.7-.9c-3.1 5 1.2 12.8 7 12.8 5.9 0 8.6-8.6 4.1-12.8-3.2-3-9.1-3-11.1 0m173.9.3c-3.2 3.1-3.3 7.4-.2 10.3 7.1 6.6 17-4.4 10.1-11.2-2.3-2.4-7.1-2-9.9.9m-147 12.7c-1.3 3.3-.6 6.8 1.5 6.8 1.6 0 4-4.4 4-7.2 0-4.1-3.7-3.8-5.5.4m125.5-.3c0 1.6.8 3.9 1.9 5.2 1.6 2 2.1 2.1 3.5 1q3-2.55 0-6.9c-2.3-3.3-5.4-2.9-5.4.7m-137.3 2.8c-1.2 1.1-.7 4.8.9 7.1 2.8 4 9.1 1.8 7.6-2.8-1.3-3.9-6.4-6.5-8.5-4.3M199 193c-3 3-2.4 7.4 1.1 7.8 3.6.4 6.1-2.3 5.7-6.2s-3.7-4.7-6.8-1.6m-105 4c-2.2 2.2-2.6 7-1 10.1.6 1 2.4 2.6 4.1 3.5 2.6 1.3 3.6 1.3 6 .3 6-2.4 6.6-8.2 1.4-12.8-4.1-3.6-7.6-4-10.5-1.1m60.4-1c-2.9 1.1-6.4 5.8-6.4 8.4.1 2.8 2.1 5.3 5.3 6.5 4.8 1.9 10.1-1.7 11.3-7.6.5-2.6.1-3.7-1.9-5.7-2.7-2.7-4.7-3.1-8.3-1.6M65 201.5c-1.1 1.3-1.1 2.2.3 5.1 2.9 6.1 10.6 7.5 9.3 1.6-1.6-6.4-6.8-10.1-9.6-6.7m119 1.7c-2.7 4.5-2.7 8.8.1 8.8 5 0 10.4-9.8 6.3-11.4-3-1.2-4.4-.6-6.4 2.6m-102.8 1.4c-2.6 1.8-2.9 5.9-.7 9.2 3.5 4.9 16.3 10 18.1 7.1.5-.8-.8-2.7-3.8-5.3-2.5-2.3-5.3-5.7-6.3-7.6-2.7-5.3-3.9-5.8-7.3-3.4m34.4-.7c-.8 1.2.3 4.1 1.5 4.1.5 0 1.5 1.6 2.3 3.5 1.9 4.4 5.9 8.5 8.4 8.5 3 0 7-3.7 7.7-7.3.4-1.7 1.6-3.9 2.8-4.8 1.3-1.1 1.8-2.3 1.4-3.3-1.1-2.8-4.9-1.5-7.6 2.6-1.6 2.5-3.2 3.8-4.6 3.8s-3-1.3-4.6-3.8c-2.3-3.6-6.1-5.3-7.3-3.3m54.1.9c-1 1-1.7 2.5-1.7 3.2 0 .8-2.5 3.7-5.6 6.6-8 7.3-5.3 9.9 5.2 5 8.7-4 12.2-11.5 7.2-15-2.8-2-3.1-2-5.1.2M29 213c4.1 3.6 11.5 6.9 21.6 9.6 5.3 1.4 9.8 2.4 10 2.1.2-.2-1.6-1.8-4.1-3.6-4.9-3.5-12.6-6.5-20.8-8-2.8-.5-6.1-1.2-7.2-1.6-1.7-.6-1.6-.3.5 1.5m191.2.1c-9.2 2-16.8 5.2-22.2 9.4l-3.5 2.6 4-.6c10.5-1.8 27.8-9 30-12.5.3-.5.5-.9.3-.9-.2.1-4 1-8.6 2m-114.5 1.6c-.4.3-.7 2.1-.7 3.9 0 6.1 9.9 11.9 16.4 9.4 3.9-1.5 3.5-4.7-.8-5.6-2.2-.4-4.8-2-7.1-4.5-3.3-3.6-6.2-4.8-7.8-3.2m37 3.1c-2.1 2.2-5.3 4.4-7 4.9-4.7 1.3-4.7 3.9.1 5.4 3.4 1 4.5.9 8.5-.9 7.6-3.4 10.3-12.1 4.1-13-1.2-.2-3.4 1.3-5.7 3.6m-60.3 16.1c.3.5 5.7 2.9 12 5.5 6.3 2.5 16 6.6 21.5 9.1 5.6 2.5 10.8 4.5 11.7 4.5.8 0 7.5-2.6 14.7-5.8 7.3-3.2 17.1-7.4 21.9-9.3 4.9-1.9 8.8-3.7 8.8-4.2 0-2.9-21.9 2.2-34.9 8.1l-10.8 4.9-4.8-2.4c-9.2-4.7-19.7-8.4-27.8-9.9-9.4-1.6-13.1-1.8-12.3-.5"/>
    </g>
</svg>
