<svg xmlns="http://www.w3.org/2000/svg" width="341.333" height="341.333" version="1.0" viewBox="0 0 256 256">
    <g fill="#e5e5e5">
        <path d="M122.3 3.5c-1.2.8-3.1 3.1-4.4 5.1-1.9 3.2-2 3.7-.6 5.1s1.8 1.3 4.1-1.1c1.4-1.4 3.3-3.5 4.1-4.6 2.4-3.2 3.1-2.9 9.9 5.1.8 1 2.2 1.6 3 1.3 1.1-.4 1.3 0 .9 1.7-.4 1.3-.8 1.8-1.1 1.1-.8-2.6-1.7-1-1.7 3.3 0 4.5 1.2 5.7 3.3 3.2 2.2-2.7 2.3-6.3.2-11.2C136.8 5 133.5 2 128.5 2c-2.2 0-5 .7-6.2 1.5m-1.3 7.4c-1 2-3 2.9-3 1.4 0-1 3.3-4.4 3.7-3.9.3.2 0 1.4-.7 2.5m15.8-1.7c1.4 1.4 1.6 4.2.2 3.3S133.8 8 134.8 8c.4 0 1.3.5 2 1.2"/>
        <path d="M126.3 9.2c-1 1.1-4.3 8.5-4.3 9.4 0 1.2 2.9-1.2 3.8-3.2q2.25-4.8 5.4.6c2.8 5 3.8 3.4 1.4-2.3q-3.6-7.95-6.3-4.5m-21.3.5c-10.1 1.5-15.8 5.2-14.5 9.2.9 2.9 2.5 2.6 2.5-.4 0-2.9 4.2-5.9 9.8-7 2.7-.5 4.1-.2 6.3 1.4l2.8 2.1 1.1-2c2-3.7-.2-4.6-8-3.3m37.6.2c-.4.6-.2 2 .4 3.2 1 1.8 1.3 1.9 2.8.6 2.7-2.3 5.8-2.9 10-1.8 4.4 1.2 7.2 3.9 7.5 7 .2 2.7 2.1 2.2 2.5-.7.4-2.8-2.8-5.9-7.5-7.1-6.6-1.8-15-2.4-15.7-1.2"/>
        <path d="M80.9 15.2c-5.4 3.9-5.5 4-12.9 16.1-10.2 16.6-21.4 42.5-29.8 68.8-6.5 20.5-8.4 30.5-8.6 46.4-.2 13.5-.4 14.2-3.4 20.7l-3.3 6.7 2.1 6.3c1.2 3.5 3.3 8.2 4.7 10.6 4.6 8 1.6 5.4-3.8-3.2-3-4.7-5.7-8.6-6.1-8.6-2.1 0-.3 6.4 3.8 13.7 11.4 20.1 31.1 34.8 62.2 46.2L94 242l2-3.3c1.1-1.7 2-4.6 2-6.2.1-1.7.7-4.1 1.5-5.5l1.4-2.5.1 3.6c0 5.3 2.7 13.4 5.6 16.8 4.1 5 13.6 9.1 20.9 9.1 16.2 0 27.4-10.2 27.5-24.9.1-4.2.2-4.4 1.5-2.8.7 1.1 1.6 3.8 2 6 .8 5.7 2.5 8.7 4.7 8.7 6.4 0 36.3-14.4 47.8-23.1 12.6-9.5 28.2-31.5 26.2-36.9-.8-2.1-1.4-1.5-6.5 6.3-3.1 4.8-5.9 8.7-6.2 8.7s.9-2.8 2.6-6.3c1.8-3.4 3.9-8.4 4.9-11.1 1.6-4.9 1.6-5.1-.7-9-3.6-6.3-4.4-10.6-4.7-25.9-.3-11.8-.9-16.2-3.4-26.2-5.5-21.6-16.3-50.7-25.8-69.6C186.9 26.8 180.2 17.2 174 14c-5.3-2.7-7.1-2.5-2.9.3 4.6 3.1 4.7 7.3.4 9.9-8.1 4.7-33.3 7.3-56.7 5.8-15.7-1.1-22.7-2.3-28.5-5.1-6.5-3.1-6.7-8-.5-11.3 1.7-1 2.1-1.5 1.1-1.6-.9 0-3.6 1.4-6 3.2M96 31.5c10.6 2.2 41 3.1 54 1.6 10.8-1.3 24.2-5.1 27.2-7.8 1.5-1.3 1.9-1 4.7 3.9 17.6 30.3 24.2 51.7 24.2 78.3.1 17.5-2.1 22.7-10.2 24-3.9.7-3.9.7-3.9 5.4 0 2.6-.5 7.3-1 10.4l-1.1 5.7 4.1 3.8c3.4 3.3 4 4.5 4 7.9 0 8-8.8 28.8-13.5 31.9-3.7 2.4-15.5 4.4-26.7 4.4-9.6 0-10.8.2-11.8 1.9-.5 1.1-1 2.3-1 2.8 0 1.2 6.7 5.3 8.8 5.3 2 0 8.6 6.5 12.4 12.3l2.5 3.8 9.9-5.2c12.5-6.6 17.4-9.9 24.7-16.8 5.3-5 15.7-17.9 15.7-19.5 0-2-3.5.1-7.2 4.5-7.3 8.5-29.4 23.6-39.6 27-3.3 1.1-3.6 1-8.1-3.4-2.5-2.6-6.7-5.5-9.3-6.7-7.6-3.3-6.1-4.2 6.6-3.4 7.6.5 12.4.3 14.6-.5 4.7-1.6 5.1-.4 1 3l-3.5 2.9 2.9-1c1.7-.6 6.8-3.4 11.5-6.2 10.1-6 28.1-23.4 32.1-31.1 1.4-2.6 2.7-4.7 3-4.7s1.8 2.4 3.4 5.3l2.8 5.3-2.2 4.5c-8.8 17.2-20.5 27.9-48.2 44.2-13 7.7-12.2 7.5-14.7 2.5-1.8-3.6-9.3-12.8-10.5-12.8-.2 0-.7 2.1-1.1 4.8l-.7 4.7-1.8-4.6c-1.5-4-5-10.3-5-8.9 0 .3.7 2.3 1.5 4.5 2.8 7.9 1.6 19.5-2.7 25.7-1 1.4-1.8 3.4-1.8 4.5.1 1.4.9.9 3.5-2.1 1.9-2.2 3.5-3.4 3.5-2.7s-1.7 2.9-3.7 5l-3.6 3.6-.9-3c-.6-2.3-.3-3.9 1.2-6.7 4-7.3 3.4-21.9-1.1-27l-2.1-2.3.5 2.2c.6 2.6-.7 2.9-4.3.8-3.3-1.9-9.2-1.9-13.7 0s-4.6 1.9-4-.5c.8-3.1-1.1-2.3-3 1.2-1 2.1-1.8 6.5-2.1 11.9-.4 7.2-.1 9.2 1.7 12.6 1.6 3.3 2.5 10.3 1.3 10.3-1.5 0-4.4-2.6-6.1-5.4-3.2-5.1-2.5-5.5 1-.6 2.7 3.7 3.3 4.1 4.1 2.6.7-1.2.3-2.4-1.5-4.6-4.9-5.8-6-19.6-2.1-27.3 1.5-3 1.5-3.1 0-1.6-.9.8-2.8 4.2-4.1 7.5-2.4 5.7-2.5 5.8-2.5 2.4-.2-7.5-1.1-7.6-6.8-1-2.9 3.4-5.5 7.3-5.8 8.6s-1.1 2.4-1.6 2.4c-1.2 0-17.1-9.2-28.3-16.5-14.3-9.2-25.2-20.9-31.9-34.2l-2.6-5.2 3.2-5 3.1-5.1 3.6 5.4c5.5 8.3 16.5 20.1 23.4 25 6 4.3 20.4 12.6 21.9 12.6.4 0-.9-1.6-3-3.6-2.2-2.1-2.9-3.3-1.7-2.8 1.1.5 7.9.9 15 .9 7.9 0 13 .4 13.1 1 .1.5-1.9 1.8-4.4 2.7-2.5 1-6.7 3.9-9.3 6.4l-4.8 4.7-4.3-1.7c-10.4-4.2-25.3-14.1-34.2-22.9-11.4-11.1-14.2-11.2-5.8-.1 9.9 13 18.9 20.2 36.8 29.2l8.2 4.1 2.6-4c4.8-7.1 9.7-11.9 12.3-11.9 1.3 0 3.9-1.2 5.8-2.7 2.8-2.3 3.2-3 2.3-4.8-1-2.1-1.8-2.3-15.2-2.7-10.2-.4-15.6-1-19.6-2.4l-5.5-1.9-5.1-10.1c-2.8-5.6-5.7-12.9-6.4-16.4-1.2-5.8-1.2-6.6.6-9.8 1.6-3 2.8-4.1 6.2-5.9.2-.1-.2-5-.9-11l-1.2-10.8-4.6-1.5c-3.8-1.3-5-2.2-6.9-6-2.3-4.3-2.3-5.2-1.8-20.5.5-16.8 2.2-26.5 6.9-40 3.4-9.7 4.1-11.2 12.5-26.5l7.3-13.6 5.7 2.8c3.1 1.6 9.1 3.5 13.2 4.3M217.6 121c1.6 9 2.1 25.8.9 32.5-1.7 10.1-6.9 21-12.5 26l-2.1 1.9 2-4.7c1.1-2.6 2.5-6.5 3.1-8.7.6-2.3 1.4-4.9 1.6-5.8.3-.9-1.2 1.5-3.4 5.5-4.6 8.1-11.8 18.8-10.7 15.8 7.3-19.8 9.4-28.1 12.3-48.5l.9-6.5.3 6c.2 5.8.2 5.9 1.2 2.5.5-1.9 1-10.7 1.1-19.4l.1-15.9 1.8 5.4c1 3 2.5 9.2 3.4 13.9M45.3 138.7c.4.3.7-1.6.7-4.3 0-3.5.3-4.5 1-3.4.5.8 1 2.9 1 4.6 0 9.3 5.9 34.1 10.5 44.1 1.3 2.9 2.2 5.3 2 5.3-.8 0-6.8-9.3-11.1-17.3-2.4-4.5-4.4-8-4.4-7.7 0 1 5.2 16.5 6.2 18.3.5 1 .7 2.1.5 2.4-1.1 1.1-10.1-13.3-11.9-19-4-12.8-3.4-33.7 1.5-51.2l2.2-8 .6 17.7c.3 9.8.9 18.1 1.2 18.5m8.9-5.7c1.8 1.1 4.3 2 5.6 2 1.9 0 2.2.5 2.2 3.7 0 2.1.3 6.2.6 9 .5 3.6.3 5.3-.4 5.3-3 0-9.4-10.4-11.1-17.9-.5-2.3-.7-4.1-.5-4.1s1.8.9 3.6 2m151.3 1.2c-1.6 7.7-8.1 18.8-11 18.8-1.1 0-1.2-1.6-.8-7.8.6-10 .5-9.8 4.6-10.6 1.9-.4 4-1.3 4.7-2.1 2.1-2.5 3.2-1.7 2.5 1.7m-70.4 83.1c4.5 3 5.9 6 5.9 12.9 0 5.2-.4 6.2-3.5 9.6-2.4 2.7-3.4 4.7-3.2 6.7.2 2.4-.3 2.9-3 3.7-1.9.5-4.7.5-6.5 0-2.9-.8-3.3-1.3-3-3.7.2-1.9-.5-3.6-2.1-5.4-3.6-3.8-4.7-6.5-4.7-11.3 0-11.7 11.1-18.6 20.1-12.5"/>
        <path d="M85.8 33.7c-4.2 4.7-2.9 15.8 2.4 21.9 3.7 4.2 6 5.5 11.3 6.5 7 1.3 17.5-2.5 17.5-6.4 0-.5-1.8-2.9-3.9-5.2-2.2-2.4-4.8-6.6-5.7-9.4-1-2.8-2.5-5.3-3.4-5.6-1.1-.5-15.7-3.5-16.6-3.5 0 0-.8.8-1.6 1.7m8.2 2.2c2.3.6 2.5 1.2 2.5 6.4 0 4.8-.2 5.5-1.2 4-.7-.9-1.5-1.4-1.8-1.1-1.1 1 2.5 8.2 5.8 11.7l3.2 3.4-2.9-.7c-7.6-1.8-12.5-9-12.6-18.2 0-6.7.7-7.3 7-5.5m65.1-2.1c-4.2 1-7.7 2.3-8.1 3.2-.5.8-1.6 3.5-2.6 6-1.1 2.5-3.7 6.2-5.8 8.4-4.4 4.4-4.2 5.7 1.4 9 4.6 2.7 13.2 2.6 18.7-.3 2.5-1.2 5.5-3.9 7-6.3 2.4-3.6 2.8-5.2 2.8-11.6 0-6.1-.3-7.6-1.9-8.8-2.3-1.7-2.1-1.7-11.5.4m9.7 8.6c-.2 5.6-.9 8.2-2.4 10.2-2.7 3.7-6.2 6.2-9.9 7l-3 .7 3.6-3.9c4.4-4.6 5.9-7.5 5.9-10.6l-.1-2.3-1.4 2.5c-1.4 2.4-1.4 2.4-1.6-2.3-.1-2.6-.2-5.3-.3-5.9-.1-1.2 3.5-2.4 7.8-2.7 1.6-.1 1.8.6 1.4 7.3M110 37.6c0 5.6 6.6 12.9 13.5 14.9 4.8 1.4 5.7 1.4 10.6-.2 4.5-1.5 5.9-2.6 8.7-6.7 1.7-2.6 3.2-5.8 3.2-7 0-2.1-.3-2.1-18-2.1-13.5-.1-18 .2-18 1.1m22.7 4.2c-.8.9-2.2 3-3 4.6l-1.5 2.8-1.2-2.3c-.7-1.3-2.2-3.4-3.3-4.7l-2-2.2h6.3c5.9 0 6.2.1 4.7 1.8m-62.4 6.4c-3.2 6.4-3.7 8.2-3.8 14.5 0 7.7 1.3 10.6 6.9 14.7 5.9 4.4 19.9 1.4 24.2-5.2 1.3-2 1.4-2.6.3-3.3-.8-.5-1.9-.9-2.6-.9-.6 0-3.9-2.6-7.3-5.7-6.1-5.7-10.1-12-11.5-18.1-.3-1.7-1.1-3.2-1.6-3.2s-2.5 3.3-4.6 7.2m3 10.8c.3 2.5.9 5.5 1.3 6.5.7 1.8.6 1.8-.9.6-1.3-1-1.7-1-1.7-.1 0 1.9 3.9 7.8 5.8 9 1.6.9 1.5.9-.1 1-1 0-3.1-1.3-4.7-2.8-3.5-3.6-4.6-9.5-3-16.4 1.4-5.7 2.4-5 3.3 2.2M180 43.3c0 4.5-5.8 14.3-11.4 19.1-2.9 2.5-6.5 5.1-8 5.7-3.5 1.6-3.3 3.2 1.1 6.8 6.4 5.3 16.2 6 22.8 1.7 3.4-2.2 5.5-7.7 5.5-14.4 0-4.9-.7-7.2-3.7-13.3-4-7.7-6.3-9.8-6.3-5.6m6.7 17.2c.7 6.3-.8 10.6-4.5 13.5-4.1 3.3-5.3 2.3-1.6-1.4 1.9-1.9 3.4-4.4 3.4-5.7 0-2.2 0-2.2-1.6-.3-1.5 1.9-1.6 1.9-.9-.1.4-1.1 1.2-4.9 1.8-8.3 1.2-7.4 2.5-6.5 3.4 2.3m-70.5-.2c-2.2 1.9-5.4 4-7.1 4.7-3.9 1.6-3.9 3.3.2 10 4.4 7.3 9.5 10 19.1 10 8.9 0 13.7-2.5 18.4-9.4 4.2-6.4 4.2-9.2-.1-11-1.9-.7-4.9-2.8-6.9-4.5-3.4-2.9-4-3.1-11.6-3.1s-8.2.2-12 3.3m-.2 8.3c0 2.1-.4 3.3-1 2.9-1.4-.9-1.2 1.6.4 4.8 1.4 2.5 1.4 2.6-.3 1.7-1-.5-2.6-2.6-3.6-4.7l-1.8-3.7 2.7-2.3c1.5-1.3 2.9-2.3 3.2-2.3.2 0 .4 1.6.4 3.6m27.9-1.6c2.8 2.4 2.3 5.5-1.5 9.7-2 2.2-2.4 2.3-1.9.8 1.6-4.2 1.8-6.8.6-6.1-.7.5-1.1-.4-1.1-2.8 0-4.1.6-4.3 3.9-1.6m-84.4 6.2c-2.2 5.6-3.2 18.8-1.6 22.6 1.8 4.4 6.3 6.5 11.9 5.7 4-.6 5.5-1.5 10.5-6.6 3.1-3.3 5.7-6.6 5.7-7.4 0-.7-1.7-1.6-3.7-2-8-1.5-16.4-7.5-18.5-13-.6-1.9-1.5-3.5-1.9-3.5s-1.5 1.9-2.4 4.2m3.9 17.7c.4.6.2 1.1-.3 1.1-2 0-1.1 2.2 2 5.1 2.3 2.1 2.7 2.9 1.5 2.9-.9 0-2.8-1.1-4.1-2.5-2.2-2.1-2.5-3.2-2.4-9.7l.1-7.3 1.3 4.6c.7 2.6 1.5 5.2 1.9 5.8"/>
        <path d="M193.5 71.1c-1.3 3.9-7 9.2-13 12.1-3.3 1.5-6.8 2.8-7.7 2.8-3.1 0-2.8 1.8 1.3 7 4.2 5.3 10.2 8.9 14.9 9 4 0 8.7-3.5 10-7.5 1.3-4.1.7-11.7-1.6-19.6-1.7-5.5-3-6.8-3.9-3.8m3.1 20.3c-.5 3.2-1.5 5.2-3.3 6.6-3.8 3-5.1 2.4-2-.8 1.5-1.6 2.6-3.7 2.5-4.8-.1-1 .2-4.2.7-6.9l.9-5 .9 3.2c.5 1.7.6 5.2.3 7.7M98.5 76.6c-2.2 1.9-5.5 3.9-7.2 4.6-3.5 1.3-4 2.9-1.9 6.6 4.1 7.4 18 8.4 23.5 1.8 1.1-1.3.6-2.4-3.8-7.2-2.8-3-5.1-6.2-5.1-6.9 0-2.6-1.5-2.3-5.5 1.1m-3.4 8.8c-1.8 3.5-2 3.6-3 1.7-.6-1.1-1.1-2.2-1.1-2.5 0-.6 5.4-3.6 5.7-3.2.2.1-.6 1.9-1.6 4m56.6-8.9c-.9 1.9-3.2 5.2-5.2 7.3-1.9 2.2-3.5 4.4-3.5 5s1.5 2 3.4 3.1c6.2 3.8 16.3 2.3 20-3.1 2.7-3.9 2-6.3-2.3-8.3-2.2-.9-5.2-3-6.7-4.6S154.3 73 154 73s-1.4 1.6-2.3 3.5m12.5 6.5c1.3 0 .6 4.2-.8 4.7-.6.2-1.4-.4-1.8-1.4-.3-1-.9-2.4-1.2-3.2-.5-1-.2-1.2 1-.8 1 .4 2.2.7 2.8.7m-47.7 9.1c.4 2.4 1.3 5.6 2.1 7 1.7 3.4 7 7.9 9.2 7.9 5.4 0 12.2-8.9 12.2-15.9 0-2.9-.2-3.1-2.1-2.1-2.3 1.3-17.3.9-20.3-.4-1.7-.8-1.8-.6-1.1 3.5m10.5 8.4c1.8.4 3.4 0 5.3-1.5 2.2-1.8 2.7-1.9 2.7-.6 0 2.4-3.7 5.6-6.4 5.6-2.9 0-7.6-3.6-7.6-5.7 0-1.5.2-1.5 1.8 0 .9.8 2.8 1.8 4.2 2.2m-45.3-2.6c-3.3 3.7-6.2 10-5.5 12.1.2.5 2.7-2.9 5.5-7.5 5.7-9.1 5.7-10.9 0-4.6m88.3-3.6c0 .3 2.1 4.1 4.8 8.3 2.8 4.7 4.8 7.1 5 6.1.5-2.5-2.5-8-6.3-11.7-1.9-1.9-3.5-3.1-3.5-2.7"/>
        <path d="M89 97.5c-2.7 2.9-2.1 5.5 1.5 5.5 1.3 0 6 1.8 10.2 4l7.8 4h-8.6c-9.2 0-17.6 2-22.2 5.2-4 2.9-6.4 8.4-7.2 16.4-.6 6.1-.4 7.6 1.4 11.2 2.2 4.2 5.4 6.8 7.1 5.7.6-.4 0-1.9-1.5-3.7-1.4-1.6-2.5-3.4-2.5-4 0-.5 1.2.4 2.6 2.1 2.3 2.8 3 3 6.4 2.5 3.4-.6 4.3-.3 7 2.4 1.6 1.7 3 3.9 3 5s.7 2.5 1.5 3.2c2 1.7 1.9 2.4-.7 3.5-1.3.6-2.4 1.7-2.5 2.5-.3 2 5.3 8.4 6.6 7.6.6-.4 1.1-2.9 1.1-5.7 0-2.7.3-4.9.8-4.9.4 0 2.9 1.6 5.6 3.5s5.5 3.5 6.3 3.5c2.9 0 .1 7.2-5 12.8-1.6 1.7-1.8 2.5-.9 3.4 1.8 1.8 1.4 4.5-1 6.2-1.8 1.3-1.9 1.8-.8 3.1 1.8 2.2 2.6 1.9 4-1.5 2.1-5 3.1-4.6 2.4.8-.6 4.5-.4 5.1 1.6 6.2 2.7 1.4 5 .6 5-1.7 0-2.6 2.1-9.6 2.6-9 .3.3.9 3.6 1.2 7.4l.7 6.8h11l1-6.7c1.3-8.4 2.2-9.3 3-3.1.9 6.7 1.2 7.3 3.3 7.3 3 0 4.2-2.1 4.3-7.5l.1-5 1.5 3.5c2 4.7 2.2 4.8 3.9 2.6 1.2-1.8 1.1-2.2-.8-4.3-1.9-2-2-2.7-1-4.4 1.1-1.7.9-2.4-1.2-5.2-2.7-3.7-5.6-9.1-5.6-10.7 0-.5.7-1 1.6-1s3.8-1.6 6.4-3.5 5-3.5 5.4-3.5c.3 0 .6 2.2.6 4.9 0 6.6 1.6 7.3 5.6 2.5 3-3.6 3.2-4 1.7-5.6-.9-1-2.2-1.8-3-1.8-.7 0-1.3-.5-1.3-1 0-.6.3-1 .8-1 .4 0 1.7-2.2 2.9-4.9 2.5-5.3 6.4-7.8 10.3-6.6 1.6.5 2.9 0 5.1-2.1 1.6-1.5 2.9-2.3 2.9-1.7 0 .5-.9 1.8-2 2.8-2.2 2-2.7 4.5-.9 4.5 2.2 0 6.7-6.1 7.4-10.1 1-6-.4-15.4-2.9-19.1-4.7-7-12.4-9.8-26.7-9.8h-8.1l7.6-4c4.1-2.2 8.7-4 10.1-4 3.5 0 4.2-2.6 1.5-5.5-1.6-1.7-2.7-2.2-3.5-1.5-.7.6-3 1.1-5.2 1.3-2.2.1-4.8.9-5.7 1.6s-1.6 1-1.6.5-.9.2-1.9 1.6c-1.6 1.9-2.2 2.2-3.4 1.2-1.1-1-1.7-.9-2.7.3-.7.9-1.7 1.4-2.2 1.3-.6-.2-2.5 1.1-4.5 2.9-1.9 1.8-4.6 3.6-5.9 3.9-3.2.8-9.9-2.1-11.9-5.3-.9-1.3-2-2.1-2.6-1.7-.6.3-1.6-.2-2.4-1.2-1.1-1.6-1.5-1.6-3-.4s-1.9 1.1-3.6-1c-1-1.4-1.9-2.1-1.9-1.6s-.7.2-1.6-.5-3.5-1.5-5.7-1.6c-2.2-.2-4.5-.7-5.2-1.3-.8-.7-1.9-.2-3.5 1.5m27.3 28.5c3.4 3.2 3.5 5.2 1.1 16.7-.6 2.9-5.2 8.3-7.1 8.3-1.1 0-1.3-.3-.5-1.3.8-.9-.6-1.2-6.4-1.3-9.3-.2-14.6-2.9-18.9-9.6-1.6-2.6-3.7-4.6-4.5-4.5-.9.1-1.5-.6-1.5-1.8 0-1.8.9-2.1 7.5-2.7 8.9-.9 19.5-3.9 16.5-4.6-1.6-.4-1.1-.8 2-1.8 5.1-1.5 8.3-.9 11.8 2.6m36.2-2.4c2.5.6 2.7.8 1 1.4-2.9 1 8.1 4.1 17.3 4.7 6.7.6 7.3.8 7 2.7q-.3 2.1-2.1 1.8c-.9-.2-2 .5-2.4 1.5-1.3 3.7-5.6 8.4-9.6 10.5-3.2 1.7-6 2.2-11.4 2.3-5.6 0-6.9.3-6.1 1.2 1.5 1.8-.3 1.6-3-.3-2.9-2-5.2-6.6-5.2-10.4 0-1.7-.4-3.9-1-4.9-2.1-4.1 6.3-13 11-11.6.8.2 2.8.7 4.5 1.1m-14.9 46.2c.7 3.8-.1 5-3.6 5.4-2 .2-2.8-.4-4.2-3.1-1.5-3-1.8-3.2-2.4-1.5-1.3 3.5-3.4 5.1-5.9 4.7-1.3-.3-2.6-1.1-2.9-1.9-.8-2.1 1.9-9.5 6.1-16.6l3.6-6.1 4.3 7.9c2.4 4.3 4.7 9.4 5 11.2m-84.1-64.4c-1.3 10.2 1.3 18.5 6.3 19.8 1.1.3 3.3-.1 5.1-.8 3.6-1.5 5.5-5.2 6.5-12.7l.7-4.7H68c-5.1 0-10.3-2.1-12.3-5-1.5-2.1-1.6-2-2.2 3.4m8.6 15.3 2.4 1.2h-2.4c-3.6.1-6.1-2.6-6.1-6.8v-3.6l1.9 4c1 2.2 2.9 4.6 4.2 5.2m137.8-18.1c-2.3 2.8-7 4.6-11.1 4.2l-4-.4.4 5.8c.7 9.2 5.9 14.7 12 12.6 4.1-1.4 5.8-6 5.8-15.2 0-7.7-.8-9.7-3.1-7m-.4 16.3c-1.1 2.3-2.3 3.1-4.2 3.1h-2.6l2.5-2c1.4-1 3.2-3.4 3.9-5.2 1.2-2.9 1.4-3 1.7-1.1.2 1.2-.4 3.5-1.3 5.2"/>
        <path d="M83.2 149.1c-2.5.9-4.2 4.4-3.4 7.1.5 2.2 4.9 3.5 7.1 2.1 2.5-1.6 1.9-3.8-.9-3.8-2.9 0-3.5-2.8-.7-3.3 2.5-.5 4.7 1.6 4.7 4.3s-1.5 4.1-5.5 5c-7.9 1.8-10.5 3.8-10.5 8.7-.1 2.2-.2 2.2-2.9-.9-1.6-1.7-3.2-2.9-3.5-2.6-.3.4-.6.2-.6-.2 0-.5 1.4-2.4 3.2-4.2 3.5-3.6 2.7-4.1-2.9-1.8-3.4 1.5-3.5 1.6-3 5.7 1.8 13.4 18.8 21.5 33.8 16.3 4.4-1.6 12.9-8.9 12.9-11 0-.7-1.9-2.7-4.2-4.5-4-3.2-4.1-3.3-3.5-.9.9 3 1.8 11.1 1.1 8.6-.5-1.6-.7-1.6-3.1.3-6.1 4.7-15.1 4.4-19.9-.7-4.1-4.4-3.1-6.9 3.6-9.2 7.4-2.5 9.8-7.5 6-12.3-2.3-3-4.7-3.8-7.8-2.7m85 0c-2.5 1-5.3 6.4-4.4 8.8 1 3.1 3.5 5 8.3 6.6 3.9 1.3 4.9 2.1 4.9 3.9 0 3.4-2.6 6.3-7.4 8.1-3.8 1.5-5 1.5-8.3.5-2.1-.7-5.1-2.2-6.7-3.3-2.9-2-2.9-2-2.2-.1.5 1.4.4 1.6-.4.7-.9-.8-.8-2.3.3-6.2.8-2.8 1.2-5.1.8-5.1s-2.4 1.7-4.4 3.8l-3.7 3.8 3.2 3.8c8.2 10 26.9 11.7 36.4 3.4 4.1-3.6 6.5-7.8 7.4-13.1.7-3.6.6-3.8-2.7-5.2-5-2.1-6-1.9-3.6.7 3.4 3.8 3.4 4.5.4 7.7-3.5 3.8-3.8 3.8-3.8.4 0-3.2-4.4-7.3-7.8-7.3-6.2 0-9.8-3.8-7.5-8 1.1-2.1 5.4-2.8 6.5-.9.9 1.4 0 2.1-2.7 2.3-1.6.1-2.3.7-2.3 2.1 0 1.6.7 2 3.4 2 4.5 0 6.2-2.5 4.1-6.2-1.8-3.1-4.7-4.3-7.8-3.2"/>
        <path d="M73 184.3c0 .8.6 1.8 1.3 2.1.6.3.2.3-.9.1-3.1-.8-3.9 2.1-1.2 3.9 1.2.9 4.5 2.1 7.4 2.7 4.4 1 6.4.9 11.9-.4 8.9-2.2 13.5-4.5 13.5-6.8 0-3-1.8-3.1-8.5-.4-5.3 2.1-7.8 2.5-13.3 2.2l-6.7-.3 7.2-.2c4-.1 7.5-.7 7.9-1.3.4-.8-.2-.9-2.2-.5-2.7.6-10.8-.5-14.6-1.9-1.2-.5-1.8-.2-1.8.8m78.3.4c-2.3 6.1 21.6 11.4 31 6.9 4.1-2 4.5-3.1 1.9-6.4-1.6-2.1-2.1-2.2-4.7-1.2-1.7.7-5.8 1.3-9.2 1.3-8 .2-7 1 2 1.8l7.2.6-7 .1c-5.4.1-8.4-.4-13-2.3-7.1-3-7.4-3-8.2-.8m-59.2 21.2c-.8.5-1.1 1.6-.8 2.5.6 1.5 1.1 1.4 4.9-.5 2.4-1.2 4.5-2.3 4.7-2.5.9-.8-7.5-.3-8.8.5m67.5 1.6c2.7 1.4 5 2.5 5 2.5.1 0 .4-.9.7-1.9.6-2.4-1-3.1-6.6-3.1h-4zM125 219c-1.2.7-1.2 1.2-.2 2.2.6.6 1.2 1.7 1.2 2.2-.1.6-.9.1-1.9-1.1-1.6-2-2.1-2.1-3.1-.8-.9 1.1-.9 1.9-.2 2.8.7.8.6 1.9-.3 3.7-1.9 3.3-1.9 7.1 0 9.6 1.4 1.8 1.4 1.7 1.6-1.6l.1-3.5.8 3.2c2 8.7 9.2 8.2 10.2-.7l.4-3.5.9 3.3c.4 1.8 1.1 3 1.5 2.5 1.3-1.4 2.1-12.3.9-12.3-.6 0-.8.9-.4 2.2.5 2 .5 2.1-.5.5-.8-1.3-.8-2.2-.1-3.1.8-.9.7-1.8-.3-3.2-1.4-1.8-1.4-1.8-3.3.2-1 1.1-1.4 1.4-.9.7 2.1-3.2-2.6-5.7-6.4-3.3"/>
        <path d="M118.7 225.6c-.4.4-.7 1.4-.7 2.3 0 1.1.3 1.2 1.1.4.6-.6 1-1.6.7-2.3-.2-.6-.7-.8-1.1-.4M98 16c-2.1 2.1-2.8 4.6-1 3.5.6-.3 1 .3 1 1.4 0 1.2.7 2.1 1.5 2.1s1.5-.7 1.5-1.6c0-.8 1.3-2.9 2.9-4.5l2.9-2.9h-3.4c-2.1 0-4.2.8-5.4 2m17 1.6c0 4.3 1.5 7.4 3.6 7.4 1.2 0 1.5-.6 1-2.5-.4-1.4-.2-3.4.4-4.5.8-1.6.8-2-.4-2-.8 0-1.7.8-1.9 1.7-.3 1.1-.5.7-.6-1-.2-4-2.1-3.3-2.1.9m36.7-1.8c1.2.9 2.7 3 3.3 4.5 1 2.8 3.8 3.3 3.2.7-.2-.7.3-1.7 1-2.2 2-1.3-2.8-4.8-6.6-4.8h-3.1zm-47.3 2.7c-3.2 3.2-2.7 4.9 1.4 5.3 2.7.3 3.1.1 2.5-1.5-.5-1.4-.1-1.3 2 .6 1.5 1.4 2.9 2.2 3.2 1.9 1-.9-1.7-6.8-3.5-7.8-2.6-1.4-2.8-1.3-5.6 1.5M127 17c0 .5.5 1 1 1 .6 0 1-.5 1-1 0-.6-.4-1-1-1-.5 0-1 .4-1 1m18.7.8c-2.3 2.5-3.9 7.2-2.5 7.2.6 0 1.7-.8 2.5-1.8 1-1.2 1.6-1.4 1.9-.5.3.7 1.9 1.3 3.5 1.3 3.8 0 3.9-3 .3-5.9-3.2-2.5-3.7-2.6-5.7-.3m-23 2.9c-1.2 1.2-.7 4.3.7 4.3.9 0 1.2-.8.8-2.5-.5-2.7-.6-2.8-1.5-1.8m2.7.7c-.9 2.2.4 3.6 3.2 3.6 2.1 0 2.5-.4 2.2-2.3-.4-2.6-4.5-3.7-5.4-1.3m7.3-.8c-1 1-.9 4.4.2 4.4 1.3 0 2.3-3.2 1.3-4.2-.5-.5-1.1-.5-1.5-.2"/>
    </g>
</svg>
