<svg xmlns="http://www.w3.org/2000/svg" width="341.333" height="341.333" version="1.0" viewBox="0 0 256 256">
    <g fill="#e5e5e5">
        <path d="M118.6 9.1c-1 .6-9.1 3.6-18 6.6-26.9 9.1-43.2 18.1-56.7 31.4-7.2 7.1-7.4 7.5-6 9.8.6 1 3.2-1.1 10.2-8.1 30-30.1 71.3-40.9 111.7-29.2 18.1 5.3 38.1 17.7 50.4 31.5 3.4 3.8 6.6 6.9 7 6.9s.8-1.1.8-2.4c0-5.7-22.5-23.4-39.4-31.1-4.2-1.9-14.4-5.7-22.7-8.5s-16.3-5.7-17.9-6.5c-3.4-1.8-16.5-2-19.4-.4"/>
        <path d="M120 16.6c-29.6 3.1-55 15.5-73.5 35.7-6.5 7.1-6.6 7.3-5.8 11.2.4 2.2.8 7.6.8 12-.1 6.2-.6 8.9-2.2 12.1-1.9 3.6-2 4.4-.9 6 1.3 1.7 1.7 1.2 4.5-5C52 68.6 69.5 51 89.4 42c19.8-9 44.5-10.7 64.7-4.4 4.6 1.4 9.6 2.6 11.1 2.5 1.5 0 3.3.8 4 1.7.7 1 5.1 4.3 9.9 7.4 14.3 9.5 29.2 27.1 34.5 40.8 2.2 5.7 2.2 5.7 3.8 3.5 1.2-1.6 1-2.6-1-6.9-2.6-5.6-3.3-16.2-1.3-21.2 1.6-4.4.4-6.8-7.9-15.2-20.5-20.9-45.4-32-75.2-33.5-4.7-.3-10.1-.3-12-.1m52.9 13.8c.8 1 .8 1.6-.2 2.4-1.7 1.4-4.2-.2-3.4-2.2s2.1-2 3.6-.2"/>
        <path d="M114.5 36.1c-8.6 1.3-18.8 4.5-27 8.6C57 60 36.1 92.1 38.3 120.6l.5 7.3 7 6.9c5.3 5.3 8 8.9 11.1 15.4 2.3 4.6 4.1 9 4.1 9.6 0 .7 1.8 4.8 4 9.2 4.5 8.9 9 13 20 18.1 19.9 9.3 23.6 11.5 30.3 17.8 7.6 7.2 11.7 14.1 11.7 19.8 0 2.8.3 3.4 1 2.3.5-.8 1-2.6 1-3.9 0-6.6 9.3-18.1 20.2-25.2 3.2-2 9.8-5.4 14.7-7.5 4.9-2 12-5.8 15.7-8.3 7.6-5.1 10.9-10.2 16.4-25.2 3.5-9.6 8.6-17.4 15.2-23.4 7.1-6.4 8.4-13.7 5.2-29.3-3.1-15.1-12.3-31.1-25-43.3-10.3-9.8-17.7-14.4-23.3-14.4-4 0-4.6-.3-4.9-2.3-.4-2.6-2.2-3.5-13.2-6.3-8.6-2.3-26.5-3.2-35.5-1.8m12.4 2.8c1-2.4 1-2.4 1-.2.1 1.3.4 2.2.9 2.1 1.4-.3 4.2 1.4 3.6 2.3-.3.5.7 1 2.3 1 2 .1 2.2.3.8.6-4.5 1-4.8 1.2-3.4 2.9 1.1 1.3.9 1.4-1.4 1-1.5-.3-2.7-.1-2.7.3s3.7 1.2 8.3 1.9c17.6 2.3 30.5 8.8 43.2 21.6 13.9 14 20.5 30.2 20.5 50.1 0 28.6-14.7 52.3-40.5 65.1-11.9 5.8-21.6 7.8-35.5 7.1-16.5-.7-28.3-5.3-42.1-16.3-28.3-22.5-34.7-64.2-14.5-95.3 2.5-3.9 4.1-7.3 3.6-7.6-1.5-1-1.2-4.2.7-6 1-1.1 2.7-1.5 4.6-1.2 2.4.3 4.2-.4 8.1-3.5 9-6.8 25.9-13.8 33.7-13.8 1.2 0 3.4-1 4.8-2.3 1.4-1.2 2-1.4 1.2-.5-1.1 1.5-1 1.7.8 1.5 1.2-.1 2.1-.4 2.1-.8 0-1.4-3.7-3.8-6.5-4.2l-3-.4 3.2-.2c3.3-.1 5.1-1.5 3.3-2.6-.5-.3-1.5-1.6-2.1-2.8-1.1-2.1-1.1-2.1 1.4.2l2.7 2.4zm8.1-1.6c0 .2-1 1.2-2.2 2.3l-2.3 1.9 1.9-2.3c1.8-2.1 2.6-2.7 2.6-1.9M86.8 52.8c.4 2.8-2.4 4-4.5 1.9-1.4-1.3-1.4-1.9-.3-3.2 1.8-2.2 4.4-1.5 4.8 1.3"/>
        <path d="M126.5 43.9c-.6 1.1.9 2.3 1.9 1.4.9-.9.7-2.3-.3-2.3-.6 0-1.2.4-1.6.9m-12 8.8c-11 2.5-22.7 7.9-30.2 14C81 69.3 80 70.8 80 73c0 3.1-2.3 5-5.9 5-1.4 0-3.3 2.2-6.5 7.2-12.6 20.4-14.1 46.4-3.7 68.3 8.6 18.2 26 32.6 46.1 38.1 10 2.7 27.4 2.5 37-.5 30.4-9.4 50.1-33.8 51.7-64.1 1.8-31.6-16.8-59.9-46.8-71.2-7.7-2.9-9.4-3.2-21.9-3.4-7.4-.1-14.4 0-15.5.3M146 67.6c17.4 5.5 30.8 18.9 37.2 37.4 1.9 5.4 2.3 8.5 2.2 18 0 9.8-.4 12.5-2.6 18.2-10.5 27.8-36.4 43.3-64.5 38.4-12.8-2.2-22-7-31.3-16.5-18.3-18.5-22.2-44.5-10.3-67.5 4.2-8 14.2-18.7 21.5-23 14.4-8.4 31.3-10.1 47.8-5"/>
        <path d="M117 71.6c-30.1 6.5-48.2 38.1-38.5 67.1 12.5 37 58.7 48.2 85.9 20.9 29.6-29.7 14.8-79.5-26.1-88.1-8.3-1.8-12.8-1.8-21.3.1m22.9 3.9c13.8 3.6 25.1 12.8 31.5 25.5l3.6 7.3-2.2 1.1c-1.3.6-2.4 2.2-2.6 3.4-.3 2.1-.7 2.2-10.9 2.2h-10.6l-5.2-5.5c-2.9-3-5.9-5.5-6.7-5.5-.7 0-.1.8 1.4 1.8 1.6 1 4.4 3.7 6.4 6l3.6 4.2H170v13l-7.7.2-7.8.2 7.7.3c7 .4 7.7.6 8 2.6.2 1.7-.4 2.4-2.7 3.2-1.9.6-4.2 2.8-6.2 5.9-6.4 9.8-12.4 14.6-22.1 17.7-3.2 1-4.9 1.8-4 1.8 7.2.3 21.2-9.6 26.4-18.6 3-5.1 4.9-6.3 9.8-6.3h3.6l-1.7 4.2c-7.3 18.7-25.1 30.8-45.2 30.8-36.6 0-60-38.2-43.2-70.5 10.4-20.1 33.7-30.7 55-25"/>
        <path d="M100.5 83.8c-18.7 13.6-25.2 37.5-15.9 58.1 3.4 7.6 8.7 14.4 14.5 18.7l5 3.7 14.2-1.4 14.2-1.4-7.4-.7c-12.7-1.3-23.8-8.3-29.9-18.7-1.5-2.5-3.5-5.3-4.6-6.2-2.1-1.7-1.6-4.9.7-4.9s4.1 2.8 2.9 4.3c-.8 1-.4 2.6 1.8 6.4 5.4 9.5 16.8 17 26.6 17.5l4.9.3.3-8.3c.3-8.1.3-8.2 3-8.3 1.5-.1-.3-.5-4-.9-7.4-.7-12.4-3.7-15.8-9.3-4.4-7.2-3.3-17.2 2.7-23.4 1.8-2 3.3-3.9 3.3-4.3 0-1.6 3-3.2 4.3-2.4.6.5 3.5.7 6.2.3 2.8-.3 4-.7 2.8-.7-2.2-.2-2.3-.6-2.3-7.5 0-9.5-.4-10-6.8-8.7-11.5 2.1-22.2 10.4-27 20.8-1.8 4-2.8 8.3-3.3 14.7l-.7 9 .2-9.1c.2-8 .6-10 3.4-15.7 5.1-10.4 16.4-19.1 26.5-20.5 2-.2 3.7-.8 3.7-1.3 0-.9-3.4-1.5-13-2.4-6.1-.6-6.8-.4-10.5 2.3M109 87c0 .5-.4 1-1 1-.5 0-1-.5-1-1 0-.6.5-1 1-1 .6 0 1 .4 1 1m15 13c0 .5-.4 1-1 1-.5 0-1-.5-1-1 0-.6.5-1 1-1 .6 0 1 .4 1 1m-19.2 18.6c2.6 1.8 2.8 5 .5 7.6-3.2 3.5-9.3 1-9.3-3.8 0-2.2 3.3-5.4 5.5-5.4.6 0 2.1.7 3.3 1.6m-3.3 40.4c.3.5.1 1-.4 1-.6 0-1.1-.5-1.1-1 0-.6.2-1 .4-1 .3 0 .8.4 1.1 1"/>
        <path d="M98.6 119.6c-3 3-1.3 7.4 2.9 7.4 4.4 0 6.3-6 2.6-8-2.7-1.4-3.7-1.3-5.5.6m32.5-35.2c.2.2 2.4.6 4.9.9 3 .4 3.8.3 2.5-.3-1.9-.8-8.3-1.4-7.4-.6M146 89c6.1 3.3 13.1 10.3 16 16 1.9 3.8 3.8 5.1 6.8 4.9 1-.1.6-.4-.8-.8s-3.8-2.7-5.7-5.5c-1.7-2.7-4.6-6.4-6.5-8.3-3.2-3.4-12.3-9.3-14.3-9.3-.5 0 1.5 1.4 4.5 3m-23.8 17.1c-.9 1.4-2 1.9-3.3 1.6-2.4-.6-7.2 4.7-8.9 9.8-3.4 10.2 5.4 23.5 15.5 23.5 2.4 0 2.5-.3 2.5-5.5 0-6.1-.7-6.8-7.5-8-6-1-7.5-1.5-7.5-2.6 0-.5 7.3-.9 17.4-.9 15.8 0 17.6.2 19.9 2 3.2 2.5 5.9 2.5 8.2 0s1.3-6.7-2.1-8.2c-2-1-2.9-.8-5.4 1-2.7 2.1-4 2.2-20.5 2.2-11 0-17.5-.4-17.5-1s.1-1 .3-1c2.3 0 12.5-2.4 13.5-3.2.7-.6 1.2-3.3 1.2-6.4 0-4.9-.2-5.4-2.3-5.4-1.2 0-2.8.9-3.5 2.1"/>
        <path d="M143.7 134.4c-2.9 2.9-6.2 5.6-7.5 6.1-1.3.4-2.1.9-1.9 1.2 1 1 6.6-2.8 9.9-6.8 2.2-2.6 4.7-4.4 6.9-4.9 3.2-.8 3.3-.8.6-.9-2.2-.1-4.1 1.1-8 5.3M83.5 52c-.4.6-.3 1.6.3 2.2s1.2.6 1.7-.2c.4-.6.3-1.6-.3-2.2s-1.2-.6-1.7.2m-39.2 87.4c.3.8 1.1 3.3 1.7 5.6.8 3 2.9 5.9 7.1 10.1 3.2 3.2 5.9 5.6 5.9 5.4 0-1.9-5.9-12.9-9.2-17.2-3.8-5-6.7-7-5.5-3.9m161.8 3.8c-3.9 5.4-7.3 11.4-8.6 15.6-.5 1.6 1.1.5 5.4-3.7 3.4-3.3 6.1-6.4 6.1-6.8s.7-2.9 1.5-5.6c.8-2.6 1-4.7.5-4.7s-2.7 2.4-4.9 5.2m-169.5 8.3c-.9 5.7.9 13.9 4.8 21.5 2 3.8 3.7 8.8 4.1 12.2.4 3.1 1.3 6.5 2.1 7.5 1.2 1.6 1.2 1.3.3-1.7-.6-2.1-.8-7.9-.4-14.5.7-12.2.3-14.3-4.7-20.9-1.8-2.4-3.8-5.2-4.4-6.2-1-1.7-1.2-1.4-1.8 2.1m180.4-2.3c0 .6-1.9 3.6-4.2 6.6l-4.3 5.5v14.1c-.1 7.8-.4 15.2-.9 16.6-.6 1.9-.5 2.2.4 1.4.6-.7 1.5-4.1 2-7.7.5-4.6 1.9-8.4 4.6-13.3 3.4-6.1 3.8-7.7 4.2-15.6.3-6.1.1-8.8-.7-8.8-.6 0-1.1.5-1.1 1.2m-167.5 26c-.8 9.1.8 19.1 4 23.9 2.2 3.5 13.7 12.9 15.6 12.9.6 0-.1-1.5-1.5-3.3s-3.5-5.5-4.7-8.3c-1.2-2.7-3.1-6.1-4.1-7.5-1.5-1.9-2.1-4.7-2.4-11-.2-6.1-.8-9-2.2-10.8-3.2-4.3-4-3.6-4.7 4.1m151.9-4.7c-1.1 1.6-1.9 5.7-2.3 11.3-.4 6.3-1.2 9.6-2.6 11.7-1.1 1.7-3 5.2-4.2 7.8-1.3 2.7-3.2 6.2-4.4 7.8-2.9 4.1-1 3.6 5.7-1.7 10.7-8.2 12.9-13.8 12.2-30.8-.3-8.7-1.6-10.4-4.4-6.1m-8.3 5.8c-.9 2.8-1 4.2-.2 5 1.4 1.4 2.3-1.1 1.9-5.5l-.3-3.3zm-132.5-1.4c-.9 1.5.3 7.1 1.5 7.1 1.1 0 1.2-5 0-6.9-.6-.9-1-1-1.5-.2"/>
        <path d="M58 184.7c0 2.6.5 5.5 1 6.3.7 1.1.9-.2.8-4.3-.3-7.1-1.8-8.8-1.8-2m138.8-3.7c-1 2.4-1.6 12-.7 11.4.5-.2 1.1-2 1.4-3.8.8-3.9.2-9.8-.7-7.6m-135.5 7.4c.1 3.8.7 5.2 2.5 6.4 2.3 1.5 2.3 1.5 1.6-1.4-.4-1.6-1.5-4.5-2.5-6.4l-1.9-3.5zm132.4-3.7c-.4.7-1.6 3.7-2.7 6.8l-1.9 5.5 2.4-1.6c2.4-1.6 4-6.4 3.3-10.1-.2-1.3-.6-1.4-1.1-.6M93.1 197.3c6.5 6.5 13.6 10.8 20.4 12.2 2.9.6 2.9.5-1.7-3.7-4.3-3.9-18.3-12.6-23.3-14.5-1.1-.4 1 2.3 4.6 6m67.1-2.3c-9.2 5-15 9-18.2 12.5l-2.5 2.8 3-.7c7-1.7 13.8-5.7 20-12.1 3.5-3.6 6.1-6.5 5.7-6.5s-4 1.8-8 4M64 200.6c1.9 5.2 7.8 12.3 11.7 13.9 2 .8 3.8 1.3 4 1.1.3-.2-.5-.7-1.6-1.1-1.2-.3-3.9-3.2-6-6.3s-5.1-6.8-6.5-8.1l-2.6-2.5zm121.6 4.9c-3.1 4.1-6.6 8.1-7.9 9-2.7 1.9-1.9 1.9 2.6 0 3.5-1.4 7.5-6.2 11.1-13.3 2.9-5.6 0-3.5-5.8 4.3m-82.9 2.7c1 1.2 5.1 3.6 9.1 5.4 4.9 2.3 7.6 4.2 8.4 5.9 1.4 3.1 3.2 3.3 2.3.2-1.6-5.1-4.6-8.7-7.3-8.7-1.5 0-5.3-1.1-8.5-2.4-5.6-2.3-5.8-2.4-4-.4m46.3.4c-3 1.3-6.7 2.4-8.2 2.4-2.1 0-3.3.9-5.3 4.3-1.4 2.4-2.5 4.9-2.5 5.5 0 2.1 1.6 1.3 2.8-1.3.7-1.6 3.6-3.6 8.5-5.9 4-1.9 8.1-4.4 9.2-5.6 1-1.1 1.6-1.9 1.4-1.9-.2.1-2.9 1.2-5.9 2.5m-83.1 7.3c5 6.9 11.8 10.3 17 8.3 2.3-.8 2.2-1-2.5-3.7-4-2.4-15-7.5-16.2-7.5-.2 0 .6 1.3 1.7 2.9m119.7-.7c-2.8 1-7.2 3.3-9.9 5.1-4.6 3-4.7 3.2-2.5 4 4.9 1.8 11.2-1.2 16.2-7.8 3.1-4 2.9-4-3.8-1.3M79 218.5c0 1.2 8.1 4.4 9.6 3.8 1.1-.4 1.5-.3 1 .5-.4.7 1 1.3 4.1 1.8 2.7.5 5.2.7 5.6.6.5-.1 3.8.8 7.5 2.1 7.4 2.7 15.6 4.4 13.3 2.8-1.1-.7-.6-1 2-1.4l3.4-.4-3.6-.1c-4-.2-15.8-3.6-20-5.8-1.4-.7-5-1.4-8-1.5s-7.4-.8-9.9-1.5c-5.2-1.6-5-1.5-5-.9m94 .6c-1.4.6-5.6 1.3-9.5 1.5-4.4.3-9.2 1.5-12.9 3.1-3.2 1.4-9.1 3.1-13 3.8-5 .9-6 1.4-3.6 1.4 2.7.1 3.2.4 2 1.2-2.5 1.7 5.9-.1 12.5-2.7 3.3-1.3 6.9-2.3 8-2.2 3.9.3 9.6-1.3 8.9-2.4-.5-.7.1-.9 1.7-.5 1.7.4 3.8-.2 6.4-1.8 4.1-2.5 3.9-3.1-.5-1.4m-85.6 6c-.3.6-1.6 1.4-2.7 1.8-2 .8-2 .9 1 2.5 4.2 2.1 8.6 2 10.6-.2 2.3-2.5 2.1-3.2-.7-3.2-1.4 0-3.6-.4-5-1-1.7-.6-2.7-.6-3.2.1m78.1 0c-1.1.4-3.2.8-4.7.8-3.3.1-3.5 1.1-1 3.4 2.4 2.2 7.4 2.2 10.1-.1l2-1.7-2.2-1.6c-1.4-1.1-2.9-1.3-4.2-.8m-63.9 5.7c-.7 1.2 4.9 4.2 10.7 5.8 4.4 1.1 5.4 1.1 8.1-.3l3.1-1.6-6.5-1.3c-3.6-.8-7.8-1.8-9.4-2.4-3.5-1.2-5.3-1.3-6-.2m41.9 1.3c-3.8 1-8.1 1.9-9.5 1.9-2.4 0-2.4.1.8 2 3.3 2 3.6 2 9 .5 6.6-1.9 10.5-4.2 9.7-5.5s-1.6-1.2-10 1.1m-46.3 1.8c-1 .6-.2 1.7 2.8 4.4 3.1 2.9 4.8 3.7 7.8 3.7 3.7-.1 7.8-2.1 6.5-3.3-.3-.4-1.4-.7-2.3-.7s-3.9-1.1-6.6-2.5c-5.3-2.7-6.2-2.9-8.2-1.6m55.3.7c-1.1.8-4.4 2.2-7.4 3.1-5.3 1.5-5.4 1.6-3 2.9 4.5 2.5 9.1 1.7 13.8-2.2 3.2-2.8 3.9-3.9 2.9-4.5-1.9-1.3-4-1-6.3.7"/>
    </g>
</svg>
