<svg xmlns="http://www.w3.org/2000/svg" width="341.333" height="341.333" version="1.0" viewBox="0 0 256 256">
    <g fill="#e5e5e5">
        <path d="M116.3 32.4c-7.8 1.9-15.7 6.2-22 11.9-11.2 10.3-16.5 22.2-16.5 37.2 0 15.1 5 26.4 16.3 36.9 20 18.6 49.6 18 69-1.3 10.3-10.3 14.9-21.2 14.9-35.6s-4.6-25.3-14.9-35.6c-12.6-12.6-29.9-17.6-46.8-13.5m23.2 2.1c15.6 4.1 27.6 14.6 34 29.8 1.5 3.7 1.5 3.7-1 4.7-1.5.6-2.5 1.7-2.5 3 0 1.9-.6 2-11 2h-10.9l-3.3-4.1c-3.1-3.9-9.2-7.9-12-7.9-.6 0 1.1 1.2 4 2.6 3 1.5 6 3.9 7.2 5.9 1.1 1.8 2.7 3.6 3.6 3.9s6.3.6 12 .6h10.5l-.2 8.4c-.1 4.6.1 8.9.5 9.4.3.6-.2 1.3-1.1 1.5-1 .3-.1.5 1.9.6l3.7.1-1.5 4.2c-3.8 11-13.3 20.9-25.4 26.7-7.4 3.5-7.7 3.6-20 3.6s-12.6 0-20.2-3.7c-25.7-12.2-35.8-41.6-23-66.3 10.4-19.9 33.5-30.5 54.7-25"/>
        <path d="M100.4 42.9c-13.1 9.5-20 23.3-19.8 39.7.1 14.3 6.6 27.6 17.7 36.3l5.7 4.4 14.8-1.4 14.7-1.4-7.6-.6c-5-.4-9.6-1.5-13.2-3.2-6.7-3.1-15.1-10.6-17.9-16.1-1.1-2.2-2.9-4.7-4.1-5.6-2.2-1.8-1.8-5 .6-5 2.3 0 4.1 2.8 2.9 4.3-.8 1-.4 2.6 1.8 6.3 5.5 9.7 17.2 17.4 26.8 17.7l4.7.2.2-14.7c.3-16.5.5-15.9-7.2-17.2-5.8-1-7.5-1.6-7.5-2.7 0-.5 7.3-.9 17.4-.9 15.8 0 17.6.2 19.9 2 3.2 2.5 5.9 2.5 8.2 0s1.3-6.7-2.1-8.2c-2-1-2.9-.8-5.4 1-2.7 2.1-4 2.2-20.7 2.2-13.2 0-17.4-.3-16.6-1.1.7-.7 3.5-1.5 6.3-2 7.1-1.1 8-2.1 8-8.5 0-4.9-.2-5.4-2.3-5.4-1.2 0-2.8.9-3.5 2.1-.9 1.4-2 1.9-3.3 1.6s-2.8.6-4.8 2.8c-9.2 10.6-4.7 26.2 8.9 30.4l3.5 1.1-3.4-.5c-7-1-13.5-8.3-14.7-16.3-.8-5.2 1.7-12.4 5.5-16.3 1.4-1.5 3.1-3.5 3.8-4.5.6-1.1 1.6-1.8 2.2-1.7 2.1.5 2.6.5 7.1.3 2.5-.1 3.7-.4 2.8-.7-1.5-.4-1.8-1.6-1.8-7.7 0-6.3-.3-7.5-2.4-9.5-2.3-2.2-4-2.6-15.2-3.5-5.6-.5-6.5-.3-10 2.3m19.6 2.5c-7.5 1.7-13.4 4.9-18.6 10.2-6.6 6.8-9.6 13.9-10.5 24.8l-.7 9.1.2-9c.2-10.3 2.7-17 9.1-24.3 5.7-6.5 16.4-12.2 23-12.1 2.1.1 1.3.4-2.5 1.3m-11 .6c0 .5-.4 1-1 1-.5 0-1-.5-1-1 0-.6.5-1 1-1 .6 0 1 .4 1 1m15 13c0 .5-.4 1-1 1-.5 0-1-.5-1-1 0-.6.5-1 1-1 .6 0 1 .4 1 1m-19.2 18.6c2.6 1.8 2.8 5 .5 7.6-2 2.2-5.1 2.3-7.5.1-2.4-2.1-2.3-4.8.2-7.3 2.4-2.4 3.8-2.5 6.8-.4m-3.3 40.4c.3.5.1 1-.4 1-.6 0-1.1-.5-1.1-1 0-.6.2-1 .4-1 .3 0 .8.4 1.1 1"/>
        <path d="M98.6 78.6c-3 3-1.3 7.4 2.9 7.4s5.9-4.4 2.9-7.4c-.8-.9-2.2-1.6-2.9-1.6s-2.1.7-2.9 1.6m32.7-34.9c.9.2 2.5.2 3.5 0 .9-.3.1-.5-1.8-.5s-2.7.2-1.7.5m10.9 2.7c7.7 3.2 13.4 7.9 18 15 4.1 6.4 5.4 7.6 7.8 7.5.9 0 .6-.4-.7-.9-1.2-.5-3.9-3.5-6.1-6.8-2.2-3.2-5.7-7.3-7.8-9.2-3.9-3.4-12.8-8-15.4-8-.8 0 1.1 1.1 4.2 2.4M144 93c-3.5 4.4-7.6 7-13 8.1-3.2.6-3.2.7-.7.8 4.1.2 9.6-3.1 14.3-8.3 2.3-2.5 3.8-4.6 3.3-4.6-.4 0-2.2 1.8-3.9 4m19.8 3.7c-.8 1-2.4 3.4-3.6 5.3-2.8 4.7-8.7 10.3-14.2 13.4-2.5 1.4-4 2.6-3.4 2.6 3.8 0 16.3-10.9 19.5-17.2 1-2 2.7-4.2 3.6-4.7 1-.6 1.3-1.1.7-1.1s-1.8.8-2.6 1.7m-29 23c.6.2 1.8.2 2.5 0 .6-.3.1-.5-1.3-.5s-1.9.2-1.2.5M97 33.7c-4.6.8-9.4 2.5-18.2 6.6l-8.8 4V52l7.1-4.6c3.9-2.5 11.2-6.3 16.4-8.4 12.6-5.1 14-6 9.5-5.8-1.9 0-4.6.3-6 .5m53-.4c0 .7 3.4 2.3 14.1 6.7 4.2 1.7 10.6 5.1 14.4 7.5 3.7 2.5 7 4.5 7.2 4.5s.3-1.7.1-3.7c-.3-4.3-3-6.2-15.8-11.2-6.9-2.7-20-5.2-20-3.8M86.4 43.9c-4.3 2.1-9.8 5.3-12.1 7L70 54v11.5c0 6.3.2 11.5.5 11.5 1.5 0 5.6-5.9 6.6-9.5 1.8-6.8 7.8-17.1 12.9-22.4 2.7-2.8 4.8-5.1 4.6-5.1-.1 0-3.8 1.7-8.2 3.9m80.4 2.4c5.5 5.9 9.2 12.5 11.6 20.8 1 3.4 2.8 6.7 4.6 8.4l3 2.9V54.3l-5.3-3.6c-5.3-3.5-17-9.7-18.3-9.7-.4 0 1.6 2.4 4.4 5.3m-102 22.6c-1.6 1.8-5.5 7.7-8.9 13.1-8.3 13.6-13.4 17.8-26.2 21.5-3.1.9-5.7 2.2-5.7 2.9s2.1 2.1 4.6 3.1c5 1.9 11.3 7.6 13.8 12.2 2.6 5.2 5.9 27.9 5.3 36.5-.4 4.3-.4 7.8-.2 7.8s.9-1.9 1.5-4.3c.7-2.3 2.5-6.6 4.1-9.6l2.9-5.4-1.7-4.6c-1.2-3.2-1.8-8.4-2-17.1-.2-12-.3-12.6-2.8-14.7-1.4-1.2-4.1-2.5-6.1-2.9l-3.6-.7 6-2.9c7.3-3.4 10.1-6.6 15.4-17.2 2.2-4.5 4.7-8.8 5.5-9.7.9-1.1 1.3-3.3 1.1-6.5l-.3-4.8zM188 70.4c0 3.1.7 5.7 1.9 7.4 1 1.5 3.5 5.9 5.4 9.8 4.8 9.6 8.1 13.2 14.9 16.4l5.8 2.8-3.5.6c-1.9.4-4.6 1.7-6 2.9-2.4 2.1-2.6 2.8-2.9 14.7-.2 8.7-.8 13.9-2 17l-1.7 4.4 3.1 5.7c1.6 3.1 3.4 7.4 3.9 9.5.8 3.4.9 2.7 1-4.9.1-4.8 1-14.1 2.2-20.5 2.9-16.5 6.8-22.5 17.3-26.8 2.5-1.1 4.6-2.4 4.6-3.1s-1.9-1.7-4.2-2.3c-6.5-1.6-14.3-5.6-18.6-9.4-2.1-2-6.7-8.3-10.2-14.1s-7.4-11.5-8.7-12.7l-2.3-2.1zM72.7 77.8c-2.4 2.5-2.6 3.1-1.6 6.6.6 2.4.8 8.3.5 15-.4 6.1-.9 18.8-1.2 28.2-.5 16-.4 17.4 1.5 21.2 1.6 3.2 2.1 6 2.1 12.7v8.6l4.8 5.1c9.6 10.4 25.9 18.5 40.6 20.3l5.9.8-.6-3.3c-.4-1.8-.7-4.7-.7-6.4 0-3.1-.1-3.2-6.7-4.4-21.3-4.1-39.9-22.1-44.2-43-2.4-11.5-.8-26 3.8-35.1 1.8-3.5 1.9-4.1.4-8.2-.8-2.4-1.6-8.1-1.6-12.6-.1-4.6-.2-8.3-.3-8.3 0 0-1.2 1.3-2.7 2.8m107.6 5.5c-.1 3.9-.9 9.4-1.7 12.2-1.5 4.8-1.4 5.2.9 11 4.2 10.5 4.9 26.2 1.7 37.1-4 13.1-16.5 27.7-29 33.8-4 1.8-10.1 4-13.7 4.7-4.9.9-6.5 1.7-6.5 2.9 0 1-.3 3.9-.7 6.5l-.6 4.7 5.4-.7c16.8-2.3 35.8-12.6 43.4-23.5 2.1-3 2.4-4.6 2.3-11.1-.1-5.9.3-8.5 2-12 2-4 2.2-6.2 2.2-19.5 0-8.3-.5-16.7-1.2-18.9-1.4-4.8-1.4-23-.1-26.5.8-1.9.6-3-1-5.2-1.2-1.6-2.3-2.8-2.6-2.8s-.7 3.3-.8 7.3"/>
        <path d="M64 86.4c-2.6 7-6 25.6-4.7 25.6.3 0 1.7-2.4 3-5.4 1.4-3 3.6-7.1 5-9.1 2.4-3.6 2.5-3.8 1-8.1-1.8-5.4-3-6.3-4.3-3m124 1.9-2.1 4.7 3.6 5.9c1.9 3.3 4.2 7.7 5 9.8l1.4 3.8V107c.1-5.1-2.9-18.4-4.9-21.9-.7-1.3-1.3-.6-3 3.2M66.9 101c-1.5 2.5-3.5 6.8-4.5 9.7l-1.8 5.2 2.7 8c1.5 4.4 2.7 9.5 2.7 11.3 0 2.2.3 2.8.9 2 .4-.7.4-3.2 0-5.5-1.3-6.8-1-11.8 1.2-20.2 1.1-4.3 1.9-9.4 1.7-11.4l-.3-3.6zM185 98.7c0 .9 1.2 6.6 2.7 12.6 2.4 10.2 2.6 11.6 1.4 18.1-.8 4.7-.8 7.3-.1 8s1-.2 1-2.7c0-2.1 1-6.3 2.1-9.5 3.5-9.5 3.5-10.3-1-19.7-4-8.1-6.1-10.5-6.1-6.8m-107.5 6.8c-13.1 31.4 4.9 67.2 37.6 75 8.8 2 8.9 2 8.9-1.9 0-8-.7-9-7.3-11-3.4-.9-7.3-1.9-8.7-2-1.4-.2-2.8-.4-3.2-.5-.5 0-.8-.6-.8-1.2s-2.4-3.5-5.4-6.4c-3.2-3.2-6.7-8.1-8.7-12.2-3.3-6.5-3.4-7.2-3.5-18.8-.1-11-.3-12.4-2.6-16.5-1.4-2.5-3-5.4-3.6-6.5-.9-1.7-1.2-1.5-2.7 2m97 .6c-1 1.9-2.8 4.8-4 6.5-2.1 2.7-2.2 3.5-1.3 8 .9 4.9.4 14.7-1.1 18.7-.5 1.3-.4 2.9.2 3.9 1.2 1.8-.6 4.8-2.8 4.8-.8 0-2.3 1.5-3.4 3.4-4.5 7.1-13.9 13.7-24.1 16.7-2.5.7-4.8 1.8-5.2 2.4-.4.5-.8 3.4-.8 6.3v5.3l3.8-.7c12.9-2.3 26.1-9.8 33.8-19.1 5.2-6.5 9.8-15.8 11.3-23.1 2.3-10.9.8-26.2-3.3-34l-1.4-2.6z"/>
        <path d="M87.4 120.5c-1.4 7.6.1 17.1 4 24.9 3.9 8 11.4 16 14.1 15 1.7-.7 4.8 1.4 4 2.6-.5.9 5.2 3.4 10.4 4.5l3.4.7-.7-5.3c-.8-6.1-1.2-6.9-3.2-6.9-2.5 0-8.7-3.6-11.9-6.9-1.6-1.7-4-3.1-5.1-3.1-3.2 0-4.5-2.3-4.3-7.2.7-11.7.3-13.3-5-17.8l-5-4.1zm75 .4c-3.3 3.2-4.2 4.8-5.1 9.9-2.2 11.6-7.1 18.4-16.6 23.2-3.4 1.7-6.5 3.9-6.9 4.8-.7 1.7-1.1 9.2-.5 9.2 1.9 0 12.1-3.8 15.4-5.7 3.9-2.3 14.3-12.6 14.3-14.1 0-.4-.4-1.3-.9-2.1-1.3-2-.2-4.1 2.4-5.1 1.4-.5 2.5-2 2.9-4 .9-4.5.8-18.8-.2-19.4-.4-.2-2.5 1.3-4.8 3.3m-9.7 30.7c.8 2.1-1.3 4.2-2.8 2.7-1.3-1.3-.5-4.3 1.1-4.3.6 0 1.3.7 1.7 1.6"/>
        <path d="M99 128.7c0 5.1 1.1 7.1 4 7.7 3.8.7 5.6 4 4 7.2-1.1 1.9-1 2.6.1 4 1.8 2.2 11 7.4 13.1 7.4 1.5 0 1.5-.5.4-4.8-.7-2.6-1.9-5.9-2.6-7.2-2.7-5.2-9-11.7-13.9-14.4l-5.1-2.7zm52.5-.1c-7.4 4.2-14.8 14.5-16.9 23.6-.8 3.4.3 3.5 6.1.7 8.3-4 16-16 15.1-23.7l-.3-2.8zM127 143c0 .5.5 1 1 1 .6 0 1-.5 1-1 0-.6-.4-1-1-1-.5 0-1 .4-1 1m-70.2 8c-7.6 13.5-8 18.4-2.4 31.5 2.1 4.9 4.3 9.4 4.9 10 .7.7.7.4.2-1-1.9-4.7-1.7-15.9.4-23.9 2.2-8.4 2.5-12.5 1.3-19.1l-.8-4zm137.8-2.9c-1.1 5.7-.6 12.4 1.5 20.5 2.1 7.9 2.2 18 .4 22.9-1.9 4.7 1 0 4.3-7.2 3.2-6.8 3.7-8.8 3.7-15.4 0-6.9-.4-8.3-4-15.3-2.2-4.3-4.3-8-4.6-8.2-.4-.2-.9 1-1.3 2.7M67 160.2c0 3.1.6 6.3 1.4 7.4 1.4 1.8 1.5 1.8 2.1-.9.8-3-.9-10.2-2.5-11.2-.6-.4-1 1.5-1 4.7m119.7-2c-1.9 4.1-2.2 7.5-.8 9.7 1.5 2.4 3.2-2.4 2.9-8.2l-.4-5.2zm-81.7 4.3c0 .8.7 1.5 1.5 1.5s1.5-.7 1.5-1.5-.7-1.5-1.5-1.5-1.5.7-1.5 1.5M63 171c0 5.2 2 13 3.3 13 .5 0-.2-13.5-.9-16.8-.9-4.4-2.4-2.1-2.4 3.8m127.6-3.8c-.9 4.5-1.3 16.7-.5 16.2 1.4-.8 2.9-7.6 2.9-13.2 0-5.2-1.6-7.2-2.4-3m-123.3 9.1c.7 8 1.4 9.6 4.3 10.3 1.3.3 2.6 1.4 2.9 2.4s1.3 2.4 2.3 3.2c1.5 1.1 1.4 1-.1-1.5-1-1.6-2.5-5.2-3.4-8-1.7-5.7-5-12.7-6-12.7-.3 0-.3 2.8 0 6.3m118.4-1.6c-1.4 2.6-2.8 6.4-3.2 8.3s-1.7 5.1-2.8 7c-1.6 2.7-1.7 3.2-.4 2.2.9-.8 1.9-2.2 2.2-3.3.4-1 1.2-1.9 2-1.9 2.7 0 4.4-3.1 5-9.5.4-3.6.5-6.8.2-7.1s-1.7 1.6-3 4.3m-10.2 3.3c-8.8 9-25.6 17.1-38.6 18.6l-5.6.6-.7 6.1c-1 9.9-.8 16.7.7 16.7.6 0 2.7-1.5 4.5-3.4s6.7-4.9 11-6.7c4.2-1.9 10.8-5 14.6-6.9l7-3.5 5.9-11.6c3.3-6.5 5.8-12.2 5.6-12.8-.3-.7-2.2.7-4.4 2.9m-99-.9c.4 1.3 3 6.8 5.8 12.2 5.8 11.2 6.2 11.5 23.8 19.2 6.8 2.9 11.8 5.8 13.9 8 6.1 6.3 6.6 5.2 5.3-11.3l-.6-8.2h-3.2c-10.7 0-30-8.3-40-17.2-4.8-4.3-5.6-4.8-5-2.7M43 180.2c0 4.4 2.7 17 4.9 22.9 4.1 10.9 9.5 16 19.3 18.3l2.6.6-1.8-3.8c-1-2-2.6-5.7-3.4-8.2-.9-2.5-4.8-8.8-8.8-14-3.9-5.2-8.4-11.4-10-13.9-2.5-4.1-2.8-4.3-2.8-1.9m167.4 1.6c-1.2 2-4.9 7.1-8.1 11.2-7.5 9.5-9.9 13.4-12.3 20.5-1.1 3.2-2.5 6.4-3.1 7.1-1.4 1.7-1.5 1.7 4.5-.1 2.7-.8 6.4-2.6 8.2-4 3.8-2.9 8.5-12.2 10.7-21 1.5-5.9 3.1-17.5 2.5-17.5-.2 0-1.3 1.7-2.4 3.8"/>
        <path d="M59.6 183.7c2.8 11.8 8.1 20.6 15.3 25.3 2.4 1.7 4.8 3 5.3 3 .4 0-.8-2.2-2.7-4.9s-5.1-8.2-7-12.4c-2-4.4-4.9-8.7-7-10.6-4.4-3.8-4.7-3.8-3.9-.4m132.1 1.2c-2.7 2.5-4.8 5.7-6 9-1 2.8-3.7 8-6.1 11.6-2.5 3.6-4.1 6.5-3.7 6.5s2.8-1.3 5.2-3c5-3.2 10-9.6 12.3-15.6 1.7-4.3 3.6-12.4 3-12.4-.3 0-2.3 1.8-4.7 3.9m-120.7 7c0 2.2 6 12.8 9.8 17.2 1.9 2.2 5.6 5 8.1 6.1 7.5 3.3 12.2 4.8 11.6 3.8-.3-.6-1.1-1-1.7-1-.7 0-3.1-.9-5.5-2.1-3.3-1.6-5.7-4-10.3-10.8-6.1-9-12-15.4-12-13.2m109.8 2.9c-2 2.2-5.9 7.3-8.6 11.5-3.9 5.7-6.2 8-9.5 9.6-2.4 1.2-4.8 2.1-5.5 2.1-.6 0-1.4.4-1.7 1-.3.5 1.1.3 3.2-.4 13-4.7 17.2-8.2 23.3-19.7 4-7.5 3.5-9.3-1.2-4.1M71.6 213.1c10 13.2 15.1 16.9 22.8 16.8 2.8 0 6-.4 7.1-.8 1.8-.7 1.6-1-1.5-2.6-1.9-1-5.3-3-7.5-4.5s-5.8-3.3-8-4-6.2-2.4-9-3.8c-2.7-1.3-4.5-1.8-3.9-1.1m109.4.9c-1.9 1.1-5.7 2.7-8.5 3.6-2.7.9-6.8 2.9-9 4.4s-5.6 3.5-7.5 4.5c-3.1 1.6-3.3 1.9-1.5 2.6 1.1.4 4.3.8 7.1.8 7.6.1 13-3.8 22.7-16.7 1.2-1.6.9-1.5-3.3.8m-86.5 7.6c4.8 3.7 9.7 5.6 13.4 4.9 2.6-.4 3.2-.3 2.1.5-1.3.9-1.3 1.1 0 2 .8.5 3.9 1.2 6.8 1.6 4.8.6 5.5.4 7.7-2l2.4-2.6-3.2-.1-3.2-.1 3-.8c2-.5-.8-.8-8.1-.9-8.2-.1-12.6-.6-17-2.1-4.6-1.5-5.5-1.6-3.9-.4m63 .4c-3.6 1.3-8.2 1.9-16.5 2-7.6.2-10.5.5-8.5 1l3 .8-3.2.1-3.2.1 2.3 2.5c2.6 2.8 4.6 3 11.2 1.4 4.4-1.1 5.5-2.3 3.2-3.3-.7-.3.3-.3 2.3 0 3.6.6 8.6-1.3 13.4-5 2.5-1.9 2.2-1.9-4 .4m-52.6 9.6c-.7.9-2.2 1.9-3.3 2.3-1.7.7-1.5 1 1.7 3 6.9 4.2 14.9 3.4 17.6-1.8 1-1.7.4-2-6-3.5-8.7-2-8.4-2-10 0m35.4.1c-5.7 1.3-6.2 1.6-5.3 3.4 2.8 5.2 10.8 6 17.7 1.8 3.2-2 3.4-2.3 1.7-3-1.1-.4-2.6-1.4-3.3-2.3-1.6-1.9-2.5-1.9-10.8.1"/>
    </g>
</svg>
