<svg xmlns="http://www.w3.org/2000/svg" width="341.333" height="341.333" version="1.0" viewBox="0 0 256 256">
    <g fill="#e5e5e5">
        <path d="M114.5 11.4c-21.6 3.5-41.2 14.7-55.1 31.4-6.7 8.1-14.7 23.8-17.5 34.7-3 11.4-3 31.7 0 43 2.3 8.5 7.4 20.1 12.1 27.5 3.9 6.1 7.8 16.8 8.7 23.7l.7 5.8.7-7c.4-3.9 1.9-10.7 3.4-15.2l2.7-8.2-3-4.8c-1.7-2.6-4.3-7.5-5.8-10.7-2.5-5.6-2.8-5.8-4.1-4-.8 1-1.9 3.1-2.5 4.6-.5 1.6-1.4 2.6-1.9 2.3-.4-.3-2.3-4.9-4.1-10.3-3-9.2-3.2-10.5-3.2-24.7-.1-11.9.3-16.4 1.8-21.5 8.2-28.2 27.3-48.6 54-57.6 9.3-3.2 13.6-3.1 16.7.2 2.4 2.6 2.4 2.6 2.6 27.6.1 15.7.7 26.3 1.4 28.5.7 2.1 1.1 9.4 1 18.1-.1 12.6-.4 15.2-2.2 18.9-2.6 5.3-7.6 9.7-16.9 14.8-8.3 4.5-17.7 14-21.5 21.5-5.7 11.3-7.1 26-3.5 38.3 3.8 13.4 6.6 17.2 23 31.8 8.6 7.5 13.4 9.8 16 7.4 2.3-2.1 17.7-2.1 20 0s7.6.3 11.5-3.9c1.7-1.8 6.2-5.7 10-8.8 10-8 13.4-13.1 17.4-26.2 3.7-12.2 2.4-27.1-3.4-38.6-3.9-7.7-13.4-17.2-21.6-21.5-8.9-4.7-14.7-9.8-17-15.1-2.8-6.1-3.7-29.3-1.5-35.4 1.3-3.7 1.6-8.6 1.6-27.3-.1-24.2.7-29.9 4.2-31.8 3.1-1.7 10.3-.6 19.3 2.9 24.3 9.5 42.2 29.7 49.7 55.7C210 84 210.4 88 210.4 99c0 13.8-1.4 21.7-5.9 32.5l-1.7 4-2.3-4.5c-1.3-2.5-2.7-4.3-3.1-4-.5.3-2.3 3.4-4 7-1.8 3.6-4.3 8.1-5.7 10l-2.4 3.5 1.9 4.5c2.5 5.8 4.7 15.3 4.9 21l.1 4.5.9-5.6c1-7 4-15.6 7.5-21.7 1.5-2.6 4-7 5.5-9.7 6.8-11.9 11.7-34.2 10.4-47.5-3.2-32.5-21.1-59.2-49-73-16.6-8.2-36-11.4-53-8.6m24.4 115.1c3.5.9 9 2.9 12.2 4.6 9.7 5.2 20.3 17.7 23.3 27.6.6 1.9.4 2.3-1.3 2.3-1.4 0-2.3.9-2.7 2.5-.6 2.5-.7 2.5-11.5 2.5h-10.8l-3.1-3.8c-3.1-3.9-9.6-8.2-12.1-8.2-.8 0 .4.9 2.6 1.9s5.9 3.9 8.2 6.5l4.2 4.6H170v8.4c0 9.7.5 11.6 3.1 11.6 1.7 0 1.7.3.4 4.1-2.1 5.7-5.1 10.5-10.3 16.1-18.8 20.2-51.6 20.2-70.4 0-11.3-12.1-15.7-27.5-12.4-43 5.7-26.9 32.1-43.9 58.5-37.7"/>
        <path d="M98.7 136.4c-9.8 8-15.5 17.7-17.9 30.6-2.8 15.2 4.3 33.3 17.2 43.9l5.4 4.4 8-.7c4.5-.3 11.5-.9 15.6-1.3l7.5-.8-8-.5c-13.7-1-27.3-9.4-32.2-20.1-1-2.1-2.5-3.9-3.3-4.1-1.2-.3-1.4-2.1-1.1-10.7.4-12.1 1.7-17.2 6.2-24.2 5.6-8.9 18.8-17.1 26.7-16.8 1.9.1 1.4.4-1.8 1-10.9 2.1-21.7 10.6-26.7 20.8-2.1 4.3-2.8 7.3-3.1 14.3-.4 8.3-.3 8.9 1.9 10.7 1.8 1.5 2.1 2.2 1.2 3.3-1 1.1-.6 2.5 1.7 6.4 5.5 9.7 17.7 17.7 27 17.8l4.5.1.3-8.1.3-8.1-4.8-1.2c-9.3-2.4-16.5-13-14.8-22 .7-4.1 5.1-12.1 6.6-12.1.5 0 1.4-1.2 1.9-2.6.8-2 1.6-2.5 3.7-2.3 4.2.3 11-.3 9.1-.8-1.5-.4-1.8-1.6-1.8-7.7 0-4.4-.5-7.7-1.2-8.5-1.1-1.1-.2-1.3 5.2-.8 3.6.3 7.4.8 8.5 1.2 1.8.6 1.8.5.3-.5-1-.6-4.2-1.3-7-1.6-2.9-.2-8.2-.9-11.8-1.4s-9.1-1.2-12.3-1.4c-5.6-.5-6-.3-11 3.8M109 138c0 .5-.5 1-1.1 1-.5 0-.7-.5-.4-1 .3-.6.8-1 1.1-1 .2 0 .4.4.4 1m14.5 13c.3.5.1 1-.4 1-.6 0-1.1-.5-1.1-1 0-.6.2-1 .4-1 .3 0 .8.4 1.1 1M105 170c5.2 5.2-1.7 12.3-7.2 7.3-1-.9-1.8-2.4-1.8-3.5 0-2.2 3.4-5.8 5.5-5.8.8 0 2.4.9 3.5 2"/>
        <path d="M98.7 170.8c-3 3.3-1.5 7.2 2.8 7.2 4.2 0 5.9-4.4 2.9-7.4-2-2.1-3.7-2-5.7.2m50-28.9c4 2.5 7.4 5.9 10.1 9.7 5.2 7.5 6.9 9.4 8.5 9.3.6 0 .3-.5-.8-1s-3-2.8-4.3-4.9c-3.3-5.9-7.6-10.4-13.1-13.9-2.6-1.7-5.1-3.1-5.6-3.1-.4 0 1.9 1.8 5.2 3.9m-26.1 15.2c-1 1.5-2.2 2-3.5 1.6-2.7-.7-7.6 4.9-9.1 10.4-2.8 10.4 4 21.2 14.8 23.4l3.2.7v-6.1c0-3.5-.5-6.3-1.2-6.7-.6-.4-3.9-1.2-7.2-1.8-3.2-.6-6.1-1.7-6.4-2.4-.3-1.1 3.1-1.3 17.6-1 15.5.3 18.3.5 19.9 2 2.6 2.4 5.6 2.3 7.8-.2 1.5-1.6 1.7-2.6.9-4.8-.7-2.2-1.7-2.8-4.5-3-2.3-.2-4 .2-4.9 1.2-1 1.3-4.2 1.6-19.3 1.6-12.5 0-17.8-.3-17.1-1 .6-.6 3.4-1.4 6.2-1.9 7.1-1.1 8.2-2.3 8.2-8.7 0-4.7-.3-5.4-1.9-5.4-1.1 0-2.7 1-3.5 2.1"/>
        <path d="M142.4 186.5c-3.9 4.1-6.1 5.5-9.5 6.3-2.4.5-3.4 1-2.1 1.1 4 .2 8.6-2.5 13.4-7.8 6.2-6.8 4.7-6.5-1.8.4m20.7 3.1c-1.2 1.5-2.1 3.1-2.1 3.6s-2.4 3.4-5.2 6.5c-5.4 5.6-10.1 8.6-17.3 10.9-2.2.7-3.1 1.3-2 1.3 3.6.2 14.3-5.7 18.9-10.2 2.5-2.5 5.4-6.3 6.5-8.6 1.2-2.2 2.9-4.5 3.8-5 1-.6 1.3-1.1.6-1.1-.6 0-2.1 1.2-3.2 2.6M106.5 33.4C81.9 41.3 63.4 61 57.4 85.5c-3 12.1-1.8 36.3 1.9 38.7.6.3 1.8 2.7 2.8 5.3 2.1 5.5 8 15.5 9.1 15.5.4 0 1.5-1.5 2.4-3.3.9-1.7 2.8-4.6 4.1-6.3l2.3-3.1-2.9-6.4c-3.3-7.3-4.6-11.9-3.2-11.9.5 0 1.2 1.5 1.5 3.2.3 1.8 1.7 5.7 3.1 8.6l2.5 5.3 5.4-4.6 5.4-4.7-1.8-4.2c-2.2-5.1-3.4-11.6-2.2-11.6.5 0 1.2 1.8 1.6 4.1s1.3 5.7 2.1 7.6l1.5 3.4 6.2-3.5c13.4-7.5 16.6-11.6 20.3-26 2.2-8.4 2.4-10.4 1.4-13.4l-1.1-3.5-3.1 5.7c-3.4 6.4-10.8 13.6-20.7 20.2l-6.5 4.4-.3-4.6c-.4-5.9 2-13.5 6.1-19.6 2.7-4 3.5-4.6 5.7-4.1 3 .5 5.2-1.5 5.4-5 .1-2 4.4-5 10-7 .6-.2.9-.7.5-1-.3-.4-3.2.6-6.5 2.1-3.2 1.6-6.7 2.6-7.7 2.4-2.4-.5-4.7 1.5-4.7 4.2 0 1.1-1.6 4.3-3.5 7-4.1 5.8-6.6 13-7.4 21.1l-.6 6-6 3.2-6 3.2-.6-2.7c-2-8.3.3-22 5.3-32.2 6.1-12.5 21-24.8 34.2-28.1 2.5-.6 4.6-1.5 4.6-2 0-1.3-10 2-17.2 5.8-4.5 2.3-8.9 5.8-13 10.2C76.4 76 71.6 88.3 72.1 104.7l.3 9.3-4 2.7c-2.1 1.4-4.9 3.5-6 4.5-2.6 2.3-2.9 2-4.4-6-2.9-14.4.6-34.8 8-47.7 9.8-16.8 27-29.8 45.5-34 3.8-.9 7.2-1.8 7.4-2.1 1.2-1.2-6.3 0-12.4 2M104 70.5c1.6 1.9.6 4.5-1.9 4.5-2.3 0-3.5-2.8-2-4.6s2.4-1.8 3.9.1m33.1-39.1c.2.3 3.6 1.2 7.4 2.1 18.5 4.2 35.7 17.2 45.5 34 7.4 12.9 10.9 33.3 8 47.7-1.5 8-1.8 8.4-4.4 6-1.1-1.1-3.9-3.1-6.2-4.5l-4-2.5.4-8.9c.5-10.4-1.2-18.4-6-28.3-4-8.4-15-19.6-23.3-23.7-6.9-3.5-16.5-6.6-16.5-5.3 0 .5 1.5 1.1 3.3 1.5 13.1 2.7 29.3 15.8 35.6 28.8 4 8.3 6.4 20.9 5.5 28.9-.4 3.2-.8 5.8-.9 5.8-.2 0-2.9-1.5-6.1-3.3l-5.9-3.3-.7-6.4c-1.7-17.1-11.4-30-27.3-36-5-1.9-2.3.6 3.7 3.4 12.2 5.6 20.6 17.8 21.6 31l.5 6.8-2.4-1.2c-4.3-2.3-15.3-10.8-19.6-15.2-2.3-2.4-5.3-6.5-6.7-9.3l-2.5-5-1 2.8c-.6 1.6-1.1 3.4-1.1 4.2 0 2.5 4.7 19.1 6.3 22.1 2.3 4.3 7.3 8.7 15.2 13.3 8.2 4.8 8.7 4.5 10.7-5.1.7-3.2 1.6-5.8 2-5.8 1.2 0-.1 6.7-2.2 11.7l-1.8 4.2 5.4 4.6 5.4 4.7 2.5-5.4c1.4-2.9 2.8-6.8 3.1-8.6.3-1.7 1-3.2 1.5-3.2 1.3 0 .1 4.4-3.2 11.9l-2.9 6.3 4.2 6.4c2.3 3.5 4.5 6.4 4.8 6.4 1 0 7-10.5 8.9-15.5 1-2.6 2.2-5 2.8-5.3 3.7-2.4 4.9-26.6 1.9-38.7-6-24.7-25.2-44.8-50-52.4-6-1.9-12.7-2.8-11.5-1.7"/>
        <path d="M101 59.5c0 2 .5 2.5 2.5 2.5s2.5-.5 2.5-2.5-.5-2.5-2.5-2.5-2.5.5-2.5 2.5m59.4 10c-.7 1.8.3 3.5 2.1 3.5 2.1 0 2.8-1.9 1.5-3.5-1.6-1.9-2.9-1.9-3.6 0m24.8 4.1c-3.9 2.7-2.3 8.4 2.4 8.4 4.6 0 5.9-6 1.9-8.6-1.8-1.2-2.4-1.1-4.3.2M64 91.5c0 .9.5 1.5 1.1 1.3s1.1-.8 1.1-1.3-.5-1.1-1.1-1.3-1.1.4-1.1 1.3m-24.6 50c-.9 2.2-1.7 6.9-1.8 10.5-.1 5.8.2 7 3.2 11.2 1.8 2.6 5.7 6.6 8.7 9 3.6 2.8 6.5 6.2 8.5 10 1.7 3.1 3.5 6 4 6.3 1.4.9 1.2 0-.9-3.7-1-1.8-2.4-7-3.1-11.6-1.5-11.3-3.2-15.6-8.5-21.8-2.5-2.9-5.4-7.2-6.5-9.6l-1.9-4.3zm173.7-.3c-.6 1.9-3.2 5.9-5.7 8.8-6.7 7.9-8.4 12.3-9.9 25.5-.4 3.3-1.6 7.5-2.6 9.4-1.1 1.8-1.8 3.6-1.5 3.8.5.5 1.5-1.1 5.7-8.4 1.3-2.3 5.1-6.4 8.4-9 4.1-3.3 6.9-6.6 8.8-10.5 2.8-5.5 2.9-5.8 1.7-12.6-.6-3.9-1.7-7.8-2.4-8.8-1.2-1.6-1.4-1.4-2.5 1.8M51 186.2c1.1 1.8 3.6 8.2 5.5 14.3 3.3 10.5 7.9 19.2 12.1 22.5 1.6 1.4 1.7 1.3.9-.5-2.8-6.5-6.5-18.4-6.5-21 0-3.8-4.9-12.4-9-15.9-4.2-3.5-5.4-3.3-3 .6m149.7.9c-5.2 5.5-7.2 9.5-8.7 17.9-.6 3.6-2.3 9.1-3.6 12.4s-2.2 6.1-2 6.4c.3.2 2.5-2.4 5-5.8 3.4-4.6 5.4-8.8 7.7-16.3 1.7-5.6 4-12 5-14.1 1-2.2 1.7-4.2 1.4-4.4-.3-.3-2.4 1.5-4.8 3.9M64 201.7c0 2.2 4.3 14.9 6.5 19.3 2.5 4.9 4.1 6.5 9.8 10l3.9 2.3-3.3-5.9c-1.8-3.3-4.5-7.5-6.1-9.6-1.5-2-4.6-6.7-6.8-10.4-2.2-3.8-4-6.4-4-5.7m124 5.5c-1.9 3.4-5.1 8.2-7 10.7-2 2.5-4.8 6.9-6.3 9.8l-2.7 5.2 3.8-2.1c6-3.4 7.3-5 10.3-11.3 2.4-5.4 6.2-17.5 5.6-18.1-.1-.2-1.8 2.5-3.7 5.8m-111 2.1c0 .4 1.5 3.8 3.4 7.5 3.8 7.5 10.4 15.5 14.7 17.7 3 1.6 8.5 2 9.2.7.3-.4-4.5-5.2-10.5-10.7-6.1-5.5-12.3-11.4-13.9-13-1.6-1.7-2.9-2.7-2.9-2.2m91 9.9c-5.8 5.4-12.2 11.2-14.3 12.8l-3.9 2.9 2.7.7c4.6 1.1 10-1.2 14.8-6.5 3.9-4.4 12.4-18.8 11.5-19.6-.1-.1-5 4.2-10.8 9.7m-12 7.8c-3.2 2.5-11.2 5-16.2 5-2.1 0-3.8.4-3.8 1 0 .5-1.1 1-2.5 1-2.3 0-2.4.2-1.3 2 1.5 2.3 3.5 2.5 8.9.8 4-1.1 4.9-2.2 2.7-3.2-.7-.3.3-.4 2.4-.3 2.8.1 4.6-.7 8.2-3.7 2.5-2 4.6-3.9 4.6-4.2 0-.7-.4-.5-3 1.6m-57 .5c2.9 3.5 7.4 5.9 10.9 5.7 2 0 3 .1 2.4.4-2.3 1-1.4 2.1 2.6 3.2 5.4 1.7 7.4 1.5 8.9-.8 1.1-1.8 1-2-1.3-2-1.4 0-2.5-.4-2.5-.9 0-.4-2.8-1.1-6.2-1.5-3.7-.3-8.4-1.7-11.2-3.1-3.2-1.7-4.4-2-3.6-1m9.3 10.9c-.4.7-1.4 1.5-2.2 1.7-2.3.8 3.8 4.1 8.3 4.6 3.3.4 4.5.1 6-1.6 1.1-1.2 1.7-2.3 1.4-2.6-.4-.5-11.2-3.5-12.3-3.5-.2 0-.8.6-1.2 1.4m31.3.2c-2.6.7-5.1 1.5-5.4 1.8-1.2 1.2 3.3 4.6 6 4.6 2.3 0 7.9-2.1 9.6-3.5.6-.6-3.3-4.5-4.3-4.4-.5.1-3.2.7-5.9 1.5"/>
    </g>
</svg>
