<svg xmlns="http://www.w3.org/2000/svg" width="341.333" height="341.333" version="1.0" viewBox="0 0 256 256">
    <g fill="#e5e5e5">
        <path d="M120.8 37.2c-.2 25.7 0 34.1 1 36.7 1.6 4.1 1.8 18.5.2 22.6-1.8 4.7-3.9 6.5-11.7 10.1-17.6 8.1-29.5 18.7-35.6 31.6-4.7 9.9-5.2 12.4-2.7 13.1 1.9.5 2 1.4 2 12.2s-.1 11.7-2 12.2c-2.5.7-2.5.5.1 8.1 5.5 16.2 20.2 30.8 36.4 36.2 5.9 2 6.6 2 8.7.6 3.2-2.2 19-2.3 21.2-.1 1.3 1.3 2.2 1.4 5.8.5 17.7-4.8 34.9-21.7 40.2-39.8 1.3-4.4 1.3-5.2.1-5.2-2.5 0-3.5-3.7-3.5-13.4 0-8.6.2-9.6 2.2-11s2.1-1.8.9-5.8c-4.8-16.3-20.1-31.7-38.6-39-5.7-2.2-9-4.9-11.3-9.3-2.1-4.1-2.3-19.9-.2-23.7 1.3-2.3 1.5-7.9 1.2-36.2L134.9 4h-13.8zm20.7 77.3c8.7 2.3 15.2 6.2 22.5 13.5 10.5 10.5 15 21.3 15 36-.1 14.7-4.6 25.7-14.9 35.9-10.2 10.1-21.8 15.1-35.6 15.1-28.3 0-51.5-22.9-51.5-51 0-22.7 15.9-43.5 37.7-49.5 6.6-1.8 19.7-1.8 26.8 0"/>
        <path d="M116.6 115.5c-34.8 8.8-49.4 49.9-28 78.4 10.9 14.5 29.6 22.1 47.1 19.2 18.2-3.1 32.6-15 39.3-32.6 3.1-8 3.4-23.3.6-31.5-6.8-20.2-24.1-33.5-45.1-34.5-5.1-.3-10.1.1-13.9 1m25.6 2.5c12.7 3.9 22.9 12.5 28.8 24.4 3.5 7 3.7 8.6 1 8.6-2.2 0-2.2-.4-2.2 15.1.1 9.5 0 9.5-2.7 10.6-1.6.6-4.6 3.7-7.2 7.4-5 7.1-12.1 13-18.1 15-2.3.7-3.6 1.5-3 1.7 2 .6 11.6-4.8 16-9.1 2.4-2.3 5.5-6.1 6.9-8.5 1.4-2.3 3.3-4.7 4.3-5.2 2.8-1.5 8-1.2 8 .3 0 3.4-6.8 14.5-12 19.6-19.4 19.1-49.8 18.6-68.5-1-5.7-6-11-15.6-12-21.9-.4-2.4 0-1.8 1.3 2 2.8 8.2 5.5 13 10.7 18.7 7.6 8.5 10 9.6 19.7 8.7 7.9-.6 14.2-2.1 10.8-2.4-.8-.1-.4-.5 1-.9 2.4-.6 2.5-1.1 2.8-8.9.3-8 .3-8.2 2.8-8.2 3.9 0 9.5-3.4 14-8.4 2.3-2.5 3.8-4.6 3.3-4.6-.4 0-2.2 1.8-3.9 4-3.5 4.5-9.5 8-13.5 8-2.4 0-2.5-.2-2.5-6 0-6.6-.5-7.2-7.5-8.4-12.5-2.2-9.6-3.3 8.8-3.5 14.7-.2 16.6 0 20.1 1.9 4.8 2.6 7.6 2.3 9.5-1.2 1.4-2.4 1.4-2.8-.3-4.7-2.2-2.4-6.8-2.8-8.6-.6-1 1.2-4.5 1.5-19.2 1.5-11 0-17.7-.4-17.3-.9.3-.6 2.7-1.3 5.3-1.7 8.9-1.3 9.2-1.6 9.2-8.4 0-6.6-1.5-7.8-4.7-4-1 1.1-2.9 2-4.4 2-4.7 0-8.9 7.1-8.9 15.1 0 8.8 5.6 15.9 14.4 17.9 2.4.6 2.6.8.8.9-2.7.1-9.1-3-11.3-5.5-3.8-4.3-5.1-8.6-4.7-14.9.3-5.1.9-7 3.3-10 1.7-2 3.6-4.8 4.4-6.2 1-2 1.9-2.4 4-2 1.4.3 3.7.3 5.1.1 2.5-.5 2.5-.6 2-8.7l-.5-8.2-4.6.2c-9.1.2-20 7.1-25.7 16-6 9.3-8.1 25.7-3.7 28.9 1.2.9 1.6 2.1 1.2 3.5-.8 2.9 2.4 9 7.3 13.9 4.1 4.1 9.7 7.4 16.5 9.7 3.9 1.3 3.9 1.3.5.8-8.5-1.3-18.3-8.6-23.1-17-1.7-2.9-3.5-5.5-4.2-5.8-1.9-.7-2-16-.1-23.2 4-15.9 17.4-27 34.3-28.4l7.6-.6-14.2-1.4c-13.9-1.3-14.2-1.3-17.6.8-7 4.3-13.7 12.8-17.9 22.6-.9 2.2-1.7 3.3-1.7 2.5-.1-2.4 5.4-12.6 9.4-17.4 11.4-14 32.8-20.1 50.7-14.6m-60.5 37.2c-.3.7-.5.2-.5-1.2s.2-1.9.5-1.3c.2.7.2 1.9 0 2.5m-1 12.5c-.2 2.1-.4.4-.4-3.7s.2-5.8.4-3.8c.2 2.1.2 5.5 0 7.5m24.1-8.1c2.4 1.7 3 6.2 1 8.2-2.4 2.4-8.8.9-8.8-2.2 0-.5.6-.2 1.3.8.9 1.2 2.3 1.7 4.2 1.4 2.5-.2 3.1-.8 3.3-3.3.3-1.9-.2-3.3-1.4-4.2-2.4-1.7-3-1.7-5.4.7-1.1 1.1-2 1.6-2 1.1 0-1 3.9-4.1 5-4.1.3 0 1.6.7 2.8 1.6M102 200c0 .5-.4 1-1 1-.5 0-1-.5-1-1 0-.6.5-1 1-1 .6 0 1 .4 1 1"/>
        <path d="M134.8 126.7c.6.2 1.8.2 2.5 0 .6-.3.1-.5-1.3-.5s-1.9.2-1.2.5m11.7 4.2c5.8 3.4 10.4 7.9 14.8 14.7 1.8 2.7 4.1 5 5.2 5.1 1.8.3 1.7.2-.2-.6-1.2-.6-2.9-2.4-3.8-4.2-3.4-6.5-16.1-17.9-19.9-17.9-.6 0 1.2 1.3 3.9 2.9m-12.3 14.7c3.5 1.1 5.8 2.7 9 6.4 2.4 2.8 5 5 5.8 4.9 1.3 0 1.3-.1-.1-.7-.8-.4-3.3-2.7-5.5-5.1-3.9-4.4-8.7-7.2-12.1-7-1 0 .3.7 2.9 1.5m-.9 56.1c.9.2 2.3.2 3 0 .6-.3-.1-.5-1.8-.5-1.6 0-2.2.2-1.2.5m-6 1c.9.2 2.3.2 3 0 .6-.3-.1-.5-1.8-.5-1.6 0-2.2.2-1.2.5M105.5 7.1C96.7 9.6 82.2 16.5 73.9 22c-8.7 5.8-20.5 18.2-25.5 26.6C40.3 62.3 36.9 74 35.5 92.5c-1.4 19.8-4.4 35.7-10.1 54.7-.3 1 0 1.8.6 1.8 2.4 0 11.8-7.1 15.9-12l4.3-5.1-2.4-8.2c-2-7.1-2.3-10.3-2.2-24.2 0-14.7.2-16.7 2.8-24.5 9.9-30.4 32.9-52.1 62.6-59.4l9.5-2.3.3-4.1c.3-3.8.1-4.2-2-4.1-1.3 0-5.4.9-9.3 2M139 9.3v4.3l6.8 1.3c28 5.5 52.8 26.4 63.2 53.4 7.2 18.6 7.9 37.9 2 58.8l-1.4 4.7 4.4 5.3c3.7 4.3 13.5 11.9 15.5 11.9 1.1 0 .4-4.7-1.5-11-3.7-12.2-5.9-24.5-7.5-42.4-1.8-21.2-3.2-27.1-9-39.2-9.4-19.4-23.3-32.8-44.8-42.9C158 9.4 144.6 5 140.8 5c-1.4 0-1.8.9-1.8 4.3"/>
        <path d="M105.5 18c-3.8 1-11 3.9-16 6.4-36.4 18-55 60.2-43.9 99.8.9 3.2 1.9 5.8 2.3 5.8.3 0 1.6-1.5 2.9-3.4 1.2-1.8 3.3-4.3 4.6-5.5 2.2-2 2.3-2.6 1.3-5.9-1.7-5.9-1.3-24.7.7-32.2 6.9-25.9 27.1-46.1 52.7-52.7l6.9-1.7v-6.3c0-7.4 0-7.4-11.5-4.3m33.5 4.4c0 5.6.3 6.6 1.8 6.6.9 0 5.5 1.4 10.2 3 4.7 1.7 10.1 3.2 12 3.3 2.6.1 3.6.7 3.8 2.2.2 1.1 2.6 3.6 5.4 5.5 11.2 7.8 22.3 24.7 26.4 40 2 7.5 2.4 26.3.6 32.3-1 3.7-1 3.9 3.4 8.3 2.4 2.5 4.4 5 4.4 5.5s.4.9.8.9c.5 0 1.9-4 3.1-9 7.9-32.1-4.3-67.8-29.8-87.4-11-8.5-26.4-15.5-37.6-17.2l-4.5-.6z"/>
        <path d="M109.2 31.9c-23.3 6.7-40.7 23.3-48.8 46.6-2.6 7.2-2.8 9.3-2.9 22 0 7.8.5 14.8 1 15.7.9 1.6 1.7 1.3 7.3-2.4l6.2-4.1v-6.8c0-3.8-.4-6.9-1-6.9-1.5 0-3.2-3.9-2.5-6.1.4-1.1 1.8-2.4 3.1-2.9s2.4-1.5 2.4-2.3c0-3.4 7.3-15.9 12.6-21.7 7.1-7.6 14.6-12.6 23.4-15.6l6.5-2.1.3-7.7c.2-4.2-.1-7.6-.5-7.5-.4 0-3.6.9-7.1 1.8M139 38v7.8l3.3.6c7.5 1.4 17.9 7.5 25.2 14.9 11.2 11.3 16.5 24.2 16.5 40.4v8.3l6.2 3.9c5.6 3.6 6.4 3.8 7.3 2.3.5-.9 1-8 1-15.7-.1-12.7-.3-14.8-2.9-22-3.2-9.5-6.2-14.9-12.7-23-6.4-8.1-14.1-14-18.2-14-2.4 0-3.4-.6-4.4-2.6-1.3-2.7-8.2-5.9-17-7.8l-4.3-.9zm34.8 17.7c.5 1.7-2.6 2.9-4 1.5-.6-.6-.7-1.5-.3-2.2.9-1.4 3.7-.9 4.3.7"/>
        <path d="M111.5 48.4c-15.3 4.9-28.9 17.7-34.6 32.7-1.8 4.7-1.8 5.3-.4 6.9.8.9 1.5 2.6 1.5 3.8 0 2.1-2.4 5.2-4.1 5.2-1 0-1.2 6.3-.3 9.6.5 2 1 1.8 10.3-3.1 16.7-8.7 25.3-16.3 30.6-26.8 2.3-4.6 2.5-6.2 2.5-17.4 0-6.8-.3-12.3-.7-12.2-.5 0-2.6.6-4.8 1.3M97.8 76.6c.4 2.7-2.6 4-4.6 2-1.3-1.3-1.3-1.8-.2-3.1 1.8-2.1 4.4-1.5 4.8 1.1"/>
        <path d="M94.2 76.4c.1 1 .8 1.7 1.3 1.7 1.5-.1 1.2-2.4-.3-2.9-.9-.3-1.3.2-1 1.2M139 59.5c0 11.3.2 13 2.4 17.3 5.2 10.2 14.2 18 31.7 27.6l8.7 4.6.6-4.3c1.4-9.5-2.2-23.9-8.7-34-6.4-10-21.4-20.9-31.9-23.1L139 47zM159.9 73c.4 0 1.3-.6 2.1-1.3.8-.6.6-.2-.4 1l-1.9 2.3 4.9.2 4.9.1-5 .6-5 .6-.6 5-.6 5-.1-4.9-.2-4.9-2.2 1.9c-1.3 1-1.7 1.2-1 .4 2-2.3 1.4-3-3-3.2l-4.3-.1 4.3-.4c4.3-.4 4.9-1 3.2-3.1-.7-.9-.7-.9.2-.2 2.1 1.8 2.8 1.1 3-3.3l.1-4.2.4 4.2c.2 2.4.7 4.3 1.2 4.3m2.2 5.7c1.3 1.6 1.2 1.7-.3.4-1-.7-1.8-1.5-1.8-1.7 0-.8.8-.3 2.1 1.3m-44.9-.7c-2.8 6.2-11.8 16-19.1 21-3.1 2-9.4 5.7-14.1 8-18.6 9.3-27.7 16.6-37.7 29.9-3.2 4.3-7.4 8.2-12.3 11.6l-7.5 5.1-1.4 7c-1 5.2-1.1 8.5-.3 13.5 1 6.7 4.4 15.9 5.9 15.9.5 0 1.4-2.4 2.1-5.2 2.5-10.8 12.7-28.3 20.7-35.8l2.7-2.5 2.8 3.3 2.8 3.4 1.7-5.1c2.4-7.3 10.2-18.6 17.7-25.8 3.5-3.4 11.1-9.2 16.9-12.8 15.2-9.9 19.5-14.4 21.4-23.2.3-1.8 1.1-3.5 1.6-3.8 1.3-.8 1.1-4.6-.4-7.2-1.2-2.2-1.3-2-3.5 2.7"/>
        <path d="M135.1 75.3c-1.3 3.4-1.4 6.9-.3 8.2.5.6 1.7 3.2 2.7 5.9 2.5 7 6.6 11.1 19.1 19.2 18.6 12.1 30.1 24.7 35.5 38.8l2.2 5.7 2.7-3.3c3.3-3.9 3.5-3.7 11 5.7 6.7 8.4 12.7 19.8 14.8 28.4 2 7.8 2.6 7.9 5.5.9 3.2-7.6 4-14.6 2.7-23l-1.3-7.9-7.6-5.2c-5-3.5-9.2-7.4-12.4-11.7-10-13.4-16.4-18.5-38.6-30.4-19-10.2-27.9-18.2-33-29.6l-2-4.4zm-78.4 80.1c-1.2 3.1-.7 9.6 1 12.9 1.5 2.9 1.7 3 2.4 1.2 1.3-3.3.9-7.8-.9-12-1.5-3.2-1.9-3.6-2.5-2.1"/>
        <path d="M196.7 158.3c-1.8 4.5-2.1 7.9-.8 11.2.7 1.8.9 1.7 2.4-1.2 1.7-3.2 2.3-12.8.9-13.7-.4-.2-1.5 1.4-2.5 3.7M52 173.5c0 6.5 1.8 14.5 3.3 14.5.6 0-.2-16.5-.9-19.8-1-4.9-2.4-1.8-2.4 5.3m149.6-5.3c-.6 2.7-1.4 19.8-.9 19.8.1 0 .9-1.3 1.8-3 1.7-3.3 2.2-19 .5-19-.5 0-1.2 1-1.4 2.2m-145.2 9c1.2 11.6 1.7 12.9 4.5 13.9 1.4.6 3.8 2.5 5.3 4.2l2.8 3.2-1.9-3.5c-1.1-1.9-2.5-5.5-3.1-8-1.3-4.8-6.6-16-7.6-16-.4 0-.4 2.8 0 6.2m139.1 1c-1.8 4-3.6 9-4 11.1-.4 2-1.6 5-2.7 6.5-1.2 1.5-.5 1.1 1.5-1.1 2-2 4.3-3.7 5.2-3.7.8 0 2-1.1 2.5-2.4 1.2-3.2 2.5-17.6 1.6-17.6-.4 0-2.2 3.3-4.1 7.2M48.6 191c1.9 8.3 6.7 17.3 11.9 22.5 4.4 4.4 12.5 9.3 12.5 7.6 0-.5-.5-1.3-1.1-1.7-2-1.2-9.6-13.8-11.9-19.9-1.6-4.1-3.8-7.3-6.9-10.2-2.5-2.4-4.9-4.3-5.3-4.3-.3 0 0 2.7.8 6m154.2-1.7c-2.9 2.7-5 5.6-5.8 8.2-1.5 5.1-6.9 14.8-10.9 19.9-1.7 2.1-3.1 4-3.1 4.3 0 .7 6.4-2.9 9.8-5.5 6.9-5.3 12.9-16.2 15.6-28.5.8-3.6-.1-3.4-5.6 1.6"/>
        <path d="M62.5 201.7c3 6.7 8.3 14.7 12.3 18.6C77.6 223 93 230 96 229.9c.8 0-.6-.8-3.1-1.8-8.2-3.2-11.1-5.5-16-12.8-6-8.8-14.6-19.3-15.9-19.3-.5 0 .2 2.6 1.5 5.7m128.5-1.5c-2.4 2.4-6.9 8.2-10.2 13-6.3 9.5-7.8 10.8-16.5 14.4-3.2 1.3-5.1 2.3-4.3 2.3s5.6-1.6 10.7-3.7c7.8-3.1 9.7-4.4 13.2-8.6 4.9-6 13.3-21.6 11.7-21.6-.2 0-2.3 1.9-4.6 4.2M61.9 222.8c2.1 3.9 13.7 15.4 17.4 17.4 4.2 2.1 11.2 2.8 16 1.5 3.5-1 3.4-2.2-.3-3.7-1.7-.7-5.4-2.9-8.3-4.9-2.8-2-7.2-4.3-9.7-5s-7.1-2.6-10.3-4.2c-4.5-2.2-5.5-2.4-4.8-1.1m130.4-.1c-1.3.8-5.8 2.7-10 4.2-4.3 1.5-10.7 4.6-14.1 6.9-3.5 2.3-7.3 4.4-8.3 4.7-5 1.6.3 4 8.2 3.8 2.5 0 6.4-1 8.6-2.1 3.8-2 15.2-13.2 17.3-17.2 1.3-2.4 1.2-2.4-1.7-.3m-105 9c.3.5 3.5 2.3 7.1 4.2 5.8 2.9 6.9 3.2 9.7 2.2 4.7-1.6 5.7-1.3 3 .8l-2.4 1.9 7.1 1.6c8.3 1.9 10.2 2 10.2.6 0-.6 1.2-2.2 2.6-3.5l2.7-2.5-3.9-.1c-3.8-.1-3.8-.2-.9-.9 1.9-.5-1.7-.8-9.7-.9-9.5-.1-14.2-.6-19-2.1-7.3-2.3-7.1-2.2-6.5-1.3m75.2 1.3c-3.8 1.4-8.2 1.9-18.5 2-8.5.2-12.4.5-10.5 1 2.9.7 2.9.8-.9.9l-3.9.1 2.7 2.5c1.4 1.3 2.6 2.9 2.6 3.5 0 1.4 1.9 1.3 10.2-.6 6.5-1.5 7-1.8 5.3-3-2.6-1.9-1.4-2.6 2.4-1.3 2.9 1 3.9.8 9.7-2.2 9.6-4.8 10-6.3.9-2.9m-60.6 10.6c-.8.9-2.7 2.3-4.3 2.9l-2.9 1.2 4.6 2.7c2.5 1.5 6.1 3 8 3.3 4.2.6 9.9-1.8 12.2-5.3 1.8-2.8 2-2.6-6.5-4.3-3-.6-6.4-1.3-7.6-1.6-1.3-.4-2.6 0-3.5 1.1m44.6-.1c-2.2.8-5.4 1.4-7.2 1.4-1.7.1-3.4.5-3.7.9-.9 1.6 5.5 7.1 8.9 7.8 4 .7 6.5 0 12.4-3.3l4.4-2.6-2.9-1.2c-1.6-.6-3.5-1.9-4.3-2.8-1.6-2-2.2-2-7.6-.2"/>
    </g>
</svg>
