<svg xmlns="http://www.w3.org/2000/svg" width="341.333" height="341.333" version="1.0" viewBox="0 0 256 256">
    <path fill="#e5e5e5" d="M112.5 23.4c-7.7 3.8-12.1 6.5-10.7 6.5 3.9.2 2.4 1.7-4 4-3.5 1.2-10.6 4.4-15.8 7.1l-9.5 4.9h5.3c3.9.1 6.8-.7 11.2-2.9 6.5-3.3 7-3.4 7-2.1 0 .5-5.5 4-12.2 7.8C71 56 54.9 65.8 51.5 68.4c-1.9 1.5-1.8 1.5 2 1.6 7.4 0 20.9-2.9 24-5.2 16.5-12.2 23.8-16.9 24.7-16 .7.7-1 2.4-5.4 5.3-10.4 7-18.9 14.2-18.4 15.6.3.8-.2 1.3-1.4 1.3-1.1 0-5.3 3-9.4 6.7-6.7 6.1-7.2 6.9-5.3 7.4 1.8.5 1.6.7-1.5 1.4-3.1.6-6.3 3.3-18.5 15.8-13.6 14-14.5 15.2-12.3 15.7 2.3.5 2.2.7-1.6 2.2-3 1.2-5.8 3.8-10.3 9.3-8.8 10.9-14.8 20-12.7 19.2.9-.4 15.4-7.1 32.2-14.9l30.6-14.3 3.1-6c1.8-3.3 3.3-6.3 3.5-6.6.1-.4-1-.4-2.5-.2-2.7.5-2.7.5-.8-1.1 1.1-.8 2.6-1.6 3.3-1.6s2.9-2.6 4.9-5.8c2-3.1 5.4-8 7.5-10.9 3.2-4.4 3.5-5.2 2-5.6-1.3-.3-.9-.7 1.4-1.8 1.7-.8 5.9-4.5 9.3-8.4 3.3-3.8 6.8-7.3 7.7-7.8 3.4-1.9 2.4.5-2.9 7-4.6 5.7-5.3 6.9-3.9 7.5 1.4.5 1.1.8-1.3 1.7-2.2.8-4.7 3.7-9.3 10.9-5.3 8.3-5.9 9.8-4.4 10.3 1.4.6 1.3.9-1.1 1.9-2 1-4.3 4.5-9.2 14.1-3.6 7-6.5 13-6.5 13.3s.8.6 1.8.6c1.3 0 .9.7-1.5 2.8-1.8 1.5-4.3 5.2-5.7 8.3C60.6 149 52 172.6 52 174c0 1.1 4.9-1.5 13.2-7.1 3.2-2.2 5.8-3.7 5.8-3.5 0 .3-3.3 2.8-7.2 5.5-14.1 9.7-14.2 9.9-20.2 33.6-2.8 11-4.6 16.1-9.9 27.7-2 4.3-3.4 7.8-3.3 7.8 2 0 33.9-18.1 36.5-20.6 4.8-4.9 6.8-4.6 3.2.4-2.4 3.6-9.2 18.2-8.3 18.2.4 0 12.3-9.7 26.4-21.5 22.2-18.5 25.8-21.9 26.2-24.7.3-1.8 1.3-12.5 2.2-23.8 1.5-19.5 1.7-20.7 4.2-24l2.7-3.5 1.9-51.5c1-28.3 2-51.7 2.2-51.9s.6-.2.8 0 1.2 23.6 2.2 51.9l1.9 51.5 2.7 3.5c2.5 3.3 2.7 4.5 4.2 24 .9 11.3 1.9 22 2.2 23.8.4 2.8 4 6.2 26.2 24.7 14.1 11.8 26 21.5 26.4 21.5.9 0-5.9-14.6-8.3-18.2-3.6-5-1.6-5.3 3.2-.4 2.6 2.5 34.5 20.6 36.5 20.6.1 0-1.3-3.5-3.3-7.8-5.3-11.6-7.1-16.7-9.9-27.7-6-23.7-6.1-23.9-20.1-33.6-4-2.7-7.3-5.2-7.3-5.5 0-.2 2.6 1.3 5.8 3.5 8.3 5.6 13.2 8.2 13.2 7.1 0-1.4-8.6-25-11.6-31.9-1.4-3.1-3.9-6.8-5.7-8.3-2.4-2.1-2.8-2.8-1.4-2.8.9 0 1.7-.3 1.7-.6s-2.9-6.3-6.5-13.3c-4.9-9.6-7.2-13.1-9.2-14.1-2.4-1-2.5-1.3-1.1-1.9 1.5-.5.9-2-4.4-10.3-4.6-7.2-7.1-10.1-9.3-10.9-2.4-.9-2.7-1.2-1.3-1.7 1.4-.6.7-1.8-3.9-7.5-5.3-6.5-6.3-8.9-2.9-7 .9.5 4.4 4 7.7 7.8 3.4 3.9 7.6 7.6 9.3 8.4 2.3 1.1 2.7 1.5 1.4 1.8-1.5.4-1.2 1.2 2 5.6 2.1 2.9 5.5 7.8 7.5 10.9 2 3.2 4.2 5.8 4.9 5.8s2.2.8 3.3 1.6c1.9 1.6 1.9 1.6-.8 1.1-1.5-.2-2.6-.2-2.5.2.2.3 1.7 3.3 3.5 6.6l3.1 6 30.6 14.3c16.8 7.8 31.3 14.5 32.2 14.9 2.1.8-3.9-8.3-12.7-19.2-4.5-5.5-7.3-8.1-10.3-9.3-3.8-1.5-3.9-1.7-1.6-2.2 2.2-.5 1.3-1.7-12.3-15.7-12.2-12.5-15.4-15.2-18.5-15.8-3.1-.7-3.3-.9-1.5-1.4 1.9-.5 1.4-1.3-5.3-7.4-4.1-3.7-8.3-6.7-9.4-6.7-1.2 0-1.7-.5-1.4-1.3.5-1.4-8-8.6-18.4-15.6-4.4-2.9-6.1-4.6-5.4-5.3.9-.9 8.2 3.8 24.7 16 3.1 2.3 16.6 5.2 24 5.2 3.8-.1 3.9-.1 2-1.6-3.4-2.6-19.5-12.4-32.2-19.7-6.8-3.8-12.3-7.3-12.3-7.8 0-1.3.5-1.2 7 2.1 4.4 2.2 7.3 3 11.2 2.9h5.3L174 41c-5.2-2.7-12.3-5.9-15.7-7.1-6.5-2.3-8-3.8-4-4 3-.1-23.1-12.9-26.3-12.9-1.4 0-8.3 2.9-15.5 6.4m-62 89.6c-1.1.5-2.7.9-3.5.9-.9 0-.8-.4.5-.9 1.1-.5 2.7-.9 3.5-.9.9 0 .8.4-.5.9m158 0c1.3.5 1.4.9.5.9-.8 0-2.4-.4-3.5-.9-1.3-.5-1.4-.9-.5-.9.8 0 2.4.4 3.5.9M39 116.5c-1.9.7-4.2 1.3-5 1.3s.1-.6 2-1.3 4.2-1.3 5-1.3-.1.6-2 1.3m181 0c1.9.7 2.8 1.3 2 1.3s-3.1-.6-5-1.3-2.8-1.3-2-1.3 3.1.6 5 1.3M74 210.4c0 .2-.8 1-1.7 1.7-1.6 1.3-1.7 1.2-.4-.4s2.1-2.1 2.1-1.3m110.1 1.3c1.3 1.6 1.2 1.7-.3.4-1.7-1.3-2.2-2.1-1.4-2.1.2 0 1 .8 1.7 1.7"/>
</svg>
