<svg xmlns="http://www.w3.org/2000/svg" width="341.333" height="341.333" version="1.0" viewBox="0 0 256 256">
    <g fill="#e5e5e5">
        <path d="M90.6 2.8c-2.1 3.5-5.8 23.1-6.2 33.2-.7 15.4.4 17.6 9.6 20.4 3.6 1 10.2 3.6 14.8 5.8 4.6 2.1 8.5 3.8 8.8 3.8.2 0 4.1 2.4 8.7 5.4 12.7 8.2 23.2 19.1 27.8 28.7 4.7 9.7 5.2 11.7 4.7 18.2-.9 10.3-7.2 19.1-19.1 26.9-2.6 1.7-4.6 3.2-4.5 3.4.3.3 10.1-2.3 25.1-6.7 3.7-1.1 6.5-2.4 6.2-2.9s1.6-2 4.2-3.4c3.2-1.7 4.1-2.5 2.8-2.6l-2-.1 2-1.4c1.1-.8 4-3 6.5-4.8 4.8-3.4 28-26.4 28-27.7 0-.4-3.4.6-7.6 2.4-6.4 2.6-8.1 3.8-10.7 7.6-3.5 5.1-16.6 19-17.9 19-.5 0 .7-1.4 2.7-3.1 4.1-3.7 15.5-17.6 15.5-19 0-.5.8-1.9 1.9-3 3.6-3.9 6.2-12.9 6.8-23.7.4-6.9.3-10.2-.5-10.2-.5 0-.8-.9-.5-1.9.7-2.6-2.5-12.3-4.5-13.8-.9-.7-1.3-1.6-.9-1.9.8-.8-4.3-10.6-7.6-14.8l-2.3-2.9-9.2 12.7c-5.1 6.9-9.2 12.8-9.2 13.1s1.1 2.2 2.3 4.3c5.4 8.4 6.1 9.7 6.3 10.7.1.5 1.1 3.5 2.1 6.5 1.1 3 2.1 8 2.2 11 .2 3 .4 5.7.6 6s-.1 2.8-.6 5.5c-.5 2.8-1.1 5.7-1.2 6.5-.2.8-1.3 3.1-2.5 5s-2.2 3.9-2.2 4.3-1.2 2-2.7 3.5l-2.6 2.7 2.2-3.5c1.2-1.9 2.7-4.6 3.3-6s1.5-3.4 2-4.5c2.5-5.6 2.5-20.4 0-21.3-.6-.2-.8-1-.5-1.8.9-2.3-2.6-10.4-4.2-9.8-.9.4-1.2 0-.8-1.4.5-2.1-.3-4-4.5-10.6-1.9-3-2.6-3.6-3.4-2.5-.7 1.1-.8.9-.5-.6.4-2-2.4-6.6-7.1-11.7-2-2.2-2.8-2.5-3.9-1.6-1.2.9-1.3.7-.8-1.3.5-2.1-.5-3.5-6.5-9.3-6.7-6.5-7.2-6.8-8.6-5s-1.5 1.7-1.1-.9-.4-3.6-8.2-9.8c-8.7-6.9-11.1-8.1-11.1-5.4 0 .8-.5 1.5-1.1 1.5s-.8-1.1-.5-2.8c.6-2.5 0-3.1-8.5-8.7-10.6-6.9-10.5-6.9-11.3-5.7m74.8 124.5c-.2.7-1.4 1.9-2.7 2.6-2.1 1.3-2.1 1.2.2-1.3 2.7-2.9 3.3-3.2 2.5-1.3"/>
        <path d="M107.3 111.5c-13.6 3.5-17.7 5-16.9 6.4.3.4-1.6 1.8-4.2 3.1-3.4 1.7-4.2 2.5-2.9 2.8 1.9.4 1.2 1.2-6.9 6.7-3.6 2.4-27.6 26.6-27 27.2.2.3 3.7-.9 7.8-2.6 6.2-2.6 7.9-3.9 11.3-8.5 4.7-6.4 16.5-18.9 17.2-18.2.3.3-1.1 1.9-3.1 3.6-4.8 4.3-15.6 17.8-15.6 19.6 0 .8-.4 1.4-.9 1.4-1.3 0-6.4 12.1-6.6 15.8-.1 1.8-.5 3.6-.9 3.9-1 1.1-.7 13.1.4 13.8.6.4.8 1.5.5 2.5-.8 2.4 3.5 15 5 15 .8 0 1.1.8.9 1.7-.5 1.9 7.3 15.4 9.2 16 1.1.4 18.4-22.9 18.4-24.7 0-.5-1.7-3.8-3.8-7.2-2.1-3.5-4.7-8.8-5.7-11.8s-2-5.9-2.2-6.3c-.4-.7-1.3-8.6-1.6-14.2-.1-2.8 2.7-12.5 4.9-17 1.3-2.7 4.5-7.3 7-10l4.5-5-3.6 4.9c-3.8 5.1-7.9 12.6-7 12.6.3 0-.3 1.2-1.2 2.7-2.2 3.4-2.6 20.4-.5 21.1.6.2 1 .7.7 1.2-.8 1.3 2.8 10 4.1 10 .7 0 1 .8.8 1.7-.6 2.6 5.9 12.9 7.9 12.5 1.2-.2 1.5.2 1.1 1.3-.7 1.7 3.1 7.7 7.2 11.6 2 1.8 2.7 2.1 3.3 1 .5-.7 1.1-.9 1.4-.4s.2 1.5-.3 2.3c-.7 1.1.8 3.2 5.8 8.2 6.2 6.3 9.2 8.2 9.2 5.8 0-.6.5-1 1-1 .6 0 .8 1 .4 2.4-.5 2 .6 3.3 8.1 9.2 9.7 7.7 10.5 8.2 10.5 6 0-2.7 1.9-1.7 2.2 1.2.2 2.2 2.1 3.9 9.8 9.1l9.5 6.3 1.3-4.3c5.7-19 7.3-39.6 3.7-45.8-1.7-2.8-3.1-3.7-8.5-5.3-3.6-1-7.4-2.3-8.5-2.8s-5-2.2-8.7-3.9c-3.6-1.6-9.8-5-13.8-7.5-3.9-2.5-7.5-4.6-8-4.6-.6 0-1-.4-1-.8 0-.5-2.2-2.6-5-4.8-2.7-2.1-4.9-4.4-5-4.9 0-.6-1.8-2.9-4-5.3-2.1-2.3-3.7-4.2-3.4-4.2.2 0-.7-1.8-2.1-4s-2.5-4.5-2.5-5.2-.7-2.7-1.6-4.3c-2.6-4.9-1.3-14.2 2.9-20.8 4.1-6.3 9.6-11.9 15.5-15.3 7.1-4.3 6.8-4.3-10.5.1"/>
    </g>
</svg>
