<svg xmlns="http://www.w3.org/2000/svg" width="341.333" height="341.333" version="1.0" viewBox="0 0 256 256">
    <path fill="#e5e5e5" d="M230 22.6c-10 10.8-13.6 15.3-13.8 17.4-.3 3.1-1.8 4.1-2.4 1.6-.2-.8-6.2 5-14 13.6-10.3 11.1-13.8 15.6-13.9 17.6 0 1.5-.3 2.1-.6 1.4-.2-.6-.8-1.2-1.2-1.2-1 0-20.6 21.9-20.7 23.3-.1.7-.2 1.6-.3 2.2-.1.5-.5.4-.9-.3-.6-.9-3.4 1.6-9.3 8.4-4.6 5.3-8.3 10.3-8.3 11 .1.8-.4 1.4-1.1 1.4-1.8 0-13.5 14.3-13.5 16.4 0 .9-.6 1.6-1.2 1.6-1.4.1-10.8 12.2-10.8 13.9 0 .5-.4 1.1-.8 1.3-1.5.6-11.4 15.9-13.8 21.4-2.6 5.8-3.2 11.4-1.2 11.4.6 0 .9.3.6.6-.4.3 0 2 .7 3.7 1.5 3.6 2.1 8.5 1.3 10.7-.3.8-1.4 3.7-2.3 6.5-1 2.7-3.3 7.2-5.1 10-3.4 5.1-3.7 6.9-.7 4.3 1-.9 2.8-1.9 4-2.2 1.1-.4 2.4-1.4 2.7-2.2s1-1.3 1.5-1c.4.3 1.6-.3 2.6-1.4 1.5-1.6 2.1-1.8 3.4-.7 1.4 1.1 1.4 1 .2-.5-.7-1-1.2-1.8-1-1.9 5.1-1 5.2-1 3.8.8-1.3 1.6-1.2 1.7.3.4 1-.7 1.6-1.7 1.3-2.1-.3-.5 1.2-2.2 3.2-3.9 2.1-1.7 3.3-3.1 2.7-3.1-.7 0-1.7.7-2.4 1.5-.7.9-2.7 2.6-4.4 3.8s.5-1.8 4.9-6.6c8.8-9.6 9.7-10.3 23.4-17.4 5.2-2.6 12.4-6.4 16-8.4s9.1-4.8 12.1-6.3 6.5-3.7 7.7-4.8c1.3-1.2 2.3-1.8 2.3-1.5 0 1.2 12.1-5.3 12.7-6.8.3-.8.9-1.2 1.4-1 1.1.7 15.9-7.4 15.9-8.6 0-.6.8-.9 1.7-.7 1.4.2 2.2-1.8 4.4-11.7 1.5-6.6 2.8-12.3 2.8-12.8.1-.4-1.5.3-3.4 1.5-2 1.4-3.5 3.1-3.5 4.3 0 1.4-.3 1.6-.8.7-.7-.9-3.1.2-9.5 4.5-4.7 3.2-8.6 6.4-8.7 7.1 0 .8-.6 1.2-1.2.9-1.6-.5-15.8 8.9-15.8 10.5 0 .6-.3.9-.6.5-.6-.6-34.8 21.9-37.8 24.8-.8.8-1.7 1.5-2 1.5-.4 0-2.4 1.1-4.6 2.5-9.1 5.7-2.6.8 19.5-14.9 12.9-9.2 23.5-17.2 23.5-17.7s.5-.9 1.1-.9c1.9 0 15.9-10.4 15.9-11.8 0-.7.5-1 1.1-.7.6.4 2-.2 3.2-1.2 1.2-1.1 5.2-4.1 9-6.7 4.7-3.4 6.7-5.4 6.7-6.9 0-1.8.2-1.9 1-.7.7 1.2 1.5.9 4.6-1.6 3.4-2.7 4-3.9 6.1-13 3.2-14 3-14.5-3.9-8.7-3.9 3.2-5.8 5.5-5.8 7 0 2.4-1.5 3.2-2.2 1.2-.5-1.5-19.8 14.9-19.8 16.7 0 .8-.6 1.4-1.4 1.2-1.8-.4-17.8 13.1-17 14.4.3.5 0 .8-.8.6-1.6-.4-14.8 10.2-14.8 11.8 0 .7-1 1.5-2.2 1.8-1.3.3-5 3.1-8.2 6.1-3.3 3-6.2 5.5-6.5 5.5s-2.6 1.8-5 4.1c-2.4 2.2-4.6 3.7-5 3.4-.3-.4 2.8-3.7 6.9-7.3s9.9-9 12.9-11.9 5.6-5.3 5.9-5.3c1.3 0 14.2-12.4 14.2-13.7 0-.8.5-1.1 1-.8 1.4.9 17.4-13.4 17.8-15.8.3-1.3.6-1.6 1.1-.9 1 1.7 22.1-17.4 22.1-20.1 0-1.7.2-1.9.9-.8.7 1.2 2.4.2 7.8-4.6l6.8-6.1 3.4-16.3c1.9-9 3.7-17.1 3.9-17.9.3-.8-4.3 3.2-10.2 9-7.3 7.2-10.6 11.2-10.6 12.7 0 1.3-.5 2.3-1.1 2.3-.5 0-.7-.5-.4-1 2.1-3.4-2.5.5-12.8 10.8-8.3 8.3-11.7 12.4-11.7 14.1 0 1.8-.3 2.1-1.3 1.3-1-.9-3.4 1-10.6 8.2-5.1 5.1-9.1 9.9-8.9 10.7s-.4 1.3-1.3 1.2C165.3 117 151 132 151 134c0 .6-.4.9-.9.6s-3.6 2.4-6.9 6.2c-3.3 3.7-8.6 9.4-11.6 12.7-3.1 3.3-5.6 6.6-5.6 7.2 0 .7-.5 1.3-1.2 1.3-.6 0-2.7 1.9-4.7 4.2-3.4 4-3.5 4.3-3.2 11.3.4 11.6-5.8 27.5-14.4 37l-3.7 4 3-4c4.7-6.5 8.3-13.5 10.7-21 2.5-8 3.3-19.4 1.4-20.6-1.3-.7 4.6-7.7 25-29.8 5.3-5.7 9.7-10.7 9.9-11.2.2-.4 4.1-4.5 8.8-9 5-4.9 8.4-9.1 8.4-10.2s.3-1.7.7-1.3c1 1 20.3-18.5 20.3-20.6 0-1 .5-1.5 1.3-1.2 2 .7 25.7-23.8 25.7-26.7 0-1.9.2-2.1 1-.9s3-.5 11.5-9L237 42.5l3.6-16.3c1.9-9 3.4-16.7 3.2-17.2s-6.4 5.7-13.8 13.6M115.7 202.7c-1.9 2.6-4.8 5.9-6.3 7.3s-.6-.1 1.9-3.2c2.5-3.2 5.1-6.7 5.7-7.9.7-1.1 1.4-1.8 1.7-1.5s-1 2.7-3 5.3m-24.8 22c-1.3 1.6-1.2 1.7.4.4.9-.7 1.7-1.5 1.7-1.7 0-.8-.8-.3-2.1 1.3M76.5 233c-6.2 2.9-21.9 5.7-32.9 5.9-5.5.1-11.3.8-13 1.5s-6.7 1.9-11.1 2.6c-7.2 1.2-7.7 1.4-5 2.3 1.7.5 9.5.9 17.5 1 11.7 0 16-.4 22.2-2.1 9.3-2.5 18-6.1 17.3-7.2-.3-.5.4-.6 1.5-.3 1.2.3 2.2-.1 2.6-1.1.3-.9 1.1-1.6 1.8-1.6.6 0 2-.7 3-1.5 2.6-2 1-1.8-3.9.5m-12.8 6.6c-.3.3-1.2.4-1.9.1-.8-.3-.5-.6.6-.6 1.1-.1 1.7.2 1.3.5m-5 1c-.3.3-1.2.4-1.9.1-.8-.3-.5-.6.6-.6 1.1-.1 1.7.2 1.3.5m-6.4 1.1c-.7.2-2.1.2-3 0-1-.3-.4-.5 1.2-.5 1.7 0 2.4.2 1.8.5m-11.5 1c-2.1.2-5.5.2-7.5 0-2.1-.2-.4-.4 3.7-.4s5.8.2 3.8.4"/>
</svg>
