<svg xmlns="http://www.w3.org/2000/svg" width="341.333" height="341.333" version="1.0" viewBox="0 0 256 256">
    <g fill="#e5e5e5">
        <path d="M199.3 18.5c-9.3 4.4-15.3 7.9-15.3 8.8 0 .8-.7 2-1.6 2.8-1.3 1-1.7 1-2.4-.1-1.8-2.9-33 20.7-33 25 0 2.3-2.6 4.6-3.3 2.8-1.6-4.5-30.7 33.9-30.7 40.5 0 .9-.6 2-1.4 2.4-2.1 1.2-9.2 18.3-12.7 30.8-.8 2.8-.7 2.9.6 1.1.8-1.1 1.5-2.4 1.5-2.9 0-.4 3.4-5.3 7.5-10.8 4.2-5.5 7.3-10.4 7-10.9-.4-.6.4-1.4 1.8-1.9 1.3-.5 4.8-3.1 7.8-5.8 3-2.8 8.3-7.1 11.9-9.7 3.6-2.7 6.8-5.7 7.3-6.8.4-1.2 1.3-1.8 2.1-1.5 1.7.7 15.9-7 20-10.8 2-1.9 3.1-2.3 3.6-1.5s2.3.5 6.5-1.2l5.7-2.3L192.7 50c13-20.7 23.3-37.6 23.3-38.4 0-1.1-1.5-.5-16.7 6.9"/>
        <path d="M97.5 48.4c-3.1 6.7-4.6 11.2-4.2 12.6.7 2.8-.1 5-1.7 4.4-3.5-1.3-12 45-8.7 47 .6.4 1.1 1.4 1.1 2.2s-.4 1.2-1 .9c-1.5-.9-1.2 11 .5 23.7 1.6 12.5 3.2 18.8 4.6 18.8.6 0 .8.9.4 2-.8 2.4 3.3 17 4.8 17 .6 0 .6-2.9.2-7.8-.5-4.2-.8-8.4-.7-9.2.8-8 2.5-19.9 3.7-25.9 1.1-5.5 1.2-7.7.4-8.7-1-1.3-.6-1.8 1.3-1.5.4 0 1.4-2.3 2.4-5.2.9-2.8 3-8.6 4.7-12.7s3.1-8.9 3.1-10.5c.1-2.1.6-2.9 1.6-2.8 1 .2 2.6-1.6 4.3-5 1.5-2.8 3.7-6.8 4.9-8.8l2.2-3.6-8.9-18.6C107.7 46.4 103.4 38 103 38s-2.9 4.7-5.5 10.4m44.3 69.6c-7.3 1.3-14 3.8-19.2 7-2.5 1.6-4.6 3.2-4.6 3.4 0 .3 2.6-.7 5.8-2.2 16.4-7.6 39.1-1.2 49.5 14 5.5 8.1 7 13 7 23.3.1 14.1-4.6 23.8-16 33.1-7.4 6-14.8 8.5-25.4 8.5-14.8 0-25.6-5.4-33-16.4-4.7-7.1-4.9-6.7-.8 1.5 11 21.8 39.6 33 63.3 24.8 24.7-8.5 38.7-35.1 31.8-60.1-3.3-11.7-11.2-22.5-21.3-29-9.7-6.2-26.6-9.8-37.1-7.9"/>
        <path d="M40.9 132.6c5.4 13.5 6.4 15.3 8.4 15.6 1.1.2 2.2.9 2.5 1.6.2.7-.2 1-1.2.6-2.4-.9-2 .6 2 7.2 5.5 9.2 11.5 16.4 13.5 16.4 1 0 2.1.4 2.4 1 .3.5-.1 1-1 1-2 0 .8 3.7 10.1 13.8 5.1 5.5 7 6.7 10.6 7.1.4.1.5.7.3 1.4-.7 1.6 10.1 10.7 12.6 10.7 1 0 1.6.5 1.4 1.2-.3.7 2.1 3.2 5.3 5.4 7.3 5.3 17.2 10.9 17.2 9.7 0-.5-4-4.9-9-9.7-4.9-4.8-9.2-9.6-9.5-10.5-.3-1-2.1-3.4-4-5.5s-3.5-4.3-3.5-4.7c0-2.4-8.2-16.9-9.5-16.9-1.7 0-2.1-1.6-.5-2.2.5-.2-.2-3.9-1.6-8.5-2-6.2-3.1-8.3-4.7-8.8-1.9-.6-2-.8-.4-1.2 2-.5 2.1-1.5.5-8.1l-1.1-5-19.6-7.6c-10.8-4.1-20.4-7.8-21.4-8.2-1.7-.6-1.6-.3.2 4.2"/>
        <path d="M93.6 180.3c.3 1 .9 1.5 1.2 1.2s0-1.1-.7-1.8c-1-.9-1.1-.8-.5.6m-38.1 13.4c-3.3.2-7.1.6-8.4.9-2.3.5-2.3.5 1 3 1.8 1.3 4.5 2.4 6 2.4s3.1.4 3.4 1c.3.5 0 1-.7 1-2.2 0 1.2 2.5 10.7 7.9 5.9 3.4 10.1 5.1 12.3 5.1 2.7 0 3.2.3 2.3 1.3-.8 1.1 1 2.2 9 5.6 16.4 6.9 23.2 9.3 25.3 8.7 1.1-.3 2.4.1 3 .9 1.1 1.3 16.2 5.5 20 5.5 1.3 0 1.7.3 1 1s-2 .7-4 0c-4.8-1.6-22.5-4.1-24.5-3.5-1.1.4-2.6 0-3.5-.9-.8-.9-2.1-1.6-2.7-1.6-.7 0-7 2.2-14.1 4.9-13.2 4.9-13.9 5.8-5.1 6.2 2.2.1 5.1-.1 6.4-.5 1.6-.6 2.6-.4 3.2.5.6 1 5.1 1.4 17.8 1.7 14.4.4 17.5.2 19.5-1.2 1.7-1.1 2.6-1.2 2.8-.4.3.9 3.3.8 12-.1 11-1.3 17.8-3.1 11.5-3.1-3.4 0-17.7-4.7-27.1-9-3.7-1.6-7.9-3-9.3-3-1.3 0-2.2-.4-1.9-.9.3-.4-1.4-1.7-3.7-2.7s-7.6-4.1-11.7-6.8-8.4-5-9.5-5.2c-1.1-.1-2.3-.3-2.7-.3-.4-.1-.5-.7-.3-1.4.5-1.4-10.7-9.8-14.7-11-1.6-.4-2.8-1.3-2.8-2.1 0-.7-.8-2-1.8-2.9-1.9-1.7-3.6-1.8-18.7-1m89.8 45c-.7.2-1.9.2-2.5 0-.7-.3-.2-.5 1.2-.5s1.9.2 1.3.5"/>
    </g>
</svg>
