<svg xmlns="http://www.w3.org/2000/svg" width="341.333" height="341.333" version="1.0" viewBox="0 0 256 256">
    <g fill="#e5e5e5">
        <path d="M119.2 5C93.8 16.8 70.4 40.7 58.9 66.9c-9.1 20.6-12.4 39.8-11.6 66.6.6 19.9 2.5 31.1 7.8 46.2 10.9 30.8 32.4 55.4 61.1 69.9 4.8 2.4 9.6 4.4 10.7 4.4 3.3 0 19.2-8.7 28.2-15.5 20.3-15.2 35.9-36.8 43.9-60.5 9.9-29.4 10.2-67.3.8-97-10.4-32.7-33.5-60-63.2-74.6-4.9-2.4-9.4-4.4-10-4.4-.6.1-3.9 1.4-7.4 3m17.6 3.4c16.2 8.1 33.6 23.3 44.4 38.6 9.9 14 18.1 34.6 21.4 53.5 2.1 12.2 2.4 40.3.6 52-5.8 36.1-23 65.4-50 85.3-9 6.6-23.2 14.2-26.6 14.2-1.2 0-5.7-1.8-10.1-4.1-24-12.2-45.5-35.1-56-59.6-8-18.6-11.5-36.8-11.5-60.5C49 80.1 67.1 42 101.4 17.5 108.7 12.3 124.2 4 126.6 4c.8 0 5.4 2 10.2 4.4"/>
        <path d="M119.2 9C97.7 19.1 78.3 37.6 66.8 58.8 62 67.6 56 81.9 56 84.2c.1.7 1.4-2.1 2.9-6.2 9-24.1 22.6-42.5 41.9-56.8 8.1-6 23.1-14.2 25.9-14.2 2.4 0 19 8.9 25.6 13.8 19.2 14.1 33.6 33.7 42.3 57.5 1.8 5.1 3.3 8.7 3.4 8 .1-2.4-5.3-16-9.8-24.8-8.2-15.9-21.1-30.8-36.2-41.9C145.5 14.8 129.2 6 126.8 6c-.7 0-4.1 1.3-7.6 3"/>
        <path d="M128.5 11c1 1.1 2 2 2.3 2s-.3-.9-1.3-2-2-2-2.3-2 .3.9 1.3 2m6.7 3.5c2.3 2.4 3 2.7 4 1.6 1.1-1.1 1-1.3 0-.6-.8.4-2.4-.2-4-1.6l-2.7-2.3zm7.9 4.3c-.1 2.8 2.7 7.9 4.7 8.7 1.6.6 5.2-1.2 5.2-2.6 0-.6-.7-.3-1.6.5-.8.9-1.9 1.6-2.3 1.6-1.5 0-4.3-4-5.1-7.2-.6-2.5-.8-2.8-.9-1m-7.9 2.5c-1.2 1.3-2.2 2.7-2.2 3.1s1.1-.6 2.5-2.1l2.5-2.8 2.5 2.8c1.4 1.5 2.5 2.4 2.5 1.9 0-.9-4.2-5.2-5.1-5.2-.3 0-1.5 1-2.7 2.3m-6.8 4.9-1.9 2.3 2.3-1.9c2.1-1.8 2.7-2.6 1.9-2.6-.2 0-1.2 1-2.3 2.2m3.8 2.8c0 1.9.2 2.7.5 1.7.2-.9.2-2.5 0-3.5-.3-.9-.5-.1-.5 1.8m11 0c0 1.9.2 2.7.5 1.7.2-.9.2-2.5 0-3.5-.3-.9-.5-.1-.5 1.8m11.3-2c-.8 1.3.3 6.8 1.5 7.5.5.3.4-.8-.1-2.5-.6-1.7-.8-3.7-.5-4.5.6-1.7 0-2-.9-.5m-25.9 6c1.2 1.4 2.4 3.2 2.7 4 .5 1.3.6 1.3.6-.1.1-.8-1.1-2.6-2.6-4l-2.8-2.4zm18.6-1.3c-1.9.7-4.2 5.8-4.2 9.2 0 4 4.7 9.5 7.3 8.5 2.3-.8 4.7-5.5 4.7-9.1 0-3.3-3.4-9.3-5.2-9.2-.7 0-1.9.3-2.6.6m5.3 3.3c1.8 3.5 1.9 7 .4 10.4-1.7 3.8-4 4.1-6.6 1.1-2.5-2.9-3-7.4-1.2-10.8 2.4-4.6 5.3-4.9 7.4-.7M133 33.8c0 .5 1.1 1.9 2.5 3.2l2.5 2.3 2.5-2.3c1.4-1.3 2.5-2.7 2.5-3.2s-1.1.4-2.5 1.9l-2.5 2.8-2.5-2.8c-1.4-1.5-2.5-2.4-2.5-1.9m29.5 2.2c-1.4 1.5-2.2 1.7-3.9.9-2-1-2-.9-.2.5 1.4 1.2 2.2 1.2 3.7.3 1-.6 2.1-1.7 2.3-2.4.7-1.8.2-1.6-1.9.7m3.6 3.8c-.1 3.9 2.1 8.7 4.5 9.6 1.2.4 2.5-.1 3.8-1.6l2.1-2.2-2.1 1.7c-3.7 3-6.7 0-7.7-7.8l-.4-3zm-44.1 4c-6 8-13.7 24.5-16.1 34.5-1.9 7.9-2.3 12.4-2.5 32.2-.2 12.6.2 25.7.7 29 2.6 15.4 18.1 34.2 26.5 32.1 4-1 15.8-13.4 18.7-19.7 3.6-7.8 4.6-12.9 4.7-23.5 0-17.8-7.4-32.3-21.1-40.9-3.6-2.4-4.1-2.4-6.7-1.1-1.6.8-5.2 3.6-8.2 6.3l-5.3 4.8.7-6.2c.4-3.4 1.6-9.4 2.7-13.4 2-7.2 8.4-21.5 10.1-22.5 2.2-1.4 13.9 9.1 20.3 18.1 13.1 18.4 18.7 40.4 16.4 64.5-2 21.8-11.9 42.6-26.5 56-8.7 7.8-9.3 8-15.4 3.5-10.6-7.8-20.9-22.9-25.9-38-4.4-13.3-5.4-20.9-4.8-35.9.6-15.1 3.2-25.9 9.7-39.1 2.2-4.4 5.3-11.7 6.9-16.2 2.6-7.2 6.5-14.8 11.6-22.7 1-1.4 1.3-2.6.7-2.6-1.9 0-17.3 15.2-21.8 21.6-6.2 8.6-13 23.5-16.1 35.1-2.4 8.9-2.7 11.5-2.7 28.3s.3 19.4 2.7 28.2c5.3 19.9 12.5 32.6 26.2 46.3 5.5 5.5 12.1 11.1 14.6 12.5l4.7 2.4 5.7-3.5c7.5-4.4 19-15.6 24.5-23.8 27.9-41.5 23.3-102.2-10.4-136.6-5.8-6-17.7-14.5-20-14.5-.6.1-2.7 2.2-4.6 4.8m15.1 54c8.6 8.8 11.1 14.8 11.7 28.8.3 7.5 0 11.6-1.2 15.8-1.9 6.6-2.9 6.9-10.2 2.7-10.5-6.1-20.7-20.4-23.3-32.9-1.1-5.1-1-5.5 1.9-9.7 3.4-4.9 10.8-11.5 13-11.5.8 0 4.4 3.1 8.1 6.8m-19.6 41.1c1.9 2.4 3.5 4.7 3.5 5.1s-1.8 1.5-4 2.5c-2.9 1.3-4.4 1.5-5.1.8-1.7-1.7-3.9-12.1-3.9-18.3v-5.5l3 5.4c1.7 3 4.6 7.5 6.5 10m17.3 14.4c2.8 1.5 5.2 3.1 5.2 3.6 0 1.1-7 7.5-9.8 9-1.6.9-2.7.5-5.8-2-2.2-1.7-4.6-4-5.6-5.2-1.6-2.1-1.5-2.2 4-5.3 3.2-1.8 5.9-3.2 6.2-3.1s2.9 1.5 5.8 3"/>
        <path d="M124.3 96.4c-2.1 1.9-5.1 5.2-6.6 7.3l-2.7 3.9 1.6 5.9c3.1 12.3 13.1 25.2 23.2 30.4l4.2 2.2 1.2-2.8c.8-1.7 1.3-7.6 1.3-14.8 0-10.9-.2-12.5-2.7-17.7-2.5-5.5-10.4-15-13.9-16.8-1.2-.7-2.7 0-5.6 2.4m10.3 3.1c6.7 6.7 10.5 15.6 11.1 25.9.6 9.1-1 18.6-3.2 18.6-.7 0-4-2-7.2-4.4-6.7-4.9-13-13.6-16.2-22.2-3.3-8.6-2.9-10.7 3-17 2.9-3 5.8-5.4 6.6-5.4.7 0 3.4 2 5.9 4.5m-24 36.5c.9 5.3 2.5 10 3.3 10 .4 0 1.6-.6 2.6-1.4 1.8-1.3 1.7-1.5-1.5-5.7-5-6.6-5.1-6.6-4.4-2.9m5.4 7.1c0 .5-.5.9-1 .9-1 0-3-4.1-3-5.8.1-1 4 3.9 4 4.9m8.3 11.6c-1.8.9-3.3 2.1-3.3 2.7s1.6 2.4 3.6 4c3.2 2.5 3.9 2.7 6 1.6 1.3-.7 3.3-2.3 4.4-3.5l2.1-2.2-3.6-2.2c-4.2-2.5-4.9-2.5-9.2-.4m7.9 1.1 2.8 1.8-2.9 2.8-3 2.8-3-2.1c-3.8-2.7-3.9-3.6-.3-5.5 3.4-1.9 3.2-1.9 6.4.2m7.6-112c1.5 1.5 2.9 2.6 3.1 2.5.6-.4-4.1-5.3-5-5.3-.4 0 .4 1.3 1.9 2.8m18.4-1.2c-1.2.8-2.7 3.2-3.3 5.3-.9 3.2-.8 4.4.6 7.5 2.6 5.4 4.6 6.1 7.9 2.7 1.7-1.8 2.6-3.6 2.3-4.8-.4-1.6-.5-1.5-.6.3 0 1.1-1.2 3.1-2.5 4.3l-2.4 2.2-2-2.1c-2.8-3-3.5-6.6-2.2-10.6 1.6-4.8 4.3-6 7-3.2 1.1 1.2 2 2.8 2 3.7 0 .8.3 1.1.7.8.9-.9-1.7-5.6-3.8-6.7-1-.6-2.3-.4-3.7.6m18.9 8.2c-.1 3.2 2.5 7.9 5.2 9.3 1.9 1 1.8.8-.5-1.4-1.5-1.4-3-3.8-3.3-5.4-1-4.4-1.3-5-1.4-2.5m-9 4.8c-3.5 4.5-2 14.1 2.5 15.8 2.7 1 6.4-3.3 6.9-8l.5-3.9-1.1 4.1c-2.4 10.1-9.9 8.5-9.9-2 0-6.9 6.1-9.9 8.8-4.3.6 1.2 1.1 1.6 1.1.9.1-1.6-3.5-5.2-5.3-5.2-.8 0-2.4 1.2-3.5 2.6"/>
        <path d="M123.1 63.7c-4.6 9.4-6.9 16.3-7.7 23.6l-.7 6.2 4.1-3.7c2.2-2 5.5-4.4 7.2-5.3 3-1.5 3.2-1.5 8.5 2.1 20.7 13.7 27.7 43.3 15.8 66.8-3 5.9-12.7 16.3-17.7 19-3.1 1.7-3.9 1.7-6.8.5-5.8-2.4-15.4-12.9-19.3-21-5.2-11-6.3-21.2-3.9-35.4.4-2.5.3-2.7-.6-1.2-1.8 2.9-2.4 15.6-1.1 23.4 2.3 13.5 10.2 25.8 21.1 33.1l6.2 4.2 4-2.1c9.5-4.9 19.2-17.1 22.8-28.7 2.5-8.1 2.7-23.4.4-31.3-3.7-12.5-13-24.7-22.8-30l-4.5-2.3-6.1 4.1-6 4.2.6-2.7c2.4-11 8.7-27.2 10.6-27.2s11.1 8.6 15.5 14.5c5.8 7.6 11.7 19.8 14.5 30 1.8 6.7 2.2 10.6 2.2 24-.1 14.5-.3 16.8-2.7 24.8-5.1 16.5-13.6 30.3-24.3 39.1l-5.6 4.6-2.7-1.9c-4.4-3.2-13.7-13.4-17.5-19.4-8.9-13.9-13-29-13-47.7 0-14.5 1.3-22 6-33.6 1.4-3.5 2.4-7.2 2.2-8.2-.5-2.7-6.5 13.4-8.3 22.7-2.4 11.7-1.6 34.4 1.5 45.1 3 10.3 9.1 22.3 15.3 29.9 5.2 6.5 14.8 15.1 16.8 15.1.6 0 5.2-4.2 10.3-9.3 8-8 9.9-10.6 14.4-19.7 7.2-14.7 9.6-24.9 9.6-42s-2.4-27.3-9.6-42c-4.5-9.1-6.4-11.7-14.4-19.8-5.1-5-9.6-9.2-10.1-9.2s-2.4 3-4.2 6.7m36.9-.3c0 .3.9 1 2 1.6s2 .8 2 .6c0-.3-.9-1-2-1.6s-2-.8-2-.6m20.8 1.3c-4.3 4.9-4.8 9.1-1.8 14 2.4 4 5.1 4.2 7.9.7 3-3.8 2.8-9.4-.5-13.3-3-3.6-3.5-3.7-5.6-1.4m5.1 1.9c3.8 4.9 1.9 14.4-2.9 14.4-2.2 0-5-4.6-5-8.2 0-2.6 3.5-8.8 4.9-8.8.5 0 1.9 1.2 3 2.6m-21.2 2.5c.4 1.3.8 1.8 1.1 1 .2-.7-.1-1.8-.6-2.3-.8-.8-.9-.4-.5 1.3m3.7 8.1c-1.9 2.3-1.9 2.3.2.5 2.9-2.4 5.1-2.1 6.8 1 .8 1.6 1.5 2.3 1.6 1.8 0-2-3.1-5.5-4.9-5.5-1 0-2.6 1-3.7 2.2m21.6 1.9c-.6 1.1-1 2.5-.8 3s.8-.4 1.5-2.1c1.3-3.4.9-4-.7-.9m-13.3 6.5c-.3 2-1.4 4.6-2.4 5.8l-1.8 2.1 2.2-1.9c2.1-1.7 4.2-8.1 3.1-9.2-.3-.2-.8 1.2-1.1 3.2m3.7 1.6-1.9 2.3 2.3-2 2.4-2 2.4 2.8c1.6 1.9 2.4 4 2.4 6.5 0 7.3-5.5 10.9-8.4 5.4-.8-1.5-1.5-2.2-1.6-1.7 0 2 3.1 5.5 5 5.5 1 0 2.8-1.2 3.9-2.6 3.4-4.3 2.5-11.8-1.8-15.1-2.2-1.7-2.5-1.6-4.7.9m8.7-.4c-.1 2.3 3.9 7.2 5.8 7.2.5 0 1.3-.5 1.7-1.2s.3-.8-.4-.4c-1.9 1.2-5.1-1.3-6.1-4.7-.7-2.5-.9-2.7-1-.9M53.6 93c-.9 3.9-1.8 9.9-2.1 13.3-.4 5.3-.3 5 1-2.5.8-4.8 1.9-10.6 2.5-12.9.6-2.2.9-4.3.7-4.6-.3-.2-1.2 2.8-2.1 6.7m144.5-3.4c0 1.1.3 1.4.6.6.3-.7.2-1.6-.1-1.9-.3-.4-.6.2-.5 1.3"/>
        <path d="M177.6 91.5c-.3.9-.6 2.6-.5 3.8.1 1.4.4.9.9-1.3.9-3.7.7-5.2-.4-2.5m21.6 2c0 1.1.4 3.3.8 5 .7 2.7.8 2.7.8.5 0-1.4-.4-3.6-.8-5-.6-2-.8-2.1-.8-.5m-7.6 5.6c-1.4 1.7-2.6 3.8-2.6 4.7.1.9.7.2 1.5-1.6 1.8-4.1 4-5 6.6-2.6 1.4 1.3 1.8 1.4 1.4.3-.3-.8-1.4-2-2.5-2.6-1.6-1.1-2.2-.8-4.4 1.8m-16 2.1c1.1 2 1.4 4.3 1 6.7-.4 2.5-.2 3.1.4 2.1 1.4-2.2 1.2-5.7-.5-9-.9-1.7-1.8-3-2.1-3-.2 0 .3 1.4 1.2 3.2m26.1 9.3c.3 4.9.7 9.2.9 9.4.7.8.3-9.4-.6-13.9-.6-3.2-.7-1.8-.3 4.5m-21.6-1.1c-1.2 1.3-2.4 4.1-2.6 6.2l-.5 3.9 1.1-4.1c1.1-4.7 3.9-7.7 6.1-6.9 3.6 1.4 5 10.3 2.2 14.3-2 2.9-3.8 2.8-6.3-.4-1.2-1.5-2.1-2.2-2.1-1.7 0 1.5 3.9 5.3 5.5 5.3 2.3 0 5.5-5 5.5-8.7 0-4-2.3-8.8-4.5-9.7-2.2-.8-1.8-.9-4.4 1.8m9-1.1c-.1 2.2 2.5 6.3 4.6 7.2.9.3.5-.6-1-2-1.4-1.5-2.8-3.6-3-4.8-.3-1.6-.5-1.7-.6-.4m8.6 4-1.7 3.2 2-2.4c1.7-2 2.6-4.1 1.8-4.1-.2 0-1.1 1.5-2.1 3.3M50.4 128c0 8.5.2 12 .3 7.7.2-4.2.2-11.2 0-15.5-.1-4.2-.3-.7-.3 7.8m149.8-10.5c0 1.6.2 2.2.5 1.2.2-.9.2-2.3 0-3-.3-.6-.5.1-.5 1.8m-8.3 3.3-2.4 2.7 2.6-2.3 2.7-2.3 2.1 2.2c1.2 1.3 2.1 2.9 2.1 3.8 0 .8.3 1.1.7.8.9-.9-1.7-5.7-3.8-6.7-1.2-.7-2.2-.2-4 1.8m-2.8 4.8c0 1.1.3 1.4.6.6.3-.7.2-1.6-.1-1.9-.3-.4-.6.2-.5 1.3m14.2 2.9c0 2.7.2 3.8.4 2.2.2-1.5.2-3.7 0-5-.2-1.2-.4 0-.4 2.8m-23.2 2.9c-1.2 1.3-2.4 4.1-2.6 6.2l-.5 3.9 1-3.9c1-3.9 3.5-7.6 5.1-7.6.5 0 1.8 1 2.9 2.2 1.6 1.8 2 1.9 1.4.5-.5-1.5-3.3-3.7-4.7-3.7-.2 0-1.3 1.1-2.6 2.4m9-.8c-.1 1.2 1 3.3 2.4 4.8 2 2.2 2.8 2.5 4.5 1.6 2.1-1.1 4-4.1 4-6.2-.1-.7-.7.1-1.4 1.8-.8 1.7-2.1 3.4-3 3.7-1.9.7-4.7-2.1-5.8-5.6-.6-2.1-.6-2.1-.7-.1m-.9 7.9c-.2 4.4-2.5 8.5-4.7 8.5-.7 0-2.3-1.2-3.4-2.6-1.2-1.5-2.1-2.2-2.1-1.7 0 1.7 4.2 5.4 5.7 5.1 3-.6 5.5-5.2 5-9.4l-.4-3.9zm12 0c0 1.6.2 2.2.5 1.2.2-.9.2-2.3 0-3-.3-.6-.5.1-.5 1.8m2.1 3.5c0 3 .2 4.3.4 2.7.2-1.5.2-3.9 0-5.5-.2-1.5-.4-.2-.4 2.8m-10.4.8-2.4 2.7 2.7-2.3 2.6-2.4 2.1 2.1c1.2 1.2 2.1 2.6 2.1 3.3 0 .6.3.9.6.6.9-.9-1.4-4.6-3.5-5.7-1.4-.8-2.3-.5-4.2 1.7m-140.4 7.4c.8 9.9 8.5 38.1 10.1 36.6.2-.2-.5-2.8-1.6-5.7-3-7.9-5.9-18.7-7.5-28.7-1.4-8.4-1.4-8.5-1-2.2m125.1-2.1c.4 2.4.1 4.7-1 6.7-.9 1.8-1.4 3.2-1.2 3.2.3 0 1.2-1.3 2.1-3 1.7-3.3 1.9-6.8.5-9-.6-1-.8-.4-.4 2.1m12.5-.5c0 1.1.3 1.4.6.6.3-.7.2-1.6-.1-1.9-.3-.4-.6.2-.5 1.3m12.1 3.4c0 1.9.2 2.7.5 1.7.2-.9.2-2.5 0-3.5-.3-.9-.5-.1-.5 1.8m-21.3 2.6c-1.8 1.9-2.4 3.7-2.4 6.9s.6 5 2.4 6.9c3.1 3.3 4.4 3.3 7 0 1.4-1.8 2.1-4 2-6.8l-.2-4.1-.6 4.8c-.8 5.7-3.3 8.7-5.9 7.1-4.9-3.1-5.2-11.7-.5-15.4 1.4-1.1 2.1-2 1.6-2s-2 1.2-3.4 2.6m9.2-1c0 1.1.3 1.4.6.6.3-.7.2-1.6-.1-1.9-.3-.4-.6.2-.5 1.3"/>
        <path d="M186 154c.6 1.1 1.3 2 1.6 2 .2 0 0-.9-.6-2s-1.3-2-1.6-2c-.2 0 0 .9.6 2m4.5 2c1.1 2.9 4.1 4 6.1 2.4 1.8-1.5 1.8-1.5-.1-.5-1.6.8-2.5.5-4.3-1.2-1.4-1.3-2.1-1.6-1.7-.7m8.3 6.8c-1 4.2-2 8.8-2.3 10.2s.1.8.9-1.3c1.7-4.2 4.1-15.5 3.5-16.2-.3-.2-1.2 3.1-2.1 7.3m-7.4 1.9c-1.3 1.4-2.4 3.5-2.3 4.7.1 2 .1 2 .7-.1 1-3.4 3.9-6.3 5.7-5.7.8.4 1.5.4 1.5.1s-.7-.8-1.6-1.1-2.5.4-4 2.1m-16.4 1.5c2.4 3.9 2.5 6.9.5 10.8-2 3.8-3.5 4.2-6.5 1.6l-2.5-2.1 2.4 2.7c1.9 2.2 2.8 2.5 4.2 1.7 2.3-1.2 4.9-6 4.9-9.1 0-2.2-3.4-8.8-4.5-8.8-.2 0 .4 1.5 1.5 3.2m4.9 9.4c-1.8 1.9-2.4 3.7-2.4 6.9s.6 5 2.4 6.9c2.8 3 4.3 3.2 6.2.9 1.3-1.5 1.2-1.5-.8-.3-1.9 1.2-2.4 1.2-4.2-.4-4.1-3.7-3.5-12.1 1.1-15 2.6-1.6 5.1 1.4 5.9 7.1l.6 4.8.2-4.1c.1-2.8-.6-5-2-6.8-2.6-3.3-3.9-3.3-7 0m9.2-1c0 1.1.3 1.4.6.6.3-.7.2-1.6-.1-1.9-.3-.4-.6.2-.5 1.3"/>
        <path d="M194 179.7c-1.9 5.8-9.6 20.7-14.2 27.6-5.8 8.6-21.8 24.4-31.1 30.6-8.8 5.9-19.2 11.1-22.2 11.1-2.7 0-13.6-5.6-22.1-11.3-15-10-27.7-24-37.4-41.2-2.7-5-5-8.5-5-8 0 2 9 16.9 14.6 24.1 6.5 8.6 16.6 18.3 25.6 24.7 7.9 5.6 21.5 12.7 24.4 12.7 3.4 0 17.6-7.6 26.1-13.9 9.3-6.9 22.3-20.3 28.2-29 6.7-9.8 16.1-29.5 14.7-30.8-.2-.2-1 1.3-1.6 3.4"/>
        <path d="M165.1 185.3c-.1 1-1.3 2.9-2.7 4.3-1.4 1.5-2 2.4-1.3 2.2 2-.7 5.2-5.5 4.6-6.9-.4-1-.6-.8-.6.4m3.5 1.8c-3.3 3.9-3.5 9.5-.5 13.3 2.8 3.5 5.5 3.3 8-.7s2-9.9-1.2-13.3c-2.9-3.1-3.2-3-6.3.7m5.8-.2c3.9 4.4 2.3 15.1-2.4 15.1-4.8 0-6.7-9.5-2.9-14.4 2.4-3.1 3.1-3.2 5.3-.7m-17 10.3-1.9 2.3 2.2-1.9c2.8-2.3 5-1.5 6.8 2.6.8 1.8 1.4 2.6 1.5 1.7 0-2.1-3.8-6.9-5.4-6.9-.7 0-2.1 1-3.2 2.2m22.8.1c-1.2 1.3-2.2 2.7-2.2 3.2s.7-.1 1.6-1.3c.9-1.3 2.6-2.7 3.8-3.2 1.4-.6 1.6-.9.5-.9-.8-.1-2.5.9-3.7 2.2m-28.8 3.9-1.9 2.3 2.3-1.9c2.1-1.8 2.7-2.6 1.9-2.6-.2 0-1.2 1-2.3 2.2m25.8 3.3c0 1.6.2 2.2.5 1.2.2-.9.2-2.3 0-3-.3-.6-.5.1-.5 1.8m-22.6 1c.7 3.7 3 7.4 5.1 8.2 1.9.7 6.3-3.9 6.3-6.5-.1-.9-.7-.2-1.5 1.6-2.7 6.1-6.1 5.2-9-2.3-1.2-3.1-1.4-3.3-.9-1m-8.4 2.8c-1.2 1.3-2.2 2.7-2.2 3.1s1.1-.6 2.4-2.1l2.5-2.8 2.2 2.2c1.3 1.2 2.6 4.1 3 6.5l.6 4.3.2-3.7c.1-2.6-.6-4.5-2.5-6.7-3.1-3.7-3.4-3.8-6.2-.8m22.4.8c-2 2.3-2.6 4.1-2.5 7.2l.2 4.2.6-4.8c.4-2.8 1.6-5.6 2.9-6.9 2.1-2.2 2.1-2.2 4.4-.2l2.3 1.9-1.9-2.3c-2.5-2.9-2.9-2.8-6 .9m-29.5 2.9c-1.3 1.1-1.9 2-1.4 2 .6 0 1.8-.9 2.8-2 2.3-2.5 1.7-2.5-1.4 0m4 3.5c-.1 3.8 3.3 9.5 5.7 9.5 1.9 0 5.2-2.9 5.2-4.6 0-.4-.7.2-1.6 1.4-3.1 4.5-6.9 2-8.5-5.8-.7-3.4-.7-3.4-.8-.5m-9.1 4.7c-2.9 4.8-2.6 9.1 1 13l3 3.3 3-3.3c2-2.2 3-4.3 3-6.5 0-4.2-3.4-9.7-6-9.7-1.2 0-2.8 1.3-4 3.2m7.5.8c2.2 4.3 1.9 8.5-1 11.7l-2.5 2.8-2.5-2.8c-1.5-1.7-2.5-4-2.5-5.8 0-4.2 2.6-8.9 5-8.9 1.1 0 2.6 1.2 3.5 3m15.9-1.8c-1.9 2.3-1.9 2.3.2.5 2.7-2.3 4-2.2 5.8.5.9 1.2 1.6 1.8 1.6 1.2 0-1.3-3.3-4.4-4.7-4.4-.5 0-1.8 1-2.9 2.2m-26.3-.3c-.1.8-1.1 2.6-2.3 4l-2.2 2.6 2.8-2.6c1.6-1.5 2.6-3.3 2.3-4q-.6-1.65-.6 0m23 7.1c0 .8.4 2.2.9 3 1.2 1.8 1.2.2 0-2.5-.6-1.3-.9-1.5-.9-.5m-25.5 4c.6.8 1.6 2.4 2.2 3.5s1.2 1.5 1.2.8-1-2.2-2.2-3.5c-1.3-1.3-1.8-1.7-1.2-.8m17.6.3c-1.2 1.3-2.2 2.7-2.2 3.1s1.1-.5 2.4-2.1l2.4-2.8 2.4 2 2.3 2-1.9-2.3c-2.4-2.7-2.7-2.7-5.4.1m-3 6.7c0 1.4.2 1.9.5 1.2.2-.6.2-1.8 0-2.5-.3-.6-.5-.1-.5 1.3m-7.9 3.2c-1.9 2.5-2.4 4.3-.6 2.1 1-1.1 2.7-2.3 3.8-2.6 1.9-.4 1.9-.5-.1-.6-1.2 0-2.6.5-3.1 1.1m-4.2.7c-.1.8-1.1 2.6-2.3 4l-2.2 2.6 2.8-2.6c1.6-1.5 2.6-3.3 2.3-4q-.6-1.65-.6 0"/>
    </g>
</svg>
