<svg xmlns="http://www.w3.org/2000/svg" width="341.333" height="341.333" version="1.0" viewBox="0 0 256 256">
    <g fill="#e5e5e5">
        <path d="M186.1 12.7c-20.5 18.5-36.5 30.9-42.1 32.8-9.2 3-26 10.3-35 15.2-43.8 23.7-70.6 57.7-77.5 98.3-1 5.6-3.4 14-6 20.5-7.5 18.8-10.5 27.9-9.4 28.6.7.4-.3 3.3-2.4 7.5-4.1 8.2-9.2 22.2-10.2 28.1l-.7 4.3 3.4-.6c2.9-.6 17.4-5.1 22-6.9 1.6-.6 1.6-.3-.2 4.7-1 2.9-1.7 5.5-1.5 5.7.5.4 4.9-2.2 23.2-14.1 21.7-14.1 35.1-19.9 54.1-23.3 21.7-4 35.7-10.1 53.2-23.3 20.3-15.4 41-37.5 57.6-61.7 5.5-7.9 8.8-11.5 16.5-17.7 10.8-8.6 16.8-16.5 19.7-25.7 2.2-7.1 2.2-35.1.1-42l-1.4-4.4-8.9 7.3-8.9 7.4.7-4.5c3.6-22.1 4.6-36.1 3-40.3-.9-2.4-11.6 3.5-24.1 13.3l-10.1 7.9-1.2-7.1c-1.3-7.8-4-17.7-4.9-17.7-.3 0-4.4 3.5-9 7.7m11.1 7.8c1.8 8.5 2.2 13.2 2.2 31.7.1 12 .2 21.8.2 21.8.1 0 2.5-1.6 5.3-3.5 2.9-1.9 8.9-4.8 13.4-6.5 6.9-2.6 10-4.7 18.7-12.1 5.7-4.9 10.7-8.9 11.1-8.9 2 0 3.5 24.7 2 33.4-2 11.5-4.7 17.1-11.7 24.5-8.2 8.7-14.8 12.2-30.4 16-6.9 1.7-15 4.3-18 5.8l-5.5 2.8-1.6 10c-3.6 22.3-9 33.6-22.8 47.8C146 197.9 129.6 206 104 211c-21.9 4.3-35.4 10.2-57.9 25.5-7.7 5.2-14.5 9.5-15.1 9.5-1 0 0-2.9 7.1-20 2.1-5.2 4.7-14 5.8-19.5 1-5.5 3-12.9 4.4-16.3s2.3-6.2 2-6.2c-.2 0-4.1 2.7-8.6 5.9-9.4 6.8-21.7 14.4-22.3 13.8-.6-.5 2.5-9 7.9-22.2 2.5-6.1 5.1-14.2 5.7-18 3.8-22.8 11-40 23.9-57 6.8-9.1 21.6-23.2 32.2-30.8 10.7-7.6 39-22.1 52.3-26.7 7.9-2.7 10.1-4.1 21.5-13.4 6.9-5.8 16.7-14 21.6-18.4 5-4.4 9.3-7.7 9.7-7.3s1.7 5.1 3 10.6M231 39.9c-1.2 7.4-2.6 14.4-3 15.6-.5 1.4-2.9 3-6.7 4.5-3.2 1.3-8.8 3.8-12.6 5.7L202 69l.2-18.2.3-18.3 9-7.2c5-4 11.7-8.8 15-10.8l6-3.5.3 7.7c.2 4.6-.6 13.3-1.8 21.2m-12.5 79.3c-1.4 1.8-6.6 8.9-11.4 15.6-9.7 13.6-26.7 33.2-33.3 38.4l-4.3 3.3 2.1-3c6.6-9.4 12.7-26.5 14-39.3l.7-7.1 4.6-2.3c3.6-1.8 24.6-8 29.4-8.7.5 0-.3 1.4-1.8 3.1M44 195.1c-.6 1.9-1.7 7.2-2.6 11.9-2.2 12-8.9 27.7-12.7 30-3.7 2.3-21.7 8.3-22.5 7.6-.9-.9 5.2-18.2 10-28.6 4.4-9.4 4.6-9.7 11.4-13.7 3.8-2.3 9.1-5.7 11.8-7.7 2.8-1.9 5.1-3.4 5.3-3.3.1.2-.2 1.9-.7 3.8"/>
        <path d="M186.7 19.9c-2.3 2.1-10.9 9.5-19.2 16.4-14.3 12-15.5 12.7-25.1 16.2-14.1 5.1-35.1 15.4-46.4 23-33.3 22.1-53.4 51.7-59.4 87.2-1 5.9-3.3 13.6-6.4 21.3-2.7 6.6-4.6 12-4.2 12s5.2-3.1 10.8-7c11.8-8.2 20.3-13.3 20.9-12.6.3.2-.3 1.5-1.1 2.9-2.9 4.3-7.5 18.3-9.6 29.2-1.2 5.8-3.5 13.8-5.2 17.8-4.9 11.9-4.9 11.9-3.5 11.1.6-.4 5.3-3.5 10.3-7 17.3-12 32.4-18.2 54.9-22.9 26.1-5.4 41.1-12.9 55-27.7 3.9-4.1 8.5-10 10.4-13.2 4.8-8.1 9.8-23.5 11.2-34.5l1.2-9.4 7.1-3.2c3.9-1.8 11.6-4.3 17.1-5.5 22.3-5 34.6-14.7 39.7-31.4 2.3-7.6 3-20.2 1.5-28.9l-.8-4.7-8.7 7.4c-6.6 5.5-10.7 8.1-16.7 10.5-9 3.6-15 6.9-21.4 11.8-2.4 1.8-4.6 3.1-4.8 2.9s.2-3.5.9-7.2c2-10.4 1.6-36.8-.6-48.7-1-5.3-2.2-9.7-2.7-9.7s-2.8 1.8-5.2 3.9m-8.1 35.3c-.3 1.3-.8 4.9-1.1 8-1.7 15.6-10 36.7-19 48-11.2 14.3-35.4 25.9-66 31.8-6 1.2-16.1 3.8-22.2 5.8-6.2 2.1-11.3 3.7-11.3 3.6s1.6-3.9 3.5-8.4c6.6-15.8 16.8-30.4 27.3-39.3C106.2 90.8 131.5 77 155 69.1c5-1.6 8.4-3.8 14.5-9.1 4.4-3.8 8.3-6.9 8.8-6.9.4-.1.5.9.3 2.1m55.3 21c-2.2 10-10.6 18.6-20.7 21.3-5.8 1.5-12.3 3.6-15.5 5-1.7.7-1.6.2.7-4.2 3.3-6.6 9.9-12.3 19.9-17.2 4.5-2.1 9.8-5.1 11.7-6.5s3.8-2.5 4.1-2.6c.4 0 .3 1.9-.2 4.2m-76.4 68c-4.4 13.2-11.5 24.1-19.9 30-11.4 8.1-22.6 12.5-41.5 16.4-6.8 1.4-15.5 3.7-19.4 5.1-3.8 1.3-7.1 2.2-7.3 2-1-1 4.8-13.3 10-21 8.5-12.8 9-13.1 24.1-16.2 21-4.3 38-10.7 50.1-18.9 2.7-1.9 5.1-3.2 5.3-3.1.1.2-.5 2.8-1.4 5.7"/>
        <path d="M169 65c-4.3 3.9-7.5 5.6-15 8.2-19.8 6.9-47.3 22-61.7 34-7.1 5.8-15 16-21.1 27.1-7.5 13.5-7.5 12.9.8 10.1 4-1.3 13.1-3.5 20.2-4.9 23.3-4.6 39.2-10.9 53.6-21.2 12.7-9 22.8-27.6 27.7-50.8.8-3.8 1.3-7 1.2-7.1s-2.7 2-5.7 4.6m0 10.6c-5.1 18.6-15 34.6-25.9 41.8-3.8 2.5-7.1 4.6-7.5 4.6-.6 0 17.3-30.1 23.5-39.3 7-10.3 11.1-15.8 11.6-15.3.3.2-.5 4-1.7 8.2m-7.6-1.4c-.4.7-2.8 4.4-5.4 8.3-2.5 3.8-9.5 15-15.4 24.8-10.2 16.8-13.5 20.7-17.5 20.7-1.1 0 14.4-25.9 25.1-41.8 4.9-7.3 7.9-10.8 10.1-11.7 4-1.8 4-1.8 3.1-.3m-19.1 16c-4.4 6.8-11.5 18.1-15.8 25.3-4.3 7.1-8.3 13.6-9 14.3-1.4 1.6-12 4.6-27.5 7.7-6.9 1.4-14 3.1-15.8 3.6-1.8.6-3.6.9-3.9.6-.6-.7 5.5-11.3 11.2-19.3 10.2-14.3 29.9-28.2 57.4-40.5 5.8-2.6 10.8-4.6 11-4.3.2.2-3.2 5.9-7.6 12.6m77.2-5.7c-4.9 2.4-10.8 6-12.9 7.9-5.7 5.3-5.1 5.4 8.2.9 2.3-.8 5.6-2.6 7.2-4 3.1-2.6 7.5-8.2 6.9-8.8-.2-.1-4.4 1.7-9.4 4m-68 62.4c-.6.5-4.6 2.7-9 4.9-9.6 4.8-24.1 9.3-39 12.2-9.2 1.8-11.5 2.6-14 5-3.3 3.2-12.9 18.2-14 21.7-.6 2.2-.5 2.2 2.7.9 1.8-.8 9-2.6 15.9-4 15.2-3.1 21.4-5.2 32.1-10.8 10.1-5.2 17.9-12.6 23.1-22.2 3.5-6.5 4.5-10 2.2-7.7m-4.5 6.8c0 1.7-6.7 10.7-10.2 13.7-4.9 4.3-15 9.6-24.5 13-7.1 2.5-26.4 6.8-27.2 6.1-.2-.2 3.8-4.9 8.8-10.3l9.1-9.9 6.8-1.2c9.1-1.6 21.7-5.5 29.4-9 6.7-3.2 7.8-3.5 7.8-2.4m-51.8 16.8c-3.9 5-13.3 14.7-13.8 14.3-.6-.7 9.3-14.5 11.3-15.7 3.4-2 4.6-1.3 2.5 1.4M221.4 25.3c-6.3 6.3-7.4 8.4-7.4 13.6v3.9l6-4c7-4.7 9-7.1 9-11.3 0-3.6-1-7.5-1.9-7.5-.3.1-2.9 2.4-5.7 5.3m-17.9 100c-7.6 1.4-9.5 2.4-11.1 6.3-.8 2-1.3 3.8-1.1 4.1.9.8 11.2-3 13.5-5.1s4.7-5.6 4-6c-.2-.1-2.5.2-5.3.7M31.1 206.5c-8.3 4.1-10.1 6.4-10.1 12.6 0 5 .8 6 3 3.4.6-.8 3.1-2.5 5.4-3.9 2.4-1.4 5.1-3.8 6.1-5.3 1.8-2.8 3.8-10.4 2.6-10.1-.3 0-3.5 1.5-7 3.3"/>
    </g>
</svg>
