<svg xmlns="http://www.w3.org/2000/svg" width="341.333" height="341.333" version="1.0" viewBox="0 0 256 256">
    <g fill="#e5e5e5">
        <path d="M119.5 7.4C98.4 21.6 83.2 38.6 72.6 59.7 63.4 78 59.5 94 59.5 114.5c0 25.7 6.8 47.4 21.4 69.2 9.3 13.7 23.6 28.2 36.1 36.4l2.4 1.6-1.9 3.9c-2.5 5.3-2.4 12.8.3 18 2 4 8.3 10.4 10.2 10.4s8.2-6.4 10.2-10.4c2.7-5.2 2.8-12.7.3-18l-1.9-3.9 2.4-1.6c17.5-11.5 36.1-32.9 45.4-52.4 13.9-29.1 16-61.4 6-91.7-9.1-27.1-28.1-51.3-54-68.6-4.5-3-8.3-5.4-8.5-5.4s-4 2.5-8.4 5.4m18.2 3.7c9.9 6.6 28.5 25.2 35 34.9 37.6 56.2 24.4 128.2-31.1 169.2-4.5 3.3-8.3 6.2-8.4 6.3-.2.2.6 1.6 1.7 3.2 2.6 3.4 3.6 8.8 2.7 13.8-.8 4.1-6.9 11.5-9.6 11.5s-8.8-7.4-9.6-11.5c-.9-5 .1-10.4 2.7-13.8 1.1-1.6 1.9-3 1.7-3.2-.1-.1-3.9-3-8.4-6.3-44.6-33-63.2-88.3-46.4-138.4 6.4-19.1 15.6-33.6 31.4-49.4 11-11 26.9-22.9 29.3-21.9.7.2 4.8 2.8 9 5.6"/>
        <path d="M120 14.2c-10.8 7.3-29.3 26.4-35.8 37.1C72.1 70.7 67 87.7 66.3 110.5c-.9 27.5 5.3 48.9 20.8 71.5 8.3 12.2 23.1 26.5 35.7 34.7l5.2 3.4 5.3-3.4c17.7-11.5 35.3-31.1 44.6-49.5 4.3-8.5 8.6-21.8 10.6-32.7 2.5-13.3 1.7-35.6-1.8-48.8-3.3-12.4-8-23.4-14.9-34.4-6.6-10.9-25.2-30-36-37.2-4.2-2.8-7.8-5.1-8-5-.2 0-3.7 2.3-7.8 5.1m15.6 3c21.6 14.8 38.1 36.7 46.3 61.4 11.6 34.6 6.4 70.1-15.2 102.4-6.2 9.3-21.9 24.9-31.5 31.3l-7.2 4.8-7.2-4.8c-9.6-6.4-25.3-22-31.5-31.3-21.6-32.3-26.8-67.8-15.2-102.4 8.2-24.5 24.1-45.8 45.7-61.1 4.2-3 7.9-5.5 8-5.5.2 0 3.7 2.3 7.8 5.2"/>
        <path d="M119 25.4C94.4 43.7 78.6 69.3 74 98.2c-1.8 11.1-.8 32 2 42.8 6.9 26.3 22.6 48.9 44.3 63.8l7.7 5.3 7.4-5.1c9-6.2 23.6-21.1 29.4-30 12.3-18.6 18.2-38.4 18.2-60.5 0-29.8-11.7-57.3-33.2-78.1C143 29.8 129.3 19 127.9 19c-.2 0-4.2 2.9-8.9 6.4m17.2 16.5c12 9.7 21.2 22.2 27.3 37.4 5.3 13.1 6.8 22.6 6.3 39.1-.2 7.8-.8 14.7-1.2 15.5-.6.8-1.6-.5-3.3-4.1-1.3-2.9-4.2-7.6-6.3-10.4s-5.3-8.2-7.2-11.9c-3.6-7.5-11.7-16.9-18.4-21.5l-4.2-2.9-4.6 3c-10.5 7-19 19.8-22.2 33.4-.9 3.8-2.7 9.2-4 12-1.3 2.7-2.9 7.1-3.5 9.6-1.2 4.5-1.1 4.8 3.5 14.4 2.6 5.3 4.9 9.5 5.2 9.3.2-.3 0-2.8-.6-5.6-1.2-6.6.3-15 3.8-21.5 3.7-6.9 4.4-7.3 9.6-4.7 6 2.8 11.9 8.8 15.3 15.2 2.5 4.8 2.8 6.3 2.8 15.3 0 8.6-.3 10.6-2.4 14.5-2.4 4.7-7.8 11-9.4 11-2.1 0-12-9.5-17.7-17.1-7-9.3-13-21.2-16-31.9-3.1-10.7-3.9-32.6-1.6-44 4.4-21.3 16.1-41 32.4-54.1 4-3.2 7.7-5.9 8.2-5.9s4.2 2.7 8.2 5.9m-.9 61c5.5 5 5.5 5.6-1.2 12.6-3.4 3.5-6.1 6.8-6.1 7.3s1.6 2.1 3.4 3.6l3.5 2.6 4.6-4.5c5.3-5.1 6-5 11.8 1.4 6.1 6.8 8 11.5 8.5 21.4.4 8.2.3 9.1-2.7 15-2.8 5.7-14.8 21.3-15.7 20.5-.2-.2.4-2.6 1.2-5.3 2.2-7.2 2-19.6-.4-27.2-3.8-12-13-22.8-24-28.1-5.8-2.9-5.9-3.5-1.6-10.7 2.8-4.8 4.8-7.1 9.3-10.8 3.6-3 3.6-3 9.4 2.2"/>
        <path d="M121.3 45.9C104.7 59.7 93 81.5 89.9 104.4c-1.3 10 0 29.6 2 29.6 1.3 0 5.9-11.3 7-17.1 1.6-7.8 6-16.4 11.7-23.2C116 87.4 126.5 79 129.1 79c2.5 0 12.8 8 18.2 14.1 2.7 3 6.4 8.8 8.4 12.9 3.5 7.2 9 14.9 10.6 15 1 0 .9-8.6-.4-17.7-2.2-16.5-10.3-34.6-21-47.4C140.5 50.6 129.6 41 128 41c-.5 0-3.5 2.2-6.7 4.9m17.1 6.3c14.9 15 23.9 34.6 26.1 56.8.7 7.4.7 7.5-1.2 5.7-1.1-.9-3.9-5.5-6.2-10.2-4.6-9.2-13.8-19.6-22.5-25.3l-4.8-3.1-4.2 2.1c-2.2 1.1-7.9 5.9-12.6 10.7-9.5 9.5-14.3 17.8-16.2 27.8C95.5 123.6 94 128 93 128c-1.5 0-2.1-14.7-1-23.1 1.4-10.8 6.5-25.6 12.1-35.5C109.3 60.2 124.5 44 128 44c1.4 0 5.1 3 10.4 8.2"/>
        <path d="M125.7 54.8c-2.4 2.6-2.2 8.5.3 10.7 1.9 1.7 2.1 1.7 4 0 2.6-2.4 2.7-8.6.2-10.8-2.3-2.1-2.5-2.1-4.5.1M107 74c-1.1 2.1.2 6 2 6s3.1-3.9 2-6c-.6-1.1-1.5-2-2-2s-1.4.9-2 2m38 0c-1.1 2.1.2 6 2 6s3.1-3.9 2-6c-.6-1.1-1.5-2-2-2s-1.4.9-2 2m-35.4 67.2c-3.7 7.8-4.1 13.1-1.7 20.9 2.8 8.9 11.8 18.9 17 18.9 1.3 0 4.8-7.6 6-13 1.3-5.7-.4-13.8-4.3-20.4-2.6-4.4-10.7-11.5-13.3-11.6-.6 0-2.3 2.4-3.7 5.2m10.3 1.5 4.1 3.8-1.5 5.5c-.9 3-1.8 9.4-2.2 14.2-.7 10.3-1.7 11-6.2 4.1-4.1-6.2-6.5-14.4-5.6-19.1 1-5.5 4.2-12.2 5.8-12.2.8 0 3.3 1.7 5.6 3.7m8.5 14.6c1.2 4.5 1.3 7 .5 10.6-1.2 5.5-4.5 11.5-5.9 10.6-1.3-.8-1.3-11.6.1-19.1 2-11.4 2.8-11.7 5.3-2.1m-3.1-51.1c-3 3.4-6.3 8.5-6.3 9.7 0 .6 1.1 1.8 2.5 2.7 2.6 1.7 2.6 1.6 7.5-3.7 2.7-3 4.9-5.9 5-6.5 0-1.5-3.3-4.4-5.2-4.4-.8 0-2.4 1-3.5 2.2m5.5 1c1.5 1.9-6.7 11.1-8.7 9.9-1.2-.8-1.2-1.4.4-3.8 2.2-3.5 5.6-7.3 6.6-7.3.3 0 1.1.6 1.7 1.2m10.3 21.3c-1.7 2-3.1 3.8-3.1 4s1.4 2.6 3 5.2c4.4 6.9 7 16.2 7 25.2l.1 7.6 3.4-5.4c7.9-12.5 6.2-27.4-4.3-37.4l-2.9-2.8zm8 4.2c2.7 4.3 3 5.4 2.5 10-.3 2.8-1 6.1-1.4 7.4-.8 2-1.1 1.6-2.6-3.3-1-3.1-3.1-7.5-4.7-9.9l-2.8-4.3 2.1-2.3c1.2-1.3 2.5-2.3 3-2.3s2.2 2.1 3.9 4.7m5.5 18.6c-.4 2.3-1.5 6-2.6 8.2-1.6 3.4-1.8 3.6-1.9 1.6-.2-4.5 3.3-17.1 4.3-15.4.4.8.5 3.4.2 5.6m-30 75.8c-3.2 3.8-3.5 9.9-.6 14.7 2.6 4.2 5.4 4.2 8-.1 2.9-4.7 2.6-10.8-.6-14.6-1.4-1.7-2.9-3.1-3.4-3.1s-2 1.4-3.4 3.1"/>
    </g>
</svg>
