<svg xmlns="http://www.w3.org/2000/svg" width="341.333" height="341.333" version="1.0" viewBox="0 0 256 256">
    <g fill="#e5e5e5">
        <path d="M125.1 3.6c-5.6 4-7.8 15.2-4 20.6 1.2 1.6 1.8 3.3 1.3 3.7s-3.5 2.6-6.6 5c-16.7 12.6-29.3 32-33.2 51.3-2 9.9-2 27.7 0 37.6 3.4 16.7 10.4 33.6 19.8 47.6 2.5 3.8 4.6 7.7 4.6 8.6 0 3.2-7.3 12.8-12.9 17-2.9 2.2-5.7 4-6.1 4s-1.5-1.7-2.3-3.9c-2.6-6.5-12.4-9.9-20.4-7-2.8.9-3 1.3-2.3 4.4 1.9 8.5 9.9 15.3 16.5 14.1 3.2-.6 3.5-.5 4 2.1 3.8 18.7 14.8 32.1 34.3 41.5l10.2 4.9 10.3-4.9c19.4-9.4 30.4-22.8 34.2-41.5.5-2.6.8-2.7 4-2.1 6.6 1.2 14.6-5.6 16.5-14.1.7-3.1.5-3.5-2.3-4.4-8-2.9-17.8.5-20.4 7-.8 2.2-1.9 3.9-2.3 3.9s-3.2-1.8-6.1-4c-5.6-4.2-12.9-13.8-12.9-17 0-.9 2.1-4.8 4.6-8.6 9.4-14 16.4-30.9 19.8-47.6 2-9.9 2-27.7 0-37.6-3.9-19.3-16.5-38.7-33.2-51.3-3.1-2.4-6.1-4.6-6.6-5s.1-2.1 1.3-3.7c2.6-3.7 2.7-9.3.2-14.8-1.6-3.6-5.3-7.4-7.1-7.4-.3 0-1.6.7-2.9 1.6m5.7 2.6c4.5 4.9 5.6 13.5 2.2 17.8-1.1 1.4-2 2.9-2 3.5 0 .5 2.4 2.6 5.2 4.5 16.5 11.2 29.9 30.2 34.9 49.8 2.4 9.6 2.6 29.9.3 40.8-3.2 15.6-10.9 33.7-19.9 46.8-5.4 7.9-5.4 9.1.1 17.4 3.3 5 14.2 14.2 16.9 14.2.7 0 2-1.8 2.9-4 .8-2.1 2.7-4.7 4.2-5.6 3.2-2.1 12.8-3.1 14.8-1.5 2.2 1.9.6 6.2-4.2 10.9-4.3 4.4-4.5 4.4-9.7 3.9l-5.3-.5-.5 4.2c-1.6 11.7-9.4 24.1-20 32.2-7.3 5.5-19 11.4-22.7 11.4s-15.4-5.9-22.7-11.4c-10.6-8.1-18.4-20.5-20-32.2l-.5-4.2-5.3.5c-5.2.5-5.4.5-9.7-3.9-4.8-4.7-6.4-9-4.2-10.9 2-1.6 11.6-.6 14.8 1.5 1.5.9 3.4 3.5 4.2 5.6.9 2.2 2.2 4 2.9 4 2.7 0 13.6-9.2 16.9-14.2 5.5-8.3 5.5-9.5.1-17.4-9-13.1-16.7-31.2-19.9-46.8-2.3-10.9-2.1-31.2.3-40.8 5-19.6 18.4-38.6 34.9-49.8 2.8-1.9 5.2-4 5.2-4.5 0-.6-.9-2.1-2-3.5-2.2-2.8-2.6-8.3-.9-12.7 1-2.8 4.7-7.3 5.9-7.3.4 0 1.6 1 2.8 2.2"/>
        <path d="M125.5 10.9c-2.2 4.3-2.2 8.3.1 11.4 1 1.4 2.1 2.6 2.4 2.6 1.5 0 4.4-5.7 4.2-8.2-.3-3.4-2.8-8.7-4.2-8.7-.5 0-1.6 1.3-2.5 2.9m-5.1 24.4c-7.5 5.6-18.9 17.8-23.3 25C86.9 77.5 83 97.6 86.4 117c3.1 17.5 10.4 35.3 20.7 50.7 2.7 4 4.9 8.2 4.9 9.4 0 6.4-9.9 19.2-19 24.4l-5.1 3 .5 4.5c1.6 12.7 14.4 28.4 29.5 35.8 4.6 2.3 9.1 4.2 10.1 4.2s5.5-1.9 10.1-4.2c15.1-7.4 27.9-23.1 29.5-35.8l.5-4.5-5.1-3c-9.1-5.2-19-18-19-24.4 0-1.2 2.2-5.4 4.9-9.4 10.3-15.4 17.6-33.2 20.7-50.7 3.4-19.4-.5-39.5-10.7-56.7-6.6-10.8-26-29.3-30.9-29.3-1 0-4.4 1.9-7.6 4.3M139 50.7c8.3 7.8 8.8 9.5 7.2 24.1-1.6 14-2.3 15-5.7 8.2-4.1-8.2-7.3-17.2-10.1-28.4-1.3-5.6-2.4-10.7-2.4-11.4 0-2.1 3.3.2 11 7.5m-22.6 6.5c1.8 11.1 10.9 33.6 17.7 43.5 1.6 2.3 2.9 4.8 2.9 5.6 0 3.9-14.1 24.1-25.3 36.2-4.5 4.8-4.7 4.9-6.2 3.1-2.1-2.8-5.3-11.6-8.1-22.5-4.6-18.1-2.8-37.4 4.9-52.8 3.6-7 11-17.3 12.6-17.3.5 0 1.1 1.9 1.5 4.2m44.3 48.8c-.3 9.6-1 14.6-3.1 21.5-3.2 11.1-12 29-18.1 37-3.8 5-4.5 6.7-4.5 10.5 0 8.7 8.8 22.4 18.9 29.4 3.6 2.5 3.9 3.1 3.4 6-1 5.5-5 13.3-9.3 18-4.2 4.5-16.4 11.6-20 11.6s-15.8-7.1-20-11.6c-4.3-4.7-8.3-12.5-9.3-18-.5-2.9-.2-3.5 3.4-6 10.2-7 18.9-20.7 18.9-29.5 0-3.8-.6-5.4-3.5-9-4.1-5.2-4.3-6.2-1-8.3 4.2-2.7 17.5-18.6 24.3-29 7.1-10.8 13-23.3 15.7-33.6 2.5-9.7 2.7-9.9 3.7-5.5.5 2.2.8 9.6.5 16.5"/>
        <path d="M133 51.9c0 2.7 3.7 14.6 6.8 21.5 3.1 7.1 4 5.9 4.1-5.5.1-7.3 0-7.7-3.5-11.7-4.6-5.4-7.4-7-7.4-4.3m6 5.3c2.6 3 2.9 4 2.9 9.8v6.5l-2-4.3c-2-4.5-5-15.2-4.3-15.2.2 0 1.8 1.5 3.4 3.2m-28.8 6.1C98 80.9 94.6 101.9 100.3 123c1.4 5.3 3.5 11.7 4.7 14.4l2.1 4.9 3-2.9c5.8-5.4 18.2-22.2 22.2-30.1 1.7-3.1 1.6-3.3-.9-7-5.7-8.3-13.3-26.1-16.7-38.8l-1.3-5zm13.6 29.2c1.7 3.3 4.2 7.9 5.6 10.1l2.6 4.2-5.8 9c-5.8 9.2-16.7 23.2-18.1 23.2-1 0-4.7-10.8-7.1-21-4.1-17.5-1.3-33.8 8.7-50.9l2.6-4.4 4.2 11.9c2.3 6.5 5.6 14.6 7.3 17.9"/>
        <path d="M125.5 105.9c-.7 1.2 1.2 2.4 2.5 1.6 1.1-.7.4-2.5-1-2.5-.5 0-1.1.4-1.5.9m-17.1 25.5c-.8 2.2.3 3.3 1.8 1.8.9-.9.9-1.5 0-2.4s-1.3-.7-1.8.6m47.2-24.2c-4.6 13.4-16.6 31.6-30.3 45.8l-7.6 8 3.3 4.1c3.1 3.9 3.2 4.4 2.8 10.8-.7 9.4-5 17.1-14.5 26.2-7 6.6-7.5 7.3-6.9 10.4.9 4.8 7.6 14.6 12.2 17.7 2.1 1.5 6 3.6 8.7 4.8l4.7 2.1 4.8-2.1c2.6-1.2 6.5-3.3 8.6-4.8 4.6-3.1 11.3-12.9 12.2-17.7.6-3.1.1-3.8-6.9-10.4-9.5-9.1-13.8-16.8-14.5-26.1-.4-6.7-.4-6.8 3.7-12 8.9-11.3 16.3-26.8 19.9-42 2.3-9.8 3.6-20 2.4-20-.4 0-1.6 2.4-2.6 5.2m-1.6 14.9c-4 15.4-11.3 30.8-20.1 41.9l-4.2 5.3.7 7c.9 9.5 5 17.2 14.3 26.4 4 4 7.3 7.9 7.3 8.8 0 2.6-3.9 9.5-8 13.9-2.1 2.3-6.6 5.5-9.9 7.1l-6.1 2.9-6.1-2.9c-3.3-1.6-7.8-4.8-9.9-7.1-4.1-4.4-8-11.3-8-13.9 0-.9 3.3-4.8 7.3-8.8 9.3-9.2 13.4-16.9 14.3-26.4.7-6.9.6-7.2-2.6-11.2l-3.3-4 9.2-9.7c9.2-9.7 18.1-22 23.6-32.6 1.6-3.1 3.1-5.5 3.3-5.4.2.2-.7 4.1-1.8 8.7"/>
        <path d="M126.5 160.9c-.7 1.2 1.2 2.4 2.5 1.6 1.1-.7.4-2.5-1-2.5-.5 0-1.1.4-1.5.9m0 5c-.7 1.2 1.2 2.4 2.5 1.6 1.1-.7.4-2.5-1-2.5-.5 0-1.1.4-1.5.9m-2.6 28.7c-1.8 2-5.3 4.9-7.6 6.5-3.9 2.7-4.3 3.4-4.3 7.2 0 8.3 7.8 16.2 16 16.2s16-7.9 16-16.2c0-3.8-.4-4.5-4.2-7.2-2.4-1.6-5.9-4.5-7.7-6.5-1.9-2-3.8-3.6-4.1-3.6s-2.2 1.6-4.1 3.6m6.6 1.4c.9 1 4.2 3.6 7.1 5.6 6 4.2 6.4 5.5 3.5 12-5.4 11.9-20.8 11.9-26.2 0-2.9-6.5-2.5-7.8 3.5-12 2.9-2 6.2-4.6 7.1-5.6 2.2-2.5 2.8-2.5 5 0"/>
        <path d="M124.4 200.8c-1.7 1.5-4.3 3.6-5.9 4.8-2.8 1.9-2.8 2.2-1.6 5.2 1.9 4.5 7.5 9.2 11.1 9.2s9.2-4.7 11.1-9.1c1.2-3 1.1-3.3-1.2-5.1-1.3-1-4.1-3.2-6.1-4.8-2-1.7-3.8-3-4-3s-1.7 1.3-3.4 2.8m6.7 6.8c1.7 2.1 0 4.9-3.1 4.9s-4.8-2.8-3.1-4.9c.8-.9 2.1-1.6 3.1-1.6s2.3.7 3.1 1.6"/>
        <path d="M126.5 208.9c-.7 1.2 1.2 2.4 2.5 1.6 1.1-.7.4-2.5-1-2.5-.5 0-1.1.4-1.5.9m-.2 21.3c.2.7 1 1.3 1.7 1.3s1.5-.6 1.8-1.3c.2-.7-.5-1.2-1.8-1.2s-2 .5-1.7 1.2M68 193.4c0 .8 1.5 3.1 3.4 5 3.3 3.6 7.4 4.7 10.3 2.8 1.8-1.2-1.2-7-4.2-8.2-4-1.5-9.5-1.3-9.5.4m110.2-.4c-2.8 1.2-5.6 7.1-3.9 8.2 2.9 1.9 7 .8 10.3-2.8 4.5-4.7 4.4-6.4-.3-6.3-2.1 0-4.8.4-6.1.9M97.5 26.1c-1 1.5.1 2.3 2 1.5.9-.3 1.3-1 1-1.6-.8-1.3-2.2-1.3-3 .1m18.5.3c0 .9.7 1.6 1.6 1.6 1.7 0 1.4-2.2-.4-2.8-.7-.2-1.2.3-1.2 1.2m21.7-.7c-1.2 1.1-.8 2.3.8 2.3.8 0 1.5-.7 1.5-1.5 0-1.6-1.2-2-2.3-.8m17.8.3c-.3.6.1 1.3 1 1.6 1.9.8 3 0 2-1.5-.8-1.4-2.2-1.4-3-.1M102 37c-1.2.7-1.2 1.2-.2 2.2.9.9 1.5.9 2.4 0 1.6-1.6-.2-3.4-2.2-2.2m49.4.1c-.8 1.4 1.1 3.3 2.5 2.5.6-.4 1.1-1.1 1.1-1.6 0-1.3-2.9-2-3.6-.9M78 161.5c0 .8.7 1.5 1.5 1.5s1.5-.7 1.5-1.5-.7-1.5-1.5-1.5-1.5.7-1.5 1.5m97 0c0 .8.7 1.5 1.5 1.5s1.5-.7 1.5-1.5-.7-1.5-1.5-1.5-1.5.7-1.5 1.5m-77.8 12.7c.5 1.5 2.8 1.8 2.9.3 0-.6-.7-1.2-1.7-1.3-1-.3-1.5.1-1.2 1m58.3-.3c-.3.5-.1 1.2.5 1.6 1.2.7 3-.2 3-1.6 0-1.2-2.7-1.2-3.5 0m-67 3.2c-1 1.5.1 2.3 2 1.5.9-.3 1.3-1 1-1.6-.8-1.3-2.2-1.3-3 .1m12-.2c-.7 1.2 1.2 2.4 2.5 1.6 1.1-.7.4-2.5-1-2.5-.5 0-1.1.4-1.5.9m52 0c-.7 1.2 1.2 2.4 2.5 1.6 1.1-.7.4-2.5-1-2.5-.5 0-1.1.4-1.5.9m12 .1c-.3.6.1 1.3 1 1.6 1.9.8 3 0 2-1.5-.8-1.4-2.2-1.4-3-.1m-67 3c-1.1 1.7.5 3.2 2.1 1.9.7-.6 1.1-1.5.8-2-.7-1.2-2.1-1.1-2.9.1m58.1-.1c-.3.5.1 1.4.8 2 1.6 1.3 3.2-.2 2.1-1.9-.8-1.2-2.2-1.3-2.9-.1m-67.1 12.2c-1 1.5.1 2.3 2 1.5.9-.3 1.3-1 1-1.6-.8-1.3-2.2-1.3-3 .1m76-.1c-.3.6.1 1.3 1 1.6 1.9.8 3 0 2-1.5-.8-1.4-2.2-1.4-3-.1m-63 55.9c-.3.5-.1 1.2.5 1.6 1.2.7 3-.2 3-1.6 0-1.2-2.7-1.2-3.5 0m49.7.3c.5 1.5 2.8 1.8 2.9.3 0-.6-.7-1.2-1.7-1.3-1-.3-1.5.1-1.2 1"/>
    </g>
</svg>
