<?xml version="1.0" standalone="no"?>
<!DOCTYPE svg PUBLIC "-//W3C//DTD SVG 20010904//EN"
 "http://www.w3.org/TR/2001/REC-SVG-20010904/DTD/svg10.dtd">
<svg version="1.0" xmlns="http://www.w3.org/2000/svg"
 width="512.000000pt" height="512.000000pt" viewBox="0 0 512.000000 512.000000"
 preserveAspectRatio="xMidYMid meet">
<metadata>
Created by potrace 1.16, written by Peter Selinger 2001-2019
</metadata>
<g transform="translate(0.000000,512.000000) scale(0.100000,-0.100000)"
fill="#f2f2f2" stroke="none">
<path d="M1445 4109 c-246 -35 -365 -106 -448 -266 -58 -112 -82 -193 -113
-373 -14 -80 -32 -183 -40 -230 -18 -108 -35 -543 -28 -720 5 -107 12 -158 36
-245 66 -239 146 -346 397 -532 2 -2 8 -31 13 -65 15 -112 84 -191 146 -167
33 13 32 13 32 -28 1 -134 81 -236 161 -206 28 11 29 10 53 -42 33 -72 89
-110 162 -110 44 0 58 5 81 28 l29 27 23 -31 c48 -64 140 -74 203 -21 l31 26
46 -27 c128 -76 160 -87 297 -97 237 -17 802 -33 987 -27 281 9 420 50 528
158 80 79 157 265 184 443 8 56 24 144 35 196 26 125 54 576 47 775 -5 141 -7
158 -47 285 -24 79 -58 163 -81 203 -50 85 -141 183 -241 258 -73 56 -77 61
-88 114 -6 30 -26 76 -43 102 -31 46 -34 48 -78 48 l-46 0 -11 59 c-21 112
-76 176 -152 176 -34 0 -37 2 -54 50 -11 31 -33 63 -58 86 -38 34 -44 36 -90
32 -29 -3 -62 -14 -79 -27 l-29 -22 -32 30 c-61 57 -153 64 -218 16 l-33 -24
-44 30 c-103 72 -155 87 -323 99 -396 26 -992 37 -1115 19z m815 -80 c445 -15
457 -18 597 -123 123 -93 153 -200 119 -426 -28 -182 -87 -263 -234 -317 -69
-25 -90 -28 -197 -28 -108 0 -126 3 -176 26 -90 42 -124 109 -117 235 4 87 25
118 78 116 43 -1 47 -8 22 -35 -49 -52 -19 -135 61 -173 67 -31 127 -31 194 0
85 40 130 134 121 254 -6 82 -34 130 -97 169 -87 52 -142 57 -601 48 -487 -9
-514 -10 -559 -33 -48 -24 -89 -79 -106 -143 -8 -30 -23 -123 -32 -207 -17
-151 -17 -155 4 -305 27 -181 70 -333 126 -442 48 -91 138 -216 199 -276 34
-32 39 -42 27 -50 -8 -5 -18 -9 -22 -9 -18 0 -124 -77 -183 -133 l-62 -57 -60
65 c-96 105 -146 226 -189 455 -15 81 -18 144 -15 435 1 209 -1 336 -7 330
-10 -11 -33 -546 -26 -610 20 -172 29 -232 51 -319 31 -125 89 -236 165 -320
l60 -65 -35 -53 c-19 -29 -47 -89 -62 -133 -33 -97 -38 -103 -62 -82 -15 14
-18 27 -14 72 5 67 -9 72 -33 13 l-17 -43 -81 86 c-102 107 -152 196 -178 322
-17 77 -21 147 -26 432 -8 459 -1 530 89 885 30 122 100 280 140 317 48 45
142 92 213 108 164 37 252 38 925 14z m851 -99 c47 -26 71 -116 88 -344 8
-101 7 -130 -8 -186 -21 -84 -70 -166 -142 -240 -61 -62 -102 -79 -131 -53
-26 23 -22 39 21 91 52 61 76 118 95 222 39 217 30 346 -29 445 -30 49 -32 56
-17 65 23 13 98 13 123 0z m222 -24 c77 -33 96 -87 104 -301 7 -201 -5 -277
-60 -374 -65 -114 -249 -271 -318 -271 -30 0 -69 39 -69 69 0 9 27 43 61 76
177 174 235 337 211 598 -7 69 -16 137 -21 151 -9 21 -6 28 16 46 30 24 34 24
76 6z m219 -153 c49 -55 69 -219 44 -361 -18 -103 -70 -248 -111 -310 -55 -83
-170 -157 -282 -182 -58 -13 -83 -6 -83 25 0 19 10 30 43 46 23 12 85 65 138
118 83 83 103 110 145 195 l49 99 4 194 c3 175 5 193 21 193 9 0 24 -8 32 -17z
m-1029 -62 c80 -17 114 -39 137 -85 35 -73 22 -184 -28 -239 -66 -73 -194 -74
-250 -2 -29 36 -28 66 3 95 32 30 32 53 -1 75 -19 12 -39 16 -70 12 -92 -10
-129 -62 -128 -177 0 -145 74 -249 203 -287 39 -11 94 -17 181 -17 113 0 132
3 198 28 41 15 74 26 75 24 27 -53 36 -64 64 -72 21 -7 36 -20 44 -38 17 -42
64 -88 88 -88 11 0 36 -16 54 -36 22 -24 42 -36 62 -37 19 -1 39 -13 55 -30
20 -22 37 -30 75 -34 65 -7 126 -57 212 -173 121 -162 176 -311 214 -575 20
-143 -10 -431 -54 -526 -34 -70 -54 -78 -232 -89 -194 -12 -661 -12 -770 0
-162 19 -219 67 -218 184 1 98 30 149 105 187 46 24 91 24 143 0 46 -21 61
-36 70 -72 5 -21 0 -34 -25 -62 l-32 -36 27 -27 c24 -24 32 -26 82 -22 47 4
61 10 84 36 85 95 38 321 -81 382 -70 36 -177 55 -310 55 -115 0 -129 -2 -178
-26 -46 -23 -52 -24 -52 -8 0 20 -54 69 -76 69 -8 0 -17 8 -21 18 -13 35 -65
92 -91 99 -14 3 -41 21 -59 40 -21 20 -44 33 -59 33 -16 0 -37 12 -53 29 -22
23 -41 32 -82 37 -46 6 -61 14 -108 58 -142 133 -236 303 -283 511 -29 127
-32 155 -32 305 0 187 19 330 54 403 30 64 62 77 225 87 169 11 776 4 838 -9z
m1216 -191 c10 -5 26 -29 36 -52 29 -73 0 -247 -61 -359 -46 -84 -185 -194
-311 -247 -78 -33 -153 -29 -153 9 0 13 21 28 75 53 56 26 92 52 148 108 94
94 138 180 172 338 14 63 28 125 30 138 6 24 33 29 64 12z m151 -274 c0 -50 2
-57 14 -47 8 7 18 26 21 42 l7 29 36 -28 c55 -42 139 -149 178 -227 58 -117
72 -214 79 -553 9 -351 -3 -555 -41 -712 -14 -58 -36 -150 -50 -205 -33 -139
-111 -295 -167 -337 -94 -69 -208 -103 -385 -114 -100 -7 -718 10 -992 26
-150 9 -157 11 -226 46 -92 46 -175 120 -204 181 -48 103 -34 301 31 430 38
75 118 167 169 193 95 49 313 53 411 8 45 -21 59 -33 83 -79 54 -98 37 -228
-35 -267 -18 -10 -31 -11 -51 -3 l-28 10 26 26 c56 56 5 154 -94 183 -59 18
-101 14 -158 -12 -83 -39 -127 -118 -127 -231 -1 -82 23 -139 75 -179 45 -34
79 -45 178 -62 71 -12 148 -13 470 -4 522 14 526 15 578 63 54 50 74 119 97
337 14 131 14 155 0 260 -22 152 -38 226 -74 338 -45 137 -143 295 -253 408
l-50 51 28 7 c40 10 131 73 194 134 52 50 56 52 78 40 36 -22 110 -117 142
-183 17 -33 41 -97 55 -143 45 -152 55 -262 56 -618 1 -242 4 -317 11 -284 5
25 11 191 11 370 2 278 -1 338 -16 414 -43 210 -100 335 -199 436 l-54 55 44
72 c24 40 52 98 63 130 11 32 22 64 24 71 4 10 8 10 25 0 16 -11 20 -23 20
-72z m-2032 -938 c24 -24 11 -39 -62 -72 -88 -40 -203 -144 -255 -231 -40 -66
-86 -213 -96 -308 -8 -71 -20 -90 -57 -85 -58 8 -76 147 -37 294 33 128 53
162 137 242 128 121 324 206 370 160z m132 -73 c17 -21 4 -49 -33 -67 -17 -9
-62 -42 -99 -75 -179 -159 -225 -265 -236 -542 -6 -141 -9 -165 -24 -175 -25
-15 -48 1 -73 50 -28 57 -33 241 -10 368 21 118 60 201 127 273 103 108 209
168 324 182 6 0 17 -6 24 -14z m110 -75 c33 -33 26 -73 -20 -113 -60 -51 -140
-154 -171 -222 -51 -109 -61 -245 -32 -427 14 -93 15 -111 3 -133 -21 -40 -46
-49 -91 -36 -73 22 -97 79 -109 261 -12 197 7 295 85 451 41 80 235 239 292
239 12 0 32 -9 43 -20z m108 -132 c19 -19 14 -42 -19 -79 -41 -46 -105 -182
-125 -265 -34 -147 -16 -331 42 -430 l24 -41 -29 -13 c-39 -16 -86 -5 -110 26
-41 52 -84 308 -71 424 18 155 50 227 146 327 52 53 67 63 96 63 19 0 39 -5
46 -12z"/>
<path d="M1770 3935 c0 -24 27 -29 73 -15 36 11 39 14 22 21 -37 14 -95 11
-95 -6z"/>
<path d="M2031 3937 c-6 -8 -8 -17 -4 -20 10 -11 52 -8 76 5 l22 12 -25 7
c-39 11 -57 10 -69 -4z"/>
<path d="M2283 3935 c-9 -24 13 -34 54 -25 46 11 51 18 17 25 -16 4 -37 9 -47
12 -10 2 -20 -2 -24 -12z"/>
<path d="M1497 3933 c-4 -3 -7 -15 -7 -25 0 -13 8 -18 30 -18 40 0 103 27 95
40 -7 11 -108 14 -118 3z"/>
<path d="M2547 3903 c-13 -13 -7 -32 13 -38 10 -3 38 -1 62 5 40 11 41 13 23
26 -19 14 -86 19 -98 7z"/>
<path d="M1305 3867 c-43 -24 -57 -53 -30 -64 12 -4 27 5 51 33 51 60 45 68
-21 31z"/>
<path d="M2760 3809 c0 -25 53 -99 72 -99 19 0 7 67 -15 88 -24 23 -57 29 -57
11z"/>
<path d="M1177 3678 c-21 -41 -26 -99 -10 -105 16 -6 34 39 38 95 4 50 -4 53
-28 10z"/>
<path d="M2857 3593 c-9 -8 -8 -83 2 -106 6 -17 8 -17 18 5 18 37 23 70 12 90
-10 19 -21 23 -32 11z"/>
<path d="M2280 3429 c0 -11 5 -17 10 -14 6 3 10 13 10 21 0 8 -4 14 -10 14 -5
0 -10 -9 -10 -21z"/>
<path d="M2806 3349 c-9 -13 -16 -34 -16 -47 0 -20 3 -21 20 -12 32 17 45 49
27 67 -13 13 -16 12 -31 -8z"/>
<path d="M2280 3328 c0 -18 18 -34 28 -24 3 4 -2 14 -11 23 -16 16 -17 16 -17
1z"/>
<path d="M2362 3238 c3 -7 13 -15 22 -16 12 -3 17 1 14 10 -3 7 -13 15 -22 16
-12 3 -17 -1 -14 -10z"/>
<path d="M2655 3223 c-23 -13 -26 -18 -13 -21 20 -4 58 14 58 28 0 14 -10 12
-45 -7z"/>
<path d="M2495 3210 c3 -5 17 -10 30 -10 13 0 27 5 30 10 4 6 -8 10 -30 10
-22 0 -34 -4 -30 -10z"/>
<path d="M1578 2369 c-25 -14 -22 -29 5 -29 22 1 57 21 57 34 0 10 -43 7 -62
-5z"/>
<path d="M1416 2259 c-30 -24 -34 -39 -8 -39 18 0 40 19 56 48 11 19 -18 14
-48 -9z"/>
<path d="M1265 2084 c-17 -26 -14 -54 5 -54 6 0 15 12 20 26 21 55 5 73 -25
28z"/>
<path d="M1640 3448 c1 -51 38 -207 61 -255 66 -136 280 -356 455 -468 43 -28
54 -40 49 -53 -45 -111 -46 -211 -2 -297 116 -228 495 -278 695 -91 l32 30 56
-54 c107 -105 200 -249 253 -391 12 -31 39 -125 61 -209 50 -197 65 -213 56
-63 -14 251 -132 516 -337 755 l-32 38 19 42 c14 32 19 65 19 133 0 76 -4 99
-26 146 -40 85 -115 152 -212 190 -78 30 -85 31 -199 26 -139 -6 -192 -26
-275 -101 l-52 -47 -77 46 c-114 68 -229 161 -333 271 -99 105 -140 176 -181
312 -12 39 -24 72 -26 72 -2 0 -4 -15 -4 -32z m1084 -674 c127 -53 199 -172
170 -281 -6 -21 -8 -21 -63 17 -69 47 -269 145 -374 183 -91 33 -90 39 6 88
56 28 69 30 127 26 39 -3 94 -17 134 -33z m-164 -243 c121 -51 255 -125 255
-141 0 -28 -106 -71 -188 -77 -135 -10 -276 54 -313 144 -16 38 -18 126 -4
153 10 18 14 17 92 -14 46 -18 117 -47 158 -65z"/>
<path d="M3830 3071 c-5 -11 -10 -30 -10 -43 1 -23 1 -23 25 5 13 15 22 34 19
42 -8 21 -21 19 -34 -4z"/>
<path d="M3690 2893 c-16 -7 -39 -33 -40 -45 0 -15 37 -8 53 10 29 31 22 48
-13 35z"/>
<path d="M3498 2769 c-24 -14 -23 -29 3 -29 25 0 59 17 59 30 0 13 -40 12 -62
-1z"/>
<path d="M2438 1908 c-27 -9 -38 -28 -18 -28 13 0 70 29 70 35 0 7 -22 5 -52
-7z"/>
<path d="M2565 1910 c-4 -6 8 -10 30 -10 22 0 34 4 30 10 -3 6 -17 10 -30 10
-13 0 -27 -4 -30 -10z"/>
<path d="M2720 1885 c7 -8 19 -15 27 -15 13 0 13 3 3 15 -7 8 -19 15 -27 15
-13 0 -13 -3 -3 -15z"/>
<path d="M2297 1820 c-30 -24 -34 -65 -7 -65 17 0 43 48 38 71 -2 13 -7 12
-31 -6z"/>
<path d="M2810 1808 c0 -18 18 -34 28 -24 3 4 -2 14 -11 23 -16 16 -17 16 -17
1z"/>
<path d="M2820 1684 c0 -8 5 -12 10 -9 6 3 10 10 10 16 0 5 -4 9 -10 9 -5 0
-10 -7 -10 -16z"/>
<path d="M2232 1615 c-22 -49 -9 -104 22 -92 17 7 21 52 10 95 -8 29 -18 28
-32 -3z"/>
<path d="M3924 1514 c-8 -20 -14 -52 -12 -72 l3 -37 22 35 c24 36 32 110 12
110 -5 0 -17 -16 -25 -36z"/>
<path d="M2280 1373 c0 -26 6 -46 18 -56 19 -17 44 -22 55 -11 9 9 -17 55 -47
83 l-26 24 0 -40z"/>
<path d="M3790 1280 c-18 -22 -30 -43 -27 -47 12 -11 92 42 92 62 0 35 -31 28
-65 -15z"/>
<path d="M2493 1249 c-44 -13 -41 -24 9 -37 58 -15 96 6 66 36 -14 14 -30 14
-75 1z"/>
<path d="M3541 1216 c-60 -22 -51 -37 20 -34 56 3 64 5 64 23 0 25 -35 29 -84
11z"/>
<path d="M2750 1201 c-13 -9 -13 -11 0 -15 8 -3 31 -7 50 -8 26 -2 35 1 35 12
0 18 -62 26 -85 11z"/>
<path d="M3015 1196 c-19 -13 -17 -15 18 -21 40 -8 65 4 53 24 -10 15 -49 14
-71 -3z"/>
<path d="M3271 1199 c-40 -12 -35 -19 18 -29 49 -9 71 1 52 24 -15 18 -22 18
-70 5z"/>
</g>
</svg>
