<?xml version="1.0" standalone="no"?>
<!DOCTYPE svg PUBLIC "-//W3C//DTD SVG 20010904//EN"
 "http://www.w3.org/TR/2001/REC-SVG-20010904/DTD/svg10.dtd">
<svg version="1.0" xmlns="http://www.w3.org/2000/svg"
 width="512.000000pt" height="512.000000pt" viewBox="0 0 512.000000 512.000000"
 preserveAspectRatio="xMidYMid meet">
<metadata>
Created by potrace 1.16, written by Peter Selinger 2001-2019
</metadata>
<g transform="translate(0.000000,512.000000) scale(0.100000,-0.100000)"
fill="#f2f2f2" stroke="none">
<path d="M2248 4130 c-102 -12 -151 -26 -220 -62 -56 -30 -56 -30 -84 -11 -25
16 -49 18 -189 17 -139 0 -170 -3 -235 -24 -114 -35 -264 -113 -294 -153 -52
-68 -126 -353 -126 -485 0 -97 -31 -198 -107 -347 -73 -144 -98 -224 -115
-365 -9 -80 -8 -108 5 -174 22 -106 75 -214 136 -279 l50 -53 -30 -18 c-147
-87 -139 -372 14 -542 l46 -51 -34 -16 c-26 -13 -37 -25 -45 -58 -7 -23 -9
-56 -6 -74 8 -40 62 -93 104 -101 17 -4 32 -8 32 -9 0 -1 -7 -19 -15 -39 -15
-35 -14 -39 11 -92 31 -65 44 -74 150 -107 166 -52 296 -63 1094 -88 190 -5
437 -14 550 -19 367 -16 776 31 924 107 48 25 114 93 121 125 5 23 2 38 -16
61 -21 29 -21 31 -4 41 77 46 110 111 103 201 -4 44 -11 62 -33 85 l-29 30 21
22 c38 42 64 108 114 290 41 150 52 213 69 372 26 249 40 485 40 668 0 135 -3
158 -34 280 -43 166 -72 234 -175 423 -98 178 -130 220 -213 275 -112 75 -193
107 -308 124 -372 53 -584 58 -673 18 l-49 -22 -96 26 c-78 21 -125 27 -237
29 -77 2 -175 0 -217 -5z m156 -71 c-3 -5 -12 -9 -20 -9 -8 0 -14 -4 -14 -9 0
-4 -17 -20 -39 -34 l-38 -26 -33 34 c-36 37 -33 42 30 47 77 7 120 6 114 -3z
m130 -8 c17 -18 16 -20 -21 -45 -47 -32 -54 -32 -83 -1 -13 14 -28 25 -34 25
-5 0 4 -15 22 -33 l31 -32 -46 -29 -46 -30 -28 35 c-15 18 -26 36 -23 38 2 2
32 23 66 47 73 49 132 59 162 25z m78 3 c24 -3 51 -12 60 -21 11 -10 18 -12
18 -5 0 7 7 12 15 12 23 0 18 -13 -15 -45 -16 -15 -29 -31 -28 -34 2 -24 -7
-20 -47 19 -36 35 -42 46 -33 58 10 11 8 13 -7 10 -10 -1 -20 3 -23 11 -3 8 0
11 7 7 6 -4 30 -9 53 -12z m674 -19 c126 -14 250 -30 277 -35 99 -21 261 -121
316 -196 53 -72 203 -375 232 -467 15 -50 27 -92 25 -94 -1 -2 -25 30 -51 70
-27 39 -101 124 -165 188 -127 129 -200 173 -335 205 -109 25 -266 14 -349
-25 -104 -50 -151 -92 -191 -174 -74 -150 -71 -265 8 -403 59 -102 112 -153
217 -206 81 -41 89 -43 170 -43 101 0 154 21 226 87 82 75 116 187 78 259 -33
65 -165 98 -214 54 -41 -37 -29 -104 20 -120 13 -4 20 -15 20 -31 0 -30 -44
-59 -116 -75 -135 -30 -264 94 -264 252 0 116 47 216 115 245 51 21 134 28
185 14 99 -26 250 -122 348 -220 55 -56 138 -180 152 -228 5 -20 24 -104 41
-186 l30 -149 -11 -166 c-18 -278 -33 -373 -86 -548 -27 -92 -116 -296 -156
-359 l-27 -41 -473 0 c-260 0 -524 -4 -585 -8 -82 -5 -113 -4 -113 4 0 23 81
140 125 180 26 24 93 64 168 99 154 73 196 110 247 217 55 112 50 132 -10 42
-73 -109 -141 -167 -242 -207 -151 -60 -193 -86 -275 -169 -43 -43 -89 -97
-103 -120 -14 -22 -29 -39 -35 -37 -6 2 -9 50 -7 127 4 108 1 131 -18 181 -34
91 -105 186 -125 167 -3 -3 8 -35 25 -71 31 -66 60 -178 60 -235 0 -18 -7 -66
-16 -107 l-17 -74 -116 -6 c-64 -3 -182 -9 -262 -12 l-146 -6 -7 23 c-3 13 -1
87 6 164 10 119 9 167 -6 325 -10 102 -26 223 -36 270 -64 295 -49 433 80 723
84 190 90 217 90 379 0 128 2 142 25 188 27 53 62 84 141 123 143 72 286 40
326 -72 9 -26 13 -108 13 -281 l0 -245 -32 -95 c-22 -63 -56 -133 -104 -210
-89 -142 -99 -166 -99 -234 l0 -55 91 -98 c129 -137 179 -249 179 -396 0 -49
18 -206 27 -237 2 -9 13 2 29 30 14 24 39 60 57 81 18 20 46 54 63 75 20 26
76 65 160 113 152 87 235 148 262 193 54 89 67 229 31 344 -31 102 -50 134
-173 299 -123 165 -188 264 -210 322 -19 49 -53 176 -61 229 -11 74 13 268 43
346 25 65 31 73 78 100 97 54 143 56 450 23z m-1087 11 c-2 -2 -39 -25 -82
-50 -76 -45 -97 -49 -97 -22 0 18 119 71 169 75 8 0 12 -1 10 -3z m50 -40 l32
-33 -37 -22 c-31 -19 -39 -20 -53 -8 -33 29 -45 29 -21 1 14 -16 29 -32 35
-36 5 -4 6 -11 1 -15 -5 -4 -11 -2 -13 5 -7 19 -16 15 -97 -43 -42 -30 -76
-51 -76 -46 0 4 5 33 11 65 11 53 15 59 58 84 25 14 64 39 86 54 22 15 40 28
41 28 0 0 15 -15 33 -34z m367 -72 c-2 -6 2 -11 9 -10 8 0 14 -1 15 -4 3 -14
-14 -91 -21 -95 -11 -7 -51 46 -45 61 3 8 0 11 -8 8 -13 -5 -86 51 -86 65 0 4
17 20 38 35 l37 27 33 -38 c18 -20 31 -42 28 -49z m-757 50 c35 -45 44 -123
37 -324 -9 -278 -28 -367 -114 -548 -78 -162 -102 -240 -102 -328 0 -60 37
-277 65 -382 18 -68 41 -279 32 -288 -4 -4 -26 0 -49 9 -85 32 -314 98 -378
108 -36 6 -93 8 -127 4 -73 -8 -102 4 -155 63 -86 96 -123 197 -122 337 1 135
29 240 104 380 90 171 143 351 155 530 8 113 31 216 62 278 23 46 30 52 139
104 126 61 210 80 351 82 76 1 83 -1 102 -25z m460 -48 l23 -24 -54 -4 c-69
-6 -78 0 -42 29 36 29 45 29 73 -1z m225 -66 c42 -44 76 -87 76 -97 0 -19 -28
-53 -44 -53 -13 0 -86 81 -86 96 0 7 12 19 26 29 14 9 23 19 20 23 -3 3 -17
-5 -31 -18 l-24 -23 -30 26 c-17 14 -40 28 -51 32 -11 3 -20 9 -20 13 0 7 69
51 81 52 4 0 41 -36 83 -80z m69 -171 c-4 -13 -9 -17 -15 -11 -11 11 -3 32 12
32 4 0 6 -9 3 -21z m945 -24 c97 -23 179 -62 267 -126 94 -69 157 -138 226
-250 60 -96 70 -123 94 -248 15 -80 17 -125 12 -310 -10 -331 -21 -412 -98
-746 -56 -237 -126 -376 -182 -361 -12 3 -30 6 -39 6 -14 0 -11 12 21 73 185
346 277 968 192 1297 -22 88 -90 235 -128 281 -51 61 -238 201 -328 247 -80
41 -97 46 -160 46 -90 1 -152 -22 -200 -76 -56 -62 -69 -99 -69 -208 -1 -79 3
-104 22 -145 29 -62 84 -122 137 -146 109 -50 275 9 275 98 0 29 -5 36 -34 48
-41 17 -51 40 -31 71 12 19 24 24 61 24 123 0 172 -108 103 -228 -100 -175
-373 -174 -535 1 -95 103 -144 230 -125 331 30 165 131 273 291 315 91 24 145
25 228 6z m-972 -23 c12 -15 24 -44 28 -64 6 -31 3 -39 -16 -52 -23 -16 -23
-16 -29 21 -22 136 -21 144 17 95z m39 -142 c3 -5 1 -10 -4 -10 -6 0 -11 5
-11 10 0 6 2 10 4 10 3 0 8 -4 11 -10z m-4 -56 l34 -36 -44 -39 c-24 -21 -46
-39 -50 -39 -6 0 -3 116 4 138 7 19 19 14 56 -24z m55 -111 c10 -27 19 -51 19
-54 0 -6 -141 -119 -148 -119 -1 0 0 33 3 74 5 72 6 74 48 110 24 20 47 36 52
36 4 0 16 -21 26 -47z m61 -112 c20 -34 21 -41 7 -51 -8 -7 -15 -11 -17 -9 -1
2 -15 19 -31 36 -24 27 -27 35 -16 48 20 24 33 18 57 -24z m-45 -40 l28 -39
-44 -36 -44 -36 -31 37 c-17 21 -31 33 -31 27 0 -6 11 -21 25 -34 32 -30 31
-39 -11 -74 l-35 -29 -20 20 c-19 18 -20 24 -8 63 10 33 27 53 73 91 34 27 63
48 66 48 3 1 17 -17 32 -38z m117 -77 c22 -36 41 -68 41 -71 0 -4 -24 20 -54
53 -39 43 -51 62 -44 72 6 6 12 12 13 12 2 0 21 -30 44 -66z m-45 -10 l29 -35
-36 -37 -37 -36 -35 34 -35 34 37 38 c20 21 40 38 43 37 3 0 18 -16 34 -35z
m70 -70 l29 -26 -41 -41 c-35 -35 -43 -39 -57 -27 -38 31 -39 50 -4 86 18 19
35 34 38 34 4 0 19 -12 35 -26z m-160 -20 l29 -36 -36 -36 -36 -36 -35 39 -34
40 31 33 c17 17 36 32 41 32 6 0 24 -16 40 -36z m-171 -46 c-18 -18 -34 -30
-36 -27 -2 2 5 24 15 48 18 40 21 42 36 27 15 -15 14 -19 -15 -48z m406 -21
c27 -47 112 -249 107 -254 -1 -2 -53 48 -114 109 l-111 113 36 37 c21 21 42
38 48 38 5 0 21 -19 34 -43z m-320 -14 l31 -37 -32 -33 c-18 -18 -37 -33 -44
-33 -6 0 -24 18 -39 41 l-27 41 28 29 c15 16 33 29 40 29 7 0 26 -17 43 -37z
m154 9 l27 -28 -40 -39 c-22 -21 -41 -37 -42 -34 -2 2 -14 16 -27 32 l-25 27
34 35 c19 19 37 35 40 35 3 0 18 -13 33 -28z m-243 -84 l30 -42 -32 -33 c-17
-18 -35 -33 -39 -33 -4 0 -21 17 -38 38 l-30 39 30 36 c17 20 35 37 40 37 5 0
23 -19 39 -42z m310 15 c11 -16 68 -75 125 -133 l105 -106 -47 -39 -46 -39
-83 90 -84 89 36 33 c20 19 34 36 32 38 -3 2 -17 -10 -33 -26 -16 -17 -32 -30
-37 -30 -4 0 -23 17 -42 38 l-35 37 37 38 c20 20 39 37 43 37 4 0 17 -12 29
-27z m-140 -38 c0 -6 -17 -28 -39 -49 l-38 -38 -23 32 -22 32 38 39 38 39 23
-22 c13 -12 23 -27 23 -33z m-254 -60 l27 -36 -38 -39 c-21 -22 -42 -37 -47
-34 -19 12 5 144 26 144 3 0 17 -16 32 -35z m355 -52 c41 -48 91 -105 111
-127 21 -23 38 -45 38 -51 0 -13 -72 -85 -85 -85 -7 0 -54 53 -105 118 -52 64
-101 125 -109 135 -13 16 -11 21 24 57 22 22 42 40 46 40 4 0 40 -39 80 -87z
m-201 26 c7 -12 1 -24 -21 -45 l-29 -28 -27 27 -27 27 34 35 c37 38 41 37 70
-16z m-83 -58 l22 -28 -30 -29 -30 -29 -19 25 c-25 32 -25 39 2 67 27 29 30
29 55 -6z m140 -18 c15 -21 36 -47 46 -58 10 -11 27 -32 37 -46 19 -26 19 -26
-10 -54 l-29 -28 -28 33 c-46 54 -47 59 -21 88 l23 27 -28 -25 -28 -24 -24 29
c-13 17 -24 34 -25 39 0 12 40 56 51 56 4 0 21 -17 36 -37z m-214 -55 c25 -45
5 -59 -22 -15 -24 40 -26 47 -8 47 6 0 20 -14 30 -32z m134 0 c31 -29 29 -38
-11 -70 l-35 -28 -22 31 -21 30 28 30 c15 16 30 29 33 29 2 0 15 -10 28 -22z
m505 -39 c7 -42 -2 -80 -19 -86 -8 -3 -28 7 -44 23 l-30 28 38 33 c21 18 41
32 44 33 4 0 9 -14 11 -31z m-584 -38 c12 -17 18 -32 13 -36 -9 -5 -51 44 -51
59 0 15 18 4 38 -23z m156 -16 l37 -44 -33 -30 c-18 -17 -36 -31 -39 -31 -4 0
-23 20 -42 43 l-36 44 32 31 c17 18 35 32 38 32 4 0 23 -20 43 -45z m151 -32
c19 -21 35 -42 35 -47 0 -14 -41 -56 -54 -56 -6 0 -26 21 -45 46 l-34 45 23
24 c13 14 27 25 32 25 4 0 23 -17 43 -37z m200 3 c17 -13 28 -26 25 -28 -3 -2
-28 -22 -57 -46 -28 -23 -53 -42 -55 -42 -3 0 -14 13 -26 30 l-22 29 42 40
c24 22 48 41 53 41 6 0 24 -11 40 -24z m-437 -45 c35 -43 40 -61 17 -61 -12 0
-65 75 -65 93 0 17 19 4 48 -32z m167 -27 l38 -45 -34 -36 -34 -35 -43 49 -43
48 37 33 c21 17 38 32 39 32 2 0 19 -21 40 -46z m298 -10 c-9 -15 -44 -45 -77
-66 -106 -68 -97 -43 19 53 71 59 91 63 58 13z m-165 -88 c-26 -23 -64 -48
-84 -55 -33 -12 -38 -11 -57 8 -12 11 -19 22 -16 23 2 2 19 16 36 32 32 29 33
29 54 10 22 -19 22 -19 8 3 -12 20 -11 25 16 53 l29 30 31 -31 30 -30 -47 -43z
m-214 22 l36 -42 -27 -29 c-27 -29 -15 -29 19 1 14 12 20 12 33 2 22 -18 18
-30 -24 -77 -45 -50 -58 -44 -67 27 -3 23 -12 63 -20 87 -28 81 -4 95 50 31z
m-1314 -209 c12 -16 21 -31 19 -32 -2 -2 -21 -15 -41 -30 -20 -15 -41 -27 -47
-27 -6 0 -11 -4 -11 -9 0 -5 -16 -19 -36 -31 l-35 -22 -30 28 c-16 16 -28 34
-27 40 2 7 32 35 67 63 77 61 109 66 141 20z m-155 -5 c-47 -41 -73 -56 -85
-49 -20 13 -9 26 43 50 67 32 79 31 42 -1z m235 18 c0 -4 -10 -13 -21 -21 -19
-11 -24 -10 -43 8 l-20 21 42 0 c23 0 42 -3 42 -8z m62 -36 c25 -31 26 -35 10
-48 -49 -40 -48 -40 -77 -2 l-28 37 27 24 c15 12 30 23 34 23 4 0 19 -15 34
-34z m57 -12 c-9 -11 -15 -10 -35 4 -33 24 -29 32 11 19 27 -8 32 -13 24 -23z
m108 -15 c36 -13 35 -26 -2 -55 l-36 -27 -36 36 c-31 31 -35 38 -23 52 13 16
44 14 97 -6z m-554 -6 c8 -7 -31 -53 -45 -53 -5 0 -2 14 7 30 15 30 26 36 38
23z m316 -28 c13 -20 22 -37 20 -39 -2 -1 -20 -15 -40 -29 l-35 -27 -34 35
c-33 34 -34 36 -15 49 11 8 29 21 40 30 29 22 37 20 64 -19z m391 -5 c-31 -43
-39 -45 -69 -16 -22 23 -24 28 -11 36 8 5 34 10 58 10 l43 0 -21 -30z m-243
-12 c18 -18 33 -36 33 -40 0 -9 -51 -57 -61 -58 -3 0 -21 19 -39 42 l-33 41
29 24 c16 12 31 23 34 23 2 0 19 -14 37 -32z m-411 -28 l27 -40 -24 -20 c-13
-10 -29 -19 -35 -20 -11 0 -80 68 -73 73 8 6 74 47 76 47 2 0 15 -18 29 -40z
m565 -44 l-31 -31 -27 28 -28 28 33 30 34 30 25 -27 25 -27 -31 -31z m118 5
l1 -35 -30 29 -30 29 22 23 c21 22 23 23 29 6 4 -10 8 -33 8 -52z m-515 15
l26 -35 -33 -25 c-19 -14 -38 -26 -43 -26 -5 0 -21 15 -36 34 l-27 34 37 26
c20 14 40 26 43 26 4 0 18 -15 33 -34z m167 -17 l33 -42 -34 -28 c-19 -16 -37
-29 -40 -28 -3 0 -21 19 -40 41 l-34 40 34 29 c19 16 38 29 42 29 3 0 21 -19
39 -41z m-408 -23 l26 -33 -24 -23 c-14 -13 -27 -21 -30 -18 -3 3 -8 28 -12
57 -7 60 4 65 40 17z m564 12 c30 -28 28 -38 -8 -67 l-30 -24 -30 29 -30 29
33 27 c18 15 35 28 37 28 3 0 15 -10 28 -22z m160 -10 l33 -32 -27 -28 c-15
-15 -32 -28 -38 -28 -6 0 -26 15 -44 34 l-32 33 33 27 c18 14 35 26 38 26 2 0
19 -14 37 -32z m-574 -33 l27 -33 -29 -21 -29 -21 -32 31 -31 32 22 23 c29 31
38 30 72 -11z m173 -21 l33 -40 -36 -28 -35 -29 -42 42 -41 42 35 29 c19 16
39 28 44 27 5 -2 24 -21 42 -43z m164 -9 l24 -25 -29 -30 c-34 -36 -42 -37
-72 -8 -29 27 -29 34 5 63 34 31 43 31 72 0z m159 -8 l32 -34 -36 -28 -37 -27
-35 33 -34 34 32 28 c18 15 36 27 39 27 3 0 21 -15 39 -33z m-574 -14 c31 -35
31 -39 -1 -60 -26 -17 -27 -16 -50 10 -13 15 -26 27 -30 27 -4 0 5 -13 20 -29
27 -28 28 -51 2 -51 -10 0 -36 52 -36 73 0 9 53 57 63 57 4 0 19 -12 32 -27z
m680 -30 c-6 -34 -7 -34 -26 -17 -25 22 -24 32 4 54 26 22 32 12 22 -37z
m-450 -78 l117 -115 -24 -20 c-12 -11 -27 -19 -33 -20 -5 0 -39 29 -74 65
l-65 65 25 26 24 27 -32 -19 -33 -18 -40 39 -41 40 28 22 c15 13 29 23 29 23
1 0 55 -52 119 -115z m97 58 c27 -26 27 -27 10 -46 -17 -19 -16 -19 6 -6 21
13 25 12 52 -21 l30 -35 -26 -22 c-14 -13 -28 -23 -32 -23 -4 0 -38 29 -77 64
l-69 63 29 26 c38 33 43 33 77 0z m160 0 c15 -15 28 -30 28 -34 0 -5 -16 -20
-35 -35 l-36 -27 -35 34 -35 34 33 27 c41 34 45 34 80 1z m161 -8 c32 -29 35
-65 7 -90 -20 -18 -21 -18 -60 20 l-40 39 27 28 c15 15 29 28 32 28 3 0 18
-12 34 -25z m-559 -34 l38 -38 -30 -21 -29 -21 -42 43 -42 43 23 16 c33 23 40
21 82 -22z m-71 -49 c37 -38 37 -39 17 -57 -23 -21 -37 -13 -71 42 -18 29 -19
37 -8 44 21 13 22 12 62 -29z m559 1 l36 -38 -38 -27 -38 -26 -37 38 -36 37
33 27 c18 14 35 26 38 26 3 0 22 -17 42 -37z m-372 -63 l65 -60 -55 0 c-52 0
-59 3 -95 41 l-40 40 24 20 c13 10 26 19 30 19 3 -1 35 -28 71 -60z m470 30
c0 -5 -4 -10 -10 -10 -5 0 -10 5 -10 10 0 6 5 10 10 10 6 0 10 -4 10 -10z
m-150 -81 c0 -19 -87 -9 -115 13 l-28 22 28 22 28 23 44 -36 c24 -19 43 -39
43 -44z m-416 22 l38 -39 -36 -4 c-30 -3 -41 1 -63 24 -26 27 -26 28 -7 43 26
20 25 20 68 -24z m548 22 c33 -30 23 -43 -37 -43 -30 0 -55 2 -55 5 0 9 54 54
64 55 5 0 18 -7 28 -17z m-272 -38 c11 -13 7 -15 -26 -15 -36 1 -38 2 -20 15
25 19 31 19 46 0z m2352 -50 c105 -6 134 -18 148 -61 15 -44 -7 -85 -63 -118
-56 -33 -106 -40 -197 -27 -41 6 -228 20 -415 32 -310 18 -401 20 -1025 14
-377 -4 -737 -11 -800 -16 -275 -23 -326 -23 -375 1 -58 28 -70 63 -33 95 41
35 140 43 648 55 261 6 536 15 611 20 75 5 295 9 489 10 195 0 356 3 359 5 5
5 515 -3 653 -10z m-482 -240 c408 -23 494 -37 524 -87 18 -30 -20 -56 -148
-97 -213 -69 -403 -85 -802 -66 -251 12 -488 20 -1299 39 -147 3 -182 8 -258
30 -156 46 -205 83 -174 130 28 42 76 49 352 56 554 13 1531 10 1805 -5z"/>
<path d="M2280 3086 c-18 -22 -5 -48 22 -44 17 2 23 10 23 28 0 29 -26 38 -45
16z"/>
<path d="M2159 2881 c-20 -16 -21 -21 -10 -35 7 -9 19 -16 26 -16 20 0 46 36
39 54 -8 21 -26 20 -55 -3z"/>
<path d="M2046 2691 c-38 -42 17 -93 57 -53 19 20 19 22 3 46 -20 31 -37 33
-60 7z"/>
<path d="M2066 2514 c-28 -27 -16 -74 18 -74 28 0 46 18 46 45 0 41 -36 58
-64 29z"/>
<path d="M2145 2279 c-15 -28 -15 -33 -1 -55 21 -30 57 -39 93 -22 33 16 41
49 19 84 -13 19 -25 24 -56 24 -34 0 -42 -4 -55 -31z"/>
<path d="M2050 3896 c0 -2 8 -10 18 -17 15 -13 16 -12 3 4 -13 16 -21 21 -21
13z"/>
<path d="M1571 3617 c-99 -50 -108 -163 -18 -217 41 -25 73 -25 114 0 44 27
65 63 65 111 -1 48 -21 83 -65 109 -40 25 -42 25 -96 -3z m84 -52 c49 -48 23
-123 -47 -140 -22 -6 -33 -1 -59 24 -26 27 -30 37 -25 63 15 73 84 101 131 53z"/>
<path d="M1523 3238 c-28 -13 -37 -39 -28 -78 17 -79 125 -55 125 28 0 50 -47
74 -97 50z m57 -33 c6 -8 9 -23 5 -34 -11 -36 -58 -37 -68 -2 -11 42 36 69 63
36z"/>
<path d="M1495 2895 c-29 -28 -31 -42 -9 -73 17 -25 71 -31 92 -10 19 19 14
63 -11 86 -30 28 -42 28 -72 -3z m63 -31 c4 -25 -20 -47 -42 -38 -10 4 -16 18
-16 36 0 26 3 29 28 26 18 -2 28 -9 30 -24z"/>
<path d="M2729 2703 c-13 -16 -12 -17 4 -4 16 13 21 21 13 21 -2 0 -10 -8 -17
-17z"/>
<path d="M2784 2588 l-29 -33 33 29 c17 17 32 31 32 33 0 8 -8 1 -36 -29z"/>
<path d="M1200 2085 c13 -14 26 -25 28 -25 3 0 -5 11 -18 25 -13 14 -26 25
-28 25 -3 0 5 -11 18 -25z"/>
</g>
</svg>
