<?xml version="1.0" standalone="no"?>
<!DOCTYPE svg PUBLIC "-//W3C//DTD SVG 20010904//EN"
 "http://www.w3.org/TR/2001/REC-SVG-20010904/DTD/svg10.dtd">
<svg version="1.0" xmlns="http://www.w3.org/2000/svg"
 width="512.000000pt" height="512.000000pt" viewBox="0 0 512.000000 512.000000"
 preserveAspectRatio="xMidYMid meet">
<metadata>
Created by potrace 1.16, written by Peter Selinger 2001-2019
</metadata>
<g transform="translate(0.000000,512.000000) scale(0.100000,-0.100000)"
fill="#f2f2f2" stroke="none">
<path d="M2595 4073 c-100 -12 -164 -27 -194 -44 -34 -20 -36 -20 -90 -2 -49
16 -91 18 -331 18 l-275 0 -130 -38 c-237 -69 -363 -146 -461 -284 -55 -76
-83 -146 -87 -214 -2 -45 -7 -55 -51 -101 l-49 -51 6 -58 c3 -33 14 -75 25
-94 l21 -34 -29 -31 c-65 -69 -99 -216 -107 -456 -11 -342 41 -658 149 -909
89 -208 312 -447 527 -565 78 -43 79 -44 74 -79 -4 -27 1 -43 17 -64 32 -40
64 -53 176 -71 114 -18 461 -21 554 -5 30 5 352 14 715 19 363 5 718 13 789
18 l128 8 58 60 c48 49 62 72 79 128 48 155 100 475 108 668 5 118 4 129 -16
163 l-22 37 30 47 c59 91 62 109 74 361 10 211 9 246 -6 326 -22 111 -66 204
-127 264 l-46 47 18 40 c30 70 39 170 28 327 -18 255 -66 365 -196 454 -71 48
-257 87 -490 102 -157 10 -255 1 -285 -26 -16 -14 -23 -15 -45 -5 -56 25 -254
51 -382 50 -70 -1 -140 -4 -157 -6z m325 -63 c107 -14 191 -35 201 -52 5 -7 9
-28 9 -47 l0 -33 -107 8 c-60 5 -227 7 -372 5 l-264 -3 7 32 c3 18 11 39 17
46 35 42 324 66 509 44z m580 -20 c233 -21 383 -60 448 -116 24 -20 53 -57 67
-83 25 -50 53 -143 53 -176 -1 -11 5 -70 12 -131 11 -96 11 -120 -3 -180 -23
-103 -44 -147 -65 -138 -9 4 -104 9 -209 12 -106 2 -193 5 -193 7 0 2 12 26
26 54 69 133 23 369 -97 491 -74 76 -128 106 -216 119 -142 22 -133 18 -133
62 0 29 7 47 25 64 21 22 33 25 97 25 40 0 125 -5 188 -10z m-1260 -10 c97
-16 102 -18 98 -48 -3 -24 -8 -27 -43 -29 -286 -17 -568 -50 -610 -71 -47 -24
-127 -88 -156 -124 -36 -45 -59 -92 -83 -168 l-21 -65 -170 0 -170 0 2 40 c4
66 58 161 137 240 56 57 89 81 159 114 75 36 278 97 377 114 53 9 418 6 480
-3z m-28 -150 c0 -16 1 -35 2 -41 1 -6 -19 -12 -46 -13 l-48 -2 0 37 c0 36 2
38 38 42 20 2 40 4 45 5 4 1 8 -11 9 -28z m128 -18 l0 -43 -52 3 c-50 3 -53 5
-56 31 -6 48 2 56 57 54 l51 -2 0 -43z m142 -1 l-4 -41 -54 0 -54 0 0 39 0 40
53 3 c28 2 54 2 57 1 3 -1 4 -20 2 -42z m110 8 c2 -22 2 -42 -1 -45 -2 -2 -24
-4 -48 -4 l-43 0 0 38 c0 48 4 52 51 52 36 0 37 -1 41 -41z m-504 -11 c3 -38
3 -38 -36 -38 -21 0 -66 -3 -99 -6 -58 -6 -60 -6 -65 17 -3 13 -9 32 -13 42
-6 15 -1 17 41 17 45 0 50 -3 62 -30 19 -42 34 -38 26 6 l-6 35 43 -3 c43 -3
44 -4 47 -40z m642 7 c0 -35 -1 -35 -45 -36 -25 -1 -50 -2 -56 -3 -6 -1 -13
16 -15 37 l-3 37 59 0 60 0 0 -35z m130 0 l0 -35 -49 0 c-48 0 -49 0 -53 35
l-4 35 53 0 53 0 0 -35z m114 13 c11 -44 8 -48 -44 -48 l-50 0 0 35 c0 35 0
35 44 35 37 0 45 -4 50 -22z m124 8 c1 -2 0 -15 -4 -30 -5 -23 -11 -26 -51
-26 -42 0 -45 2 -39 23 3 12 6 28 6 36 0 10 10 12 42 7 23 -4 44 -8 46 -10z
m-1246 -40 l26 -44 -26 -5 c-15 -2 -34 -7 -42 -11 -15 -6 -19 -1 -58 86 -2 4
12 8 30 11 18 2 35 5 38 5 3 1 17 -18 32 -42z m1373 27 c-4 -10 -10 -26 -12
-35 -4 -14 -16 -18 -52 -18 -26 0 -50 3 -54 6 -3 4 0 19 9 35 13 26 19 29 65
29 45 0 50 -2 44 -17z m118 1 c3 -3 -3 -23 -14 -44 -19 -37 -20 -37 -59 -26
-44 11 -48 20 -24 54 11 16 25 22 53 22 21 0 40 -3 44 -6z m-1591 -75 l27 -26
-43 -36 c-59 -49 -112 -131 -132 -206 -15 -53 -16 -73 -7 -128 7 -36 22 -87
35 -113 l24 -48 -35 -28 -34 -28 -37 42 c-21 23 -44 56 -53 74 l-16 33 47 24
c54 28 43 40 -14 16 -20 -8 -38 -14 -39 -13 -6 8 -12 75 -8 86 3 7 21 12 43
12 21 0 42 5 45 10 4 6 -12 10 -39 10 -48 0 -50 3 -37 50 6 21 13 25 47 25 53
0 60 19 7 23 l-42 3 11 32 c5 18 12 38 14 45 2 9 15 5 45 -14 28 -17 45 -22
51 -16 7 7 0 17 -23 31 -19 12 -40 21 -46 21 -7 0 -13 3 -13 7 0 5 36 57 58
83 2 3 11 -4 20 -15 19 -23 62 -55 74 -55 17 0 7 21 -27 59 -19 21 -35 41 -35
44 0 3 19 17 43 31 39 24 43 25 52 9 6 -10 22 -29 37 -44z m1707 13 l33 -25
-38 -32 -39 -33 -41 30 -42 30 26 38 c28 43 33 43 101 -8z m76 -82 c15 -22 26
-42 24 -44 -2 -2 -23 -13 -46 -23 l-41 -20 -20 27 -20 27 36 36 c20 21 37 37
38 37 1 0 14 -18 29 -40z m-563 21 c251 -8 259 -9 313 -35 93 -46 164 -155
165 -252 0 -121 -48 -189 -241 -345 -170 -137 -234 -198 -319 -305 -54 -67
-60 -80 -60 -121 0 -70 54 -152 152 -233 108 -89 325 -323 370 -400 47 -80 61
-148 56 -269 -5 -108 -19 -149 -74 -205 -43 -44 -72 -57 -200 -87 -97 -24
-108 -24 -589 -24 -476 0 -493 1 -580 23 -103 26 -154 57 -197 120 -62 90 -62
290 2 417 46 93 240 307 384 423 37 31 88 80 112 110 37 46 44 61 44 98 0 25
-9 62 -20 83 -35 70 -213 244 -378 370 -120 91 -166 133 -193 175 -86 130 -74
251 34 365 73 76 102 84 342 91 316 10 592 10 877 1z m617 -122 c17 -50 15
-54 -35 -53 -33 1 -50 6 -57 19 -7 13 -6 20 4 26 8 4 23 15 34 23 30 23 42 19
54 -15z m27 -104 c9 -49 8 -50 -36 -46 -55 4 -51 -15 5 -23 43 -7 45 -9 45
-41 0 -59 -6 -65 -48 -44 -20 11 -41 19 -47 19 -6 0 -10 32 -10 80 l-1 79 31
4 c16 2 35 5 42 5 7 1 15 -14 19 -33z m-2210 -45 c23 -9 26 -14 21 -45 -5 -28
5 -79 29 -156 5 -13 -10 -16 -108 -20 -273 -10 -318 -3 -337 53 -18 50 -13 72
22 105 48 46 71 54 171 63 137 11 172 11 202 0z m2204 -155 c0 -12 -83 -130
-98 -139 -5 -3 -20 6 -32 19 -23 25 -23 26 -7 61 16 34 18 34 39 20 12 -9 31
-16 42 -16 18 0 18 1 1 20 -10 11 -26 22 -36 25 -15 5 -16 10 -8 35 l11 29 44
-22 c24 -11 44 -26 44 -32z m-1919 -128 c16 -21 15 -24 -11 -55 l-26 -32 -24
25 -24 25 29 30 c34 36 35 36 56 7z m-116 -58 c39 -39 129 -122 201 -184 162
-141 244 -230 244 -267 0 -18 -12 -37 -37 -60 -119 -108 -154 -143 -232 -233
-273 -316 -343 -583 -220 -832 58 -118 113 -175 213 -222 44 -22 107 -45 139
-51 31 -6 57 -13 57 -14 0 -1 -57 -2 -127 -2 -87 1 -138 -3 -160 -13 -41 -17
-43 -16 -226 142 -148 128 -249 239 -309 339 -50 82 -112 243 -143 370 -55
232 -81 603 -55 793 24 172 87 284 161 286 19 1 95 5 169 8 74 4 162 8 195 9
l61 2 69 -71z m1914 23 c5 -3 -40 -52 -48 -52 -4 0 -14 12 -23 27 -14 24 -15
29 -1 50 l16 24 26 -23 c14 -13 28 -24 30 -26z m-1736 -27 c29 -26 29 -33 -8
-79 -15 -19 -16 -19 -44 8 l-30 28 22 34 c12 19 24 34 27 34 3 -1 18 -12 33
-25z m2212 9 c78 -20 113 -41 152 -92 79 -104 99 -222 84 -513 -10 -214 -10
-214 -43 -279 -32 -62 -35 -65 -66 -62 -19 2 -44 -4 -58 -13 -16 -10 -35 -14
-57 -10 -23 4 -45 -1 -79 -18 -29 -14 -52 -21 -60 -16 -21 14 -96 10 -126 -5
-15 -8 -36 -23 -46 -35 -13 -14 -31 -21 -57 -21 -35 0 -39 3 -69 58 -86 152
-248 347 -359 434 -85 66 -101 84 -101 117 0 39 67 112 249 271 84 74 165 149
180 167 l26 32 185 0 c138 1 201 -3 245 -15z m-564 -16 c24 -30 24 -37 -8 -70
l-26 -28 -24 35 -24 35 28 25 c15 13 30 25 31 25 2 0 12 -10 23 -22z m-1565
-63 l32 -25 -21 -42 c-12 -24 -23 -45 -25 -47 -1 -3 -18 10 -37 29 l-34 33 22
38 c12 22 24 39 26 39 2 0 19 -11 37 -25z m1491 -20 l22 -34 -30 -26 c-17 -14
-34 -25 -38 -25 -4 0 -15 17 -25 37 l-18 37 27 23 c14 13 29 23 33 23 4 -1 17
-16 29 -35z m-1305 -134 c32 -29 85 -89 118 -133 85 -113 84 -129 -17 -222
-120 -110 -329 -324 -380 -391 -55 -73 -76 -118 -98 -220 -22 -98 -16 -216 16
-300 21 -57 105 -157 153 -182 18 -10 18 -12 1 -57 -10 -25 -19 -46 -21 -46
-11 0 -84 33 -84 38 0 3 6 13 14 21 8 9 17 30 21 46 6 29 5 28 -19 -10 -14
-22 -26 -44 -26 -48 0 -15 -39 13 -61 44 l-21 31 33 34 c18 18 30 36 27 39 -6
6 -58 -44 -58 -56 0 -5 -3 -9 -7 -9 -9 0 -63 83 -63 97 0 5 16 15 35 22 19 7
35 16 35 21 0 5 -16 2 -35 -6 -19 -7 -36 -14 -39 -14 -5 0 -36 88 -36 102 0 4
8 8 18 8 9 1 31 7 47 16 30 14 29 14 -23 9 l-53 -4 3 57 3 57 38 3 c48 4 49
22 1 22 l-36 0 7 48 c7 52 58 172 73 172 5 0 15 -7 22 -15 14 -16 40 -20 40
-6 0 5 -12 18 -26 28 l-26 19 42 70 c61 100 57 97 91 72 38 -28 49 -15 17 20
l-26 27 33 40 34 40 30 -30 c17 -16 31 -25 31 -21 0 4 -12 18 -27 32 l-26 24
23 25 22 24 39 -31 c22 -17 42 -28 46 -24 5 5 -3 16 -16 25 -68 45 -68 45 -28
75 l35 27 27 -27 c14 -14 29 -23 33 -19 4 4 -6 17 -23 30 -16 13 -27 26 -25
28 3 2 19 13 35 24 l30 21 28 -24 c16 -13 36 -24 45 -24 13 1 9 7 -13 25 -16
14 -33 25 -37 25 -17 0 -7 19 18 35 25 16 29 16 61 1 38 -18 61 -13 42 10 -6
8 -24 14 -39 14 -33 0 -39 6 -33 29 3 13 17 20 45 24 70 9 70 27 1 27 -72 0
-82 12 -44 55 l26 30 -31 -28 -30 -27 -29 30 -29 30 27 28 c40 42 33 62 -8 22
l-35 -34 -21 20 -20 21 20 34 c31 51 25 59 -13 17 l-33 -38 -26 28 -26 27 22
46 22 46 40 -31 c21 -17 65 -55 97 -85z m1210 60 l26 -40 -22 -20 c-22 -21
-46 -28 -46 -13 0 4 -11 20 -25 35 l-26 27 28 25 c15 13 31 25 34 25 3 0 17
-18 31 -39z m-79 -65 c24 -44 25 -45 6 -62 -18 -17 -21 -16 -47 9 -32 30 -42
33 -42 13 0 -8 12 -24 27 -35 l26 -21 -23 -25 c-29 -31 -41 -31 -70 0 -13 14
-26 23 -28 20 -3 -3 7 -18 23 -35 38 -40 24 -56 -44 -52 l-51 4 16 30 c13 25
170 198 180 198 1 0 13 -20 27 -44z m-152 -216 c42 0 41 -35 -1 -44 -29 -5
-49 -30 -36 -43 3 -4 22 1 42 10 34 17 37 16 59 -1 l23 -18 -35 -28 -35 -28
-35 33 c-37 36 -63 84 -63 118 0 18 3 19 26 11 14 -6 39 -10 55 -10z m228
-213 c11 -13 7 -19 -26 -40 l-38 -24 -61 54 -62 55 31 28 31 28 56 -43 c31
-24 62 -50 69 -58z m46 -57 c18 -20 18 -21 -10 -50 l-29 -30 -25 24 -24 24 29
26 c35 31 36 31 59 6z m75 -135 c-29 -31 -20 -42 14 -19 15 9 28 15 30 13 32
-43 48 -73 39 -76 -5 -2 -18 -9 -28 -16 -15 -12 -24 -6 -74 47 -87 94 -85 89
-54 123 l27 29 34 -38 35 -39 -23 -24z m140 -160 c-1 -5 -11 -18 -24 -27 -24
-17 -25 -17 -44 16 l-20 34 22 21 21 22 22 -28 c13 -15 23 -32 23 -38z m635 9
c28 -11 47 -75 52 -175 5 -79 1 -118 -20 -220 -15 -68 -31 -162 -37 -207 -14
-108 -55 -247 -85 -294 -63 -95 -136 -116 -435 -123 -191 -5 -1275 -25 -1580
-29 -196 -3 -330 16 -365 51 -15 14 -14 18 11 44 49 51 66 52 484 46 226 -3
463 -1 574 5 134 7 293 7 540 0 450 -14 522 -3 582 87 45 68 55 119 109 566
15 126 39 190 85 228 32 27 54 32 85 21z m-170 -24 c3 -5 -2 -24 -11 -41 -10
-21 -22 -87 -30 -178 -8 -80 -16 -152 -19 -161 -2 -8 -9 -60 -15 -115 -12
-116 -40 -218 -73 -266 -12 -18 -42 -47 -66 -64 -42 -29 -45 -30 -154 -28 -62
1 -139 4 -172 6 -33 3 -107 6 -165 7 l-105 2 60 13 c33 8 83 22 110 33 30 11
90 22 149 26 145 10 181 21 237 75 66 64 78 110 93 361 10 175 15 211 34 246
35 68 107 116 127 84z m-424 -59 l18 -40 -35 -11 c-20 -7 -36 -10 -37 -8 -13
20 -25 74 -18 76 4 1 17 9 27 17 22 16 22 16 45 -34z m269 35 c0 -2 -12 -27
-26 -55 -26 -49 -27 -57 -30 -253 -4 -242 -14 -288 -74 -342 -52 -47 -75 -55
-169 -62 l-76 -6 46 48 c121 128 154 213 168 431 7 105 12 128 35 167 31 53
60 76 98 76 16 0 28 -2 28 -4z m-223 -161 c5 -37 3 -46 -8 -45 -8 1 -25 2 -39
1 -20 -1 -22 -3 -10 -11 8 -5 28 -10 43 -10 28 0 28 -1 25 -52 l-3 -53 -42 0
-43 -1 -1 61 c0 33 -3 78 -7 100 -7 38 -6 41 28 61 41 24 47 19 57 -51z m-4
-204 c4 -4 0 -30 -8 -59 l-16 -51 -35 17 c-32 15 -35 20 -30 45 3 16 6 38 6
49 0 16 5 18 38 12 20 -3 40 -9 45 -13z m-65 -109 l40 -18 -31 -54 c-25 -44
-32 -50 -38 -34 -3 10 -16 27 -27 37 -20 18 -20 20 -4 53 9 18 18 34 18 34 1
0 20 -8 42 -18z m-59 -103 c21 -28 21 -32 7 -54 -9 -13 -25 -29 -35 -35 -16
-8 -22 -4 -41 27 l-21 36 27 28 c15 16 31 29 34 29 3 0 16 -14 29 -31z m-92
-56 c3 -10 12 -25 19 -34 12 -13 8 -18 -31 -37 l-46 -22 -8 23 c-4 12 -10 29
-13 37 -3 9 6 21 26 32 39 22 45 22 53 1z m-1457 -24 c19 -5 42 -12 50 -14 83
-20 110 -25 138 -25 31 0 32 -1 32 -46 l0 -46 -31 6 c-17 3 -38 6 -45 6 -9 0
-15 12 -15 33 -2 27 -2 28 -6 7 -7 -37 -15 -41 -61 -34 -36 6 -40 9 -32 25 6
10 10 28 9 41 -1 17 -5 12 -13 -17 -12 -36 -16 -40 -41 -37 -16 2 -39 8 -52
13 -19 7 -21 12 -13 26 5 10 14 30 20 46 11 31 12 31 60 16z m1372 -34 c19
-42 14 -47 -72 -63 -107 -21 -114 -20 -121 13 l-7 30 -1 -32 c-1 -32 -2 -33
-46 -33 -45 0 -45 0 -45 35 0 32 3 34 38 40 20 3 59 10 85 14 41 7 49 6 54 -8
15 -50 22 -55 20 -17 -2 34 1 41 23 47 46 13 56 9 72 -26z m-1045 -61 l11 -46
-37 6 c-20 3 -42 6 -48 6 -8 0 -13 15 -13 40 0 40 0 40 38 40 38 0 39 -1 49
-46z m161 36 c32 0 32 0 32 -49 l0 -48 -32 6 c-29 6 -33 11 -36 44 -4 46 -22
39 -22 -9 0 -36 -10 -41 -57 -28 -20 5 -23 13 -23 52 l0 45 53 -7 c28 -3 67
-6 85 -6z m269 -45 l0 -55 -48 0 -49 0 0 55 0 55 49 0 48 0 0 -55z m193 11 c0
-41 -2 -44 -31 -50 -40 -8 -49 -1 -49 35 0 16 -4 29 -10 29 -5 0 -10 -16 -10
-35 0 -33 -2 -35 -33 -35 l-33 0 0 50 1 50 83 0 82 0 0 -44z m110 5 c0 -38 -1
-39 -42 -43 -24 -3 -45 -4 -46 -2 -2 1 -1 21 3 43 7 40 8 41 46 41 39 0 39 0
39 -39z m-420 -21 l0 -50 -48 0 -48 0 0 50 1 50 48 0 47 0 0 -50z"/>
<path d="M1543 3245 c-22 -19 -24 -24 -11 -25 27 0 68 22 68 37 0 21 -26 15
-57 -12z"/>
<path d="M1926 3311 c-3 -4 30 -27 72 -50 115 -62 180 -118 282 -240 95 -115
138 -155 207 -190 54 -27 73 -27 131 4 57 30 112 79 183 165 118 144 175 194
302 264 124 69 69 79 -68 12 -103 -50 -170 -106 -246 -204 -107 -137 -184
-202 -239 -202 -56 0 -141 74 -272 237 -61 76 -153 144 -252 188 -59 26 -91
31 -100 16z"/>
<path d="M2494 2225 c-42 -22 -127 -95 -171 -147 -20 -24 -71 -95 -114 -159
-86 -129 -157 -198 -236 -231 -29 -12 -53 -25 -53 -30 0 -17 58 -7 115 21 79
37 144 102 234 233 74 109 193 233 252 263 31 17 32 16 85 -21 74 -50 134
-118 233 -263 91 -132 139 -181 216 -217 50 -24 125 -32 125 -14 0 5 -21 21
-47 34 -87 44 -149 105 -236 230 -107 153 -153 205 -233 262 -73 52 -122 63
-170 39z"/>
<path d="M2533 1860 c-83 -19 -126 -77 -121 -161 5 -71 32 -109 100 -143 126
-63 261 -10 284 112 13 66 -33 154 -97 187 -30 16 -112 18 -166 5z m131 -90
c40 -35 52 -72 36 -111 -24 -58 -118 -63 -172 -9 -44 45 -34 103 24 135 39 22
75 17 112 -15z"/>
<path d="M1236 3049 c-21 -16 -26 -29 -26 -63 0 -73 64 -112 130 -79 39 20 52
53 37 96 -21 62 -91 85 -141 46z m92 -55 c2 -11 -4 -26 -12 -33 -31 -26 -71
14 -45 45 17 21 53 14 57 -12z"/>
<path d="M1368 2785 c-35 -19 -75 -88 -84 -142 -13 -81 38 -176 109 -202 80
-31 201 12 239 84 36 65 22 159 -31 209 -50 48 -186 78 -233 51z m159 -62 c30
-20 53 -69 53 -114 0 -75 -127 -137 -188 -92 -40 30 -56 80 -42 133 17 62 49
90 105 90 26 0 57 -7 72 -17z"/>
<path d="M1249 2323 c-34 -38 -41 -62 -29 -97 22 -67 85 -94 133 -56 23 18 27
29 27 70 0 61 -22 89 -75 97 -31 4 -44 1 -56 -14z m69 -35 c17 -17 15 -77 -2
-84 -41 -16 -80 44 -50 77 20 22 35 24 52 7z"/>
<path d="M3717 3049 c-21 -12 -47 -61 -47 -89 0 -11 11 -32 25 -45 46 -47 126
-27 148 37 9 24 -11 86 -31 96 -25 12 -74 13 -95 1z m71 -70 c3 -28 -16 -43
-42 -33 -38 14 -27 67 13 62 20 -2 27 -9 29 -29z"/>
<path d="M3515 2771 c-146 -66 -150 -260 -7 -323 63 -28 161 -22 198 12 86 81
84 228 -5 303 -27 22 -42 27 -89 27 -34 0 -74 -8 -97 -19z m129 -45 c58 -24
85 -121 51 -185 -17 -34 -33 -41 -86 -41 -78 0 -129 46 -129 115 1 49 17 80
56 106 34 22 63 24 108 5z"/>
<path d="M3735 2331 c-33 -14 -56 -47 -62 -88 -11 -86 85 -129 141 -62 36 42
35 88 -3 128 -30 32 -42 35 -76 22z m65 -86 c0 -29 -23 -47 -52 -43 -33 4 -38
60 -7 82 21 14 24 14 41 -1 10 -9 18 -26 18 -38z"/>
<path d="M1650 2147 c0 -12 59 -57 64 -48 8 12 -32 51 -51 51 -7 0 -13 -1 -13
-3z"/>
<path d="M1554 1941 c8 -12 66 -32 66 -22 0 8 -44 31 -61 31 -6 0 -8 -4 -5 -9z"/>
<path d="M3130 2445 c-13 -14 -19 -25 -14 -25 10 0 54 37 54 45 0 12 -19 3
-40 -20z"/>
</g>
</svg>
