<?xml version="1.0" standalone="no"?>
<!DOCTYPE svg PUBLIC "-//W3C//DTD SVG 20010904//EN"
 "http://www.w3.org/TR/2001/REC-SVG-20010904/DTD/svg10.dtd">
<svg version="1.0" xmlns="http://www.w3.org/2000/svg"
 width="512.000000pt" height="512.000000pt" viewBox="0 0 512.000000 512.000000"
 preserveAspectRatio="xMidYMid meet">
<metadata>
Created by potrace 1.16, written by Peter Selinger 2001-2019
</metadata>
<g transform="translate(0.000000,512.000000) scale(0.100000,-0.100000)"
fill="#f2f2f2" stroke="none">
<path d="M1650 4164 c-129 -14 -250 -46 -356 -94 -94 -42 -220 -127 -265 -178
-44 -50 -92 -138 -103 -187 -16 -74 36 -212 112 -296 l43 -48 -37 -48 c-47
-61 -154 -283 -188 -390 -48 -154 -64 -342 -46 -563 13 -178 28 -239 85 -356
33 -68 55 -101 86 -125 l42 -33 -25 -20 c-38 -31 -47 -56 -58 -158 -22 -213
-7 -326 61 -433 86 -138 144 -166 449 -219 248 -44 474 -68 655 -69 l170 -2
66 31 c96 46 182 161 205 274 l11 55 7 -40 c10 -50 58 -142 102 -194 62 -72
227 -111 384 -89 113 15 517 171 647 250 66 40 178 137 233 203 119 143 178
384 164 676 l-7 145 32 14 c71 29 158 162 187 287 25 107 14 298 -25 435 -52
181 -118 315 -244 496 l-48 69 17 52 c11 35 15 67 10 96 -22 164 -175 260
-573 361 -310 79 -453 93 -1028 104 -577 11 -612 11 -765 -6z m1280 -79 c240
-27 515 -86 730 -157 124 -40 157 -58 206 -110 59 -61 77 -102 71 -155 -6 -55
-33 -85 -112 -126 -51 -26 -74 -31 -151 -35 -110 -5 -202 16 -464 109 -307
107 -423 130 -690 136 -185 5 -197 6 -230 28 -107 72 -231 96 -377 71 -175
-30 -402 -117 -534 -206 -35 -24 -101 -79 -146 -123 l-83 -80 -49 49 c-75 75
-86 141 -44 268 26 79 88 133 244 210 214 107 351 125 908 125 183 0 336 2
339 5 11 12 250 6 382 -9z m-759 -328 c20 -8 56 -32 79 -53 57 -51 166 -214
154 -229 -156 -204 -214 -302 -262 -447 -60 -181 -86 -332 -87 -508 0 -200 24
-276 160 -500 102 -168 136 -251 190 -467 51 -205 21 -371 -84 -466 -58 -52
-96 -59 -253 -47 -73 5 -154 12 -179 16 l-47 6 43 44 c75 76 90 120 89 254 -1
191 -42 297 -199 510 -135 184 -234 380 -266 525 -37 171 -2 407 88 588 13 26
21 47 19 47 -9 0 -105 -167 -125 -217 -34 -86 -54 -234 -48 -343 9 -162 57
-296 185 -517 188 -325 240 -545 169 -713 -26 -61 -93 -137 -127 -144 -60 -12
-436 52 -501 84 -78 40 -148 165 -157 279 -6 91 14 270 33 292 16 17 117 49
220 70 72 14 54 27 -40 29 -98 1 -133 14 -186 66 -83 81 -120 203 -140 448
-17 218 -8 414 25 537 38 146 68 219 120 297 59 89 226 265 315 332 128 97
339 190 521 231 99 22 234 20 291 -4z m368 -59 c10 15 72 12 104 -5 l30 -15
-21 -20 c-19 -20 -21 -20 -51 -2 -17 10 -31 22 -31 26 0 17 -23 7 -46 -22 -24
-28 -26 -29 -50 -13 l-25 16 22 23 c18 19 26 21 42 13 12 -7 22 -7 26 -1z
m-85 -9 c-3 -6 -14 -9 -24 -6 -12 3 -17 0 -14 -8 9 -22 -16 -28 -31 -9 -21 28
-19 29 30 32 31 1 44 -2 39 -9z m301 0 c37 -10 38 -12 20 -25 -26 -19 -36 -18
-75 11 -32 24 -33 25 -9 25 13 0 42 -5 64 -11z m-166 -43 l23 -24 -26 -17
c-24 -16 -28 -16 -52 0 l-26 17 23 24 c12 13 25 24 29 24 4 0 17 -11 29 -24z
m122 4 l24 -20 -27 -24 c-16 -14 -28 -27 -28 -30 0 -3 -14 -27 -31 -55 -27
-44 -34 -48 -50 -38 -17 10 -17 13 -3 28 9 10 23 15 32 12 10 -5 13 -3 7 6 -5
8 8 29 36 59 24 26 35 39 23 29 -18 -15 -23 -15 -40 -3 -18 14 -18 15 0 35 24
26 28 26 57 1z m-241 -16 c11 -12 10 -18 -3 -32 -16 -15 -18 -15 -33 0 -19 18
-12 48 9 48 8 0 20 -7 27 -16z m503 -20 c40 -9 119 -38 177 -65 117 -53 298
-111 405 -128 106 -18 217 -2 310 43 82 40 85 41 85 24 0 -6 24 -48 54 -92 66
-99 113 -192 159 -316 51 -138 69 -234 70 -385 1 -112 -2 -138 -20 -184 -62
-152 -129 -191 -437 -253 -106 -21 -208 -33 -343 -42 -105 -6 -194 -14 -198
-18 -13 -13 196 -21 385 -14 172 6 284 18 372 41 25 6 27 4 34 -30 13 -71 -3
-304 -29 -415 -37 -155 -75 -230 -166 -320 -42 -42 -103 -93 -135 -115 -58
-38 -297 -141 -428 -184 l-67 -22 -39 20 c-48 25 -77 63 -103 136 -35 101 -25
159 49 287 25 43 53 108 63 145 29 104 23 226 -14 277 -11 15 -12 8 -6 -50 14
-135 -11 -226 -102 -381 -108 -183 -125 -299 -61 -417 35 -65 40 -60 -73 -71
-73 -7 -118 7 -163 49 -72 67 -94 149 -81 298 13 152 49 273 129 434 89 178
155 377 171 516 18 161 -2 401 -50 593 -30 118 -138 330 -206 403 l-55 59 39
60 c40 61 75 93 133 118 43 18 55 18 141 -1z m-313 -22 c0 -4 -12 -15 -26 -26
-24 -17 -27 -17 -42 -2 -16 16 -15 19 6 36 18 15 28 17 43 10 10 -6 19 -14 19
-18z m-135 0 c22 -17 22 -20 8 -35 -15 -14 -19 -14 -45 -1 -29 15 -29 16 -12
35 21 23 20 23 49 1z m63 -44 c13 -13 -2 -38 -23 -38 -21 0 -36 25 -23 38 7 7
17 12 23 12 6 0 16 -5 23 -12z m-53 -128 c79 -45 143 -114 211 -225 70 -114
113 -213 146 -335 33 -123 33 -360 -1 -510 -34 -155 -85 -299 -159 -445 -70
-141 -171 -419 -173 -475 0 -19 -4 -44 -8 -55 -6 -15 -10 -7 -15 32 -11 88
-73 345 -99 414 -36 95 -60 139 -154 283 -46 70 -94 149 -107 175 -114 226
-47 659 149 962 53 81 146 209 153 209 3 0 28 -13 57 -30z"/>
<path d="M1818 3205 c-14 -31 -2 -58 29 -63 26 -4 55 31 51 60 -2 18 -10 24
-35 26 -27 3 -35 -1 -45 -23z m52 -15 c0 -5 -4 -10 -10 -10 -5 0 -10 5 -10 10
0 6 5 10 10 10 6 0 10 -4 10 -10z"/>
<path d="M1750 3003 c-29 -11 -50 -36 -50 -62 0 -32 8 -44 37 -60 62 -32 124
58 73 109 -20 20 -33 23 -60 13z m48 -49 c4 -31 -24 -57 -49 -44 -36 20 -15
74 26 68 12 -2 21 -12 23 -24z"/>
<path d="M1699 2680 c-39 -38 -38 -87 2 -109 48 -27 119 14 119 69 0 70 -68
93 -121 40z m76 -35 c0 -24 -5 -31 -24 -33 -36 -5 -47 12 -27 43 23 35 51 29
51 -10z"/>
<path d="M1802 2432 c-27 -18 -62 -77 -62 -106 1 -107 170 -134 196 -32 19 78
-74 175 -134 138z m73 -75 c15 -28 18 -41 9 -54 -16 -26 -59 -28 -83 -4 -26
26 -26 28 -1 69 26 42 49 39 75 -11z"/>
<path d="M1236 1539 c-64 -50 -84 -149 -43 -210 35 -53 99 -81 174 -77 73 5
109 26 136 81 36 73 -13 176 -101 213 -52 22 -134 18 -166 -7z m125 -30 c44
-15 78 -46 95 -86 20 -47 17 -71 -12 -100 -23 -23 -31 -25 -94 -21 -60 3 -73
8 -100 33 -22 21 -30 38 -30 62 0 41 22 86 52 107 27 19 44 20 89 5z"/>
<path d="M3628 3269 c-23 -13 -24 -65 -2 -77 38 -21 72 14 62 65 -4 21 -35 27
-60 12z m42 -24 c0 -8 -7 -15 -15 -15 -16 0 -20 12 -8 23 11 12 23 8 23 -8z"/>
<path d="M3396 3129 c-57 -45 -13 -133 57 -115 35 8 61 48 53 80 -14 56 -63
72 -110 35z m79 -30 c9 -26 -13 -51 -39 -47 -27 4 -34 47 -11 64 21 16 42 8
50 -17z"/>
<path d="M3221 2913 c-35 -29 -37 -74 -6 -111 34 -41 84 -44 120 -7 30 29 31
59 5 103 -17 27 -25 32 -59 32 -22 0 -48 -7 -60 -17z m94 -29 c19 -20 16 -53
-6 -67 -13 -8 -24 -6 -43 6 -30 20 -34 51 -8 66 24 15 38 13 57 -5z"/>
<path d="M3142 2614 c-36 -25 -65 -91 -59 -137 6 -46 30 -74 71 -85 75 -20
156 34 156 104 0 44 -25 99 -54 119 -27 20 -86 19 -114 -1z m103 -54 c21 -41
19 -67 -10 -95 -69 -70 -131 29 -64 101 30 32 55 30 74 -6z"/>
<path d="M3400 1651 c-51 -28 -78 -61 -85 -106 -15 -104 109 -192 220 -155 95
31 109 183 24 255 -37 31 -107 33 -159 6z m112 -41 c51 -40 62 -136 18 -160
-32 -17 -85 -11 -121 13 -28 19 -35 30 -37 63 -3 36 1 45 33 73 41 36 72 39
107 11z"/>
<path d="M2472 3173 c-89 -96 -184 -333 -198 -493 -12 -137 71 -395 177 -553
51 -77 93 -127 106 -127 15 0 84 103 118 175 130 274 161 466 104 650 -54 178
-195 395 -256 395 -4 0 -26 -21 -51 -47z m94 -174 c3 -6 -3 -20 -14 -31 l-20
-20 -11 21 c-7 12 -9 26 -6 31 8 13 42 13 51 -1z m-68 -60 c11 -18 11 -24 -5
-42 -10 -12 -19 -24 -20 -26 -2 -3 -10 4 -17 15 -12 16 -12 23 2 46 20 34 23
34 40 7z m117 -9 c13 -24 13 -33 3 -50 -16 -25 -29 -21 -48 13 -13 23 -13 28
4 46 11 12 21 21 22 21 2 0 10 -13 19 -30z m-35 -89 c0 -3 -11 -19 -23 -35
l-24 -29 -22 32 -23 32 23 25 23 24 23 -22 c13 -12 23 -24 23 -27z m-140 0 c0
-19 -36 -58 -46 -49 -3 3 2 22 10 43 16 36 36 40 36 6z m232 -31 c24 -73 -2
-78 -43 -7 -10 17 3 57 19 57 5 0 15 -22 24 -50z m-183 -30 c21 -29 21 -31 4
-55 -23 -31 -27 -31 -53 6 l-22 30 23 25 c12 13 23 24 24 24 1 0 11 -14 24
-30z m145 -15 l27 -35 -21 -30 c-26 -36 -33 -37 -48 -7 -7 12 -17 30 -24 39
-10 14 -8 21 12 43 13 14 24 25 26 25 1 0 14 -16 28 -35z m-206 -69 l21 -28
-26 -37 c-15 -20 -29 -38 -31 -41 -2 -2 -7 2 -12 10 -13 21 -12 97 1 122 11
21 12 21 47 -26z m137 -20 l26 -35 -22 -30 c-13 -17 -24 -31 -25 -31 0 0 -14
18 -29 39 -27 39 -27 40 -8 65 10 14 21 26 25 26 4 0 19 -15 33 -34z m144 -23
c8 -38 7 -53 -5 -70 -19 -30 -25 -29 -52 13 l-24 36 33 34 c18 19 34 34 35 34
1 0 7 -21 13 -47z m-189 -92 c0 -7 -13 -29 -30 -47 l-29 -34 -32 46 -31 46 33
34 34 35 27 -33 c15 -18 28 -39 28 -47z m124 14 l26 -34 -28 -32 -28 -31 -28
36 -27 36 23 30 c13 16 26 29 29 29 4 1 19 -15 33 -34z m-229 -71 c25 -43 26
-47 11 -70 -23 -35 -32 -30 -39 21 -4 25 -9 56 -13 70 -10 40 12 29 41 -21z
m289 17 c-5 -3 -10 -30 -11 -60 -2 -30 -7 -59 -12 -64 -12 -12 -54 49 -45 65
21 35 69 86 73 76 2 -6 0 -13 -5 -17z m-131 -22 l28 -40 -32 -45 c-18 -24 -34
-44 -36 -44 -1 0 -16 21 -32 47 l-30 47 32 37 c18 21 34 38 37 38 3 0 17 -18
33 -40z m-83 -104 l31 -45 -28 -38 -27 -37 31 28 31 29 26 -38 c14 -21 26 -45
26 -52 0 -16 -30 -62 -40 -62 -4 0 -37 45 -74 101 l-66 101 23 29 c12 15 25
28 29 28 4 1 21 -19 38 -44z m157 0 c26 -39 22 -59 -21 -109 l-24 -29 -30 49
-31 48 32 37 c18 21 37 38 42 38 6 0 20 -15 32 -34z m-20 -162 c-8 -16 -22
-45 -32 -65 -21 -43 -31 -47 -40 -16 -6 16 1 29 29 55 20 19 36 38 36 44 0 5
5 9 11 9 6 0 5 -10 -4 -27z m-118 -46 c47 -66 63 -103 41 -95 -8 2 -18 13 -24
24 -6 10 -13 21 -16 24 -23 22 -65 110 -52 109 4 0 27 -28 51 -62z"/>
</g>
</svg>
