<?xml version="1.0" standalone="no"?>
<!DOCTYPE svg PUBLIC "-//W3C//DTD SVG 20010904//EN"
 "http://www.w3.org/TR/2001/REC-SVG-20010904/DTD/svg10.dtd">
<svg version="1.0" xmlns="http://www.w3.org/2000/svg"
 width="512.000000pt" height="512.000000pt" viewBox="0 0 512.000000 512.000000"
 preserveAspectRatio="xMidYMid meet">
<metadata>
Created by potrace 1.16, written by Peter Selinger 2001-2019
</metadata>
<g transform="translate(0.000000,512.000000) scale(0.100000,-0.100000)"
fill="#f2f2f2" stroke="none">
<path d="M2160 4130 c-166 -9 -261 -27 -364 -70 -124 -52 -199 -110 -318 -246
l-35 -41 -94 -6 c-119 -7 -181 -28 -235 -83 -75 -75 -88 -162 -105 -709 -24
-786 -22 -1041 8 -1261 5 -36 3 -43 -16 -49 -38 -12 -76 -73 -76 -124 0 -55
47 -131 102 -163 l34 -21 -38 -21 c-43 -25 -83 -78 -83 -113 0 -35 35 -98 69
-122 87 -62 368 -88 1041 -96 245 -3 668 -10 940 -16 663 -15 874 -1 1028 67
110 48 169 116 159 181 -7 44 -20 59 -71 85 -40 21 -40 21 -16 28 114 31 137
98 69 196 -28 41 -69 69 -133 89 -21 6 -22 -21 9 345 22 257 41 1103 26 1157
-25 90 -92 132 -252 158 -52 8 -97 15 -100 15 -3 0 -5 109 -5 243 1 240 1 242
-23 274 -36 48 -144 94 -244 102 -81 7 -463 -3 -545 -14 -56 -8 -97 -46 -121
-111 -28 -79 -32 -112 -22 -216 8 -83 15 -108 48 -170 41 -79 168 -215 278
-298 70 -53 115 -122 148 -225 29 -91 30 -285 4 -385 -53 -194 -141 -283 -336
-336 -101 -28 -175 -30 -274 -8 -150 33 -273 117 -324 222 -25 50 -28 68 -27
147 1 75 6 105 33 180 36 97 146 320 237 480 73 127 88 167 109 291 13 78 16
147 13 295 -3 192 -3 194 -33 254 -40 81 -69 94 -211 99 -60 2 -174 1 -254 -4z
m363 -131 c29 -39 57 -169 64 -294 5 -98 3 -121 -20 -207 -34 -126 -52 -159
-211 -401 -74 -111 -144 -220 -155 -243 -54 -105 -67 -312 -27 -438 47 -150
191 -290 403 -392 96 -47 171 -54 280 -26 123 31 186 67 283 158 164 157 240
324 225 494 -20 225 -102 399 -250 525 -32 28 -100 91 -150 140 -121 119 -139
162 -132 315 7 132 19 177 55 192 26 10 203 7 528 -10 139 -8 176 -20 193 -65
19 -51 31 -243 21 -352 -5 -60 -14 -306 -20 -545 -5 -239 -12 -466 -15 -504
-8 -101 7 -556 16 -486 27 202 40 382 49 635 9 274 30 708 33 712 1 0 46 -7
99 -17 105 -20 151 -39 163 -67 11 -25 28 -822 21 -1013 -6 -189 -26 -434 -37
-451 -6 -10 -50 -10 -226 0 -365 22 -523 24 -646 11 -146 -16 -161 -29 -182
-168 l-7 -44 -272 2 c-149 1 -317 5 -372 7 l-101 6 9 32 c14 43 -6 136 -35
163 -60 57 -176 73 -527 74 -198 1 -277 -2 -352 -15 -54 -9 -102 -17 -106 -17
-12 0 -34 354 -36 560 -2 310 15 885 30 1010 26 225 48 295 99 318 49 23 157
32 248 22 101 -12 163 -33 194 -66 36 -39 40 -171 13 -460 -23 -255 -22 -335
7 -449 34 -135 98 -208 261 -293 175 -92 276 -181 324 -290 50 -111 61 -297
27 -452 -33 -154 -33 -148 -16 -127 8 9 26 54 41 98 50 149 44 327 -14 482
-44 114 -173 249 -310 322 -76 40 -155 99 -182 135 -63 86 -81 264 -54 527 32
316 36 365 36 446 0 66 -5 90 -23 122 -26 45 -96 97 -168 122 -27 10 -49 21
-49 24 0 4 30 35 67 69 135 127 278 168 663 189 207 12 219 11 243 -20z m-501
-2340 c52 -17 70 -41 76 -98 9 -98 10 -97 -135 -104 -71 -4 -198 -14 -283 -22
-85 -8 -186 -15 -225 -15 -38 0 -107 -7 -153 -15 -72 -12 -87 -12 -123 0 -101
36 -165 96 -157 147 2 12 18 32 36 45 39 26 183 61 302 73 128 13 617 5 662
-11z m1558 -63 c107 -9 247 -20 312 -25 137 -10 183 -28 213 -83 24 -44 14
-60 -48 -77 -87 -24 -195 -29 -310 -15 -266 33 -615 64 -717 64 l-110 0 24 66
c13 36 26 67 28 70 3 2 38 8 79 13 94 12 282 7 529 -13z m-275 -216 c230 -17
586 -60 640 -77 95 -29 165 -65 165 -83 0 -26 -61 -75 -122 -98 -122 -45 -342
-58 -748 -42 -157 6 -550 15 -875 20 -817 13 -1251 44 -1302 92 -28 26 -30 71
-5 96 38 38 411 79 852 92 195 6 382 12 415 14 121 7 844 -3 980 -14z"/>
<path d="M2340 3760 c-24 -24 -24 -29 -4 -58 17 -24 53 -29 72 -10 18 18 15
75 -4 82 -27 10 -43 7 -64 -14z m45 -30 c3 -5 1 -10 -4 -10 -6 0 -11 5 -11 10
0 6 2 10 4 10 3 0 8 -4 11 -10z"/>
<path d="M2984 3698 c-35 -17 -48 -56 -29 -85 13 -19 23 -24 53 -21 50 4 72
40 51 84 -15 31 -41 39 -75 22z m56 -37 c0 -5 -7 -14 -15 -21 -18 -15 -42 1
-31 19 8 13 46 15 46 2z"/>
<path d="M1962 3660 c-61 -25 -45 -110 22 -110 35 0 66 25 66 54 0 17 -43 67
-57 65 -4 0 -18 -4 -31 -9z m53 -50 c3 -5 -3 -10 -15 -10 -12 0 -18 5 -15 10
3 6 10 10 15 10 5 0 12 -4 15 -10z"/>
<path d="M3233 3648 c-40 -10 -80 -58 -89 -104 -15 -80 39 -161 115 -171 55
-7 93 10 141 65 32 35 40 53 40 83 0 85 -111 153 -207 127z m105 -75 c25 -15
46 -59 38 -79 -9 -23 -54 -46 -92 -47 -44 -1 -74 30 -74 77 0 70 59 92 128 49z"/>
<path d="M2244 3490 c-56 -22 -86 -103 -60 -164 37 -89 185 -83 222 10 18 45
-7 119 -49 144 -33 21 -77 25 -113 10z m79 -61 c35 -16 54 -54 38 -73 -18 -21
-74 -30 -100 -17 -38 21 -19 101 24 101 8 0 25 -5 38 -11z"/>
<path d="M2962 3428 c-39 -39 13 -95 64 -68 20 11 24 20 22 44 -3 27 -7 31
-38 34 -19 2 -41 -3 -48 -10z m57 -27 c9 -6 10 -10 2 -16 -16 -9 -44 2 -36 15
8 12 16 12 34 1z"/>
<path d="M1889 3361 c-20 -16 -22 -23 -14 -47 9 -24 17 -30 46 -32 32 -3 38 0
49 29 13 29 12 33 -9 50 -29 24 -43 24 -72 0z m61 -36 c0 -8 -9 -15 -20 -15
-11 0 -20 7 -20 15 0 8 9 15 20 15 11 0 20 -7 20 -15z"/>
<path d="M3419 3129 c-17 -17 -20 -29 -16 -62 3 -23 14 -47 23 -54 47 -35 124
4 124 62 0 64 -86 99 -131 54z m86 -39 c15 -16 15 -22 5 -35 -20 -24 -59 -19
-66 9 -11 47 27 63 61 26z"/>
<path d="M1849 3032 c-38 -34 -50 -102 -26 -148 63 -122 207 -71 207 74 0 73
-28 102 -99 102 -41 0 -57 -5 -82 -28z m125 -44 c22 -31 20 -68 -6 -95 -38
-41 -88 -23 -103 37 -15 61 74 108 109 58z"/>
<path d="M3486 2751 c-37 -40 3 -87 48 -58 28 19 34 45 14 65 -18 18 -42 15
-62 -7z m26 -33 c-7 -7 -12 -8 -12 -2 0 6 3 14 7 17 3 4 9 5 12 2 2 -3 -1 -11
-7 -17z"/>
<path d="M1912 2634 c-25 -17 -29 -56 -8 -73 24 -20 69 -9 85 21 14 24 14 28
-3 47 -23 25 -44 26 -74 5z m54 -25 c8 -14 -18 -31 -30 -19 -9 9 0 30 14 30 5
0 12 -5 16 -11z"/>
<path d="M3407 2282 c-22 -24 -22 -55 1 -75 44 -40 99 -4 84 54 -7 28 -13 35
-38 37 -20 2 -36 -4 -47 -16z m61 -39 c2 -8 -5 -13 -17 -13 -12 0 -21 6 -21
16 0 18 31 15 38 -3z"/>
<path d="M3284 2032 c-85 -40 -111 -122 -56 -182 38 -42 87 -49 147 -20 52 25
75 61 75 119 0 83 -80 123 -166 83z m97 -33 c48 -25 39 -87 -16 -114 -54 -25
-91 -17 -106 22 -15 39 12 77 66 95 30 9 34 9 56 -3z"/>
<path d="M2412 1828 c-34 -34 6 -91 49 -68 31 17 23 74 -11 78 -14 2 -31 -3
-38 -10z m45 -34 c-3 -3 -12 -4 -19 -1 -8 3 -5 6 6 6 11 1 17 -2 13 -5z"/>
<path d="M2686 3274 c-19 -19 -20 -36 -4 -52 21 -21 57 -14 70 14 11 22 10 28
-7 40 -24 18 -40 18 -59 -2z"/>
<path d="M2685 3115 c-32 -31 -31 -50 1 -81 19 -20 31 -24 52 -19 33 8 42 21
42 62 0 26 -6 36 -30 48 -37 19 -37 19 -65 -10z"/>
<path d="M2603 2838 c-129 -132 -173 -205 -181 -304 -4 -51 0 -71 21 -116 29
-64 69 -98 145 -123 78 -25 164 -22 247 10 77 29 120 63 141 112 16 38 18 123
4 172 -19 66 -232 361 -260 361 -3 0 -56 -51 -117 -112z m212 -172 c67 -132
61 -181 -24 -211 -39 -14 -47 -14 -67 0 -40 26 -49 81 -30 182 9 48 21 106 27
127 l11 40 19 -25 c11 -13 39 -64 64 -113z"/>
</g>
</svg>
