<?xml version="1.0" standalone="no"?>
<!DOCTYPE svg PUBLIC "-//W3C//DTD SVG 20010904//EN"
 "http://www.w3.org/TR/2001/REC-SVG-20010904/DTD/svg10.dtd">
<svg version="1.0" xmlns="http://www.w3.org/2000/svg"
 width="512.000000pt" height="512.000000pt" viewBox="0 0 512.000000 512.000000"
 preserveAspectRatio="xMidYMid meet">
<metadata>
Created by potrace 1.16, written by Peter Selinger 2001-2019
</metadata>
<g transform="translate(0.000000,512.000000) scale(0.100000,-0.100000)"
fill="#f2f2f2" stroke="none">
<path d="M3285 4180 c-345 -35 -569 -86 -895 -202 -620 -221 -1090 -623 -1228
-1048 -36 -109 -71 -334 -77 -495 -8 -182 -19 -241 -54 -278 -34 -38 -60 -50
-175 -87 -68 -22 -99 -37 -108 -53 -7 -13 -13 -59 -13 -112 0 -77 3 -95 23
-128 37 -59 77 -60 156 -7 22 16 73 38 113 50 96 28 103 38 103 163 0 137 23
177 103 177 38 0 40 -2 73 -115 20 -65 72 -132 107 -137 17 -2 23 -11 25 -38
5 -78 24 -165 43 -202 46 -91 130 -150 232 -164 55 -8 160 18 207 51 66 46
164 193 231 348 44 102 75 141 134 168 70 32 75 27 42 -40 -24 -48 -27 -63
-18 -80 17 -31 34 -26 101 30 78 65 111 78 224 88 132 13 180 36 271 132 99
106 129 169 128 269 0 41 -6 95 -13 120 -21 76 -14 144 21 220 35 76 36 113 2
118 -16 2 -38 -11 -73 -44 l-50 -47 0 61 c0 78 25 186 55 237 84 146 314 249
477 216 65 -14 128 -52 152 -92 l16 -27 -50 -17 c-77 -25 -152 -100 -200 -199
-41 -83 -60 -169 -89 -413 -32 -268 -158 -510 -386 -739 -118 -120 -213 -188
-371 -267 -169 -85 -404 -158 -629 -197 -230 -40 -473 -111 -549 -162 -27 -17
-62 -50 -78 -72 -25 -35 -29 -48 -25 -85 8 -76 59 -125 147 -141 57 -11 222
-6 345 11 39 5 144 18 235 30 217 26 290 38 635 103 420 78 603 147 874 326
228 151 469 417 583 645 119 236 170 511 137 730 -15 101 -14 236 2 277 6 16
26 33 47 43 114 49 127 71 127 213 0 101 -1 104 -28 128 -15 13 -37 24 -47 24
-27 0 -243 -105 -264 -129 -30 -33 -37 -88 -19 -166 28 -124 28 -127 -7 -160
-27 -26 -40 -30 -100 -33 -43 -3 -75 0 -84 7 -7 6 -19 38 -25 70 -14 72 -44
119 -96 148 -21 12 -45 34 -53 50 -54 104 -152 163 -281 171 -97 5 -159 -13
-252 -74 -77 -50 -148 -123 -209 -214 -51 -76 -59 -83 -125 -115 -72 -36 -78
-33 -49 25 53 107 11 142 -77 64 -68 -61 -116 -80 -214 -88 -127 -11 -170 -29
-245 -105 -143 -145 -185 -254 -154 -396 21 -96 17 -162 -12 -230 -35 -80 -41
-120 -19 -129 20 -7 50 7 87 41 l27 25 7 -37 c14 -76 -21 -212 -96 -370 -53
-114 -106 -170 -197 -212 -75 -35 -170 -37 -230 -5 -69 36 -115 123 -128 239
l-7 58 36 19 c83 44 141 166 202 426 44 188 190 530 300 703 158 246 451 495
711 601 172 70 236 85 607 141 245 36 362 73 455 142 39 30 64 84 56 122 -3
15 -18 41 -34 58 -76 83 -193 97 -526 63z m394 -86 c71 -25 87 -48 63 -94 -37
-73 -111 -98 -402 -135 -326 -42 -430 -61 -545 -99 -226 -75 -417 -190 -575
-345 -178 -176 -285 -333 -381 -561 -73 -172 -94 -232 -160 -453 -75 -253
-127 -347 -195 -347 -58 0 -86 35 -94 119 -5 54 -6 55 -55 80 -75 39 -99 93
-103 232 -5 138 16 263 74 440 66 204 166 354 351 529 122 115 242 195 463
308 195 99 338 155 516 202 65 18 148 40 183 51 156 47 559 100 716 95 54 -2
112 -11 144 -22z m612 -761 c27 -72 0 -131 -75 -167 -98 -47 -161 -30 -161 43
0 69 57 125 147 146 62 14 76 11 89 -22z m-591 -260 c16 -16 37 -50 47 -77
l18 -49 102 -17 c124 -21 187 -54 211 -108 20 -48 19 -165 -3 -297 -63 -369
-258 -688 -585 -954 -250 -203 -383 -272 -625 -321 -54 -11 -129 -29 -165 -40
-107 -32 -731 -153 -875 -169 -156 -19 -338 -24 -385 -11 -87 23 -114 80 -65
138 59 71 226 133 513 192 216 45 391 89 494 125 142 49 404 207 546 327 133
114 260 296 362 523 34 78 76 234 119 448 16 78 38 163 50 188 54 114 172 164
241 102z m-985 -130 c-31 -24 -150 -78 -250 -112 -79 -27 -96 -37 -137 -82
-68 -75 -78 -102 -88 -247 -15 -205 -50 -333 -50 -185 -1 51 -8 86 -30 143
-37 92 -55 185 -46 232 8 45 94 168 142 205 37 28 39 28 223 34 102 3 197 10
211 17 36 16 48 14 25 -5z m199 -321 c15 -35 32 -98 38 -141 11 -74 11 -78
-16 -131 -82 -163 -171 -210 -357 -188 -82 10 -119 7 -208 -18 -18 -5 -22 -4
-16 6 10 16 150 81 240 110 95 31 120 47 164 105 58 77 61 86 71 232 15 208
40 292 50 168 4 -54 15 -101 34 -143z m-329 162 c-44 -65 -29 -126 39 -158 46
-21 78 -13 123 32 l36 36 -5 -71 c-12 -164 -125 -297 -297 -348 l-24 -7 21 27
c25 31 37 83 27 115 -4 11 -24 32 -46 47 -49 32 -89 26 -137 -20 l-34 -32 5
67 c11 153 123 295 267 339 46 14 50 10 25 -27z m-1553 -761 c25 -23 24 -83
-3 -111 -63 -68 -181 -100 -213 -57 -21 27 -20 88 2 114 21 26 126 70 166 71
16 0 38 -7 48 -17z"/>
<path d="M1878 3439 c-22 -12 -23 -52 -3 -69 19 -16 45 -9 62 17 13 19 12 24
-6 42 -24 24 -29 25 -53 10z"/>
<path d="M1499 3083 c-48 -58 -47 -106 3 -128 39 -16 63 -9 88 23 27 33 25 68
-5 97 -28 29 -66 32 -86 8z m51 -68 c0 -9 -7 -18 -16 -22 -18 -7 -39 11 -30
26 11 17 46 13 46 -4z"/>
<path d="M1401 2707 c-34 -17 -61 -56 -67 -99 -9 -51 28 -88 87 -88 35 0 48 6
80 39 51 51 54 97 8 135 -33 28 -70 33 -108 13z m83 -53 c21 -20 20 -26 -4
-57 -28 -35 -58 -44 -75 -20 -43 55 30 126 79 77z"/>
<path d="M4147 3264 c-40 -22 -34 -58 10 -62 42 -4 92 40 73 63 -16 19 -47 18
-83 -1z"/>
<path d="M3680 2717 c-21 -10 -26 -23 -33 -71 -7 -51 -6 -63 11 -85 25 -34 77
-52 115 -39 29 11 57 53 57 88 0 38 -28 89 -59 104 -36 19 -58 20 -91 3z m80
-79 c29 -53 -23 -87 -73 -48 -33 26 -35 57 -4 70 35 14 60 7 77 -22z"/>
<path d="M3510 2334 c-42 -36 -39 -79 9 -111 41 -27 82 -29 124 -5 41 22 47
30 47 69 0 71 -115 101 -180 47z m92 -41 c-3 -16 -9 -31 -15 -34 -13 -9 -44 0
-58 17 -15 19 14 43 52 44 23 0 26 -3 21 -27z"/>
<path d="M3347 1982 c-36 -40 -9 -102 44 -102 58 0 92 66 53 104 -21 22 -77
20 -97 -2z"/>
<path d="M915 1976 c-44 -13 -58 -43 -31 -65 12 -10 24 -10 57 1 47 16 66 36
56 62 -7 19 -26 19 -82 2z"/>
</g>
</svg>
