<?xml version="1.0" standalone="no"?>
<!DOCTYPE svg PUBLIC "-//W3C//DTD SVG 20010904//EN"
 "http://www.w3.org/TR/2001/REC-SVG-20010904/DTD/svg10.dtd">
<svg version="1.0" xmlns="http://www.w3.org/2000/svg"
 width="512.000000pt" height="512.000000pt" viewBox="0 0 512.000000 512.000000"
 preserveAspectRatio="xMidYMid meet">
<metadata>
Created by potrace 1.16, written by Peter Selinger 2001-2019
</metadata>
<g transform="translate(0.000000,512.000000) scale(0.100000,-0.100000)"
fill="#f2f2f2" stroke="none">
<path d="M1885 4139 c-122 -8 -186 -21 -320 -64 -128 -42 -196 -76 -310 -156
-173 -124 -305 -273 -401 -453 -79 -150 -95 -221 -106 -471 -18 -388 -13 -440
54 -643 34 -104 127 -254 218 -356 64 -71 112 -141 140 -206 66 -152 199 -305
387 -446 l112 -85 -15 -34 c-17 -42 -8 -68 38 -111 61 -58 88 -67 328 -108
304 -52 689 -64 1040 -31 362 33 513 75 614 168 39 37 46 49 46 81 0 34 8 45
91 123 115 110 194 216 268 362 73 146 102 234 110 335 l6 80 45 26 c36 20 52
39 79 93 40 78 46 143 19 195 -16 32 -16 34 13 88 34 66 37 116 9 144 -19 19
-19 20 10 76 46 86 36 192 -20 207 -15 4 -20 13 -20 39 0 35 -31 111 -49 122
-17 11 -13 20 18 39 70 41 100 141 77 259 -36 185 -145 344 -310 450 -179 115
-325 162 -643 207 -338 48 -520 48 -669 -1 l-61 -20 -37 25 c-20 14 -78 36
-129 48 -81 20 -118 23 -312 24 -121 1 -265 -2 -320 -6z m630 -118 c96 -32
135 -72 135 -137 0 -27 3 -58 6 -70 4 -17 -6 -27 -58 -58 -134 -78 -277 -195
-379 -310 -116 -132 -172 -205 -197 -257 l-17 -38 -105 5 c-58 2 -159 9 -225
15 -87 8 -159 8 -261 0 -206 -16 -251 -36 -301 -136 -65 -127 -90 -290 -78
-500 14 -256 50 -368 151 -469 72 -72 149 -109 229 -110 52 -1 69 4 119 34 96
58 139 159 97 228 -24 37 -42 40 -82 11 -38 -26 -59 -19 -59 21 0 73 53 120
136 120 89 0 162 -92 172 -216 4 -52 0 -70 -23 -122 -67 -150 -219 -223 -392
-188 -302 61 -484 316 -548 768 -27 193 -15 450 31 633 37 149 156 336 301
476 194 188 372 262 768 322 17 3 138 4 270 3 218 -3 246 -5 310 -25z m675
-10 c559 -76 650 -99 815 -207 118 -77 207 -172 266 -284 30 -60 33 -186 6
-242 -26 -52 -88 -86 -179 -97 -111 -15 -351 -30 -574 -37 l-200 -6 -37 63
c-52 89 -253 316 -341 386 -40 32 -117 90 -170 128 l-97 70 7 50 c12 98 79
158 197 175 73 11 230 11 307 1z m-472 -275 c249 -168 562 -508 562 -612 0
-41 -24 -81 -104 -171 -184 -210 -341 -350 -460 -410 l-50 -25 -50 25 c-28 13
-87 54 -131 89 -134 109 -385 387 -428 475 l-21 44 24 47 c72 135 316 378 535
531 32 23 62 41 66 41 4 0 30 -15 57 -34z m-832 -612 l131 -7 25 -41 c30 -51
153 -198 256 -307 116 -123 314 -269 365 -269 33 0 143 60 227 124 113 85 368
368 408 453 12 25 22 33 41 33 14 0 136 5 271 11 209 10 264 9 377 -4 142 -17
195 -36 233 -84 19 -24 22 -37 17 -95 -3 -54 -11 -79 -38 -125 -71 -119 -190
-214 -410 -325 -210 -107 -341 -221 -460 -401 -66 -100 -92 -162 -109 -267
-15 -86 -18 -303 -7 -372 l8 -48 -264 0 -265 0 10 43 c5 24 8 125 6 224 l-3
181 43 23 c24 12 52 33 62 46 25 32 35 95 19 124 -11 22 -12 21 -33 -22 -60
-126 -239 -116 -272 15 -12 49 -34 23 -34 -41 0 -49 26 -88 77 -115 l42 -23
-7 -75 c-4 -41 -7 -143 -7 -227 l0 -152 -50 -5 c-77 -7 -530 -34 -533 -31 -1
1 11 24 28 51 42 68 67 146 79 244 13 100 13 247 1 275 -5 11 -9 16 -10 10
-16 -165 -33 -253 -65 -344 -44 -125 -74 -172 -155 -239 -109 -91 -172 -93
-298 -9 -122 82 -235 207 -210 233 3 2 17 0 32 -6 73 -27 273 3 362 55 52 30
119 121 171 230 32 68 38 91 41 167 3 61 1 88 -7 88 -6 0 -11 -13 -11 -28 0
-47 -29 -143 -67 -222 -45 -93 -133 -184 -218 -226 -54 -26 -70 -29 -156 -29
-89 0 -100 2 -163 34 -37 19 -80 50 -95 68 -26 31 -57 100 -49 108 2 2 40 -2
83 -10 44 -8 125 -14 180 -15 117 0 173 20 248 90 61 55 88 123 95 231 6 105
-7 147 -61 206 -71 77 -140 98 -212 63 -47 -23 -69 -49 -91 -112 -12 -34 -12
-43 1 -68 21 -40 48 -46 85 -20 38 27 60 20 60 -20 0 -90 -113 -179 -227 -180
-44 0 -60 6 -114 43 -77 51 -128 121 -157 214 -58 186 -54 559 7 724 30 80 84
128 168 151 59 16 95 18 268 13 110 -3 259 -8 331 -11z m2442 -226 c19 -19 14
-59 -17 -120 -69 -136 -181 -240 -386 -359 -224 -131 -367 -262 -430 -393 -67
-141 -113 -333 -122 -508 l-6 -118 -57 0 -57 0 -6 68 c-11 107 -7 241 7 322
27 146 125 329 245 453 78 82 163 141 326 226 223 117 332 205 395 316 38 70
78 125 89 125 4 0 12 -5 19 -12z m2 -258 c14 -27 7 -50 -42 -132 -44 -75 -68
-93 -219 -168 -270 -136 -423 -302 -505 -550 -40 -120 -52 -185 -58 -310 l-5
-95 -33 3 c-66 6 -64 -1 -56 139 10 194 77 432 153 548 57 85 168 181 344 295
89 58 214 146 279 197 64 50 120 92 124 92 4 1 12 -8 18 -19z m-32 -222 c18
-18 15 -80 -7 -131 -25 -59 -68 -92 -223 -173 -80 -41 -152 -87 -185 -118
-133 -121 -222 -319 -242 -539 -5 -54 -12 -101 -14 -103 -3 -3 -24 1 -47 8
l-42 13 7 110 c12 199 45 318 126 461 87 153 214 259 441 368 79 37 124 65
139 86 25 33 30 35 47 18z m-158 -343 c0 -44 -61 -238 -100 -321 -46 -95 -127
-208 -229 -316 -72 -77 -105 -98 -122 -81 -13 13 6 186 31 284 30 125 131 300
200 349 33 23 200 110 213 110 4 0 7 -11 7 -25z m-665 -755 c80 -13 148 -48
159 -83 32 -93 -166 -165 -539 -197 -335 -28 -982 4 -1207 60 -134 33 -171 68
-124 115 73 73 329 104 936 112 234 3 427 8 430 11 7 7 277 -7 345 -18z"/>
<path d="M2244 3919 c10 -51 114 -164 133 -145 11 11 -27 93 -63 134 -20 24
-44 42 -56 42 -18 0 -20 -4 -14 -31z"/>
<path d="M1915 3810 c-13 -21 8 -50 86 -125 70 -66 155 -122 167 -110 3 2 -6
25 -18 50 -33 67 -218 213 -235 185z"/>
<path d="M1660 3565 c-21 -25 73 -107 158 -138 105 -39 132 -47 132 -37 0 18
-128 121 -191 155 -76 40 -82 41 -99 20z"/>
<path d="M3017 3910 c-30 -24 -80 -121 -75 -145 2 -14 13 -9 49 24 49 43 84
103 75 127 -7 19 -19 18 -49 -6z"/>
<path d="M3328 3750 c-101 -67 -168 -141 -168 -185 0 -25 74 18 150 87 67 61
95 101 85 118 -9 15 -18 13 -67 -20z"/>
<path d="M3543 3490 c-75 -37 -184 -122 -172 -134 3 -3 42 5 86 17 81 24 165
73 183 107 28 53 -3 56 -97 10z"/>
<path d="M2549 3590 c-58 -43 -144 -114 -189 -157 -98 -91 -240 -259 -240
-283 0 -21 84 -123 186 -225 95 -96 339 -295 361 -295 51 0 497 391 539 471
14 29 14 33 -9 72 -38 63 -175 214 -263 288 -123 102 -260 209 -270 209 -5 0
-57 -36 -115 -80z m244 -142 c121 -81 317 -261 317 -290 0 -40 -77 -131 -197
-234 -130 -111 -207 -174 -231 -188 -16 -9 -71 32 -252 188 -129 112 -210 206
-210 244 0 32 163 178 303 271 76 50 141 91 143 91 3 0 60 -37 127 -82z"/>
<path d="M1368 3070 c-28 -17 -40 -47 -28 -69 15 -29 47 -35 76 -16 21 13 25
23 22 53 -3 31 -7 37 -28 39 -14 2 -33 -2 -42 -7z"/>
<path d="M1760 2895 c0 -31 50 -150 96 -228 29 -47 83 -116 129 -163 68 -69
95 -89 185 -133 58 -28 140 -60 184 -71 43 -11 84 -26 90 -34 179 -222 200
-246 221 -246 16 0 52 36 131 129 100 118 113 130 154 139 147 34 284 101 377
186 93 84 222 303 223 379 0 56 -27 32 -153 -134 -112 -148 -186 -218 -276
-263 -77 -39 -140 -61 -148 -52 -4 4 7 21 24 39 38 41 145 191 168 236 21 42
5 66 -24 36 -35 -37 -262 -308 -271 -324 -7 -14 -33 -16 -182 -14 -95 1 -183
5 -195 10 -11 4 -85 85 -163 178 -78 94 -144 172 -146 174 -2 2 -10 1 -19 -3
-14 -5 -13 -11 6 -48 24 -47 81 -130 147 -215 24 -30 41 -57 39 -60 -9 -8
-157 59 -215 98 -75 49 -119 97 -237 254 -54 72 -103 133 -109 137 -18 12 -36
9 -36 -7z m960 -690 c-30 -30 -57 -55 -60 -55 -3 0 -27 25 -53 55 l-48 55 108
0 107 0 -54 -55z"/>
<path d="M1293 2889 c-98 -28 -74 -159 29 -159 83 0 120 92 57 144 -33 28 -38
29 -86 15z m45 -67 c2 -7 -4 -15 -13 -18 -20 -8 -27 -1 -19 20 7 18 25 17 32
-2z"/>
<path d="M1304 2611 c-70 -32 -90 -81 -59 -142 22 -42 71 -69 127 -69 61 0 76
7 93 41 16 30 20 106 7 127 -16 25 -77 62 -101 62 -14 0 -45 -9 -67 -19z m104
-65 c5 -39 -5 -73 -23 -80 -38 -14 -90 41 -70 74 9 15 66 40 80 36 6 -1 11
-15 13 -30z"/>
<path d="M2425 1716 c-38 -29 -85 -72 -103 -95 -95 -119 -41 -167 65 -58 45
47 133 178 133 199 0 19 -29 5 -95 -46z"/>
<path d="M2790 1764 c0 -22 97 -180 135 -218 85 -88 132 -42 60 60 -54 76
-195 190 -195 158z"/>
</g>
</svg>
