<?xml version="1.0" standalone="no"?>
<!DOCTYPE svg PUBLIC "-//W3C//DTD SVG 20010904//EN"
 "http://www.w3.org/TR/2001/REC-SVG-20010904/DTD/svg10.dtd">
<svg version="1.0" xmlns="http://www.w3.org/2000/svg"
 width="512.000000pt" height="512.000000pt" viewBox="0 0 512.000000 512.000000"
 preserveAspectRatio="xMidYMid meet">
<metadata>
Created by potrace 1.16, written by Peter Selinger 2001-2019
</metadata>
<g transform="translate(0.000000,512.000000) scale(0.100000,-0.100000)"
fill="#f2f2f2" stroke="none">
<path d="M1490 4064 c-14 -2 -52 -9 -85 -15 -172 -31 -310 -137 -399 -309 -37
-72 -87 -242 -106 -362 -16 -101 -8 -379 15 -468 26 -107 67 -198 119 -262
l48 -61 -16 -51 c-43 -133 -72 -459 -56 -632 12 -136 43 -299 70 -378 32 -93
101 -215 149 -265 110 -113 305 -181 514 -181 157 1 230 40 282 152 l32 70 26
-54 c55 -113 135 -175 255 -199 42 -8 112 -10 210 -6 246 9 412 66 514 175 25
27 49 59 53 71 7 22 8 22 43 -13 42 -42 110 -76 213 -107 63 -19 105 -23 292
-26 214 -5 220 -4 303 21 68 22 93 35 123 67 75 76 94 146 126 451 21 210 20
351 -6 451 -25 97 -39 127 -91 190 l-39 47 19 28 c58 85 82 183 89 367 10 266
-20 633 -68 820 -62 246 -173 366 -379 412 -104 23 -372 24 -453 1 -82 -23
-144 -63 -176 -113 l-27 -43 -19 34 c-37 69 -162 135 -332 175 -74 18 -109 20
-223 16 -184 -7 -284 -43 -374 -136 l-39 -40 -42 38 c-46 42 -167 94 -275 117
-67 15 -246 26 -290 18z m1271 -98 c163 -48 239 -91 267 -155 12 -26 18 -86
24 -211 26 -616 28 -643 78 -739 49 -98 200 -226 357 -304 48 -24 144 -68 212
-97 143 -59 255 -114 289 -141 29 -22 100 -122 118 -164 56 -135 35 -668 -31
-780 -33 -57 -83 -102 -133 -119 -74 -26 -206 -38 -375 -34 -143 4 -170 7
-230 30 -98 37 -133 65 -165 128 l-27 55 -5 415 c-6 454 -8 470 -69 560 -39
58 -99 96 -200 126 -228 66 -403 128 -461 162 -167 97 -275 246 -306 423 -26
148 -25 418 3 539 43 186 69 227 178 282 122 62 311 72 476 24z m-1051 14
c136 -22 291 -85 325 -132 20 -30 20 -164 -1 -340 -17 -138 -14 -306 7 -437
22 -140 149 -316 300 -416 75 -51 206 -103 414 -165 194 -58 228 -78 265 -150
34 -67 40 -140 43 -560 4 -383 3 -418 -14 -451 -24 -49 -90 -106 -162 -140
-167 -78 -494 -97 -617 -34 -123 63 -179 225 -180 525 0 207 -24 312 -92 415
-42 64 -97 102 -263 184 -251 123 -367 193 -478 290 -222 193 -270 301 -271
606 -1 210 16 300 86 479 47 120 55 134 117 196 53 53 79 71 131 90 127 47
258 60 390 40z m2012 -54 c88 -19 128 -39 187 -92 112 -100 163 -276 192 -654
19 -247 17 -490 -5 -585 -18 -77 -59 -185 -71 -185 -3 0 -23 11 -44 24 -21 14
-125 57 -232 97 -259 96 -359 149 -471 248 -133 118 -159 225 -175 703 -5 181
-4 216 12 273 30 112 81 162 188 185 60 13 339 4 419 -14z m-2522 -1421 c25
-30 315 -202 487 -290 282 -142 313 -192 321 -516 8 -327 -20 -457 -112 -518
-38 -25 -46 -26 -165 -26 -102 1 -142 5 -206 24 -205 60 -299 146 -375 343
-38 99 -80 338 -80 456 0 107 31 346 60 469 19 82 24 92 39 83 10 -5 24 -16
31 -25z"/>
<path d="M2503 3669 c-49 -14 -155 -99 -180 -144 -52 -92 -36 -184 42 -253
165 -145 404 -58 405 148 0 74 -15 121 -53 172 -62 82 -123 103 -214 77z m57
-75 c0 -4 -22 -32 -49 -63 -26 -31 -66 -83 -87 -116 l-38 -60 -10 33 c-11 39
4 96 35 136 32 41 149 96 149 70z m83 -32 l19 -32 -33 -38 c-18 -20 -65 -72
-104 -115 l-72 -77 -24 19 -24 19 42 45 c23 25 67 84 99 131 32 48 62 85 68
83 6 -2 19 -18 29 -35z m46 -135 c2 -87 -53 -147 -134 -147 -57 0 -71 12 -44
36 12 10 53 59 92 108 78 97 85 98 86 3z"/>
<path d="M2536 3134 c-11 -30 -6 -82 10 -95 14 -11 18 -10 30 6 26 35 15 105
-16 105 -10 0 -21 -7 -24 -16z"/>
<path d="M2555 2950 c-7 -23 10 -60 28 -60 28 0 37 22 21 51 -17 34 -40 38
-49 9z"/>
<path d="M2683 2824 c-12 -33 46 -81 81 -68 23 9 20 24 -11 56 -30 31 -60 36
-70 12z"/>
<path d="M2907 2733 c-23 -22 11 -63 53 -63 41 0 48 19 16 47 -27 23 -56 30
-69 16z"/>
<path d="M3115 2639 c-10 -16 36 -60 60 -57 45 7 18 68 -30 68 -13 0 -27 -5
-30 -11z"/>
<path d="M3320 2480 c0 -25 26 -66 47 -74 18 -7 43 10 43 31 0 20 -49 63 -71
63 -12 0 -19 -7 -19 -20z"/>
<path d="M3475 2301 c-3 -6 -1 -29 4 -53 15 -64 61 -89 61 -32 0 58 -45 117
-65 85z"/>
<path d="M3553 2078 c-28 -35 -20 -98 12 -98 22 0 34 32 26 70 -7 37 -22 48
-38 28z"/>
<path d="M3484 1881 c-97 -44 -151 -177 -110 -274 32 -77 148 -135 243 -121
187 26 265 223 139 349 -65 64 -186 85 -272 46z m126 -39 c0 -4 -25 -32 -55
-62 -31 -30 -67 -72 -82 -92 -32 -46 -43 -48 -43 -6 0 43 35 112 67 133 42 28
113 45 113 27z m66 -43 l23 -22 -38 -46 c-21 -25 -55 -74 -75 -108 l-37 -63
-37 16 c-20 8 -44 22 -52 30 -13 14 -11 19 20 47 20 18 62 62 94 100 32 37 63
67 69 67 6 0 21 -10 33 -21z m60 -134 c-8 -42 -61 -90 -111 -99 -20 -4 -39 -5
-42 -2 -3 3 17 31 44 63 27 32 60 73 73 92 l24 34 9 -27 c5 -15 6 -42 3 -61z"/>
<path d="M1485 3654 c-116 -23 -125 -27 -171 -67 -62 -54 -94 -123 -94 -202 0
-231 257 -318 431 -145 48 47 59 65 69 113 11 48 11 66 -4 124 -31 127 -123
198 -231 177z m58 -73 c4 -4 -36 -45 -90 -90 -53 -46 -111 -101 -128 -124
l-30 -42 -3 57 c-4 69 20 122 75 167 53 44 146 61 176 32z m63 -46 c13 -19 4
-30 -115 -153 -70 -73 -133 -132 -139 -132 -6 0 -19 11 -28 25 -16 24 -15 25
113 153 70 71 134 128 142 128 7 -1 20 -10 27 -21z m38 -86 c10 -50 7 -70 -14
-115 -35 -71 -146 -126 -218 -107 l-31 8 98 87 c54 48 109 103 122 123 13 19
27 35 30 35 4 0 9 -14 13 -31z"/>
<path d="M1450 3071 c-17 -33 -11 -78 14 -108 13 -15 28 -25 32 -20 14 14 17
116 4 132 -17 21 -37 19 -50 -4z"/>
<path d="M1534 2826 c-11 -28 37 -96 67 -96 31 0 30 17 -3 64 -32 47 -54 57
-64 32z"/>
<path d="M1713 2633 c-23 -9 -14 -40 18 -67 54 -45 84 -28 50 28 -17 27 -44
50 -54 45 -1 0 -8 -3 -14 -6z"/>
<path d="M1903 2483 c-4 -10 3 -24 21 -40 33 -28 47 -29 77 -3 l24 20 -24 20
c-29 25 -89 27 -98 3z"/>
<path d="M2145 2420 c-19 -31 36 -76 86 -68 35 5 33 24 -4 46 -47 27 -74 35
-82 22z"/>
<path d="M2361 2316 c-9 -11 -6 -18 15 -35 15 -12 32 -21 40 -21 7 0 19 -3 28
-6 25 -10 20 29 -7 54 -27 25 -59 28 -76 8z"/>
<path d="M2521 2186 c-9 -11 -9 -20 -2 -35 14 -26 61 -62 72 -55 16 9 10 51
-12 78 -23 29 -41 33 -58 12z"/>
<path d="M2606 1994 c-20 -19 -20 -35 -2 -60 12 -15 18 -17 33 -8 22 14 29 50
13 70 -16 18 -25 18 -44 -2z"/>
<path d="M2575 1879 c-22 -5 -50 -11 -63 -14 -34 -8 -103 -75 -123 -120 -22
-47 -24 -133 -5 -178 19 -46 78 -94 138 -112 98 -29 176 -15 240 43 56 50 78
102 78 183 0 55 -5 72 -29 111 -45 71 -144 107 -236 87z m25 -75 c0 -3 -27
-38 -60 -79 -32 -40 -65 -84 -71 -99 -29 -62 -40 25 -13 94 21 51 69 90 112
90 17 0 32 -3 32 -6z m116 -25 c3 -6 -23 -42 -58 -82 -36 -40 -77 -93 -92
-119 -15 -27 -31 -48 -34 -48 -4 0 -20 8 -35 19 -25 16 -26 19 -11 32 9 7 44
54 77 104 84 126 83 125 118 113 16 -5 32 -14 35 -19z m48 -70 c10 -52 -12
-115 -55 -154 -34 -30 -46 -35 -89 -35 l-50 0 42 53 c24 30 61 83 83 119 43
70 57 74 69 17z"/>
<path d="M3460 3811 c-184 -60 -291 -238 -260 -434 20 -130 73 -210 174 -261
194 -98 448 -25 532 152 48 102 44 231 -13 349 -36 77 -85 129 -157 166 -54
27 -72 31 -156 34 -52 1 -106 -1 -120 -6z m235 -40 c69 -32 122 -87 160 -165
93 -193 37 -382 -137 -462 -56 -26 -74 -29 -158 -29 -81 0 -103 4 -150 26 -77
36 -115 71 -147 137 -25 51 -28 67 -28 162 0 88 4 113 23 155 38 84 117 153
205 181 64 20 184 17 232 -5z"/>
<path d="M3465 3664 c-79 -43 -134 -130 -142 -225 -19 -210 244 -330 395 -180
50 51 76 116 75 197 0 87 -27 143 -90 188 -37 26 -53 30 -125 33 -63 3 -90 0
-113 -13z"/>
<path d="M1473 1990 c-58 -12 -117 -45 -168 -91 -148 -137 -114 -423 63 -534
71 -44 138 -59 248 -53 137 7 227 59 282 163 23 43 26 62 26 135 -2 174 -86
300 -240 359 -62 24 -154 33 -211 21z m232 -57 c55 -29 121 -103 153 -171 31
-66 41 -181 23 -244 -16 -52 -73 -113 -135 -146 -46 -25 -61 -27 -161 -27
-104 0 -113 2 -171 32 -65 34 -103 72 -133 132 -26 51 -32 85 -32 163 0 131
65 221 196 275 49 20 211 11 260 -14z"/>
<path d="M1502 1860 c-65 -14 -103 -40 -137 -95 -26 -42 -30 -58 -30 -120 0
-62 4 -78 30 -121 101 -163 377 -132 426 48 15 57 5 121 -30 182 -51 91 -145
130 -259 106z"/>
</g>
</svg>
