<?xml version="1.0" standalone="no"?>
<!DOCTYPE svg PUBLIC "-//W3C//DTD SVG 20010904//EN"
 "http://www.w3.org/TR/2001/REC-SVG-20010904/DTD/svg10.dtd">
<svg version="1.0" xmlns="http://www.w3.org/2000/svg"
 width="512.000000pt" height="512.000000pt" viewBox="0 0 512.000000 512.000000"
 preserveAspectRatio="xMidYMid meet">
<metadata>
Created by potrace 1.16, written by Peter Selinger 2001-2019
</metadata>
<g transform="translate(0.000000,512.000000) scale(0.100000,-0.100000)"
fill="#f2f2f2" stroke="none">
<path d="M1826 4250 c-32 -12 -84 -37 -115 -57 -79 -50 -196 -166 -246 -243
-58 -88 -152 -278 -160 -323 -7 -37 -11 -40 -75 -52 -80 -16 -163 -86 -202
-170 -30 -66 -32 -195 -4 -271 19 -51 19 -52 -1 -73 -21 -22 -46 -99 -58 -177
-9 -60 19 -171 55 -216 l30 -37 -36 -123 c-82 -283 -85 -490 -9 -725 28 -87
98 -207 138 -237 36 -27 121 -32 171 -11 50 21 135 101 153 144 8 18 21 89 29
156 17 145 69 340 120 443 113 231 353 410 628 466 231 48 531 -18 746 -164
78 -53 249 -233 295 -310 21 -36 44 -72 52 -81 7 -9 24 -59 38 -112 20 -81 23
-105 15 -154 -13 -79 -49 -147 -123 -234 -160 -187 -356 -313 -577 -369 -185
-47 -305 -61 -480 -55 -200 7 -372 28 -439 54 -28 10 -90 44 -139 75 -139 87
-149 91 -292 91 -147 0 -170 -8 -217 -78 -87 -129 -54 -327 70 -421 51 -39
149 -76 257 -96 191 -37 778 -56 1204 -41 422 16 619 50 802 137 186 88 288
312 319 701 l7 81 63 31 c69 34 102 70 143 159 25 52 27 67 26 177 -2 191 -64
584 -117 740 l-24 70 72 22 c91 28 158 86 199 170 24 47 30 75 34 151 4 79 2
95 -13 112 -10 11 -28 20 -40 20 -12 0 -75 -36 -139 -81 -65 -44 -138 -89
-162 -99 -42 -18 -45 -19 -50 -2 -17 56 -71 150 -110 192 l-45 48 44 31 c102
70 202 225 226 351 22 117 25 198 7 225 -41 63 -106 12 -196 -156 -65 -121
-128 -189 -227 -247 -39 -23 -75 -42 -78 -42 -4 0 26 31 67 69 139 130 184
275 112 361 -33 38 -66 39 -125 2 -40 -26 -179 -167 -179 -183 0 -4 -24 -25
-53 -48 -57 -44 -150 -81 -201 -81 -27 0 -23 4 29 25 68 28 99 59 114 113 16
54 13 83 -9 120 -27 44 -54 42 -177 -13 -94 -42 -107 -46 -189 -47 -76 -1
-115 6 -269 47 -99 25 -213 55 -254 66 -46 12 -109 19 -165 19 l-91 0 33 21
c38 25 49 58 32 98 -14 36 -43 49 -122 56 -49 4 -76 1 -122 -15z m185 -40 c56
-30 -17 -105 -146 -150 -126 -45 -197 -85 -264 -149 -93 -90 -150 -188 -176
-305 -6 -27 -8 -28 -46 -23 -23 3 -43 8 -46 11 -7 6 95 198 155 291 90 141
212 258 323 309 58 28 162 36 200 16z m1529 -206 c35 -90 -108 -277 -270 -355
-136 -66 -168 -73 -309 -66 -123 6 -319 41 -546 98 -73 18 -119 23 -240 23
-141 1 -155 -1 -228 -28 -102 -37 -178 -94 -256 -192 -69 -86 -81 -96 -81 -66
0 11 -9 31 -20 45 -11 14 -20 31 -20 39 0 20 96 143 143 183 104 90 259 138
442 138 119 0 378 -38 493 -74 35 -10 133 -27 217 -36 146 -16 156 -16 229 1
102 24 179 76 264 179 66 79 132 137 159 137 7 0 18 -12 23 -26z m303 4 c14
-53 -24 -211 -73 -308 -36 -70 -125 -156 -201 -194 -157 -79 -349 -84 -754
-20 -205 32 -265 38 -410 38 -135 1 -184 -3 -240 -18 -248 -65 -444 -244 -663
-604 -40 -66 -88 -134 -107 -151 -44 -39 -131 -65 -217 -65 -57 -1 -70 2 -92
23 -31 29 -56 106 -56 170 0 78 12 151 25 151 6 0 26 -19 43 -42 60 -80 128
-112 206 -97 114 21 172 80 287 289 73 134 120 206 189 289 59 71 110 108 205
147 67 28 76 29 220 28 140 -1 165 -4 361 -47 270 -59 367 -71 529 -64 194 8
329 52 471 152 68 49 114 106 200 248 32 53 61 97 65 97 4 0 9 -10 12 -22z
m-1447 -49 c269 -75 309 -82 410 -69 66 8 97 18 186 64 108 56 121 57 129 16
6 -30 -12 -87 -34 -107 -12 -12 -53 -31 -92 -43 -94 -29 -196 -28 -365 4 -433
83 -528 90 -700 51 -161 -37 -334 -162 -391 -284 -24 -51 -33 -58 -58 -42 -33
21 63 194 164 297 115 116 255 172 441 173 82 1 112 -5 310 -60z m-1076 -472
c0 -13 -77 -94 -83 -86 -7 10 -27 61 -27 70 0 13 39 28 78 28 20 1 32 -4 32
-12z m135 -21 c30 -18 59 -47 82 -84 l36 -56 -20 -36 c-11 -19 -35 -62 -53
-95 -51 -93 -54 -95 -92 -57 l-32 32 44 45 c42 43 44 44 64 27 21 -17 21 -17
2 6 -19 22 -19 22 5 50 l24 27 -26 -23 -27 -24 -45 64 c-47 66 -61 91 -76 132
-10 24 -9 24 29 22 21 -2 59 -15 85 -30z m1312 -20 c128 -18 239 -38 245 -43
21 -16 406 -182 488 -210 177 -61 303 -40 466 78 54 39 111 77 125 84 24 13
27 12 37 -10 25 -53 -23 -179 -94 -251 -62 -63 -120 -79 -284 -79 -218 0 -396
44 -840 208 -223 82 -338 109 -536 126 -122 11 -271 3 -365 -18 -24 -6 -48
-11 -54 -11 -19 0 41 41 119 81 176 90 316 99 693 45z m-1554 -16 l16 -40 -37
-25 c-20 -14 -40 -25 -43 -25 -4 0 -10 16 -14 36 -5 31 -2 41 21 65 15 16 31
29 34 29 4 0 14 -18 23 -40z m143 -17 c15 -27 44 -70 65 -96 l38 -48 -45 -41
c-44 -40 -45 -41 -65 -22 -12 10 -30 32 -41 47 l-20 28 44 40 43 41 -46 -35
-46 -36 -20 43 -21 43 41 42 c23 22 42 41 43 41 1 0 14 -21 30 -47z m2259 -15
c49 -57 118 -172 108 -182 -22 -21 -178 17 -306 75 -51 23 -136 56 -190 74
l-98 32 143 6 c101 4 162 11 208 25 36 11 70 20 77 21 6 0 32 -23 58 -51z
m-2485 -50 c0 -9 -8 -22 -17 -27 -17 -10 -16 -10 2 -11 15 0 25 -12 38 -47 9
-25 16 -48 14 -49 -2 -2 -19 -10 -39 -19 -45 -18 -50 -12 -47 64 3 68 27 140
40 119 5 -7 9 -21 9 -30z m120 -15 c8 -21 16 -41 18 -45 3 -7 -67 -58 -79 -58
-8 0 -44 89 -38 93 16 12 75 47 79 47 4 0 12 -17 20 -37z m1250 -63 c156 -25
188 -35 435 -125 380 -139 638 -205 805 -205 67 0 69 -1 74 -27 14 -67 78
-489 91 -603 25 -213 18 -285 -36 -366 -19 -27 -59 -52 -192 -120 -156 -80
-216 -124 -170 -124 15 0 113 24 186 46 17 5 18 0 12 -58 -7 -69 -33 -229 -37
-234 -2 -1 -32 11 -66 28 -53 26 -74 31 -135 31 -154 0 -281 -69 -401 -217
-72 -89 -108 -174 -114 -267 l-4 -76 -142 -7 c-364 -16 -554 -17 -841 -7 -170
6 -331 14 -358 17 l-47 6 26 31 c64 76 81 170 43 241 -14 26 -16 37 -7 34 245
-95 500 -119 821 -78 186 24 215 30 338 71 321 107 579 320 714 589 48 95 42
273 -14 421 -53 141 -280 412 -415 498 -130 82 -277 127 -488 150 -271 30
-464 -9 -664 -135 -167 -105 -295 -224 -382 -355 -105 -157 -139 -276 -152
-529 -10 -215 -16 -232 -83 -265 -47 -22 -57 -24 -87 -14 -49 16 -77 45 -111
111 -56 110 -96 333 -83 466 7 74 39 290 54 367 l10 50 113 0 c82 1 122 5 150
18 53 23 131 93 158 141 38 70 220 316 274 371 28 29 78 66 111 83 51 26 81
34 189 56 64 12 310 4 425 -14z m-1183 -49 l43 -50 -46 -38 -46 -37 -25 29
c-13 17 -31 43 -40 59 -13 25 -13 30 -1 37 8 5 26 17 39 28 13 11 26 20 29 21
3 0 24 -22 47 -49z m-104 -73 c34 -49 36 -54 19 -67 -15 -12 -15 -12 6 -6 18
5 31 -2 63 -35 46 -47 43 -59 -17 -67 -32 -4 -46 1 -82 27 -31 22 -42 36 -37
48 3 9 3 13 -1 10 -11 -11 -44 11 -53 35 -24 66 -23 76 11 91 49 21 51 20 91
-36z m193 -24 l33 -36 -39 -41 -39 -42 -43 43 c-38 38 -41 44 -25 53 9 6 29
21 45 34 15 13 29 25 31 25 3 0 19 -16 37 -36z m2139 -1654 c57 -15 115 -41
115 -52 0 -11 -31 -121 -35 -126 -2 -2 -16 5 -31 15 -40 26 -163 24 -224 -4
-104 -47 -211 -160 -255 -270 -26 -62 -38 -71 -103 -72 l-42 -1 6 43 c17 112
73 222 162 318 35 38 84 81 109 96 95 55 209 76 298 53z m-2158 -81 c15 -6 64
-31 107 -57 99 -58 136 -105 136 -171 0 -80 -77 -209 -118 -198 -9 3 -34 8
-54 12 -21 3 -38 7 -38 9 0 2 8 18 18 37 11 23 17 57 17 104 0 59 -5 79 -30
124 -33 60 -91 104 -162 123 -23 7 -40 15 -37 20 7 12 128 10 161 -3z m-72
-70 c34 -17 60 -40 83 -73 27 -41 32 -57 32 -110 0 -66 -25 -128 -53 -134 -8
-2 -31 4 -51 12 -33 14 -34 17 -26 45 10 34 -1 91 -24 126 -22 33 -72 58 -102
51 -23 -6 -24 -4 -24 47 0 30 3 57 8 61 14 15 107 0 157 -25z m2273 -63 c14
-14 14 -19 -4 -51 -27 -53 -106 -123 -167 -150 -51 -22 -248 -75 -281 -75 -26
0 -19 15 43 92 84 104 173 176 243 197 46 14 147 6 166 -13z m-2354 -87 c20
-23 26 -42 26 -77 l0 -46 -31 30 c-31 29 -51 61 -63 102 -11 35 36 30 68 -9z"/>
<path d="M2442 3118 c-18 -18 -14 -46 8 -58 25 -13 91 2 111 26 11 14 10 18
-6 30 -23 17 -97 18 -113 2z"/>
<path d="M2125 3087 c-62 -35 -53 -53 25 -49 73 2 102 20 84 50 -16 25 -64 25
-109 -1z"/>
<path d="M2736 3074 c-18 -17 -11 -40 15 -54 47 -25 106 2 71 33 -31 29 -70
38 -86 21z"/>
<path d="M3067 2993 c-15 -14 -6 -43 17 -58 30 -20 91 -16 91 5 0 29 -89 73
-108 53z"/>
<path d="M1865 2975 c-37 -16 -69 -50 -60 -64 16 -27 115 -1 128 33 6 15 -17
47 -31 45 -4 0 -21 -7 -37 -14z"/>
<path d="M3332 2848 c-7 -7 -12 -17 -12 -24 0 -22 49 -64 75 -64 37 0 34 41
-6 74 -35 29 -40 31 -57 14z"/>
<path d="M1603 2774 c-18 -8 -55 -72 -48 -84 12 -19 37 -10 72 25 29 29 33 38
23 50 -13 15 -25 17 -47 9z"/>
<path d="M3507 2643 c-15 -14 -6 -51 19 -73 21 -21 27 -22 34 -10 28 44 -20
117 -53 83z"/>
<path d="M1418 2598 c-41 -34 -67 -118 -35 -118 38 1 98 90 76 116 -14 17 -21
18 -41 2z"/>
<path d="M3607 2443 c-25 -24 16 -102 46 -90 19 7 22 48 7 78 -10 19 -40 26
-53 12z"/>
<path d="M1270 2318 c-25 -42 -25 -70 0 -93 20 -18 21 -18 35 1 18 23 16 115
-2 121 -7 3 -22 -10 -33 -29z"/>
<path d="M3686 2204 c-15 -39 -3 -104 19 -104 36 0 61 80 33 108 -17 17 -45
15 -52 -4z"/>
<path d="M1242 2038 c-19 -19 -15 -83 7 -109 19 -23 20 -23 27 -4 5 11 8 42 9
70 0 52 -17 69 -43 43z"/>
<path d="M3641 1956 c-17 -20 -10 -60 10 -64 23 -4 51 26 47 52 -4 26 -40 33
-57 12z"/>
<path d="M1232 1774 c4 -33 34 -56 47 -35 13 20 -8 61 -31 61 -15 0 -19 -6
-16 -26z"/>
<path d="M2233 2570 c-58 -12 -174 -62 -233 -100 -155 -99 -264 -337 -246
-536 17 -186 106 -319 272 -406 127 -66 223 -91 359 -92 107 -1 129 2 202 27
108 37 158 72 244 170 141 162 176 293 129 482 -48 190 -196 348 -402 433 -52
21 -82 26 -173 28 -60 2 -129 -1 -152 -6z m222 -86 c130 -33 260 -145 328
-283 41 -83 42 -85 42 -195 0 -103 -2 -115 -28 -165 -54 -101 -176 -194 -301
-227 -70 -19 -213 -18 -293 3 -138 34 -263 161 -299 303 -25 98 -16 229 20
300 77 148 182 224 367 265 84 18 94 18 164 -1z"/>
<path d="M2270 2158 c-84 -43 -116 -140 -70 -215 73 -120 285 -67 283 70 -1
59 -23 98 -73 131 -58 38 -87 41 -140 14z m118 -74 c44 -30 21 -116 -34 -127
-84 -16 -129 65 -68 121 29 26 70 29 102 6z"/>
</g>
</svg>
