<svg xmlns="http://www.w3.org/2000/svg" width="341.333" height="341.333" version="1.0" viewBox="0 0 256 256">
    <path fill="#e5e5e5" d="M34 5c0 1.7.7 2 4.5 2 3.2 0 4.7.5 5.3 1.7.6 1 9.2 24.5 19.2 52.3s23.5 65.2 30 83.1l11.8 32.5.4 23c.3 13.8 1 23.9 1.6 25.4.9 1.9 1.1-4.5.9-27l-.3-29.5-9.8-26.5c-5.3-14.6-18.3-50.4-28.8-79.5C58.3 33.3 49.5 8.9 49.3 8.2c-.4-.8.8-1.2 4-1.2 4.3 0 4.5.1 6 4.2.9 2.4 14.3 39.4 29.7 82.3l28 78v33.3c0 35.9.1 36.5 5.6 43.7 1.4 1.9 3 3.5 3.5 3.5s.9-48.5.9-113c0-74.7.3-113 1-113s1 38.3 1 113c0 64.5.4 113 .9 113s2.1-1.6 3.5-3.5c5.5-7.2 5.6-7.8 5.6-43.7v-33.3l28-78c15.4-42.9 28.8-79.9 29.7-82.3 1.5-4.1 1.7-4.2 6-4.2 3.2 0 4.4.4 4 1.2-.2.7-9 25.1-19.5 54.3-10.5 29.1-23.5 64.9-28.8 79.5l-9.8 26.5-.3 29.5c-.2 22.5 0 28.9.9 27 .6-1.5 1.3-11.6 1.6-25.4l.4-23 11.8-32.5c6.5-17.9 20-55.3 30-83.1s18.6-51.3 19.2-52.3c.6-1.2 2.1-1.7 5.3-1.7 3.8 0 4.5-.3 4.5-2 0-1.9-.7-2-19.9-2h-19.9l-2 5.7c-1.1 3.2-10.5 30.8-20.9 61.3-10.5 30.5-19.3 56.2-19.6 57s-.6-21.6-.6-49.8L139 26h2.4c4.3 0 8.7-1.2 8.3-2.4-.7-2.2-8-2.5-12.4-.6-4.3 1.9-5.8 1.5-4.7-1.4.4-1 .1-1.6-1-1.6-1.3 0-1.4-1-.9-6.5l.6-6.5h-6.6l.6 6.5c.5 5.5.4 6.5-.9 6.5-1.1 0-1.4.6-1 1.6 1.1 2.9-.4 3.3-4.7 1.4-4.4-1.9-11.7-1.6-12.4.6-.4 1.2 4 2.4 8.3 2.4h2.4l-.1 51.2c0 28.2-.3 50.6-.6 49.8s-9.1-26.5-19.6-57C86.3 39.5 76.9 11.9 75.8 8.7l-2-5.7H53.9C34.7 3 34 3.1 34 5"/>
</svg>
