<svg xmlns="http://www.w3.org/2000/svg" width="341.333" height="341.333" version="1.0" viewBox="0 0 256 256">
    <g fill="#e5e5e5">
        <path d="M110.5 9c.5.8 3.8 6.1 7.3 11.8s6.3 10.4 6.1 10.6c-2 1.5-9.9 6.6-10.3 6.6-.3 0 .3-1.4 1.4-3.2 1.7-2.8 1.7-3.4.4-6-1.4-2.6-1.8-2.8-7.7-2.8-3.8 0-7.1.6-8.3 1.4-1.1.8-6.2 7.8-11.3 15.5L78.7 57h-4.8c-5.7 0-6.9 1.3-4 4.4 1.2 1.2 3.7 6.9 5.6 12.6L79 84.4v77.5l7.9 5.5c7.1 5 8.4 5.6 13.3 5.7 2.9.1 6.4.4 7.8.8 2.5.6 9.3 9.7 14.1 18.7l2.2 4-10.1 15.9c-5.5 8.8-9.9 16.1-9.7 16.3s2.8-1.3 5.8-3.3c4.4-2.9 6.7-5.5 11.3-13.1 3.2-5.2 6.1-9.4 6.4-9.4s3.2 4.2 6.4 9.4c4.6 7.6 6.9 10.2 11.3 13.1 3 2 5.6 3.5 5.8 3.3s-4.2-7.5-9.7-16.3l-10.1-15.9 2.2-4c4.8-9 11.6-18.1 14.1-18.7 1.4-.4 4.9-.7 7.8-.8 4.9-.1 6.2-.7 13.3-5.7l7.9-5.5V84.4l3.5-10.4c1.9-5.7 4.4-11.4 5.6-12.6 2.9-3.1 1.7-4.4-4-4.4h-4.8l-9.4-14.1c-5.1-7.7-10.2-14.7-11.3-15.5-1.2-.8-4.5-1.4-8.3-1.4-5.9 0-6.3.2-7.7 2.8-1.3 2.6-1.3 3.2.4 6 1.1 1.8 1.7 3.2 1.4 3.2-.4 0-8.3-5.1-10.3-6.6-.2-.2 2.6-4.9 6.1-10.6s6.8-11 7.3-11.8c.7-1.1.1-1-2 .4-1.7 1.1-4.4 2.9-6.2 4-1.7 1.2-4.4 4.2-6 6.8-1.5 2.6-3 4.8-3.3 4.8s-1.8-2.2-3.3-4.8c-1.6-2.6-4.3-5.6-6-6.8-1.8-1.1-4.5-2.9-6.2-4-2.1-1.4-2.7-1.5-2-.4m19.9 28.6c.9.3 3.9 4.3 6.7 8.9 6.8 11.1 8.4 12.4 18.1 15l8.3 2.2.3 46 .2 46.1-10.1 7.1c-5.5 3.9-10.7 7.1-11.5 7.1-1.2 0-1.4-6.6-1.2-47.8l.3-47.7 4.6-.3 4.6-.3 5.6 8.8 5.7 8.8v-5.7c0-4.9-.5-6.6-3.5-11.2-3.3-5.2-3.6-5.4-8.9-6-3.9-.5-6.3-.3-8.3.7-1.5.8-3.8 1.8-5 2.1-2 .7-2.3.4-2.3-2.3 0-2.2-.5-3.1-1.6-3.1-1.3 0-1.5-.7-1.1-3.3 2-11.9 2-11.6-.7-12.8-2-.9-3.2-.9-5.2 0-2.2 1-2.5 1.6-2.1 4.4 1.9 11.2 1.9 11.7.3 11.7-1.1 0-1.6.9-1.6 3.1 0 2.7-.3 3-2.2 2.3-1.3-.3-3.6-1.3-5.1-2.1-2-1-4.4-1.2-8.3-.7-5.3.6-5.6.8-8.9 6-3 4.6-3.5 6.3-3.5 11.2v5.7l5.7-8.8 5.6-8.8 4.6.3 4.6.3.3 47.7c.2 41.2 0 47.8-1.2 47.8-.8 0-6-3.2-11.5-7.1L92 155.8l.2-46.1.3-46 8.3-2.2c9.7-2.6 11.3-3.9 18.2-15 5.7-9.4 7.2-10.5 11.4-8.9m-28.8 3.1C99.3 45.1 94.1 52 93 52c-1 0 4.1-9.2 6.8-12.3 2.3-2.6 3.4-2 1.8 1m54.6-1C158.9 42.8 164 52 163 52c-1.1 0-6.3-6.9-8.6-11.3-1.6-3-.5-3.6 1.8-1M129 107.5c0 21.7-.4 33.5-1 33.5s-1-11.8-1-33.5.4-33.5 1-33.5 1 11.8 1 33.5"/>
        <path d="M73.9 112.5c-1.5 2.2-10 15.6-18.9 29.9-8.9 14.2-16.9 27-17.8 28.5l-1.7 2.6 3-1.9c1.7-1.1 4.5-2.9 6.3-4.1 2.3-1.6 7.9-9.5 17.8-25.5 14.3-22.9 14.5-23.2 14.2-28.3l-.3-5.2zm105.1 1.3c0 5 .7 6.2 14.4 28.3 9.9 15.9 15.5 23.8 17.8 25.4 1.8 1.2 4.7 3 6.3 4.1l3 1.9-1.9-3c-1.1-1.7-9.8-15.6-19.4-31s-18.1-28.7-18.8-29.5c-1.2-1.2-1.4-.7-1.4 3.8m-54.2 103.9c-1.7 2-9.8 14.2-9.8 14.8 0 .3 2.3 4 5.1 8.5 4.4 6.9 5.5 8 7.9 8s3.5-1.1 7.9-8c2.8-4.5 5.1-8.4 5-8.8 0-.4-2.4-4.1-5.2-8.2-5.5-7.9-8.1-9.4-10.9-6.3"/>
    </g>
</svg>
