<svg xmlns="http://www.w3.org/2000/svg" width="341.333" height="341.333" version="1.0" viewBox="0 0 256 256">
    <g fill="#e5e5e5">
        <path d="M122.2 14.6c-6.4 11.1-8.2 12.7-16.5 15.2L98 32.1v94.8l2.9 2c4.1 3 11.2 6.1 13.9 6.1h2.2V41.2l-6-.7c-7.4-.9-8.2-3.1-1.4-4.1 3.4-.5 5.6-.2 8 1 4.6 2.2 5.4 2 5.4-.9 0-1.6.6-2.5 1.6-2.5s1.4-.6 1.1-1.8c-.3-.9-.8-3.8-1.2-6.4-.6-4.5-.5-4.8 2-5.4 3.5-.9 5.5 1.1 5 4.7-.3 1.6-.7 4.2-1 5.9-.3 2.2-.1 3 1 3 .9 0 1.5 1 1.5 2.5 0 2.9.8 3.1 5.4.9 2.4-1.2 4.6-1.5 8-1 6.8 1 6 3.2-1.4 4.1l-6 .7V135h2.3c2.6 0 9.7-3.1 13.8-6.1l2.9-2V32.1l-5.7-1.5c-9-2.5-10.4-3.6-16.2-12.4-4.7-7.1-5.7-8.2-8.3-8.2-2.3 0-3.3.8-5.6 4.6m43.5 21.5c-.2.8-.2 21.2 0 45.4.6 49 .5 48.5 7.5 53.5 6.2 4.5 73.7 43.2 74.7 42.8.7-.2-55.1-98-80.8-141.7-.7-1.2-.9-1.2-1.4 0M86 41.2C84.4 44.1 66 76 45.2 112S7.9 177.6 8.5 177.8c1.5.4 73.3-41.3 76.8-44.6 5.3-5.1 5.7-8.5 5.7-54.9C91 51 90.6 36 90 36c-.5 0-2.3 2.4-4 5.2"/>
        <path d="M127 68.5c0 17.7.4 27.5 1 27.5s1-9.8 1-27.5-.4-27.5-1-27.5-1 9.8-1 27.5m-78.5 95.1C27.1 176 9.1 186.6 8.6 187c-.6.6-.2 4.1.9 9l1.8 8-4.5 9.2c-3.8 7.6-4.4 9.7-3.6 11.3 1.7 3.1 2.8 3.5 11.6 3.5 9.7 0 10.9.5 17.8 7.2l5.2 5L78.1 217c22.2-12.9 40.7-23.8 41.1-24.4 1.6-2.4.2-20.6-1.6-20.6-.2 0-11.5 6.4-25.2 14.3S61 204.4 53 209s-15.1 8.9-15.8 9.5c-1.1 1-.9 2.1 1.2 6.3 2.8 5.5 2 7.8-1.6 4.6-3-2.8-4.8-6.8-4.8-10.9 0-3.7-1.5-4.6-3.8-2.3-1 1-1.5 1-2.1-.1-.7-1.1-1.8-.6-5.4 2.3-5.2 4.3-7 4.5-8.6 1-1.4-3.2-1.3-3.3 5.2-6 3.6-1.4 5.1-2.6 4.9-3.7-.1-.8.7-1.8 1.8-2.2 2.9-.9 2.5-2.2-1.9-5-4.2-2.8-7.4-9.6-5.4-11.6.8-.8 2.1.3 4.5 3.9l3.4 5.1L43 189.3c30.8-17.5 61.4-35.4 62.4-36.4 1.3-1.1-1.5-4.1-7.4-7.9-8.7-5.6-6.3-6.4-49.5 18.6m112.9-20.5c-5.9 2.8-12.2 8.5-10.9 9.7 1 1.1 29.9 17.9 62.5 36.5l18.4 10.6 3.4-5.1c2.4-3.6 3.7-4.7 4.5-3.9 2 2-1.2 8.8-5.4 11.6-4.4 2.8-4.8 4.1-1.9 5 1.1.4 1.9 1.4 1.8 2.2-.2 1.1 1.3 2.3 4.9 3.7 6.5 2.7 6.6 2.8 5.2 6-1.6 3.5-3.4 3.3-8.6-1-3.6-2.9-4.7-3.4-5.4-2.3-.6 1.1-1.1 1.1-2.1.1-2.3-2.3-3.8-1.4-3.8 2.3 0 4.1-1.8 8.1-4.8 10.9-3.6 3.2-4.4.9-1.6-4.6 2.1-4.2 2.3-5.3 1.2-6.3-.7-.6-7.8-4.9-15.8-9.5s-25.7-14.8-39.4-22.7-25-14.3-25.2-14.3c-1.8 0-3.2 18.2-1.6 20.6.4.6 18.9 11.5 41.1 24.4l40.3 23.2 5.2-5c6.9-6.7 8.1-7.2 17.8-7.2 8.8 0 9.9-.4 11.6-3.5.8-1.6.2-3.7-3.6-11.3l-4.5-9.2 1.8-8c1.1-4.9 1.5-8.4.9-9-1.9-1.8-79.2-46-80.5-46-.8 0-3.3.9-5.5 2.1"/>
        <path d="M53 195.1c-24.7 14.3-23.6 13.6-22.7 14.5.6.6 41.6-22.6 46.2-26 1.5-1.1 1.6-1.5.5-1.5-.8 0-11.6 5.8-24 13m126.5-11.5c4.6 3.4 45.6 26.6 46.2 26 .4-.3.4-.8.2-1-1.5-1.5-45.9-26.6-47-26.6-.9.1-.7.6.6 1.6m-59 17.3c-5.4 2.4-72.6 41-74.5 42.7-1.2 1.2 11.8 1.4 81.3 1.4 47.1 0 82.7-.4 82.7-.9 0-.9-69.5-41.2-75.4-43.6-4.7-2-9.2-1.9-14.1.4"/>
    </g>
</svg>
