<svg xmlns="http://www.w3.org/2000/svg" width="341.333" height="341.333" version="1.0" viewBox="0 0 256 256">
    <g fill="#e5e5e5">
        <path d="M121.8 29.7c-.9 1-4.2 6.1-7.3 11.3-7.1 11.6-11.8 17.6-15.3 19.4-1.5.7-7 2.5-12.2 4s-10.7 3.2-12.2 3.8l-2.8 1v106.7l-22 16.6c-12.1 9.2-22.2 17-22.5 17.5-1 1.6 9 9.4 17 13.1 7.5 3.5 9.1 3.9 16.4 3.9h8.2l19.4-14.8 19.5-14.7v-5.9c0-4.5-.3-5.6-1.2-4.9-.7.6-9 6.9-18.5 14.2l-17.2 13.2-8.2-.3c-5.1-.2-8.4-.7-8.6-1.5-.2-.6 9.4-8.6 21.4-17.9 12-9.2 24.2-18.7 27.1-21.1l5.2-4.5V127c0-37.2-.2-41.9-1.6-42.4-.9-.3-5.5-.6-10.2-.6-9.8 0-11.5-.7-11-4.1.3-2.2 1.1-2.5 8.5-3.8l8.2-1.4 7.1 3.2c9.7 4.3 10.4 4.2 9.6-1.4l-.7-4.5h3.1c2.5 0 3-.3 2.6-1.8-.3-.9-1-6.1-1.7-11.5-1.4-10.7-1.3-11 3.9-12.3 2.3-.7 5.8 0 8.1 1.5 1.3.8 1.3 2.4.2 10.8-.7 5.4-1.4 10.6-1.7 11.5-.4 1.5.1 1.8 2.6 1.8h3.1l-.7 4.5c-.8 5.6-.1 5.7 9.6 1.4l7.1-3.2 8.2 1.4c7.4 1.3 8.2 1.6 8.5 3.8.5 3.4-1.2 4.1-11 4.1-4.7 0-9.3.3-10.2.6-1.4.5-1.6 5.2-1.6 42.4v41.8l5.3 4.5c2.8 2.4 15 11.9 27 21.1 12 9.3 21.6 17.3 21.4 17.9-.2.8-3.5 1.3-8.6 1.5l-8.2.3-17.2-13.2c-9.5-7.3-17.8-13.6-18.4-14.2-1-.7-1.3.4-1.3 4.9v5.9l19.5 14.7 19.4 14.8h8.2c7.3 0 8.9-.4 16.4-3.9 8-3.7 18-11.5 17-13.1-.3-.5-10.4-8.3-22.5-17.5l-22-16.6V69.2l-2.7-1c-1.6-.6-7.1-2.3-12.3-3.8s-10.7-3.3-12.2-4c-3.5-1.8-8.2-7.8-15.3-19.4-7.8-12.9-7.9-13-13.5-13-3.2 0-5.2.5-6.2 1.7m-30 96.5c-.3 36.7-1.2 48.2-2.9 40.3-.4-1.7-.7-20.2-.8-41.3-.1-38-.1-38.2 2-38.2 2 0 2 .1 1.7 39.2m76.1-1c-.1 21.1-.4 39.6-.8 41.3-1.7 7.9-2.6-3.6-2.9-40.3-.3-39.1-.3-39.2 1.7-39.2 2.1 0 2.1.2 2 38.2"/>
        <path d="M49.6 56.4c-9.9 3.2-16.3 5.9-17.2 7.1C31.2 65 31 74 31 113.9l-.1 48.6-13 9.9C4.1 183 2.3 184.6 3.4 185.8c.4.3 4 .8 8.1 1l7.3.4 14.1-10.6L47 165.9v-50.2c0-41.8.2-50.6 1.4-52.3.9-1.1 6.2-3.5 13.2-5.9 6.5-2.2 12-4.6 12.2-5.3.8-2.5-8.5-.9-24.2 4.2"/>
        <path d="M74.7 57.5c-10.8 3.4-20.4 6.8-21.2 7.5-1.3 1.1-1.5 8.2-1.5 52.1 0 40.8-.3 51-1.3 52.1-.8.7-11.8 9.4-24.5 19.2-12.8 9.9-23.1 18.4-22.9 19s3.8 1.2 8.3 1.4l7.9.3 23.8-17.8L67 173.5V121c0-45.8.2-52.8 1.5-54.8 1.2-1.6 5.9-3.5 17.4-7.2 17.5-5.6 21.7-8.1 13.5-7.9-3 .1-12.5 2.5-24.7 6.4m78.3-5c.6.8 8.3 3.7 17.1 6.5 11.5 3.7 16.2 5.6 17.4 7.2 1.3 2 1.5 9 1.5 54.8v52.5l23.7 17.8 23.8 17.8 7.9-.3c4.5-.2 8.1-.8 8.3-1.4s-10.1-9.1-22.9-19c-12.7-9.8-23.7-18.5-24.5-19.2-1-1.1-1.3-11.3-1.3-52.2V66l-2.2-1.4c-4-2.5-41.4-13.6-45.8-13.6-3.6 0-4.1.2-3 1.5"/>
        <path d="M182.2 52.2c.2.7 5.7 3.1 12.2 5.3 7 2.4 12.3 4.8 13.2 5.9 1.2 1.7 1.4 10.5 1.4 52.3v50.2l14.1 10.7 14.1 10.6 7.3-.4c4.1-.2 7.7-.7 8.1-1 1.1-1.2-.7-2.8-14.5-13.4l-13-9.9-.1-48.6c0-44.9-.1-48.8-1.7-50.7-1.1-1.2-7.9-3.9-18-7.1-16-5.1-23.9-6.4-23.1-3.9m-55.7 36c-.9 7.2-.2 107.4.8 108.4.4.4 1 .4 1.5 0 .9-1 1.6-101.2.7-108.4-.3-2.8-1-5.2-1.5-5.2s-1.2 2.4-1.5 5.2"/>
    </g>
</svg>
