<svg xmlns="http://www.w3.org/2000/svg" width="341.333" height="341.333" version="1.0" viewBox="0 0 256 256">
    <g fill="#e5e5e5">
        <path d="M39.9 6.5c-3.6 2.7-4.8 4.5-6.3 8.9-1.8 6-3.5 7-5.9 3.5-.9-1.3-1.7-1.6-2.2-1-1.3 2.1-3.1 1-7-4.5-5.3-7.4-6.8-8.2-10-5C7.1 9.8 6 11.5 6 12.3c0 .7 2.9 3.5 6.5 6.1 6.8 5 7.2 5.5 5.4 7.3-.8.8-.6 1.5 1 2.5 3.4 2.1 2.5 3.4-3.9 5.7-4.8 1.8-6.6 3.1-9 6.6-1.6 2.4-3 4.8-3 5.4 0 2.7 2.6 1.8 7.8-2.8l5.7-5.1 106 105.9c103.4 103.4 106.1 106 111.4 107.5 3 .9 8 1.6 11 1.6h5.6L138 140.4C67.3 69.6 26 27.6 26.9 27.3c.8-.4 43.4 41.5 113 111.1 61.4 61.4 112 111.6 112.5 111.6 1.4 0 0-13.2-1.9-17.6-1.1-2.9-29.8-32.1-107.2-109.6L37.6 17.1l5.1-5.9c3.9-4.4 4.9-6.2 4-7.1-1.5-1.5-1.6-1.5-6.8 2.4"/>
        <path d="M55 8.5 49.5 14 84 48.6c19.1 19.2 35.9 35.2 37.7 36 4.3 1.9 9.1 1.7 13-.4C138 82.4 205 14.9 205 13.3c0-.5-2.2-3-4.8-5.6C196 3.5 194.9 3 191 3h-4.5L163 26.6c-12.9 12.9-24.7 24.2-26.2 25-3.9 2.1-15.6 1.9-18.8-.4-1.5-.9-12.9-12.2-25.4-25L69.7 3h-4.6C60.8 3 60 3.4 55 8.5"/>
        <path d="M95.5 25.1c12.1 12.1 23.2 22.7 24.7 23.5 3.2 1.7 12 1.9 15.1.3 2.5-1.2 45.7-44 45.7-45.1 0-.5-1-.8-2.2-.8-1.5 0-8.8 6.5-23.8 21.4-24.1 24-25.5 24.9-32.7 20.6-2.1-1.2-12.5-11.1-23.1-22.1C82.1 5.3 79.5 3 76.7 3c-3 0-1.9 1.3 18.8 22.1m113.8-21c-.9.9.1 2.7 4 7.1l5.1 5.9-44.2 44.2-44.2 44.2 4.7 4.8 4.8 4.7 44.1-44.1c27.1-27.1 44.7-44 45.5-43.6.9.3-15.1 17-43.1 45.1L141.5 117l4.8 4.7 4.7 4.8 44.3-44.2L239.5 38l5.7 5.1c5.2 4.6 7.8 5.5 7.8 2.8 0-.6-1.4-3-3-5.4-2.4-3.5-4.2-4.8-9-6.6-6.4-2.3-7.3-3.6-3.9-5.7 1.6-1 1.8-1.7 1-2.5-1.8-1.8-1.4-2.3 5.4-7.3 3.6-2.6 6.5-5.4 6.5-6.1 0-1.6-4.4-6.3-5.9-6.3-.5 0-3.1 2.8-5.7 6.2-2.6 3.5-4.9 6.5-5.1 6.8-.2.2-1.2-.1-2.2-.7-1.4-.9-2-.7-2.9.8-2.1 3.4-4 2.2-5.9-3.7-1.4-4.5-2.6-6.1-6.4-9-5.3-3.9-5.1-3.8-6.6-2.3M7.8 55.7c-4.1 4.2-4.7 5.4-4.9 9.6l-.3 4.8 24.2 24.2c13.2 13.3 24.6 25.5 25.2 27 1.5 4.1 1.2 10.2-.5 14.5-1.1 2.5-9.4 11.3-25.1 26.7l-23.5 23-.2 15.3c-.1 8.3 0 15.2.3 15.2 1 0 79.8-79.6 80.9-81.7 1.4-2.8 1.4-9.8 0-12.6S14.8 51 13.5 51c-.6 0-3.2 2.1-5.7 4.7"/>
        <path d="M207.3 85.2c-18.7 18.9-34.6 35.3-35.2 36.5-1.4 2.8-1.4 9.8 0 12.6 1.1 2.1 79.9 81.7 80.9 81.7.3 0 .4-6.9.3-15.2l-.2-15.3-23.5-23c-15.7-15.4-24-24.2-25.1-26.7-1.7-4.3-2-10.4-.5-14.5.6-1.5 12-13.7 25.2-27l24.2-24.2-.3-4.8c-.2-4.2-.8-5.4-4.9-9.6-2.5-2.6-5.1-4.7-5.7-4.7-.5 0-16.4 15.4-35.2 34.2M2.6 77.7c.2 2.1 4.9 7.4 19.7 21.8C42.1 118.8 46 123.5 46 128c0 4.6-4 9.4-23.6 28.5C7.5 171 2.8 176.2 2.6 178.2c-.2 1.6 0 2.8.3 2.8.4 0 10.8-10.2 23.3-22.8 31.7-31.9 31.7-28.5 0-60.5C13.7 85.2 3.3 75 2.9 75c-.3 0-.5 1.2-.3 2.7"/>
        <path d="M229.8 97.7c-31.7 32-31.7 28.6 0 60.5 12.5 12.6 22.9 22.8 23.3 22.8.3 0 .5-1.2.3-2.8-.2-2-4.9-7.2-19.8-21.7C214 137.4 210 132.6 210 128c0-4.5 3.9-9.2 23.7-28.5 14.8-14.4 19.5-19.7 19.7-21.8.2-1.5 0-2.7-.3-2.7-.4 0-10.8 10.2-23.3 22.7M55.3 180.2 6.1 229.5l-1.5 6.1c-1.7 6.5-2.1 14.4-.8 14.4.4 0 25.4-24.7 55.7-55l55-55-4.5-4.5c-2.4-2.5-4.7-4.5-5-4.5s-22.6 22.2-49.7 49.2m5.7 17.4L5.5 253.2l7.5-.4c4.6-.3 9.2-1.3 12-2.5 3.4-1.6 16.4-14.1 52.8-50.5l48.2-48.3-4.8-4.8-4.7-4.7zm62.6-26.1c-3.1 1.1-13.2 10.6-44 41.5l-40.1 40h31L94 229.4c12.9-12.9 24.7-24.2 26.2-25 3.2-1.6 11.5-1.9 15.5-.4 1.5.6 13.6 11.9 26.8 25.1l24.1 24 14.7-.3 14.7-.3-39.9-39.9c-21.9-21.9-40.5-40.2-41.2-40.6-3.1-1.7-7.6-1.9-11.3-.5"/>
        <path d="M121.5 207.4c-1.6.8-12.9 11.3-25 23.5C75.9 251.6 74.7 253 77.6 253c2.8 0 5.5-2.3 21.9-19.3 10.3-10.5 20.4-20.2 22.4-21.4 3.9-2.5 8-2.9 11.4-1.2 1.2.6 11.5 10.3 22.8 21.6 16.9 16.8 21 20.4 23 20.1 2.1-.3-.2-3-18.6-21.7-13.6-13.8-22.4-22-25-23.2-4.7-2.2-9.8-2.4-14-.5"/>
    </g>
</svg>
